v 0.47982656323735862 -0.46491722061151541 0.19176150169186768
v 0.42997830311203389 0.51001077511034398 0.18964648334802403
v -0.47937595781165787 0.46351531292265852 0.18710582778351728
v -0.42952769720045603 -0.51141268279920082 0.18922084661323815
v 0.47982656323735862 -0.46491722061151541 -0.19167826186863746
v 0.42997830311203389 0.51001077511034398 -0.19167826186863746
v -0.47937595781165787 0.46351531292265852 -0.19167826186863746
v -0.42952769720045603 -0.51141268279920082 -0.19167826186863746
l 1 2
l 2 3
l 3 4
l 1 4
l 1 5
l 5 6
l 2 6
l 6 7
l 3 7
l 7 8
l 4 8
l 5 8
