# Source coordinates; no display transform
v 0.505457997073 -0.381521911204 0.131213988525
v 0.505378895553 -0.139487422716 0.206401914991
v 0.500740146488 0.0130057803596 0.253818809208
v -0.499843313142 -0.0206110562813 0.25317380791
v -0.489685176418 -0.404682803145 0.133763816827
v -0.470194589394 -0.411200759445 0.131548180312
v 0.489558613918 -0.389400411556 0.128922251282
v 0.489210568083 0.392026578108 0.140373105331
v 0.483974054788 0.40374940653 0.136812149631
v 0.454674893083 0.409539629987 0.134767744124
v 0.380841638902 0.4092706852 0.134058894496
v -0.357443442568 0.392532826981 0.131171201426
v -0.475779148996 0.388704319026 0.131050895101
v -0.510504666792 0.382486948215 0.132538602875
v 0.505457997073 -0.381521911204 -0.255606771206
v 0.505378895553 -0.139487422716 -0.255606771206
v 0.500740146488 0.0130057803596 -0.255606771206
v 0.489210568083 0.392026578108 -0.255606771206
v 0.483974054788 0.40374940653 -0.255606771206
v 0.454674893083 0.409539629987 -0.255606771206
v 0.380841638902 0.4092706852 -0.255606771206
v -0.357443442568 0.392532826981 -0.255606771206
v -0.475779148996 0.388704319026 -0.255606771206
v -0.510504666792 0.382486948215 -0.255606771206
v -0.499843313142 -0.0206110562813 -0.255606771206
v -0.489685176418 -0.404682803145 -0.255606771206
v -0.470194589394 -0.411200759445 -0.255606771206
v 0.489558613918 -0.389400411556 -0.255606771206
g roof
f 1 2 3 4 5 6 7
g roof
f 3 8 9 10 11 12 13 14 4
g wall
f 2 1 15 16
g wall
f 3 2 16 17
g wall
f 5 4 25 26
g wall
f 6 5 26 27
g wall
f 7 6 27 28
g wall
f 1 7 28 15
g wall
f 8 3 17 18
g wall
f 9 8 18 19
g wall
f 10 9 19 20
g wall
f 11 10 20 21
g wall
f 12 11 21 22
g wall
f 13 12 22 23
g wall
f 14 13 23 24
g wall
f 4 14 24 25
g ground_assumed
f 28 27 26 25 24 23 22 21 20 19 18 17 16 15
