# XYZ-only planar convex-roof baseline. Provisional base; no GT.
v 10.76212901 -8.08952694 2.77315727
v 10.76045329 -2.96216608 4.36597007
v 10.66218407 0.26831436 5.37046959
v -10.53459867 -0.44383891 5.35680561
v -10.31940441 -8.58017706 2.82717391
v -9.90650758 -8.71825620 2.78023693
v 10.42530976 -8.25642842 2.72460814
v 10.41793661 8.29765107 2.96718787
v 10.30700410 8.54599242 2.89175108
v 9.68631828 8.66865496 2.84844153
v 8.12220343 8.66295752 2.83342496
v -7.51793965 8.30837566 2.77225085
v -10.02481325 8.22727093 2.76970223
v -10.76045329 8.09555952 2.80121846
v 10.76212901 -8.08952694 -5.42141713
v 10.76045329 -2.96216608 -5.42141713
v 10.66218407 0.26831436 -5.42141713
v 10.41793661 8.29765107 -5.42141713
v 10.30700410 8.54599242 -5.42141713
v 9.68631828 8.66865496 -5.42141713
v 8.12220343 8.66295752 -5.42141713
v -7.51793965 8.30837566 -5.42141713
v -10.02481325 8.22727093 -5.42141713
v -10.76045329 8.09555952 -5.42141713
v -10.53459867 -0.44383891 -5.42141713
v -10.31940441 -8.58017706 -5.42141713
v -9.90650758 -8.71825620 -5.42141713
v 10.42530976 -8.25642842 -5.42141713
g roof
f 1 2 3 4 5 6 7
g roof
f 3 8 9 10 11 12 13 14 4
g wall
f 2 1 15 16
g wall
f 3 2 16 17
g wall
f 5 4 25 26
g wall
f 6 5 26 27
g wall
f 7 6 27 28
g wall
f 1 7 28 15
g wall
f 8 3 17 18
g wall
f 9 8 18 19
g wall
f 10 9 19 20
g wall
f 11 10 20 21
g wall
f 12 11 21 22
g wall
f 13 12 22 23
g wall
f 14 13 23 24
g wall
f 4 14 24 25
g ground_assumed
f 28 27 26 25 24 23 22 21 20 19 18 17 16 15
