v 0.50545799707258965 -0.38152191120414364 0.13121398852548341
v 0.50537889555348015 -0.13948742271606401 0.20640191499127652
v 0.500740146488172 0.013005780359591188 0.25381880920802591
v -0.49984331314155522 -0.020611056281308552 0.25317380791002653
v -0.48968517641843207 -0.40468280314511279 0.13376381682686897
v -0.47019458939401892 -0.41120075944530071 0.13154818031216595
v 0.48955861391766803 -0.38940041155601929 0.12892225128152213
v 0.48921056808326663 0.39202657810843733 0.14037310533124595
v 0.48397405478770184 0.40374940653009217 0.13681214963115648
v 0.45467489308299897 0.40953962998737947 0.13476774412370038
v 0.38084163890155653 0.40927068520004278 0.13405889449559064
v -0.35744344256785598 0.3925328269810579 0.13117120142563893
v -0.47577914899603013 0.38870431902628261 0.13105089510141224
v -0.51050466679247997 0.38248694821548429 0.13253860287455357
v 0.50545799707258965 -0.38152191120414364 -0.25560677120577369
v 0.50537889555348015 -0.13948742271606401 -0.25560677120577369
v 0.500740146488172 0.013005780359591188 -0.25560677120577369
v 0.48921056808326663 0.39202657810843733 -0.25560677120577369
v 0.48397405478770184 0.40374940653009217 -0.25560677120577369
v 0.45467489308299897 0.40953962998737947 -0.25560677120577369
v 0.38084163890155653 0.40927068520004278 -0.25560677120577369
v -0.35744344256785598 0.3925328269810579 -0.25560677120577369
v -0.47577914899603013 0.38870431902628261 -0.25560677120577369
v -0.51050466679247997 0.38248694821548429 -0.25560677120577369
v -0.49984331314155522 -0.020611056281308552 -0.25560677120577369
v -0.48968517641843207 -0.40468280314511279 -0.25560677120577369
v -0.47019458939401892 -0.41120075944530071 -0.25560677120577369
v 0.48955861391766803 -0.38940041155601929 -0.25560677120577369
l 1 2
l 2 3
l 3 4
l 4 5
l 5 6
l 6 7
l 1 7
l 3 8
l 8 9
l 9 10
l 10 11
l 11 12
l 12 13
l 13 14
l 4 14
l 1 15
l 15 16
l 16 17
l 25 26
l 5 26
l 26 27
l 6 27
l 27 28
l 7 28
l 15 28
l 17 18
l 8 18
l 18 19
l 9 19
l 19 20
l 10 20
l 20 21
l 21 22
l 22 23
l 23 24
l 14 24
l 24 25
