# Source coordinates; no display transform
v 2684892.70721 1252150.88332 436.342403611
v 2684892.73137 1252145.59176 436.337168712
v 2684897.49874 1252145.78246 436.449507439
v 2684898.00595 1252145.97522 436.461648543
v 2684899.33382 1252146.02834 436.492938626
v 2684899.0952 1252151.9938 436.493868312
v 2684899.08315 1252152.29508 436.493915264
v 2684899.07483 1252152.503 436.493947668
v 2684898.44005 1252168.37262 436.496420865
v 2684898.22757 1252168.87413 436.491973286
v 2684898.0213 1252174.03083 436.49277693
v 2684895.47782 1252173.92909 436.432842193
v 2684895.4784 1252173.91478 436.432839963
v 2684897.98855 1252174.01519 436.491989559
v 2684898.07364 1252171.88795 436.491658041
v 2684895.50715 1252171.78529 436.431181015
v 2684895.46897 1252172.73985 436.431329778
v 2684895.00494 1252171.50273 436.419058917
v 2684891.8449 1252171.37633 436.344595549
v 2684891.90011 1252169.99603 436.344380436
v 2684891.91724 1252167.88171 436.342464564
v 2684892.01784 1252167.24073 436.344127823
v 2684892.2321 1252161.88432 436.343293055
v 2684892.32024 1252158.36778 436.34150987
v 2684892.41722 1252156.25665 436.341475507
v 2684892.54288 1252154.99171 436.343043882
v 2684895.51996 1252172.87578 437.209991455
v 2684895.46897 1252172.73985 437.209991455
v 2684895.50715 1252171.78529 437.209991455
v 2684898.07364 1252171.88795 437.209991455
v 2684897.98855 1252174.01519 437.209991455
v 2684895.4784 1252173.91478 437.209991455
v 2684892.73137 1252145.59176 431.733733245
v 2684897.49874 1252145.78246 431.733733245
v 2684898.00595 1252145.97522 431.733733245
v 2684899.33382 1252146.02834 431.733733245
v 2684899.0952 1252151.9938 431.733733245
v 2684899.08315 1252152.29508 431.733733245
v 2684899.07483 1252152.503 431.733733245
v 2684898.44005 1252168.37262 431.733733245
v 2684898.22757 1252168.87413 431.733733245
v 2684898.0213 1252174.03083 431.733733245
v 2684895.47782 1252173.92909 431.733733245
v 2684895.4784 1252173.91478 431.733733245
v 2684895.46897 1252172.73985 431.733733245
v 2684895.00494 1252171.50273 431.733733245
v 2684891.8449 1252171.37633 431.733733245
v 2684891.90011 1252169.99603 431.733733245
v 2684891.91724 1252167.88171 431.733733245
v 2684892.01784 1252167.24073 431.733733245
v 2684892.2321 1252161.88432 431.733733245
v 2684892.32024 1252158.36778 431.733733245
v 2684892.41722 1252156.25665 431.733733245
v 2684892.54288 1252154.99171 431.733733245
v 2684892.70721 1252150.88332 431.733733245
v 2684895.51996 1252172.87578 431.733733245
g roof
f 1 2 3
g roof
f 1 3 4
g roof
f 1 4 5
g roof
f 1 5 6
g roof
f 1 6 7
g roof
f 1 7 8
g roof
f 1 8 9
g roof
f 1 9 10
g roof
f 11 12 13
g roof
f 11 13 14
g roof
f 11 14 15
g roof
f 16 17 18
g roof
f 18 19 20
g roof
f 18 20 21
g roof
f 18 21 22
g roof
f 18 22 23
g roof
f 18 23 24
g roof
f 18 24 25
g roof
f 18 25 26
g roof
f 18 26 1
g roof
f 18 1 10
g roof
f 10 11 15
g roof
f 10 15 16
g roof
f 10 16 18
g roof_fixture
f 27 28 29
g roof_fixture
f 27 29 30
g roof_fixture
f 27 30 31
g roof_fixture
f 27 31 32
g facade_completed
f 3 2 33 34
g facade_completed
f 4 3 34 35
g facade_completed
f 5 4 35 36
g facade_completed
f 6 5 36 37
g facade_completed
f 7 6 37 38
g facade_completed
f 8 7 38 39
g facade_completed
f 9 8 39 40
g facade_completed
f 10 9 40 41
g facade_completed
f 11 10 41 42
g facade_completed
f 12 11 42 43
g facade_completed
f 13 12 43 44
g roof_step_or_fixture_side
f 32 31 14 13
g roof_step_or_fixture_side
f 31 30 15 14
g roof_step_or_fixture_side
f 30 29 16 15
g roof_step_or_fixture_side
f 29 28 17 16
g facade_completed
f 18 17 45 46
g facade_completed
f 19 18 46 47
g facade_completed
f 20 19 47 48
g facade_completed
f 21 20 48 49
g facade_completed
f 22 21 49 50
g facade_completed
f 23 22 50 51
g facade_completed
f 24 23 51 52
g facade_completed
f 25 24 52 53
g facade_completed
f 26 25 53 54
g facade_completed
f 1 26 54 55
g facade_completed
f 2 1 55 33
g facade_completed
f 27 32 13 44 56
g facade_completed
f 28 27 56 45 17
g ground_assumed
f 55 34 33
g ground_assumed
f 55 35 34
g ground_assumed
f 55 36 35
g ground_assumed
f 55 37 36
g ground_assumed
f 55 38 37
g ground_assumed
f 55 39 38
g ground_assumed
f 55 40 39
g ground_assumed
f 55 41 40
g ground_assumed
f 55 42 41
g ground_assumed
f 42 44 43
g ground_assumed
f 42 56 44
g ground_assumed
f 42 45 56
g ground_assumed
f 42 46 45
g ground_assumed
f 46 48 47
g ground_assumed
f 46 49 48
g ground_assumed
f 46 50 49
g ground_assumed
f 46 51 50
g ground_assumed
f 46 52 51
g ground_assumed
f 46 53 52
g ground_assumed
f 46 54 53
g ground_assumed
f 46 55 54
g ground_assumed
f 46 42 55
