# Source coordinates; no display transform
v 2685800.02914 1249241.84678 604.089790834
v 2685799.75 1249241.87499 604.089681232
v 2685799.72084 1249241.52821 604.09238737
v 2685799.25208 1249242.248 604.086978195
v 2685799.25206 1249241.99799 604.088920952
v 2685799.4979 1249242.25203 604.08685037
v 2685799.4979 1249242.50201 604.084907839
v 2685797.25211 1249241.99798 604.089706149
v 2685797.24998 1249241.62499 604.092605359
v 2685797.24798 1249240.9979 604.097479066
v 2685797.50199 1249240.75208 604.099289517
v 2685797.49999 1249241 604.097363828
v 2685797.74998 1249241.12501 604.096294278
v 2685797.75202 1249242.3771 604.086563904
v 2685797.68332 1249242.44358 604.086074323
v 2685798.74999 1249242.24999 604.087159836
v 2685798.99999 1249242.375 604.086090287
v 2685798.94157 1249242.68962 604.08366842
v 2685798.55845 1249243.06039 604.080937721
v 2685798.4728 1249243.22187 604.079716523
v 2685798.02721 1249243.65309 604.076540625
v 2685797.99798 1249242.74793 604.083585734
v 2685798.25202 1249242.50209 604.085396381
v 2685798.52921 1249242.6552 604.084097765
v 2685798.72079 1249242.4698 604.085463213
v 2685794.72288 1249240.15531 604.105017924
v 2685794.49799 1249240.37294 604.10341505
v 2685794.49798 1249239.9979 604.106329382
v 2685794.72284 1249239.78029 604.107932059
v 2685795.05836 1249240.12699 604.105106232
v 2685795.22079 1249239.9698 604.106263908
v 2685795.24999 1249239.74999 604.10796053
v 2685795.52921 1249239.9052 604.106644847
v 2685795.84781 1249239.59688 604.108915618
v 2685795.9959 1249239.74991 604.107668329
v 2685796.00411 1249238.50007 604.117377153
v 2685795.748 1249238.74792 604.115551778
v 2685795.77921 1249238.40519 604.118202711
v 2685795.97079 1249238.21979 604.119568159
v 2685795.99999 1249237.62499 604.124178692
v 2685796.24998 1249237.75 604.123109143
v 2685796.24999 1249238.12499 604.120195232
v 2685796.75209 1249238.248 604.119042213
v 2685796.99791 1249238.50202 604.116971856
v 2685796.99998 1249238.87501 604.114072674
v 2685797.22085 1249239.0282 604.112795549
v 2685797.52915 1249239.34677 604.110199013
v 2685797.7521 1249239.37299 604.10990777
v 2685797.99792 1249239.627 604.107837414
v 2685798.80621 1249240.57058 604.100187869
v 2685799.25001 1249240.75001 604.098619305
v 2685799.25002 1249241.125 604.095705394
v 2685799.50201 1249241.25208 604.094619002
v 2685799.05849 1249241.6813 604.091457832
v 2685799.00409 1249241.62509 604.091915965
v 2685798.74799 1249241.87293 604.090090589
v 2685798.74792 1249241.00199 604.096858413
v 2685798.5041 1249240.75004 604.098911927
v 2685798.24796 1249240.99792 604.097086355
v 2685798 1249240.875 604.098138836
v 2685797.99999 1249240.50001 604.101052747
v 2685797.75202 1249240.3771 604.102105228
v 2685797.49801 1249240.62292 604.100294778
v 2685797.52913 1249239.72179 604.107284906
v 2685797.19161 1249239.37302 604.110127576
v 2685797.02921 1249239.53018 604.108970098
v 2685797.00001 1249239.12502 604.112129918
v 2685796.52921 1249239.15521 604.112080153
v 2685796.502 1249240.50208 604.10162476
v 2685796.24799 1249240.7479 604.099814309
v 2685796.27914 1249241.34678 604.095148375
v 2685795.97285 1249241.03028 604.097728068
v 2685795.62097 1249241.37081 604.095220066
v 2685795.53535 1249241.28234 604.095941176
v 2685795.21675 1249241.59066 604.093670405
v 2685794.97078 1249241.46981 604.094706044
v 2685794.77923 1249241.65518 604.093340792
v 2685794.75202 1249242.62707 604.085799309
v 2685794.52713 1249242.8447 604.084196435
v 2685794.22086 1249242.52823 604.086775903
v 2685794.24798 1249241.24792 604.096714049
v 2685794.50202 1249241.00207 604.098524696
v 2685794.50001 1249241.24999 604.096599007
v 2685794.74798 1249241.37291 604.095546526
v 2685795.02914 1249240.47178 604.102438456
v 2685796.72079 1249238.96981 604.113445601
v 2685795.002 1249241.12709 604.097356977
v 2685796.25201 1249239.50206 604.109493704
v 2685796.24793 1249238.75202 604.11532364
v 2685796.91026 1249242.16142 604.08857034
v 2685796.99793 1249242.25202 604.087831937
v 2685797.00201 1249243.50208 604.078116517
v 2685796.62097 1249243.87083 604.075400743
v 2685796.53735 1249243.78442 604.07610501
v 2685795.96474 1249244.33856 604.072023788
v 2685796 1249243.62498 604.077554917
v 2685795.75201 1249243.50209 604.078607202
v 2685795.4959 1249243.74994 604.076781826
v 2685795.25411 1249243.50009 604.078818272
v 2685794.998 1249243.74793 604.076992897
v 2685795.02923 1249243.03019 604.082557937
v 2685795.22288 1249242.84279 604.083938113
v 2685795.49592 1249243.12494 604.081638466
v 2685795.75203 1249242.87709 604.083463841
v 2685796.02922 1249243.03021 604.082165226
v 2685796.2208 1249242.84481 604.083530674
v 2685796.2521 1249242.37299 604.087184753
v 2685796.46467 1249242.59264 604.085394442
v 2685793.24799 1249241.2479 604.09710676
v 2685793.24792 1249241.877 604.092218325
v 2685792.97288 1249241.59279 604.094534816
v 2685792.75009 1249241.8084 604.092946867
v 2685793.02902 1249242.09663 604.090597588
v 2685793.25014 1249241.88265 604.092173558
v 2685793.25 1249242 604.091261675
v 2685793.24792 1249242.37702 604.08833284
v 2685793.00194 1249242.12284 604.090404544
v 2685793.02886 1249242.09679 604.09059641
v 2685792.77914 1249242.09679 604.090694439
v 2685792.47085 1249241.77822 604.093290975
v 2685792.19161 1249241.12302 604.098491947
v 2685792.02921 1249241.28018 604.097334468
v 2685791.99999 1249241 604.099523135
v 2685792.15226 1249241.02402 604.099276653
v 2685792.84773 1249240.35098 604.104233545
v 2685793.0272 1249240.40312 604.103757996
v 2685793.47279 1249239.9719 604.106933895
v 2685793.50207 1249240.74798 604.100891736
v 2685793.74792 1249241.00202 604.098821155
v 2685793.74792 1249241.25201 604.096878623
v 2685793.5041 1249241.00006 604.098932136
v 2685792.52913 1249241.47179 604.095649277
v 2685796.16026 1249244.53646 604.070409225
v 2685796.2479 1249244.62703 604.069671047
v 2685796.19155 1249245.18963 604.065321377
v 2685795.80845 1249245.56037 604.062590874
v 2685795.77922 1249244.9052 604.067693451
v 2685795.08973 1249238.27607 604.178920928
v 2685795.50201 1249237.87709 604.187030412
v 2685795.27916 1249238.47181 604.17798681
v 2685794.25201 1249239.62706 604.155800656
v 2685794.02712 1249239.8447 604.151377103
v 2685793.66241 1249239.46783 604.153175648
v 2685793.74999 1249239.25 604.15653428
v 2685793.99801 1249239.37292 604.156950896
v 2685794.25202 1249239.1271 604.16194731
v 2685797.62901 1249243.87916 604.129772903
v 2685797.24798 1249244.24791 604.122278011
v 2685797.27922 1249243.90521 604.126733959
v 2685797.47287 1249243.71781 604.130542919
v 2685795.27714 1249244.3447 604.105769787
v 2685795.502 1249244.12709 604.110192797
v 2685795.5 1249244.74999 604.102519276
v 2685795.27914 1249244.72181 604.101149195
v 2685794.78545 1249244.21166 604.103583766
v 2685794.97287 1249244.03029 604.10727024
v 2685793.75208 1249242.74796 604.113546605
v 2685793.99793 1249243.002 604.112334251
v 2685793.75 1249242.875 604.111968686
v 2685799.72084 1249241.52821 601.897166443
v 2685800.02914 1249241.84678 601.897166443
v 2685799.75 1249241.87499 601.897166443
v 2685799.4979 1249242.25203 601.897166443
v 2685799.4979 1249242.50201 601.897166443
v 2685799.25208 1249242.248 601.897166443
v 2685799.25206 1249241.99799 601.897166443
v 2685797.24798 1249240.9979 601.897166443
v 2685797.50199 1249240.75208 601.897166443
v 2685797.49999 1249241 601.897166443
v 2685797.74998 1249241.12501 601.897166443
v 2685797.75202 1249242.3771 601.897166443
v 2685797.68332 1249242.44358 601.897166443
v 2685797.25211 1249241.99798 601.897166443
v 2685797.24998 1249241.62499 601.897166443
v 2685798.94157 1249242.68962 601.897166443
v 2685798.55845 1249243.06039 601.897166443
v 2685798.4728 1249243.22187 601.897166443
v 2685798.02721 1249243.65309 601.897166443
v 2685797.99798 1249242.74793 601.897166443
v 2685798.25202 1249242.50209 601.897166443
v 2685798.52921 1249242.6552 601.897166443
v 2685798.72079 1249242.4698 601.897166443
v 2685798.74999 1249242.24999 601.897166443
v 2685798.99999 1249242.375 601.897166443
v 2685795.002 1249241.12709 601.897166443
v 2685795.02914 1249240.47178 601.897166443
v 2685794.72288 1249240.15531 601.897166443
v 2685794.49799 1249240.37294 601.897166443
v 2685794.49798 1249239.9979 601.897166443
v 2685794.72284 1249239.78029 601.897166443
v 2685795.05836 1249240.12699 601.897166443
v 2685795.22079 1249239.9698 601.897166443
v 2685795.24999 1249239.74999 601.897166443
v 2685795.52921 1249239.9052 601.897166443
v 2685795.84781 1249239.59688 601.897166443
v 2685795.9959 1249239.74991 601.897166443
v 2685796.25201 1249239.50206 601.897166443
v 2685796.24793 1249238.75202 601.897166443
v 2685796.00411 1249238.50007 601.897166443
v 2685795.748 1249238.74792 601.897166443
v 2685795.77921 1249238.40519 601.897166443
v 2685795.97079 1249238.21979 601.897166443
v 2685795.99999 1249237.62499 601.897166443
v 2685796.24998 1249237.75 601.897166443
v 2685796.24999 1249238.12499 601.897166443
v 2685796.75209 1249238.248 601.897166443
v 2685796.99791 1249238.50202 601.897166443
v 2685796.99998 1249238.87501 601.897166443
v 2685797.22085 1249239.0282 601.897166443
v 2685797.52915 1249239.34677 601.897166443
v 2685797.7521 1249239.37299 601.897166443
v 2685797.99792 1249239.627 601.897166443
v 2685798.80621 1249240.57058 601.897166443
v 2685799.25001 1249240.75001 601.897166443
v 2685799.25002 1249241.125 601.897166443
v 2685799.50201 1249241.25208 601.897166443
v 2685799.05849 1249241.6813 601.897166443
v 2685799.00409 1249241.62509 601.897166443
v 2685798.74799 1249241.87293 601.897166443
v 2685798.74792 1249241.00199 601.897166443
v 2685798.5041 1249240.75004 601.897166443
v 2685798.24796 1249240.99792 601.897166443
v 2685798 1249240.875 601.897166443
v 2685797.99999 1249240.50001 601.897166443
v 2685797.75202 1249240.3771 601.897166443
v 2685797.49801 1249240.62292 601.897166443
v 2685797.52913 1249239.72179 601.897166443
v 2685797.19161 1249239.37302 601.897166443
v 2685797.02921 1249239.53018 601.897166443
v 2685797.00001 1249239.12502 601.897166443
v 2685796.72079 1249238.96981 601.897166443
v 2685796.52921 1249239.15521 601.897166443
v 2685796.502 1249240.50208 601.897166443
v 2685796.24799 1249240.7479 601.897166443
v 2685796.27914 1249241.34678 601.897166443
v 2685795.97285 1249241.03028 601.897166443
v 2685795.62097 1249241.37081 601.897166443
v 2685795.53535 1249241.28234 601.897166443
v 2685795.21675 1249241.59066 601.897166443
v 2685794.97078 1249241.46981 601.897166443
v 2685794.77923 1249241.65518 601.897166443
v 2685794.75202 1249242.62707 601.897166443
v 2685794.52713 1249242.8447 601.897166443
v 2685794.22086 1249242.52823 601.897166443
v 2685794.24798 1249241.24792 601.897166443
v 2685794.50202 1249241.00207 601.897166443
v 2685794.50001 1249241.24999 601.897166443
v 2685794.74798 1249241.37291 601.897166443
v 2685797.00201 1249243.50208 601.897166443
v 2685796.62097 1249243.87083 601.897166443
v 2685796.53735 1249243.78442 601.897166443
v 2685795.96474 1249244.33856 601.897166443
v 2685796 1249243.62498 601.897166443
v 2685795.75201 1249243.50209 601.897166443
v 2685795.4959 1249243.74994 601.897166443
v 2685795.25411 1249243.50009 601.897166443
v 2685794.998 1249243.74793 601.897166443
v 2685795.02923 1249243.03019 601.897166443
v 2685795.22288 1249242.84279 601.897166443
v 2685795.49592 1249243.12494 601.897166443
v 2685795.75203 1249242.87709 601.897166443
v 2685796.02922 1249243.03021 601.897166443
v 2685796.2208 1249242.84481 601.897166443
v 2685796.2521 1249242.37299 601.897166443
v 2685796.46467 1249242.59264 601.897166443
v 2685796.91026 1249242.16142 601.897166443
v 2685796.99793 1249242.25202 601.897166443
v 2685793.24799 1249241.2479 601.897166443
v 2685793.24792 1249241.877 601.897166443
v 2685792.97288 1249241.59279 601.897166443
v 2685792.75009 1249241.8084 601.897166443
v 2685793.02902 1249242.09663 601.897166443
v 2685793.25014 1249241.88265 601.897166443
v 2685793.25 1249242 601.897166443
v 2685793.24792 1249242.37702 601.897166443
v 2685793.00194 1249242.12284 601.897166443
v 2685793.02886 1249242.09679 601.897166443
v 2685792.77914 1249242.09679 601.897166443
v 2685792.47085 1249241.77822 601.897166443
v 2685792.52913 1249241.47179 601.897166443
v 2685792.19161 1249241.12302 601.897166443
v 2685792.02921 1249241.28018 601.897166443
v 2685791.99999 1249241 601.897166443
v 2685792.15226 1249241.02402 601.897166443
v 2685792.84773 1249240.35098 601.897166443
v 2685793.0272 1249240.40312 601.897166443
v 2685793.47279 1249239.9719 601.897166443
v 2685793.50207 1249240.74798 601.897166443
v 2685793.74792 1249241.00202 601.897166443
v 2685793.74792 1249241.25201 601.897166443
v 2685793.5041 1249241.00006 601.897166443
v 2685796.19155 1249245.18963 601.897166443
v 2685795.80845 1249245.56037 601.897166443
v 2685795.77922 1249244.9052 601.897166443
v 2685796.16026 1249244.53646 601.897166443
v 2685796.2479 1249244.62703 601.897166443
v 2685795.27916 1249238.47181 601.897166443
v 2685795.08973 1249238.27607 601.897166443
v 2685795.50201 1249237.87709 601.897166443
v 2685793.66241 1249239.46783 601.897166443
v 2685793.74999 1249239.25 601.897166443
v 2685793.99801 1249239.37292 601.897166443
v 2685794.25202 1249239.1271 601.897166443
v 2685794.25201 1249239.62706 601.897166443
v 2685794.02712 1249239.8447 601.897166443
v 2685797.27922 1249243.90521 601.897166443
v 2685797.47287 1249243.71781 601.897166443
v 2685797.62901 1249243.87916 601.897166443
v 2685797.24798 1249244.24791 601.897166443
v 2685795.5 1249244.74999 601.897166443
v 2685795.27914 1249244.72181 601.897166443
v 2685794.78545 1249244.21166 601.897166443
v 2685794.97287 1249244.03029 601.897166443
v 2685795.27714 1249244.3447 601.897166443
v 2685795.502 1249244.12709 601.897166443
v 2685793.75 1249242.875 601.897166443
v 2685793.75208 1249242.74796 601.897166443
v 2685793.99793 1249243.002 601.897166443
g roof
f 1 2 3
g roof
f 4 5 6
g roof
f 4 6 7
g roof
f 8 9 10
g roof
f 8 10 11
g roof
f 8 11 12
g roof
f 8 12 13
g roof
f 8 13 14
g roof
f 8 14 15
g roof
f 16 17 18
g roof
f 19 20 21
g roof
f 19 21 22
g roof
f 19 22 23
g roof
f 19 23 24
g roof
f 19 24 25
g roof
f 25 16 18
g roof
f 25 18 19
g roof
f 26 27 28
g roof
f 26 28 29
g roof
f 26 29 30
g roof
f 31 32 33
g roof
f 33 34 35
g roof
f 36 37 38
g roof
f 36 38 39
g roof
f 36 39 40
g roof
f 36 40 41
g roof
f 36 41 42
g roof
f 36 42 43
g roof
f 36 43 44
g roof
f 36 44 45
g roof
f 36 45 46
g roof
f 36 46 47
g roof
f 47 48 49
g roof
f 47 49 50
g roof
f 50 51 52
g roof
f 52 53 54
g roof
f 52 54 55
g roof
f 52 55 56
g roof
f 52 56 57
g roof
f 52 57 58
g roof
f 58 59 60
g roof
f 58 60 61
g roof
f 62 63 64
g roof
f 65 66 67
g roof
f 68 69 70
g roof
f 70 71 72
g roof
f 70 72 73
g roof
f 70 73 74
g roof
f 74 75 76
g roof
f 77 78 79
g roof
f 77 79 80
g roof
f 77 80 81
g roof
f 81 82 83
g roof
f 81 83 84
g roof
f 85 26 30
g roof
f 85 30 31
g roof
f 85 31 33
g roof
f 85 33 35
g roof
f 47 50 52
g roof
f 47 52 58
g roof
f 47 58 61
g roof
f 47 61 62
g roof
f 47 62 64
g roof
f 47 64 65
g roof
f 47 65 67
g roof
f 47 67 86
g roof
f 68 70 74
g roof
f 68 74 76
g roof
f 68 76 77
g roof
f 77 81 84
g roof
f 77 84 87
g roof
f 87 85 35
g roof
f 87 35 88
g roof
f 36 47 86
g roof
f 68 77 87
g roof
f 68 87 88
g roof
f 68 88 89
g roof
f 89 36 86
g roof
f 89 86 68
g roof
f 90 91 92
g roof
f 90 92 93
g roof
f 90 93 94
g roof
f 90 94 95
g roof
f 90 95 96
g roof
f 90 96 97
g roof
f 90 97 98
g roof
f 99 100 101
g roof
f 99 101 102
g roof
f 99 102 103
g roof
f 99 103 104
g roof
f 99 104 105
g roof
f 106 107 108
g roof
f 106 108 90
g roof
f 106 90 98
g roof
f 98 99 105
g roof
f 98 105 106
g roof
f 109 110 111
g roof
f 109 111 112
g roof
f 113 114 115
g roof
f 113 115 116
g roof
f 116 117 118
g roof
f 118 119 120
g roof
f 121 122 123
g roof
f 121 123 124
g roof
f 121 124 125
g roof
f 121 125 126
g roof
f 126 127 128
g roof
f 126 128 129
g roof
f 126 129 130
g roof
f 126 130 131
g roof
f 126 131 109
g roof
f 126 109 112
g roof
f 113 116 118
g roof
f 113 118 120
g roof
f 132 121 126
g roof
f 132 126 112
g roof
f 112 113 120
g roof
f 112 120 132
g roof
f 133 134 135
g roof
f 133 135 136
g roof
f 133 136 137
g roof
f 138 139 140
g roof
f 141 142 143
g roof
f 141 143 144
g roof
f 141 144 145
g roof
f 141 145 146
g roof
f 147 148 149
g roof
f 147 149 150
g roof
f 151 152 153
g roof
f 151 153 154
g roof
f 151 154 155
g roof
f 151 155 156
g roof
f 157 158 159
g facade_completed
f 1 3 160 161
g facade_completed
f 2 1 161 162
g facade_completed
f 3 2 162 160
g facade_completed
f 7 6 163 164
g facade_completed
f 4 7 164 165
g facade_completed
f 5 4 165 166
g facade_completed
f 6 5 166 163
g facade_completed
f 11 10 167 168
g facade_completed
f 12 11 168 169
g facade_completed
f 13 12 169 170
g facade_completed
f 14 13 170 171
g facade_completed
f 15 14 171 172
g facade_completed
f 8 15 172 173
g facade_completed
f 9 8 173 174
g facade_completed
f 10 9 174 167
g facade_completed
f 19 18 175 176
g facade_completed
f 20 19 176 177
g facade_completed
f 21 20 177 178
g facade_completed
f 22 21 178 179
g facade_completed
f 23 22 179 180
g facade_completed
f 24 23 180 181
g facade_completed
f 25 24 181 182
g facade_completed
f 16 25 182 183
g facade_completed
f 17 16 183 184
g facade_completed
f 18 17 184 175
g facade_completed
f 85 87 185 186
g facade_completed
f 26 85 186 187
g facade_completed
f 27 26 187 188
g facade_completed
f 28 27 188 189
g facade_completed
f 29 28 189 190
g facade_completed
f 30 29 190 191
g facade_completed
f 31 30 191 192
g facade_completed
f 32 31 192 193
g facade_completed
f 33 32 193 194
g facade_completed
f 34 33 194 195
g facade_completed
f 35 34 195 196
g facade_completed
f 88 35 196 197
g facade_completed
f 89 88 197 198
g facade_completed
f 36 89 198 199
g facade_completed
f 37 36 199 200
g facade_completed
f 38 37 200 201
g facade_completed
f 39 38 201 202
g facade_completed
f 40 39 202 203
g facade_completed
f 41 40 203 204
g facade_completed
f 42 41 204 205
g facade_completed
f 43 42 205 206
g facade_completed
f 44 43 206 207
g facade_completed
f 45 44 207 208
g facade_completed
f 46 45 208 209
g facade_completed
f 47 46 209 210
g facade_completed
f 48 47 210 211
g facade_completed
f 49 48 211 212
g facade_completed
f 50 49 212 213
g facade_completed
f 51 50 213 214
g facade_completed
f 52 51 214 215
g facade_completed
f 53 52 215 216
g facade_completed
f 54 53 216 217
g facade_completed
f 55 54 217 218
g facade_completed
f 56 55 218 219
g facade_completed
f 57 56 219 220
g facade_completed
f 58 57 220 221
g facade_completed
f 59 58 221 222
g facade_completed
f 60 59 222 223
g facade_completed
f 61 60 223 224
g facade_completed
f 62 61 224 225
g facade_completed
f 63 62 225 226
g facade_completed
f 64 63 226 227
g facade_completed
f 65 64 227 228
g facade_completed
f 66 65 228 229
g facade_completed
f 67 66 229 230
g facade_completed
f 86 67 230 231
g facade_completed
f 68 86 231 232
g facade_completed
f 69 68 232 233
g facade_completed
f 70 69 233 234
g facade_completed
f 71 70 234 235
g facade_completed
f 72 71 235 236
g facade_completed
f 73 72 236 237
g facade_completed
f 74 73 237 238
g facade_completed
f 75 74 238 239
g facade_completed
f 76 75 239 240
g facade_completed
f 77 76 240 241
g facade_completed
f 78 77 241 242
g facade_completed
f 79 78 242 243
g facade_completed
f 80 79 243 244
g facade_completed
f 81 80 244 245
g facade_completed
f 82 81 245 246
g facade_completed
f 83 82 246 247
g facade_completed
f 84 83 247 248
g facade_completed
f 87 84 248 185
g facade_completed
f 93 92 249 250
g facade_completed
f 94 93 250 251
g facade_completed
f 95 94 251 252
g facade_completed
f 96 95 252 253
g facade_completed
f 97 96 253 254
g facade_completed
f 98 97 254 255
g facade_completed
f 99 98 255 256
g facade_completed
f 100 99 256 257
g facade_completed
f 101 100 257 258
g facade_completed
f 102 101 258 259
g facade_completed
f 103 102 259 260
g facade_completed
f 104 103 260 261
g facade_completed
f 105 104 261 262
g facade_completed
f 106 105 262 263
g facade_completed
f 107 106 263 264
g facade_completed
f 108 107 264 265
g facade_completed
f 90 108 265 266
g facade_completed
f 91 90 266 267
g facade_completed
f 92 91 267 249
g facade_completed
f 110 109 268 269
g facade_completed
f 111 110 269 270
g facade_completed
f 112 111 270 271
g facade_completed
f 113 112 271 272
g facade_completed
f 114 113 272 273
g facade_completed
f 115 114 273 274
g facade_completed
f 116 115 274 275
g facade_completed
f 117 116 275 276
g facade_completed
f 118 117 276 277
g facade_completed
f 119 118 277 278
g facade_completed
f 120 119 278 279
g facade_completed
f 132 120 279 280
g facade_completed
f 121 132 280 281
g facade_completed
f 122 121 281 282
g facade_completed
f 123 122 282 283
g facade_completed
f 124 123 283 284
g facade_completed
f 125 124 284 285
g facade_completed
f 126 125 285 286
g facade_completed
f 127 126 286 287
g facade_completed
f 128 127 287 288
g facade_completed
f 129 128 288 289
g facade_completed
f 130 129 289 290
g facade_completed
f 131 130 290 291
g facade_completed
f 109 131 291 268
g facade_completed
f 136 135 292 293
g facade_completed
f 137 136 293 294
g facade_completed
f 133 137 294 295
g facade_completed
f 134 133 295 296
g facade_completed
f 135 134 296 292
g facade_completed
f 138 140 297 298
g facade_completed
f 139 138 298 299
g facade_completed
f 140 139 299 297
g facade_completed
f 144 143 300 301
g facade_completed
f 145 144 301 302
g facade_completed
f 146 145 302 303
g facade_completed
f 141 146 303 304
g facade_completed
f 142 141 304 305
g facade_completed
f 143 142 305 300
g facade_completed
f 150 149 306 307
g facade_completed
f 147 150 307 308
g facade_completed
f 148 147 308 309
g facade_completed
f 149 148 309 306
g facade_completed
f 154 153 310 311
g facade_completed
f 155 154 311 312
g facade_completed
f 156 155 312 313
g facade_completed
f 151 156 313 314
g facade_completed
f 152 151 314 315
g facade_completed
f 153 152 315 310
g facade_completed
f 157 159 316 317
g facade_completed
f 158 157 317 318
g facade_completed
f 159 158 318 316
g ground_assumed
f 298 297 299
g ground_assumed
f 173 167 174
g ground_assumed
f 173 168 167
g ground_assumed
f 173 169 168
g ground_assumed
f 173 170 169
g ground_assumed
f 173 171 170
g ground_assumed
f 173 172 171
g ground_assumed
f 187 189 188
g ground_assumed
f 187 190 189
g ground_assumed
f 187 191 190
g ground_assumed
f 192 194 193
g ground_assumed
f 194 196 195
g ground_assumed
f 199 201 200
g ground_assumed
f 199 202 201
g ground_assumed
f 199 203 202
g ground_assumed
f 199 204 203
g ground_assumed
f 199 205 204
g ground_assumed
f 199 206 205
g ground_assumed
f 199 207 206
g ground_assumed
f 199 208 207
g ground_assumed
f 199 209 208
g ground_assumed
f 199 210 209
g ground_assumed
f 210 212 211
g ground_assumed
f 210 213 212
g ground_assumed
f 213 215 214
g ground_assumed
f 215 217 216
g ground_assumed
f 215 218 217
g ground_assumed
f 215 219 218
g ground_assumed
f 215 220 219
g ground_assumed
f 215 221 220
g ground_assumed
f 221 223 222
g ground_assumed
f 221 224 223
g ground_assumed
f 225 227 226
g ground_assumed
f 228 230 229
g ground_assumed
f 232 234 233
g ground_assumed
f 234 236 235
g ground_assumed
f 234 237 236
g ground_assumed
f 234 238 237
g ground_assumed
f 238 240 239
g ground_assumed
f 241 243 242
g ground_assumed
f 241 244 243
g ground_assumed
f 241 245 244
g ground_assumed
f 245 247 246
g ground_assumed
f 245 248 247
g ground_assumed
f 186 191 187
g ground_assumed
f 186 192 191
g ground_assumed
f 186 194 192
g ground_assumed
f 186 196 194
g ground_assumed
f 210 215 213
g ground_assumed
f 210 221 215
g ground_assumed
f 210 224 221
g ground_assumed
f 210 225 224
g ground_assumed
f 210 227 225
g ground_assumed
f 210 228 227
g ground_assumed
f 210 230 228
g ground_assumed
f 210 231 230
g ground_assumed
f 232 238 234
g ground_assumed
f 232 240 238
g ground_assumed
f 232 241 240
g ground_assumed
f 241 248 245
g ground_assumed
f 241 185 248
g ground_assumed
f 185 196 186
g ground_assumed
f 185 197 196
g ground_assumed
f 199 231 210
g ground_assumed
f 232 185 241
g ground_assumed
f 232 197 185
g ground_assumed
f 232 198 197
g ground_assumed
f 198 231 199
g ground_assumed
f 198 232 231
g ground_assumed
f 304 300 305
g ground_assumed
f 304 301 300
g ground_assumed
f 304 302 301
g ground_assumed
f 304 303 302
g ground_assumed
f 266 249 267
g ground_assumed
f 266 250 249
g ground_assumed
f 266 251 250
g ground_assumed
f 266 252 251
g ground_assumed
f 266 253 252
g ground_assumed
f 266 254 253
g ground_assumed
f 266 255 254
g ground_assumed
f 256 258 257
g ground_assumed
f 256 259 258
g ground_assumed
f 256 260 259
g ground_assumed
f 256 261 260
g ground_assumed
f 256 262 261
g ground_assumed
f 263 265 264
g ground_assumed
f 263 266 265
g ground_assumed
f 263 255 266
g ground_assumed
f 255 262 256
g ground_assumed
f 255 263 262
g ground_assumed
f 268 270 269
g ground_assumed
f 268 271 270
g ground_assumed
f 272 274 273
g ground_assumed
f 272 275 274
g ground_assumed
f 275 277 276
g ground_assumed
f 277 279 278
g ground_assumed
f 281 283 282
g ground_assumed
f 281 284 283
g ground_assumed
f 281 285 284
g ground_assumed
f 281 286 285
g ground_assumed
f 286 288 287
g ground_assumed
f 286 289 288
g ground_assumed
f 286 290 289
g ground_assumed
f 286 291 290
g ground_assumed
f 286 268 291
g ground_assumed
f 286 271 268
g ground_assumed
f 272 277 275
g ground_assumed
f 272 279 277
g ground_assumed
f 280 286 281
g ground_assumed
f 280 271 286
g ground_assumed
f 271 279 272
g ground_assumed
f 271 280 279
g ground_assumed
f 318 317 316
g ground_assumed
f 161 160 162
g ground_assumed
f 165 163 166
g ground_assumed
f 165 164 163
g ground_assumed
f 183 175 184
g ground_assumed
f 176 178 177
g ground_assumed
f 176 179 178
g ground_assumed
f 176 180 179
g ground_assumed
f 176 181 180
g ground_assumed
f 176 182 181
g ground_assumed
f 182 175 183
g ground_assumed
f 182 176 175
g ground_assumed
f 307 309 308
g ground_assumed
f 307 306 309
g ground_assumed
f 314 310 315
g ground_assumed
f 314 311 310
g ground_assumed
f 314 312 311
g ground_assumed
f 314 313 312
g ground_assumed
f 295 292 296
g ground_assumed
f 295 293 292
g ground_assumed
f 295 294 293
