# pointcloud_to_mesh 0.5.1; candidate requires geometry validation; coordinates preserved
v 10.508179389 0.741421237 2.542325956
v 9.780182104 0.814987552 2.542040109
v 9.704133134 -0.089426559 2.549097844
v 8.481582265 1.787812587 2.534990461
v 8.481521995 1.135771548 2.540057262
v 9.122700551 1.798322722 2.534657089
v 9.122691279 2.450291901 2.529590874
v 3.265555303 1.135764593 2.542105095
v 3.260003522 0.162988238 2.549666371
v 3.254778589 -1.472501557 2.562377228
v 3.917257904 -2.113610571 2.567098969
v 3.912032971 -1.467030909 2.562076681
v 4.564032284 -1.141001117 2.559287246
v 4.569338350 2.124519415 2.533909972
v 4.390190836 2.297887977 2.532633120
v 7.172112989 1.793007385 2.535464189
v 7.824112303 2.119037176 2.532674755
v 7.671766331 2.939581145 2.526358412
v 6.672550052 3.906564640 2.519236620
v 6.449171418 4.327718811 2.516051679
v 5.287048034 5.452354343 2.507768787
v 5.210827527 3.091667493 2.526142763
v 5.873378702 2.450488937 2.530865016
v 6.596311001 2.849816147 2.527478165
v 7.095955071 2.366289629 2.531039318
v -3.330797423 -3.670030950 2.582038926
v -3.917320492 -3.102427981 2.577858555
v -3.917339036 -4.080559081 2.585459269
v -3.330887828 -4.648092508 2.589639128
v -2.455839046 -3.743875433 2.582269238
v -2.032223083 -4.153826365 2.585288510
v -1.956065165 -4.727108609 2.589713381
v -1.227847663 -4.322320023 2.586282017
v -0.396928006 -5.126435819 2.592204296
v -0.010690945 -4.727324190 2.588951307
v 0.010709490 -7.986961456 2.614272379
v -0.657231201 -7.340567240 2.609511713
v -0.575818214 -8.234408627 2.616425472
v -0.076174145 -8.717935145 2.619986625
v -0.000037089 -10.269207088 2.632011112
v 0.651962224 -9.943177296 2.629221678
v 0.651983087 -8.965187598 2.621622062
v 1.961482498 -8.644361876 2.618614933
v 2.602591512 -7.981882562 2.613215345
v 2.608001890 -7.009108525 2.605654142
v 3.184044958 -6.609572688 2.602323339
v 3.988091212 -5.778724892 2.595551451
v 4.569563203 -5.710353375 2.594791876
v 5.210672217 -5.047874060 2.589392288
v 7.318737961 -2.586976983 2.569441915
v 8.476181158 -2.119000087 2.565351025
v 8.476202021 -1.141010389 2.557751409
v 9.133416995 -0.809591081 2.554918046
v 7.976683128 0.309828791 2.546673567
v 7.834817157 0.163233954 2.547868399
v 7.166876466 0.809628170 2.543107733
v 7.166702610 -1.461836110 2.560758537
v 6.530809257 -2.118925909 2.566114197
v 5.862796706 -1.472462150 2.561353019
v 5.216082595 -1.793030565 2.564097940
v 5.216061733 -2.771020263 2.571697556
v 4.569347622 -3.091588679 2.574442477
v 3.906868307 -2.450479665 2.569720737
v 3.988040215 -4.800665651 2.587951323
v 3.107775772 -5.710272242 2.595365140
v 2.684231669 -5.300390853 2.592346381
v 2.608062160 -6.357067486 2.600587341
v 1.380200589 -6.278329554 2.600457553
v 1.309249059 -2.765619157 2.573189393
v 0.646769744 -2.124510143 2.568467652
v 0.728022784 -0.562595935 2.556298676
v -0.070807810 -1.388054215 2.563026637
v -0.988534605 -0.499931510 2.556485651
v -1.211834425 -0.730674658 2.558366340
v -2.042754082 0.073441139 2.552444061
v -2.684252532 -0.241737760 2.555145055
v -3.183824741 0.241719216 2.551584415
v -3.254797134 2.776439914 2.531915871
v -3.841320202 3.344042884 2.527735499
v -4.640081253 2.518656464 2.534462874
v -4.569359212 -0.820439656 2.560382029
v -3.906808038 -1.461618212 2.565104282
v -3.912032971 -0.815038549 2.560081994
v -3.265318860 -0.494470134 2.557337073
v -2.532036372 -2.844644530 2.575311552
v 1.879844658 -6.761856072 2.604018705
v -2.602839545 -1.135579148 2.562058814
v 0.657249745 -5.373718406 2.593711972
v 0.646602843 -7.329871658 2.608916719
v 2.373999534 1.562018521 2.539142851
v 2.602654100 1.798294906 2.537217062
v 2.613280139 5.058527917 2.511878787
v 1.619525237 6.020226209 2.504795920
v 1.401441078 5.794872577 2.506632681
v -0.091957893 7.240097388 2.495988662
v 0.000006954 5.379047653 2.510414108
v -0.646779017 5.058548779 2.513158517
v -1.314719708 5.704942996 2.508397851
v -1.945327858 5.053314574 2.513708998
v -2.613268549 5.699708791 2.508948332
v -2.531804565 3.827808163 2.523462219
v -2.026770979 3.339065984 2.527061785
v -1.314659438 4.074914577 2.521064195
v -0.646718747 3.428520361 2.525824861
v 0.076213552 3.827847571 2.522438010
v 0.575857621 3.344321052 2.525999163
v 0.657486189 2.113784427 2.535529175
v 1.211876151 2.686654054 2.530859958
v -7.177377329 -0.820479063 2.561406238
v -7.177541912 0.820226393 2.548656968
v -7.894869115 0.078988284 2.554698485
v -8.475930807 0.641306050 2.550557039
v -7.748450451 1.393035751 2.544430009
v -7.171772233 0.834960055 2.548540213
v -7.172122261 1.141031252 2.546161980
v -7.177562775 2.124306153 2.538523439
v -7.819089042 1.461395677 2.543926541
v -7.748881613 1.393453003 2.544426936
v -8.400143780 1.393455322 2.544682602
v -9.204190034 0.562607525 2.551454490
v -9.932458534 -1.146191279 2.565018870
v -10.356002636 -0.736309889 2.562000111
v -10.432211552 -1.467037863 2.567708256
v -10.035084192 -1.404375756 2.567065420
v -8.221260526 -3.159688981 2.579993228
v -7.753200180 -3.023729456 2.578752975
v -6.591076796 -4.148364989 2.587035868
v -6.514712569 -2.124303835 2.571277633
v -5.873534013 -1.461752660 2.565877459
v -5.873543285 -0.809783481 2.560811244
v -6.509436639 -1.466873280 2.566166904
v -9.052194091 -0.236584688 2.557605053
v 0.417959868 7.756227581 2.491777807
v 0.646544892 7.992432105 2.489852604
v 0.499579163 9.459729592 2.478508459
v -0.499565255 10.426643545 2.471387178
v -0.575795034 8.717925873 2.484694939
v -2.374015761 -8.571166453 2.774781447
v -1.298771376 -9.611725535 2.795931365
v -1.879988379 -8.060671492 2.772345224
v -4.558828214 -5.047707159 2.714482686
v -5.145351282 -4.480104190 2.702945852
v -6.096548711 -5.463008200 2.707636541
v -5.868144497 -6.031107236 2.716396012
v -5.221288984 -5.710536503 2.717482567
v -4.558809669 -6.351645517 2.730513450
v 4.248545081 6.041967401 2.646601078
v 3.254790179 7.003665693 2.627054047
v 3.336272708 6.109896166 2.638675370
v 3.841306293 5.621153987 2.648609316
v -1.885259673 7.256101353 2.583999820
v -1.298808465 6.688567926 2.595535240
v -1.304012536 8.313137287 2.575522333
v -1.880025468 8.239621969 2.571949099
v -3.167598241 6.909130104 2.578298573
v -2.678805064 6.436104449 2.587913072
v -5.862680803 3.091743990 2.604282129
v -5.221502246 3.754295164 2.601120252
v -5.868112044 3.423049712 2.600166842
v 9.704133134 -0.089426559 -3.176141907
v 10.508179389 0.741421237 -3.176141907
v 9.780182104 0.814987552 -3.176141907
v 9.122700551 1.798322722 -3.176141907
v 9.122691279 2.450291901 -3.176141907
v 8.481582265 1.787812587 -3.176141907
v 8.481521995 1.135771548 -3.176141907
v 3.254778589 -1.472501557 -3.176141907
v 3.917257904 -2.113610571 -3.176141907
v 3.912032971 -1.467030909 -3.176141907
v 4.564032284 -1.141001117 -3.176141907
v 4.569338350 2.124519415 -3.176141907
v 4.390190836 2.297887977 -3.176141907
v 3.265555303 1.135764593 -3.176141907
v 3.260003522 0.162988238 -3.176141907
v 7.671766331 2.939581145 -3.176141907
v 6.672550052 3.906564640 -3.176141907
v 6.449171418 4.327718811 -3.176141907
v 5.287048034 5.452354343 -3.176141907
v 5.210827527 3.091667493 -3.176141907
v 5.873378702 2.450488937 -3.176141907
v 6.596311001 2.849816147 -3.176141907
v 7.095955071 2.366289629 -3.176141907
v 7.172112989 1.793007385 -3.176141907
v 7.824112303 2.119037176 -3.176141907
v -2.602839545 -1.135579148 -3.176141907
v -2.532036372 -2.844644530 -3.176141907
v -3.330797423 -3.670030950 -3.176141907
v -3.917320492 -3.102427981 -3.176141907
v -3.917339036 -4.080559081 -3.176141907
v -3.330887828 -4.648092508 -3.176141907
v -2.455839046 -3.743875433 -3.176141907
v -2.032223083 -4.153826365 -3.176141907
v -1.956065165 -4.727108609 -3.176141907
v -1.227847663 -4.322320023 -3.176141907
v -0.396928006 -5.126435819 -3.176141907
v -0.010690945 -4.727324190 -3.176141907
v 0.657249745 -5.373718406 -3.176141907
v 0.646602843 -7.329871658 -3.176141907
v 0.010709490 -7.986961456 -3.176141907
v -0.657231201 -7.340567240 -3.176141907
v -0.575818214 -8.234408627 -3.176141907
v -0.076174145 -8.717935145 -3.176141907
v -0.000037089 -10.269207088 -3.176141907
v 0.651962224 -9.943177296 -3.176141907
v 0.651983087 -8.965187598 -3.176141907
v 1.961482498 -8.644361876 -3.176141907
v 2.602591512 -7.981882562 -3.176141907
v 2.608001890 -7.009108525 -3.176141907
v 3.184044958 -6.609572688 -3.176141907
v 3.988091212 -5.778724892 -3.176141907
v 4.569563203 -5.710353375 -3.176141907
v 5.210672217 -5.047874060 -3.176141907
v 7.318737961 -2.586976983 -3.176141907
v 8.476181158 -2.119000087 -3.176141907
v 8.476202021 -1.141010389 -3.176141907
v 9.133416995 -0.809591081 -3.176141907
v 7.976683128 0.309828791 -3.176141907
v 7.834817157 0.163233954 -3.176141907
v 7.166876466 0.809628170 -3.176141907
v 7.166702610 -1.461836110 -3.176141907
v 6.530809257 -2.118925909 -3.176141907
v 5.862796706 -1.472462150 -3.176141907
v 5.216082595 -1.793030565 -3.176141907
v 5.216061733 -2.771020263 -3.176141907
v 4.569347622 -3.091588679 -3.176141907
v 3.906868307 -2.450479665 -3.176141907
v 3.988040215 -4.800665651 -3.176141907
v 3.107775772 -5.710272242 -3.176141907
v 2.684231669 -5.300390853 -3.176141907
v 2.608062160 -6.357067486 -3.176141907
v 1.879844658 -6.761856072 -3.176141907
v 1.380200589 -6.278329554 -3.176141907
v 1.309249059 -2.765619157 -3.176141907
v 0.646769744 -2.124510143 -3.176141907
v 0.728022784 -0.562595935 -3.176141907
v -0.070807810 -1.388054215 -3.176141907
v -0.988534605 -0.499931510 -3.176141907
v -1.211834425 -0.730674658 -3.176141907
v -2.042754082 0.073441139 -3.176141907
v -2.684252532 -0.241737760 -3.176141907
v -3.183824741 0.241719216 -3.176141907
v -3.254797134 2.776439914 -3.176141907
v -3.841320202 3.344042884 -3.176141907
v -4.640081253 2.518656464 -3.176141907
v -4.569359212 -0.820439656 -3.176141907
v -3.906808038 -1.461618212 -3.176141907
v -3.912032971 -0.815038549 -3.176141907
v -3.265318860 -0.494470134 -3.176141907
v 2.613280139 5.058527917 -3.176141907
v 1.619525237 6.020226209 -3.176141907
v 1.401441078 5.794872577 -3.176141907
v -0.091957893 7.240097388 -3.176141907
v 0.000006954 5.379047653 -3.176141907
v -0.646779017 5.058548779 -3.176141907
v -1.314719708 5.704942996 -3.176141907
v -1.945327858 5.053314574 -3.176141907
v -2.613268549 5.699708791 -3.176141907
v -2.531804565 3.827808163 -3.176141907
v -2.026770979 3.339065984 -3.176141907
v -1.314659438 4.074914577 -3.176141907
v -0.646718747 3.428520361 -3.176141907
v 0.076213552 3.827847571 -3.176141907
v 0.575857621 3.344321052 -3.176141907
v 0.657486189 2.113784427 -3.176141907
v 1.211876151 2.686654054 -3.176141907
v 2.373999534 1.562018521 -3.176141907
v 2.602654100 1.798294906 -3.176141907
v -7.177377329 -0.820479063 -3.176141907
v -7.177541912 0.820226393 -3.176141907
v -7.894869115 0.078988284 -3.176141907
v -8.475930807 0.641306050 -3.176141907
v -7.748450451 1.393035751 -3.176141907
v -7.171772233 0.834960055 -3.176141907
v -7.172122261 1.141031252 -3.176141907
v -7.177562775 2.124306153 -3.176141907
v -7.819089042 1.461395677 -3.176141907
v -7.748881613 1.393453003 -3.176141907
v -8.400143780 1.393455322 -3.176141907
v -9.204190034 0.562607525 -3.176141907
v -9.052194091 -0.236584688 -3.176141907
v -9.932458534 -1.146191279 -3.176141907
v -10.356002636 -0.736309889 -3.176141907
v -10.432211552 -1.467037863 -3.176141907
v -10.035084192 -1.404375756 -3.176141907
v -8.221260526 -3.159688981 -3.176141907
v -7.753200180 -3.023729456 -3.176141907
v -6.591076796 -4.148364989 -3.176141907
v -6.514712569 -2.124303835 -3.176141907
v -5.873534013 -1.461752660 -3.176141907
v -5.873543285 -0.809783481 -3.176141907
v -6.509436639 -1.466873280 -3.176141907
v 0.499579163 9.459729592 -3.176141907
v -0.499565255 10.426643545 -3.176141907
v -0.575795034 8.717925873 -3.176141907
v 0.417959868 7.756227581 -3.176141907
v 0.646544892 7.992432105 -3.176141907
v -1.879988379 -8.060671492 -3.176141907
v -2.374015761 -8.571166453 -3.176141907
v -1.298771376 -9.611725535 -3.176141907
v -6.096548711 -5.463008200 -3.176141907
v -5.868144497 -6.031107236 -3.176141907
v -5.221288984 -5.710536503 -3.176141907
v -4.558809669 -6.351645517 -3.176141907
v -4.558828214 -5.047707159 -3.176141907
v -5.145351282 -4.480104190 -3.176141907
v 3.336272708 6.109896166 -3.176141907
v 3.841306293 5.621153987 -3.176141907
v 4.248545081 6.041967401 -3.176141907
v 3.254790179 7.003665693 -3.176141907
v -1.304012536 8.313137287 -3.176141907
v -1.880025468 8.239621969 -3.176141907
v -3.167598241 6.909130104 -3.176141907
v -2.678805064 6.436104449 -3.176141907
v -1.885259673 7.256101353 -3.176141907
v -1.298808465 6.688567926 -3.176141907
v -5.868112044 3.423049712 -3.176141907
v -5.862680803 3.091743990 -3.176141907
v -5.221502246 3.754295164 -3.176141907
g roof
f 1 2 3
g roof
f 4 5 6
g roof
f 4 6 7
g roof
f 8 9 10
g roof
f 8 10 11
g roof
f 8 11 12
g roof
f 8 12 13
g roof
f 8 13 14
g roof
f 8 14 15
g roof
f 16 17 18
g roof
f 19 20 21
g roof
f 19 21 22
g roof
f 19 22 23
g roof
f 19 23 24
g roof
f 19 24 25
g roof
f 25 16 18
g roof
f 25 18 19
g roof
f 26 27 28
g roof
f 26 28 29
g roof
f 26 29 30
g roof
f 31 32 33
g roof
f 33 34 35
g roof
f 36 37 38
g roof
f 36 38 39
g roof
f 36 39 40
g roof
f 36 40 41
g roof
f 36 41 42
g roof
f 36 42 43
g roof
f 36 43 44
g roof
f 36 44 45
g roof
f 36 45 46
g roof
f 36 46 47
g roof
f 47 48 49
g roof
f 47 49 50
g roof
f 50 51 52
g roof
f 52 53 54
g roof
f 52 54 55
g roof
f 52 55 56
g roof
f 52 56 57
g roof
f 52 57 58
g roof
f 58 59 60
g roof
f 58 60 61
g roof
f 62 63 64
g roof
f 65 66 67
g roof
f 68 69 70
g roof
f 70 71 72
g roof
f 70 72 73
g roof
f 70 73 74
g roof
f 74 75 76
g roof
f 77 78 79
g roof
f 77 79 80
g roof
f 77 80 81
g roof
f 81 82 83
g roof
f 81 83 84
g roof
f 85 26 30
g roof
f 85 30 31
g roof
f 85 31 33
g roof
f 85 33 35
g roof
f 47 50 52
g roof
f 47 52 58
g roof
f 47 58 61
g roof
f 47 61 62
g roof
f 47 62 64
g roof
f 47 64 65
g roof
f 47 65 67
g roof
f 47 67 86
g roof
f 68 70 74
g roof
f 68 74 76
g roof
f 68 76 77
g roof
f 77 81 84
g roof
f 77 84 87
g roof
f 87 85 35
g roof
f 87 35 88
g roof
f 36 47 86
g roof
f 68 77 87
g roof
f 68 87 88
g roof
f 68 88 89
g roof
f 89 36 86
g roof
f 89 86 68
g roof
f 90 91 92
g roof
f 90 92 93
g roof
f 90 93 94
g roof
f 90 94 95
g roof
f 90 95 96
g roof
f 90 96 97
g roof
f 90 97 98
g roof
f 99 100 101
g roof
f 99 101 102
g roof
f 99 102 103
g roof
f 99 103 104
g roof
f 99 104 105
g roof
f 106 107 108
g roof
f 106 108 90
g roof
f 106 90 98
g roof
f 98 99 105
g roof
f 98 105 106
g roof
f 109 110 111
g roof
f 109 111 112
g roof
f 113 114 115
g roof
f 113 115 116
g roof
f 116 117 118
g roof
f 118 119 120
g roof
f 121 122 123
g roof
f 121 123 124
g roof
f 121 124 125
g roof
f 121 125 126
g roof
f 126 127 128
g roof
f 126 128 129
g roof
f 126 129 130
g roof
f 126 130 131
g roof
f 126 131 109
g roof
f 126 109 112
g roof
f 113 116 118
g roof
f 113 118 120
g roof
f 132 121 126
g roof
f 132 126 112
g roof
f 112 113 120
g roof
f 112 120 132
g roof
f 133 134 135
g roof
f 133 135 136
g roof
f 133 136 137
g roof
f 138 139 140
g roof
f 141 142 143
g roof
f 141 143 144
g roof
f 141 144 145
g roof
f 141 145 146
g roof
f 147 148 149
g roof
f 147 149 150
g roof
f 151 152 153
g roof
f 151 153 154
g roof
f 151 154 155
g roof
f 151 155 156
g roof
f 157 158 159
g facade_completed
f 1 3 160 161
g facade_completed
f 2 1 161 162
g facade_completed
f 3 2 162 160
g facade_completed
f 7 6 163 164
g facade_completed
f 4 7 164 165
g facade_completed
f 5 4 165 166
g facade_completed
f 6 5 166 163
g facade_completed
f 11 10 167 168
g facade_completed
f 12 11 168 169
g facade_completed
f 13 12 169 170
g facade_completed
f 14 13 170 171
g facade_completed
f 15 14 171 172
g facade_completed
f 8 15 172 173
g facade_completed
f 9 8 173 174
g facade_completed
f 10 9 174 167
g facade_completed
f 19 18 175 176
g facade_completed
f 20 19 176 177
g facade_completed
f 21 20 177 178
g facade_completed
f 22 21 178 179
g facade_completed
f 23 22 179 180
g facade_completed
f 24 23 180 181
g facade_completed
f 25 24 181 182
g facade_completed
f 16 25 182 183
g facade_completed
f 17 16 183 184
g facade_completed
f 18 17 184 175
g facade_completed
f 85 87 185 186
g facade_completed
f 26 85 186 187
g facade_completed
f 27 26 187 188
g facade_completed
f 28 27 188 189
g facade_completed
f 29 28 189 190
g facade_completed
f 30 29 190 191
g facade_completed
f 31 30 191 192
g facade_completed
f 32 31 192 193
g facade_completed
f 33 32 193 194
g facade_completed
f 34 33 194 195
g facade_completed
f 35 34 195 196
g facade_completed
f 88 35 196 197
g facade_completed
f 89 88 197 198
g facade_completed
f 36 89 198 199
g facade_completed
f 37 36 199 200
g facade_completed
f 38 37 200 201
g facade_completed
f 39 38 201 202
g facade_completed
f 40 39 202 203
g facade_completed
f 41 40 203 204
g facade_completed
f 42 41 204 205
g facade_completed
f 43 42 205 206
g facade_completed
f 44 43 206 207
g facade_completed
f 45 44 207 208
g facade_completed
f 46 45 208 209
g facade_completed
f 47 46 209 210
g facade_completed
f 48 47 210 211
g facade_completed
f 49 48 211 212
g facade_completed
f 50 49 212 213
g facade_completed
f 51 50 213 214
g facade_completed
f 52 51 214 215
g facade_completed
f 53 52 215 216
g facade_completed
f 54 53 216 217
g facade_completed
f 55 54 217 218
g facade_completed
f 56 55 218 219
g facade_completed
f 57 56 219 220
g facade_completed
f 58 57 220 221
g facade_completed
f 59 58 221 222
g facade_completed
f 60 59 222 223
g facade_completed
f 61 60 223 224
g facade_completed
f 62 61 224 225
g facade_completed
f 63 62 225 226
g facade_completed
f 64 63 226 227
g facade_completed
f 65 64 227 228
g facade_completed
f 66 65 228 229
g facade_completed
f 67 66 229 230
g facade_completed
f 86 67 230 231
g facade_completed
f 68 86 231 232
g facade_completed
f 69 68 232 233
g facade_completed
f 70 69 233 234
g facade_completed
f 71 70 234 235
g facade_completed
f 72 71 235 236
g facade_completed
f 73 72 236 237
g facade_completed
f 74 73 237 238
g facade_completed
f 75 74 238 239
g facade_completed
f 76 75 239 240
g facade_completed
f 77 76 240 241
g facade_completed
f 78 77 241 242
g facade_completed
f 79 78 242 243
g facade_completed
f 80 79 243 244
g facade_completed
f 81 80 244 245
g facade_completed
f 82 81 245 246
g facade_completed
f 83 82 246 247
g facade_completed
f 84 83 247 248
g facade_completed
f 87 84 248 185
g facade_completed
f 93 92 249 250
g facade_completed
f 94 93 250 251
g facade_completed
f 95 94 251 252
g facade_completed
f 96 95 252 253
g facade_completed
f 97 96 253 254
g facade_completed
f 98 97 254 255
g facade_completed
f 99 98 255 256
g facade_completed
f 100 99 256 257
g facade_completed
f 101 100 257 258
g facade_completed
f 102 101 258 259
g facade_completed
f 103 102 259 260
g facade_completed
f 104 103 260 261
g facade_completed
f 105 104 261 262
g facade_completed
f 106 105 262 263
g facade_completed
f 107 106 263 264
g facade_completed
f 108 107 264 265
g facade_completed
f 90 108 265 266
g facade_completed
f 91 90 266 267
g facade_completed
f 92 91 267 249
g facade_completed
f 110 109 268 269
g facade_completed
f 111 110 269 270
g facade_completed
f 112 111 270 271
g facade_completed
f 113 112 271 272
g facade_completed
f 114 113 272 273
g facade_completed
f 115 114 273 274
g facade_completed
f 116 115 274 275
g facade_completed
f 117 116 275 276
g facade_completed
f 118 117 276 277
g facade_completed
f 119 118 277 278
g facade_completed
f 120 119 278 279
g facade_completed
f 132 120 279 280
g facade_completed
f 121 132 280 281
g facade_completed
f 122 121 281 282
g facade_completed
f 123 122 282 283
g facade_completed
f 124 123 283 284
g facade_completed
f 125 124 284 285
g facade_completed
f 126 125 285 286
g facade_completed
f 127 126 286 287
g facade_completed
f 128 127 287 288
g facade_completed
f 129 128 288 289
g facade_completed
f 130 129 289 290
g facade_completed
f 131 130 290 291
g facade_completed
f 109 131 291 268
g facade_completed
f 136 135 292 293
g facade_completed
f 137 136 293 294
g facade_completed
f 133 137 294 295
g facade_completed
f 134 133 295 296
g facade_completed
f 135 134 296 292
g facade_completed
f 138 140 297 298
g facade_completed
f 139 138 298 299
g facade_completed
f 140 139 299 297
g facade_completed
f 144 143 300 301
g facade_completed
f 145 144 301 302
g facade_completed
f 146 145 302 303
g facade_completed
f 141 146 303 304
g facade_completed
f 142 141 304 305
g facade_completed
f 143 142 305 300
g facade_completed
f 150 149 306 307
g facade_completed
f 147 150 307 308
g facade_completed
f 148 147 308 309
g facade_completed
f 149 148 309 306
g facade_completed
f 154 153 310 311
g facade_completed
f 155 154 311 312
g facade_completed
f 156 155 312 313
g facade_completed
f 151 156 313 314
g facade_completed
f 152 151 314 315
g facade_completed
f 153 152 315 310
g facade_completed
f 157 159 316 317
g facade_completed
f 158 157 317 318
g facade_completed
f 159 158 318 316
g ground_assumed
f 298 297 299
g ground_assumed
f 173 167 174
g ground_assumed
f 173 168 167
g ground_assumed
f 173 169 168
g ground_assumed
f 173 170 169
g ground_assumed
f 173 171 170
g ground_assumed
f 173 172 171
g ground_assumed
f 187 189 188
g ground_assumed
f 187 190 189
g ground_assumed
f 187 191 190
g ground_assumed
f 192 194 193
g ground_assumed
f 194 196 195
g ground_assumed
f 199 201 200
g ground_assumed
f 199 202 201
g ground_assumed
f 199 203 202
g ground_assumed
f 199 204 203
g ground_assumed
f 199 205 204
g ground_assumed
f 199 206 205
g ground_assumed
f 199 207 206
g ground_assumed
f 199 208 207
g ground_assumed
f 199 209 208
g ground_assumed
f 199 210 209
g ground_assumed
f 210 212 211
g ground_assumed
f 210 213 212
g ground_assumed
f 213 215 214
g ground_assumed
f 215 217 216
g ground_assumed
f 215 218 217
g ground_assumed
f 215 219 218
g ground_assumed
f 215 220 219
g ground_assumed
f 215 221 220
g ground_assumed
f 221 223 222
g ground_assumed
f 221 224 223
g ground_assumed
f 225 227 226
g ground_assumed
f 228 230 229
g ground_assumed
f 232 234 233
g ground_assumed
f 234 236 235
g ground_assumed
f 234 237 236
g ground_assumed
f 234 238 237
g ground_assumed
f 238 240 239
g ground_assumed
f 241 243 242
g ground_assumed
f 241 244 243
g ground_assumed
f 241 245 244
g ground_assumed
f 245 247 246
g ground_assumed
f 245 248 247
g ground_assumed
f 186 191 187
g ground_assumed
f 186 192 191
g ground_assumed
f 186 194 192
g ground_assumed
f 186 196 194
g ground_assumed
f 210 215 213
g ground_assumed
f 210 221 215
g ground_assumed
f 210 224 221
g ground_assumed
f 210 225 224
g ground_assumed
f 210 227 225
g ground_assumed
f 210 228 227
g ground_assumed
f 210 230 228
g ground_assumed
f 210 231 230
g ground_assumed
f 232 238 234
g ground_assumed
f 232 240 238
g ground_assumed
f 232 241 240
g ground_assumed
f 241 248 245
g ground_assumed
f 241 185 248
g ground_assumed
f 185 196 186
g ground_assumed
f 185 197 196
g ground_assumed
f 199 231 210
g ground_assumed
f 232 185 241
g ground_assumed
f 232 197 185
g ground_assumed
f 232 198 197
g ground_assumed
f 198 231 199
g ground_assumed
f 198 232 231
g ground_assumed
f 304 300 305
g ground_assumed
f 304 301 300
g ground_assumed
f 304 302 301
g ground_assumed
f 304 303 302
g ground_assumed
f 266 249 267
g ground_assumed
f 266 250 249
g ground_assumed
f 266 251 250
g ground_assumed
f 266 252 251
g ground_assumed
f 266 253 252
g ground_assumed
f 266 254 253
g ground_assumed
f 266 255 254
g ground_assumed
f 256 258 257
g ground_assumed
f 256 259 258
g ground_assumed
f 256 260 259
g ground_assumed
f 256 261 260
g ground_assumed
f 256 262 261
g ground_assumed
f 263 265 264
g ground_assumed
f 263 266 265
g ground_assumed
f 263 255 266
g ground_assumed
f 255 262 256
g ground_assumed
f 255 263 262
g ground_assumed
f 268 270 269
g ground_assumed
f 268 271 270
g ground_assumed
f 272 274 273
g ground_assumed
f 272 275 274
g ground_assumed
f 275 277 276
g ground_assumed
f 277 279 278
g ground_assumed
f 281 283 282
g ground_assumed
f 281 284 283
g ground_assumed
f 281 285 284
g ground_assumed
f 281 286 285
g ground_assumed
f 286 288 287
g ground_assumed
f 286 289 288
g ground_assumed
f 286 290 289
g ground_assumed
f 286 291 290
g ground_assumed
f 286 268 291
g ground_assumed
f 286 271 268
g ground_assumed
f 272 277 275
g ground_assumed
f 272 279 277
g ground_assumed
f 280 286 281
g ground_assumed
f 280 271 286
g ground_assumed
f 271 279 272
g ground_assumed
f 271 280 279
g ground_assumed
f 318 317 316
g ground_assumed
f 161 160 162
g ground_assumed
f 165 163 166
g ground_assumed
f 165 164 163
g ground_assumed
f 183 175 184
g ground_assumed
f 176 178 177
g ground_assumed
f 176 179 178
g ground_assumed
f 176 180 179
g ground_assumed
f 176 181 180
g ground_assumed
f 176 182 181
g ground_assumed
f 182 175 183
g ground_assumed
f 182 176 175
g ground_assumed
f 307 309 308
g ground_assumed
f 307 306 309
g ground_assumed
f 314 310 315
g ground_assumed
f 314 311 310
g ground_assumed
f 314 312 311
g ground_assumed
f 314 313 312
g ground_assumed
f 295 292 296
g ground_assumed
f 295 293 292
g ground_assumed
f 295 294 293
