# XYZ-only planar convex-roof baseline. Provisional base; no GT.
v 3.40010222 -12.24036800 1.08335577
v 5.30415947 -11.42434347 1.08792728
v 7.48022489 -10.20030667 1.09325605
v 7.48022489 -9.65629031 1.09345052
v 6.39219218 -3.53610631 1.09319276
v 5.03215129 0.00000000 1.09139985
v 2.58407769 5.03215129 1.08769614
v -1.49604498 12.92038845 1.08134502
v -3.12809404 12.51237618 1.07753076
v -5.03215129 11.83235573 1.07300787
v -7.48022489 10.20030667 1.06692184
v -0.68002044 -7.88823716 1.07574056
v 0.68002044 -11.15233529 1.07763071
v 1.22403680 -12.10436391 1.07851318
v 2.04006133 -12.64838027 1.08015291
v 3.40010222 -12.24036800 -1.41152322
v 5.30415947 -11.42434347 -1.41152322
v 7.48022489 -10.20030667 -1.41152322
v 7.48022489 -9.65629031 -1.41152322
v 6.39219218 -3.53610631 -1.41152322
v 5.03215129 0.00000000 -1.41152322
v 2.58407769 5.03215129 -1.41152322
v -1.49604498 12.92038845 -1.41152322
v -3.12809404 12.51237618 -1.41152322
v -5.03215129 11.83235573 -1.41152322
v -7.48022489 10.20030667 -1.41152322
v -0.68002044 -7.88823716 -1.41152322
v 0.68002044 -11.15233529 -1.41152322
v 1.22403680 -12.10436391 -1.41152322
v 2.04006133 -12.64838027 -1.41152322
g roof
f 1 2 3 4 5 6 7 8 9 10 11 12 13 14 15
g wall
f 2 1 16 17
g wall
f 3 2 17 18
g wall
f 4 3 18 19
g wall
f 5 4 19 20
g wall
f 6 5 20 21
g wall
f 7 6 21 22
g wall
f 8 7 22 23
g wall
f 9 8 23 24
g wall
f 10 9 24 25
g wall
f 11 10 25 26
g wall
f 12 11 26 27
g wall
f 13 12 27 28
g wall
f 14 13 28 29
g wall
f 15 14 29 30
g wall
f 1 15 30 16
g ground_assumed
f 30 29 28 27 26 25 24 23 22 21 20 19 18 17 16
