v 2680635.7499999977 1246299.5000000014 460.25070635281833
v 2680637.5000000023 1246300.2499999981 460.25490798200906
v 2680639.5 1246301.3749999981 460.25980560130387
v 2680639.5 1246301.8750000021 460.25998433673891
v 2680638.5000000014 1246307.5000000014 460.2597474320969
v 2680637.2500000005 1246310.75 460.25809958641958
v 2680635.0000000009 1246315.3750000005 460.25469554354316
v 2680631.2499999981 1246322.6250000037 460.24885829257232
v 2680629.7500000047 1246322.2500000007 460.24535264429488
v 2680627.9999999995 1246321.6249999956 460.24119570126066
v 2680625.75 1246320.1250000019 460.23560209186167
v 2680632.0000000042 1246303.4999999967 460.24370728935151
v 2680633.2499999958 1246300.5000000002 460.2454445073418
v 2680633.75 1246299.6250000023 460.24625557670657
v 2680634.4999999967 1246299.1249999984 460.24776263617554
v 2680635.7499999977 1246299.5000000014 457.95768798653438
v 2680637.5000000023 1246300.2499999981 457.95768798653438
v 2680639.5 1246301.3749999981 457.95768798653438
v 2680639.5 1246301.8750000021 457.95768798653438
v 2680638.5000000014 1246307.5000000014 457.95768798653438
v 2680637.2500000005 1246310.75 457.95768798653438
v 2680635.0000000009 1246315.3750000005 457.95768798653438
v 2680631.2499999981 1246322.6250000037 457.95768798653438
v 2680629.7500000047 1246322.2500000007 457.95768798653438
v 2680627.9999999995 1246321.6249999956 457.95768798653438
v 2680625.75 1246320.1250000019 457.95768798653438
v 2680632.0000000042 1246303.4999999967 457.95768798653438
v 2680633.2499999958 1246300.5000000002 457.95768798653438
v 2680633.75 1246299.6250000023 457.95768798653438
v 2680634.4999999967 1246299.1249999984 457.95768798653438
l 1 2
l 2 3
l 3 4
l 4 5
l 5 6
l 6 7
l 7 8
l 8 9
l 9 10
l 10 11
l 11 12
l 12 13
l 13 14
l 14 15
l 1 15
l 16 17
l 17 18
l 3 18
l 18 19
l 4 19
l 19 20
l 5 20
l 20 21
l 21 22
l 22 23
l 8 23
l 23 24
l 24 25
l 10 25
l 25 26
l 11 26
l 26 27
l 27 28
l 28 29
l 14 29
l 29 30
l 15 30
l 16 30
