# XYZ-only planar convex-roof baseline. Provisional base; no GT.
v 12.79982677 -6.19674153 -0.00289051
v 13.00299863 -5.89198375 -0.00857275
v 13.61251419 -3.96185114 -0.04118586
v 11.17445194 -2.84440595 -0.04616097
v 7.92370229 -1.52378890 -0.05020005
v -11.58079565 6.09515561 -0.06976464
v -12.39348306 6.29832746 -0.06882861
v -13.00299863 4.97771041 -0.04555533
v -13.40934233 3.86026522 -0.02640765
v -13.40934233 3.55550744 -0.02173773
v -12.59665492 2.94599188 -0.01644721
v 6.50149931 -4.36819485 0.00047211
v 10.97128009 -5.99356968 0.00310715
v 11.58079565 -6.19674153 0.00318345
v 12.19031121 -6.29832746 0.00170311
v 12.79982677 -6.19674153 -0.16800546
v 13.00299863 -5.89198375 -0.16800546
v 13.61251419 -3.96185114 -0.16800546
v 11.17445194 -2.84440595 -0.16800546
v 7.92370229 -1.52378890 -0.16800546
v -11.58079565 6.09515561 -0.16800546
v -12.39348306 6.29832746 -0.16800546
v -13.00299863 4.97771041 -0.16800546
v -13.40934233 3.86026522 -0.16800546
v -13.40934233 3.55550744 -0.16800546
v -12.59665492 2.94599188 -0.16800546
v 6.50149931 -4.36819485 -0.16800546
v 10.97128009 -5.99356968 -0.16800546
v 11.58079565 -6.19674153 -0.16800546
v 12.19031121 -6.29832746 -0.16800546
g roof
f 1 2 3 4 5 6 7 8 9 10 11 12 13 14 15
g wall
f 2 1 16 17
g wall
f 3 2 17 18
g wall
f 4 3 18 19
g wall
f 5 4 19 20
g wall
f 6 5 20 21
g wall
f 7 6 21 22
g wall
f 8 7 22 23
g wall
f 9 8 23 24
g wall
f 10 9 24 25
g wall
f 11 10 25 26
g wall
f 12 11 26 27
g wall
f 13 12 27 28
g wall
f 14 13 28 29
g wall
f 15 14 29 30
g wall
f 1 15 30 16
g ground_assumed
f 30 29 28 27 26 25 24 23 22 21 20 19 18 17 16
