# Source coordinates; no display transform
v 2679283.75 1249560.875 401.641432283
v 2679284 1249561.25 401.63444037
v 2679284.75 1249563.625 401.594310414
v 2679281.75 1249565 401.588188614
v 2679277.75 1249566.625 401.583218585
v 2679253.75 1249576 401.559144643
v 2679252.75 1249576.25 401.560296414
v 2679252 1249574.625 401.588933845
v 2679251.5 1249573.25 401.612494786
v 2679251.5 1249572.875 401.618241054
v 2679252.5 1249572.125 401.624750962
v 2679276 1249563.125 401.645569938
v 2679281.5 1249561.125 401.648812316
v 2679282.25 1249560.875 401.648906202
v 2679283 1249560.75 401.647084666
v 2679283.75 1249560.875 401.438260748
v 2679284 1249561.25 401.438260748
v 2679284.75 1249563.625 401.438260748
v 2679281.75 1249565 401.438260748
v 2679277.75 1249566.625 401.438260748
v 2679253.75 1249576 401.438260748
v 2679252.75 1249576.25 401.438260748
v 2679252 1249574.625 401.438260748
v 2679251.5 1249573.25 401.438260748
v 2679251.5 1249572.875 401.438260748
v 2679252.5 1249572.125 401.438260748
v 2679276 1249563.125 401.438260748
v 2679281.5 1249561.125 401.438260748
v 2679282.25 1249560.875 401.438260748
v 2679283 1249560.75 401.438260748
g roof
f 1 2 3 4 5 6 7 8 9 10 11 12 13 14 15
g wall
f 2 1 16 17
g wall
f 3 2 17 18
g wall
f 4 3 18 19
g wall
f 5 4 19 20
g wall
f 6 5 20 21
g wall
f 7 6 21 22
g wall
f 8 7 22 23
g wall
f 9 8 23 24
g wall
f 10 9 24 25
g wall
f 11 10 25 26
g wall
f 12 11 26 27
g wall
f 13 12 27 28
g wall
f 14 13 28 29
g wall
f 15 14 29 30
g wall
f 1 15 30 16
g ground_assumed
f 30 29 28 27 26 25 24 23 22 21 20 19 18 17 16
