v 2679283.7499999981 1249560.8750000028 401.64143228331011
v 2679284.0000000061 1249561.2500000026 401.63444036993525
v 2679284.7500000051 1249563.6250000044 401.59431041414263
v 2679281.7499999958 1249564.9999999991 401.58818861391063
v 2679277.7500000033 1249566.6250000016 401.58321858493014
v 2679253.7500000005 1249576.0000000056 401.55914464252476
v 2679252.7500000056 1249576.2500000012 401.56029641377626
v 2679251.9999999939 1249574.6249999986 401.58893384508991
v 2679251.5000000028 1249573.250000004 401.61249478582607
v 2679251.5000000028 1249572.8750000042 401.618241054218
v 2679252.4999999977 1249572.1250000049 401.62475096185085
v 2679275.9999999967 1249563.1250000007 401.645569938135
v 2679281.5 1249561.1249999986 401.6488123163906
v 2679282.2499999995 1249560.8750000028 401.64890620242687
v 2679282.9999999986 1249560.7499999988 401.64708466566577
v 2679283.7499999981 1249560.8750000028 401.43826074756237
v 2679284.0000000061 1249561.2500000026 401.43826074756237
v 2679284.7500000051 1249563.6250000044 401.43826074756237
v 2679281.7499999958 1249564.9999999991 401.43826074756237
v 2679277.7500000033 1249566.6250000016 401.43826074756237
v 2679253.7500000005 1249576.0000000056 401.43826074756237
v 2679252.7500000056 1249576.2500000012 401.43826074756237
v 2679251.9999999939 1249574.6249999986 401.43826074756237
v 2679251.5000000028 1249573.250000004 401.43826074756237
v 2679251.5000000028 1249572.8750000042 401.43826074756237
v 2679252.4999999977 1249572.1250000049 401.43826074756237
v 2679275.9999999967 1249563.1250000007 401.43826074756237
v 2679281.5 1249561.1249999986 401.43826074756237
v 2679282.2499999995 1249560.8750000028 401.43826074756237
v 2679282.9999999986 1249560.7499999988 401.43826074756237
l 1 2
l 2 3
l 3 4
l 4 5
l 5 6
l 6 7
l 7 8
l 8 9
l 9 10
l 10 11
l 11 12
l 12 13
l 13 14
l 14 15
l 1 15
l 1 16
l 16 17
l 2 17
l 17 18
l 3 18
l 18 19
l 19 20
l 20 21
l 21 22
l 7 22
l 22 23
l 23 24
l 9 24
l 24 25
l 10 25
l 25 26
l 11 26
l 26 27
l 27 28
l 28 29
l 29 30
l 15 30
l 16 30
