# pointcloud_to_mesh 0.5.1; candidate requires geometry validation; coordinates preserved
v -8.024648110 -4.122622346 0.209047928
v -7.549657179 -4.529757429 0.209393220
v -8.167149727 -3.712038069 0.201003477
v -6.921871281 -3.605113046 0.169579631
v -8.075507455 -3.316704002 0.188023877
v -8.075518302 -3.605134739 0.195964730
v -6.921882127 -3.893543783 0.177520484
v -9.229197863 -2.739940147 0.198530850
v -9.229143630 -3.028294959 0.206468124
v -8.075550841 -2.739918454 0.172145750
v -6.921903820 -2.739896761 0.145760651
v -8.075539995 -2.451487718 0.164204897
v -10.382823191 -2.163100367 0.209034243
v -6.921936360 -1.874680477 0.121941670
v -8.075572535 -1.586271433 0.140385917
v -10.382823191 -0.432591872 0.161392704
v -9.229230402 -0.144215368 0.127070330
v -10.382812344 -0.144161136 0.153451851
v -2.878471938 -5.713503552 0.135149774
v -2.836626053 -5.664683352 0.132848699
v -2.882333300 -5.652242390 0.133551543
v -2.884079590 -5.624008891 0.132814203
v -1.737612967 -5.938145887 0.115242228
v -1.730497648 -5.624063124 0.106432682
v -4.037715765 -5.335599847 0.151258449
v -8.099293880 2.760266531 0.021266638
v -8.075529148 2.739896761 0.021283913
v -6.921892974 2.451487718 0.002839667
v -8.075507455 1.586249740 0.053043747
v -8.628582504 2.142763137 0.050371838
v -8.676144507 1.318210467 0.074159846
v -9.205433131 0.700707072 0.103265047
v -9.229197863 -1.009431653 0.150889310
v -10.382790651 -1.297808157 0.185211684
v -10.382801498 -1.586238894 0.193152537
v -8.075550841 -1.009409960 0.124504211
v -8.123026072 -1.545596972 0.140351421
v -7.400257173 -0.702366590 0.100606879
v -7.020249243 -1.028087672 0.100883124
v -6.297545423 -0.184933215 0.061142160
v -6.299682188 -0.144247908 0.060070948
v -4.037704918 -0.144215368 0.008337466
v -5.191417019 0.144258754 0.026781657
v -6.300332979 -0.133021757 0.059776772
v -6.345107426 0.721022609 0.037288629
v -6.253400075 2.558369354 -0.015391601
v -7.013491860 3.209876598 -0.015944146
v -6.921882127 2.739918454 -0.005101186
v -6.921849588 1.874702170 0.018717794
v -5.191384479 0.720979223 0.010903585
v -4.037737458 0.721000916 -0.015481515
v -5.191373633 1.009409960 0.002962732
v 5.191427865 1.874680477 -0.258318509
v 6.345074886 1.874702170 -0.284703609
v 6.345020654 2.163056981 -0.292640883
v 5.167673980 2.183480984 -0.266276638
v 4.587428391 1.506527797 -0.234369350
v 4.088672729 1.934032650 -0.234731918
v 4.085277768 4.429644023 -0.303359378
v 3.362573948 3.586489566 -0.263618415
v 2.935036555 3.952950188 -0.263929211
v 2.934223066 4.746264873 -0.285750853
v 4.037748304 4.470383563 -0.303393929
v 5.191406172 4.758835993 -0.337719882
v 6.344998961 5.047212497 -0.372042255
v 2.934212219 4.763001058 -0.286211358
v 2.933322804 5.611698088 -0.309555960
v 4.037715765 5.335599847 -0.327212910
v 5.154289371 5.614745961 -0.360434519
v 5.143898402 5.087865265 -0.345691652
v 5.836145186 5.895486513 -0.383757805
v 5.171112328 6.465514677 -0.384241247
v 5.154495455 5.624052277 -0.360695439
v 2.933366190 5.624041431 -0.309896769
v 2.931609053 7.313777846 -0.356375651
v 2.259797119 6.529997255 -0.319433196
v 2.245468862 5.639421800 -0.294587630
v 1.153657868 5.912374549 -0.277131839
v -1.077515277 5.633586371 -0.218428618
v -1.064098128 6.466859645 -0.241675796
v -0.000054233 6.200848672 -0.258687648
v 1.153679561 6.489236022 -0.293013545
v 1.106128404 5.953114089 -0.277166391
v 1.778005418 6.736970605 -0.314112424
v 1.798852435 7.625778077 -0.339058405
v 2.884079590 7.354517386 -0.356410202
v 4.037802537 7.354474000 -0.382795247
v 2.884090437 7.642948122 -0.364351055
v 1.799307989 7.642904736 -0.339540327
v 1.822042301 8.615046044 -0.366823682
v 1.038261711 9.286857978 -0.367393447
v 0.549647547 8.716808121 -0.340524906
v 0.050891885 9.144312975 -0.340887474
v 0.047529463 10.774708063 -0.385695953
v -0.624282472 9.990927472 -0.348753498
v -0.623534061 9.961837098 -0.347969746
v -1.730465109 10.238662055 -0.330274756
v -1.730475955 9.950231318 -0.322333903
v -0.623208666 9.950231318 -0.347657677
v -0.576828934 8.219744517 -0.301077463
v -0.668427820 7.247624903 -0.272219737
v 0.091588039 6.596182738 -0.271667247
v -1.063577495 6.496969593 -0.242516641
v -1.062058982 6.596161045 -0.245282148
v -1.822074841 7.247603210 -0.245834637
v -1.849223688 10.052015089 -0.322420226
v -2.765342704 8.983209570 -0.272043500
v -2.884068744 6.200837825 -0.192728451
v -4.037704918 6.489246869 -0.174284204
v -5.191438712 6.200859518 -0.139958307
v -5.191449558 5.912428781 -0.132017454
v -1.730421722 6.200859518 -0.219113550
v -4.037759151 5.335664927 -0.142524426
v -2.884122976 5.047255883 -0.160968673
v -1.743611094 5.332356737 -0.194901700
v -1.756735387 4.470383563 -0.170871100
v -2.884144669 4.470394409 -0.145086967
v -4.020415561 4.470361870 -0.119098970
v -4.020296249 4.466044954 -0.118982852
v -2.884155516 4.181963673 -0.137146114
v -1.756865545 4.463778031 -0.170686270
v -1.769892219 3.605145585 -0.146749875
v -2.884112130 3.605178125 -0.121267987
v -4.003006892 3.605134739 -0.095677092
v -5.191406172 5.335643234 -0.116139327
v -5.143920095 5.871689241 -0.131982903
v -5.815732030 5.087908651 -0.095040448
v -2.834294050 1.009453346 -0.050946088
v -1.730497648 1.009399113 -0.076188988
v -0.652808827 1.009464192 -0.100838079
v -0.668449513 0.037301192 -0.073716361
v 0.041910964 -0.571579217 -0.073199968
v -1.133060321 -0.718484523 -0.042283412
v -1.133277251 -0.697225338 -0.042863724
v -1.988276111 0.035630828 -0.043485260
v -2.405628619 -0.451280431 -0.020535346
v -2.833166012 -0.084819809 -0.020846142
v -5.856786119 3.338852602 -0.045949360
v -6.921914667 3.605134739 -0.028920166
v -6.921860434 3.316779928 -0.020982892
v -5.857350138 3.316682309 -0.045326104
v -5.859844838 3.209898291 -0.042329245
v -5.099753054 2.558391047 -0.041776701
v -5.238903096 1.050149500 0.002928180
v -4.567091161 1.833930090 -0.034014275
v -4.037759151 1.874647937 -0.047241348
v -4.014157117 -0.726923118 0.023841075
v -4.037802537 -0.721011763 0.024219116
v -5.191449558 -0.721033456 0.050604216
v -4.037813384 -1.009442499 0.032159969
v -2.884090437 -1.009485885 0.005774925
v -4.003820381 -0.729461204 0.023674543
v -3.576315528 -0.230705542 0.000166359
v -2.884166362 -2.739929301 0.053416409
v -4.037748304 -2.739875068 0.079797930
v -2.884112130 -3.028284112 0.061353683
v -1.730519341 -2.739907608 0.027031310
v -1.759772413 -3.605178125 0.051521560
v -2.884133823 -3.605145585 0.077235389
v -4.011825115 -3.605156432 0.103026569
v -3.990218841 -2.780614608 0.079832481
v -4.641726085 -3.540706393 0.115658396
v -5.211775942 -3.052092230 0.115244001
v -5.143887555 -1.626989280 0.074457747
v -5.815699490 -2.410769871 0.111400202
v -5.792010684 -4.161583056 0.159058962
v -6.259409049 -4.706881148 0.184760862
v -6.253421768 -4.651954356 0.183111775
v -7.037278284 -3.980077342 0.182541954
v -7.424043597 -4.431303541 0.203809901
v -6.972741473 -4.818133933 0.204137972
v -6.870990242 -5.564678411 0.222363515
v -6.395999311 -5.971813494 0.222708807
v -6.267045001 -4.778175343 0.186898255
v -5.191406172 -4.758835993 0.161765421
v -5.191417019 -6.489203483 0.209403327
v -4.563717892 -6.141496498 0.185475022
v -4.088651036 -6.548696661 0.185820369
v -4.011966120 -3.611620960 0.103207765
v -2.884144669 -3.893576322 0.085176242
v -1.760054423 -3.612575454 0.051731661
v -1.777962032 -4.141310905 0.066697500
v -1.106085018 -3.357454389 0.029751466
v -1.132962702 -0.726207247 -0.042073035
v -0.000010847 -1.009399113 -0.060187851
v 1.153657868 -0.721087688 -0.094510170
v 1.153668714 -0.432656952 -0.102451023
v 0.082303416 -0.566557277 -0.074262020
v 1.153690407 0.144204522 -0.118332729
v 1.106139251 -0.391917412 -0.102485574
v 1.777951186 0.391863179 -0.139428029
v 1.730454262 1.297894929 -0.163285139
v 1.822096534 3.135165749 -0.215961791
v 1.038240018 3.807042763 -0.216531611
v 0.549625854 3.236992905 -0.189663069
v 0.098399656 3.623758219 -0.189991086
v -0.624304165 2.780603762 -0.150250123
v -0.624792258 2.751914709 -0.149449139
v -1.730486802 3.028338345 -0.131771380
v -2.836062033 2.751882169 -0.098875364
v -0.638643268 1.890169312 -0.125408190
v -1.730454262 2.163122060 -0.107952400
v -1.730465109 1.874691323 -0.100011547
v -0.638871045 1.874691323 -0.124976866
v -0.652559357 1.028347989 -0.101363662
v -1.730486802 1.297829850 -0.084129841
v -2.834326590 1.021861768 -0.051286952
v -4.002833347 3.596424981 -0.095441278
v -2.884122976 3.316747388 -0.113327134
v -1.769978991 3.595210170 -0.146474364
v -1.777940339 3.069012805 -0.131805876
v -1.106128404 3.852793396 -0.168748331
v -1.077949138 5.605114248 -0.217634847
v -0.000021693 5.335632387 -0.234868668
v 2.245121773 5.616275320 -0.293942460
v 2.231617852 4.777676403 -0.270546680
v 1.153614482 5.047223343 -0.253312914
v 1.153603635 4.758792607 -0.245372061
v 2.231368382 4.758792607 -0.270021097
v 2.217766842 3.915931006 -0.246505731
v 1.153647021 4.182007059 -0.229493934
v 1.153636175 3.893576322 -0.221553081
v 2.217430600 3.893565476 -0.245882310
v 2.215651770 3.786694686 -0.242899434
v 2.975743555 3.135187442 -0.242346890
v 2.836604359 0.184868136 -0.157941323
v 3.416849948 0.861821323 -0.189848610
v 4.129336344 0.251118698 -0.189330672
v 4.037737458 -0.721000916 -0.160472946
v 2.884090437 -0.721022609 -0.134087846
v 4.037726611 -1.009431653 -0.152532093
v 5.191384479 -0.720979223 -0.186858045
v 5.167099114 -1.586293126 -0.162480214
v 4.037769997 -1.586217201 -0.136653965
v 2.884122976 -1.586238894 -0.110268866
v 4.037759151 -1.874647937 -0.128713112
v 5.166925570 -1.592334640 -0.162309920
v 5.143930941 -2.410813257 -0.139251002
v 5.815742876 -1.627032666 -0.176193457
v 6.012553034 -2.166484482 -0.165843299
v 6.969411591 -1.050149500 -0.218460262
v 6.968663180 -1.003541991 -0.219726268
v 9.229121937 -0.721011763 -0.279202287
v 8.075485762 -0.432602719 -0.260758040
v 8.075474916 -0.721033456 -0.252817187
v 6.968576408 -0.997804180 -0.219882247
v 6.942186818 0.744787341 -0.267252893
v 6.324683423 1.274075965 -0.267701784
v 5.191395326 1.009388267 -0.234495950
v 4.037726611 5.624030584 -0.335153763
v -1.743632787 5.337248519 -0.195035876
v -4.037813384 5.624019738 -0.150461701
v -2.792459011 -0.902582556 0.000736179
v -0.000043386 -0.144182829 -0.084006831
v -0.624933263 2.739918454 -0.149115653
v 6.345042347 1.009409960 -0.260881050
v 5.768213413 0.144215368 -0.223869547
v -3.986834726 2.799314014 -0.073862415
v -3.559297333 2.432853391 -0.073551619
v -2.836593513 3.276007848 -0.113292582
v -2.836062033 2.739896761 -0.098545401
v -2.884090437 7.354484846 -0.224488284
v -4.037737458 7.354463153 -0.198103185
v -4.037748304 7.066032416 -0.190162332
v -0.000032540 -9.950231318 0.185957064
v 0.047529463 -9.125678648 0.162169056
v -0.715913897 -10.016362568 0.204150257
v 0.091631425 -10.708544273 0.204737298
v -1.682913952 -5.953157475 0.114404508
v -1.739467723 -6.019136874 0.117514359
v 1.135468249 -7.935858473 0.104531146
v 1.106182637 -9.332673691 0.143655762
v 1.777994572 -8.548893100 0.106713307
v 1.750802339 -5.888664050 0.034098118
v 1.133298944 -5.359375426 0.033649227
v 1.129849750 -3.296377618 -0.023066981
v 0.549669241 -3.973254879 0.008836728
v -0.376623814 -3.179289404 0.008163364
v -0.576839780 -3.605102199 0.024465190
v -0.605941001 -4.463127239 0.048752497
v -1.730508495 -4.181985366 0.066731996
v -4.037759151 -4.758814300 0.135380322
v -0.606255550 -4.472867417 0.049027842
v -0.668438666 -6.307730308 0.100964456
v 0.091577193 -6.959172473 0.101516945
v -1.133830424 -7.064427131 0.132440349
v -1.133331484 -7.042332764 0.131820672
v -1.750834879 -6.513044140 0.131371781
v -2.405682852 -6.796387857 0.154149049
v -2.833220244 -6.429927235 0.153838254
v -3.508503066 -6.448539868 0.169794733
v -4.037759151 -6.489322794 0.183021861
v -4.129433962 -7.461377329 0.211879532
v -3.369342178 -8.112884573 0.212432077
v -2.398903775 -8.615024350 0.204061744
v -1.615123184 -9.286836285 0.204631509
v -1.177400906 -8.776160295 0.180561476
v -1.134036508 -7.070967584 0.132625123
v -0.000000000 -7.354430614 0.114492966
v 1.153668714 -7.066119189 0.080170647
v 1.135544174 -7.931313780 0.104404292
v -0.000021693 -7.931292087 0.130374672
v -1.153668714 -7.931313780 0.156759771
v -0.000032540 -8.219722824 0.138315525
v 2.284071637 -3.316736542 -0.048904142
v 2.307294042 -4.181941980 -0.025615825
v 2.358218467 -4.987784398 -0.004595352
v 2.833285323 -5.394984560 -0.004250005
v 2.836604359 -7.890530854 0.064377400
v 3.508416294 -7.106750263 0.027434945
v 4.037748304 -7.066032416 0.014207871
v 4.156539423 -6.302664982 -0.009524731
v 5.072658440 -5.233859463 -0.059901457
v 5.191417019 -5.047212497 -0.067755987
v 4.037759151 -5.335664927 -0.033430034
v 4.062044516 -4.470351023 -0.057807865
v 6.345020654 -4.470405256 -0.110019213
v 6.345031500 -4.181974519 -0.117960066
v 4.062163827 -4.467292304 -0.057894801
v 4.085288614 -3.645895972 -0.081037022
v 3.413476679 -4.429676563 -0.044094567
v 2.884144669 -4.470394409 -0.030867494
v 2.917714658 -2.459937159 -0.086983889
v 4.037726611 -2.739940147 -0.104890554
v 5.191384479 -2.451487718 -0.139216506
v 4.037737458 -2.451509411 -0.112831407
v 2.917844816 -2.451487718 -0.087219482
v 2.931652440 -1.626978434 -0.110234315
v 2.259775426 -2.410834950 -0.073288281
v 2.260588915 -2.439849399 -0.072508108
v 1.153592789 -2.163100367 -0.054809539
v 1.153647021 -2.451455178 -0.046872264
v 2.260849231 -2.451531104 -0.072192459
v 2.283908939 -3.310933652 -0.049060177
v 1.153625328 -3.028316652 -0.030990558
v 1.153614482 -3.316747388 -0.023049705
v 6.345064040 -3.316682309 -0.141782625
v 4.037759151 -3.605156432 -0.081071573
v 6.345053193 -3.605113046 -0.133841772
v 6.345020654 -2.739896761 -0.157660752
v 6.345031500 -2.451466025 -0.165601605
v 6.345053193 3.028349191 -0.316463442
v 5.191395326 2.739896761 -0.282137490
v 6.345042347 2.739918454 -0.308522589
v 9.714319445 1.767787994 -0.358816582
v 9.229165323 1.874647937 -0.350662751
v 9.134138936 -0.639597762 -0.279271334
v 10.569394231 1.034866749 -0.358194990
v 5.191373633 3.893543783 -0.313897323
v 6.345009807 3.605134739 -0.332341569
v 6.345020654 3.893565476 -0.340282422
v 5.191384479 4.181974519 -0.321838176
v 9.218980438 2.728019819 -0.373923461
v 7.960132991 3.807031916 -0.374838573
v 7.522410714 3.296355925 -0.350768540
v 7.549602946 1.645666993 -0.305946363
v 7.977140339 1.279206370 -0.305635567
v 6.921903820 4.470405256 -0.369356650
v 7.430811828 -1.857749055 0.063373523
v 8.095844686 -2.427777219 0.062728224
v 8.075507455 -1.586249740 0.050462108
v 8.123058612 -1.050127807 0.041815676
v 5.191417019 6.489203483 -0.030276095
v 4.037759151 6.489322794 -0.014416399
v 4.037748304 6.200892058 -0.010116243
v -8.167149727 -3.712038069 -0.441713372
v -8.024648110 -4.122622346 -0.441713372
v -7.549657179 -4.529757429 -0.441713372
v -8.075518302 -3.605134739 -0.441713372
v -6.921882127 -3.893543783 -0.441713372
v -6.921871281 -3.605113046 -0.441713372
v -8.075507455 -3.316704002 -0.441713372
v -8.075550841 -2.739918454 -0.441713372
v -6.921903820 -2.739896761 -0.441713372
v -8.075539995 -2.451487718 -0.441713372
v -9.229197863 -2.739940147 -0.441713372
v -9.229143630 -3.028294959 -0.441713372
v -8.075572535 -1.586271433 -0.441713372
v -10.382823191 -2.163100367 -0.441713372
v -6.921936360 -1.874680477 -0.441713372
v -10.382812344 -0.144161136 -0.441713372
v -10.382823191 -0.432591872 -0.441713372
v -9.229230402 -0.144215368 -0.441713372
v -2.882333300 -5.652242390 -0.441713372
v -2.878471938 -5.713503552 -0.441713372
v -2.836626053 -5.664683352 -0.441713372
v -1.730497648 -5.624063124 -0.441713372
v -4.037715765 -5.335599847 -0.441713372
v -2.884079590 -5.624008891 -0.441713372
v -1.737612967 -5.938145887 -0.441713372
v -7.400257173 -0.702366590 -0.441713372
v -7.020249243 -1.028087672 -0.441713372
v -6.297545423 -0.184933215 -0.441713372
v -6.299682188 -0.144247908 -0.441713372
v -4.037704918 -0.144215368 -0.441713372
v -5.191417019 0.144258754 -0.441713372
v -6.300332979 -0.133021757 -0.441713372
v -6.345107426 0.721022609 -0.441713372
v -6.253400075 2.558369354 -0.441713372
v -7.013491860 3.209876598 -0.441713372
v -6.921882127 2.739918454 -0.441713372
v -8.099293880 2.760266531 -0.441713372
v -8.628582504 2.142763137 -0.441713372
v -8.676144507 1.318210467 -0.441713372
v -9.205433131 0.700707072 -0.441713372
v -9.229197863 -1.009431653 -0.441713372
v -10.382790651 -1.297808157 -0.441713372
v -10.382801498 -1.586238894 -0.441713372
v -8.075550841 -1.009409960 -0.441713372
v -8.123026072 -1.545596972 -0.441713372
v -6.921849588 1.874702170 -0.441713372
v -8.075507455 1.586249740 -0.441713372
v -8.075529148 2.739896761 -0.441713372
v -6.921892974 2.451487718 -0.441713372
v -5.191373633 1.009409960 -0.441713372
v -5.191384479 0.720979223 -0.441713372
v -4.037737458 0.721000916 -0.441713372
v -1.062058982 6.596161045 -0.441713372
v -1.822074841 7.247603210 -0.441713372
v -1.849223688 10.052015089 -0.441713372
v -2.765342704 8.983209570 -0.441713372
v -2.884068744 6.200837825 -0.441713372
v -4.037704918 6.489246869 -0.441713372
v -5.191438712 6.200859518 -0.441713372
v -5.191449558 5.912428781 -0.441713372
v -1.730421722 6.200859518 -0.441713372
v -1.743632787 5.337248519 -0.441713372
v -4.037813384 5.624019738 -0.441713372
v -5.191406172 5.335643234 -0.441713372
v -5.143920095 5.871689241 -0.441713372
v -5.815732030 5.087908651 -0.441713372
v -5.856786119 3.338852602 -0.441713372
v -6.921914667 3.605134739 -0.441713372
v -6.921860434 3.316779928 -0.441713372
v -5.857350138 3.316682309 -0.441713372
v -5.859844838 3.209898291 -0.441713372
v -5.099753054 2.558391047 -0.441713372
v -5.238903096 1.050149500 -0.441713372
v -4.567091161 1.833930090 -0.441713372
v -4.037759151 1.874647937 -0.441713372
v -4.014157117 -0.726923118 -0.441713372
v -4.037802537 -0.721011763 -0.441713372
v -5.191449558 -0.721033456 -0.441713372
v -4.037813384 -1.009442499 -0.441713372
v -2.884090437 -1.009485885 -0.441713372
v -4.003820381 -0.729461204 -0.441713372
v -3.576315528 -0.230705542 -0.441713372
v -2.792459011 -0.902582556 -0.441713372
v -2.884166362 -2.739929301 -0.441713372
v -4.037748304 -2.739875068 -0.441713372
v -2.884112130 -3.028284112 -0.441713372
v -1.730519341 -2.739907608 -0.441713372
v -1.759772413 -3.605178125 -0.441713372
v -2.884133823 -3.605145585 -0.441713372
v -4.011825115 -3.605156432 -0.441713372
v -3.990218841 -2.780614608 -0.441713372
v -4.641726085 -3.540706393 -0.441713372
v -5.211775942 -3.052092230 -0.441713372
v -5.143887555 -1.626989280 -0.441713372
v -5.815699490 -2.410769871 -0.441713372
v -5.792010684 -4.161583056 -0.441713372
v -6.259409049 -4.706881148 -0.441713372
v -6.253421768 -4.651954356 -0.441713372
v -7.037278284 -3.980077342 -0.441713372
v -7.424043597 -4.431303541 -0.441713372
v -6.972741473 -4.818133933 -0.441713372
v -6.870990242 -5.564678411 -0.441713372
v -6.395999311 -5.971813494 -0.441713372
v -6.267045001 -4.778175343 -0.441713372
v -5.191406172 -4.758835993 -0.441713372
v -5.191417019 -6.489203483 -0.441713372
v -4.563717892 -6.141496498 -0.441713372
v -4.088651036 -6.548696661 -0.441713372
v -4.011966120 -3.611620960 -0.441713372
v -2.884144669 -3.893576322 -0.441713372
v -1.760054423 -3.612575454 -0.441713372
v -1.777962032 -4.141310905 -0.441713372
v -1.106085018 -3.357454389 -0.441713372
v -1.132962702 -0.726207247 -0.441713372
v -0.000010847 -1.009399113 -0.441713372
v 1.153657868 -0.721087688 -0.441713372
v 1.153668714 -0.432656952 -0.441713372
v 0.082303416 -0.566557277 -0.441713372
v -0.000043386 -0.144182829 -0.441713372
v 1.153690407 0.144204522 -0.441713372
v 1.106139251 -0.391917412 -0.441713372
v 1.777951186 0.391863179 -0.441713372
v 1.730454262 1.297894929 -0.441713372
v 1.822096534 3.135165749 -0.441713372
v 1.038240018 3.807042763 -0.441713372
v 0.549625854 3.236992905 -0.441713372
v 0.098399656 3.623758219 -0.441713372
v -0.624304165 2.780603762 -0.441713372
v -0.624792258 2.751914709 -0.441713372
v -1.730486802 3.028338345 -0.441713372
v -2.836062033 2.751882169 -0.441713372
v -2.836593513 3.276007848 -0.441713372
v -3.559297333 2.432853391 -0.441713372
v -3.986834726 2.799314014 -0.441713372
v -4.002833347 3.596424981 -0.441713372
v -2.884122976 3.316747388 -0.441713372
v -1.769978991 3.595210170 -0.441713372
v -1.777940339 3.069012805 -0.441713372
v -1.106128404 3.852793396 -0.441713372
v -1.077949138 5.605114248 -0.441713372
v -0.000021693 5.335632387 -0.441713372
v 2.245121773 5.616275320 -0.441713372
v 2.231617852 4.777676403 -0.441713372
v 1.153614482 5.047223343 -0.441713372
v 1.153603635 4.758792607 -0.441713372
v 2.231368382 4.758792607 -0.441713372
v 2.217766842 3.915931006 -0.441713372
v 1.153647021 4.182007059 -0.441713372
v 1.153636175 3.893576322 -0.441713372
v 2.217430600 3.893565476 -0.441713372
v 2.215651770 3.786694686 -0.441713372
v 2.975743555 3.135187442 -0.441713372
v 2.836604359 0.184868136 -0.441713372
v 3.416849948 0.861821323 -0.441713372
v 4.129336344 0.251118698 -0.441713372
v 4.037737458 -0.721000916 -0.441713372
v 2.884090437 -0.721022609 -0.441713372
v 4.037726611 -1.009431653 -0.441713372
v 5.191384479 -0.720979223 -0.441713372
v 5.167099114 -1.586293126 -0.441713372
v 4.037769997 -1.586217201 -0.441713372
v 2.884122976 -1.586238894 -0.441713372
v 4.037759151 -1.874647937 -0.441713372
v 5.166925570 -1.592334640 -0.441713372
v 5.143930941 -2.410813257 -0.441713372
v 5.815742876 -1.627032666 -0.441713372
v 6.012553034 -2.166484482 -0.441713372
v 6.969411591 -1.050149500 -0.441713372
v 6.968663180 -1.003541991 -0.441713372
v 9.229121937 -0.721011763 -0.441713372
v 8.075485762 -0.432602719 -0.441713372
v 8.075474916 -0.721033456 -0.441713372
v 6.968576408 -0.997804180 -0.441713372
v 6.942186818 0.744787341 -0.441713372
v 6.324683423 1.274075965 -0.441713372
v 5.191395326 1.009388267 -0.441713372
v 5.191427865 1.874680477 -0.441713372
v 6.345074886 1.874702170 -0.441713372
v 6.345020654 2.163056981 -0.441713372
v 5.167673980 2.183480984 -0.441713372
v 4.587428391 1.506527797 -0.441713372
v 4.088672729 1.934032650 -0.441713372
v 4.085277768 4.429644023 -0.441713372
v 3.362573948 3.586489566 -0.441713372
v 2.935036555 3.952950188 -0.441713372
v 2.934223066 4.746264873 -0.441713372
v 4.037748304 4.470383563 -0.441713372
v 5.191406172 4.758835993 -0.441713372
v 6.344998961 5.047212497 -0.441713372
v 2.934212219 4.763001058 -0.441713372
v 2.933322804 5.611698088 -0.441713372
v 4.037715765 5.335599847 -0.441713372
v 5.154289371 5.614745961 -0.441713372
v 5.143898402 5.087865265 -0.441713372
v 5.836145186 5.895486513 -0.441713372
v 5.171112328 6.465514677 -0.441713372
v 5.154495455 5.624052277 -0.441713372
v 4.037726611 5.624030584 -0.441713372
v 2.933366190 5.624041431 -0.441713372
v 2.931609053 7.313777846 -0.441713372
v 2.259797119 6.529997255 -0.441713372
v 2.245468862 5.639421800 -0.441713372
v 1.153657868 5.912374549 -0.441713372
v -1.077515277 5.633586371 -0.441713372
v -1.064098128 6.466859645 -0.441713372
v -0.000054233 6.200848672 -0.441713372
v 1.153679561 6.489236022 -0.441713372
v 1.106128404 5.953114089 -0.441713372
v 1.778005418 6.736970605 -0.441713372
v 1.798852435 7.625778077 -0.441713372
v 2.884079590 7.354517386 -0.441713372
v 4.037802537 7.354474000 -0.441713372
v 2.884090437 7.642948122 -0.441713372
v 1.799307989 7.642904736 -0.441713372
v 1.822042301 8.615046044 -0.441713372
v 1.038261711 9.286857978 -0.441713372
v 0.549647547 8.716808121 -0.441713372
v 0.050891885 9.144312975 -0.441713372
v 0.047529463 10.774708063 -0.441713372
v -0.624282472 9.990927472 -0.441713372
v -0.623534061 9.961837098 -0.441713372
v -1.730465109 10.238662055 -0.441713372
v -1.730475955 9.950231318 -0.441713372
v -0.623208666 9.950231318 -0.441713372
v -0.576828934 8.219744517 -0.441713372
v -0.668427820 7.247624903 -0.441713372
v 0.091588039 6.596182738 -0.441713372
v -1.063577495 6.496969593 -0.441713372
v 5.768213413 0.144215368 -0.441713372
v 6.345042347 1.009409960 -0.441713372
v -2.834326590 1.021861768 -0.441713372
v -2.836062033 2.739896761 -0.441713372
v -0.624933263 2.739918454 -0.441713372
v -0.638643268 1.890169312 -0.441713372
v -1.730454262 2.163122060 -0.441713372
v -1.730465109 1.874691323 -0.441713372
v -0.638871045 1.874691323 -0.441713372
v -0.652559357 1.028347989 -0.441713372
v -1.730486802 1.297829850 -0.441713372
v -1.730497648 1.009399113 -0.441713372
v -0.652808827 1.009464192 -0.441713372
v -0.668449513 0.037301192 -0.441713372
v 0.041910964 -0.571579217 -0.441713372
v -1.133060321 -0.718484523 -0.441713372
v -1.133277251 -0.697225338 -0.441713372
v -1.988276111 0.035630828 -0.441713372
v -2.405628619 -0.451280431 -0.441713372
v -2.833166012 -0.084819809 -0.441713372
v -2.834294050 1.009453346 -0.441713372
v -1.743611094 5.332356737 -0.441713372
v -1.756735387 4.470383563 -0.441713372
v -2.884144669 4.470394409 -0.441713372
v -4.020415561 4.470361870 -0.441713372
v -4.037759151 5.335664927 -0.441713372
v -2.884122976 5.047255883 -0.441713372
v -1.756865545 4.463778031 -0.441713372
v -1.769892219 3.605145585 -0.441713372
v -2.884112130 3.605178125 -0.441713372
v -4.003006892 3.605134739 -0.441713372
v -4.020296249 4.466044954 -0.441713372
v -2.884155516 4.181963673 -0.441713372
v -4.037748304 7.066032416 -0.441713372
v -2.884090437 7.354484846 -0.441713372
v -4.037737458 7.354463153 -0.441713372
v -0.715913897 -10.016362568 -0.441713372
v 0.091631425 -10.708544273 -0.441713372
v -0.000032540 -9.950231318 -0.441713372
v 0.047529463 -9.125678648 -0.441713372
v -1.739467723 -6.019136874 -0.441713372
v -1.682913952 -5.953157475 -0.441713372
v 1.106182637 -9.332673691 -0.441713372
v 1.777994572 -8.548893100 -0.441713372
v 1.750802339 -5.888664050 -0.441713372
v 1.133298944 -5.359375426 -0.441713372
v 1.129849750 -3.296377618 -0.441713372
v 0.549669241 -3.973254879 -0.441713372
v -0.376623814 -3.179289404 -0.441713372
v -0.576839780 -3.605102199 -0.441713372
v -0.605941001 -4.463127239 -0.441713372
v -1.730508495 -4.181985366 -0.441713372
v -4.037759151 -4.758814300 -0.441713372
v -0.606255550 -4.472867417 -0.441713372
v -0.668438666 -6.307730308 -0.441713372
v 0.091577193 -6.959172473 -0.441713372
v -1.133830424 -7.064427131 -0.441713372
v -1.133331484 -7.042332764 -0.441713372
v -1.750834879 -6.513044140 -0.441713372
v -2.405682852 -6.796387857 -0.441713372
v -2.833220244 -6.429927235 -0.441713372
v -3.508503066 -6.448539868 -0.441713372
v -4.037759151 -6.489322794 -0.441713372
v -4.129433962 -7.461377329 -0.441713372
v -3.369342178 -8.112884573 -0.441713372
v -2.398903775 -8.615024350 -0.441713372
v -1.615123184 -9.286836285 -0.441713372
v -1.177400906 -8.776160295 -0.441713372
v -1.134036508 -7.070967584 -0.441713372
v -0.000000000 -7.354430614 -0.441713372
v 1.153668714 -7.066119189 -0.441713372
v 1.135544174 -7.931313780 -0.441713372
v -0.000021693 -7.931292087 -0.441713372
v -1.153668714 -7.931313780 -0.441713372
v -0.000032540 -8.219722824 -0.441713372
v 1.135468249 -7.935858473 -0.441713372
v 2.307294042 -4.181941980 -0.441713372
v 2.358218467 -4.987784398 -0.441713372
v 2.833285323 -5.394984560 -0.441713372
v 2.836604359 -7.890530854 -0.441713372
v 3.508416294 -7.106750263 -0.441713372
v 4.037748304 -7.066032416 -0.441713372
v 4.156539423 -6.302664982 -0.441713372
v 5.072658440 -5.233859463 -0.441713372
v 5.191417019 -5.047212497 -0.441713372
v 4.037759151 -5.335664927 -0.441713372
v 4.062044516 -4.470351023 -0.441713372
v 6.345020654 -4.470405256 -0.441713372
v 6.345031500 -4.181974519 -0.441713372
v 4.062163827 -4.467292304 -0.441713372
v 4.085288614 -3.645895972 -0.441713372
v 3.413476679 -4.429676563 -0.441713372
v 2.884144669 -4.470394409 -0.441713372
v 2.917714658 -2.459937159 -0.441713372
v 4.037726611 -2.739940147 -0.441713372
v 5.191384479 -2.451487718 -0.441713372
v 4.037737458 -2.451509411 -0.441713372
v 2.917844816 -2.451487718 -0.441713372
v 2.931652440 -1.626978434 -0.441713372
v 2.259775426 -2.410834950 -0.441713372
v 2.260588915 -2.439849399 -0.441713372
v 1.153592789 -2.163100367 -0.441713372
v 1.153647021 -2.451455178 -0.441713372
v 2.260849231 -2.451531104 -0.441713372
v 2.283908939 -3.310933652 -0.441713372
v 1.153625328 -3.028316652 -0.441713372
v 1.153614482 -3.316747388 -0.441713372
v 2.284071637 -3.316736542 -0.441713372
v 6.345053193 -3.605113046 -0.441713372
v 6.345064040 -3.316682309 -0.441713372
v 4.037759151 -3.605156432 -0.441713372
v 6.345020654 -2.739896761 -0.441713372
v 6.345031500 -2.451466025 -0.441713372
v 6.345042347 2.739918454 -0.441713372
v 6.345053193 3.028349191 -0.441713372
v 5.191395326 2.739896761 -0.441713372
v 9.134138936 -0.639597762 -0.441713372
v 10.569394231 1.034866749 -0.441713372
v 9.714319445 1.767787994 -0.441713372
v 9.229165323 1.874647937 -0.441713372
v 6.345020654 3.893565476 -0.441713372
v 5.191384479 4.181974519 -0.441713372
v 5.191373633 3.893543783 -0.441713372
v 6.345009807 3.605134739 -0.441713372
v 7.522410714 3.296355925 -0.441713372
v 7.549602946 1.645666993 -0.441713372
v 7.977140339 1.279206370 -0.441713372
v 9.218980438 2.728019819 -0.441713372
v 7.960132991 3.807031916 -0.441713372
v 6.921903820 4.470405256 -0.441713372
v 8.095844686 -2.427777219 -0.441713372
v 8.075507455 -1.586249740 -0.441713372
v 8.123058612 -1.050127807 -0.441713372
v 7.430811828 -1.857749055 -0.441713372
v 4.037748304 6.200892058 -0.441713372
v 5.191417019 6.489203483 -0.441713372
v 4.037759151 6.489322794 -0.441713372
g roof
f 1 2 3
g roof
f 4 5 6
g roof
f 4 6 7
g roof
f 8 9 10
g roof
f 10 11 12
g roof
f 10 12 8
g roof
f 13 14 15
g roof
f 16 17 18
g roof
f 19 20 21
g roof
f 22 23 24
g roof
f 22 24 25
g roof
f 22 25 21
g roof
f 26 27 28
g roof
f 29 27 26
g roof
f 29 26 30
g roof
f 29 30 31
g roof
f 29 31 32
g roof
f 29 32 33
g roof
f 33 34 35
g roof
f 33 35 36
g roof
f 36 37 38
g roof
f 38 39 40
g roof
f 38 40 41
g roof
f 41 42 43
g roof
f 41 43 44
g roof
f 45 46 47
g roof
f 45 47 48
g roof
f 48 26 28
g roof
f 48 28 49
g roof
f 49 29 33
g roof
f 49 33 36
g roof
f 49 36 38
g roof
f 49 38 41
g roof
f 49 41 44
g roof
f 49 44 45
g roof
f 49 45 48
g roof
f 50 51 52
g roof
f 50 52 45
g roof
f 53 54 55
g roof
f 53 55 56
g roof
f 53 56 57
g roof
f 58 59 60
g roof
f 58 60 61
g roof
f 62 63 64
g roof
f 62 64 65
g roof
f 62 65 66
g roof
f 62 66 67
g roof
f 67 68 69
g roof
f 69 70 71
g roof
f 71 72 73
g roof
f 74 75 76
g roof
f 74 76 77
g roof
f 77 78 79
g roof
f 80 81 82
g roof
f 82 83 84
g roof
f 82 84 85
g roof
f 85 86 87
g roof
f 85 87 88
g roof
f 85 88 89
g roof
f 85 89 90
g roof
f 85 90 91
g roof
f 85 91 92
g roof
f 85 92 93
g roof
f 93 94 95
g roof
f 93 95 96
g roof
f 96 97 98
g roof
f 96 98 99
g roof
f 100 101 102
g roof
f 103 104 105
g roof
f 105 106 107
g roof
f 105 107 108
g roof
f 108 109 110
g roof
f 108 110 111
g roof
f 108 111 112
g roof
f 113 114 115
g roof
f 116 117 118
g roof
f 119 120 121
g roof
f 122 123 124
g roof
f 124 119 125
g roof
f 125 126 127
g roof
f 128 129 130
g roof
f 130 131 132
g roof
f 133 134 135
g roof
f 133 135 136
g roof
f 137 128 127
g roof
f 138 139 140
g roof
f 138 140 141
g roof
f 138 141 142
g roof
f 138 142 143
g roof
f 143 144 145
g roof
f 143 145 146
g roof
f 147 148 149
g roof
f 147 149 150
g roof
f 147 150 151
g roof
f 147 151 152
g roof
f 147 152 153
g roof
f 154 155 156
g roof
f 154 156 157
g roof
f 158 159 160
g roof
f 160 161 162
g roof
f 163 164 165
g roof
f 163 165 166
g roof
f 167 168 169
g roof
f 167 169 170
g roof
f 167 170 171
g roof
f 167 171 172
g roof
f 167 172 173
g roof
f 167 173 174
g roof
f 167 174 175
g roof
f 175 176 177
g roof
f 175 177 178
g roof
f 175 178 179
g roof
f 179 180 181
g roof
f 181 182 183
g roof
f 181 183 184
g roof
f 184 185 186
g roof
f 184 186 187
g roof
f 184 187 188
g roof
f 189 190 191
g roof
f 189 191 192
g roof
f 189 192 193
g roof
f 189 193 194
g roof
f 189 194 195
g roof
f 189 195 196
g roof
f 189 196 197
g roof
f 189 197 198
g roof
f 198 199 200
g roof
f 201 202 203
g roof
f 201 203 204
g roof
f 205 206 207
g roof
f 208 209 210
g roof
f 210 211 212
g roof
f 210 212 213
g roof
f 213 214 215
g roof
f 216 217 218
g roof
f 216 218 219
g roof
f 220 221 222
g roof
f 220 222 223
g roof
f 223 224 225
g roof
f 225 226 227
g roof
f 225 227 228
g roof
f 229 230 231
g roof
f 229 231 232
g roof
f 233 234 235
g roof
f 233 235 236
g roof
f 233 236 237
g roof
f 233 237 238
g roof
f 233 238 239
g roof
f 239 240 241
g roof
f 239 241 242
g roof
f 243 244 245
g roof
f 243 245 246
g roof
f 246 247 248
g roof
f 249 53 57
g roof
f 61 62 67
g roof
f 69 71 73
g roof
f 69 73 250
g roof
f 69 250 74
g roof
f 74 77 79
g roof
f 82 85 93
g roof
f 82 93 96
g roof
f 82 96 99
g roof
f 82 99 100
g roof
f 82 100 102
g roof
f 82 102 103
g roof
f 103 105 108
g roof
f 103 108 112
g roof
f 103 112 251
g roof
f 251 252 125
g roof
f 251 125 113
g roof
f 251 113 115
g roof
f 118 113 125
g roof
f 118 125 119
g roof
f 118 119 121
g roof
f 124 125 127
g roof
f 127 138 143
g roof
f 127 143 146
g roof
f 146 147 153
g roof
f 146 153 253
g roof
f 253 154 157
g roof
f 162 163 166
g roof
f 162 166 167
g roof
f 162 167 175
g roof
f 162 175 179
g roof
f 254 189 198
g roof
f 255 201 204
g roof
f 215 216 219
g roof
f 219 220 223
g roof
f 219 223 225
g roof
f 228 229 232
g roof
f 232 233 239
g roof
f 232 239 242
g roof
f 242 243 246
g roof
f 242 246 248
g roof
f 248 249 256
g roof
f 257 249 57
g roof
f 257 57 58
g roof
f 67 69 74
g roof
f 80 82 103
g roof
f 80 103 251
g roof
f 80 251 115
g roof
f 80 115 116
g roof
f 116 118 121
g roof
f 116 121 122
g roof
f 137 127 146
g roof
f 137 146 253
g roof
f 137 253 157
g roof
f 160 162 179
g roof
f 160 179 181
g roof
f 188 254 198
g roof
f 215 219 225
g roof
f 215 225 228
g roof
f 228 232 242
g roof
f 242 248 256
g roof
f 242 256 257
g roof
f 79 80 116
g roof
f 79 116 122
g roof
f 136 137 157
g roof
f 158 160 181
g roof
f 158 181 184
g roof
f 228 242 257
g roof
f 228 257 58
g roof
f 228 58 61
g roof
f 133 136 157
g roof
f 133 157 158
g roof
f 133 158 184
g roof
f 133 184 188
g roof
f 215 228 61
g roof
f 215 61 67
g roof
f 215 67 74
g roof
f 215 74 79
g roof
f 132 133 188
g roof
f 132 188 198
g roof
f 213 215 79
g roof
f 213 79 122
g roof
f 210 213 122
g roof
f 210 122 124
g roof
f 208 210 124
g roof
f 208 124 127
g roof
f 258 208 127
g roof
f 258 127 128
g roof
f 259 258 128
g roof
f 200 260 259
g roof
f 200 259 261
g roof
f 200 261 255
g roof
f 207 261 259
g roof
f 207 259 128
g roof
f 207 128 130
g roof
f 198 200 255
g roof
f 205 207 130
g roof
f 205 130 132
g roof
f 132 198 255
g roof
f 132 255 204
g roof
f 132 204 205
g roof
f 262 263 264
g roof
f 265 266 267
g roof
f 265 267 268
g roof
f 269 23 270
g roof
f 271 272 273
g roof
f 271 273 274
g roof
f 275 276 277
g roof
f 275 277 278
g roof
f 275 278 279
g roof
f 275 279 280
g roof
f 280 281 282
g roof
f 280 282 283
g roof
f 283 284 285
g roof
f 286 287 288
g roof
f 288 270 289
g roof
f 290 19 291
g roof
f 290 291 292
g roof
f 290 292 293
g roof
f 290 293 294
g roof
f 290 294 295
g roof
f 290 295 296
g roof
f 290 296 297
g roof
f 298 299 300
g roof
f 301 302 303
g roof
f 301 303 304
g roof
f 301 304 271
g roof
f 301 271 274
g roof
f 274 275 280
g roof
f 274 280 283
g roof
f 274 283 285
g roof
f 286 288 289
g roof
f 289 290 297
g roof
f 289 297 298
g roof
f 300 301 274
g roof
f 300 274 285
g roof
f 300 285 286
g roof
f 286 289 298
g roof
f 286 298 300
g roof
f 305 306 307
g roof
f 305 307 308
g roof
f 308 309 310
g roof
f 308 310 311
g roof
f 308 311 312
g roof
f 312 313 314
g roof
f 312 314 315
g roof
f 316 317 318
g roof
f 316 318 319
g roof
f 316 319 320
g roof
f 316 320 321
g roof
f 316 321 322
g roof
f 323 324 325
g roof
f 323 325 326
g roof
f 323 326 327
g roof
f 327 328 329
g roof
f 327 329 330
g roof
f 330 331 332
g roof
f 330 332 333
g roof
f 330 333 334
g roof
f 334 335 336
g roof
f 334 336 305
g roof
f 334 305 308
g roof
f 308 312 315
g roof
f 308 315 316
g roof
f 308 316 322
g roof
f 308 322 323
g roof
f 308 323 327
g roof
f 308 327 330
g roof
f 308 330 334
g roof
f 337 338 339
g roof
f 340 341 325
g roof
f 342 343 344
g roof
f 345 346 347
g roof
f 345 347 348
g roof
f 349 350 351
g roof
f 349 351 352
g roof
f 353 354 355
g roof
f 353 355 356
g roof
f 353 356 357
g roof
f 358 65 351
g roof
f 359 360 361
g roof
f 359 361 362
g roof
f 363 364 365
g facade_completed
f 1 3 366 367
g facade_completed
f 2 1 367 368
g facade_completed
f 3 2 368 366
g facade_completed
f 7 6 369 370
g facade_completed
f 4 7 370 371
g facade_completed
f 5 4 371 372
g facade_completed
f 6 5 372 369
g facade_completed
f 11 10 373 374
g facade_completed
f 12 11 374 375
g facade_completed
f 8 12 375 376
g facade_completed
f 9 8 376 377
g facade_completed
f 10 9 377 373
g facade_completed
f 13 15 378 379
g facade_completed
f 14 13 379 380
g facade_completed
f 15 14 380 378
g facade_completed
f 16 18 381 382
g facade_completed
f 17 16 382 383
g facade_completed
f 18 17 383 381
g facade_completed
f 19 21 384 385
g facade_completed
f 20 19 385 386
g facade_completed
f 21 20 386 384
g facade_completed
f 25 24 387 388
g facade_completed
f 21 25 388 384
g facade_completed
f 22 21 384 389
g facade_completed
f 23 22 389 390
g facade_completed
f 24 23 390 387
g facade_completed
f 39 38 391 392
g facade_completed
f 40 39 392 393
g facade_completed
f 41 40 393 394
g facade_completed
f 42 41 394 395
g facade_completed
f 43 42 395 396
g facade_completed
f 44 43 396 397
g facade_completed
f 45 44 397 398
g facade_completed
f 46 45 398 399
g facade_completed
f 47 46 399 400
g facade_completed
f 48 47 400 401
g facade_completed
f 26 48 401 402
g facade_completed
f 30 26 402 403
g facade_completed
f 31 30 403 404
g facade_completed
f 32 31 404 405
g facade_completed
f 33 32 405 406
g facade_completed
f 34 33 406 407
g facade_completed
f 35 34 407 408
g facade_completed
f 36 35 408 409
g facade_completed
f 37 36 409 410
g facade_completed
f 38 37 410 391
g facade_completed
f 29 49 411 412
g facade_completed
f 27 29 412 413
g facade_completed
f 28 27 413 414
g facade_completed
f 49 28 414 411
g facade_completed
f 45 52 415 398
g facade_completed
f 50 45 398 416
g facade_completed
f 51 50 416 417
g facade_completed
f 52 51 417 415
g facade_completed
f 105 104 418 419
g facade_completed
f 106 105 419 420
g facade_completed
f 107 106 420 421
g facade_completed
f 108 107 421 422
g facade_completed
f 109 108 422 423
g facade_completed
f 110 109 423 424
g facade_completed
f 111 110 424 425
g facade_completed
f 112 111 425 426
g facade_completed
f 251 112 426 427
g facade_completed
f 252 251 427 428
g facade_completed
f 125 252 428 429
g facade_completed
f 126 125 429 430
g facade_completed
f 127 126 430 431
g facade_completed
f 138 127 431 432
g facade_completed
f 139 138 432 433
g facade_completed
f 140 139 433 434
g facade_completed
f 141 140 434 435
g facade_completed
f 142 141 435 436
g facade_completed
f 143 142 436 437
g facade_completed
f 144 143 437 438
g facade_completed
f 145 144 438 439
g facade_completed
f 146 145 439 440
g facade_completed
f 147 146 440 441
g facade_completed
f 148 147 441 442
g facade_completed
f 149 148 442 443
g facade_completed
f 150 149 443 444
g facade_completed
f 151 150 444 445
g facade_completed
f 152 151 445 446
g facade_completed
f 153 152 446 447
g facade_completed
f 253 153 447 448
g facade_completed
f 154 253 448 449
g facade_completed
f 155 154 449 450
g facade_completed
f 156 155 450 451
g facade_completed
f 157 156 451 452
g facade_completed
f 158 157 452 453
g facade_completed
f 159 158 453 454
g facade_completed
f 160 159 454 455
g facade_completed
f 161 160 455 456
g facade_completed
f 162 161 456 457
g facade_completed
f 163 162 457 458
g facade_completed
f 164 163 458 459
g facade_completed
f 165 164 459 460
g facade_completed
f 166 165 460 461
g facade_completed
f 167 166 461 462
g facade_completed
f 168 167 462 463
g facade_completed
f 169 168 463 464
g facade_completed
f 170 169 464 465
g facade_completed
f 171 170 465 466
g facade_completed
f 172 171 466 467
g facade_completed
f 173 172 467 468
g facade_completed
f 174 173 468 469
g facade_completed
f 175 174 469 470
g facade_completed
f 176 175 470 471
g facade_completed
f 177 176 471 472
g facade_completed
f 178 177 472 473
g facade_completed
f 179 178 473 474
g facade_completed
f 180 179 474 475
g facade_completed
f 181 180 475 476
g facade_completed
f 182 181 476 477
g facade_completed
f 183 182 477 478
g facade_completed
f 184 183 478 479
g facade_completed
f 185 184 479 480
g facade_completed
f 186 185 480 481
g facade_completed
f 187 186 481 482
g facade_completed
f 188 187 482 483
g facade_completed
f 254 188 483 484
g facade_completed
f 189 254 484 485
g facade_completed
f 190 189 485 486
g facade_completed
f 191 190 486 487
g facade_completed
f 192 191 487 488
g facade_completed
f 193 192 488 489
g facade_completed
f 194 193 489 490
g facade_completed
f 195 194 490 491
g facade_completed
f 196 195 491 492
g facade_completed
f 197 196 492 493
g facade_completed
f 198 197 493 494
g facade_completed
f 199 198 494 495
g facade_completed
f 200 199 495 496
g facade_completed
f 260 200 496 497
g facade_completed
f 259 260 497 498
g facade_completed
f 258 259 498 499
g facade_completed
f 208 258 499 500
g facade_completed
f 209 208 500 501
g facade_completed
f 210 209 501 502
g facade_completed
f 211 210 502 503
g facade_completed
f 212 211 503 504
g facade_completed
f 213 212 504 505
g facade_completed
f 214 213 505 506
g facade_completed
f 215 214 506 507
g facade_completed
f 216 215 507 508
g facade_completed
f 217 216 508 509
g facade_completed
f 218 217 509 510
g facade_completed
f 219 218 510 511
g facade_completed
f 220 219 511 512
g facade_completed
f 221 220 512 513
g facade_completed
f 222 221 513 514
g facade_completed
f 223 222 514 515
g facade_completed
f 224 223 515 516
g facade_completed
f 225 224 516 517
g facade_completed
f 226 225 517 518
g facade_completed
f 227 226 518 519
g facade_completed
f 228 227 519 520
g facade_completed
f 229 228 520 521
g facade_completed
f 230 229 521 522
g facade_completed
f 231 230 522 523
g facade_completed
f 232 231 523 524
g facade_completed
f 233 232 524 525
g facade_completed
f 234 233 525 526
g facade_completed
f 235 234 526 527
g facade_completed
f 236 235 527 528
g facade_completed
f 237 236 528 529
g facade_completed
f 238 237 529 530
g facade_completed
f 239 238 530 531
g facade_completed
f 240 239 531 532
g facade_completed
f 241 240 532 533
g facade_completed
f 242 241 533 534
g facade_completed
f 243 242 534 535
g facade_completed
f 244 243 535 536
g facade_completed
f 245 244 536 537
g facade_completed
f 246 245 537 538
g facade_completed
f 247 246 538 539
g facade_completed
f 248 247 539 540
g facade_completed
f 249 248 540 541
g facade_completed
f 53 249 541 542
g facade_completed
f 54 53 542 543
g facade_completed
f 55 54 543 544
g facade_completed
f 56 55 544 545
g facade_completed
f 57 56 545 546
g facade_completed
f 58 57 546 547
g facade_completed
f 59 58 547 548
g facade_completed
f 60 59 548 549
g facade_completed
f 61 60 549 550
g facade_completed
f 62 61 550 551
g facade_completed
f 63 62 551 552
g facade_completed
f 64 63 552 553
g facade_completed
f 65 64 553 554
g facade_completed
f 66 65 554 555
g facade_completed
f 67 66 555 556
g facade_completed
f 68 67 556 557
g facade_completed
f 69 68 557 558
g facade_completed
f 70 69 558 559
g facade_completed
f 71 70 559 560
g facade_completed
f 72 71 560 561
g facade_completed
f 73 72 561 562
g facade_completed
f 250 73 562 563
g facade_completed
f 74 250 563 564
g facade_completed
f 75 74 564 565
g facade_completed
f 76 75 565 566
g facade_completed
f 77 76 566 567
g facade_completed
f 78 77 567 568
g facade_completed
f 79 78 568 569
g facade_completed
f 80 79 569 570
g facade_completed
f 81 80 570 571
g facade_completed
f 82 81 571 572
g facade_completed
f 83 82 572 573
g facade_completed
f 84 83 573 574
g facade_completed
f 85 84 574 575
g facade_completed
f 86 85 575 576
g facade_completed
f 87 86 576 577
g facade_completed
f 88 87 577 578
g facade_completed
f 89 88 578 579
g facade_completed
f 90 89 579 580
g facade_completed
f 91 90 580 581
g facade_completed
f 92 91 581 582
g facade_completed
f 93 92 582 583
g facade_completed
f 94 93 583 584
g facade_completed
f 95 94 584 585
g facade_completed
f 96 95 585 586
g facade_completed
f 97 96 586 587
g facade_completed
f 98 97 587 588
g facade_completed
f 99 98 588 589
g facade_completed
f 100 99 589 590
g facade_completed
f 101 100 590 591
g facade_completed
f 102 101 591 592
g facade_completed
f 103 102 592 593
g facade_completed
f 104 103 593 418
g facade_completed
f 249 257 594 541
g facade_completed
f 256 249 541 595
g facade_completed
f 257 256 595 594
g facade_completed
f 261 207 596 597
g facade_completed
f 255 261 597 598
g facade_completed
f 201 255 598 599
g facade_completed
f 202 201 599 600
g facade_completed
f 203 202 600 601
g facade_completed
f 204 203 601 602
g facade_completed
f 205 204 602 603
g facade_completed
f 206 205 603 604
g facade_completed
f 207 206 604 596
g facade_completed
f 130 129 605 606
g facade_completed
f 131 130 606 607
g facade_completed
f 132 131 607 608
g facade_completed
f 133 132 608 609
g facade_completed
f 134 133 609 610
g facade_completed
f 135 134 610 611
g facade_completed
f 136 135 611 612
g facade_completed
f 137 136 612 613
g facade_completed
f 128 137 613 614
g facade_completed
f 129 128 614 605
g facade_completed
f 116 115 615 616
g facade_completed
f 117 116 616 617
g facade_completed
f 118 117 617 618
g facade_completed
f 113 118 618 619
g facade_completed
f 114 113 619 620
g facade_completed
f 115 114 620 615
g facade_completed
f 122 121 621 622
g facade_completed
f 123 122 622 623
g facade_completed
f 124 123 623 624
g facade_completed
f 119 124 624 625
g facade_completed
f 120 119 625 626
g facade_completed
f 121 120 626 621
g facade_completed
f 262 264 627 628
g facade_completed
f 263 262 628 629
g facade_completed
f 264 263 629 627
g facade_completed
f 268 267 630 631
g facade_completed
f 265 268 631 632
g facade_completed
f 266 265 632 633
g facade_completed
f 267 266 633 630
g facade_completed
f 269 270 634 635
g facade_completed
f 23 269 635 390
g facade_completed
f 270 23 390 634
g facade_completed
f 273 272 636 637
g facade_completed
f 274 273 637 638
g facade_completed
f 275 274 638 639
g facade_completed
f 276 275 639 640
g facade_completed
f 277 276 640 641
g facade_completed
f 278 277 641 642
g facade_completed
f 279 278 642 643
g facade_completed
f 280 279 643 644
g facade_completed
f 281 280 644 645
g facade_completed
f 282 281 645 646
g facade_completed
f 283 282 646 647
g facade_completed
f 284 283 647 648
g facade_completed
f 285 284 648 649
g facade_completed
f 286 285 649 650
g facade_completed
f 287 286 650 651
g facade_completed
f 288 287 651 652
g facade_completed
f 270 288 652 634
g facade_completed
f 289 270 634 653
g facade_completed
f 290 289 653 654
g facade_completed
f 19 290 654 385
g facade_completed
f 291 19 385 655
g facade_completed
f 292 291 655 656
g facade_completed
f 293 292 656 657
g facade_completed
f 294 293 657 658
g facade_completed
f 295 294 658 659
g facade_completed
f 296 295 659 660
g facade_completed
f 297 296 660 661
g facade_completed
f 298 297 661 662
g facade_completed
f 299 298 662 663
g facade_completed
f 300 299 663 664
g facade_completed
f 301 300 664 665
g facade_completed
f 302 301 665 666
g facade_completed
f 303 302 666 667
g facade_completed
f 304 303 667 668
g facade_completed
f 271 304 668 669
g facade_completed
f 272 271 669 636
g facade_completed
f 307 306 670 671
g facade_completed
f 308 307 671 672
g facade_completed
f 309 308 672 673
g facade_completed
f 310 309 673 674
g facade_completed
f 311 310 674 675
g facade_completed
f 312 311 675 676
g facade_completed
f 313 312 676 677
g facade_completed
f 314 313 677 678
g facade_completed
f 315 314 678 679
g facade_completed
f 316 315 679 680
g facade_completed
f 317 316 680 681
g facade_completed
f 318 317 681 682
g facade_completed
f 319 318 682 683
g facade_completed
f 320 319 683 684
g facade_completed
f 321 320 684 685
g facade_completed
f 322 321 685 686
g facade_completed
f 323 322 686 687
g facade_completed
f 324 323 687 688
g facade_completed
f 325 324 688 689
g facade_completed
f 326 325 689 690
g facade_completed
f 327 326 690 691
g facade_completed
f 328 327 691 692
g facade_completed
f 329 328 692 693
g facade_completed
f 330 329 693 694
g facade_completed
f 331 330 694 695
g facade_completed
f 332 331 695 696
g facade_completed
f 333 332 696 697
g facade_completed
f 334 333 697 698
g facade_completed
f 335 334 698 699
g facade_completed
f 336 335 699 700
g facade_completed
f 305 336 700 701
g facade_completed
f 306 305 701 670
g facade_completed
f 337 339 702 703
g facade_completed
f 338 337 703 704
g facade_completed
f 339 338 704 702
g facade_completed
f 340 325 689 705
g facade_completed
f 341 340 705 706
g facade_completed
f 325 341 706 689
g facade_completed
f 342 344 707 708
g facade_completed
f 343 342 708 709
g facade_completed
f 344 343 709 707
g facade_completed
f 348 347 710 711
g facade_completed
f 345 348 711 712
g facade_completed
f 346 345 712 713
g facade_completed
f 347 346 713 710
g facade_completed
f 352 351 714 715
g facade_completed
f 349 352 715 716
g facade_completed
f 350 349 716 717
g facade_completed
f 351 350 717 714
g facade_completed
f 356 355 718 719
g facade_completed
f 357 356 719 720
g facade_completed
f 353 357 720 721
g facade_completed
f 354 353 721 722
g facade_completed
f 355 354 722 718
g facade_completed
f 358 351 714 723
g facade_completed
f 65 358 723 554
g facade_completed
f 351 65 554 714
g facade_completed
f 361 360 724 725
g facade_completed
f 362 361 725 726
g facade_completed
f 359 362 726 727
g facade_completed
f 360 359 727 724
g facade_completed
f 363 365 728 729
g facade_completed
f 364 363 729 730
g facade_completed
f 365 364 730 728
g ground_assumed
f 368 367 366
g ground_assumed
f 371 369 372
g ground_assumed
f 371 370 369
g ground_assumed
f 376 373 377
g ground_assumed
f 373 375 374
g ground_assumed
f 373 376 375
g ground_assumed
f 378 380 379
g ground_assumed
f 383 382 381
g ground_assumed
f 385 384 386
g ground_assumed
f 388 389 384
g ground_assumed
f 389 387 390
g ground_assumed
f 389 388 387
g ground_assumed
f 402 414 413
g ground_assumed
f 412 402 413
g ground_assumed
f 412 403 402
g ground_assumed
f 412 404 403
g ground_assumed
f 412 405 404
g ground_assumed
f 412 406 405
g ground_assumed
f 406 408 407
g ground_assumed
f 406 409 408
g ground_assumed
f 409 391 410
g ground_assumed
f 391 393 392
g ground_assumed
f 391 394 393
g ground_assumed
f 394 396 395
g ground_assumed
f 394 397 396
g ground_assumed
f 398 400 399
g ground_assumed
f 398 401 400
g ground_assumed
f 401 414 402
g ground_assumed
f 401 411 414
g ground_assumed
f 411 406 412
g ground_assumed
f 411 409 406
g ground_assumed
f 411 391 409
g ground_assumed
f 411 394 391
g ground_assumed
f 411 397 394
g ground_assumed
f 411 398 397
g ground_assumed
f 411 401 398
g ground_assumed
f 416 415 417
g ground_assumed
f 416 398 415
g ground_assumed
f 542 544 543
g ground_assumed
f 542 545 544
g ground_assumed
f 542 546 545
g ground_assumed
f 547 549 548
g ground_assumed
f 547 550 549
g ground_assumed
f 551 553 552
g ground_assumed
f 551 554 553
g ground_assumed
f 551 555 554
g ground_assumed
f 551 556 555
g ground_assumed
f 556 558 557
g ground_assumed
f 558 560 559
g ground_assumed
f 560 562 561
g ground_assumed
f 564 566 565
g ground_assumed
f 564 567 566
g ground_assumed
f 567 569 568
g ground_assumed
f 570 572 571
g ground_assumed
f 572 574 573
g ground_assumed
f 572 575 574
g ground_assumed
f 575 577 576
g ground_assumed
f 575 578 577
g ground_assumed
f 575 579 578
g ground_assumed
f 575 580 579
g ground_assumed
f 575 581 580
g ground_assumed
f 575 582 581
g ground_assumed
f 575 583 582
g ground_assumed
f 583 585 584
g ground_assumed
f 583 586 585
g ground_assumed
f 586 588 587
g ground_assumed
f 586 589 588
g ground_assumed
f 590 592 591
g ground_assumed
f 593 419 418
g ground_assumed
f 419 421 420
g ground_assumed
f 419 422 421
g ground_assumed
f 422 424 423
g ground_assumed
f 422 425 424
g ground_assumed
f 422 426 425
g ground_assumed
f 619 615 620
g ground_assumed
f 616 618 617
g ground_assumed
f 625 621 626
g ground_assumed
f 622 624 623
g ground_assumed
f 624 429 625
g ground_assumed
f 429 431 430
g ground_assumed
f 614 606 605
g ground_assumed
f 606 608 607
g ground_assumed
f 609 611 610
g ground_assumed
f 609 612 611
g ground_assumed
f 613 431 614
g ground_assumed
f 432 434 433
g ground_assumed
f 432 435 434
g ground_assumed
f 432 436 435
g ground_assumed
f 432 437 436
g ground_assumed
f 437 439 438
g ground_assumed
f 437 440 439
g ground_assumed
f 441 443 442
g ground_assumed
f 441 444 443
g ground_assumed
f 441 445 444
g ground_assumed
f 441 446 445
g ground_assumed
f 441 447 446
g ground_assumed
f 449 451 450
g ground_assumed
f 449 452 451
g ground_assumed
f 453 455 454
g ground_assumed
f 455 457 456
g ground_assumed
f 458 460 459
g ground_assumed
f 458 461 460
g ground_assumed
f 462 464 463
g ground_assumed
f 462 465 464
g ground_assumed
f 462 466 465
g ground_assumed
f 462 467 466
g ground_assumed
f 462 468 467
g ground_assumed
f 462 469 468
g ground_assumed
f 462 470 469
g ground_assumed
f 470 472 471
g ground_assumed
f 470 473 472
g ground_assumed
f 470 474 473
g ground_assumed
f 474 476 475
g ground_assumed
f 476 478 477
g ground_assumed
f 476 479 478
g ground_assumed
f 479 481 480
g ground_assumed
f 479 482 481
g ground_assumed
f 479 483 482
g ground_assumed
f 485 487 486
g ground_assumed
f 485 488 487
g ground_assumed
f 485 489 488
g ground_assumed
f 485 490 489
g ground_assumed
f 485 491 490
g ground_assumed
f 485 492 491
g ground_assumed
f 485 493 492
g ground_assumed
f 485 494 493
g ground_assumed
f 494 496 495
g ground_assumed
f 599 601 600
g ground_assumed
f 599 602 601
g ground_assumed
f 603 596 604
g ground_assumed
f 500 502 501
g ground_assumed
f 502 504 503
g ground_assumed
f 502 505 504
g ground_assumed
f 505 507 506
g ground_assumed
f 508 510 509
g ground_assumed
f 508 511 510
g ground_assumed
f 512 514 513
g ground_assumed
f 512 515 514
g ground_assumed
f 515 517 516
g ground_assumed
f 517 519 518
g ground_assumed
f 517 520 519
g ground_assumed
f 521 523 522
g ground_assumed
f 521 524 523
g ground_assumed
f 525 527 526
g ground_assumed
f 525 528 527
g ground_assumed
f 525 529 528
g ground_assumed
f 525 530 529
g ground_assumed
f 525 531 530
g ground_assumed
f 531 533 532
g ground_assumed
f 531 534 533
g ground_assumed
f 535 537 536
g ground_assumed
f 535 538 537
g ground_assumed
f 538 540 539
g ground_assumed
f 541 546 542
g ground_assumed
f 550 556 551
g ground_assumed
f 558 562 560
g ground_assumed
f 558 563 562
g ground_assumed
f 558 564 563
g ground_assumed
f 564 569 567
g ground_assumed
f 572 583 575
g ground_assumed
f 572 586 583
g ground_assumed
f 572 589 586
g ground_assumed
f 572 590 589
g ground_assumed
f 572 592 590
g ground_assumed
f 572 593 592
g ground_assumed
f 593 422 419
g ground_assumed
f 593 426 422
g ground_assumed
f 593 427 426
g ground_assumed
f 427 429 428
g ground_assumed
f 427 619 429
g ground_assumed
f 427 615 619
g ground_assumed
f 618 429 619
g ground_assumed
f 618 625 429
g ground_assumed
f 618 621 625
g ground_assumed
f 624 431 429
g ground_assumed
f 431 437 432
g ground_assumed
f 431 440 437
g ground_assumed
f 440 447 441
g ground_assumed
f 440 448 447
g ground_assumed
f 448 452 449
g ground_assumed
f 457 461 458
g ground_assumed
f 457 462 461
g ground_assumed
f 457 470 462
g ground_assumed
f 457 474 470
g ground_assumed
f 484 494 485
g ground_assumed
f 598 602 599
g ground_assumed
f 507 511 508
g ground_assumed
f 511 515 512
g ground_assumed
f 511 517 515
g ground_assumed
f 520 524 521
g ground_assumed
f 524 531 525
g ground_assumed
f 524 534 531
g ground_assumed
f 534 538 535
g ground_assumed
f 534 540 538
g ground_assumed
f 540 595 541
g ground_assumed
f 594 546 541
g ground_assumed
f 594 547 546
g ground_assumed
f 556 564 558
g ground_assumed
f 570 593 572
g ground_assumed
f 570 427 593
g ground_assumed
f 570 615 427
g ground_assumed
f 570 616 615
g ground_assumed
f 616 621 618
g ground_assumed
f 616 622 621
g ground_assumed
f 613 440 431
g ground_assumed
f 613 448 440
g ground_assumed
f 613 452 448
g ground_assumed
f 455 474 457
g ground_assumed
f 455 476 474
g ground_assumed
f 483 494 484
g ground_assumed
f 507 517 511
g ground_assumed
f 507 520 517
g ground_assumed
f 520 534 524
g ground_assumed
f 534 595 540
g ground_assumed
f 534 594 595
g ground_assumed
f 569 616 570
g ground_assumed
f 569 622 616
g ground_assumed
f 612 452 613
g ground_assumed
f 453 476 455
g ground_assumed
f 453 479 476
g ground_assumed
f 520 594 534
g ground_assumed
f 520 547 594
g ground_assumed
f 520 550 547
g ground_assumed
f 609 452 612
g ground_assumed
f 609 453 452
g ground_assumed
f 609 479 453
g ground_assumed
f 609 483 479
g ground_assumed
f 507 550 520
g ground_assumed
f 507 556 550
g ground_assumed
f 507 564 556
g ground_assumed
f 507 569 564
g ground_assumed
f 608 483 609
g ground_assumed
f 608 494 483
g ground_assumed
f 505 569 507
g ground_assumed
f 505 622 569
g ground_assumed
f 502 622 505
g ground_assumed
f 502 624 622
g ground_assumed
f 500 624 502
g ground_assumed
f 500 431 624
g ground_assumed
f 499 431 500
g ground_assumed
f 499 614 431
g ground_assumed
f 498 614 499
g ground_assumed
f 496 498 497
g ground_assumed
f 496 597 498
g ground_assumed
f 496 598 597
g ground_assumed
f 596 498 597
g ground_assumed
f 596 614 498
g ground_assumed
f 596 606 614
g ground_assumed
f 494 598 496
g ground_assumed
f 603 606 596
g ground_assumed
f 603 608 606
g ground_assumed
f 608 598 494
g ground_assumed
f 608 602 598
g ground_assumed
f 608 603 602
g ground_assumed
f 629 628 627
g ground_assumed
f 729 728 730
g ground_assumed
f 630 632 631
g ground_assumed
f 630 633 632
g ground_assumed
f 635 634 390
g ground_assumed
f 669 637 636
g ground_assumed
f 669 638 637
g ground_assumed
f 639 641 640
g ground_assumed
f 639 642 641
g ground_assumed
f 639 643 642
g ground_assumed
f 639 644 643
g ground_assumed
f 644 646 645
g ground_assumed
f 644 647 646
g ground_assumed
f 647 649 648
g ground_assumed
f 650 652 651
g ground_assumed
f 652 653 634
g ground_assumed
f 654 655 385
g ground_assumed
f 654 656 655
g ground_assumed
f 654 657 656
g ground_assumed
f 654 658 657
g ground_assumed
f 654 659 658
g ground_assumed
f 654 660 659
g ground_assumed
f 654 661 660
g ground_assumed
f 662 664 663
g ground_assumed
f 665 667 666
g ground_assumed
f 665 668 667
g ground_assumed
f 665 669 668
g ground_assumed
f 665 638 669
g ground_assumed
f 638 644 639
g ground_assumed
f 638 647 644
g ground_assumed
f 638 649 647
g ground_assumed
f 650 653 652
g ground_assumed
f 653 661 654
g ground_assumed
f 653 662 661
g ground_assumed
f 664 638 665
g ground_assumed
f 664 649 638
g ground_assumed
f 664 650 649
g ground_assumed
f 650 662 653
g ground_assumed
f 650 664 662
g ground_assumed
f 670 672 671
g ground_assumed
f 672 674 673
g ground_assumed
f 672 675 674
g ground_assumed
f 672 676 675
g ground_assumed
f 676 678 677
g ground_assumed
f 676 679 678
g ground_assumed
f 680 682 681
g ground_assumed
f 680 683 682
g ground_assumed
f 680 684 683
g ground_assumed
f 680 685 684
g ground_assumed
f 680 686 685
g ground_assumed
f 687 689 688
g ground_assumed
f 687 690 689
g ground_assumed
f 687 691 690
g ground_assumed
f 691 693 692
g ground_assumed
f 691 694 693
g ground_assumed
f 694 696 695
g ground_assumed
f 694 697 696
g ground_assumed
f 694 698 697
g ground_assumed
f 698 700 699
g ground_assumed
f 698 701 700
g ground_assumed
f 701 672 670
g ground_assumed
f 672 679 676
g ground_assumed
f 672 680 679
g ground_assumed
f 672 686 680
g ground_assumed
f 672 687 686
g ground_assumed
f 672 691 687
g ground_assumed
f 672 694 691
g ground_assumed
f 672 698 694
g ground_assumed
f 672 701 698
g ground_assumed
f 704 703 702
g ground_assumed
f 705 689 706
g ground_assumed
f 725 727 726
g ground_assumed
f 725 724 727
g ground_assumed
f 709 708 707
g ground_assumed
f 713 711 710
g ground_assumed
f 713 712 711
g ground_assumed
f 717 715 714
g ground_assumed
f 717 716 715
g ground_assumed
f 722 719 718
g ground_assumed
f 722 720 719
g ground_assumed
f 722 721 720
g ground_assumed
f 554 723 714
