v 2685875.0011508311 1245523.5473741067 478.73048516588017
v 2685882.9366650856 1245515.0450374121 478.71746312033434
v 2685889.9630961982 1245521.603039786 478.7084987924149
v 2685882.0275819506 1245530.1053764874 478.721520831286
v 2685875.0011508311 1245523.5473741067 475.93749847555563
v 2685882.9366650856 1245515.0450374121 475.93749847555563
v 2685889.9630961982 1245521.603039786 475.93749847555563
v 2685882.0275819506 1245530.1053764874 475.93749847555563
l 1 2
l 2 3
l 3 4
l 1 4
l 1 5
l 5 6
l 2 6
l 6 7
l 3 7
l 7 8
l 4 8
l 5 8
