v 2684058.75 1251789.8750000016 443.39779500420298
v 2684060.25 1251790.0000000002 443.46742530283473
v 2684061 1251790.1249999986 443.50461675509297
v 2684061 1251793.2500000014 443.6234320239476
v 2684060.5000000014 1251794.2499999984 443.63982701714332
v 2684058.75 1251794.2499999984 443.56413638340877
v 2684057.7499999986 1251794.1249999998 443.5161319807986
v 2684057.5000000019 1251793.375 443.4768033717275
v 2684057.25 1251791.2499999986 443.38519603705618
v 2684057.7499999986 1251790.1249999986 443.36404843797567
v 2684058.2500000014 1251789.8750000016 443.37616910818139
v 2684058.75 1251789.8750000016 430.86412939408046
v 2684060.25 1251790.0000000002 430.86412939408046
v 2684061 1251790.1249999986 430.86412939408046
v 2684061 1251793.2500000014 430.86412939408046
v 2684060.5000000014 1251794.2499999984 430.86412939408046
v 2684058.75 1251794.2499999984 430.86412939408046
v 2684057.7499999986 1251794.1249999998 430.86412939408046
v 2684057.5000000019 1251793.375 430.86412939408046
v 2684057.25 1251791.2499999986 430.86412939408046
v 2684057.7499999986 1251790.1249999986 430.86412939408046
v 2684058.2500000014 1251789.8750000016 430.86412939408046
l 1 2
l 2 3
l 3 4
l 4 5
l 5 6
l 6 7
l 7 8
l 8 9
l 9 10
l 10 11
l 1 11
l 12 13
l 13 14
l 3 14
l 14 15
l 4 15
l 15 16
l 5 16
l 16 17
l 17 18
l 7 18
l 18 19
l 8 19
l 19 20
l 9 20
l 20 21
l 10 21
l 21 22
l 11 22
l 12 22
