# Source coordinates; no display transform
v 0.450790488497 0.338115095828 0.0752422241985
v -0.50331077313 0.242921542473 0.0752174030717
v -0.451374286844 -0.27762491533 0.0750664384827
v 0.502726974783 -0.182431361974 0.0750912596095
v 0.450790488497 0.338115095828 -0.181462410813
v -0.50331077313 0.242921542473 -0.181462410813
v -0.451374286844 -0.27762491533 -0.181462410813
v 0.502726974783 -0.182431361974 -0.181462410813
g roof
f 1 2 3 4
g wall
f 2 1 5 6
g wall
f 3 2 6 7
g wall
f 4 3 7 8
g wall
f 1 4 8 5
g ground_assumed
f 8 7 6 5
