# Source coordinates; no display transform
v 0.416777898516 -0.274561539485 0.23220836484
v 0.431491541067 -0.267716902251 0.232315767158
v 0.442526773189 -0.229892907086 0.232567117297
v 0.470184696449 -0.0885457084853 0.23344028091
v 0.489073413185 0.0634952663485 0.234326618222
v 0.489026850659 0.155781468104 0.234808558872
v 0.416576128957 0.170215737996 0.234531207267
v -0.277137979407 0.262564022981 0.231635970011
v -0.421992860285 0.279217755527 0.231017674962
v -0.426447307129 0.273847586355 0.230967928286
v -0.437917119359 0.233245382385 0.230699947216
v -0.452568679097 0.164348905903 0.230268644921
v -0.498944590941 -0.0709607324924 0.228813417885
v -0.510150550799 -0.140058978534 0.228397838191
v -0.510150550799 -0.149185162068 0.228350156695
v -0.457302499017 -0.167670340101 0.228510896965
v 0.389663200287 -0.278333074551 0.232056636686
v 0.416777898516 -0.274561539485 -0.235054260553
v 0.431491541067 -0.267716902251 -0.235054260553
v 0.442526773189 -0.229892907086 -0.235054260553
v 0.470184696449 -0.0885457084853 -0.235054260553
v 0.489073413185 0.0634952663485 -0.235054260553
v 0.489026850659 0.155781468104 -0.235054260553
v 0.416576128957 0.170215737996 -0.235054260553
v -0.277137979407 0.262564022981 -0.235054260553
v -0.421992860285 0.279217755527 -0.235054260553
v -0.426447307129 0.273847586355 -0.235054260553
v -0.437917119359 0.233245382385 -0.235054260553
v -0.452568679097 0.164348905903 -0.235054260553
v -0.498944590941 -0.0709607324924 -0.235054260553
v -0.510150550799 -0.140058978534 -0.235054260553
v -0.510150550799 -0.149185162068 -0.235054260553
v -0.457302499017 -0.167670340101 -0.235054260553
v 0.389663200287 -0.278333074551 -0.235054260553
g roof
f 1 2 3 4 5 6 7 8 9 10 11 12 13 14 15 16 17
g wall
f 2 1 18 19
g wall
f 3 2 19 20
g wall
f 4 3 20 21
g wall
f 5 4 21 22
g wall
f 6 5 22 23
g wall
f 7 6 23 24
g wall
f 8 7 24 25
g wall
f 9 8 25 26
g wall
f 10 9 26 27
g wall
f 11 10 27 28
g wall
f 12 11 28 29
g wall
f 13 12 29 30
g wall
f 14 13 30 31
g wall
f 15 14 31 32
g wall
f 16 15 32 33
g wall
f 17 16 33 34
g wall
f 1 17 34 18
g ground_assumed
f 34 33 32 31 30 29 28 27 26 25 24 23 22 21 20 19 18
