# XYZ-only planar convex-roof baseline. Provisional base; no GT.
v 10.26560129 -6.61456162 5.41799930
v 10.61905399 -6.45013901 5.42057933
v 10.88414352 -5.54152694 5.42661729
v 11.54854512 -2.14606937 5.44759252
v 12.00229190 1.50627524 5.46888421
v 12.00117337 3.72318428 5.48046144
v 10.26075436 4.06992586 5.47379887
v -6.40372038 6.28832627 5.40424917
v -9.88343987 6.68838402 5.38939642
v -9.99044507 6.55938124 5.38820140
v -10.26597413 5.58403074 5.38176393
v -10.61793547 3.92899219 5.37140314
v -11.73198260 -1.72364119 5.33644552
v -12.00117337 -3.38352667 5.32646242
v -12.00117337 -3.60275683 5.32531701
v -10.73165180 -4.04680976 5.32917833
v 9.61424910 -6.70516184 5.41435447
v 10.26560129 -6.61456162 -5.80663362
v 10.61905399 -6.45013901 -5.80663362
v 10.88414352 -5.54152694 -5.80663362
v 11.54854512 -2.14606937 -5.80663362
v 12.00229190 1.50627524 -5.80663362
v 12.00117337 3.72318428 -5.80663362
v 10.26075436 4.06992586 -5.80663362
v -6.40372038 6.28832627 -5.80663362
v -9.88343987 6.68838402 -5.80663362
v -9.99044507 6.55938124 -5.80663362
v -10.26597413 5.58403074 -5.80663362
v -10.61793547 3.92899219 -5.80663362
v -11.73198260 -1.72364119 -5.80663362
v -12.00117337 -3.38352667 -5.80663362
v -12.00117337 -3.60275683 -5.80663362
v -10.73165180 -4.04680976 -5.80663362
v 9.61424910 -6.70516184 -5.80663362
g roof
f 1 2 3 4 5 6 7 8 9 10 11 12 13 14 15 16 17
g wall
f 2 1 18 19
g wall
f 3 2 19 20
g wall
f 4 3 20 21
g wall
f 5 4 21 22
g wall
f 6 5 22 23
g wall
f 7 6 23 24
g wall
f 8 7 24 25
g wall
f 9 8 25 26
g wall
f 10 9 26 27
g wall
f 11 10 27 28
g wall
f 12 11 28 29
g wall
f 13 12 29 30
g wall
f 14 13 30 31
g wall
f 15 14 31 32
g wall
f 16 15 32 33
g wall
f 17 16 33 34
g wall
f 1 17 34 18
g ground_assumed
f 34 33 32 31 30 29 28 27 26 25 24 23 22 21 20 19 18
