# Source coordinates; no display transform
v 2680847.5 1250258 500.069219668
v 2680848.25 1250259.625 500.06382584
v 2680849 1250261.5 500.057909269
v 2680849 1250262.25 500.056341023
v 2680848.5 1250262.75 500.05662617
v 2680842.5 1250265.25 500.067366402
v 2680841.5 1250265.625 500.069243566
v 2680839.75 1250262.625 500.080173793
v 2680839.25 1250261.375 500.084118175
v 2680839 1250260.625 500.086351739
v 2680839 1250260.25 500.087135862
v 2680840 1250259.75 500.085520075
v 2680842.25 1250258.875 500.081361801
v 2680843 1250258.625 500.079888585
v 2680847 1250257.625 500.071334433
v 2680847.5 1250258 497.509234923
v 2680848.25 1250259.625 497.509234923
v 2680849 1250261.5 497.509234923
v 2680849 1250262.25 497.509234923
v 2680848.5 1250262.75 497.509234923
v 2680842.5 1250265.25 497.509234923
v 2680841.5 1250265.625 497.509234923
v 2680839.75 1250262.625 497.509234923
v 2680839.25 1250261.375 497.509234923
v 2680839 1250260.625 497.509234923
v 2680839 1250260.25 497.509234923
v 2680840 1250259.75 497.509234923
v 2680842.25 1250258.875 497.509234923
v 2680843 1250258.625 497.509234923
v 2680847 1250257.625 497.509234923
g roof
f 1 2 3 4 5 6 7 8 9 10 11 12 13 14 15
g wall
f 2 1 16 17
g wall
f 3 2 17 18
g wall
f 4 3 18 19
g wall
f 5 4 19 20
g wall
f 6 5 20 21
g wall
f 7 6 21 22
g wall
f 8 7 22 23
g wall
f 9 8 23 24
g wall
f 10 9 24 25
g wall
f 11 10 25 26
g wall
f 12 11 26 27
g wall
f 13 12 27 28
g wall
f 14 13 28 29
g wall
f 15 14 29 30
g wall
f 1 15 30 16
g ground_assumed
f 30 29 28 27 26 25 24 23 22 21 20 19 18 17 16
