# XYZ-only planar convex-roof baseline. Provisional base; no GT.
v 8.02021312 -8.30664930 2.77091273
v 9.73883022 -4.58297893 2.75855283
v 11.45744732 -0.28643618 2.74499507
v 11.45744732 1.43218091 2.74140145
v 10.31170258 2.57792565 2.74205486
v -3.43723419 8.30664930 2.76666599
v -5.72872366 9.16595785 2.77096749
v -9.73883022 2.29148946 2.79601399
v -10.88457495 -0.57287237 2.80505250
v -11.45744732 -2.29148946 2.81017069
v -11.45744732 -3.15079801 2.81196750
v -9.16595785 -4.29654274 2.80826494
v -4.01010656 -6.30159602 2.79873630
v -2.29148946 -6.87446839 2.79536044
v 6.87446839 -9.16595785 2.77575869
v 8.02021312 -8.30664930 -3.09526534
v 9.73883022 -4.58297893 -3.09526534
v 11.45744732 -0.28643618 -3.09526534
v 11.45744732 1.43218091 -3.09526534
v 10.31170258 2.57792565 -3.09526534
v -3.43723419 8.30664930 -3.09526534
v -5.72872366 9.16595785 -3.09526534
v -9.73883022 2.29148946 -3.09526534
v -10.88457495 -0.57287237 -3.09526534
v -11.45744732 -2.29148946 -3.09526534
v -11.45744732 -3.15079801 -3.09526534
v -9.16595785 -4.29654274 -3.09526534
v -4.01010656 -6.30159602 -3.09526534
v -2.29148946 -6.87446839 -3.09526534
v 6.87446839 -9.16595785 -3.09526534
g roof
f 1 2 3 4 5 6 7 8 9 10 11 12 13 14 15
g wall
f 2 1 16 17
g wall
f 3 2 17 18
g wall
f 4 3 18 19
g wall
f 5 4 19 20
g wall
f 6 5 20 21
g wall
f 7 6 21 22
g wall
f 8 7 22 23
g wall
f 9 8 23 24
g wall
f 10 9 24 25
g wall
f 11 10 25 26
g wall
f 12 11 26 27
g wall
f 13 12 27 28
g wall
f 14 13 28 29
g wall
f 15 14 29 30
g wall
f 1 15 30 16
g ground_assumed
f 30 29 28 27 26 25 24 23 22 21 20 19 18 17 16
