v 0.54646588470887625 0.27074233237983614 0.10926665217937362
v -0.47980729189453686 0.36084926679308149 0.11194988950226205
v -0.53519778611510149 -0.27002092021533708 0.11168952512809427
v 0.49107539048831172 -0.36012785462858254 0.10900628780520584
v 0.54646588470887625 0.27074233237983614 -0.11055367547055971
v -0.47980729189453686 0.36084926679308149 -0.11055367547055971
v -0.53519778611510149 -0.27002092021533708 -0.11055367547055971
v 0.49107539048831172 -0.36012785462858254 -0.11055367547055971
l 1 2
l 2 3
l 3 4
l 1 4
l 1 5
l 5 6
l 2 6
l 6 7
l 3 7
l 7 8
l 4 8
l 5 8
