# XYZ-only planar convex-roof baseline. Provisional base; no GT.
v -2.08793789 -7.24030077 7.50179842
v 1.64288064 -8.23413634 4.74737369
v 3.98516567 -8.83464288 3.02238276
v 4.70747598 -8.99993694 2.49407548
v 5.04348106 -8.92781425 2.27560965
v 5.25288450 -8.17408569 2.26927506
v 5.42916721 -7.52544576 2.26652970
v 6.15039414 -4.84607227 2.25998411
v 8.09259943 2.41262787 2.25030004
v 8.66014001 4.55742673 2.25181122
v 9.19177402 6.69820158 2.27734296
v 9.24486003 6.97276307 2.29102743
v 9.19161925 7.03219465 2.33862213
v 8.81707651 7.18928592 2.62564133
v 8.52177588 7.27162341 2.84433159
v 8.09476620 7.37593821 3.15786047
v 1.99690255 8.14201309 7.50264703
v -7.57226361 -5.77608355 3.45864534
v -4.18977125 -6.68040306 5.95251465
v -3.75780894 8.86497774 3.40882418
v -5.05988665 8.99993694 2.48777469
v -5.25443219 8.98059073 2.35738014
v -5.41136869 8.81545143 2.27952170
v -5.78266127 7.55655448 2.25398942
v -5.92381126 7.06485106 2.24668150
v -6.50590020 4.91061125 2.23966381
v -7.36641987 1.72111674 2.23016965
v -8.67592652 -3.18895282 2.22603236
v -9.01719377 -4.53266358 2.23667083
v -9.01719377 -4.72968544 2.27267843
v -9.01703900 -5.04943969 2.33122308
v -9.01688423 -5.30775036 2.37853833
v -8.80670694 -5.40510052 2.54102154
v -2.08793789 -7.24030077 -7.51516906
v 1.64288064 -8.23413634 -7.51516906
v 3.98516567 -8.83464288 -7.51516906
v 4.70747598 -8.99993694 -7.51516906
v 5.04348106 -8.92781425 -7.51516906
v 5.25288450 -8.17408569 -7.51516906
v 5.42916721 -7.52544576 -7.51516906
v 6.15039414 -4.84607227 -7.51516906
v 8.09259943 2.41262787 -7.51516906
v 8.66014001 4.55742673 -7.51516906
v 9.19177402 6.69820158 -7.51516906
v 9.24486003 6.97276307 -7.51516906
v 9.19161925 7.03219465 -7.51516906
v 8.81707651 7.18928592 -7.51516906
v 8.52177588 7.27162341 -7.51516906
v 8.09476620 7.37593821 -7.51516906
v 1.99690255 8.14201309 -7.51516906
v -3.75780894 8.86497774 -7.51516906
v -5.05988665 8.99993694 -7.51516906
v -5.25443219 8.98059073 -7.51516906
v -5.41136869 8.81545143 -7.51516906
v -5.78266127 7.55655448 -7.51516906
v -5.92381126 7.06485106 -7.51516906
v -6.50590020 4.91061125 -7.51516906
v -7.36641987 1.72111674 -7.51516906
v -8.67592652 -3.18895282 -7.51516906
v -9.01719377 -4.53266358 -7.51516906
v -9.01719377 -4.72968544 -7.51516906
v -9.01703900 -5.04943969 -7.51516906
v -9.01688423 -5.30775036 -7.51516906
v -8.80670694 -5.40510052 -7.51516906
v -7.57226361 -5.77608355 -7.51516906
v -4.18977125 -6.68040306 -7.51516906
g roof
f 1 2 3 4 5 6 7 8 9 10 11 12 13 14 15 16 17
g roof
f 18 19 1 17 20 21 22 23 24 25 26 27 28 29 30 31 32 33
g wall
f 2 1 34 35
g wall
f 3 2 35 36
g wall
f 4 3 36 37
g wall
f 5 4 37 38
g wall
f 6 5 38 39
g wall
f 7 6 39 40
g wall
f 8 7 40 41
g wall
f 9 8 41 42
g wall
f 10 9 42 43
g wall
f 11 10 43 44
g wall
f 12 11 44 45
g wall
f 13 12 45 46
g wall
f 14 13 46 47
g wall
f 15 14 47 48
g wall
f 16 15 48 49
g wall
f 17 16 49 50
g wall
f 19 18 65 66
g wall
f 1 19 66 34
g wall
f 20 17 50 51
g wall
f 21 20 51 52
g wall
f 22 21 52 53
g wall
f 23 22 53 54
g wall
f 24 23 54 55
g wall
f 25 24 55 56
g wall
f 26 25 56 57
g wall
f 27 26 57 58
g wall
f 28 27 58 59
g wall
f 29 28 59 60
g wall
f 30 29 60 61
g wall
f 31 30 61 62
g wall
f 32 31 62 63
g wall
f 33 32 63 64
g wall
f 18 33 64 65
g ground_assumed
f 66 65 64 63 62 61 60 59 58 57 56 55 54 53 52 51 50 49 48 47 46 45 44 43 42 41 40 39 38 37 36 35 34
