# XYZ-only planar convex-roof baseline. Provisional base; no GT.
v 2.14988144 -8.08167243 9.23488485
v 6.41359997 -6.99083205 5.03028131
v 6.79132866 -6.87039805 4.65198316
v 6.94810564 -6.81864973 4.49453986
v 7.10811690 -6.75141096 4.33032901
v 7.10820201 -6.64791432 4.30499473
v 7.10820201 -6.54560925 4.28002984
v 7.07841268 -6.38398087 4.26810514
v 6.01484852 -2.22641189 4.23597663
v 5.49191813 -0.18388527 4.22058383
v 4.95690178 1.90332534 4.20545090
v 3.76362638 6.41445109 4.20686080
v 3.36589628 7.91608861 4.20780995
v 3.03080889 9.17081515 4.21114801
v 2.94246225 9.30103707 4.26097685
v 1.66458515 8.97463114 5.52100746
v -2.11243195 8.00931449 9.24541231
v -2.13585233 8.00332879 9.22229737
v -6.70851433 6.83388485 4.70908167
v -7.07236970 6.73617585 4.34881410
v -7.09552027 6.72008961 4.32346917
v -7.10581886 6.70093933 4.30925017
v -7.10820201 6.67932078 4.30174092
v -7.10581886 6.62280617 4.29007085
v -7.07245481 6.47930672 4.28568186
v -5.51915409 0.40977350 4.23138951
v -3.13924204 -8.88730585 4.14880447
v -3.09302603 -9.06765896 4.14724708
v -3.00723276 -9.35346629 4.15638204
v -2.72099986 -9.30061151 4.43389889
v -2.32386555 -9.21328622 4.82237468
v -1.94758377 -9.12247132 5.19243471
v -1.41852529 -8.99131316 5.71359730
v -0.33819400 -8.71682577 6.77944108
v 0.45598951 -8.51451367 7.56310406
v 1.62807194 -8.21517347 8.71984682
v 2.14988144 -8.08167243 -9.16194201
v 6.41359997 -6.99083205 -9.16194201
v 6.79132866 -6.87039805 -9.16194201
v 6.94810564 -6.81864973 -9.16194201
v 7.10811690 -6.75141096 -9.16194201
v 7.10820201 -6.64791432 -9.16194201
v 7.10820201 -6.54560925 -9.16194201
v 7.07841268 -6.38398087 -9.16194201
v 6.01484852 -2.22641189 -9.16194201
v 5.49191813 -0.18388527 -9.16194201
v 4.95690178 1.90332534 -9.16194201
v 3.76362638 6.41445109 -9.16194201
v 3.36589628 7.91608861 -9.16194201
v 3.03080889 9.17081515 -9.16194201
v 2.94246225 9.30103707 -9.16194201
v 1.66458515 8.97463114 -9.16194201
v -2.11243195 8.00931449 -9.16194201
v -2.13585233 8.00332879 -9.16194201
v -6.70851433 6.83388485 -9.16194201
v -7.07236970 6.73617585 -9.16194201
v -7.09552027 6.72008961 -9.16194201
v -7.10581886 6.70093933 -9.16194201
v -7.10820201 6.67932078 -9.16194201
v -7.10581886 6.62280617 -9.16194201
v -7.07245481 6.47930672 -9.16194201
v -5.51915409 0.40977350 -9.16194201
v -3.13924204 -8.88730585 -9.16194201
v -3.09302603 -9.06765896 -9.16194201
v -3.00723276 -9.35346629 -9.16194201
v -2.72099986 -9.30061151 -9.16194201
v -2.32386555 -9.21328622 -9.16194201
v -1.94758377 -9.12247132 -9.16194201
v -1.41852529 -8.99131316 -9.16194201
v -0.33819400 -8.71682577 -9.16194201
v 0.45598951 -8.51451367 -9.16194201
v 1.62807194 -8.21517347 -9.16194201
g roof
f 1 2 3 4 5 6 7 8 9 10 11 12 13 14 15 16 17
g roof
f 18 19 20 21 22 23 24 25 26 27 28 29 30 31 32 33 34 35 36 1 17
g wall
f 2 1 37 38
g wall
f 3 2 38 39
g wall
f 4 3 39 40
g wall
f 5 4 40 41
g wall
f 6 5 41 42
g wall
f 7 6 42 43
g wall
f 8 7 43 44
g wall
f 9 8 44 45
g wall
f 10 9 45 46
g wall
f 11 10 46 47
g wall
f 12 11 47 48
g wall
f 13 12 48 49
g wall
f 14 13 49 50
g wall
f 15 14 50 51
g wall
f 16 15 51 52
g wall
f 17 16 52 53
g wall
f 19 18 54 55
g wall
f 20 19 55 56
g wall
f 21 20 56 57
g wall
f 22 21 57 58
g wall
f 23 22 58 59
g wall
f 24 23 59 60
g wall
f 25 24 60 61
g wall
f 26 25 61 62
g wall
f 27 26 62 63
g wall
f 28 27 63 64
g wall
f 29 28 64 65
g wall
f 30 29 65 66
g wall
f 31 30 66 67
g wall
f 32 31 67 68
g wall
f 33 32 68 69
g wall
f 34 33 69 70
g wall
f 35 34 70 71
g wall
f 36 35 71 72
g wall
f 1 36 72 37
g wall
f 18 17 53 54
g ground_assumed
f 72 71 70 69 68 67 66 65 64 63 62 61 60 59 58 57 56 55 54 53 52 51 50 49 48 47 46 45 44 43 42 41 40 39 38 37
