# Source coordinates; no display transform
v 0.112727328513 -0.432621037747 0.494228742039
v 0.340691695078 -0.374298065792 0.269425022959
v 0.360887371913 -0.367858930486 0.249198899323
v 0.369269624326 -0.365092150055 0.240781021383
v 0.377824801051 -0.361497155802 0.232001308994
v 0.37782935155 -0.355963594941 0.230646784052
v 0.37782935155 -0.350493742672 0.22931200895
v 0.376236632496 -0.34185210486 0.228674441845
v 0.319372013425 -0.119563139886 0.226956655978
v 0.29141296916 -0.0103572240064 0.226133663119
v 0.262807735847 0.101237770187 0.225324564494
v 0.199007963704 0.342430033902 0.225399946337
v 0.177742889644 0.422716723478 0.225450693678
v 0.159827076471 0.489802047917 0.2256291667
v 0.155103526902 0.496764505053 0.228293320037
v 0.0867804324949 0.479312855618 0.29566223237
v -0.115161910708 0.427701146941 0.494791604182
v -0.116414106897 0.427381114955 0.493555738677
v -0.360896473406 0.364855517841 0.252251733503
v -0.38035039804 0.359631399472 0.232989634514
v -0.381588168543 0.358771331086 0.231634540158
v -0.382138793901 0.357747440457 0.230874305798
v -0.382266211618 0.356591581077 0.230472815548
v -0.382138793901 0.353569965747 0.229848862513
v -0.38035494854 0.345897610973 0.229614200371
v -0.297306029567 0.0213833903204 0.226711400599
v -0.170061433297 -0.475695108182 0.222295901264
v -0.167590443861 -0.485337884127 0.222212633708
v -0.163003413007 -0.500618885086 0.222701044318
v -0.147699658484 -0.497792946563 0.237538785711
v -0.126466438987 -0.493124004587 0.258309067982
v -0.106348122774 -0.488268486802 0.278094731538
v -0.0780614334865 -0.481255972572 0.305959258446
v -0.0203003415025 -0.466580204565 0.362945759889
v 0.0221615469922 -0.455763367243 0.404845156761
v 0.0848282138552 -0.439758816615 0.466691671418
v 0.112727328513 -0.432621037747 -0.489377692682
v 0.340691695078 -0.374298065792 -0.489377692682
v 0.360887371913 -0.367858930486 -0.489377692682
v 0.369269624326 -0.365092150055 -0.489377692682
v 0.377824801051 -0.361497155802 -0.489377692682
v 0.37782935155 -0.355963594941 -0.489377692682
v 0.37782935155 -0.350493742672 -0.489377692682
v 0.376236632496 -0.34185210486 -0.489377692682
v 0.319372013425 -0.119563139886 -0.489377692682
v 0.29141296916 -0.0103572240064 -0.489377692682
v 0.262807735847 0.101237770187 -0.489377692682
v 0.199007963704 0.342430033902 -0.489377692682
v 0.177742889644 0.422716723478 -0.489377692682
v 0.159827076471 0.489802047917 -0.489377692682
v 0.155103526902 0.496764505053 -0.489377692682
v 0.0867804324949 0.479312855618 -0.489377692682
v -0.115161910708 0.427701146941 -0.489377692682
v -0.116414106897 0.427381114955 -0.489377692682
v -0.360896473406 0.364855517841 -0.489377692682
v -0.38035039804 0.359631399472 -0.489377692682
v -0.381588168543 0.358771331086 -0.489377692682
v -0.382138793901 0.357747440457 -0.489377692682
v -0.382266211618 0.356591581077 -0.489377692682
v -0.382138793901 0.353569965747 -0.489377692682
v -0.38035494854 0.345897610973 -0.489377692682
v -0.297306029567 0.0213833903204 -0.489377692682
v -0.170061433297 -0.475695108182 -0.489377692682
v -0.167590443861 -0.485337884127 -0.489377692682
v -0.163003413007 -0.500618885086 -0.489377692682
v -0.147699658484 -0.497792946563 -0.489377692682
v -0.126466438987 -0.493124004587 -0.489377692682
v -0.106348122774 -0.488268486802 -0.489377692682
v -0.0780614334865 -0.481255972572 -0.489377692682
v -0.0203003415025 -0.466580204565 -0.489377692682
v 0.0221615469922 -0.455763367243 -0.489377692682
v 0.0848282138552 -0.439758816615 -0.489377692682
g roof
f 1 2 3 4 5 6 7 8 9 10 11 12 13 14 15 16 17
g roof
f 18 19 20 21 22 23 24 25 26 27 28 29 30 31 32 33 34 35 36 1 17
g wall
f 2 1 37 38
g wall
f 3 2 38 39
g wall
f 4 3 39 40
g wall
f 5 4 40 41
g wall
f 6 5 41 42
g wall
f 7 6 42 43
g wall
f 8 7 43 44
g wall
f 9 8 44 45
g wall
f 10 9 45 46
g wall
f 11 10 46 47
g wall
f 12 11 47 48
g wall
f 13 12 48 49
g wall
f 14 13 49 50
g wall
f 15 14 50 51
g wall
f 16 15 51 52
g wall
f 17 16 52 53
g wall
f 19 18 54 55
g wall
f 20 19 55 56
g wall
f 21 20 56 57
g wall
f 22 21 57 58
g wall
f 23 22 58 59
g wall
f 24 23 59 60
g wall
f 25 24 60 61
g wall
f 26 25 61 62
g wall
f 27 26 62 63
g wall
f 28 27 63 64
g wall
f 29 28 64 65
g wall
f 30 29 65 66
g wall
f 31 30 66 67
g wall
f 32 31 67 68
g wall
f 33 32 68 69
g wall
f 34 33 69 70
g wall
f 35 34 70 71
g wall
f 36 35 71 72
g wall
f 1 36 72 37
g wall
f 18 17 53 54
g ground_assumed
f 72 71 70 69 68 67 66 65 64 63 62 61 60 59 58 57 56 55 54 53 52 51 50 49 48 47 46 45 44 43 42 41 40 39 38 37
