v 0.11272732851250568 -0.43262103774728122 0.49422874203881212
v 0.340691695077595 -0.37429806579201919 0.26942502295901816
v 0.36088737191307096 -0.36785893048566021 0.24919889932287487
v 0.36926962432636246 -0.36509215005524387 0.24078102138325921
v 0.37782480105121574 -0.36149715580226588 0.23200130899371627
v 0.37782935155029351 -0.3559635949414332 0.23064678405217828
v 0.37782935155029351 -0.3504937426716711 0.22931200895031031
v 0.37623663249624073 -0.34185210486035866 0.22867444184477753
v 0.31937201342493182 -0.11956313988584275 0.22695665597798151
v 0.29141296915988157 -0.010357224006439488 0.22613366311928942
v 0.26280773584732608 0.1012377701867123 0.22532456449388749
v 0.19900796370366544 0.34243003390169385 0.22539994633679264
v 0.17774288964391752 0.42271672347760536 0.22545069367787593
v 0.15982707647102051 0.48980204791704623 0.2256291667004505
v 0.15510352690177773 0.49676450505318598 0.22829332003687469
v 0.086780432494902499 0.47931285561807685 0.29566223237013634
v -0.11516191070827574 0.42770114694086636 0.49479160418216273
v -0.11641410689661412 0.4273811149548552 0.49355573867692021
v -0.3608964734064537 0.36485551784057235 0.25225173350326818
v -0.3803503980404882 0.35963139947159828 0.23298963451358795
v -0.38158816854258337 0.35877133108617082 0.23163454015817173
v -0.3821387939014913 0.35774744045665874 0.23087430579809801
v -0.38226621161829344 0.35659158107660588 0.23047281554784246
v -0.3821387939014913 0.35356996574724614 0.22984886251327846
v -0.38035494853956586 0.34589761097253063 0.22961420037079167
v -0.2973060295669766 0.021383390320383829 0.22671140059871564
v -0.17006143329695197 -0.47569510818174937 0.22229590126429957
v -0.16759044386116106 -0.48533788412718532 0.22221263370750685
v -0.16300341300687585 -0.50061888508554586 0.2227010443179506
v -0.14769965848380498 -0.49779294656313655 0.23753878571111636
v -0.12646643898692278 -0.49312400458680905 0.25830906798235781
v -0.1063481227744114 -0.48826848680168644 0.27809473153787584
v -0.078061433486530815 -0.48125597257170916 0.3059592584457464
v -0.020300341502511917 -0.46658020456517174 0.36294575988936784
v 0.022161546992174732 -0.45576336724337202 0.40484515676072047
v 0.084828213855153767 -0.43975881661454169 0.46669167141846768
v 0.11272732851250568 -0.43262103774728122 -0.48937769268227188
v 0.340691695077595 -0.37429806579201919 -0.48937769268227188
v 0.36088737191307096 -0.36785893048566021 -0.48937769268227188
v 0.36926962432636246 -0.36509215005524387 -0.48937769268227188
v 0.37782480105121574 -0.36149715580226588 -0.48937769268227188
v 0.37782935155029351 -0.3559635949414332 -0.48937769268227188
v 0.37782935155029351 -0.3504937426716711 -0.48937769268227188
v 0.37623663249624073 -0.34185210486035866 -0.48937769268227188
v 0.31937201342493182 -0.11956313988584275 -0.48937769268227188
v 0.29141296915988157 -0.010357224006439488 -0.48937769268227188
v 0.26280773584732608 0.1012377701867123 -0.48937769268227188
v 0.19900796370366544 0.34243003390169385 -0.48937769268227188
v 0.17774288964391752 0.42271672347760536 -0.48937769268227188
v 0.15982707647102051 0.48980204791704623 -0.48937769268227188
v 0.15510352690177773 0.49676450505318598 -0.48937769268227188
v 0.086780432494902499 0.47931285561807685 -0.48937769268227188
v -0.11516191070827574 0.42770114694086636 -0.48937769268227188
v -0.11641410689661412 0.4273811149548552 -0.48937769268227188
v -0.3608964734064537 0.36485551784057235 -0.48937769268227188
v -0.3803503980404882 0.35963139947159828 -0.48937769268227188
v -0.38158816854258337 0.35877133108617082 -0.48937769268227188
v -0.3821387939014913 0.35774744045665874 -0.48937769268227188
v -0.38226621161829344 0.35659158107660588 -0.48937769268227188
v -0.3821387939014913 0.35356996574724614 -0.48937769268227188
v -0.38035494853956586 0.34589761097253063 -0.48937769268227188
v -0.2973060295669766 0.021383390320383829 -0.48937769268227188
v -0.17006143329695197 -0.47569510818174937 -0.48937769268227188
v -0.16759044386116106 -0.48533788412718532 -0.48937769268227188
v -0.16300341300687585 -0.50061888508554586 -0.48937769268227188
v -0.14769965848380498 -0.49779294656313655 -0.48937769268227188
v -0.12646643898692278 -0.49312400458680905 -0.48937769268227188
v -0.1063481227744114 -0.48826848680168644 -0.48937769268227188
v -0.078061433486530815 -0.48125597257170916 -0.48937769268227188
v -0.020300341502511917 -0.46658020456517174 -0.48937769268227188
v 0.022161546992174732 -0.45576336724337202 -0.48937769268227188
v 0.084828213855153767 -0.43975881661454169 -0.48937769268227188
l 1 2
l 2 3
l 3 4
l 4 5
l 5 6
l 6 7
l 7 8
l 8 9
l 9 10
l 10 11
l 11 12
l 12 13
l 13 14
l 14 15
l 15 16
l 16 17
l 1 17
l 18 19
l 19 20
l 20 21
l 21 22
l 22 23
l 23 24
l 24 25
l 25 26
l 26 27
l 27 28
l 28 29
l 29 30
l 30 31
l 31 32
l 32 33
l 33 34
l 34 35
l 35 36
l 1 36
l 17 18
l 37 38
l 38 39
l 39 40
l 40 41
l 5 41
l 41 42
l 42 43
l 7 43
l 43 44
l 44 45
l 45 46
l 46 47
l 47 48
l 48 49
l 49 50
l 14 50
l 50 51
l 15 51
l 51 52
l 52 53
l 54 55
l 55 56
l 20 56
l 56 57
l 21 57
l 57 58
l 22 58
l 58 59
l 59 60
l 24 60
l 60 61
l 61 62
l 62 63
l 63 64
l 64 65
l 29 65
l 65 66
l 66 67
l 67 68
l 68 69
l 69 70
l 70 71
l 71 72
l 37 72
l 53 54
