# pointcloud_to_mesh 0.4.1; candidate requires geometry validation; coordinates preserved
v -1.791656657 1.695818114 5.048464146
v -4.483217966 0.121439202 5.049003864
v -3.836037256 -0.984982223 5.051084643
v -2.073583126 -3.998077298 5.056751184
v -2.058890539 -4.023195775 5.056798423
v -2.035160243 -4.063765136 5.056874719
v 1.840940091 -1.796512071 5.056097474
v 2.755649705 -1.261469633 5.055914055
v 1.736004328 0.481718125 5.052635749
v 0.821294714 -0.053324314 5.052819169
v 0.815488365 -0.043397769 5.052800501
v 0.801245930 -0.051728617 5.052803357
v 0.807052279 -0.061655163 5.052822025
v -0.363244310 -0.746198466 5.053056696
v 1.021266362 -2.275965030 5.056261837
v 1.720699410 -1.866844629 5.056121585
v 1.734941845 -1.858513781 5.056118729
v 1.826697655 -1.804842920 5.056100330
v 0.715296469 -0.115326024 5.052840424
v 0.701054034 -0.123656872 5.052843280
v -1.791656657 1.695818114 4.086890913
v -0.363244310 -0.746198466 4.090768342
v 0.807052279 -0.061655163 4.090621640
v 0.801245930 -0.051728617 4.090605879
v 0.815488365 -0.043397769 4.090604094
v 0.821294714 -0.053324314 4.090619855
v 1.736004328 0.481718125 4.090505192
v 2.755649705 -1.261469633 4.093273022
v 3.260857792 -0.731243450 4.092919195
v 3.986250509 -0.306938422 4.092828264
v 3.395793192 -0.853780332 4.093151626
v 4.047827012 -0.505634461 4.093111042
v 4.228953725 1.917331738 4.090220650
v 3.342349476 3.433072120 4.087813961
v 2.432480160 4.129576358 4.086407282
v 2.405027946 4.150591006 4.086364841
v 4.000190354 -0.500249412 4.093075862
v 4.000190354 -0.500249412 4.015396276
v 3.986250509 -0.306938422 4.014144695
v 3.260857792 -0.731243450 4.017827115
v 3.395793192 -0.853780332 4.018464469
v -3.836037256 -0.984982223 -4.827690600
v -2.073583126 -3.998077298 -4.827690600
v -2.058890539 -4.023195775 -4.827690600
v -2.035160243 -4.063765136 -4.827690600
v 1.021266362 -2.275965030 -4.827690600
v 1.720699410 -1.866844629 -4.827690600
v 1.734941845 -1.858513781 -4.827690600
v 1.826697655 -1.804842920 -4.827690600
v 1.840940091 -1.796512071 -4.827690600
v 2.755649705 -1.261469633 -4.827690600
v 0.715296469 -0.115326024 4.090633142
v 0.701054034 -0.123656872 4.090634928
v -1.791656657 1.695818114 -4.827690600
v -4.483217966 0.121439202 -4.827690600
v 4.047827012 -0.505634461 -4.827690600
v 4.134885562 0.658964240 4.091721775
v 4.134885562 0.658964240 -4.827690600
v 4.228953725 1.917331738 -4.827690600
v 3.625295387 2.949347228 4.088582018
v 3.625295387 2.949347228 -4.827690600
v 3.342349476 3.433072120 -4.827690600
v 2.432480203 4.129576383 -4.827690600
v 2.405027946 4.150591006 -4.827690600
v 0.001163829 2.744495235 4.086666175
v 0.001163829 2.744495235 -4.827690600
v -0.109150306 2.679969026 4.086680004
v -0.109150306 2.679969026 -4.827690600
v -0.607117633 2.388692266 4.086742426
v -0.607117633 2.388692266 -4.827690600
v -0.621360068 2.380361417 4.086744212
v -0.621360068 2.380361417 -4.827690600
v -0.713115878 2.326690556 4.086755714
v -0.713115878 2.326690556 -4.827690600
v -0.727358313 2.318359708 4.086757499
v -0.727358313 2.318359708 -4.827690600
g roof
f 1 2 3
g roof
f 1 3 4
g roof
f 1 4 5
g roof
f 1 5 6
g roof
f 7 8 9
g roof
f 7 9 10
g roof
f 10 11 12
g roof
f 10 12 13
g roof
f 14 1 6
g roof
f 14 6 15
g roof
f 14 15 16
g roof
f 14 16 17
g roof
f 14 17 18
g roof
f 14 18 7
g roof
f 7 10 13
g roof
f 7 13 19
g roof
f 7 19 20
g roof
f 7 20 14
g roof
f 21 22 53 52 23
g roof
f 21 23 24
g roof
f 21 24 25
g roof
f 25 26 27
g roof
f 27 28 29
g roof
f 27 29 30
g roof
f 31 29 28
g roof
f 31 28 32
g roof
f 32 57 33 60 34
g roof
f 35 36 65 67 69 71 73 75 21
g roof
f 35 21 25
g roof
f 35 25 27
g roof
f 35 27 30
g roof
f 37 31 32
g roof
f 34 35 30
g roof
f 30 37 32
g roof
f 30 32 34
g roof
f 38 39 40
g roof
f 38 40 41
g facade_completed
f 4 3 42 43
g facade_completed
f 5 4 43 44
g facade_completed
f 6 5 44 45
g facade_completed
f 15 6 45 46
g facade_completed
f 16 15 46 47
g facade_completed
f 17 16 47 48
g facade_completed
f 18 17 48 49
g facade_completed
f 7 18 49 50
g facade_completed
f 8 7 50 51 28
g roof_step_or_fixture_side
f 9 8 28 27
g roof_step_or_fixture_side
f 10 9 27 26
g roof_step_or_fixture_side
f 11 10 26 25
g roof_step_or_fixture_side
f 12 11 25 24
g roof_step_or_fixture_side
f 13 12 24 23
g roof_step_or_fixture_side
f 19 13 23 52
g roof_step_or_fixture_side
f 20 19 52 53
g roof_step_or_fixture_side
f 14 20 53 22
g roof_step_or_fixture_side
f 1 14 22 21
g facade_completed
f 2 1 21 54 55
g facade_completed
f 3 2 55 42
g facade_completed
f 32 28 51 56
g facade_completed
f 57 32 56 58
g facade_completed
f 33 57 58 59
g facade_completed
f 60 33 59 61
g facade_completed
f 34 60 61 62
g facade_completed
f 35 34 62 63
g facade_completed
f 36 35 63 64
g facade_completed
f 65 36 64 66
g facade_completed
f 67 65 66 68
g facade_completed
f 69 67 68 70
g facade_completed
f 71 69 70 72
g facade_completed
f 73 71 72 74
g facade_completed
f 75 73 74 76
g facade_completed
f 21 75 76 54
g roof_step_or_fixture_side
f 37 30 39 38
g roof_step_or_fixture_side
f 31 37 38 41
g roof_step_or_fixture_side
f 29 31 41 40
g roof_step_or_fixture_side
f 30 29 40 39
g ground_assumed
f 54 42 55
g ground_assumed
f 54 43 42
g ground_assumed
f 54 44 43
g ground_assumed
f 54 45 44
g ground_assumed
f 54 46 45
g ground_assumed
f 54 47 46
g ground_assumed
f 54 48 47
g ground_assumed
f 54 49 48
g ground_assumed
f 54 50 49
g ground_assumed
f 54 51 50
g ground_assumed
f 54 56 51
g ground_assumed
f 54 58 56
g ground_assumed
f 54 59 58
g ground_assumed
f 54 61 59
g ground_assumed
f 54 62 61
g ground_assumed
f 54 63 62
g ground_assumed
f 63 66 64
g ground_assumed
f 63 68 66
g ground_assumed
f 63 70 68
g ground_assumed
f 63 72 70
g ground_assumed
f 63 74 72
g ground_assumed
f 63 76 74
g ground_assumed
f 63 54 76
