# XYZ-only planar convex-roof baseline. Provisional base; no GT.
v 4.41581130 -2.76919275 8.04426738
v 7.50917353 1.06346015 4.96985266
v 7.81933990 1.47908309 4.64599229
v 7.93519616 1.66408821 4.51020923
v 8.06391521 1.92034037 4.33411197
v 7.93665577 2.06985881 4.30768943
v 7.85053899 2.16245259 4.29408270
v 7.84342341 2.16947695 4.29327020
v 7.42488125 2.49451306 4.28934975
v 6.99183426 2.78689048 4.30715579
v 6.56599407 3.06302978 4.33032600
v -2.80185145 8.90948348 4.95361913
v -2.92327246 8.95892765 4.97480569
v -3.12907697 9.00326319 5.03036242
v -3.42590189 9.01260549 5.13766745
v -5.11908025 3.29479835 8.62228856
v 3.83963033 -3.47633865 8.61356530
v -7.86256361 4.13478095 8.01111378
v -7.68742797 1.23797435 6.63532898
v -7.35773936 -4.10108365 4.10222997
v -7.35764813 -4.10254326 4.10153787
v -7.26642273 -4.17689197 4.09876240
v -1.24326542 -8.87372312 4.02102639
v -0.88256017 -9.15287286 4.01742928
v -0.78604369 -9.15342021 4.05336302
v -7.89989193 9.15342021 4.90205049
v -8.03198632 9.15323776 4.89778148
v -8.06391521 9.04531811 4.96355225
v -8.06382398 8.76525612 5.13698548
v -8.06373276 8.64337898 5.21246172
v -7.90554791 4.84575663 7.56941154
v 4.41581130 -2.76919275 -8.64497870
v 7.50917353 1.06346015 -8.64497870
v 7.81933990 1.47908309 -8.64497870
v 7.93519616 1.66408821 -8.64497870
v 8.06391521 1.92034037 -8.64497870
v 7.93665577 2.06985881 -8.64497870
v 7.85053899 2.16245259 -8.64497870
v 7.84342341 2.16947695 -8.64497870
v 7.42488125 2.49451306 -8.64497870
v 6.99183426 2.78689048 -8.64497870
v 6.56599407 3.06302978 -8.64497870
v -2.80185145 8.90948348 -8.64497870
v -2.92327246 8.95892765 -8.64497870
v -3.12907697 9.00326319 -8.64497870
v -3.42590189 9.01260549 -8.64497870
v -7.89989193 9.15342021 -8.64497870
v -8.03198632 9.15323776 -8.64497870
v -8.06391521 9.04531811 -8.64497870
v -8.06382398 8.76525612 -8.64497870
v -8.06373276 8.64337898 -8.64497870
v -7.90554791 4.84575663 -8.64497870
v -7.86256361 4.13478095 -8.64497870
v -7.68742797 1.23797435 -8.64497870
v -7.35773936 -4.10108365 -8.64497870
v -7.35764813 -4.10254326 -8.64497870
v -7.26642273 -4.17689197 -8.64497870
v -1.24326542 -8.87372312 -8.64497870
v -0.88256017 -9.15287286 -8.64497870
v -0.78604369 -9.15342021 -8.64497870
v 3.83963033 -3.47633865 -8.64497870
g roof
f 1 2 3 4 5 6 7 8 9 10 11 12 13 14 15 16 17
g roof
f 18 19 20 21 22 23 24 25 17 16
g roof
f 15 26 27 28 29 30 31 18 16
g wall
f 2 1 32 33
g wall
f 3 2 33 34
g wall
f 4 3 34 35
g wall
f 5 4 35 36
g wall
f 6 5 36 37
g wall
f 7 6 37 38
g wall
f 8 7 38 39
g wall
f 9 8 39 40
g wall
f 10 9 40 41
g wall
f 11 10 41 42
g wall
f 12 11 42 43
g wall
f 13 12 43 44
g wall
f 14 13 44 45
g wall
f 15 14 45 46
g wall
f 1 17 61 32
g wall
f 19 18 53 54
g wall
f 20 19 54 55
g wall
f 21 20 55 56
g wall
f 22 21 56 57
g wall
f 23 22 57 58
g wall
f 24 23 58 59
g wall
f 25 24 59 60
g wall
f 17 25 60 61
g wall
f 26 15 46 47
g wall
f 27 26 47 48
g wall
f 28 27 48 49
g wall
f 29 28 49 50
g wall
f 30 29 50 51
g wall
f 31 30 51 52
g wall
f 18 31 52 53
g ground_assumed
f 61 60 59 58 57 56 55 54 53 52 51 50 49 48 47 46 45 44 43 42 41 40 39 38 37 36 35 34 33 32
