v 0.24069034525713484 -0.15091545749066826 0.44175399337750648
v 0.41032016028332524 0.059254627403202115 0.27316319750831497
v 0.42732866431825195 0.08204602304031812 0.25540375953346983
v 0.43368184073025795 0.092191095602511444 0.2479578629203564
v 0.44074037025844931 0.10624312160816346 0.23830126811528604
v 0.43376188094407742 0.11444222130435537 0.23685234288782497
v 0.42903951984443633 0.11951975979035925 0.23610619454779971
v 0.42864932483025459 0.11990495259963377 0.23606163971895619
v 0.40569784876549958 0.13772886429074291 0.23584665512973807
v 0.38195097550929236 0.15376188079021533 0.23682307982460768
v 0.35859929947217412 0.16890445217296013 0.23809365796715454
v -0.1551025513296721 0.48950475241331914 0.27227300409209743
v -0.16176088033713309 0.49221610814459515 0.27343480539004672
v -0.17304652306732693 0.4946473234016866 0.2764813538162102
v -0.18932342584529993 0.49515962442015454 0.28236560888784457
v -0.28217176065319871 0.1816138785947034 0.47345077459947804
v 0.20909447510173085 -0.18969301384995985 0.47297241969946835
v -0.43261536870237022 0.22767576287109428 0.43993595894852455
v -0.4230115059766999 0.0688244124023044 0.36449244351520771
v -0.40493246648104353 -0.22395197575256806 0.22558562156525261
v -0.40492746372776917 -0.22403201596638758 0.22554766907658477
v -0.39992496270231048 -0.22810905479566684 0.22539547142635655
v -0.069634817416303521 -0.4856678338668618 0.22113268420108742
v -0.049854927352644303 -0.50097548788215285 0.22093543051446407
v -0.044562280894819346 -0.50100550275669753 0.22290591868112125
v -0.43466233105143809 0.5028814407256974 0.26944514941038034
v -0.44190595312853875 0.50287143576751592 0.26921105093668013
v -0.44365682848744931 0.4969534769556922 0.27281770373699898
v -0.443651825734175 0.48159579814949344 0.28232821189507357
v -0.44364682352926782 0.47491245647239499 0.28646708076271094
v -0.43497248640016745 0.26666333177488866 0.4157144602371195
v 0.24069034525713484 -0.15091545749066826 -0.47342939446549204
v 0.41032016028332524 0.059254627403202115 -0.47342939446549204
v 0.42732866431825195 0.08204602304031812 -0.47342939446549204
v 0.43368184073025795 0.092191095602511444 -0.47342939446549204
v 0.44074037025844931 0.10624312160816346 -0.47342939446549204
v 0.43376188094407742 0.11444222130435537 -0.47342939446549204
v 0.42903951984443633 0.11951975979035925 -0.47342939446549204
v 0.42864932483025459 0.11990495259963377 -0.47342939446549204
v 0.40569784876549958 0.13772886429074291 -0.47342939446549204
v 0.38195097550929236 0.15376188079021533 -0.47342939446549204
v 0.35859929947217412 0.16890445217296013 -0.47342939446549204
v -0.1551025513296721 0.48950475241331914 -0.47342939446549204
v -0.16176088033713309 0.49221610814459515 -0.47342939446549204
v -0.17304652306732693 0.4946473234016866 -0.47342939446549204
v -0.18932342584529993 0.49515962442015454 -0.47342939446549204
v -0.43466233105143809 0.5028814407256974 -0.47342939446549204
v -0.44190595312853875 0.50287143576751592 -0.47342939446549204
v -0.44365682848744931 0.4969534769556922 -0.47342939446549204
v -0.443651825734175 0.48159579814949344 -0.47342939446549204
v -0.44364682352926782 0.47491245647239499 -0.47342939446549204
v -0.43497248640016745 0.26666333177488866 -0.47342939446549204
v -0.43261536870237022 0.22767576287109428 -0.47342939446549204
v -0.4230115059766999 0.0688244124023044 -0.47342939446549204
v -0.40493246648104353 -0.22395197575256806 -0.47342939446549204
v -0.40492746372776917 -0.22403201596638758 -0.47342939446549204
v -0.39992496270231048 -0.22810905479566684 -0.47342939446549204
v -0.069634817416303521 -0.4856678338668618 -0.47342939446549204
v -0.049854927352644303 -0.50097548788215285 -0.47342939446549204
v -0.044562280894819346 -0.50100550275669753 -0.47342939446549204
v 0.20909447510173085 -0.18969301384995985 -0.47342939446549204
l 1 2
l 2 3
l 3 4
l 4 5
l 5 6
l 6 7
l 7 8
l 8 9
l 9 10
l 10 11
l 11 12
l 12 13
l 13 14
l 14 15
l 15 16
l 16 17
l 1 17
l 18 19
l 19 20
l 20 21
l 21 22
l 22 23
l 23 24
l 24 25
l 17 25
l 16 18
l 15 26
l 26 27
l 27 28
l 28 29
l 29 30
l 30 31
l 18 31
l 32 33
l 33 34
l 34 35
l 35 36
l 5 36
l 36 37
l 37 38
l 38 39
l 39 40
l 40 41
l 41 42
l 42 43
l 43 44
l 44 45
l 14 45
l 45 46
l 32 61
l 53 54
l 54 55
l 55 56
l 21 56
l 56 57
l 57 58
l 58 59
l 24 59
l 59 60
l 25 60
l 60 61
l 46 47
l 47 48
l 27 48
l 48 49
l 28 49
l 49 50
l 50 51
l 51 52
l 52 53
