# XYZ-only planar convex-roof baseline. Provisional base; no GT.
v 14.58258669 -3.18994084 0.03749063
v 14.58258669 1.97472528 -0.05101460
v 13.97497891 2.27852917 -0.05627486
v 12.15215557 2.58233306 -0.06164324
v -2.43043111 3.18994084 -0.07335322
v -10.93694001 3.49374473 -0.07931633
v -12.75976335 3.18994084 -0.07427234
v -13.97497891 2.88613695 -0.06917429
v -14.58258669 1.97472528 -0.05360978
v -13.36737113 -2.27852917 0.01938501
v -9.72172446 -2.88613695 0.03012178
v -1.21521556 -3.18994084 0.03608490
v 12.75976335 -3.49374473 0.04253462
v 14.58258669 -3.18994084 -0.35892382
v 14.58258669 1.97472528 -0.35892382
v 13.97497891 2.27852917 -0.35892382
v 12.15215557 2.58233306 -0.35892382
v -2.43043111 3.18994084 -0.35892382
v -10.93694001 3.49374473 -0.35892382
v -12.75976335 3.18994084 -0.35892382
v -13.97497891 2.88613695 -0.35892382
v -14.58258669 1.97472528 -0.35892382
v -13.36737113 -2.27852917 -0.35892382
v -9.72172446 -2.88613695 -0.35892382
v -1.21521556 -3.18994084 -0.35892382
v 12.75976335 -3.49374473 -0.35892382
g roof
f 1 2 3 4 5 6 7 8 9 10 11 12 13
g wall
f 2 1 14 15
g wall
f 3 2 15 16
g wall
f 4 3 16 17
g wall
f 5 4 17 18
g wall
f 6 5 18 19
g wall
f 7 6 19 20
g wall
f 8 7 20 21
g wall
f 9 8 21 22
g wall
f 10 9 22 23
g wall
f 11 10 23 24
g wall
f 12 11 24 25
g wall
f 13 12 25 26
g wall
f 1 13 26 14
g ground_assumed
f 26 25 24 23 22 21 20 19 18 17 16 15 14
