# Source coordinates; no display transform
v -0.495799274433 -0.280334111494 0.216928338482
v 0.516134640831 -0.24577259929 0.216260985045
v 0.498212028437 0.278987408292 0.221110083829
v -0.513721886827 0.244425896088 0.221777436849
v -0.495799274433 -0.280334111494 -0.221116093888
v 0.516134640831 -0.24577259929 -0.221116093888
v 0.498212028437 0.278987408292 -0.221116093888
v -0.513721886827 0.244425896088 -0.221116093888
g roof
f 1 2 3 4
g wall
f 2 1 5 6
g wall
f 3 2 6 7
g wall
f 4 3 7 8
g wall
f 1 4 8 5
g ground_assumed
f 8 7 6 5
