v -0.49579927443307509 -0.28033411149446563 0.21692833848204526
v 0.51613464083136495 -0.24577259929032394 0.21626098504468838
v 0.49821202843696366 0.2789874082924762 0.22111008382881217
v -0.51372188682747633 0.24442589608833451 0.22177743684905485
v -0.49579927443307509 -0.28033411149446563 -0.22111609388843578
v 0.51613464083136495 -0.24577259929032394 -0.22111609388843578
v 0.49821202843696366 0.2789874082924762 -0.22111609388843578
v -0.51372188682747633 0.24442589608833451 -0.22111609388843578
l 1 2
l 2 3
l 3 4
l 1 4
l 1 5
l 5 6
l 2 6
l 6 7
l 3 7
l 7 8
l 4 8
l 5 8
