# Source coordinates; no display transform
v -0.503481752621 -0.0825922246944 0.0427698528636
v 0.487135373159 -0.149499194131 0.0430261762558
v 0.502115704974 0.0722979253763 0.0309920798824
v -0.488501421154 0.139204894813 0.0307357564902
v -0.503481752621 -0.0825922246944 -0.0440435187605
v 0.487135373159 -0.149499194131 -0.0440435187605
v 0.502115704974 0.0722979253763 -0.0440435187605
v -0.488501421154 0.139204894813 -0.0440435187605
g roof
f 1 2 3 4
g wall
f 2 1 5 6
g wall
f 3 2 6 7
g wall
f 4 3 7 8
g wall
f 1 4 8 5
g ground_assumed
f 8 7 6 5
