# pointcloud_to_mesh 0.5.1; candidate requires geometry validation; coordinates preserved
v -1.346600220 -10.647776118 2.851286105
v 9.760533108 -4.221506121 2.839589424
v 5.400082407 3.315075338 3.721976130
v -5.662029672 -3.189009163 3.724562251
v 3.532827352 6.542429753 3.341555532
v 1.196309906 10.672310006 2.857466598
v -9.950466406 4.223103711 2.850847109
v -5.662029672 -3.189009163 -2.995519138
v -1.346600220 -10.647776118 -2.995519138
v 9.760533108 -4.221506121 -2.995519138
v 5.400082407 3.315075338 -2.995519138
v 1.196309906 10.672310006 -2.995519138
v -9.950466406 4.223103711 -2.995519138
v 3.532827352 6.542429753 -2.995519138
g roof
f 1 2 3
g roof
f 1 3 4
g roof
f 5 6 7
g roof
f 5 7 4
g roof
f 5 4 3
g facade_completed
f 1 4 8 9
g facade_completed
f 2 1 9 10
g facade_completed
f 3 2 10 11
g facade_completed
f 7 6 12 13
g facade_completed
f 4 7 13 8
g facade_completed
f 5 3 11 14
g facade_completed
f 6 5 14 12
g ground_assumed
f 14 13 12
g ground_assumed
f 14 8 13
g ground_assumed
f 14 9 8
g ground_assumed
f 9 11 10
g ground_assumed
f 9 14 11
