# pointcloud_to_mesh 0.5.1; candidate requires geometry validation; coordinates preserved
v -2.141324929 2.859248306 1.639409062
v -2.332715366 2.861161609 1.585468219
v -2.390472307 -2.916349705 1.596555552
v -0.423383138 0.123103230 2.136465252
v -0.423401990 0.123121428 2.136459854
v -0.423365817 0.123120867 2.136470049
v 0.040476770 -0.323927115 2.269293182
v 0.040475880 -0.323895799 2.269292783
v 0.027969379 0.116483841 2.263682921
v 0.015102261 0.569561526 2.257911303
v 2.371228524 -2.569932049 1.650556648
v 2.425046901 2.813598951 1.522956432
v 2.221057094 2.815638207 1.581165116
v 0.015102209 0.569563361 2.257920673
v 0.040491773 -0.323911115 2.269296940
v 0.447646075 0.110288030 2.143978359
v 0.447622874 0.110312665 2.143984471
v 0.447668546 0.110311994 2.143971443
v 0.115322542 -2.959400671 1.564775621
v 2.367110026 -2.981911463 1.540542334
v -2.390652241 -2.934348805 1.591744422
v -0.049329461 2.838334932 1.611481663
v 0.040476732 -0.323927105 -2.070324500
v 0.040475845 -0.323895794 -2.070324500
v 0.015102294 0.569561490 -2.070324500
v -2.141324929 2.859248306 -2.070324500
v -2.332715366 2.861161609 -2.070324500
v -2.341608124 1.971606057 1.587175321
v -2.341608124 1.971606057 -2.070324500
v -2.359802490 0.151596998 1.590668009
v -2.359802490 0.151596998 -2.070324500
v -2.380003124 -1.869102033 1.594545832
v -2.380003124 -1.869102033 -2.070324500
v -2.390472307 -2.916349705 -2.070324500
v -0.423365793 0.123120867 -2.070324500
v -0.423383171 0.123103239 -2.070324500
v -0.423401990 0.123121428 -2.070324500
v 2.397735859 0.081635460 1.587709311
v 2.377537224 -1.938863582 1.635599091
v 2.377537224 -1.938863582 -2.070324500
v 2.397735859 0.081635460 -2.070324500
v 2.419039092 2.212628980 1.537200596
v 2.419039092 2.212628980 -2.070324500
v 2.425046901 2.813598951 -2.070324500
v 2.221057094 2.815638207 -2.070324500
v 0.015102213 0.569563391 -2.070324500
v 0.040491792 -0.323911154 -2.070324500
v 2.371228524 -2.569932049 -2.070324500
v 0.447668585 0.110311958 -2.070324500
v 0.447646044 0.110287982 -2.070324500
v 0.447622890 0.110312714 -2.070324500
v 2.367110026 -2.981911463 -2.070324500
v -2.390652241 -2.934348805 -2.070324500
v 0.115322542 -2.959400671 -2.070324500
v -0.049329461 2.838334932 -2.070324500
g roof
f 1 2 28 30 32 3
g roof
f 3 4 5
g roof
f 6 4 3
g roof
f 6 3 7
g roof
f 6 7 8
g roof
f 6 8 9
g roof
f 6 9 10
g roof
f 1 3 5
g roof
f 10 1 5
g roof
f 6 10 5
g roof
f 11 39 38 42 12 13
g roof
f 13 14 10
g roof
f 13 10 9
g roof
f 13 9 8
g roof
f 13 8 15
g roof
f 15 11 16
g roof
f 15 16 17
g roof
f 18 16 11
g roof
f 18 11 13
g roof
f 13 15 17
g roof
f 13 17 18
g roof
f 19 20 11
g roof
f 19 11 15
g roof
f 19 15 7
g roof
f 19 7 3
g roof
f 19 3 21
g roof
f 10 13 22
g roof
f 10 22 1
g facade_completed
f 8 7 23 24
g facade_completed
f 2 1 26 27
g facade_completed
f 28 2 27 29
g facade_completed
f 30 28 29 31
g facade_completed
f 32 30 31 33
g facade_completed
f 3 32 33 34
g facade_completed
f 4 6 35 36
g facade_completed
f 5 4 36 37
g facade_completed
f 6 5 37 35
g facade_completed
f 38 39 40 41
g facade_completed
f 42 38 41 43
g facade_completed
f 12 42 43 44
g facade_completed
f 13 12 44 45
g facade_completed
f 10 14 46 25
g facade_completed
f 15 8 24 47
g facade_completed
f 39 11 48 40
g facade_completed
f 16 18 49 50
g facade_completed
f 17 16 50 51
g facade_completed
f 18 17 51 49
g facade_completed
f 11 20 52 48
g facade_completed
f 7 15 47 23
g facade_completed
f 21 3 34 53
g facade_completed
f 19 21 53 54
g facade_completed
f 20 19 54 52
g facade_completed
f 22 13 45 55
g facade_completed
f 1 22 55 26
g facade_completed
f 14 10 25 46
g ground_assumed
f 34 54 53
g ground_assumed
f 34 52 54
g ground_assumed
f 34 48 52
g ground_assumed
f 34 40 48
g ground_assumed
f 34 41 40
g ground_assumed
f 34 23 47 50 49 43 41
g ground_assumed
f 34 44 43 49 50 47 23
g ground_assumed
f 34 45 44
g ground_assumed
f 34 55 45
g ground_assumed
f 34 26 55
g ground_assumed
f 26 29 27
g ground_assumed
f 26 31 29
g ground_assumed
f 26 33 31
g ground_assumed
f 26 34 33
