v 2680847.4999999995 1250258.0000000016 500.0734509773954
v 2680847.7500000014 1250258.3750000021 500.07224458738375
v 2680848.2500000009 1250259.6249999984 500.06895426023118
v 2680849.0000000023 1250261.5000000012 500.06401877168435
v 2680849.0000000023 1250262.2499999981 500.06270245317245
v 2680848.4999999986 1250262.7500000019 500.06292136755462
v 2680844.9999999986 1250264.2499999998 500.06796396983856
v 2680842.5000000019 1250265.2499999984 500.071691191865
v 2680841.4999999991 1250265.6249999991 500.07322595344988
v 2680839.7499999991 1250262.6249999986 500.08232884933329
v 2680839.2499999995 1250261.3749999981 500.08561917648586
v 2680838.9999999977 1250260.6250000014 500.08748372793542
v 2680838.9999999977 1250260.2500000007 500.08814188500941
v 2680840.0000000009 1250259.7500000014 500.08682650475185
v 2680841.7500000009 1250259.0000000002 500.08430520579191
v 2680843.0000000014 1250258.6249999995 500.08222220690533
v 2680847.0000000005 1250257.6250000009 500.0752056003447
v 2680847.4999999995 1250258.0000000016 497.50923492282482
v 2680847.7500000014 1250258.3750000021 497.50923492282482
v 2680848.2500000009 1250259.6249999984 497.50923492282482
v 2680849.0000000023 1250261.5000000012 497.50923492282482
v 2680849.0000000023 1250262.2499999981 497.50923492282482
v 2680848.4999999986 1250262.7500000019 497.50923492282482
v 2680844.9999999986 1250264.2499999998 497.50923492282482
v 2680842.5000000019 1250265.2499999984 497.50923492282482
v 2680841.4999999991 1250265.6249999991 497.50923492282482
v 2680839.7499999991 1250262.6249999986 497.50923492282482
v 2680839.2499999995 1250261.3749999981 497.50923492282482
v 2680838.9999999977 1250260.6250000014 497.50923492282482
v 2680838.9999999977 1250260.2500000007 497.50923492282482
v 2680840.0000000009 1250259.7500000014 497.50923492282482
v 2680841.7500000009 1250259.0000000002 497.50923492282482
v 2680843.0000000014 1250258.6249999995 497.50923492282482
v 2680847.0000000005 1250257.6250000009 497.50923492282482
l 1 2
l 2 3
l 3 4
l 4 5
l 5 6
l 6 7
l 7 8
l 8 9
l 9 10
l 10 11
l 11 12
l 12 13
l 13 14
l 14 15
l 15 16
l 16 17
l 1 17
l 1 18
l 18 19
l 2 19
l 19 20
l 20 21
l 4 21
l 21 22
l 5 22
l 22 23
l 6 23
l 23 24
l 24 25
l 25 26
l 9 26
l 26 27
l 27 28
l 28 29
l 12 29
l 29 30
l 13 30
l 30 31
l 31 32
l 32 33
l 33 34
l 17 34
l 18 34
