# pointcloud_to_mesh 0.5.1; candidate requires geometry validation; coordinates preserved
v 9.365314919 -5.388798809 1.462362480
v -7.710995495 1.764732434 1.684055814
v -7.923312306 1.166385059 1.674237134
v -9.057147126 1.568713544 1.687627859
v -7.594003731 3.636257133 1.717676246
v 6.653628046 -1.996162288 1.538856378
v 9.461147660 -2.653785329 1.511894353
v 10.384176595 -2.422966533 1.511209098
v 10.845689542 -1.961429265 1.517199448
v 10.855673196 -0.580462529 1.542413374
v 11.801116710 2.083969193 1.586135804
v 9.880448965 2.765496457 1.608819120
v 8.143411746 3.303662221 1.627902899
v 7.153582925 4.038263368 1.646607298
v 6.650983168 3.691790448 1.642940727
v 5.348548024 4.153944854 1.658322642
v 4.327011069 4.568631302 1.671342301
v 2.096767970 5.479062106 1.699860027
v 1.615299875 5.884406359 1.709836792
v 0.760302064 6.076166085 1.717892030
v -0.760305104 6.615736370 1.735850582
v -3.815026556 7.573081835 1.769611076
v -7.191079388 8.547676767 1.805395943
v -8.616054460 9.042171645 1.822021218
v -9.342125116 6.995972524 1.788443778
v -9.461181101 5.653602765 1.764516067
v -9.922694048 5.192065497 1.758525717
v -10.018535910 4.533819238 1.746991704
v -10.288304332 3.773562775 1.734516151
v -10.384176595 2.422966533 1.710314637
v -11.307245050 1.961480947 1.706779680
v -11.366739602 0.597976485 1.682148542
v -12.037666074 -1.292816301 1.651121267
v -8.500546260 -2.547923332 1.609347460
v -8.076563218 -3.115270915 1.596712274
v -7.210998055 -3.277249924 1.589145729
v -6.173008136 -3.645568927 1.576886944
v -4.903433319 -3.969475263 1.564209245
v -3.865443400 -4.337794267 1.551950460
v 0.652366726 -5.996807589 1.497571447
v 1.220647616 -6.157497599 1.491609376
v 2.933038830 -6.765120288 1.471385831
v 3.461424626 -7.038241929 1.463578795
v 4.384453560 -6.807423133 1.462893540
v 4.845939147 -7.730491589 1.443550436
v 5.275804762 -7.588996703 1.443853387
v 6.723656507 -8.102750548 1.426754085
v 7.615111072 -7.961213102 1.424603189
v 8.076596659 -8.884281557 1.405260085
v 8.076599699 -6.576625619 1.447482363
v 9.095513056 -6.149149514 1.449885380
v 6.383826183 -2.756512993 1.526379278
v 5.345836264 -2.388193989 1.538638063
v 5.615638127 -1.627843284 1.551115163
v -8.655083129 4.012769178 1.730207720
v -8.903750290 3.311979906 1.718708004
v 9.461147660 -2.653785329 -2.734098902
v 10.384176595 -2.422966533 -2.734098902
v 10.845689542 -1.961429265 -2.734098902
v 10.855673196 -0.580462529 -2.734098902
v 11.801116710 2.083969193 -2.734098902
v 9.880448965 2.765496457 -2.734098902
v 8.143411746 3.303662221 -2.734098902
v 7.153582925 4.038263368 -2.734098902
v 6.650983168 3.691790448 -2.734098902
v 5.348548024 4.153944854 -2.734098902
v 4.327011069 4.568631302 -2.734098902
v 2.096767970 5.479062106 -2.734098902
v 1.615299875 5.884406359 -2.734098902
v 0.760302064 6.076166085 -2.734098902
v -0.760305104 6.615736370 -2.734098902
v -3.815026556 7.573081835 -2.734098902
v -7.191079388 8.547676767 -2.734098902
v -8.616054460 9.042171645 -2.734098902
v -9.342125116 6.995972524 -2.734098902
v -9.461181101 5.653602765 -2.734098902
v -9.922694048 5.192065497 -2.734098902
v -10.018535910 4.533819238 -2.734098902
v -10.288304332 3.773562775 -2.734098902
v -10.384176595 2.422966533 -2.734098902
v -11.307245050 1.961480947 -2.734098902
v -11.366739602 0.597976485 -2.734098902
v -12.037666074 -1.292816301 -2.734098902
v -8.500546260 -2.547923332 -2.734098902
v -8.076563218 -3.115270915 -2.734098902
v -7.210998055 -3.277249924 -2.734098902
v -6.173008136 -3.645568927 -2.734098902
v -4.903433319 -3.969475263 -2.734098902
v -3.865443400 -4.337794267 -2.734098902
v 0.652366726 -5.996807589 -2.734098902
v 1.220647616 -6.157497599 -2.734098902
v 2.933038830 -6.765120288 -2.734098902
v 3.461424626 -7.038241929 -2.734098902
v 4.384453560 -6.807423133 -2.734098902
v 4.845939147 -7.730491589 -2.734098902
v 5.275804762 -7.588996703 -2.734098902
v 6.723656507 -8.102750548 -2.734098902
v 7.615111072 -7.961213102 -2.734098902
v 8.076596659 -8.884281557 -2.734098902
v 8.076599699 -6.576625619 -2.734098902
v 9.095513056 -6.149149514 -2.734098902
v 9.365314919 -5.388798809 -2.734098902
v -7.594003731 3.636257133 -2.734098902
v -7.710995495 1.764732434 -2.734098902
v -7.923312306 1.166385059 -2.734098902
v -9.057147126 1.568713544 -2.734098902
v -8.903750290 3.311979906 -2.734098902
v -8.655083129 4.012769178 -2.734098902
v 6.653628046 -1.996162288 -2.734098902
v 6.383826183 -2.756512993 -2.734098902
v 5.345836264 -2.388193989 -2.734098902
v 5.615638127 -1.627843284 -2.734098902
g roof
f 1 2 3
g roof
f 1 3 4
g roof
f 5 2 1
g roof
f 6 1 7
g roof
f 6 7 8
g roof
f 6 8 9
g roof
f 6 9 10
g roof
f 6 10 11
g roof
f 6 11 12
g roof
f 6 12 13
g roof
f 6 13 14
g roof
f 6 14 15
g roof
f 6 15 16
g roof
f 6 16 17
g roof
f 6 17 18
g roof
f 6 18 19
g roof
f 6 19 20
g roof
f 6 20 21
g roof
f 6 21 22
g roof
f 6 22 23
g roof
f 6 23 24
g roof
f 6 24 25
g roof
f 6 25 26
g roof
f 6 26 27
g roof
f 28 29 30
g roof
f 30 31 32
g roof
f 30 32 33
g roof
f 30 33 34
g roof
f 30 34 35
g roof
f 30 35 36
g roof
f 30 36 37
g roof
f 30 37 38
g roof
f 30 38 39
g roof
f 30 39 40
g roof
f 30 40 41
g roof
f 30 41 42
g roof
f 30 42 43
g roof
f 44 45 46
g roof
f 44 46 47
g roof
f 44 47 48
g roof
f 48 49 50
g roof
f 50 51 1
g roof
f 50 1 4
g roof
f 1 6 52
g roof
f 1 52 53
g roof
f 54 6 27
g roof
f 44 48 50
g roof
f 44 50 4
g roof
f 5 1 53
g roof
f 5 53 54
g roof
f 5 54 27
g roof
f 5 27 28
g roof
f 43 44 4
g roof
f 55 5 28
g roof
f 55 28 30
g roof
f 30 43 4
g roof
f 30 4 56
g roof
f 30 56 55
g facade_completed
f 8 7 57 58
g facade_completed
f 9 8 58 59
g facade_completed
f 10 9 59 60
g facade_completed
f 11 10 60 61
g facade_completed
f 12 11 61 62
g facade_completed
f 13 12 62 63
g facade_completed
f 14 13 63 64
g facade_completed
f 15 14 64 65
g facade_completed
f 16 15 65 66
g facade_completed
f 17 16 66 67
g facade_completed
f 18 17 67 68
g facade_completed
f 19 18 68 69
g facade_completed
f 20 19 69 70
g facade_completed
f 21 20 70 71
g facade_completed
f 22 21 71 72
g facade_completed
f 23 22 72 73
g facade_completed
f 24 23 73 74
g facade_completed
f 25 24 74 75
g facade_completed
f 26 25 75 76
g facade_completed
f 27 26 76 77
g facade_completed
f 28 27 77 78
g facade_completed
f 29 28 78 79
g facade_completed
f 30 29 79 80
g facade_completed
f 31 30 80 81
g facade_completed
f 32 31 81 82
g facade_completed
f 33 32 82 83
g facade_completed
f 34 33 83 84
g facade_completed
f 35 34 84 85
g facade_completed
f 36 35 85 86
g facade_completed
f 37 36 86 87
g facade_completed
f 38 37 87 88
g facade_completed
f 39 38 88 89
g facade_completed
f 40 39 89 90
g facade_completed
f 41 40 90 91
g facade_completed
f 42 41 91 92
g facade_completed
f 43 42 92 93
g facade_completed
f 44 43 93 94
g facade_completed
f 45 44 94 95
g facade_completed
f 46 45 95 96
g facade_completed
f 47 46 96 97
g facade_completed
f 48 47 97 98
g facade_completed
f 49 48 98 99
g facade_completed
f 50 49 99 100
g facade_completed
f 51 50 100 101
g facade_completed
f 1 51 101 102
g facade_completed
f 7 1 102 57
g facade_completed
f 2 5 103 104
g facade_completed
f 3 2 104 105
g facade_completed
f 4 3 105 106
g facade_completed
f 56 4 106 107
g facade_completed
f 55 56 107 108
g facade_completed
f 5 55 108 103
g facade_completed
f 52 6 109 110
g facade_completed
f 53 52 110 111
g facade_completed
f 54 53 111 112
g facade_completed
f 6 54 112 109
g ground_assumed
f 102 105 104
g ground_assumed
f 102 106 105
g ground_assumed
f 103 102 104
g ground_assumed
f 109 57 102
g ground_assumed
f 109 58 57
g ground_assumed
f 109 59 58
g ground_assumed
f 109 60 59
g ground_assumed
f 109 61 60
g ground_assumed
f 109 62 61
g ground_assumed
f 109 63 62
g ground_assumed
f 109 64 63
g ground_assumed
f 109 65 64
g ground_assumed
f 109 66 65
g ground_assumed
f 109 67 66
g ground_assumed
f 109 68 67
g ground_assumed
f 109 69 68
g ground_assumed
f 109 70 69
g ground_assumed
f 109 71 70
g ground_assumed
f 109 72 71
g ground_assumed
f 109 73 72
g ground_assumed
f 109 74 73
g ground_assumed
f 109 75 74
g ground_assumed
f 109 76 75
g ground_assumed
f 109 77 76
g ground_assumed
f 78 80 79
g ground_assumed
f 80 82 81
g ground_assumed
f 80 83 82
g ground_assumed
f 80 84 83
g ground_assumed
f 80 85 84
g ground_assumed
f 80 86 85
g ground_assumed
f 80 87 86
g ground_assumed
f 80 88 87
g ground_assumed
f 80 89 88
g ground_assumed
f 80 90 89
g ground_assumed
f 80 91 90
g ground_assumed
f 80 92 91
g ground_assumed
f 80 93 92
g ground_assumed
f 94 96 95
g ground_assumed
f 94 97 96
g ground_assumed
f 94 98 97
g ground_assumed
f 98 100 99
g ground_assumed
f 100 102 101
g ground_assumed
f 100 106 102
g ground_assumed
f 102 110 109
g ground_assumed
f 102 111 110
g ground_assumed
f 112 77 109
g ground_assumed
f 94 100 98
g ground_assumed
f 94 106 100
g ground_assumed
f 103 111 102
g ground_assumed
f 103 112 111
g ground_assumed
f 103 77 112
g ground_assumed
f 103 78 77
g ground_assumed
f 93 106 94
g ground_assumed
f 108 78 103
g ground_assumed
f 108 80 78
g ground_assumed
f 80 106 93
g ground_assumed
f 80 107 106
g ground_assumed
f 80 108 107
