# Source coordinates; no display transform
v 2684246.98709 1252133.62457 430.898553756
v 2684247.00951 1252132.97447 430.933493265
v 2684264.77716 1252133.58714 430.950004945
v 2684264.71986 1252135.24893 430.860692594
v 2684265.00001 1252135.74999 430.834590132
v 2684264.80163 1252136.25175 430.807119697
v 2684264.6983 1252139.2482 430.646077008
v 2684260.49308 1252136.63771 430.774439215
v 2684260.50815 1252136.20072 430.797924837
v 2684259.7569 1252136.17482 430.797226691
v 2684259.74183 1252136.6118 430.773741069
v 2684263.99999 1252140.12497 430.597098072
v 2684263.25001 1252139.74999 430.615131322
v 2684262.99894 1252140.03012 430.599404743
v 2684261.25106 1252139.96985 430.597780425
v 2684260.49613 1252139.86195 430.601470816
v 2684260.00138 1252139.95912 430.594882895
v 2684258.74857 1252139.91592 430.59371864
v 2684258.2448 1252139.77568 430.599842103
v 2684256.75517 1252139.72431 430.598457777
v 2684255.74511 1252139.64211 430.600060867
v 2684254.75493 1252139.60796 430.599140677
v 2684252.75122 1252139.71556 430.587799469
v 2684246.99052 1252139.40056 430.588688171
v 2684246.99082 1252139.39193 430.589151922
v 2684247.02586 1252137.50092 430.690699879
v 2684246.69402 1252137.24806 430.703343008
v 2684246.80596 1252134.00194 430.877805001
v 2684264.80163 1252136.25175 426.066395996
v 2684264.6983 1252139.2482 426.066395996
v 2684263.99999 1252140.12497 426.066395996
v 2684263.25001 1252139.74999 426.066395996
v 2684262.99894 1252140.03012 426.066395996
v 2684261.25106 1252139.96985 426.066395996
v 2684260.49613 1252139.86195 426.066395996
v 2684260.00138 1252139.95912 426.066395996
v 2684258.74857 1252139.91592 426.066395996
v 2684258.2448 1252139.77568 426.066395996
v 2684256.75517 1252139.72431 426.066395996
v 2684255.74511 1252139.64211 426.066395996
v 2684254.75493 1252139.60796 426.066395996
v 2684252.75122 1252139.71556 426.066395996
v 2684246.99052 1252139.40056 426.066395996
v 2684246.99082 1252139.39193 426.066395996
v 2684247.02586 1252137.50092 426.066395996
v 2684246.69402 1252137.24806 426.066395996
v 2684246.80596 1252134.00194 426.066395996
v 2684246.98709 1252133.62457 426.066395996
v 2684247.00951 1252132.97447 426.066395996
v 2684250.50101 1252133.09486 430.936737955
v 2684250.50101 1252133.09486 426.066395996
v 2684252.49439 1252133.1636 430.938590427
v 2684252.49439 1252133.1636 426.066395996
v 2684253.0067 1252133.18126 430.939066528
v 2684253.0067 1252133.18126 426.066395996
v 2684254.74602 1252133.24124 430.940682891
v 2684254.74602 1252133.24124 426.066395996
v 2684259.00383 1252133.38806 430.944639726
v 2684259.00383 1252133.38806 426.066395996
v 2684259.74433 1252133.4136 430.94532788
v 2684259.74433 1252133.4136 426.066395996
v 2684261.5009 1252133.47417 430.94696028
v 2684261.5009 1252133.47417 426.066395996
v 2684262.4954 1252133.50846 430.947884479
v 2684262.4954 1252133.50846 426.066395996
v 2684262.75372 1252133.51737 430.948124534
v 2684262.75372 1252133.51737 426.066395996
v 2684264.77716 1252133.58714 426.066395996
v 2684264.71986 1252135.24893 426.066395996
v 2684265.00001 1252135.74999 426.066395996
v 2684259.7569 1252136.17482 426.066395996
v 2684259.74183 1252136.6118 426.066395996
v 2684260.49308 1252136.63771 426.066395996
v 2684260.50815 1252136.20072 426.066395996
g roof
f 1 2 50 52 54 56 58 60 62 64 66 3
g roof
f 1 3 4
g roof
f 1 4 5
g roof
f 1 5 6
g roof
f 6 7 8
g roof
f 6 8 9
g roof
f 6 9 10
g roof
f 11 8 7
g roof
f 11 7 12
g roof
f 11 12 13
g roof
f 11 13 14
g roof
f 11 14 15
g roof
f 11 15 16
g roof
f 11 16 17
g roof
f 11 17 18
g roof
f 11 18 19
g roof
f 11 19 20
g roof
f 11 20 21
g roof
f 11 21 22
g roof
f 11 22 23
g roof
f 11 23 24
g roof
f 11 24 25
g roof
f 11 25 26
g roof
f 11 26 27
g roof
f 11 27 28
g roof
f 11 28 1
g roof
f 1 6 10
g roof
f 1 10 11
g facade_completed
f 7 6 29 30
g facade_completed
f 12 7 30 31
g facade_completed
f 13 12 31 32
g facade_completed
f 14 13 32 33
g facade_completed
f 15 14 33 34
g facade_completed
f 16 15 34 35
g facade_completed
f 17 16 35 36
g facade_completed
f 18 17 36 37
g facade_completed
f 19 18 37 38
g facade_completed
f 20 19 38 39
g facade_completed
f 21 20 39 40
g facade_completed
f 22 21 40 41
g facade_completed
f 23 22 41 42
g facade_completed
f 24 23 42 43
g facade_completed
f 25 24 43 44
g facade_completed
f 26 25 44 45
g facade_completed
f 27 26 45 46
g facade_completed
f 28 27 46 47
g facade_completed
f 1 28 47 48
g facade_completed
f 2 1 48 49
g facade_completed
f 50 2 49 51
g facade_completed
f 52 50 51 53
g facade_completed
f 54 52 53 55
g facade_completed
f 56 54 55 57
g facade_completed
f 58 56 57 59
g facade_completed
f 60 58 59 61
g facade_completed
f 62 60 61 63
g facade_completed
f 64 62 63 65
g facade_completed
f 66 64 65 67
g facade_completed
f 3 66 67 68
g facade_completed
f 4 3 68 69
g facade_completed
f 5 4 69 70
g facade_completed
f 6 5 70 29
g facade_completed
f 11 10 71 72
g facade_completed
f 8 11 72 73
g facade_completed
f 9 8 73 74
g facade_completed
f 10 9 74 71
g ground_assumed
f 48 68 67 65 63 61 59 57 55 53 51 49
g ground_assumed
f 48 69 68
g ground_assumed
f 48 70 69
g ground_assumed
f 48 29 70
g ground_assumed
f 29 73 30
g ground_assumed
f 29 74 73
g ground_assumed
f 29 71 74
g ground_assumed
f 72 30 73
g ground_assumed
f 72 31 30
g ground_assumed
f 72 32 31
g ground_assumed
f 72 33 32
g ground_assumed
f 72 34 33
g ground_assumed
f 72 35 34
g ground_assumed
f 72 36 35
g ground_assumed
f 72 37 36
g ground_assumed
f 72 38 37
g ground_assumed
f 72 39 38
g ground_assumed
f 72 40 39
g ground_assumed
f 72 41 40
g ground_assumed
f 72 42 41
g ground_assumed
f 72 43 42
g ground_assumed
f 72 44 43
g ground_assumed
f 72 45 44
g ground_assumed
f 72 46 45
g ground_assumed
f 72 47 46
g ground_assumed
f 72 48 47
g ground_assumed
f 48 71 29
g ground_assumed
f 48 72 71
