# pointcloud_to_mesh 0.5.1; candidate requires geometry validation; coordinates preserved
v 4.967546121 -6.838853806 1.094365121
v 4.919077945 6.849560386 1.094458274
v 4.830178502 6.849245609 1.124479453
v 3.954231058 -0.059272049 1.428495197
v 3.954170897 -0.059272347 1.428515513
v 2.722685248 -0.065092737 1.844387693
v 2.722658826 -0.065115031 1.844396641
v 2.722636319 -0.065092988 1.844404216
v 0.881572432 2.845334336 2.462660132
v 0.881558828 2.845320556 2.462664742
v 0.552445436 2.511597501 2.574201111
v 0.552432250 2.511584131 2.574205580
v 0.328386728 2.284400569 2.650134499
v 0.328386132 2.284381368 2.650134723
v 0.209909258 -1.261250877 2.694359075
v 0.434567992 -1.473043481 2.618744981
v 0.475900703 -0.075711806 2.603125876
v 0.579259641 -0.075223297 2.568221607
v 0.434565469 -1.473128800 2.618745934
v 0.418889687 -2.003078702 2.624669612
v 0.409478593 -2.321237371 2.628225943
v 0.406379809 -2.425997800 2.629396934
v 0.406389543 -2.426007266 2.629393658
v 3.954194974 -0.059295108 1.428507410
v -4.905802167 -5.713006254 1.238916044
v -1.118300908 -3.296138874 2.336383474
v -2.955237018 -1.045214465 1.726620164
v -4.915292561 -3.032723056 1.175352789
v 0.328376800 2.284390435 2.650139491
v -4.290564323 6.816950723 1.142422035
v -4.453963299 6.816372157 1.092728191
v -4.440886434 3.123195308 1.180312347
v -1.540717043 0.389117644 2.124455173
v -1.040049656 -0.082876690 2.287446178
v -2.010716139 -0.087464382 1.992267507
v -2.010732013 -0.087480478 1.992263042
v 0.178360871 -2.205393096 2.706143421
v 0.249488130 -0.076781907 2.679593281
v 0.169370199 -2.474454606 2.613684872
v 0.178360118 -2.205415632 2.706125845
v -1.118071229 -3.295992311 2.336432057
v -1.118278336 -3.296166533 2.336372998
v -4.903086377 -6.480001446 1.257087136
v -4.901961820 -6.797599455 1.147914617
v -4.901739812 -6.860299062 1.126361981
v -3.566716817 -6.892672222 1.109910060
v -0.125138391 -6.880486221 1.100373186
v 0.022160686 -6.879964662 1.099965009
v 1.801249533 -6.873665233 1.095035019
v 4.967629684 -6.862453658 1.086260739
v 0.406379319 -2.426015720 2.629389550
v 0.329369765 -2.489435479 2.607897389
v 0.164327983 -2.625352509 2.561836811
v 0.274659103 -6.879070611 1.099265316
v -4.004666115 6.817963036 1.141869291
v 0.552432994 2.511609259 2.574197219
v 0.881561325 2.845344836 2.462657294
v 1.294700665 6.836727127 1.131443389
v 0.680304516 6.834551662 1.132652143
v 0.480405769 6.833843857 1.133045421
v -3.323370386 6.820375380 1.140528919
v -3.730206245 -0.095591263 1.469372969
v -4.645560076 1.026054868 1.165525360
v -4.928405896 0.670753728 1.115550480
v -4.925672402 -0.101241432 1.164548904
v -4.915292561 -3.032723056 1.350609630
v -4.440886434 3.123195308 1.086564662
v -4.437832498 2.260700715 1.141307072
v -2.010748492 -0.087464535 1.907806210
v -2.010716139 -0.087464382 1.907814459
v -1.040049656 -0.082876690 2.155318332
v -1.540717043 0.389117644 1.997977611
v -2.010732013 -0.087480478 1.907811414
v 0.178360118 -2.205415632 2.599151623
v 0.178360871 -2.205393096 2.599150405
v 0.375974805 -2.039179318 2.639197795
v 0.418889687 -2.003078702 2.647894400
v 0.209909258 -1.261250877 2.548132884
v 0.178372981 -2.205404812 2.599154230
v -2.955237018 -1.045214465 1.608571970
v -2.010732013 -0.087480478 1.868586181
v -2.010748492 -0.087464535 1.868580994
v -4.437832498 2.260700715 1.104643969
v -4.434400051 1.291306792 1.124964762
v -4.645560076 1.026054868 1.067852596
v -4.905802167 -5.713006254 1.125170398
v -4.903086377 -6.480001446 1.141248434
v -1.118278336 -3.296166533 2.196198781
v -1.118300908 -3.296138874 2.196191560
v 0.375974805 -2.039179318 2.612696223
v 0.342348315 -2.364048345 2.609230173
v 0.342364527 -2.364064030 2.609235276
v 0.342345430 -2.364076215 2.609229876
v 0.178372981 -2.205404812 2.557618103
v 0.178360143 -2.205415588 2.557614524
v 0.169370218 -2.474454568 2.560316331
v 0.434573739 -1.473048899 2.618736309
v 0.579259641 -0.075223297 2.633649809
v 0.552445410 2.511597540 -2.556359600
v 0.552432258 2.511584094 -2.556359600
v 0.328386764 2.284400570 -2.556359600
v 0.328386132 2.284381368 -2.556359600
v 0.434573789 -1.473048897 -2.556359600
v 0.434565472 -1.473128827 -2.556359600
v 0.409478593 -2.321237371 -2.556359600
v 0.406379809 -2.425997800 -2.556359600
v 0.406389543 -2.426007266 -2.556359600
v 4.963665055 -5.742760677 1.094372580
v 4.967546121 -6.838853806 -2.556359600
v 4.963665055 -5.742760677 -2.556359600
v 4.951305201 -2.252082559 1.094396335
v 4.951305201 -2.252082559 -2.556359600
v 4.949149211 -1.643186376 1.094400479
v 4.949149211 -1.643186376 -2.556359600
v 4.946863628 -0.997690423 1.094404872
v 4.946863628 -0.997690423 -2.556359600
v 4.943524304 -0.054596335 1.094411290
v 4.943524304 -0.054596335 -2.556359600
v 4.941310598 0.570599746 1.094415544
v 4.941310598 0.570599746 -2.556359600
v 4.938704927 1.306495133 1.094420552
v 4.938704927 1.306495133 -2.556359600
v 4.936966043 1.797592055 1.094423894
v 4.936966043 1.797592055 -2.556359600
v 4.919077945 6.849560386 -2.556359600
v 4.830178502 6.849245609 -2.556359600
v 0.881572480 2.845334304 -2.556359600
v 0.881558828 2.845320556 -2.556359600
v 3.954170859 -0.059272362 -2.556359600
v 3.954231058 -0.059272049 -2.556359600
v 3.954194939 -0.059295077 -2.556359600
v 2.722685248 -0.065092737 -2.556359600
v 2.722658826 -0.065115031 -2.556359600
v 2.722636348 -0.065093010 -2.556359600
v -4.915292561 -3.032723056 -2.556359600
v -4.905802167 -5.713006254 -2.556359600
v -4.290564323 6.816950723 -2.556359600
v -4.453963299 6.816372157 -2.556359600
v -4.440886434 3.123195308 -2.556359600
v -2.010716111 -0.087464382 -2.556359600
v -2.010732054 -0.087480439 -2.556359600
v 0.328376800 2.284390435 -2.556359600
v -4.903086377 -6.480001446 -2.556359600
v -4.901961820 -6.797599455 -2.556359600
v -4.901739812 -6.860299062 -2.556359600
v -3.566716817 -6.892672222 -2.556359600
v -0.125138391 -6.880486221 -2.556359600
v 0.022160686 -6.879964662 -2.556359600
v 0.274659103 -6.879070611 -2.556359600
v 1.801249533 -6.873665233 -2.556359600
v 4.967629684 -6.862453658 -2.556359600
v 0.406379272 -2.426015702 -2.556359600
v 0.169370199 -2.474454606 -2.556359600
v 0.480405769 6.833843857 -2.556359600
v -3.323370386 6.820375380 -2.556359600
v -4.004666115 6.817963036 -2.556359600
v 0.552432969 2.511609296 -2.556359600
v 0.881561342 2.845344865 -2.556359600
v 1.294700665 6.836727127 -2.556359600
v 0.680304516 6.834551662 -2.556359600
v -4.645560072 1.026054855 -2.556359600
v -4.928405896 0.670753728 -2.556359600
v -4.925672402 -0.101241432 -2.556359600
v -3.730206214 -0.095591296 1.360666188
v -2.010748511 -0.087464497 -2.556359600
v -4.437832498 2.260700715 -2.556359600
v -1.118071275 -3.295992323 -2.556359600
v 0.178360143 -2.205415588 -2.556359600
v 0.178360864 -2.205393085 -2.556359600
v 0.434567970 -1.473043518 -2.556359600
v 0.178373005 -2.205404843 -2.556359600
v 0.375974773 -2.039179333 -2.556359600
v -4.434400051 1.291306792 -2.556359600
v 0.342345456 -2.364076244 -2.556359600
v 0.342348357 -2.364048334 -2.556359600
v 0.342364513 -2.364064077 -2.556359600
g roof
f 1 108 111 113 115 117 119 121 123 2 3
g roof
f 5 4 3
g roof
f 5 3 6
g roof
f 5 6 7
g roof
f 8 6 3
g roof
f 8 3 9
g roof
f 8 9 10
g roof
f 8 10 11
g roof
f 8 11 12
g roof
f 8 12 13
g roof
f 8 13 14
g roof
f 14 15 16
g roof
f 14 16 17
g roof
f 14 17 18
g roof
f 18 19 20
g roof
f 18 20 21
g roof
f 18 21 22
g roof
f 18 22 23
g roof
f 18 23 1
g roof
f 1 3 4
g roof
f 1 4 24
g roof
f 1 24 5
g roof
f 1 5 7
g roof
f 1 7 8
g roof
f 1 8 14
g roof
f 1 14 18
g roof
f 25 26 27
g roof
f 25 27 28
g roof
f 29 30 31
g roof
f 29 31 32
g roof
f 29 32 33
g roof
f 29 33 34
g roof
f 34 35 36
g roof
f 34 36 37
g roof
f 34 37 15
g roof
f 34 15 38
g roof
f 34 38 14
g roof
f 34 14 29
g roof
f 39 40 41
g roof
f 39 41 26
g roof
f 39 41 26 42
g roof
f 39 42 43
g roof
f 39 43 44
g roof
f 39 44 45
g roof
f 39 45 46
g roof
f 39 46 47
g roof
f 39 47 48 53
g roof
f 49 50 1
g roof
f 49 1 23
g roof
f 49 23 51
g roof
f 49 51 52
g roof
f 49 52 53
g roof
f 53 39 48
g roof
f 53 48 54
g roof
f 53 54 49
g roof
f 55 30 29
g roof
f 55 29 13
g roof
f 55 13 12
g roof
f 55 12 56
g roof
f 55 56 11
g roof
f 11 10 57
g roof
f 57 9 3
g roof
f 57 3 58
g roof
f 57 58 59
g roof
f 57 59 60
g roof
f 57 60 61
g roof
f 57 61 55
g roof
f 57 55 56 11
g roof
f 62 63 64
g roof
f 62 64 65
g roof
f 62 65 66
g roof
f 62 66 27
g roof
f 67 68 69
g roof
f 67 69 70
g roof
f 70 71 72
g roof
f 70 72 67
g roof
f 73 27 26
g roof
f 73 26 41
g roof
f 73 41 74
g roof
f 73 74 75
g roof
f 76 77 19
g roof
f 76 19 16
g roof
f 16 78 75
g roof
f 16 75 79
g roof
f 16 79 76
g roof
f 80 81 82
g roof
f 80 82 83
g roof
f 80 83 84
g roof
f 80 84 85 164
g roof
f 86 87 88
g roof
f 86 88 89
g roof
f 90 91 92
g roof
f 93 91 90 94
g roof
f 93 94 95
g roof
f 93 95 96
g roof
f 93 96 53
g roof
f 93 53 52
g roof
f 51 22 21
g roof
f 51 21 20
g roof
f 51 20 90
g roof
f 51 90 92
g roof
f 51 92 93
g roof
f 93 52 51
g roof
f 16 97 98
g roof
f 16 98 17
g facade_completed
f 12 11 99 100
g facade_completed
f 14 13 101 102
g roof_step_or_fixture_side
f 16 15 78
g roof_step_or_fixture_side
f 17 98 18
g roof_step_or_fixture_side
f 98 97 18
g facade_completed
f 19 97 103 104
g roof_step_or_fixture_side
f 19 77 20
g facade_completed
f 23 22 106 107
g facade_completed
f 108 1 109 110
g facade_completed
f 111 108 110 112
g facade_completed
f 113 111 112 114
g facade_completed
f 115 113 114 116
g facade_completed
f 117 115 116 118
g facade_completed
f 119 117 118 120
g facade_completed
f 121 119 120 122
g facade_completed
f 123 121 122 124
g facade_completed
f 2 123 124 125
g facade_completed
f 3 2 125 126
g facade_completed
f 10 9 127 128
g facade_completed
f 4 5 129 130
g facade_completed
f 24 4 130 131
g facade_completed
f 5 24 131 129
g facade_completed
f 7 6 132 133
g facade_completed
f 8 7 133 134
g facade_completed
f 6 8 134 132
g roof_step_or_fixture_side
f 27 66 28
g facade_completed
f 25 28 135 136 86
g roof_step_or_fixture_side
f 26 25 86 89
g facade_completed
f 31 30 137 138
g facade_completed
f 32 31 138 139 67
g roof_step_or_fixture_side
f 33 32 67 72
g roof_step_or_fixture_side
f 34 33 72 71
g roof_step_or_fixture_side
f 35 34 71 70
g facade_completed
f 36 35 70 140 141 81 73
g roof_step_or_fixture_side
f 37 36 73 75
g roof_step_or_fixture_side
f 15 37 75 78
g facade_completed
f 29 14 102 142
g roof_step_or_fixture_side
f 41 40 74
g roof_step_or_fixture_side
f 42 26 89 88
g roof_step_or_fixture_side
f 43 42 88 87
g facade_completed
f 44 43 87 143 144
g facade_completed
f 45 44 144 145
g facade_completed
f 46 45 145 146
g facade_completed
f 47 46 146 147
g facade_completed
f 48 47 147 148
g facade_completed
f 54 48 148 149
g facade_completed
f 49 54 149 150
g facade_completed
f 50 49 150 151
g facade_completed
f 1 50 151 109
g facade_completed
f 51 23 107 152
g roof_step_or_fixture_side
f 39 53 96
g roof_step_or_fixture_side
f 40 39 96 95 74
g facade_completed
f 61 60 154 155
g facade_completed
f 55 61 155 156
g facade_completed
f 30 55 156 137
g facade_completed
f 13 29 142 101
g facade_completed
f 56 12 100 157
g facade_completed
f 11 56 157 99
g facade_completed
f 57 10 128 158
g facade_completed
f 9 57 158 127
g facade_completed
f 58 3 126 159
g facade_completed
f 59 58 159 160
g facade_completed
f 60 59 160 154
g facade_completed
f 64 63 85 161 162
g facade_completed
f 65 64 162 163
g facade_completed
f 66 65 163 135 28
g roof_step_or_fixture_side
f 62 27 80 164
g roof_step_or_fixture_side
f 63 62 164 85
g facade_completed
f 70 69 82 165 140
g facade_completed
f 68 67 139 166 83
g roof_step_or_fixture_side
f 69 68 83 82
g facade_completed
f 75 74 95 168 169
g roof_step_or_fixture_side
f 27 73 81 80
g facade_completed
f 16 19 104 170
g facade_completed
f 79 75 169 171 94
g roof_step_or_fixture_side
f 76 79 94 90
g roof_step_or_fixture_side
f 77 76 90 20
g facade_completed
f 84 83 166 173
g facade_completed
f 85 84 173 161
g facade_completed
f 82 81 141 165
g facade_completed
f 87 86 136 143
g facade_completed
f 22 51 152 106
g facade_completed
f 95 94 171 168
g facade_completed
f 91 93 174 175
g facade_completed
f 92 91 175 176
g facade_completed
f 93 92 176 174
g facade_completed
f 97 16 170 103
g ground_assumed
f 124 126 125
g ground_assumed
f 124 159 126
g ground_assumed
f 124 160 159
g ground_assumed
f 124 154 160
g ground_assumed
f 124 155 154
g ground_assumed
f 124 156 155
g ground_assumed
f 124 137 156
g ground_assumed
f 124 138 137
g ground_assumed
f 124 139 138
g ground_assumed
f 124 166 139
g ground_assumed
f 124 173 166
g ground_assumed
f 124 161 173
g ground_assumed
f 124 162 161
g ground_assumed
f 124 163 162
g ground_assumed
f 124 135 163
g ground_assumed
f 124 136 135
g ground_assumed
f 124 132 133 172 171 168 167 143 136
g ground_assumed
f 124 144 143 167 168 171 172 133 132
g ground_assumed
f 124 145 144
g ground_assumed
f 124 146 145
g ground_assumed
f 124 147 146
g ground_assumed
f 124 148 147
g ground_assumed
f 124 149 148
g ground_assumed
f 124 150 149
g ground_assumed
f 150 109 151
g ground_assumed
f 150 110 109
g ground_assumed
f 150 112 110
g ground_assumed
f 150 114 112
g ground_assumed
f 150 116 114
g ground_assumed
f 150 118 116
g ground_assumed
f 150 120 118
g ground_assumed
f 150 122 120
g ground_assumed
f 150 124 122
