# pointcloud_to_mesh 0.5.1; candidate requires geometry validation; coordinates preserved
v -7.152681329 0.128388485 1.957106549
v -10.046764096 -1.997876404 1.952621177
v -10.593818051 -2.679611302 1.951048678
v -10.610287644 -3.564171849 1.948763718
v -5.493030232 -10.529327770 1.928920419
v -0.828102770 -7.102034124 1.936150320
v 0.804442738 -5.952248004 1.938551967
v 1.697267686 -5.277185479 1.939985193
v 6.269477623 -1.938361210 1.947018695
v 10.418556848 1.083263044 1.953380023
v 10.344593344 5.047625933 1.963672738
v 10.552543745 5.765128826 1.965457507
v 7.118559635 10.439162752 1.978773541
v 6.029974483 9.639385905 1.977086406
v 5.456316560 9.277609113 1.976351897
v -0.969462664 4.556628459 1.966392953
v -3.785383118 2.448453149 1.961926852
v -4.112867172 2.056465657 1.961027252
v -3.863604638 1.931859882 1.960616614
v -3.861828408 0.932273685 1.958027331
v -4.363973366 0.563350859 1.957249086
v -4.832835405 0.273603454 1.956664140
v -5.590903756 0.661582918 1.957936359
v -6.373898526 0.086321455 1.956722841
v -10.593818051 -2.679611302 -1.994891023
v -10.610287644 -3.564171849 -1.994891023
v -5.493030232 -10.529327770 -1.994891023
v -0.828102770 -7.102034124 -1.994891023
v 0.804442738 -5.952248004 -1.994891023
v 1.697267686 -5.277185479 -1.994891023
v 6.269477623 -1.938361210 -1.994891023
v 10.418556848 1.083263044 -1.994891023
v 10.344593344 5.047625933 -1.994891023
v 10.552543745 5.765128826 -1.994891023
v 7.118559635 10.439162752 -1.994891023
v 6.029974483 9.639385905 -1.994891023
v 5.456316560 9.277609113 -1.994891023
v -0.969462664 4.556628459 -1.994891023
v -3.785383118 2.448453149 -1.994891023
v -4.112867172 2.056465657 -1.994891023
v -3.863604638 1.931859882 -1.994891023
v -3.861828408 0.932273685 -1.994891023
v -4.363973366 0.563350859 -1.994891023
v -4.832835405 0.273603454 -1.994891023
v -5.590903756 0.661582918 -1.994891023
v -6.373898526 0.086321455 -1.994891023
v -7.152681329 0.128388485 -1.994891023
v -10.046764096 -1.997876404 -1.994891023
g roof
f 1 2 3
g roof
f 1 3 4
g roof
f 1 4 5
g roof
f 1 5 6
g roof
f 1 6 7
g roof
f 1 7 8
g roof
f 1 8 9
g roof
f 9 10 11
g roof
f 9 11 12
g roof
f 9 12 13
g roof
f 9 13 14
g roof
f 9 14 15
g roof
f 9 15 16
g roof
f 9 16 17
g roof
f 9 17 18
g roof
f 9 18 19
g roof
f 9 19 20
g roof
f 9 20 21
g roof
f 9 21 22
g roof
f 22 23 24
g roof
f 24 1 9
g roof
f 24 9 22
g facade_completed
f 4 3 25 26
g facade_completed
f 5 4 26 27
g facade_completed
f 6 5 27 28
g facade_completed
f 7 6 28 29
g facade_completed
f 8 7 29 30
g facade_completed
f 9 8 30 31
g facade_completed
f 10 9 31 32
g facade_completed
f 11 10 32 33
g facade_completed
f 12 11 33 34
g facade_completed
f 13 12 34 35
g facade_completed
f 14 13 35 36
g facade_completed
f 15 14 36 37
g facade_completed
f 16 15 37 38
g facade_completed
f 17 16 38 39
g facade_completed
f 18 17 39 40
g facade_completed
f 19 18 40 41
g facade_completed
f 20 19 41 42
g facade_completed
f 21 20 42 43
g facade_completed
f 22 21 43 44
g facade_completed
f 23 22 44 45
g facade_completed
f 24 23 45 46
g facade_completed
f 1 24 46 47
g facade_completed
f 2 1 47 48
g facade_completed
f 3 2 48 25
g ground_assumed
f 48 26 25
g ground_assumed
f 48 27 26
g ground_assumed
f 48 28 27
g ground_assumed
f 48 29 28
g ground_assumed
f 48 30 29
g ground_assumed
f 48 31 30
g ground_assumed
f 48 32 31
g ground_assumed
f 48 33 32
g ground_assumed
f 48 34 33
g ground_assumed
f 34 36 35
g ground_assumed
f 34 37 36
g ground_assumed
f 34 38 37
g ground_assumed
f 34 39 38
g ground_assumed
f 34 40 39
g ground_assumed
f 34 41 40
g ground_assumed
f 34 42 41
g ground_assumed
f 34 43 42
g ground_assumed
f 34 44 43
g ground_assumed
f 44 46 45
g ground_assumed
f 46 48 47
g ground_assumed
f 48 44 34
g ground_assumed
f 48 46 44
