# Source coordinates; no display transform
v 2683793.45127 1247387.81627 423.782874122
v 2683790.54867 1247385.68374 423.778375549
v 2683790 1247385 423.776798422
v 2683789.98348 1247384.11284 423.774506736
v 2683795.1158 1247377.12718 423.754605034
v 2683799.79446 1247380.56456 423.761856214
v 2683801.43181 1247381.71773 423.76426493
v 2683802.32726 1247382.39478 423.765702374
v 2683806.91293 1247385.74343 423.772756577
v 2683811.07422 1247388.77395 423.779136628
v 2683811.00004 1247392.74998 423.789459637
v 2683811.2086 1247393.4696 423.791249659
v 2683807.76451 1247398.15739 423.804604886
v 2683806.67272 1247397.35526 423.802912785
v 2683806.09738 1247396.99242 423.802176114
v 2683799.65268 1247392.25754 423.792187859
v 2683796.82848 1247390.14316 423.787708613
v 2683796.50003 1247389.75002 423.786806365
v 2683796.75002 1247389.62505 423.786394518
v 2683796.75181 1247388.62252 423.783797615
v 2683796.24818 1247388.25251 423.783017079
v 2683795.77794 1247387.96191 423.782430411
v 2683795.01764 1247388.35103 423.783706375
v 2683794.23234 1247387.77408 423.782489285
v 2683790 1247385 419.819244843
v 2683789.98348 1247384.11284 419.819244843
v 2683795.1158 1247377.12718 419.819244843
v 2683799.79446 1247380.56456 419.819244843
v 2683801.43181 1247381.71773 419.819244843
v 2683802.32726 1247382.39478 419.819244843
v 2683806.91293 1247385.74343 419.819244843
v 2683811.07422 1247388.77395 419.819244843
v 2683811.00004 1247392.74998 419.819244843
v 2683811.2086 1247393.4696 419.819244843
v 2683807.76451 1247398.15739 419.819244843
v 2683806.67272 1247397.35526 419.819244843
v 2683806.09738 1247396.99242 419.819244843
v 2683799.65268 1247392.25754 419.819244843
v 2683796.82848 1247390.14316 419.819244843
v 2683796.50003 1247389.75002 419.819244843
v 2683796.75002 1247389.62505 419.819244843
v 2683796.75181 1247388.62252 419.819244843
v 2683796.24818 1247388.25251 419.819244843
v 2683795.77794 1247387.96191 419.819244843
v 2683795.01764 1247388.35103 419.819244843
v 2683794.23234 1247387.77408 419.819244843
v 2683793.45127 1247387.81627 419.819244843
v 2683790.54867 1247385.68374 419.819244843
g roof
f 1 2 3
g roof
f 1 3 4
g roof
f 1 4 5
g roof
f 1 5 6
g roof
f 1 6 7
g roof
f 1 7 8
g roof
f 1 8 9
g roof
f 9 10 11
g roof
f 9 11 12
g roof
f 9 12 13
g roof
f 9 13 14
g roof
f 9 14 15
g roof
f 9 15 16
g roof
f 9 16 17
g roof
f 9 17 18
g roof
f 9 18 19
g roof
f 9 19 20
g roof
f 9 20 21
g roof
f 9 21 22
g roof
f 22 23 24
g roof
f 24 1 9
g roof
f 24 9 22
g facade_completed
f 4 3 25 26
g facade_completed
f 5 4 26 27
g facade_completed
f 6 5 27 28
g facade_completed
f 7 6 28 29
g facade_completed
f 8 7 29 30
g facade_completed
f 9 8 30 31
g facade_completed
f 10 9 31 32
g facade_completed
f 11 10 32 33
g facade_completed
f 12 11 33 34
g facade_completed
f 13 12 34 35
g facade_completed
f 14 13 35 36
g facade_completed
f 15 14 36 37
g facade_completed
f 16 15 37 38
g facade_completed
f 17 16 38 39
g facade_completed
f 18 17 39 40
g facade_completed
f 19 18 40 41
g facade_completed
f 20 19 41 42
g facade_completed
f 21 20 42 43
g facade_completed
f 22 21 43 44
g facade_completed
f 23 22 44 45
g facade_completed
f 24 23 45 46
g facade_completed
f 1 24 46 47
g facade_completed
f 2 1 47 48
g facade_completed
f 3 2 48 25
g ground_assumed
f 48 26 25
g ground_assumed
f 48 27 26
g ground_assumed
f 48 28 27
g ground_assumed
f 48 29 28
g ground_assumed
f 48 30 29
g ground_assumed
f 48 31 30
g ground_assumed
f 48 32 31
g ground_assumed
f 48 33 32
g ground_assumed
f 48 34 33
g ground_assumed
f 34 36 35
g ground_assumed
f 34 37 36
g ground_assumed
f 34 38 37
g ground_assumed
f 34 39 38
g ground_assumed
f 34 40 39
g ground_assumed
f 34 41 40
g ground_assumed
f 34 42 41
g ground_assumed
f 34 43 42
g ground_assumed
f 34 44 43
g ground_assumed
f 44 46 45
g ground_assumed
f 46 48 47
g ground_assumed
f 48 44 34
g ground_assumed
f 48 46 44
