v 2683793.4512665584 1247387.8162663642 423.78287412244964
v 2683790.5486657894 1247385.6837433509 423.77837554888907
v 2683790.0000017192 1247385.0000019383 423.77679842163514
v 2683789.9834836521 1247384.1128379107 423.77450673643199
v 2683795.1158024198 1247377.1271818108 423.75460503368907
v 2683799.7944599185 1247380.5645628308 423.76185621407814
v 2683801.4318104121 1247381.7177330561 423.76426492971996
v 2683802.3272631653 1247382.3947824573 423.765702374059
v 2683806.9129302483 1247385.743433713 423.77275657739716
v 2683811.0742212408 1247388.7739513554 423.77913662836079
v 2683811.0000400441 1247392.7499823461 423.78945963736993
v 2683811.2086024946 1247393.4695970279 423.79124965938706
v 2683807.7645113189 1247398.1573877931 423.80460488577273
v 2683806.6727221911 1247397.3552570047 423.80291278511663
v 2683806.0973758507 1247396.9924154142 423.80217611427474
v 2683799.6526839673 1247392.257539745 423.79218785863628
v 2683796.8284755619 1247390.1431595529 423.78770861279509
v 2683796.5000276412 1247389.7500183447 423.78680636504953
v 2683796.7500238167 1247389.6250458241 423.7863945184402
v 2683796.7518052747 1247388.6225175974 423.78379761453908
v 2683796.2481823796 1247388.2525089402 423.78301707897134
v 2683795.7779403636 1247387.9619087367 423.78243041133038
v 2683795.0176408296 1247388.3510301204 423.78370637478599
v 2683794.2323415121 1247387.7740755205 423.78248928510197
v 2683790.0000017192 1247385.0000019383 419.81924484292347
v 2683789.9834836521 1247384.1128379107 419.81924484292347
v 2683795.1158024198 1247377.1271818108 419.81924484292347
v 2683799.7944599185 1247380.5645628308 419.81924484292347
v 2683801.4318104121 1247381.7177330561 419.81924484292347
v 2683802.3272631653 1247382.3947824573 419.81924484292347
v 2683806.9129302483 1247385.743433713 419.81924484292347
v 2683811.0742212408 1247388.7739513554 419.81924484292347
v 2683811.0000400441 1247392.7499823461 419.81924484292347
v 2683811.2086024946 1247393.4695970279 419.81924484292347
v 2683807.7645113189 1247398.1573877931 419.81924484292347
v 2683806.6727221911 1247397.3552570047 419.81924484292347
v 2683806.0973758507 1247396.9924154142 419.81924484292347
v 2683799.6526839673 1247392.257539745 419.81924484292347
v 2683796.8284755619 1247390.1431595529 419.81924484292347
v 2683796.5000276412 1247389.7500183447 419.81924484292347
v 2683796.7500238167 1247389.6250458241 419.81924484292347
v 2683796.7518052747 1247388.6225175974 419.81924484292347
v 2683796.2481823796 1247388.2525089402 419.81924484292347
v 2683795.7779403636 1247387.9619087367 419.81924484292347
v 2683795.0176408296 1247388.3510301204 419.81924484292347
v 2683794.2323415121 1247387.7740755205 419.81924484292347
v 2683793.4512665584 1247387.8162663642 419.81924484292347
v 2683790.5486657894 1247385.6837433509 419.81924484292347
l 1 2
l 2 3
l 3 4
l 4 5
l 5 6
l 6 7
l 7 8
l 8 9
l 9 10
l 10 11
l 11 12
l 12 13
l 13 14
l 14 15
l 15 16
l 16 17
l 17 18
l 18 19
l 19 20
l 20 21
l 21 22
l 22 23
l 23 24
l 1 24
l 3 25
l 25 26
l 4 26
l 26 27
l 5 27
l 27 28
l 28 29
l 29 30
l 30 31
l 31 32
l 10 32
l 32 33
l 11 33
l 33 34
l 12 34
l 34 35
l 13 35
l 35 36
l 36 37
l 37 38
l 38 39
l 17 39
l 39 40
l 18 40
l 40 41
l 19 41
l 41 42
l 20 42
l 42 43
l 43 44
l 22 44
l 44 45
l 23 45
l 45 46
l 24 46
l 46 47
l 1 47
l 47 48
l 2 48
l 25 48
