# XYZ-only planar convex-roof baseline. Provisional base; no GT.
v 12.90889858 2.11383532 0.89071804
v -10.80934000 3.71532512 0.88460558
v -13.74868504 3.91039436 0.88403175
v -13.92213126 3.90484999 0.88491935
v -13.96972039 3.89477773 0.88562488
v -14.05732136 3.40825971 0.91220759
v -14.09049514 2.94234825 0.93749244
v -14.40310491 -1.64210227 1.18624208
v -14.40319732 -1.64847829 1.18658688
v -14.40310491 -1.66973169 1.18773485
v -14.37723121 -1.69135471 1.18881538
v -2.18166138 -3.25671373 1.23204168
v -0.72506432 -3.35863764 1.23261007
v 0.83706049 -3.46629073 1.23313022
v 6.87441183 -3.87343192 1.23465858
v 13.96944317 -3.61543414 1.19666475
v 14.05778339 -3.08982835 1.16796769
v 14.08411912 -2.77148940 1.15067911
v 14.11027004 -2.42053110 1.13162879
v 14.20406221 -1.06142246 1.05788056
v 14.36993113 1.43982536 0.92218019
v 14.40319732 1.96081085 0.89391948
v 14.37030076 2.01089494 0.89132505
v 12.90889858 2.11383532 -1.26300632
v -10.80934000 3.71532512 -1.26300632
v -13.74868504 3.91039436 -1.26300632
v -13.92213126 3.90484999 -1.26300632
v -13.96972039 3.89477773 -1.26300632
v -14.05732136 3.40825971 -1.26300632
v -14.09049514 2.94234825 -1.26300632
v -14.40310491 -1.64210227 -1.26300632
v -14.40319732 -1.64847829 -1.26300632
v -14.40310491 -1.66973169 -1.26300632
v -14.37723121 -1.69135471 -1.26300632
v -2.18166138 -3.25671373 -1.26300632
v -0.72506432 -3.35863764 -1.26300632
v 0.83706049 -3.46629073 -1.26300632
v 6.87441183 -3.87343192 -1.26300632
v 13.96944317 -3.61543414 -1.26300632
v 14.05778339 -3.08982835 -1.26300632
v 14.08411912 -2.77148940 -1.26300632
v 14.11027004 -2.42053110 -1.26300632
v 14.20406221 -1.06142246 -1.26300632
v 14.36993113 1.43982536 -1.26300632
v 14.40319732 1.96081085 -1.26300632
v 14.37030076 2.01089494 -1.26300632
g roof
f 1 2 3 4 5 6 7 8 9 10 11 12 13 14 15 16 17 18 19 20 21 22 23
g wall
f 2 1 24 25
g wall
f 3 2 25 26
g wall
f 4 3 26 27
g wall
f 5 4 27 28
g wall
f 6 5 28 29
g wall
f 7 6 29 30
g wall
f 8 7 30 31
g wall
f 9 8 31 32
g wall
f 10 9 32 33
g wall
f 11 10 33 34
g wall
f 12 11 34 35
g wall
f 13 12 35 36
g wall
f 14 13 36 37
g wall
f 15 14 37 38
g wall
f 16 15 38 39
g wall
f 17 16 39 40
g wall
f 18 17 40 41
g wall
f 19 18 41 42
g wall
f 20 19 42 43
g wall
f 21 20 43 44
g wall
f 22 21 44 45
g wall
f 23 22 45 46
g wall
f 1 23 46 24
g ground_assumed
f 46 45 44 43 42 41 40 39 38 37 36 35 34 33 32 31 30 29 28 27 26 25 24
