# Source coordinates; no display transform
v 0.449763414703 0.0758296585413 0.0309787594595
v -0.376431583452 0.131615540697 0.0307658396062
v -0.478819969575 0.138410532232 0.0307458509602
v -0.484861750416 0.138217401079 0.0307767693894
v -0.486519457881 0.137866546575 0.0308013456392
v -0.48957092745 0.120919303495 0.0317273208952
v -0.490726494336 0.104689864006 0.032608086831
v -0.501615862342 -0.0550037016078 0.0412729675584
v -0.501619081328 -0.0552258022421 0.0412849782326
v -0.501615862342 -0.0559661376896 0.0413249663231
v -0.500714584558 -0.0567193483848 0.0413626052262
v -0.0758972542482 -0.111246660279 0.0428683389984
v -0.0251585283837 -0.114797051441 0.0428881381489
v 0.0292561238748 -0.11854701138 0.0429062569197
v 0.239559661483 -0.13272926246 0.0429594954173
v 0.486706151097 -0.123742234412 0.0416360281539
v 0.489783371509 -0.105433418046 0.040636402176
v 0.490700743527 -0.0943444812631 0.0400341762445
v 0.491611677922 -0.0821192904656 0.0393705823169
v 0.494878810152 -0.0347764510499 0.0368016555164
v 0.500656645281 0.052351369638 0.0320747038684
v 0.501815431153 0.0704992436674 0.0310902775938
v 0.500669520877 0.0722438599257 0.0309999038891
v 0.449763414703 0.0758296585413 -0.0440435187605
v -0.376431583452 0.131615540697 -0.0440435187605
v -0.478819969575 0.138410532232 -0.0440435187605
v -0.484861750416 0.138217401079 -0.0440435187605
v -0.486519457881 0.137866546575 -0.0440435187605
v -0.48957092745 0.120919303495 -0.0440435187605
v -0.490726494336 0.104689864006 -0.0440435187605
v -0.501615862342 -0.0550037016078 -0.0440435187605
v -0.501619081328 -0.0552258022421 -0.0440435187605
v -0.501615862342 -0.0559661376896 -0.0440435187605
v -0.500714584558 -0.0567193483848 -0.0440435187605
v -0.0758972542482 -0.111246660279 -0.0440435187605
v -0.0251585283837 -0.114797051441 -0.0440435187605
v 0.0292561238748 -0.11854701138 -0.0440435187605
v 0.239559661483 -0.13272926246 -0.0440435187605
v 0.486706151097 -0.123742234412 -0.0440435187605
v 0.489783371509 -0.105433418046 -0.0440435187605
v 0.490700743527 -0.0943444812631 -0.0440435187605
v 0.491611677922 -0.0821192904656 -0.0440435187605
v 0.494878810152 -0.0347764510499 -0.0440435187605
v 0.500656645281 0.052351369638 -0.0440435187605
v 0.501815431153 0.0704992436674 -0.0440435187605
v 0.500669520877 0.0722438599257 -0.0440435187605
g roof
f 1 2 3 4 5 6 7 8 9 10 11 12 13 14 15 16 17 18 19 20 21 22 23
g wall
f 2 1 24 25
g wall
f 3 2 25 26
g wall
f 4 3 26 27
g wall
f 5 4 27 28
g wall
f 6 5 28 29
g wall
f 7 6 29 30
g wall
f 8 7 30 31
g wall
f 9 8 31 32
g wall
f 10 9 32 33
g wall
f 11 10 33 34
g wall
f 12 11 34 35
g wall
f 13 12 35 36
g wall
f 14 13 36 37
g wall
f 15 14 37 38
g wall
f 16 15 38 39
g wall
f 17 16 39 40
g wall
f 18 17 40 41
g wall
f 19 18 41 42
g wall
f 20 19 42 43
g wall
f 21 20 43 44
g wall
f 22 21 44 45
g wall
f 23 22 45 46
g wall
f 1 23 46 24
g ground_assumed
f 46 45 44 43 42 41 40 39 38 37 36 35 34 33 32 31 30 29 28 27 26 25 24
