v 0.44976341470308079 0.075829658541292949 0.030978759459502705
v -0.37643158345189764 0.13161554069663708 0.030765839606226551
v -0.47881996957545286 0.13841053223187666 0.030745850960181349
v -0.48486175041552437 0.13821740107896791 0.030776769389384635
v -0.48651945788144479 0.13786654657499417 0.030801345639222166
v -0.48957092745003883 0.1209193034953496 0.031727320895155536
v -0.49072649433640131 0.10468986400570419 0.032608086830983263
v -0.50161586234226019 -0.055003701607842723 0.041272967558431094
v -0.50161908132833788 -0.055225802242102218 0.041284978232596581
v -0.50161586234226019 -0.055966137689633884 0.041324966323146944
v -0.50071458455758577 -0.056719348384801999 0.041362605226151705
v -0.075897254248238594 -0.11124666027934231 0.042868338998425216
v -0.025158528383746211 -0.11479705144141646 0.042888138148915136
v 0.029256123874794145 -0.1185470113802176 0.042906256919701631
v 0.23955966148311919 -0.13272926246038469 0.042959495417287406
v 0.48670615109654874 -0.12374223441223828 0.0416360281538617
v 0.48978337150875317 -0.10543341804568597 0.040636402175997309
v 0.49070074352714194 -0.094344481263100174 0.040034176244546957
v 0.4916116779217124 -0.082119290465606537 0.039370582316854384
v 0.49487881015241036 -0.034776451049863759 0.036801655516355745
v 0.50065664528089759 0.052351369637992889 0.032074703868423544
v 0.50181543115333804 0.0704992436674024 0.031090277593784549
v 0.50066952087687144 0.072243859925712403 0.03099990388910014
v 0.44976341470308079 0.075829658541292949 -0.044043518760473445
v -0.37643158345189764 0.13161554069663708 -0.044043518760473445
v -0.47881996957545286 0.13841053223187666 -0.044043518760473445
v -0.48486175041552437 0.13821740107896791 -0.044043518760473445
v -0.48651945788144479 0.13786654657499417 -0.044043518760473445
v -0.48957092745003883 0.1209193034953496 -0.044043518760473445
v -0.49072649433640131 0.10468986400570419 -0.044043518760473445
v -0.50161586234226019 -0.055003701607842723 -0.044043518760473445
v -0.50161908132833788 -0.055225802242102218 -0.044043518760473445
v -0.50161586234226019 -0.055966137689633884 -0.044043518760473445
v -0.50071458455758577 -0.056719348384801999 -0.044043518760473445
v -0.075897254248238594 -0.11124666027934231 -0.044043518760473445
v -0.025158528383746211 -0.11479705144141646 -0.044043518760473445
v 0.029256123874794145 -0.1185470113802176 -0.044043518760473445
v 0.23955966148311919 -0.13272926246038469 -0.044043518760473445
v 0.48670615109654874 -0.12374223441223828 -0.044043518760473445
v 0.48978337150875317 -0.10543341804568597 -0.044043518760473445
v 0.49070074352714194 -0.094344481263100174 -0.044043518760473445
v 0.4916116779217124 -0.082119290465606537 -0.044043518760473445
v 0.49487881015241036 -0.034776451049863759 -0.044043518760473445
v 0.50065664528089759 0.052351369637992889 -0.044043518760473445
v 0.50181543115333804 0.0704992436674024 -0.044043518760473445
v 0.50066952087687144 0.072243859925712403 -0.044043518760473445
l 1 2
l 2 3
l 3 4
l 4 5
l 5 6
l 6 7
l 7 8
l 8 9
l 9 10
l 10 11
l 11 12
l 12 13
l 13 14
l 14 15
l 15 16
l 16 17
l 17 18
l 18 19
l 19 20
l 20 21
l 21 22
l 22 23
l 1 23
l 24 25
l 25 26
l 26 27
l 4 27
l 27 28
l 5 28
l 28 29
l 29 30
l 30 31
l 31 32
l 32 33
l 10 33
l 33 34
l 11 34
l 34 35
l 35 36
l 36 37
l 37 38
l 38 39
l 16 39
l 39 40
l 40 41
l 41 42
l 42 43
l 43 44
l 44 45
l 22 45
l 45 46
l 23 46
l 24 46
