# Source coordinates; no display transform
v -0.0783100408778 0.501122072682 0.0675008216217
v -0.0800660421058 0.500309994188 0.0664866620399
v -0.111456297379 0.453534604562 0.0646394402668
v -0.48867174314 -0.149531639684 0.0631193079253
v -0.48866821793 -0.152161613363 0.0644495901524
v -0.0813778615392 -0.130514154256 0.383817865168
v 0.0799447355106 0.129069103769 0.383624206482
v 0.443715883669 0.0751937464526 0.0618637040113
v 0.476036120928 0.128162275252 0.0623085976786
v 0.484149875188 0.143938270864 0.0636662565818
v 0.486178313886 0.151843116143 0.0659967218882
v 0.485695180816 0.152146195084 0.0665404441718
v 0.0773161935817 -0.499099143679 0.0699839094163
v 0.0829435947186 -0.499541748041 0.0652028585805
v -0.0738729023989 0.503174068278 0.0619562522467
v -0.488665004364 -0.154558932788 0.0616651209175
v 0.00326841445371 -0.461405755317 0.0603130038408
v 0.0661500103695 -0.498220904263 0.0629389971166
v -0.0783100408778 0.501122072682 -0.38411014234
v -0.0800660421058 0.500309994188 -0.38411014234
v -0.111456297379 0.453534604562 -0.38411014234
v -0.48867174314 -0.149531639684 -0.38411014234
v -0.48866821793 -0.152161613363 -0.38411014234
v -0.488665004364 -0.154558932788 -0.38411014234
v 0.00326841445371 -0.461405755317 -0.38411014234
v 0.0661500103695 -0.498220904263 -0.38411014234
v 0.0773161935817 -0.499099143679 -0.38411014234
v 0.0829435947186 -0.499541748041 -0.38411014234
v 0.443715883669 0.0751937464526 -0.38411014234
v 0.476036120928 0.128162275252 -0.38411014234
v 0.484149875188 0.143938270864 -0.38411014234
v 0.486178313886 0.151843116143 -0.38411014234
v 0.485695180816 0.152146195084 -0.38411014234
v -0.0738729023989 0.503174068278 -0.38411014234
g roof
f 1 2 3 4 5 6 7
g roof
f 8 9 10 11 12 7 6 13 14
g roof
f 12 15 1 7
g roof
f 5 16 17 18 13 6
g wall
f 2 1 19 20
g wall
f 3 2 20 21
g wall
f 4 3 21 22
g wall
f 5 4 22 23
g wall
f 9 8 29 30
g wall
f 10 9 30 31
g wall
f 11 10 31 32
g wall
f 12 11 32 33
g wall
f 14 13 27 28
g wall
f 8 14 28 29
g wall
f 15 12 33 34
g wall
f 1 15 34 19
g wall
f 16 5 23 24
g wall
f 17 16 24 25
g wall
f 18 17 25 26
g wall
f 13 18 26 27
g ground_assumed
f 34 33 32 31 30 29 28 27 26 25 24 23 22 21 20 19
