# XYZ-only planar convex-roof baseline. Provisional base; no GT.
v -1.44417664 9.35664789 1.29547954
v -1.47708289 9.34143010 1.27647489
v -2.06531459 8.46489161 1.24185923
v -9.13407147 -2.83615322 1.21337300
v -9.13400541 -2.88543711 1.23830157
v -1.50166548 -2.47977868 7.22304243
v 1.52140855 2.38463226 7.21941340
v 8.33822858 1.37504528 1.18984385
v 8.94388750 2.36763892 1.19818085
v 9.09593365 2.66327018 1.22362244
v 9.13394519 2.81140152 1.26729375
v 9.12489161 2.81708101 1.27748273
v 1.47215149 -9.38680677 1.34201089
v 1.57760510 -9.39510087 1.25241730
v -1.36102773 9.39510087 1.19157814
v -9.13394519 -2.93036122 1.18612254
v 0.08454726 -8.68045871 1.16078480
v 1.26290493 -9.37034917 1.20999410
v -1.44417664 9.35664789 -7.16739796
v -1.47708289 9.34143010 -7.16739796
v -2.06531459 8.46489161 -7.16739796
v -9.13407147 -2.83615322 -7.16739796
v -9.13400541 -2.88543711 -7.16739796
v -9.13394519 -2.93036122 -7.16739796
v 0.08454726 -8.68045871 -7.16739796
v 1.26290493 -9.37034917 -7.16739796
v 1.47215149 -9.38680677 -7.16739796
v 1.57760510 -9.39510087 -7.16739796
v 8.33822858 1.37504528 -7.16739796
v 8.94388750 2.36763892 -7.16739796
v 9.09593365 2.66327018 -7.16739796
v 9.13394519 2.81140152 -7.16739796
v 9.12489161 2.81708101 -7.16739796
v -1.36102773 9.39510087 -7.16739796
g roof
f 1 2 3 4 5 6 7
g roof
f 8 9 10 11 12 7 6 13 14
g roof
f 12 15 1 7
g roof
f 5 16 17 18 13 6
g wall
f 2 1 19 20
g wall
f 3 2 20 21
g wall
f 4 3 21 22
g wall
f 5 4 22 23
g wall
f 9 8 29 30
g wall
f 10 9 30 31
g wall
f 11 10 31 32
g wall
f 12 11 32 33
g wall
f 14 13 27 28
g wall
f 8 14 28 29
g wall
f 15 12 33 34
g wall
f 1 15 34 19
g wall
f 16 5 23 24
g wall
f 17 16 24 25
g wall
f 18 17 25 26
g wall
f 13 18 26 27
g ground_assumed
f 34 33 32 31 30 29 28 27 26 25 24 23 22 21 20 19
