v -0.078310040877770548 0.50112207268178222 0.067500821621682416
v -0.080066042105822036 0.50030999418823674 0.066486662039879907
v -0.11145629737887269 0.45353460456242378 0.064639440266818143
v -0.48867174314001266 -0.14953163968434061 0.063119307925315921
v -0.48866821793002596 -0.152161613362993 0.06444959015235692
v -0.081377861539172439 -0.13051415425569743 0.38381786516789373
v 0.079944735510646556 0.12906910376936365 0.38362420648188011
v 0.44371588366900799 0.07519374645259834 0.061863704011317577
v 0.47603612092789804 0.12816227525172044 0.062308597678577299
v 0.4841498751879702 0.14393827086381278 0.063666256581782099
v 0.48617831388639776 0.15184311614253382 0.065996721888239629
v 0.48569518081598523 0.15214619508391142 0.066540444171775195
v 0.077316193581675408 -0.49909914367947639 0.06998390941633828
v 0.082943594718616398 -0.49954174804143137 0.0652028585805383
v -0.073872902398875381 0.50317406827843147 0.061956252246677057
v -0.48866500436439775 -0.15455893278799951 0.061665120917529612
v 0.0032684144537146039 -0.46140575531733252 0.060313003840802556
v 0.066150010369502868 -0.49822090426262455 0.062938997116595299
v -0.078310040877770548 0.50112207268178222 -0.38411014233955393
v -0.080066042105822036 0.50030999418823674 -0.38411014233955393
v -0.11145629737887269 0.45353460456242378 -0.38411014233955393
v -0.48867174314001266 -0.14953163968434061 -0.38411014233955393
v -0.48866821793002596 -0.152161613362993 -0.38411014233955393
v -0.48866500436439775 -0.15455893278799951 -0.38411014233955393
v 0.0032684144537146039 -0.46140575531733252 -0.38411014233955393
v 0.066150010369502868 -0.49822090426262455 -0.38411014233955393
v 0.077316193581675408 -0.49909914367947639 -0.38411014233955393
v 0.082943594718616398 -0.49954174804143137 -0.38411014233955393
v 0.44371588366900799 0.07519374645259834 -0.38411014233955393
v 0.47603612092789804 0.12816227525172044 -0.38411014233955393
v 0.4841498751879702 0.14393827086381278 -0.38411014233955393
v 0.48617831388639776 0.15184311614253382 -0.38411014233955393
v 0.48569518081598523 0.15214619508391142 -0.38411014233955393
v -0.073872902398875381 0.50317406827843147 -0.38411014233955393
l 1 2
l 2 3
l 3 4
l 4 5
l 5 6
l 6 7
l 1 7
l 8 9
l 9 10
l 10 11
l 11 12
l 7 12
l 6 13
l 13 14
l 8 14
l 12 15
l 1 15
l 5 16
l 16 17
l 17 18
l 13 18
l 19 20
l 2 20
l 20 21
l 21 22
l 4 22
l 22 23
l 29 30
l 30 31
l 10 31
l 31 32
l 11 32
l 32 33
l 27 28
l 14 28
l 28 29
l 33 34
l 15 34
l 19 34
l 23 24
l 16 24
l 24 25
l 25 26
l 18 26
l 26 27
