v 0.29623277907643686 -0.52786656850704539 0.24542612313542797
v 0.34414421816532059 0.50530522199551475 0.24585907322385711
v -0.28982972991101508 0.53470459605501119 0.25060579075931977
v -0.33774116899989881 -0.49846719444754911 0.25017284021542985
v 0.29623277907643686 -0.52786656850704539 -0.24585001662818717
v 0.34414421816532059 0.50530522199551475 -0.24585001662818717
v -0.28982972991101508 0.53470459605501119 -0.24585001662818717
v -0.33774116899989881 -0.49846719444754911 -0.24585001662818717
l 1 2
l 2 3
l 3 4
l 1 4
l 1 5
l 5 6
l 2 6
l 6 7
l 3 7
l 7 8
l 4 8
l 5 8
