# Source coordinates; no display transform
v -0.164789985653 -0.50086410643 0.063535393144
v 0.161469932457 -0.501598197872 0.063655797986
v 0.163726626872 0.501368056316 0.0637949067352
v -0.162533291594 0.502102147758 0.0636745018932
v -0.164789985653 -0.50086410643 -0.0622080184257
v 0.161469932457 -0.501598197872 -0.0622080184257
v 0.163726626872 0.501368056316 -0.0622080184257
v -0.162533291594 0.502102147758 -0.0622080184257
g roof
f 1 2 3 4
g wall
f 2 1 5 6
g wall
f 3 2 6 7
g wall
f 4 3 7 8
g wall
f 1 4 8 5
g ground_assumed
f 8 7 6 5
