# Source coordinates; no display transform
v 2683245.9394 1251947.72365 453.641191704
v 2683253.7175 1251934.32139 452.107306907
v 2683273.7299 1251945.93573 452.083123827
v 2683265.87247 1251959.47468 453.632652732
v 2683258.34277 1251972.44893 452.102217592
v 2683238.33037 1251960.83459 452.094632683
v 2683245.9394 1251947.72365 441.301187748
v 2683253.7175 1251934.32139 441.301187748
v 2683273.7299 1251945.93573 441.301187748
v 2683265.87247 1251959.47468 441.301187748
v 2683258.34277 1251972.44893 441.301187748
v 2683238.33037 1251960.83459 441.301187748
g roof
f 1 2 3 4
g roof
f 5 6 1 4
g wall
f 2 1 7 8
g wall
f 3 2 8 9
g wall
f 4 3 9 10
g wall
f 6 5 11 12
g wall
f 1 6 12 7
g wall
f 5 4 10 11
g ground_assumed
f 12 11 10 9 8 7
