# XYZ-only planar convex-roof baseline. Provisional base; no GT.
v 10.25628145 -0.69853575 4.59834833
v 6.62727293 3.74647628 6.99797882
v -5.10045503 -5.47789611 6.94633149
v -1.29978429 -10.13316960 4.43319180
v 1.76857826 9.69767649 3.69584147
v -9.78748748 0.26304264 3.76086174
v 10.25628145 -0.69853575 -7.13972114
v 6.62727293 3.74647628 -7.13972114
v 1.76857826 9.69767649 -7.13972114
v -9.78748748 0.26304264 -7.13972114
v -5.10045503 -5.47789611 -7.13972114
v -1.29978429 -10.13316960 -7.13972114
g roof
f 1 2 3 4
g roof
f 2 5 6 3
g wall
f 2 1 7 8
g wall
f 4 3 11 12
g wall
f 1 4 12 7
g wall
f 5 2 8 9
g wall
f 6 5 9 10
g wall
f 3 6 10 11
g ground_assumed
f 12 11 10 9 8 7
