# Source coordinates; no display transform
v -0.0814339372455 -0.130553206923 0.383835726552
v 0.0798780228061 0.12886604399 0.383471297964
v -0.0795369158779 0.505236981567 0.0640555329374
v -0.491302646949 -0.152088424966 0.062524813226
v 0.080178154467 -0.505143281629 0.0647222090595
v 0.490737227398 0.150255867666 0.0613555828266
v 0.4874716241 0.152301526317 0.0650289140684
v -0.0785231239724 0.506855357124 0.0614669770075
v -0.491743377709 -0.152791989321 0.0613874906197
v 0.0775169731278 -0.509391478779 0.0578549351114
v -0.0795369158779 0.505236981567 -0.38411014234
v -0.491302646949 -0.152088424966 -0.38411014234
v -0.491743377709 -0.152791989321 -0.38411014234
v 0.0775169731278 -0.509391478779 -0.38411014234
v 0.080178154467 -0.505143281629 -0.38411014234
v 0.490737227398 0.150255867666 -0.38411014234
v 0.4874716241 0.152301526317 -0.38411014234
v -0.0785231239724 0.506855357124 -0.38411014234
g roof
f 1 2 3 4
g roof
f 5 6 7 2 1
g roof
f 7 8 3 2
g roof
f 9 10 5 1 4
g wall
f 4 3 11 12
g wall
f 6 5 15 16
g wall
f 7 6 16 17
g wall
f 8 7 17 18
g wall
f 3 8 18 11
g wall
f 10 9 13 14
g wall
f 5 10 14 15
g wall
f 9 4 12 13
g ground_assumed
f 18 17 16 15 14 13 12 11
