# XYZ-only planar convex-roof baseline. Provisional base; no GT.
v -1.50271630 -2.48051050 7.22337714
v 1.52015840 2.38082706 7.21654800
v -1.46716743 9.43375844 1.23091721
v -9.18337279 -2.88406561 1.20223258
v 1.52578266 -9.50006974 1.24341026
v 9.21937608 2.78165758 1.18032201
v 9.15818093 2.81999181 1.24915770
v -1.44816967 9.46408568 1.18240946
v -9.19163178 -2.89724992 1.18091994
v 1.47591396 -9.57967802 1.11472229
v -1.46716743 9.43375844 -7.16739796
v -9.18337279 -2.88406561 -7.16739796
v -9.19163178 -2.89724992 -7.16739796
v 1.47591396 -9.57967802 -7.16739796
v 1.52578266 -9.50006974 -7.16739796
v 9.21937608 2.78165758 -7.16739796
v 9.15818093 2.81999181 -7.16739796
v -1.44816967 9.46408568 -7.16739796
g roof
f 1 2 3 4
g roof
f 5 6 7 2 1
g roof
f 7 8 3 2
g roof
f 9 10 5 1 4
g wall
f 4 3 11 12
g wall
f 6 5 15 16
g wall
f 7 6 16 17
g wall
f 8 7 17 18
g wall
f 3 8 18 11
g wall
f 10 9 13 14
g wall
f 5 10 14 15
g wall
f 9 4 12 13
g ground_assumed
f 18 17 16 15 14 13 12 11
