# XYZ-only planar convex-roof baseline. Provisional base; no GT.
v -9.50221961 -2.03403146 5.94062581
v -8.08123682 -8.34335225 2.49929322
v 11.09339327 -4.02484949 2.52436728
v 9.70788485 2.12696118 5.87978812
v -10.87946409 4.08108644 2.44499295
v 8.29516600 8.39958920 2.29411651
v -9.50221961 -2.03403146 -6.28531845
v -8.08123682 -8.34335225 -6.28531845
v 11.09339327 -4.02484949 -6.28531845
v 9.70788485 2.12696118 -6.28531845
v 8.29516600 8.39958920 -6.28531845
v -10.87946409 4.08108644 -6.28531845
g roof
f 1 2 3 4
g roof
f 5 1 4 6
g wall
f 2 1 7 8
g wall
f 3 2 8 9
g wall
f 4 3 9 10
g wall
f 1 5 12 7
g wall
f 6 4 10 11
g wall
f 5 6 11 12
g ground_assumed
f 12 11 10 9 8 7
