v -0.45097999617618989 -0.096774670918685024 0.2807771653803251
v -0.38441457906373389 -0.39233248698670464 0.11956920361743915
v 0.51381392792466007 -0.19003381064545696 0.1207437887527051
v 0.44891029465115628 0.098145501677817729 0.27792724612760261
v -0.51549650821433213 0.1896857820649481 0.11702552740453512
v 0.38273199877406178 0.39198445840619572 0.10995777596396879
v -0.45097999617618989 -0.096774670918685024 -0.29194270497119329
v -0.38441457906373389 -0.39233248698670464 -0.29194270497119329
v 0.51381392792466007 -0.19003381064545696 -0.29194270497119329
v 0.44891029465115628 0.098145501677817729 -0.29194270497119329
v 0.38273199877406178 0.39198445840619572 -0.29194270497119329
v -0.51549650821433213 0.1896857820649481 -0.29194270497119329
l 1 2
l 2 3
l 3 4
l 1 4
l 1 5
l 4 6
l 5 6
l 7 8
l 2 8
l 8 9
l 3 9
l 9 10
l 5 12
l 7 12
l 10 11
l 6 11
l 11 12
