# Source coordinates; no display transform
v 2684566 1248817.75 610.962381043
v 2684572.5 1248826.25 611.00660207
v 2684573.75 1248828.125 611.016160015
v 2684573.75 1248828.5 611.017804115
v 2684572.25 1248829.75 611.021679452
v 2684571.5 1248830.25 611.023069088
v 2684570.25 1248831 611.025019795
v 2684569.75 1248830.875 611.023936775
v 2684565.5 1248828.25 611.007880686
v 2684563 1248825.75 610.994245096
v 2684561.5 1248821.75 610.975103122
v 2684561.5 1248820.5 610.969622809
v 2684563.25 1248819 610.964918902
v 2684565.5 1248817.25 610.959653929
v 2684566 1248817.75 606.717758421
v 2684572.5 1248826.25 606.717758421
v 2684573.75 1248828.125 606.717758421
v 2684573.75 1248828.5 606.717758421
v 2684572.25 1248829.75 606.717758421
v 2684571.5 1248830.25 606.717758421
v 2684570.25 1248831 606.717758421
v 2684569.75 1248830.875 606.717758421
v 2684565.5 1248828.25 606.717758421
v 2684563 1248825.75 606.717758421
v 2684561.5 1248821.75 606.717758421
v 2684561.5 1248820.5 606.717758421
v 2684563.25 1248819 606.717758421
v 2684565.5 1248817.25 606.717758421
g roof
f 1 2 3 4 5 6 7 8 9 10 11 12 13 14
g wall
f 2 1 15 16
g wall
f 3 2 16 17
g wall
f 4 3 17 18
g wall
f 5 4 18 19
g wall
f 6 5 19 20
g wall
f 7 6 20 21
g wall
f 8 7 21 22
g wall
f 9 8 22 23
g wall
f 10 9 23 24
g wall
f 11 10 24 25
g wall
f 12 11 25 26
g wall
f 13 12 26 27
g wall
f 14 13 27 28
g wall
f 1 14 28 15
g ground_assumed
f 28 27 26 25 24 23 22 21 20 19 18 17 16 15
