v 2684566.0000000028 1248817.7499999995 610.96238104317331
v 2684572.4999999981 1248826.2499999979 611.00660207048998
v 2684573.7499999967 1248828.1249999988 611.01616001504135
v 2684573.7499999967 1248828.4999999977 611.01780411503842
v 2684572.2500000014 1248829.7500000028 611.02167945230599
v 2684571.4999999967 1248830.2499999967 611.02306908760738
v 2684570.2499999986 1248831.0000000012 611.02501979542274
v 2684569.7499999977 1248830.8749999993 611.02393677474151
v 2684565.5000000023 1248828.2500000007 611.0078806856967
v 2684562.9999999986 1248825.7499999972 610.99424509590835
v 2684561.5000000033 1248821.7499999984 610.9751031216407
v 2684561.5000000033 1248820.5 610.96962280872265
v 2684563.2500000023 1248818.9999999979 610.96491890186576
v 2684565.5000000023 1248817.2499999988 610.95965392929679
v 2684566.0000000028 1248817.7499999995 606.71775842087663
v 2684572.4999999981 1248826.2499999979 606.71775842087663
v 2684573.7499999967 1248828.1249999988 606.71775842087663
v 2684573.7499999967 1248828.4999999977 606.71775842087663
v 2684572.2500000014 1248829.7500000028 606.71775842087663
v 2684571.4999999967 1248830.2499999967 606.71775842087663
v 2684570.2499999986 1248831.0000000012 606.71775842087663
v 2684569.7499999977 1248830.8749999993 606.71775842087663
v 2684565.5000000023 1248828.2500000007 606.71775842087663
v 2684562.9999999986 1248825.7499999972 606.71775842087663
v 2684561.5000000033 1248821.7499999984 606.71775842087663
v 2684561.5000000033 1248820.5 606.71775842087663
v 2684563.2500000023 1248818.9999999979 606.71775842087663
v 2684565.5000000023 1248817.2499999988 606.71775842087663
l 1 2
l 2 3
l 3 4
l 4 5
l 5 6
l 6 7
l 7 8
l 8 9
l 9 10
l 10 11
l 11 12
l 12 13
l 13 14
l 1 14
l 15 16
l 16 17
l 3 17
l 17 18
l 4 18
l 18 19
l 19 20
l 20 21
l 7 21
l 21 22
l 8 22
l 22 23
l 9 23
l 23 24
l 10 24
l 24 25
l 11 25
l 25 26
l 12 26
l 26 27
l 27 28
l 14 28
l 15 28
