# XYZ-only planar convex-roof baseline. Provisional base; no GT.
v 9.61447863 -7.43619831 0.90611248
v 11.11674091 -6.38461471 0.91908471
v 11.71764583 -5.63348357 0.92613166
v 12.91945566 -3.22986391 0.94529301
v 9.91493109 -1.42714917 0.94130749
v 1.80271474 3.07963769 0.92851961
v -4.80723931 6.38461471 0.91603534
v -7.51131143 7.28597209 0.90839442
v -9.31402617 7.43619831 0.90076675
v -9.61447863 7.28597209 0.89851014
v -11.41719337 5.33303111 0.87905843
v -11.71764583 4.88235243 0.87511267
v -12.31855074 2.77918523 0.86046455
v -12.31855074 2.47873277 0.85877540
v -11.11674091 1.72760163 0.86020069
v -0.30045246 -4.13122129 0.87809577
v 4.50678686 -6.53484094 0.88717524
v 9.31402617 -7.43619831 0.90470044
v 9.61447863 -7.43619831 -1.64485588
v 11.11674091 -6.38461471 -1.64485588
v 11.71764583 -5.63348357 -1.64485588
v 12.91945566 -3.22986391 -1.64485588
v 9.91493109 -1.42714917 -1.64485588
v 1.80271474 3.07963769 -1.64485588
v -4.80723931 6.38461471 -1.64485588
v -7.51131143 7.28597209 -1.64485588
v -9.31402617 7.43619831 -1.64485588
v -9.61447863 7.28597209 -1.64485588
v -11.41719337 5.33303111 -1.64485588
v -11.71764583 4.88235243 -1.64485588
v -12.31855074 2.77918523 -1.64485588
v -12.31855074 2.47873277 -1.64485588
v -11.11674091 1.72760163 -1.64485588
v -0.30045246 -4.13122129 -1.64485588
v 4.50678686 -6.53484094 -1.64485588
v 9.31402617 -7.43619831 -1.64485588
g roof
f 1 2 3 4 5 6 7 8 9 10 11 12 13 14 15 16 17 18
g wall
f 2 1 19 20
g wall
f 3 2 20 21
g wall
f 4 3 21 22
g wall
f 5 4 22 23
g wall
f 6 5 23 24
g wall
f 7 6 24 25
g wall
f 8 7 25 26
g wall
f 9 8 26 27
g wall
f 10 9 27 28
g wall
f 11 10 28 29
g wall
f 12 11 29 30
g wall
f 13 12 30 31
g wall
f 14 13 31 32
g wall
f 15 14 32 33
g wall
f 16 15 33 34
g wall
f 17 16 34 35
g wall
f 18 17 35 36
g wall
f 1 18 36 19
g ground_assumed
f 36 35 34 33 32 31 30 29 28 27 26 25 24 23 22 21 20 19
