# XYZ-only planar convex-roof baseline. Provisional base; no GT.
v 5.03895043 -11.23639830 4.63648333
v 5.81824757 -11.10453388 4.63077700
v 5.96056027 -10.87467185 4.62989227
v 7.10878958 4.84637793 4.63335642
v 7.48925087 10.70425689 4.63500031
v 5.95011200 11.11858500 4.64678645
v 5.04939871 11.15137097 4.65352344
v -0.40099756 11.25657428 4.69421907
v -3.49224557 11.24900829 4.71724860
v -5.81896814 11.15353268 4.73451384
v -6.33813928 10.59581101 4.73795615
v -6.72292400 4.66587499 4.73628938
v -7.11887757 -3.72517003 4.73282404
v -7.11599528 -10.82207019 4.72737619
v -6.86523670 -10.94925091 4.72541034
v -2.44597701 -11.21694290 4.69227428
v 3.22239187 -11.29008082 4.64997889
v 5.03895043 -11.23639830 -6.16073480
v 5.81824757 -11.10453388 -6.16073480
v 5.96056027 -10.87467185 -6.16073480
v 7.10878958 4.84637793 -6.16073480
v 7.48925087 10.70425689 -6.16073480
v 5.95011200 11.11858500 -6.16073480
v 5.04939871 11.15137097 -6.16073480
v -0.40099756 11.25657428 -6.16073480
v -3.49224557 11.24900829 -6.16073480
v -5.81896814 11.15353268 -6.16073480
v -6.33813928 10.59581101 -6.16073480
v -6.72292400 4.66587499 -6.16073480
v -7.11887757 -3.72517003 -6.16073480
v -7.11599528 -10.82207019 -6.16073480
v -6.86523670 -10.94925091 -6.16073480
v -2.44597701 -11.21694290 -6.16073480
v 3.22239187 -11.29008082 -6.16073480
g roof
f 1 2 3 4 5 6 7 8 9 10 11 12 13 14 15 16 17
g wall
f 2 1 18 19
g wall
f 3 2 19 20
g wall
f 4 3 20 21
g wall
f 5 4 21 22
g wall
f 6 5 22 23
g wall
f 7 6 23 24
g wall
f 8 7 24 25
g wall
f 9 8 25 26
g wall
f 10 9 26 27
g wall
f 11 10 27 28
g wall
f 12 11 28 29
g wall
f 13 12 29 30
g wall
f 14 13 30 31
g wall
f 15 14 31 32
g wall
f 16 15 32 33
g wall
f 17 16 33 34
g wall
f 1 17 34 18
g ground_assumed
f 34 33 32 31 30 29 28 27 26 25 24 23 22 21 20 19 18
