v 0.23170331454162227 -0.50963242519144991 0.24592092479806965
v 0.26719724303082926 -0.50362651800468572 0.24566102384558341
v 0.27367902839565938 -0.49315720400822483 0.24562072786380648
v 0.32597637035478877 0.22287495885404829 0.24577850631064627
v 0.34330489002595233 0.48967837212548715 0.24585337905315896
v 0.27320315067305423 0.50854939262917886 0.24639019150742228
v 0.23217919271968823 0.51004266498307116 0.24669703498087903
v -0.016064982082776246 0.51483426316854364 0.24855056132776546
v -0.15685920572042938 0.51448966199624868 0.24959946610234224
v -0.26283229387240692 0.51014112239580367 0.2503858300737396
v -0.2864785032205126 0.48473908759318524 0.25054261379423121
v -0.30400393817260229 0.21465375783122453 0.250466698957449
v -0.32203807044033561 -0.1675254349341905 0.25030886631077609
v -0.32190679343456452 -0.4907614046877582 0.25006073810858626
v -0.31048572353743242 -0.49655398770799852 0.24997120135073223
v -0.1092057760554038 -0.50874630802139453 0.24846198377031861
v 0.1489661962903005 -0.5120774534460133 0.24653559462935096
v 0.23170331454162227 -0.50963242519144991 -0.24585001662818717
v 0.26719724303082926 -0.50362651800468572 -0.24585001662818717
v 0.27367902839565938 -0.49315720400822483 -0.24585001662818717
v 0.32597637035478877 0.22287495885404829 -0.24585001662818717
v 0.34330489002595233 0.48967837212548715 -0.24585001662818717
v 0.27320315067305423 0.50854939262917886 -0.24585001662818717
v 0.23217919271968823 0.51004266498307116 -0.24585001662818717
v -0.016064982082776246 0.51483426316854364 -0.24585001662818717
v -0.15685920572042938 0.51448966199624868 -0.24585001662818717
v -0.26283229387240692 0.51014112239580367 -0.24585001662818717
v -0.2864785032205126 0.48473908759318524 -0.24585001662818717
v -0.30400393817260229 0.21465375783122453 -0.24585001662818717
v -0.32203807044033561 -0.1675254349341905 -0.24585001662818717
v -0.32190679343456452 -0.4907614046877582 -0.24585001662818717
v -0.31048572353743242 -0.49655398770799852 -0.24585001662818717
v -0.1092057760554038 -0.50874630802139453 -0.24585001662818717
v 0.1489661962903005 -0.5120774534460133 -0.24585001662818717
l 1 2
l 2 3
l 3 4
l 4 5
l 5 6
l 6 7
l 7 8
l 8 9
l 9 10
l 10 11
l 11 12
l 12 13
l 13 14
l 14 15
l 15 16
l 16 17
l 1 17
l 18 19
l 2 19
l 19 20
l 3 20
l 20 21
l 21 22
l 5 22
l 22 23
l 6 23
l 23 24
l 24 25
l 25 26
l 26 27
l 10 27
l 27 28
l 11 28
l 28 29
l 29 30
l 30 31
l 14 31
l 31 32
l 15 32
l 32 33
l 33 34
l 18 34
