# pointcloud_to_mesh 0.5.1; candidate requires geometry validation; coordinates preserved
v -3.308366976 7.319705524 0.572704688
v -3.493818129 6.881018059 0.404163743
v -3.095302830 6.274581734 0.405292953
v -2.531828005 6.134757414 0.574145633
v -1.675620527 7.559345264 1.212258988
v -0.498471068 8.391451308 1.827021597
v -0.425023093 8.568433366 1.894527358
v 0.425056521 9.127057112 2.328624218
v 0.374375735 9.170706740 2.320679161
v 0.084037880 9.420764458 2.275163783
v 0.393280611 9.961860030 2.511827633
v 0.344905032 10.022320303 2.508624651
v -0.131088762 9.961893458 2.324374708
v 0.073763743 10.361195346 2.490672194
v -0.096726361 10.574275550 2.479383923
v -0.118312019 10.601253517 2.477954721
v -0.131098312 10.592851095 2.471425344
v -0.131095381 10.551690195 2.461833233
v -0.131072047 10.224078144 2.385486720
v -0.650615153 10.159082684 2.184603225
v -1.345095707 9.139486577 1.698696176
v -1.021413361 9.107110763 1.806866126
v -0.393220918 9.044276903 2.016798960
v -1.704044065 7.995731564 1.303803955
v -2.228289275 8.651101352 1.269131292
v -2.620265707 8.389759532 1.068091123
v -2.998346842 8.137682102 0.874177690
v -3.014738274 8.126753469 0.865770714
v -3.276906246 8.388954869 0.833156263
v -3.276958776 7.995719625 0.741488169
v -4.325539931 7.864623700 0.336069223
v -4.363589729 7.826576675 0.313599093
v -4.586580286 7.603602365 0.181913061
v -4.849859161 7.340342674 0.026434952
v -5.373865082 7.209332837 -0.191429619
v -5.803907700 6.934287707 -0.409272114
v -5.898533436 6.872652021 -0.457465686
v -5.898528662 6.684960947 -0.501208172
v -5.374109147 6.160613064 -0.435936594
v -4.325580522 5.898473744 -0.122185744
v -4.587684026 4.980995677 -0.429718972
v -3.539052729 3.276908634 -0.451998754
v -3.539081365 3.138612154 -0.484241040
v -3.422326163 2.956704498 -0.484897634
v -3.539074218 2.879984347 -0.544515538
v -3.539038402 2.621543621 -0.604736184
v -2.752644321 1.835106561 -0.506893142
v -2.752591791 2.228341805 -0.415225047
v -1.966123691 2.621555560 -0.042420397
v -1.441842664 2.097236330 0.022808349
v -1.441828338 1.441871317 -0.129929081
v -1.281788300 1.201805976 -0.128665969
v -1.200532154 1.079919075 -0.128024657
v -0.622287790 1.459908229 0.167258348
v -0.424583751 1.159054256 0.167818551
v -0.845638360 0.547566666 -0.125223666
v -0.393216142 -0.131081598 -0.121652935
v -0.539751069 -0.387480230 -0.233796308
v 0.135621673 0.056336143 0.111085726
v 0.131050558 -0.000035816 0.096313242
v 0.488458884 -0.268004174 0.161631802
v 0.688041097 0.021487182 0.300452195
v 1.146989057 -0.676911888 0.301752644
v 0.131029068 -0.786451386 -0.086980272
v 0.305846806 -0.917575040 -0.055043691
v 0.131115027 -1.179715283 -0.178605536
v 0.655379339 -1.966219200 -0.174488800
v 1.179643651 -1.441854603 0.135145315
v 0.897330274 -1.371274330 0.050668783
v 1.441861766 -0.917501944 0.351095800
v 1.822359135 -1.202897497 0.420606967
v 2.228277336 -0.917523434 0.632232356
v 2.490476349 -1.572905161 0.573221388
v 1.531766961 -1.572907548 0.230484666
v 1.692667707 -1.886328323 0.214958905
v 1.179677080 -2.228353744 -0.048148043
v 1.179708120 -2.621534070 -0.139773462
v 1.966138017 -3.276920572 -0.011374337
v 1.441873705 -2.490416656 -0.015491072
v 2.125178452 -2.661293022 0.188963360
v 2.457728633 -3.167347645 0.189905655
v 2.633186867 -2.871586024 0.321563167
v 2.490485900 -4.063369571 -0.007214926
v 2.396676561 -3.969578173 -0.018892047
v 2.296851564 -4.035177457 -0.069868117
v 3.276949225 -5.505255214 -0.062109159
v 5.374178392 -5.505193133 0.687659397
v 4.063429264 -6.684956171 -0.055891380
v 4.849842447 -6.291658846 0.316913114
v 5.015102747 -6.539583167 0.318210805
v 5.374106760 -7.078162763 0.321029849
v 5.898531050 -5.767411248 0.814000310
v 6.264725293 -5.401200994 1.030264560
v 7.209232422 -4.456652570 1.588064495
v 7.776736723 -4.513388838 1.777722607
v 8.340887453 -4.072880000 2.082072186
v 7.995698135 -3.670120001 2.052537084
v 8.442770940 -3.558355108 2.238412942
v 8.236805058 -3.244928766 2.237829329
v 6.422800138 -4.718815767 1.245815928
v 5.896728314 -4.716191651 1.058358180
v 6.212611174 -4.508611486 1.219665139
v 5.898519111 -4.194496536 1.180587182
v 5.939678374 -4.122457094 1.212091376
v 6.453253246 -3.784965035 1.474350622
v 6.281676869 -3.523870549 1.473864453
v 6.422752383 -3.276951613 1.581846717
v 6.684937070 -3.276968327 1.675573179
v 7.062539755 -2.993753415 1.876572620
v 7.204948835 -3.210462885 1.876976142
v 7.934686860 -2.730920754 2.249620045
v 7.742873472 -2.439030816 2.249076534
v 7.995705299 -2.228339417 2.388568028
v 8.519950210 -2.621511760 2.484349594
v 8.519956612 -2.621510193 2.484352248
v 7.439776131 -1.155478205 2.439871010
v 6.910848420 -0.437612148 2.418090049
v 6.684996763 -0.131083986 2.408789598
v 6.422778648 0.655431869 2.498356494
v 6.422781036 0.262113054 2.406688555
v 5.898553839 0.262157443 2.219289012
v 6.422812077 -0.131067272 2.315063136
v 6.684925131 -1.704053615 2.042160051
v 6.886376137 -1.855092307 2.078976462
v 7.209270626 -2.097183799 2.137987401
v 7.209263606 -2.207753680 2.112214938
v 6.746055793 -2.512147386 1.875675849
v 6.990238575 -2.883729880 1.876367751
v 6.527054317 -2.059250903 1.902937632
v 6.025348500 -0.780105625 2.021702890
v 6.129238292 -0.938198787 2.021997266
v 4.587724617 -1.703977208 1.292434015
v 5.603648790 -1.725488267 1.650610848
v 5.173093327 -1.070295171 1.649390851
v 5.626881402 -0.772091579 1.881119709
v 5.476461579 -0.543191848 1.880693488
v 5.077579354 -0.805314453 1.677002541
v 4.648726342 -0.152712044 1.675787368
v 5.410416969 0.343759092 2.063799801
v 5.898485683 1.441797297 2.494197239
v 5.897843494 1.442714634 2.494181457
v 5.629913108 1.825471206 2.487604131
v 5.898452255 2.228296438 2.677490597
v 6.071825326 2.081369864 2.705227608
v 5.210879153 3.391505345 2.702788080
v 5.095520040 3.315697927 2.643879445
v 4.789275289 4.033076441 2.701593447
v 4.441041592 4.562997286 2.700606712
v 3.928848239 4.534202479 2.510787835
v 3.801230252 4.980883454 2.569270366
v 3.014797967 6.029588771 2.532539180
v 3.247678044 6.378985293 2.697225264
v 1.986491027 8.298182928 2.693651636
v 1.441837889 8.388990685 2.520103623
v 1.180251268 8.846744041 2.533273292
v 0.655391278 8.782192501 2.330592487
v 0.655374564 8.520007815 2.269480475
v 0.896594351 8.319168512 2.308907352
v 0.917523434 8.388940543 2.332650854
v 1.703989147 7.864604598 2.491606063
v 1.560980227 7.623541246 2.384297343
v 2.053801134 6.873596388 2.385693772
v 0.714251208 6.592574900 1.841311852
v 0.366182264 7.122245033 1.840325584
v -0.457739769 6.580810555 1.419586207
v -0.582348231 6.770432128 1.419233124
v -1.705703537 6.032227213 0.845586840
v -1.642932504 6.007903408 0.862358301
v -1.561314153 6.061538324 0.904037067
v -1.212355552 6.139125882 1.046871812
v -1.281991308 6.245093337 1.046674496
v 0.510293876 4.106640672 1.189013724
v 0.825194692 3.870476808 1.246548467
v 0.621834121 4.179938547 1.245972236
v 4.063357632 4.063400612 2.449147231
v 4.583813357 3.319894755 2.461923743
v 4.095169359 3.359648252 2.296499900
v 3.245089745 2.801024505 1.862403040
v 4.587753270 1.835087459 2.117275854
v 4.807908605 1.243503152 2.058103314
v 5.301018346 0.493118763 2.059500562
v 3.276982653 -0.131091149 1.190431563
v 3.512617998 -0.318205967 1.231060710
v 3.567476082 -0.239738915 1.268960248
v 3.268432192 0.215327874 1.268112894
v 3.693631540 0.494744588 1.485242795
v 3.769449566 0.441660795 1.499975579
v 3.265736445 1.852052280 1.648612109
v 2.978432060 2.277965003 1.645166810
v 2.969424730 2.260296772 1.637828868
v 2.224000912 1.770446834 1.257174947
v 2.752632383 1.048676664 1.277940091
v 3.395187474 1.022876336 1.501638750
v 3.276985041 0.786458550 1.404281004
v 3.528052906 0.610674038 1.453067935
v 4.325535156 -3.539059892 0.771008670
v 4.063336143 -2.883678165 0.830019638
v 2.259721352 -0.110458775 0.831571919
v 2.494836344 3.013871528 1.643796520
v 2.795621073 2.556155637 1.644648807
v 3.216733064 2.832886374 1.859691481
v 2.814515180 3.444957067 1.858551779
v 1.628314822 2.665453975 1.252813396
v 2.312469719 4.401499478 1.902008224
v 2.000602511 4.934258252 1.914683838
v 1.451293299 4.573283627 1.634176694
v 1.642901464 4.281705985 1.634719624
v 0.914834850 3.803262210 1.262929235
v 0.917542536 3.408011722 1.171778228
v 0.567974993 3.408010851 1.046808518
v 0.917525822 3.145827035 1.110666216
v 0.927549751 2.779794878 1.028940514
v 1.184060952 2.948359381 1.159929076
v 1.642953994 2.250043883 1.161229370
v 1.966166670 0.262144095 0.813467502
v 1.601539061 0.019092231 0.626467212
v 1.740306525 -0.192075650 0.626860416
v 2.228298826 -0.131107863 0.815525869
v 0.655417543 0.393249571 0.375434105
v 1.179736773 0.917530597 0.685068376
v 1.179686631 1.441845052 0.807249723
v 1.466555238 2.125161590 1.069061590
v 0.131069660 1.179698569 0.371274694
v 0.870764518 1.835101786 0.788465179
v 0.474972016 2.437394725 0.787343683
v 0.382125137 2.376381062 0.739931020
v -0.062816399 2.588953495 0.630408717
v 0.360544834 1.944708141 0.631608330
v -0.655360237 1.835085071 0.242875569
v -0.093974414 2.747382896 0.656194132
v -0.655393665 2.621584213 0.426168927
v -1.214079493 5.355300999 0.863573474
v -1.796785632 6.009183527 0.807654550
v -2.194283225 5.920803795 0.644951963
v -1.475848714 4.827533886 0.646987678
v -2.490416656 4.718789502 0.258937728
v -2.479265957 4.308505866 0.167301378
v -3.539067055 3.932273646 -0.299261323
v -3.259107981 4.494999632 -0.068025017
v -3.506388583 4.871296201 -0.068725697
v -3.047250019 4.920840376 0.106962177
v -3.018642212 4.978342909 0.130591214
v -3.407954416 5.570774524 0.129488081
v -3.687832181 5.386854850 -0.013432719
v -4.934850409 7.284491283 -0.016966199
v -4.395087247 7.312199915 0.182455665
v -3.939545694 7.335585048 0.350760863
v -3.506016097 7.620475926 0.572144641
v 3.265567563 -3.398592657 0.424810930
v 3.276887144 -3.408026048 0.426659060
v 5.374147351 -5.112012807 0.779284816
v 6.160620227 -2.883699655 1.579788349
v -0.883109082 6.507215942 1.250365443
v -0.454256071 5.854613533 1.251580616
v 0.393194653 4.194460720 1.167618817
v 2.720875574 5.559308645 2.317856903
v 3.812454970 2.211324454 1.927796306
v 3.266201415 1.835073525 1.644821183
v 1.735012922 2.514558993 1.255789378
v 1.037893676 3.563920936 1.251140412
v 2.228286887 1.441806848 1.182112741
v 2.490483512 1.179743936 1.214769712
v -0.131129353 1.835080296 0.430285662
v -0.116547400 3.429850543 0.807183570
v -0.917575964 8.388945318 1.676608605
v 5.896739724 -4.718796601 1.057755137
v 3.276970715 1.441823562 1.557018435
v 4.849830509 -4.718744135 0.683499986
v 4.714789427 -4.786270723 0.619485069
v 3.413553643 4.505233323 2.319819637
v 3.799530188 1.051229147 1.652798285
v 2.490497839 -0.786489590 0.756514901
v 2.457370473 -0.411229177 0.832131966
v 2.846040378 0.649968743 1.218408407
v 3.215856767 0.087204673 1.219456298
v 2.783985665 -0.896962691 0.835688654
v 2.951539838 -1.151936433 0.836163426
v 3.618671459 -0.684824971 1.183528548
v 5.044832091 3.282388704 2.617995424
v 2.783546322 -4.498041481 -0.003753317
v 3.603540539 -3.959188138 0.414980304
v 4.032393551 -4.611790547 0.416195477
v 3.212399334 -5.150643890 -0.002538143
v 5.112019970 -2.883661451 1.204925331
v 5.112074888 3.276918185 2.640759567
v 4.587758046 -2.490476349 1.109140657
v 4.587747778 -2.248890807 1.165442086
v -0.075910514 3.438559376 0.823740877
v -0.097553095 3.408049925 0.808893029
v -0.041166852 3.408009334 0.829041506
v -0.063053294 3.441314789 0.828979490
v -0.068296240 3.449293185 0.828964634
v 0.454322927 2.468817251 0.787285173
v 0.928760091 2.735598317 1.019072542
v 0.883078042 3.782393450 1.246712482
v -0.859451454 8.044111748 1.617019383
v -0.917544923 7.995764992 1.584983186
v -0.827654054 7.995724400 1.617109483
v -0.726549051 7.841868960 1.617395968
v -0.662698506 7.995724811 1.676080767
v 2.874685974 3.484497875 1.889278257
v 2.952065138 3.366746973 1.889497515
v 3.539024076 4.194484598 2.292250390
v 2.778487883 4.024019365 1.980631183
v 2.561862311 3.975465293 1.891871845
v 2.555009526 3.970962035 1.888372440
v 1.159671809 6.947074722 2.083170033
v 1.132838862 6.947075708 2.073577552
v 1.146941302 6.925615472 2.073617512
v 1.703986759 6.947054899 2.277756621
v 1.704039289 7.340290144 2.369424716
v 1.488743298 7.501774883 2.330093365
v 0.887349691 1.809863480 0.788512173
v 0.917554474 1.835097010 0.805191356
v 2.785683341 0.653502583 1.197654534
v 2.815396252 0.696601109 1.218321576
v 3.753960362 -0.523519341 1.269488659
v 3.763320263 -0.517368548 1.274268334
v 3.735178478 -0.494938213 1.269435440
v 5.837402776 -0.306001918 2.065009684
v 5.687680533 -0.078163723 2.064585439
v 5.436920771 -0.483021053 1.880581448
v 5.464016731 0.262194237 2.063951678
v 5.374180779 0.262151258 2.031825537
v 5.505345912 0.262190734 2.078725939
v 5.476483069 0.243223723 2.063987002
v 2.490445309 -6.029519527 -0.465469892
v 2.752596567 -6.553905614 -0.493967453
v 8.277888968 -5.011449364 1.840802854
v 7.995693360 -5.505219398 1.624838201
v 8.223712928 -5.239184800 1.768357932
v 8.339086612 -5.104576213 1.840976260
v 8.406051015 -5.206478567 1.841166007
v 8.554271739 -5.147606697 1.907875502
v 9.044331820 -4.456657345 2.244106744
v 8.730145059 -4.527057996 2.115377859
v 8.478182489 -4.583515910 2.012143527
v 8.058476331 -4.677560569 1.840181139
v 5.835678835 -1.089826802 1.881711346
v 5.901494223 -0.591631725 2.021351943
v 7.995700523 -2.752570302 2.266386526
v 8.460989430 -3.062777975 2.360427619
v 8.782166236 -3.276906246 2.425341735
v 8.840415424 -3.102152314 2.486894671
v 9.044317494 -2.490423819 2.702361555
v 8.519967223 -2.621524519 2.484352703
v 8.442770940 -3.558355108 2.078410748
v 7.995698135 -3.670120001 1.892275389
v 8.340887453 -4.072880000 1.921784130
v 8.406051015 -5.206478567 1.680382692
v 8.339086612 -5.104576213 1.680209078
v 8.223712928 -5.239184800 1.607474749
v 7.995693360 -5.505219398 1.463725760
v 8.139057063 -5.254369638 1.573625074
v 8.277888968 -5.011449364 1.680050416
v 8.058476331 -4.677560569 1.679481562
v 7.776736723 -4.513388838 1.616968258
v 7.209232422 -4.456652570 1.427072814
v 6.264725293 -5.401200994 0.868396219
v 5.898531050 -5.767411248 0.651792081
v 5.374106760 -7.078162763 0.157970340
v 4.849842447 -6.291658846 0.153974678
v 4.063429264 -6.684956171 -0.219377476
v 5.209441895 -5.653467143 0.431733537
v 5.374178392 -5.505193133 0.525329143
v 5.374147351 -5.112012807 0.617136824
v 4.849830509 -4.718744135 0.521290741
v 4.714789427 -4.786270723 0.457181786
v 3.276949225 -5.505255214 -0.225413709
v 2.752596567 -6.553905614 -0.658001740
v 2.490445309 -6.029519527 -0.629382859
v 2.296851564 -4.035177457 -0.232946449
v 1.966121303 -3.539105259 -0.235488344
v 2.490485900 -4.063369571 -0.170216375
v 3.276887144 -3.408026048 0.264326748
v 3.265567585 -3.398592643 0.262477744
v 2.633186867 -2.871586024 0.159180515
v 2.457728633 -3.167347645 0.027304381
v 2.125178452 -2.661293022 0.026442204
v 2.085405024 -2.651346744 0.014527567
v 1.441873705 -2.490416656 -0.178250439
v 1.966138017 -3.276920572 -0.174254777
v 1.179677080 -2.228353744 -0.210907722
v 1.692667707 -1.886328323 0.052596097
v 1.531766961 -1.572907548 0.068192412
v 1.966143591 -1.572906467 0.223682993
v 1.966178608 -1.310770617 0.284911707
v 1.822359144 -1.202897529 0.258621239
v 1.441861766 -0.917501944 0.189065624
v 0.897330274 -1.371274330 -0.111824722
v 1.179643651 -1.441854603 -0.027249762
v 0.305846785 -0.917575064 -0.217601650
v 0.131029068 -0.786451386 -0.249558641
v -0.231704718 -0.877132149 -0.400580092
v -0.543559865 -0.394144606 -0.399421052
v -0.393216142 -0.131081598 -0.284171015
v -0.845638360 0.547566666 -0.287637301
v -1.200532154 1.079919075 -0.290356361
v -1.281788250 1.201805973 -0.290978897
v -1.441828338 1.441871317 -0.292205079
v -1.441839931 1.972229861 -0.168355420
v -1.441842664 2.097236330 -0.139163831
v -1.874639865 2.530065067 -0.193010960
v -1.966123691 2.621555560 -0.204393060
v -2.752591791 2.228341805 -0.577745356
v -2.752644321 1.835106561 -0.669595778
v -3.539038402 2.621543621 -0.767439550
v -3.539074218 2.879984347 -0.707099108
v -4.390073108 2.320756505 -1.142319987
v -4.787128720 2.924971567 -1.143349402
v -4.849871100 2.752594179 -1.206063814
v -4.390658102 2.320372080 -1.142619167
v -4.414893561 2.304445922 -1.155013752
v -3.713593400 1.237250024 -1.153195546
v -2.029420521 -1.366405870 -1.158353377
v -0.179480884 -4.226329752 -1.164018873
v -0.414106392 -5.387924553 -1.519271324
v 1.778211732 -8.724060828 -1.513587474
v -0.195223188 -10.020889489 -2.522848580
v -2.418514944 -6.637619425 -2.528612734
v -2.614686061 -6.373331149 -2.537115708
v -3.152660718 -5.554674061 -2.538510472
v -3.949045062 -4.291617452 -2.528626153
v -5.797783173 -1.375621362 -2.509436101
v -6.771241568 0.074408828 -2.519273914
v -7.347157255 0.868133240 -2.540072614
v -9.371200111 3.794332100 -2.581252362
v -6.953086305 5.383378315 -1.344571998
v -5.898430765 4.718782338 -1.122247457
v -5.279977670 5.829270168 -0.641534245
v -4.681868033 4.919103330 -0.639983574
v -3.539081371 3.138612134 -0.646704722
v -3.539052729 3.276908634 -0.614398302
v -4.587684026 4.980995677 -0.591815653
v -4.325580522 5.898473744 -0.283735326
v -5.374109147 6.160613064 -0.597851744
v -5.898528662 6.684960947 -0.663123855
v -5.898533436 6.872652021 -0.619294358
v -6.776910039 6.300510161 -1.067331209
v -8.171053022 5.373111076 -1.782955497
v -10.229469638 4.026061291 -2.834364883
v -8.467706978 1.345118112 -2.829797299
v -6.031878604 -2.184949589 -2.782234538
v -5.256489570 -3.330656435 -2.772229871
v -5.141558424 -3.411525063 -2.749974013
v -4.587655373 -3.801266068 -2.642713380
v -4.672751681 -4.643587947 -2.869880749
v -3.454125950 -6.498018406 -2.866721314
v -2.892567684 -7.039003992 -2.792040318
v -0.515451201 -10.656355161 -2.785877356
v 0.841034893 -10.238681501 -2.202768193
v 3.877737895 -8.243133814 -0.649726742
v 6.611005787 -6.441362350 0.749444208
v 7.969948856 -0.807078985 2.551659660
v 7.439776131 -1.155478205 2.280516839
v 8.519956638 -2.621510153 2.324820247
v 9.044317494 -2.490423819 2.543133898
v 7.995700523 -2.752570302 2.106550204
v 8.519950210 -2.621511760 2.324817571
v 7.995705299 -2.228339417 2.228974740
v 7.742873472 -2.439030816 2.089268117
v 7.934686860 -2.730920754 2.089765416
v 7.204948835 -3.210462885 1.716560200
v 7.062539755 -2.993753415 1.716190987
v 6.684937070 -3.276968327 1.514884834
v 6.422752383 -3.276951613 1.421036581
v 6.281676869 -3.523870549 1.312874311
v 6.453253246 -3.784965035 1.313319143
v 5.939678374 -4.122457094 1.050664856
v 5.898519111 -4.194496536 1.019108144
v 6.212611174 -4.508611486 1.058186390
v 6.686637133 -4.197108713 1.300614432
v 6.643689035 -3.738437730 1.392353369
v 7.982823495 -2.858435084 2.077218279
v 8.554271739 -5.147606697 1.747188336
v 1.179708120 -2.621534070 -0.302715404
v 0.655379339 -1.966219200 -0.337370518
v 0.131115027 -1.179715283 -0.341366180
v 10.162321897 -4.143298831 2.557343652
v 8.782166236 -3.276906246 2.265627685
v 8.460989430 -3.062777975 2.200663636
v 8.478182489 -4.583515910 1.851682523
v 9.044331820 -4.456657345 2.083967556
v -3.310045550 6.601364134 0.243932511
v -3.493818129 6.881018059 0.243456058
v -3.797266620 6.163206139 -0.032796477
v -3.407954416 5.570774524 -0.031787138
v -3.018642212 4.978342909 -0.030777799
v -3.047250019 4.920840376 -0.054446785
v -3.506388583 4.871296201 -0.230370919
v -3.259107981 4.494999632 -0.229729814
v -3.539067055 3.932273646 -0.461357053
v -2.479265957 4.308505866 0.005872398
v -2.490416656 4.718789502 0.097693774
v -1.475848714 4.827533886 0.486265455
v -2.187416413 5.910354299 0.484420629
v -2.752646709 5.767351555 0.248694451
v -2.531828005 6.134757414 0.413538878
v -3.095302830 6.274581734 0.244489258
v -4.301028812 7.867688134 0.184920840
v -2.392459414 9.121890882 1.161008191
v -3.351649356 8.502694385 0.673054638
v -5.373865082 7.209332837 -0.352858474
v -4.849859161 7.340342674 -0.134689740
v -4.586580286 7.603602365 0.021032722
v -4.363589729 7.826576675 0.152925713
v -4.325539931 7.864623700 0.175431158
v -4.268430206 7.119460940 0.021857564
v -3.939545694 7.335585048 0.190056851
v -4.395087247 7.312199915 0.021529190
v 0.393194653 4.194460720 1.007471367
v -0.068296240 3.449293185 0.668257342
v -0.041166852 3.408009334 0.668327678
v -0.075910553 3.438559364 0.663025055
v -0.116547400 3.429850543 0.646444850
v -0.655393665 2.621584213 0.264805177
v -0.093974414 2.747382896 0.495149509
v 0.141496817 3.130042881 0.668801256
v 0.917542536 3.408011722 1.011509769
v 0.914834850 3.803262210 1.102842755
v 0.883078042 3.782393450 1.086601575
v 0.825194692 3.870476808 1.086451505
v 0.510293876 4.106640672 1.028879959
v -0.097553095 3.408049925 0.648153025
v 0.312545039 3.408010215 0.794943301
v -0.883109082 6.507215942 1.090697270
v -1.281991308 6.245093337 0.886699503
v -1.212355552 6.139125882 0.886880042
v -1.561314153 6.061538324 0.743847220
v -1.642932504 6.007903408 0.702105673
v -1.214079493 5.355300999 0.703217526
v -0.454256071 5.854613533 1.091809123
v 0.895830177 7.307741097 1.914435331
v 1.179722447 7.733558816 2.115498529
v 0.655374564 8.520007815 2.111460127
v 1.180251214 8.846744035 2.375648227
v 1.592675565 8.897467327 2.535125806
v 0.814325746 10.081912703 2.533107840
v 0.344905032 10.022320303 2.351156540
v 0.393280611 9.961860030 2.354353965
v 0.084037880 9.420764458 2.117295607
v 0.374375689 9.170706728 2.162829916
v 0.425056521 9.127057112 2.170778301
v -0.425023093 8.568433366 1.736027561
v -0.131143679 8.651108515 1.860532224
v 0.131055333 7.995726788 1.801339228
v -0.498471068 8.391451308 1.668405631
v -0.859451454 8.044111748 1.458074699
v -0.827654054 7.995724400 1.458157138
v -0.726549051 7.841868960 1.458419265
v -0.917544923 7.995764992 1.425989101
v -1.675620527 7.559345264 1.052710416
v -2.462071914 6.117447682 0.434466593
v -1.579316216 6.697544284 0.885928652
v -1.312086256 6.290889997 0.886621478
v -0.582348231 6.770432128 1.259826695
v -0.457739769 6.580810555 1.260149757
v 0.366182264 7.122245033 1.681522894
v 1.560980227 7.623541246 2.226282095
v 1.703989147 7.864604598 2.333769006
v 0.917523434 8.388940543 2.174691524
v 0.896594351 8.319168512 2.150905954
v 1.488743298 7.501774883 2.171988109
v 1.704039289 7.340290144 2.211344612
v 1.703986759 6.947054899 2.119494191
v 1.159671837 6.947074730 1.924654762
v 1.146941302 6.925615472 1.915086367
v 0.655391278 8.782192501 2.172693693
v 2.053801134 6.873596388 2.227559793
v 0.714251208 6.592574900 1.682425305
v -0.662698506 7.995724811 1.517205052
v 1.251874870 4.024745652 1.275212961
v 1.642901464 4.281705985 1.475193172
v 1.451293299 4.573283627 1.474696405
v 1.381657543 4.679251081 1.474515866
v 0.621834121 4.179938547 1.085924268
v -0.131098312 10.592851095 2.314000601
v -0.824232437 10.137362956 1.959515481
v -0.650615153 10.159082684 2.026736047
v -0.131072047 10.224078144 2.227891027
v 0.073763743 10.361195346 2.333235225
v -0.131088762 9.961893458 2.166657460
v 0.313585349 10.843908960 2.531809610
v 0.294693629 10.872657228 2.531760631
v -0.118312019 10.601253517 2.320539813
v -0.096726403 10.574275523 2.321966514
v 0.317978772 10.837223316 2.531821000
v 0.488458884 -0.268004174 -0.000540173
v 0.413552631 -0.755990059 -0.141312354
v 0.655396053 -0.393166000 0.029988143
v 1.966166670 0.262144095 0.652227770
v 2.490483512 1.179743936 1.054198947
v 2.234498708 1.435598195 1.022315363
v 2.228286887 1.441806848 1.021541664
v 1.179686631 1.441845052 0.646191537
v 1.179736773 0.917530597 0.523767143
v 1.077992413 0.815793651 0.463588057
v 0.669031690 0.406862726 0.221698652
v 1.142330596 0.717887721 0.463754862
v 1.601539061 0.019092231 0.464945415
v -0.117614801 2.615165994 0.455810740
v -0.062816399 2.588953495 0.469305121
v -0.098348209 2.643023640 0.469213001
v 1.003548568 2.829736958 0.907253051
v 1.466555238 2.125161590 0.908453451
v 1.642953994 2.250043883 1.000761072
v 1.184060952 2.948359381 0.999571336
v 2.785683341 0.653502583 1.036976941
v 2.815396252 0.696601109 1.057677766
v 2.752632383 1.048676664 1.117430345
v 2.259721352 -0.110458775 0.670295821
v 2.457370473 -0.411229177 0.670808250
v 3.215856767 0.087204673 1.058716009
v 2.846040378 0.649968743 1.057757215
v 3.528052906 0.610674038 1.292715354
v 3.276985041 0.786458550 1.243893283
v 3.395187474 1.022876336 1.341415542
v 2.969424730 2.260296772 1.477981535
v 2.978432066 2.277964994 1.485331852
v 2.795621073 2.556155637 1.484857892
v 2.494836344 3.013871528 1.484078071
v 1.735012922 2.514558993 1.095486474
v 2.035797650 2.056843102 1.096266295
v 2.224000912 1.770446834 1.096754235
v 1.037893676 3.563920936 1.091000141
v 1.338733322 3.106121474 1.091780105
v 2.524933680 3.885624567 1.698430911
v 2.814515180 3.444957067 1.699181686
v 2.874685974 3.484497875 1.729954448
v 2.555009526 3.970962035 1.729125648
v 2.561862311 3.975465293 1.732630324
v 2.778487883 4.024019365 1.821512805
v 2.464693641 4.501532342 1.820699255
v 2.312469719 4.401499478 1.742848355
v 1.398834872 3.801110865 1.275593972
v 3.266201415 1.835073525 1.484914586
v 3.276970715 1.441823562 1.396934531
v 3.515506173 1.263526885 1.440683815
v 3.799530188 1.051229147 1.492776058
v 4.587753270 1.835087459 1.957983189
v 3.812454970 2.211324454 1.768317899
v 3.265736445 1.852052280 1.488713167
v 5.112074888 3.276918185 2.482378902
v 5.095520040 3.315697927 2.485509069
v 5.044832091 3.282388704 2.459586058
v 4.789275289 4.033076441 2.543413378
v 5.210879153 3.391505345 2.544506437
v 3.603540539 -3.959188138 0.252544222
v 2.783546322 -4.498041481 -0.166820137
v 3.212399334 -5.150643890 -0.165708284
v 4.032393551 -4.611790547 0.253656075
v 2.490497839 -0.786489590 0.595032605
v 2.228298826 -0.131107863 0.654225601
v 1.740306525 -0.192075650 0.465305187
v 1.962637605 -0.530405554 0.465881607
v 1.422552096 -0.885318888 0.189669155
v 2.783985665 -0.896962691 0.674291483
v 2.951539838 -1.151936433 0.674725888
v 3.618671459 -0.684824971 1.022617476
v 3.276894307 -0.655376951 0.907151192
v 3.512617998 -0.318205967 1.070270335
v 3.276982653 -0.131091149 1.029618468
v 5.896739742 -4.718796545 0.896032228
v 6.422800138 -4.718815767 1.084337373
v 5.896728314 -4.716191651 0.896636454
v 5.835678835 -1.089826802 1.721642427
v 5.626881402 -0.772091579 1.721101095
v 5.173093327 -1.070295171 1.489023183
v 5.603648790 -1.725488267 1.490139450
v 5.159272975 -1.716079106 1.333267100
v 4.587724617 -1.703977208 1.131500642
v 4.587747778 -2.248890807 1.004256104
v 4.587758046 -2.490476349 0.947842682
v 5.112019970 -2.883661451 1.043688623
v 6.129238292 -0.938198787 1.862135014
v 6.025348500 -0.780105625 1.861865667
v 3.268432192 0.215327874 1.107456426
v 3.567476066 -0.239738890 1.108231733
v 3.857996143 0.175810943 1.309269591
v 5.011436846 0.933786263 1.899166339
v 4.807908605 1.243503152 1.898638667
v 3.769449566 0.441660795 1.339656785
v 3.693631540 0.494744588 1.324913389
v 6.886376155 -1.855092346 1.919040868
v 6.684925131 -1.704053615 1.882200896
v 6.527054317 -2.059250903 1.742740471
v 6.160620227 -2.883699655 1.419038750
v 6.990238575 -2.883729880 1.716003537
v 6.746055793 -2.512147386 1.715370464
v 7.209263577 -2.207753699 1.952265837
v 7.209270626 -2.097183799 1.978089577
v 4.648726342 -0.152712044 1.515601493
v 5.077579354 -0.805314453 1.516713346
v 5.476461579 -0.543191848 1.720711113
v 5.436920771 -0.483021053 1.720608599
v 5.687680533 -0.078163723 1.904916771
v 5.898468012 0.262157450 2.059845356
v 6.422781036 0.262113054 2.247519128
v 6.422778648 0.655431869 2.339369407
v 6.684996763 -0.131083986 2.249559699
v 6.910848420 -0.437612148 2.258822964
v 7.440429150 -0.089601954 2.529663025
v 6.425390825 1.443549891 2.524352448
v 5.897843515 1.442714677 2.335315510
v 5.898485683 1.441797297 2.335331148
v 5.618940935 0.812888285 2.088396602
v 5.410416969 0.343759092 1.904197931
v 5.464016731 0.262194237 1.904336895
v 5.505345912 0.262190734 1.919130354
v 5.476483069 0.243223723 1.904369216
v 5.374180779 0.262151258 1.872169001
v -4.268430206 7.119460940 0.096162645
v -4.395087247 7.312199915 0.095712999
v -4.934850409 7.284491283 -0.103870597
v -3.687832181 5.386854850 -0.099443556
v -3.407954416 5.570774524 0.043516168
v -3.797266620 6.163206139 0.042134070
v -3.493818129 6.881018059 0.317817670
v -3.308366976 7.319705524 0.486300439
v -3.506016097 7.620475926 0.485598764
v -3.939545694 7.335585048 0.264154694
v -0.117614801 2.615165994 0.532769741
v -0.098348209 2.643023640 0.546148789
v -0.093974414 2.747382896 0.572008596
v -0.655360237 1.835085071 0.158755976
v 0.360544834 1.944708141 0.547777906
v -0.062816399 2.588953495 0.546274931
v 0.382125137 2.376381062 0.655992947
v 0.474972016 2.437394725 0.703418523
v 0.454322927 2.468817251 0.703345216
v 0.927549751 2.779794878 0.945066370
v 0.917525822 3.145827035 1.026691921
v 0.567974993 3.408010851 0.962655241
v 0.312545039 3.408010215 0.871259523
v 0.141496817 3.130042881 0.745345895
v -1.796785632 6.009183527 0.722071126
v -1.705703537 6.032227213 0.760025840
v -1.312086256 6.290889997 0.961082962
v -1.579316216 6.697544284 0.960134268
v -2.462071914 6.117447682 0.509228455
v -2.531827961 6.134757394 0.488298693
v -2.752646709 5.767351555 0.323755371
v -2.187416413 5.910354299 0.559291828
v -2.194283225 5.920803795 0.559267451
v -1.092911749 9.960802265 1.893860855
v -2.392459414 9.121890882 1.233570384
v -4.301028812 7.867688134 0.258685670
v -3.276958776 7.995719625 0.654914589
v -3.276906246 8.388954869 0.746478478
v -3.014738274 8.126753469 0.779244544
v -2.998346842 8.137682102 0.787653757
v -2.620265707 8.389759532 0.981618811
v -2.228289275 8.651101352 1.182712498
v -1.863086861 8.194554255 1.207101747
v -1.704044065 7.995731564 1.217723074
v -0.917575964 8.388945318 1.590669862
v -0.393220918 9.044276903 1.930850779
v -1.021413320 9.107110790 1.720704537
v -1.345095665 9.139486567 1.612424607
v -0.650615153 10.159082684 2.098278953
v -0.824232437 10.137362956 2.031100483
v 1.338733322 3.106121474 1.168161022
v 1.628314822 2.665453975 1.169189065
v 2.814515180 3.444957067 1.775092418
v 2.524933680 3.885624567 1.774064374
v -0.662698506 7.995724811 1.590326079
v 0.131055333 7.995726788 1.874340152
v -0.131143679 8.651108515 1.933095288
v -0.498471068 8.391451308 1.741213470
v 3.216733064 2.832886374 1.776520332
v 2.795621073 2.556155637 1.561419092
v 2.978432060 2.277965003 1.562068090
v 3.245089745 2.801024505 1.779249218
v 4.095169359 3.359648252 2.213464302
v 4.583813357 3.319894755 2.379051744
v 4.063357632 4.063400612 2.365915148
v 3.928848239 4.534202479 2.427388838
v 3.413553643 4.505233323 2.236266907
v 2.720875574 5.559308645 2.233807830
v 1.381657543 4.679251081 1.549744054
v 1.451293299 4.573283627 1.549991268
v 2.000602511 4.934258252 1.830574806
v 2.312469719 4.401499478 1.818138083
v 2.464693641 4.501532342 1.895893063
v 2.778487883 4.024019365 1.897007064
v 3.539024076 4.194484598 2.208819322
v 2.952065138 3.366746973 1.806101968
v 2.874685974 3.484497875 1.805827264
v 1.179722447 7.733558816 2.188531804
v 0.895830177 7.307741097 1.987821826
v 1.132838862 6.947075708 1.988663231
v 1.159671809 6.947074722 1.998264117
v 1.488743298 7.501774883 2.245143512
v 0.073763743 10.361195346 2.404521260
v 0.344905032 10.022320303 2.422648464
v 0.814325746 10.081912703 2.604485316
v 0.317978772 10.837223316 2.602723234
v 4.441041592 4.562997286 2.617360523
v 3.247678044 6.378985293 2.613123962
v 3.014797967 6.029588771 2.448457533
v 3.801230252 4.980883454 2.485713008
v 1.441837889 8.388990685 2.434903933
v 1.986491027 8.298182928 2.608646621
v 1.592675565 8.897467327 2.607248536
v 1.180251268 8.846744041 2.447870340
v 1.966121303 -3.539105259 -0.154360428
v 2.296851564 -4.035177457 -0.151507121
v 2.396676561 -3.969578173 -0.100517168
v 0.131050558 -0.000035816 0.012926359
v 0.135621640 0.056336122 0.027685318
v -0.539751108 -0.387480255 -0.317290646
v -0.543559865 -0.394144606 -0.320204920
v -0.231704718 -0.877132149 -0.321059225
v 0.131029068 -0.786451386 -0.170158732
v 0.488458884 -0.268004174 0.078427895
v -0.424583751 1.159054256 0.083950420
v -0.622287790 1.459908229 0.083248550
v -1.200532154 1.079919075 -0.212114873
v -0.845638360 0.547566666 -0.209061623
v 1.146989057 -0.676911888 0.218863392
v 0.688041097 0.021487182 0.217234081
v 0.655396053 -0.393166000 0.109022149
v 0.413552631 -0.755990059 -0.061977389
v 0.669031690 0.406862726 0.300147669
v 0.655417543 0.393249571 0.292107241
v 1.422552096 -0.885318888 0.268945683
v 1.962637605 -0.530405554 0.544817814
v 1.740306525 -0.192075650 0.544028516
v 1.601539086 0.019092193 0.543535878
v 1.142330596 0.717887721 0.541905641
v 1.966178608 -1.310770617 0.364415978
v 1.966143591 -1.572906467 0.303378270
v 2.490476349 -1.572905161 0.490990442
v 2.228277336 -0.917523434 0.549745578
v 1.822359135 -1.202897497 0.338068674
v 1.466555238 2.125161590 0.985529787
v 1.003548568 2.829736958 0.983886067
v 0.928760091 2.735598317 0.935210491
v 0.870764518 1.835101786 0.704823626
v 0.917554474 1.835097010 0.721564461
v 0.887349691 1.809863480 0.704882505
v -0.131129353 1.835080296 0.346330281
v 0.131069660 1.179698569 0.287575145
v 4.325535156 -3.539059892 0.689873643
v 5.112019970 -2.883661451 1.123862959
v 4.063336143 -2.883678165 0.748628780
v 3.567476066 -0.239738890 1.186713325
v 3.735178478 -0.494938213 1.187308685
v 3.763320263 -0.517368548 1.192156339
v 3.753960362 -0.523519341 1.187375363
v 3.512617998 -0.318205967 1.148817400
v 3.276894307 -0.655376951 0.985979599
v 3.618671414 -0.684824970 1.101415609
v 5.301018346 0.493118763 1.977602421
v 5.011436846 0.933786263 1.976574378
v 3.857996143 0.175810943 1.387404441
v 6.212611174 -4.508611486 1.139378189
v 6.422800138 -4.718815767 1.165650530
v 8.236805058 -3.244928766 2.157841517
v 7.982823495 -2.858435084 2.156939857
v 6.643689035 -3.738437730 1.472918769
v 6.686637133 -4.197108713 1.381507536
v 5.901494223 -0.591631725 1.939929395
v 6.025348500 -0.780105625 1.940369090
v 6.422812077 -0.131067272 2.233681819
v 5.898553839 0.262157443 2.137639258
v 5.898468012 0.262157450 2.137608549
v 5.687680533 -0.078163723 1.982959828
v 5.837402776 -0.306001918 1.983491357
v 5.476461579 -0.543191848 1.799124964
v 5.626881402 -0.772091579 1.799658969
v 5.629913108 1.825471206 2.405455892
v 5.897843515 1.442714677 2.412218606
v 6.425390825 1.443549891 2.601175113
v 7.440429150 -0.089601954 2.607449210
v 6.910848420 -0.437612148 2.336942851
v 7.439776131 -1.155478205 2.359079754
v 7.969948856 -0.807078985 2.629888501
v 6.071825326 2.081369864 2.623149970
v 5.898452255 2.228296438 2.595319711
v -1.874639848 2.530065079 -0.031038372
v -1.441839923 1.972229856 -0.006325286
v -0.539751069 -0.387480230 -0.396501327
v -0.539751069 -0.387480230 -2.716356734
v 0.413552653 -0.755990051 0.021120657
v 1.966143552 -1.572906450 0.385773447
v 2.085405006 -2.651346724 0.177062587
v 2.396676575 -3.969578164 -0.181893587
v 5.209441916 -5.653467175 0.594209058
v 5.015102752 -6.539583145 0.155234210
v 8.236805033 -3.244928728 2.077876757
v 6.281676893 -3.523870587 -2.716356734
v 8.519950223 -2.621511759 -2.716356734
v 8.519956612 -2.621510193 -2.716356734
v 5.898553798 0.262157440 2.059876061
v 5.159272952 -1.716079071 1.493940571
v 4.716659646 -0.256088812 1.675979860
v 4.716659646 -0.256088812 1.515777618
v 5.618940927 0.812888297 2.247684115
v 5.897843494 1.442714634 -2.716356734
v 5.619687172 2.769406186 2.703946455
v 6.071825326 2.081369864 -2.716356734
v 5.619687172 2.769406186 -2.716356734
v 5.210879153 3.391505345 -2.716356734
v 4.789275289 4.033076441 -2.716356734
v 4.441041592 4.562997286 -2.716356734
v 3.247678044 6.378985293 -2.716356734
v 1.986491027 8.298182928 -2.716356734
v -1.312086256 6.290889997 1.046589221
v -2.187416415 5.910354301 0.644971420
v -2.187416415 5.910354301 -2.716356734
v -3.310045550 6.601364134 0.404684470
v 0.374375735 9.170706740 -2.716356734
v -0.118312019 10.601253517 -2.716356734
v -0.131098312 10.592851095 -2.716356734
v -0.131095376 10.551690198 2.304389412
v -1.021413361 9.107110763 -2.716356734
v -1.863086852 8.194554261 1.293285147
v -4.301028809 7.867688137 0.345546099
v -4.363589721 7.826576680 -2.716356734
v -5.373865047 7.209332829 -2.716356734
v -5.803907700 6.934287707 -2.716356734
v -5.898533445 6.872652038 -2.716356734
v -3.539081365 3.138612154 -2.716356734
v -3.422326163 2.956704498 -2.716356734
v -3.539074218 2.879984347 -2.716356734
v 2.035797650 2.056843102 1.256641665
v 1.338733322 3.106121474 1.251992854
v 1.398834872 3.801110865 1.435456607
v 1.251874870 4.024745652 1.435040190
v 0.567975004 3.408010814 0.886377663
v 1.003548568 2.829736958 1.067749641
v 1.381657543 4.679251081 1.633979379
v 1.422552075 -0.885318902 0.351693371
v 0.669031722 0.406862747 0.383473893
v 1.077992429 0.815793627 0.624983720
v 2.234498710 1.435598196 1.182886433
v 1.740306507 -0.192075622 -2.716356734
v -1.561314164 6.061538317 -2.716356734
v 5.011436846 0.933786263 2.058680020
v 3.567476082 -0.239738915 -2.716356734
v 3.515506170 1.263526894 1.600739565
v 6.886376137 -1.855092307 -2.716356734
v 7.209263606 -2.207753680 -2.716356734
v -0.063053293 3.441314788 0.668270935
v 1.132838853 6.947075720 1.915049804
v 8.139057109 -5.254369660 1.734554635
v 8.730145048 -4.527058018 1.955060069
v 8.840415431 -3.102152253 2.327288713
v 8.519967223 -2.621524519 -2.716356734
v -4.390073108 2.320756505 -2.716356734
v -4.787128720 2.924971567 -2.716356734
v -4.849871100 2.752594179 -2.716356734
v -4.390658102 2.320372080 -2.716356734
v -4.414893561 2.304445922 -2.716356734
v -3.713593400 1.237250024 -2.716356734
v -2.029420489 -1.366405849 -2.716356734
v -0.179480884 -4.226329752 -2.716356734
v -0.414106392 -5.387924553 -2.716356734
v 1.778211732 -8.724060828 -2.716356734
v -0.195223188 -10.020889489 -2.716356734
v -2.418514944 -6.637619425 -2.716356734
v -2.614686061 -6.373331149 -2.716356734
v -3.152660718 -5.554674061 -2.716356734
v -3.949045062 -4.291617452 -2.716356734
v -5.797783173 -1.375621362 -2.716356734
v -6.771241568 0.074408828 -2.716356734
v -7.347157255 0.868133240 -2.716356734
v -9.371200111 3.794332100 -2.716356734
v -6.953086305 5.383378315 -2.716356734
v -5.898430765 4.718782338 -2.716356734
v -5.279977670 5.829270168 -2.716356734
v -4.681868033 4.919103330 -2.716356734
v -6.776910039 6.300510161 -2.716356734
v -8.171053022 5.373111076 -2.716356734
v -10.229469638 4.026061291 -2.716356734
v -8.467706978 1.345118112 -2.716356734
v -6.031878604 -2.184949589 -2.716356734
v -5.256489570 -3.330656435 -2.716356734
v -5.141558446 -3.411525078 -2.716356734
v -4.587655373 -3.801266068 -2.716356734
v -4.672751681 -4.643587947 -2.716356734
v -3.454125950 -6.498018406 -2.716356734
v -2.892567684 -7.039003992 -2.716356734
v -0.515451201 -10.656355161 -2.716356734
v 0.841034893 -10.238681501 -2.716356734
v 3.877737895 -8.243133814 -2.716356734
v 6.611005787 -6.441362350 -2.716356734
v 10.162321897 -4.143298831 -2.716356734
v 10.138267906 -4.106694931 2.557281289
v 10.138267906 -4.106694931 -2.716356734
v 7.969948856 -0.807078985 -2.716356734
v 3.265567585 -3.398592643 -2.716356734
v 1.822359144 -1.202897529 -2.716356734
v 0.305846785 -0.917575064 -2.716356734
v -1.281788250 1.201805973 -2.716356734
v 8.339086625 -5.104576234 -2.716356734
v -3.047250006 4.920840394 -2.716356734
v -3.351649356 8.502694385 -2.716356734
v -2.392459426 9.121890874 -2.716356734
v 0.312544991 3.408010198 -2.716356734
v -0.075910553 3.438559364 -2.716356734
v 1.180251214 8.846744035 -2.716356734
v 1.592675565 8.897467327 -2.716356734
v 0.814325746 10.081912703 -2.716356734
v -0.824232437 10.137362956 -2.716356734
v -0.096726403 10.574275523 -2.716356734
v 0.317978772 10.837223316 -2.716356734
v 0.313585349 10.843908960 -2.716356734
v 0.294693629 10.872657228 -2.716356734
v 0.488458898 -0.268004195 -2.716356734
v 2.978432066 2.277964994 -2.716356734
v 5.896739742 -4.718796545 -2.716356734
v 5.898553798 0.262157440 -2.716356734
v -2.531827961 6.134757394 -2.716356734
v -1.345095665 9.139486567 -2.716356734
v -1.092911749 9.960802265 -2.716356734
v 0.135621640 0.056336122 -2.716356734
v 1.601539086 0.019092193 -2.716356734
v 0.927549763 2.779794886 -2.716356734
v 3.618671414 -0.684824970 -2.716356734
g roof
f 1 2 912 3
g roof
f 1 3 4
g roof
f 1 4 5
g roof
f 1 5 6
g roof
f 7 8 9
g roof
f 7 9 10
g roof
f 7 10 11
g roof
f 7 11 12
g roof
f 7 12 13
g roof
f 13 14 15
g roof
f 13 15 16
g roof
f 16 17 18
g roof
f 16 18 19
g roof
f 19 20 21
g roof
f 19 21 22
g roof
f 19 22 23
g roof
f 24 918 25 26
g roof
f 24 26 27
g roof
f 24 27 28
g roof
f 28 29 30
g roof
f 30 919 31 32
g roof
f 30 32 33
g roof
f 30 33 34
g roof
f 34 35 36
g roof
f 34 36 37
g roof
f 34 37 38
g roof
f 38 39 40
g roof
f 40 41 42
g roof
f 44 45 46
g roof
f 44 46 47
g roof
f 44 47 48
g roof
f 44 48 49
g roof
f 50 882 51 52
g roof
f 50 52 53
g roof
f 50 53 54
g roof
f 55 56 57
g roof
f 57 58 59
g roof
f 59 60 61
g roof
f 59 61 62
g roof
f 63 885 64 65
g roof
f 63 65 66
g roof
f 63 66 67
g roof
f 67 68 69
g roof
f 70 71 72
g roof
f 73 886 74 75
g roof
f 73 75 76
g roof
f 73 76 77
g roof
f 77 78 79
g roof
f 80 81 82
g roof
f 83 84 85
g roof
f 83 85 86
g roof
f 87 889 88 89
g roof
f 87 89 90
g roof
f 87 90 91
g roof
f 87 91 92
g roof
f 87 92 93
g roof
f 87 93 94
g roof
f 94 95 96
g roof
f 94 96 97
g roof
f 97 98 99
g roof
f 97 99 100
g roof
f 101 102 103
g roof
f 104 105 106
g roof
f 107 108 109
g roof
f 109 110 111
g roof
f 109 111 112
g roof
f 109 112 113
g roof
f 113 114 115
g roof
f 113 115 116
g roof
f 113 116 117
g roof
f 113 117 118
g roof
f 118 119 120
g roof
f 118 120 121
g roof
f 118 121 122
g roof
f 118 122 123
g roof
f 118 123 124
g roof
f 118 124 125
g roof
f 126 127 128
g roof
f 129 123 122
g roof
f 122 130 131
g roof
f 132 896 133 134
g roof
f 134 135 136
g roof
f 134 136 137
g roof
f 134 137 897 138
g roof
f 139 899 140 141
g roof
f 143 144 901 145
g roof
f 146 147 148
g roof
f 149 150 151
g roof
f 151 152 153
g roof
f 151 153 154
g roof
f 154 155 156
g roof
f 154 156 157
g roof
f 157 158 159
g roof
f 160 161 162
g roof
f 163 164 165
g roof
f 166 909 167 168
g roof
f 166 168 169
g roof
f 169 170 171
g roof
f 172 173 174
g roof
f 149 175 176
g roof
f 176 177 178
g roof
f 179 180 940 181
g roof
f 182 183 184
g roof
f 182 184 185
g roof
f 186 187 180
g roof
f 188 178 189
g roof
f 188 189 190
g roof
f 191 192 193
g roof
f 193 194 195
g roof
f 196 197 198
g roof
f 199 200 201
g roof
f 199 201 202
g roof
f 199 202 203
g roof
f 204 205 206
g roof
f 204 206 207
g roof
f 204 207 930 208
g roof
f 209 210 211
g roof
f 209 211 212
g roof
f 209 212 932 213
g roof
f 209 213 214
g roof
f 215 216 217
g roof
f 215 217 218
g roof
f 219 935 936 220 221
g roof
f 219 221 222
g roof
f 219 222 223
g roof
f 224 225 226
g roof
f 224 226 227
g roof
f 224 227 228
g roof
f 224 228 229
g roof
f 229 230 231
g roof
f 232 168 167
g roof
f 232 167 233
g roof
f 232 233 234
g roof
f 232 234 910 235
g roof
f 235 236 237
g roof
f 238 239 240
g roof
f 240 241 242
g roof
f 240 242 243
g roof
f 240 243 244
g roof
f 240 244 245
g roof
f 246 247 248
g roof
f 6 7 13
g roof
f 13 16 19
g roof
f 13 19 23
g roof
f 24 28 30
g roof
f 42 43 44
g roof
f 42 44 49
g roof
f 49 881 50 54
g roof
f 55 57 59
g roof
f 55 59 62
g roof
f 63 67 69
g roof
f 73 77 79
g roof
f 73 79 887 80
g roof
f 73 80 82
g roof
f 73 82 249
g roof
f 73 249 250
g roof
f 251 87 94
g roof
f 94 97 100
g roof
f 107 109 113
g roof
f 113 118 125
g roof
f 113 125 126
g roof
f 113 126 128
g roof
f 252 129 122
g roof
f 252 122 131
g roof
f 132 134 138
g roof
f 139 141 142
g roof
f 142 143 145
g roof
f 149 151 154
g roof
f 154 157 159
g roof
f 154 159 160
g roof
f 166 169 171
g roof
f 166 171 253
g roof
f 166 253 254
g roof
f 254 232 255
g roof
f 254 255 172
g roof
f 254 172 174
g roof
f 254 174 933 256
g roof
f 176 178 188
g roof
f 176 188 257
g roof
f 176 257 179
g roof
f 176 179 181
g roof
f 185 186 180
g roof
f 185 180 179
g roof
f 258 188 190
g roof
f 259 199 203
g roof
f 260 929 204 208
g roof
f 260 208 209
g roof
f 260 209 214
g roof
f 214 222 221
g roof
f 214 221 261
g roof
f 214 261 937 262
g roof
f 262 215 218
g roof
f 70 934 219 223
g roof
f 263 224 229
g roof
f 264 255 232
g roof
f 264 232 235
g roof
f 264 235 237
g roof
f 264 237 238
g roof
f 245 246 248
g roof
f 6 13 23
g roof
f 6 23 265
g roof
f 6 265 24
g roof
f 54 55 62
g roof
f 72 73 250
g roof
f 251 94 100
g roof
f 251 100 266
g roof
f 251 266 101
g roof
f 251 101 103
g roof
f 251 103 104
g roof
f 251 104 106
g roof
f 251 106 107
g roof
f 107 113 128
g roof
f 107 128 252
g roof
f 139 142 145
g roof
f 149 154 160
g roof
f 149 160 162
g roof
f 165 166 254
g roof
f 165 254 256
g roof
f 267 258 190
g roof
f 191 927 259 203
g roof
f 203 928 260 214
g roof
f 203 214 262
g roof
f 223 263 229
g roof
f 231 264 238
g roof
f 1 6 24
g roof
f 1 24 30
g roof
f 268 251 107
g roof
f 268 107 252
g roof
f 268 252 131
g roof
f 163 165 256
g roof
f 191 203 262
g roof
f 70 223 229
g roof
f 229 231 238
g roof
f 248 1 30
g roof
f 248 30 34
g roof
f 269 268 131
g roof
f 162 163 256
g roof
f 162 256 270
g roof
f 267 190 191
g roof
f 267 191 193
g roof
f 267 193 195
g roof
f 192 191 262
g roof
f 192 262 218
g roof
f 245 248 34
g roof
f 245 34 38
g roof
f 245 38 40
g roof
f 149 162 270
g roof
f 271 942 267 195
g roof
f 198 192 218
g roof
f 198 218 272
g roof
f 240 245 40
g roof
f 179 271 195
g roof
f 273 198 197
g roof
f 196 198 272
g roof
f 238 240 40
g roof
f 238 40 42
g roof
f 238 42 49
g roof
f 185 179 195
g roof
f 185 195 274
g roof
f 185 274 275
g roof
f 229 238 49
g roof
f 229 49 54
g roof
f 229 54 62
g roof
f 182 185 275
g roof
f 182 275 273
g roof
f 70 229 62
g roof
f 70 62 63
g roof
f 70 63 69
g roof
f 276 182 273
g roof
f 276 273 197
g roof
f 277 276 197
g roof
f 278 277 197
g roof
f 146 148 149
g roof
f 279 149 176
g roof
f 279 176 181
g roof
f 272 70 72
g roof
f 272 72 250
g roof
f 146 149 279
g roof
f 196 272 250
g roof
f 280 250 83
g roof
f 280 83 86
g roof
f 250 280 281
g roof
f 250 281 282
g roof
f 283 280 86
g roof
f 283 86 269
g roof
f 196 250 282
g roof
f 282 283 269
g roof
f 284 196 282
g roof
f 284 282 269
g roof
f 284 269 131
g roof
f 145 146 285
g roof
f 285 279 181
g roof
f 197 284 286
g roof
f 197 286 287
g roof
f 197 287 132
g roof
f 197 132 138
g roof
f 139 145 285
g roof
f 139 285 181
g roof
f 139 181 278
g roof
f 278 197 138
g roof
f 278 138 139
g roof
f 288 289 290
g roof
f 288 290 291
g roof
f 288 291 292
g roof
f 293 225 294
g roof
f 293 294 212
g roof
f 208 173 295
g roof
f 296 297 298
g roof
f 299 300 298
g roof
f 301 302 303
g roof
f 301 303 304
g roof
f 301 304 305
g roof
f 301 305 306
g roof
f 307 308 309
g roof
f 307 310 311
g roof
f 307 311 312
g roof
f 313 314 224
g roof
f 315 274 316
g roof
f 317 318 319
g roof
f 320 321 322
g roof
f 320 322 136
g roof
f 323 139 324
g roof
f 325 323 326
g roof
f 86 327 328
g roof
f 329 947 330 331
g roof
f 329 331 332
g roof
f 332 333 334
g roof
f 332 334 335
g roof
f 332 335 336
g roof
f 332 336 337
g roof
f 337 338 329
g roof
f 337 329 332
g roof
f 135 339 130
g roof
f 135 130 340
g roof
f 114 341 342
g roof
f 114 342 343
g roof
f 114 343 344
g roof
f 345 115 346
g roof
f 346 114 344
g roof
f 346 344 345
g roof
f 347 348 349
g roof
f 350 351 352
g roof
f 350 352 353
g roof
f 354 355 356
g roof
f 357 358 359
g roof
f 357 359 360
g roof
f 357 360 361
g roof
f 361 890 362 363
g roof
f 364 365 366
g roof
f 364 366 367
g roof
f 364 367 368
g roof
f 364 368 369
g roof
f 364 369 370
g roof
f 371 369 372
g roof
f 371 372 373
g roof
f 373 888 374 375
g roof
f 375 376 377 378
g roof
f 378 379 380
g roof
f 378 380 381
g roof
f 378 381 382
g roof
f 383 384 385
g roof
f 385 386 387
g roof
f 385 387 388
g roof
f 385 388 389
g roof
f 389 390 391
g roof
f 392 393 394
g roof
f 395 883 396 397
g roof
f 395 397 398
g roof
f 395 398 399
g roof
f 395 399 400
g roof
f 401 402 403
g roof
f 401 403 404
g roof
f 401 404 405
g roof
f 401 405 406
g roof
f 407 408 409
g roof
f 409 410 411
g roof
f 409 411 412
g roof
f 412 413 414
g roof
f 412 414 415
g roof
f 412 415 416
g roof
f 416 417 418
g roof
f 419 420 421
g roof
f 422 423 424
g roof
f 422 424 425
g roof
f 422 425 426
g roof
f 422 426 427
g roof
f 428 429 430
g roof
f 431 432 433
g roof
f 431 433 434
g roof
f 431 434 435
g roof
f 431 435 436
g roof
f 437 438 439
g roof
f 437 439 440
g roof
f 437 440 441
g roof
f 441 442 443
g roof
f 441 443 444
g roof
f 441 444 445
g roof
f 441 445 446
g roof
f 446 447 448
g roof
f 446 448 449
g roof
f 446 449 450
g roof
f 450 451 452
g roof
f 450 452 453
g roof
f 454 455 456
g roof
f 454 456 457
g roof
f 458 459 460
g roof
f 458 460 461
g roof
f 458 461 462
g roof
f 458 462 463
g roof
f 463 464 465
g roof
f 465 466 467
g roof
f 465 467 468
g roof
f 468 469 470
g roof
f 468 470 471
g roof
f 468 471 472
g roof
f 468 472 473
g roof
f 468 473 474
g roof
f 475 350 353
g roof
f 353 354 356
g roof
f 349 357 361
g roof
f 363 364 370
g roof
f 373 375 378
g roof
f 373 378 382
g roof
f 373 382 476
g roof
f 383 385 389
g roof
f 383 389 391
g roof
f 383 391 477
g roof
f 478 392 394
g roof
f 400 401 406
g roof
f 406 407 409
g roof
f 406 409 412
g roof
f 406 412 416
g roof
f 406 416 418
g roof
f 421 422 427
g roof
f 430 431 436
g roof
f 430 436 437
g roof
f 479 990 454 457
g roof
f 479 457 949 480
g roof
f 463 465 468
g roof
f 463 468 474
g roof
f 361 363 370
g roof
f 371 373 476
g roof
f 476 383 477
g roof
f 477 478 394
g roof
f 395 400 406
g roof
f 395 406 418
g roof
f 419 421 427
g roof
f 428 430 437
g roof
f 428 437 441
g roof
f 458 463 474
g roof
f 458 474 891 347
g roof
f 371 476 477
g roof
f 371 477 394
g roof
f 371 394 395
g roof
f 371 395 418
g roof
f 427 428 441
g roof
f 427 441 446
g roof
f 481 458 347
g roof
f 370 371 418
g roof
f 419 427 446
g roof
f 419 446 450
g roof
f 419 450 453
g roof
f 480 481 347
g roof
f 480 347 349
g roof
f 356 349 361
g roof
f 361 370 418
g roof
f 361 418 419
g roof
f 361 419 453
g roof
f 479 480 349
g roof
f 479 349 356
g roof
f 479 356 482
g roof
f 479 482 948 483
g roof
f 479 483 475
g roof
f 479 475 353
g roof
f 353 356 361
g roof
f 353 361 453
g roof
f 353 453 479
g roof
f 484 485 486
g roof
f 484 486 487
g roof
f 484 487 488
g roof
f 489 490 491
g roof
f 489 491 492 493
g roof
f 489 493 494
g roof
f 489 494 495
g roof
f 489 495 496
g roof
f 497 498 499
g roof
f 499 484 488
g roof
f 497 499 488
g roof
f 488 489 496
g roof
f 488 496 497
g roof
f 500 501 502
g roof
f 503 504 505
g roof
f 503 505 506
g roof
f 503 506 507
g roof
f 507 500 502
g roof
f 507 502 503
g roof
f 508 509 510
g roof
f 511 512 945 513
g roof
f 514 512 511
g roof
f 514 511 515
g roof
f 515 516 517
g roof
f 515 517 518
g roof
f 519 520 521
g roof
f 519 521 522
g roof
f 519 522 523
g roof
f 519 523 511
g roof
f 524 514 515
g roof
f 524 515 518
g roof
f 525 931 519 511
g roof
f 525 511 513
g roof
f 513 524 518
g roof
f 513 518 525
g roof
f 526 527 528
g roof
f 528 529 530
g roof
f 528 530 531
g roof
f 528 531 532
g roof
f 528 532 526
g roof
f 533 534 535
g roof
f 536 537 538
g roof
f 538 539 540
g roof
f 538 540 541
g roof
f 538 541 542
g roof
f 538 542 543
g roof
f 543 544 545
g roof
f 543 545 546
g roof
f 547 548 549
g roof
f 550 549 551
g roof
f 547 545 544
g roof
f 552 498 553
g roof
f 552 553 554
g roof
f 552 554 555
g roof
f 552 555 556
g roof
f 556 557 558
g roof
f 559 560 561
g roof
f 559 561 562
g roof
f 535 534 563
g roof
f 535 563 564
g roof
f 565 566 567
g roof
f 568 536 538
g roof
f 568 538 543
g roof
f 568 543 546
g roof
f 552 556 558
g roof
f 535 568 546
g roof
f 559 562 535
g roof
f 559 535 564
g roof
f 533 535 546
g roof
f 569 559 564
g roof
f 569 564 565
g roof
f 569 565 567
g roof
f 567 946 533 546
g roof
f 570 569 567
g roof
f 570 567 546
g roof
f 558 570 546
g roof
f 552 558 546
g roof
f 551 548 547
g roof
f 551 547 552
g roof
f 571 547 549
g roof
f 550 551 552
g roof
f 550 552 546
g roof
f 571 550 546
g roof
f 522 520 572
g roof
f 522 572 573
g roof
f 522 573 574
g roof
f 522 574 575
g roof
f 522 575 576
g roof
f 577 578 579
g roof
f 577 579 580 916
g roof
f 581 582 539
g roof
f 583 584 585
g roof
f 586 581 587
g roof
f 586 587 583
g roof
f 586 583 585
g roof
f 588 393 589
g roof
f 589 590 588
g roof
f 591 592 593
g roof
f 591 593 594
g roof
f 591 594 595
g roof
f 591 595 596
g roof
f 591 596 597
g roof
f 597 598 599
g roof
f 599 600 591
g roof
f 599 591 597
g roof
f 601 602 603
g roof
f 604 605 606
g roof
f 604 606 607
g roof
f 608 609 610
g roof
f 608 610 611
g roof
f 608 611 612
g roof
f 608 612 613
g roof
f 614 615 616
g roof
f 614 616 617
g roof
f 614 617 610
g roof
f 614 610 609
g roof
f 614 608 613
g roof
f 618 619 620
g roof
f 618 620 621
g roof
f 618 621 622
g roof
f 618 622 623
g roof
f 618 623 624
g roof
f 625 626 627
g roof
f 627 628 629
g roof
f 627 629 630
g roof
f 631 632 633
g roof
f 631 633 634
g roof
f 631 634 635
g roof
f 631 635 625
g roof
f 625 627 630
g roof
f 625 630 631
g roof
f 636 637 638
g roof
f 636 638 639
g roof
f 636 639 640
g roof
f 636 640 641
g roof
f 636 641 642
g roof
f 643 644 645
g roof
f 646 644 647
g roof
f 648 649 650
g roof
f 648 650 651
g roof
f 652 653 654
g roof
f 652 654 655
g roof
f 652 655 656
g roof
f 652 656 389
g roof
f 657 658 659
g roof
f 657 659 660
g roof
f 657 660 661
g roof
f 657 661 662
g roof
f 663 664 471
g roof
f 663 471 665
g roof
f 666 667 668
g roof
f 666 668 669
g roof
f 670 671 672
g roof
f 670 672 673
g roof
f 670 673 674
g roof
f 674 675 676
g roof
f 676 666 669
g roof
f 669 670 674
g roof
f 669 674 676
g roof
f 677 678 679
g roof
f 677 679 680
g roof
f 680 681 682
g roof
f 682 683 677
g roof
f 682 677 680
g roof
f 684 685 686
g roof
f 684 686 687
g roof
f 687 688 689
g roof
f 687 689 690
g roof
f 687 690 691
g roof
f 687 691 684
g roof
f 692 898 693 694
g roof
f 692 694 695
g roof
f 692 695 696
g roof
f 692 696 697
g roof
f 697 895 698 699
g roof
f 699 700 701
g roof
f 699 701 702
g roof
f 699 702 703
g roof
f 703 704 705
g roof
f 703 705 706
g roof
f 703 706 707
g roof
f 703 707 708
g roof
f 703 708 709
g roof
f 710 708 711
g roof
f 711 707 692
g roof
f 692 697 699
g roof
f 699 703 709
g roof
f 699 709 710
g roof
f 710 711 692
g roof
f 710 692 699
g roof
f 712 713 714
g roof
f 712 714 715
g roof
f 715 716 717
g roof
f 718 719 720
g roof
f 718 720 721
g roof
f 718 721 712
g roof
f 712 715 717
g roof
f 712 717 718
g roof
f 722 723 724
g roof
f 722 724 725
g roof
f 722 725 726
g roof
f 727 728 729
g roof
f 727 729 730
g roof
f 727 730 731
g roof
f 727 731 732
g roof
f 727 732 733
g roof
f 727 733 734
g roof
f 727 734 735
g roof
f 727 735 724
g roof
f 727 724 723
g roof
f 727 722 726
g roof
f 736 737 738
g roof
f 736 738 739
g roof
f 736 739 740
g roof
f 741 742 743
g roof
f 741 743 744
g roof
f 744 736 740
g roof
f 744 740 741
g roof
f 745 746 747
g roof
f 747 748 749
g roof
f 749 750 751
g roof
f 749 751 752
g roof
f 749 752 753
g roof
f 754 755 756
g roof
f 754 756 757
g roof
f 754 757 758
g roof
f 754 758 759
g roof
f 759 760 761
g roof
f 759 761 745
g roof
f 745 747 749
g roof
f 745 749 753
g roof
f 745 753 754
g roof
f 745 754 759
g roof
f 762 763 764
g roof
f 762 764 765
g roof
f 766 767 768
g roof
f 766 768 769
g roof
f 770 771 772
g roof
f 770 772 773
g roof
f 770 773 774
g roof
f 774 775 776
g roof
f 774 776 777
g roof
f 774 777 778
g roof
f 774 778 779
g roof
f 779 780 781
g roof
f 779 781 782
g roof
f 779 782 783
g roof
f 779 783 784
g roof
f 779 784 785
g roof
f 779 785 786
g roof
f 787 788 764
g roof
f 787 764 770
g roof
f 787 770 774
g roof
f 774 779 786
g roof
f 774 786 787
g roof
f 789 790 791
g roof
f 789 791 792
g roof
f 789 792 793
g roof
f 794 795 796
g roof
f 794 796 797
g roof
f 798 799 800
g roof
f 798 800 801
g roof
f 798 801 777
g roof
f 802 803 804
g roof
f 802 804 805
g roof
f 806 807 808
g roof
f 809 810 811
g roof
f 809 811 812
g roof
f 809 812 813
g roof
f 809 813 814
g roof
f 809 814 815
g roof
f 816 817 818
g roof
f 816 818 819
g roof
f 820 821 815
g roof
f 820 815 822
g roof
f 820 822 823
g roof
f 824 825 826
g roof
f 824 826 827
g roof
f 824 827 828
g roof
f 824 828 829
g roof
f 824 829 830
g roof
f 831 832 833
g roof
f 831 833 834
g roof
f 831 834 835
g roof
f 836 837 731
g roof
f 836 731 838
g roof
f 836 838 729
g roof
f 836 729 839
g roof
f 836 839 840
g roof
f 836 840 841
g roof
f 841 839 842
g roof
f 841 842 843
g roof
f 841 843 836
g roof
f 844 845 846
g roof
f 847 848 849
g roof
f 850 848 847 851
g roof
f 850 851 852
g roof
f 850 852 853
g roof
f 854 855 856
g roof
f 854 856 847
g roof
f 854 847 849
g roof
f 849 850 853
g roof
f 849 853 854
g roof
f 857 858 859
g roof
f 859 860 861
g roof
f 859 861 862
g roof
f 859 862 857
g roof
f 863 864 865
g roof
f 863 865 866
g roof
f 863 866 867
g roof
f 867 868 869
g roof
f 869 870 871
g roof
f 869 871 863
g roof
f 869 863 867
g roof
f 872 873 874
g roof
f 875 876 877
g roof
f 875 877 878
g roof
f 875 878 879
g roof
f 879 880 872
g roof
f 879 872 874
g roof
f 879 874 875
g roof_step_or_fixture_side
f 49 48 405 404
g roof_step_or_fixture_side
f 881 49 404 403
g roof_step_or_fixture_side
f 50 881 403 402
g roof_step_or_fixture_side
f 882 50 402 401
g roof_step_or_fixture_side
f 51 882 401 400
g roof_step_or_fixture_side
f 52 51 400 399
g roof_step_or_fixture_side
f 53 52 399 398 818
g roof_step_or_fixture_side
f 54 53 818 817
g roof_step_or_fixture_side
f 55 54 817 816
g roof_step_or_fixture_side
f 56 55 816 819
g roof_step_or_fixture_side
f 57 56 819 397 396
g roof_step_or_fixture_side
f 58 57 396 883 811
g roof_step_or_fixture_side
f 59 58 811 810
g roof_step_or_fixture_side
f 60 59 810 809
g roof_step_or_fixture_side
f 61 60 809 815
g roof_step_or_fixture_side
f 62 61 815 821
g roof_step_or_fixture_side
f 63 62 821 820
g roof_step_or_fixture_side
f 885 63 820 823
g roof_step_or_fixture_side
f 64 885 823 589 393 814
g roof_step_or_fixture_side
f 65 64 814 393 392
g roof_step_or_fixture_side
f 66 65 392 478
g roof_step_or_fixture_side
f 67 66 478 477
g roof_step_or_fixture_side
f 68 67 477 391
g roof_step_or_fixture_side
f 69 68 391 390
g roof_step_or_fixture_side
f 70 69 390 389
g roof_step_or_fixture_side
f 71 70 389 388 835
g roof_step_or_fixture_side
f 72 71 835 834
g roof_step_or_fixture_side
f 73 72 834 833
g roof_step_or_fixture_side
f 886 73 833 832
g roof_step_or_fixture_side
f 74 886 832 386 385
g roof_step_or_fixture_side
f 75 74 385 384
g roof_step_or_fixture_side
f 76 75 384 383
g roof_step_or_fixture_side
f 77 76 383 476
g roof_step_or_fixture_side
f 78 77 476 382
g roof_step_or_fixture_side
f 79 78 382 381
g roof_step_or_fixture_side
f 887 79 381 380
g roof_step_or_fixture_side
f 80 887 380 379
g roof_step_or_fixture_side
f 81 80 379 378
g roof_step_or_fixture_side
f 82 81 378 377
g roof_step_or_fixture_side
f 249 82 377 376
g roof_step_or_fixture_side
f 250 249 376 375
g roof_step_or_fixture_side
f 83 250 375 374
g roof_step_or_fixture_side
f 84 83 374 888 808
g roof_step_or_fixture_side
f 85 84 808 807
g roof_step_or_fixture_side
f 86 85 807 372 369
g roof_step_or_fixture_side
f 269 86 369 368
g roof_step_or_fixture_side
f 268 269 368 367
g roof_step_or_fixture_side
f 251 268 367 366
g roof_step_or_fixture_side
f 87 251 366 365
g roof_step_or_fixture_side
f 889 87 365 364
g roof_step_or_fixture_side
f 88 889 364 363
g roof_step_or_fixture_side
f 89 88 363 362
g roof_step_or_fixture_side
f 90 89 362 890
g roof_step_or_fixture_side
f 91 90 890 361
g roof_step_or_fixture_side
f 92 91 361 360
g roof_step_or_fixture_side
f 93 92 360 359
g roof_step_or_fixture_side
f 94 93 359 358
g roof_step_or_fixture_side
f 95 94 358 357
g roof_step_or_fixture_side
f 96 95 357 349
g roof_step_or_fixture_side
f 97 96 349 348
g roof_step_or_fixture_side
f 98 97 348 347
g roof_step_or_fixture_side
f 99 98 347 891 859
g roof_step_or_fixture_side
f 100 99 859 858
g roof_step_or_fixture_side
f 266 100 858 664 663
g roof_step_or_fixture_side
f 101 266 663 665
g roof_step_or_fixture_side
f 102 101 665 471 857
g roof_step_or_fixture_side
f 103 102 857 471 470
g roof_step_or_fixture_side
f 104 103 470 469
g roof_step_or_fixture_side
f 105 104 469 468
g roof_step_or_fixture_side
f 106 105 468 467
g roof_step_or_fixture_side
f 107 106 467 466
g roof_step_or_fixture_side
f 108 107 466 465
g roof_step_or_fixture_side
f 109 108 465 464
g roof_step_or_fixture_side
f 110 109 464 463
g roof_step_or_fixture_side
f 111 110 463 462
g roof_step_or_fixture_side
f 112 111 462 461
g roof_step_or_fixture_side
f 113 112 461 460
g roof_step_or_fixture_side
f 114 113 460 459
g facade_completed
f 115 114 459 893 894 456
g roof_step_or_fixture_side
f 116 115 456 455 877
g roof_step_or_fixture_side
f 117 116 877 876
g roof_step_or_fixture_side
f 118 117 876 701 700
g roof_step_or_fixture_side
f 119 118 700 699
g roof_step_or_fixture_side
f 120 119 699 698
g roof_step_or_fixture_side
f 121 120 698 895 866
g roof_step_or_fixture_side
f 122 121 866 865
g roof_step_or_fixture_side
f 130 122 865 864
g roof_step_or_fixture_side
f 131 130 864 676 675
g roof_step_or_fixture_side
f 284 131 675 674 845
g roof_step_or_fixture_side
f 286 284 845 674 673
g roof_step_or_fixture_side
f 287 286 673 672
g roof_step_or_fixture_side
f 132 287 672 671
g roof_step_or_fixture_side
f 896 132 671 670
g roof_step_or_fixture_side
f 133 896 670 669
g roof_step_or_fixture_side
f 134 133 669 668
g roof_step_or_fixture_side
f 135 134 668 667 871
g roof_step_or_fixture_side
f 136 135 871 870
g roof_step_or_fixture_side
f 137 136 870 694 693
g roof_step_or_fixture_side
f 897 137 693 898
g roof_step_or_fixture_side
f 138 897 898 692
g roof_step_or_fixture_side
f 139 138 692 707
g roof_step_or_fixture_side
f 899 139 707 706
g roof_step_or_fixture_side
f 140 899 706 705
g roof_step_or_fixture_side
f 141 140 705 704 873
g roof_step_or_fixture_side
f 142 141 873 872
g roof_step_or_fixture_side
f 143 142 872 880
g roof_step_or_fixture_side
f 144 143 880 879
g facade_completed
f 901 144 879 902 903
g facade_completed
f 145 901 903 904 647
g roof_step_or_fixture_side
f 146 145 647 644
g roof_step_or_fixture_side
f 147 146 644 646
g facade_completed
f 148 147 646 905 906 798
g roof_step_or_fixture_side
f 149 148 798 777
g roof_step_or_fixture_side
f 150 149 777 801
g roof_step_or_fixture_side
f 151 150 801 800
g roof_step_or_fixture_side
f 152 151 800 799
g facade_completed
f 153 152 799 907 908 803
g roof_step_or_fixture_side
f 154 153 803 802
g roof_step_or_fixture_side
f 155 154 802 805
g roof_step_or_fixture_side
f 156 155 805 536 568
g roof_step_or_fixture_side
f 157 156 568 535
g roof_step_or_fixture_side
f 158 157 535 562
g roof_step_or_fixture_side
f 159 158 562 561
g roof_step_or_fixture_side
f 160 159 561 560
g roof_step_or_fixture_side
f 161 160 560 559
g roof_step_or_fixture_side
f 162 161 559 569
g roof_step_or_fixture_side
f 163 162 569 570
g roof_step_or_fixture_side
f 164 163 570 558
g roof_step_or_fixture_side
f 165 164 558 557
g roof_step_or_fixture_side
f 166 165 557 556
g roof_step_or_fixture_side
f 909 166 556 555 738
g roof_step_or_fixture_side
f 167 909 738 737
g roof_step_or_fixture_side
f 233 167 737 736
g roof_step_or_fixture_side
f 234 233 736 744
g roof_step_or_fixture_side
f 910 234 744 743
g roof_step_or_fixture_side
f 235 910 743 496 495
g roof_step_or_fixture_side
f 236 235 495 494
g roof_step_or_fixture_side
f 237 236 494 493
g roof_step_or_fixture_side
f 238 237 493 492
g roof_step_or_fixture_side
f 239 238 492 491
g roof_step_or_fixture_side
f 240 239 491 490
g roof_step_or_fixture_side
f 241 240 490 489
g roof_step_or_fixture_side
f 242 241 489 488
g roof_step_or_fixture_side
f 243 242 488 487 716
g roof_step_or_fixture_side
f 244 243 716 715
g roof_step_or_fixture_side
f 245 244 715 714
g roof_step_or_fixture_side
f 246 245 714 713
g roof_step_or_fixture_side
f 247 246 713 510 509 721
g roof_step_or_fixture_side
f 248 247 721 720
g roof_step_or_fixture_side
f 1 248 720 719
g roof_step_or_fixture_side
f 2 1 719 718
g roof_step_or_fixture_side
f 912 2 718 485 484
g roof_step_or_fixture_side
f 3 912 484 499
g roof_step_or_fixture_side
f 4 3 499 498 741
g roof_step_or_fixture_side
f 5 4 741 498 552
g roof_step_or_fixture_side
f 6 5 552 547 769
g roof_step_or_fixture_side
f 7 6 769 547 544
g roof_step_or_fixture_side
f 8 7 544 543
g roof_step_or_fixture_side
f 9 8 543 542
g roof_step_or_fixture_side
f 10 9 542 541
g roof_step_or_fixture_side
f 11 10 541 540
g roof_step_or_fixture_side
f 12 11 540 539 795
g roof_step_or_fixture_side
f 13 12 795 539 582
g roof_step_or_fixture_side
f 14 13 582 581 794
g roof_step_or_fixture_side
f 15 14 794 581 586
g roof_step_or_fixture_side
f 16 15 586 585
g facade_completed
f 17 16 585 914 915 577
g roof_step_or_fixture_side
f 18 17 577 916
g roof_step_or_fixture_side
f 19 18 916 580
g roof_step_or_fixture_side
f 20 19 580 579 760
g roof_step_or_fixture_side
f 21 20 760 759
g roof_step_or_fixture_side
f 22 21 759 758
g roof_step_or_fixture_side
f 23 22 758 757
g roof_step_or_fixture_side
f 265 23 757 756
g roof_step_or_fixture_side
f 24 265 756 755
g roof_step_or_fixture_side
f 918 24 755 754
g roof_step_or_fixture_side
f 25 918 754 753
g roof_step_or_fixture_side
f 26 25 753 752
g roof_step_or_fixture_side
f 27 26 752 751
g roof_step_or_fixture_side
f 28 27 751 750
g roof_step_or_fixture_side
f 29 28 750 749
g roof_step_or_fixture_side
f 30 29 749 748
g roof_step_or_fixture_side
f 919 30 748 747
g roof_step_or_fixture_side
f 31 919 747 500 507
g roof_step_or_fixture_side
f 32 31 507 506
g roof_step_or_fixture_side
f 33 32 506 505
g roof_step_or_fixture_side
f 34 33 505 504
g roof_step_or_fixture_side
f 35 34 504 503
g facade_completed
f 36 35 503 921 922
g facade_completed
f 37 36 922 923 438
g roof_step_or_fixture_side
f 38 37 438 437
g roof_step_or_fixture_side
f 39 38 437 436
g roof_step_or_fixture_side
f 40 39 436 435
g roof_step_or_fixture_side
f 41 40 435 434
g roof_step_or_fixture_side
f 42 41 434 433
g roof_step_or_fixture_side
f 43 42 433 432
g facade_completed
f 44 43 432 924 925
g facade_completed
f 45 44 925 926 408
g roof_step_or_fixture_side
f 46 45 408 407
g roof_step_or_fixture_side
f 47 46 407 406
g roof_step_or_fixture_side
f 48 47 406 405
g roof_step_or_fixture_side
f 149 270 778 777
g roof_step_or_fixture_side
f 175 149 777 776
g roof_step_or_fixture_side
f 176 175 776 775
g roof_step_or_fixture_side
f 177 176 775 774
g roof_step_or_fixture_side
f 178 177 774 773
g roof_step_or_fixture_side
f 189 178 773 772
g roof_step_or_fixture_side
f 190 189 772 619 618
g roof_step_or_fixture_side
f 191 190 618 624
g roof_step_or_fixture_side
f 927 191 624 623
g roof_step_or_fixture_side
f 259 927 623 622
g roof_step_or_fixture_side
f 199 259 622 621
g roof_step_or_fixture_side
f 200 199 621 620 771
g roof_step_or_fixture_side
f 201 200 771 770
g roof_step_or_fixture_side
f 202 201 770 764
g roof_step_or_fixture_side
f 203 202 764 763
g roof_step_or_fixture_side
f 928 203 763 762
g roof_step_or_fixture_side
f 260 928 762 626 625
g roof_step_or_fixture_side
f 929 260 625 635
g roof_step_or_fixture_side
f 204 929 635 634 783
g roof_step_or_fixture_side
f 205 204 783 782
g roof_step_or_fixture_side
f 206 205 782 781
g roof_step_or_fixture_side
f 207 206 781 574 573
g roof_step_or_fixture_side
f 930 207 573 572
g roof_step_or_fixture_side
f 208 930 572 520
g roof_step_or_fixture_side
f 209 208 520 519
g roof_step_or_fixture_side
f 210 209 519 931 733
g roof_step_or_fixture_side
f 211 210 733 732
g roof_step_or_fixture_side
f 212 211 732 731
g roof_step_or_fixture_side
f 932 212 731 837
g roof_step_or_fixture_side
f 213 932 837 604 607
g roof_step_or_fixture_side
f 214 213 607 606
g roof_step_or_fixture_side
f 222 214 606 605 836
g roof_step_or_fixture_side
f 223 222 836 843
g roof_step_or_fixture_side
f 263 223 843 842
g roof_step_or_fixture_side
f 224 263 842 839
g roof_step_or_fixture_side
f 225 224 839 729
g roof_step_or_fixture_side
f 226 225 729 728
g roof_step_or_fixture_side
f 227 226 728 727
g roof_step_or_fixture_side
f 228 227 727 726
g roof_step_or_fixture_side
f 229 228 726 725
g roof_step_or_fixture_side
f 230 229 725 724
g roof_step_or_fixture_side
f 231 230 724 517 516
g roof_step_or_fixture_side
f 264 231 516 515
g roof_step_or_fixture_side
f 255 264 515 511
g roof_step_or_fixture_side
f 172 255 511 523
g roof_step_or_fixture_side
f 173 172 523 522
g roof_step_or_fixture_side
f 174 173 522 576
g roof_step_or_fixture_side
f 933 174 576 575 780
g roof_step_or_fixture_side
f 256 933 780 779
g roof_step_or_fixture_side
f 270 256 779 778
g roof_step_or_fixture_side
f 146 279 645 644
g roof_step_or_fixture_side
f 285 146 644 643
g roof_step_or_fixture_side
f 279 285 643 645
g roof_step_or_fixture_side
f 284 197 846 845
g roof_step_or_fixture_side
f 196 284 845 844
g roof_step_or_fixture_side
f 197 196 844 846
g roof_step_or_fixture_side
f 70 272 652 389
g roof_step_or_fixture_side
f 934 70 389 656 826
g roof_step_or_fixture_side
f 219 934 826 825
g roof_step_or_fixture_side
f 935 219 825 824
g roof_step_or_fixture_side
f 936 935 824 598 597
g roof_step_or_fixture_side
f 220 936 597 596
g roof_step_or_fixture_side
f 221 220 596 595
g roof_step_or_fixture_side
f 261 221 595 594
g roof_step_or_fixture_side
f 937 261 594 593
g roof_step_or_fixture_side
f 262 937 593 592
g roof_step_or_fixture_side
f 215 262 592 591
g roof_step_or_fixture_side
f 216 215 591 600 829
g roof_step_or_fixture_side
f 217 216 829 828
g roof_step_or_fixture_side
f 218 217 828 654 653
g roof_step_or_fixture_side
f 272 218 653 652
g roof_step_or_fixture_side
f 169 168 530 529
g roof_step_or_fixture_side
f 170 169 529 528
g roof_step_or_fixture_side
f 171 170 528 527
g roof_step_or_fixture_side
f 253 171 527 526
g roof_step_or_fixture_side
f 254 253 526 532
g roof_step_or_fixture_side
f 232 254 532 531
g roof_step_or_fixture_side
f 168 232 531 530
g roof_step_or_fixture_side
f 181 940 855 854
g roof_step_or_fixture_side
f 278 181 854 853
g roof_step_or_fixture_side
f 277 278 853 659 658
g roof_step_or_fixture_side
f 276 277 658 657
g roof_step_or_fixture_side
f 182 276 657 662
g roof_step_or_fixture_side
f 183 182 662 661 851
g roof_step_or_fixture_side
f 184 183 851 847
g roof_step_or_fixture_side
f 185 184 847 678 677
g roof_step_or_fixture_side
f 186 185 677 683
g roof_step_or_fixture_side
f 187 186 683 682
g roof_step_or_fixture_side
f 180 187 682 681
g roof_step_or_fixture_side
f 940 180 681 680 855
g roof_step_or_fixture_side
f 194 193 617 616
g roof_step_or_fixture_side
f 195 194 616 615
g roof_step_or_fixture_side
f 274 195 615 614
g roof_step_or_fixture_side
f 275 274 614 613
g roof_step_or_fixture_side
f 273 275 613 612
g roof_step_or_fixture_side
f 198 273 612 611
g roof_step_or_fixture_side
f 192 198 611 610
g roof_step_or_fixture_side
f 193 192 610 617
g roof_step_or_fixture_side
f 271 179 640 639
g roof_step_or_fixture_side
f 942 271 639 638
g roof_step_or_fixture_side
f 267 942 638 637
g roof_step_or_fixture_side
f 258 267 637 636
g roof_step_or_fixture_side
f 188 258 636 642
g roof_step_or_fixture_side
f 257 188 642 641
g roof_step_or_fixture_side
f 179 257 641 640
g roof_step_or_fixture_side
f 283 282 651 650
g roof_step_or_fixture_side
f 280 283 650 649
g roof_step_or_fixture_side
f 281 280 649 648
g roof_step_or_fixture_side
f 282 281 648 651
g roof_step_or_fixture_side
f 124 123 685 684
g roof_step_or_fixture_side
f 125 124 684 691
g roof_step_or_fixture_side
f 126 125 691 690
g roof_step_or_fixture_side
f 127 126 690 689
g roof_step_or_fixture_side
f 128 127 689 688
g roof_step_or_fixture_side
f 252 128 688 687
g roof_step_or_fixture_side
f 129 252 687 686
g roof_step_or_fixture_side
f 123 129 686 685
g roof_step_or_fixture_side
f 291 290 513 945
g roof_step_or_fixture_side
f 292 291 945 512
g roof_step_or_fixture_side
f 288 292 512 514
g roof_step_or_fixture_side
f 289 288 514 524
g roof_step_or_fixture_side
f 290 289 524 513
g roof_step_or_fixture_side
f 212 294 838 731
g roof_step_or_fixture_side
f 293 212 731 730
g roof_step_or_fixture_side
f 225 293 730 729
g roof_step_or_fixture_side
f 294 225 729 838
g roof_step_or_fixture_side
f 208 295 521 520
g roof_step_or_fixture_side
f 173 208 520 522
g roof_step_or_fixture_side
f 295 173 522 521
g roof_step_or_fixture_side
f 296 298 549 548
g roof_step_or_fixture_side
f 297 296 548 551
g roof_step_or_fixture_side
f 298 297 551 549
g roof_step_or_fixture_side
f 299 298 549 550
g roof_step_or_fixture_side
f 300 299 550 571 766
g roof_step_or_fixture_side
f 298 300 766 571 549
g roof_step_or_fixture_side
f 303 302 787 786
g roof_step_or_fixture_side
f 304 303 786 785
g roof_step_or_fixture_side
f 305 304 785 632 631
g roof_step_or_fixture_side
f 306 305 631 630
g roof_step_or_fixture_side
f 301 306 630 629 788
g roof_step_or_fixture_side
f 302 301 788 787
g roof_step_or_fixture_side
f 308 307 792 791
g roof_step_or_fixture_side
f 309 308 791 946 567
g roof_step_or_fixture_side
f 307 309 567 566 792
g roof_step_or_fixture_side
f 312 311 564 563 793
g roof_step_or_fixture_side
f 307 312 793 792
g roof_step_or_fixture_side
f 310 307 792 566 565
g roof_step_or_fixture_side
f 311 310 565 564
g roof_step_or_fixture_side
f 313 224 839 841
g roof_step_or_fixture_side
f 314 313 841 840
g roof_step_or_fixture_side
f 224 314 840 839
g roof_step_or_fixture_side
f 315 316 609 608
g roof_step_or_fixture_side
f 274 315 608 614
g roof_step_or_fixture_side
f 316 274 614 609
g roof_step_or_fixture_side
f 317 319 848 850
g roof_step_or_fixture_side
f 318 317 850 849
g roof_step_or_fixture_side
f 319 318 849 848
g roof_step_or_fixture_side
f 136 322 695 694 870
g roof_step_or_fixture_side
f 320 136 870 869
g roof_step_or_fixture_side
f 321 320 869 868
g roof_step_or_fixture_side
f 322 321 868 696 695
g roof_step_or_fixture_side
f 323 324 711 708
g roof_step_or_fixture_side
f 139 323 708 707
g roof_step_or_fixture_side
f 324 139 707 711
g roof_step_or_fixture_side
f 325 326 710 709
g roof_step_or_fixture_side
f 323 325 709 708
g roof_step_or_fixture_side
f 326 323 708 710
g roof_step_or_fixture_side
f 86 328 370 369
g roof_step_or_fixture_side
f 327 86 369 371
g roof_step_or_fixture_side
f 328 327 371 370
g roof_step_or_fixture_side
f 330 947 354 353
g roof_step_or_fixture_side
f 331 330 353 352
g roof_step_or_fixture_side
f 332 331 352 351
g roof_step_or_fixture_side
f 333 332 351 350
g roof_step_or_fixture_side
f 334 333 350 475
g roof_step_or_fixture_side
f 335 334 475 483
g roof_step_or_fixture_side
f 336 335 483 948
g roof_step_or_fixture_side
f 337 336 948 482
g roof_step_or_fixture_side
f 338 337 482 356
g roof_step_or_fixture_side
f 329 338 356 355
g roof_step_or_fixture_side
f 947 329 355 354
g roof_step_or_fixture_side
f 340 130 864 863
g roof_step_or_fixture_side
f 135 340 863 871
g roof_step_or_fixture_side
f 339 135 871 667 666
g roof_step_or_fixture_side
f 130 339 666 676 864
g roof_step_or_fixture_side
f 343 342 481 480
g roof_step_or_fixture_side
f 344 343 480 949
g roof_step_or_fixture_side
f 345 344 949 457
g roof_step_or_fixture_side
f 115 345 457 456
g facade_completed
f 346 115 456 894 950
g facade_completed
f 114 346 950 893 459
g roof_step_or_fixture_side
f 341 114 459 458
g roof_step_or_fixture_side
f 342 341 458 481
g facade_completed
f 409 408 926 951
g facade_completed
f 410 409 951 952
g facade_completed
f 411 410 952 953
g facade_completed
f 412 411 953 954
g facade_completed
f 413 412 954 955
g facade_completed
f 414 413 955 956
g facade_completed
f 415 414 956 957
g facade_completed
f 416 415 957 958
g facade_completed
f 417 416 958 959
g facade_completed
f 418 417 959 960
g facade_completed
f 419 418 960 961
g facade_completed
f 420 419 961 962
g facade_completed
f 421 420 962 963
g facade_completed
f 422 421 963 964
g facade_completed
f 423 422 964 965
g facade_completed
f 424 423 965 966
g facade_completed
f 425 424 966 967
g facade_completed
f 426 425 967 968
g facade_completed
f 427 426 968 969
g facade_completed
f 428 427 969 970
g facade_completed
f 429 428 970 971
g facade_completed
f 430 429 971 972
g facade_completed
f 431 430 972 973
g facade_completed
f 432 431 973 924
g facade_completed
f 439 438 923 974
g facade_completed
f 440 439 974 975
g facade_completed
f 441 440 975 976
g facade_completed
f 442 441 976 977
g facade_completed
f 443 442 977 978
g facade_completed
f 444 443 978 979
g facade_completed
f 445 444 979 980
g facade_completed
f 446 445 980 981
g facade_completed
f 447 446 981 982
g facade_completed
f 448 447 982 983
g facade_completed
f 449 448 983 984
g facade_completed
f 450 449 984 985
g facade_completed
f 451 450 985 986
g facade_completed
f 452 451 986 987
g facade_completed
f 453 452 987 988
g facade_completed
f 479 453 988 989
g facade_completed
f 990 479 989 991
g facade_completed
f 454 990 991 992
g roof_step_or_fixture_side
f 878 877 455 454
g roof_step_or_fixture_side
f 857 862 472 471
g roof_step_or_fixture_side
f 862 861 473 472
g roof_step_or_fixture_side
f 861 860 474 473
g roof_step_or_fixture_side
f 860 859 891 474
g roof_step_or_fixture_side
f 807 806 373 372
g roof_step_or_fixture_side
f 806 808 888 373
g roof_step_or_fixture_side
f 832 831 387 386
g roof_step_or_fixture_side
f 831 835 388 387
g roof_step_or_fixture_side
f 814 813 394 393
g roof_step_or_fixture_side
f 813 812 395 394
g roof_step_or_fixture_side
f 812 811 883 395
g roof_step_or_fixture_side
f 819 818 398 397
g roof_step_or_fixture_side
f 718 717 486 485
g roof_step_or_fixture_side
f 717 716 487 486
g roof_step_or_fixture_side
f 743 742 497 496
g roof_step_or_fixture_side
f 742 741 498 497
g facade_completed
f 503 502 999 921
g roof_step_or_fixture_side
f 747 746 501 500
g facade_completed
f 502 501 1000 999
g roof_step_or_fixture_side
f 713 712 508 510
g roof_step_or_fixture_side
f 712 721 509 508
g roof_step_or_fixture_side
f 724 735 518 517
g roof_step_or_fixture_side
f 735 734 525 518
g roof_step_or_fixture_side
f 734 733 931 525
g roof_step_or_fixture_side
f 741 740 553 498
g roof_step_or_fixture_side
f 740 739 554 553
g roof_step_or_fixture_side
f 739 738 555 554
g roof_step_or_fixture_side
f 805 804 537 536
g facade_completed
f 538 537 1004 1005
g roof_step_or_fixture_side
f 796 795 539 538
g roof_step_or_fixture_side
f 766 769 547 571
g roof_step_or_fixture_side
f 769 768 545 547
g roof_step_or_fixture_side
f 768 767 546 545
g roof_step_or_fixture_side
f 767 766 571 546
g roof_step_or_fixture_side
f 789 793 563 534
g roof_step_or_fixture_side
f 791 790 533 946
g roof_step_or_fixture_side
f 790 789 534 533
g roof_step_or_fixture_side
f 781 780 575 574
g facade_completed
f 578 577 915 1006
g roof_step_or_fixture_side
f 761 760 579 578
g roof_step_or_fixture_side
f 795 794 581 539
g roof_step_or_fixture_side
f 794 797 587 581
g facade_completed
f 583 587 1008 1009
g facade_completed
f 584 583 1009 1010
g facade_completed
f 585 584 1010 914
g roof_step_or_fixture_side
f 823 822 590 589
g roof_step_or_fixture_side
f 822 815 588 590
g roof_step_or_fixture_side
f 815 814 393 588
g roof_step_or_fixture_side
f 824 830 599 598
g roof_step_or_fixture_side
f 830 829 600 599
g roof_step_or_fixture_side
f 723 722 601 603
g roof_step_or_fixture_side
f 722 727 602 601
g roof_step_or_fixture_side
f 727 723 603 602
g roof_step_or_fixture_side
f 837 836 605 604
g roof_step_or_fixture_side
f 772 771 620 619
g roof_step_or_fixture_side
f 765 764 628 627
g roof_step_or_fixture_side
f 764 788 629 628
g roof_step_or_fixture_side
f 785 784 633 632
g roof_step_or_fixture_side
f 784 783 634 633
g roof_step_or_fixture_side
f 762 765 627 626
g facade_completed
f 646 647 904 905
g roof_step_or_fixture_side
f 828 827 655 654
g roof_step_or_fixture_side
f 827 826 656 655
g roof_step_or_fixture_side
f 853 852 660 659
g roof_step_or_fixture_side
f 852 851 661 660
g roof_step_or_fixture_side
f 858 857 471 664
g roof_step_or_fixture_side
f 856 855 680 679
g roof_step_or_fixture_side
f 847 856 679 678
g roof_step_or_fixture_side
f 874 873 704 703
g roof_step_or_fixture_side
f 868 867 697 696
g roof_step_or_fixture_side
f 867 866 895 697
g roof_step_or_fixture_side
f 876 875 702 701
g roof_step_or_fixture_side
f 875 874 703 702
g facade_completed
f 745 761 578 1006 1017
g facade_completed
f 746 745 1017 1000 501
g facade_completed
f 797 796 538 1005 1008 587
g facade_completed
f 799 798 906 907
g facade_completed
f 804 803 908 1004 537
g facade_completed
f 879 878 454 992 902
g ground_assumed
f 989 1017 1006 915 914 1010 1009 1008 1005 1004 908 907 906 905 904 903 902 992 991
g ground_assumed
f 989 1000 1017
g ground_assumed
f 989 999 1000
g ground_assumed
f 989 921 999
g ground_assumed
f 989 922 921
g ground_assumed
f 989 923 922
g ground_assumed
f 923 975 974
g ground_assumed
f 975 969 976
g ground_assumed
f 975 970 969
g ground_assumed
f 970 972 971
g ground_assumed
f 951 953 952
g ground_assumed
f 951 954 953
g ground_assumed
f 954 956 955
g ground_assumed
f 954 957 956
g ground_assumed
f 954 958 957
g ground_assumed
f 958 960 959
g ground_assumed
f 961 963 962
g ground_assumed
f 964 966 965
g ground_assumed
f 964 967 966
g ground_assumed
f 964 968 967
g ground_assumed
f 964 969 968
g ground_assumed
f 964 976 969
g ground_assumed
f 964 977 976
g ground_assumed
f 978 980 979
g ground_assumed
f 978 981 980
g ground_assumed
f 981 983 982
g ground_assumed
f 981 984 983
g ground_assumed
f 981 985 984
g ground_assumed
f 985 987 986
g ground_assumed
f 985 988 987
g ground_assumed
f 985 989 988
g ground_assumed
f 923 970 975
g ground_assumed
f 923 972 970
g ground_assumed
f 923 973 972
g ground_assumed
f 923 924 973
g ground_assumed
f 923 925 924
g ground_assumed
f 951 958 954
g ground_assumed
f 963 977 964
g ground_assumed
f 977 981 978
g ground_assumed
f 989 925 923
g ground_assumed
f 989 951 926 925
g ground_assumed
f 989 958 951
g ground_assumed
f 989 960 958
g ground_assumed
f 989 961 960
g ground_assumed
f 963 981 977
g ground_assumed
f 963 985 981
g ground_assumed
f 985 961 989
g ground_assumed
f 985 963 961
