v 2684024.2200207161 1251593.1053378708 437.16614717335585
v 2684024.0431677396 1251592.6869895214 437.00542038765104
v 2684024.4232064481 1251592.1086697471 437.00649724344822
v 2684024.9605565709 1251591.9753281812 437.16752131100668
v 2684025.7770672166 1251593.3338670579 437.77604945509916
v 2684026.8996398286 1251594.1273936981 438.36230947705445
v 2684026.9696824932 1251594.2961702368 438.42668543022171
v 2684027.780349385 1251594.8288941935 438.84065601162757
v 2684027.7320183408 1251594.870520069 438.83307931580538
v 2684027.4551415844 1251595.1089842194 438.78967419305565
v 2684027.7500467193 1251595.624992671 439.0153654629309
v 2684027.7039140048 1251595.6826497901 439.0123109825995
v 2684027.2499889806 1251595.6250245492 438.83660352406662
v 2684027.4453437929 1251596.0058133774 438.99519086553175
v 2684027.2827582182 1251596.2090144234 438.98442595903384
v 2684027.2621733481 1251596.2347415956 438.98306301993568
v 2684027.2499798732 1251596.2267287399 438.9768363681398
v 2684027.2499826686 1251596.1874762059 438.96768898161508
v 2684027.2500049206 1251595.8750534181 438.89488216524023
v 2684026.7545496859 1251595.8130713794 438.70331234550002
v 2684026.092267727 1251594.8407473841 438.23993368023224
v 2684026.400943005 1251594.8098726284 438.34308848557254
v 2684027.0000102064 1251594.7499519703 438.54328808468313
v 2684025.7499614949 1251593.7500209326 437.86335007094277
v 2684025.2500221627 1251594.3750054401 437.83028495625615
v 2684024.8762191562 1251594.1257803589 437.63856572648137
v 2684024.5156672108 1251593.8853901376 437.45364281180878
v 2684024.5000357442 1251593.8749681949 437.44562561319879
v 2684024.2500228141 1251594.1250130029 437.41452328446343
v 2684024.2499727197 1251593.7500095472 437.32710525022668
v 2684023.2500075269 1251593.6249916968 436.94048297245081
v 2684023.2137218532 1251593.5887086676 436.91905463781512
v 2684023.0010699336 1251593.3760722419 436.7934740399042
v 2684022.749997606 1251593.125018209 436.64520445053506
v 2684022.2502864688 1251593.0000824553 436.43744085803962
v 2684021.84018216 1251592.7377893985 436.22969831802203
v 2684021.7499436107 1251592.6790113626 436.18373917189768
v 2684021.7499481635 1251592.5000223161 436.14202474355199
v 2684022.2500537192 1251591.9999850711 436.20427009841109
v 2684023.2499688179 1251591.749999465 436.503474340043
v 2684023.0000173668 1251590.8750589532 436.21019944928065
v 2684024.0000303774 1251589.2499794629 436.18895263743286
v 2684024.0000030687 1251589.1180949011 436.15820521880079
v 2684024.1113450835 1251588.9446211327 436.15757906684036
v 2684024.0000098846 1251588.8714580014 436.10072526149128
v 2684024.0000440399 1251588.6249995092 436.04329665941094
v 2684024.7499780869 1251587.8750244761 436.13660334903608
v 2684024.7500281814 1251588.2500279318 436.22402138422643
v 2684025.5000328152 1251588.6250108946 436.5795414810807
v 2684026.0000063041 1251588.1250009742 436.64174598978411
v 2684026.0000199657 1251587.5000210204 436.49609001176219
v 2684026.1526399772 1251587.2710859647 436.4972945613851
v 2684026.2301287982 1251587.1548501754 436.49790613987358
v 2684026.7815636913 1251587.5172216769 436.7794987716635
v 2684026.9701014659 1251587.230316367 436.78003300165449
v 2684026.5685684504 1251586.6471795226 436.50057726694138
v 2684027.0000147605 1251585.9999958123 436.50398244611756
v 2684026.8602737156 1251585.7554847354 436.39703843983835
v 2684027.5043337685 1251586.1787241986 436.72593051275362
v 2684027.4999745865 1251586.1249658444 436.7118429337965
v 2684027.8408121881 1251585.8694214553 436.77413309240256
v 2684028.0311410581 1251586.1454909595 436.90651727689357
v 2684028.4688105537 1251585.4794721613 436.90775743244001
v 2684027.4999540932 1251585.3750113051 436.53704756080418
v 2684027.6666666572 1251585.2499670114 436.56750344801026
v 2684027.5000360669 1251584.9999805249 436.44967037081585
v 2684027.9999936153 1251584.2499417344 436.45359624025298
v 2684028.4999511642 1251584.7499949187 436.74887461340137
v 2684028.2307268423 1251584.8173028384 436.66831471470232
v 2684028.7500119121 1251585.2500367183 436.95481286375025
v 2684029.1128680664 1251584.9778731209 437.02110124514326
v 2684029.4999664519 1251585.2500162246 437.22291492636771
v 2684029.7500089835 1251584.6250203319 437.1666399173011
v 2684028.8357487819 1251584.6250180556 436.83979369207043
v 2684028.9891895954 1251584.3261285855 436.82498776072151
v 2684028.4999830434 1251583.9999606828 436.57407938917635
v 2684028.5000126441 1251583.6250095989 436.48670205137438
v 2684029.2499808464 1251583.0000091526 436.60914813501631
v 2684028.750023298 1251583.7500479419 436.60522226653285
v 2684029.4016475999 1251583.5870940138 436.80019746189834
v 2684029.7187795681 1251583.1045018879 436.80109606874151
v 2684029.886102933 1251583.3865509452 436.92664946894138
v 2684029.7500180914 1251582.2500227338 436.61311470088822
v 2684029.6605580882 1251582.3394656281 436.60197897286309
v 2684029.565361334 1251582.2769077609 436.55336633526952
v 2684030.500018172 1251580.8749880516 436.56076556030507
v 2684032.5000123153 1251580.8750472544 437.27577217207175
v 2684031.2500341916 1251579.7499822383 436.56669506089548
v 2684031.9999864548 1251580.1250448967 436.92221500898245
v 2684032.1575846979 1251579.8886152315 436.92345253439959
v 2684032.4999440042 1251579.3750061062 436.92614087746591
v 2684033.000054114 1251580.6249865063 437.39625546976237
v 2684033.349270286 1251580.9742179469 437.60249293784682
v 2684034.2499866961 1251581.8749737374 438.13443127852059
v 2684034.7911794735 1251581.820867965 438.31529616405095
v 2684035.3291741638 1251582.2409532424 438.60553501113509
v 2684034.9999890537 1251582.6250398513 438.57736926179791
v 2684035.426333969 1251582.7316229253 438.75462725211275
v 2684035.2299173996 1251583.0305177043 438.75407069749281
v 2684033.5000162171 1251581.6249653611 437.80805057568318
v 2684032.9983349591 1251581.6274678137 437.62928403743041
v 2684033.2995723635 1251581.825423822 437.78311223052549
v 2684033.0000427286 1251582.1249752827 437.74584606697977
v 2684033.0392937013 1251582.1936747192 437.77588961418928
v 2684033.5290574105 1251582.5155194427 438.02598958622241
v 2684033.3654359262 1251582.7645086572 438.02552595775114
v 2684033.4999706764 1251582.9999795507 438.12850177888379
v 2684033.7499995464 1251582.9999636116 438.2178827478391
v 2684034.1100952239 1251583.2700476702 438.40956313790923
v 2684034.2459017113 1251583.0633856242 438.40994795119019
v 2684034.9418064789 1251583.5206944717 438.7653147538486
v 2684034.7588862437 1251583.7990513511 438.76479644195695
v 2684034.9999958854 1251583.9999743456 438.89782061281215
v 2684035.4999349327 1251583.6250308745 438.98916140381669
v 2684035.499941038 1251583.6250323688 438.98916393476782
v 2684034.4698415762 1251585.0230938855 438.9467450055995
v 2684033.9654368404 1251585.707677112 438.92597388763119
v 2684033.7500564717 1251585.999993535 438.91710463870868
v 2684033.4999957238 1251586.75004371 439.00251889397845
v 2684033.4999980009 1251586.374960558 438.91510100755534
v 2684033.0000758464 1251586.375002889 438.73638997571118
v 2684033.5000276025 1251586.0000094741 438.82772366975337
v 2684033.7499881606 1251584.499952388 438.5674733450565
v 2684033.9420991796 1251584.3559163883 438.60258281594037
v 2684034.2500231285 1251584.1250491212 438.65885779735152
v 2684034.2500164341 1251584.0196056543 438.63428023765118
v 2684033.8082845872 1251583.7293247262 438.40870794441105
v 2684034.0411461848 1251583.3749701218 438.40936776736669
v 2684033.5994368009 1251584.1612233131 438.43470577392463
v 2684033.1209918549 1251585.3810628538 438.54796465099895
v 2684033.2200649455 1251585.2302994546 438.54824537867773
v 2684031.7500213422 1251584.5000252523 437.85250728191096
v 2684032.7188436473 1251584.4795115229 438.19407775952999
v 2684032.3082502712 1251585.1043275301 438.1929143259419
v 2684032.7409991124 1251585.3887053402 438.41389940764645
v 2684032.597553289 1251585.6069924633 438.41349294777206
v 2684032.2171646664 1251585.3570227972 438.21924583951909
v 2684031.8081948096 1251585.979368231 438.21808700627315
v 2684032.5345707424 1251586.4528211944 438.58810979907042
v 2684033.0000108504 1251587.4999504322 438.99855247687384
v 2684032.9993984355 1251587.5008252382 438.9985374265836
v 2684032.7438902576 1251587.8658358506 438.9922650488744
v 2684032.9999789721 1251588.2499846681 439.17334770109886
v 2684033.1653138492 1251588.1098701342 439.19979872534753
v 2684032.3442842113 1251589.3592630618 439.19747230256598
v 2684032.2342735585 1251589.286970346 439.14129488197653
v 2684031.942227406 1251589.9710886336 439.1963330570124
v 2684031.6101390654 1251590.4764404583 439.19539207056607
v 2684031.1216928228 1251590.4489806814 439.01437387367451
v 2684030.9999916609 1251590.8749519333 439.07014494596501
v 2684030.2500211811 1251591.8750355316 439.03511674874625
v 2684030.4721041075 1251592.2082327849 439.19216739855494
v 2684029.2693902184 1251594.0384495729 439.18875945669407
v 2684028.7499891422 1251594.1250471582 439.02325774851897
v 2684028.5005306099 1251594.5615774363 439.03581682469576
v 2684028.0000050007 1251594.5000187359 438.84253302465709
v 2684027.9999890621 1251594.249989867 438.78425438348353
v 2684028.2300250391 1251594.0584621902 438.82185328985361
v 2684028.2499837754 1251594.1249993411 438.84449595842199
v 2684028.9999861331 1251593.6249734806 438.99608143703438
v 2684028.8636076166 1251593.3950866852 438.89374793199977
v 2684029.3335795887 1251592.6799119455 438.89507961757107
v 2684028.0561359748 1251592.4119196159 438.37593718486784
v 2684027.7242047484 1251592.9170323524 438.37499664376975
v 2684026.938482679 1251592.4007007079 437.97376424481382
v 2684026.8196515101 1251592.5815307484 437.97342753200093
v 2684025.7483789623 1251591.877551646 437.42637753558125
v 2684025.8082397063 1251591.8543555795 437.4423714118355
v 2684025.8860739395 1251591.9055037894 437.48211780160045
v 2684026.2188535752 1251591.9794941116 437.61833021841596
v 2684026.1524463813 1251592.0805485374 437.61814205068941
v 2684027.8616348319 1251590.0412421646 437.75388192444024
v 2684028.1619357229 1251589.8160276995 437.80874915156261
v 2684027.9680036735 1251590.1111416887 437.80819963668688
v 2684031.2499658805 1251590.0000068678 438.95559114791121
v 2684031.7462914218 1251589.2909725942 438.96777529524871
v 2684031.2803027024 1251589.3288829771 438.81002109157834
v 2684030.4696358112 1251588.7961590195 438.39605051017247
v 2684031.7500486667 1251587.8750062597 438.63910651153617
v 2684031.9599968153 1251587.3108499111 438.58267742152367
v 2684032.4302442297 1251586.5952560185 438.58400988812326
v 2684030.5000500502 1251585.9999867042 437.75523402736758
v 2684030.7247605002 1251585.8215471965 437.79397946221275
v 2684030.7770751677 1251585.8963762361 437.83012184246599
v 2684030.4918960189 1251586.3303445058 437.82931377481947
v 2684030.8973816088 1251586.5968064645 438.03637675923625
v 2684030.9696844406 1251586.5461838255 438.05042647882698
v 2684030.4893252566 1251587.8911845312 438.19217168919835
v 2684030.2153413272 1251588.2973504213 438.18888612654729
v 2684030.2067516092 1251588.2805013526 438.18188839770852
v 2684029.4958882979 1251587.8133626047 437.81888295005149
v 2684030.0000105286 1251587.1250562738 437.83868534791878
v 2684030.6127744741 1251587.1004521411 438.05201253928789
v 2684030.5000523273 1251586.8749955269 437.95916864560945
v 2684030.7394797909 1251586.7073610118 438.00569364049443
v 2684031.4999879193 1251582.7500235464 437.3552570755183
v 2684031.2499453877 1251583.375019439 437.41153208458491
v 2684029.5299526108 1251586.0196624878 437.41301239630172
v 2684029.7541668336 1251588.9991376952 438.18757936807873
v 2684030.0410061097 1251588.5626431454 438.18839214001378
v 2684030.4425938469 1251588.8265436585 438.39346466871825
v 2684030.0590242185 1251589.4102365712 438.39237780736761
v 2684028.9278203398 1251588.6668740227 437.81472361611094
v 2684029.5802553757 1251590.3224302647 438.43381945659416
v 2684029.2828474436 1251590.830488442 438.44590738392276
v 2684028.7590061659 1251590.4862498879 438.17840555152026
v 2684028.941730693 1251590.2081908253 438.17892330934916
v 2684028.2474198439 1251589.75192941 437.82437044873774
v 2684028.2500019916 1251589.3750041442 437.7374455275035
v 2684027.9166416465 1251589.3750033136 437.61826985895152
v 2684028.2499860525 1251589.1249752743 437.67916688632994
v 2684028.2595452364 1251588.7759136737 437.60123027934145
v 2684028.5041636634 1251588.9366629249 437.72614574444907
v 2684028.9417807874 1251588.2707238239 437.72738575218187
v 2684029.250008171 1251586.3749901599 437.39574736464147
v 2684028.9022859982 1251586.1432070471 437.21741707500433
v 2684029.0346197081 1251585.9418296621 437.21779204866459
v 2684029.4999869452 1251585.9999707651 437.39771029840637
v 2684028.0000300482 1251586.5000171184 436.97802275813024
v 2684028.5000399686 1251586.9999906062 437.27330128004593
v 2684028.4999921517 1251587.4999959732 437.389817864051
v 2684028.7735605068 1251588.1516315194 437.63949119917015
v 2684027.4999928032 1251587.250003536 436.97405619225833
v 2684028.2053927695 1251587.8750199224 437.3719042385041
v 2684027.8279506196 1251588.4493884128 437.37083473905841
v 2684027.739408453 1251588.3912035609 437.32562029620777
v 2684027.3150959932 1251588.5939203778 437.22117583777555
v 2684027.7188286898 1251587.979544536 437.22231983243859
v 2684026.7500246009 1251587.8750039826 436.8516101086164
v 2684027.2853825749 1251588.7450044267 437.24576574897497
v 2684026.7499927226 1251588.6250382192 437.02640533284142
v 2684026.2172095622 1251591.2320101454 437.44353024508143
v 2684025.6615197579 1251591.8555763476 437.39020392182755
v 2684025.282451571 1251591.771294215 437.23504480702394
v 2684025.9675768958 1251590.7287121981 437.23698613901632
v 2684025.0000479422 1251590.6250095917 436.86692756864102
v 2684025.0106816548 1251590.2337481682 436.77953980663921
v 2684024.0000167154 1251589.8749594158 436.33460861640839
v 2684024.2669958882 1251590.4115954181 436.55512398258026
v 2684024.0311800968 1251590.7704455361 436.554455788604
v 2684024.4690313595 1251590.8176926665 436.72199814619148
v 2684024.4963128068 1251590.872529177 436.7445316567655
v 2684024.1250505047 1251591.4374935494 436.74347966894561
v 2684023.858148871 1251591.2621010474 436.60718518694682
v 2684022.6689468557 1251593.0717562877 436.60381553168145
v 2684023.1836846722 1251593.0981802486 436.79399148684757
v 2684023.6181056942 1251593.1204811635 436.95449345562406
v 2684024.031535313 1251593.3921634844 437.16561309213211
v 2684030.4891642043 1251582.8839782192 437.02511029742556
v 2684030.4999589692 1251582.874982194 437.02687274152754
v 2684032.4999827133 1251581.2499983383 437.36314950987367
v 2684033.2499919022 1251583.3749989455 438.12653884416522
v 2684026.5328350044 1251592.3305182036 437.81238915894238
v 2684026.9418048607 1251591.7081727698 437.81354799218832
v 2684027.7499647466 1251590.124990562 437.73347896163159
v 2684029.9697260787 1251591.4265592694 438.83038790775157
v 2684031.0106959608 1251588.2337995658 438.45841191114192
v 2684030.489768669 1251587.8749929718 438.18855652404767
v 2684029.0295715351 1251588.5229750702 437.81756162097184
v 2684028.3647732236 1251589.5236848511 437.8131281976157
v 2684029.4999755598 1251587.4999595406 437.74730089562377
v 2684029.7500158143 1251587.2500467997 437.77844377298027
v 2684027.2499502716 1251587.8749994289 437.03033120132488
v 2684027.263856153 1251589.3958304396 437.38975477814
v 2684026.4999661301 1251594.1250038948 438.21887016779698
v 2684032.9983458403 1251581.6249836385 437.62870895365461
v 2684030.5000386657 1251587.4999754794 438.10482462458498
v 2684031.9999750704 1251581.625033672 437.27180560619985
v 2684031.8711949745 1251581.5606378575 437.21075864905498
v 2684030.630289122 1251590.4213546386 438.83225964240341
v 2684030.9983704179 1251587.1274904145 438.1961637791494
v 2684029.7500294773 1251585.3749748722 437.34143528933981
v 2684029.7184380139 1251585.7328368742 437.41354647752541
v 2684030.0890877959 1251586.7448338741 437.78191376510301
v 2684030.4417581782 1251586.2081615534 437.78291307213908
v 2684030.0299101607 1251585.2696236982 437.41693826478519
v 2684030.1896959245 1251585.0264714484 437.41739102466204
v 2684030.8258969444 1251585.4719259571 437.74865106076192
v 2684032.1859356835 1251589.2552054573 439.11661093650292
v 2684030.0294911871 1251581.835503764 436.61641581734943
v 2684030.8114675479 1251582.3493739441 437.01573545430688
v 2684031.2204374047 1251581.7270285103 437.01689428755282
v 2684030.4384610443 1251581.2131583299 436.61757465154903
v 2684032.2500084927 1251583.3750353782 437.76905581259246
v 2684032.2500608643 1251589.249988571 439.13831965264734
v 2684031.7500532214 1251583.7499910167 437.67771205768594
v 2684031.7500434294 1251583.9803757912 437.73140315164386
v 2684027.3026089682 1251589.4041355001 437.40554442933745
v 2684027.2819698146 1251589.3750405761 437.39138498052415
v 2684027.33574179 1251589.3750018668 437.41059930227283
v 2684027.3148700814 1251589.4067631622 437.41054016155579
v 2684027.3098702175 1251589.4143716514 437.41052599433294
v 2684027.8082588958 1251588.4793540784 437.37077894179066
v 2684028.2606994607 1251588.7337662228 437.59181982171657
v 2684028.2171353945 1251589.7320282001 437.80890556224227
v 2684026.5553957806 1251593.7961580388 438.16204371464812
v 2684026.4999957317 1251593.7500528109 438.13149282999501
v 2684026.5857189395 1251593.7500141009 438.16212963729078
v 2684026.682136354 1251593.6032919479 438.16240283982444
v 2684026.7430265602 1251593.7500144928 438.21836680224914
v 2684030.1164052798 1251589.4479441263 438.4216796962645
v 2684030.1901968699 1251589.3356525761 438.42188878868166
v 2684030.749942298 1251590.1250133328 438.80596860401738
v 2684030.0246672756 1251589.9624514759 438.50879717481371
v 2684029.8180852374 1251589.9161485438 438.42415303627502
v 2684029.811550172 1251589.9118540729 438.4208158761711
v 2684028.4809052879 1251592.7499835619 438.60658195803285
v 2684028.4553164123 1251592.7499845021 438.59743421866267
v 2684028.4687650129 1251592.7295192392 438.59747232597454
v 2684028.9999838555 1251592.7499646579 438.79214681783884
v 2684029.0000339504 1251593.1249681145 438.87956485302925
v 2684028.7947198492 1251593.278965845 438.84205704373306
v 2684028.2212089947 1251587.8509517543 437.37194905369466
v 2684028.2500133761 1251587.875015368 437.3878549302861
v 2684030.0315291262 1251586.7482038727 437.76212211567201
v 2684030.0598644409 1251586.7893041973 437.78183095989789
v 2684030.9549133717 1251585.6257528828 437.83062575444751
v 2684030.9638393139 1251585.631618503 437.8351838266683
v 2684030.9370022826 1251585.6530088878 437.83057500287015
v 2684032.9417599649 1251585.8331854222 438.58926358757958
v 2684032.7989793788 1251586.0504602259 438.58885901209084
v 2684032.5598457339 1251585.6643735257 438.41338610234607
v 2684032.5856854282 1251586.375037977 438.58825463451103
v 2684032.5000145915 1251586.3749969907 438.55761797598257
v 2684032.6250984413 1251586.3750346366 438.60234390808012
v 2684032.5975737828 1251586.3569470039 438.58828832076443
v 2684029.7499793824 1251580.375030502 436.17610606943407
v 2684029.9999763733 1251579.8749568241 436.14892975699581
v 2684035.2690965133 1251581.3458993013 438.37545178583042
v 2684034.9999845 1251580.8750222072 438.16950002436056
v 2684035.2174322675 1251581.1287224924 438.30636566878212
v 2684035.3274568161 1251581.2570901453 438.37561715210984
v 2684035.3913165107 1251581.1599123478 438.3757981017622
v 2684035.5326651931 1251581.216054708 438.43941470666101
v 2684036.0000043409 1251581.8749691837 438.7600570691456
v 2684035.7003843989 1251581.8078325579 438.63729651435335
v 2684035.460103712 1251581.7539922344 438.53884849416016
v 2684035.0598566285 1251581.6643078211 438.3748588957551
v 2684032.9401159519 1251585.0857014554 438.41446361424511
v 2684033.0028799037 1251585.5607984317 438.54762997515348
v 2684034.9999913308 1251583.5000486739 438.78130388099339
v 2684035.4437077846 1251583.204223335 438.87098489353343
v 2684035.7499936884 1251583.0000228144 438.93288935960578
v 2684035.8055422367 1251583.1666745308 438.99158848197021
v 2684035.9999906793 1251583.7500411111 439.19706555278611
v 2684035.4999511568 1251583.625018707 438.98916436867239
v 2684035.426333969 1251582.7316229253 438.60204333045897
v 2684034.9999890537 1251582.6250398513 438.42453787053597
v 2684035.3291741638 1251582.2409532424 438.45267848106317
v 2684035.3913165107 1251581.1599123478 438.22246927466375
v 2684035.3274568161 1251581.2570901453 438.22230371002797
v 2684035.2174322675 1251581.1287224924 438.15294160392034
v 2684034.9999845 1251580.8750222072 438.01585733071732
v 2684035.1367013506 1251581.1142416776 438.12066132057498
v 2684035.2690965133 1251581.3458993013 438.22215240416415
v 2684035.0598566285 1251581.6643078211 438.22160992426433
v 2684034.7911794735 1251581.820867965 438.16199495998546
v 2684034.2499866961 1251581.8749737374 437.98090374601304
v 2684033.349270286 1251580.9742179469 437.44812939042339
v 2684033.000054114 1251580.6249865063 437.24156779275881
v 2684032.4999440042 1251579.3750061062 436.77064138883912
v 2684031.9999864548 1251580.1250448967 436.7668309799796
v 2684031.2500341916 1251579.7499822383 436.41078876336343
v 2684032.3429135899 1251580.7336477563 437.03171194767623
v 2684032.5000123153 1251580.8750472544 437.12096812758233
v 2684032.4999827133 1251581.2499983383 437.20851927706798
v 2684031.9999750704 1251581.625033672 437.11711696030164
v 2684031.8711949745 1251581.5606378575 437.05598032509386
v 2684030.500018172 1251580.8749880516 436.40503239165298
v 2684029.9999763733 1251579.8749568241 435.99250068455359
v 2684029.7499793824 1251580.375030502 436.01979269216395
v 2684029.565361334 1251582.2769077609 436.39784889634416
v 2684029.2499649073 1251582.7499802827 436.39542485266179
v 2684029.7500180914 1251582.2500227338 436.45767058039274
v 2684030.4999589692 1251582.874982194 436.87206673445439
v 2684030.4891642253 1251582.8839782327 436.87030345687413
v 2684029.886102933 1251583.3865509452 436.77179545581015
v 2684029.7187795681 1251583.1045018879 436.64603356970588
v 2684029.4016475999 1251583.5870940138 436.64521136630651
v 2684029.3637182098 1251583.5965791468 436.63384913437022
v 2684028.750023298 1251583.7500479419 436.45000900425254
v 2684029.2499808464 1251583.0000091526 436.45381941311206
v 2684028.4999830434 1251583.9999606828 436.41886582936144
v 2684028.9891895954 1251584.3261285855 436.6701526715517
v 2684028.8357487819 1251584.6250180556 436.68502588576553
v 2684029.2499861619 1251584.6250190865 436.8333073688882
v 2684029.2500195554 1251584.8750013835 436.89169730134091
v 2684029.1128680748 1251584.9778730904 436.8666257531998
v 2684028.7500119121 1251585.2500367183 436.80029498457458
v 2684028.2307268423 1251584.8173028384 436.51335498811147
v 2684028.4999511642 1251584.7499949187 436.59400875133747
v 2684027.6666666372 1251585.2499669883 436.41248225573679
v 2684027.4999540932 1251585.3750113051 436.38200690481108
v 2684027.1540379389 1251585.2885348257 436.23798734688285
v 2684026.8566415091 1251585.7491293435 436.23909264965482
v 2684027.0000147605 1251585.9999958123 436.34899928391138
v 2684026.5685684504 1251586.6471795226 436.34569370729253
v 2684026.2301287982 1251587.1548501754 436.34310071261137
v 2684026.1526400247 1251587.271085962 436.34250703960055
v 2684026.0000199657 1251587.5000210204 436.34133770777112
v 2684026.0000089104 1251588.0057902508 436.45944525488204
v 2684026.0000063041 1251588.1250009742 436.48728341770703
v 2684025.5872751251 1251588.5377622272 436.43593283364805
v 2684025.5000328152 1251588.6250108946 436.42507844839719
v 2684024.7500281814 1251588.2500279318 436.0690360963647
v 2684024.7499780869 1251587.8750244761 435.98144418750428
v 2684024.0000440399 1251588.6249995092 435.88813680172456
v 2684024.0000098846 1251588.8714580014 435.9456796456351
v 2684023.188466338 1251588.3381579567 435.53063715875874
v 2684022.8098196401 1251588.9143594536 435.52965547110949
v 2684022.7499862206 1251588.749974096 435.46984872291466
v 2684023.1879084664 1251588.3377913551 435.53035184981059
v 2684023.1647966499 1251588.3226035906 435.51853192197524
v 2684023.8335820343 1251587.3048867004 435.52026582946064
v 2684025.4396706522 1251584.8219455793 435.51534713390072
v 2684027.20384049 1251582.0946179682 435.50994431050071
v 2684026.9800930573 1251580.9868788447 435.17116263010263
v 2684029.0707674944 1251577.8054177456 435.17658295654576
v 2684027.1888280553 1251576.5687146862 434.21411479485221
v 2684025.068616034 1251579.795124284 434.2086178875889
v 2684024.8815401099 1251580.0471592129 434.20050914178859
v 2684024.3685078765 1251580.8278604387 434.19917904402195
v 2684023.6090467512 1251582.0323572387 434.20860509074163
v 2684021.8460227321 1251584.8131573503 434.22690542349142
v 2684020.9176973403 1251586.1959589694 434.21752372658773
v 2684020.3684831583 1251586.9528834869 434.19768932849627
v 2684018.4382821475 1251589.7434133317 434.15841882047715
v 2684020.7442835737 1251591.2587856969 435.33776227230101
v 2684021.7500415216 1251590.6250027597 435.54977905468121
v 2684022.3398209251 1251591.6840044134 436.00820468775566
v 2684022.9102000664 1251590.8160361561 436.00968346411776
v 2684024.0000030631 1251589.118094882 436.00327393250939
v 2684024.0000303774 1251589.2499794629 436.03408251166047
v 2684023.0000173668 1251590.8750589532 436.05561814851399
v 2684023.2499688179 1251591.749999465 436.34941477281552
v 2684022.2500537192 1251591.9999850711 436.04986191221985
v 2684021.7499481635 1251592.5000223161 435.98761604907253
v 2684021.7499436107 1251592.6790113626 436.02941345427791
v 2684020.9122916795 1251592.1333960397 435.60214918957047
v 2684019.5827861372 1251591.2489944838 434.91970379576708
v 2684017.6198050566 1251589.964398731 433.91704149865205
v 2684019.2998861168 1251587.4077536392 433.92139731316797
v 2684021.6227808003 1251584.0413524664 433.96675489494004
v 2684022.3622200331 1251582.9487646758 433.97629570989722
v 2684022.4718225612 1251582.8716454059 433.997519706947
v 2684023.0000446914 1251582.4999741837 434.09980735446641
v 2684022.9188937517 1251581.6967053511 433.88317227486374
v 2684024.0810196479 1251579.9282529019 433.88618522718934
v 2684024.6165420697 1251579.412349337 433.95740374587223
v 2684026.8834469551 1251575.962711469 433.96328097097427
v 2684028.1770415157 1251576.3610202887 434.51935511357505
v 2684031.0729521364 1251578.2640472678 436.00039202413433
v 2684033.6794959814 1251579.982282181 437.33469241888423
v 2684034.9754336029 1251585.3553400752 439.05335073510207
v 2684034.4698415762 1251585.0230938855 438.79477906228834
v 2684035.4999410626 1251583.625032407 438.83702840628962
v 2684035.9999906793 1251583.7500411111 439.04522025783473
v 2684034.9999913308 1251583.5000486739 438.62887814092215
v 2684035.4999349327 1251583.6250308745 438.83702585435856
v 2684034.9999958854 1251583.9999743456 438.7456266388179
v 2684034.7588862437 1251583.7990513511 438.61239731311036
v 2684034.9418064789 1251583.5206944717 438.61287155555516
v 2684034.2459017113 1251583.0633856242 438.25696946436926
v 2684034.1100952239 1251583.2700476702 438.25661736940071
v 2684033.7499995464 1251582.9999636116 438.06464448759277
v 2684033.4999706764 1251582.9999795507 437.97514737430259
v 2684033.3654359262 1251582.7645086572 437.87199989289007
v 2684033.5290574105 1251582.5155194427 437.87242410089209
v 2684033.0392937013 1251582.1936747192 437.62194740336855
v 2684033.0000427286 1251582.1249752827 437.59185377308086
v 2684033.2995723635 1251581.825423822 437.62912021222752
v 2684033.7516207881 1251582.1224842155 437.86030842560416
v 2684033.7106639175 1251582.5598895759 437.94779401830681
v 2684034.9877113276 1251583.3990921609 438.60090614857461
v 2684035.5326651931 1251581.216054708 438.28617757075205
v 2684028.5000126441 1251583.6250095989 436.33131467892218
v 2684027.9999936153 1251584.2499417344 436.29826629960138
v 2684027.5000360669 1251584.9999805249 436.2944558907418
v 2684037.0661604111 1251582.1737992794 439.05877119696157
v 2684035.7499936884 1251583.0000228144 438.78058022256852
v 2684035.4437077846 1251583.204223335 438.71862813856814
v 2684035.460103712 1251581.7539922344 438.38582703457428
v 2684036.0000043409 1251581.8749691837 438.60734250502225
v 2684024.2184199668 1251592.4203013496 436.85261804701577
v 2684024.0431677396 1251592.6869895214 436.85216368407612
v 2684023.753788203 1251592.0024579219 436.58871920182668
v 2684024.1250505047 1251591.4374935494 436.58968174427093
v 2684024.4963128068 1251590.872529177 436.59064428671519
v 2684024.4690313595 1251590.8176926665 436.5680726793193
v 2684024.0311800968 1251590.7704455361 436.400305015588
v 2684024.2669958882 1251590.4115954181 436.40091639667372
v 2684024.0000167154 1251589.8749594158 436.18002822254999
v 2684025.0106816548 1251590.2337481682 436.6255952498729
v 2684025.0000479422 1251590.6250095917 436.71315945940944
v 2684025.9675768958 1251590.7287121981 437.0837155714749
v 2684025.2890000129 1251591.761329195 437.08195627818765
v 2684024.7499758094 1251591.6249565682 436.85715920649437
v 2684024.9605565709 1251591.9753281812 437.01436085795694
v 2684024.4232064481 1251592.1086697471 436.85314898123931
v 2684023.2733822227 1251593.6279140527 436.79634236754276
v 2684025.0934635368 1251594.8239674885 437.72717482782912
v 2684024.1787450616 1251594.2334791492 437.26184454178542
v 2684022.2502864688 1251593.0000824553 436.28349642047783
v 2684022.749997606 1251593.125018209 436.49155007389186
v 2684023.0010699336 1251593.3760722419 436.64005268718438
v 2684023.2137218532 1251593.5887086676 436.76583064873802
v 2684023.2500075269 1251593.6249916968 436.78729266104432
v 2684023.3044694411 1251592.9143773399 436.64083928656754
v 2684023.6181056942 1251593.1204811635 436.80124025475573
v 2684023.1836846722 1251593.0981802486 436.64052613715734
v 2684027.7499647466 1251590.124990562 437.58075651856404
v 2684027.3098702175 1251589.4143716514 437.25726966553708
v 2684027.33574179 1251589.3750018668 437.25733674050929
v 2684027.302608931 1251589.4041354887 437.25227996602285
v 2684027.263856153 1251589.3958304396 437.23646847845833
v 2684026.7499927226 1251588.6250382192 436.8725229817797
v 2684027.2853825749 1251588.7450044267 437.09218772904734
v 2684027.5099365199 1251589.1099229301 437.25778836174425
v 2684028.2500019916 1251589.3750041442 437.58460768584473
v 2684028.2474198439 1251589.75192941 437.67170614888352
v 2684028.2171353945 1251589.7320282001 437.65621796791089
v 2684028.1619357229 1251589.8160276995 437.65607485569132
v 2684027.8616348319 1251590.0412421646 437.60117253188724
v 2684027.2819698146 1251589.3750405761 437.23809745637334
v 2684027.6730543361 1251589.3750027071 437.37808201166462
v 2684026.5328350044 1251592.3305182036 437.66012377188378
v 2684026.1524463813 1251592.0805485374 437.46558406890023
v 2684026.2188535752 1251591.9794941116 437.46575623746833
v 2684025.8860739395 1251591.9055037894 437.32935492720901
v 2684025.8082397063 1251591.8543555795 437.28954866719511
v 2684026.2172095622 1251591.2320101454 437.29060897072475
v 2684026.9418048607 1251591.7081727698 437.66118407541342
v 2684028.229296295 1251593.0939281574 438.44567039859356
v 2684028.5000263071 1251593.5000034482 438.63741158966178
v 2684027.9999890621 1251594.249989867 438.63356042238109
v 2684028.5005305586 1251594.5615774305 438.88549981986375
v 2684028.8938334459 1251594.6099490097 439.03758344953991
v 2684028.1515707001 1251595.739479274 439.03565904364058
v 2684027.7039140048 1251595.6826497901 438.86214365482033
v 2684027.7500467193 1251595.624992671 438.86519283579401
v 2684027.4551415844 1251595.1089842194 438.63912534871662
v 2684027.7320182971 1251594.8705200576 438.68254852475764
v 2684027.780349385 1251594.8288941935 438.69012839428194
v 2684026.9696824932 1251594.2961702368 438.27553424908484
v 2684027.2499366095 1251594.3750122709 438.39426643187431
v 2684027.4999791402 1251593.750016378 438.33781783427497
v 2684026.8996398286 1251594.1273936981 438.21104751292671
v 2684026.5553957806 1251593.7961580388 438.01046827305925
v 2684026.5857189395 1251593.7500141009 438.01054688989319
v 2684026.682136354 1251593.6032919479 438.01079686375061
v 2684026.4999957317 1251593.7500528109 437.97987027781267
v 2684025.7770672166 1251593.3338670579 437.62389812391166
v 2684025.0270785205 1251591.9588209903 437.03431828945287
v 2684025.8689065161 1251592.5120222447 437.4648489573018
v 2684026.123746742 1251592.1242219009 437.46550966141751
v 2684026.8196515101 1251592.5815307484 437.82141175355702
v 2684026.938482679 1251592.4007007079 437.82171983725055
v 2684027.7242047484 1251592.9170323524 438.22355661283262
v 2684028.8636076166 1251593.3950866852 438.74305883444316
v 2684028.9999861331 1251593.6249734806 438.84556226890749
v 2684028.2499837754 1251594.1249993411 438.69386018630752
v 2684028.2300250391 1251594.0584621902 438.67117740016164
v 2684028.7947198492 1251593.278965845 438.69128211126838
v 2684029.0000339504 1251593.1249681145 438.72881390642812
v 2684028.9999838555 1251592.7499646579 438.64122199852136
v 2684028.4809053149 1251592.7499835694 438.4554160203258
v 2684028.4687650129 1251592.7295192392 438.44629125024278
v 2684028.0000050007 1251594.5000187359 438.69195498187776
v 2684029.3335795887 1251592.6799119455 438.7442772938071
v 2684028.0561359748 1251592.4119196159 438.22441718484026
v 2684026.7430265602 1251593.7500144928 438.06685713201142
v 2684028.5688334862 1251589.9631440898 437.83608465739161
v 2684028.941730693 1251590.2081908253 438.02679307259956
v 2684028.7590061659 1251590.4862498879 438.02631933748933
v 2684028.6925989715 1251590.5873043127 438.02614716892128
v 2684027.9680036735 1251590.1111416887 437.65557206327895
v 2684027.2499798732 1251596.2267287399 438.82671039766541
v 2684026.5889819185 1251595.7923586555 438.48866047206559
v 2684026.7545496859 1251595.8130713794 438.55276445289013
v 2684027.2500049206 1251595.8750534181 438.74459317061752
v 2684027.4453437929 1251596.0058133774 438.84505323589832
v 2684027.2499889806 1251595.6250245492 438.68619861016725
v 2684027.674046414 1251596.4661466668 439.03442100421336
v 2684027.6560305813 1251596.4935620627 439.03437429605447
v 2684027.2621733481 1251596.2347415956 438.83294642847562
v 2684027.2827581782 1251596.2090143976 438.83430698252909
v 2684027.6782361423 1251596.4597709931 439.03443186613237
v 2684027.8408121881 1251585.8694214553 436.61947998853424
v 2684027.7693788563 1251585.4040603363 436.48523450789583
v 2684028.0000095544 1251585.7500625779 436.64859290292821
v 2684029.250008171 1251586.3749901599 437.24198328166295
v 2684029.7500158143 1251587.2500467997 437.6253176413058
v 2684029.5058993786 1251587.4940387427 437.5949122939698
v 2684029.4999755598 1251587.4999595406 437.59417446641476
v 2684028.4999921517 1251587.4999959732 437.23622690995245
v 2684028.5000399686 1251586.9999906062 437.11947854747308
v 2684028.4030128401 1251586.9029705478 437.06208957852294
v 2684028.013012995 1251586.512999119 436.83141502901395
v 2684028.4643680756 1251586.809603886 437.06224864984824
v 2684028.9022859982 1251586.1432070471 437.06338400456519
v 2684027.2628382407 1251588.6189175718 437.05467284567612
v 2684027.3150959932 1251588.5939203778 437.06754157904652
v 2684027.2812115648 1251588.6454836379 437.06745373005828
v 2684028.3320204774 1251588.8235402605 437.48518468111274
v 2684028.7735605068 1251588.1516315194 437.48632942628763
v 2684028.9417807874 1251588.2707238239 437.57435733677181
v 2684028.5041636634 1251588.9366629249 437.57322276117588
v 2684030.0315291262 1251586.7482038727 437.60889410892457
v 2684030.0598644409 1251586.7893041973 437.6286351698501
v 2684030.0000105286 1251587.1250562738 437.68561740618588
v 2684029.5299526108 1251586.0196624878 437.25921363338063
v 2684029.7184380139 1251585.7328368742 437.25970230434461
v 2684030.4417581782 1251586.2081615534 437.62962527620181
v 2684030.0890877959 1251586.7448338741 437.62871093531112
v 2684030.7394797909 1251586.7073610118 437.85277557703154
v 2684030.5000523273 1251586.8749955269 437.80621707136231
v 2684030.6127744741 1251587.1004521411 437.89921785063137
v 2684030.2067516092 1251588.2805013526 438.02945215714647
v 2684030.2153413333 1251588.2973504127 438.03646168723611
v 2684030.0410061097 1251588.5626431454 438.03600970171209
v 2684029.7541668336 1251588.9991376952 438.03526603599477
v 2684029.0295715351 1251588.5229750702 437.6646909313061
v 2684029.3164108107 1251588.0864805202 437.66543459702342
v 2684029.4958882979 1251587.8133626047 437.6658999143848
v 2684028.3647732236 1251589.5236848511 437.66041260070409
v 2684028.6516648708 1251589.0871106049 437.66115640279139
v 2684029.7828687495 1251589.8304731543 438.23968071386366
v 2684030.0590242185 1251589.4102365712 438.24039668025711
v 2684030.1164052798 1251589.4479441263 438.26974270726271
v 2684029.811550172 1251589.9118540729 438.26895233338655
v 2684029.8180852374 1251589.9161485438 438.27229452010812
v 2684030.0246672756 1251589.9624514759 438.35705609229814
v 2684029.7254216536 1251590.4178252483 438.35628026137761
v 2684029.5802553757 1251590.3224302647 438.28203880674931
v 2684028.7089798986 1251589.7498778091 437.83644800336282
v 2684030.489768669 1251587.8749929718 438.03606376717602
v 2684030.5000386657 1251587.4999754794 437.95216278129823
v 2684030.727514769 1251587.3299452723 437.99388369246435
v 2684030.9983704179 1251587.1274904145 438.04356075329696
v 2684031.7500486667 1251587.8750062597 438.48719922258744
v 2684031.0106959608 1251588.2337995658 438.3063274918548
v 2684030.4893252566 1251587.8911845312 438.0396862324136
v 2684032.2500608643 1251589.249988571 438.98728208012608
v 2684032.2342735585 1251589.286970346 438.99026712142052
v 2684032.1859356835 1251589.2552054573 438.96554599366243
v 2684031.942227406 1251589.9710886336 439.04548678014515
v 2684032.3442842113 1251589.3592630618 439.04652916103163
v 2684030.8114675479 1251582.3493739441 436.860830488381
v 2684030.0294911871 1251581.835503764 436.46090935668673
v 2684030.4384610443 1251581.2131583299 436.46196966021631
v 2684031.2204374047 1251581.7270285103 436.86189079191058
v 2684029.7500294773 1251585.3749748722 437.18743988849337
v 2684029.4999869452 1251585.9999707651 437.24388848609271
v 2684029.0346197081 1251585.9418296621 437.06372709625214
v 2684029.246642726 1251585.6191859392 437.06427679136522
v 2684028.7315975074 1251585.2807276531 436.80087053372495
v 2684030.0299101607 1251585.2696236982 437.26302404224015
v 2684030.1896959245 1251585.0264714484 437.26343830667508
v 2684030.8258969444 1251585.4719259571 437.59520039993362
v 2684030.4999658 1251585.5000086618 437.48508754465922
v 2684030.7247605002 1251585.8215471965 437.64064390244107
v 2684030.5000500502 1251585.9999867042 437.60187680097619
v 2684032.9983458575 1251581.6249836918 437.47448409548497
v 2684033.5000162171 1251581.6249653611 437.65405874239065
v 2684032.9983349591 1251581.6274678137 437.47506030741272
v 2684032.9401159519 1251585.0857014554 438.26181606120031
v 2684032.7409991124 1251585.3887053402 438.26129982728241
v 2684032.3082502712 1251585.1043275301 438.0399818749662
v 2684032.7188436473 1251584.4795115229 438.04104638784702
v 2684032.2950706799 1251584.4884844415 437.89144719946313
v 2684031.7500213422 1251584.5000252523 437.6990353540366
v 2684031.7500434294 1251583.9803757912 437.57769032662361
v 2684031.7500532214 1251583.7499910167 437.52389243206056
v 2684032.2500084927 1251583.3750353782 437.61529461341053
v 2684033.2200649455 1251585.2302994546 438.39579491081372
v 2684033.1209918549 1251585.3810628538 438.39553805170124
v 2684030.4918960189 1251586.3303445058 437.67610591364172
v 2684030.7770751524 1251585.8963762599 437.67684527464417
v 2684031.0541256825 1251586.2926597206 437.86856230056515
v 2684032.1540887612 1251587.0154926016 438.43110933151809
v 2684031.9599968153 1251587.3108499111 438.43060612427388
v 2684030.9696844406 1251586.5461838255 437.89754063587833
v 2684030.8973816088 1251586.5968064645 437.88348079629776
v 2684033.9420991968 1251584.3559163511 438.45006240647302
v 2684033.7499881606 1251584.499952388 438.41493046696115
v 2684033.5994368009 1251584.1612233131 438.28193592463629
v 2684033.2499919022 1251583.3749989455 437.97324216987283
v 2684034.0411461848 1251583.3749701218 438.25643861025122
v 2684033.8082845872 1251583.7293247262 438.25583488877334
v 2684034.2500164066 1251584.0196056361 438.48174694741658
v 2684034.2500231285 1251584.1250491212 438.50637340673228
v 2684031.8081948096 1251585.979368231 438.06532791972563
v 2684032.2171646664 1251585.3570227972 438.06638822325522
v 2684032.597553289 1251585.6069924633 438.26092792623876
v 2684032.5598457339 1251585.6643735257 438.26083016515344
v 2684032.7989793788 1251586.0504602259 438.4365931529822
v 2684032.9999939986 1251586.3750028957 438.58433869624378
v 2684033.4999980009 1251586.374960558 438.76331124285343
v 2684033.4999957238 1251586.75004371 438.85090301534387
v 2684033.7500564717 1251585.999993535 438.76525720570436
v 2684033.9654368404 1251585.707677112 438.77409099270244
v 2684034.470464319 1251586.0395523121 439.03237394254955
v 2684033.502486791 1251587.5016217697 439.02730958283894
v 2684032.9993984555 1251587.5008252792 438.84703707146662
v 2684033.0000108504 1251587.4999504322 438.84705198443316
v 2684032.7334267939 1251586.900199885 438.61156620465391
v 2684032.5345707424 1251586.4528211944 438.43590764096825
v 2684032.5856854282 1251586.375037977 438.43604016210162
v 2684032.6250984413 1251586.3750346366 438.45014774358293
v 2684032.5975737828 1251586.3569470039 438.43607098458477
v 2684032.5000145915 1251586.3749969907 438.40536368639113
v 2684023.3044694411 1251592.9143773399 436.71169931901051
v 2684023.1836846722 1251593.0981802486 436.71127052020267
v 2684022.6689468557 1251593.0717562877 436.52094033150888
v 2684023.858148871 1251591.2621010474 436.52516211909949
v 2684024.1250505047 1251591.4374935494 436.66149372044282
v 2684023.753788203 1251592.0024579219 436.66017570143521
v 2684024.0431677396 1251592.6869895214 436.92307762654025
v 2684024.2200207161 1251593.1053378708 437.0837489334919
v 2684024.031535313 1251593.3921634844 437.08307979064733
v 2684023.6181056942 1251593.1204811635 436.87190265749143
v 2684027.2628382407 1251588.6189175718 437.12806375292291
v 2684027.2812115648 1251588.6454836379 437.14082250054253
v 2684027.2853825749 1251588.7450044267 437.16548335466354
v 2684026.7500246009 1251587.8750039826 436.77139059995227
v 2684027.7188286898 1251587.979544536 437.14237608586831
v 2684027.3150959932 1251588.5939203778 437.14094279414957
v 2684027.739408453 1251588.3912035609 437.24557389162908
v 2684027.8279506196 1251588.4493884128 437.29080064878696
v 2684027.8082588958 1251588.4793540784 437.29073074056095
v 2684028.2595452364 1251588.7759136737 437.52124483978633
v 2684028.2499860525 1251589.1249752743 437.59908593913235
v 2684027.9166416465 1251589.3750033136 437.53801822799778
v 2684027.6730543361 1251589.3750027071 437.45085994143824
v 2684027.5099365199 1251589.1099229301 437.33078411829115
v 2684025.6615197579 1251591.8555763476 437.30858845058918
v 2684025.7483789623 1251591.877551646 437.34478344868631
v 2684026.123746742 1251592.1242219009 437.53651884545957
v 2684025.8689065161 1251592.5120222447 437.53561413629683
v 2684025.0270785205 1251591.9588209903 437.10561392489956
v 2684024.9605566128 1251591.9753281621 437.08565454130985
v 2684024.7499758094 1251591.6249565682 436.92874003454568
v 2684025.2890000129 1251591.761329195 437.15335618138113
v 2684025.282451571 1251591.771294215 437.15333293458576
v 2684026.3327595373 1251595.6239839478 438.42604982867783
v 2684025.0934635368 1251594.8239674885 437.79637277877561
v 2684023.2733822227 1251593.6279140527 436.86668719694882
v 2684024.2499727197 1251593.7500095472 437.24454553015181
v 2684024.2500228141 1251594.1250130029 437.33186419070398
v 2684024.5000357442 1251593.8749681949 437.3631111050272
v 2684024.5156672108 1251593.8853901376 437.37113043692193
v 2684024.8762191562 1251594.1257803589 437.55610257926082
v 2684025.2500221627 1251594.3750054401 437.74787284575029
v 2684025.5982924905 1251593.9396254946 437.77113132218477
v 2684025.7499614949 1251593.7500209326 437.7812602065851
v 2684026.4999661301 1251594.1250038948 438.1369158514147
v 2684027.0000102064 1251594.7499519703 438.46132476788017
v 2684026.4009430441 1251594.809872654 438.26092165512557
v 2684026.0922677671 1251594.8407473746 438.15766196885028
v 2684026.7545496859 1251595.8130713794 438.62099037461712
v 2684026.5889819185 1251595.7923586555 438.55692653807182
v 2684028.6516648708 1251589.0871106049 437.7339960280741
v 2684028.9278203398 1251588.6668740227 437.73497640733416
v 2684030.0590242185 1251589.4102365712 438.3127879199933
v 2684029.7828687495 1251589.8304731543 438.31180753977958
v 2684026.7430265602 1251593.7500144928 438.13658800742064
v 2684027.4999791402 1251593.750016378 438.40743417508759
v 2684027.2499366095 1251594.3750122709 438.4634652134381
v 2684026.8996398286 1251594.1273936981 438.28047972084858
v 2684030.4425938469 1251588.8265436585 438.31414963080772
v 2684030.0410061097 1251588.5626431454 438.10902125143195
v 2684030.2153413272 1251588.2973504213 438.10964015957006
v 2684030.4696358112 1251588.7961590195 438.31675199592047
v 2684031.2803027024 1251589.3288829771 438.73083532004006
v 2684031.7462914218 1251589.2909725942 438.88874553767732
v 2684031.2499658805 1251590.0000068678 438.87621800111827
v 2684031.1216928228 1251590.4489806814 438.93484155160991
v 2684030.630289122 1251590.4213546386 438.75258071494898
v 2684029.9697260787 1251591.4265592694 438.75023564952875
v 2684028.6925989715 1251590.5873043127 438.09788750983154
v 2684028.7590061659 1251590.4862498879 438.0981232621088
v 2684029.2828474436 1251590.830488442 438.36569794661301
v 2684029.5802553757 1251590.3224302647 438.3538378344457
v 2684029.7254216536 1251590.4178252483 438.42798781626726
v 2684030.0246672756 1251589.9624514759 438.42905016820794
v 2684030.749942298 1251590.1250133328 438.7264056978787
v 2684030.1901968699 1251589.3356525761 438.34235975666274
v 2684030.1164052798 1251589.4479441263 438.34209778891989
v 2684028.5000263071 1251593.5000034482 438.70705878156667
v 2684028.229296295 1251593.0939281574 438.51565443395953
v 2684028.4553164123 1251592.7499845021 438.51645682842292
v 2684028.4809052879 1251592.7499835619 438.52561258310732
v 2684028.7947198492 1251593.278965845 438.7610457688836
v 2684027.4453437929 1251596.0058133774 438.91303419608096
v 2684027.7039140048 1251595.6826497901 438.93032095825464
v 2684028.1515707001 1251595.739479274 439.10372720529233
v 2684027.6782361423 1251596.4597709931 439.10204681969816
v 2684031.6101390654 1251590.4764404583 439.11600547177761
v 2684030.4721041075 1251592.2082327849 439.11196533285488
v 2684030.2500211811 1251591.8750355316 438.9549334267702
v 2684030.9999916609 1251590.8749519333 438.99046160508118
v 2684028.7499891422 1251594.1250471582 438.94200822000386
v 2684029.2693902184 1251594.0384495729 439.10769557735165
v 2684028.8938334459 1251594.6099490097 439.10636231255836
v 2684028.5005306099 1251594.5615774363 438.9543734581319
v 2684029.2499649073 1251582.7499802827 436.47279138914115
v 2684029.565361334 1251582.2769077609 436.47551240665257
v 2684029.6605580882 1251582.3394656281 436.52413828358078
v 2684027.4999745865 1251586.1249658444 436.63232216408363
v 2684027.5043337373 1251586.1787241786 436.64639684510803
v 2684026.8602736783 1251585.7554847116 436.3174151971225
v 2684026.8566415091 1251585.7491293435 436.31463603925863
v 2684027.1540379389 1251585.2885348257 436.31382134288521
v 2684027.4999540932 1251585.3750113051 436.45772555085773
v 2684027.8408121881 1251585.8694214553 436.69478681526977
v 2684026.9701014659 1251587.230316367 436.70005329631522
v 2684026.7815636913 1251587.5172216769 436.69938396751161
v 2684026.2301287982 1251587.1548501754 436.41771464618699
v 2684026.5685684504 1251586.6471795226 436.42062633662789
v 2684028.4688105537 1251585.4794721613 436.8287112217792
v 2684028.0311410581 1251586.1454909595 436.82715745144799
v 2684028.0000095544 1251585.7500625779 436.72396261054291
v 2684027.7693788563 1251585.4040603363 436.56089122097791
v 2684028.013012995 1251586.512999119 436.90622686980498
v 2684028.0000300482 1251586.5000171184 436.89855922472248
v 2684028.7315975074 1251585.2807276531 436.87647151915479
v 2684029.246642726 1251585.6191859392 437.1395532342903
v 2684029.0346197081 1251585.9418296621 437.13880053096057
v 2684028.9022860224 1251586.1432070108 437.13833073341522
v 2684028.4643680756 1251586.809603886 437.1367760800166
v 2684029.2500195554 1251584.8750013835 436.96751547079305
v 2684029.2499861619 1251584.6250190865 436.90930768862097
v 2684029.7500089835 1251584.6250203319 437.08822149122636
v 2684029.4999664519 1251585.2500162246 437.14425252957687
v 2684029.1128680664 1251584.9778731209 436.94238972177158
v 2684028.7735605068 1251588.1516315194 437.55983222846532
v 2684028.3320204774 1251588.8235402605 437.55826471718672
v 2684028.2606994607 1251588.7337662228 437.5118459144868
v 2684028.2053927695 1251587.8750199224 437.29214060620075
v 2684028.2500133761 1251587.875015368 437.30810527638556
v 2684028.2212089947 1251587.8509517543 437.29219675536029
v 2684027.2499502716 1251587.8749994289 436.95026829120684
v 2684027.4999928032 1251587.250003536 436.89423725285633
v 2684031.4999879193 1251582.7500235464 437.27788375773025
v 2684032.2500084927 1251583.3750353782 437.69175178125954
v 2684031.2499453877 1251583.375019439 437.33391479703442
v 2684030.7770751524 1251585.8963762599 437.75168818014203
v 2684030.9370022826 1251585.6530088878 437.75225593712912
v 2684030.9638393139 1251585.631618503 437.756878836601
v 2684030.9549133717 1251585.6257528828 437.75231952369921
v 2684030.7247605002 1251585.8215471965 437.71554924537713
v 2684030.4999658 1251585.5000086618 437.56026118557679
v 2684030.8258969015 1251585.4719259581 437.67034517046181
v 2684032.4302442297 1251586.5952560185 438.50590883702182
v 2684032.1540887612 1251587.0154926016 438.50492845776176
v 2684031.0541256825 1251586.2926597206 437.94307454025875
v 2684033.2995723635 1251581.825423822 437.70654766986314
v 2684033.5000162171 1251581.6249653611 437.73160193143661
v 2684035.2299173996 1251583.0305177043 438.67779140572594
v 2684034.9877113276 1251583.3990921609 438.67693154989922
v 2684033.7106639175 1251582.5598895759 438.02462411903406
v 2684033.7516207881 1251582.1224842155 437.93745103680527
v 2684033.0028799037 1251585.5607984317 438.46998246686439
v 2684033.1209918549 1251585.3810628538 438.47040177603606
v 2684033.5000276025 1251586.0000094741 438.75011548084814
v 2684033.0000758464 1251586.375002889 438.65852579550261
v 2684032.9999939986 1251586.3750028957 438.65849651028134
v 2684032.7989793788 1251586.0504602259 438.51101785552663
v 2684032.9417599649 1251585.8331854222 438.51152474094658
v 2684032.597553289 1251585.6069924633 438.33570623145096
v 2684032.7409991124 1251585.3887053402 438.33621547807468
v 2684032.7438902576 1251587.8658358506 438.91392549520816
v 2684032.9993984555 1251587.5008252792 438.92037466566859
v 2684033.502486791 1251587.5016217697 439.1005704751089
v 2684034.470464319 1251586.0395523121 439.10655368259603
v 2684033.9654368404 1251585.707677112 438.84858896313409
v 2684034.4698415762 1251585.0230938855 438.86969952036191
v 2684034.9754336029 1251585.3553400752 439.12795260803773
v 2684033.1653138492 1251588.1098701342 439.12152649936718
v 2684032.9999789721 1251588.2499846681 439.09498655042836
v 2684025.5872751409 1251588.5377622386 436.59039579480879
v 2684026.0000089179 1251588.0057902462 436.61396309400499
v 2684026.8602737156 1251585.7554847354 436.24187700579091
v 2684026.8602737156 1251585.7554847354 434.02957836899975
v 2684027.7693788772 1251585.404060344 436.6401365452042
v 2684029.2499861247 1251584.6250191026 436.98788273136086
v 2684029.3637181926 1251583.5965791659 436.78884845117756
v 2684029.6605581013 1251582.3394656368 436.44653476558676
v 2684032.3429136099 1251580.7336477258 437.18665452406941
v 2684032.1575847026 1251579.8886152525 436.76803211558411
v 2684035.2299173758 1251583.0305177406 438.60153409718612
v 2684033.3654359491 1251582.7645086211 434.02957836899975
v 2684035.4999349453 1251583.6250308754 434.02957836899975
v 2684035.499941038 1251583.6250323688 434.02957836899975
v 2684033.0000758073 1251586.3750028862 438.58436797765046
v 2684032.295070658 1251584.4884844751 438.04467127532115
v 2684031.8729784833 1251585.8807843786 438.21827057365755
v 2684031.8729784833 1251585.8807843786 438.0654958789425
v 2684032.733426786 1251586.9001998964 438.7634685804677
v 2684032.9993984355 1251587.5008252382 434.02957836899975
v 2684032.7341384324 1251588.7660066383 439.19857697116976
v 2684033.1653138492 1251588.1098701342 434.02957836899975
v 2684032.7341384324 1251588.7660066383 434.02957836899975
v 2684032.3442842113 1251589.3592630618 434.02957836899975
v 2684031.942227406 1251589.9710886336 434.02957836899975
v 2684031.6101390654 1251590.4764404583 434.02957836899975
v 2684030.4721041075 1251592.2082327849 434.02957836899975
v 2684029.2693902184 1251594.0384495729 434.02957836899975
v 2684026.123746742 1251592.1242219009 437.61806072934252
v 2684025.289000011 1251591.7613291969 437.23506336192798
v 2684025.289000011 1251591.7613291969 434.02957836899975
v 2684024.2184199668 1251592.4203013496 437.0059169718902
v 2684027.7320183408 1251594.870520069 434.02957836899975
v 2684027.2621733481 1251596.2347415956 434.02957836899975
v 2684027.2499798732 1251596.2267287399 434.02957836899975
v 2684027.2499826732 1251596.1874762089 438.81754481766484
v 2684026.400943005 1251594.8098726284 434.02957836899975
v 2684025.5982924988 1251593.9396255005 437.85331895239597
v 2684023.273382226 1251593.6279140557 436.94952046668107
v 2684023.2137218607 1251593.5887086724 434.02957836899975
v 2684022.2502865018 1251593.0000824477 434.02957836899975
v 2684021.84018216 1251592.7377893985 434.02957836899975
v 2684021.7499436019 1251592.6790113789 434.02957836899975
v 2684024.0000030687 1251589.1180949011 434.02957836899975
v 2684024.1113450835 1251588.9446211327 434.02957836899975
v 2684024.0000098846 1251588.8714580014 434.02957836899975
v 2684029.3164108107 1251588.0864805202 437.81837439290695
v 2684028.6516648708 1251589.0871106049 437.81394111736444
v 2684028.7089798986 1251589.7498778091 437.98889883646956
v 2684028.5688334862 1251589.9631440898 437.98850172604682
v 2684027.9166416572 1251589.3750032783 437.46527715055049
v 2684028.3320204774 1251588.8235402605 437.63824007680472
v 2684028.6925989715 1251590.5873043127 438.17821738474737
v 2684028.7315974873 1251585.2807276398 436.95538272922749
v 2684028.0130130253 1251586.512999139 436.98568979288541
v 2684028.4030128554 1251586.902970525 437.21600236298423
v 2684029.5058993809 1251587.4940387437 437.74803871650334
v 2684029.0346196909 1251585.9418296888 434.02957836899975
v 2684025.8860739288 1251591.9055037827 434.02957836899975
v 2684032.1540887612 1251587.0154926016 438.58322738937676
v 2684030.7770751677 1251585.8963762361 434.02957836899975
v 2684030.7275147662 1251587.3299452809 438.14651868707097
v 2684033.9420991796 1251584.3559163883 434.02957836899975
v 2684034.2500164341 1251584.0196056543 434.02957836899975
v 2684027.3148700823 1251589.4067631613 437.25728262831711
v 2684028.4553164034 1251592.7499845135 438.44625638243383
v 2684035.1367013943 1251581.1142416566 438.27412961318726
v 2684035.7003843882 1251581.807832537 438.4844116288557
v 2684035.8055422432 1251583.166674589 438.83938242540233
v 2684035.4999511568 1251583.625018707 434.02957836899975
v 2684023.188466338 1251588.3381579567 434.02957836899975
v 2684022.8098196401 1251588.9143594536 434.02957836899975
v 2684022.7499862206 1251588.749974096 434.02957836899975
v 2684023.1879084664 1251588.3377913551 434.02957836899975
v 2684023.1647966499 1251588.3226035906 434.02957836899975
v 2684023.8335820343 1251587.3048867004 434.02957836899975
v 2684025.4396706824 1251584.8219455993 434.02957836899975
v 2684027.20384049 1251582.0946179682 434.02957836899975
v 2684026.9800930573 1251580.9868788447 434.02957836899975
v 2684029.0707674944 1251577.8054177456 434.02957836899975
v 2684027.1888280553 1251576.5687146862 434.02957836899975
v 2684025.068616034 1251579.795124284 434.02957836899975
v 2684024.8815401099 1251580.0471592129 434.02957836899975
v 2684024.3685078765 1251580.8278604387 434.02957836899975
v 2684023.6090467512 1251582.0323572387 434.02957836899975
v 2684021.8460227321 1251584.8131573503 434.02957836899975
v 2684020.9176973403 1251586.1959589694 434.02957836899975
v 2684020.3684831583 1251586.9528834869 434.02957836899975
v 2684018.4382821475 1251589.7434133317 434.02957836899975
v 2684020.7442835737 1251591.2587856969 434.02957836899975
v 2684021.7500415216 1251590.6250027597 434.02957836899975
v 2684022.3398209251 1251591.6840044134 434.02957836899975
v 2684022.9102000664 1251590.8160361561 434.02957836899975
v 2684020.9122916795 1251592.1333960397 434.02957836899975
v 2684019.5827861372 1251591.2489944838 434.02957836899975
v 2684017.6198050566 1251589.964398731 434.02957836899975
v 2684019.2998861168 1251587.4077536392 434.02957836899975
v 2684021.6227808003 1251584.0413524664 434.02957836899975
v 2684022.3622200331 1251582.9487646758 434.02957836899975
v 2684022.4718225403 1251582.8716453915 434.02957836899975
v 2684023.0000446914 1251582.4999741837 434.02957836899975
v 2684022.9188937517 1251581.6967053511 434.02957836899975
v 2684024.0810196479 1251579.9282529019 434.02957836899975
v 2684024.6165420697 1251579.412349337 434.02957836899975
v 2684026.8834469551 1251575.962711469 434.02957836899975
v 2684028.1770415157 1251576.3610202887 434.02957836899975
v 2684031.0729521364 1251578.2640472678 434.02957836899975
v 2684033.6794959814 1251579.982282181 434.02957836899975
v 2684037.0661604111 1251582.1737992794 434.02957836899975
v 2684037.0432216488 1251582.2087060921 439.05871172533267
v 2684037.0432216488 1251582.2087060921 434.02957836899975
v 2684034.9754336029 1251585.3553400752 434.02957836899975
v 2684030.4891642253 1251582.8839782327 434.02957836899975
v 2684029.1128680748 1251584.9778730904 434.02957836899975
v 2684027.6666666372 1251585.2499669883 434.02957836899975
v 2684026.1526400247 1251587.271085962 434.02957836899975
v 2684035.3274568287 1251581.2570901252 434.02957836899975
v 2684024.4690313721 1251590.8176926835 434.02957836899975
v 2684024.1787450616 1251594.2334791492 434.02957836899975
v 2684025.0934635256 1251594.8239674808 434.02957836899975
v 2684027.6730542905 1251589.3750026908 434.02957836899975
v 2684027.302608931 1251589.4041354887 434.02957836899975
v 2684028.5005305586 1251594.5615774305 434.02957836899975
v 2684028.8938334459 1251594.6099490097 434.02957836899975
v 2684028.1515707001 1251595.739479274 434.02957836899975
v 2684026.5889819185 1251595.7923586555 434.02957836899975
v 2684027.2827581782 1251596.2090143976 434.02957836899975
v 2684027.6782361423 1251596.4597709931 434.02957836899975
v 2684027.674046414 1251596.4661466668 434.02957836899975
v 2684027.6560305813 1251596.4935620627 434.02957836899975
v 2684027.8408122016 1251585.8694214353 434.02957836899975
v 2684030.2153413333 1251588.2973504127 434.02957836899975
v 2684032.9983458575 1251581.6249836918 434.02957836899975
v 2684033.0000758073 1251586.3750028862 434.02957836899975
v 2684024.9605566128 1251591.9753281621 434.02957836899975
v 2684026.0922677671 1251594.8407473746 434.02957836899975
v 2684026.3327595373 1251595.6239839478 434.02957836899975
v 2684027.5043337373 1251586.1787241786 434.02957836899975
v 2684028.9022860224 1251586.1432070108 434.02957836899975
v 2684028.259545248 1251588.7759136811 434.02957836899975
v 2684030.8258969015 1251585.4719259581 434.02957836899975
l 1 2
l 2 912
l 3 912
l 3 4
l 4 5
l 5 6
l 7 8
l 8 9
l 9 10
l 10 11
l 11 12
l 12 13
l 13 14
l 14 15
l 15 16
l 16 17
l 17 18
l 18 19
l 19 20
l 20 21
l 21 22
l 22 23
l 24 918
l 25 918
l 25 26
l 26 27
l 27 28
l 28 29
l 29 30
l 30 919
l 31 919
l 31 32
l 32 33
l 33 34
l 34 35
l 35 36
l 36 37
l 37 38
l 38 39
l 39 40
l 40 41
l 41 42
l 44 45
l 45 46
l 46 47
l 47 48
l 48 49
l 50 882
l 51 882
l 51 52
l 52 53
l 53 54
l 55 56
l 56 57
l 57 58
l 58 59
l 59 60
l 60 61
l 61 62
l 63 885
l 64 885
l 64 65
l 65 66
l 66 67
l 67 68
l 68 69
l 70 71
l 71 72
l 73 886
l 74 886
l 74 75
l 75 76
l 76 77
l 77 78
l 78 79
l 80 81
l 81 82
l 83 84
l 84 85
l 85 86
l 87 889
l 88 889
l 88 89
l 89 90
l 90 91
l 91 92
l 92 93
l 93 94
l 94 95
l 95 96
l 96 97
l 97 98
l 98 99
l 99 100
l 101 102
l 102 103
l 104 105
l 105 106
l 107 108
l 108 109
l 109 110
l 110 111
l 111 112
l 112 113
l 113 114
l 114 115
l 115 116
l 116 117
l 117 118
l 118 119
l 119 120
l 120 121
l 121 122
l 123 124
l 124 125
l 126 127
l 127 128
l 123 129
l 122 130
l 130 131
l 132 896
l 133 896
l 133 134
l 134 135
l 135 136
l 136 137
l 137 897
l 138 897
l 139 899
l 140 899
l 140 141
l 143 144
l 144 901
l 145 901
l 146 147
l 147 148
l 149 150
l 150 151
l 151 152
l 152 153
l 153 154
l 154 155
l 155 156
l 156 157
l 157 158
l 158 159
l 160 161
l 161 162
l 163 164
l 164 165
l 166 909
l 167 909
l 168 169
l 169 170
l 170 171
l 172 173
l 173 174
l 149 175
l 175 176
l 176 177
l 177 178
l 180 940
l 181 940
l 182 183
l 183 184
l 184 185
l 186 187
l 180 187
l 178 189
l 189 190
l 192 193
l 193 194
l 194 195
l 196 197
l 199 200
l 200 201
l 201 202
l 202 203
l 204 205
l 205 206
l 206 207
l 207 930
l 208 930
l 209 210
l 210 211
l 211 212
l 212 932
l 213 932
l 213 214
l 215 216
l 216 217
l 217 218
l 219 935
l 935 936
l 220 936
l 220 221
l 222 223
l 224 225
l 225 226
l 226 227
l 227 228
l 228 229
l 229 230
l 230 231
l 168 232
l 167 233
l 233 234
l 234 910
l 235 910
l 235 236
l 236 237
l 238 239
l 239 240
l 240 241
l 241 242
l 242 243
l 243 244
l 244 245
l 246 247
l 247 248
l 6 7
l 42 43
l 43 44
l 49 881
l 50 881
l 79 887
l 80 887
l 82 249
l 249 250
l 87 251
l 125 126
l 129 252
l 141 142
l 142 143
l 159 160
l 171 253
l 253 254
l 232 254
l 172 255
l 174 933
l 256 933
l 188 257
l 179 257
l 185 186
l 188 258
l 199 259
l 260 929
l 204 929
l 208 209
l 214 222
l 221 261
l 261 937
l 262 937
l 215 262
l 70 934
l 219 934
l 224 263
l 255 264
l 237 238
l 245 246
l 23 265
l 24 265
l 54 55
l 72 73
l 100 266
l 101 266
l 103 104
l 106 107
l 128 252
l 165 166
l 258 267
l 191 927
l 259 927
l 203 928
l 260 928
l 223 263
l 231 264
l 251 268
l 1 248
l 268 269
l 162 163
l 256 270
l 190 191
l 149 270
l 271 942
l 267 942
l 192 198
l 218 272
l 179 271
l 198 273
l 195 274
l 274 275
l 273 275
l 62 63
l 69 70
l 182 276
l 276 277
l 277 278
l 148 149
l 70 272
l 146 279
l 83 250
l 280 281
l 281 282
l 280 283
l 86 269
l 282 283
l 196 284
l 131 284
l 145 146
l 146 285
l 279 285
l 197 284
l 284 286
l 286 287
l 132 287
l 181 278
l 138 139
l 288 289
l 289 290
l 290 291
l 291 292
l 288 292
l 225 293
l 225 294
l 212 294
l 212 293
l 173 208
l 173 295
l 208 295
l 296 297
l 297 298
l 296 298
l 299 300
l 298 300
l 298 299
l 301 302
l 302 303
l 303 304
l 304 305
l 305 306
l 301 306
l 307 308
l 308 309
l 307 309
l 307 310
l 310 311
l 311 312
l 307 312
l 313 314
l 224 314
l 224 313
l 274 315
l 274 316
l 315 316
l 317 318
l 318 319
l 317 319
l 320 321
l 321 322
l 136 322
l 136 320
l 139 323
l 139 324
l 323 324
l 323 325
l 323 326
l 325 326
l 86 327
l 327 328
l 86 328
l 329 947
l 330 947
l 330 331
l 331 332
l 332 333
l 333 334
l 334 335
l 335 336
l 336 337
l 337 338
l 329 338
l 135 339
l 130 339
l 130 340
l 135 340
l 114 341
l 341 342
l 342 343
l 343 344
l 115 345
l 115 346
l 114 346
l 344 345
l 347 348
l 348 349
l 350 351
l 351 352
l 352 353
l 354 355
l 355 356
l 357 358
l 358 359
l 359 360
l 360 361
l 361 890
l 362 890
l 362 363
l 364 365
l 365 366
l 366 367
l 367 368
l 368 369
l 369 370
l 369 371
l 369 372
l 372 373
l 373 888
l 374 888
l 374 375
l 375 376
l 376 377
l 377 378
l 378 379
l 379 380
l 380 381
l 381 382
l 383 384
l 384 385
l 385 386
l 386 387
l 387 388
l 388 389
l 389 390
l 390 391
l 392 393
l 393 394
l 395 883
l 396 883
l 396 397
l 397 398
l 398 399
l 399 400
l 401 402
l 402 403
l 403 404
l 404 405
l 405 406
l 407 408
l 408 409
l 409 410
l 410 411
l 411 412
l 412 413
l 413 414
l 414 415
l 415 416
l 416 417
l 417 418
l 419 420
l 420 421
l 422 423
l 423 424
l 424 425
l 425 426
l 426 427
l 428 429
l 429 430
l 431 432
l 432 433
l 433 434
l 434 435
l 435 436
l 437 438
l 438 439
l 439 440
l 440 441
l 441 442
l 442 443
l 443 444
l 444 445
l 445 446
l 446 447
l 447 448
l 448 449
l 449 450
l 450 451
l 451 452
l 452 453
l 454 455
l 455 456
l 456 457
l 458 459
l 459 460
l 460 461
l 461 462
l 462 463
l 463 464
l 464 465
l 465 466
l 466 467
l 467 468
l 468 469
l 469 470
l 470 471
l 471 472
l 472 473
l 473 474
l 350 475
l 353 354
l 349 357
l 363 364
l 382 476
l 391 477
l 392 478
l 400 401
l 406 407
l 421 422
l 430 431
l 436 437
l 479 990
l 454 990
l 457 949
l 480 949
l 383 476
l 477 478
l 474 891
l 347 891
l 394 395
l 427 428
l 458 481
l 370 371
l 480 481
l 418 419
l 356 482
l 482 948
l 483 948
l 475 483
l 453 479
l 484 485
l 485 486
l 486 487
l 487 488
l 489 490
l 490 491
l 491 492
l 492 493
l 493 494
l 494 495
l 495 496
l 497 498
l 498 499
l 484 499
l 488 489
l 496 497
l 500 501
l 501 502
l 503 504
l 504 505
l 505 506
l 506 507
l 500 507
l 502 503
l 508 509
l 509 510
l 508 510
l 512 945
l 513 945
l 512 514
l 511 515
l 515 516
l 516 517
l 517 518
l 519 520
l 520 521
l 521 522
l 522 523
l 511 523
l 514 524
l 525 931
l 519 931
l 513 524
l 518 525
l 526 527
l 527 528
l 528 529
l 529 530
l 530 531
l 531 532
l 526 532
l 533 534
l 536 537
l 537 538
l 538 539
l 539 540
l 540 541
l 541 542
l 542 543
l 543 544
l 545 546
l 548 549
l 549 550
l 549 551
l 545 547
l 544 547
l 498 552
l 498 553
l 553 554
l 554 555
l 555 556
l 556 557
l 557 558
l 559 560
l 560 561
l 561 562
l 534 563
l 563 564
l 565 566
l 566 567
l 536 568
l 535 568
l 535 562
l 559 569
l 564 565
l 567 946
l 533 946
l 569 570
l 558 570
l 548 551
l 547 552
l 547 571
l 549 571
l 550 571
l 546 571
l 520 522
l 520 572
l 572 573
l 573 574
l 574 575
l 575 576
l 522 576
l 577 578
l 578 579
l 579 580
l 580 916
l 577 916
l 581 582
l 539 582
l 539 581
l 583 584
l 584 585
l 581 586
l 581 587
l 583 587
l 585 586
l 393 588
l 393 589
l 589 590
l 588 590
l 591 592
l 592 593
l 593 594
l 594 595
l 595 596
l 596 597
l 597 598
l 598 599
l 599 600
l 591 600
l 601 602
l 602 603
l 601 603
l 604 605
l 605 606
l 606 607
l 604 607
l 608 609
l 610 611
l 611 612
l 612 613
l 614 615
l 615 616
l 616 617
l 610 617
l 609 614
l 608 614
l 613 614
l 618 619
l 619 620
l 620 621
l 621 622
l 622 623
l 623 624
l 618 624
l 625 626
l 626 627
l 627 628
l 628 629
l 629 630
l 631 632
l 632 633
l 633 634
l 634 635
l 625 635
l 630 631
l 636 637
l 637 638
l 638 639
l 639 640
l 640 641
l 641 642
l 636 642
l 643 644
l 644 645
l 643 645
l 644 646
l 644 647
l 646 647
l 648 649
l 649 650
l 650 651
l 648 651
l 652 653
l 653 654
l 654 655
l 655 656
l 389 656
l 389 652
l 657 658
l 658 659
l 659 660
l 660 661
l 661 662
l 657 662
l 663 664
l 471 664
l 471 665
l 663 665
l 666 667
l 667 668
l 668 669
l 670 671
l 671 672
l 672 673
l 673 674
l 674 675
l 675 676
l 666 676
l 669 670
l 677 678
l 678 679
l 679 680
l 680 681
l 681 682
l 682 683
l 677 683
l 684 685
l 685 686
l 686 687
l 687 688
l 688 689
l 689 690
l 690 691
l 684 691
l 692 898
l 693 898
l 693 694
l 694 695
l 695 696
l 696 697
l 697 895
l 698 895
l 698 699
l 699 700
l 700 701
l 701 702
l 702 703
l 703 704
l 704 705
l 705 706
l 706 707
l 707 708
l 708 709
l 708 710
l 708 711
l 707 711
l 692 707
l 709 710
l 712 713
l 713 714
l 714 715
l 715 716
l 716 717
l 718 719
l 719 720
l 720 721
l 712 721
l 717 718
l 722 723
l 724 725
l 725 726
l 727 728
l 728 729
l 729 730
l 730 731
l 731 732
l 732 733
l 733 734
l 734 735
l 724 735
l 723 727
l 722 727
l 726 727
l 736 737
l 737 738
l 738 739
l 739 740
l 741 742
l 742 743
l 743 744
l 736 744
l 740 741
l 745 746
l 746 747
l 747 748
l 748 749
l 749 750
l 750 751
l 751 752
l 752 753
l 754 755
l 755 756
l 756 757
l 757 758
l 758 759
l 759 760
l 760 761
l 745 761
l 753 754
l 762 763
l 763 764
l 764 765
l 762 765
l 766 767
l 767 768
l 768 769
l 766 769
l 770 771
l 771 772
l 772 773
l 773 774
l 774 775
l 775 776
l 776 777
l 777 778
l 778 779
l 779 780
l 780 781
l 781 782
l 782 783
l 783 784
l 784 785
l 785 786
l 787 788
l 764 788
l 764 770
l 786 787
l 789 790
l 790 791
l 791 792
l 792 793
l 789 793
l 794 795
l 795 796
l 796 797
l 794 797
l 798 799
l 799 800
l 800 801
l 777 801
l 777 798
l 802 803
l 803 804
l 804 805
l 802 805
l 806 807
l 807 808
l 806 808
l 809 810
l 810 811
l 811 812
l 812 813
l 813 814
l 814 815
l 809 815
l 816 817
l 817 818
l 818 819
l 816 819
l 820 821
l 815 821
l 815 822
l 822 823
l 820 823
l 824 825
l 825 826
l 826 827
l 827 828
l 828 829
l 829 830
l 824 830
l 831 832
l 832 833
l 833 834
l 834 835
l 831 835
l 836 837
l 731 837
l 731 838
l 729 838
l 729 839
l 839 840
l 840 841
l 839 841
l 839 842
l 842 843
l 836 843
l 844 845
l 845 846
l 844 846
l 848 849
l 848 850
l 847 851
l 851 852
l 852 853
l 854 855
l 855 856
l 847 856
l 849 850
l 853 854
l 857 858
l 858 859
l 859 860
l 860 861
l 861 862
l 857 862
l 863 864
l 864 865
l 865 866
l 866 867
l 867 868
l 868 869
l 869 870
l 870 871
l 863 871
l 872 873
l 873 874
l 875 876
l 876 877
l 877 878
l 878 879
l 879 880
l 872 880
l 874 875
l 48 405
l 49 404
l 50 402
l 51 400
l 53 818
l 54 817
l 55 816
l 56 819
l 57 396
l 58 811
l 59 810
l 60 809
l 61 815
l 62 821
l 63 820
l 589 823
l 393 814
l 64 814
l 65 392
l 66 478
l 67 477
l 68 391
l 69 390
l 70 389
l 71 835
l 72 834
l 73 833
l 386 832
l 74 385
l 75 384
l 76 383
l 77 476
l 78 382
l 79 381
l 80 379
l 81 378
l 82 377
l 250 375
l 83 374
l 84 808
l 85 807
l 86 369
l 268 367
l 251 366
l 87 365
l 88 363
l 89 362
l 91 361
l 92 360
l 94 358
l 95 357
l 96 349
l 97 348
l 98 347
l 99 859
l 100 858
l 664 858
l 266 663
l 101 665
l 471 857
l 102 857
l 103 470
l 104 469
l 105 468
l 106 467
l 107 466
l 108 465
l 109 464
l 110 463
l 111 462
l 112 461
l 113 460
l 114 459
l 459 893
l 893 894
l 456 894
l 115 456
l 455 877
l 701 876
l 118 700
l 119 699
l 120 698
l 121 866
l 122 865
l 130 864
l 676 864
l 131 675
l 674 845
l 284 845
l 286 673
l 132 671
l 133 669
l 134 668
l 667 871
l 135 871
l 136 870
l 694 870
l 137 693
l 138 692
l 139 707
l 140 705
l 704 873
l 142 872
l 143 880
l 144 879
l 902 903
l 903 904
l 145 647
l 146 644
l 147 646
l 905 906
l 148 798
l 149 777
l 150 801
l 151 800
l 152 799
l 907 908
l 153 803
l 154 802
l 155 805
l 156 568
l 157 535
l 158 562
l 159 561
l 160 560
l 161 559
l 162 569
l 163 570
l 164 558
l 165 557
l 166 556
l 555 738
l 167 737
l 234 744
l 496 743
l 235 495
l 236 494
l 237 493
l 238 492
l 239 491
l 240 490
l 241 489
l 242 488
l 243 716
l 244 715
l 245 714
l 510 713
l 509 721
l 247 721
l 248 720
l 1 719
l 2 718
l 485 718
l 3 499
l 498 741
l 4 741
l 5 552
l 547 769
l 6 769
l 7 544
l 8 543
l 10 541
l 11 540
l 539 795
l 12 795
l 13 582
l 581 794
l 14 794
l 16 585
l 914 915
l 17 577
l 19 580
l 20 760
l 21 759
l 23 757
l 265 756
l 24 755
l 25 753
l 28 750
l 29 749
l 30 748
l 500 747
l 31 507
l 34 504
l 35 503
l 921 922
l 922 923
l 37 438
l 38 437
l 39 436
l 40 435
l 41 434
l 42 433
l 43 432
l 924 925
l 44 925
l 925 926
l 45 408
l 46 407
l 47 406
l 270 778
l 175 776
l 176 775
l 177 774
l 178 773
l 619 772
l 190 618
l 191 624
l 259 622
l 199 621
l 200 771
l 201 770
l 202 764
l 203 763
l 626 762
l 260 625
l 204 783
l 205 782
l 206 781
l 207 573
l 208 520
l 209 519
l 210 733
l 211 732
l 212 731
l 604 837
l 213 607
l 214 606
l 605 836
l 223 843
l 263 842
l 224 839
l 225 729
l 226 728
l 227 727
l 228 726
l 229 725
l 230 724
l 517 724
l 231 516
l 255 511
l 173 522
l 174 576
l 575 780
l 256 779
l 279 645
l 285 643
l 197 846
l 196 844
l 272 652
l 656 826
l 219 825
l 598 824
l 220 596
l 221 595
l 261 594
l 262 592
l 215 591
l 600 829
l 216 829
l 217 828
l 654 828
l 218 653
l 168 530
l 169 529
l 170 528
l 171 527
l 253 526
l 254 532
l 232 531
l 181 854
l 659 853
l 277 658
l 276 657
l 182 662
l 661 851
l 183 851
l 184 847
l 678 847
l 185 677
l 186 683
l 187 682
l 180 681
l 680 855
l 193 617
l 194 616
l 195 615
l 274 614
l 275 613
l 273 612
l 198 611
l 192 610
l 179 640
l 271 639
l 267 637
l 188 642
l 257 641
l 282 651
l 283 650
l 280 649
l 281 648
l 123 685
l 125 691
l 126 690
l 127 689
l 128 688
l 252 687
l 290 513
l 292 512
l 289 524
l 294 838
l 293 730
l 295 521
l 298 549
l 296 548
l 297 551
l 299 550
l 571 766
l 300 766
l 302 787
l 303 786
l 632 785
l 305 631
l 306 630
l 629 788
l 307 792
l 308 791
l 309 567
l 566 792
l 311 564
l 312 793
l 310 565
l 313 841
l 314 840
l 316 609
l 315 608
l 319 848
l 317 850
l 318 849
l 322 695
l 320 869
l 321 868
l 324 711
l 323 708
l 326 710
l 325 709
l 328 370
l 327 371
l 330 353
l 332 351
l 333 350
l 334 475
l 335 483
l 338 356
l 329 355
l 340 863
l 339 666
l 343 480
l 345 457
l 894 950
l 346 950
l 893 950
l 341 458
l 926 951
l 409 951
l 951 952
l 410 952
l 952 953
l 411 953
l 953 954
l 412 954
l 954 955
l 413 955
l 955 956
l 956 957
l 957 958
l 416 958
l 958 959
l 417 959
l 959 960
l 418 960
l 960 961
l 419 961
l 961 962
l 962 963
l 963 964
l 964 965
l 965 966
l 966 967
l 967 968
l 968 969
l 427 969
l 969 970
l 428 970
l 970 971
l 429 971
l 971 972
l 430 972
l 972 973
l 924 973
l 923 974
l 974 975
l 975 976
l 441 976
l 976 977
l 977 978
l 978 979
l 444 979
l 979 980
l 445 980
l 980 981
l 446 981
l 981 982
l 447 982
l 982 983
l 448 983
l 983 984
l 449 984
l 984 985
l 450 985
l 985 986
l 451 986
l 986 987
l 987 988
l 988 989
l 479 989
l 989 991
l 991 992
l 454 878
l 472 862
l 473 861
l 474 860
l 373 806
l 387 831
l 394 813
l 395 812
l 486 717
l 497 742
l 921 999
l 999 1000
l 508 712
l 525 734
l 553 740
l 554 739
l 537 804
l 1004 1005
l 538 796
l 545 768
l 546 767
l 534 789
l 533 790
l 915 1006
l 578 761
l 587 797
l 1008 1009
l 1009 1010
l 584 1010
l 914 1010
l 590 822
l 588 815
l 599 830
l 601 722
l 603 723
l 602 727
l 628 764
l 627 765
l 633 784
l 904 905
l 655 827
l 660 852
l 679 856
l 703 874
l 697 867
l 702 875
l 1006 1017
l 1000 1017
l 1005 1008
l 906 907
l 908 1004
l 902 992
