# Source coordinates; no display transform
v 2685641.89554 1251072.15492 436.429490481
v 2685641.75 1251071.5 436.431045747
v 2685641.75 1251068.625 436.437968645
v 2685642.5 1251067.75 436.440187735
v 2685643.5 1251067.375 436.441240208
v 2685644.5 1251067.125 436.441991691
v 2685646.25 1251066.75 436.443156282
v 2685648.75 1251066.25 436.444733986
v 2685650.75 1251065.875 436.445935951
v 2685652.5 1251065.625 436.446799547
v 2685653.25 1251066.125 436.445707678
v 2685654.02688 1251069.71807 436.437171827
v 2685642.25 1251073.75 435.291273411
v 2685654.25 1251070.75 435.701653542
v 2685654.25 1251071 435.530848122
v 2685653.75 1251071.375 435.342943524
v 2685649.75 1251072.25 435.29155286
v 2685645.5 1251073.125 435.27431396
v 2685641.89554 1251072.15492 433.895842532
v 2685641.75 1251071.5 433.895842532
v 2685641.75 1251068.625 433.895842532
v 2685642.5 1251067.75 433.895842532
v 2685643.5 1251067.375 433.895842532
v 2685644.5 1251067.125 433.895842532
v 2685646.25 1251066.75 433.895842532
v 2685648.75 1251066.25 433.895842532
v 2685650.75 1251065.875 433.895842532
v 2685652.5 1251065.625 433.895842532
v 2685653.25 1251066.125 433.895842532
v 2685654.02688 1251069.71807 433.895842532
v 2685654.25 1251070.75 433.895842532
v 2685654.25 1251071 433.895842532
v 2685653.75 1251071.375 433.895842532
v 2685649.75 1251072.25 433.895842532
v 2685645.5 1251073.125 433.895842532
v 2685642.25 1251073.75 433.895842532
g roof
f 1 2 3 4 5 6 7 8 9 10 11 12
g roof
f 13 1 12 14 15 16 17 18
g wall
f 2 1 19 20
g wall
f 3 2 20 21
g wall
f 4 3 21 22
g wall
f 5 4 22 23
g wall
f 6 5 23 24
g wall
f 7 6 24 25
g wall
f 8 7 25 26
g wall
f 9 8 26 27
g wall
f 10 9 27 28
g wall
f 11 10 28 29
g wall
f 12 11 29 30
g wall
f 1 13 36 19
g wall
f 14 12 30 31
g wall
f 15 14 31 32
g wall
f 16 15 32 33
g wall
f 17 16 33 34
g wall
f 18 17 34 35
g wall
f 13 18 35 36
g ground_assumed
f 36 35 34 33 32 31 30 29 28 27 26 25 24 23 22 21 20 19
