# XYZ-only planar convex-roof baseline. Provisional base; no GT.
v -11.84000324 4.78571703 0.92997935
v -12.12228217 3.51546183 0.93299589
v -12.12228217 -2.06078797 0.94642330
v -10.66760831 -3.75790747 0.95072737
v -8.72804317 -4.48524440 0.95276871
v -6.78847802 -4.97013569 0.95422626
v -3.39423901 -5.69747262 0.95648506
v 1.45467386 -6.66725520 0.95954512
v 5.33380416 -7.39459213 0.96187641
v 8.72804317 -7.87948341 0.96355141
v 10.18271703 -6.90970084 0.96143366
v 11.68952548 0.05928827 0.94487782
v -11.15249960 7.87948341 -1.27766681
v 12.12228217 2.06078797 -0.48170781
v 12.12228217 2.54567926 -0.81299605
v 11.15249960 3.27301619 -1.17744926
v 3.39423901 4.97013569 -1.27712480
v -4.84891287 6.66725520 -1.31056077
v -11.84000324 4.78571703 -3.98419591
v -12.12228217 3.51546183 -3.98419591
v -12.12228217 -2.06078797 -3.98419591
v -10.66760831 -3.75790747 -3.98419591
v -8.72804317 -4.48524440 -3.98419591
v -6.78847802 -4.97013569 -3.98419591
v -3.39423901 -5.69747262 -3.98419591
v 1.45467386 -6.66725520 -3.98419591
v 5.33380416 -7.39459213 -3.98419591
v 8.72804317 -7.87948341 -3.98419591
v 10.18271703 -6.90970084 -3.98419591
v 11.68952548 0.05928827 -3.98419591
v 12.12228217 2.06078797 -3.98419591
v 12.12228217 2.54567926 -3.98419591
v 11.15249960 3.27301619 -3.98419591
v 3.39423901 4.97013569 -3.98419591
v -4.84891287 6.66725520 -3.98419591
v -11.15249960 7.87948341 -3.98419591
g roof
f 1 2 3 4 5 6 7 8 9 10 11 12
g roof
f 13 1 12 14 15 16 17 18
g wall
f 2 1 19 20
g wall
f 3 2 20 21
g wall
f 4 3 21 22
g wall
f 5 4 22 23
g wall
f 6 5 23 24
g wall
f 7 6 24 25
g wall
f 8 7 25 26
g wall
f 9 8 26 27
g wall
f 10 9 27 28
g wall
f 11 10 28 29
g wall
f 12 11 29 30
g wall
f 1 13 36 19
g wall
f 14 12 30 31
g wall
f 15 14 31 32
g wall
f 16 15 32 33
g wall
f 17 16 33 34
g wall
f 18 17 34 35
g wall
f 13 18 35 36
g ground_assumed
f 36 35 34 33 32 31 30 29 28 27 26 25 24 23 22 21 20 19
