v 2685641.8955372279 1251072.1549175214 436.42949048131305
v 2685641.7500000023 1251071.4999999998 436.43104574745257
v 2685641.7500000023 1251068.6249999998 436.43796864458454
v 2685642.5000000019 1251067.7500000021 436.44018773477831
v 2685643.4999999977 1251067.3750000023 436.44124020780407
v 2685644.4999999991 1251067.1250000009 436.44199169068236
v 2685646.2499999995 1251066.7500000012 436.44315628162292
v 2685648.7499999995 1251066.2499999979 436.44473398578162
v 2685650.7500000014 1251065.8749999981 436.44593595107909
v 2685652.5000000023 1251065.6250000019 436.44679954671636
v 2685653.2500000019 1251066.1249999998 436.44570767826212
v 2685654.0268795262 1251069.7180678158 436.43717182680211
v 2685642.2500000005 1251073.7499999981 435.29127341120159
v 2685654.2499999977 1251070.7500000002 435.70165354245813
v 2685654.2499999977 1251071.0000000016 435.53084812231094
v 2685653.7499999995 1251071.3750000014 435.34294352401292
v 2685649.7500000005 1251072.2499999991 435.29155286043823
v 2685645.5 1251073.1250000021 435.27431396024701
v 2685641.8955372279 1251072.1549175214 433.8958425318375
v 2685641.7500000023 1251071.4999999998 433.8958425318375
v 2685641.7500000023 1251068.6249999998 433.8958425318375
v 2685642.5000000019 1251067.7500000021 433.8958425318375
v 2685643.4999999977 1251067.3750000023 433.8958425318375
v 2685644.4999999991 1251067.1250000009 433.8958425318375
v 2685646.2499999995 1251066.7500000012 433.8958425318375
v 2685648.7499999995 1251066.2499999979 433.8958425318375
v 2685650.7500000014 1251065.8749999981 433.8958425318375
v 2685652.5000000023 1251065.6250000019 433.8958425318375
v 2685653.2500000019 1251066.1249999998 433.8958425318375
v 2685654.0268795262 1251069.7180678158 433.8958425318375
v 2685654.2499999977 1251070.7500000002 433.8958425318375
v 2685654.2499999977 1251071.0000000016 433.8958425318375
v 2685653.7499999995 1251071.3750000014 433.8958425318375
v 2685649.7500000005 1251072.2499999991 433.8958425318375
v 2685645.5 1251073.1250000021 433.8958425318375
v 2685642.2500000005 1251073.7499999981 433.8958425318375
l 1 2
l 2 3
l 3 4
l 4 5
l 5 6
l 6 7
l 7 8
l 8 9
l 9 10
l 10 11
l 11 12
l 1 12
l 1 13
l 12 14
l 14 15
l 15 16
l 16 17
l 17 18
l 13 18
l 19 20
l 2 20
l 20 21
l 3 21
l 21 22
l 4 22
l 22 23
l 23 24
l 24 25
l 25 26
l 26 27
l 27 28
l 10 28
l 28 29
l 11 29
l 29 30
l 13 36
l 19 36
l 30 31
l 14 31
l 31 32
l 15 32
l 32 33
l 16 33
l 33 34
l 34 35
l 35 36
