# Source coordinates; no display transform
v 2679905.75 1246943.125 451.142191967
v 2679921 1246950.25 451.131022007
v 2679924.75 1246952.25 451.126428034
v 2679924.75 1246952.375 451.125496772
v 2679918.75 1246963.25 451.027986729
v 2679918.5 1246963.375 451.026368379
v 2679896.5 1246962.5 450.972423825
v 2679894 1246961.25 450.974865631
v 2679894 1246960.875 450.97765942
v 2679903.75 1246942.625 451.140420358
v 2679905.75 1246943.125 447.444636958
v 2679921 1246950.25 447.444636958
v 2679924.75 1246952.25 447.444636958
v 2679924.75 1246952.375 447.444636958
v 2679918.75 1246963.25 447.444636958
v 2679918.5 1246963.375 447.444636958
v 2679896.5 1246962.5 447.444636958
v 2679894 1246961.25 447.444636958
v 2679894 1246960.875 447.444636958
v 2679903.75 1246942.625 447.444636958
g roof
f 1 2 3 4 5 6 7 8 9 10
g wall
f 2 1 11 12
g wall
f 3 2 12 13
g wall
f 4 3 13 14
g wall
f 5 4 14 15
g wall
f 6 5 15 16
g wall
f 7 6 16 17
g wall
f 8 7 17 18
g wall
f 9 8 18 19
g wall
f 10 9 19 20
g wall
f 1 10 20 11
g ground_assumed
f 20 19 18 17 16 15 14 13 12 11
