# Source coordinates; no display transform
v 2685875.00115 1245523.54737 478.729549649
v 2685882.93667 1245515.04504 478.713410569
v 2685889.9631 1245521.60304 478.70275732
v 2685882.02758 1245530.10538 478.718896393
v 2685875.00115 1245523.54737 475.937498476
v 2685882.93667 1245515.04504 475.937498476
v 2685889.9631 1245521.60304 475.937498476
v 2685882.02758 1245530.10538 475.937498476
g roof
f 1 2 3 4
g wall
f 2 1 5 6
g wall
f 3 2 6 7
g wall
f 4 3 7 8
g wall
f 1 4 8 5
g ground_assumed
f 8 7 6 5
