v 2680407.75 1247031.8749999991 439.38492715584317
v 2680414.7499999977 1247033.1249999993 439.32561911841344
v 2680416.7499999995 1247033.7499999995 439.30799281913829
v 2680417.0000000019 1247034.7499999977 439.30344526260745
v 2680416.5000000028 1247037.1249999972 439.30141502701173
v 2680415.4999999991 1247041.7500000009 439.29767242753042
v 2680415 1247041.8750000021 439.30136379933919
v 2680414.2499999986 1247041.7500000009 439.30769552521065
v 2680413.4999999972 1247041.6249999998 439.31402725664066
v 2680412.7500000014 1247041.4999999986 439.32035898251206
v 2680409.9999999986 1247040.9999999998 439.34368126979695
v 2680409.2500000028 1247040.7499999974 439.35033086737855
v 2680405.7499999981 1247036.1249999993 439.39015663073747
v 2680405.7499999981 1247035 439.39301743721899
v 2680406.2499999972 1247032.3749999981 439.39568340511789
v 2680406.4999999995 1247031.8749999991 439.3949502535234
v 2680406.7500000019 1247031.7499999979 439.39326350347409
v 2680407.75 1247031.8749999991 433.89622876020189
v 2680414.7499999977 1247033.1249999993 433.89622876020189
v 2680416.7499999995 1247033.7499999995 433.89622876020189
v 2680417.0000000019 1247034.7499999977 433.89622876020189
v 2680416.5000000028 1247037.1249999972 433.89622876020189
v 2680415.4999999991 1247041.7500000009 433.89622876020189
v 2680415 1247041.8750000021 433.89622876020189
v 2680414.2499999986 1247041.7500000009 433.89622876020189
v 2680413.4999999972 1247041.6249999998 433.89622876020189
v 2680412.7500000014 1247041.4999999986 433.89622876020189
v 2680409.9999999986 1247040.9999999998 433.89622876020189
v 2680409.2500000028 1247040.7499999974 433.89622876020189
v 2680405.7499999981 1247036.1249999993 433.89622876020189
v 2680405.7499999981 1247035 433.89622876020189
v 2680406.2499999972 1247032.3749999981 433.89622876020189
v 2680406.4999999995 1247031.8749999991 433.89622876020189
v 2680406.7500000019 1247031.7499999979 433.89622876020189
l 1 2
l 2 3
l 3 4
l 4 5
l 5 6
l 6 7
l 7 8
l 8 9
l 9 10
l 10 11
l 11 12
l 12 13
l 13 14
l 14 15
l 15 16
l 16 17
l 1 17
l 18 19
l 19 20
l 3 20
l 20 21
l 4 21
l 21 22
l 22 23
l 6 23
l 23 24
l 7 24
l 24 25
l 25 26
l 26 27
l 27 28
l 28 29
l 12 29
l 29 30
l 13 30
l 30 31
l 14 31
l 31 32
l 15 32
l 32 33
l 16 33
l 33 34
l 17 34
l 18 34
