# Source coordinates; no display transform
v -0.0708752438097 -0.291983185676 0.197088806596
v 0.499234348976 -0.0185557725514 0.189175609637
v 0.499279387692 0.00427863696465 0.189012382025
v 0.48943101646 0.026347395476 0.188958113601
v 0.324846119095 0.368653355452 0.188240100751
v 0.309488064763 0.388635340131 0.188258346532
v 0.279162287904 0.391157484038 0.188557627684
v -0.421303107777 0.0544512836977 0.198285594406
v -0.491352649598 0.0173697643918 0.199282734253
v -0.496246810001 -0.0160036029834 0.199571809788
v -0.491322624385 -0.030776159831 0.199625588242
v -0.321408196992 -0.383020567575 0.200358683119
v -0.307281188952 -0.402071760784 0.200346681991
v -0.0708752438097 -0.291983185676 -0.19037751083
v 0.499234348976 -0.0185557725514 -0.19037751083
v 0.499279387692 0.00427863696465 -0.19037751083
v 0.48943101646 0.026347395476 -0.19037751083
v 0.324846119095 0.368653355452 -0.19037751083
v 0.309488064763 0.388635340131 -0.19037751083
v 0.279162287904 0.391157484038 -0.19037751083
v -0.421303107777 0.0544512836977 -0.19037751083
v -0.491352649598 0.0173697643918 -0.19037751083
v -0.496246810001 -0.0160036029834 -0.19037751083
v -0.491322624385 -0.030776159831 -0.19037751083
v -0.321408196992 -0.383020567575 -0.19037751083
v -0.307281188952 -0.402071760784 -0.19037751083
g roof
f 1 2 3 4 5 6 7 8 9 10 11 12 13
g wall
f 2 1 14 15
g wall
f 3 2 15 16
g wall
f 4 3 16 17
g wall
f 5 4 17 18
g wall
f 6 5 18 19
g wall
f 7 6 19 20
g wall
f 8 7 20 21
g wall
f 9 8 21 22
g wall
f 10 9 22 23
g wall
f 11 10 23 24
g wall
f 12 11 24 25
g wall
f 13 12 25 26
g wall
f 1 13 26 14
g ground_assumed
f 26 25 24 23 22 21 20 19 18 17 16 15 14
