v -0.070875243809730704 -0.29198318567648307 0.19708880659592409
v 0.49923434897567531 -0.018555772551406412 0.189175609637068
v 0.4992793876915973 0.0042786369646528565 0.18901238202490936
v 0.48943101645988751 0.026347395475961245 0.18895811360136702
v 0.32484611909530547 0.36865335545248723 0.18824010075076736
v 0.30948806476306723 0.38863534013094492 0.18825834653195653
v 0.27916228790432984 0.39115748403758654 0.1885576276840612
v -0.42130310777740043 0.054451283697692525 0.19828559440600563
v -0.4913526495981968 0.017369764391833159 0.19928273425290077
v -0.49624681000059734 -0.016003602983440276 0.19957180978837374
v -0.49132262438474239 -0.030776159831004988 0.19962558824199481
v -0.3214081969918392 -0.38302056757534442 0.20035868311919175
v -0.30728118895159717 -0.40207176078357121 0.20034668199121256
v -0.070875243809730704 -0.29198318567648307 -0.19037751082960172
v 0.49923434897567531 -0.018555772551406412 -0.19037751082960172
v 0.4992793876915973 0.0042786369646528565 -0.19037751082960172
v 0.48943101645988751 0.026347395475961245 -0.19037751082960172
v 0.32484611909530547 0.36865335545248723 -0.19037751082960172
v 0.30948806476306723 0.38863534013094492 -0.19037751082960172
v 0.27916228790432984 0.39115748403758654 -0.19037751082960172
v -0.42130310777740043 0.054451283697692525 -0.19037751082960172
v -0.4913526495981968 0.017369764391833159 -0.19037751082960172
v -0.49624681000059734 -0.016003602983440276 -0.19037751082960172
v -0.49132262438474239 -0.030776159831004988 -0.19037751082960172
v -0.3214081969918392 -0.38302056757534442 -0.19037751082960172
v -0.30728118895159717 -0.40207176078357121 -0.19037751082960172
l 1 2
l 2 3
l 3 4
l 4 5
l 5 6
l 6 7
l 7 8
l 8 9
l 9 10
l 10 11
l 11 12
l 12 13
l 1 13
l 14 15
l 2 15
l 15 16
l 3 16
l 16 17
l 17 18
l 5 18
l 18 19
l 6 19
l 19 20
l 7 20
l 20 21
l 21 22
l 9 22
l 22 23
l 10 23
l 23 24
l 24 25
l 12 25
l 25 26
l 13 26
l 14 26
