# pointcloud_to_mesh 0.5.1; candidate requires geometry validation; coordinates preserved
v -5.450127324 -9.427303439 3.306971012
v -5.476303317 -9.373556742 3.306983594
v -5.651984465 -9.087261538 3.306997901
v -4.084204604 -8.519314350 3.309812943
v 10.951715569 0.637463791 3.340306686
v 7.318008080 6.559061181 3.340602610
v 7.034389944 6.897739366 3.340509317
v 6.296727868 8.099855342 3.340569391
v 5.383539611 9.488399482 3.340549892
v 3.349727116 8.240378178 3.336416301
v -0.115567214 5.892552555 3.329164691
v -2.191740148 4.618537346 3.324945006
v -11.087688164 -0.726767842 3.306971594
v -9.476065984 -3.353115098 3.306840345
v -10.776540004 -4.151133247 3.304197217
v -11.023870500 -6.088730128 3.302011715
v -10.762355376 -6.377048689 3.302120321
v -10.764560995 -6.373454347 3.302120500
v -10.232114986 -6.046726115 3.303202662
v -8.913904906 -8.194920320 3.303095309
v -9.355985014 -8.466196750 3.302196810
v -8.721864973 -9.590823491 3.302059185
v -7.368461712 -8.760326036 3.304809889
v -6.102067042 -8.364883157 3.307024105
v -4.259885753 -8.233019146 3.309827250
v -10.762355383 -6.377048677 3.528130727
v -10.375342010 -6.803728169 3.528130727
v -9.364979276 -8.450245216 3.528130727
v -9.355985014 -8.466196750 3.528130727
v -8.913904906 -8.194920320 3.528130727
v -10.232114986 -6.046726115 3.528130727
v -10.764560995 -6.373454347 3.528130727
v -4.259885753 -8.233019146 3.486589766
v -5.651984465 -9.087261538 3.486589766
v -5.476303317 -9.373556742 3.486589766
v -4.084204604 -8.519314350 3.486589766
v -9.355985017 -8.466196751 -3.589707675
v -8.721864973 -9.590823491 -3.589707675
v -7.368461712 -8.760326036 -3.589707675
v -6.102067042 -8.364883157 -3.589707675
v -5.450127324 -9.427303439 -3.589707675
v 10.951715569 0.637463791 -3.589707675
v 7.318008080 6.559061181 -3.589707675
v 7.034389944 6.897739366 -3.589707675
v 6.296727868 8.099855342 -3.589707675
v 5.383539611 9.488399482 -3.589707675
v 3.349727116 8.240378178 -3.589707675
v -0.115567214 5.892552555 -3.589707675
v -2.191740148 4.618537346 -3.589707675
v -11.087688164 -0.726767842 -3.589707675
v -9.476065984 -3.353115098 -3.589707675
v -10.776540004 -4.151133247 -3.589707675
v -11.023870500 -6.088730128 -3.589707675
v -10.762355383 -6.377048677 -3.589707675
v -10.375342010 -6.803728169 -3.589707675
v -9.364979276 -8.450245216 -3.589707675
g roof
f 1 2 3
g roof
f 4 2 1
g roof
f 4 1 5
g roof
f 4 5 6
g roof
f 4 6 7
g roof
f 4 7 8
g roof
f 4 8 9
g roof
f 4 9 10
g roof
f 4 10 11
g roof
f 4 11 12
g roof
f 12 13 14
g roof
f 14 15 16
g roof
f 16 17 18
g roof
f 16 18 19
g roof
f 20 21 22
g roof
f 20 22 23
g roof
f 20 23 24
g roof
f 24 1 3
g roof
f 24 3 25
g roof
f 25 4 12
g roof
f 25 12 14
g roof
f 14 16 19
g roof
f 14 19 20
g roof
f 14 20 24
g roof
f 14 24 25
g roof_fixture
f 28 29 30
g roof_fixture
f 28 30 31
g roof_fixture
f 31 32 26
g roof_fixture
f 31 26 27
g roof_fixture
f 31 27 28
g roof_fixture
f 33 34 35
g roof_fixture
f 33 35 36
g roof_step_or_fixture_side
f 26 32 18 17
g roof_step_or_fixture_side
f 32 31 19 18
g roof_step_or_fixture_side
f 31 30 20 19
g roof_step_or_fixture_side
f 30 29 21 20
g facade_completed
f 22 21 37 38
g facade_completed
f 23 22 38 39
g facade_completed
f 24 23 39 40
g facade_completed
f 1 24 40 41
g facade_completed
f 5 1 41 42
g facade_completed
f 6 5 42 43
g facade_completed
f 7 6 43 44
g facade_completed
f 8 7 44 45
g facade_completed
f 9 8 45 46
g facade_completed
f 10 9 46 47
g facade_completed
f 11 10 47 48
g facade_completed
f 12 11 48 49
g facade_completed
f 13 12 49 50
g facade_completed
f 14 13 50 51
g facade_completed
f 15 14 51 52
g facade_completed
f 16 15 52 53
g facade_completed
f 17 16 53 54
g roof_step_or_fixture_side
f 35 34 3 2
g roof_step_or_fixture_side
f 34 33 25 3
g roof_step_or_fixture_side
f 33 36 4 25
g roof_step_or_fixture_side
f 36 35 2 4
g facade_completed
f 28 27 55 56
g facade_completed
f 29 28 56 37 21
g facade_completed
f 27 26 17 54 55
g ground_assumed
f 56 37 38
g ground_assumed
f 56 39 38 37
g ground_assumed
f 56 40 39
g ground_assumed
f 40 42 41
g ground_assumed
f 40 43 42
g ground_assumed
f 40 44 43
g ground_assumed
f 40 45 44
g ground_assumed
f 40 46 45
g ground_assumed
f 40 47 46
g ground_assumed
f 40 48 47
g ground_assumed
f 40 49 48
g ground_assumed
f 40 50 49
g ground_assumed
f 40 51 50
g ground_assumed
f 40 52 51
g ground_assumed
f 40 53 52
g ground_assumed
f 40 54 53
g ground_assumed
f 40 55 54
g ground_assumed
f 40 56 55
