# Source coordinates; no display transform
v 2685315.18526 1252344.86938 435.934828546
v 2685315.15973 1252344.92179 435.934840816
v 2685314.98842 1252345.20098 435.934854767
v 2685316.51725 1252345.75482 435.93759988
v 2685331.17966 1252354.68413 435.967336121
v 2685327.63622 1252360.45863 435.967624694
v 2685327.35965 1252360.78889 435.967533719
v 2685326.64031 1252361.96115 435.9675923
v 2685325.74981 1252363.3152 435.967573286
v 2685323.76652 1252362.09818 435.963542378
v 2685320.3873 1252359.80867 435.956470907
v 2685318.36271 1252358.56631 435.952356044
v 2685309.68774 1252353.35379 435.934829114
v 2685311.25933 1252350.79268 435.934701125
v 2685309.99116 1252350.01449 435.932123655
v 2685309.74998 1252348.12502 435.929992444
v 2685310.00499 1252347.84386 435.930098352
v 2685310.00284 1252347.84737 435.930098527
v 2685310.52206 1252348.16598 435.931153806
v 2685311.80753 1252346.07115 435.93104912
v 2685311.37643 1252345.80661 435.930172941
v 2685311.9948 1252344.70992 435.930038735
v 2685313.31458 1252345.51979 435.932721108
v 2685314.54952 1252345.90541 435.93488032
v 2685316.34593 1252346.034 435.937613832
v 2685310.00499 1252347.84386 436.150494385
v 2685310.38239 1252347.42778 436.150494385
v 2685311.36766 1252345.82217 436.150494385
v 2685311.37643 1252345.80661 436.150494385
v 2685311.80753 1252346.07115 436.150494385
v 2685310.52206 1252348.16598 436.150494385
v 2685310.00284 1252347.84737 436.150494385
v 2685316.34593 1252346.034 436.109985352
v 2685314.98842 1252345.20098 436.109985352
v 2685315.15973 1252344.92179 436.109985352
v 2685316.51725 1252345.75482 436.109985352
v 2685311.37643 1252345.80661 429.209471741
v 2685311.9948 1252344.70992 429.209471741
v 2685313.31458 1252345.51979 429.209471741
v 2685314.54952 1252345.90541 429.209471741
v 2685315.18526 1252344.86938 429.209471741
v 2685331.17966 1252354.68413 429.209471741
v 2685327.63622 1252360.45863 429.209471741
v 2685327.35965 1252360.78889 429.209471741
v 2685326.64031 1252361.96115 429.209471741
v 2685325.74981 1252363.3152 429.209471741
v 2685323.76652 1252362.09818 429.209471741
v 2685320.3873 1252359.80867 429.209471741
v 2685318.36271 1252358.56631 429.209471741
v 2685309.68774 1252353.35379 429.209471741
v 2685311.25933 1252350.79268 429.209471741
v 2685309.99116 1252350.01449 429.209471741
v 2685309.74998 1252348.12502 429.209471741
v 2685310.00499 1252347.84386 429.209471741
v 2685310.38239 1252347.42778 429.209471741
v 2685311.36766 1252345.82217 429.209471741
g roof
f 1 2 3
g roof
f 4 2 1
g roof
f 4 1 5
g roof
f 4 5 6
g roof
f 4 6 7
g roof
f 4 7 8
g roof
f 4 8 9
g roof
f 4 9 10
g roof
f 4 10 11
g roof
f 4 11 12
g roof
f 12 13 14
g roof
f 14 15 16
g roof
f 16 17 18
g roof
f 16 18 19
g roof
f 20 21 22
g roof
f 20 22 23
g roof
f 20 23 24
g roof
f 24 1 3
g roof
f 24 3 25
g roof
f 25 4 12
g roof
f 25 12 14
g roof
f 14 16 19
g roof
f 14 19 20
g roof
f 14 20 24
g roof
f 14 24 25
g roof_fixture
f 28 29 30
g roof_fixture
f 28 30 31
g roof_fixture
f 31 32 26
g roof_fixture
f 31 26 27
g roof_fixture
f 31 27 28
g roof_fixture
f 33 34 35
g roof_fixture
f 33 35 36
g roof_step_or_fixture_side
f 26 32 18 17
g roof_step_or_fixture_side
f 32 31 19 18
g roof_step_or_fixture_side
f 31 30 20 19
g roof_step_or_fixture_side
f 30 29 21 20
g facade_completed
f 22 21 37 38
g facade_completed
f 23 22 38 39
g facade_completed
f 24 23 39 40
g facade_completed
f 1 24 40 41
g facade_completed
f 5 1 41 42
g facade_completed
f 6 5 42 43
g facade_completed
f 7 6 43 44
g facade_completed
f 8 7 44 45
g facade_completed
f 9 8 45 46
g facade_completed
f 10 9 46 47
g facade_completed
f 11 10 47 48
g facade_completed
f 12 11 48 49
g facade_completed
f 13 12 49 50
g facade_completed
f 14 13 50 51
g facade_completed
f 15 14 51 52
g facade_completed
f 16 15 52 53
g facade_completed
f 17 16 53 54
g roof_step_or_fixture_side
f 35 34 3 2
g roof_step_or_fixture_side
f 34 33 25 3
g roof_step_or_fixture_side
f 33 36 4 25
g roof_step_or_fixture_side
f 36 35 2 4
g facade_completed
f 28 27 55 56
g facade_completed
f 29 28 56 37 21
g facade_completed
f 27 26 17 54 55
g ground_assumed
f 56 37 38
g ground_assumed
f 56 39 38 37
g ground_assumed
f 56 40 39
g ground_assumed
f 40 42 41
g ground_assumed
f 40 43 42
g ground_assumed
f 40 44 43
g ground_assumed
f 40 45 44
g ground_assumed
f 40 46 45
g ground_assumed
f 40 47 46
g ground_assumed
f 40 48 47
g ground_assumed
f 40 49 48
g ground_assumed
f 40 50 49
g ground_assumed
f 40 51 50
g ground_assumed
f 40 52 51
g ground_assumed
f 40 53 52
g ground_assumed
f 40 54 53
g ground_assumed
f 40 55 54
g ground_assumed
f 40 56 55
