v 2685315.185260464 1252344.869382238 435.93482854605475
v 2685315.1597347143 1252344.9217938017 435.93484081550258
v 2685314.9884176995 1252345.2009770849 435.9348547670993
v 2685316.5172520028 1252345.7548157743 435.93759988003416
v 2685331.1796616418 1252354.6841284155 435.96733612139059
v 2685327.6362198638 1252360.4586261283 435.9676246942787
v 2685327.3596471469 1252360.7888911355 435.96753371879021
v 2685326.6403094935 1252361.9611450892 435.967592300479
v 2685325.7498059431 1252363.315196105 435.9675732858579
v 2685323.7665158226 1252362.0981771674 435.96354237828302
v 2685320.3873036159 1252359.8086743867 435.95647090709031
v 2685318.3627053415 1252358.5663072641 435.95235604419503
v 2685309.6877434878 1252353.3537859546 435.93482911359717
v 2685311.259331014 1252350.7926803569 435.93470112498187
v 2685309.9911623495 1252350.014485949 435.93212365549431
v 2685309.7499758434 1252348.1250213296 435.92999244402063
v 2685310.004994614 1252347.8438649522 435.93009835211558
v 2685310.0028437851 1252347.8473700064 435.93009852666898
v 2685310.5220631883 1252348.1659819121 435.93115380644946
v 2685311.8075273274 1252346.0711514624 435.93104912022852
v 2685311.3764290265 1252345.8066138686 435.93017294103583
v 2685311.9947967548 1252344.7099242229 435.93003873480814
v 2685313.3145798338 1252345.5197911116 435.9327211079771
v 2685314.5495157209 1252345.9054107089 435.93488032016012
v 2685316.3459349875 1252346.0339990575 435.93761383163087
v 2685310.0049946071 1252347.8438649639 436.15049438489774
v 2685310.3823940977 1252347.4277847093 436.15049438489774
v 2685311.3676581932 1252345.822169147 436.15049438489774
v 2685311.3764290265 1252345.8066138686 436.15049438489774
v 2685311.8075273274 1252346.0711514624 436.15049438489774
v 2685310.5220631883 1252348.1659819121 436.15049438489774
v 2685310.0028437851 1252347.8473700064 436.15049438489774
v 2685316.3459349875 1252346.0339990575 436.10998535186519
v 2685314.9884176995 1252345.2009770849 436.10998535186519
v 2685315.1597347143 1252344.9217938017 436.10998535186519
v 2685316.5172520028 1252345.7548157743 436.10998535186519
v 2685311.3764290237 1252345.8066138676 429.20947174107607
v 2685311.9947967548 1252344.7099242229 429.20947174107607
v 2685313.3145798338 1252345.5197911116 429.20947174107607
v 2685314.5495157209 1252345.9054107089 429.20947174107607
v 2685315.185260464 1252344.869382238 429.20947174107607
v 2685331.1796616418 1252354.6841284155 429.20947174107607
v 2685327.6362198638 1252360.4586261283 429.20947174107607
v 2685327.3596471469 1252360.7888911355 429.20947174107607
v 2685326.6403094935 1252361.9611450892 429.20947174107607
v 2685325.7498059431 1252363.315196105 429.20947174107607
v 2685323.7665158226 1252362.0981771674 429.20947174107607
v 2685320.3873036159 1252359.8086743867 429.20947174107607
v 2685318.3627053415 1252358.5663072641 429.20947174107607
v 2685309.6877434878 1252353.3537859546 429.20947174107607
v 2685311.259331014 1252350.7926803569 429.20947174107607
v 2685309.9911623495 1252350.014485949 429.20947174107607
v 2685309.7499758434 1252348.1250213296 429.20947174107607
v 2685310.0049946071 1252347.8438649639 429.20947174107607
v 2685310.3823940977 1252347.4277847093 429.20947174107607
v 2685311.3676581932 1252345.822169147 429.20947174107607
l 2 3
l 2 4
l 1 5
l 5 6
l 6 7
l 7 8
l 8 9
l 9 10
l 10 11
l 11 12
l 12 13
l 13 14
l 14 15
l 15 16
l 16 17
l 17 18
l 18 19
l 20 21
l 21 22
l 22 23
l 23 24
l 1 24
l 3 25
l 4 25
l 19 20
l 28 29
l 29 30
l 30 31
l 31 32
l 26 32
l 26 27
l 27 28
l 33 34
l 34 35
l 35 36
l 33 36
l 18 32
l 17 26
l 19 31
l 20 30
l 21 29
l 37 38
l 22 38
l 38 39
l 23 39
l 39 40
l 24 40
l 40 41
l 1 41
l 41 42
l 5 42
l 42 43
l 43 44
l 44 45
l 45 46
l 9 46
l 46 47
l 47 48
l 48 49
l 49 50
l 13 50
l 50 51
l 14 51
l 51 52
l 15 52
l 52 53
l 16 53
l 53 54
l 3 34
l 2 35
l 25 33
l 4 36
l 27 55
l 55 56
l 37 56
l 54 55
l 38 56
