# XYZ-only planar convex-roof baseline. Provisional base; no GT.
v 4.23260443 10.58151107 3.67977803
v 0.00000000 7.05434071 3.67890451
v -9.87607700 -2.46901925 3.67688523
v -9.87607700 -3.87988739 3.67690590
v -9.17064292 -4.93803850 3.67707559
v -4.93803850 -9.52335996 3.67806794
v -3.52717036 -10.58151107 3.67839184
v -2.82173628 -10.22879403 3.67854087
v 9.87607700 2.46901925 3.68113044
v 9.87607700 4.58532146 3.68109944
v 4.23260443 10.58151107 -3.91580322
v 0.00000000 7.05434071 -3.91580322
v -9.87607700 -2.46901925 -3.91580322
v -9.87607700 -3.87988739 -3.91580322
v -9.17064292 -4.93803850 -3.91580322
v -4.93803850 -9.52335996 -3.91580322
v -3.52717036 -10.58151107 -3.91580322
v -2.82173628 -10.22879403 -3.91580322
v 9.87607700 2.46901925 -3.91580322
v 9.87607700 4.58532146 -3.91580322
g roof
f 1 2 3 4 5 6 7 8 9 10
g wall
f 2 1 11 12
g wall
f 3 2 12 13
g wall
f 4 3 13 14
g wall
f 5 4 14 15
g wall
f 6 5 15 16
g wall
f 7 6 16 17
g wall
f 8 7 17 18
g wall
f 9 8 18 19
g wall
f 10 9 19 20
g wall
f 1 10 20 11
g ground_assumed
f 20 19 18 17 16 15 14 13 12 11
