# Source coordinates; no display transform
v 2685653.44277 1251067.01658 436.420332898
v 2685654.04202 1251069.7881 436.408012528
v 2685641.89729 1251072.16281 436.434584371
v 2685641.75 1251071.5 436.437542477
v 2685641.75 1251069.38594 436.445599479
v 2685654.25 1251070.75 435.703812526
v 2685654.25 1251071 435.528326098
v 2685653.75 1251071.375 435.334817584
v 2685649.75 1251072.25 435.278384063
v 2685645.5 1251073.125 435.256811109
v 2685642.25 1251073.75 435.271282337
v 2685653.25 1251066.125 435.810880046
v 2685641.75 1251068.625 435.946940678
v 2685642.5 1251067.75 435.471509466
v 2685643.5 1251067.375 435.356394343
v 2685644.5 1251067.125 435.323193932
v 2685646.25 1251066.75 435.306050564
v 2685650.75 1251065.875 435.320478117
v 2685652.5 1251065.625 435.385249455
v 2685653.44277 1251067.01658 433.895842532
v 2685654.04202 1251069.7881 433.895842532
v 2685654.25 1251070.75 433.895842532
v 2685654.25 1251071 433.895842532
v 2685653.75 1251071.375 433.895842532
v 2685649.75 1251072.25 433.895842532
v 2685645.5 1251073.125 433.895842532
v 2685642.25 1251073.75 433.895842532
v 2685641.89729 1251072.16281 433.895842532
v 2685641.75 1251071.5 433.895842532
v 2685641.75 1251069.38594 433.895842532
v 2685641.75 1251068.625 433.895842532
v 2685642.5 1251067.75 433.895842532
v 2685643.5 1251067.375 433.895842532
v 2685644.5 1251067.125 433.895842532
v 2685646.25 1251066.75 433.895842532
v 2685650.75 1251065.875 433.895842532
v 2685652.5 1251065.625 433.895842532
v 2685653.25 1251066.125 433.895842532
g roof
f 1 2 3 4 5
g roof
f 2 6 7 8 9 10 11 3
g roof
f 12 1 5 13 14 15 16 17 18 19
g wall
f 2 1 20 21
g wall
f 4 3 28 29
g wall
f 5 4 29 30
g wall
f 6 2 21 22
g wall
f 7 6 22 23
g wall
f 8 7 23 24
g wall
f 9 8 24 25
g wall
f 10 9 25 26
g wall
f 11 10 26 27
g wall
f 3 11 27 28
g wall
f 1 12 38 20
g wall
f 13 5 30 31
g wall
f 14 13 31 32
g wall
f 15 14 32 33
g wall
f 16 15 33 34
g wall
f 17 16 34 35
g wall
f 18 17 35 36
g wall
f 19 18 36 37
g wall
f 12 19 37 38
g ground_assumed
f 38 37 36 35 34 33 32 31 30 29 28 27 26 25 24 23 22 21 20
