v 2685653.4427749496 1251067.0165841531 436.42033289770797
v 2685654.042022374 1251069.7881034834 436.40801252784303
v 2685641.8972916263 1251072.1628123219 436.43458437053374
v 2685641.7500000023 1251071.4999999998 436.43754247689384
v 2685641.7500000023 1251069.3859420964 436.44559947875143
v 2685654.2499999977 1251070.7500000002 435.70381252639555
v 2685654.2499999977 1251071.0000000016 435.52832609823503
v 2685653.7499999995 1251071.3750000014 435.3348175840224
v 2685649.7500000005 1251072.2499999991 435.27838406328442
v 2685645.5 1251073.1250000021 435.25681110913848
v 2685642.2500000005 1251073.7499999981 435.27128233740814
v 2685653.2500000019 1251066.1249999998 435.81088004625616
v 2685641.7500000023 1251068.6249999998 435.94694067834047
v 2685642.5000000019 1251067.7500000021 435.47150946584912
v 2685643.4999999977 1251067.3750000023 435.35639434314498
v 2685644.4999999991 1251067.1250000009 435.3231939321829
v 2685646.2499999995 1251066.7500000012 435.30605056371445
v 2685650.7500000014 1251065.8749999981 435.32047811724595
v 2685652.5000000023 1251065.6250000019 435.38524945536375
v 2685653.4427749496 1251067.0165841531 433.8958425318375
v 2685654.042022374 1251069.7881034834 433.8958425318375
v 2685654.2499999977 1251070.7500000002 433.8958425318375
v 2685654.2499999977 1251071.0000000016 433.8958425318375
v 2685653.7499999995 1251071.3750000014 433.8958425318375
v 2685649.7500000005 1251072.2499999991 433.8958425318375
v 2685645.5 1251073.1250000021 433.8958425318375
v 2685642.2500000005 1251073.7499999981 433.8958425318375
v 2685641.8972916263 1251072.1628123219 433.8958425318375
v 2685641.7500000023 1251071.4999999998 433.8958425318375
v 2685641.7500000023 1251069.3859420964 433.8958425318375
v 2685641.7500000023 1251068.6249999998 433.8958425318375
v 2685642.5000000019 1251067.7500000021 433.8958425318375
v 2685643.4999999977 1251067.3750000023 433.8958425318375
v 2685644.4999999991 1251067.1250000009 433.8958425318375
v 2685646.2499999995 1251066.7500000012 433.8958425318375
v 2685650.7500000014 1251065.8749999981 433.8958425318375
v 2685652.5000000023 1251065.6250000019 433.8958425318375
v 2685653.2500000019 1251066.1249999998 433.8958425318375
l 1 2
l 2 3
l 3 4
l 4 5
l 1 5
l 2 6
l 6 7
l 7 8
l 8 9
l 9 10
l 10 11
l 3 11
l 1 12
l 5 13
l 13 14
l 14 15
l 15 16
l 16 17
l 17 18
l 18 19
l 12 19
l 20 21
l 28 29
l 4 29
l 29 30
l 21 22
l 6 22
l 22 23
l 7 23
l 23 24
l 8 24
l 24 25
l 25 26
l 26 27
l 11 27
l 27 28
l 12 38
l 20 38
l 30 31
l 13 31
l 31 32
l 14 32
l 32 33
l 33 34
l 34 35
l 35 36
l 36 37
l 19 37
l 37 38
