v -0.1036163734574847 0.50524885179936208 0.38651489191460892
v -0.35156729110989005 -0.37681807003286932 0.3882015426872128
v 0.10917109614767349 -0.50633262622123132 0.11894288170904332
v 0.3571220142886905 0.37573429561099997 0.11725623093643946
v -0.1036163734574847 0.50524885179936208 -0.38755811492350051
v -0.35156729110989005 -0.37681807003286932 -0.38755811492350051
v 0.10917109614767349 -0.50633262622123132 -0.38755811492350051
v 0.3571220142886905 0.37573429561099997 -0.38755811492350051
l 1 2
l 2 3
l 3 4
l 1 4
l 1 5
l 5 6
l 2 6
l 6 7
l 3 7
l 7 8
l 4 8
l 5 8
