v 2684899.4435279584 1252145.879051121 436.49747594220725
v 2684898.3189337025 1252173.9939073476 436.5014074768377
v 2684891.5386321866 1252173.7226952859 436.33291972176136
v 2684892.6632264326 1252145.6078390596 436.3289881871309
v 2684899.4435279584 1252145.879051121 431.73001098652765
v 2684898.3189337025 1252173.9939073476 431.73001098652765
v 2684891.5386321866 1252173.7226952859 431.73001098652765
v 2684892.6632264326 1252145.6078390596 431.73001098652765
l 1 2
l 2 3
l 3 4
l 1 4
l 1 5
l 5 6
l 2 6
l 6 7
l 3 7
l 7 8
l 4 8
l 5 8
