v -0.097970293289204688 0.45186022539262699 0.14972060688143782
v -0.089234680144953768 0.44066006260784807 0.14966013609446255
v -0.080753061384763167 0.43496706992083595 0.14964040929046862
v -0.082287798025228634 0.43175327960427945 0.14961204755010546
v -0.092114265416469138 0.41117630123889087 0.14943045539569902
v -0.1021548584839095 0.4033450992732131 0.14934417900238939
v -0.11250615191248142 0.34324948988953069 0.14886381913030841
v -0.065690848779764027 0.3392092534149494 0.14896096344606227
v -0.048987263249651178 0.36450188927470378 0.14919677208671503
v -0.0096988392867350514 0.37397192040872129 0.1493750614538171
v -0.0096878724848040582 0.34225298219069544 0.1491364382346666
v -0.033971474171139937 0.33919713248019495 0.14904728810142873
v -0.056036831323850358 0.28759472909162137 0.14859891738285028
v -0.013366315706220372 0.23288572181240377 0.14830353821577155
v -0.01009645573280241 0.22035810805985054 0.14821818891579117
v -0.010903778893657361 0.23843188455778572 0.14835197641757589
v 0.0058588890464424184 0.25150599650511729 0.14849601394892581
v 0.07775041811263643 0.21708709039745755 0.14843290671431714
v 0.078616567224912143 0.21712069589111829 0.14843551928493295
v 0.024926608149529541 0.26677622014535757 0.14866285486338801
v 0.045875318010905934 0.29587770515146894 0.14893888662627849
v 0.081250202912313108 0.2753413370208162 0.14888074604224869
v 0.10283261967387454 0.2761908169728638 0.14894593635036152
v -0.070522208297507397 0.49845366992830853 0.15014595484391838
v -0.25108050479150568 0.35762648256840601 0.1485944613402144
v -0.2708844775513195 0.34254928489495179 0.14842706691307159
v -0.28799963562119268 0.31219730995228068 0.14815207054448956
v -0.44838300702605044 0.18710563859818555 0.14677393522645682
v -0.31308059373016434 0.2405136685182504 0.14754439305726805
v -0.2679527580357538 0.238261506888957 0.1476503935297282
v -0.31209360053791124 0.20383367488707338 0.14727110197881702
v -0.071088781475845686 -0.25008231010185222 0.14451243172557496
v -0.066224801472239039 -0.25631854867521692 0.14447876166698076
v -0.067231508259923078 -0.25209913943006629 0.14450776582381344
v -0.043436749991585387 -0.23354031970081737 0.14471222842019008
v 0.022856700395934893 -0.22155682175241825 0.14498300118913343
v -0.040269694341686146 -0.12791042109385459 0.1455156153369257
v -0.063370351634132821 -0.14592787392410284 0.14531711700709909
v -0.062327894069723527 -0.14562436585640309 0.14532224063636814
v -0.06339032866188174 -0.1570132279723018 0.14523365643924949
v -0.1287112008329441 -0.20796051139428545 0.14467237005749775
v -0.15081101741752675 -0.14501471387375936 0.14508576533275794
v -0.16226056987812154 -0.13997584039686845 0.14509248479658404
v -0.1535211237566978 -0.13315947338055514 0.14516758074176656
v -0.16657819360972567 -0.11641865554403143 0.14525796601418928
v -0.094443732100002412 -0.060157085052248031 0.14587779990531327
v -0.081386662246974523 -0.076897902888771727 0.14578741458670674
v -0.075118163698383561 -0.072008761635019292 0.14584127827500834
v -0.068031868245110802 -0.025166338320669949 0.14621302616624038
v -0.031593185775639646 0.0032541622281893928 0.14652613491946789
v -0.024270754931424991 0.040499532461981499 0.14682631793927822
v 0.040049893362425211 0.047289577121573827 0.14705264056874501
v 0.040022350368228286 0.11068207941913352 0.14752953028347951
v -0.0096064779486413794 0.12667260511336256 0.14751463471920259
v -0.014196281114956633 0.11784145831291033 0.14743568482940819
v -0.026111965054334534 0.15420544303380576 0.147676824279796
v -0.027835037420969079 0.1518612136105654 0.14765449197130556
v -0.058820395330747059 0.15751801557410261 0.14761263759154655
v -0.082180505746077603 0.18746863678633904 0.14777434388499852
v -0.11478325334066455 0.17957949134903198 0.14762616348326865
v -0.12636050300094076 0.19442299218165279 0.14770630496093731
v -0.15874235031206071 0.16916663696520559 0.14742805563735653
v -0.078899223598594234 0.14798975347438517 0.14748624452962697
v -0.050842287312558937 0.11201720645550278 0.14729202526616655
v -0.016573164784408186 0.11326814488281277 0.14739479970877545
v -0.034060960522343156 0.079620233353930411 0.14709398951314509
v -0.091068748961331741 0.052850839332649918 0.14673726548474872
v -0.079613634171680409 0.038163930862807241 0.14665796944747486
v -0.098579520473380644 0.023371409679575454 0.14649500021219855
v -0.117944998455511 0.048200405999112357 0.14662905433298243
v -0.16540640250789715 0.051965137252152481 0.14652807690150443
v -0.16767680072894703 0.028306637087255761 0.14634388506175858
v -0.17203958619980936 -0.017155415336693784 0.14598994300610674
v -0.15388409557390922 -0.040433054579431874 0.14586426477683384
v -0.15434141472439936 -0.044367399436737648 0.14583341687087839
v -0.15164828970166902 -0.047820326905620283 0.14581477418508765
v -0.1548167248612696 -0.048456546480891066 0.14580135525501497
v -0.15880292228771212 -0.082750152789224124 0.14553247043307802
v -0.21131523628159823 -0.015422713096378472 0.14589597775129337
v -0.25767750556500285 -0.051583156033231589 0.14549759802578729
v -0.24904249834985168 0.0015889738484671262 0.1459211898959718
v -0.26037310045044887 -0.00080253858152701848 0.14587232721898621
v -0.27359666340784317 -0.022326652423049272 0.14567435381407645
v -0.24081391981669334 -0.0089611063276777824 0.14586422898439935
v -0.23302729748982928 -0.018944542756658699 0.14581032747157666
v -0.23249109998822995 -0.017679560116991247 0.14582130600418941
v -0.22189483736496241 0.007318940212686041 0.14603826283886637
v -0.20276726107268686 0.052444345346783099 0.14642989700670697
v -0.16413628533958707 0.082574734084390838 0.14676184361840675
v -0.19354806655251477 0.12028436401428494 0.14696544151574961
v -0.16614524264140038 0.20148679608473943 0.14765106393357236
v -0.13188792847613734 0.22820592944581841 0.14794542871996541
v -0.15170242333420242 0.31150093493292852 0.14851815741191346
v -0.18172203859738773 0.34998988503896761 0.14872596292930484
v -0.21811920124244893 0.34474286470031962 0.14858732442114256
v -0.23013801283803451 0.32194444703787783 0.14838304540531708
v -0.19739166558057697 0.2799594810062393 0.14815636452821879
v -0.19812651349521168 0.27661780261241198 0.14812921977681243
v -0.16533841544822814 0.25744152052947339 0.14807426504273971
v -0.16806731239985789 0.2284469430915719 0.14784867544233149
v -0.20747901183437292 0.21489213025108025 0.14763931639473138
v -0.19632759298806468 0.2440893046913046 0.14788937652057518
v -0.22298828843389668 0.27827169406849772 0.14807393053357443
v -0.22409266446225137 0.30142748773584926 0.14824514579155423
v -0.27093861247699896 0.31373736668784274 0.14821013875852601
v -0.20047600680788052 0.37012993688950918 0.14882640347426537
v -0.17205073999989173 0.36545760588309556 0.14886869031900071
v -0.11458133685643505 0.41028110367953124 0.14936251091748109
v -0.11650646093342584 0.43740286507408072 0.14956133008607217
v -0.093663575858771303 -0.26768961400755759 0.14431845201741486
v -0.27187186723137924 0.030859117193405155 0.14607922217684394
v -0.30302646733541228 0.0065599584986027809 0.14581151832051034
v -0.1171137564345496 0.061312480880356436 0.14672997412709496
v -0.14094141774115612 0.091862561544485508 0.14689491693411777
v -0.036224708973079119 -0.044830586606766851 0.14615172753489297
v -0.003363456962949608 -0.086962875083934299 0.14592425123444061
v -0.012717506153659946 -0.05231380288591541 0.14615946659817258
v 0.05012714425615674 -0.03875562999022418 0.14643269135670628
v 0.043248851525043555 -0.012967523292931885 0.1466079817334513
v 0.0084587443421833448 -0.0099795431043639433 0.14653568156996546
v 0.053542580142851376 -0.051560787793755301 0.1463456503908119
v 0.077544165940718557 -0.032840652024049878 0.14655189018547501
v 0.14885125272120661 0.01821884044917433 0.14713032959498545
v 0.14411411620998879 0.072022482993179954 0.14752224202013944
v 0.12916537601370859 0.091188661864810422 0.14762572205863775
v 0.17573886291883151 0.12751384486186379 0.14802591671458382
v 0.13725501709105495 0.17685501104526824 0.14829231440106896
v 0.082495026283010281 0.13414473058711349 0.14782177509552302
v 0.089190973786895139 0.17073622643103631 0.14811533161946941
v 0.056547875787554991 0.16455867576575464 0.14797991932589352
v 0.060575344153982261 0.18760793641540444 0.14816431418956461
v -0.0072483624463283609 0.20944638315759787 0.14814384849117124
v 0.078598425217550325 0.13110556052056063 0.14778829258928561
v 0.081305274814652079 0.12763503638246659 0.14776955485726234
v 0.078461069417872953 0.12874347556798579 0.14777014605591274
v 0.0077528875605535862 0.15197301527462564 0.14775228844830787
v 0.043778430151103651 0.12804921022399882 0.14767043345979428
v 0.055948935487605891 0.13754164603650013 0.14777501165636683
v 0.054562900710003144 -0.055386175446408448 0.14631964794917968
v 0.022569315827026253 -0.075718512891455494 0.14607950468306566
v 0.027959368784014765 -0.14564099793105062 0.14556809295742829
v 0.01919675904594443 -0.13440622206094194 0.14562875060400352
v 0.0040472463840089375 -0.1678641401428243 0.14533574034188332
v 0.027945916324513112 -0.19850526290518702 0.14517030595463756
v 0.14651314366571447 -0.10370302741209522 0.14620662038269189
v 0.12544061779770255 -0.076685379512859073 0.14635249122562882
v 0.081385619316245966 -0.045605742667990126 0.14646631135207597
v 0.092950829279048117 0.19128279402000817 0.14828016714155626
v 0.10643146767944836 0.17399890768905565 0.148186849799083
v 0.12550845711543873 -0.22873348996230758 0.14520866713134065
v 0.20157373069990689 -0.253056064344863 0.1452328955151839
v 0.21415177853277978 -0.2432457640960918 0.145340975643548
v 0.21479214351853873 -0.270432454998912 0.14513816776605618
v 0.22115402346651472 -0.27287489918570856 0.14513712304262283
v 0.26759209710820225 -0.28068142981884731 0.14520490204433389
v 0.26634239774569901 -0.29022355739966865 0.14512970250891838
v 0.28808841766118959 -0.29857225931481673 0.14512613148618231
v 0.2626505752660826 -0.31841260933441906 0.14490755032155203
v 0.20175421130294099 -0.26961366943791365 0.14510880790170022
v 0.093429591145934049 -0.18760431951551412 0.14543072745915575
v 0.12946073356677523 -0.15950168146320559 0.14574033432677549
v 0.11244965153716459 -0.15539175868890034 0.14572491259061951
v 0.077911238878166977 -0.20903230240592485 0.14522722548553735
v 0.11072299826446366 -0.22006459830342556 0.14523361048638198
v 0.14311998295816644 -0.261601637304122 0.14500934802326124
v 0.13421970914364417 -0.26854344253257001 0.14493287016682049
v 0.10841032760801983 -0.31830425371976878 0.14448815540296139
v 0.057077160730917044 -0.35834176876942908 0.1440470620021656
v 0.055876926466709859 -0.36280296306811832 0.14401022609119385
v 0.040249863338607104 -0.42088784608004737 0.1435306216473079
v 0.043835147027548482 -0.43079537146619873 0.14346584519210548
v 0.10944811031101306 -0.37962027039939694 0.14402964143173194
v 0.14723039070841321 -0.42806194083698801 0.1437681002013112
v 0.075223388090033289 -0.4842240992043676 0.14314936155868296
v 0.085630415280787839 -0.49756722658138419 0.14307732071715806
v 0.43951826710072939 -0.22155093839986206 0.14611819293334444
v 0.27248604900370293 -0.0073944723470773114 0.14727444425325881
v 0.260764369665546 0.073702304012882872 0.14785268147015215
v 0.20438350465218835 0.14598971624763868 0.14824296813365542
v 0.18320256059049547 0.12946955161132442 0.14806096545157121
v 0.16242073958235159 0.059176937283661038 0.14747546657319879
v 0.16210284383347451 0.021444048044314847 0.14719069850052782
v 0.16611147332538617 0.021458398362808915 0.14720172751201915
v 0.16611903120967156 0.039664180314944786 0.14733872829693007
v 0.19953402090784095 0.037530632042559284 0.14741371086091684
v 0.21194166206846723 0.021622464047359392 0.14732782111826739
v 0.25129639749709609 0.021763348519240659 0.14743609868231858
v 0.25237568136624949 -0.0017132177312298639 0.1472624015538386
v 0.308750865681506 -0.073993346598126966 0.14687215419273758
v 0.3089656875321028 -0.074780120329383706 0.14686681978066718
v 0.32046780767158378 -0.11690602999433393 0.14658120095646598
v 0.32880817512207727 -0.11775148950921954 0.14659756211702218
v 0.34015792151056984 -0.11890200845137563 0.14661982672008167
v 0.34390506306815039 -0.12370631867959926 0.14659388778115581
v 0.32918024703875515 -0.16422879128964943 0.14624888090266894
v 0.32886797370404075 -0.16508816283889569 0.14624156423630022
v 0.37283084670800104 -0.22145413598267938 0.14593723894649918
v 0.40981073198547974 -0.20622324277826845 0.14615258359755864
v 0.30422115025384117 -0.25524595605159606 0.14549607012758009
v 0.30419973261524141 -0.19159096723387453 0.14597495147192158
v 0.29624973639076418 -0.16226357285081758 0.14617395172713932
v 0.25452161659199946 -0.14938185101190019 0.14615719015315456
v 0.25135223018494929 -0.10437680114858464 0.14648717316880575
v 0.1978811103491957 -0.10524440703603641 0.14633496928178391
v 0.18603547585265465 -0.1054366106543209 0.14630125105350045
v 0.16703681439559029 -0.1202546949328244 0.14613800018949435
v 0.16692609587987373 -0.12553455914831074 0.14609797288651119
v 0.17009957218450075 -0.12960335784707214 0.14607600501427964
v 0.16779943737794883 -0.19478748943267643 0.14557929363405386
v 0.16826545995536349 -0.19538498939887744 0.14557606765038639
v 0.18663793314030966 0.078065237179494304 0.14768355903045544
v 0.37169544792187542 -0.25874013224606218 0.14565360607129921
v 0.37975252979924312 -0.25915737061274446 0.14567241742027809
v 0.40982820386610003 -0.23569972470498882 0.14593085034331921
v 0.020536340185230515 -0.32900383330658461 0.14416824904294112
v 0.011558167300607 -0.33600639626187312 0.14409110179869952
v 0.060349404295737596 -0.34142814930804471 0.14418323480415299
v 0.055682374171965345 -0.28615242748191844 0.14458641413348233
v 0.10272927989553569 -0.24945799952393985 0.1449906767497067
v 0.079532175385407897 -0.21971637255357432 0.14515125468088808
v 0.033293146427740707 -0.22920357768278959 0.14495389995398161
v 0.042301727918142941 -0.24075372046236437 0.14489153964975124
v -0.014027828386347255 -0.28468819002200235 0.14440751347778275
v 0.21863517319288156 -0.041553131432564075 0.14687072411179011
v 0.2155324590854677 -0.043973106098840684 0.14684406322791441
v 0.22171903050647063 -0.087409731112868483 0.1465341009760579
v 0.25416642812831886 -0.06210224965969411 0.14681291360328205
v -0.26037310045044887 -0.00080253858152701848 0.14055763262345486
v -0.24904249834985168 0.0015889738484671262 0.14057785276265566
v -0.27187186723137924 0.030859117193405155 0.14067125679209608
v -0.30302646733541228 0.0065599584986027809 0.14054591482697235
v -0.23249109998822995 -0.017679560116991247 0.14051781762733798
v -0.23302729748982928 -0.018944542756658699 0.14051232822248028
v -0.24081391981669334 -0.0089611063276777824 0.14054418635258059
v -0.27359666340784317 -0.022326652423049272 0.14046031673493434
v -0.25767750556500285 -0.051583156033231589 0.14036037418974315
v -0.22557606782407494 -0.026545507416578681 0.14048952548594104
v -0.1548167248612696 -0.048456546480891066 0.14047080488810254
v -0.15434141352362091 -0.044367401006986384 0.14048734981394503
v -0.18179003978929542 -0.0091747844368031215 0.14059965303392616
v -0.18558177872026371 -0.048416266044574351 0.14044161419495638
v -0.18138879703849961 -0.053792199786736203 0.14042445904274345
v -0.15880292228771212 -0.082750152789224124 0.14033205124376061
v -0.092114265416469138 0.41117630123889087 0.14233935160986735
v -0.082287797101552901 0.43175327835731719 0.14242969961197441
v -0.089234680144953768 0.44066006260784807 0.14245812203783295
v -0.10164779981106417 0.44899193903065099 0.1424790674934
v -0.11650646093342584 0.43740286507408072 0.14241928775442145
v -0.11458133685643505 0.41028110367953124 0.14231439573901991
v -0.17205073999989173 0.36545760588309556 0.14208318340116249
v -0.22409266446225137 0.30142748773584926 0.14178156762174504
v -0.22362053029200787 0.2915281050130874 0.1417430623516282
v -0.19812651349521168 0.27661780261241198 0.14170870863444313
v -0.19739166558057697 0.2799594810062393 0.14172255970620565
v -0.23013801283803451 0.32194444703787783 0.14185653803939596
v -0.13188792847613734 0.22820592944581841 0.14158139023417818
v -0.16614524264140038 0.20148679608473943 0.14144356539196559
v -0.19354806655251477 0.12028436401428494 0.14109787891906109
v -0.16413628533958707 0.082574734084390838 0.14097754359967532
v -0.20276726107268686 0.052444345346783099 0.14082212250390544
v -0.22189483736496241 0.007318940212686041 0.14062629941609289
v -0.18445354003747069 0.015221550071095441 0.14069311567059156
v -0.16767680072894703 0.028306637087255761 0.14076061225844849
v -0.117944998455511 0.048200405999112357 0.14088634055094587
v -0.098579520473380644 0.023371409679575454 0.1408071086629514
v -0.079613634171680409 0.038163930862807241 0.14088341272980373
v -0.091068748961331741 0.052850839332649918 0.14093028012866321
v -0.034060960522343156 0.079620233353930411 0.14109000629227103
v -0.016573164784408186 0.11326814488281277 0.14123909923943742
v -0.050842287312558937 0.11201720645550278 0.14120148457745851
v -0.078899223598594234 0.14798975347438517 0.14131627668787536
v -0.15874235031206071 0.16916663696520559 0.1413234425179975
v -0.14094141774115612 0.091862561544485508 0.1410362201465469
v -0.1171137564345496 0.061312480880356436 0.14093873166921642
v -0.16540640250789715 0.051965137252152481 0.14085587818723971
v -0.12636050300094076 0.19442299218165279 0.14145372194554709
v -0.11478325334066455 0.17957949134903198 0.14140635483811817
v -0.082180505746077603 0.18746863678633904 0.14146850223509302
v -0.080662953030324017 0.18783585104617403 0.14147139500274125
v -0.026111965054334534 0.15420544303380576 0.14139109437574449
v -0.014196281114956633 0.11784145831291033 0.1412593634841543
v -0.0096064779486413794 0.12667260511336256 0.14129849403655592
v 0.040022350368228286 0.11068207941913352 0.14128291361290968
v 0.040049893362425211 0.047289577121573827 0.14103348010868047
v -0.024270754931424991 0.040499532461981499 0.14094539963812064
v -0.031593185775639646 0.0032541622281893928 0.14079184760018848
v -0.068031868245110802 -0.025166338320669949 0.1406452465915877
v -0.075118163698383561 -0.072008761635019292 0.14045415387810256
v -0.081386662246974523 -0.076897902888771727 0.14042893429783448
v -0.053863710982064751 -0.1121858134674884 0.14031632695761959
v -0.11682841415886168 -0.16129539313199756 0.14006300579461436
v -0.11670343893918618 -0.16145562717870501 0.14006249444773075
v -0.063370351634132821 -0.14592787392410284 0.14017447733696903
v -0.040269694341686146 -0.12791042109385459 0.14026741648041499
v 0.022856700395934893 -0.22155682175241825 0.13995912391099014
v 0.026776397511161849 -0.22084827989162795 0.13996565143499975
v 0.033293146427740707 -0.22920357768278959 0.13993898884232397
v 0.10272927989553569 -0.24945799952393985 0.13992552502161085
v 0.055682374171965345 -0.28615242748191844 0.13973624474464125
v 0.060349404295737596 -0.34142814930804471 0.13952317801648095
v -0.012551526520631309 -0.33332729208250428 0.13948551028933143
v -0.031153244475580683 -0.34783577868396154 0.13941067135692053
v -0.01819558674695658 -0.3644491375829581 0.13935765643424636
v -0.0070066026091371329 -0.3623341290527034 0.13937665339586297
v 0.0065649058087084485 -0.37973452239043121 0.13932112695269774
v 0.0035756641561973442 -0.39236263959026207 0.13926858158058042
v 0.037441107692633126 -0.43578242881296037 0.13913002458680121
v 0.043835147027548482 -0.43079537146619873 0.13915574923295793
v 0.040249863338607104 -0.42088784608004737 0.13919131670623475
v 0.055876927667488308 -0.36280296459218331 0.13943479799788219
v 0.057077160730917044 -0.35834176876942908 0.13945349855195738
v 0.10841032760801983 -0.31830425371976878 0.13966002343913425
v 0.13421970914364417 -0.26854344253257001 0.13988046188473671
v 0.14311998295816644 -0.261601637304122 0.13991626969843823
v 0.11072299826446366 -0.22006459830342556 0.14004881864343782
v 0.077911238878166977 -0.20903230240592485 0.14006093080327284
v 0.11244965153716459 -0.15539175868890034 0.14030496394498462
v 0.12946073356677523 -0.15950168146320559 0.14030501894987427
v 0.13618659398585881 -0.15425581895208398 0.14033207863074598
v 0.14278985173874451 -0.1627220320018925 0.14030506203934706
v 0.16602853980690757 -0.16833656097583027 0.14030513718036758
v 0.16692609587987373 -0.12553455914831074 0.14047442625116585
v 0.26632609329883256 -0.026665801216740427 0.14095831636569944
v 0.3089656875321028 -0.074780120329383706 0.14080965597587694
v 0.308750865681506 -0.073993346598126966 0.14081254712709268
v 0.25237568136624949 -0.0017132177312298639 0.1410432004563989
v 0.25129639749709609 0.021763348519240659 0.14113455494176411
v 0.21194166206846723 0.021622464047359392 0.14109645696645998
v 0.21787129368824501 0.014019925074526821 0.14107219648488517
v 0.21712745785456125 -0.011587290630604943 0.14097071832879443
v 0.2019940952009103 0.0078155976502492577 0.14103263489920459
v 0.16610886440328948 0.015173895885249948 0.14102735724700774
v 0.16611147392577541 0.021458396330722312 0.14105209028108553
v 0.16210284383347451 0.021444048044314847 0.14104820968842888
v 0.16242073958235159 0.059176937283661038 0.14119699796115603
v 0.18663793314030966 0.078065237179494304 0.1412944292167751
v 0.18320256059049547 0.12946955161132442 0.14149343626100944
v 0.20438350465218835 0.14598971624763868 0.14157865195129563
v 0.10283261967387454 0.2761908169728638 0.14199413699670901
v 0.081250202912313108 0.2753413370208162 0.14197020502040722
v 0.045875318010905934 0.29587770515146894 0.14201727207177553
v 0.024926608149529541 0.26677622014535757 0.14188276835183056
v 0.078616567224912143 0.21712069589111829 0.14173858487971541
v 0.087531125315113853 0.20887600609787219 0.14171464500598616
v 0.094919779229273998 0.20204255920891792 0.14169480292726122
v 0.092950829279048117 0.19128279402000817 0.1416505831525115
v 0.10643146767944836 0.17399890768905565 0.1415954284888272
v 0.089190973786895139 0.17073622643103631 0.14156614224142686
v 0.082495026283010281 0.13414473058711349 0.14141576099753736
v 0.13725501709105495 0.17685501104526824 0.14163607271482981
v 0.17573886291883151 0.12751384486186379 0.14147861999429387
v 0.12916537601370859 0.091188661864810422 0.14129124438286134
v 0.14411411620998879 0.072022482993179954 0.14123008314827862
v 0.14885125272120661 0.01821884044917433 0.14102287621894341
v 0.0040472463840089375 -0.1678641401428243 0.14015246951576224
v 0.024501885192231024 -0.12268977419119542 0.14034975127228608
v -0.036224708973079119 -0.044830586606766851 0.14059820794324807
v 0.043248851525043555 -0.012967523292931885 0.14079941033377141
v 0.05012714425615674 -0.03875562999022418 0.14070449170705429
v 0.077544165940718557 -0.032840652024049878 0.14075392336828899
v 0.053542580142851376 -0.051560787793755301 0.14065735958273087
v 0.054562900710003144 -0.055386175446408448 0.14064327943938756
v 0.081385619316245966 -0.045605742667990126 0.14070735533273329
v 0.079801686090018864 0.048821613534596763 0.1410774312785282
v 0.078461069417872953 0.12874347556798579 0.14139065784659494
v 0.055948935487605891 0.13754164603650013 0.14140380396904104
v 0.043778430151103651 0.12804921022399882 0.14135483931825496
v 0.0077528875605535862 0.15197301527462564 0.1414146157320009
v -0.013366315706220372 0.23288572181240377 0.1417128731188351
v -0.056036831323850358 0.28759472909162137 0.14188745517484733
v -0.033971474171139937 0.33919713248019495 0.14211156887999188
v -0.0096878724848040582 0.34225298219069544 0.14214676018632802
v -0.0096988392867350514 0.37397192040872129 0.14227156891345336
v -0.048987263249651178 0.36450188927470378 0.14219682248716672
v -0.065690848779764027 0.3392092534149494 0.14208135697095964
v -0.1021548584839095 0.4033450992732131 0.142298956037371
v -0.27093861247699896 0.31373736668784274 0.1417853189459834
v -0.21811920124244893 0.34474286470031962 0.14195771918755604
v -0.027850259643167584 0.1595103266690297 0.14141031163402248
v 0.21863517319288156 -0.041553131432564075 0.1408542361688962
v -0.11250615191248142 0.34324948988953069 0.14205259514045446
v -0.20047600680788052 0.37012993688950918 0.14207445267962016
v -0.18172203859738773 0.34998988503896761 0.14201308920623656
v 0.145757808300123 -0.098394132484098965 0.14056103415169463
v -0.15170242333420242 0.31150093493292852 0.14189026702850169
v 0.079532175385407897 -0.21971637255357432 0.1400204335802625
v 0.12544061779770255 -0.076685379512859073 0.14062707946024605
v 0.14651314366571447 -0.10370302741209522 0.14054086338296154
v 0.027945916324513112 -0.19850526290518702 0.14005469054241496
v 0.0084587443421833448 -0.0099795431043639433 0.14077797953279256
v 0.078598425217550325 0.13110556052056063 0.14140008404977744
v 0.081305274814652079 0.12763503638246659 0.14138900927015374
v 0.20157373240870696 -0.25305606300553318 0.14000566155761435
v 0.20175421130294099 -0.26961366943791365 0.13994067685971881
v 0.22115402346651472 -0.27287489918570856 0.13994635039933312
v 0.21479214351853873 -0.270432454998912 0.13994989274193781
v 0.21415177853277978 -0.2432457640960918 0.14005626587137085
v 0.26634239774569901 -0.29022355739966865 0.13992118938010628
v 0.2626505752660826 -0.31841260933441906 0.13980673898352541
v 0.28808841766118959 -0.29857225931481673 0.13990908114589312
v 0.2398338649909513 -0.095924240995910987 0.1406605001725772
v 0.2016989100057347 -0.099311154237930466 0.14061079214756439
v 0.19788110970262265 -0.10524440481921467 0.14058380174237237
v 0.25135223018494929 -0.10437680114858464 0.14063822624039288
v 0.25452161659199946 -0.14938185101190019 0.14046414758765299
v 0.29624973639076418 -0.16226357285081758 0.14045326363943489
v 0.28272149229749421 -0.11235812157240704 0.14063674406413423
v 0.34390506306815039 -0.12370631867959926 0.1406504548757373
v 0.34015792151056984 -0.11890200845137563 0.14066578595312049
v 0.32880817512207727 -0.11775148950921954 0.14065948597662672
v 0.29296160033845231 -0.1457101732071775 0.14051526717391497
v 0.32918024703875515 -0.16422879128964943 0.14047694520724655
v -0.11670343893918618 -0.16145562717870501 0.15053816829499247
v -0.11682841415886168 -0.16129539313199756 0.15053908744471045
v -0.1259981725379718 -0.16844738395927181 0.15048757100117149
v -0.14518804844898237 -0.14384353179752279 0.15062870897585662
v -0.1535211237566978 -0.13315947338055514 0.15068999721585208
v -0.16226056987812154 -0.13997584039686845 0.15064089830879879
v -0.15081101741752675 -0.14501471387375936 0.15061734148339437
v -0.1287112008329441 -0.20796051139428545 0.15023705767383125
v -0.06339032866188174 -0.1570132279723018 0.15060403561123092
v -0.062327894069723527 -0.14562436585640309 0.1506764405195444
v -0.063370351403213898 -0.1459278737855515 0.15067378961638583
v -0.21131523628159823 -0.015422713096378472 0.15138959226116327
v -0.18558177872026371 -0.048416266044574351 0.15120032745576209
v -0.18179003978929542 -0.0091747844368031215 0.15144989909569662
v -0.15434141352362091 -0.044367401006986384 0.15124801955849629
v -0.15388409557390922 -0.040433054579431874 0.15127309643086423
v -0.17203958619980936 -0.017155415336693784 0.15140662668895835
v -0.16767680072894703 0.028306637087255761 0.15169573913186957
v -0.18445354003747069 0.015221550071095441 0.151601486059699
v -0.22189483736496241 0.007318940212686041 0.15152513894955771
v -0.23249110109664084 -0.017679558685293868 0.15136033252325634
v -0.22557606782407494 -0.026545507416578681 0.15130947373683648
v -0.1548167248612696 -0.048456546480891066 0.15122195596953081
v -0.15164828970166902 -0.047820326905620283 0.1512282121176112
v -0.31308059373016434 0.2405136685182504 0.15292734927507892
v -0.31209360053791124 0.20383367488707338 0.15269729130096385
v -0.2679527580357538 0.238261506888957 0.15294527814426626
v -0.19632759298806468 0.2440893046913046 0.15303288583140418
v -0.20747901183437292 0.21489213025108025 0.15284126999416989
v -0.16806731239985789 0.2284469430915719 0.15295457752677116
v -0.16533841544822814 0.25744152052947339 0.15313892819255864
v -0.19812651349521168 0.27661780261241198 0.15323624856090642
v -0.22362053029200787 0.2915281050130874 0.15331191889384105
v -0.22298828843389668 0.27827169406849772 0.15322897031944802
v -0.20331078249150936 0.25304263836532526 0.15308424589664218
v -0.027850259643167584 0.1595103266690297 0.15262061637830632
v -0.080662953030324017 0.18783585104617403 0.15276125348982736
v -0.082180504452931596 0.18746863512372272 0.15275786392318827
v -0.058820395330747059 0.15751801557410261 0.15258605464934707
v -0.027835037420969079 0.1518612136105654 0.15257250538862904
v -0.026111965054334534 0.15420544303380576 0.15258847888248175
v 0.078616567317279715 0.21712069390521549 0.15305877835562465
v 0.07775041811263643 0.21708709039745755 0.15305795088072277
v 0.0058588890464424184 0.25150599650511729 0.15322335247748017
v -0.010903778893657361 0.23843188455778572 0.15312917847195204
v -0.01009645573280241 0.22035810805985054 0.15301604749996633
v -0.0072483624463283609 0.20944638315759787 0.15294942577157619
v 0.060575344153982261 0.18760793641540444 0.15286027670056543
v 0.056547875787554991 0.16455867576575464 0.15271240536073449
v 0.089190973786895139 0.17073622643103631 0.15277448703818122
v 0.092950829279048117 0.19128279402000817 0.15290642317051842
v 0.094919779229273998 0.20204255920891792 0.15297551508491075
v 0.087531125315113853 0.20887600609787219 0.1530132501942047
v -0.097970293289204688 0.45186022539262699 0.15440996497242457
v -0.10164779981106417 0.44899193903065099 0.15438930442463614
v -0.089234680144953768 0.44066006260784807 0.15434571616698234
v -0.080753061384763167 0.43496706992083595 0.15431593321295869
v -0.082287798025228634 0.43175327960427945 0.15429462313639761
v -0.0070066026091371329 -0.3623341290527034 0.14935243093661754
v -0.01819558674695658 -0.3644491375829581 0.14933116681292399
v 0.0035756641561973442 -0.39236263959026207 0.14917104328401751
v 0.0065649058087084485 -0.37973452239043121 0.14925261502736881
v 0.022856700395934893 -0.22155682175241825 0.15025932504791792
v -0.043436749991585387 -0.23354031970081737 0.15013678306721545
v -0.067231508259923078 -0.25209913943006629 0.1500031021576099
v -0.066224802811568839 -0.25631854696641687 0.14997727318227957
v -0.042409809440483531 -0.2868523857627101 0.14980211835494778
v -0.05634631903730105 -0.29772222381800184 0.14972382191954792
v -0.064984603823409134 -0.30445968962223169 0.14967529135017069
v -0.050223326479734078 -0.32338551740070909 0.14956672486035144
v -0.031153244475580683 -0.34783577868396154 0.1494264679799443
v -0.012551526520631309 -0.33332729208250428 0.14953097394507486
v 0.011558167300607 -0.33600639626187312 0.14953126748922152
v 0.020536340185230515 -0.32900383330658461 0.14958170757343342
v -0.014027828386347255 -0.28468819002200235 0.14983592059153883
v 0.042301727918142941 -0.24075372046236437 0.15015238459685207
v 0.033293147859438092 -0.22920357948395725 0.15021864105767516
v 0.026776397511161849 -0.22084827989162795 0.1502665705450717
v -0.012717506153659946 -0.05231380288591541 0.15129875868272544
v -0.003363456962949608 -0.086962875083934299 0.15108742874203848
v 0.024501885192231024 -0.12268977419119542 0.15088248435640159
v 0.01919675904594443 -0.13440622206094194 0.15080500089419463
v 0.027959368784014765 -0.14564099793105062 0.15074055349847068
v 0.022569315827026253 -0.075718512891455494 0.15117661383640268
v 0.053542580142851376 -0.051560787793755301 0.1513506241371386
v 0.05012714425615674 -0.03875562999022418 0.15142875426472346
v 0.22115402346651472 -0.27287489918570856 0.15007751522932589
v 0.26634239774569901 -0.29022355739966865 0.15000051258651972
v 0.26759209710820225 -0.28068142981884731 0.15006143255700199
v 0.16602853980690757 -0.16833656097583027 0.150695974921884
v 0.14278985173874451 -0.1627220320018925 0.15071476812063478
v 0.16779943737794883 -0.19478748943267643 0.15053082724358449
v 0.17009957218450075 -0.12960335784707214 0.15094254752527764
v 0.16692609638789538 -0.12553455979488373 0.15096588784109116
v 0.30419973261524141 -0.19159096723387453 0.15064795306691456
v 0.30422115025384117 -0.25524595605159606 0.15024750412304028
v 0.34481540627699059 -0.25734814146880719 0.15026315197501472
v 0.37169544792187542 -0.25874013224606218 0.15027351339987288
v 0.37975252979924312 -0.25915737061274446 0.15027661916714424
v 0.39971313805749165 -0.24358901197270405 0.15038875945072674
v 0.40982820386610003 -0.23569972470498882 0.15044558670642122
v 0.40981073198547974 -0.20622324277826845 0.15063101576362234
v 0.37283084670800104 -0.22145413598267938 0.15050889340880358
v 0.32886797370404075 -0.16508816283889569 0.15083223214783301
v 0.32918024703875515 -0.16422879128964943 0.15083786070443933
v 0.29296160033845231 -0.1457101732071775 0.15092860357792057
v 0.32880817512207727 -0.11775148950921954 0.1511299925509412
v 0.32046780767158378 -0.11690602999433393 0.15112937932262469
v 0.3089656875321028 -0.074780120329383706 0.15138621945923864
v 0.26632609329883256 -0.026665801216740427 0.15165858686196063
v 0.21863517319288156 -0.041553131432564075 0.15153100761566982
v 0.25416642812831886 -0.06210224965969411 0.15142700159002759
v 0.22171903050647063 -0.087409731112868483 0.15124470947415367
v 0.2155324590854677 -0.043973106098840684 0.15151357628441392
v 0.145757808300123 -0.098394132484098965 0.15112157666427112
v 0.16703681439559029 -0.1202546949328244 0.1509991831182583
v 0.18603547585265465 -0.1054366106543209 0.15110591911370153
v 0.1978811103491957 -0.10524440703603641 0.15111555360576093
v 0.2016989100057347 -0.099311154237930466 0.15115559614939364
v 0.2398338649909513 -0.095924240995910987 0.1512040276083651
v 0.29624973639076418 -0.16226357285081758 0.15082680208914084
v 0.28272149229749421 -0.11235812157240704 0.15113114354326715
v 0.19953402090784095 0.037530632042559284 0.15201495088774158
v 0.16611903120967156 0.039664180314944786 0.15200460668943577
v 0.16611147332538617 0.021458398362808915 0.15189006568026592
v 0.16610886440328948 0.015173895885249948 0.1518505270017434
v 0.2019940952009103 0.0078155976502492577 0.15182975838389468
v 0.21712745785456125 -0.011587290630604943 0.15171845531999298
v 0.21787129368824501 0.014019925074526821 0.15188008365521344
v 0.21194166271504022 0.021622463216051234 0.15192369500476044
v 0.14278985173874451 -0.1627220320018925 0.15851250425242211
v 0.13618659398585881 -0.15425581895208398 0.15851250425242211
v 0.12946073356677523 -0.15950168146320559 0.15851250425242211
v 0.093429591145934049 -0.18760431951551412 0.15851250425242211
v 0.12550845711543873 -0.22873348996230758 0.15851250425242211
v 0.16776456801878803 -0.19577566215883549 0.15851250425242211
v 0.16826545995536349 -0.19538498939887744 0.15851250425242211
v 0.16779943876346243 -0.19478749114147656 0.15851250425242211
v 0.043835147027548482 -0.43079537146619873 0.15719814417128525
v 0.037441107692633126 -0.43578242881296037 0.15719814417128525
v 0.052736370057433715 -0.45539289303160352 0.15719814417128525
v 0.067469243956786468 -0.47428230397078741 0.15719814417128525
v 0.075223388090033289 -0.4842240992043676 0.15719814417128525
v 0.14723039070841321 -0.42806194083698801 0.15719814417128525
v 0.11067229936631252 -0.38118983589584249 0.15719814417128525
v 0.10944811031101306 -0.37962027039939694 0.15719814417128525
v -0.066224801472239039 -0.25631854867521692 0.15799592622369699
v -0.071088781475845686 -0.25008231010185222 0.15799592622369699
v -0.093663575858771303 -0.26768961400755759 0.15799592622369699
v -0.064984603823409134 -0.30445968962223169 0.15799592622369699
v -0.056346320007160569 -0.29772222455694247 0.15799592622369699
v -0.042409809440483531 -0.2868523857627101 0.15799592622369699
v -0.14518804844898237 -0.14384353179752279 0.15693674324720774
v -0.1259981725379718 -0.16844738395927181 0.15693674324720774
v -0.11682841415886168 -0.16129539313199756 0.15693674324720774
v -0.053863710982064751 -0.1121858134674884 0.15693674324720774
v -0.076755958765560794 -0.082835051474000096 0.15693674324720774
v -0.081386662246974523 -0.076897902888771727 0.15693674324720774
v -0.094443732100002412 -0.060157085052248031 0.15693674324720774
v -0.12728681503907124 -0.085773182915557897 0.15693674324720774
v -0.16657819360972567 -0.11641865554403143 0.15693674324720774
v -0.1535211237566978 -0.13315947338055514 0.15693674324720774
v -0.19991239285565918 -0.1314651691716045 0.14505394087063794
v -0.20158819690198401 -0.12931657606894428 0.14506554131411908
v -0.20158819690198401 -0.12931657606894428 -0.14531393008610752
v -0.19991239285565918 -0.1314651691716045 -0.14531393008610752
v -0.18154387628188218 -0.15501593466285979 0.14492678803924744
v -0.18154387628188218 -0.15501593466285979 -0.14531393008610752
v -0.093663575858771303 -0.26768961400755759 -0.14531393008610752
v -0.12728681679405512 -0.085773184347255282 0.1455955872277305
v -0.15434141472439936 -0.044367399436737648 -0.14531393008610752
v -0.18138879574535358 -0.053792201449352504 0.14568881719047977
v -0.18558177964393943 -0.048416264889979688 0.14571784240711907
v -0.22557606782407494 -0.026545507416578681 0.14577343789504507
v -0.20331078207585529 0.25304263785730363 0.14793771644328194
v -0.22362053232409446 0.29152810478216845 0.14817194920077337
v -0.10164779976488039 0.44899193907683477 0.14968900696488754
v -0.010096453654532021 0.22035810810603432 0.14166669427404785
v 0.10283261967387454 0.2761908169728638 -0.14531393008610752
v -0.070522208297507397 0.49845366992830853 -0.14531393008610752
v -0.25108050479150568 0.35762648256840601 -0.14531393008610752
v -0.2708844775513195 0.34254928489495179 -0.14531393008610752
v -0.28799963562119268 0.31219730995228068 -0.14531393008610752
v -0.44838300702605044 0.18710563859818555 -0.14531393008610752
v -0.003363458394646988 -0.086962873282766626 0.14046375945911166
v 0.07980168502779178 0.048821612703288608 0.1471724668504365
v 0.019196759831068801 -0.13440622307698524 0.15080500089419463
v 0.019196759831068801 -0.13440622307698524 0.14562875060400352
v 0.019196759831068801 -0.13440622307698524 0.14029858416290789
v 0.13104000430884102 0.088785150933279725 0.14761274529213655
v 0.13104000430884102 0.088785150933279725 0.14128357454907761
v -0.0072483600447714657 0.20944638223392215 0.14162647189075073
v 0.089190974156365427 0.17073622864785806 -0.14531393008610752
v 0.11067229936631252 -0.38118983589584249 0.14402116721493957
v 0.075223388090033289 -0.4842240992043676 -0.14531393008610752
v 0.085630415280787839 -0.49756722658138419 -0.14531393008610752
v 0.17548894914940694 -0.42748169287040005 0.14384945326443363
v 0.17548894914940694 -0.42748169287040005 -0.14531393008610752
v 0.25118497689545788 -0.36844226414761722 0.14449989079546652
v 0.25118497689545788 -0.36844226414761722 -0.14531393008610752
v 0.28669867178542646 -0.34074321147248859 0.14480505136522934
v 0.28669867178542646 -0.34074321147248859 -0.14531393008610752
v 0.35661534824401564 -0.28621141156662405 0.14540582834818189
v 0.35661534824401564 -0.28621141156662405 -0.14531393008610752
v 0.36425195801215754 -0.28025520635032697 0.14547144788840599
v 0.36425195801215754 -0.28025520635032697 -0.14531393008610752
v 0.43951826710072939 -0.22155093839986206 -0.14531393008610752
v 0.27248604900370293 -0.0073944723470773114 -0.14531393008610752
v 0.260764369665546 0.073702304012882872 -0.14531393008610752
v 0.20438350465218835 0.14598971624763868 -0.14531393008610752
v 0.39971313824222671 -0.24358901178796893 0.14584393402746451
v 0.34481540687737977 -0.25734814225393154 0.14559084775519718
v 0.16776456829589073 -0.19577566192791654 0.14557176359859172
v 0.16776456829589073 -0.19577566192791654 -0.14531393008610752
v 0.055876926466709859 -0.36280296306811832 -0.14531393008610752
v 0.011558167115871855 -0.33600639640042446 0.13949796771915396
v 0.2155324590854677 -0.043973106098840684 0.14084175329180731
v -0.076755958349906714 -0.082835051982021748 0.14040998823075054
v -0.031153244475580683 -0.34783577868396154 -0.14531393008610752
v -0.01819558674695658 -0.3644491375829581 -0.14531393008610752
v 0.0035756641561973442 -0.39236263959026207 -0.14531393008610752
v 0.037441107692633126 -0.43578242881296037 -0.14531393008610752
v 0.043835145965321398 -0.43079537229750686 -0.14531393008610752
v 0.16611147392577541 0.021458396330722312 -0.14531393008610752
v 0.14212596410358308 0.22581177110051462 0.14183337229829521
v 0.14212596410358308 0.22581177110051462 -0.14531393008610752
v 0.20157373240870696 -0.25305606300553318 -0.14531393008610752
v 0.19788110970262265 -0.10524440481921467 -0.14531393008610752
v -0.063370351403213898 -0.1459278737855515 -0.14531393008610752
v -0.15481672592349668 -0.04845654491064233 -0.14531393008610752
v -0.082180504452931596 0.18746863512372272 -0.14531393008610752
v 0.078616567317279715 0.21712069390521549 -0.14531393008610752
v -0.064984603823409134 -0.30445968962223169 -0.14531393008610752
v -0.050223326479734078 -0.32338551740070909 -0.14531393008610752
v 0.033293147859438092 -0.22920357948395725 -0.14531393008610752
v 0.16692609638789538 -0.12553455979488373 -0.14531393008610752
v 0.21194166271504022 0.021622463216051234 -0.14531393008610752
v 0.16779943876346243 -0.19478749114147656 -0.14531393008610752
v 0.052736370057433715 -0.45539289303160352 -0.14531393008610752
v 0.067469243956786468 -0.47428230397078741 -0.14531393008610752
v -0.056346320007160569 -0.29772222455694247 -0.14531393008610752
l 1 2
l 2 3
l 5 6
l 6 7
l 7 8
l 8 9
l 9 10
l 11 12
l 12 13
l 13 14
l 14 15
l 15 16
l 17 18
l 18 19
l 19 20
l 20 21
l 21 22
l 22 23
l 23 24
l 25 26
l 26 27
l 27 28
l 29 30
l 29 31
l 32 33
l 33 34
l 34 35
l 35 36
l 36 37
l 37 38
l 38 39
l 39 40
l 41 42
l 42 43
l 43 44
l 44 45
l 46 47
l 47 48
l 48 49
l 49 50
l 50 51
l 51 52
l 52 53
l 53 54
l 54 55
l 55 56
l 56 57
l 57 58
l 58 59
l 59 60
l 60 61
l 61 62
l 62 63
l 63 64
l 64 65
l 66 67
l 67 68
l 69 70
l 70 71
l 71 72
l 72 73
l 73 74
l 74 75
l 75 76
l 76 77
l 77 78
l 78 584
l 584 585
l 79 585
l 79 586
l 80 586
l 81 82
l 82 83
l 83 84
l 84 85
l 85 86
l 86 87
l 87 88
l 88 89
l 89 90
l 91 92
l 92 93
l 93 94
l 94 95
l 95 96
l 96 97
l 97 98
l 98 99
l 99 100
l 101 102
l 102 587
l 103 587
l 103 588
l 104 588
l 104 105
l 106 107
l 107 108
l 108 109
l 3 4
l 4 5
l 16 17
l 24 25
l 40 41
l 45 582
l 46 582
l 68 69
l 90 91
l 100 101
l 105 106
l 10 11
l 32 110
l 65 66
l 81 111
l 111 112
l 109 589
l 1 589
l 30 31
l 80 112
l 28 576
l 575 576
l 575 579
l 110 579
l 113 114
l 71 114
l 71 113
l 115 116
l 116 117
l 117 118
l 118 119
l 119 120
l 115 120
l 118 121
l 121 122
l 118 122
l 123 124
l 124 602
l 125 602
l 125 126
l 126 127
l 127 128
l 128 129
l 129 130
l 130 131
l 131 132
l 133 134
l 133 135
l 132 136
l 136 137
l 137 138
l 121 139
l 121 140
l 140 141
l 141 142
l 142 600
l 143 600
l 143 144
l 144 145
l 145 146
l 123 146
l 135 138
l 139 147
l 135 598
l 147 598
l 134 135
l 129 148
l 129 149
l 148 149
l 151 152
l 152 153
l 153 154
l 154 155
l 155 156
l 156 157
l 156 158
l 154 156
l 154 159
l 151 159
l 160 161
l 161 162
l 162 163
l 163 164
l 164 165
l 165 166
l 166 167
l 167 168
l 168 169
l 169 170
l 170 171
l 171 172
l 172 606
l 173 606
l 173 174
l 174 175
l 175 609
l 609 611
l 611 613
l 613 615
l 615 617
l 176 617
l 177 178
l 178 179
l 179 180
l 181 182
l 182 183
l 183 184
l 184 185
l 185 186
l 186 187
l 187 188
l 188 189
l 190 191
l 191 192
l 192 193
l 193 194
l 195 196
l 196 197
l 197 198
l 199 200
l 200 201
l 201 202
l 202 203
l 203 204
l 204 205
l 205 206
l 206 207
l 207 208
l 208 209
l 209 210
l 150 160
l 181 211
l 189 190
l 194 195
l 210 625
l 150 625
l 180 211
l 212 624
l 199 624
l 157 158
l 212 213
l 176 177
l 198 214
l 214 623
l 213 623
l 215 216
l 216 217
l 217 218
l 218 219
l 219 220
l 220 221
l 221 222
l 222 223
l 215 223
l 224 225
l 225 226
l 226 227
l 224 227
l 228 229
l 229 230
l 230 231
l 233 234
l 234 235
l 228 235
l 231 236
l 236 237
l 232 237
l 232 233
l 238 239
l 239 240
l 240 241
l 241 242
l 242 243
l 238 243
l 244 245
l 245 246
l 246 247
l 247 248
l 248 249
l 249 250
l 251 252
l 252 253
l 253 254
l 254 255
l 256 257
l 257 258
l 259 260
l 260 261
l 261 262
l 262 263
l 264 265
l 265 266
l 266 267
l 267 268
l 268 269
l 269 270
l 270 271
l 273 274
l 273 275
l 276 277
l 277 278
l 278 279
l 280 281
l 281 282
l 282 283
l 284 285
l 285 286
l 286 287
l 287 288
l 288 289
l 289 630
l 290 630
l 290 291
l 291 292
l 292 293
l 293 294
l 294 295
l 295 296
l 296 297
l 298 299
l 299 300
l 300 628
l 301 628
l 301 302
l 302 303
l 303 304
l 304 305
l 305 306
l 306 307
l 307 308
l 308 309
l 309 310
l 310 311
l 311 312
l 313 314
l 314 315
l 315 316
l 317 318
l 318 319
l 319 320
l 320 321
l 321 322
l 323 324
l 324 325
l 325 326
l 326 327
l 327 328
l 328 329
l 329 330
l 330 331
l 331 332
l 332 333
l 333 334
l 335 336
l 336 337
l 337 338
l 338 637
l 339 637
l 339 340
l 340 341
l 341 342
l 342 343
l 343 344
l 344 345
l 345 346
l 346 347
l 347 348
l 348 349
l 349 350
l 351 352
l 352 603
l 353 603
l 353 354
l 355 601
l 356 601
l 356 597
l 357 597
l 358 359
l 359 360
l 360 361
l 361 362
l 362 363
l 363 364
l 364 365
l 365 366
l 366 367
l 368 604
l 590 604
l 369 590
l 369 370
l 371 372
l 372 373
l 373 374
l 374 375
l 244 376
l 251 377
l 255 378
l 280 379
l 312 313
l 323 380
l 370 371
l 375 381
l 376 381
l 250 382
l 377 382
l 378 383
l 384 629
l 380 629
l 334 335
l 350 351
l 383 385
l 256 385
l 298 386
l 367 368
l 297 386
l 316 317
l 354 387
l 387 388
l 322 384
l 388 389
l 355 389
l 357 390
l 358 390
l 283 284
l 279 379
l 272 276
l 258 259
l 271 272
l 263 275
l 264 275
l 274 275
l 365 391
l 365 392
l 391 392
l 394 395
l 395 396
l 396 397
l 393 397
l 393 394
l 398 399
l 399 400
l 398 400
l 401 402
l 402 403
l 403 404
l 404 405
l 405 406
l 406 407
l 401 407
l 408 409
l 409 410
l 410 411
l 411 412
l 408 412
l 413 414
l 414 415
l 416 417
l 417 418
l 418 419
l 419 420
l 420 421
l 421 422
l 422 423
l 413 423
l 415 416
l 424 425
l 425 426
l 426 427
l 427 428
l 428 429
l 429 430
l 430 431
l 431 432
l 432 433
l 433 434
l 424 434
l 435 436
l 427 436
l 427 435
l 437 438
l 438 439
l 437 439
l 440 441
l 441 442
l 442 443
l 443 444
l 444 445
l 445 446
l 446 447
l 440 447
l 448 449
l 449 450
l 450 451
l 451 452
l 452 453
l 448 453
l 455 456
l 456 457
l 457 458
l 458 459
l 459 460
l 460 461
l 461 462
l 462 463
l 463 464
l 464 465
l 454 465
l 454 455
l 466 467
l 467 468
l 466 468
l 468 469
l 468 470
l 469 470
l 471 472
l 472 473
l 473 474
l 471 474
l 475 476
l 476 477
l 477 478
l 478 479
l 480 481
l 481 482
l 482 483
l 483 484
l 484 485
l 485 486
l 486 487
l 487 488
l 488 489
l 489 490
l 475 490
l 479 480
l 491 492
l 492 493
l 493 494
l 494 599
l 495 599
l 495 496
l 496 497
l 497 498
l 491 498
l 499 500
l 500 501
l 499 501
l 502 503
l 503 504
l 504 505
l 505 506
l 502 506
l 507 508
l 508 509
l 509 510
l 510 511
l 511 512
l 512 513
l 513 514
l 514 515
l 516 517
l 517 518
l 518 519
l 519 520
l 520 521
l 521 522
l 522 523
l 523 524
l 525 526
l 526 527
l 506 527
l 506 528
l 528 529
l 529 530
l 530 531
l 531 532
l 507 533
l 515 516
l 532 534
l 533 534
l 524 525
l 535 536
l 536 537
l 537 538
l 538 539
l 539 540
l 540 541
l 541 542
l 535 542
l 543 544
l 544 545
l 545 546
l 546 547
l 547 548
l 548 549
l 549 550
l 543 550
l 551 552
l 552 553
l 553 554
l 554 555
l 555 556
l 556 557
l 557 558
l 551 558
l 559 560
l 560 561
l 561 562
l 562 563
l 563 564
l 559 564
l 565 566
l 566 567
l 567 568
l 568 569
l 569 570
l 570 571
l 571 572
l 572 573
l 573 574
l 565 574
l 577 578
l 578 580
l 580 581
l 32 560
l 110 561
l 33 478
l 34 477
l 35 476
l 36 295
l 37 294
l 38 293
l 39 422
l 40 421
l 41 420
l 42 419
l 43 418
l 44 417
l 45 573
l 46 571
l 47 289
l 48 288
l 49 287
l 50 286
l 51 285
l 52 284
l 53 283
l 54 282
l 55 281
l 57 452
l 56 453
l 58 451
l 59 450
l 60 277
l 61 276
l 62 272
l 63 271
l 64 270
l 65 269
l 66 268
l 67 267
l 68 266
l 69 265
l 70 264
l 71 275
l 72 263
l 73 429
l 72 430
l 74 428
l 75 427
l 76 436
l 77 435
l 78 243
l 241 585
l 79 424
l 425 585
l 434 586
l 237 586
l 80 236
l 112 231
l 111 230
l 81 229
l 82 228
l 83 235
l 84 234
l 85 233
l 86 232
l 87 432
l 86 433
l 87 261
l 88 260
l 89 259
l 90 258
l 91 257
l 92 256
l 93 385
l 94 383
l 95 378
l 96 255
l 97 254
l 98 253
l 99 443
l 100 442
l 101 441
l 102 440
l 103 446
l 445 588
l 252 588
l 104 251
l 105 377
l 106 382
l 107 250
l 108 249
l 109 248
l 247 589
l 1 466
l 467 589
l 2 468
l 3 469
l 4 470
l 4 245
l 5 244
l 6 376
l 7 381
l 8 375
l 9 374
l 10 373
l 11 372
l 12 371
l 13 370
l 14 369
l 16 457
l 15 458
l 17 456
l 18 455
l 19 454
l 20 342
l 21 341
l 22 340
l 23 339
l 591 592
l 24 592
l 592 593
l 593 594
l 26 594
l 594 595
l 27 595
l 595 596
l 28 596
l 577 596
l 30 439
l 29 437
l 31 438
l 113 274
l 114 273
l 118 498
l 117 491
l 118 359
l 119 358
l 120 390
l 115 357
l 116 492
l 122 360
l 121 497
l 121 361
l 136 368
l 137 367
l 138 366
l 135 365
l 147 363
l 139 362
l 140 496
l 141 495
l 494 495
l 142 599
l 141 600
l 142 143
l 143 355
l 144 389
l 145 388
l 146 387
l 123 354
l 124 353
l 125 352
l 126 351
l 127 350
l 128 349
l 129 348
l 130 461
l 129 462
l 131 460
l 132 459
l 134 392
l 133 391
l 149 347
l 148 346
l 170 309
l 171 308
l 172 558
l 173 556
l 174 555
l 607 608
l 175 608
l 608 610
l 610 612
l 612 614
l 614 616
l 616 618
l 618 619
l 176 619
l 619 620
l 177 620
l 620 621
l 178 621
l 621 622
l 179 338
l 180 337
l 211 336
l 181 335
l 182 334
l 183 333
l 184 536
l 185 535
l 186 328
l 187 327
l 188 326
l 189 325
l 190 324
l 191 520
l 190 521
l 192 519
l 192 410
l 193 409
l 194 408
l 195 412
l 196 516
l 195 517
l 197 515
l 198 514
l 214 513
l 213 511
l 199 508
l 200 507
l 201 406
l 202 405
l 203 404
l 204 403
l 205 529
l 204 530
l 206 528
l 207 506
l 208 505
l 209 504
l 210 549
l 150 547
l 160 546
l 161 318
l 162 317
l 163 316
l 164 315
l 165 314
l 166 313
l 167 312
l 168 311
l 153 396
l 154 395
l 159 394
l 151 393
l 152 397
l 154 499
l 156 500
l 155 501
l 158 399
l 156 398
l 157 400
l 217 300
l 218 299
l 219 298
l 220 386
l 221 297
l 222 488
l 223 487
l 215 486
l 216 485
l 227 524
l 226 525
l 224 523
l 224 380
l 225 526
l 240 426
l 75 239
l 290 568
l 291 414
l 292 413
l 296 490
l 301 484
l 302 483
l 631 632
l 304 471
l 303 472
l 305 474
l 306 473
l 633 634
l 307 552
l 319 544
l 320 503
l 321 502
l 207 322
l 384 527
l 323 522
l 329 541
l 330 540
l 331 539
l 332 538
l 622 638
l 591 638
l 345 464
l 356 493
l 2 246
l 262 431
l 279 449
l 379 448
l 402 531
l 407 534
l 401 532
l 411 518
l 415 566
l 632 633
l 479 564
l 481 562
l 645 646
l 631 646
l 634 651
l 651 652
l 607 652
l 581 645
