# XYZ-only planar convex-roof baseline. Provisional base; no GT.
v 7.50917353 1.06346015 4.96985266
v 8.06391521 1.92034037 4.33411197
v 6.56599407 3.06302978 4.33032600
v -2.80185145 8.90948348 4.95361913
v -8.03198632 9.15323776 6.80497094
v -7.92221153 5.41344988 8.62501802
v 3.82948063 -3.46866735 8.61357518
v -7.90554791 4.84575663 8.34877854
v -7.35764813 -4.10254326 4.10153787
v -0.78604369 -9.15342021 4.05336302
v 7.50917353 1.06346015 -8.64497870
v 8.06391521 1.92034037 -8.64497870
v 6.56599407 3.06302978 -8.64497870
v -2.80185145 8.90948348 -8.64497870
v -8.03198632 9.15323776 -8.64497870
v -7.92221153 5.41344988 -8.64497870
v -7.90554791 4.84575663 -8.64497870
v -7.35764813 -4.10254326 -8.64497870
v -0.78604369 -9.15342021 -8.64497870
v 3.82948063 -3.46866735 -8.64497870
g roof
f 1 2 3 4 5 6 7
g roof
f 6 8 9 10 7
g wall
f 2 1 11 12
g wall
f 3 2 12 13
g wall
f 4 3 13 14
g wall
f 5 4 14 15
g wall
f 6 5 15 16
g wall
f 1 7 20 11
g wall
f 8 6 16 17
g wall
f 9 8 17 18
g wall
f 10 9 18 19
g wall
f 7 10 19 20
g ground_assumed
f 20 19 18 17 16 15 14 13 12 11
