# Source coordinates; no display transform
v 0.410320160283 0.0592546274032 0.273163197508
v 0.440740370258 0.106243121608 0.238301268115
v 0.358599299472 0.168904452173 0.238093657967
v -0.15510255133 0.489504752413 0.272273004092
v -0.441905953129 0.502871435768 0.373795050891
v -0.435886264538 0.29779376327 0.473600449213
v 0.208537898922 -0.189272344978 0.472972961486
v -0.4349724864 0.266663331775 0.458452384288
v -0.404927463728 -0.224032015966 0.225547669077
v -0.0445622808948 -0.501005502757 0.222905918681
v 0.410320160283 0.0592546274032 -0.473429394465
v 0.440740370258 0.106243121608 -0.473429394465
v 0.358599299472 0.168904452173 -0.473429394465
v -0.15510255133 0.489504752413 -0.473429394465
v -0.441905953129 0.502871435768 -0.473429394465
v -0.435886264538 0.29779376327 -0.473429394465
v -0.4349724864 0.266663331775 -0.473429394465
v -0.404927463728 -0.224032015966 -0.473429394465
v -0.0445622808948 -0.501005502757 -0.473429394465
v 0.208537898922 -0.189272344978 -0.473429394465
g roof
f 1 2 3 4 5 6 7
g roof
f 6 8 9 10 7
g wall
f 2 1 11 12
g wall
f 3 2 12 13
g wall
f 4 3 13 14
g wall
f 5 4 14 15
g wall
f 6 5 15 16
g wall
f 1 7 20 11
g wall
f 8 6 16 17
g wall
f 9 8 17 18
g wall
f 10 9 18 19
g wall
f 7 10 19 20
g ground_assumed
f 20 19 18 17 16 15 14 13 12 11
