v 0.41032016028332524 0.059254627403202115 0.27316319750831497
v 0.44074037025844931 0.10624312160816346 0.23830126811528604
v 0.35859929947217412 0.16890445217296013 0.23809365796715454
v -0.1551025513296721 0.48950475241331914 0.27227300409209743
v -0.44190595312853875 0.50287143576751592 0.37379505089057491
v -0.43588626453803092 0.297793763269527 0.47360044921256778
v 0.20853789892165275 -0.18927234497795048 0.47297296148618712
v -0.43497248640016745 0.26666333177488866 0.45845238428797236
v -0.40492746372776917 -0.22403201596638758 0.22554766907658477
v -0.044562280894819346 -0.50100550275669753 0.22290591868112125
v 0.41032016028332524 0.059254627403202115 -0.47342939446549204
v 0.44074037025844931 0.10624312160816346 -0.47342939446549204
v 0.35859929947217412 0.16890445217296013 -0.47342939446549204
v -0.1551025513296721 0.48950475241331914 -0.47342939446549204
v -0.44190595312853875 0.50287143576751592 -0.47342939446549204
v -0.43588626453803092 0.297793763269527 -0.47342939446549204
v -0.43497248640016745 0.26666333177488866 -0.47342939446549204
v -0.40492746372776917 -0.22403201596638758 -0.47342939446549204
v -0.044562280894819346 -0.50100550275669753 -0.47342939446549204
v 0.20853789892165275 -0.18927234497795048 -0.47342939446549204
l 1 2
l 2 3
l 3 4
l 4 5
l 5 6
l 6 7
l 1 7
l 6 8
l 8 9
l 9 10
l 7 10
l 11 12
l 2 12
l 12 13
l 13 14
l 4 14
l 14 15
l 5 15
l 15 16
l 11 20
l 16 17
l 17 18
l 9 18
l 18 19
l 10 19
l 19 20
