v 2684952.0000000009 1252062.7499999998 435.55440674062055
v 2684955.4999999972 1252062.8749999974 435.5510253621415
v 2684956.2500000014 1252063.1249999988 435.55025816556173
v 2684956.2500000014 1252068.3749999991 435.54925590958896
v 2684956 1252071.1250000026 435.54897074102473
v 2684953.4999999981 1252071.1250000026 435.55136896629222
v 2684945.7500000014 1252070.8750000012 435.55885119362097
v 2684945.5 1252069.9999999993 435.55925806067012
v 2684945.2499999986 1252068.7499999981 435.55973651145223
v 2684945.2499999986 1252063.7499999995 435.56069104121588
v 2684945.5 1252062.7499999998 435.56064212631605
v 2684952.0000000009 1252062.7499999998 426.73914199588472
v 2684955.4999999972 1252062.8749999974 426.73914199588472
v 2684956.2500000014 1252063.1249999988 426.73914199588472
v 2684956.2500000014 1252068.3749999991 426.73914199588472
v 2684956 1252071.1250000026 426.73914199588472
v 2684953.4999999981 1252071.1250000026 426.73914199588472
v 2684945.7500000014 1252070.8750000012 426.73914199588472
v 2684945.5 1252069.9999999993 426.73914199588472
v 2684945.2499999986 1252068.7499999981 426.73914199588472
v 2684945.2499999986 1252063.7499999995 426.73914199588472
v 2684945.5 1252062.7499999998 426.73914199588472
l 1 2
l 2 3
l 3 4
l 4 5
l 5 6
l 6 7
l 7 8
l 8 9
l 9 10
l 10 11
l 1 11
l 12 13
l 2 13
l 13 14
l 3 14
l 14 15
l 15 16
l 5 16
l 16 17
l 17 18
l 7 18
l 18 19
l 19 20
l 9 20
l 20 21
l 10 21
l 21 22
l 11 22
l 12 22
