# XYZ-only planar convex-roof baseline. Provisional base; no GT.
v -6.43205630 -7.53469453 2.27893910
v -3.85923378 -9.55619794 2.27142525
v -3.12414163 -10.10751705 2.26942429
v -2.38904948 -9.37242490 2.27457026
v 7.16714845 3.12414163 2.35780373
v 9.00487882 5.88073719 2.37577361
v 9.00487882 6.43205630 2.37883659
v 6.79960238 8.26978668 2.38586045
v 5.69696415 9.00487882 2.38835140
v 3.85923378 10.10751705 2.39182231
v 3.12414163 9.92374401 2.38973931
v -3.12414163 6.06451023 2.35927142
v -6.79960238 2.38904948 2.33354156
v -9.00487882 -3.49168771 2.29768385
v -9.00487882 -5.32941808 2.28747394
v -6.43205630 -7.53469453 -3.96545478
v -3.85923378 -9.55619794 -3.96545478
v -3.12414163 -10.10751705 -3.96545478
v -2.38904948 -9.37242490 -3.96545478
v 7.16714845 3.12414163 -3.96545478
v 9.00487882 5.88073719 -3.96545478
v 9.00487882 6.43205630 -3.96545478
v 6.79960238 8.26978668 -3.96545478
v 5.69696415 9.00487882 -3.96545478
v 3.85923378 10.10751705 -3.96545478
v 3.12414163 9.92374401 -3.96545478
v -3.12414163 6.06451023 -3.96545478
v -6.79960238 2.38904948 -3.96545478
v -9.00487882 -3.49168771 -3.96545478
v -9.00487882 -5.32941808 -3.96545478
g roof
f 1 2 3 4 5 6 7 8 9 10 11 12 13 14 15
g wall
f 2 1 16 17
g wall
f 3 2 17 18
g wall
f 4 3 18 19
g wall
f 5 4 19 20
g wall
f 6 5 20 21
g wall
f 7 6 21 22
g wall
f 8 7 22 23
g wall
f 9 8 23 24
g wall
f 10 9 24 25
g wall
f 11 10 25 26
g wall
f 12 11 26 27
g wall
f 13 12 27 28
g wall
f 14 13 28 29
g wall
f 15 14 29 30
g wall
f 1 15 30 16
g ground_assumed
f 30 29 28 27 26 25 24 23 22 21 20 19 18 17 16
