# XYZ-only planar convex-roof baseline. Provisional base; no GT.
v 1.15364572 -9.95019437 0.16157000
v 4.03776003 -7.06608006 0.01467601
v 6.34505148 -4.47037718 -0.11086741
v 9.22916579 -0.72102858 -0.28184606
v 10.38281151 1.00944001 -0.35666009
v 9.80598865 1.87467430 -0.36742240
v 8.07552007 3.89355432 -0.38365287
v 1.15364572 9.95019437 -0.39237720
v 0.00000000 10.81542866 -0.38981715
v -1.73046859 10.81542866 -0.34985007
v -4.03776003 8.21972578 -0.22430666
v -6.92187434 4.47037718 -0.05332801
v -10.38281151 -0.14420572 0.15505766
v -10.38281151 -2.16308573 0.21125520
v -6.34505148 -5.91243433 0.22236556
v -1.73046859 -9.66178294 0.22015356
v 0.00000000 -10.81542866 0.21229937
v 1.15364572 -9.95019437 -0.44171337
v 4.03776003 -7.06608006 -0.44171337
v 6.34505148 -4.47037718 -0.44171337
v 9.22916579 -0.72102858 -0.44171337
v 10.38281151 1.00944001 -0.44171337
v 9.80598865 1.87467430 -0.44171337
v 8.07552007 3.89355432 -0.44171337
v 1.15364572 9.95019437 -0.44171337
v 0.00000000 10.81542866 -0.44171337
v -1.73046859 10.81542866 -0.44171337
v -4.03776003 8.21972578 -0.44171337
v -6.92187434 4.47037718 -0.44171337
v -10.38281151 -0.14420572 -0.44171337
v -10.38281151 -2.16308573 -0.44171337
v -6.34505148 -5.91243433 -0.44171337
v -1.73046859 -9.66178294 -0.44171337
v 0.00000000 -10.81542866 -0.44171337
g roof
f 1 2 3 4 5 6 7 8 9 10 11 12 13 14 15 16 17
g wall
f 2 1 18 19
g wall
f 3 2 19 20
g wall
f 4 3 20 21
g wall
f 5 4 21 22
g wall
f 6 5 22 23
g wall
f 7 6 23 24
g wall
f 8 7 24 25
g wall
f 9 8 25 26
g wall
f 10 9 26 27
g wall
f 11 10 27 28
g wall
f 12 11 28 29
g wall
f 13 12 29 30
g wall
f 14 13 30 31
g wall
f 15 14 31 32
g wall
f 16 15 32 33
g wall
f 17 16 33 34
g wall
f 1 17 34 18
g ground_assumed
f 34 33 32 31 30 29 28 27 26 25 24 23 22 21 20 19 18
