# Source coordinates; no display transform
v 0.17136529215 0.21626307259 0.203665733169
v 0.15525263007 0.306508757487 0.203642119748
v 0.139176911636 0.393701601704 0.203620067738
v 0.131374582005 0.437712551785 0.203608468682
v 0.118069590981 0.497617069583 0.203596710871
v -0.290909461833 0.421918831843 0.204250640881
v -0.120460162912 -0.498977015691 0.204482548572
v 0.285556506936 -0.423827087633 0.203833355217
v 0.24805467585 -0.221213872182 0.203782331468
v 0.239623423425 -0.159606724402 0.20376235686
v 0.219020090742 -0.0525718250531 0.2037365914
v 0.206350535547 0.0150408239276 0.203719797395
v 0.186252515311 0.12326319184 0.203692644568
v 0.139176911636 0.393701601704 -0.202561819562
v 0.131374582005 0.437712551785 -0.202561819562
v 0.118069590981 0.497617069583 -0.202561819562
v -0.290909461833 0.421918831843 -0.202561819562
v -0.120460162912 -0.498977015691 -0.202561819562
v 0.285556506936 -0.423827087633 -0.202561819562
v 0.24805467585 -0.221213872182 -0.202561819562
v 0.239623423425 -0.159606724402 -0.202561819562
v 0.219020090742 -0.0525718250531 -0.202561819562
v 0.206350535547 0.0150408239276 -0.202561819562
v 0.186252515311 0.12326319184 -0.202561819562
v 0.17136529215 0.21626307259 -0.202561819562
v 0.15525263007 0.306508757487 -0.202561819562
g roof
f 1 2 3
g roof
f 3 4 5
g roof
f 3 5 6
g roof
f 3 6 7
g roof
f 7 8 9
g roof
f 7 9 10
g roof
f 7 10 11
g roof
f 7 11 12
g roof
f 7 12 13
g roof
f 7 13 1
g roof
f 7 1 3
g facade_completed
f 4 3 14 15
g facade_completed
f 5 4 15 16
g facade_completed
f 6 5 16 17
g facade_completed
f 7 6 17 18
g facade_completed
f 8 7 18 19
g facade_completed
f 9 8 19 20
g facade_completed
f 10 9 20 21
g facade_completed
f 11 10 21 22
g facade_completed
f 12 11 22 23
g facade_completed
f 13 12 23 24
g facade_completed
f 1 13 24 25
g facade_completed
f 2 1 25 26
g facade_completed
f 3 2 26 14
g ground_assumed
f 14 16 15
g ground_assumed
f 14 17 16
g ground_assumed
f 14 18 17
g ground_assumed
f 18 20 19
g ground_assumed
f 18 21 20
g ground_assumed
f 18 22 21
g ground_assumed
f 18 23 22
g ground_assumed
f 18 24 23
g ground_assumed
f 18 25 24
g ground_assumed
f 18 26 25
g ground_assumed
f 18 14 26
