# pointcloud_to_mesh 0.5.1; candidate requires geometry validation; coordinates preserved
v 4.220223878 5.257485763 4.813304090
v 3.829266954 7.447203092 4.812731135
v 3.439206429 9.562846429 4.812196066
v 3.249891046 10.630726186 4.811914627
v 2.927059329 12.084246771 4.811629336
v -6.996390420 10.247508060 4.827496265
v -2.860616128 -12.097068280 4.833123263
v 6.990954491 -10.273633731 4.817371264
v 6.081011711 -5.357435583 4.816133226
v 5.876436173 -3.862602459 4.815648563
v 5.376517815 -1.265512369 4.815023391
v 5.069104285 0.375037972 4.814615902
v 4.581446806 3.000940747 4.813957067
v 3.439206429 9.562846429 -5.043383382
v 3.249891046 10.630726186 -5.043383382
v 2.927059329 12.084246771 -5.043383382
v -6.996390420 10.247508060 -5.043383382
v -2.860616128 -12.097068280 -5.043383382
v 6.990954491 -10.273633731 -5.043383382
v 6.081011711 -5.357435583 -5.043383382
v 5.876436173 -3.862602459 -5.043383382
v 5.376517815 -1.265512369 -5.043383382
v 5.069104285 0.375037972 -5.043383382
v 4.581446806 3.000940747 -5.043383382
v 4.220223878 5.257485763 -5.043383382
v 3.829266954 7.447203092 -5.043383382
g roof
f 1 2 3
g roof
f 3 4 5
g roof
f 3 5 6
g roof
f 3 6 7
g roof
f 7 8 9
g roof
f 7 9 10
g roof
f 7 10 11
g roof
f 7 11 12
g roof
f 7 12 13
g roof
f 7 13 1
g roof
f 7 1 3
g facade_completed
f 4 3 14 15
g facade_completed
f 5 4 15 16
g facade_completed
f 6 5 16 17
g facade_completed
f 7 6 17 18
g facade_completed
f 8 7 18 19
g facade_completed
f 9 8 19 20
g facade_completed
f 10 9 20 21
g facade_completed
f 11 10 21 22
g facade_completed
f 12 11 22 23
g facade_completed
f 13 12 23 24
g facade_completed
f 1 13 24 25
g facade_completed
f 2 1 25 26
g facade_completed
f 3 2 26 14
g ground_assumed
f 14 16 15
g ground_assumed
f 14 17 16
g ground_assumed
f 14 18 17
g ground_assumed
f 18 20 19
g ground_assumed
f 18 21 20
g ground_assumed
f 18 22 21
g ground_assumed
f 18 23 22
g ground_assumed
f 18 24 23
g ground_assumed
f 18 25 24
g ground_assumed
f 18 26 25
g ground_assumed
f 18 14 26
