# pointcloud_to_mesh 0.5.1; candidate requires geometry validation; coordinates preserved
v -1.334900000 -2.536200000 13.524641403
v -2.402800000 -2.803200000 13.527609016
v -2.936700000 -4.138100000 13.527732961
v -1.868800000 -4.672000000 13.523858913
v -1.334900000 -4.405100000 13.522526238
v -0.800900000 -4.672000000 13.520589117
v 0.267000000 -4.138100000 13.517923574
v 2.402800000 -4.405100000 13.511081800
v 2.402800000 -3.871100000 13.511686166
v 4.004600000 -3.871100000 13.506781626
v 4.004600000 2.536200000 13.514033218
v 3.470700000 3.070200000 13.516272328
v 3.470700000 3.604100000 13.516876580
v 2.936700000 3.871100000 13.518813814
v 2.936700000 4.672000000 13.519720249
v 0.267000000 4.672000000 13.527894584
v 1.334900000 4.405100000 13.524322719
v 0.267000000 3.871100000 13.526988149
v 1.334900000 3.604100000 13.523416171
v 2.402800000 3.871100000 13.520448558
v 2.402800000 2.536200000 13.518937758
v 3.470700000 2.002300000 13.515063710
v 2.402800000 1.735300000 13.518031323
v 3.470700000 1.201400000 13.514157276
v 2.402800000 -3.070200000 13.512592601
v 1.868800000 -2.269300000 13.515134086
v 0.800900000 -3.070200000 13.517497447
v -0.267000000 -2.803200000 13.521069425
v -0.267000000 -2.269300000 13.521673677
v -0.800900000 -2.269300000 13.523308422
v -1.334900000 -1.735300000 13.525547838
v -1.334900000 -1.201400000 13.526152091
v -2.402800000 -1.468400000 13.529119703
v -2.402800000 -2.002300000 13.528515451
v -2.936700000 -2.536200000 13.529545944
v 3.470700000 2.269300000 13.515365893
v 3.470700000 -2.269300000 13.510229240
v 2.936700000 -3.337200000 13.510655673
v -1.334900000 -2.269300000 13.524943473
v -1.334900000 3.203700000 13.531137652
v 0.267000000 3.203700000 13.526232806
v -0.267000000 4.405100000 13.529227566
v -0.800900000 4.672000000 13.531164380
v -1.868800000 4.271600000 13.533981014
v -2.402800000 4.271600000 13.535616065
v -2.402800000 0.267000000 13.531083778
v -1.334900000 0.267000000 13.527813982
v -1.334900000 1.468400000 13.529173691
v -0.800900000 2.002300000 13.528142892
v -1.334900000 2.269300000 13.530080126
v -2.402800000 -0.667400000 13.187082171
v -1.334900000 -1.201400000 13.177773299
v -1.334900000 -0.533900000 13.177471932
v -2.402800000 -0.533900000 13.187021897
v -2.402800000 0.267000000 13.186660302
v -2.402800000 4.271600000 13.184852277
v -2.936700000 4.271600000 13.189626812
v -2.936700000 3.070200000 13.190169229
v -3.470700000 2.803200000 13.195065206
v -3.470700000 -0.667400000 13.196632137
v -0.267000000 -2.803200000 -13.670889719
v -0.267000000 -2.269300000 -13.670889719
v -0.800900000 -2.269300000 -13.670889719
v -1.334900000 -1.735300000 -13.670889719
v -1.334900000 -1.201400000 -13.670889719
v -2.402800000 -1.468400000 -13.670889719
v -2.402800000 -2.002300000 -13.670889719
v -2.936700000 -2.536200000 -13.670889719
v -2.936700000 -4.138100000 -13.670889719
v -1.868800000 -4.672000000 -13.670889719
v -1.334900000 -4.405100000 -13.670889719
v -0.800900000 -4.672000000 -13.670889719
v 0.267000000 -4.138100000 -13.670889719
v 2.402800000 -4.405100000 -13.670889719
v 2.402800000 -3.871100000 -13.670889719
v 2.936700000 -3.337200000 -13.670889719
v 4.004600000 -3.871100000 -13.670889719
v 4.004600000 2.536200000 -13.670889719
v 3.470700000 3.070200000 -13.670889719
v 3.470700000 3.604100000 -13.670889719
v 2.936700000 3.871100000 -13.670889719
v 2.936700000 4.672000000 -13.670889719
v 0.267000000 4.672000000 -13.670889719
v 1.334900000 4.405100000 -13.670889719
v 0.267000000 3.871100000 -13.670889719
v 1.334900000 3.604100000 -13.670889719
v 2.402800000 3.871100000 -13.670889719
v 2.402800000 2.536200000 -13.670889719
v 3.470700000 2.269300000 -13.670889719
v 3.470700000 2.002300000 -13.670889719
v 2.402800000 1.735300000 -13.670889719
v 3.470700000 1.201400000 -13.670889719
v 3.470700000 -2.269300000 -13.670889719
v 2.402800000 -3.070200000 -13.670889719
v 1.868800000 -2.269300000 -13.670889719
v 0.800900000 -3.070200000 -13.670889719
v -2.402800000 -2.803200000 -13.670889719
v -1.334900000 -2.269300000 -13.670889719
v -1.334900000 -2.536200000 -13.670889719
v -0.267000000 4.405100000 -13.670889719
v -0.800900000 4.672000000 -13.670889719
v -1.868800000 4.271600000 -13.670889719
v -2.402800000 4.271600000 -13.670889719
v -2.402800000 0.267000000 -13.670889719
v -1.334900000 0.267000000 -13.670889719
v -1.334900000 1.468400000 -13.670889719
v -0.800900000 2.002300000 -13.670889719
v -1.334900000 2.269300000 -13.670889719
v -1.334900000 3.203700000 -13.670889719
v 0.267000000 3.203700000 -13.670889719
v -1.334900000 -0.533900000 -13.670889719
v -2.402800000 -0.533900000 -13.670889719
v -2.936700000 4.271600000 -13.670889719
v -2.936700000 3.070200000 -13.670889719
v -3.470700000 2.803200000 -13.670889719
v -3.470700000 -0.667400000 -13.670889719
v -2.402800000 -0.667400000 -13.670889719
g roof
f 1 2 3
g roof
f 1 3 4
g roof
f 1 4 5
g roof
f 1 5 6
g roof
f 1 6 7
g roof
f 1 7 8
g roof
f 1 8 9
g roof
f 10 11 12
g roof
f 12 13 14
g roof
f 15 16 17
g roof
f 15 17 18
g roof
f 15 18 19
g roof
f 15 19 20
g roof
f 15 20 21
g roof
f 22 23 24
g roof
f 25 26 27
g roof
f 28 29 30
g roof
f 31 32 33
g roof
f 34 35 3
g roof
f 34 3 2
g roof
f 14 15 21
g roof
f 14 21 36
g roof
f 28 30 31 33
g roof
f 12 14 36
g roof
f 10 12 36
g roof
f 10 36 22
g roof
f 10 22 24
g roof
f 10 24 37
g roof
f 10 37 25
g roof
f 38 10 25
g roof
f 38 25 27
g roof
f 9 38 27
g roof
f 9 27 28
g roof
f 1 9 28
g roof
f 39 1 28
g roof
f 39 28 33
g roof
f 34 39 33
g roof
f 40 41 18
g roof
f 40 18 16
g roof
f 40 16 42
g roof
f 40 42 43
g roof
f 40 43 44
g roof
f 40 44 45
g roof
f 40 45 46
g roof
f 46 47 48
g roof
f 48 49 50
g roof
f 50 40 46
g roof
f 50 46 48
g roof
f 51 52 53
g roof
f 51 53 54
g roof
f 55 56 57
g roof
f 55 57 58
g roof
f 55 58 59
g roof
f 55 59 60
g roof
f 60 51 54
g roof
f 60 54 55
g facade_completed
f 29 28 61 62
g facade_completed
f 30 29 62 63
g facade_completed
f 31 30 63 64
g facade_completed
f 32 31 64 65 52
g facade_completed
f 33 32 52 65 66
g facade_completed
f 34 33 66 67
g facade_completed
f 35 34 67 68
g facade_completed
f 3 35 68 69
g facade_completed
f 4 3 69 70
g facade_completed
f 5 4 70 71
g facade_completed
f 6 5 71 72
g facade_completed
f 7 6 72 73
g facade_completed
f 8 7 73 74
g facade_completed
f 9 8 74 75
g facade_completed
f 38 9 75 76
g facade_completed
f 10 38 76 77
g facade_completed
f 11 10 77 78
g facade_completed
f 12 11 78 79
g facade_completed
f 13 12 79 80
g facade_completed
f 14 13 80 81
g facade_completed
f 15 14 81 82
g facade_completed
f 16 15 82 83
g facade_completed
f 17 16 83 84
g facade_completed
f 18 17 84 85
g facade_completed
f 19 18 85 86
g facade_completed
f 20 19 86 87
g facade_completed
f 21 20 87 88
g facade_completed
f 36 21 88 89
g facade_completed
f 22 36 89 90
g facade_completed
f 23 22 90 91
g facade_completed
f 24 23 91 92
g facade_completed
f 37 24 92 93
g facade_completed
f 25 37 93 94
g facade_completed
f 26 25 94 95
g facade_completed
f 27 26 95 96
g facade_completed
f 28 27 96 61
g facade_completed
f 34 2 97 67
g facade_completed
f 39 34 67 98
g facade_completed
f 1 39 98 99
g facade_completed
f 2 1 99 97
g facade_completed
f 16 18 85 83
g facade_completed
f 42 16 83 100
g facade_completed
f 43 42 100 101
g facade_completed
f 44 43 101 102
g facade_completed
f 45 44 102 103 56
g roof_step_or_fixture_side
f 46 45 56 55
g facade_completed
f 47 46 55 104 105
g facade_completed
f 48 47 105 106
g facade_completed
f 49 48 106 107
g facade_completed
f 50 49 107 108
g facade_completed
f 40 50 108 109
g facade_completed
f 41 40 109 110
g facade_completed
f 18 41 110 85
g facade_completed
f 54 53 111 112
g facade_completed
f 55 54 112 104
g facade_completed
f 57 56 103 113
g facade_completed
f 58 57 113 114
g facade_completed
f 59 58 114 115
g facade_completed
f 60 59 115 116
g facade_completed
f 51 60 116 117
g facade_completed
f 52 51 117 65
g facade_completed
f 53 52 65 111
g ground_assumed
f 99 69 97
g ground_assumed
f 99 70 69
g ground_assumed
f 99 71 70
g ground_assumed
f 99 72 71
g ground_assumed
f 99 73 72
g ground_assumed
f 99 74 73
g ground_assumed
f 99 75 74
g ground_assumed
f 77 79 78
g ground_assumed
f 79 81 80
g ground_assumed
f 82 84 83
g ground_assumed
f 82 85 84
g ground_assumed
f 82 86 85
g ground_assumed
f 82 87 86
g ground_assumed
f 82 88 87
g ground_assumed
f 90 92 91
g ground_assumed
f 94 96 95
g ground_assumed
f 61 63 62
g ground_assumed
f 64 66 65
g ground_assumed
f 67 69 68
g ground_assumed
f 67 97 69
g ground_assumed
f 81 88 82
g ground_assumed
f 81 89 88
g ground_assumed
f 61 66 64 63
g ground_assumed
f 79 89 81
g ground_assumed
f 77 89 79
g ground_assumed
f 77 90 89
g ground_assumed
f 77 92 90
g ground_assumed
f 77 93 92
g ground_assumed
f 77 94 93
g ground_assumed
f 76 94 77
g ground_assumed
f 76 96 94
g ground_assumed
f 75 96 76
g ground_assumed
f 75 61 96
g ground_assumed
f 99 61 75
g ground_assumed
f 98 61 99
g ground_assumed
f 98 66 61
g ground_assumed
f 67 66 98
g ground_assumed
f 85 100 83
g ground_assumed
f 85 101 100
g ground_assumed
f 85 102 101
g ground_assumed
f 85 103 102
g ground_assumed
f 85 113 103
g ground_assumed
f 85 114 113
g ground_assumed
f 85 115 114
g ground_assumed
f 115 117 116
g ground_assumed
f 117 111 65
g ground_assumed
f 117 112 111
g ground_assumed
f 104 106 105
g ground_assumed
f 106 108 107
g ground_assumed
f 109 85 110
g ground_assumed
f 109 115 85
g ground_assumed
f 115 112 117
g ground_assumed
f 115 104 112
g ground_assumed
f 115 106 104
g ground_assumed
f 115 108 106
g ground_assumed
f 115 109 108
