v 2684058.4999842527 1251790.8750215832 443.59739421766164
v 2684057.9999810187 1251790.7500090695 443.59878368867624
v 2684057.7500028126 1251790.124993322 443.59884172117069
v 2684058.2500060461 1251789.8750151156 443.59702784671828
v 2684058.4999842527 1251789.9999808082 443.59640387274175
v 2684058.7500092802 1251789.8750151156 443.59549689009901
v 2684059.2500125137 1251790.124993322 443.59424885178112
v 2684060.2500189813 1251789.9999808082 443.5910454534062
v 2684060.2500189813 1251790.2500058357 443.59132842461543
v 2684061.0000004214 1251790.2500058357 443.58903206179116
v 2684061.0000004214 1251793.2499784168 443.59242734173296
v 2684060.7500222148 1251793.5000034445 443.59347571914725
v 2684060.7500222148 1251793.7499816506 443.5937586369804
v 2684060.4999971874 1251793.8749941643 443.59466567253099
v 2684060.4999971874 1251794.2499848844 443.59509007596876
v 2684059.2500125137 1251794.2499848844 443.59891739494412
v 2684059.7500157473 1251794.1250191918 443.59724500609639
v 2684059.2500125137 1251793.8749941643 443.59849299150636
v 2684059.7500157473 1251793.7499816506 443.5968205497507
v 2684060.2500189813 1251793.8749941643 443.59543107873606
v 2684060.2500189813 1251793.2499784168 443.59472370455723
v 2684060.7500222148 1251793.0000002107 443.59290983010487
v 2684060.2500189813 1251792.874987697 443.59429930111946
v 2684060.7500222148 1251792.6250094906 443.59248542713527
v 2684060.2500189813 1251790.6249965555 443.59175282805319
v 2684059.9999939539 1251790.9999872756 443.59294278096877
v 2684059.4999907198 1251790.6249965555 443.59404933415027
v 2684058.9999874863 1251790.7500090695 443.59572177590593
v 2684058.9999874863 1251790.9999872756 443.59600469373908
v 2684058.7500092802 1251790.9999872756 443.5967701004123
v 2684058.4999842527 1251791.250012303 443.59781862109941
v 2684058.4999842527 1251791.4999905094 443.59810153940072
v 2684057.9999810187 1251791.3749779956 443.59949100994714
v 2684057.9999810187 1251791.1249997893 443.599208092114
v 2684057.7500028126 1251790.8750215832 443.59969058095413
v 2684060.7500222148 1251793.1250127244 443.59305131570949
v 2684060.7500222148 1251790.9999872756 443.59064627487169
v 2684060.4999971874 1251790.4999840418 443.59084593577535
v 2684058.4999842527 1251790.9999872756 443.59753565035834
v 2684058.4999842527 1251793.5625097014 443.6004358372021
v 2684059.2500125137 1251793.5625097014 443.59813933110502
v 2684058.9999874863 1251794.1250191918 443.59954151266163
v 2684058.7500092802 1251794.2499848844 443.60044835156339
v 2684058.2500060461 1251794.0625129349 443.60176713244954
v 2684057.9999810187 1251794.0625129349 443.60253268239552
v 2684057.9999810187 1251792.1875125137 443.60041061276701
v 2684058.4999842527 1251792.1875125137 443.59887965614774
v 2684058.4999842527 1251792.7500220044 443.59951628775838
v 2684058.7500092802 1251793.0000002107 443.59903365564548
v 2684058.4999842527 1251793.1250127244 443.59994069119614
v 2684057.9999810187 1251791.7500155368 443.43934504865439
v 2684058.4999842527 1251791.4999905094 443.43498652622475
v 2684058.4999842527 1251791.8125217936 443.43484542268084
v 2684057.9999810187 1251791.8125217936 443.4393168276647
v 2684057.9999810187 1251792.1875125137 443.43914752466878
v 2684057.9999810187 1251794.0625129349 443.43830098627876
v 2684057.7500028126 1251794.0625129349 443.44053647924596
v 2684057.7500028126 1251793.5000034445 443.44079044521095
v 2684057.4999777852 1251793.3749909305 443.44308279873883
v 2684057.4999777852 1251791.7500155368 443.44381645410641
v 2684058.9999874863 1251790.7500090695 430.86412939454868
v 2684058.9999874863 1251790.9999872756 430.86412939454868
v 2684058.7500092802 1251790.9999872756 430.86412939454868
v 2684058.4999842527 1251791.250012303 430.86412939454868
v 2684058.4999842527 1251791.4999905094 430.86412939454868
v 2684057.9999810187 1251791.3749779956 430.86412939454868
v 2684057.9999810187 1251791.1249997893 430.86412939454868
v 2684057.7500028126 1251790.8750215832 430.86412939454868
v 2684057.7500028126 1251790.124993322 430.86412939454868
v 2684058.2500060461 1251789.8750151156 430.86412939454868
v 2684058.4999842527 1251789.9999808082 430.86412939454868
v 2684058.7500092802 1251789.8750151156 430.86412939454868
v 2684059.2500125137 1251790.124993322 430.86412939454868
v 2684060.2500189813 1251789.9999808082 430.86412939454868
v 2684060.2500189813 1251790.2500058357 430.86412939454868
v 2684060.4999971874 1251790.4999840418 430.86412939454868
v 2684061.0000004214 1251790.2500058357 430.86412939454868
v 2684061.0000004214 1251793.2499784168 430.86412939454868
v 2684060.7500222148 1251793.5000034445 430.86412939454868
v 2684060.7500222148 1251793.7499816506 430.86412939454868
v 2684060.4999971874 1251793.8749941643 430.86412939454868
v 2684060.4999971874 1251794.2499848844 430.86412939454868
v 2684059.2500125137 1251794.2499848844 430.86412939454868
v 2684059.7500157473 1251794.1250191918 430.86412939454868
v 2684059.2500125137 1251793.8749941643 430.86412939454868
v 2684059.7500157473 1251793.7499816506 430.86412939454868
v 2684060.2500189813 1251793.8749941643 430.86412939454868
v 2684060.2500189813 1251793.2499784168 430.86412939454868
v 2684060.7500222148 1251793.1250127244 430.86412939454868
v 2684060.7500222148 1251793.0000002107 430.86412939454868
v 2684060.2500189813 1251792.874987697 430.86412939454868
v 2684060.7500222148 1251792.6250094906 430.86412939454868
v 2684060.7500222148 1251790.9999872756 430.86412939454868
v 2684060.2500189813 1251790.6249965555 430.86412939454868
v 2684059.9999939539 1251790.9999872756 430.86412939454868
v 2684059.4999907198 1251790.6249965555 430.86412939454868
v 2684057.9999810187 1251790.7500090695 430.86412939454868
v 2684058.4999842527 1251790.9999872756 430.86412939454868
v 2684058.4999842527 1251790.8750215832 430.86412939454868
v 2684058.9999874863 1251794.1250191918 430.86412939454868
v 2684058.7500092802 1251794.2499848844 430.86412939454868
v 2684058.2500060461 1251794.0625129349 430.86412939454868
v 2684057.9999810187 1251794.0625129349 430.86412939454868
v 2684057.9999810187 1251792.1875125137 430.86412939454868
v 2684058.4999842527 1251792.1875125137 430.86412939454868
v 2684058.4999842527 1251792.7500220044 430.86412939454868
v 2684058.7500092802 1251793.0000002107 430.86412939454868
v 2684058.4999842527 1251793.1250127244 430.86412939454868
v 2684058.4999842527 1251793.5625097014 430.86412939454868
v 2684059.2500125137 1251793.5625097014 430.86412939454868
v 2684058.4999842527 1251791.8125217936 430.86412939454868
v 2684057.9999810187 1251791.8125217936 430.86412939454868
v 2684057.7500028126 1251794.0625129349 430.86412939454868
v 2684057.7500028126 1251793.5000034445 430.86412939454868
v 2684057.4999777852 1251793.3749909305 430.86412939454868
v 2684057.4999777852 1251791.7500155368 430.86412939454868
v 2684057.9999810187 1251791.7500155368 430.86412939454868
l 1 2
l 3 4
l 4 5
l 5 6
l 6 7
l 7 8
l 8 9
l 10 11
l 11 12
l 12 13
l 13 14
l 15 16
l 16 17
l 17 18
l 18 19
l 19 20
l 20 21
l 22 23
l 23 24
l 25 26
l 26 27
l 28 29
l 29 30
l 31 32
l 32 33
l 34 35
l 3 35
l 2 34
l 14 15
l 21 36
l 30 31
l 22 36
l 24 37
l 25 37
l 10 38
l 9 38
l 27 28
l 1 39
l 34 39
l 33 34
l 40 41
l 18 41
l 16 18
l 16 42
l 42 43
l 43 44
l 44 45
l 45 46
l 46 47
l 47 48
l 48 49
l 49 50
l 40 50
l 51 52
l 52 53
l 53 54
l 55 56
l 56 57
l 57 58
l 58 59
l 59 60
l 51 60
l 54 55
l 28 61
l 61 62
l 29 62
l 62 63
l 30 63
l 63 64
l 31 64
l 64 65
l 52 65
l 32 52
l 65 66
l 33 66
l 66 67
l 34 67
l 67 68
l 35 68
l 68 69
l 3 69
l 69 70
l 4 70
l 70 71
l 5 71
l 71 72
l 6 72
l 72 73
l 7 73
l 73 74
l 8 74
l 74 75
l 9 75
l 75 76
l 38 76
l 76 77
l 10 77
l 77 78
l 11 78
l 78 79
l 12 79
l 79 80
l 13 80
l 80 81
l 14 81
l 81 82
l 15 82
l 82 83
l 16 83
l 83 84
l 17 84
l 84 85
l 18 85
l 85 86
l 19 86
l 86 87
l 20 87
l 87 88
l 21 88
l 88 89
l 36 89
l 89 90
l 22 90
l 90 91
l 23 91
l 91 92
l 24 92
l 92 93
l 37 93
l 93 94
l 25 94
l 94 95
l 26 95
l 95 96
l 27 96
l 61 96
l 2 97
l 67 97
l 67 98
l 39 98
l 98 99
l 1 99
l 97 99
l 83 85
l 83 100
l 42 100
l 100 101
l 43 101
l 101 102
l 44 102
l 102 103
l 45 56
l 46 55
l 55 104
l 104 105
l 47 105
l 105 106
l 48 106
l 106 107
l 49 107
l 107 108
l 50 108
l 108 109
l 40 109
l 109 110
l 41 110
l 85 110
l 53 111
l 111 112
l 54 112
l 104 112
l 103 113
l 57 113
l 113 114
l 58 114
l 114 115
l 59 115
l 115 116
l 60 116
l 116 117
l 51 117
l 65 117
l 65 111
