# Source coordinates; no display transform
v 2680953.5 1250330 524.178392503
v 2680954 1250331.5 524.185835197
v 2680955.25 1250337.5 524.216626622
v 2680955.25 1250338.25 524.220688179
v 2680950.5 1250340.625 524.240013868
v 2680949.5 1250340.875 524.242728581
v 2680949.25 1250340.875 524.243068796
v 2680947.25 1250337.125 524.225482704
v 2680946.25 1250335 524.215335806
v 2680945.25 1250332.75 524.204511979
v 2680945 1250331.75 524.19943678
v 2680945.5 1250331.5 524.197402492
v 2680947.5 1250331 524.191973071
v 2680953 1250329.875 524.178396009
v 2680953.5 1250330 519.430490234
v 2680954 1250331.5 519.430490234
v 2680955.25 1250337.5 519.430490234
v 2680955.25 1250338.25 519.430490234
v 2680950.5 1250340.625 519.430490234
v 2680949.5 1250340.875 519.430490234
v 2680949.25 1250340.875 519.430490234
v 2680947.25 1250337.125 519.430490234
v 2680946.25 1250335 519.430490234
v 2680945.25 1250332.75 519.430490234
v 2680945 1250331.75 519.430490234
v 2680945.5 1250331.5 519.430490234
v 2680947.5 1250331 519.430490234
v 2680953 1250329.875 519.430490234
g roof
f 1 2 3 4 5 6 7 8 9 10 11 12 13 14
g wall
f 2 1 15 16
g wall
f 3 2 16 17
g wall
f 4 3 17 18
g wall
f 5 4 18 19
g wall
f 6 5 19 20
g wall
f 7 6 20 21
g wall
f 8 7 21 22
g wall
f 9 8 22 23
g wall
f 10 9 23 24
g wall
f 11 10 24 25
g wall
f 12 11 25 26
g wall
f 13 12 26 27
g wall
f 14 13 27 28
g wall
f 1 14 28 15
g ground_assumed
f 28 27 26 25 24 23 22 21 20 19 18 17 16 15
