v 2680953.5000000014 1250330.0000000026 524.17839250256804
v 2680953.9999999977 1250331.5000000021 524.18583519730907
v 2680955.2499999991 1250337.5000000002 524.216626621758
v 2680955.2499999991 1250338.25 524.2206881789848
v 2680950.5000000023 1250340.6249999984 524.24001386759085
v 2680949.4999999995 1250340.8750000019 524.2427285806458
v 2680949.2500000009 1250340.8750000019 524.24306879580729
v 2680947.25 1250337.1249999977 524.22548270443917
v 2680946.2500000023 1250334.9999999974 524.21533580634605
v 2680945.2499999991 1250332.7499999981 524.20451197939599
v 2680945.0000000009 1250331.7500000002 524.19943677961646
v 2680945.5000000023 1250331.5000000021 524.19740249157928
v 2680947.4999999981 1250331.0000000005 524.19197307077468
v 2680953 1250329.8749999981 524.17839600933917
v 2680953.5000000014 1250330.0000000026 519.43049023408298
v 2680953.9999999977 1250331.5000000021 519.43049023408298
v 2680955.2499999991 1250337.5000000002 519.43049023408298
v 2680955.2499999991 1250338.25 519.43049023408298
v 2680950.5000000023 1250340.6249999984 519.43049023408298
v 2680949.4999999995 1250340.8750000019 519.43049023408298
v 2680949.2500000009 1250340.8750000019 519.43049023408298
v 2680947.25 1250337.1249999977 519.43049023408298
v 2680946.2500000023 1250334.9999999974 519.43049023408298
v 2680945.2499999991 1250332.7499999981 519.43049023408298
v 2680945.0000000009 1250331.7500000002 519.43049023408298
v 2680945.5000000023 1250331.5000000021 519.43049023408298
v 2680947.4999999981 1250331.0000000005 519.43049023408298
v 2680953 1250329.8749999981 519.43049023408298
l 1 2
l 2 3
l 3 4
l 4 5
l 5 6
l 6 7
l 7 8
l 8 9
l 9 10
l 10 11
l 11 12
l 12 13
l 13 14
l 1 14
l 1 15
l 15 16
l 16 17
l 3 17
l 17 18
l 4 18
l 18 19
l 5 19
l 19 20
l 6 20
l 20 21
l 7 21
l 21 22
l 22 23
l 23 24
l 24 25
l 11 25
l 25 26
l 12 26
l 26 27
l 27 28
l 14 28
l 15 28
