# Source coordinates; no display transform
v 2686067.12325 1251475.10771 427.074664028
v 2686086.12911 1251465.22466 427.107516888
v 2686088.97696 1251470.7013 427.147891987
v 2686069.9711 1251480.58435 427.115039127
v 2686067.12325 1251475.10771 424.991351561
v 2686086.12911 1251465.22466 424.991351561
v 2686088.97696 1251470.7013 424.991351561
v 2686069.9711 1251480.58435 424.991351561
g roof
f 1 2 3 4
g wall
f 2 1 5 6
g wall
f 3 2 6 7
g wall
f 4 3 7 8
g wall
f 1 4 8 5
g ground_assumed
f 8 7 6 5
