# pointcloud_to_mesh 0.5.1; candidate requires geometry validation; coordinates preserved
v 0.696989897 9.194220083 8.586224773
v 0.488383734 6.458293691 8.571664185
v 0.716480765 9.259366043 8.572366788
v 0.666741707 9.263370549 8.621333335
v 0.666542352 9.263386600 8.621529593
v 0.615607164 9.267487407 8.671673692
v 0.610197956 9.201083427 8.671658792
v 0.661135091 9.197055399 8.621518604
v 5.578082196 -0.686321551 3.022939653
v 6.321843388 8.808076654 3.054062729
v 0.817753076 9.251212580 8.472667368
v -0.195859125 -5.178787218 8.311141816
v -0.104629384 -5.677113723 8.182102347
v -0.255061627 -5.993522144 8.303951316
v 0.767415953 9.255265236 8.522222690
v 0.762281661 9.192261360 8.522210562
v -0.237804230 -3.079983212 8.519848195
v 0.762877732 9.192226466 8.521624795
v -0.308124057 -4.565559665 8.469934408
v -0.339206496 -4.395777090 8.513898829
v -0.343236587 -4.373763759 8.519599146
v -0.520778264 -6.552411517 8.519179763
v -0.520982808 -6.552841740 8.519345442
v -0.343280262 -4.373525043 8.519660934
v -0.373733977 -4.207176949 8.562736045
v 0.169090954 2.270682308 8.549377736
v 0.475649050 6.291274854 8.570775312
v 0.485649133 6.422428660 8.571473312
v 0.285985387 3.972805773 8.571040741
v -0.144509991 -1.313754498 8.569714694
v -0.581505824 -6.680141523 8.568368623
v -0.582243415 -6.681692920 8.568966066
v -0.582481848 -6.682194433 8.569159194
v -0.642969997 -6.809420870 8.618154134
v -0.643843330 -6.811257775 8.618861527
v -0.665270070 -6.856325248 8.636217023
v -0.846516107 -9.107540947 8.633622872
v -0.831139528 -9.108840705 8.618480175
v -0.836415730 -9.173564453 8.618469432
v -0.886258370 -9.169551607 8.667537951
v -0.891625046 -9.235433416 8.667523173
v -0.689977521 -9.251668117 8.469007495
v -0.679384324 -9.121668331 8.469033209
v -0.459527228 -6.423580467 8.469566891
v -0.483570292 -9.138220180 8.276197563
v 2.172541557 -9.362737097 5.660485903
v 4.796206099 -9.584511295 3.076728018
v 5.005545295 -6.077198822 3.152201047
v 4.788343105 -5.542644121 3.407340581
v 5.150119722 -4.999224238 3.096926054
v 4.927744842 -9.617975292 2.945404758
v 2.171335914 -9.377712110 5.660468646
v 2.162991075 -9.481361456 5.660349208
v 5.775701361 -9.772221821 2.103749006
v 7.265490013 8.732103387 2.125072162
v 5.531736284 -2.640541788 2.912136525
v 5.357276925 -3.718834165 2.996614680
v 0.812708813 9.189309350 8.472655123
v -5.356200156 6.999012203 2.789680162
v -5.441049142 5.945122294 2.790610825
v -5.588088597 0.335873349 3.094520718
v -5.700221575 0.109198540 3.002565747
v -5.842626309 -1.659578196 3.004127709
v -5.748822481 -1.790747470 3.106686734
v -6.070757043 -2.484430945 2.846111448
v -6.428634420 -8.407414358 2.968135417
v -6.099683696 -8.443038830 3.293877699
v -6.009144463 -8.757106545 3.407847886
v -3.671010008 -8.945350436 5.717985378
v -0.886258370 -9.169551607 8.469392233
v -0.325297990 -2.283150534 8.469724957
v -0.269925924 -2.178865734 8.515744208
v -0.102620575 0.450457826 8.469857035
v 0.610197951 9.201083417 8.470279831
v 0.615607164 9.267487407 8.470283039
v 0.459213210 9.280078730 8.315761757
v 0.454967797 9.213358736 8.316926176
v -2.192193608 9.422690921 5.701765029
v -2.186525922 9.493087963 5.701702863
v -4.947292857 9.715358120 2.973993517
v -4.896857150 7.703822853 3.184245325
v 0.488383734 6.458293691 8.569887982
v 0.285985387 3.972805773 8.569834040
v 0.485649133 6.422428660 8.570069743
v -0.581505854 -6.680141536 8.569602811
v -0.343280262 -4.373525043 8.619118357
v -0.343236579 -4.373763655 8.619180304
v -0.254538238 -3.285329409 8.619267653
v -0.237804230 -3.079983212 8.619284133
v -0.254393890 -3.283436253 8.619258059
v 0.762281661 9.192261360 8.421616942
v 0.767415953 9.255265236 8.421621374
v 0.717676895 9.259269743 8.470635841
v 0.716879475 9.259333943 8.471421644
v 0.716480765 9.259366043 8.471814546
v 0.488383734 6.458293691 8.471453913
v 0.485649173 6.422428698 8.471267203
v 0.475649050 6.291274854 8.470584593
v 0.169090954 2.270682308 8.449657715
v -0.373733977 -4.207176949 8.463821689
v -0.343280290 -4.373524996 8.420724373
v -0.343280262 -4.373525043 8.420724342
v -0.254393890 -3.283436253 8.420748951
v -0.237804230 -3.079983212 8.420753545
v -0.254538193 -3.285329367 8.420739057
v -0.339206534 -4.395777070 8.414959302
v -0.308124057 -4.565559665 8.370972146
v 0.812708813 9.189309350 8.372012871
v 0.762877732 9.192226466 8.421030600
v -0.483570335 -9.138220221 8.177603190
v -0.255061627 -5.993522144 8.204999642
v -0.459527228 -6.423580467 8.370831564
v -0.679384324 -9.121668331 8.370627421
v 5.150119722 -4.999224238 2.992704805
v 4.788343105 -5.542644121 3.303492703
v 5.005545295 -6.077198822 3.048166319
v 4.796206099 -9.584511295 2.973047735
v 2.172541557 -9.362737097 5.559332928
v 2.171335914 -9.377712110 5.559317486
v 4.927744842 -9.617975292 2.841598735
v 5.357276925 -3.718834165 2.892137623
v -2.192193608 9.422690921 5.803698368
v 0.454967778 9.213358707 8.417923433
v 0.459213210 9.280078730 8.416763396
v -2.186525922 9.493087963 5.803640397
v 0.661336635 9.197039472 8.621724623
v -0.642970040 -6.809420859 8.619576776
v -4.896857150 7.703822853 3.084120024
v -4.947292857 9.715358120 2.874003837
v -5.844290425 9.787575657 1.987458060
v -3.676314574 -9.011237245 5.617054319
v -0.891625046 -9.235433416 8.369296720
v -0.886258370 -9.169551607 8.369306648
v -3.671010008 -8.945350436 5.617002861
v -6.009144463 -8.757106545 3.306112287
v -6.099683649 -8.443038862 3.192136195
v -6.428634420 -8.407414358 2.866288605
v -6.070757043 -2.484430945 2.744830157
v -5.748822461 -1.790747490 3.005563593
v -5.842626309 -1.659578196 2.902983686
v -5.700221575 0.109198540 2.901602266
v -5.588088597 0.335873349 2.993611185
v -5.441049142 5.945122294 2.690173887
v -5.356200156 6.999012203 2.689350796
v -7.334079077 -8.716749551 2.001909990
v -0.836415730 -9.173564453 8.418568523
v -0.831139521 -9.108840720 8.418582076
v -0.846516107 -9.107540947 8.403379724
v -0.643843372 -6.811257798 8.419062839
v 0.661135113 9.197055408 8.422412907
v 0.610197951 9.201083417 8.372075089
v -0.102620575 0.450457826 8.370756376
v -0.269925924 -2.178865734 8.416389735
v -0.325297990 -2.283150534 8.370344423
v -0.665270070 -6.856325248 8.401621518
v 0.696989897 9.194220083 8.457845813
v 0.661336663 9.197039471 8.422612086
v -0.642969997 -6.809420870 8.419773771
v -0.582481868 -6.682194463 8.469011092
v 0.285985387 3.972805773 8.471127379
v -0.254538238 -3.285329409 8.519834526
v -0.339206534 -4.395777070 8.525350368
v -0.104629384 -5.677113723 8.281662561
v -0.195859125 -5.178787218 8.410675060
v -0.255061627 -5.993522144 8.403502790
v -0.679384292 -9.121668344 8.568630189
v -0.689977521 -9.251668117 8.568607274
v 2.162991075 -9.481361456 5.760310337
v 2.171335912 -9.377712136 5.760427557
v 2.172541557 -9.362737097 5.760444493
v -0.483570292 -9.138220180 8.375819401
v 5.531736284 -2.640541788 3.012301046
v 5.578082196 -0.686321551 3.123048573
v 5.357276925 -3.718834165 3.096791398
v 0.716480765 9.259366043 -8.273496412
v 0.666741707 9.263370549 -8.273496412
v 0.666542352 9.263386600 -8.273496412
v 0.615607164 9.267487407 -8.273496412
v 0.610197956 9.201083427 -8.273496412
v 0.661135091 9.197055399 -8.273496412
v -0.582481848 -6.682194433 -8.273496412
v -0.841786311 -9.239445947 8.618458497
v -0.891625046 -9.235433416 -8.273496412
v -0.841786311 -9.239445947 -8.273496412
v -0.840988891 -9.239510147 8.617673462
v -0.840988891 -9.239510147 -8.273496412
v -0.791249832 -9.243514654 8.568706916
v -0.791249832 -9.243514654 -8.273496412
v -0.791150155 -9.243522679 8.568608787
v -0.791150155 -9.243522679 -8.273496412
v -0.790253058 -9.243594904 8.567725623
v -0.790253058 -9.243594904 -8.273496412
v -0.740713354 -9.247583360 8.518955335
v -0.740713354 -9.247583360 -8.273496412
v -0.740414322 -9.247607436 8.518660947
v -0.740414322 -9.247607436 -8.273496412
v -0.689977521 -9.251668117 -8.273496412
v 2.162991075 -9.481361456 -8.273496412
v 5.775701361 -9.772221821 -8.273496412
v 7.265490013 8.732103387 -8.273496412
v 6.321843388 8.808076654 -8.273496412
v 3.652779727 9.022963752 5.681672363
v 3.652779727 9.022963752 -8.273496412
v 3.648792628 9.023284755 5.685597537
v 3.648792628 9.023284755 -8.273496412
v 0.817753076 9.251212580 -8.273496412
v 0.768014018 9.255217086 8.521633914
v 0.768014018 9.255217086 -8.273496412
v 0.767415953 9.255265236 -8.273496412
v -0.339206496 -4.395777090 -8.273496412
v -0.343236603 -4.373763672 -8.273496412
v -0.343280290 -4.373524996 8.519660965
v -5.748822481 -1.790747470 -8.273496412
v 0.459213210 9.280078730 -8.273496412
v 0.454967797 9.213358736 -8.273496412
v -2.186525922 9.493087963 -8.273496412
v -4.947292857 9.715358120 -8.273496412
v -0.582243435 -6.681692949 -8.273496412
v -0.581505854 -6.680141536 -8.273496412
v -0.343280290 -4.373524996 8.619118326
v 0.717676895 9.259269743 -8.273496412
v 0.716879475 9.259333943 -8.273496412
v 0.485649173 6.422428698 -8.273496412
v -0.343280290 -4.373524996 -8.273496412
v -0.254538193 -3.285329367 -8.273496412
v -0.483570335 -9.138220221 -8.273496412
v -2.192193606 9.422690948 -8.273496412
v -0.642970040 -6.809420859 -8.273496412
v -5.844290425 9.787575657 -8.273496412
v -7.334079077 -8.716749551 -8.273496412
v -3.676314574 -9.011237245 -8.273496412
v -6.099683649 -8.443038862 -8.273496412
v -0.643843372 -6.811257798 -8.273496412
v -0.836415758 -9.173564451 -8.273496412
v -0.831139521 -9.108840720 -8.273496412
v 0.661336663 9.197039471 -8.273496412
v 2.171335912 -9.377712136 -8.273496412
v -0.679384292 -9.121668344 -8.273496412
g roof
f 1 2 3
g roof
f 1 3 4
g roof
f 1 4 5
g roof
f 1 5 6
g roof
f 1 6 7 8
g roof
f 7 8 1
g roof
f 9 10 202 204 11
g roof
f 9 11 12
g roof
f 9 12 13
g roof
f 14 12 11
g roof
f 11 207 15 16
g roof
f 16 17 18
g roof
f 19 20 21
g roof
f 19 20 21 22
g roof
f 23 24 212 25
g roof
f 25 26 27
g roof
f 25 27 28
g roof
f 25 28 29
g roof
f 25 29 30
g roof
f 25 30 31
g roof
f 31 32 33
g roof
f 33 34 35
g roof
f 33 34 35 36
g roof
f 33 34 35 36 37
g roof
f 33 37 38
g roof
f 33 38 39
g roof
f 39 40 41
g roof
f 39 41 182 185 187 189 191 193 195 42
g roof
f 39 42 43
g roof
f 39 43 44
g roof
f 14 45 46
g roof
f 14 46 47
g roof
f 14 47 48
g roof
f 14 48 49
g roof
f 14 49 50
g roof
f 51 52 53
g roof
f 51 53 54
g roof
f 51 54 55
g roof
f 55 10 9
g roof
f 55 9 56
g roof
f 57 9 13
g roof
f 11 16 18
g roof
f 11 18 58
g roof
f 23 25 31
g roof
f 23 31 32 33
g roof
f 23 31 32 33 39
g roof
f 23 39 44 22
g roof
f 51 55 56
g roof
f 14 11 58 19
g roof
f 14 19 22 44
g roof
f 57 51 56
g roof
f 14 50 57
g roof
f 14 57 13
g roof
f 59 60 61
g roof
f 61 62 63
g roof
f 61 63 64
g roof
f 64 65 66
g roof
f 64 66 67
g roof
f 64 67 68
g roof
f 64 68 69
g roof
f 64 69 70
g roof
f 64 70 71
g roof
f 64 71 72
g roof
f 64 72 73
g roof
f 64 73 74
g roof
f 64 74 75
g roof
f 75 76 77
g roof
f 78 79 80
g roof
f 78 80 81
g roof
f 78 81 59
g roof
f 78 59 61
g roof
f 78 61 64
g roof
f 64 75 77
g roof
f 64 77 78
g roof
f 82 83 84
g roof
f 85 30 83
g roof
f 85 83 33
g roof
f 86 87 88
g roof
f 88 89 90
g roof
f 88 90 86 220
g roof
f 91 92 93
g roof
f 91 93 94
g roof
f 91 94 95
g roof
f 91 95 96
g roof
f 91 96 97
g roof
f 97 98 99
g roof
f 99 100 102 101
g roof
f 99 101 102
g roof
f 99 102 101 103
g roof
f 99 103 104
g roof
f 99 104 91
g roof
f 99 91 97 98
g roof
f 105 106 107
g roof
f 105 107 108
g roof
f 105 108 109
g roof
f 105 109 104
g roof
f 110 111 112
g roof
f 110 112 113
g roof
f 114 115 116
g roof
f 114 116 117
g roof
f 117 118 119
g roof
f 117 119 120
g roof
f 117 120 121
g roof
f 117 121 114
g roof
f 122 123 124
g roof
f 124 125 122
g roof
f 126 8 35
g roof
f 126 35 127
g roof
f 128 129 130
g roof
f 131 132 133
g roof
f 131 133 134
g roof
f 131 134 135
g roof
f 135 136 137
g roof
f 138 139 140
g roof
f 138 140 141
g roof
f 141 142 143
g roof
f 144 128 130
g roof
f 144 130 145
g roof
f 145 131 135
g roof
f 145 135 137
g roof
f 145 137 138
g roof
f 145 138 141
g roof
f 145 141 143
g roof
f 145 143 144
g roof
f 146 147 148
g roof
f 150 151 152
g roof
f 150 152 153
g roof
f 153 154 133
g roof
f 149 150 153
g roof
f 133 146 148
g roof
f 133 148 155
g roof
f 155 149 153
g roof
f 155 153 133
g roof
f 156 157 158
g roof
f 156 158 159
g roof
f 156 159 160
g roof
f 156 160 96
g roof
f 23 22 21
g roof
f 23 21 212 24
g roof
f 161 21 162
g roof
f 163 164 165
g roof
f 166 167 168
g roof
f 166 168 169
g roof
f 166 169 170 171
g roof
f 166 171 170
g roof
f 172 173 174
g roof_step_or_fixture_side
f 2 1 156 96 82
g roof_step_or_fixture_side
f 3 2 82 96 95
g facade_completed
f 4 3 95 175 176
g facade_completed
f 5 4 176 177
g facade_completed
f 6 5 177 178 75
g roof_step_or_fixture_side
f 7 6 75 74
g roof_step_or_fixture_side
f 8 7 74 151 150
g roof_step_or_fixture_side
f 1 126 157 156
g roof_step_or_fixture_side
f 27 26 99 98
g roof_step_or_fixture_side
f 28 27 98 97 84
g roof_step_or_fixture_side
f 29 28 84 83
g roof_step_or_fixture_side
f 30 29 83
g roof_step_or_fixture_side
f 30 85 31
g roof_step_or_fixture_side
f 85 32 31
g roof_step_or_fixture_side
f 34 33 159 158
g roof_step_or_fixture_side
f 127 35 34
g roof_step_or_fixture_side
f 36 35 149 155
g roof_step_or_fixture_side
f 37 36 155 148
g roof_step_or_fixture_side
f 38 37 148 147
g roof_step_or_fixture_side
f 39 38 147 146
g roof_step_or_fixture_side
f 40 39 146 133 70
g roof_step_or_fixture_side
f 41 40 70 133 132
g facade_completed
f 182 41 132 183 184
g facade_completed
f 185 182 184 186
g facade_completed
f 187 185 186 188
g facade_completed
f 189 187 188 190
g facade_completed
f 191 189 190 192
g facade_completed
f 193 191 192 194
g facade_completed
f 195 193 194 196
g facade_completed
f 42 195 196 197
g roof_step_or_fixture_side
f 167 166 43 42
g roof_step_or_fixture_side
f 44 43 113 112
g roof_step_or_fixture_side
f 14 44 112 111
g roof_step_or_fixture_side
f 45 14 111 110
g roof_step_or_fixture_side
f 171 170 46 45
g roof_step_or_fixture_side
f 47 46 118 117
g roof_step_or_fixture_side
f 48 47 117 116
g roof_step_or_fixture_side
f 49 48 116 115
g roof_step_or_fixture_side
f 50 49 115 114
g roof_step_or_fixture_side
f 57 50 114 121
g roof_step_or_fixture_side
f 51 57 121 120
g roof_step_or_fixture_side
f 52 51 120 119
g roof_step_or_fixture_side
f 169 168 53 52
g facade_completed
f 54 53 198 199
g facade_completed
f 55 54 199 200
g facade_completed
f 10 55 200 201
g facade_completed
f 202 10 201 203
g facade_completed
f 204 202 203 205
g facade_completed
f 11 204 205 206
g facade_completed
f 207 11 206 208
g facade_completed
f 15 207 208 209 92
g roof_step_or_fixture_side
f 16 15 92 91
g roof_step_or_fixture_side
f 17 16 91 104
g roof_step_or_fixture_side
f 18 17 104 109
g roof_step_or_fixture_side
f 58 18 109 108
g roof_step_or_fixture_side
f 19 58 108 107
g roof_step_or_fixture_side
f 20 19 107 106
g roof_step_or_fixture_side
f 162 21 20
g roof_step_or_fixture_side
f 25 212 24 101 100
g roof_step_or_fixture_side
f 26 25 100 99
g roof_step_or_fixture_side
f 172 174 57 56
g roof_step_or_fixture_side
f 174 173 9 57
g roof_step_or_fixture_side
f 173 172 56 9
g roof_step_or_fixture_side
f 163 165 14 13
g roof_step_or_fixture_side
f 165 164 12 14
g roof_step_or_fixture_side
f 164 163 13 12
g roof_step_or_fixture_side
f 62 61 142 141
g roof_step_or_fixture_side
f 63 62 141 140
g roof_step_or_fixture_side
f 64 63 140 139
g roof_step_or_fixture_side
f 65 64 139 138
g roof_step_or_fixture_side
f 66 65 138 137
g roof_step_or_fixture_side
f 67 66 137 136
g roof_step_or_fixture_side
f 68 67 136 135
g roof_step_or_fixture_side
f 69 68 135 134
g roof_step_or_fixture_side
f 70 69 134 133
g roof_step_or_fixture_side
f 71 70 133 154
g roof_step_or_fixture_side
f 72 71 154 153
g roof_step_or_fixture_side
f 73 72 153 152
g roof_step_or_fixture_side
f 74 73 152 151
g facade_completed
f 76 75 178 214
g roof_step_or_fixture_side
f 124 123 77 76
g roof_step_or_fixture_side
f 123 122 78 77
g roof_step_or_fixture_side
f 122 125 79 78
g facade_completed
f 80 79 216 217 129
g roof_step_or_fixture_side
f 81 80 129 128
g roof_step_or_fixture_side
f 59 81 128 144
g roof_step_or_fixture_side
f 60 59 144 143
g roof_step_or_fixture_side
f 61 60 143 142
g roof_step_or_fixture_side
f 82 84 97 96
g roof_step_or_fixture_side
f 83 82 96 160
g roof_step_or_fixture_side
f 33 83 160 159
g roof_step_or_fixture_side
f 89 88 161 105 104 17
g roof_step_or_fixture_side
f 90 89 17 104 103
g roof_step_or_fixture_side
f 86 220 90 103 101 24 212
g roof_step_or_fixture_side
f 87 86 220 212 24 21
g roof_step_or_fixture_side
f 88 87 21 161
g facade_completed
f 93 92 209 221
g facade_completed
f 94 93 221 222
g facade_completed
f 95 94 222 175
g roof_step_or_fixture_side
f 161 162 20 106 105
g roof_step_or_fixture_side
f 166 171 45 110 113 43
g roof_step_or_fixture_side
f 170 169 52 119 118 46
g facade_completed
f 125 124 76 214 216 79
g roof_step_or_fixture_side
f 126 127 34 158 157
g roof_step_or_fixture_side
f 35 8 150 149
g facade_completed
f 145 130 229 230
g facade_completed
f 131 145 230 231
g facade_completed
f 132 131 231 183
g facade_completed
f 130 129 217 229
g facade_completed
f 168 167 42 197 198 53
g ground_assumed
f 198 200 199
g ground_assumed
f 198 201 200
g ground_assumed
f 198 237 203 201
g ground_assumed
f 198 205 203 237
g ground_assumed
f 198 206 205
g ground_assumed
f 198 208 206
g ground_assumed
f 198 209 208
g ground_assumed
f 198 221 209
g ground_assumed
f 198 222 221
g ground_assumed
f 198 175 222
g ground_assumed
f 198 176 175
g ground_assumed
f 198 177 176
g ground_assumed
f 198 178 177
g ground_assumed
f 198 214 178
g ground_assumed
f 198 216 214
g ground_assumed
f 198 217 216
g ground_assumed
f 198 229 217
g ground_assumed
f 229 231 230
g ground_assumed
f 229 183 231
g ground_assumed
f 229 184 183
g ground_assumed
f 229 186 184
g ground_assumed
f 229 188 186
g ground_assumed
f 229 190 188
g ground_assumed
f 229 192 190
g ground_assumed
f 229 194 192
g ground_assumed
f 229 196 194
g ground_assumed
f 229 197 196
g ground_assumed
f 229 198 197
