# Source coordinates; no display transform
v 0.2790133392 0.43164977694 0.106091603789
v -0.105051845517 0.277162944025 0.426142196974
v -0.10213176562 0.269916251559 0.426159091475
v -0.101478091597 0.269957372146 0.425678908883
v -0.0553919606003 0.287749122437 0.387491301259
v -0.0708296302224 0.271885449407 0.403164821584
v 0.101969915146 0.348499358028 0.257099066819
v 0.134888150252 0.367747212415 0.227919779832
v 0.146763455241 0.365792098712 0.219982517777
v -0.102058106035 0.269733456218 0.426159516523
v -0.0383767712424 0.111697019092 0.426527951098
v 0.348679864066 0.161789269582 0.134709438822
v 0.342187045485 0.20774657841 0.125988346116
v 0.361834625034 0.154614654131 0.127374393888
v -0.039509588012 0.112503099359 0.427104834467
v -0.0434268696097 0.115290522248 0.429099698739
v 0.000713010282441 0.00579235743157 0.429342646313
v 0.00355048311499 -0.00124658485523 0.429358263862
v 0.00663439537775 -6.10833109895e-06 0.426788366883
v 0.0802286189974 -0.182643119341 0.427214152318
v 0.0463055370685 -0.0990251204535 0.427183181645
v 0.0443794820402 -0.102531419894 0.429582988162
v 0.0842463641392 -0.201429523702 0.429802416982
v 0.115298319025 -0.269745853381 0.427437739666
v 0.499052843216 -0.115383980954 0.107646027214
v 0.0539030258144 -0.134672196772 0.43211313149
v 0.0832193125594 -0.199169943097 0.429880629316
v 0.0442757361073 -0.102720284857 0.429712252493
v 0.0423982565619 -0.106138154761 0.432051535465
v 0.0422294029223 -0.106445545442 0.432261921984
v 0.0422180521697 -0.106466209035 0.432276064701
v 0.0415966696213 -0.107597408953 0.433050288641
v 0.0512843378782 -0.128910912156 0.432312550581
v 0.0524671975747 -0.131839232308 0.432317312478
v 0.0513044354663 -0.12895513208 0.432311021269
v 0.105457294291 -0.272060311362 0.43516015499
v 0.105647755484 -0.271980756117 0.435000582618
v 0.105841193606 -0.271899956822 0.43483851598
v -0.000825236286266 -0.00300667940829 0.433004654211
v -0.00271408566543 -0.00376645240809 0.434578677041
v -0.00274831794538 -0.00378022200623 0.434607203569
v -0.0808459156745 0.198715856732 0.431628899329
v -0.0494532543619 0.119578722429 0.432168617391
v -0.0489438393444 0.119216236241 0.431909199674
v -0.0486707549823 0.119021919799 0.431770131548
v -0.0808429621838 0.198821409052 0.431596072094
v 0.0248632014918 -0.305724423902 0.361826938513
v 0.0238802919166 -0.306517948431 0.360885400503
v 0.109331664222 -0.27214588765 0.432682515211
v 0.0539030258144 -0.134672196772 0.432532840339
v 0.0524659917927 -0.131836241505 0.432317386624
v 0.0415966696213 -0.107597408953 0.43149796101
v 0.0178222190598 -0.0460713297534 0.432177838917
v 0.0179150878148 -0.0461366653183 0.432226030544
v 0.0183211739748 -0.0464223562299 0.432436758132
v 0.0228230868589 -0.0495895601948 0.434772903818
v 0.0231231494093 -0.0498006556402 0.434928614827
v 0.0276186973105 -0.0529633815331 0.437261457661
v 0.0281141732847 -0.0533119611535 0.437518571392
v 0.00663439537775 -6.10833109895e-06 0.437469829121
v 0.00303592648942 -0.00145356073176 0.434446358871
v 0.00168234792783 0.00276868488847 0.434694067226
v 0.000713010282441 0.00579235743157 0.434871457755
v -0.0434268696097 0.115290522248 0.434758881434
v -0.0438812615115 0.115613851298 0.434524148548
v -0.0482701006877 0.118736827526 0.432256942539
v -0.100882842191 0.249226545497 0.432114869579
v -0.0975112915132 0.240727270533 0.432084115177
v -0.108173278083 0.267233722662 0.432073534634
v -0.108389894846 0.267148435196 0.431892067004
v -0.108656916442 0.267043296815 0.431668371918
v -0.110511140543 0.266313217644 0.43011501486
v -0.101443346305 0.240919756935 0.429295844955
v -0.100477241511 0.23821427093 0.429208567146
v -0.111648614875 0.265865352569 0.429162108133
v -0.114516086569 0.26473632174 0.426759914235
v -0.277772562852 0.200456141668 0.289993536391
v -0.294328871127 0.19299778079 0.275850680549
v -0.463825612025 0.116642119716 0.131061882448
v -0.402268271098 -0.0637111087867 0.123185741727
v -0.100477226895 0.238214229898 0.429208565817
v -0.0494532543619 0.119578722429 0.431645742486
v -0.0693094897829 0.169633910565 0.431826865804
v -0.0808595785456 0.198227573035 0.43178034115
v -0.0808459171096 0.1987158562 0.431932096827
v -0.0836334287614 0.205742842079 0.431957524762
v -0.356213887309 -0.101266975331 0.145586452198
v -0.360705163311 -0.147765205718 0.128827384775
v -0.00274831794538 -0.00378022200623 0.429586377703
v -0.0263035901873 0.0546216521693 0.429517037057
v -0.00271408566543 -0.00376645240809 0.429615139955
v -0.000825236286266 -0.00300667940829 0.431202170518
v 0.105841193606 -0.271899956822 0.430229187516
v 0.105647755643 -0.271980755745 0.430065790138
v 0.105457294663 -0.272060311947 0.429904907224
v 0.10252413326 -0.273285489295 0.427427261546
v -0.00571415164936 -0.00497320248964 0.427094453985
v -0.372366524178 -0.15245588529 0.119029390447
v -0.489485263421 0.117096934008 0.112633471747
v -0.294655116197 0.193808849059 0.275850356807
v -0.297109093502 0.199909610083 0.275847921538
v -0.499684419687 0.118425471945 0.105642066108
v -0.279644915671 -0.428608285949 0.105860424947
v -0.245861814948 -0.415019331653 0.134245330771
v -0.246090007931 -0.414687939129 0.134176558733
v -0.203148456568 -0.397838260005 0.170133530152
v -0.000893653222944 -0.316483049328 0.340070079134
v -0.0486707535472 0.119021917567 0.432049970542
v 0.0248632003225 -0.305724424858 0.356633314251
v -0.000893653222944 -0.316483049328 0.334850066341
v 0.0238802919166 -0.306517948431 0.355690711204
v -0.00571415164936 -0.00497320248964 0.421917873631
v 0.102524132888 -0.273285491421 0.422313206402
v 0.105457294291 -0.272060311362 0.424793858084
v -0.00274831794538 -0.00378022200623 0.424412828972
v 0.0183211739748 -0.0464223562299 0.427276859782
v 0.0178222190598 -0.0460713297534 0.427017515626
v 0.0422180521697 -0.106466209035 0.427129889017
v 0.0422294030286 -0.106445546877 0.427144117148
v 0.0423982560304 -0.106138156515 0.427355778438
v 0.0539030258144 -0.134672196772 0.4273934895
v 0.109331664222 -0.27214588765 0.42757517287
v 0.112216369254 -0.270985540508 0.430001880081
v 0.11227554266 -0.270961738513 0.430051658689
v 0.115298319025 -0.269745853381 0.432594516037
v 0.0842463641392 -0.201429523702 0.429963987988
v 0.0443794820402 -0.102531419894 0.429839290863
v 0.0463055370685 -0.0990251204535 0.432253644949
v 0.0276186973105 -0.0529633815331 0.432109476939
v 0.0231231485589 -0.0498006577131 0.429772804528
v 0.0228230888255 -0.0495895587065 0.429616841104
v -0.111648613653 0.265865355333 0.423925605158
v -0.100477224663 0.238214229101 0.423978522328
v -0.101443347793 0.24091975566 0.424065288506
v -0.110511141925 0.266313218228 0.424879670575
v -0.111524396693 0.265914260618 0.42402979235
v -0.127877998387 0.267981325428 0.412785853513
v -0.297109093502 0.199909610083 0.270423175997
v -0.294655116197 0.193808849059 0.270427026091
v -0.294328871978 0.192997782969 0.270427537934
v -0.277772566094 0.200456143263 0.284587438694
v -0.114516086569 0.26473632174 0.421520482219
v -0.114652735478 0.273301070728 0.423911372934
v -0.11750785378 0.272152624609 0.421509554973
v 0.00168234675851 0.00276868706766 0.42952578267
v 0.00303592648942 -0.00145356073176 0.429278722702
v 0.00333809232829 -0.00133201721088 0.429532914408
v 0.00355048311499 -0.00124658485523 0.429711584439
v 0.000713010282441 0.00579235743157 0.429702709244
v 0.0464375843819 -0.0987847283764 0.432417475773
v 0.0281141761017 -0.0533119624291 0.432365639374
v 0.0276186990645 -0.0529633857852 0.432620072013
v 0.0463055370685 -0.0990251204535 0.432582063626
v -0.00271408773832 -0.00376645320535 0.440107111431
v -0.0263035901873 0.0546216521693 0.440084921823
v -0.00274831794538 -0.00378022200623 0.440135679948
v 0.342187045485 0.20774657841 0.131119279975
v 0.348679864066 0.161789269582 0.139803777683
v 0.361834625034 0.154614654131 0.132444686632
v -0.0808595785456 0.198227573035 0.437544942543
v -0.0693094897829 0.169633910565 0.437557314804
v -0.0808459156745 0.198715856732 0.437393348179
v -0.0383767712424 0.111697019092 0.43217754393
v -0.10213176461 0.269916249645 0.431997188164
v -0.105668462341 0.269693755665 0.434600426241
v -0.100882842191 0.249226545497 0.437108564501
v -0.0482701028137 0.118736826197 0.437234736564
v -0.0438812607674 0.115613853796 0.434991284023
v -0.106083712358 0.269667634801 0.434906076336
v -0.10892075435 0.26948915808 0.43699432211
v 0.134888150252 0.367747212415 0.233457007351
v 0.101969915146 0.348499358028 0.262674780288
v 0.146763455241 0.365792098712 0.22550067384
v -0.108173278083 0.267233722662 0.426476507272
v -0.0975112915132 0.240727270533 0.426528629994
v -0.10088284235 0.249226543318 0.426478014685
v -0.10892075435 0.26948915808 0.426357343318
v -0.106083712358 0.269667634801 0.424267970904
v -0.105668463244 0.269693757897 0.423962155828
v -0.10213176562 0.269916251559 0.421357513344
v -0.105051845517 0.277162944025 0.421346970326
v -0.108173244279 0.275907388955 0.423953817351
v -0.108543078264 0.275758626472 0.424262685469
v -0.11101356919 0.274764893295 0.426325924582
v -0.111156571654 0.27470737182 0.4264453536
v -0.111398196513 0.274610180353 0.42664714742
v -0.111669408103 0.274501087862 0.426873650735
v -0.114524526405 0.273352641744 0.429258112686
v -0.114652735478 0.273301070728 0.42936518693
v -0.111648613653 0.265865355333 0.429370349799
v -0.111524398713 0.265914261149 0.429266919104
v -0.110511141925 0.266313218228 0.42842320022
v -0.108389895272 0.267148432379 0.426656880099
v 0.0463055401512 -0.0990251218354 0.422058665601
v 0.0802286189974 -0.182643119341 0.422015919499
v 0.0464375869332 -0.0987847294394 0.42189391803
v -0.101478090269 0.269957371933 0.420876107111
v -0.0708296302224 0.271885449407 0.398304693613
v -0.0553919606003 0.287749122437 0.382604080454
v -0.102058106035 0.269733456218 0.421357778142
v -0.245861814948 -0.415019331653 0.139440002106
v -0.203148456568 -0.397838260005 0.175296834998
v -0.246090007931 -0.414687939129 0.139371329141
v -0.463825612025 0.116642119716 0.136316320671
v -0.294328871127 0.19299778079 0.280979324772
v -0.294655115984 0.19380884858 0.280979087985
v -0.489485263421 0.117096934008 0.117905007986
v -0.372366524178 -0.15245588529 0.124266200794
v -0.360705163311 -0.147765205718 0.134055631604
v -0.356213887309 -0.101266975331 0.150804163503
v -0.402268271098 -0.0637111087867 0.128428191334
v -0.105668463244 0.269693757897 0.439590108268
v -0.106083709914 0.269667635758 0.439282437375
v -0.0438812607674 0.115613853796 0.439497723346
v -0.0434268717357 0.115290523099 0.439732201958
v -0.0836334083514 0.205742791427 0.436943105451
v -0.0808459156745 0.198715856732 0.436916951209
v -0.0808429621838 0.198821409052 0.436949737411
v 0.115322974624 -0.269735935896 0.427417193591
v 0.115298319025 -0.269745853381 -0.433481921942
v 0.115322974624 -0.269735935896 -0.433481921942
v 0.275209597976 -0.205422951922 0.294179892433
v 0.275209597976 -0.205422951922 -0.433481921942
v 0.290777142739 -0.199161044356 0.281207089571
v 0.290777142739 -0.199161044356 -0.433481921942
v 0.370005442044 -0.16729215977 0.215184275717
v 0.370005442044 -0.16729215977 -0.433481921942
v 0.398107892945 -0.155988196794 0.191765839421
v 0.398107892945 -0.155988196794 -0.433481921942
v 0.441649679377 -0.138473897267 0.155481439899
v 0.441649679377 -0.138473897267 -0.433481921942
v 0.453405468607 -0.133745234714 0.145685063008
v 0.453405468607 -0.133745234714 -0.433481921942
v 0.484525764689 -0.121227370093 0.119751784951
v 0.484525764689 -0.121227370093 -0.433481921942
v 0.499052843216 -0.115383980954 -0.433481921942
v 0.390529641486 0.15441236824 0.10687938754
v 0.390529641486 0.15441236824 -0.433481921942
v 0.2790133392 0.43164977694 -0.433481921942
v -0.105051845517 0.277162944025 -0.433481921942
v -0.102058106035 0.269733456218 0.431997395559
v -0.039509588012 0.112503099359 0.432756607763
v -0.039509588012 0.112503099359 -0.433481921942
v 0.00355048555994 -0.00124658389851 0.434878696646
v 0.00620454729849 -0.00017901095525 0.437108666391
v 0.00620454729849 -0.00017901095525 0.427146569479
v 0.00663439298596 -6.10934096657e-06 -0.433481921942
v 0.0281141732847 -0.0533119611535 0.426912641564
v 0.0464375843819 -0.0987847283764 0.427018653002
v 0.146763452637 0.365792099349 -0.433481921942
v 0.105647755484 -0.271980756117 -0.433481921942
v -0.0489438393444 0.119216236241 -0.433481921942
v -0.0486707549823 0.119021919799 -0.433481921942
v -0.0808429615459 0.198821409583 0.431964903918
v -0.0770695894857 -0.347124147811 0.276066280377
v -0.203148456568 -0.397838260005 -0.433481921942
v -0.0770695894857 -0.347124147811 -0.433481921942
v -0.000893653222944 -0.316483049328 -0.433481921942
v 0.103079004545 -0.27466096487 0.427428966734
v 0.0238802919166 -0.306517948431 -0.433481921942
v 0.103079004545 -0.27466096487 -0.433481921942
v 0.10602781406 -0.273474832245 0.429906586581
v 0.10602781406 -0.273474832245 -0.433481921942
v 0.106220127721 -0.273397475748 0.430068170503
v 0.106220127721 -0.273397475748 -0.433481921942
v 0.109075246024 -0.272249029629 0.43246707
v 0.109075246024 -0.272249029629 -0.433481921942
v 0.10916893729 -0.272211343124 0.43254579035
v 0.10916893729 -0.272211343124 -0.433481921942
v 0.109331664222 -0.27214588765 -0.433481921942
v 0.0422180530732 -0.106466210682 -0.433481921942
v 0.0179150878148 -0.0461366653183 0.427065786394
v 0.0179150878148 -0.0461366653183 -0.433481921942
v 0.0228230868589 -0.0495895601948 -0.433481921942
v 0.0231231494093 -0.0498006556402 -0.433481921942
v 0.0281141732847 -0.0533119611535 -0.433481921942
v 0.00620454729849 -0.00017901095525 -0.433481921942
v 0.00355048555994 -0.00124658389851 -0.433481921942
v 0.00333809238144 -0.00133201715773 0.434700241716
v 0.00333809238144 -0.00133201715773 -0.433481921942
v 0.0030359281371 -0.0014535600408 -0.433481921942
v 0.00168234792783 0.00276868488847 -0.433481921942
v -0.0438812615115 0.115613851298 -0.433481921942
v -0.0482701006877 0.118736827526 -0.433481921942
v -0.108389894846 0.267148435196 -0.433481921942
v -0.108656916442 0.267043296815 0.426879223131
v -0.108656916442 0.267043296815 -0.433481921942
v -0.110511140543 0.266313217644 -0.433481921942
v -0.100477226895 0.238214229898 -0.433481921942
v -0.372366521998 -0.152455884386 -0.433481921942
v -0.297109093502 0.199909610083 -0.433481921942
v -0.499684419687 0.118425471945 -0.433481921942
v -0.388168117349 -0.158811936756 0.105752730644
v -0.388168117349 -0.158811936756 -0.433481921942
v -0.279644915671 -0.428608285949 -0.433481921942
v -0.245861814948 -0.415019331653 -0.433481921942
v -0.000825237136681 -0.0030066797272 -0.433481921942
v 0.105457294663 -0.272060311947 -0.433481921942
v 0.10252413326 -0.273285489295 -0.433481921942
v -0.00274831959306 -0.00378022269719 -0.433481921942
v -0.0808459171096 0.1987158562 -0.433481921942
v 0.0248632003225 -0.305724424858 -0.433481921942
v 0.0422294030286 -0.106445546877 -0.433481921942
v 0.0423982560304 -0.106138156515 -0.433481921942
v 0.112216369254 -0.270985540508 -0.433481921942
v 0.11227554266 -0.270961738513 -0.433481921942
v -0.101443347793 0.24091975566 -0.433481921942
v -0.111524396693 0.265914260618 -0.433481921942
v -0.294328871978 0.192997782969 -0.433481921942
v -0.277772566094 0.200456143263 -0.433481921942
v -0.114652735478 0.273301070728 -0.433481921942
v -0.11750785378 0.272152624609 -0.433481921942
v -0.127877998387 0.267981325428 -0.433481921942
v 0.0276186967258 -0.0529633841375 -0.433481921942
v 0.0464375843819 -0.0987847283764 -0.433481921942
v -0.00271408773832 -0.00376645320535 -0.433481921942
v -0.0808595799275 0.198227574842 -0.433481921942
v -0.10566846266 0.269693755665 -0.433481921942
v -0.10088284235 0.249226543318 -0.433481921942
v -0.108173244279 0.275907388955 -0.433481921942
v -0.108543078264 0.275758626472 -0.433481921942
v -0.11101356919 0.274764893295 -0.433481921942
v -0.111156571654 0.27470737182 -0.433481921942
v -0.111398196513 0.274610180353 -0.433481921942
v -0.111669408103 0.274501087862 -0.433481921942
v -0.114524526405 0.273352641744 -0.433481921942
v 0.0463055401512 -0.0990251218354 -0.433481921942
v -0.294655115984 0.19380884858 -0.433481921942
v -0.0434268717357 0.115290523099 -0.433481921942
v -0.106083709914 0.269667635758 -0.433481921942
g roof
f 1 2 3
g roof
f 1 3 4
g roof
f 1 4 5
g roof
f 6 7 8
g roof
f 9 7 6
g roof
f 6 4 10
g roof
f 11 12 13
g roof
f 14 12 11
g roof
f 15 16 17
g roof
f 15 17 18
g roof
f 15 18 246 19
g roof
f 20 21 22
g roof
f 20 22 23
g roof
f 20 23 24
g roof
f 20 24 219 222 224 226 228 230 232 234 25
g roof
f 11 15 19
g roof
f 11 19 248 249 20 25
g roof
f 6 10 11
g roof
f 6 11 13
g roof
f 14 11 25
g roof
f 14 25 237 1
g roof
f 5 6 8
g roof
f 9 6 13
g roof
f 13 14 1
g roof
f 1 5 8
g roof
f 1 8 9
g roof
f 1 9 13
g roof
f 26 27 28
g roof
f 26 28 29
g roof
f 26 29 30
g roof
f 26 30 31
g roof
f 31 32 33
g roof
f 33 51 34 35
g roof
f 35 26 31
g roof
f 35 31 33
g roof
f 36 37 38
g roof
f 36 37 38 39
g roof
f 36 39 40
g roof
f 36 40 41
g roof
f 42 43 44
g roof
f 42 44 45
g roof
f 42 45 46
g roof
f 47 48 259 262 264 266 268 49
g roof
f 49 50 35
g roof
f 49 35 51 34
g roof
f 49 34 51
g roof
f 34 51 33
g roof
f 34 51 33 52
g roof
f 52 31 53
g roof
f 55 56 57
g roof
f 58 59 60
g roof
f 58 60 245 244 279 61
g roof
f 62 63 64
g roof
f 62 64 65
g roof
f 66 67 68
g roof
f 68 69 70
g roof
f 68 70 71
g roof
f 68 71 72
g roof
f 68 72 73
g roof
f 74 75 76
g roof
f 74 76 77
g roof
f 81 74 77 78
g roof
f 81 74 78 79
g roof
f 74 81 79 80
g roof
f 74 81 80
g roof
f 74 81 80 82
g roof
f 81 82 83
g roof
f 81 83 84
g roof
f 81 84 85
g roof
f 81 85 86
g roof
f 44 82 80
g roof
f 44 80 87
g roof
f 44 87 88
g roof
f 88 97 89 90
g roof
f 90 91 92
g roof
f 93 94 95
g roof
f 96 97 88 98
g roof
f 99 100 101
g roof
f 99 101 102
g roof
f 99 102 293 103
g roof
f 103 104 105
g roof
f 105 106 255 107
g roof
f 105 107 47
g roof
f 49 34 52
g roof
f 54 55 56 57
g roof
f 57 58 61
g roof
f 61 62 65
g roof
f 61 65 66
g roof
f 108 44 88
g roof
f 108 88 90
g roof
f 108 90 92
g roof
f 108 92 93
g roof
f 98 99 103
g roof
f 98 103 105
g roof
f 98 105 47
g roof
f 53 54 55 56 57
g roof
f 53 54 55 56 57 61
g roof
f 53 61 66
g roof
f 53 66 68
g roof
f 96 98 47
g roof
f 96 47 49
g roof
f 95 96 49
g roof
f 93 94 95 49
g roof
f 93 49 52
g roof
f 108 93 52
g roof
f 108 52 53
g roof
f 108 53 68
g roof
f 86 254 108 68
g roof
f 86 68 73
g roof
f 86 73 74 81
g roof
f 86 81 74
g roof
f 109 110 111
g roof
f 112 113 114
g roof
f 112 114 115
g roof
f 116 272 117 118
g roof
f 116 118 119
g roof
f 116 119 120
g roof
f 116 120 28
g roof
f 27 121 122
g roof
f 27 122 123
g roof
f 27 123 124
g roof
f 27 124 125
g roof
f 27 126 127
g roof
f 127 128 129
g roof
f 127 129 130
g roof
f 127 130 131
g roof
f 127 131 116
g roof
f 127 116 28
g roof
f 127 28 27
g roof
f 132 133 134
g roof
f 134 135 136
g roof
f 134 136 132
g roof
f 137 138 139
g roof
f 141 142 132
g roof
f 141 142 132 143
g roof
f 141 143 144
g roof
f 141 144 137
g roof
f 141 137 139
g roof
f 141 139 140
g roof
f 145 146 147
g roof
f 145 147 148
g roof
f 145 148 149
g roof
f 150 151 152
g roof
f 150 152 153
g roof
f 154 155 156
g roof
f 157 158 159
g roof
f 160 161 162
g roof
f 163 241 164 165
g roof
f 163 165 64 242
g roof
f 166 167 168
g roof
f 166 168 169
g roof
f 166 169 170
g roof
f 171 172 173
g roof
f 174 175 176
g roof
f 174 176 177
g roof
f 178 179 180
g roof
f 180 181 182
g roof
f 180 182 183
g roof
f 180 183 184
g roof
f 180 184 185
g roof
f 180 185 186
g roof
f 180 186 187
g roof
f 180 187 188
g roof
f 180 188 189
g roof
f 190 191 192
g roof
f 190 191 192 286 193
g roof
f 190 191 192 286 193 174
g roof
f 190 191 192 286 193 174 177
g roof
f 177 178 179 180
g roof
f 177 178 179 180 189
g roof
f 177 189 190
g roof
f 194 195 196
g roof
f 197 198 199
g roof
f 200 197 180
g roof
f 201 202 203
g roof
f 204 205 206
g roof
f 204 206 207
g roof
f 204 207 208
g roof
f 208 209 210
g roof
f 208 210 211
g roof
f 208 211 204
g roof
f 212 213 214
g roof
f 212 214 215
g roof
f 216 217 218
g roof_step_or_fixture_side
f 128 127 22 21
g roof_step_or_fixture_side
f 127 126 23 22
g roof_step_or_fixture_side
f 126 125 24 23
g facade_completed
f 219 24 220 221
g facade_completed
f 222 219 221 223
g facade_completed
f 224 222 223 225
g facade_completed
f 226 224 225 227
g facade_completed
f 228 226 227 229
g facade_completed
f 230 228 229 231
g facade_completed
f 232 230 231 233
g facade_completed
f 234 232 233 235
g facade_completed
f 25 234 235 236
g facade_completed
f 237 25 236 238
g facade_completed
f 1 237 238 239
g facade_completed
f 2 1 239 240 181
g roof_step_or_fixture_side
f 3 2 181 180
g roof_step_or_fixture_side
f 4 3 180 197
g roof_step_or_fixture_side
f 10 4 197 200
g roof_step_or_fixture_side
f 241 163 11 10
g roof_step_or_fixture_side
f 163 242 15 11
g roof_step_or_fixture_side
f 242 64 16 15
g roof_step_or_fixture_side
f 64 63 149 17 16
g roof_step_or_fixture_side
f 149 148 18 17
g roof_step_or_fixture_side
f 244 245 246 18 148
g roof_step_or_fixture_side
f 245 60 19 246
g roof_step_or_fixture_side
f 60 59 151 248 19
g roof_step_or_fixture_side
f 151 150 249 248
g roof_step_or_fixture_side
f 20 249 196 195
g roof_step_or_fixture_side
f 21 20 195 194
g roof_step_or_fixture_side
f 4 6 198 197
g roof_step_or_fixture_side
f 5 4 197 199
g roof_step_or_fixture_side
f 6 5 199 198
g roof_step_or_fixture_side
f 173 172 7 9
g roof_step_or_fixture_side
f 172 171 8 7
g roof_step_or_fixture_side
f 171 173 9 8
g roof_step_or_fixture_side
f 158 157 13 12
g roof_step_or_fixture_side
f 157 159 14 13
g roof_step_or_fixture_side
f 159 158 12 14
g roof_step_or_fixture_side
f 27 26 121
g roof_step_or_fixture_side
f 29 28 120
g roof_step_or_fixture_side
f 30 29 120 119
g roof_step_or_fixture_side
f 31 30 119 118
g roof_step_or_fixture_side
f 32 31 52
g roof_step_or_fixture_side
f 33 32 52
g roof_step_or_fixture_side
f 35 50 26
g roof_step_or_fixture_side
f 39 38 93 92
g roof_step_or_fixture_side
f 40 39 92 91
g roof_step_or_fixture_side
f 154 156 41 40
g roof_step_or_fixture_side
f 36 41 89 115 114 95
g roof_step_or_fixture_side
f 37 36 95 94
g roof_step_or_fixture_side
f 38 37 94 93
g roof_step_or_fixture_side
f 44 43 82
g roof_step_or_fixture_side
f 44 108 45
g roof_step_or_fixture_side
f 108 254 46 45
g roof_step_or_fixture_side
f 218 217 85 42 46 254
g roof_step_or_fixture_side
f 162 161 83 42 85 217
g roof_step_or_fixture_side
f 43 83 82
g facade_completed
f 255 106 256 257
g facade_completed
f 107 255 257 258 110
g roof_step_or_fixture_side
f 47 107 110 109
g roof_step_or_fixture_side
f 48 47 109 111
g facade_completed
f 259 48 111 260 261
g facade_completed
f 262 259 261 263
g facade_completed
f 264 262 263 265
g facade_completed
f 266 264 265 267
g facade_completed
f 268 266 267 269
g facade_completed
f 49 268 269 270 122
g roof_step_or_fixture_side
f 50 49 122 121 26
g roof_step_or_fixture_side
f 53 31 118 117
g roof_step_or_fixture_side
f 54 53 117 272
g roof_step_or_fixture_side
f 55 54 272 116
g roof_step_or_fixture_side
f 56 55 116 131
g roof_step_or_fixture_side
f 57 56 131 130
g roof_step_or_fixture_side
f 58 57 130 129 152
g roof_step_or_fixture_side
f 59 58 152 151
g roof_step_or_fixture_side
f 279 244 148 147
g roof_step_or_fixture_side
f 61 279 147 146
g roof_step_or_fixture_side
f 62 61 146 145
g roof_step_or_fixture_side
f 63 62 145 149
g roof_step_or_fixture_side
f 215 214 168 65 64
g roof_step_or_fixture_side
f 168 167 66 65
g roof_step_or_fixture_side
f 167 166 67 66
g roof_step_or_fixture_side
f 68 67 176 175
g roof_step_or_fixture_side
f 69 68 175 174
g roof_step_or_fixture_side
f 70 69 174 193
g roof_step_or_fixture_side
f 71 70 193 286
g roof_step_or_fixture_side
f 72 71 286 192
g roof_step_or_fixture_side
f 73 72 192 135 134
g roof_step_or_fixture_side
f 81 74 73 134 133
g roof_step_or_fixture_side
f 75 74 81 133 132
g roof_step_or_fixture_side
f 76 75 132 142
g roof_step_or_fixture_side
f 77 76 142 141
g roof_step_or_fixture_side
f 78 77 141 140
g roof_step_or_fixture_side
f 205 204 79 78
g roof_step_or_fixture_side
f 204 211 80 79
g roof_step_or_fixture_side
f 211 210 87 80
g roof_step_or_fixture_side
f 210 209 88 87
g roof_step_or_fixture_side
f 209 208 98 88
g roof_step_or_fixture_side
f 208 207 99 98
g roof_step_or_fixture_side
f 207 206 100 99
g roof_step_or_fixture_side
f 101 100 139 138
g facade_completed
f 102 101 138 291 292
g facade_completed
f 293 102 292 294
g facade_completed
f 103 293 294 295
g facade_completed
f 104 103 295 296
g roof_step_or_fixture_side
f 201 203 105 104
g roof_step_or_fixture_side
f 203 202 106 105
g roof_step_or_fixture_side
f 156 155 90 89 41
g roof_step_or_fixture_side
f 155 154 40 91 90
g roof_step_or_fixture_side
f 96 95 114 113
g roof_step_or_fixture_side
f 97 96 113 112
g roof_step_or_fixture_side
f 89 97 112 115
g roof_step_or_fixture_side
f 161 160 84 83
g roof_step_or_fixture_side
f 160 162 217 85 84
g roof_step_or_fixture_side
f 217 216 86 85
g roof_step_or_fixture_side
f 216 218 254 86
g facade_completed
f 111 110 258 260
g facade_completed
f 123 122 270 305
g facade_completed
f 124 123 305 306
g facade_completed
f 125 124 306 220 24
g roof_step_or_fixture_side
f 153 152 129 128
g roof_step_or_fixture_side
f 192 191 136 135
g roof_step_or_fixture_side
f 191 190 75 132 136
g roof_step_or_fixture_side
f 206 205 78 140 139 100
g roof_step_or_fixture_side
f 190 189 143 132 75
g facade_completed
f 144 143 311 312
g facade_completed
f 137 144 312 313
g facade_completed
f 138 137 313 291
g roof_step_or_fixture_side
f 150 153 128 21 194 196 249
g roof_step_or_fixture_side
f 164 241 10 200 180 3
g roof_step_or_fixture_side
f 165 164 3 180 179
g roof_step_or_fixture_side
f 212 215 64 165
g roof_step_or_fixture_side
f 214 213 169 168
g roof_step_or_fixture_side
f 170 169 178 177
g roof_step_or_fixture_side
f 166 170 177 176 67
g roof_step_or_fixture_side
f 213 212 165 179 178 169
g facade_completed
f 182 181 240 320
g facade_completed
f 183 182 320 321
g facade_completed
f 184 183 321 322
g facade_completed
f 185 184 322 323
g facade_completed
f 186 185 323 324
g facade_completed
f 187 186 324 325
g facade_completed
f 188 187 325 326
g facade_completed
f 189 188 326 311 143
g facade_completed
f 202 201 104 296 256 106
g ground_assumed
f 291 294 292
g ground_assumed
f 291 295 294
g ground_assumed
f 291 296 295
g ground_assumed
f 291 256 296
g ground_assumed
f 291 328 309 257 256
g ground_assumed
f 291 258 257 309 328
g ground_assumed
f 291 260 258
g ground_assumed
f 291 261 260
g ground_assumed
f 291 263 261
g ground_assumed
f 291 265 263
g ground_assumed
f 291 267 265
g ground_assumed
f 291 269 267
g ground_assumed
f 291 270 269
g ground_assumed
f 291 305 270
g ground_assumed
f 291 306 305
g ground_assumed
f 291 220 306
g ground_assumed
f 291 221 220
g ground_assumed
f 291 223 221
g ground_assumed
f 291 225 223
g ground_assumed
f 291 227 225
g ground_assumed
f 291 229 227
g ground_assumed
f 291 231 229
g ground_assumed
f 291 233 231
g ground_assumed
f 291 235 233
g ground_assumed
f 291 236 235
g ground_assumed
f 291 238 236
g ground_assumed
f 238 240 239
g ground_assumed
f 238 320 240
g ground_assumed
f 238 321 320
g ground_assumed
f 238 322 321
g ground_assumed
f 238 323 322
g ground_assumed
f 238 324 323
g ground_assumed
f 238 325 324
g ground_assumed
f 238 326 325
g ground_assumed
f 238 311 326
g ground_assumed
f 238 312 311
g ground_assumed
f 238 313 312
g ground_assumed
f 238 291 313
