# XYZ-only planar convex-roof baseline. Provisional base; no GT.
v -3.04180798 5.97630774 7.24420976
v -9.77730029 4.10263851 7.23615445
v -10.33707746 3.92350982 7.22952121
v -10.33707746 3.30331897 7.07153045
v -10.33665498 2.97040999 6.98669398
v -10.33581004 2.96280547 6.98469790
v -8.36116969 -4.24374461 5.01129171
v -7.40975975 -7.69239441 4.06648050
v -6.99108868 -8.22302091 3.90213755
v -6.84998258 -8.39412261 3.84871950
v -5.96701332 -8.22935801 3.82917716
v -4.87829955 -7.97629648 3.81779409
v 3.00843259 -5.82759712 3.81570663
v 8.92390416 -4.16305220 3.82761830
v 9.94248736 -3.66411120 3.88375781
v 10.33623251 -3.34345394 3.93801204
v 10.33665498 -3.25515701 3.96047584
v 10.33581004 -3.23868055 3.96473201
v 9.94037500 -1.79889144 4.35906112
v 8.92728395 1.86521976 5.36305738
v 8.36835173 3.84155000 5.90545852
v 7.40511254 7.19810061 6.82763201
v 6.95855823 8.27033792 7.13189041
v 6.81702966 8.38102593 7.16994779
v 6.39709117 8.39412261 7.20254070
v 5.85505789 8.37680120 7.23589093
v 3.88379733 7.89729397 7.25107392
v 1.91253677 7.35230337 7.24957532
v -3.04180798 5.97630774 -6.85899225
v -9.77730029 4.10263851 -6.85899225
v -10.33707746 3.92350982 -6.85899225
v -10.33707746 3.30331897 -6.85899225
v -10.33665498 2.97040999 -6.85899225
v -10.33581004 2.96280547 -6.85899225
v -8.36116969 -4.24374461 -6.85899225
v -7.40975975 -7.69239441 -6.85899225
v -6.99108868 -8.22302091 -6.85899225
v -6.84998258 -8.39412261 -6.85899225
v -5.96701332 -8.22935801 -6.85899225
v -4.87829955 -7.97629648 -6.85899225
v 3.00843259 -5.82759712 -6.85899225
v 8.92390416 -4.16305220 -6.85899225
v 9.94248736 -3.66411120 -6.85899225
v 10.33623251 -3.34345394 -6.85899225
v 10.33665498 -3.25515701 -6.85899225
v 10.33581004 -3.23868055 -6.85899225
v 9.94037500 -1.79889144 -6.85899225
v 8.92728395 1.86521976 -6.85899225
v 8.36835173 3.84155000 -6.85899225
v 7.40511254 7.19810061 -6.85899225
v 6.95855823 8.27033792 -6.85899225
v 6.81702966 8.38102593 -6.85899225
v 6.39709117 8.39412261 -6.85899225
v 5.85505789 8.37680120 -6.85899225
v 3.88379733 7.89729397 -6.85899225
v 1.91253677 7.35230337 -6.85899225
g roof
f 1 2 3 4 5 6 7 8 9 10 11 12 13 14 15 16 17 18 19 20 21 22 23 24 25 26 27 28
g wall
f 2 1 29 30
g wall
f 3 2 30 31
g wall
f 4 3 31 32
g wall
f 5 4 32 33
g wall
f 6 5 33 34
g wall
f 7 6 34 35
g wall
f 8 7 35 36
g wall
f 9 8 36 37
g wall
f 10 9 37 38
g wall
f 11 10 38 39
g wall
f 12 11 39 40
g wall
f 13 12 40 41
g wall
f 14 13 41 42
g wall
f 15 14 42 43
g wall
f 16 15 43 44
g wall
f 17 16 44 45
g wall
f 18 17 45 46
g wall
f 19 18 46 47
g wall
f 20 19 47 48
g wall
f 21 20 48 49
g wall
f 22 21 49 50
g wall
f 23 22 50 51
g wall
f 24 23 51 52
g wall
f 25 24 52 53
g wall
f 26 25 53 54
g wall
f 27 26 54 55
g wall
f 28 27 55 56
g wall
f 1 28 56 29
g ground_assumed
f 56 55 54 53 52 51 50 49 48 47 46 45 44 43 42 41 40 39 38 37 36 35 34 33 32 31 30 29
