# Source coordinates; no display transform
v -0.146669433439 0.291056235922 0.36478815056
v -0.477505706454 0.1990246937 0.364392487019
v -0.505001037771 0.190226187895 0.364066673211
v -0.505001037771 0.159763436261 0.356306427663
v -0.50498028625 0.14341149625 0.352139400183
v -0.504938784191 0.14303797477 0.352041356025
v -0.407947707092 -0.210935878963 0.25511089883
v -0.361216020056 -0.380327869074 0.208703330529
v -0.340651587637 -0.40639136756 0.200631075886
v -0.33372068874 -0.414795600855 0.198007269375
v -0.290350695023 -0.406702635459 0.197047381867
v -0.236874870322 -0.394272670495 0.196488264243
v 0.150508404334 -0.288732101911 0.196385731651
v 0.441066611109 -0.206972400875 0.196970813235
v 0.491097737883 -0.182465241888 0.199728293372
v 0.510437850223 -0.166715086156 0.202393171664
v 0.510458601253 -0.162378086588 0.203496556469
v 0.510417099194 -0.161568790049 0.20370561252
v 0.490993982244 -0.090848723696 0.223074408012
v 0.44123262082 0.0891263750091 0.272389048352
v 0.413778792054 0.186200456718 0.299030897734
v 0.366466071769 0.35106868652 0.344326538567
v 0.344532060591 0.403735214682 0.359271209343
v 0.337580410664 0.409172027169 0.361140525078
v 0.316953724665 0.409815314489 0.36274143506
v 0.290329943959 0.408964515399 0.364379543351
v 0.193504876571 0.385411911142 0.365125306778
v 0.0966798091821 0.358642871756 0.365051698018
v -0.146669433439 0.291056235922 -0.327937870912
v -0.477505706454 0.1990246937 -0.327937870912
v -0.505001037771 0.190226187895 -0.327937870912
v -0.505001037771 0.159763436261 -0.327937870912
v -0.50498028625 0.14341149625 -0.327937870912
v -0.504938784191 0.14303797477 -0.327937870912
v -0.407947707092 -0.210935878963 -0.327937870912
v -0.361216020056 -0.380327869074 -0.327937870912
v -0.340651587637 -0.40639136756 -0.327937870912
v -0.33372068874 -0.414795600855 -0.327937870912
v -0.290350695023 -0.406702635459 -0.327937870912
v -0.236874870322 -0.394272670495 -0.327937870912
v 0.150508404334 -0.288732101911 -0.327937870912
v 0.441066611109 -0.206972400875 -0.327937870912
v 0.491097737883 -0.182465241888 -0.327937870912
v 0.510437850223 -0.166715086156 -0.327937870912
v 0.510458601253 -0.162378086588 -0.327937870912
v 0.510417099194 -0.161568790049 -0.327937870912
v 0.490993982244 -0.090848723696 -0.327937870912
v 0.44123262082 0.0891263750091 -0.327937870912
v 0.413778792054 0.186200456718 -0.327937870912
v 0.366466071769 0.35106868652 -0.327937870912
v 0.344532060591 0.403735214682 -0.327937870912
v 0.337580410664 0.409172027169 -0.327937870912
v 0.316953724665 0.409815314489 -0.327937870912
v 0.290329943959 0.408964515399 -0.327937870912
v 0.193504876571 0.385411911142 -0.327937870912
v 0.0966798091821 0.358642871756 -0.327937870912
g roof
f 1 2 3 4 5 6 7 8 9 10 11 12 13 14 15 16 17 18 19 20 21 22 23 24 25 26 27 28
g wall
f 2 1 29 30
g wall
f 3 2 30 31
g wall
f 4 3 31 32
g wall
f 5 4 32 33
g wall
f 6 5 33 34
g wall
f 7 6 34 35
g wall
f 8 7 35 36
g wall
f 9 8 36 37
g wall
f 10 9 37 38
g wall
f 11 10 38 39
g wall
f 12 11 39 40
g wall
f 13 12 40 41
g wall
f 14 13 41 42
g wall
f 15 14 42 43
g wall
f 16 15 43 44
g wall
f 17 16 44 45
g wall
f 18 17 45 46
g wall
f 19 18 46 47
g wall
f 20 19 47 48
g wall
f 21 20 48 49
g wall
f 22 21 49 50
g wall
f 23 22 50 51
g wall
f 24 23 51 52
g wall
f 25 24 52 53
g wall
f 26 25 53 54
g wall
f 27 26 54 55
g wall
f 28 27 55 56
g wall
f 1 28 56 29
g ground_assumed
f 56 55 54 53 52 51 50 49 48 47 46 45 44 43 42 41 40 39 38 37 36 35 34 33 32 31 30 29
