# Source coordinates; no display transform
v -0.348668769312 -0.427412398763 0.195834611968
v 0.517867859346 -0.186733127516 0.19677602803
v 0.347065227535 0.428221105914 0.365332395147
v -0.519471401123 0.187541834667 0.364390978594
v -0.348668769312 -0.427412398763 -0.327937870912
v 0.517867859346 -0.186733127516 -0.327937870912
v 0.347065227535 0.428221105914 -0.327937870912
v -0.519471401123 0.187541834667 -0.327937870912
g roof
f 1 2 3 4
g wall
f 2 1 5 6
g wall
f 3 2 6 7
g wall
f 4 3 7 8
g wall
f 1 4 8 5
g ground_assumed
f 8 7 6 5
