# Source coordinates; no display transform
v 2679278 1250851.75 452.016690217
v 2679278.25 1250853.125 452.025136804
v 2679279.25 1250858.875 452.060219848
v 2679279.25 1250860.625 452.069296746
v 2679277.75 1250861.25 452.064650089
v 2679273.75 1250862.125 452.048152768
v 2679270.25 1250862.75 452.032988227
v 2679269.5 1250862.875 452.02969237
v 2679268 1250863 452.022452311
v 2679267.25 1250861.125 452.008782854
v 2679266 1250854.125 451.965901573
v 2679266 1250853.875 451.964604873
v 2679266.5 1250853.75 451.96658599
v 2679270.5 1250853 451.983731655
v 2679276.25 1250852 452.008783768
v 2679278 1250851.75 446.444203341
v 2679278.25 1250853.125 446.444203341
v 2679279.25 1250858.875 446.444203341
v 2679279.25 1250860.625 446.444203341
v 2679277.75 1250861.25 446.444203341
v 2679273.75 1250862.125 446.444203341
v 2679270.25 1250862.75 446.444203341
v 2679269.5 1250862.875 446.444203341
v 2679268 1250863 446.444203341
v 2679267.25 1250861.125 446.444203341
v 2679266 1250854.125 446.444203341
v 2679266 1250853.875 446.444203341
v 2679266.5 1250853.75 446.444203341
v 2679270.5 1250853 446.444203341
v 2679276.25 1250852 446.444203341
g roof
f 1 2 3 4 5 6 7 8 9 10 11 12 13 14 15
g wall
f 2 1 16 17
g wall
f 3 2 17 18
g wall
f 4 3 18 19
g wall
f 5 4 19 20
g wall
f 6 5 20 21
g wall
f 7 6 21 22
g wall
f 8 7 22 23
g wall
f 9 8 23 24
g wall
f 10 9 24 25
g wall
f 11 10 25 26
g wall
f 12 11 26 27
g wall
f 13 12 27 28
g wall
f 14 13 28 29
g wall
f 15 14 29 30
g wall
f 1 15 30 16
g ground_assumed
f 30 29 28 27 26 25 24 23 22 21 20 19 18 17 16
