v 2679278.0000000028 1250851.7499999998 452.01669021691583
v 2679278.25 1250853.1249999972 452.02513680424482
v 2679279.2500000014 1250858.8750000021 452.06021984805562
v 2679279.2500000014 1250860.6250000014 452.06929674632147
v 2679277.7499999995 1250861.2500000007 452.06465008852581
v 2679273.75 1250862.1249999974 452.04815276810166
v 2679270.2500000014 1250862.7500000028 452.03298822706097
v 2679269.4999999972 1250862.8750000016 452.02969236962485
v 2679268.0000000014 1250863.0000000002 452.02245231057219
v 2679267.2499999972 1250861.1250000021 452.00878285424176
v 2679265.9999999986 1250854.1249999986 451.96590157341626
v 2679265.9999999986 1250853.8750000012 451.96460487278773
v 2679266.4999999991 1250853.7500000026 451.96658599021788
v 2679270.4999999986 1250852.9999999986 451.98373165482246
v 2679276.2499999972 1250851.9999999972 452.0087837681715
v 2679278.0000000028 1250851.7499999998 446.44420334128773
v 2679278.25 1250853.1249999972 446.44420334128773
v 2679279.2500000014 1250858.8750000021 446.44420334128773
v 2679279.2500000014 1250860.6250000014 446.44420334128773
v 2679277.7499999995 1250861.2500000007 446.44420334128773
v 2679273.75 1250862.1249999974 446.44420334128773
v 2679270.2500000014 1250862.7500000028 446.44420334128773
v 2679269.4999999972 1250862.8750000016 446.44420334128773
v 2679268.0000000014 1250863.0000000002 446.44420334128773
v 2679267.2499999972 1250861.1250000021 446.44420334128773
v 2679265.9999999986 1250854.1249999986 446.44420334128773
v 2679265.9999999986 1250853.8750000012 446.44420334128773
v 2679266.4999999991 1250853.7500000026 446.44420334128773
v 2679270.4999999986 1250852.9999999986 446.44420334128773
v 2679276.2499999972 1250851.9999999972 446.44420334128773
l 1 2
l 2 3
l 3 4
l 4 5
l 5 6
l 6 7
l 7 8
l 8 9
l 9 10
l 10 11
l 11 12
l 12 13
l 13 14
l 14 15
l 1 15
l 1 16
l 16 17
l 17 18
l 18 19
l 4 19
l 19 20
l 5 20
l 20 21
l 21 22
l 22 23
l 23 24
l 9 24
l 24 25
l 10 25
l 25 26
l 11 26
l 26 27
l 12 27
l 27 28
l 28 29
l 29 30
l 16 30
