# Source coordinates; no display transform
v -0.114122004044 -0.502508559761 0.204277758677
v 0.204835441101 -0.443812451878 0.204022406252
v 0.244588079102 -0.436300747691 0.203990618361
v 0.287862483297 -0.42551184419 0.203956515925
v 0.277101530309 -0.344867584503 0.203980996681
v 0.179106980763 0.181468800277 0.204163979621
v 0.146258122997 0.35185521613 0.204224156123
v 0.115407728301 0.498986793422 0.204278197187
v 0.0592062049755 0.49190133465 0.204323816706
v -0.138564740406 0.455369994937 0.204482122714
v -0.220941932677 0.440032143197 0.204548038593
v -0.29292851635 0.423492418606 0.204605037954
v -0.292984417787 0.404465096776 0.204601430958
v -0.286192439187 0.361707777264 0.20458754328
v -0.147550834836 -0.388044161699 0.20432768211
v -0.136049193066 -0.445182027803 0.20430709602
v -0.123506393788 -0.498868003788 0.204286302626
v -0.121270351572 -0.502613374491 0.204283714012
v -0.114122004044 -0.502508559761 -0.202561777854
v 0.204835441101 -0.443812451878 -0.202561777854
v 0.244588079102 -0.436300747691 -0.202561777854
v 0.287862483297 -0.42551184419 -0.202561777854
v 0.277101530309 -0.344867584503 -0.202561777854
v 0.179106980763 0.181468800277 -0.202561777854
v 0.146258122997 0.35185521613 -0.202561777854
v 0.115407728301 0.498986793422 -0.202561777854
v 0.0592062049755 0.49190133465 -0.202561777854
v -0.138564740406 0.455369994937 -0.202561777854
v -0.220941932677 0.440032143197 -0.202561777854
v -0.29292851635 0.423492418606 -0.202561777854
v -0.292984417787 0.404465096776 -0.202561777854
v -0.286192439187 0.361707777264 -0.202561777854
v -0.147550834836 -0.388044161699 -0.202561777854
v -0.136049193066 -0.445182027803 -0.202561777854
v -0.123506393788 -0.498868003788 -0.202561777854
v -0.121270351572 -0.502613374491 -0.202561777854
g roof
f 1 2 3 4 5 6 7 8 9 10 11 12 13 14 15 16 17 18
g wall
f 2 1 19 20
g wall
f 3 2 20 21
g wall
f 4 3 21 22
g wall
f 5 4 22 23
g wall
f 6 5 23 24
g wall
f 7 6 24 25
g wall
f 8 7 25 26
g wall
f 9 8 26 27
g wall
f 10 9 27 28
g wall
f 11 10 28 29
g wall
f 12 11 29 30
g wall
f 13 12 30 31
g wall
f 14 13 31 32
g wall
f 15 14 32 33
g wall
f 16 15 33 34
g wall
f 17 16 34 35
g wall
f 18 17 35 36
g wall
f 1 18 36 19
g ground_assumed
f 36 35 34 33 32 31 30 29 28 27 26 25 24 23 22 21 20 19
