v -0.11412200404382916 -0.50250855976124831 0.20427775867672568
v 0.20483544110055749 -0.44381245187787832 0.20402240625208884
v 0.24458807910232702 -0.43630074769085908 0.20399061836063834
v 0.28786248329684772 -0.42551184419029248 0.20395651592493289
v 0.27710153030853668 -0.34486758450323413 0.20398099668147587
v 0.17910698076271941 0.1814688002771857 0.20416397962115188
v 0.14625812299730767 0.35185521613006576 0.20422415612324532
v 0.11540772830064563 0.49898679342220403 0.20427819718724693
v 0.059206204975530217 0.49190133465011737 0.20432381670614419
v -0.13856474040577213 0.45536999493738395 0.20448212271351773
v -0.22094193267695039 0.44003214319743555 0.20454803859297843
v -0.29292851635023887 0.42349241860622527 0.20460503795446264
v -0.29298441778688422 0.4044650967757239 0.20460143095814506
v -0.28619243918741522 0.36170777726400027 0.20458754328048129
v -0.14755083483551273 -0.38804416169879291 0.20432768211044749
v -0.13604919306635935 -0.44518202780267441 0.20430709601971817
v -0.12350639378838059 -0.49886800378837703 0.20428630262561276
v -0.12127035157152458 -0.5026133744913075 0.20428371401228201
v -0.11412200404382916 -0.50250855976124831 -0.2025617778538564
v 0.20483544110055749 -0.44381245187787832 -0.2025617778538564
v 0.24458807910232702 -0.43630074769085908 -0.2025617778538564
v 0.28786248329684772 -0.42551184419029248 -0.2025617778538564
v 0.27710153030853668 -0.34486758450323413 -0.2025617778538564
v 0.17910698076271941 0.1814688002771857 -0.2025617778538564
v 0.14625812299730767 0.35185521613006576 -0.2025617778538564
v 0.11540772830064563 0.49898679342220403 -0.2025617778538564
v 0.059206204975530217 0.49190133465011737 -0.2025617778538564
v -0.13856474040577213 0.45536999493738395 -0.2025617778538564
v -0.22094193267695039 0.44003214319743555 -0.2025617778538564
v -0.29292851635023887 0.42349241860622527 -0.2025617778538564
v -0.29298441778688422 0.4044650967757239 -0.2025617778538564
v -0.28619243918741522 0.36170777726400027 -0.2025617778538564
v -0.14755083483551273 -0.38804416169879291 -0.2025617778538564
v -0.13604919306635935 -0.44518202780267441 -0.2025617778538564
v -0.12350639378838059 -0.49886800378837703 -0.2025617778538564
v -0.12127035157152458 -0.5026133744913075 -0.2025617778538564
l 1 2
l 2 3
l 3 4
l 4 5
l 5 6
l 6 7
l 7 8
l 8 9
l 9 10
l 10 11
l 11 12
l 12 13
l 13 14
l 14 15
l 15 16
l 16 17
l 17 18
l 1 18
l 19 20
l 20 21
l 21 22
l 4 22
l 22 23
l 23 24
l 24 25
l 25 26
l 8 26
l 26 27
l 27 28
l 28 29
l 29 30
l 12 30
l 30 31
l 31 32
l 32 33
l 33 34
l 34 35
l 17 35
l 35 36
l 18 36
l 19 36
