# Source coordinates; no display transform
v 2685644.6235 1251070.08742 436.429960834
v 2685644.7551 1251069.89978 436.430319497
v 2685644.95778 1251069.85792 436.430443838
v 2685644.99013 1251070.0146 436.430180748
v 2685645.03205 1251070.21758 436.42983991
v 2685644.7551 1251070.27478 436.429670001
v 2685644.50003 1251070.62501 436.428998147
v 2685644.14995 1251070.44345 436.42922306
v 2685643.99785 1251070.36457 436.429320778
v 2685644.50217 1251070.26042 436.429630177
v 2685642.5341 1251070.74731 436.428283435
v 2685642.96964 1251070.66542 436.428536689
v 2685643.01239 1251070.87243 436.428189067
v 2685641.74998 1251071.49999 436.426779218
v 2685641.75001 1251071 436.427645204
v 2685642.24998 1251071.25 436.427340093
v 2685642.4112 1251071.31994 436.427260192
v 2685643.43216 1251071.1091 436.427886547
v 2685643.54734 1251071.66683 436.426950004
v 2685644.02692 1251071.56779 436.427244224
v 2685643.94833 1251071.18728 436.427883168
v 2685644.69239 1251071.03362 436.428339646
v 2685644.79558 1251071.53329 436.427500607
v 2685644.59754 1251071.5744 436.427378745
v 2685644.58097 1251071.49417 436.427513469
v 2685643.91553 1251071.71594 436.426959143
v 2685643.92983 1251071.78521 436.426842817
v 2685642.55996 1251072.04027 436.426050639
v 2685642.55144 1251071.99902 436.426119909
v 2685643.89882 1251071.63505 436.42709497
v 2685645.07034 1251070.98546 436.428519726
v 2685645.46284 1251071.13268 436.428365155
v 2685645.51475 1251071.38403 436.427943092
v 2685645.16754 1251071.4561 436.427729439
v 2685649.32034 1251068.86046 436.433287404
v 2685649.37876 1251069.14332 436.432812435
v 2685649.30831 1251069.15729 436.432770216
v 2685649.14371 1251068.36026 436.434108558
v 2685649.50725 1251068.28518 436.434331593
v 2685649.74374 1251067.76379 436.435295137
v 2685651.63501 1251067.40379 436.436402454
v 2685651.65878 1251067.51886 436.436209227
v 2685653.4233 1251067.83922 436.436105738
v 2685653.6386 1251068.27299 436.435409518
v 2685653.64348 1251068.29662 436.435369838
v 2685653.71538 1251068.64477 436.434785241
v 2685653.86143 1251069.35196 436.433597733
v 2685653.93811 1251069.76277 436.432905829
v 2685653.96975 1251069.91596 436.432648589
v 2685652.71633 1251070.14934 436.43192375
v 2685652.66488 1251069.90021 436.432342082
v 2685652.63861 1251069.77302 436.432555658
v 2685652.49999 1251069.49999 436.432993093
v 2685653.07427 1251068.98465 436.434032571
v 2685653.03066 1251068.77349 436.434387144
v 2685652.96019 1251068.43226 436.434960126
v 2685652.92572 1251068.26533 436.435240427
v 2685652.78713 1251067.86731 436.435894354
v 2685652.71286 1251067.50765 436.436498283
v 2685652.2005 1251067.38525 436.436579229
v 2685652.3068 1251067.89996 436.435714924
v 2685651.99274 1251067.96483 436.435522247
v 2685651.26452 1251067.94538 436.435369646
v 2685650.73546 1251068.05464 436.435045069
v 2685650.48975 1251068.45048 436.434296621
v 2685649.97306 1251068.55719 436.433979634
v 2685650.03711 1251068.86731 436.43345888
v 2685649.49999 1251068.62499 436.433741193
v 2685652.02692 1251067.44284 436.436435081
v 2685653.26913 1251067.09274 436.43735921
v 2685652.00433 1251067.33347 436.436618726
v 2685652 1251069.75002 436.432432133
v 2685652.00001 1251069.50001 436.432865169
v 2685647.94968 1251070.56881 436.429977908
v 2685648.01106 1251070.86601 436.429478859
v 2685646.04543 1251071.27391 436.428269575
v 2685646.24998 1251070.62502 436.429445769
v 2685646.76316 1251070.81386 436.429249979
v 2685648.80449 1251070.70136 436.429966996
v 2685648.49049 1251070.76652 436.429773811
v 2685648.45262 1251070.58314 436.430081753
v 2685648.04737 1251070.66683 436.429833131
v 2685647.97821 1251070.33196 436.43039543
v 2685648.69753 1251070.18341 436.430836728
v 2685649.7375 1251070.56506 436.430441738
v 2685649.72615 1251070.51009 436.430534043
v 2685651.94566 1251070.04948 436.431899566
v 2685651.99405 1251070.28382 436.431506075
v 2685650.15969 1251070.62533 436.430445347
v 2685650.13048 1251070.4839 436.430682832
v 2685643.24706 1251070.36069 437.380587673
v 2685643.49999 1251070.12498 437.497743945
v 2685643.6231 1251070.28603 437.378661275
v 2685643.24686 1251070.36073 437.380587679
v 2685648.83955 1251070.87112 436.31692456
v 2685648.52422 1251070.92982 436.321034649
v 2685647.32308 1251071.41152 436.171864898
v 2685647.29738 1251071.41683 436.171865594
v 2685647.2932 1251071.39658 436.185347031
v 2685652.14934 1251071.03575 435.775195036
v 2685652.72307 1251070.93222 435.76563163
v 2685652.79735 1251071.29187 435.526159629
v 2685654.18332 1251070.67708 435.7359399
v 2685654.32428 1251071.35963 435.281470925
v 2685653.27097 1251071.35163 435.425524358
v 2685651.03875 1251071.81263 435.425584804
v 2685650.91766 1251071.22626 435.81600855
v 2685650.17355 1251071.37994 435.8160287
v 2685650.32641 1251072.12011 435.323199827
v 2685649.74787 1251072.23959 435.323215493
v 2685649.00002 1251071.875 435.65468803
v 2685648.74998 1251072.37502 435.368359562
v 2685648.25213 1251072.26041 435.507220588
v 2685647.72307 1251072.36967 435.507234914
v 2685647.7769 1251072.63032 435.333690836
v 2685647.24784 1251072.73958 435.333705162
v 2685646.76024 1251072.79953 435.359739673
v 2685647.31403 1251072.62267 435.399630739
v 2685646.53715 1251072.36731 435.665176692
v 2685646.75001 1251072.75 435.392720444
v 2685646.49702 1251072.61067 435.515067783
v 2685645.75296 1251072.76433 435.515087931
v 2685645.49999 1251073.12503 435.318119536
v 2685645.25217 1251072.76041 435.583651163
v 2685644.72306 1251072.86968 435.583665491
v 2685644.77473 1251073.11987 435.417080657
v 2685644.24998 1251072.87499 435.642680102
v 2685643.20048 1251072.8852 435.774596879
v 2685643.2944 1251073.33999 435.47178566
v 2685643.12889 1251073.37417 435.471790142
v 2685642.8697 1251072.11913 436.30743749
v 2685644.83879 1251072.74254 435.649589726
v 2685644.61475 1251071.65771 436.371905596
v 2685645.53586 1251071.48623 436.359912197
v 2685645.54735 1251071.54187 436.322863461
v 2685645.98976 1251071.4505 436.322851481
v 2685648.04275 1251071.01946 436.327300869
v 2685647.72742 1251071.07816 436.331410958
v 2685647.70263 1251070.95814 436.41132461
v 2685647.2231 1251071.05717 436.411337595
v 2685647.25 1251071.37502 436.204813752
v 2685647.25002 1251071.875 435.885531638
v 2685648.99998 1251071.62499 435.814345897
v 2685649.5 1251071.87498 435.588747122
v 2685647.75001 1251071.62501 435.979214977
v 2685647.54616 1251071.52308 436.07120074
v 2685649.52998 1251071.2702 435.970997297
v 2685650.29439 1251071.27754 435.865479359
v 2685650.15969 1251070.62533 436.29974299
v 2685650.96069 1251070.55977 436.235945563
v 2685651.04735 1251070.97937 435.956567166
v 2685651.5393 1251070.87777 435.956553844
v 2685651.45264 1251070.45818 436.235932242
v 2685651.99405 1251070.28382 436.275857262
v 2685647.15013 1251071.82903 435.928062707
v 2685646.45561 1251071.97246 435.928081514
v 2685643.49998 1251072.5 435.981078264
v 2685643.96983 1251071.9789 436.251868682
v 2685653.20265 1251070.83317 435.765618643
v 2685652.86871 1251070.88719 435.775175556
v 2685652.86015 1251070.84573 435.8027772
v 2685643.93813 1251072.63778 435.835293288
v 2685644.15664 1251072.88342 435.649608198
v 2685653.27693 1251071.19283 435.526146642
v 2685644.06192 1251073.23723 435.43616208
v 2685649.5627 1251071.42865 435.865499173
v 2685649.49998 1251071.375 435.908029235
v 2685649.00002 1251066.24999 435.279860812
v 2685649.08723 1251066.29857 435.32539447
v 2685648.97095 1251066.32259 435.32663859
v 2685651.97957 1251065.90098 435.433812952
v 2685651.94619 1251065.73935 435.316589001
v 2685651.99998 1251065.74999 435.331184077
v 2685652.7893 1251066.19025 435.74365806
v 2685652.72525 1251065.88012 435.518731627
v 2685653.07667 1251066.1608 435.761447639
v 2685651.91765 1251066.91373 436.132174583
v 2685651.99998 1251066.87498 436.11612308
v 2685652.23549 1251066.92963 436.185672776
v 2685652.6873 1251066.32139 435.821557269
v 2685651.99272 1251066.46484 435.828988501
v 2685652.04519 1251066.34392 435.751619245
v 2685652.78929 1251066.81526 436.17974767
v 2685648.39288 1251067.10636 435.796388883
v 2685647.57843 1251067.27456 435.80510259
v 2685645.50001 1251067.62499 435.772350937
v 2685645.25002 1251068.12501 436.087877201
v 2685644.79951 1251068.11475 436.02062775
v 2685644.69321 1251067.60003 435.64731286
v 2685645.04439 1251067.52751 435.643555648
v 2685644.94401 1251067.04147 435.291041508
v 2685645.33059 1251067.16 435.425313975
v 2685645.42235 1251067.60434 435.747579134
v 2685645.70262 1251067.08317 435.421333652
v 2685646.51882 1251066.71624 435.274192666
v 2685646.99276 1251066.71481 435.336416134
v 2685647.25729 1251066.66017 435.333585934
v 2685647.49274 1251066.71484 435.403136171
v 2685647.75727 1251066.66021 435.400305972
v 2685648.76667 1251066.51829 435.435936477
v 2685648.73626 1251066.37105 435.329149521
v 2685648.74999 1251066.87499 435.682590674
v 2685649.55168 1251066.93769 435.833285969
v 2685649.46287 1251066.50765 435.521384564
v 2685650.46073 1251066.43477 435.603642013
v 2685650.52478 1251066.74489 435.828568447
v 2685651.01453 1251066.32039 435.597716908
v 2685650.47658 1251066.01164 435.310529846
v 2685650.76025 1251065.92452 435.287585796
v 2685651.30623 1251065.81177 435.281744424
v 2685649.74998 1251067.75003 436.426526474
v 2685649.53715 1251067.6173 436.305528906
v 2685649.42493 1251067.0739 435.911413264
v 2685650.49999 1251067.12501 436.090480028
v 2685651 1251067.375 436.33160618
v 2685650.99998 1251066.87502 435.982756788
v 2685648.70557 1251067.22247 435.919109743
v 2685648.83233 1251067.83625 436.364275115
v 2685648.77614 1251067.94799 436.434741333
v 2685648.75 1251067.99998 436.467529676
v 2685648.7048 1251068.53109 436.832070132
v 2685647.98549 1251068.67964 436.83976607
v 2685647.75214 1251068.63544 436.77779693
v 2685647.24787 1251068.73958 436.783192081
v 2685647.24409 1251068.97132 436.944378541
v 2685646.23545 1251069.17963 436.955169925
v 2685645.76023 1251069.29951 436.97542486
v 2685645.26452 1251069.07038 436.749423197
v 2685644.30542 1251069.26845 436.759684629
v 2685644.25942 1251069.5456 436.946925367
v 2685643.49057 1251069.70439 436.955151258
v 2685643.00002 1251069.49998 436.747093365
v 2685642.50215 1251069.88541 436.949600758
v 2685641.68382 1251070.05441 436.958356062
v 2685641.83236 1251069.64873 436.695120409
v 2685642.60121 1251069.48995 436.686894518
v 2685642.43005 1251068.66117 436.085796752
v 2685642.97308 1251068.8072 436.260123539
v 2685643.06485 1251069.25153 436.582388698
v 2685643.45266 1251068.70815 436.254992553
v 2685641.76022 1251068.7995 436.092963277
v 2685641.73546 1251068.67963 436.006024926
v 2685642.23978 1251068.57548 436.000629234
v 2685642.49784 1251067.73955 435.451801321
v 2685643.0269 1251067.63029 435.446140923
v 2685642.97523 1251067.3801 435.264683666
v 2685644.07039 1251067.48549 435.484308487
v 2685644.17965 1251068.01455 435.868023754
v 2685644.00001 1251068.25002 436.008354218
v 2685644.24997 1251068.62499 436.30332422
v 2685645 1251068.49999 436.316163786
v 2685645.49273 1251068.21481 436.182915682
v 2685647.25001 1251067.99999 436.267443348
v 2685647.59544 1251068.17272 436.434039847
v 2685647.74998 1251068.24999 436.50857004
v 2685647.75001 1251067.75001 436.159720108
v 2685645.79442 1251068.15251 436.179687882
v 2685645.71288 1251067.75766 435.893311342
v 2685647.67236 1251067.72935 436.134948306
v 2685645.79438 1251067.5275 435.743598812
v 2685647.45047 1251066.76021 435.429154368
v 2685648.98546 1251067.05463 435.839343968
v 2685651.24999 1251066.49999 435.754433581
v 2685643.54443 1251069.15249 436.577257713
v 2685644.75002 1251068.74999 436.457246775
v 2685644.79407 1251068.70593 436.432385341
v 2685647.97011 1251067.66786 436.131762643
v 2685648.03712 1251067.99232 436.367089452
v 2685647.54735 1251067.22934 435.769400459
v 2685647.97526 1251066.8801 435.582812216
v 2685648.59902 1251068.10455 436.52035024
v 2685648.02693 1251067.13029 435.764269474
v 2685642.96583 1251070.64699 437.572809662
v 2685642.96964 1251070.66542 437.556159858
v 2685642.5341 1251070.74731 437.555208156
v 2685642.52476 1251070.74487 437.558840095
v 2685642.47821 1251070.51947 437.762469484
v 2685643.24686 1251070.36073 437.776516474
v 2685643.6231 1251070.28603 437.780781428
v 2685643.77179 1251070.48054 437.587538563
v 2685650.51472 1251069.2466 437.572750437
v 2685650.53281 1251069.03396 437.754841308
v 2685651.25213 1251068.88541 437.767986774
v 2685651.03246 1251069.14925 437.573875966
v 2685650.98979 1251069.2005 437.536175792
v 2685650.51022 1251069.29954 437.527411533
v 2685649.50445 1251069.43659 437.570514409
v 2685649.48992 1251069.36622 437.63409203
v 2685649.965 1251069.2681 437.642774164
v 2685649.98128 1251069.34692 437.57156774
v 2685650.06781 1251069.76591 437.193046981
v 2685650.32406 1251069.71299 437.197729926
v 2685649.99999 1251069.87499 437.109081225
v 2685650.50001 1251070.12498 436.810857562
v 2685650.50002 1251069.67665 437.200945702
v 2685650.9898 1251069.5755 437.209896356
v 2685651.49783 1251069.86458 436.876365061
v 2685651.89071 1251069.78344 436.883544962
v 2685651.94566 1251070.04948 436.643194771
v 2685649.72615 1251070.51009 436.600694808
v 2685650.49999 1251069.62501 437.245881297
v 2685645.16938 1251071.46504 436.505341725
v 2685645.16754 1251071.4561 436.51341574
v 2685645.51475 1251071.38403 436.520081711
v 2685645.53586 1251071.48623 436.427755124
v 2685644.61475 1251071.65771 436.427228981
v 2685644.59754 1251071.5744 436.50249522
v 2685644.79558 1251071.53329 436.506297623
v 2685644.79736 1251071.54187 436.498542919
v 2685642.84847 1251072.01633 436.400309546
v 2685642.56702 1251072.07445 436.395166149
v 2685648.5269 1251070.94279 436.417783378
v 2685648.52422 1251070.92982 436.429506665
v 2685648.83955 1251070.87112 436.429681016
v 2685648.88187 1251071.07601 436.244571683
v 2685649.46501 1251070.95558 436.255228498
v 2685647.32308 1251071.41152 436.204266805
v 2685647.77691 1251071.3178 436.212560462
v 2685647.72742 1251071.07816 436.429053535
v 2685648.04275 1251071.01946 436.429227887
v 2685648.04737 1251071.04183 436.409020042
v 2685654.06191 1251070.36222 436.029493492
v 2685654.17573 1251070.64032 435.769148249
v 2685649.58556 1251070.53927 437.505987549
v 2685649.40096 1251069.64545 437.505987549
v 2685649.34905 1251069.35456 437.505987549
v 2685649.30831 1251069.15729 437.505987549
v 2685649.37876 1251069.14332 437.505987549
v 2685649.42102 1251069.34796 437.505987549
v 2685649.42746 1251069.37912 437.505987549
v 2685649.48992 1251069.36622 437.505987549
v 2685649.50445 1251069.43659 437.505987549
v 2685649.72615 1251070.51009 437.505987549
v 2685649.7375 1251070.56506 437.505987549
v 2685649.59688 1251070.5941 437.505987549
v 2685644.6235 1251070.08742 433.946563843
v 2685644.7551 1251069.89978 433.946563843
v 2685644.95778 1251069.85792 433.946563843
v 2685644.99013 1251070.0146 433.946563843
v 2685645.03205 1251070.21758 433.946563843
v 2685644.7551 1251070.27478 433.946563843
v 2685644.50003 1251070.62501 433.946563843
v 2685644.14995 1251070.44345 433.946563843
v 2685643.99785 1251070.36457 433.946563843
v 2685644.50217 1251070.26042 433.946563843
v 2685642.5341 1251070.74731 436.428283435
v 2685643.01239 1251070.87243 433.946563843
v 2685642.5341 1251070.74731 433.946563843
v 2685642.5341 1251070.74731 437.555208172
v 2685642.96964 1251070.66542 433.946563843
v 2685642.24998 1251071.25 433.946563843
v 2685641.74998 1251071.49999 433.946563843
v 2685641.75001 1251071 433.946563843
v 2685643.54734 1251071.66683 433.946563843
v 2685644.02692 1251071.56779 433.946563843
v 2685643.94833 1251071.18728 433.946563843
v 2685644.69239 1251071.03362 433.946563843
v 2685644.79558 1251071.53329 433.946563843
v 2685644.59754 1251071.5744 433.946563843
v 2685644.58097 1251071.49417 433.946563843
v 2685643.89882 1251071.63505 433.946563843
v 2685643.91553 1251071.71594 433.946563843
v 2685643.92983 1251071.78521 433.946563843
v 2685642.55996 1251072.04027 433.946563843
v 2685642.55144 1251071.99902 433.946563843
v 2685642.4112 1251071.31994 433.946563843
v 2685643.43216 1251071.1091 433.946563843
v 2685645.16754 1251071.4561 433.946563843
v 2685645.07034 1251070.98546 433.946563843
v 2685645.46284 1251071.13268 433.946563843
v 2685645.51475 1251071.38403 433.946563843
v 2685649.30831 1251069.15729 433.946563843
v 2685649.14371 1251068.36026 433.946563843
v 2685649.50725 1251068.28518 433.946563843
v 2685649.74374 1251067.76379 433.946563843
v 2685651.63501 1251067.40379 433.946563843
v 2685651.65878 1251067.51886 433.946563843
v 2685652.02692 1251067.44284 433.946563843
v 2685652.00433 1251067.33347 433.946563843
v 2685653.26913 1251067.09274 433.946563843
v 2685653.4233 1251067.83922 433.946563843
v 2685653.6386 1251068.27299 433.946563843
v 2685653.64348 1251068.29662 433.946563843
v 2685653.71538 1251068.64477 433.946563843
v 2685653.86143 1251069.35196 433.946563843
v 2685653.93811 1251069.76277 433.946563843
v 2685653.96975 1251069.91596 433.946563843
v 2685652.71633 1251070.14934 433.946563843
v 2685652.66488 1251069.90021 433.946563843
v 2685652.63861 1251069.77302 433.946563843
v 2685652.49999 1251069.49999 433.946563843
v 2685653.07427 1251068.98465 433.946563843
v 2685653.03066 1251068.77349 433.946563843
v 2685652.96019 1251068.43226 433.946563843
v 2685652.92572 1251068.26533 433.946563843
v 2685652.78713 1251067.86731 433.946563843
v 2685652.71286 1251067.50765 433.946563843
v 2685652.2005 1251067.38525 433.946563843
v 2685652.3068 1251067.89996 433.946563843
v 2685651.99274 1251067.96483 433.946563843
v 2685651.26452 1251067.94538 433.946563843
v 2685650.73546 1251068.05464 433.946563843
v 2685650.48975 1251068.45048 433.946563843
v 2685649.97306 1251068.55719 433.946563843
v 2685650.03711 1251068.86731 433.946563843
v 2685649.49999 1251068.62499 433.946563843
v 2685649.32034 1251068.86046 433.946563843
v 2685649.37876 1251069.14332 433.946563843
v 2685652.00001 1251069.50001 433.946563843
v 2685652 1251069.75002 433.946563843
v 2685646.04543 1251071.27391 433.946563843
v 2685646.24998 1251070.62502 433.946563843
v 2685646.76316 1251070.81386 433.946563843
v 2685647.94968 1251070.56881 433.946563843
v 2685648.01106 1251070.86601 433.946563843
v 2685648.45262 1251070.58314 433.946563843
v 2685648.04737 1251070.66683 433.946563843
v 2685647.97821 1251070.33196 433.946563843
v 2685648.69753 1251070.18341 433.946563843
v 2685648.80449 1251070.70136 433.946563843
v 2685648.49049 1251070.76652 433.946563843
v 2685651.94566 1251070.04948 433.946563843
v 2685651.99405 1251070.28382 433.946563843
v 2685650.15969 1251070.62533 433.946563843
v 2685650.13048 1251070.4839 433.946563843
v 2685649.7375 1251070.56506 433.946563843
v 2685643.24686 1251070.36073 433.946563843
v 2685643.24706 1251070.36069 433.946563843
v 2685643.49999 1251070.12498 433.946563843
v 2685643.6231 1251070.28603 433.946563843
v 2685648.83955 1251070.87112 433.946563843
v 2685648.52422 1251070.92982 433.946563843
v 2685647.2932 1251071.39658 433.946563843
v 2685647.32308 1251071.41152 433.946563843
v 2685647.29738 1251071.41683 433.946563843
v 2685649.5627 1251071.42865 433.946563843
v 2685650.29439 1251071.27754 433.946563843
v 2685650.2733 1251071.17544 435.933458075
v 2685650.2733 1251071.17544 433.946563843
v 2685652.12933 1251070.93886 435.839710938
v 2685652.12933 1251070.93886 433.946563843
v 2685652.14934 1251071.03575 433.946563843
v 2685652.86871 1251070.88719 433.946563843
v 2685652.86015 1251070.84573 433.946563843
v 2685654.18332 1251070.67708 433.946563843
v 2685654.32428 1251071.35963 433.946563843
v 2685653.27097 1251071.35163 433.946563843
v 2685651.03875 1251071.81263 433.946563843
v 2685650.91766 1251071.22626 433.946563843
v 2685650.17355 1251071.37994 433.946563843
v 2685650.32641 1251072.12011 433.946563843
v 2685649.74787 1251072.23959 433.946563843
v 2685649.00002 1251071.875 433.946563843
v 2685648.74998 1251072.37502 433.946563843
v 2685648.25213 1251072.26041 433.946563843
v 2685647.72307 1251072.36967 433.946563843
v 2685647.7769 1251072.63032 433.946563843
v 2685647.24784 1251072.73958 433.946563843
v 2685646.76024 1251072.79953 433.946563843
v 2685647.31403 1251072.62267 433.946563843
v 2685647.15013 1251071.82903 433.946563843
v 2685646.45561 1251071.97246 433.946563843
v 2685646.53715 1251072.36731 433.946563843
v 2685646.75001 1251072.75 433.946563843
v 2685646.49702 1251072.61067 433.946563843
v 2685645.75296 1251072.76433 433.946563843
v 2685645.49999 1251073.12503 433.946563843
v 2685645.25217 1251072.76041 433.946563843
v 2685644.72306 1251072.86968 433.946563843
v 2685644.77473 1251073.11987 433.946563843
v 2685644.24998 1251072.87499 433.946563843
v 2685644.06192 1251073.23723 433.946563843
v 2685643.93813 1251072.63778 433.946563843
v 2685643.49998 1251072.5 433.946563843
v 2685643.20048 1251072.8852 433.946563843
v 2685643.2944 1251073.33999 433.946563843
v 2685643.12889 1251073.37417 433.946563843
v 2685642.8697 1251072.11913 433.946563843
v 2685643.96983 1251071.9789 433.946563843
v 2685644.15664 1251072.88342 433.946563843
v 2685644.83879 1251072.74254 433.946563843
v 2685644.66284 1251071.89058 436.216852266
v 2685644.66284 1251071.89058 433.946563843
v 2685644.61475 1251071.65771 433.946563843
v 2685645.53586 1251071.48623 433.946563843
v 2685645.54735 1251071.54187 433.946563843
v 2685645.98976 1251071.4505 433.946563843
v 2685648.04275 1251071.01946 433.946563843
v 2685647.72742 1251071.07816 433.946563843
v 2685647.70263 1251070.95814 433.946563843
v 2685647.2231 1251071.05717 433.946563843
v 2685647.24595 1251071.1678 436.337677178
v 2685647.24595 1251071.1678 433.946563843
v 2685647.25 1251071.37502 433.946563843
v 2685647.25002 1251071.875 433.946563843
v 2685647.75001 1251071.62501 433.946563843
v 2685647.54616 1251071.52308 433.946563843
v 2685649.52998 1251071.2702 433.946563843
v 2685651.45264 1251070.45818 433.946563843
v 2685650.96069 1251070.55977 433.946563843
v 2685651.04735 1251070.97937 433.946563843
v 2685651.5393 1251070.87777 433.946563843
v 2685653.20265 1251070.83317 433.946563843
v 2685652.72307 1251070.93222 433.946563843
v 2685652.79735 1251071.29187 433.946563843
v 2685653.27693 1251071.19283 433.946563843
v 2685649.5 1251071.87498 433.946563843
v 2685649.49998 1251071.375 433.946563843
v 2685648.99998 1251071.62499 433.946563843
v 2685648.97095 1251066.32259 433.946563843
v 2685649.00002 1251066.24999 433.946563843
v 2685649.08723 1251066.29857 433.946563843
v 2685651.99998 1251065.74999 433.946563843
v 2685651.97957 1251065.90098 433.946563843
v 2685651.94619 1251065.73935 433.946563843
v 2685652.72525 1251065.88012 433.946563843
v 2685653.07667 1251066.1608 433.946563843
v 2685651.91765 1251066.91373 433.946563843
v 2685651.99998 1251066.87498 433.946563843
v 2685652.23549 1251066.92963 433.946563843
v 2685652.78929 1251066.81526 433.946563843
v 2685652.6873 1251066.32139 433.946563843
v 2685651.99272 1251066.46484 433.946563843
v 2685652.04519 1251066.34392 433.946563843
v 2685652.7893 1251066.19025 433.946563843
v 2685644.79407 1251068.70593 433.946563843
v 2685645 1251068.49999 433.946563843
v 2685644.79951 1251068.11475 433.946563843
v 2685644.69321 1251067.60003 433.946563843
v 2685645.04439 1251067.52751 433.946563843
v 2685644.94401 1251067.04147 433.946563843
v 2685646.51882 1251066.71624 433.946563843
v 2685646.99276 1251066.71481 433.946563843
v 2685647.25729 1251066.66017 433.946563843
v 2685647.49274 1251066.71484 433.946563843
v 2685647.75727 1251066.66021 433.946563843
v 2685648.76667 1251066.51829 433.946563843
v 2685648.73626 1251066.37105 433.946563843
v 2685648.74999 1251066.87499 433.946563843
v 2685648.98546 1251067.05463 433.946563843
v 2685649.55168 1251066.93769 433.946563843
v 2685649.46287 1251066.50765 433.946563843
v 2685650.47658 1251066.01164 433.946563843
v 2685650.76025 1251065.92452 433.946563843
v 2685651.30623 1251065.81177 433.946563843
v 2685649.74998 1251067.75003 433.946563843
v 2685649.53715 1251067.6173 433.946563843
v 2685649.42493 1251067.0739 433.946563843
v 2685648.70557 1251067.22247 433.946563843
v 2685648.83233 1251067.83625 433.946563843
v 2685648.77614 1251067.94799 433.946563843
v 2685648.75 1251067.99998 433.946563843
v 2685648.7048 1251068.53109 433.946563843
v 2685647.98549 1251068.67964 433.946563843
v 2685647.75214 1251068.63544 433.946563843
v 2685647.24787 1251068.73958 433.946563843
v 2685647.24409 1251068.97132 433.946563843
v 2685646.23545 1251069.17963 433.946563843
v 2685645.76023 1251069.29951 433.946563843
v 2685645.26452 1251069.07038 433.946563843
v 2685644.30542 1251069.26845 433.946563843
v 2685644.25942 1251069.5456 433.946563843
v 2685643.49057 1251069.70439 433.946563843
v 2685643.00002 1251069.49998 433.946563843
v 2685642.50215 1251069.88541 433.946563843
v 2685641.68382 1251070.05441 433.946563843
v 2685641.83236 1251069.64873 433.946563843
v 2685642.60121 1251069.48995 433.946563843
v 2685642.52836 1251069.13721 436.431059926
v 2685642.52836 1251069.13721 433.946563843
v 2685642.43005 1251068.66117 433.946563843
v 2685641.76022 1251068.7995 433.946563843
v 2685641.73546 1251068.67963 433.946563843
v 2685642.23978 1251068.57548 433.946563843
v 2685642.49784 1251067.73955 433.946563843
v 2685643.0269 1251067.63029 433.946563843
v 2685642.97523 1251067.3801 433.946563843
v 2685644.07039 1251067.48549 433.946563843
v 2685644.17965 1251068.01455 433.946563843
v 2685644.00001 1251068.25002 433.946563843
v 2685644.24997 1251068.62499 433.946563843
v 2685644.75002 1251068.74999 433.946563843
v 2685645.33059 1251067.16 433.946563843
v 2685645.42235 1251067.60434 433.946563843
v 2685645.79438 1251067.5275 433.946563843
v 2685645.70262 1251067.08317 433.946563843
v 2685651.24999 1251066.49999 433.946563843
v 2685651.01453 1251066.32039 433.946563843
v 2685650.46073 1251066.43477 433.946563843
v 2685650.52478 1251066.74489 433.946563843
v 2685650.99998 1251066.87502 433.946563843
v 2685651 1251067.375 433.946563843
v 2685650.49999 1251067.12501 433.946563843
v 2685647.67236 1251067.72935 433.946563843
v 2685647.97011 1251067.66786 433.946563843
v 2685648.03712 1251067.99232 433.946563843
v 2685648.28399 1251068.04163 436.434423144
v 2685648.28399 1251068.04163 433.946563843
v 2685648.59902 1251068.10455 433.946563843
v 2685648.57461 1251067.98634 436.434620383
v 2685648.57461 1251067.98634 433.946563843
v 2685648.39288 1251067.10636 433.946563843
v 2685647.57843 1251067.27456 433.946563843
v 2685647.54735 1251067.22934 433.946563843
v 2685648.02693 1251067.13029 433.946563843
v 2685647.97526 1251066.8801 433.946563843
v 2685647.45047 1251066.76021 433.946563843
v 2685647.74998 1251068.24999 433.946563843
v 2685647.75001 1251067.75001 433.946563843
v 2685647.25001 1251067.99999 433.946563843
v 2685647.59544 1251068.17272 433.946563843
v 2685645.25002 1251068.12501 433.946563843
v 2685645.49273 1251068.21481 433.946563843
v 2685645.79442 1251068.15251 433.946563843
v 2685645.71288 1251067.75766 433.946563843
v 2685645.50001 1251067.62499 433.946563843
v 2685643.50296 1251068.95173 436.431652454
v 2685643.54443 1251069.15249 433.946563843
v 2685643.50296 1251068.95173 433.946563843
v 2685643.45266 1251068.70815 433.946563843
v 2685642.97308 1251068.8072 433.946563843
v 2685643.02184 1251069.0433 436.431363526
v 2685643.02184 1251069.0433 433.946563843
v 2685643.06485 1251069.25153 433.946563843
v 2685642.52476 1251070.74487 433.946563843
v 2685642.47821 1251070.51947 433.946563843
v 2685643.77179 1251070.48054 433.946563843
v 2685642.96583 1251070.64699 433.946563843
v 2685650.53281 1251069.03396 433.946563843
v 2685651.25213 1251068.88541 433.946563843
v 2685651.03246 1251069.14925 433.946563843
v 2685650.98979 1251069.2005 433.946563843
v 2685650.51022 1251069.29954 433.946563843
v 2685650.51472 1251069.2466 433.946563843
v 2685649.48992 1251069.36622 433.946563843
v 2685649.965 1251069.2681 433.946563843
v 2685649.98128 1251069.34692 433.946563843
v 2685650.06781 1251069.76591 433.946563843
v 2685650.32406 1251069.71299 433.946563843
v 2685649.99999 1251069.87499 433.946563843
v 2685650.50001 1251070.12498 433.946563843
v 2685650.50002 1251069.67665 433.946563843
v 2685650.9898 1251069.5755 433.946563843
v 2685651.49783 1251069.86458 433.946563843
v 2685651.89071 1251069.78344 433.946563843
v 2685650.49999 1251069.62501 433.946563843
v 2685645.16938 1251071.46504 433.946563843
v 2685644.79736 1251071.54187 433.946563843
v 2685642.84847 1251072.01633 433.946563843
v 2685642.56702 1251072.07445 433.946563843
v 2685648.88187 1251071.07601 433.946563843
v 2685649.46501 1251070.95558 433.946563843
v 2685647.77691 1251071.3178 433.946563843
v 2685648.04737 1251071.04183 433.946563843
v 2685648.5269 1251070.94279 433.946563843
v 2685654.06191 1251070.36222 433.946563843
v 2685654.17573 1251070.64032 433.946563843
v 2685649.34905 1251069.35456 433.946563843
v 2685649.42102 1251069.34796 433.946563843
v 2685649.42746 1251069.37912 433.946563843
v 2685649.59688 1251070.5941 433.946563843
v 2685649.58556 1251070.53927 433.946563843
v 2685649.40096 1251069.64545 433.946563843
g roof
f 1 2 3
g roof
f 1 3 4
g roof
f 1 4 5
g roof
f 1 5 6
g roof
f 1 6 7
g roof
f 8 9 10
g roof
f 10 1 7
g roof
f 10 7 8
g roof
f 11 346 12 13
g roof
f 14 15 16
g roof
f 17 18 19
g roof
f 20 21 22
g roof
f 22 23 24
g roof
f 22 24 25
g roof
f 26 27 28
g roof
f 26 28 29
g roof
f 29 17 19
g roof
f 29 19 20
g roof
f 20 22 25
g roof
f 20 25 30
g roof
f 30 26 29
g roof
f 30 29 20
g roof
f 31 32 33
g roof
f 31 33 34
g roof
f 35 36 37
g roof
f 35 37 38
g roof
f 35 38 39
g roof
f 35 39 40
g roof
f 40 41 42
g roof
f 43 44 45
g roof
f 43 45 46
g roof
f 43 46 47
g roof
f 43 47 48
g roof
f 43 48 49
g roof
f 49 50 51
g roof
f 49 51 52
g roof
f 49 52 53
g roof
f 49 53 54
g roof
f 49 54 55
g roof
f 49 55 56
g roof
f 49 56 57
g roof
f 49 57 58
g roof
f 49 58 59
g roof
f 60 61 62
g roof
f 60 62 63
g roof
f 60 63 64
g roof
f 64 65 66
g roof
f 66 67 68
g roof
f 68 35 40
g roof
f 68 40 42
g roof
f 68 42 69
g roof
f 43 49 59
g roof
f 64 66 68
g roof
f 64 68 69
g roof
f 70 43 59
g roof
f 70 59 60
g roof
f 60 64 69
g roof
f 60 69 71
g roof
f 60 71 70
g roof
f 53 72 73
g roof
f 74 75 76
g roof
f 76 77 78
g roof
f 76 78 74
g roof
f 79 80 81
g roof
f 81 82 83
g roof
f 81 83 84
g roof
f 81 84 79
g roof
f 85 86 87
g roof
f 87 88 89
g roof
f 87 89 90
g roof
f 87 90 85
g roof
f 91 92 93
g roof
f 91 93 94
g roof
f 95 96 80
g roof
f 95 80 79
g roof
f 97 98 99
g roof
f 100 101 102
g roof
f 103 104 105
g roof
f 105 106 107
g roof
f 108 109 110
g roof
f 111 112 113
g roof
f 111 113 114
g roof
f 114 115 116
g roof
f 116 117 118
g roof
f 119 120 121
g roof
f 119 121 122
g roof
f 122 123 124
g roof
f 125 126 127
g roof
f 128 129 130
g roof
f 128 130 131
g roof
f 132 482 133 134
g roof
f 132 134 135
g roof
f 132 135 136
g roof
f 75 137 138
g roof
f 75 138 139
g roof
f 75 139 140
g roof
f 140 492 99 141
g roof
f 140 141 142
g roof
f 142 143 144
g roof
f 145 146 147
g roof
f 148 438 149 150
g roof
f 148 150 151
g roof
f 148 151 152
g roof
f 153 150 149
g roof
f 153 149 154
g roof
f 153 154 440 100
g roof
f 114 116 118
g roof
f 114 118 155
g roof
f 156 119 122
g roof
f 156 122 124
g roof
f 156 124 125
g roof
f 157 128 131
g roof
f 157 131 158
g roof
f 76 75 140
g roof
f 76 140 142
g roof
f 142 145 147
g roof
f 152 153 100
g roof
f 152 100 102
g roof
f 159 101 100
g roof
f 159 100 160
g roof
f 159 160 161
g roof
f 159 161 103
g roof
f 162 157 158
g roof
f 162 158 163
g roof
f 164 159 103
g roof
f 164 103 105
g roof
f 165 162 163
g roof
f 102 164 105
g roof
f 102 105 107
g roof
f 127 165 163
g roof
f 127 163 132
g roof
f 152 102 107
g roof
f 152 107 108
g roof
f 125 127 132
g roof
f 148 152 108
g roof
f 156 125 132
g roof
f 156 132 136
g roof
f 156 136 76
g roof
f 166 148 108
g roof
f 166 108 110
g roof
f 155 156 76
g roof
f 155 76 142
g roof
f 114 155 142
g roof
f 167 143 142
g roof
f 167 142 147
g roof
f 167 147 166
g roof
f 167 166 110
g roof
f 111 114 142
g roof
f 111 142 144
g roof
f 144 167 110
g roof
f 144 110 111
g roof
f 168 169 170
g roof
f 171 172 173
g roof
f 174 175 176
g roof
f 174 176 70
g roof
f 70 71 177
g roof
f 177 178 179
g roof
f 180 181 182
g roof
f 180 182 174
g roof
f 180 174 70
g roof
f 70 177 179
g roof
f 70 179 183
g roof
f 70 183 180
g roof
f 184 185 186
g roof
f 186 187 188
g roof
f 186 188 189
g roof
f 186 189 190
g roof
f 190 191 192
g roof
f 190 192 193
g roof
f 194 192 191
g roof
f 194 191 195
g roof
f 194 195 196
g roof
f 194 196 197
g roof
f 194 197 198
g roof
f 198 199 200
g roof
f 200 201 170
g roof
f 200 170 202
g roof
f 203 204 205
g roof
f 203 205 206
g roof
f 207 205 204
g roof
f 207 204 169
g roof
f 207 169 208
g roof
f 207 208 209
g roof
f 207 209 210
g roof
f 41 40 211
g roof
f 41 211 212
g roof
f 213 214 215
g roof
f 216 214 213
g roof
f 217 218 219
g roof
f 217 219 220
g roof
f 217 220 221
g roof
f 221 222 223
g roof
f 224 225 226
g roof
f 224 226 227
g roof
f 224 227 228
g roof
f 229 230 231
g roof
f 229 231 232
g roof
f 232 233 234
g roof
f 232 234 235
g roof
f 232 235 236
g roof
f 237 238 622 239
g roof
f 240 238 237
g roof
f 237 241 242
g roof
f 237 242 243
g roof
f 237 243 244
g roof
f 237 244 245
g roof
f 245 246 247
g roof
f 245 247 248
g roof
f 245 248 249
g roof
f 245 249 250
g roof
f 251 188 187
g roof
f 251 187 252
g roof
f 251 252 253
g roof
f 251 253 254
g roof
f 251 254 255
g roof
f 256 253 252
g roof
f 256 252 257
g roof
f 256 257 258
g roof
f 256 258 186
g roof
f 186 185 259
g roof
f 186 190 193
g roof
f 186 193 260
g roof
f 261 194 198
g roof
f 261 198 200
g roof
f 261 200 202
g roof
f 261 202 262
g roof
f 262 203 206
g roof
f 263 207 210
g roof
f 263 210 41
g roof
f 223 224 228
g roof
f 228 229 232
g roof
f 228 232 236
g roof
f 236 569 237 239
g roof
f 236 239 264
g roof
f 240 237 245
g roof
f 240 245 250
g roof
f 240 250 265
g roof
f 266 251 255
g roof
f 256 186 259
g roof
f 256 259 267
g roof
f 256 267 268
g roof
f 184 186 260
g roof
f 260 194 261
g roof
f 260 261 269
g roof
f 270 261 262
g roof
f 216 263 41
g roof
f 223 228 236
g roof
f 223 236 264
g roof
f 264 617 240 265
g roof
f 265 266 255
g roof
f 255 256 268
g roof
f 255 268 597 271
g roof
f 184 260 269
g roof
f 184 269 272
g roof
f 184 272 270
g roof
f 184 270 262
g roof
f 223 264 265
g roof
f 223 265 255
g roof
f 223 255 271
g roof
f 221 223 271
g roof
f 221 271 600 184
g roof
f 217 221 184
g roof
f 217 184 262
g roof
f 217 262 206
g roof
f 213 217 206
g roof
f 212 213 215
g roof
f 216 213 206
g roof
f 41 212 215
g roof
f 41 215 216
g roof
f 273 274 275 349
g roof
f 273 275 349 276
g roof
f 273 276 277
g roof
f 273 277 278
g roof
f 273 278 279
g roof
f 273 279 280
g roof
f 281 282 283
g roof
f 281 283 284
g roof
f 281 284 285
g roof
f 281 285 286
g roof
f 287 288 289
g roof
f 287 289 290
g roof
f 287 290 291
g roof
f 291 292 293
g roof
f 294 295 296
g roof
f 294 296 297
g roof
f 294 297 298
g roof
f 294 298 299
g roof
f 294 299 300
g roof
f 287 291 293
g roof
f 293 294 300
g roof
f 293 300 287
g roof
f 295 292 301
g roof
f 302 303 304
g roof
f 302 304 305
g roof
f 302 305 306
g roof
f 306 307 308
g roof
f 306 308 309
g roof
f 306 309 302
g roof
f 27 158 131
g roof
f 27 131 310
g roof
f 27 310 311
g roof
f 27 311 28
g roof
f 312 313 314
g roof
f 312 314 315
g roof
f 315 316 147
g roof
f 315 147 146
g roof
f 146 317 318
g roof
f 318 319 320
g roof
f 318 320 321
g roof
f 318 321 312
g roof
f 318 312 315
g roof
f 318 315 146
g roof
f 103 161 50
g roof
f 50 49 322
g roof
f 50 322 323
g roof
f 50 323 103
g roof_fixture
f 324 325 326
g roof_fixture
f 326 327 328
g roof_fixture
f 326 328 329
g roof_fixture
f 326 329 330
g roof_fixture
f 330 331 332
g roof_fixture
f 330 332 333
g roof_fixture
f 330 333 334
g roof_fixture
f 330 334 335
g roof_fixture
f 330 335 324
g roof_fixture
f 330 324 326
g facade_completed
f 2 1 336 337
g facade_completed
f 3 2 337 338
g facade_completed
f 4 3 338 339
g facade_completed
f 5 4 339 340
g facade_completed
f 6 5 340 341
g facade_completed
f 7 6 341 342
g facade_completed
f 8 7 342 343
g facade_completed
f 9 8 343 344
g facade_completed
f 10 9 344 345
g facade_completed
f 1 10 345 336
g facade_completed
f 11 346 13 347 348
g roof_step_or_fixture_side
f 275 349 274 12 11 346
g facade_completed
f 13 12 350 347
g facade_completed
f 14 16 351 352
g facade_completed
f 15 14 352 353
g facade_completed
f 16 15 353 351
g facade_completed
f 20 19 354 355
g facade_completed
f 21 20 355 356
g facade_completed
f 22 21 356 357
g facade_completed
f 23 22 357 358
g roof_step_or_fixture_side
f 308 307 24 23
g facade_completed
f 25 24 359 360
g facade_completed
f 30 25 360 361
g facade_completed
f 26 30 361 362
g facade_completed
f 27 26 362 363
g facade_completed
f 29 28 364 365
g facade_completed
f 17 29 365 366
g facade_completed
f 18 17 366 367
g facade_completed
f 19 18 367 354
g roof_step_or_fixture_side
f 304 303 34 33
g facade_completed
f 31 34 368 369
g facade_completed
f 32 31 369 370
g facade_completed
f 33 32 370 371
g facade_completed
f 38 37 372 373
g facade_completed
f 39 38 373 374
g facade_completed
f 40 39 374 375
g facade_completed
f 42 41 376 377
g facade_completed
f 69 42 377 378
g facade_completed
f 71 69 378 379
g facade_completed
f 43 70 380 381
g facade_completed
f 44 43 381 382
g facade_completed
f 45 44 382 383
g facade_completed
f 46 45 383 384
g facade_completed
f 47 46 384 385
g facade_completed
f 48 47 385 386
g facade_completed
f 49 48 386 387
g facade_completed
f 51 50 388 389
g facade_completed
f 52 51 389 390
g facade_completed
f 53 52 390 391
g facade_completed
f 54 53 391 392
g facade_completed
f 55 54 392 393
g facade_completed
f 56 55 393 394
g facade_completed
f 57 56 394 395
g facade_completed
f 58 57 395 396
g facade_completed
f 59 58 396 397
g facade_completed
f 60 59 397 398
g facade_completed
f 61 60 398 399
g facade_completed
f 62 61 399 400
g facade_completed
f 63 62 400 401
g facade_completed
f 64 63 401 402
g facade_completed
f 65 64 402 403
g facade_completed
f 66 65 403 404
g facade_completed
f 67 66 404 405
g facade_completed
f 68 67 405 406
g facade_completed
f 35 68 406 407
g facade_completed
f 36 35 407 408
g roof_step_or_fixture_side
f 328 327 37 36
g facade_completed
f 53 73 409 391
g facade_completed
f 72 53 391 410
g facade_completed
f 73 72 410 409
g facade_completed
f 77 76 411 412
g facade_completed
f 78 77 412 413
g facade_completed
f 74 78 413 414
g facade_completed
f 75 74 414 415
g facade_completed
f 82 81 416 417
g facade_completed
f 83 82 417 418
g facade_completed
f 84 83 418 419
g facade_completed
f 79 84 419 420
g facade_completed
f 81 80 421 416
g facade_completed
f 88 87 422 423 154
g roof_step_or_fixture_side
f 89 88 154 149
g facade_completed
f 90 89 149 424 425
g facade_completed
f 85 90 425 426
g roof_step_or_fixture_side
f 334 333 300 86 85
g roof_step_or_fixture_side
f 300 299 87 86
g roof_step_or_fixture_side
f 279 278 94 93
g facade_completed
f 91 94 427 428
g facade_completed
f 92 91 428 429
g facade_completed
f 93 92 429 430
g facade_completed
f 95 79 420 431
g roof_step_or_fixture_side
f 314 313 96 95
g facade_completed
f 80 96 432 421
g facade_completed
f 97 99 433 434
g facade_completed
f 98 97 434 435
g facade_completed
f 99 98 435 433
g facade_completed
f 148 166 436 437
g facade_completed
f 438 148 437 439
g facade_completed
f 149 438 439 424
g facade_completed
f 440 154 423 441
g facade_completed
f 100 440 441 442
g facade_completed
f 160 100 442 443
g facade_completed
f 161 160 443 444
g facade_completed
f 104 103 445 446
g facade_completed
f 105 104 446 447
g facade_completed
f 106 105 447 448
g facade_completed
f 107 106 448 449
g facade_completed
f 108 107 449 450
g facade_completed
f 109 108 450 451
g facade_completed
f 110 109 451 452
g facade_completed
f 111 110 452 453
g facade_completed
f 112 111 453 454
g facade_completed
f 113 112 454 455
g facade_completed
f 114 113 455 456
g facade_completed
f 115 114 456 457
g facade_completed
f 116 115 457 458
g facade_completed
f 117 116 458 459
g facade_completed
f 118 117 459 460
g facade_completed
f 155 118 460 461
g facade_completed
f 156 155 461 462
g facade_completed
f 119 156 462 463
g facade_completed
f 120 119 463 464
g facade_completed
f 121 120 464 465
g facade_completed
f 122 121 465 466
g facade_completed
f 123 122 466 467
g facade_completed
f 124 123 467 468
g facade_completed
f 125 124 468 469
g facade_completed
f 126 125 469 470
g facade_completed
f 127 126 470 471
g facade_completed
f 165 127 471 472
g facade_completed
f 162 165 472 473
g facade_completed
f 157 162 473 474
g facade_completed
f 128 157 474 475
g facade_completed
f 129 128 475 476
g facade_completed
f 130 129 476 477
g facade_completed
f 131 130 477 478
g facade_completed
f 163 158 479 480
g facade_completed
f 132 163 480 481
g facade_completed
f 482 132 481 483
g facade_completed
f 133 482 483 484
g roof_step_or_fixture_side
f 306 305 134 133
g facade_completed
f 135 134 485 486
g facade_completed
f 136 135 486 487
g facade_completed
f 76 136 487 411
g facade_completed
f 137 75 415 488
g roof_step_or_fixture_side
f 320 319 138 137
g facade_completed
f 139 138 489 490
g facade_completed
f 140 139 490 491
g facade_completed
f 492 140 491 493
g facade_completed
f 99 492 493 433
g facade_completed
f 141 99 433 494
g facade_completed
f 142 141 494 495
g facade_completed
f 145 142 495 496
g facade_completed
f 146 145 496 497
g facade_completed
f 166 147 498 436
g facade_completed
f 150 153 499 500
g facade_completed
f 151 150 500 501
g facade_completed
f 152 151 501 502
g facade_completed
f 153 152 502 499
g facade_completed
f 101 159 503 504
g facade_completed
f 102 101 504 505
g facade_completed
f 164 102 505 506
g facade_completed
f 159 164 506 503
g facade_completed
f 167 144 507 508
g facade_completed
f 143 167 508 509
g facade_completed
f 144 143 509 507
g facade_completed
f 168 170 510 511
g facade_completed
f 169 168 511 512
g facade_completed
f 170 169 512 510
g facade_completed
f 171 173 513 514
g facade_completed
f 172 171 514 515
g facade_completed
f 173 172 515 513
g facade_completed
f 176 175 516 517
g facade_completed
f 70 176 517 380
g facade_completed
f 177 71 379 518
g facade_completed
f 178 177 518 519
g facade_completed
f 179 178 519 520
g facade_completed
f 183 179 520 521
g facade_completed
f 180 183 521 522
g facade_completed
f 181 180 522 523
g facade_completed
f 182 181 523 524
g facade_completed
f 174 182 524 525
g facade_completed
f 175 174 525 516
g facade_completed
f 251 266 526 527
g facade_completed
f 188 251 527 528
g facade_completed
f 189 188 528 529
g facade_completed
f 190 189 529 530
g facade_completed
f 191 190 530 531
g facade_completed
f 195 191 531 532
g facade_completed
f 196 195 532 533
g facade_completed
f 197 196 533 534
g facade_completed
f 198 197 534 535
g facade_completed
f 199 198 535 536
g facade_completed
f 200 199 536 537
g facade_completed
f 201 200 537 538
g facade_completed
f 170 201 538 510
g facade_completed
f 202 170 510 539
g facade_completed
f 262 202 539 540
g facade_completed
f 203 262 540 541
g facade_completed
f 204 203 541 542
g facade_completed
f 169 204 542 512
g facade_completed
f 208 169 512 543
g facade_completed
f 209 208 543 544
g facade_completed
f 210 209 544 545
g facade_completed
f 41 210 545 376
g facade_completed
f 211 40 375 546
g facade_completed
f 212 211 546 547
g facade_completed
f 213 212 547 548
g facade_completed
f 217 213 548 549
g facade_completed
f 218 217 549 550
g facade_completed
f 219 218 550 551
g facade_completed
f 220 219 551 552
g facade_completed
f 221 220 552 553
g facade_completed
f 222 221 553 554
g facade_completed
f 223 222 554 555
g facade_completed
f 224 223 555 556
g facade_completed
f 225 224 556 557
g facade_completed
f 226 225 557 558
g facade_completed
f 227 226 558 559
g facade_completed
f 228 227 559 560
g facade_completed
f 229 228 560 561
g facade_completed
f 230 229 561 562
g facade_completed
f 231 230 562 563
g facade_completed
f 232 231 563 564
g facade_completed
f 233 232 564 565
g facade_completed
f 234 233 565 566
g facade_completed
f 235 234 566 567
g facade_completed
f 236 235 567 568
g facade_completed
f 569 236 568 570
g facade_completed
f 237 569 570 571
g facade_completed
f 241 237 571 572
g facade_completed
f 242 241 572 573
g facade_completed
f 243 242 573 574
g facade_completed
f 244 243 574 575
g facade_completed
f 245 244 575 576
g facade_completed
f 246 245 576 577
g facade_completed
f 247 246 577 578
g facade_completed
f 248 247 578 579
g facade_completed
f 249 248 579 580
g facade_completed
f 250 249 580 581
g facade_completed
f 265 250 581 582
g facade_completed
f 266 265 582 526
g facade_completed
f 193 192 583 584
g facade_completed
f 260 193 584 585
g facade_completed
f 194 260 585 586
g facade_completed
f 192 194 586 583
g facade_completed
f 207 263 587 588
g facade_completed
f 205 207 588 589
g facade_completed
f 206 205 589 590
g facade_completed
f 216 206 590 591
g facade_completed
f 263 216 591 587
g facade_completed
f 216 215 592 591
g facade_completed
f 214 216 591 593
g facade_completed
f 215 214 593 592
g facade_completed
f 267 259 594 595
g facade_completed
f 268 267 595 596
g facade_completed
f 597 268 596 598
g facade_completed
f 271 597 598 599
g facade_completed
f 600 271 599 601
g facade_completed
f 184 600 601 602
g facade_completed
f 185 184 602 603
g facade_completed
f 259 185 603 594
g facade_completed
f 272 269 604 605
g facade_completed
f 270 272 605 606
g facade_completed
f 261 270 606 607
g facade_completed
f 269 261 607 604
g facade_completed
f 256 255 608 609
g facade_completed
f 253 256 609 610
g facade_completed
f 254 253 610 611
g facade_completed
f 255 254 611 608
g facade_completed
f 252 187 612 613
g facade_completed
f 257 252 613 614
g facade_completed
f 258 257 614 615
g facade_completed
f 186 258 615 616
g facade_completed
f 187 186 616 612
g facade_completed
f 617 264 618 619
g facade_completed
f 240 617 619 620
g facade_completed
f 238 240 620 621
g facade_completed
f 622 238 621 623
g facade_completed
f 239 622 623 624
g facade_completed
f 264 239 624 618
g facade_completed
f 276 349 275 346 11 348 625
g facade_completed
f 277 276 625 626
g facade_completed
f 278 277 626 427 94
g facade_completed
f 280 279 93 430 627
g facade_completed
f 273 280 627 628
g facade_completed
f 274 273 628 350 12
g facade_completed
f 283 282 629 630
g facade_completed
f 284 283 630 631
g facade_completed
f 285 284 631 632
g facade_completed
f 286 285 632 633
g facade_completed
f 281 286 633 634
g facade_completed
f 282 281 634 629
g roof_step_or_fixture_side
f 288 287 332 331
g facade_completed
f 289 288 331 635 636
g facade_completed
f 290 289 636 637
g facade_completed
f 291 290 637 638
g facade_completed
f 292 291 638 639
g facade_completed
f 293 292 639 640
g facade_completed
f 294 293 640 641
g facade_completed
f 295 294 641 642
g facade_completed
f 296 295 642 643
g facade_completed
f 297 296 643 644
g facade_completed
f 298 297 644 645
g facade_completed
f 299 298 645 422 87
g roof_step_or_fixture_side
f 333 332 287 300
g facade_completed
f 295 301 646 642
g facade_completed
f 292 295 642 639
g facade_completed
f 301 292 639 646
g facade_completed
f 303 302 647 368 34
g facade_completed
f 305 304 33 371 485 134
g facade_completed
f 307 306 133 484 359 24
g facade_completed
f 309 308 23 358 648
g facade_completed
f 302 309 648 647
g facade_completed
f 310 131 478 649
g facade_completed
f 311 310 649 650
g facade_completed
f 28 311 650 364
g facade_completed
f 158 27 363 479
g facade_completed
f 315 314 95 431 651
g facade_completed
f 316 315 651 652
g facade_completed
f 147 316 652 498
g facade_completed
f 317 146 497 434 97
g facade_completed
f 318 317 97 434 653
g facade_completed
f 319 318 653 489 138
g facade_completed
f 321 320 137 488 654
g facade_completed
f 312 321 654 655
g facade_completed
f 313 312 655 432 96
g facade_completed
f 322 49 387 656
g facade_completed
f 323 322 656 657
g facade_completed
f 103 323 657 445
g facade_completed
f 50 161 444 388
g facade_completed
f 327 326 658 372 37
g facade_completed
f 329 328 36 408 659
g facade_completed
f 330 329 659 660
g facade_completed
f 331 330 660 635
g facade_completed
f 335 334 85 426 661
g facade_completed
f 324 335 661 662
g facade_completed
f 325 324 662 663
g facade_completed
f 326 325 663 658
g ground_assumed
f 511 510 512
g ground_assumed
f 514 513 515
g ground_assumed
f 644 442 441 423 422 645
g ground_assumed
f 442 505 504
g ground_assumed
f 390 392 391
g ground_assumed
f 395 397 396
g ground_assumed
f 398 400 399
g ground_assumed
f 398 401 400
g ground_assumed
f 398 402 401
g ground_assumed
f 402 404 403
g ground_assumed
f 404 406 405
g ground_assumed
f 406 373 407
g ground_assumed
f 406 374 373
g ground_assumed
f 406 375 374
g ground_assumed
f 406 546 375
g ground_assumed
f 548 592 593
g ground_assumed
f 591 548 593
g ground_assumed
f 549 551 550
g ground_assumed
f 549 552 551
g ground_assumed
f 549 553 552
g ground_assumed
f 553 555 554
g ground_assumed
f 556 558 557
g ground_assumed
f 556 559 558
g ground_assumed
f 556 560 559
g ground_assumed
f 561 563 562
g ground_assumed
f 561 564 563
g ground_assumed
f 564 566 565
g ground_assumed
f 564 567 566
g ground_assumed
f 564 568 567
g ground_assumed
f 571 624 623 621
g ground_assumed
f 620 571 621
g ground_assumed
f 571 573 572
g ground_assumed
f 571 574 573
g ground_assumed
f 571 575 574
g ground_assumed
f 571 576 575
g ground_assumed
f 576 578 577
g ground_assumed
f 576 579 578
g ground_assumed
f 576 580 579
g ground_assumed
f 576 581 580
g ground_assumed
f 527 612 528
g ground_assumed
f 527 613 612
g ground_assumed
f 527 610 613
g ground_assumed
f 527 611 610
g ground_assumed
f 527 608 611
g ground_assumed
f 609 613 610
g ground_assumed
f 609 614 613
g ground_assumed
f 609 615 614
g ground_assumed
f 616 594 603
g ground_assumed
f 596 598 599
g ground_assumed
f 602 616 603
g ground_assumed
f 616 528 612
g ground_assumed
f 616 529 528
g ground_assumed
f 616 530 529
g ground_assumed
f 530 583 531
g ground_assumed
f 530 584 583
g ground_assumed
f 586 531 583
g ground_assumed
f 586 532 531
g ground_assumed
f 586 533 532
g ground_assumed
f 586 534 533
g ground_assumed
f 586 535 534
g ground_assumed
f 535 537 536
g ground_assumed
f 537 510 538
g ground_assumed
f 537 539 510
g ground_assumed
f 541 589 542
g ground_assumed
f 541 590 589
g ground_assumed
f 588 542 589
g ground_assumed
f 588 512 542
g ground_assumed
f 588 543 512
g ground_assumed
f 588 544 543
g ground_assumed
f 588 545 544
g ground_assumed
f 378 519 518 379
g ground_assumed
f 378 520 519
g ground_assumed
f 378 521 520
g ground_assumed
f 522 524 523
g ground_assumed
f 522 525 524
g ground_assumed
f 525 517 516
g ground_assumed
f 525 381 380 517
g ground_assumed
f 381 385 384 383 382
g ground_assumed
f 381 386 385
g ground_assumed
f 381 656 387 386
g ground_assumed
f 656 446 445 657
g ground_assumed
f 656 447 446
g ground_assumed
f 447 449 448
g ground_assumed
f 450 452 451
g ground_assumed
f 453 455 454
g ground_assumed
f 453 456 455
g ground_assumed
f 456 458 457
g ground_assumed
f 458 460 459
g ground_assumed
f 495 507 509
g ground_assumed
f 497 653 434
g ground_assumed
f 491 494 433 493
g ground_assumed
f 463 465 464
g ground_assumed
f 463 466 465
g ground_assumed
f 466 468 467
g ground_assumed
f 469 471 470
g ground_assumed
f 475 477 476
g ground_assumed
f 475 649 478 477
g ground_assumed
f 649 366 365 364 650
g ground_assumed
f 649 367 366
g ground_assumed
f 649 354 367
g ground_assumed
f 649 361 354
g ground_assumed
f 360 354 361
g ground_assumed
f 360 355 354
g ground_assumed
f 360 356 355
g ground_assumed
f 360 357 356
g ground_assumed
f 360 648 358 357
g ground_assumed
f 647 370 369 368
g ground_assumed
f 647 486 485 371 370
g ground_assumed
f 487 411 412
g ground_assumed
f 487 413 412 411
g ground_assumed
f 487 414 413
g ground_assumed
f 416 418 417
g ground_assumed
f 416 419 418
g ground_assumed
f 416 651 431 420 419
g ground_assumed
f 437 500 424 439
g ground_assumed
f 437 501 500
g ground_assumed
f 437 502 501
g ground_assumed
f 499 424 500
g ground_assumed
f 499 425 424
g ground_assumed
f 425 663 662 661 426
g ground_assumed
f 425 658 663
g ground_assumed
f 658 407 373 372
g ground_assumed
f 658 660 659 408 407
g ground_assumed
f 660 638 637 636 635
g ground_assumed
f 638 640 639
g ground_assumed
f 641 643 642
g ground_assumed
f 641 644 643
g ground_assumed
f 443 392 390 389 388 444
g ground_assumed
f 402 406 404
g ground_assumed
f 402 546 406
g ground_assumed
f 402 547 546
g ground_assumed
f 555 560 556
g ground_assumed
f 560 564 561
g ground_assumed
f 560 568 564
g ground_assumed
f 568 624 571 570
g ground_assumed
f 568 618 624
g ground_assumed
f 620 576 571
g ground_assumed
f 620 581 576
g ground_assumed
f 620 582 581
g ground_assumed
f 526 608 527
g ground_assumed
f 609 616 615
g ground_assumed
f 609 594 616
g ground_assumed
f 609 595 594
g ground_assumed
f 609 596 595
g ground_assumed
f 616 584 530
g ground_assumed
f 616 585 584
g ground_assumed
f 607 535 586
g ground_assumed
f 607 537 535
g ground_assumed
f 607 539 537
g ground_assumed
f 607 540 539
g ground_assumed
f 540 590 541
g ground_assumed
f 587 545 588
g ground_assumed
f 587 377 376 545
g ground_assumed
f 521 525 522
g ground_assumed
f 521 381 525
g ground_assumed
f 521 656 381
g ground_assumed
f 456 460 458
g ground_assumed
f 496 653 497
g ground_assumed
f 462 466 463
g ground_assumed
f 462 468 466
g ground_assumed
f 462 469 468
g ground_assumed
f 474 649 475
g ground_assumed
f 474 361 649
g ground_assumed
f 481 648 360 359 484 483
g ground_assumed
f 481 647 648
g ground_assumed
f 481 486 647
g ground_assumed
f 481 487 486
g ground_assumed
f 655 651 416 421 432
g ground_assumed
f 425 660 658
g ground_assumed
f 660 640 638
g ground_assumed
f 555 568 560
g ground_assumed
f 555 618 568
g ground_assumed
f 618 582 620 619
g ground_assumed
f 582 608 526
g ground_assumed
f 608 596 609
g ground_assumed
f 608 599 598 596
g ground_assumed
f 602 585 616
g ground_assumed
f 585 607 586
g ground_assumed
f 585 604 607
g ground_assumed
f 606 540 607
g ground_assumed
f 591 377 587
g ground_assumed
f 473 361 474
g ground_assumed
f 473 480 479 363 362 361
g ground_assumed
f 654 651 655
g ground_assumed
f 425 640 660
g ground_assumed
f 425 641 640
g ground_assumed
f 425 644 641
g ground_assumed
f 555 582 618
g ground_assumed
f 555 608 582
g ground_assumed
f 555 599 608
g ground_assumed
f 602 604 585
g ground_assumed
f 602 605 604
g ground_assumed
f 602 606 605
g ground_assumed
f 602 540 606
g ground_assumed
f 472 480 473
g ground_assumed
f 499 644 425
g ground_assumed
f 499 442 644
g ground_assumed
f 553 599 555
g ground_assumed
f 553 602 601 599
g ground_assumed
f 471 480 472
g ground_assumed
f 471 481 480
g ground_assumed
f 502 442 499
g ground_assumed
f 502 505 442
g ground_assumed
f 503 442 504
g ground_assumed
f 503 443 442
g ground_assumed
f 503 392 443
g ground_assumed
f 549 602 553
g ground_assumed
f 549 540 602
g ground_assumed
f 549 590 540
g ground_assumed
f 469 481 471
g ground_assumed
f 506 392 503
g ground_assumed
f 548 590 549
g ground_assumed
f 462 481 469
g ground_assumed
f 462 487 481
g ground_assumed
f 402 548 547
g ground_assumed
f 402 592 548
g ground_assumed
f 591 590 548
g ground_assumed
f 461 487 462
g ground_assumed
f 592 377 591
g ground_assumed
f 402 377 592
g ground_assumed
f 402 378 377
g ground_assumed
f 398 378 402
g ground_assumed
f 398 521 378
g ground_assumed
f 397 521 398
g ground_assumed
f 397 656 521
g ground_assumed
f 395 656 397
g ground_assumed
f 392 656 395 394 393
g ground_assumed
f 506 656 392
g ground_assumed
f 506 447 656
g ground_assumed
f 505 447 506
g ground_assumed
f 505 449 447
g ground_assumed
f 502 449 505
g ground_assumed
f 502 450 449
g ground_assumed
f 437 450 502
g ground_assumed
f 436 450 437
g ground_assumed
f 436 452 450
g ground_assumed
f 452 508 507
g ground_assumed
f 508 495 509
g ground_assumed
f 508 496 495
g ground_assumed
f 508 653 496
g ground_assumed
f 491 495 494
g ground_assumed
f 491 461 495
g ground_assumed
f 491 487 461
g ground_assumed
f 491 414 487
g ground_assumed
f 436 508 452
g ground_assumed
f 490 414 491
g ground_assumed
f 490 654 488 415 414
g ground_assumed
f 652 508 436 498
g ground_assumed
f 652 653 508
g ground_assumed
f 653 654 490 489
g ground_assumed
f 653 651 654
g ground_assumed
f 653 652 651
g ground_assumed
f 507 453 452
g ground_assumed
f 456 461 460
g ground_assumed
f 456 495 461
g ground_assumed
f 495 453 507
g ground_assumed
f 495 456 453
g ground_assumed
f 348 626 625
g ground_assumed
f 348 427 626
g ground_assumed
f 348 428 427
g ground_assumed
f 428 430 429
g ground_assumed
f 428 627 430
g ground_assumed
f 428 628 627
g ground_assumed
f 350 348 347
g ground_assumed
f 348 628 428
g ground_assumed
f 348 350 628
g ground_assumed
f 345 336 337
g ground_assumed
f 345 338 337 336
g ground_assumed
f 345 339 338
g ground_assumed
f 345 340 339
g ground_assumed
f 345 341 340
g ground_assumed
f 345 342 341
g ground_assumed
f 345 343 342
g ground_assumed
f 345 344 343
g ground_assumed
f 631 633 632
g ground_assumed
f 631 634 633
g ground_assumed
f 631 629 634
g ground_assumed
f 631 630 629
g ground_assumed
f 351 353 352
g ground_assumed
f 646 639 642
g ground_assumed
f 410 391 409
g ground_assumed
f 433 435 434
