# pointcloud_to_mesh 0.5.1; candidate requires geometry validation; coordinates preserved
v -6.548945525 0.775678693 0.930891629
v -6.293696414 0.411731896 0.931587279
v -5.900592074 0.330547304 0.931828448
v -5.837832784 0.634434391 0.931318168
v -5.756526840 1.028126330 0.930657090
v -6.293691091 1.139062426 0.930327541
v -6.788424668 1.818363050 0.929024435
v -7.467418782 1.466215374 0.929460669
v -7.762421550 1.313217672 0.929650199
v -6.784263566 1.111206784 0.930250298
v -10.601477333 2.055570303 0.927638206
v -9.756719677 1.896730995 0.928129407
v -9.673795705 2.298257600 0.927455173
v -12.122320272 3.515435686 0.924720678
v -12.122255338 2.545680806 0.926400315
v -11.152543039 3.030574213 0.925808531
v -10.839843018 3.166233149 0.925653558
v -8.859631320 2.757276386 0.926868414
v -8.636222002 3.839047820 0.925051929
v -7.706051345 3.646947358 0.925622587
v -7.858469652 2.908921871 0.926861862
v -6.415324272 2.610880978 0.927747229
v -6.215174118 3.580029096 0.926119859
v -6.599285624 3.659764913 0.925883500
v -6.631423720 3.504148871 0.926144806
v -7.922101825 3.934282650 0.925069655
v -7.894352633 4.068647163 0.924844033
v -10.551308043 4.563349869 0.923307552
v -10.567832161 4.483338348 0.923441906
v -7.954502851 3.777393474 0.925333100
v -5.682263579 2.517486656 0.928096507
v -4.920981058 2.803015503 0.927796707
v -4.820299219 3.290527562 0.926978088
v -5.493743005 3.430323116 0.926563693
v 2.560890276 -1.604100917 0.937343729
v 2.674192739 -1.055478468 0.936422495
v 2.537549147 -1.028381809 0.936340610
v 2.218291852 -2.574259239 0.938936411
v 2.923411744 -2.719881825 0.939369001
v 3.382096761 -3.731151648 0.941237858
v 7.050346263 -4.429399444 0.943385571
v 7.096439857 -4.206209411 0.943010795
v 10.518839954 -3.584860828 0.942810072
v 10.936431882 -2.743532722 0.941459708
v 10.945897350 -2.697699929 0.941382746
v 11.085351202 -2.022449699 0.940248882
v 11.368627583 -0.650795642 0.937945633
v 11.517354230 0.145990901 0.936603639
v 11.578717970 0.443120589 0.936104706
v 9.147625533 0.895772644 0.934698833
v 9.047833610 0.412569651 0.935510216
v 8.996885931 0.165875622 0.935924459
v 8.728022779 -0.363690281 0.936772894
v 9.841882278 -1.363229663 0.938789028
v 9.757299826 -1.772786800 0.939476747
v 9.620616848 -2.434620165 0.940588082
v 9.553751811 -2.758387716 0.941131745
v 9.284958916 -3.530377968 0.942400078
v 9.140893682 -4.227956995 0.943571437
v 8.147137688 -4.465372906 0.943728438
v 8.353315000 -3.467040659 0.942052062
v 7.744169760 -3.341238925 0.941678352
v 6.331752024 -3.378951768 0.941382372
v 5.305606714 -3.167030454 0.940752834
v 4.829038703 -2.399275818 0.939301172
v 3.826887057 -2.192309717 0.938686354
v 3.951111213 -1.590803276 0.937676318
v 2.909319991 -2.060810818 0.938223882
v 7.810471681 -4.353672505 0.943448853
v 10.219828244 -5.032707006 0.945241261
v 7.766663553 -4.565796073 0.943805045
v 7.758265771 0.121269125 0.935684876
v 7.758288125 -0.363657281 0.936524777
v -0.097591616 1.709365396 0.930924745
v 0.021454848 2.285800908 0.929956808
v -3.791010618 3.076935971 0.927611323
v -3.394274074 1.818384340 0.929892627
v -2.398926664 2.184641112 0.929512880
v 1.560369432 1.966449937 0.930903582
v 0.951345544 2.092839271 0.930528886
v 0.877887040 1.737145459 0.931126159
v 0.091874227 1.899474192 0.930643941
v -0.042260356 1.249980425 0.931734556
v 1.352897697 0.961849957 0.932590483
v 3.369999385 1.702082138 0.931824375
v 3.347980427 1.595464025 0.932003405
v 7.652860779 0.702091411 0.934651927
v 7.746726671 1.156599941 0.933888726
v 4.188865633 1.818979391 0.931831375
v 4.132214402 1.544668167 0.932291992
v -9.218639963 1.305687451 2.774694315
v -8.728065359 0.848518754 3.001926538
v -8.489286235 1.160880088 2.770957940
v -9.219031696 1.305768352 2.774694326
v 1.628367090 2.295701753 0.711650413
v 1.016754356 2.409555623 0.719622198
v -1.312928130 3.343851189 0.430297748
v -1.362776189 3.354145897 0.430299097
v -1.370886558 3.314874637 0.456447222
v 8.047922721 2.615022918 -0.339069293
v 9.160704953 2.414208520 -0.357618142
v 9.304770187 3.111787547 -0.822089689
v 11.992951423 1.919349333 -0.415207185
v 12.266357829 3.243211931 -1.296679370
v 10.223396423 3.227687371 -1.017278353
v 5.893862352 4.121830277 -1.017161114
v 5.658985255 2.984530651 -0.259908822
v 4.215741942 3.282591770 -0.259869740
v 4.512225483 4.718196283 -1.215743446
v 3.390105521 4.949938450 -1.215713061
v 1.939605563 4.242792828 -0.572800482
v 1.454634448 5.212623286 -1.128153198
v 0.489018316 4.990328492 -0.858823193
v -0.537126994 5.202249806 -0.858795406
v -0.432723690 5.707781595 -1.195395452
v -1.458868999 5.919702909 -1.195367665
v -2.404596152 6.035982757 -1.144872035
v -1.330477354 5.692948955 -1.067500714
v -2.837290036 5.197671423 -0.552457038
v -2.424437229 5.939910172 -1.080903680
v -2.915135314 5.669670631 -0.843603047
v -4.358280694 5.967711525 -0.843563968
v -4.848925554 6.667304572 -1.225597002
v -5.329592925 5.960105725 -0.710581113
v -6.355836169 6.172047265 -0.710553323
v -6.255619514 6.657306857 -1.033655460
v -7.273417072 6.182344102 -0.596090639
v -9.308979191 6.202153244 -0.340229456
v -9.126809380 7.084238643 -0.927551543
v -9.447834798 7.150537370 -0.927542850
v -9.950556327 4.716306809 0.693249621
v -6.131371938 5.925452234 -0.582688974
v -6.565913781 3.821354889 0.818289713
v -4.779363092 3.488744598 0.795027734
v -4.757074746 3.596667115 0.723169297
v -3.898983011 3.419452518 0.723146061
v 0.082919715 2.583420262 0.731775939
v -0.528693019 2.697274132 0.739747724
v -0.576768698 2.464486634 0.894745459
v -1.506841422 2.656566871 0.894770645
v -1.454675963 3.273057110 0.494204196
v -1.454642964 4.242791763 -0.125064264
v 1.939529984 3.757886647 -0.263133647
v 2.909340217 4.242759829 -0.700697168
v -0.484865730 3.757930291 0.056640675
v -0.880245864 3.560217352 0.235053055
v 2.967497705 3.069754992 0.040701949
v 4.450116598 3.083984065 -0.163956965
v 4.188865633 1.818979391 0.678325637
v 5.742457441 1.691832138 0.554586372
v 5.910530177 2.505658014 0.012713769
v 6.864694497 2.308602339 0.012687931
v 6.696621762 1.494776463 0.554560535
v 7.746726671 1.156599941 0.631997712
v -1.648379551 4.153633058 -0.042572485
v -2.995452345 4.431832874 -0.042536008
v -8.728083455 5.455024216 0.060254642
v -7.816768155 4.444319372 0.585470298
v 10.090875611 2.222108058 -0.357643330
v 9.443178707 2.326872225 -0.339107075
v 9.426573687 2.246468971 -0.285571888
v -7.878269214 5.722269339 -0.222504817
v -7.454451069 6.198696837 -0.582653147
v 10.234940845 2.919687085 -0.822114877
v -7.638153749 6.884933695 -0.996645798
v 3.030964882 3.377069745 -0.163918536
v 2.909307217 3.273025175 -0.081428709
v 1.939603434 -6.667283282 -1.299802290
v 2.108758758 -6.573048011 -1.211486794
v 1.883218326 -6.526469008 -1.209073741
v 7.718628325 -7.344201572 -1.001202084
v 7.653886950 -7.657686124 -1.228565575
v 7.758214675 -7.637060515 -1.200257473
v 9.289160468 -6.783152236 -0.400237312
v 9.164936311 -7.384658677 -0.836496782
v 9.846528788 -6.840262263 -0.365733264
v 7.598530142 -5.379915748 0.353315795
v 7.758230642 -5.455068925 0.322182859
v 8.215010800 -5.349063559 0.457079026
v 9.091319197 -6.528781086 -0.249146720
v 7.744148470 -6.250561045 -0.234733362
v 7.845917155 -6.485091117 -0.384796075
v 9.289143436 -5.570895299 0.445586898
v 0.762009570 -5.006283107 -0.297962445
v -0.817654855 -4.680048063 -0.281061642
v -4.848900006 -4.000367414 -0.344585608
v -5.333773188 -3.030557181 0.267398137
v -6.207553415 -3.050442968 0.136963447
v -6.413730727 -4.048775215 -0.587105104
v -5.732604498 -4.189442588 -0.594392462
v -5.927293806 -5.132148711 -1.278116601
v -5.177499289 -4.902245988 -1.017686405
v -4.999516127 -4.040432786 -0.392632133
v -4.455926599 -5.051266435 -1.025406499
v -2.872851540 -5.762957440 -1.310796029
v -1.953615350 -5.765733636 -1.190109559
v -1.440542695 -5.871694293 -1.195598915
v -0.983860471 -5.765668702 -1.060701700
v -0.470787816 -5.871629359 -1.066191056
v 1.487001410 -6.146887982 -0.997083370
v 1.428024262 -6.432461539 -1.204203627
v 1.454659996 -5.455048700 -0.518681485
v 3.009594129 -5.333426163 -0.226398143
v 2.837334744 -6.167524236 -0.831351238
v 4.772741948 -6.308888852 -0.671807556
v 4.896966105 -5.707382410 -0.235548085
v 5.846874584 -6.530720592 -0.683299683
v 4.803491946 -7.129568995 -1.240317700
v 5.353687715 -7.298540162 -1.284819180
v 6.412640687 -7.517236971 -1.296148901
v 3.394208076 -3.757853648 0.924230464
v 2.981410623 -4.015284149 0.689547799
v 2.763745307 -5.069242521 -0.074865164
v 4.848886168 -4.970121229 0.272446489
v 5.818696401 -4.485248047 0.740126370
v 5.818663401 -5.454982701 0.063510248
v 1.368489320 -4.781091828 -0.059937343
v 1.614348787 -3.590614410 0.803489899
v 1.505379823 -3.373896987 0.940163719
v 1.454675963 -3.273057110 1.003758846
v 1.367009676 -2.242936985 1.710808810
v -0.028148378 -1.954806517 1.725735583
v -0.480741886 -2.040539686 1.605542398
v -1.458801936 -1.838549023 1.616006646
v -1.466145871 -1.389074478 1.928638285
v -3.422461838 -0.985052702 1.949568878
v -4.344181489 -0.752526005 1.988854644
v -5.305638649 -1.196952726 1.550509696
v -7.165882031 -0.812772028 1.570412410
v -7.255103542 -0.275217108 1.933578020
v -8.746334180 0.032754437 1.949532672
v -9.697782981 -0.363705184 1.545990835
v -10.663443821 0.383852835 1.938767116
v -12.250649112 0.711645232 1.955748599
v -11.962534612 -0.075188305 1.445185900
v -10.471303973 -0.383159850 1.429231248
v -10.803283020 -1.990637338 0.263362972
v -9.750031470 -1.707407794 0.601481131
v -9.572048309 -0.845594592 1.226535403
v -8.819860813 -1.899508256 0.591529250
v -12.102466421 -1.722327722 0.277262914
v -12.150481424 -1.954821420 0.108640318
v -11.172323440 -2.156832308 0.098175022
v -10.671801153 -3.778172682 -0.966312470
v -9.645655843 -3.990093996 -0.977291181
v -9.745872498 -4.475353589 -1.329239354
v -7.621730758 -4.270944399 -0.903262704
v -7.409809444 -3.244799089 -0.159021947
v -7.758239158 -2.788089188 0.113158132
v -7.273425588 -2.060814012 0.685271667
v -5.818694272 -2.303249006 0.710174842
v -4.863014114 -2.856370001 0.451731462
v -1.454646157 -3.273035820 0.615678377
v -0.784663615 -2.938018807 0.938803141
v -0.484933858 -2.788142413 1.083359306
v -0.484868924 -3.757897292 0.406742136
v -4.277862536 -2.977216522 0.445470935
v -4.436024845 -3.743055072 -0.109975021
v -0.635485045 -3.797962664 0.358695612
v -4.277943438 -4.189453233 -0.400352227
v -1.065856206 -5.677666035 -1.010237711
v 1.911369897 -5.106618985 -0.214648260
v 6.303564260 -6.182388810 -0.379337486
v -8.641877652 -1.037695054 1.216583522
v -6.303545099 -1.818365179 0.983814489
v -6.218105409 -1.903810685 0.935594118
v -0.057972266 -3.917231607 0.352516812
v 0.071995892 -3.287912104 0.808948488
v -0.877942393 -4.767767574 -0.350308251
v -0.047988390 -5.445127629 -0.712208304
v 1.161844696 -3.070239336 1.106207771
v 0.052228264 -4.959868036 -0.360260132
v -9.764101934 1.860985334 3.147521386
v -9.756719677 1.896730995 3.115228006
v -10.601477333 2.055570303 3.113382119
v -10.619584598 2.050833329 3.120426500
v -10.709870601 1.613658996 3.515378966
v -9.219031696 1.305768352 3.542624018
v -8.489286235 1.160880088 3.550896175
v -8.200890306 1.538148150 3.176089048
v 4.877467774 -0.855158336 3.147406515
v 4.912554534 -1.267578616 3.500583622
v 6.307712588 -1.555709084 3.526080109
v 5.881651656 -1.043961578 3.149589551
v 5.798902161 -0.944570049 3.076467608
v 4.868731503 -0.752469587 3.059468757
v 2.917977978 -0.486653098 3.143069594
v 2.889788681 -0.623148640 3.266382531
v 3.811243274 -0.813449045 3.283222095
v 3.842815059 -0.660575135 3.145112597
v 4.010645090 0.152075541 2.410946925
v 4.507656681 0.049431842 2.420029802
v 3.879118515 0.363649830 2.248089872
v 4.848928748 0.848523012 1.669665649
v 4.848954295 -0.021053534 2.426267009
v 5.798907483 -0.217239519 2.443627385
v 6.784274211 0.343454276 1.796721711
v 7.546293361 0.186080756 1.810647596
v 7.652860779 0.702091411 1.344472743
v 3.347980427 1.595464025 1.262041295
v 4.848895748 -0.121211642 2.513422524
v -5.490163117 3.447657313 1.077097779
v -5.493743005 3.430323116 1.092757857
v -4.820299219 3.290527562 1.105686941
v -4.779363092 3.488744598 0.926613511
v -6.565913781 3.821354889 0.925593022
v -6.599285624 3.659764913 1.071576796
v -6.215174118 3.580029096 1.078951805
v -6.211735807 3.596677760 1.063911052
v -9.991735158 4.516914573 0.873381024
v -10.537615475 4.629650725 0.863405072
v 1.021952273 2.434724486 0.907272660
v 1.016754356 2.409555623 0.930010739
v 1.628367090 2.295701753 0.930348904
v 1.710441598 2.693115159 0.571317294
v 2.841473492 2.459532485 0.591986880
v -1.312928130 3.343851189 0.493143356
v -0.432703464 3.162065661 0.509229445
v -0.528693019 2.697274132 0.929131865
v 0.082919715 2.583420262 0.929470031
v 0.091879549 2.626804722 0.890275599
v 11.757469695 1.308655256 0.154159130
v 11.978227362 1.848053878 -0.350797429
v 3.075290354 1.652054179 3.017915544
v 2.717261045 -0.081561422 3.017915544
v 2.616569626 -0.645756334 3.017915544
v 2.537549147 -1.028381809 3.017915544
v 2.674192739 -1.055478468 3.017915544
v 2.756166120 -0.658554728 3.017915544
v 2.768645166 -0.598129871 3.017915544
v 2.889788681 -0.623148640 3.017915544
v 2.917977978 -0.486653098 3.017915544
v 3.347980427 1.595464025 3.017915544
v 3.369999385 1.702082138 3.017915544
v 3.097255094 1.758409763 3.017915544
v -6.548945558 0.775678673 -3.885818623
v -6.293696414 0.411731896 -3.885818623
v -5.900592074 0.330547304 -3.885818623
v -5.837832784 0.634434391 -3.885818623
v -5.756526840 1.028126330 -3.885818623
v -6.293691091 1.139062426 -3.885818623
v -6.788424668 1.818363050 -3.885818623
v -7.467418747 1.466215370 -3.885818623
v -7.762421550 1.313217672 -3.885818623
v -6.784263566 1.111206784 -3.885818623
v -10.601477316 2.055570264 0.927638206
v -9.673795705 2.298257600 -3.885818623
v -10.601477316 2.055570264 -3.885818623
v -10.601477316 2.055570264 3.113382150
v -9.756719677 1.896730995 -3.885818623
v -11.152543039 3.030574213 -3.885818623
v -12.122320272 3.515435686 -3.885818623
v -12.122255338 2.545680806 -3.885818623
v -8.636222002 3.839047820 -3.885818623
v -7.706051345 3.646947358 -3.885818623
v -7.858469652 2.908921871 -3.885818623
v -6.415324272 2.610880978 -3.885818623
v -6.215174118 3.580029096 -3.885818623
v -6.599285624 3.659764913 -3.885818623
v -6.631423720 3.504148871 -3.885818623
v -7.954502851 3.777393474 -3.885818623
v -7.922101825 3.934282650 -3.885818623
v -7.894352633 4.068647163 -3.885818623
v -10.551308043 4.563349869 -3.885818623
v -10.567832161 4.483338348 -3.885818623
v -10.839843018 3.166233149 -3.885818623
v -8.859631320 2.757276386 -3.885818623
v -5.493743005 3.430323116 -3.885818623
v -5.682263579 2.517486656 -3.885818623
v -4.920981058 2.803015503 -3.885818623
v -4.820299219 3.290527562 -3.885818623
v 2.537549147 -1.028381809 -3.885818623
v 2.218291852 -2.574259239 -3.885818623
v 2.923411744 -2.719881825 -3.885818623
v 3.382096750 -3.731151643 -3.885818623
v 7.050346263 -4.429399444 -3.885818623
v 7.096439857 -4.206209411 -3.885818623
v 7.810471681 -4.353672505 -3.885818623
v 7.766663553 -4.565796073 -3.885818623
v 10.219828244 -5.032707006 -3.885818623
v 10.518839954 -3.584860828 -3.885818623
v 10.936431882 -2.743532722 -3.885818623
v 10.945897350 -2.697699929 -3.885818623
v 11.085351202 -2.022449699 -3.885818623
v 11.368627583 -0.650795642 -3.885818623
v 11.517354230 0.145990901 -3.885818623
v 11.578717970 0.443120589 -3.885818623
v 9.147625533 0.895772644 -3.885818623
v 9.047833610 0.412569651 -3.885818623
v 8.996885931 0.165875622 -3.885818623
v 8.728022779 -0.363690281 -3.885818623
v 9.841882278 -1.363229663 -3.885818623
v 9.757299826 -1.772786800 -3.885818623
v 9.620616848 -2.434620165 -3.885818623
v 9.553751811 -2.758387716 -3.885818623
v 9.284958916 -3.530377968 -3.885818623
v 9.140893682 -4.227956995 -3.885818623
v 8.147137688 -4.465372906 -3.885818623
v 8.353315000 -3.467040659 -3.885818623
v 7.744169760 -3.341238925 -3.885818623
v 6.331752024 -3.378951768 -3.885818623
v 5.305606714 -3.167030454 -3.885818623
v 4.829038703 -2.399275818 -3.885818623
v 3.826887057 -2.192309717 -3.885818623
v 3.951111213 -1.590803276 -3.885818623
v 2.909319991 -2.060810818 -3.885818623
v 2.560890276 -1.604100917 -3.885818623
v 2.674192739 -1.055478468 -3.885818623
v 7.758288125 -0.363657281 -3.885818623
v 7.758265771 0.121269125 -3.885818623
v -3.791010663 3.076935996 -3.885818623
v -3.394274074 1.818384340 -3.885818623
v -2.398926664 2.184641112 -3.885818623
v -0.097591616 1.709365396 -3.885818623
v 0.021454848 2.285800908 -3.885818623
v 0.877887040 1.737145459 -3.885818623
v 0.091874227 1.899474192 -3.885818623
v -0.042260356 1.249980425 -3.885818623
v 1.352897697 0.961849957 -3.885818623
v 1.560369432 1.966449937 -3.885818623
v 0.951345544 2.092839271 -3.885818623
v 7.652860779 0.702091411 -3.885818623
v 7.746726671 1.156599941 -3.885818623
v 4.188865633 1.818979391 -3.885818623
v 4.132214402 1.544668167 -3.885818623
v 3.369999385 1.702082138 -3.885818623
v -9.219031696 1.305768352 -3.885818623
v -9.218639963 1.305687451 -3.885818623
v -8.728065359 0.848518754 -3.885818623
v -8.489286243 1.160880135 -3.885818623
v 1.628367090 2.295701753 -3.885818623
v 1.016754356 2.409555623 -3.885818623
v -1.370886558 3.314874637 -3.885818623
v -1.312928130 3.343851189 -3.885818623
v -1.362776189 3.354145897 -3.885818623
v 3.030964882 3.377069745 -3.885818623
v 4.450116598 3.083984065 -3.885818623
v 4.409220922 2.885962895 -0.032107818
v 4.409220922 2.885962895 -3.885818623
v 8.009110256 2.427088880 -0.213936498
v 8.009110256 2.427088880 -3.885818623
v 8.047922721 2.615022918 -3.885818623
v 9.443178707 2.326872225 -3.885818623
v 9.426573687 2.246468971 -3.885818623
v 11.992951423 1.919349333 -3.885818623
v 12.266357829 3.243211931 -3.885818623
v 10.223396423 3.227687371 -3.885818623
v 5.893862352 4.121830277 -3.885818623
v 5.658985255 2.984530651 -3.885818623
v 4.215741942 3.282591770 -3.885818623
v 4.512225483 4.718196283 -3.885818623
v 3.390105521 4.949938450 -3.885818623
v 1.939605563 4.242792828 -3.885818623
v 1.454634448 5.212623286 -3.885818623
v 0.489018316 4.990328492 -3.885818623
v -0.537126994 5.202249806 -3.885818623
v -0.432723690 5.707781595 -3.885818623
v -1.458868999 5.919702909 -3.885818623
v -2.404596152 6.035982757 -3.885818623
v -1.330477354 5.692948955 -3.885818623
v -1.648379551 4.153633058 -3.885818623
v -2.995452345 4.431832874 -3.885818623
v -2.837290036 5.197671423 -3.885818623
v -2.424437229 5.939910172 -3.885818623
v -2.915135314 5.669670631 -3.885818623
v -4.358280694 5.967711525 -3.885818623
v -4.848925554 6.667304572 -3.885818623
v -5.329592925 5.960105725 -3.885818623
v -6.355836169 6.172047265 -3.885818623
v -6.255619514 6.657306857 -3.885818623
v -7.273417072 6.182344102 -3.885818623
v -7.638153749 6.884933695 -3.885818623
v -7.878269214 5.722269339 -3.885818623
v -8.728083455 5.455024216 -3.885818623
v -9.308979191 6.202153244 -3.885818623
v -9.126809380 7.084238643 -3.885818623
v -9.447834798 7.150537370 -3.885818623
v -9.950556327 4.716306809 -3.885818623
v -7.816768155 4.444319372 -3.885818623
v -7.454451069 6.198696837 -3.885818623
v -6.131371938 5.925452234 -3.885818623
v -6.472634425 4.273023353 0.517553678
v -6.472634425 4.273023353 -3.885818623
v -6.565913781 3.821354889 -3.885818623
v -4.779363092 3.488744598 -3.885818623
v -4.757074746 3.596667115 -3.885818623
v -3.898983011 3.419452518 -3.885818623
v 0.082919715 2.583420262 -3.885818623
v -0.528693019 2.697274132 -3.885818623
v -0.576768698 2.464486634 -3.885818623
v -1.506841422 2.656566871 -3.885818623
v -1.462527660 2.871138771 0.751901466
v -1.462527660 2.871138771 -3.885818623
v -1.454675963 3.273057110 -3.885818623
v -1.454642964 4.242791763 -3.885818623
v -0.484865730 3.757930291 -3.885818623
v -0.880245833 3.560217340 -3.885818623
v 2.967497705 3.069754992 -3.885818623
v 6.696621762 1.494776463 -3.885818623
v 5.742457441 1.691832138 -3.885818623
v 5.910530177 2.505658014 -3.885818623
v 6.864694497 2.308602339 -3.885818623
v 10.090875611 2.222108058 -3.885818623
v 9.160704953 2.414208520 -3.885818623
v 9.304770187 3.111787547 -3.885818623
v 10.234940845 2.919687085 -3.885818623
v 2.909340217 4.242759829 -3.885818623
v 2.909307217 3.273025175 -3.885818623
v 1.939529984 3.757886647 -3.885818623
v 1.883218326 -6.526469008 -3.885818623
v 1.939603434 -6.667283282 -3.885818623
v 2.108758758 -6.573048011 -3.885818623
v 7.758214675 -7.637060515 -3.885818623
v 7.718628325 -7.344201572 -3.885818623
v 7.653886950 -7.657686124 -3.885818623
v 9.164936311 -7.384658677 -3.885818623
v 9.846528788 -6.840262263 -3.885818623
v 7.598530142 -5.379915748 -3.885818623
v 7.758230642 -5.455068925 -3.885818623
v 8.215010800 -5.349063559 -3.885818623
v 9.289143436 -5.570895299 -3.885818623
v 9.091319197 -6.528781086 -3.885818623
v 7.744148470 -6.250561045 -3.885818623
v 7.845917155 -6.485091117 -3.885818623
v 9.289160468 -6.783152236 -3.885818623
v -6.218105386 -1.903810654 -3.885818623
v -5.818694272 -2.303249006 -3.885818623
v -6.207553415 -3.050442968 -3.885818623
v -6.413730727 -4.048775215 -3.885818623
v -5.732604498 -4.189442588 -3.885818623
v -5.927293806 -5.132148711 -3.885818623
v -2.872851540 -5.762957440 -3.885818623
v -1.953615350 -5.765733636 -3.885818623
v -1.440542695 -5.871694293 -3.885818623
v -0.983860471 -5.765668702 -3.885818623
v -0.470787816 -5.871629359 -3.885818623
v 1.487001410 -6.146887982 -3.885818623
v 1.428024262 -6.432461539 -3.885818623
v 1.454659996 -5.455048700 -3.885818623
v 1.911369897 -5.106618985 -3.885818623
v 3.009594129 -5.333426163 -3.885818623
v 2.837334744 -6.167524236 -3.885818623
v 4.803491946 -7.129568995 -3.885818623
v 5.353687715 -7.298540162 -3.885818623
v 6.412640687 -7.517236971 -3.885818623
v 3.394208076 -3.757853648 -3.885818623
v 2.981410623 -4.015284149 -3.885818623
v 2.763745307 -5.069242521 -3.885818623
v 1.368489320 -4.781091828 -3.885818623
v 1.614348787 -3.590614410 -3.885818623
v 1.505379823 -3.373896987 -3.885818623
v 1.454675963 -3.273057110 -3.885818623
v 1.367009676 -2.242936985 -3.885818623
v -0.028148378 -1.954806517 -3.885818623
v -0.480741886 -2.040539686 -3.885818623
v -1.458801936 -1.838549023 -3.885818623
v -1.466145871 -1.389074478 -3.885818623
v -3.422461838 -0.985052702 -3.885818623
v -4.344181489 -0.752526005 -3.885818623
v -5.305638649 -1.196952726 -3.885818623
v -7.165882031 -0.812772028 -3.885818623
v -7.255103542 -0.275217108 -3.885818623
v -8.746334180 0.032754437 -3.885818623
v -9.697782981 -0.363705184 -3.885818623
v -10.663443821 0.383852835 -3.885818623
v -12.250649112 0.711645232 -3.885818623
v -11.962534612 -0.075188305 -3.885818623
v -10.471303973 -0.383159850 -3.885818623
v -10.612598333 -1.067322012 0.933023390
v -10.612598333 -1.067322012 -3.885818623
v -10.803283020 -1.990637338 -3.885818623
v -12.102466421 -1.722327722 -3.885818623
v -12.150481424 -1.954821420 -3.885818623
v -11.172323440 -2.156832308 -3.885818623
v -10.671801153 -3.778172682 -3.885818623
v -9.645655843 -3.990093996 -3.885818623
v -9.745872498 -4.475353589 -3.885818623
v -7.621730758 -4.270944399 -3.885818623
v -7.409809444 -3.244799089 -3.885818623
v -7.758239158 -2.788089188 -3.885818623
v -7.273425588 -2.060814012 -3.885818623
v -6.303545099 -1.818365179 -3.885818623
v -5.177499289 -4.902245988 -3.885818623
v -4.999516127 -4.040432786 -3.885818623
v -4.277943438 -4.189453233 -3.885818623
v -4.455926599 -5.051266435 -3.885818623
v 6.303564260 -6.182388810 -3.885818623
v 5.846874584 -6.530720592 -3.885818623
v 4.772741948 -6.308888852 -3.885818623
v 4.896966105 -5.707382410 -3.885818623
v 5.818663401 -5.454982701 -3.885818623
v 5.818696401 -4.485248047 -3.885818623
v 4.848886168 -4.970121229 -3.885818623
v -0.635485045 -3.797962664 -3.885818623
v -0.057972266 -3.917231607 -3.885818623
v 0.071995892 -3.287912104 -3.885818623
v 0.550810785 -3.192279617 0.939546571
v 0.550810785 -3.192279617 -3.885818623
v 1.161844696 -3.070239336 -3.885818623
v 1.114497130 -3.299501235 0.939929129
v 1.114497130 -3.299501235 -3.885818623
v 0.762009570 -5.006283107 -3.885818623
v -0.817654855 -4.680048063 -3.885818623
v -0.877942393 -4.767767574 -3.885818623
v 0.052228264 -4.959868036 -3.885818623
v -0.047988390 -5.445127629 -3.885818623
v -1.065856206 -5.677666035 -3.885818623
v -0.484933858 -2.788142413 -3.885818623
v -0.484868924 -3.757897292 -3.885818623
v -1.454646157 -3.273035820 -3.885818623
v -0.784663646 -2.938018753 -3.885818623
v -5.333773188 -3.030557181 -3.885818623
v -4.863014114 -2.856370001 -3.885818623
v -4.277862536 -2.977216522 -3.885818623
v -4.436024845 -3.743055072 -3.885818623
v -4.848900006 -4.000367414 -3.885818623
v -8.722293680 -1.427077928 0.934172637
v -8.641877652 -1.037695054 -3.885818623
v -8.722293680 -1.427077928 -3.885818623
v -8.819860813 -1.899508256 -3.885818623
v -9.750031470 -1.707407794 -3.885818623
v -9.655457691 -1.249471597 0.933612242
v -9.655457691 -1.249471597 -3.885818623
v -9.572048309 -0.845594592 -3.885818623
v -10.619584598 2.050833329 -3.885818623
v -10.709870601 1.613658996 -3.885818623
v -8.200890306 1.538148150 -3.885818623
v -9.764101934 1.860985334 -3.885818623
v 4.912554534 -1.267578616 -3.885818623
v 6.307712588 -1.555709084 -3.885818623
v 5.881651644 -1.043961535 -3.885818623
v 5.798902161 -0.944570049 -3.885818623
v 4.868731503 -0.752469587 -3.885818623
v 4.877467777 -0.855158380 -3.885818623
v 2.889788681 -0.623148640 -3.885818623
v 3.811243274 -0.813449045 -3.885818623
v 3.842815059 -0.660575135 -3.885818623
v 4.010645090 0.152075541 -3.885818623
v 4.507656681 0.049431842 -3.885818623
v 3.879118515 0.363649830 -3.885818623
v 4.848928748 0.848523012 -3.885818623
v 4.848954295 -0.021053534 -3.885818623
v 5.798907483 -0.217239519 -3.885818623
v 6.784274211 0.343454276 -3.885818623
v 7.546293361 0.186080756 -3.885818623
v 4.848895748 -0.121211642 -3.885818623
v -5.490163117 3.447657313 -3.885818623
v -6.211735807 3.596677760 -3.885818623
v -9.991735158 4.516914573 -3.885818623
v -10.537615475 4.629650725 -3.885818623
v 1.710441598 2.693115159 -3.885818623
v 2.841473492 2.459532485 -3.885818623
v -0.432703464 3.162065661 -3.885818623
v 0.091879549 2.626804722 -3.885818623
v 1.021952273 2.434724486 -3.885818623
v 11.757469695 1.308655256 -3.885818623
v 11.978227362 1.848053878 -3.885818623
v 2.616569626 -0.645756334 -3.885818623
v 2.756166120 -0.658554728 -3.885818623
v 2.768645166 -0.598129871 -3.885818623
v 3.097255094 1.758409763 -3.885818623
v 3.075290354 1.652054179 -3.885818623
v 2.717261045 -0.081561422 -3.885818623
g roof
f 1 2 3
g roof
f 1 3 4
g roof
f 1 4 5
g roof
f 1 5 6
g roof
f 1 6 7
g roof
f 8 9 10
g roof
f 10 1 7
g roof
f 10 7 8
g roof
f 11 346 12 13
g roof
f 14 15 16
g roof
f 17 18 19
g roof
f 20 21 22
g roof
f 22 23 24
g roof
f 22 24 25
g roof
f 26 27 28
g roof
f 26 28 29
g roof
f 29 17 19
g roof
f 29 19 20
g roof
f 20 22 25
g roof
f 20 25 30
g roof
f 30 26 29
g roof
f 30 29 20
g roof
f 31 32 33
g roof
f 31 33 34
g roof
f 35 36 37
g roof
f 35 37 38
g roof
f 35 38 39
g roof
f 35 39 40
g roof
f 40 41 42
g roof
f 43 44 45
g roof
f 43 45 46
g roof
f 43 46 47
g roof
f 43 47 48
g roof
f 43 48 49
g roof
f 49 50 51
g roof
f 49 51 52
g roof
f 49 52 53
g roof
f 49 53 54
g roof
f 49 54 55
g roof
f 49 55 56
g roof
f 49 56 57
g roof
f 49 57 58
g roof
f 49 58 59
g roof
f 60 61 62
g roof
f 60 62 63
g roof
f 60 63 64
g roof
f 64 65 66
g roof
f 66 67 68
g roof
f 68 35 40
g roof
f 68 40 42
g roof
f 68 42 69
g roof
f 43 49 59
g roof
f 64 66 68
g roof
f 64 68 69
g roof
f 70 43 59
g roof
f 70 59 60
g roof
f 60 64 69
g roof
f 60 69 71
g roof
f 60 71 70
g roof
f 53 72 73
g roof
f 74 75 76
g roof
f 76 77 78
g roof
f 76 78 74
g roof
f 79 80 81
g roof
f 81 82 83
g roof
f 81 83 84
g roof
f 81 84 79
g roof
f 85 86 87
g roof
f 87 88 89
g roof
f 87 89 90
g roof
f 87 90 85
g roof
f 91 92 93
g roof
f 91 93 94
g roof
f 95 96 80
g roof
f 95 80 79
g roof
f 97 98 99
g roof
f 100 101 102
g roof
f 103 104 105
g roof
f 105 106 107
g roof
f 108 109 110
g roof
f 111 112 113
g roof
f 111 113 114
g roof
f 114 115 116
g roof
f 116 117 118
g roof
f 119 120 121
g roof
f 119 121 122
g roof
f 122 123 124
g roof
f 125 126 127
g roof
f 128 129 130
g roof
f 128 130 131
g roof
f 132 482 133 134
g roof
f 132 134 135
g roof
f 132 135 136
g roof
f 75 137 138
g roof
f 75 138 139
g roof
f 75 139 140
g roof
f 140 492 99 141
g roof
f 140 141 142
g roof
f 142 143 144
g roof
f 145 146 147
g roof
f 148 438 149 150
g roof
f 148 150 151
g roof
f 148 151 152
g roof
f 153 150 149
g roof
f 153 149 154
g roof
f 153 154 440 100
g roof
f 114 116 118
g roof
f 114 118 155
g roof
f 156 119 122
g roof
f 156 122 124
g roof
f 156 124 125
g roof
f 157 128 131
g roof
f 157 131 158
g roof
f 76 75 140
g roof
f 76 140 142
g roof
f 142 145 147
g roof
f 152 153 100
g roof
f 152 100 102
g roof
f 159 101 100
g roof
f 159 100 160
g roof
f 159 160 161
g roof
f 159 161 103
g roof
f 162 157 158
g roof
f 162 158 163
g roof
f 164 159 103
g roof
f 164 103 105
g roof
f 165 162 163
g roof
f 102 164 105
g roof
f 102 105 107
g roof
f 127 165 163
g roof
f 127 163 132
g roof
f 152 102 107
g roof
f 152 107 108
g roof
f 125 127 132
g roof
f 148 152 108
g roof
f 156 125 132
g roof
f 156 132 136
g roof
f 156 136 76
g roof
f 166 148 108
g roof
f 166 108 110
g roof
f 155 156 76
g roof
f 155 76 142
g roof
f 114 155 142
g roof
f 167 143 142
g roof
f 167 142 147
g roof
f 167 147 166
g roof
f 167 166 110
g roof
f 111 114 142
g roof
f 111 142 144
g roof
f 144 167 110
g roof
f 144 110 111
g roof
f 168 169 170
g roof
f 171 172 173
g roof
f 174 175 176
g roof
f 174 176 70
g roof
f 70 71 177
g roof
f 177 178 179
g roof
f 180 181 182
g roof
f 180 182 174
g roof
f 180 174 70
g roof
f 70 177 179
g roof
f 70 179 183
g roof
f 70 183 180
g roof
f 184 185 186
g roof
f 186 187 188
g roof
f 186 188 189
g roof
f 186 189 190
g roof
f 190 191 192
g roof
f 190 192 193
g roof
f 194 192 191
g roof
f 194 191 195
g roof
f 194 195 196
g roof
f 194 196 197
g roof
f 194 197 198
g roof
f 198 199 200
g roof
f 200 201 170
g roof
f 200 170 202
g roof
f 203 204 205
g roof
f 203 205 206
g roof
f 207 205 204
g roof
f 207 204 169
g roof
f 207 169 208
g roof
f 207 208 209
g roof
f 207 209 210
g roof
f 41 40 211
g roof
f 41 211 212
g roof
f 213 214 215
g roof
f 216 214 213
g roof
f 217 218 219
g roof
f 217 219 220
g roof
f 217 220 221
g roof
f 221 222 223
g roof
f 224 225 226
g roof
f 224 226 227
g roof
f 224 227 228
g roof
f 229 230 231
g roof
f 229 231 232
g roof
f 232 233 234
g roof
f 232 234 235
g roof
f 232 235 236
g roof
f 237 238 622 239
g roof
f 240 238 237
g roof
f 237 241 242
g roof
f 237 242 243
g roof
f 237 243 244
g roof
f 237 244 245
g roof
f 245 246 247
g roof
f 245 247 248
g roof
f 245 248 249
g roof
f 245 249 250
g roof
f 251 188 187
g roof
f 251 187 252
g roof
f 251 252 253
g roof
f 251 253 254
g roof
f 251 254 255
g roof
f 256 253 252
g roof
f 256 252 257
g roof
f 256 257 258
g roof
f 256 258 186
g roof
f 186 185 259
g roof
f 186 190 193
g roof
f 186 193 260
g roof
f 261 194 198
g roof
f 261 198 200
g roof
f 261 200 202
g roof
f 261 202 262
g roof
f 262 203 206
g roof
f 263 207 210
g roof
f 263 210 41
g roof
f 223 224 228
g roof
f 228 229 232
g roof
f 228 232 236
g roof
f 236 569 237 239
g roof
f 236 239 264
g roof
f 240 237 245
g roof
f 240 245 250
g roof
f 240 250 265
g roof
f 266 251 255
g roof
f 256 186 259
g roof
f 256 259 267
g roof
f 256 267 268
g roof
f 184 186 260
g roof
f 260 194 261
g roof
f 260 261 269
g roof
f 270 261 262
g roof
f 216 263 41
g roof
f 223 228 236
g roof
f 223 236 264
g roof
f 264 617 240 265
g roof
f 265 266 255
g roof
f 255 256 268
g roof
f 255 268 597 271
g roof
f 184 260 269
g roof
f 184 269 272
g roof
f 184 272 270
g roof
f 184 270 262
g roof
f 223 264 265
g roof
f 223 265 255
g roof
f 223 255 271
g roof
f 221 223 271
g roof
f 221 271 600 184
g roof
f 217 221 184
g roof
f 217 184 262
g roof
f 217 262 206
g roof
f 213 217 206
g roof
f 212 213 215
g roof
f 216 213 206
g roof
f 41 212 215
g roof
f 41 215 216
g roof
f 273 274 275 349
g roof
f 273 275 349 276
g roof
f 273 276 277
g roof
f 273 277 278
g roof
f 273 278 279
g roof
f 273 279 280
g roof
f 281 282 283
g roof
f 281 283 284
g roof
f 281 284 285
g roof
f 281 285 286
g roof
f 287 288 289
g roof
f 287 289 290
g roof
f 287 290 291
g roof
f 291 292 293
g roof
f 294 295 296
g roof
f 294 296 297
g roof
f 294 297 298
g roof
f 294 298 299
g roof
f 294 299 300
g roof
f 287 291 293
g roof
f 293 294 300
g roof
f 293 300 287
g roof
f 295 292 301
g roof
f 302 303 304
g roof
f 302 304 305
g roof
f 302 305 306
g roof
f 306 307 308
g roof
f 306 308 309
g roof
f 306 309 302
g roof
f 27 158 131
g roof
f 27 131 310
g roof
f 27 310 311
g roof
f 27 311 28
g roof
f 312 313 314
g roof
f 312 314 315
g roof
f 315 316 147
g roof
f 315 147 146
g roof
f 146 317 318
g roof
f 318 319 320
g roof
f 318 320 321
g roof
f 318 321 312
g roof
f 318 312 315
g roof
f 318 315 146
g roof
f 103 161 50
g roof
f 50 49 322
g roof
f 50 322 323
g roof
f 50 323 103
g roof_fixture
f 324 325 326
g roof_fixture
f 326 327 328
g roof_fixture
f 326 328 329
g roof_fixture
f 326 329 330
g roof_fixture
f 330 331 332
g roof_fixture
f 330 332 333
g roof_fixture
f 330 333 334
g roof_fixture
f 330 334 335
g roof_fixture
f 330 335 324
g roof_fixture
f 330 324 326
g facade_completed
f 2 1 336 337
g facade_completed
f 3 2 337 338
g facade_completed
f 4 3 338 339
g facade_completed
f 5 4 339 340
g facade_completed
f 6 5 340 341
g facade_completed
f 7 6 341 342
g facade_completed
f 8 7 342 343
g facade_completed
f 9 8 343 344
g facade_completed
f 10 9 344 345
g facade_completed
f 1 10 345 336
g facade_completed
f 11 346 13 347 348
g roof_step_or_fixture_side
f 275 349 274 12 11 346
g facade_completed
f 13 12 350 347
g facade_completed
f 14 16 351 352
g facade_completed
f 15 14 352 353
g facade_completed
f 16 15 353 351
g facade_completed
f 20 19 354 355
g facade_completed
f 21 20 355 356
g facade_completed
f 22 21 356 357
g facade_completed
f 23 22 357 358
g roof_step_or_fixture_side
f 308 307 24 23
g facade_completed
f 25 24 359 360
g facade_completed
f 30 25 360 361
g facade_completed
f 26 30 361 362
g facade_completed
f 27 26 362 363
g facade_completed
f 29 28 364 365
g facade_completed
f 17 29 365 366
g facade_completed
f 18 17 366 367
g facade_completed
f 19 18 367 354
g roof_step_or_fixture_side
f 304 303 34 33
g facade_completed
f 31 34 368 369
g facade_completed
f 32 31 369 370
g facade_completed
f 33 32 370 371
g facade_completed
f 38 37 372 373
g facade_completed
f 39 38 373 374
g facade_completed
f 40 39 374 375
g facade_completed
f 42 41 376 377
g facade_completed
f 69 42 377 378
g facade_completed
f 71 69 378 379
g facade_completed
f 43 70 380 381
g facade_completed
f 44 43 381 382
g facade_completed
f 45 44 382 383
g facade_completed
f 46 45 383 384
g facade_completed
f 47 46 384 385
g facade_completed
f 48 47 385 386
g facade_completed
f 49 48 386 387
g facade_completed
f 51 50 388 389
g facade_completed
f 52 51 389 390
g facade_completed
f 53 52 390 391
g facade_completed
f 54 53 391 392
g facade_completed
f 55 54 392 393
g facade_completed
f 56 55 393 394
g facade_completed
f 57 56 394 395
g facade_completed
f 58 57 395 396
g facade_completed
f 59 58 396 397
g facade_completed
f 60 59 397 398
g facade_completed
f 61 60 398 399
g facade_completed
f 62 61 399 400
g facade_completed
f 63 62 400 401
g facade_completed
f 64 63 401 402
g facade_completed
f 65 64 402 403
g facade_completed
f 66 65 403 404
g facade_completed
f 67 66 404 405
g facade_completed
f 68 67 405 406
g facade_completed
f 35 68 406 407
g facade_completed
f 36 35 407 408
g roof_step_or_fixture_side
f 328 327 37 36
g facade_completed
f 53 73 409 391
g facade_completed
f 72 53 391 410
g facade_completed
f 73 72 410 409
g facade_completed
f 77 76 411 412
g facade_completed
f 78 77 412 413
g facade_completed
f 74 78 413 414
g facade_completed
f 75 74 414 415
g facade_completed
f 82 81 416 417
g facade_completed
f 83 82 417 418
g facade_completed
f 84 83 418 419
g facade_completed
f 79 84 419 420
g facade_completed
f 81 80 421 416
g facade_completed
f 88 87 422 423 154
g roof_step_or_fixture_side
f 89 88 154 149
g facade_completed
f 90 89 149 424 425
g facade_completed
f 85 90 425 426
g roof_step_or_fixture_side
f 334 333 300 86 85
g roof_step_or_fixture_side
f 300 299 87 86
g roof_step_or_fixture_side
f 279 278 94 93
g facade_completed
f 91 94 427 428
g facade_completed
f 92 91 428 429
g facade_completed
f 93 92 429 430
g facade_completed
f 95 79 420 431
g roof_step_or_fixture_side
f 314 313 96 95
g facade_completed
f 80 96 432 421
g facade_completed
f 97 99 433 434
g facade_completed
f 98 97 434 435
g facade_completed
f 99 98 435 433
g facade_completed
f 148 166 436 437
g facade_completed
f 438 148 437 439
g facade_completed
f 149 438 439 424
g facade_completed
f 440 154 423 441
g facade_completed
f 100 440 441 442
g facade_completed
f 160 100 442 443
g facade_completed
f 161 160 443 444
g facade_completed
f 104 103 445 446
g facade_completed
f 105 104 446 447
g facade_completed
f 106 105 447 448
g facade_completed
f 107 106 448 449
g facade_completed
f 108 107 449 450
g facade_completed
f 109 108 450 451
g facade_completed
f 110 109 451 452
g facade_completed
f 111 110 452 453
g facade_completed
f 112 111 453 454
g facade_completed
f 113 112 454 455
g facade_completed
f 114 113 455 456
g facade_completed
f 115 114 456 457
g facade_completed
f 116 115 457 458
g facade_completed
f 117 116 458 459
g facade_completed
f 118 117 459 460
g facade_completed
f 155 118 460 461
g facade_completed
f 156 155 461 462
g facade_completed
f 119 156 462 463
g facade_completed
f 120 119 463 464
g facade_completed
f 121 120 464 465
g facade_completed
f 122 121 465 466
g facade_completed
f 123 122 466 467
g facade_completed
f 124 123 467 468
g facade_completed
f 125 124 468 469
g facade_completed
f 126 125 469 470
g facade_completed
f 127 126 470 471
g facade_completed
f 165 127 471 472
g facade_completed
f 162 165 472 473
g facade_completed
f 157 162 473 474
g facade_completed
f 128 157 474 475
g facade_completed
f 129 128 475 476
g facade_completed
f 130 129 476 477
g facade_completed
f 131 130 477 478
g facade_completed
f 163 158 479 480
g facade_completed
f 132 163 480 481
g facade_completed
f 482 132 481 483
g facade_completed
f 133 482 483 484
g roof_step_or_fixture_side
f 306 305 134 133
g facade_completed
f 135 134 485 486
g facade_completed
f 136 135 486 487
g facade_completed
f 76 136 487 411
g facade_completed
f 137 75 415 488
g roof_step_or_fixture_side
f 320 319 138 137
g facade_completed
f 139 138 489 490
g facade_completed
f 140 139 490 491
g facade_completed
f 492 140 491 493
g facade_completed
f 99 492 493 433
g facade_completed
f 141 99 433 494
g facade_completed
f 142 141 494 495
g facade_completed
f 145 142 495 496
g facade_completed
f 146 145 496 497
g facade_completed
f 166 147 498 436
g facade_completed
f 150 153 499 500
g facade_completed
f 151 150 500 501
g facade_completed
f 152 151 501 502
g facade_completed
f 153 152 502 499
g facade_completed
f 101 159 503 504
g facade_completed
f 102 101 504 505
g facade_completed
f 164 102 505 506
g facade_completed
f 159 164 506 503
g facade_completed
f 167 144 507 508
g facade_completed
f 143 167 508 509
g facade_completed
f 144 143 509 507
g facade_completed
f 168 170 510 511
g facade_completed
f 169 168 511 512
g facade_completed
f 170 169 512 510
g facade_completed
f 171 173 513 514
g facade_completed
f 172 171 514 515
g facade_completed
f 173 172 515 513
g facade_completed
f 176 175 516 517
g facade_completed
f 70 176 517 380
g facade_completed
f 177 71 379 518
g facade_completed
f 178 177 518 519
g facade_completed
f 179 178 519 520
g facade_completed
f 183 179 520 521
g facade_completed
f 180 183 521 522
g facade_completed
f 181 180 522 523
g facade_completed
f 182 181 523 524
g facade_completed
f 174 182 524 525
g facade_completed
f 175 174 525 516
g facade_completed
f 251 266 526 527
g facade_completed
f 188 251 527 528
g facade_completed
f 189 188 528 529
g facade_completed
f 190 189 529 530
g facade_completed
f 191 190 530 531
g facade_completed
f 195 191 531 532
g facade_completed
f 196 195 532 533
g facade_completed
f 197 196 533 534
g facade_completed
f 198 197 534 535
g facade_completed
f 199 198 535 536
g facade_completed
f 200 199 536 537
g facade_completed
f 201 200 537 538
g facade_completed
f 170 201 538 510
g facade_completed
f 202 170 510 539
g facade_completed
f 262 202 539 540
g facade_completed
f 203 262 540 541
g facade_completed
f 204 203 541 542
g facade_completed
f 169 204 542 512
g facade_completed
f 208 169 512 543
g facade_completed
f 209 208 543 544
g facade_completed
f 210 209 544 545
g facade_completed
f 41 210 545 376
g facade_completed
f 211 40 375 546
g facade_completed
f 212 211 546 547
g facade_completed
f 213 212 547 548
g facade_completed
f 217 213 548 549
g facade_completed
f 218 217 549 550
g facade_completed
f 219 218 550 551
g facade_completed
f 220 219 551 552
g facade_completed
f 221 220 552 553
g facade_completed
f 222 221 553 554
g facade_completed
f 223 222 554 555
g facade_completed
f 224 223 555 556
g facade_completed
f 225 224 556 557
g facade_completed
f 226 225 557 558
g facade_completed
f 227 226 558 559
g facade_completed
f 228 227 559 560
g facade_completed
f 229 228 560 561
g facade_completed
f 230 229 561 562
g facade_completed
f 231 230 562 563
g facade_completed
f 232 231 563 564
g facade_completed
f 233 232 564 565
g facade_completed
f 234 233 565 566
g facade_completed
f 235 234 566 567
g facade_completed
f 236 235 567 568
g facade_completed
f 569 236 568 570
g facade_completed
f 237 569 570 571
g facade_completed
f 241 237 571 572
g facade_completed
f 242 241 572 573
g facade_completed
f 243 242 573 574
g facade_completed
f 244 243 574 575
g facade_completed
f 245 244 575 576
g facade_completed
f 246 245 576 577
g facade_completed
f 247 246 577 578
g facade_completed
f 248 247 578 579
g facade_completed
f 249 248 579 580
g facade_completed
f 250 249 580 581
g facade_completed
f 265 250 581 582
g facade_completed
f 266 265 582 526
g facade_completed
f 193 192 583 584
g facade_completed
f 260 193 584 585
g facade_completed
f 194 260 585 586
g facade_completed
f 192 194 586 583
g facade_completed
f 207 263 587 588
g facade_completed
f 205 207 588 589
g facade_completed
f 206 205 589 590
g facade_completed
f 216 206 590 591
g facade_completed
f 263 216 591 587
g facade_completed
f 216 215 592 591
g facade_completed
f 214 216 591 593
g facade_completed
f 215 214 593 592
g facade_completed
f 267 259 594 595
g facade_completed
f 268 267 595 596
g facade_completed
f 597 268 596 598
g facade_completed
f 271 597 598 599
g facade_completed
f 600 271 599 601
g facade_completed
f 184 600 601 602
g facade_completed
f 185 184 602 603
g facade_completed
f 259 185 603 594
g facade_completed
f 272 269 604 605
g facade_completed
f 270 272 605 606
g facade_completed
f 261 270 606 607
g facade_completed
f 269 261 607 604
g facade_completed
f 256 255 608 609
g facade_completed
f 253 256 609 610
g facade_completed
f 254 253 610 611
g facade_completed
f 255 254 611 608
g facade_completed
f 252 187 612 613
g facade_completed
f 257 252 613 614
g facade_completed
f 258 257 614 615
g facade_completed
f 186 258 615 616
g facade_completed
f 187 186 616 612
g facade_completed
f 617 264 618 619
g facade_completed
f 240 617 619 620
g facade_completed
f 238 240 620 621
g facade_completed
f 622 238 621 623
g facade_completed
f 239 622 623 624
g facade_completed
f 264 239 624 618
g facade_completed
f 276 349 275 346 11 348 625
g facade_completed
f 277 276 625 626
g facade_completed
f 278 277 626 427 94
g facade_completed
f 280 279 93 430 627
g facade_completed
f 273 280 627 628
g facade_completed
f 274 273 628 350 12
g facade_completed
f 283 282 629 630
g facade_completed
f 284 283 630 631
g facade_completed
f 285 284 631 632
g facade_completed
f 286 285 632 633
g facade_completed
f 281 286 633 634
g facade_completed
f 282 281 634 629
g roof_step_or_fixture_side
f 288 287 332 331
g facade_completed
f 289 288 331 635 636
g facade_completed
f 290 289 636 637
g facade_completed
f 291 290 637 638
g facade_completed
f 292 291 638 639
g facade_completed
f 293 292 639 640
g facade_completed
f 294 293 640 641
g facade_completed
f 295 294 641 642
g facade_completed
f 296 295 642 643
g facade_completed
f 297 296 643 644
g facade_completed
f 298 297 644 645
g facade_completed
f 299 298 645 422 87
g roof_step_or_fixture_side
f 333 332 287 300
g facade_completed
f 295 301 646 642
g facade_completed
f 292 295 642 639
g facade_completed
f 301 292 639 646
g facade_completed
f 303 302 647 368 34
g facade_completed
f 305 304 33 371 485 134
g facade_completed
f 307 306 133 484 359 24
g facade_completed
f 309 308 23 358 648
g facade_completed
f 302 309 648 647
g facade_completed
f 310 131 478 649
g facade_completed
f 311 310 649 650
g facade_completed
f 28 311 650 364
g facade_completed
f 158 27 363 479
g facade_completed
f 315 314 95 431 651
g facade_completed
f 316 315 651 652
g facade_completed
f 147 316 652 498
g facade_completed
f 317 146 497 434 97
g facade_completed
f 318 317 97 434 653
g facade_completed
f 319 318 653 489 138
g facade_completed
f 321 320 137 488 654
g facade_completed
f 312 321 654 655
g facade_completed
f 313 312 655 432 96
g facade_completed
f 322 49 387 656
g facade_completed
f 323 322 656 657
g facade_completed
f 103 323 657 445
g facade_completed
f 50 161 444 388
g facade_completed
f 327 326 658 372 37
g facade_completed
f 329 328 36 408 659
g facade_completed
f 330 329 659 660
g facade_completed
f 331 330 660 635
g facade_completed
f 335 334 85 426 661
g facade_completed
f 324 335 661 662
g facade_completed
f 325 324 662 663
g facade_completed
f 326 325 663 658
g ground_assumed
f 511 510 512
g ground_assumed
f 514 513 515
g ground_assumed
f 644 442 441 423 422 645
g ground_assumed
f 442 505 504
g ground_assumed
f 390 392 391
g ground_assumed
f 395 397 396
g ground_assumed
f 398 400 399
g ground_assumed
f 398 401 400
g ground_assumed
f 398 402 401
g ground_assumed
f 402 404 403
g ground_assumed
f 404 406 405
g ground_assumed
f 406 373 407
g ground_assumed
f 406 374 373
g ground_assumed
f 406 375 374
g ground_assumed
f 406 546 375
g ground_assumed
f 548 592 593
g ground_assumed
f 591 548 593
g ground_assumed
f 549 551 550
g ground_assumed
f 549 552 551
g ground_assumed
f 549 553 552
g ground_assumed
f 553 555 554
g ground_assumed
f 556 558 557
g ground_assumed
f 556 559 558
g ground_assumed
f 556 560 559
g ground_assumed
f 561 563 562
g ground_assumed
f 561 564 563
g ground_assumed
f 564 566 565
g ground_assumed
f 564 567 566
g ground_assumed
f 564 568 567
g ground_assumed
f 571 624 623 621
g ground_assumed
f 620 571 621
g ground_assumed
f 571 573 572
g ground_assumed
f 571 574 573
g ground_assumed
f 571 575 574
g ground_assumed
f 571 576 575
g ground_assumed
f 576 578 577
g ground_assumed
f 576 579 578
g ground_assumed
f 576 580 579
g ground_assumed
f 576 581 580
g ground_assumed
f 527 612 528
g ground_assumed
f 527 613 612
g ground_assumed
f 527 610 613
g ground_assumed
f 527 611 610
g ground_assumed
f 527 608 611
g ground_assumed
f 609 613 610
g ground_assumed
f 609 614 613
g ground_assumed
f 609 615 614
g ground_assumed
f 616 594 603
g ground_assumed
f 596 598 599
g ground_assumed
f 602 616 603
g ground_assumed
f 616 528 612
g ground_assumed
f 616 529 528
g ground_assumed
f 616 530 529
g ground_assumed
f 530 583 531
g ground_assumed
f 530 584 583
g ground_assumed
f 586 531 583
g ground_assumed
f 586 532 531
g ground_assumed
f 586 533 532
g ground_assumed
f 586 534 533
g ground_assumed
f 586 535 534
g ground_assumed
f 535 537 536
g ground_assumed
f 537 510 538
g ground_assumed
f 537 539 510
g ground_assumed
f 541 589 542
g ground_assumed
f 541 590 589
g ground_assumed
f 588 542 589
g ground_assumed
f 588 512 542
g ground_assumed
f 588 543 512
g ground_assumed
f 588 544 543
g ground_assumed
f 588 545 544
g ground_assumed
f 378 519 518 379
g ground_assumed
f 378 520 519
g ground_assumed
f 378 521 520
g ground_assumed
f 522 524 523
g ground_assumed
f 522 525 524
g ground_assumed
f 525 517 516
g ground_assumed
f 525 381 380 517
g ground_assumed
f 381 385 384 383 382
g ground_assumed
f 381 386 385
g ground_assumed
f 381 656 387 386
g ground_assumed
f 656 446 445 657
g ground_assumed
f 656 447 446
g ground_assumed
f 447 449 448
g ground_assumed
f 450 452 451
g ground_assumed
f 453 455 454
g ground_assumed
f 453 456 455
g ground_assumed
f 456 458 457
g ground_assumed
f 458 460 459
g ground_assumed
f 495 507 509
g ground_assumed
f 497 653 434
g ground_assumed
f 491 494 433 493
g ground_assumed
f 463 465 464
g ground_assumed
f 463 466 465
g ground_assumed
f 466 468 467
g ground_assumed
f 469 471 470
g ground_assumed
f 475 477 476
g ground_assumed
f 475 649 478 477
g ground_assumed
f 649 366 365 364 650
g ground_assumed
f 649 367 366
g ground_assumed
f 649 354 367
g ground_assumed
f 649 361 354
g ground_assumed
f 360 354 361
g ground_assumed
f 360 355 354
g ground_assumed
f 360 356 355
g ground_assumed
f 360 357 356
g ground_assumed
f 360 648 358 357
g ground_assumed
f 647 370 369 368
g ground_assumed
f 647 486 485 371 370
g ground_assumed
f 487 411 412
g ground_assumed
f 487 413 412 411
g ground_assumed
f 487 414 413
g ground_assumed
f 416 418 417
g ground_assumed
f 416 419 418
g ground_assumed
f 416 651 431 420 419
g ground_assumed
f 437 500 424 439
g ground_assumed
f 437 501 500
g ground_assumed
f 437 502 501
g ground_assumed
f 499 424 500
g ground_assumed
f 499 425 424
g ground_assumed
f 425 663 662 661 426
g ground_assumed
f 425 658 663
g ground_assumed
f 658 407 373 372
g ground_assumed
f 658 660 659 408 407
g ground_assumed
f 660 638 637 636 635
g ground_assumed
f 638 640 639
g ground_assumed
f 641 643 642
g ground_assumed
f 641 644 643
g ground_assumed
f 443 392 390 389 388 444
g ground_assumed
f 402 406 404
g ground_assumed
f 402 546 406
g ground_assumed
f 402 547 546
g ground_assumed
f 555 560 556
g ground_assumed
f 560 564 561
g ground_assumed
f 560 568 564
g ground_assumed
f 568 624 571 570
g ground_assumed
f 568 618 624
g ground_assumed
f 620 576 571
g ground_assumed
f 620 581 576
g ground_assumed
f 620 582 581
g ground_assumed
f 526 608 527
g ground_assumed
f 609 616 615
g ground_assumed
f 609 594 616
g ground_assumed
f 609 595 594
g ground_assumed
f 609 596 595
g ground_assumed
f 616 584 530
g ground_assumed
f 616 585 584
g ground_assumed
f 607 535 586
g ground_assumed
f 607 537 535
g ground_assumed
f 607 539 537
g ground_assumed
f 607 540 539
g ground_assumed
f 540 590 541
g ground_assumed
f 587 545 588
g ground_assumed
f 587 377 376 545
g ground_assumed
f 521 525 522
g ground_assumed
f 521 381 525
g ground_assumed
f 521 656 381
g ground_assumed
f 456 460 458
g ground_assumed
f 496 653 497
g ground_assumed
f 462 466 463
g ground_assumed
f 462 468 466
g ground_assumed
f 462 469 468
g ground_assumed
f 474 649 475
g ground_assumed
f 474 361 649
g ground_assumed
f 481 648 360 359 484 483
g ground_assumed
f 481 647 648
g ground_assumed
f 481 486 647
g ground_assumed
f 481 487 486
g ground_assumed
f 655 651 416 421 432
g ground_assumed
f 425 660 658
g ground_assumed
f 660 640 638
g ground_assumed
f 555 568 560
g ground_assumed
f 555 618 568
g ground_assumed
f 618 582 620 619
g ground_assumed
f 582 608 526
g ground_assumed
f 608 596 609
g ground_assumed
f 608 599 598 596
g ground_assumed
f 602 585 616
g ground_assumed
f 585 607 586
g ground_assumed
f 585 604 607
g ground_assumed
f 606 540 607
g ground_assumed
f 591 377 587
g ground_assumed
f 473 361 474
g ground_assumed
f 473 480 479 363 362 361
g ground_assumed
f 654 651 655
g ground_assumed
f 425 640 660
g ground_assumed
f 425 641 640
g ground_assumed
f 425 644 641
g ground_assumed
f 555 582 618
g ground_assumed
f 555 608 582
g ground_assumed
f 555 599 608
g ground_assumed
f 602 604 585
g ground_assumed
f 602 605 604
g ground_assumed
f 602 606 605
g ground_assumed
f 602 540 606
g ground_assumed
f 472 480 473
g ground_assumed
f 499 644 425
g ground_assumed
f 499 442 644
g ground_assumed
f 553 599 555
g ground_assumed
f 553 602 601 599
g ground_assumed
f 471 480 472
g ground_assumed
f 471 481 480
g ground_assumed
f 502 442 499
g ground_assumed
f 502 505 442
g ground_assumed
f 503 442 504
g ground_assumed
f 503 443 442
g ground_assumed
f 503 392 443
g ground_assumed
f 549 602 553
g ground_assumed
f 549 540 602
g ground_assumed
f 549 590 540
g ground_assumed
f 469 481 471
g ground_assumed
f 506 392 503
g ground_assumed
f 548 590 549
g ground_assumed
f 462 481 469
g ground_assumed
f 462 487 481
g ground_assumed
f 402 548 547
g ground_assumed
f 402 592 548
g ground_assumed
f 591 590 548
g ground_assumed
f 461 487 462
g ground_assumed
f 592 377 591
g ground_assumed
f 402 377 592
g ground_assumed
f 402 378 377
g ground_assumed
f 398 378 402
g ground_assumed
f 398 521 378
g ground_assumed
f 397 521 398
g ground_assumed
f 397 656 521
g ground_assumed
f 395 656 397
g ground_assumed
f 392 656 395 394 393
g ground_assumed
f 506 656 392
g ground_assumed
f 506 447 656
g ground_assumed
f 505 447 506
g ground_assumed
f 505 449 447
g ground_assumed
f 502 449 505
g ground_assumed
f 502 450 449
g ground_assumed
f 437 450 502
g ground_assumed
f 436 450 437
g ground_assumed
f 436 452 450
g ground_assumed
f 452 508 507
g ground_assumed
f 508 495 509
g ground_assumed
f 508 496 495
g ground_assumed
f 508 653 496
g ground_assumed
f 491 495 494
g ground_assumed
f 491 461 495
g ground_assumed
f 491 487 461
g ground_assumed
f 491 414 487
g ground_assumed
f 436 508 452
g ground_assumed
f 490 414 491
g ground_assumed
f 490 654 488 415 414
g ground_assumed
f 652 508 436 498
g ground_assumed
f 652 653 508
g ground_assumed
f 653 654 490 489
g ground_assumed
f 653 651 654
g ground_assumed
f 653 652 651
g ground_assumed
f 507 453 452
g ground_assumed
f 456 461 460
g ground_assumed
f 456 495 461
g ground_assumed
f 495 453 507
g ground_assumed
f 495 456 453
g ground_assumed
f 348 626 625
g ground_assumed
f 348 427 626
g ground_assumed
f 348 428 427
g ground_assumed
f 428 430 429
g ground_assumed
f 428 627 430
g ground_assumed
f 428 628 627
g ground_assumed
f 350 348 347
g ground_assumed
f 348 628 428
g ground_assumed
f 348 350 628
g ground_assumed
f 345 336 337
g ground_assumed
f 345 338 337 336
g ground_assumed
f 345 339 338
g ground_assumed
f 345 340 339
g ground_assumed
f 345 341 340
g ground_assumed
f 345 342 341
g ground_assumed
f 345 343 342
g ground_assumed
f 345 344 343
g ground_assumed
f 631 633 632
g ground_assumed
f 631 634 633
g ground_assumed
f 631 629 634
g ground_assumed
f 631 630 629
g ground_assumed
f 351 353 352
g ground_assumed
f 646 639 642
g ground_assumed
f 410 391 409
g ground_assumed
f 433 435 434
