v 2684956.2500000014 1252062.7499999998 435.55518163857641
v 2684956.2500000014 1252071.1462500023 435.55502796263846
v 2684945.2499999986 1252071.1462500023 435.56071909543164
v 2684945.2499999986 1252062.7499999998 435.5608727769503
v 2684956.2500000014 1252062.7499999998 426.73914199588472
v 2684956.2500000014 1252071.1462500023 426.73914199588472
v 2684945.2499999986 1252071.1462500023 426.73914199588472
v 2684945.2499999986 1252062.7499999998 426.73914199588472
l 1 2
l 2 3
l 3 4
l 1 4
l 1 5
l 5 6
l 2 6
l 6 7
l 3 7
l 7 8
l 4 8
l 5 8
