# pointcloud_to_mesh 0.5.1; candidate requires geometry validation; coordinates preserved
v -4.283943995 6.002796367 1.843189254
v -3.724742971 7.134849014 1.847150639
v -4.202704837 7.221128395 1.846505602
v -4.674562701 7.306305912 1.845868802
v -4.685466319 7.308274181 1.845854087
v -5.068665654 6.631943692 1.843398072
v -5.069305776 5.185443834 1.839634930
v -4.284596861 4.527496511 1.839351187
v -4.060907020 2.685861571 1.834968463
v -4.022053374 2.365980116 1.834207209
v -4.285366338 2.110769274 1.833064496
v -4.687638918 1.720874595 1.831318732
v -4.385797145 0.685340919 1.829174633
v -5.070582555 0.040543895 1.826252034
v -5.071629495 -2.325255873 1.820097287
v -5.072629495 -2.325255431 1.820095469
v -5.072670385 -2.417655422 1.819855086
v -5.072883950 -2.900255374 1.818599578
v -3.239369632 -2.901066762 1.821932690
v -4.019407974 -3.406721620 1.819198695
v -3.719917631 -3.880554200 1.818511160
v -3.288317673 -3.880745197 1.819295758
v -2.985917224 -3.201878952 1.821611392
v -1.534417366 -3.202521286 1.824250047
v -1.534284297 -2.901821315 1.825032333
v 1.937015363 -2.903357474 1.831342745
v 1.936754580 -3.492657416 1.829809651
v 2.620154513 -3.492959842 1.831051991
v 3.287481542 -3.206055127 1.833012047
v 4.021787187 -3.871380146 1.832617432
v 4.792087112 -3.871721027 1.834017746
v 4.792515084 -2.904621122 1.836533705
v 5.020636361 -2.904722073 1.836948402
v 5.121071519 -2.777166506 1.837462837
v 5.121228617 -2.422166541 1.838386387
v -1.534070731 -2.419221363 1.826287841
v -1.533702058 -1.586121444 1.828455192
v -0.918157898 -1.260493810 1.830421761
v -0.918013279 -0.933693842 1.831271948
v -1.583069833 -0.609399502 1.830905595
v -2.618320096 -1.626641471 1.826376854
v -3.136238575 -1.442312258 1.825914137
v -3.136629684 -2.326112171 1.823614887
v -4.286973555 -1.521103029 1.823615998
v -3.453173637 -1.521472012 1.825131748
v -3.452671807 -0.387472123 1.828081905
v -2.320637702 1.497127101 1.835042474
v -1.218237810 1.496639255 1.837046507
v -1.104034493 1.332890726 1.836828378
v -0.919010503 1.332306821 1.837163424
v -0.180479417 2.306280094 1.841039893
v -0.441187098 2.803990402 1.841860074
v -0.816642033 3.520761734 1.843041249
v -1.333177665 3.412117133 1.841819097
v -1.481512218 3.814255989 1.842595133
v -1.328157664 4.026929740 1.843427200
v -0.869140443 4.202285033 1.844718221
v -0.868686583 5.227884933 1.847386371
v -1.486376273 4.945783451 1.845529099
v -1.580956690 4.843645518 1.845091420
v -1.883401256 4.517033906 1.843691830
v -2.630068779 4.681171775 1.842760498
v -3.620532437 4.898902678 1.841525075
v -1.534029841 -2.326821372 1.826528224
v -4.618250444 -2.325456508 1.820921476
v -2.980847928 8.479319949 1.852000435
v -2.980560327 9.129219885 1.853691182
v -3.725316210 9.455049495 1.853183847
v -3.725603944 8.804849558 1.851492319
v -0.481429389 5.583013594 1.849014404
v -0.079329429 5.582835652 1.849745374
v 0.724377915 6.425201583 1.853398123
v -0.480964658 6.633179073 1.851746462
v -0.481164643 6.633213580 1.851746188
v -0.705869281 5.942612951 1.849541366
v -0.817522143 5.599462327 1.848445819
v -0.485100739 5.575053136 1.848987022
v -0.642610659 7.135835229 1.852759703
v -0.362086595 7.160941936 1.853335282
v -0.818458068 7.326062911 1.852934565
v 1.452843919 11.849507406 1.868830463
v 1.453377325 13.054858113 1.871966244
v 0.178977450 13.055422075 1.869649536
v -0.562654062 12.281750195 1.866288360
v -1.222169527 11.593741983 1.863299346
v -0.399726291 11.593378027 1.864794451
v -0.077069639 11.593235241 1.865381002
v -0.077471855 10.684335330 1.863016453
v 0.250646287 10.411669336 1.862904176
v 0.581787246 10.817743600 1.864562628
v 0.692229695 10.588685604 1.864167805
v 0.922504508 11.534592892 1.867046746
v 1.452809867 11.772558239 1.868630276
v 1.933134026 6.855645199 1.856716363
v 1.513129470 6.855831064 1.855952845
v 1.322397819 6.322015417 1.854217579
v 1.209592131 6.341479629 1.854063004
v 1.985462846 5.564921916 1.853454709
v 2.624447730 6.208539208 1.856290928
v 2.625166090 7.831839049 1.860514024
v 2.983622800 8.185880455 1.862086840
v 2.983818959 8.629146154 1.863240018
v 2.984083077 9.225980353 1.864792712
v 4.786290021 10.823082977 1.872224642
v 4.786614308 11.555882905 1.874131057
v 5.127267479 11.901932189 1.875650703
v 4.836395096 12.134380731 1.875726136
v 4.786088102 12.174583199 1.875739182
v 4.127788166 12.174874517 1.874542471
v 4.127699037 11.973467365 1.874018500
v 4.127452993 11.417474591 1.872572057
v 2.804689696 11.048759919 1.869206974
v 2.804125823 9.774560044 1.865892080
v 1.984022105 9.088422898 1.862615816
v 1.888971790 8.872544603 1.861881472
v 1.582418423 8.176300531 1.859513088
v 3.722951488 4.860952954 1.854784413
v 5.124451351 4.860332746 1.857332174
v 5.124610308 5.219532711 1.858266651
v 3.723222607 5.925552938 1.857553660
v 4.025716832 5.234519007 1.856306703
v -1.582409641 1.334400396 1.835962124
v -1.012899853 1.202218836 1.836654311
v -0.181395601 0.009980274 1.835066135
v -0.041893533 0.009918540 1.835319734
v 0.183819832 0.496718703 1.836996357
v -0.180753468 1.009080088 1.837665707
v 1.832399260 0.317689137 1.839529566
v 1.440144307 0.317862722 1.838816493
v 1.585451444 0.115898400 1.838555553
v 2.320053005 1.701073471 1.844014454
v 2.127889868 1.597085299 1.843394456
v 1.584901655 1.585198787 1.842375829
v 1.320287174 0.874615817 1.840046442
v 1.630707338 0.591398779 1.839874531
v 1.884259525 0.360066192 1.839734113
v 1.988140752 0.317620217 1.839812685
v 1.987630070 -0.836379670 1.836810497
v 4.389129835 -0.837442409 1.841176139
v 5.122648611 0.786633145 1.846734240
v 5.122648833 0.787133145 1.846735541
v 4.123448930 0.787575322 1.844919114
v 4.124174682 2.427575162 1.849185656
v 3.414899224 2.055829871 1.846928646
v 3.388334648 2.111300763 1.847024590
v 3.721984767 2.450453145 1.848513559
v 2.722813677 3.419895405 1.849217307
v 2.505609279 3.069688890 1.847911407
v 1.882740999 3.933767213 1.849025637
v 1.584278632 3.792899279 1.848116362
v 2.220416953 2.609863036 1.846196743
v 2.320372911 2.423973400 1.845895114
v -0.182819534 -3.207719411 1.826695128
v -0.182962339 -3.530419379 1.825855608
v 0.916004549 -4.283405780 1.825896339
v 1.586954614 -3.492502619 1.829173756
v 1.649186998 -10.141830810 3.711032201
v 2.261210331 -10.708201705 3.712385804
v 2.617061473 -10.708359180 3.709893511
v 2.617491525 -9.736559275 3.700208443
v 3.549568588 -10.318428676 3.699473471
v 3.716370083 -10.689145656 3.701997957
v 4.021416014 -10.612989741 3.699101404
v 4.119376761 -10.674143798 3.699024158
v 4.692418509 -11.031877622 3.698572297
v 4.677589624 -11.060953438 3.698965903
v 4.743490094 -11.096100229 3.698854229
v 4.743947671 -10.062100330 3.688549270
v 4.392381326 -10.211944766 3.692506004
v 3.716912128 -9.690245799 3.692042107
v 3.588334892 -9.410588872 3.690156972
v 4.793635754 -9.411122255 3.681715345
v 4.793636019 -9.410522255 3.681709366
v 3.588058975 -9.409988750 3.690152926
v 3.396119448 -8.992518130 3.687338804
v 3.717256694 -8.685645853 3.682030851
v 3.601853878 -8.557753282 3.681565418
v 3.717518307 -8.320445933 3.678390527
v 4.391518241 -8.320744199 3.673670000
v 4.391809161 -7.663344263 3.667118278
v 3.718161703 -6.866546075 3.663900797
v 4.277416912 -6.653138923 3.657855269
v 4.120947406 -6.221024257 3.654646669
v 3.718347445 -6.220846094 3.657466379
v 3.718538973 -5.788046136 3.653153045
v 4.020938943 -5.788179958 3.651035111
v 4.021486620 -4.550580079 3.638701051
v -0.183212968 -4.548719368 3.668149717
v -0.634941954 -4.758290584 3.673403466
v -1.585100919 -5.199099052 3.684454111
v -1.585318246 -5.690199004 3.689348469
v 0.588616887 -5.837261053 3.675578366
v 0.814933603 -5.607405928 3.671702253
v 2.618349327 -7.798159465 3.680890132
v 3.289507032 -8.119856505 3.679391623
v 3.087279687 -9.287639180 3.692443497
v 3.289820626 -8.767056707 3.685837489
v 2.984171549 -8.326021404 3.683585486
v 1.058627403 -7.053569166 3.684402550
v 0.588933534 -6.477561256 3.681955466
v -0.812426259 -6.838341146 3.695370872
v -0.812305757 -7.211222323 3.699085047
v -1.400472644 -6.988528539 3.700988314
v -1.252760084 -7.572946356 3.705775682
v -0.812188797 -7.573141323 3.702690031
v -0.812088616 -7.883141397 3.705777863
v -0.487100419 -7.909885217 3.703766743
v -1.486079180 -8.087643155 3.712538750
v -1.214817816 -7.723063161 3.707005392
v -1.485478545 -6.956343310 3.701263387
v -1.681674039 -6.769151750 3.700773364
v -1.782048217 -6.673384010 3.700522668
v -2.986844781 -5.523878769 3.697513540
v -4.338144649 -5.523280776 3.706977706
v -4.338575630 -6.497180681 3.716683703
v -4.800864637 -6.960327526 3.724537835
v -5.068099138 -7.228057916 3.729078058
v -5.068492459 -8.116857829 3.737935938
v -4.289104017 -7.691202691 3.728233053
v -4.288666088 -6.701602787 3.718370589
v -2.937066221 -6.702200913 3.708904321
v -3.290458438 -8.266344679 3.726964532
v -3.092665871 -8.805273086 3.730947720
v -2.988278671 -8.764078452 3.729805736
v -2.988563219 -9.407078389 3.736213946
v 1.300158711 -9.408976282 3.706176808
v 1.246593641 -9.048252543 3.702958306
v 0.590096052 -9.047962022 3.707556251
v 0.187152747 -8.693783672 3.706851459
v 0.486584194 -8.396816151 3.701794305
v 1.216655534 -8.397139230 3.696681068
v 1.216607235 -8.118939182 3.693909696
v 1.219954009 -8.094140660 3.693639173
v 1.335513739 -8.094191799 3.692829822
v 1.232446780 -8.397146218 3.696570470
v 1.316984113 -8.397183629 3.695978391
v 1.316920772 -8.540316928 3.697404874
v 1.888476675 -9.092036600 3.698896109
v 2.412785680 -9.303190290 3.697325394
v 2.617759231 -9.131617066 3.694179521
v 2.617646794 -9.385693508 3.696711676
v 2.676972402 -9.409585565 3.696533949
v 2.678463861 -9.410186225 3.696529481
v 2.285168668 -9.410012180 3.699284022
v 1.536009927 -10.037095916 3.710781889
v 3.289734397 -8.326156625 3.681445400
v 3.289863785 -8.443556694 3.682614152
v 3.290026779 -9.093898146 3.689092369
v 1.192829237 -7.053628555 3.683462634
v -0.811793254 -8.571541595 3.712634332
v -5.075763280 -9.406754737 3.750838151
v -3.810932986 -9.407314464 3.741979596
v -3.810635538 -9.406714596 3.741971535
v -5.075763014 -9.406154737 3.750832172
v -4.693527496 -12.263624168 3.776622406
v -5.077443305 -13.203154366 3.788673499
v -5.077477203 -13.279754358 3.789436903
v -3.659674322 -12.531265733 3.772043514
v -3.538748144 -12.264135194 3.768534619
v -3.290743951 -9.589444682 3.740148594
v -3.432019199 -9.589382163 3.741138050
v -4.016947255 -9.822723337 3.747562100
v -3.901123108 -9.589174570 3.744423537
v -4.692443814 -9.588824386 3.749965750
v -5.067464648 -10.991658565 3.766570409
v -4.016664751 -10.992123577 3.759210869
v -2.615890028 -9.467743314 3.734206598
v -2.615863521 -9.407843320 3.733609628
v -2.988563484 -9.407678388 3.736219925
v -2.988565608 -9.412478388 3.736267763
v -3.245750057 -9.515075144 3.739092325
v -3.716301197 -12.656356660 3.773686647
v -3.217725681 -12.805671729 3.771680178
v -3.613335004 -12.506802211 3.771475030
v -2.614827700 -12.264544058 3.762063711
v -2.989856782 -12.330178102 3.765345888
v -2.663008989 -12.971800146 3.769447774
v -2.464966915 -13.031110451 3.768650773
v -2.464386048 -11.718510580 3.755569254
v -3.291585967 -11.718144518 3.761362756
v -2.990187011 -13.302378051 3.775034241
v -2.614083185 -13.067844466 3.770061785
v -2.990043321 -12.977678083 3.771798245
v 1.589925415 -11.693504737 3.726906861
v 1.992695018 -11.762282982 3.724769426
v 2.113805535 -11.684536569 3.723146076
v 1.215129523 -11.684138877 3.729440178
v 0.487090538 -9.738316506 3.715156140
v 0.487217279 -9.451916534 3.712301846
v -0.135282660 -9.451641059 3.716661680
v -0.135852153 -10.738540933 3.729487069
v 0.913347744 -10.739005236 3.722138735
v -0.488374668 -11.241284980 3.736966448
v -0.488348396 -11.181917413 3.736374784
v -0.912927022 -11.359497114 3.741119527
v -0.913446799 -12.534052102 3.752825275
v -0.086481574 -13.064763008 3.752317250
v -0.165978882 -13.152013800 3.753743660
v 0.488612914 -13.303317529 3.750663618
v 1.315428591 -12.364183329 3.735512557
v 1.632726353 -12.419418629 3.733839194
v 2.090678418 -12.034186154 3.726791717
v 1.589964864 -12.056304790 3.730521165
v 0.913289982 -11.095505246 3.725690954
v 1.289483975 -10.205271636 3.714185119
v 0.487825237 -11.241716979 3.730129388
v 2.314668736 -11.143825404 3.716351283
v 2.314486464 -11.555710298 3.720456174
v 2.616772367 -11.361659116 3.716404372
v 2.617115792 -11.037559236 3.713172954
v 2.560415906 -10.985088740 3.713047552
v 2.616485032 -12.010959052 3.722875369
v 2.616460489 -12.066419347 3.723428092
v 2.991639402 -12.340125102 3.723525712
v 2.716822134 -13.057003557 3.732593944
v 2.616005063 -13.095556811 3.733684592
v 2.615912219 -13.305358926 3.735775504
v 3.291698958 -12.657557919 3.724585434
v 4.118446658 -12.775923792 3.719970735
v 4.119130130 -11.231463965 3.704578474
v 4.119337342 -10.763219961 3.699911901
v 4.018761070 -10.709579476 3.700082335
v 3.651538206 -11.030954739 3.705857757
v 2.535687058 -12.007492399 3.723407075
v 2.544780723 -12.014126521 3.723409441
v 1.584901655 1.585198787 1.971105375
v 2.127889862 1.597085260 1.969803193
v 2.320053005 1.701073471 1.967855428
v 2.320372911 2.423973400 1.957082268
v 2.220416953 2.609863036 1.954519287
v 1.584278632 3.792899279 1.938207994
v 1.882740999 3.933767213 1.935490408
v 2.505609242 3.069688856 1.947076154
v 2.722813677 3.419895405 1.941407412
v 3.721984767 2.450453145 1.953783582
v 3.388334648 2.111300763 1.959528869
v 3.414899203 2.055829902 1.960300443
v 4.124174682 2.427575162 1.953291182
v 4.123448930 0.787575322 1.977731606
v 5.122648833 0.787133145 1.975667888
v 5.124451351 4.860332746 1.914966221
v 3.722951488 4.860952954 1.917860837
v 4.025716832 5.234519007 1.911666718
v 3.723222607 5.925552938 1.901995838
v 5.128126838 13.165931933 1.791190376
v -5.065772164 13.170443052 1.812244551
v 0.178977450 13.055422075 1.803091633
v 1.453377325 13.054858113 1.800459525
v 4.127788166 12.174874517 1.808031564
v 4.786088102 12.174583199 1.806671931
v 4.836395096 12.134380731 1.807166785
v 5.127267479 11.901932189 1.810028005
v 4.786614308 11.555882905 1.815890578
v 4.786290021 10.823082977 1.826811274
v 2.984083077 9.225980353 1.854345059
v 2.983622800 8.185880455 1.869845355
v 2.625166090 7.831839049 1.875863912
v 2.624447730 6.208539208 1.900055461
v 1.209592131 6.341479629 1.901005943
v 1.322397819 6.322015417 1.901062265
v 1.513129470 6.855831064 1.892712271
v 1.933134026 6.855645199 1.891844806
v 1.582418423 8.176300531 1.872891359
v 1.984022105 9.088422898 1.858467001
v 2.804125823 9.774560044 1.846543109
v 2.804689696 11.048759919 1.827554092
v 4.127452993 11.417474591 1.819318867
v 1.452809867 11.772558239 1.819569254
v 1.200580155 11.659374547 1.821778504
v 0.922504508 11.534592892 1.824214136
v 0.692229695 10.588685604 1.838786961
v 0.581787246 10.817743600 1.835602422
v 0.250646287 10.411669336 1.842339765
v -0.362086549 7.160941961 1.892050956
v -0.481164643 6.633213580 1.900161775
v -0.480964658 6.633179091 1.900161875
v 0.724377915 6.425201583 1.900763683
v -0.079329429 5.582835652 1.914981690
v -0.481429389 5.583013594 1.915812175
v -0.485100739 5.575053136 1.915938407
v -0.642610633 7.135835274 1.893006327
v -1.222169527 11.593741983 1.827776398
v -3.725316210 9.455049495 1.864833159
v -2.980560327 9.129219885 1.868145493
v -2.980847928 8.479319949 1.877830756
v -3.725603944 8.804849558 1.874522893
v -5.068665654 6.631943692 1.909685839
v -4.685466319 7.308274181 1.898813334
v -4.674562701 7.306305912 1.898820073
v -4.202704837 7.221128395 1.899111697
v -3.724742971 7.134849014 1.899407093
v -4.203171626 6.166312831 1.914831296
v -4.283943995 6.002796367 1.917435340
v -4.214289778 5.886894131 1.919018169
v -3.620532437 4.898902678 1.932510758
v -2.630068779 4.681171775 1.933703130
v -1.883401256 4.517033906 1.934602008
v -1.486376273 4.945783451 1.927390254
v -0.868686583 5.227884933 1.921906608
v -0.932414046 4.178113031 1.937682122
v -1.328157664 4.026929740 1.940754989
v -1.481512218 3.814255989 1.944241952
v -1.333177665 3.412117133 1.949927194
v -0.816642033 3.520761734 1.947237952
v -0.441187098 2.803990402 1.957141193
v -0.180479417 2.306280094 1.964017786
v -1.104034493 1.332890726 1.980436596
v -1.218237810 1.496639255 1.978233076
v -2.320637702 1.497127101 1.980509940
v -1.582409641 1.334400396 1.981405275
v -1.012899880 1.202218858 1.982195012
v -3.452671807 -0.387472123 2.010939362
v -3.453173637 -1.521472012 2.027839021
v -4.286973555 -1.521103029 2.029561126
v -4.618250444 -2.325456508 2.042233821
v -3.136629684 -2.326112171 2.039173725
v -3.136238575 -1.442312258 2.026002721
v -2.618320096 -1.626641471 2.027676446
v -1.583069833 -0.609399502 2.010372726
v -0.918157898 -1.260493810 2.018697517
v -1.533702058 -1.586121444 2.024825335
v -1.534070731 -2.419221363 2.037240772
v 5.121228617 -2.422166541 2.023495115
v 5.122648611 0.786633145 1.975675339
v 4.389129835 -0.837442409 2.001396785
v 1.987630070 -0.836379670 2.006356771
v 1.320287174 0.874615817 1.982242600
v 5.124610308 5.219532711 1.909613172
v -0.077471855 10.684335330 1.838956405
v -0.077069639 11.593235241 1.825411343
v -0.818458068 7.326062911 1.890535946
v -0.869140443 4.202285033 1.937190815
v -0.918013279 -0.933693842 2.013827316
v 1.985462846 5.564921916 1.910970460
v -0.705869281 5.942612951 1.910918535
v -0.817522143 5.599462327 1.916263432
v -0.919010503 1.332306821 1.980061934
v 1.832399260 0.317689137 1.989480721
v 1.884259525 0.360066192 1.988741775
v -0.180753468 1.009080088 1.983348946
v -0.181395601 0.009980274 1.998238644
v 0.183819832 0.496718703 1.990228660
v -0.041893533 0.009918540 1.997950520
v 1.440144307 0.317862722 1.990290873
v 1.988140752 0.317620217 1.989159058
v 1.585451444 0.115898400 1.992999430
v -4.687638918 1.720874595 1.982080047
v -4.022053374 2.365980116 1.971087755
v -4.060907020 2.685861571 1.966401455
v -4.284596861 4.527496511 1.939421290
v -5.069305776 5.185443834 1.931242591
v -5.072629495 -2.325255431 2.043172281
v -5.071629495 -2.325255873 2.043170216
v -5.070582555 0.040543895 2.007913414
v -4.385797145 0.685340919 1.996885938
v 1.936754580 -3.492657416 2.046045455
v 1.586954614 -3.492502619 2.046767921
v 0.916004549 -4.283405780 2.059943973
v -0.182962339 -3.530419379 2.051000154
v -0.182819534 -3.207719411 2.046191054
v -1.534284297 -2.901821315 2.044432814
v -1.534417366 -3.202521286 2.048914055
v -2.985917224 -3.201878952 2.051911940
v -3.288317673 -3.880745197 2.062654820
v -4.019407974 -3.406721620 2.057105817
v -3.239369632 -2.901066762 2.047954447
v -5.072883950 -2.900255374 2.051741333
v -5.073512743 -4.321155235 2.072916575
v 4.796389006 -3.189522864 2.035603148
v 5.020636395 -2.904722073 2.030894476
v 4.792515084 -2.904621122 2.031365631
v 4.792087112 -3.871721027 2.045778030
v 4.021787187 -3.871380146 2.047368985
v 3.287481542 -3.206055127 2.038975911
v 2.620154513 -3.492959842 2.044633981
v 1.937015363 -2.903357474 2.037263295
v -3.719917631 -3.880554200 2.063546234
v 4.795886291 -4.325522753 2.052532613
v -4.800864637 -6.960327526 3.824623042
v -4.338575630 -6.497180681 3.819328036
v -4.338144649 -5.523280776 3.809493099
v -1.782048217 -6.673384010 3.817688651
v -1.485478545 -6.956343310 3.820149368
v -1.400472679 -6.988528531 3.820360699
v -0.812305757 -7.211222323 3.821822927
v -0.812426259 -6.838341146 3.818057765
v 0.588933534 -6.477561256 3.812540696
v 1.058627403 -7.053569166 3.817729087
v 1.192829237 -7.053628555 3.817550227
v 0.814933603 -5.607405928 3.803451726
v 0.588616887 -5.837261053 3.806075422
v -1.585318246 -5.690199004 3.807497457
v 4.020938943 -5.788179958 3.800989994
v 3.718538973 -5.788046136 3.801393021
v 3.718347445 -6.220846094 3.805763655
v 4.120947406 -6.221024257 3.805227085
v 4.277416912 -6.653138923 3.809381307
v 3.718161703 -6.866546075 3.812284128
v 4.391809161 -7.663344263 3.819429307
v 4.391518241 -8.320744199 3.826068066
v 3.717518307 -8.320445933 3.826966348
v 3.601853878 -8.557753282 3.829517328
v 3.717256694 -8.685645853 3.830654456
v 3.396119448 -8.992518130 3.834182662
v 3.588058975 -9.409988750 3.838141578
v 4.793636019 -9.410522255 3.836534829
v 4.795886291 -4.325522753 3.785183918
v -5.075763014 -9.406154737 3.849688404
v -3.810635492 -9.406714596 3.848002288
v -3.614488092 -9.011201358 3.843746134
v -3.092665871 -8.805273086 3.840968890
v -3.290458438 -8.266344679 3.835791330
v -2.937066221 -6.702200913 3.819524169
v -4.288666088 -6.701602787 3.821325532
v -4.289104017 -7.691202691 3.831319015
v -5.068099138 -7.228057916 3.827683915
v -2.986844781 -5.523878769 3.807692136
v -1.585100919 -5.199099052 3.802538080
v -0.183212968 -4.548719368 3.794095951
v 4.021486620 -4.550580079 3.788492081
v -5.068492459 -8.116857829 3.836659469
v -5.068206222 -7.470040107 3.830127575
v -5.073512743 -4.321155235 3.798337493
v -1.214817816 -7.723063161 3.827529705
v -1.486079180 -8.087643155 3.831573943
v -0.811793254 -8.571541595 3.835558632
v -0.487100419 -7.909885217 3.828443092
v -0.812088616 -7.883141397 3.828607620
v -0.812188797 -7.573141323 3.825477399
v -1.252760084 -7.572946356 3.826064576
v 1.232446780 -8.397146218 3.831063979
v 1.335513739 -8.094191799 3.827866946
v 1.219954056 -8.094140660 3.828020960
v 1.216607235 -8.118939182 3.828275849
v 1.216655534 -8.397139230 3.831085025
v 1.246593688 -9.048252543 3.837619879
v 1.300158711 -9.408976282 3.841190808
v -2.615863255 -9.407243320 3.846409939
v -2.615863521 -9.407843320 3.846415998
v 1.300247813 -9.409576322 3.841196748
v 1.316687106 -9.520283607 3.842292678
v 1.216089405 -9.741039111 3.844656371
v 1.536009927 -10.037095916 3.847218120
v 2.285168668 -9.410012180 3.839884081
v 2.617635967 -9.410159307 3.839440981
v 2.617636232 -9.409559307 3.839434922
v 2.285885092 -9.409412497 3.839877068
v 2.412785680 -9.303190290 3.838634749
v 1.888476675 -9.092036600 3.837203660
v 1.316920772 -8.540316928 3.832396743
v 1.316695981 -9.048283565 3.837526449
v 3.289820626 -8.767056707 3.832048118
v 3.087279687 -9.287639180 3.837575760
v 3.290026779 -9.093898146 3.835348260
v 3.289863785 -8.443556694 3.828781384
v 3.289734397 -8.326156625 3.827596061
v 3.289507032 -8.119856505 3.825513163
v 2.618349327 -7.798159465 3.823162187
v 1.316377024 -10.220983539 3.849368702
v 1.411012108 -10.141725410 3.848441811
v 1.316412117 -10.141683547 3.848567890
v 1.649186998 -10.141830810 3.848124380
v 2.617061473 -10.708359180 3.852550864
v 2.314861502 -10.708225447 3.852953625
v 2.314839551 -10.757830542 3.853454562
v 2.314668736 -11.143825404 3.857352534
v 2.560415870 -10.985088711 3.855421004
v 2.617115792 -11.037559236 3.855875026
v 2.616772367 -11.361659116 3.859148218
v 2.314486464 -11.555710298 3.861511958
v 2.314429415 -11.684625351 3.862813807
v 2.113805563 -11.684536569 3.863081191
v 1.992695018 -11.762282982 3.864028221
v 1.589925415 -11.693504737 3.863872301
v 1.589964864 -12.056304790 3.867535773
v 2.090678418 -12.034186154 3.866642850
v 2.314357990 -11.846025336 3.864443706
v 2.535687058 -12.007492399 3.865778219
v 3.651538206 -11.030954739 3.854425071
v 4.018761070 -10.709579476 3.850688788
v 4.119337342 -10.763219961 3.851095952
v 4.119376761 -10.674143834 3.850196415
v 4.021416064 -10.612989736 3.849709883
v 3.716370083 -10.689145656 3.850886816
v 3.549568588 -10.318428676 3.847366399
v 2.617491525 -9.736559275 3.842737134
v 2.527220100 -12.014902262 3.865864365
v 2.544780722 -12.014126535 3.865833050
v 2.616485032 -12.010959052 3.865705179
v 2.616460489 -12.066419357 3.866265246
v 1.215129523 -11.684138877 3.619894902
v 2.314429415 -11.684625351 3.616422211
v 2.314861502 -10.708225447 3.599108990
v 2.261210331 -10.708201705 3.599278475
v 1.649186998 -10.141830810 3.591174740
v 1.316377024 -10.220983539 3.593632100
v 1.316412117 -10.141683547 3.592225977
v 1.216089405 -9.741039111 3.585440142
v 1.316687106 -9.520283607 3.581207506
v 1.300247813 -9.409576322 3.579296694
v -2.615863521 -9.407843320 3.591667700
v -2.615863255 -9.407243320 3.591657061
v -2.988563219 -9.407078389 3.592834421
v -2.988563484 -9.407678388 3.592845060
v -3.901123108 -9.589174570 3.598952978
v -4.016947255 -9.822723337 3.603460663
v -3.432019199 -9.589382163 3.597471078
v -3.290743951 -9.589444682 3.597024789
v -3.245750036 -9.515075186 3.595563707
v -2.988278671 -8.764078452 3.581432945
v -3.614488092 -9.011201358 3.587797616
v -3.810635492 -9.406714596 3.595431349
v -3.810932986 -9.407314464 3.595442927
v -4.693527496 -12.263624168 3.648881166
v -3.538748144 -12.264135194 3.645233215
v -3.291585967 -11.718144518 3.634769918
v -2.464966915 -13.031110451 3.655431406
v -2.663008989 -12.971800146 3.655006986
v -2.614083185 -13.067844466 3.656554939
v -2.990187011 -13.302378051 3.661904351
v -2.990043321 -12.977678083 3.656146872
v -3.217725681 -12.805671729 3.653818185
v -3.716301197 -12.656356660 3.652749699
v -3.659674322 -12.531265733 3.650352472
v -5.077477203 -13.279754358 3.668113359
v -5.077518314 -13.372654349 3.669760632
v 4.793635754 -9.411122255 3.568261073
v 3.588334892 -9.410588872 3.572068622
v 3.716912128 -9.690245799 3.576619835
v 4.392381326 -10.211944766 3.583730600
v 4.743947671 -10.062100330 3.579960457
v 4.743490094 -11.096100229 3.598295023
v 4.677589624 -11.060953438 3.597880557
v 4.692418509 -11.031877622 3.597318074
v 4.119376761 -10.674143834 3.592790087
v 4.118446658 -12.775923792 3.630058198
v 3.291698958 -12.657557919 3.630577722
v 2.615912219 -13.305358926 3.644203535
v 2.616005063 -13.095556811 3.640483389
v 2.716822134 -13.057003557 3.639480556
v 2.991639402 -12.340125102 3.625899789
v 2.616460489 -12.066419357 3.622235042
v 2.544780722 -12.014126535 3.621534874
v 2.527220100 -12.014902262 3.621604240
v 2.535687058 -12.007492399 3.621446047
v 2.314357990 -11.846025336 3.619284105
v 2.090678418 -12.034186154 3.623328610
v 1.632726353 -12.419418629 3.631609158
v 1.315428591 -12.364183329 3.631634655
v 0.488612914 -13.303317529 3.650904175
v -0.165978882 -13.152013800 3.650294510
v -0.086481574 -13.064763008 3.648495772
v -0.913446799 -12.534052102 3.641704988
v -0.488348396 -11.181917413 3.616385027
v -0.488374668 -11.241284980 3.617437715
v 0.487825237 -11.241716979 3.614353897
v 0.913347744 -10.739005236 3.604093107
v -0.135852153 -10.738540933 3.607407532
v -0.135282660 -9.451641059 3.584588622
v 0.487217279 -9.451916534 3.582622143
v 0.487090538 -9.738316506 3.587700499
v 1.289483975 -10.205271636 3.593438690
v 0.913289982 -11.095505246 3.610414138
v -2.988565608 -9.412478388 3.592930172
v 4.791880719 -13.377021867 3.638583176
v -0.912927022 -11.359497114 3.620878143
v -4.692443814 -9.588824386 3.601452762
v -2.464386048 -11.718510580 3.632156791
v -2.615890028 -9.467743314 3.592729828
v -5.075763280 -9.406754737 3.599438529
v -5.067464648 -10.991658565 3.627513051
v -5.077443305 -13.203154366 3.666755111
v -4.016664751 -10.992123577 3.624193572
v 1.411012108 -10.141725410 3.591927135
v 1.536009927 -10.037095916 3.589676175
v 1.216655534 -8.397139230 3.561610617
v 0.486584194 -8.396816151 3.563916914
v 0.187152747 -8.693783672 3.570130488
v 0.590096052 -9.047962022 3.575134112
v 1.246593641 -9.048252543 3.573060234
v 1.316695981 -9.048283565 3.572838781
v 1.316920772 -8.540316928 3.563831674
v 1.316984113 -8.397183629 3.561293678
v 1.232446821 -8.397146218 3.561560732
v 2.617646794 -9.385693508 3.574701242
v 2.617759231 -9.131617066 3.570196037
v 2.412785684 -9.303190244 3.573887199
v 2.285885092 -9.409412497 3.576172426
v 2.617636232 -9.409559307 3.575124423
v 2.617635967 -9.410159307 3.575135062
v 2.678463861 -9.410186225 3.574942907
v 2.676972427 -9.409585565 3.574936980
v -3.613335004 -12.506802211 3.649771977
v -2.989856782 -12.330178102 3.644665919
v -2.614827700 -12.264544058 3.642314549
v -4.214289778 5.886894131 1.843014525
v -4.203171626 6.166312839 1.843761446
v -5.068665654 6.631943692 -3.903265268
v -5.069305776 5.185443834 -3.903265268
v -4.285366338 2.110769315 1.975436426
v -5.072629495 -2.325255431 -3.903265268
v -5.072670385 -2.417655422 -3.903265268
v -5.072883950 -2.900255374 -3.903265268
v 5.020636361 -2.904722073 -3.903265268
v 5.121071519 -2.777166506 -3.903265268
v 5.121228617 -2.422166541 -3.903265268
v -1.534029841 -2.326821372 2.035863763
v -0.932414046 4.178113031 1.844540260
v -1.580956690 4.843645497 1.929108259
v -0.362086595 7.160941936 -3.903265268
v -0.562654097 12.281750195 1.816157357
v -0.399726307 11.593378027 1.826077748
v 1.200580155 11.659374547 1.867877100
v 1.452843919 11.849507431 1.818422504
v 4.127699037 11.973467337 1.811033075
v 5.124451351 4.860332746 -3.903265268
v 5.124610308 5.219532711 -3.903265268
v 1.630707372 0.591398819 1.985819858
v 5.122648611 0.786633145 -3.903265268
v 5.122648833 0.787133145 -3.903265268
v 2.505609279 3.069688890 -3.903265268
v 2.127889868 1.597085299 -3.903265268
v -5.068206222 -7.470040092 3.731489680
v -3.092665911 -8.805273061 3.582493916
v -2.988422595 -9.089306320 3.733046993
v -2.988422595 -9.089306320 3.587199785
v -2.988422788 -9.089743920 3.733051355
v -2.988422788 -9.089743920 3.587207545
v -2.615863255 -9.407243320 3.733603648
v 1.219954009 -8.094140660 -3.903265268
v 1.335513698 -8.094191799 -3.903265268
v 2.617635967 -9.410159307 3.696955505
v 2.314861502 -10.708225447 3.712010044
v 4.021416014 -10.612989741 -3.903265268
v 4.119376761 -10.674143798 -3.903265268
v 4.793635754 -9.411122255 -3.903265268
v 4.793636019 -9.410522255 -3.903265268
v -0.634941954 -4.758290584 3.796816250
v -0.634941954 -4.758290584 -3.903265268
v 0.814933628 -5.607405883 3.803451725
v 0.814933628 -5.607405883 3.671702253
v -1.681674026 -6.769151770 3.818521483
v 2.984171568 -8.326021404 3.828003304
v -5.075763014 -9.406154737 -3.903265268
v -5.075763280 -9.406754737 -3.903265268
v -3.810635538 -9.406714596 -3.903265268
v -5.077443305 -13.203154366 -3.903265268
v -5.077477203 -13.279754358 -3.903265268
v 2.113805535 -11.684536569 -3.903265268
v 2.113805535 -11.684536569 3.617055982
v 2.560415906 -10.985088740 -3.903265268
v 2.314668736 -11.143825404 3.606832914
v 2.314486464 -11.555710264 3.614136329
v 4.119130130 -11.231463943 3.602672314
v 4.119337342 -10.763219989 3.594369558
v 2.544780723 -12.014126521 -3.903265268
v 2.616460489 -12.066419347 -3.903265268
v -5.066989788 10.418943321 1.853249324
v -5.066989788 10.418943321 -3.903265268
v -4.214289778 5.886894131 -3.903265268
v -0.932414046 4.178113031 -3.903265268
v 5.121269507 -2.329766550 2.022118106
v 5.121269507 -2.329766550 -3.903265268
v 3.414899203 2.055829902 -3.903265268
v 5.125908429 8.152932424 1.865897599
v 5.125908429 8.152932424 -3.903265268
v 5.128126838 13.165931933 -3.903265268
v -5.065772164 13.170443052 -3.903265268
v -1.012899880 1.202218858 -3.903265268
v -0.480964658 6.633179091 -3.903265268
v -0.642610633 7.135835274 -3.903265268
v 1.200580155 11.659374547 -3.903265268
v -5.073512743 -4.321155235 -3.903265268
v 4.795886291 -4.325522753 -3.903265268
v 4.796389006 -3.189522864 -3.903265268
v -1.400472679 -6.988528531 -3.903265268
v 1.246593688 -9.048252543 -3.903265268
v 2.314839551 -10.757830542 3.599988573
v 2.314839551 -10.757830542 -3.903265268
v -5.077518314 -13.372654349 -3.903265268
v 4.791880719 -13.377021867 -3.903265268
v 4.677589641 -11.060953463 -3.903265268
v 2.616005063 -13.095556846 -3.903265268
v -2.988422788 -9.089743920 -3.903265268
v -3.245750036 -9.515075186 -3.903265268
v 1.232446821 -8.397146218 -3.903265268
v 2.412785684 -9.303190244 -3.903265268
v 2.676972427 -9.409585565 -3.903265268
g roof
f 1 697 2 3
g roof
f 1 3 4
g roof
f 1 4 5
g roof
f 1 5 6
g roof
f 1 6 7
g roof
f 1 7 8
g roof
f 1 8 9
g roof
f 1 9 10
g roof
f 11 12 13
g roof
f 13 14 15
g roof
f 15 16 17
g roof
f 15 17 18
g roof
f 15 18 19
g roof
f 19 20 21
g roof
f 19 21 22
g roof
f 19 22 23
g roof
f 19 23 24
g roof
f 19 24 25
g roof
f 26 27 28
g roof
f 26 28 29
g roof
f 29 30 31
g roof
f 29 31 32
g roof
f 33 34 35
g roof
f 33 35 36
g roof
f 37 38 39
g roof
f 37 39 40
g roof
f 37 40 41
g roof
f 41 42 43
g roof
f 44 45 46
g roof
f 44 46 47
g roof
f 48 49 50
g roof
f 48 50 51
g roof
f 48 51 52
g roof
f 48 52 53
g roof
f 48 53 54
g roof
f 48 54 55
g roof
f 56 708 57 58
g roof
f 56 58 59
g roof
f 56 59 60
g roof
f 56 60 61
g roof
f 56 61 62
g roof
f 56 62 63
g roof
f 63 696 1 10
g roof
f 10 11 13
g roof
f 15 19 25
g roof
f 15 25 26
g roof
f 26 29 32
g roof
f 32 33 36
g roof
f 64 37 41
g roof
f 64 41 43
g roof
f 47 48 55
g roof
f 55 56 63
g roof
f 55 63 10
g roof
f 55 10 13
g roof
f 55 13 15
g roof
f 15 26 32
g roof
f 15 32 36
g roof
f 36 64 43
g roof
f 36 43 65
g roof
f 44 47 55
g roof
f 44 55 15
g roof
f 15 36 65
g roof
f 15 65 44
g roof
f 66 67 68
g roof
f 66 68 69
g roof
f 70 71 72
g roof
f 70 72 73
g roof
f 70 73 74
g roof
f 70 74 75
g roof
f 70 75 76
g roof
f 70 76 77
g roof
f 78 79 80
g roof
f 81 82 83
g roof
f 81 83 84
g roof
f 81 84 85
g roof
f 81 85 86
g roof
f 81 86 87
g roof
f 87 88 89
g roof
f 87 89 90
g roof
f 90 91 92
g roof
f 92 713 93 81
g roof
f 92 81 87
g roof
f 92 87 90
g roof
f 94 95 96
g roof
f 96 97 98
g roof
f 96 98 99
g roof
f 100 101 102
g roof
f 100 102 103
g roof
f 103 104 105
g roof
f 105 106 107
g roof
f 105 107 108
g roof
f 105 108 109
g roof
f 105 109 110
g roof
f 105 110 111
g roof
f 105 111 112
g roof
f 105 112 113
g roof
f 113 114 115
g roof
f 113 115 116
g roof
f 113 116 94
g roof
f 94 96 99
g roof
f 94 99 100
g roof
f 94 100 103
g roof
f 103 105 113
g roof
f 103 113 94
g roof
f 117 118 119
g roof
f 119 120 121
g roof
f 119 121 117
g roof
f 49 122 123
g roof
f 123 124 125
g roof
f 123 125 126
g roof
f 123 126 127
g roof
f 128 129 130
g roof
f 132 133 134
g roof
f 132 134 135
g roof
f 132 135 136
g roof
f 136 128 137
g roof
f 137 138 139
g roof
f 137 139 140
g roof
f 137 140 141
g roof
f 137 141 142
g roof
f 137 142 143
g roof
f 137 143 144
g roof
f 137 144 145
g roof
f 145 146 147
g roof
f 145 147 148
g roof
f 148 149 150
g roof
f 148 150 151
g roof
f 148 151 152
g roof
f 148 152 131
g roof
f 131 132 136
g roof
f 131 136 137
g roof
f 131 137 145
g roof
f 131 145 148
g roof
f 153 154 155
g roof
f 153 155 156
g roof
f 153 156 27
g roof
f 157 158 733 159
g roof
f 157 159 160
g roof
f 161 162 163
g roof
f 161 163 164
g roof
f 165 166 167
g roof
f 165 167 168
g roof
f 165 168 169
g roof
f 165 169 170
g roof
f 171 172 173
g roof
f 171 173 174
g roof
f 175 176 177
g roof
f 178 179 180
g roof
f 178 180 181
g roof
f 181 182 183
g roof
f 181 183 184
g roof
f 185 186 187
g roof
f 185 187 188
g roof
f 185 188 189
g roof
f 185 189 190
g roof
f 190 191 192
g roof
f 190 192 741 193
g roof
f 741 193 194 195
g roof
f 196 197 198
g roof
f 196 198 194
g roof
f 199 200 201
g roof
f 199 201 202
g roof
f 202 203 204
g roof
f 202 204 205
g roof
f 202 205 206 207
g roof
f 208 209 204
g roof
f 208 204 203
g roof
f 208 203 210
g roof
f 208 210 211
g roof
f 208 211 212
g roof
f 208 212 213
g roof
f 213 214 215
g roof
f 213 215 216
g roof
f 213 216 217
g roof
f 217 723 218 219
g roof
f 217 219 220
g roof
f 221 222 223
g roof
f 221 223 224
g roof
f 221 224 725 727 225
g roof
f 225 729 226 227
g roof
f 225 227 228
g roof
f 225 228 229
g roof
f 225 229 230
g roof
f 230 231 232
g roof
f 230 232 233
g roof
f 234 235 236
g roof
f 234 236 237
g roof
f 234 237 238
g roof
f 234 238 239
g roof
f 234 239 240
g roof
f 240 241 242
g roof
f 240 242 243
g roof
f 243 732 244 245
g roof
f 243 245 157
g roof
f 243 157 160
g roof
f 243 160 161
g roof
f 243 161 163 164
g roof
f 243 164 165
g roof
f 243 165 170
g roof
f 243 170 171
g roof
f 177 178 181
g roof
f 177 181 184
g roof
f 177 184 185
g roof
f 185 190 193 741
g roof
f 185 741 193 195
g roof
f 185 195 246
g roof
f 185 246 247
g roof
f 185 247 248
g roof
f 196 194 741 193
g roof
f 196 741 193 249
g roof
f 196 249 199
g roof
f 199 202 207
g roof
f 199 207 250
g roof
f 213 217 220
g roof
f 213 220 221
g roof
f 225 230 233
g roof
f 175 177 185
g roof
f 175 185 248
g roof
f 208 213 221
g roof
f 208 221 225
g roof
f 171 174 175 248 196
g roof
f 250 208 225
g roof
f 250 225 233
g roof
f 243 171 196
g roof
f 199 250 233
g roof
f 199 233 234
g roof
f 199 234 240
g roof
f 240 243 196
g roof
f 240 196 199
g roof
f 251 252 253
g roof
f 251 253 254
g roof
f 255 256 257
g roof
f 255 257 258
g roof
f 255 258 259
g roof
f 260 261 262
g roof
f 262 263 264
g roof
f 262 264 265
g roof
f 262 265 266
g roof
f 262 266 267
g roof
f 262 267 268
g roof
f 268 269 270
g roof
f 268 270 271
g roof
f 268 271 260
g roof
f 268 260 262
g roof
f 272 273 274
g roof
f 272 274 258
g roof
f 275 276 277
g roof
f 275 277 278
g roof
f 275 278 279
g roof
f 275 279 280
g roof
f 275 280 259
g roof
f 281 282 277
g roof
f 277 273 283
g roof
f 277 283 281
g roof
f 284 285 286
g roof
f 284 286 287
g roof
f 288 289 290
g roof
f 288 290 291
g roof
f 288 291 292
g roof
f 293 294 295
g roof
f 293 295 296
g roof
f 293 296 297
g roof
f 297 298 299
g roof
f 297 299 300
g roof
f 300 301 302
g roof
f 300 302 303
g roof
f 300 303 284
g roof
f 300 284 287
g roof
f 300 287 304
g roof
f 305 288 292
g roof
f 306 293 297
g roof
f 306 297 300
g roof
f 306 300 304
g roof
f 304 305 292
g roof
f 304 292 306
g roof
f 307 308 309
g roof
f 307 309 310
g roof
f 307 310 311
g roof
f 312 313 314
g roof
f 315 316 317
g roof
f 315 317 318
g roof
f 318 319 320
g roof
f 318 320 321
g roof
f 318 321 322
g roof
f 318 322 323
g roof
f 323 324 325
g roof
f 323 325 312
g roof
f 323 312 314
g roof
f 323 314 315
g roof
f 323 315 318
g roof
f 326 327 328
g roof
f 326 328 329
g roof
f 326 329 330
g roof
f 326 330 331
g roof
f 332 333 334
g roof
f 335 336 337
g roof
f 335 337 338
g roof
f 338 339 340
g roof
f 338 340 341
g roof
f 338 341 342
g roof
f 342 343 344
g roof
f 345 346 347
g roof
f 345 347 348
g roof
f 345 348 349
g roof
f 345 349 350
g roof
f 345 350 351
g roof
f 345 351 352
g roof
f 352 353 354
g roof
f 354 355 102 356
g roof
f 356 357 358
g roof
f 359 360 361
g roof
f 361 362 363
g roof
f 364 365 366
g roof
f 366 367 715 349
g roof
f 366 349 348
g roof
f 366 348 714 368
g roof
f 366 368 369
g roof
f 366 369 370
g roof
f 366 370 371
g roof
f 371 372 373
g roof
f 374 375 376
g roof
f 374 376 377
g roof
f 378 379 380
g roof
f 382 711 347 346
g roof
f 382 346 383
g roof
f 382 383 384
g roof
f 382 384 385
g roof
f 386 383 346
g roof
f 346 758 387 388
g roof
f 346 388 389
g roof
f 346 389 390
g roof
f 346 390 391
g roof
f 392 393 394
g roof
f 392 394 395
g roof
f 392 395 396
g roof
f 392 396 397
g roof
f 392 397 709 398
g roof
f 392 398 399
g roof
f 400 401 402
g roof
f 400 402 403
g roof
f 400 403 404
g roof
f 400 404 405
g roof
f 400 405 406
g roof
f 407 408 409
g roof
f 407 409 410
g roof
f 410 409 412
g roof
f 410 412 413
g roof
f 413 414 415
g roof
f 413 415 416
g roof
f 413 416 417
g roof
f 417 418 419
g roof
f 420 421 707 422
g roof
f 420 422 423
g roof
f 423 762 424 425
g roof
f 423 425 426
g roof
f 427 326 331
g roof
f 334 335 338
g roof
f 334 338 342
g roof
f 334 342 344
g roof
f 428 765 345 352
g roof
f 428 352 354
g roof
f 428 354 356
g roof
f 359 361 363
g roof
f 115 364 366
g roof
f 115 366 371
g roof
f 115 371 373
g roof
f 115 373 429
g roof
f 429 430 712 382
g roof
f 431 382 385
g roof
f 431 385 386
g roof
f 386 346 391
g roof
f 391 392 399
g roof
f 432 400 406
g roof
f 410 413 417
g roof
f 410 417 419
g roof
f 410 419 433
g roof
f 433 420 423
g roof
f 433 423 426
g roof
f 332 334 344
g roof
f 344 428 356
g roof
f 344 356 358
g roof
f 344 358 434
g roof
f 363 115 429
g roof
f 363 429 382
g roof
f 363 382 431
g roof
f 363 431 374
g roof
f 363 374 377
g roof
f 435 375 374
g roof
f 435 374 381
g roof
f 435 381 431
g roof
f 435 431 386
g roof
f 435 386 391
g roof
f 399 432 406
g roof
f 331 332 344
g roof
f 331 344 434
g roof
f 331 434 359
g roof
f 359 363 377
g roof
f 359 377 378
g roof
f 436 435 391
g roof
f 436 391 399
g roof
f 436 399 406
g roof
f 427 331 359
g roof
f 427 359 378
g roof
f 427 378 380
g roof
f 427 380 436
g roof
f 427 436 406
g roof
f 427 406 437
g roof
f 427 437 407
g roof
f 438 439 718 427
g roof
f 407 411 440
g roof
f 441 411 410
g roof
f 441 410 433
g roof
f 441 433 426
g roof
f 427 407 440
g roof
f 427 440 442
g roof
f 427 442 443
g roof
f 443 441 426
g roof
f 444 427 443
g roof
f 444 443 426
g roof
f 438 427 444
g roof
f 426 445 438
g roof
f 426 438 446
g roof
f 426 446 444
g roof
f 447 700 448 449
g roof
f 447 449 450
g roof
f 447 450 451
g roof
f 451 452 453
g roof
f 451 453 454
g roof
f 454 455 447
g roof
f 454 447 451
g roof
f 456 457 458
g roof
f 459 460 461
g roof
f 459 461 462
g roof
f 459 462 463
g roof
f 459 463 464
g roof
f 465 466 467
g roof
f 465 467 468
g roof
f 469 470 471
g roof
f 469 471 472
g roof
f 473 474 475
g roof
f 456 476 461
g roof
f 456 461 460
g roof
f 458 459 464
g roof
f 458 464 477
g roof
f 477 465 468
g roof
f 478 469 472
g roof
f 478 472 473
g roof
f 478 473 475
g roof
f 458 477 468
g roof
f 458 468 478
g roof
f 458 478 475
g roof
f 456 458 475
g roof
f 479 480 481
g roof
f 482 742 483 484
g roof
f 482 484 485
g roof
f 482 485 486
g roof
f 482 486 487
g roof
f 487 488 489
g roof
f 487 489 740 490
g roof
f 487 490 491
g roof
f 487 491 492
g roof
f 493 494 495
g roof
f 493 495 496
g roof
f 493 496 497
g roof
f 497 498 499
g roof
f 500 501 502
g roof
f 500 502 503
g roof
f 500 503 504
g roof
f 500 504 505
g roof
f 500 505 506
g roof
f 500 506 507
g roof
f 508 509 510
g roof
f 508 510 511
g roof
f 508 511 512
g roof
f 508 512 513
g roof
f 513 514 515
g roof
f 516 479 481
g roof
f 517 482 487
g roof
f 517 487 492
g roof
f 517 492 518
g roof
f 517 518 738 519
g roof
f 520 493 497
g roof
f 499 500 507
g roof
f 508 513 515
g roof
f 508 515 521
g roof
f 508 521 522
g roof
f 508 522 516
g roof
f 481 517 519
g roof
f 497 499 507
g roof
f 523 508 516
g roof
f 523 516 481
g roof
f 523 481 519
g roof
f 523 519 520
g roof
f 520 497 507
g roof
f 520 507 523
g roof
f 524 525 526
g roof
f 526 527 528
g roof
f 528 529 530
g roof
f 528 530 524
g roof
f 528 524 526
g roof
f 531 532 533
g roof
f 531 533 534
g roof
f 531 534 535
g roof
f 537 538 539
g roof
f 537 539 540
g roof
f 541 542 543
g roof
f 541 543 544
g roof
f 544 545 546
g roof
f 544 546 547
g roof
f 547 548 549
g roof
f 549 550 551
g roof
f 549 551 536
g roof
f 549 536 537
g roof
f 549 537 540 541
g roof
f 549 541 544
g roof
f 549 544 547
g roof
f 552 553 554
g roof
f 552 554 555
g roof
f 552 555 556
g roof
f 552 556 557
g roof
f 552 557 558 743
g roof
f 559 560 561
g roof
f 543 560 562
g roof
f 563 564 565
g roof
f 563 565 566
g roof
f 563 566 567
g roof
f 563 567 568
g roof
f 569 570 571
g roof
f 571 572 573
g roof
f 573 574 575
g roof
f 573 575 576
g roof
f 573 576 577
g roof
f 577 578 579
g roof
f 577 579 580
g roof
f 580 581 582
g roof
f 580 582 583
g roof
f 580 583 584
g roof
f 584 585 586
g roof
f 584 586 563
g roof
f 584 563 568
g roof
f 584 568 569
g roof
f 584 569 571
g roof
f 571 573 577
g roof
f 571 577 580
g roof
f 571 580 584
g roof
f 587 588 578
g roof
f 589 588 590
g roof
f 591 750 592 753 752 778 593
g roof
f 591 593 594
g roof
f 591 594 595
g roof
f 596 597 598
g roof
f 598 599 600
g roof
f 601 602 603
g roof
f 601 603 604
g roof
f 605 606 607
g roof
f 607 608 609
g roof
f 610 724 611 612
g roof
f 610 612 613
g roof
f 614 615 616
g roof
f 617 618 619
g roof
f 617 619 620
g roof
f 620 621 622
g roof
f 620 622 623
g roof
f 623 624 625
g roof
f 623 625 626
g roof
f 627 628 629
g roof
f 627 629 630
g roof
f 627 630 631
g roof
f 627 631 632
g roof
f 633 634 635
g roof
f 633 635 755 754 636
g roof
f 636 637 638
g roof
f 639 640 641
g roof
f 639 641 642
g roof
f 639 642 643
g roof
f 639 643 644
g roof
f 644 645 646
g roof
f 644 646 647
g roof
f 644 647 648
g roof
f 648 649 650
g roof
f 651 652 653
g roof
f 654 655 656
g roof
f 654 656 657
g roof
f 654 657 658
g roof
f 654 658 659
g roof
f 660 661 662
g roof
f 662 663 591
g roof
f 605 607 609 664
g roof
f 620 623 626
g roof
f 620 626 665
g roof
f 665 627 632
g roof
f 665 632 633
g roof
f 665 633 636
g roof
f 665 636 638
g roof
f 638 639 644
g roof
f 638 644 648
g roof
f 638 648 650
g roof
f 666 654 659
g roof
f 667 605 664
g roof
f 620 665 638
g roof
f 620 638 650
g roof
f 620 650 651
g roof
f 620 651 653
g roof
f 617 620 653
g roof
f 617 653 666
g roof
f 617 666 659
g roof
f 668 617 659
g roof
f 616 668 659
g roof
f 614 616 659
g roof
f 600 601 669
g roof
f 664 604 603 728 726 610 613
g roof
f 664 613 670
g roof
f 667 664 670
g roof
f 671 667 670
g roof
f 671 670 672
g roof
f 671 672 614
g roof
f 673 671 614
g roof
f 673 614 659
g roof
f 669 673 659
g roof
f 600 669 659
g roof
f 600 659 660
g roof
f 598 600 660
g roof
f 598 660 662
g roof
f 674 675 598
g roof
f 674 598 597
g roof
f 596 598 662
g roof
f 596 662 591
g roof
f 596 591 595
g roof
f 674 596 595
g roof
f 676 677 678
g roof
f 676 678 679
g roof
f 676 679 680
g roof
f 676 680 681
g roof
f 676 681 682
g roof
f 682 683 684
g roof
f 682 684 676
g roof
f 685 686 687
g roof
f 685 687 688
g roof
f 685 688 689
g roof
f 689 690 691
g roof
f 692 685 689
g roof
f 692 689 691
g roof
f 693 622 618
g roof
f 693 618 694
g roof
f 694 695 615
g roof
f 615 624 693
g roof
f 615 693 694
g roof_step_or_fixture_side
f 394 393 1 696
g roof_step_or_fixture_side
f 393 392 697 1
g roof_step_or_fixture_side
f 392 391 2 697
g roof_step_or_fixture_side
f 391 390 3 2
g roof_step_or_fixture_side
f 390 389 4 3
g roof_step_or_fixture_side
f 389 388 5 4
g roof_step_or_fixture_side
f 388 387 6 5
g facade_completed
f 7 6 698 699
g roof_step_or_fixture_side
f 451 450 8 7
g roof_step_or_fixture_side
f 450 449 9 8
g roof_step_or_fixture_side
f 449 448 10 9
g roof_step_or_fixture_side
f 448 700 11 10
g roof_step_or_fixture_side
f 700 447 12 11
g roof_step_or_fixture_side
f 447 455 13 12
g roof_step_or_fixture_side
f 455 454 14 13
g roof_step_or_fixture_side
f 454 453 15 14
g roof_step_or_fixture_side
f 453 452 16 15
g facade_completed
f 17 16 701 702
g facade_completed
f 18 17 702 703
g roof_step_or_fixture_side
f 467 466 19 18
g roof_step_or_fixture_side
f 466 465 20 19
g roof_step_or_fixture_side
f 465 477 21 20
g roof_step_or_fixture_side
f 477 464 22 21
g roof_step_or_fixture_side
f 464 463 23 22
g roof_step_or_fixture_side
f 463 462 24 23
g roof_step_or_fixture_side
f 462 461 25 24
g roof_step_or_fixture_side
f 461 476 26 25
g roof_step_or_fixture_side
f 476 456 27 26
g roof_step_or_fixture_side
f 456 475 28 27
g roof_step_or_fixture_side
f 475 474 29 28
g roof_step_or_fixture_side
f 474 473 30 29
g roof_step_or_fixture_side
f 473 472 31 30
g roof_step_or_fixture_side
f 472 471 32 31
g roof_step_or_fixture_side
f 471 470 33 32
g facade_completed
f 34 33 704 705
g facade_completed
f 35 34 705 706
g roof_step_or_fixture_side
f 423 422 36 35
g roof_step_or_fixture_side
f 422 707 64 36
g roof_step_or_fixture_side
f 707 421 37 64
g roof_step_or_fixture_side
f 421 420 38 37
g roof_step_or_fixture_side
f 420 433 39 38
g roof_step_or_fixture_side
f 433 419 40 39
g roof_step_or_fixture_side
f 419 418 41 40
g roof_step_or_fixture_side
f 418 417 42 41
g roof_step_or_fixture_side
f 417 416 43 42
g roof_step_or_fixture_side
f 416 415 65 43
g roof_step_or_fixture_side
f 415 414 44 65
g roof_step_or_fixture_side
f 414 413 45 44
g roof_step_or_fixture_side
f 413 412 46 45
g roof_step_or_fixture_side
f 412 409 47 46
g roof_step_or_fixture_side
f 409 408 48 47
g roof_step_or_fixture_side
f 408 407 49 48
g roof_step_or_fixture_side
f 407 437 50 49
g roof_step_or_fixture_side
f 437 406 51 50
g roof_step_or_fixture_side
f 406 405 52 51
g roof_step_or_fixture_side
f 405 404 53 52
g roof_step_or_fixture_side
f 404 403 54 53
g roof_step_or_fixture_side
f 403 402 55 54
g roof_step_or_fixture_side
f 402 401 56 55
g roof_step_or_fixture_side
f 401 400 708 56
g roof_step_or_fixture_side
f 400 432 57 708
g roof_step_or_fixture_side
f 432 399 58 57
g roof_step_or_fixture_side
f 399 398 59 58
g roof_step_or_fixture_side
f 398 709 60 59
g roof_step_or_fixture_side
f 709 397 61 60
g roof_step_or_fixture_side
f 397 396 62 61
g roof_step_or_fixture_side
f 396 395 63 62
g roof_step_or_fixture_side
f 395 394 696 63
g roof_step_or_fixture_side
f 383 386 69 68
g roof_step_or_fixture_side
f 386 385 66 69
g roof_step_or_fixture_side
f 385 384 67 66
g roof_step_or_fixture_side
f 384 383 68 67
g roof_step_or_fixture_side
f 378 377 72 71
g roof_step_or_fixture_side
f 377 376 73 72
g roof_step_or_fixture_side
f 376 375 74 73
g roof_step_or_fixture_side
f 375 435 75 74
g roof_step_or_fixture_side
f 435 436 76 75
g roof_step_or_fixture_side
f 436 380 77 76
g roof_step_or_fixture_side
f 380 379 70 77
g roof_step_or_fixture_side
f 379 378 71 70
g roof_step_or_fixture_side
f 374 431 80 79
g roof_step_or_fixture_side
f 431 381 78 80
g roof_step_or_fixture_side
f 381 374 79 78
g roof_step_or_fixture_side
f 83 82 348 347
g roof_step_or_fixture_side
f 84 83 347 711
g roof_step_or_fixture_side
f 85 84 711 382
g roof_step_or_fixture_side
f 86 85 382 712
g roof_step_or_fixture_side
f 87 86 712 430
g roof_step_or_fixture_side
f 88 87 430 429
g roof_step_or_fixture_side
f 89 88 429 373
g roof_step_or_fixture_side
f 90 89 373 372
g roof_step_or_fixture_side
f 91 90 372 371
g roof_step_or_fixture_side
f 92 91 371 370
g roof_step_or_fixture_side
f 713 92 370 369
g roof_step_or_fixture_side
f 93 713 369 368
g roof_step_or_fixture_side
f 81 93 368 714
g roof_step_or_fixture_side
f 82 81 714 348
g roof_step_or_fixture_side
f 361 360 96 95
g roof_step_or_fixture_side
f 360 359 97 96
g roof_step_or_fixture_side
f 359 434 98 97
g roof_step_or_fixture_side
f 434 358 99 98
g roof_step_or_fixture_side
f 358 357 100 99
g roof_step_or_fixture_side
f 357 356 101 100
g roof_step_or_fixture_side
f 356 102 101
g roof_step_or_fixture_side
f 103 102 355
g roof_step_or_fixture_side
f 104 103 355 354
g roof_step_or_fixture_side
f 105 104 354 353
g roof_step_or_fixture_side
f 106 105 353 352
g roof_step_or_fixture_side
f 107 106 352 351
g roof_step_or_fixture_side
f 108 107 351 350
g roof_step_or_fixture_side
f 109 108 350 349
g roof_step_or_fixture_side
f 110 109 349 715
g roof_step_or_fixture_side
f 111 110 715 367
g roof_step_or_fixture_side
f 112 111 367 366
g roof_step_or_fixture_side
f 113 112 366 365
g roof_step_or_fixture_side
f 114 113 365 364
g roof_step_or_fixture_side
f 115 114 364
g roof_step_or_fixture_side
f 115 363 116
g roof_step_or_fixture_side
f 363 362 94 116
g roof_step_or_fixture_side
f 362 361 95 94
g roof_step_or_fixture_side
f 428 344 120 119
g roof_step_or_fixture_side
f 344 343 121 120
g roof_step_or_fixture_side
f 343 342 117 121
g roof_step_or_fixture_side
f 342 341 118 117
g facade_completed
f 119 118 716 717
g roof_step_or_fixture_side
f 410 411 123 122
g roof_step_or_fixture_side
f 411 407 49 123
g roof_step_or_fixture_side
f 407 410 122 49
g roof_step_or_fixture_side
f 443 442 126 125
g roof_step_or_fixture_side
f 442 440 127 126
g roof_step_or_fixture_side
f 440 411 123 127
g roof_step_or_fixture_side
f 411 441 124 123
g roof_step_or_fixture_side
f 441 443 125 124
g roof_step_or_fixture_side
f 446 438 128 130
g roof_step_or_fixture_side
f 438 444 129 128
g roof_step_or_fixture_side
f 444 446 130 129
g roof_step_or_fixture_side
f 327 326 133 132
g roof_step_or_fixture_side
f 326 427 134 133
g roof_step_or_fixture_side
f 427 718 135 134
g roof_step_or_fixture_side
f 718 439 136 135
g roof_step_or_fixture_side
f 439 438 128 136
g roof_step_or_fixture_side
f 438 445 137 128
g roof_step_or_fixture_side
f 445 426 138 137
g roof_step_or_fixture_side
f 426 425 139 138
g roof_step_or_fixture_side
f 425 424 140 139
g facade_completed
f 141 140 719 720
g roof_step_or_fixture_side
f 340 339 142 141
g roof_step_or_fixture_side
f 339 338 143 142
g roof_step_or_fixture_side
f 338 337 144 143
g roof_step_or_fixture_side
f 337 336 145 144
g roof_step_or_fixture_side
f 336 335 146 145
g roof_step_or_fixture_side
f 335 334 147 146
g roof_step_or_fixture_side
f 334 333 148 147
g roof_step_or_fixture_side
f 333 332 149 148
g roof_step_or_fixture_side
f 332 331 150 149
g roof_step_or_fixture_side
f 331 330 151 150
g roof_step_or_fixture_side
f 330 329 152 151
g roof_step_or_fixture_side
f 329 328 131 152
g roof_step_or_fixture_side
f 328 327 132 131
g roof_step_or_fixture_side
f 459 458 155 154
g roof_step_or_fixture_side
f 458 457 156 155
g roof_step_or_fixture_side
f 457 456 27 156
g roof_step_or_fixture_side
f 456 460 153 27
g roof_step_or_fixture_side
f 460 459 154 153
g roof_step_or_fixture_side
f 517 481 214 213
g roof_step_or_fixture_side
f 481 480 215 214
g roof_step_or_fixture_side
f 480 479 216 215
g roof_step_or_fixture_side
f 479 516 217 216
g roof_step_or_fixture_side
f 516 522 723 217
g roof_step_or_fixture_side
f 522 521 218 723
g roof_step_or_fixture_side
f 521 515 219 218
g roof_step_or_fixture_side
f 515 514 220 219
g roof_step_or_fixture_side
f 514 513 221 220
g roof_step_or_fixture_side
f 513 512 222 221
g roof_step_or_fixture_side
f 512 511 223 222
g roof_step_or_fixture_side
f 224 223 724 610
g roof_step_or_fixture_side
f 725 224 610 726
g roof_step_or_fixture_side
f 727 725 726 728
g roof_step_or_fixture_side
f 225 727 728 603
g roof_step_or_fixture_side
f 729 225 603 602
g roof_step_or_fixture_side
f 538 537 226 729
g roof_step_or_fixture_side
f 537 536 227 226
g roof_step_or_fixture_side
f 228 227 680 679
g roof_step_or_fixture_side
f 229 228 679 678
g roof_step_or_fixture_side
f 230 229 678 677
g roof_step_or_fixture_side
f 231 230 677 676
g roof_step_or_fixture_side
f 535 534 232 231
g roof_step_or_fixture_side
f 534 533 233 232
g roof_step_or_fixture_side
f 533 532 234 233
g roof_step_or_fixture_side
f 532 531 235 234
g roof_step_or_fixture_side
f 236 235 684 683
g roof_step_or_fixture_side
f 237 236 683 682
g roof_step_or_fixture_side
f 550 549 238 237
g roof_step_or_fixture_side
f 549 548 239 238
g roof_step_or_fixture_side
f 240 239 687 686
g roof_step_or_fixture_side
f 241 240 686 685
g roof_step_or_fixture_side
f 242 241 685 692
g roof_step_or_fixture_side
f 243 242 692 691
g roof_step_or_fixture_side
f 732 243 691 690
g roof_step_or_fixture_side
f 545 544 244 732
g roof_step_or_fixture_side
f 544 543 245 244
g roof_step_or_fixture_side
f 543 562 157 245
g roof_step_or_fixture_side
f 158 157 595 594
g roof_step_or_fixture_side
f 733 158 594 593
g roof_step_or_fixture_side
f 564 563 159 733
g roof_step_or_fixture_side
f 563 586 160 159
g roof_step_or_fixture_side
f 586 585 161 160
g roof_step_or_fixture_side
f 585 584 162 161
g roof_step_or_fixture_side
f 584 583 163 162
g roof_step_or_fixture_side
f 583 582 164 163
g roof_step_or_fixture_side
f 165 164 635 634
g roof_step_or_fixture_side
f 166 165 634 633
g roof_step_or_fixture_side
f 167 166 633 632
g roof_step_or_fixture_side
f 168 167 632 631
g roof_step_or_fixture_side
f 169 168 631 630
g roof_step_or_fixture_side
f 170 169 630 629
g roof_step_or_fixture_side
f 171 170 629 628
g roof_step_or_fixture_side
f 172 171 628 627
g facade_completed
f 173 172 627 736 737
g roof_step_or_fixture_side
f 506 505 174 173
g roof_step_or_fixture_side
f 505 504 175 174
g roof_step_or_fixture_side
f 504 503 176 175
g roof_step_or_fixture_side
f 503 502 177 176
g roof_step_or_fixture_side
f 502 501 178 177
g roof_step_or_fixture_side
f 501 500 179 178
g roof_step_or_fixture_side
f 500 499 180 179
g roof_step_or_fixture_side
f 499 498 181 180
g roof_step_or_fixture_side
f 498 497 182 181
g roof_step_or_fixture_side
f 497 496 183 182
g roof_step_or_fixture_side
f 496 495 184 183
g roof_step_or_fixture_side
f 495 494 185 184
g roof_step_or_fixture_side
f 494 493 186 185
g roof_step_or_fixture_side
f 493 520 187 186
g roof_step_or_fixture_side
f 520 519 188 187
g roof_step_or_fixture_side
f 519 738 189 188
g roof_step_or_fixture_side
f 738 518 190 189
g roof_step_or_fixture_side
f 518 492 191 190
g roof_step_or_fixture_side
f 492 491 192 191
g roof_step_or_fixture_side
f 491 490 740 741 193 192
g roof_step_or_fixture_side
f 740 490 489 249 741 193
g roof_step_or_fixture_side
f 489 488 199 249
g roof_step_or_fixture_side
f 488 487 200 199
g roof_step_or_fixture_side
f 487 486 201 200
g roof_step_or_fixture_side
f 486 485 202 201
g roof_step_or_fixture_side
f 485 484 203 202
g roof_step_or_fixture_side
f 484 483 210 203
g roof_step_or_fixture_side
f 483 742 211 210
g roof_step_or_fixture_side
f 742 482 212 211
g roof_step_or_fixture_side
f 482 517 213 212
g roof_step_or_fixture_side
f 555 554 248 247
g roof_step_or_fixture_side
f 554 553 196 248
g roof_step_or_fixture_side
f 553 552 197 196
g roof_step_or_fixture_side
f 552 743 198 197
g roof_step_or_fixture_side
f 743 558 194 198
g roof_step_or_fixture_side
f 558 557 195 194
g roof_step_or_fixture_side
f 557 556 246 195
g roof_step_or_fixture_side
f 556 555 247 246
g roof_step_or_fixture_side
f 525 524 209 208
g roof_step_or_fixture_side
f 524 530 204 209
g roof_step_or_fixture_side
f 530 529 205 204
g roof_step_or_fixture_side
f 529 528 206 205
g roof_step_or_fixture_side
f 528 527 207 206
g roof_step_or_fixture_side
f 527 526 250 207
g roof_step_or_fixture_side
f 526 525 208 250
g roof_step_or_fixture_side
f 509 508 254 253
g facade_completed
f 251 254 744 745 670
g roof_step_or_fixture_side
f 252 251 670 613
g roof_step_or_fixture_side
f 253 252 613 612
g roof_step_or_fixture_side
f 258 257 625 624
g roof_step_or_fixture_side
f 259 258 624 615
g roof_step_or_fixture_side
f 255 259 615 614
g roof_step_or_fixture_side
f 256 255 614 672
g facade_completed
f 257 256 672 747 748 625
g roof_step_or_fixture_side
f 263 262 606 605
g roof_step_or_fixture_side
f 264 263 605 667
g roof_step_or_fixture_side
f 265 264 667 671
g roof_step_or_fixture_side
f 266 265 671 673
g roof_step_or_fixture_side
f 267 266 673 669
g roof_step_or_fixture_side
f 268 267 669 601
g roof_step_or_fixture_side
f 269 268 601 604
g roof_step_or_fixture_side
f 270 269 604 664
g roof_step_or_fixture_side
f 271 270 664 609
g roof_step_or_fixture_side
f 260 271 609 608
g roof_step_or_fixture_side
f 261 260 608 607
g roof_step_or_fixture_side
f 262 261 607 606
g roof_step_or_fixture_side
f 258 274 693 624
g roof_step_or_fixture_side
f 272 258 624 623
g roof_step_or_fixture_side
f 273 272 623 622
g roof_step_or_fixture_side
f 274 273 622 693
g roof_step_or_fixture_side
f 277 276 694 618
g roof_step_or_fixture_side
f 278 277 618 617
g roof_step_or_fixture_side
f 279 278 617 668
g roof_step_or_fixture_side
f 280 279 668 616
g roof_step_or_fixture_side
f 259 280 616 615
g roof_step_or_fixture_side
f 275 259 615 695
g roof_step_or_fixture_side
f 276 275 695 694
g roof_step_or_fixture_side
f 273 277 618 622
g roof_step_or_fixture_side
f 283 273 622 621
g roof_step_or_fixture_side
f 281 283 621 620
g roof_step_or_fixture_side
f 282 281 620 619
g roof_step_or_fixture_side
f 277 282 619 618
g roof_step_or_fixture_side
f 299 298 651 650
g roof_step_or_fixture_side
f 300 299 650 649
g roof_step_or_fixture_side
f 301 300 649 648
g roof_step_or_fixture_side
f 302 301 648 647
g roof_step_or_fixture_side
f 576 575 303 302
g roof_step_or_fixture_side
f 575 574 284 303
g roof_step_or_fixture_side
f 574 573 285 284
g roof_step_or_fixture_side
f 573 572 286 285
g roof_step_or_fixture_side
f 287 286 750 591
g roof_step_or_fixture_side
f 304 287 591 663
g roof_step_or_fixture_side
f 305 304 663 662
g roof_step_or_fixture_side
f 288 305 662 661
g roof_step_or_fixture_side
f 289 288 661 660
g roof_step_or_fixture_side
f 290 289 660 659
g roof_step_or_fixture_side
f 291 290 659 658
g roof_step_or_fixture_side
f 292 291 658 657
g roof_step_or_fixture_side
f 306 292 657 656
g roof_step_or_fixture_side
f 293 306 656 655
g roof_step_or_fixture_side
f 294 293 655 654
g roof_step_or_fixture_side
f 295 294 654 666
g roof_step_or_fixture_side
f 296 295 666 653
g roof_step_or_fixture_side
f 297 296 653 652
g roof_step_or_fixture_side
f 298 297 652 651
g roof_step_or_fixture_side
f 569 568 310 309
g roof_step_or_fixture_side
f 568 567 311 310
g roof_step_or_fixture_side
f 567 566 307 311
g roof_step_or_fixture_side
f 308 307 752 753
g roof_step_or_fixture_side
f 570 569 309 308
g roof_step_or_fixture_side
f 315 314 641 640
g roof_step_or_fixture_side
f 316 315 640 639
g roof_step_or_fixture_side
f 317 316 639 638
g roof_step_or_fixture_side
f 318 317 638 637
g roof_step_or_fixture_side
f 319 318 637 636
g roof_step_or_fixture_side
f 320 319 636 754
g roof_step_or_fixture_side
f 321 320 754 755
g roof_step_or_fixture_side
f 581 580 322 321
g roof_step_or_fixture_side
f 580 579 323 322
g roof_step_or_fixture_side
f 579 578 324 323
g roof_step_or_fixture_side
f 578 588 325 324
g roof_step_or_fixture_side
f 588 589 312 325
g roof_step_or_fixture_side
f 589 590 313 312
g roof_step_or_fixture_side
f 314 313 642 641
g facade_completed
f 387 758 759 698 6
g facade_completed
f 762 423 35 706 763
g facade_completed
f 424 762 763 719 140
g facade_completed
f 341 340 141 720 716 118
g facade_completed
f 765 428 119 717 766
g facade_completed
f 345 765 766 767
g facade_completed
f 346 345 767 768
g facade_completed
f 758 346 768 759
g facade_completed
f 452 451 7 699 701 16
g facade_completed
f 468 467 18 703 773
g roof_step_or_fixture_side
f 523 507 478 468
g facade_completed
f 469 478 774 775
g facade_completed
f 470 469 775 704 33
g facade_completed
f 507 506 173 737 774 478
g facade_completed
f 508 523 468 773 744 254
g roof_step_or_fixture_side
f 510 509 253 612 611
g roof_step_or_fixture_side
f 511 510 611 724 223
g roof_step_or_fixture_side
f 531 535 231 676 684 235
g roof_step_or_fixture_side
f 539 538 729 602 601 268
g roof_step_or_fixture_side
f 540 539 268 601 600
g roof_step_or_fixture_side
f 541 540 600 599
g roof_step_or_fixture_side
f 542 541 599 598
g roof_step_or_fixture_side
f 543 542 598 675 245
g roof_step_or_fixture_side
f 546 545 732 690 689
g roof_step_or_fixture_side
f 547 546 689 688
g roof_step_or_fixture_side
f 548 547 688 687 239
g roof_step_or_fixture_side
f 551 550 237 682 681
g roof_step_or_fixture_side
f 536 551 681 680 227
g roof_step_or_fixture_side
f 559 561 597 596
g roof_step_or_fixture_side
f 560 559 596 674
g roof_step_or_fixture_side
f 561 560 674 597
g roof_step_or_fixture_side
f 560 543 245 675 674
g roof_step_or_fixture_side
f 562 560 674 595 157
g roof_step_or_fixture_side
f 565 564 733 593 778
g roof_step_or_fixture_side
f 566 565 778 752 307
g roof_step_or_fixture_side
f 571 570 308 753 592
g roof_step_or_fixture_side
f 572 571 592 750 286
g roof_step_or_fixture_side
f 577 576 302 647 646
g roof_step_or_fixture_side
f 578 577 646 645 324
g roof_step_or_fixture_side
f 582 581 321 755 635 164
g roof_step_or_fixture_side
f 587 578 324 645 644
g roof_step_or_fixture_side
f 588 587 644 643 325
g roof_step_or_fixture_side
f 590 588 325 643 642 313
g facade_completed
f 672 670 745 747
g facade_completed
f 626 625 748 780
g facade_completed
f 665 626 780 781
g facade_completed
f 627 665 781 736
g ground_assumed
f 766 768 767
g ground_assumed
f 766 759 768
g ground_assumed
f 766 698 759
g ground_assumed
f 766 699 698
g ground_assumed
f 766 701 699
g ground_assumed
f 766 702 701
g ground_assumed
f 766 703 702
g ground_assumed
f 766 773 703
g ground_assumed
f 766 744 773
g ground_assumed
f 766 745 744
g ground_assumed
f 766 747 745
g ground_assumed
f 766 748 747
g ground_assumed
f 766 780 748
g ground_assumed
f 780 736 781
g ground_assumed
f 780 737 736
g ground_assumed
f 780 774 737
g ground_assumed
f 780 775 774
g ground_assumed
f 780 704 775
g ground_assumed
f 780 705 704
g ground_assumed
f 780 706 705
g ground_assumed
f 780 763 706
g ground_assumed
f 780 719 763
g ground_assumed
f 780 720 719
g ground_assumed
f 780 716 720
g ground_assumed
f 780 717 716
g ground_assumed
f 780 766 717
