# Source coordinates; no display transform
v -0.160090485211 0.227323530435 0.0743506813219
v -0.138920118233 0.270181052053 0.0745006523888
v -0.157014913611 0.273447437628 0.0744762324228
v -0.174878622212 0.27667210857 0.0744521242951
v -0.175291414007 0.276746623772 0.0744515672111
v -0.189798666675 0.251141941313 0.074358586804
v -0.189822900568 0.196380001487 0.0742161208683
v -0.160115201569 0.171471273352 0.0742053788575
v -0.151646697722 0.101750214475 0.0740394566373
v -0.150175767038 0.0896400653502 0.0740106369001
v -0.160144332614 0.0799782318594 0.0739673757963
v -0.175373664783 0.0652175052464 0.0739012842425
v -0.163946466281 0.0260140220667 0.0738201124265
v -0.189871237175 0.00160314111663 0.07370946797
v -0.189910872481 -0.0879618759955 0.0734764600765
v -0.189948730722 -0.0879618592622 0.0734763912502
v -0.189950278745 -0.091459960364 0.0734672907727
v -0.189958363941 -0.109730345518 0.0734197594487
v -0.120544737526 -0.10976106324 0.0735459452051
v -0.150075616848 -0.128904266576 0.0734424409643
v -0.13873743935 -0.14684273445 0.0734164120987
v -0.122397824245 -0.146849965261 0.0734461155987
v -0.110949475253 -0.121149283541 0.0735337814281
v -0.0559982442239 -0.121173601176 0.0736336762642
v -0.0559932064657 -0.10978962929 0.0736632922359
v 0.0754240916737 -0.109847785567 0.0739021933325
v 0.0754142188881 -0.132157644627 0.0738441530908
v 0.10128653806 -0.132169093944 0.0738911858975
v 0.126550365362 -0.121307386179 0.0739653901694
v 0.154349885233 -0.146495420906 0.0739504507398
v 0.18351208522 -0.146508326061 0.0740034641643
v 0.183528287487 -0.109895625057 0.0740987139457
v 0.192164557705 -0.109899446884 0.0741144136446
v 0.195966856093 -0.105070417524 0.0741338892486
v 0.195972803547 -0.091630743393 0.0741688532269
v -0.0559851212327 -0.0915192441353 0.07371082356
v -0.0559711639215 -0.0599795468581 0.0737928756559
v -0.0326677449384 -0.047651857505 0.0738673264985
v -0.0326622699175 -0.0352797856492 0.0738995130826
v -0.0578401410312 -0.0230025724613 0.0738856436025
v -0.0970328946933 -0.0615135637942 0.0737141934356
v -0.116640377145 -0.0545351840767 0.073696675784
v -0.116655183843 -0.0879942939314 0.0736096302241
v -0.160205179022 -0.0575180640518 0.0736096722846
v -0.128638981014 -0.057532033099 0.0736670559129
v -0.128619982613 -0.0146007923248 0.0737787436668
v -0.0857631629631 0.056746818758 0.0740422585636
v -0.0440282424821 0.0567283497667 0.0741181277273
v -0.0397047058161 0.0505291185383 0.0741098697471
v -0.0327000230638 0.0505070129223 0.0741225539992
v -0.00474053543079 0.0873799275463 0.0742693102958
v -0.0146104695756 0.106222364195 0.0743003609055
v -0.0288245328844 0.133358065823 0.074345078113
v -0.0483796631811 0.129244972366 0.0742988095884
v -0.0539953483956 0.144469241979 0.0743281889461
v -0.0481896147748 0.152520696039 0.0743596895388
v -0.0308120303276 0.159159338933 0.0744085653226
v -0.0307948479864 0.19798674683 0.0745095767876
v -0.0541794929607 0.187306881017 0.0744392637371
v -0.0577601411549 0.183440118563 0.0744226939802
v -0.0692101603389 0.171075177534 0.0743697079651
v -0.0974776791624 0.177289148489 0.074334449374
v -0.134974890751 0.185532057427 0.0742876784327
v -0.0559835732092 -0.0880211430335 0.0737199240375
v -0.172746739231 -0.0879694716837 0.0735076624221
v -0.110757560625 0.321080356351 0.0746842571332
v -0.110746672557 0.345684424572 0.0747482658401
v -0.138941820053 0.358019760381 0.0747290590296
v -0.138952713156 0.33340433465 0.0746650207554
v -0.0161339719154 0.211431293164 0.0745712112528
v -0.000911174836259 0.211424556593 0.074598884491
v 0.0295157712613 0.243315048784 0.074737171142
v -0.0161163780174 0.251188710664 0.0746746421622
v -0.0161239490976 0.251190017039 0.0746746317891
v -0.0246308713739 0.225045092185 0.0745911611071
v -0.0288578523006 0.212054013258 0.074549685625
v -0.0162729627675 0.211129924229 0.0745701746185
v -0.0222360112346 0.270218388417 0.0747130016839
v -0.011615863692 0.271168884175 0.0747347920923
v -0.0288932847745 0.277420073794 0.0747196216516
v 0.057094212597 0.448669724369 0.0753214123846
v 0.0571144064098 0.494302181587 0.0754401275365
v 0.00886786916855 0.494323532196 0.0753524210474
v -0.0192089951383 0.465033675925 0.0752251728372
v -0.0441770903708 0.438986895418 0.0751120140257
v -0.0130408363638 0.438973116684 0.0751686160707
v -0.000825623162463 0.438967711057 0.0751908218597
v -0.000840850352612 0.404558359436 0.0751013041944
v 0.0115811252518 0.394235704599 0.0750970535847
v 0.0241175393899 0.409608961836 0.0751598396598
v 0.0282986962098 0.400937229084 0.0751448923556
v 0.0370164955121 0.436747614892 0.075253883997
v 0.0570929234482 0.445756564282 0.0753138336569
v 0.0752771510833 0.259610886814 0.0748627938707
v 0.0593765174987 0.259617923336 0.0748338884224
v 0.0521557527423 0.239408602072 0.0747681943045
v 0.0478851278514 0.240145482895 0.0747623423669
v 0.0772582281474 0.210746374064 0.0747393133884
v 0.101449071702 0.235112592436 0.07484668765
v 0.101476267548 0.296567868577 0.075006566635
v 0.115046807963 0.30997125335 0.0750661106817
v 0.115054234198 0.326752512886 0.075109767972
v 0.11506423324 0.349347605662 0.0751685502352
v 0.183292617554 0.409811101255 0.0754499100302
v 0.183304894489 0.437553617329 0.0755220835482
v 0.196201424239 0.450654434424 0.0755796146722
v 0.185189507544 0.459454527282 0.0755824704329
v 0.183284973255 0.460976521993 0.0755829643315
v 0.158362895812 0.46098755078 0.0755376589584
v 0.158359521545 0.453362630337 0.0755178223382
v 0.158350206752 0.43231372206 0.0754630625509
v 0.108272715439 0.418354833251 0.0753356664286
v 0.108251368199 0.370115867658 0.0752101703736
v 0.0772036842278 0.344139922417 0.0750861367824
v 0.073605246522 0.335967149959 0.0750583358105
v 0.0619996753606 0.309608574281 0.0749686729589
v 0.143036491404 0.184095347641 0.0747896536425
v 0.196094810587 0.184071867657 0.0748861073917
v 0.196100828419 0.197670546399 0.0749214850469
v 0.143046755493 0.224399230106 0.074894492462
v 0.154498654679 0.1982379012 0.0748472848638
v -0.0578151473236 0.0505862719886 0.0740770748946
v -0.0362545086771 0.0455821106714 0.0741032798767
v -0.0047752205452 0.000446056195543 0.0740431543274
v 0.000506082326076 0.000443719054911 0.0740527551394
v 0.00905119323196 0.0188731168083 0.0741162291365
v -0.00475091051951 0.0382702174572 0.0741415695499
v 0.0714635100632 0.0120953724027 0.0742121319726
v 0.0566134276289 0.0121019440254 0.0741851362833
v 0.0621145001998 0.00445593010626 0.074175257554
v 0.0899252229294 0.0644678695275 0.0743819219421
v 0.0826502646313 0.0605310602799 0.0743584499086
v 0.0620936861555 0.0600810578472 0.0743198864824
v 0.0520758474358 0.0331796367175 0.0742316999887
v 0.0638278087288 0.0224575379169 0.0742251917406
v 0.0734268484593 0.0136996931519 0.0742198757622
v 0.0773596089574 0.0120927632127 0.0742228503599
v 0.0773402754353 -0.0315956423001 0.0741091928039
v 0.168256831628 -0.031635875729 0.0742744683296
v 0.196026562022 0.0298487675417 0.0744848882552
v 0.196026570427 0.0298676966621 0.0744849375088
v 0.158198619971 0.0298844367054 0.0744161707782
v 0.158226095665 0.0919719454288 0.0745776945523
v 0.13137417464 0.0778983227156 0.0744922481244
v 0.130368486527 0.0799983530979 0.0744958803954
v 0.142999893048 0.0928380656164 0.0745522501422
v 0.105173033402 0.12953944406 0.0745788928034
v 0.0969500570176 0.116281241513 0.0745294537269
v 0.0733693597365 0.148993726666 0.0745716365144
v 0.0620700996008 0.143660714511 0.0745372129626
v 0.0861531772884 0.098873043643 0.0744645395644
v 0.0899373340077 0.091835589056 0.0744531204211
v -0.00482912814348 -0.121370393044 0.0737262427293
v -0.00483453448955 -0.133587246113 0.0736944599791
v 0.0367704184996 -0.162093986541 0.0736960019831
v 0.0621714075715 -0.132151784285 0.0738200792248
v 0.0645274161455 -0.383883651566 0.145063929237
v 0.0876975428125 -0.405325457246 0.145115174265
v 0.101169441007 -0.405331418972 0.145020820436
v 0.101185722019 -0.368540784237 0.144654160801
v 0.13647251984 -0.390569336088 0.144626336054
v 0.14278733099 -0.404604028756 0.144721908652
v 0.154335833276 -0.401720899793 0.144612250252
v 0.158044454817 -0.404036084804 0.144609325854
v 0.179738807256 -0.417579258027 0.144592219192
v 0.179177411758 -0.418680017268 0.144607120422
v 0.181672287614 -0.420010612942 0.144602892641
v 0.181689610675 -0.380865195862 0.144212765023
v 0.168379927357 -0.38653804259 0.144362560011
v 0.14280785186 -0.366787437514 0.144344997687
v 0.137940143908 -0.356200118253 0.144273629792
v 0.183570714082 -0.356220311195 0.143954044645
v 0.183570724114 -0.35619759625 0.14395381829
v 0.137929698176 -0.35617739869 0.144273476617
v 0.130663205359 -0.340372695464 0.144166938909
v 0.142820896522 -0.328755050931 0.143965989147
v 0.138451948934 -0.323913263192 0.143948368672
v 0.14283080073 -0.314929224449 0.143828172885
v 0.168347252477 -0.314940516275 0.143649462037
v 0.168358266196 -0.290052511249 0.143401425369
v 0.142855158571 -0.259887133642 0.143279617198
v 0.164027576897 -0.25180791431 0.143050744144
v 0.158103916674 -0.235448813266 0.142929272193
v 0.142862190436 -0.235442068329 0.143036021453
v 0.142869441349 -0.219057023335 0.142872726216
v 0.154317772207 -0.2190620896 0.142792544961
v 0.154338506295 -0.172208735466 0.142325599148
v -0.00484402286256 -0.172138292221 0.143440473835
v -0.0219456875547 -0.180072289765 0.143639371529
v -0.0579170343739 -0.196760522858 0.144057729507
v -0.0579252619918 -0.215352703058 0.144243021291
v 0.0243760975829 -0.22092021351 0.143721709417
v 0.0329440502962 -0.212218302857 0.143574966598
v 0.101218196894 -0.295156377619 0.143922803533
v 0.12662704685 -0.307335261598 0.143866072618
v 0.118971075343 -0.351545459217 0.144360193606
v 0.126638918968 -0.331837122639 0.144110101765
v 0.115067582635 -0.315140301972 0.144024844893
v 0.0421698688385 -0.266967498841 0.144055777499
v 0.0243880852812 -0.245160852728 0.143963135204
v -0.0286649310974 -0.258819344651 0.144471018873
v -0.0286603691037 -0.272935970009 0.144611631004
v -0.0509273326953 -0.264505175128 0.144683685345
v -0.0453351950414 -0.286630205525 0.144864926675
v -0.0286559412039 -0.286637586632 0.144748109357
v -0.0286521485275 -0.298373644057 0.144865009244
v -0.0163486671343 -0.299386118032 0.144788871779
v -0.0541682455424 -0.306115720839 0.145120964531
v -0.043898767526 -0.292313363665 0.144911481332
v -0.054145506558 -0.263286698981 0.144694099125
v -0.061573122798 -0.256199955841 0.144675547716
v -0.0653731125908 -0.252574357687 0.144666056806
v -0.110984590929 -0.209056111565 0.144552136514
v -0.162142426617 -0.209033472602 0.144910433189
v -0.162158742799 -0.245903609642 0.14527788516
v -0.179660191309 -0.263437534389 0.14557522878
v -0.189777219376 -0.273573335942 0.145747113635
v -0.189792109817 -0.307221737 0.146082457388
v -0.160285834566 -0.291107182322 0.145715123232
v -0.160269255344 -0.25364267094 0.145341747696
v -0.109100062222 -0.253665314938 0.144983371443
v -0.122478869842 -0.312881046152 0.145667099259
v -0.114990791228 -0.333283927515 0.145817895749
v -0.111038875482 -0.331724371144 0.145774662244
v -0.111049647969 -0.356067217542 0.1460172658
v 0.0513138192382 -0.356139068432 0.1448801126
v 0.049285939924 -0.342482702288 0.144758265776
v 0.0244320961675 -0.342471703674 0.144932335885
v 0.00917737153033 -0.329063134442 0.144905653699
v 0.02051331933 -0.317820466546 0.144714198746
v 0.0481525358624 -0.317832697748 0.144520620589
v 0.0481507073473 -0.307300533363 0.14441570132
v 0.048277410323 -0.306361704948 0.144405459796
v 0.0526522983989 -0.30636364098 0.144374819191
v 0.0487503646548 -0.317832962302 0.144516433543
v 0.0519507993573 -0.317834378616 0.144494018474
v 0.0519484013785 -0.323253153505 0.144548022611
v 0.0735865023392 -0.344140289658 0.144604478144
v 0.0934359188621 -0.352134196882 0.144545013638
v 0.101195856897 -0.345638736467 0.14442591642
v 0.10119160023 -0.35525762357 0.144521779354
v 0.103437563379 -0.356162134815 0.144515050922
v 0.103494027392 -0.356184874746 0.144514881772
v 0.0886045633019 -0.356178285708 0.144619163848
v 0.0602427313476 -0.379918572737 0.145054452865
v 0.126635654489 -0.315145421201 0.143943825002
v 0.126640552891 -0.319589981274 0.143988071897
v 0.126646723558 -0.344210764514 0.144233325795
v 0.0472505141752 -0.266969747204 0.144020193932
v -0.0286409666418 -0.324435264465 0.145124583098
v -0.190067370309 -0.356054964647 0.146570912474
v -0.142183120569 -0.356076154927 0.146235543166
v -0.142171859711 -0.356053444979 0.146235237991
v -0.190067360239 -0.356032249703 0.146570686119
v -0.175596595986 -0.464211015271 0.147547059006
v -0.1901309731 -0.499779975671 0.148003292186
v -0.190132256418 -0.502679916607 0.148032193318
v -0.136456733656 -0.474343454066 0.147373710211
v -0.1318786813 -0.464230361817 0.147240869619
v -0.122489678862 -0.362971284562 0.146166224652
v -0.127838111208 -0.362968917703 0.146203683715
v -0.149982458356 -0.371802804038 0.146446886946
v -0.145597559918 -0.362961058597 0.146328066473
v -0.175555569692 -0.362947801247 0.146537884907
v -0.189753198701 -0.416056635285 0.147166508084
v -0.149971763252 -0.416074239822 0.146887888847
v -0.096940896594 -0.358363884876 0.145941271137
v -0.0969398930856 -0.356096176484 0.145918670903
v -0.111049658001 -0.356089932449 0.146017492155
v -0.111049738412 -0.356271652004 0.146019303217
v -0.120786289192 -0.36015578469 0.146126236166
v -0.138600527521 -0.479079176492 0.147435916335
v -0.119725335619 -0.484731982317 0.147359954949
v -0.1347024086 -0.473417308161 0.147352188407
v -0.0969006787248 -0.464245840688 0.146995892426
v -0.111098619988 -0.466730630126 0.147120149873
v -0.098724737562 -0.491021311919 0.147275440061
v -0.0912272130518 -0.493266695722 0.147245267005
v -0.0912052224491 -0.443573973837 0.14675002371
v -0.122521556106 -0.443560115374 0.146969355503
v -0.111111121877 -0.503536409823 0.147486933873
v -0.0968724926967 -0.494657380905 0.147298685437
v -0.111105682027 -0.491243840272 0.147364424758
v 0.0622838768709 -0.442627296613 0.145664915936
v 0.0775320254559 -0.445231119969 0.145583996407
v 0.0821170565622 -0.44228777755 0.145522539232
v 0.0480947637707 -0.442272721631 0.145760822861
v 0.020532488623 -0.368607309911 0.145220054312
v 0.0205372868143 -0.357764710829 0.145111995763
v -0.00302946572452 -0.35775428183 0.145277051408
v -0.0030510257276 -0.406474047043 0.145762598072
v 0.0366698365364 -0.406491624737 0.145484403074
v -0.0163969079597 -0.425507052195 0.146045754202
v -0.016395913348 -0.423259500552 0.146023354844
v -0.0324697131756 -0.42998235562 0.146202982467
v -0.0324893910184 -0.474448941094 0.146646141492
v -0.00118194246333 -0.494540722326 0.14662690856
v -0.00419157068619 -0.497843883813 0.146680909933
v 0.0205901231001 -0.503571976807 0.146564304961
v 0.051891910031 -0.468018008195 0.145990712447
v 0.0639042450847 -0.470109119479 0.145927361868
v 0.0812415045997 -0.455524895707 0.145660556787
v 0.0622853703406 -0.456362268353 0.145801747127
v 0.0366676497687 -0.419988087933 0.145618883836
v 0.0509096925131 -0.386285409628 0.145183293165
v 0.0205603030346 -0.425523406917 0.145786915139
v 0.0897213839775 -0.421817404106 0.145265300323
v 0.0897144834802 -0.437410641572 0.145420704275
v 0.101158495962 -0.430064205212 0.145267310179
v 0.101171497429 -0.417794353937 0.145144974379
v 0.0990249394956 -0.415807913269 0.14514022688
v 0.101147617965 -0.454645558488 0.145512290742
v 0.10114668881 -0.456745187687 0.145533215862
v 0.115350302411 -0.467107206046 0.145536911583
v 0.104946204125 -0.494246963162 0.145880218893
v 0.101129447183 -0.495706521533 0.145921508908
v 0.101125932272 -0.503649260506 0.146000667158
v 0.126710029313 -0.479124654044 0.145577030794
v 0.158009242754 -0.483605777757 0.145402326408
v 0.158035117801 -0.425135245845 0.144819602486
v 0.158042962483 -0.407408351625 0.144642934242
v 0.154235321767 -0.405377617232 0.144649386574
v 0.140332910184 -0.4175443193 0.14486803389
v 0.0980887488153 -0.454514317104 0.145532420195
v 0.0984330189739 -0.454765473292 0.145532509768
v 0.0620936861555 0.0600810578472 0.0791933606227
v 0.0826502644042 0.0605310588034 0.0791440623031
v 0.0899252229294 0.0644678695275 0.0790703233468
v 0.0899373340077 0.091835589056 0.0786624704622
v 0.0861531772884 0.098873043643 0.0785654405106
v 0.0620700996008 0.143660714511 0.0779479236537
v 0.0733693597365 0.148993726666 0.0778450406287
v 0.0969500556168 0.116281240226 0.0782836565897
v 0.105173033402 0.12953944406 0.0780690479905
v 0.142999893048 0.0928380656164 0.0785375880136
v 0.130368486527 0.0799983530979 0.0787550944718
v 0.131374173845 0.0778983238892 0.078784304906
v 0.158226095665 0.0919719454288 0.0785189466158
v 0.158198619971 0.0298844367054 0.0794442180709
v 0.196026570427 0.0298676966621 0.0793660893381
v 0.196094810587 0.184071867657 0.0770680310167
v 0.143036491404 0.184095347641 0.077177616086
v 0.154498654679 0.1982379012 0.0769431176379
v 0.143046755493 0.224399230106 0.0765769951349
v 0.196233958059 0.498507241002 0.0723820952814
v -0.189689124234 0.498678024031 0.0731791693067
v 0.00886786916855 0.494323532196 0.0728326559338
v 0.0571144064098 0.494302181587 0.0727330089555
v 0.158362895812 0.46098755078 0.0730196730307
v 0.183284973255 0.460976521993 0.0729681997173
v 0.185189507544 0.459454527282 0.0729869340192
v 0.196201424239 0.450654434424 0.0730952547747
v 0.183304894489 0.437553617329 0.0733172014745
v 0.183292617554 0.409811101255 0.0737306398125
v 0.11506423324 0.349347605662 0.074773020473
v 0.115046807963 0.30997125335 0.0753598344102
v 0.101476267548 0.296567868577 0.0755876863899
v 0.101449071702 0.235112592436 0.0765035358753
v 0.0478851278514 0.240145482895 0.0765395194517
v 0.0521557527423 0.239408602072 0.0765416517035
v 0.0593765174987 0.259617923336 0.0762255356207
v 0.0752771510833 0.259610886814 0.0761926949219
v 0.0619996753606 0.309608574281 0.0754751507629
v 0.0772036842278 0.344139922417 0.0749290699455
v 0.108251368199 0.370115867658 0.0744776523718
v 0.108272715439 0.418354833251 0.0737587615952
v 0.158350206752 0.43231372206 0.0734469904648
v 0.0570929234482 0.445756564282 0.0734564696761
v 0.0475439502946 0.441471628825 0.0735401079944
v 0.0370164955121 0.436747614892 0.073632316737
v 0.0282986962098 0.400937229084 0.0741840182538
v 0.0241175393899 0.409608961836 0.0740634572097
v 0.0115811252518 0.394235704599 0.0743185211628
v -0.0116158619505 0.271168885121 0.0762004993982
v -0.0161239490976 0.251190017039 0.0765075607363
v -0.0161163780174 0.251188711346 0.0765075645222
v 0.0295157712613 0.243315048784 0.0765303479143
v -0.000911174836259 0.211424556593 0.0770686166458
v -0.0161339719154 0.211431293164 0.0771000573469
v -0.0162729627675 0.211129924229 0.0771048362683
v -0.0222360102503 0.270218390121 0.0762366680635
v -0.0441770903708 0.438986895418 0.0737671777093
v -0.138941820053 0.358019760381 0.0751700814875
v -0.110746672557 0.345684424572 0.0752954806254
v -0.110757560625 0.321080356351 0.0756621476435
v -0.138952713156 0.33340433465 0.0755369177698
v -0.189798666675 0.251141941313 0.0768681250439
v -0.175291414007 0.276746623772 0.0764565111324
v -0.174878622212 0.27667210857 0.076456766259
v -0.157014913611 0.273447437628 0.0764678066306
v -0.138920118233 0.270181052053 0.0764789898035
v -0.157032585421 0.233513976091 0.0770629229936
v -0.160090485211 0.227323530435 0.0771615075182
v -0.157453499096 0.222935675684 0.0772214306395
v -0.134974890751 0.185532057427 0.0777322363218
v -0.0974776791624 0.177289148489 0.077777377428
v -0.0692101603389 0.171075177534 0.0778114073677
v -0.0541794929607 0.187306881017 0.0775383830487
v -0.0307948479864 0.19798674683 0.0773307818585
v -0.0332074576211 0.158244229463 0.0779280150649
v -0.0481896147748 0.152520696039 0.0780443484035
v -0.0539953483956 0.144469241979 0.0781763586882
v -0.0483796631811 0.129244972366 0.0783915919484
v -0.0288245328844 0.133358065823 0.0782897819774
v -0.0146104695756 0.106222364195 0.0786647012591
v -0.00474053543079 0.0873799275463 0.0789250369722
v -0.0397047058161 0.0505291185383 0.0795466242335
v -0.0440282424821 0.0567283497667 0.0794632028429
v -0.0857631629631 0.056746818758 0.0795494009083
v -0.0578151473236 0.0505862719886 0.0795832967163
v -0.0362545096993 0.0455821115042 0.0796131947697
v -0.128619982613 -0.0146007923248 0.0807014052913
v -0.128638981014 -0.057532033099 0.0813411966499
v -0.160205179022 -0.0575180640518 0.0814063925155
v -0.172746739231 -0.0879694716837 0.0818861584534
v -0.116655183843 -0.0879942939314 0.0817703086024
v -0.116640377145 -0.0545351840767 0.0812716775624
v -0.0970328946933 -0.0615135637942 0.0813350418464
v -0.0578401410312 -0.0230025724613 0.0806799534493
v -0.0326677449384 -0.047651857505 0.0809951153909
v -0.0559711639215 -0.0599795468581 0.0812271037998
v -0.0559851212327 -0.0915192441353 0.0816971304024
v 0.195972803547 -0.091630743393 0.0811767440108
v 0.196026562022 0.0298487675417 0.0793663714199
v 0.168256831628 -0.031635875729 0.0803401401142
v 0.0773402754353 -0.0315956423001 0.0805279164582
v 0.0520758474358 0.0331796367175 0.0796149963677
v 0.196100828419 0.197670546399 0.0768653739991
v -0.000840850352612 0.404558359436 0.0741904331055
v -0.000825623162463 0.438967711057 0.0736776408877
v -0.0288932847745 0.277420073794 0.0761431437849
v -0.0308120303276 0.159159338933 0.0779094150463
v -0.0326622699175 -0.0352797856492 0.0808107381491
v 0.0772582281474 0.210746374064 0.0769167585349
v -0.0246308713739 0.225045092185 0.0769147927458
v -0.0288578523006 0.212054013258 0.077117141143
v -0.0327000230638 0.0505070129223 0.0795324401893
v 0.0714635100632 0.0120953724027 0.0798890188948
v 0.0734268484593 0.0136996931519 0.0798610436993
v -0.00475091051951 0.0382702174572 0.0796568806809
v -0.0047752205452 0.000446056195543 0.080220578452
v 0.00905119323196 0.0188731168083 0.0799173345496
v 0.000506082326076 0.000443719054911 0.0802096705842
v 0.0566134276289 0.0121019440254 0.0799196898243
v 0.0773596089574 0.0120927632127 0.0798768412996
v 0.0621145001998 0.00445593010626 0.0800222310272
v -0.175373664783 0.0652175052464 0.0796088423971
v -0.150175767038 0.0896400653502 0.0791926935605
v -0.151646697722 0.101750214475 0.079015278487
v -0.160115201569 0.171471273352 0.0779938569057
v -0.189822900568 0.196380001487 0.0776842257502
v -0.189948730722 -0.0879618592622 0.081921686898
v -0.189910872481 -0.0879618759955 0.0819216087207
v -0.189871237175 0.00160314111663 0.0805868482236
v -0.163946466281 0.0260140220667 0.0801693673826
v 0.0754142188881 -0.132157644627 0.0820304602109
v 0.0621714075715 -0.132151784285 0.0820578115026
v 0.0367704184996 -0.162093986541 0.082556633651
v -0.00483453448955 -0.133587246113 0.0822180363983
v -0.00482912814348 -0.121370393044 0.0820359723329
v -0.0559932064657 -0.10978962929 0.0819694084597
v -0.0559982442239 -0.121173601176 0.0821390603602
v -0.110949475253 -0.121149283541 0.0822525550122
v -0.122397824245 -0.146849965261 0.0826592615493
v -0.150075616848 -0.128904266576 0.0824491860579
v -0.120544737526 -0.10976106324 0.0821027312895
v -0.189958363941 -0.109730345518 0.0822460961313
v -0.189982168937 -0.163523114495 0.0830477535403
v 0.183674947359 -0.120681503787 0.0816351328388
v 0.192164558992 -0.109899446884 0.0814568708008
v 0.183528287487 -0.109895625057 0.0814747079002
v 0.18351208522 -0.146508326061 0.0820203359709
v 0.154349885233 -0.146495420906 0.0820805667282
v 0.126550365362 -0.121307386179 0.0817628197123
v 0.10128653806 -0.132169093944 0.0819770242884
v 0.0754240916737 -0.109847785567 0.0816979830836
v -0.13873743935 -0.14684273445 0.082693008915
v 0.183655915453 -0.163688461043 0.0822760526
v -0.179660191309 -0.263437534389 0.149364278639
v -0.162158742799 -0.245903609642 0.149163819027
v -0.162142426617 -0.209033472602 0.148791485614
v -0.0653731125908 -0.252574357687 0.149101754795
v -0.054145506558 -0.263286698981 0.149194913211
v -0.0509273340203 -0.264505174825 0.149202913831
v -0.0286603691037 -0.272935970009 0.149258271211
v -0.0286649310974 -0.258819344651 0.149115728802
v 0.0243880852812 -0.245160852728 0.148906862275
v 0.0421698688385 -0.266967498841 0.149103285631
v 0.0472505141752 -0.266969747204 0.149096514306
v 0.0329440502962 -0.212218302857 0.148562769861
v 0.0243760975829 -0.22092021351 0.148662098376
v -0.0579252619918 -0.215352703058 0.148715934119
v 0.154317772207 -0.2190620896 0.148469573019
v 0.142869441349 -0.219057023335 0.148484830912
v 0.142862190436 -0.235442068329 0.148650295426
v 0.158103916674 -0.235448813266 0.14862998183
v 0.164027576897 -0.25180791431 0.148787253366
v 0.142855158571 -0.259887133642 0.148897149062
v 0.168358266196 -0.290052511249 0.149167652969
v 0.168347252477 -0.314940516275 0.149418984705
v 0.14283080073 -0.314929224449 0.149452992081
v 0.138451948934 -0.323913263192 0.149549567696
v 0.142820896522 -0.328755050931 0.149592617362
v 0.130663205359 -0.340372695464 0.149726189034
v 0.137929698176 -0.35617739869 0.149876066629
v 0.183570724114 -0.35619759625 0.149815237938
v 0.183655915453 -0.163688461043 0.147871182788
v -0.190067360239 -0.356032249703 0.150313209147
v -0.142171857969 -0.356053444979 0.150249375762
v -0.134746062483 -0.341080009607 0.150088245259
v -0.114990791228 -0.333283927515 0.149983103687
v -0.122478869842 -0.312881046152 0.149787090374
v -0.109100062222 -0.253665314938 0.149171244277
v -0.160269255344 -0.25364267094 0.149239440711
v -0.160285834566 -0.291107182322 0.149617776396
v -0.189777219376 -0.273573335942 0.149480157906
v -0.110984590929 -0.209056111565 0.148723304324
v -0.0579170343739 -0.196760522858 0.148528180831
v -0.00484402286256 -0.172138292221 0.148208576679
v 0.154338506295 -0.172208735466 0.14799642402
v -0.189792109817 -0.307221737 0.149819956589
v -0.189781273388 -0.282734355979 0.149572670574
v -0.189982168937 -0.163523114495 0.148369153997
v -0.043898767526 -0.292313363665 0.149474319786
v -0.0541682455424 -0.306115720839 0.149627427522
v -0.0286409666418 -0.324435264465 0.149778280837
v -0.0163486671343 -0.299386118032 0.149508899011
v -0.0286521485275 -0.298373644057 0.149515127752
v -0.0286559412039 -0.286637586632 0.149396623092
v -0.0453351950414 -0.286630205525 0.14941885258
v 0.0487503646548 -0.317832962302 0.149608121182
v 0.0526522983989 -0.30636364098 0.149487087137
v 0.0482774121023 -0.306361704948 0.149492917836
v 0.0481507073473 -0.307300533363 0.149502567485
v 0.0481525358624 -0.317832697748 0.149608917947
v 0.0492859417033 -0.342482702288 0.149856316022
v 0.0513138192382 -0.356139068432 0.149991505112
v -0.0969398830153 -0.35607346154 0.15018909223
v -0.0969398930856 -0.356096176484 0.150189321613
v 0.0513171924832 -0.356161784891 0.14999172999
v 0.0519395551948 -0.360352967936 0.150033219972
v 0.0481311032145 -0.368710382947 0.15012270523
v 0.0602427313476 -0.379918572737 0.150219688541
v 0.0886045633019 -0.356178285708 0.149942034727
v 0.101191190339 -0.356183855678 0.14992525974
v 0.101191200371 -0.356161140733 0.149925030357
v 0.0886316858541 -0.356155582765 0.149941769227
v 0.0934359188621 -0.352134196882 0.149894737215
v 0.0735865023392 -0.344140289658 0.149840558703
v 0.0519484013785 -0.323253153505 0.149658577282
v 0.0519398911867 -0.342483876726 0.149852778927
v 0.126638918968 -0.331837122639 0.149645378953
v 0.118971075343 -0.351545459217 0.149854645755
v 0.126646723558 -0.344210764514 0.149770316523
v 0.126640552891 -0.319589981274 0.149521706151
v 0.126635654489 -0.315145421201 0.149476831908
v 0.12662704685 -0.307335261598 0.149397977054
v 0.101218196894 -0.295156377619 0.149308973238
v 0.0519278160358 -0.386880234634 0.150301105792
v 0.0555105338264 -0.383879661308 0.150266015329
v 0.0519291445951 -0.383878076448 0.150270788458
v 0.0645274161455 -0.383883651566 0.15025399795
v 0.101169441007 -0.405331418972 0.150421576847
v 0.0897286817591 -0.405326356076 0.15043682467
v 0.0897278507329 -0.407204317704 0.150455789263
v 0.0897213839775 -0.421817404106 0.150603359625
v 0.0990249381327 -0.415807912171 0.150530235298
v 0.101171497429 -0.417794353937 0.150547423772
v 0.101158495962 -0.430064205212 0.150671341063
v 0.0897144834802 -0.437410641572 0.1507608281
v 0.0897123237054 -0.442291138681 0.150810113813
v 0.0821170576223 -0.44228777755 0.150820236501
v 0.0775320254559 -0.445231119969 0.150856089391
v 0.0622838768709 -0.442627296613 0.150850186534
v 0.0622853703406 -0.456362268353 0.150988879139
v 0.0812415045997 -0.455524895707 0.150955074645
v 0.0897096196806 -0.448401458165 0.150871818922
v 0.0980887488153 -0.454514317104 0.150922341236
v 0.140332910184 -0.4175443193 0.150492531026
v 0.154235321767 -0.405377617232 0.150351081925
v 0.158042962483 -0.407408351625 0.150366496438
v 0.158044454817 -0.404036086167 0.15033244155
v 0.154335835169 -0.401720899604 0.150314022304
v 0.14278733099 -0.404604028756 0.150358578917
v 0.13647251984 -0.390569336088 0.150225302123
v 0.101185722019 -0.368540784237 0.150050046294
v 0.0977682046811 -0.454794841482 0.150925602572
v 0.098433018936 -0.454765473822 0.150924417042
v 0.101147617965 -0.454645558488 0.15091957607
v 0.10114668881 -0.456745188065 0.150940779222
v 0.0480947637707 -0.442272721631 0.141613631432
v 0.0897123237054 -0.442291138681 0.141482161461
v 0.0897286817591 -0.405326356076 0.140826713372
v 0.0876975428125 -0.405325457246 0.140833129776
v 0.0645274161455 -0.383883651566 0.140526336626
v 0.0519278160358 -0.386880234634 0.140619367952
v 0.0519291445951 -0.383878076448 0.140566134609
v 0.0481311032145 -0.368710382947 0.140309234834
v 0.0519395551948 -0.360352967936 0.140148994682
v 0.0513171924832 -0.356161784891 0.140076654701
v -0.0969398930856 -0.356096176484 0.140544999224
v -0.0969398830153 -0.35607346154 0.14054459645
v -0.111049647969 -0.356067217542 0.140589169229
v -0.111049658001 -0.356089932449 0.140589572003
v -0.145597559918 -0.362961058597 0.140820807032
v -0.149982458356 -0.371802804038 0.140991460056
v -0.127838111208 -0.362968917703 0.140764704906
v -0.122489678862 -0.362971284562 0.140747809189
v -0.120786288397 -0.36015578628 0.140692495195
v -0.111038875482 -0.331724371144 0.140157529406
v -0.134746062483 -0.341080009607 0.140398484653
v -0.142171857969 -0.356053444979 0.140687484354
v -0.142183120569 -0.356076154927 0.140687922677
v -0.175596595986 -0.464211015271 0.142711000392
v -0.1318786813 -0.464230361817 0.142572895385
v -0.122521556106 -0.443560115374 0.142176773369
v -0.0912272130518 -0.493266695722 0.142958980955
v -0.098724737562 -0.491021311919 0.142942913161
v -0.0968724926967 -0.494657380905 0.143001515938
v -0.111111121877 -0.503536409823 0.143204035265
v -0.111105682027 -0.491243840272 0.142986067239
v -0.119725335619 -0.484731982317 0.142897907246
v -0.138600527521 -0.479079176492 0.142857456246
v -0.136456733656 -0.474343454066 0.142766701449
v -0.190132256418 -0.502679916607 0.143439097385
v -0.190133812808 -0.506196946829 0.143501460242
v 0.183570714082 -0.356220311195 0.139658865505
v 0.137940143908 -0.356200118253 0.139803012611
v 0.14280785186 -0.366787437514 0.139975313529
v 0.168379927357 -0.38653804259 0.140244514582
v 0.181689610675 -0.380865195862 0.140101783601
v 0.181672287614 -0.420010612942 0.140795898014
v 0.179177411758 -0.418680017268 0.14078020706
v 0.179738807256 -0.417579258027 0.140758912443
v 0.158044454817 -0.404036086167 0.140587490821
v 0.158009242754 -0.483605777757 0.141998395939
v 0.126710029313 -0.479124654044 0.142018064204
v 0.101125932272 -0.503649260506 0.142533913512
v 0.101129447183 -0.495706521533 0.142393075329
v 0.104946204125 -0.494246963162 0.142355109836
v 0.115350302411 -0.467107206046 0.14184096589
v 0.10114668881 -0.456745188065 0.141702225016
v 0.098433018936 -0.454765473822 0.141675717887
v 0.0977682046811 -0.454794841482 0.141678343962
v 0.0980887488153 -0.454514317104 0.141672355053
v 0.0897096196806 -0.448401458165 0.141590507733
v 0.0812415045997 -0.455524895707 0.141743625576
v 0.0639042450847 -0.470109119479 0.142057112556
v 0.051891910031 -0.468018008195 0.142058077827
v 0.0205901231001 -0.503571976807 0.142787587954
v -0.00419157068619 -0.497843883813 0.14276450711
v -0.00118194246333 -0.494540722326 0.142696410054
v -0.0324893910184 -0.474448941094 0.142439322918
v -0.016395913348 -0.423259500552 0.14148075374
v -0.0163969079597 -0.425507052195 0.141520606655
v 0.0205603030346 -0.425523406917 0.141403858731
v 0.0366698365364 -0.406491624737 0.141015403273
v -0.0030510257276 -0.406474047043 0.141140881573
v -0.00302946572452 -0.35775428183 0.140276997785
v 0.0205372868143 -0.357764710829 0.14020255035
v 0.020532488623 -0.368607309911 0.140394807974
v 0.0509096925131 -0.386285409628 0.14061204579
v 0.0366676497687 -0.419988087933 0.141254706387
v -0.111049738412 -0.356271652004 0.140592794193
v 0.183504271544 -0.506362293377 0.142321136608
v -0.0324697131756 -0.42998235562 0.141650855207
v -0.175555569692 -0.362947801247 0.140915444457
v -0.0912052224491 -0.443573973837 0.142077844978
v -0.096940896594 -0.358363884876 0.140585209522
v -0.190067370309 -0.356054964647 0.140839189139
v -0.189753198701 -0.416056635285 0.141902041151
v -0.1901309731 -0.499779975671 0.143387676505
v -0.149971763252 -0.416074239822 0.141776371516
v 0.0555105338264 -0.383879661308 0.140554820977
v 0.0602427313476 -0.379918572737 0.140469603591
v 0.0481525358624 -0.317832697748 0.139407090941
v 0.02051331933 -0.317820466546 0.139494403288
v 0.00917737153033 -0.329063134442 0.139729638268
v 0.0244320961675 -0.342471703674 0.13991906667
v 0.049285939924 -0.342482702288 0.139840553297
v 0.0519398911867 -0.342483876726 0.139832169476
v 0.0519484013785 -0.323253153505 0.139491176251
v 0.0519507993573 -0.317834378616 0.139395092188
v 0.048750366207 -0.317832962302 0.139405202382
v 0.10119160023 -0.35525762357 0.139902678973
v 0.101195856897 -0.345638736467 0.139732119838
v 0.0934359190136 -0.352134195141 0.139871860737
v 0.0886316858541 -0.356155582765 0.139958375411
v 0.101191200371 -0.356161140733 0.139918699861
v 0.101191190339 -0.356183855678 0.139919102635
v 0.103494027392 -0.356184874746 0.139911827985
v 0.103437564325 -0.356162134815 0.139911603599
v -0.1347024086 -0.473417308161 0.14274472493
v -0.111098619988 -0.466730630126 0.142551418557
v -0.0969006787248 -0.464245840688 0.142462399825
v -0.157453499096 0.222935675684 0.0743440663893
v -0.157032585421 0.233513976393 0.0743723435044
v -0.189798666675 0.251141941313 -0.143199977258
v -0.189822900568 0.196380001487 -0.143199977258
v -0.160144332614 0.0799782334116 0.079357326594
v -0.189948730722 -0.0879618592622 -0.143199977258
v -0.189950278745 -0.091459960364 -0.143199977258
v -0.189958363941 -0.109730345518 -0.143199977258
v 0.192164557705 -0.109899446884 -0.143199977258
v 0.195966856093 -0.105070417524 -0.143199977258
v 0.195972803547 -0.091630743393 -0.143199977258
v -0.0559835732092 -0.0880211430335 0.0816449992642
v -0.0332074576211 0.158244229463 0.0744018280322
v -0.0577601411549 0.183440117768 0.0776034236956
v -0.011615863692 0.271168884175 -0.143199977258
v -0.0192089964633 0.465033675925 0.0733273012581
v -0.0130408369695 0.438973116684 0.0737028698087
v 0.0475439502946 0.441471628825 0.0752853197386
v 0.057094212597 0.448669725316 0.0734130557385
v 0.158359521545 0.453362629277 0.0731333049567
v 0.196094810587 0.184071867657 -0.143199977258
v 0.196100828419 0.197670546399 -0.143199977258
v 0.063827810016 0.0224575394312 0.0797504250622
v 0.196026562022 0.0298487675417 -0.143199977258
v 0.196026570427 0.0298676966621 -0.143199977258
v 0.0969500570176 0.116281241513 -0.143199977258
v 0.0826502646313 0.0605310602799 -0.143199977258
v -0.189781273388 -0.282734355411 0.145838413401
v -0.114990792742 -0.333283926568 0.140197695901
v -0.111044324191 -0.34403692606 0.145897370531
v -0.111044324191 -0.34403692606 0.140375851823
v -0.111044331498 -0.344053492826 0.145897535669
v -0.111044331498 -0.344053492826 0.140376145603
v -0.0969398830153 -0.35607346154 0.14591844451
v 0.048277410323 -0.306361704948 -0.143199977258
v 0.0526522968467 -0.30636364098 -0.143199977258
v 0.101191190339 -0.356183855678 0.144531010291
v 0.0897286817591 -0.405326356076 0.145100948652
v 0.154335833276 -0.401720899793 -0.143199977258
v 0.158044454817 -0.404036084804 -0.143199977258
v 0.183570714082 -0.356220311195 -0.143199977258
v 0.183570724114 -0.35619759625 -0.143199977258
v -0.0219456875547 -0.180072289765 0.148311562413
v -0.0219456875547 -0.180072289765 -0.143199977258
v 0.0329440512426 -0.212218301153 0.148562769823
v 0.0329440512426 -0.212218301153 0.143574966598
v -0.0615731223058 -0.256199956599 0.149133284349
v 0.115067583354 -0.315140301972 0.149492249411
v -0.190067360239 -0.356032249703 -0.143199977258
v -0.190067370309 -0.356054964647 -0.143199977258
v -0.142171859711 -0.356053444979 -0.143199977258
v -0.1901309731 -0.499779975671 -0.143199977258
v -0.190132256418 -0.502679916607 -0.143199977258
v 0.0821170565622 -0.44228777755 -0.143199977258
v 0.0821170565622 -0.44228777755 0.141506154916
v 0.0990249394956 -0.415807913269 -0.143199977258
v 0.0897213839775 -0.421817404106 0.141119127546
v 0.0897144834802 -0.437410640285 0.14139562199
v 0.158035117801 -0.425135245012 0.14096161455
v 0.158042962483 -0.407408352686 0.140647286815
v 0.0984330189739 -0.454765473292 -0.143199977258
v 0.10114668881 -0.456745187687 -0.143199977258
v -0.189735221337 0.394511084874 0.0747315378736
v -0.189735221337 0.394511084874 -0.143199977258
v -0.157453499096 0.222935675684 -0.143199977258
v -0.0332074576211 0.158244229463 -0.143199977258
v 0.195974351571 -0.0881326422912 0.0811246128726
v 0.195974351571 -0.0881326422912 -0.143199977258
v 0.131374173845 0.0778983238892 -0.143199977258
v 0.196149972997 0.308723898861 0.0752103793132
v 0.196149972997 0.308723898861 -0.143199977258
v 0.196233958059 0.498507241002 -0.143199977258
v -0.189689124234 0.498678024031 -0.143199977258
v -0.0362545096993 0.0455821115042 -0.143199977258
v -0.0161163780174 0.251188711346 -0.143199977258
v -0.0222360102503 0.270218390121 -0.143199977258
v 0.0475439502946 0.441471628825 -0.143199977258
v -0.189982168937 -0.163523114495 -0.143199977258
v 0.183655915453 -0.163688461043 -0.143199977258
v 0.183674947359 -0.120681503787 -0.143199977258
v -0.0509273340203 -0.264505174825 -0.143199977258
v 0.0492859417033 -0.342482702288 -0.143199977258
v 0.0897278507329 -0.407204317704 0.140860012837
v 0.0897278507329 -0.407204317704 -0.143199977258
v -0.190133812808 -0.506196946829 -0.143199977258
v 0.183504271544 -0.506362293377 -0.143199977258
v 0.179177412401 -0.418680018215 -0.143199977258
v 0.101129447183 -0.495706522858 -0.143199977258
v -0.111044331498 -0.344053492826 -0.143199977258
v -0.120786288397 -0.36015578628 -0.143199977258
v 0.048750366207 -0.317832962302 -0.143199977258
v 0.0934359190136 -0.352134195141 -0.143199977258
v 0.103437564325 -0.356162134815 -0.143199977258
g roof
f 1 697 2 3
g roof
f 1 3 4
g roof
f 1 4 5
g roof
f 1 5 6
g roof
f 1 6 7
g roof
f 1 7 8
g roof
f 1 8 9
g roof
f 1 9 10
g roof
f 11 12 13
g roof
f 13 14 15
g roof
f 15 16 17
g roof
f 15 17 18
g roof
f 15 18 19
g roof
f 19 20 21
g roof
f 19 21 22
g roof
f 19 22 23
g roof
f 19 23 24
g roof
f 19 24 25
g roof
f 26 27 28
g roof
f 26 28 29
g roof
f 29 30 31
g roof
f 29 31 32
g roof
f 33 34 35
g roof
f 33 35 36
g roof
f 37 38 39
g roof
f 37 39 40
g roof
f 37 40 41
g roof
f 41 42 43
g roof
f 44 45 46
g roof
f 44 46 47
g roof
f 48 49 50
g roof
f 48 50 51
g roof
f 48 51 52
g roof
f 48 52 53
g roof
f 48 53 54
g roof
f 48 54 55
g roof
f 56 708 57 58
g roof
f 56 58 59
g roof
f 56 59 60
g roof
f 56 60 61
g roof
f 56 61 62
g roof
f 56 62 63
g roof
f 63 696 1 10
g roof
f 10 11 13
g roof
f 15 19 25
g roof
f 15 25 26
g roof
f 26 29 32
g roof
f 32 33 36
g roof
f 64 37 41
g roof
f 64 41 43
g roof
f 47 48 55
g roof
f 55 56 63
g roof
f 55 63 10
g roof
f 55 10 13
g roof
f 55 13 15
g roof
f 15 26 32
g roof
f 15 32 36
g roof
f 36 64 43
g roof
f 36 43 65
g roof
f 44 47 55
g roof
f 44 55 15
g roof
f 15 36 65
g roof
f 15 65 44
g roof
f 66 67 68
g roof
f 66 68 69
g roof
f 70 71 72
g roof
f 70 72 73
g roof
f 70 73 74
g roof
f 70 74 75
g roof
f 70 75 76
g roof
f 70 76 77
g roof
f 78 79 80
g roof
f 81 82 83
g roof
f 81 83 84
g roof
f 81 84 85
g roof
f 81 85 86
g roof
f 81 86 87
g roof
f 87 88 89
g roof
f 87 89 90
g roof
f 90 91 92
g roof
f 92 713 93 81
g roof
f 92 81 87
g roof
f 92 87 90
g roof
f 94 95 96
g roof
f 96 97 98
g roof
f 96 98 99
g roof
f 100 101 102
g roof
f 100 102 103
g roof
f 103 104 105
g roof
f 105 106 107
g roof
f 105 107 108
g roof
f 105 108 109
g roof
f 105 109 110
g roof
f 105 110 111
g roof
f 105 111 112
g roof
f 105 112 113
g roof
f 113 114 115
g roof
f 113 115 116
g roof
f 113 116 94
g roof
f 94 96 99
g roof
f 94 99 100
g roof
f 94 100 103
g roof
f 103 105 113
g roof
f 103 113 94
g roof
f 117 118 119
g roof
f 119 120 121
g roof
f 119 121 117
g roof
f 49 122 123
g roof
f 123 124 125
g roof
f 123 125 126
g roof
f 123 126 127
g roof
f 128 129 130
g roof
f 132 133 134
g roof
f 132 134 135
g roof
f 132 135 136
g roof
f 136 128 137
g roof
f 137 138 139
g roof
f 137 139 140
g roof
f 137 140 141
g roof
f 137 141 142
g roof
f 137 142 143
g roof
f 137 143 144
g roof
f 137 144 145
g roof
f 145 146 147
g roof
f 145 147 148
g roof
f 148 149 150
g roof
f 148 150 151
g roof
f 148 151 152
g roof
f 148 152 131
g roof
f 131 132 136
g roof
f 131 136 137
g roof
f 131 137 145
g roof
f 131 145 148
g roof
f 153 154 155
g roof
f 153 155 156
g roof
f 153 156 27
g roof
f 157 158 733 159
g roof
f 157 159 160
g roof
f 161 162 163
g roof
f 161 163 164
g roof
f 165 166 167
g roof
f 165 167 168
g roof
f 165 168 169
g roof
f 165 169 170
g roof
f 171 172 173
g roof
f 171 173 174
g roof
f 175 176 177
g roof
f 178 179 180
g roof
f 178 180 181
g roof
f 181 182 183
g roof
f 181 183 184
g roof
f 185 186 187
g roof
f 185 187 188
g roof
f 185 188 189
g roof
f 185 189 190
g roof
f 190 191 192
g roof
f 190 192 741 193
g roof
f 741 193 194 195
g roof
f 196 197 198
g roof
f 196 198 194
g roof
f 199 200 201
g roof
f 199 201 202
g roof
f 202 203 204
g roof
f 202 204 205
g roof
f 202 205 206 207
g roof
f 208 209 204
g roof
f 208 204 203
g roof
f 208 203 210
g roof
f 208 210 211
g roof
f 208 211 212
g roof
f 208 212 213
g roof
f 213 214 215
g roof
f 213 215 216
g roof
f 213 216 217
g roof
f 217 723 218 219
g roof
f 217 219 220
g roof
f 221 222 223
g roof
f 221 223 224
g roof
f 221 224 725 727 225
g roof
f 225 729 226 227
g roof
f 225 227 228
g roof
f 225 228 229
g roof
f 225 229 230
g roof
f 230 231 232
g roof
f 230 232 233
g roof
f 234 235 236
g roof
f 234 236 237
g roof
f 234 237 238
g roof
f 234 238 239
g roof
f 234 239 240
g roof
f 240 241 242
g roof
f 240 242 243
g roof
f 243 732 244 245
g roof
f 243 245 157
g roof
f 243 157 160
g roof
f 243 160 161
g roof
f 243 161 163 164
g roof
f 243 164 165
g roof
f 243 165 170
g roof
f 243 170 171
g roof
f 177 178 181
g roof
f 177 181 184
g roof
f 177 184 185
g roof
f 185 190 193 741
g roof
f 185 741 193 195
g roof
f 185 195 246
g roof
f 185 246 247
g roof
f 185 247 248
g roof
f 196 194 741 193
g roof
f 196 741 193 249
g roof
f 196 249 199
g roof
f 199 202 207
g roof
f 199 207 250
g roof
f 213 217 220
g roof
f 213 220 221
g roof
f 225 230 233
g roof
f 175 177 185
g roof
f 175 185 248
g roof
f 208 213 221
g roof
f 208 221 225
g roof
f 171 174 175 248 196
g roof
f 250 208 225
g roof
f 250 225 233
g roof
f 243 171 196
g roof
f 199 250 233
g roof
f 199 233 234
g roof
f 199 234 240
g roof
f 240 243 196
g roof
f 240 196 199
g roof
f 251 252 253
g roof
f 251 253 254
g roof
f 255 256 257
g roof
f 255 257 258
g roof
f 255 258 259
g roof
f 260 261 262
g roof
f 262 263 264
g roof
f 262 264 265
g roof
f 262 265 266
g roof
f 262 266 267
g roof
f 262 267 268
g roof
f 268 269 270
g roof
f 268 270 271
g roof
f 268 271 260
g roof
f 268 260 262
g roof
f 272 273 274
g roof
f 272 274 258
g roof
f 275 276 277
g roof
f 275 277 278
g roof
f 275 278 279
g roof
f 275 279 280
g roof
f 275 280 259
g roof
f 281 282 277
g roof
f 277 273 283
g roof
f 277 283 281
g roof
f 284 285 286
g roof
f 284 286 287
g roof
f 288 289 290
g roof
f 288 290 291
g roof
f 288 291 292
g roof
f 293 294 295
g roof
f 293 295 296
g roof
f 293 296 297
g roof
f 297 298 299
g roof
f 297 299 300
g roof
f 300 301 302
g roof
f 300 302 303
g roof
f 300 303 284
g roof
f 300 284 287
g roof
f 300 287 304
g roof
f 305 288 292
g roof
f 306 293 297
g roof
f 306 297 300
g roof
f 306 300 304
g roof
f 304 305 292
g roof
f 304 292 306
g roof
f 307 308 309
g roof
f 307 309 310
g roof
f 307 310 311
g roof
f 312 313 314
g roof
f 315 316 317
g roof
f 315 317 318
g roof
f 318 319 320
g roof
f 318 320 321
g roof
f 318 321 322
g roof
f 318 322 323
g roof
f 323 324 325
g roof
f 323 325 312
g roof
f 323 312 314
g roof
f 323 314 315
g roof
f 323 315 318
g roof
f 326 327 328
g roof
f 326 328 329
g roof
f 326 329 330
g roof
f 326 330 331
g roof
f 332 333 334
g roof
f 335 336 337
g roof
f 335 337 338
g roof
f 338 339 340
g roof
f 338 340 341
g roof
f 338 341 342
g roof
f 342 343 344
g roof
f 345 346 347
g roof
f 345 347 348
g roof
f 345 348 349
g roof
f 345 349 350
g roof
f 345 350 351
g roof
f 345 351 352
g roof
f 352 353 354
g roof
f 354 355 102 356
g roof
f 356 357 358
g roof
f 359 360 361
g roof
f 361 362 363
g roof
f 364 365 366
g roof
f 366 367 715 349
g roof
f 366 349 348
g roof
f 366 348 714 368
g roof
f 366 368 369
g roof
f 366 369 370
g roof
f 366 370 371
g roof
f 371 372 373
g roof
f 374 375 376
g roof
f 374 376 377
g roof
f 378 379 380
g roof
f 382 711 347 346
g roof
f 382 346 383
g roof
f 382 383 384
g roof
f 382 384 385
g roof
f 386 383 346
g roof
f 346 758 387 388
g roof
f 346 388 389
g roof
f 346 389 390
g roof
f 346 390 391
g roof
f 392 393 394
g roof
f 392 394 395
g roof
f 392 395 396
g roof
f 392 396 397
g roof
f 392 397 709 398
g roof
f 392 398 399
g roof
f 400 401 402
g roof
f 400 402 403
g roof
f 400 403 404
g roof
f 400 404 405
g roof
f 400 405 406
g roof
f 407 408 409
g roof
f 407 409 410
g roof
f 410 409 412
g roof
f 410 412 413
g roof
f 413 414 415
g roof
f 413 415 416
g roof
f 413 416 417
g roof
f 417 418 419
g roof
f 420 421 707 422
g roof
f 420 422 423
g roof
f 423 762 424 425
g roof
f 423 425 426
g roof
f 427 326 331
g roof
f 334 335 338
g roof
f 334 338 342
g roof
f 334 342 344
g roof
f 428 765 345 352
g roof
f 428 352 354
g roof
f 428 354 356
g roof
f 359 361 363
g roof
f 115 364 366
g roof
f 115 366 371
g roof
f 115 371 373
g roof
f 115 373 429
g roof
f 429 430 712 382
g roof
f 431 382 385
g roof
f 431 385 386
g roof
f 386 346 391
g roof
f 391 392 399
g roof
f 432 400 406
g roof
f 410 413 417
g roof
f 410 417 419
g roof
f 410 419 433
g roof
f 433 420 423
g roof
f 433 423 426
g roof
f 332 334 344
g roof
f 344 428 356
g roof
f 344 356 358
g roof
f 344 358 434
g roof
f 363 115 429
g roof
f 363 429 382
g roof
f 363 382 431
g roof
f 363 431 374
g roof
f 363 374 377
g roof
f 435 375 374
g roof
f 435 374 381
g roof
f 435 381 431
g roof
f 435 431 386
g roof
f 435 386 391
g roof
f 399 432 406
g roof
f 331 332 344
g roof
f 331 344 434
g roof
f 331 434 359
g roof
f 359 363 377
g roof
f 359 377 378
g roof
f 436 435 391
g roof
f 436 391 399
g roof
f 436 399 406
g roof
f 427 331 359
g roof
f 427 359 378
g roof
f 427 378 380
g roof
f 427 380 436
g roof
f 427 436 406
g roof
f 427 406 437
g roof
f 427 437 407
g roof
f 438 439 718 427
g roof
f 407 411 440
g roof
f 441 411 410
g roof
f 441 410 433
g roof
f 441 433 426
g roof
f 427 407 440
g roof
f 427 440 442
g roof
f 427 442 443
g roof
f 443 441 426
g roof
f 444 427 443
g roof
f 444 443 426
g roof
f 438 427 444
g roof
f 426 445 438
g roof
f 426 438 446
g roof
f 426 446 444
g roof
f 447 700 448 449
g roof
f 447 449 450
g roof
f 447 450 451
g roof
f 451 452 453
g roof
f 451 453 454
g roof
f 454 455 447
g roof
f 454 447 451
g roof
f 456 457 458
g roof
f 459 460 461
g roof
f 459 461 462
g roof
f 459 462 463
g roof
f 459 463 464
g roof
f 465 466 467
g roof
f 465 467 468
g roof
f 469 470 471
g roof
f 469 471 472
g roof
f 473 474 475
g roof
f 456 476 461
g roof
f 456 461 460
g roof
f 458 459 464
g roof
f 458 464 477
g roof
f 477 465 468
g roof
f 478 469 472
g roof
f 478 472 473
g roof
f 478 473 475
g roof
f 458 477 468
g roof
f 458 468 478
g roof
f 458 478 475
g roof
f 456 458 475
g roof
f 479 480 481
g roof
f 482 742 483 484
g roof
f 482 484 485
g roof
f 482 485 486
g roof
f 482 486 487
g roof
f 487 488 489
g roof
f 487 489 740 490
g roof
f 487 490 491
g roof
f 487 491 492
g roof
f 493 494 495
g roof
f 493 495 496
g roof
f 493 496 497
g roof
f 497 498 499
g roof
f 500 501 502
g roof
f 500 502 503
g roof
f 500 503 504
g roof
f 500 504 505
g roof
f 500 505 506
g roof
f 500 506 507
g roof
f 508 509 510
g roof
f 508 510 511
g roof
f 508 511 512
g roof
f 508 512 513
g roof
f 513 514 515
g roof
f 516 479 481
g roof
f 517 482 487
g roof
f 517 487 492
g roof
f 517 492 518
g roof
f 517 518 738 519
g roof
f 520 493 497
g roof
f 499 500 507
g roof
f 508 513 515
g roof
f 508 515 521
g roof
f 508 521 522
g roof
f 508 522 516
g roof
f 481 517 519
g roof
f 497 499 507
g roof
f 523 508 516
g roof
f 523 516 481
g roof
f 523 481 519
g roof
f 523 519 520
g roof
f 520 497 507
g roof
f 520 507 523
g roof
f 524 525 526
g roof
f 526 527 528
g roof
f 528 529 530
g roof
f 528 530 524
g roof
f 528 524 526
g roof
f 531 532 533
g roof
f 531 533 534
g roof
f 531 534 535
g roof
f 537 538 539
g roof
f 537 539 540
g roof
f 541 542 543
g roof
f 541 543 544
g roof
f 544 545 546
g roof
f 544 546 547
g roof
f 547 548 549
g roof
f 549 550 551
g roof
f 549 551 536
g roof
f 549 536 537
g roof
f 549 537 540 541
g roof
f 549 541 544
g roof
f 549 544 547
g roof
f 552 553 554
g roof
f 552 554 555
g roof
f 552 555 556
g roof
f 552 556 557
g roof
f 552 557 558 743
g roof
f 559 560 561
g roof
f 543 560 562
g roof
f 563 564 565
g roof
f 563 565 566
g roof
f 563 566 567
g roof
f 563 567 568
g roof
f 569 570 571
g roof
f 571 572 573
g roof
f 573 574 575
g roof
f 573 575 576
g roof
f 573 576 577
g roof
f 577 578 579
g roof
f 577 579 580
g roof
f 580 581 582
g roof
f 580 582 583
g roof
f 580 583 584
g roof
f 584 585 586
g roof
f 584 586 563
g roof
f 584 563 568
g roof
f 584 568 569
g roof
f 584 569 571
g roof
f 571 573 577
g roof
f 571 577 580
g roof
f 571 580 584
g roof
f 587 588 578
g roof
f 589 588 590
g roof
f 591 750 592 753 752 778 593
g roof
f 591 593 594
g roof
f 591 594 595
g roof
f 596 597 598
g roof
f 598 599 600
g roof
f 601 602 603
g roof
f 601 603 604
g roof
f 605 606 607
g roof
f 607 608 609
g roof
f 610 724 611 612
g roof
f 610 612 613
g roof
f 614 615 616
g roof
f 617 618 619
g roof
f 617 619 620
g roof
f 620 621 622
g roof
f 620 622 623
g roof
f 623 624 625
g roof
f 623 625 626
g roof
f 627 628 629
g roof
f 627 629 630
g roof
f 627 630 631
g roof
f 627 631 632
g roof
f 633 634 635
g roof
f 633 635 755 754 636
g roof
f 636 637 638
g roof
f 639 640 641
g roof
f 639 641 642
g roof
f 639 642 643
g roof
f 639 643 644
g roof
f 644 645 646
g roof
f 644 646 647
g roof
f 644 647 648
g roof
f 648 649 650
g roof
f 651 652 653
g roof
f 654 655 656
g roof
f 654 656 657
g roof
f 654 657 658
g roof
f 654 658 659
g roof
f 660 661 662
g roof
f 662 663 591
g roof
f 605 607 609 664
g roof
f 620 623 626
g roof
f 620 626 665
g roof
f 665 627 632
g roof
f 665 632 633
g roof
f 665 633 636
g roof
f 665 636 638
g roof
f 638 639 644
g roof
f 638 644 648
g roof
f 638 648 650
g roof
f 666 654 659
g roof
f 667 605 664
g roof
f 620 665 638
g roof
f 620 638 650
g roof
f 620 650 651
g roof
f 620 651 653
g roof
f 617 620 653
g roof
f 617 653 666
g roof
f 617 666 659
g roof
f 668 617 659
g roof
f 616 668 659
g roof
f 614 616 659
g roof
f 600 601 669
g roof
f 664 604 603 728 726 610 613
g roof
f 664 613 670
g roof
f 667 664 670
g roof
f 671 667 670
g roof
f 671 670 672
g roof
f 671 672 614
g roof
f 673 671 614
g roof
f 673 614 659
g roof
f 669 673 659
g roof
f 600 669 659
g roof
f 600 659 660
g roof
f 598 600 660
g roof
f 598 660 662
g roof
f 674 675 598
g roof
f 674 598 597
g roof
f 596 598 662
g roof
f 596 662 591
g roof
f 596 591 595
g roof
f 674 596 595
g roof
f 676 677 678
g roof
f 676 678 679
g roof
f 676 679 680
g roof
f 676 680 681
g roof
f 676 681 682
g roof
f 682 683 684
g roof
f 682 684 676
g roof
f 685 686 687
g roof
f 685 687 688
g roof
f 685 688 689
g roof
f 689 690 691
g roof
f 692 685 689
g roof
f 692 689 691
g roof
f 693 622 618
g roof
f 693 618 694
g roof
f 694 695 615
g roof
f 615 624 693
g roof
f 615 693 694
g roof_step_or_fixture_side
f 394 393 1 696
g roof_step_or_fixture_side
f 393 392 697 1
g roof_step_or_fixture_side
f 392 391 2 697
g roof_step_or_fixture_side
f 391 390 3 2
g roof_step_or_fixture_side
f 390 389 4 3
g roof_step_or_fixture_side
f 389 388 5 4
g roof_step_or_fixture_side
f 388 387 6 5
g facade_completed
f 7 6 698 699
g roof_step_or_fixture_side
f 451 450 8 7
g roof_step_or_fixture_side
f 450 449 9 8
g roof_step_or_fixture_side
f 449 448 10 9
g roof_step_or_fixture_side
f 448 700 11 10
g roof_step_or_fixture_side
f 700 447 12 11
g roof_step_or_fixture_side
f 447 455 13 12
g roof_step_or_fixture_side
f 455 454 14 13
g roof_step_or_fixture_side
f 454 453 15 14
g roof_step_or_fixture_side
f 453 452 16 15
g facade_completed
f 17 16 701 702
g facade_completed
f 18 17 702 703
g roof_step_or_fixture_side
f 467 466 19 18
g roof_step_or_fixture_side
f 466 465 20 19
g roof_step_or_fixture_side
f 465 477 21 20
g roof_step_or_fixture_side
f 477 464 22 21
g roof_step_or_fixture_side
f 464 463 23 22
g roof_step_or_fixture_side
f 463 462 24 23
g roof_step_or_fixture_side
f 462 461 25 24
g roof_step_or_fixture_side
f 461 476 26 25
g roof_step_or_fixture_side
f 476 456 27 26
g roof_step_or_fixture_side
f 456 475 28 27
g roof_step_or_fixture_side
f 475 474 29 28
g roof_step_or_fixture_side
f 474 473 30 29
g roof_step_or_fixture_side
f 473 472 31 30
g roof_step_or_fixture_side
f 472 471 32 31
g roof_step_or_fixture_side
f 471 470 33 32
g facade_completed
f 34 33 704 705
g facade_completed
f 35 34 705 706
g roof_step_or_fixture_side
f 423 422 36 35
g roof_step_or_fixture_side
f 422 707 64 36
g roof_step_or_fixture_side
f 707 421 37 64
g roof_step_or_fixture_side
f 421 420 38 37
g roof_step_or_fixture_side
f 420 433 39 38
g roof_step_or_fixture_side
f 433 419 40 39
g roof_step_or_fixture_side
f 419 418 41 40
g roof_step_or_fixture_side
f 418 417 42 41
g roof_step_or_fixture_side
f 417 416 43 42
g roof_step_or_fixture_side
f 416 415 65 43
g roof_step_or_fixture_side
f 415 414 44 65
g roof_step_or_fixture_side
f 414 413 45 44
g roof_step_or_fixture_side
f 413 412 46 45
g roof_step_or_fixture_side
f 412 409 47 46
g roof_step_or_fixture_side
f 409 408 48 47
g roof_step_or_fixture_side
f 408 407 49 48
g roof_step_or_fixture_side
f 407 437 50 49
g roof_step_or_fixture_side
f 437 406 51 50
g roof_step_or_fixture_side
f 406 405 52 51
g roof_step_or_fixture_side
f 405 404 53 52
g roof_step_or_fixture_side
f 404 403 54 53
g roof_step_or_fixture_side
f 403 402 55 54
g roof_step_or_fixture_side
f 402 401 56 55
g roof_step_or_fixture_side
f 401 400 708 56
g roof_step_or_fixture_side
f 400 432 57 708
g roof_step_or_fixture_side
f 432 399 58 57
g roof_step_or_fixture_side
f 399 398 59 58
g roof_step_or_fixture_side
f 398 709 60 59
g roof_step_or_fixture_side
f 709 397 61 60
g roof_step_or_fixture_side
f 397 396 62 61
g roof_step_or_fixture_side
f 396 395 63 62
g roof_step_or_fixture_side
f 395 394 696 63
g roof_step_or_fixture_side
f 383 386 69 68
g roof_step_or_fixture_side
f 386 385 66 69
g roof_step_or_fixture_side
f 385 384 67 66
g roof_step_or_fixture_side
f 384 383 68 67
g roof_step_or_fixture_side
f 378 377 72 71
g roof_step_or_fixture_side
f 377 376 73 72
g roof_step_or_fixture_side
f 376 375 74 73
g roof_step_or_fixture_side
f 375 435 75 74
g roof_step_or_fixture_side
f 435 436 76 75
g roof_step_or_fixture_side
f 436 380 77 76
g roof_step_or_fixture_side
f 380 379 70 77
g roof_step_or_fixture_side
f 379 378 71 70
g roof_step_or_fixture_side
f 374 431 80 79
g roof_step_or_fixture_side
f 431 381 78 80
g roof_step_or_fixture_side
f 381 374 79 78
g roof_step_or_fixture_side
f 83 82 348 347
g roof_step_or_fixture_side
f 84 83 347 711
g roof_step_or_fixture_side
f 85 84 711 382
g roof_step_or_fixture_side
f 86 85 382 712
g roof_step_or_fixture_side
f 87 86 712 430
g roof_step_or_fixture_side
f 88 87 430 429
g roof_step_or_fixture_side
f 89 88 429 373
g roof_step_or_fixture_side
f 90 89 373 372
g roof_step_or_fixture_side
f 91 90 372 371
g roof_step_or_fixture_side
f 92 91 371 370
g roof_step_or_fixture_side
f 713 92 370 369
g roof_step_or_fixture_side
f 93 713 369 368
g roof_step_or_fixture_side
f 81 93 368 714
g roof_step_or_fixture_side
f 82 81 714 348
g roof_step_or_fixture_side
f 361 360 96 95
g roof_step_or_fixture_side
f 360 359 97 96
g roof_step_or_fixture_side
f 359 434 98 97
g roof_step_or_fixture_side
f 434 358 99 98
g roof_step_or_fixture_side
f 358 357 100 99
g roof_step_or_fixture_side
f 357 356 101 100
g roof_step_or_fixture_side
f 356 102 101
g roof_step_or_fixture_side
f 103 102 355
g roof_step_or_fixture_side
f 104 103 355 354
g roof_step_or_fixture_side
f 105 104 354 353
g roof_step_or_fixture_side
f 106 105 353 352
g roof_step_or_fixture_side
f 107 106 352 351
g roof_step_or_fixture_side
f 108 107 351 350
g roof_step_or_fixture_side
f 109 108 350 349
g roof_step_or_fixture_side
f 110 109 349 715
g roof_step_or_fixture_side
f 111 110 715 367
g roof_step_or_fixture_side
f 112 111 367 366
g roof_step_or_fixture_side
f 113 112 366 365
g roof_step_or_fixture_side
f 114 113 365 364
g roof_step_or_fixture_side
f 115 114 364
g roof_step_or_fixture_side
f 115 363 116
g roof_step_or_fixture_side
f 363 362 94 116
g roof_step_or_fixture_side
f 362 361 95 94
g roof_step_or_fixture_side
f 428 344 120 119
g roof_step_or_fixture_side
f 344 343 121 120
g roof_step_or_fixture_side
f 343 342 117 121
g roof_step_or_fixture_side
f 342 341 118 117
g facade_completed
f 119 118 716 717
g roof_step_or_fixture_side
f 410 411 123 122
g roof_step_or_fixture_side
f 411 407 49 123
g roof_step_or_fixture_side
f 407 410 122 49
g roof_step_or_fixture_side
f 443 442 126 125
g roof_step_or_fixture_side
f 442 440 127 126
g roof_step_or_fixture_side
f 440 411 123 127
g roof_step_or_fixture_side
f 411 441 124 123
g roof_step_or_fixture_side
f 441 443 125 124
g roof_step_or_fixture_side
f 446 438 128 130
g roof_step_or_fixture_side
f 438 444 129 128
g roof_step_or_fixture_side
f 444 446 130 129
g roof_step_or_fixture_side
f 327 326 133 132
g roof_step_or_fixture_side
f 326 427 134 133
g roof_step_or_fixture_side
f 427 718 135 134
g roof_step_or_fixture_side
f 718 439 136 135
g roof_step_or_fixture_side
f 439 438 128 136
g roof_step_or_fixture_side
f 438 445 137 128
g roof_step_or_fixture_side
f 445 426 138 137
g roof_step_or_fixture_side
f 426 425 139 138
g roof_step_or_fixture_side
f 425 424 140 139
g facade_completed
f 141 140 719 720
g roof_step_or_fixture_side
f 340 339 142 141
g roof_step_or_fixture_side
f 339 338 143 142
g roof_step_or_fixture_side
f 338 337 144 143
g roof_step_or_fixture_side
f 337 336 145 144
g roof_step_or_fixture_side
f 336 335 146 145
g roof_step_or_fixture_side
f 335 334 147 146
g roof_step_or_fixture_side
f 334 333 148 147
g roof_step_or_fixture_side
f 333 332 149 148
g roof_step_or_fixture_side
f 332 331 150 149
g roof_step_or_fixture_side
f 331 330 151 150
g roof_step_or_fixture_side
f 330 329 152 151
g roof_step_or_fixture_side
f 329 328 131 152
g roof_step_or_fixture_side
f 328 327 132 131
g roof_step_or_fixture_side
f 459 458 155 154
g roof_step_or_fixture_side
f 458 457 156 155
g roof_step_or_fixture_side
f 457 456 27 156
g roof_step_or_fixture_side
f 456 460 153 27
g roof_step_or_fixture_side
f 460 459 154 153
g roof_step_or_fixture_side
f 517 481 214 213
g roof_step_or_fixture_side
f 481 480 215 214
g roof_step_or_fixture_side
f 480 479 216 215
g roof_step_or_fixture_side
f 479 516 217 216
g roof_step_or_fixture_side
f 516 522 723 217
g roof_step_or_fixture_side
f 522 521 218 723
g roof_step_or_fixture_side
f 521 515 219 218
g roof_step_or_fixture_side
f 515 514 220 219
g roof_step_or_fixture_side
f 514 513 221 220
g roof_step_or_fixture_side
f 513 512 222 221
g roof_step_or_fixture_side
f 512 511 223 222
g roof_step_or_fixture_side
f 224 223 724 610
g roof_step_or_fixture_side
f 725 224 610 726
g roof_step_or_fixture_side
f 727 725 726 728
g roof_step_or_fixture_side
f 225 727 728 603
g roof_step_or_fixture_side
f 729 225 603 602
g roof_step_or_fixture_side
f 538 537 226 729
g roof_step_or_fixture_side
f 537 536 227 226
g roof_step_or_fixture_side
f 228 227 680 679
g roof_step_or_fixture_side
f 229 228 679 678
g roof_step_or_fixture_side
f 230 229 678 677
g roof_step_or_fixture_side
f 231 230 677 676
g roof_step_or_fixture_side
f 535 534 232 231
g roof_step_or_fixture_side
f 534 533 233 232
g roof_step_or_fixture_side
f 533 532 234 233
g roof_step_or_fixture_side
f 532 531 235 234
g roof_step_or_fixture_side
f 236 235 684 683
g roof_step_or_fixture_side
f 237 236 683 682
g roof_step_or_fixture_side
f 550 549 238 237
g roof_step_or_fixture_side
f 549 548 239 238
g roof_step_or_fixture_side
f 240 239 687 686
g roof_step_or_fixture_side
f 241 240 686 685
g roof_step_or_fixture_side
f 242 241 685 692
g roof_step_or_fixture_side
f 243 242 692 691
g roof_step_or_fixture_side
f 732 243 691 690
g roof_step_or_fixture_side
f 545 544 244 732
g roof_step_or_fixture_side
f 544 543 245 244
g roof_step_or_fixture_side
f 543 562 157 245
g roof_step_or_fixture_side
f 158 157 595 594
g roof_step_or_fixture_side
f 733 158 594 593
g roof_step_or_fixture_side
f 564 563 159 733
g roof_step_or_fixture_side
f 563 586 160 159
g roof_step_or_fixture_side
f 586 585 161 160
g roof_step_or_fixture_side
f 585 584 162 161
g roof_step_or_fixture_side
f 584 583 163 162
g roof_step_or_fixture_side
f 583 582 164 163
g roof_step_or_fixture_side
f 165 164 635 634
g roof_step_or_fixture_side
f 166 165 634 633
g roof_step_or_fixture_side
f 167 166 633 632
g roof_step_or_fixture_side
f 168 167 632 631
g roof_step_or_fixture_side
f 169 168 631 630
g roof_step_or_fixture_side
f 170 169 630 629
g roof_step_or_fixture_side
f 171 170 629 628
g roof_step_or_fixture_side
f 172 171 628 627
g facade_completed
f 173 172 627 736 737
g roof_step_or_fixture_side
f 506 505 174 173
g roof_step_or_fixture_side
f 505 504 175 174
g roof_step_or_fixture_side
f 504 503 176 175
g roof_step_or_fixture_side
f 503 502 177 176
g roof_step_or_fixture_side
f 502 501 178 177
g roof_step_or_fixture_side
f 501 500 179 178
g roof_step_or_fixture_side
f 500 499 180 179
g roof_step_or_fixture_side
f 499 498 181 180
g roof_step_or_fixture_side
f 498 497 182 181
g roof_step_or_fixture_side
f 497 496 183 182
g roof_step_or_fixture_side
f 496 495 184 183
g roof_step_or_fixture_side
f 495 494 185 184
g roof_step_or_fixture_side
f 494 493 186 185
g roof_step_or_fixture_side
f 493 520 187 186
g roof_step_or_fixture_side
f 520 519 188 187
g roof_step_or_fixture_side
f 519 738 189 188
g roof_step_or_fixture_side
f 738 518 190 189
g roof_step_or_fixture_side
f 518 492 191 190
g roof_step_or_fixture_side
f 492 491 192 191
g roof_step_or_fixture_side
f 491 490 740 741 193 192
g roof_step_or_fixture_side
f 740 490 489 249 741 193
g roof_step_or_fixture_side
f 489 488 199 249
g roof_step_or_fixture_side
f 488 487 200 199
g roof_step_or_fixture_side
f 487 486 201 200
g roof_step_or_fixture_side
f 486 485 202 201
g roof_step_or_fixture_side
f 485 484 203 202
g roof_step_or_fixture_side
f 484 483 210 203
g roof_step_or_fixture_side
f 483 742 211 210
g roof_step_or_fixture_side
f 742 482 212 211
g roof_step_or_fixture_side
f 482 517 213 212
g roof_step_or_fixture_side
f 555 554 248 247
g roof_step_or_fixture_side
f 554 553 196 248
g roof_step_or_fixture_side
f 553 552 197 196
g roof_step_or_fixture_side
f 552 743 198 197
g roof_step_or_fixture_side
f 743 558 194 198
g roof_step_or_fixture_side
f 558 557 195 194
g roof_step_or_fixture_side
f 557 556 246 195
g roof_step_or_fixture_side
f 556 555 247 246
g roof_step_or_fixture_side
f 525 524 209 208
g roof_step_or_fixture_side
f 524 530 204 209
g roof_step_or_fixture_side
f 530 529 205 204
g roof_step_or_fixture_side
f 529 528 206 205
g roof_step_or_fixture_side
f 528 527 207 206
g roof_step_or_fixture_side
f 527 526 250 207
g roof_step_or_fixture_side
f 526 525 208 250
g roof_step_or_fixture_side
f 509 508 254 253
g facade_completed
f 251 254 744 745 670
g roof_step_or_fixture_side
f 252 251 670 613
g roof_step_or_fixture_side
f 253 252 613 612
g roof_step_or_fixture_side
f 258 257 625 624
g roof_step_or_fixture_side
f 259 258 624 615
g roof_step_or_fixture_side
f 255 259 615 614
g roof_step_or_fixture_side
f 256 255 614 672
g facade_completed
f 257 256 672 747 748 625
g roof_step_or_fixture_side
f 263 262 606 605
g roof_step_or_fixture_side
f 264 263 605 667
g roof_step_or_fixture_side
f 265 264 667 671
g roof_step_or_fixture_side
f 266 265 671 673
g roof_step_or_fixture_side
f 267 266 673 669
g roof_step_or_fixture_side
f 268 267 669 601
g roof_step_or_fixture_side
f 269 268 601 604
g roof_step_or_fixture_side
f 270 269 604 664
g roof_step_or_fixture_side
f 271 270 664 609
g roof_step_or_fixture_side
f 260 271 609 608
g roof_step_or_fixture_side
f 261 260 608 607
g roof_step_or_fixture_side
f 262 261 607 606
g roof_step_or_fixture_side
f 258 274 693 624
g roof_step_or_fixture_side
f 272 258 624 623
g roof_step_or_fixture_side
f 273 272 623 622
g roof_step_or_fixture_side
f 274 273 622 693
g roof_step_or_fixture_side
f 277 276 694 618
g roof_step_or_fixture_side
f 278 277 618 617
g roof_step_or_fixture_side
f 279 278 617 668
g roof_step_or_fixture_side
f 280 279 668 616
g roof_step_or_fixture_side
f 259 280 616 615
g roof_step_or_fixture_side
f 275 259 615 695
g roof_step_or_fixture_side
f 276 275 695 694
g roof_step_or_fixture_side
f 273 277 618 622
g roof_step_or_fixture_side
f 283 273 622 621
g roof_step_or_fixture_side
f 281 283 621 620
g roof_step_or_fixture_side
f 282 281 620 619
g roof_step_or_fixture_side
f 277 282 619 618
g roof_step_or_fixture_side
f 299 298 651 650
g roof_step_or_fixture_side
f 300 299 650 649
g roof_step_or_fixture_side
f 301 300 649 648
g roof_step_or_fixture_side
f 302 301 648 647
g roof_step_or_fixture_side
f 576 575 303 302
g roof_step_or_fixture_side
f 575 574 284 303
g roof_step_or_fixture_side
f 574 573 285 284
g roof_step_or_fixture_side
f 573 572 286 285
g roof_step_or_fixture_side
f 287 286 750 591
g roof_step_or_fixture_side
f 304 287 591 663
g roof_step_or_fixture_side
f 305 304 663 662
g roof_step_or_fixture_side
f 288 305 662 661
g roof_step_or_fixture_side
f 289 288 661 660
g roof_step_or_fixture_side
f 290 289 660 659
g roof_step_or_fixture_side
f 291 290 659 658
g roof_step_or_fixture_side
f 292 291 658 657
g roof_step_or_fixture_side
f 306 292 657 656
g roof_step_or_fixture_side
f 293 306 656 655
g roof_step_or_fixture_side
f 294 293 655 654
g roof_step_or_fixture_side
f 295 294 654 666
g roof_step_or_fixture_side
f 296 295 666 653
g roof_step_or_fixture_side
f 297 296 653 652
g roof_step_or_fixture_side
f 298 297 652 651
g roof_step_or_fixture_side
f 569 568 310 309
g roof_step_or_fixture_side
f 568 567 311 310
g roof_step_or_fixture_side
f 567 566 307 311
g roof_step_or_fixture_side
f 308 307 752 753
g roof_step_or_fixture_side
f 570 569 309 308
g roof_step_or_fixture_side
f 315 314 641 640
g roof_step_or_fixture_side
f 316 315 640 639
g roof_step_or_fixture_side
f 317 316 639 638
g roof_step_or_fixture_side
f 318 317 638 637
g roof_step_or_fixture_side
f 319 318 637 636
g roof_step_or_fixture_side
f 320 319 636 754
g roof_step_or_fixture_side
f 321 320 754 755
g roof_step_or_fixture_side
f 581 580 322 321
g roof_step_or_fixture_side
f 580 579 323 322
g roof_step_or_fixture_side
f 579 578 324 323
g roof_step_or_fixture_side
f 578 588 325 324
g roof_step_or_fixture_side
f 588 589 312 325
g roof_step_or_fixture_side
f 589 590 313 312
g roof_step_or_fixture_side
f 314 313 642 641
g facade_completed
f 387 758 759 698 6
g facade_completed
f 762 423 35 706 763
g facade_completed
f 424 762 763 719 140
g facade_completed
f 341 340 141 720 716 118
g facade_completed
f 765 428 119 717 766
g facade_completed
f 345 765 766 767
g facade_completed
f 346 345 767 768
g facade_completed
f 758 346 768 759
g facade_completed
f 452 451 7 699 701 16
g facade_completed
f 468 467 18 703 773
g roof_step_or_fixture_side
f 523 507 478 468
g facade_completed
f 469 478 774 775
g facade_completed
f 470 469 775 704 33
g facade_completed
f 507 506 173 737 774 478
g facade_completed
f 508 523 468 773 744 254
g roof_step_or_fixture_side
f 510 509 253 612 611
g roof_step_or_fixture_side
f 511 510 611 724 223
g roof_step_or_fixture_side
f 531 535 231 676 684 235
g roof_step_or_fixture_side
f 539 538 729 602 601 268
g roof_step_or_fixture_side
f 540 539 268 601 600
g roof_step_or_fixture_side
f 541 540 600 599
g roof_step_or_fixture_side
f 542 541 599 598
g roof_step_or_fixture_side
f 543 542 598 675 245
g roof_step_or_fixture_side
f 546 545 732 690 689
g roof_step_or_fixture_side
f 547 546 689 688
g roof_step_or_fixture_side
f 548 547 688 687 239
g roof_step_or_fixture_side
f 551 550 237 682 681
g roof_step_or_fixture_side
f 536 551 681 680 227
g roof_step_or_fixture_side
f 559 561 597 596
g roof_step_or_fixture_side
f 560 559 596 674
g roof_step_or_fixture_side
f 561 560 674 597
g roof_step_or_fixture_side
f 560 543 245 675 674
g roof_step_or_fixture_side
f 562 560 674 595 157
g roof_step_or_fixture_side
f 565 564 733 593 778
g roof_step_or_fixture_side
f 566 565 778 752 307
g roof_step_or_fixture_side
f 571 570 308 753 592
g roof_step_or_fixture_side
f 572 571 592 750 286
g roof_step_or_fixture_side
f 577 576 302 647 646
g roof_step_or_fixture_side
f 578 577 646 645 324
g roof_step_or_fixture_side
f 582 581 321 755 635 164
g roof_step_or_fixture_side
f 587 578 324 645 644
g roof_step_or_fixture_side
f 588 587 644 643 325
g roof_step_or_fixture_side
f 590 588 325 643 642 313
g facade_completed
f 672 670 745 747
g facade_completed
f 626 625 748 780
g facade_completed
f 665 626 780 781
g facade_completed
f 627 665 781 736
g ground_assumed
f 766 768 767
g ground_assumed
f 766 759 768
g ground_assumed
f 766 698 759
g ground_assumed
f 766 699 698
g ground_assumed
f 766 701 699
g ground_assumed
f 766 702 701
g ground_assumed
f 766 703 702
g ground_assumed
f 766 773 703
g ground_assumed
f 766 744 773
g ground_assumed
f 766 745 744
g ground_assumed
f 766 747 745
g ground_assumed
f 766 748 747
g ground_assumed
f 766 780 748
g ground_assumed
f 780 736 781
g ground_assumed
f 780 737 736
g ground_assumed
f 780 774 737
g ground_assumed
f 780 775 774
g ground_assumed
f 780 704 775
g ground_assumed
f 780 705 704
g ground_assumed
f 780 706 705
g ground_assumed
f 780 763 706
g ground_assumed
f 780 719 763
g ground_assumed
f 780 720 719
g ground_assumed
f 780 716 720
g ground_assumed
f 780 717 716
g ground_assumed
f 780 766 717
