# XYZ-only planar convex-roof baseline. Provisional base; no GT.
v 10.80088549 2.44548351 4.24792134
v 10.80088549 5.29854760 4.26546725
v 8.35540198 6.31749906 4.25889344
v 1.83411263 7.74403110 4.23342586
v -5.09475731 8.96677286 4.20456497
v -7.54024081 9.17056315 4.19297805
v -8.76298257 6.11370877 4.16775876
v -10.80088549 -5.29854760 4.08687496
v -10.80088549 -5.70612818 4.08436840
v -9.98572432 -5.90991847 4.08739519
v -3.46443497 -7.13266023 4.11411605
v 5.90991847 -8.76298257 4.15331058
v 8.76298257 -9.17056315 4.16578426
v 10.80088549 2.44548351 -4.90041246
v 10.80088549 5.29854760 -4.90041246
v 8.35540198 6.31749906 -4.90041246
v 1.83411263 7.74403110 -4.90041246
v -5.09475731 8.96677286 -4.90041246
v -7.54024081 9.17056315 -4.90041246
v -8.76298257 6.11370877 -4.90041246
v -10.80088549 -5.29854760 -4.90041246
v -10.80088549 -5.70612818 -4.90041246
v -9.98572432 -5.90991847 -4.90041246
v -3.46443497 -7.13266023 -4.90041246
v 5.90991847 -8.76298257 -4.90041246
v 8.76298257 -9.17056315 -4.90041246
g roof
f 1 2 3 4 5 6 7 8 9 10 11 12 13
g wall
f 2 1 14 15
g wall
f 3 2 15 16
g wall
f 4 3 16 17
g wall
f 5 4 17 18
g wall
f 6 5 18 19
g wall
f 7 6 19 20
g wall
f 8 7 20 21
g wall
f 9 8 21 22
g wall
f 10 9 22 23
g wall
f 11 10 23 24
g wall
f 12 11 24 25
g wall
f 13 12 25 26
g wall
f 1 13 26 14
g ground_assumed
f 26 25 24 23 22 21 20 19 18 17 16 15 14
