v 2679279.2500000014 1250858.8750000021 452.05556839979624
v 2679279.2500000014 1250860.6250000014 452.06633063349324
v 2679277.7499999995 1250861.2500000007 452.06229841860676
v 2679273.75 1250862.1249999974 452.0466772255391
v 2679269.4999999972 1250862.8750000016 452.02897465879374
v 2679268.0000000014 1250863.0000000002 452.02186752437507
v 2679267.2499999972 1250861.1250000021 452.00639862634398
v 2679265.9999999986 1250854.1249999986 451.95678647411586
v 2679265.9999999986 1250853.8750000012 451.95524901128289
v 2679266.4999999991 1250853.7500000026 451.95710557052269
v 2679270.4999999986 1250852.9999999986 451.97349549500683
v 2679276.2499999972 1250851.9999999972 451.99753646475438
v 2679278.0000000028 1250851.7499999998 452.00518751615164
v 2679279.2500000014 1250858.8750000021 446.44420334128773
v 2679279.2500000014 1250860.6250000014 446.44420334128773
v 2679277.7499999995 1250861.2500000007 446.44420334128773
v 2679273.75 1250862.1249999974 446.44420334128773
v 2679269.4999999972 1250862.8750000016 446.44420334128773
v 2679268.0000000014 1250863.0000000002 446.44420334128773
v 2679267.2499999972 1250861.1250000021 446.44420334128773
v 2679265.9999999986 1250854.1249999986 446.44420334128773
v 2679265.9999999986 1250853.8750000012 446.44420334128773
v 2679266.4999999991 1250853.7500000026 446.44420334128773
v 2679270.4999999986 1250852.9999999986 446.44420334128773
v 2679276.2499999972 1250851.9999999972 446.44420334128773
v 2679278.0000000028 1250851.7499999998 446.44420334128773
l 1 2
l 2 3
l 3 4
l 4 5
l 5 6
l 6 7
l 7 8
l 8 9
l 9 10
l 10 11
l 11 12
l 12 13
l 1 13
l 14 15
l 2 15
l 15 16
l 3 16
l 16 17
l 17 18
l 18 19
l 6 19
l 19 20
l 7 20
l 20 21
l 8 21
l 21 22
l 9 22
l 22 23
l 23 24
l 24 25
l 25 26
l 13 26
l 14 26
