v 0.14399572857823173 -0.50022117070177252 0.19635044695786474
v 0.25164980200633791 0.45584883473903054 0.19620573084761772
v -0.14375448849840872 0.50037160224026689 0.19636511887582359
v -0.25140856233740094 -0.45569840320053595 0.19650983457518459
v 0.14399572857823173 -0.50022117070177252 -0.25218356621477989
v 0.25164980200633791 0.45584883473903054 -0.25218356621477989
v -0.14375448849840872 0.50037160224026689 -0.25218356621477989
v -0.25140856233740094 -0.45569840320053595 -0.25218356621477989
l 1 2
l 2 3
l 3 4
l 1 4
l 1 5
l 5 6
l 2 6
l 6 7
l 3 7
l 7 8
l 4 8
l 5 8
