# XYZ-only planar convex-roof baseline. Provisional base; no GT.
v 10.67393890 -5.07964142 0.95710037
v 11.73341871 0.05047134 0.94490562
v -11.93915075 4.80563301 0.92991657
v -13.02861490 -0.46966709 0.94245645
v 12.38411929 3.20123206 -1.29665275
v -11.26196009 8.08466149 -1.40289585
v -13.68476245 -3.64680259 -1.23922360
v 9.96131693 -8.53023203 -1.41235624
v 10.67393890 -5.07964142 -3.98419591
v 11.73341871 0.05047134 -3.98419591
v 12.38411929 3.20123206 -3.98419591
v -11.26196009 8.08466149 -3.98419591
v -11.93915075 4.80563301 -3.98419591
v -13.02861490 -0.46966709 -3.98419591
v -13.68476245 -3.64680259 -3.98419591
v 9.96131693 -8.53023203 -3.98419591
g roof
f 1 2 3 4
g roof
f 2 5 6 3
g roof
f 7 8 1 4
g wall
f 2 1 9 10
g wall
f 4 3 13 14
g wall
f 5 2 10 11
g wall
f 6 5 11 12
g wall
f 3 6 12 13
g wall
f 8 7 15 16
g wall
f 1 8 16 9
g wall
f 7 4 14 15
g ground_assumed
f 16 15 14 13 12 11 10 9
