# Source coordinates; no display transform
v 2685653.50326 1251067.06854 436.443473523
v 2685654.04951 1251069.71352 436.43718616
v 2685641.84442 1251072.16519 436.429458113
v 2685641.28271 1251069.44535 436.435923418
v 2685654.385 1251071.33799 435.28148465
v 2685642.19356 1251073.85579 435.226707887
v 2685640.94442 1251067.80728 435.311093942
v 2685653.13585 1251065.28949 435.221830304
v 2685653.50326 1251067.06854 433.895842532
v 2685654.04951 1251069.71352 433.895842532
v 2685654.385 1251071.33799 433.895842532
v 2685642.19356 1251073.85579 433.895842532
v 2685641.84442 1251072.16519 433.895842532
v 2685641.28271 1251069.44535 433.895842532
v 2685640.94442 1251067.80728 433.895842532
v 2685653.13585 1251065.28949 433.895842532
g roof
f 1 2 3 4
g roof
f 2 5 6 3
g roof
f 7 8 1 4
g wall
f 2 1 9 10
g wall
f 4 3 13 14
g wall
f 5 2 10 11
g wall
f 6 5 11 12
g wall
f 3 6 12 13
g wall
f 8 7 15 16
g wall
f 1 8 16 9
g wall
f 7 4 14 15
g ground_assumed
f 16 15 14 13 12 11 10 9
