# XYZ-only planar convex-roof baseline. Provisional base; no GT.
v -4.86069377 -10.15760366 1.92156758
v 9.09822168 0.06231659 1.95161454
v 10.34455342 1.18401515 1.95491566
v 10.59381976 5.42154306 1.96743781
v 9.34748803 7.41567384 1.97334625
v 7.60262360 9.78370414 1.98036557
v 7.35335725 10.03297048 1.98110520
v 6.85482455 10.40687000 1.98221608
v 2.86656300 7.54030701 1.97378911
v -9.34748803 -1.43328150 1.94740592
v -10.59381976 -2.67961323 1.94373642
v -10.59381976 -3.55204545 1.94115774
v -6.10702551 -9.65907096 1.92305543
v -5.60849282 -10.28223683 1.92120779
v -4.86069377 -10.15760366 -1.99484115
v 9.09822168 0.06231659 -1.99484115
v 10.34455342 1.18401515 -1.99484115
v 10.59381976 5.42154306 -1.99484115
v 9.34748803 7.41567384 -1.99484115
v 7.60262360 9.78370414 -1.99484115
v 7.35335725 10.03297048 -1.99484115
v 6.85482455 10.40687000 -1.99484115
v 2.86656300 7.54030701 -1.99484115
v -9.34748803 -1.43328150 -1.99484115
v -10.59381976 -2.67961323 -1.99484115
v -10.59381976 -3.55204545 -1.99484115
v -6.10702551 -9.65907096 -1.99484115
v -5.60849282 -10.28223683 -1.99484115
g roof
f 1 2 3 4 5 6 7 8 9 10 11 12 13 14
g wall
f 2 1 15 16
g wall
f 3 2 16 17
g wall
f 4 3 17 18
g wall
f 5 4 18 19
g wall
f 6 5 19 20
g wall
f 7 6 20 21
g wall
f 8 7 21 22
g wall
f 9 8 22 23
g wall
f 10 9 23 24
g wall
f 11 10 24 25
g wall
f 12 11 25 26
g wall
f 13 12 26 27
g wall
f 14 13 27 28
g wall
f 1 14 28 15
g ground_assumed
f 28 27 26 25 24 23 22 21 20 19 18 17 16 15
