# Source coordinates; no display transform
v 2683795.75 1247377.5 423.747230553
v 2683809.75 1247387.75 423.777365949
v 2683811 1247388.875 423.780676785
v 2683811.25 1247393.125 423.793235791
v 2683810 1247395.125 423.799161621
v 2683808.25 1247397.5 423.806201601
v 2683808 1247397.75 423.806943407
v 2683807.5 1247398.125 423.808057557
v 2683803.5 1247395.25 423.799605784
v 2683791.25 1247386.25 423.773144942
v 2683790 1247385 423.769464642
v 2683790 1247384.125 423.766878372
v 2683794.5 1247378 423.748722783
v 2683795 1247377.375 423.746869705
v 2683795.75 1247377.5 419.819294863
v 2683809.75 1247387.75 419.819294863
v 2683811 1247388.875 419.819294863
v 2683811.25 1247393.125 419.819294863
v 2683810 1247395.125 419.819294863
v 2683808.25 1247397.5 419.819294863
v 2683808 1247397.75 419.819294863
v 2683807.5 1247398.125 419.819294863
v 2683803.5 1247395.25 419.819294863
v 2683791.25 1247386.25 419.819294863
v 2683790 1247385 419.819294863
v 2683790 1247384.125 419.819294863
v 2683794.5 1247378 419.819294863
v 2683795 1247377.375 419.819294863
g roof
f 1 2 3 4 5 6 7 8 9 10 11 12 13 14
g wall
f 2 1 15 16
g wall
f 3 2 16 17
g wall
f 4 3 17 18
g wall
f 5 4 18 19
g wall
f 6 5 19 20
g wall
f 7 6 20 21
g wall
f 8 7 21 22
g wall
f 9 8 22 23
g wall
f 10 9 23 24
g wall
f 11 10 24 25
g wall
f 12 11 25 26
g wall
f 13 12 26 27
g wall
f 14 13 27 28
g wall
f 1 14 28 15
g ground_assumed
f 28 27 26 25 24 23 22 21 20 19 18 17 16 15
