v 2683795.7500000047 1247377.499999997 423.747230553463
v 2683809.7499999995 1247387.7500000033 423.77736594910715
v 2683811.0000000023 1247388.8749999998 423.78067678512076
v 2683811.2499999949 1247393.1250000037 423.79323579090919
v 2683810.0000000019 1247395.1250000044 423.79916162091132
v 2683808.2500000042 1247397.5000000042 423.8062016005083
v 2683808.0000000014 1247397.7499999967 423.80694340742258
v 2683807.4999999963 1247398.1249999956 423.80805755701749
v 2683803.5000000047 1247395.2500000007 423.79960578435794
v 2683791.2499999981 1247386.2499999977 423.77314494209622
v 2683790.0000000051 1247385.0000000047 423.76946464184903
v 2683790.0000000051 1247384.1250000007 423.76687837215519
v 2683794.5000000014 1247378.0000000021 423.74872278257402
v 2683794.9999999967 1247377.3750000007 423.74686970451194
v 2683795.7500000047 1247377.499999997 419.81929486271207
v 2683809.7499999995 1247387.7500000033 419.81929486271207
v 2683811.0000000023 1247388.8749999998 419.81929486271207
v 2683811.2499999949 1247393.1250000037 419.81929486271207
v 2683810.0000000019 1247395.1250000044 419.81929486271207
v 2683808.2500000042 1247397.5000000042 419.81929486271207
v 2683808.0000000014 1247397.7499999967 419.81929486271207
v 2683807.4999999963 1247398.1249999956 419.81929486271207
v 2683803.5000000047 1247395.2500000007 419.81929486271207
v 2683791.2499999981 1247386.2499999977 419.81929486271207
v 2683790.0000000051 1247385.0000000047 419.81929486271207
v 2683790.0000000051 1247384.1250000007 419.81929486271207
v 2683794.5000000014 1247378.0000000021 419.81929486271207
v 2683794.9999999967 1247377.3750000007 419.81929486271207
l 1 2
l 2 3
l 3 4
l 4 5
l 5 6
l 6 7
l 7 8
l 8 9
l 9 10
l 10 11
l 11 12
l 12 13
l 13 14
l 1 14
l 1 15
l 15 16
l 16 17
l 3 17
l 17 18
l 4 18
l 18 19
l 19 20
l 20 21
l 21 22
l 8 22
l 22 23
l 23 24
l 24 25
l 11 25
l 25 26
l 12 26
l 26 27
l 27 28
l 14 28
l 15 28
