v 2685276.2965273899 1252428.3197668809 429.94602175913275
v 2685288.2351923571 1252427.8933859875 429.95439084224728
v 2685288.3281859863 1252430.4972076439 429.90977825917071
v 2685276.3895210191 1252430.9235885334 429.90140917605618
v 2685276.2965273899 1252428.3197668809 429.78731848310667
v 2685288.2351923571 1252427.8933859875 429.78731848310667
v 2685288.3281859863 1252430.4972076439 429.78731848310667
v 2685276.3895210191 1252430.9235885334 429.78731848310667
l 1 2
l 2 3
l 3 4
l 1 4
l 1 5
l 5 6
l 2 6
l 6 7
l 3 7
l 7 8
l 4 8
l 5 8
