# Source coordinates; no display transform
v 2685329.25 1252358 435.968225353
v 2685326 1252363.125 435.970075346
v 2685325.75 1252363.25 435.969903426
v 2685325.5 1252363.125 435.969439718
v 2685323.25 1252361.75 435.964974613
v 2685314.5 1252356.375 435.947577877
v 2685310.25 1252353.75 435.939111363
v 2685309.75 1252353.25 435.937892181
v 2685309.75 1252348.5 435.932348306
v 2685311.25 1252346 435.931337359
v 2685312 1252344.875 435.930977769
v 2685315.25 1252344.875 435.935109322
v 2685316 1252345.25 435.936500434
v 2685318.25 1252346.5 435.940819647
v 2685330.5 1252354 435.965145899
v 2685331.25 1252354.5 435.966682896
v 2685331.25 1252354.625 435.966828789
v 2685329.25 1252358 429.209991457
v 2685326 1252363.125 429.209991457
v 2685325.75 1252363.25 429.209991457
v 2685325.5 1252363.125 429.209991457
v 2685323.25 1252361.75 429.209991457
v 2685314.5 1252356.375 429.209991457
v 2685310.25 1252353.75 429.209991457
v 2685309.75 1252353.25 429.209991457
v 2685309.75 1252348.5 429.209991457
v 2685311.25 1252346 429.209991457
v 2685312 1252344.875 429.209991457
v 2685315.25 1252344.875 429.209991457
v 2685316 1252345.25 429.209991457
v 2685318.25 1252346.5 429.209991457
v 2685330.5 1252354 429.209991457
v 2685331.25 1252354.5 429.209991457
v 2685331.25 1252354.625 429.209991457
g roof
f 1 2 3 4 5 6 7 8 9 10 11 12 13 14 15 16 17
g wall
f 2 1 18 19
g wall
f 3 2 19 20
g wall
f 4 3 20 21
g wall
f 5 4 21 22
g wall
f 6 5 22 23
g wall
f 7 6 23 24
g wall
f 8 7 24 25
g wall
f 9 8 25 26
g wall
f 10 9 26 27
g wall
f 11 10 27 28
g wall
f 12 11 28 29
g wall
f 13 12 29 30
g wall
f 14 13 30 31
g wall
f 15 14 31 32
g wall
f 16 15 32 33
g wall
f 17 16 33 34
g wall
f 1 17 34 18
g ground_assumed
f 34 33 32 31 30 29 28 27 26 25 24 23 22 21 20 19 18
