# pointcloud_to_mesh 0.5.1; candidate requires geometry validation; coordinates preserved
v 5.635455894 3.759134829 4.335234856
v 5.024542586 4.235522297 4.328514738
v 2.063444496 5.605163867 4.763142887
v -2.834189457 8.868000871 4.985943409
v -3.466895174 8.839128148 5.238718316
v -5.114570842 3.288762602 8.619981000
v -5.119174266 3.290099059 8.621050991
v -5.119303606 3.290196940 8.621051049
v -5.119319300 3.290143600 8.621083491
v -5.119792858 3.288534110 8.622062391
v -5.119912895 3.288528908 8.622110211
v -5.119804608 3.288494176 8.622086679
v -5.115097990 3.286986850 8.621062782
v -5.115091350 3.287009219 8.621049155
v -5.115035218 3.286966686 8.621049156
v 3.745150337 -3.418181285 8.617063431
v 6.158387693 -0.323475997 6.168606702
v 6.252841179 -0.202350033 6.072774740
v 7.940397818 1.961751415 4.360589488
v -5.114791145 3.288752963 8.620068808
v -7.271706295 -4.025205337 4.175299456
v -0.715132641 -9.137992177 4.097278546
v -5.696400430 1.328809582 7.429090811
v -7.283140713 -4.016288829 4.175435521
v -7.242890049 8.666815408 5.227545091
v -7.969488115 9.233413334 4.853183239
v -7.704423011 4.084052398 8.044337566
v -7.657757113 3.177484350 8.606154573
v -5.256545429 3.332286989 8.590467394
v -5.114791178 3.288752975 8.622093249
v -5.114570858 3.288762635 8.622094618
v -3.466895174 8.839128148 5.246828969
v -5.256545429 3.332286989 8.651852231
v -5.119319300 3.290143555 8.623108584
v -7.287635621 -4.012783720 4.177701037
v 5.024542586 4.235522297 -8.644978704
v 2.063444496 5.605163867 -8.644978704
v -2.834189457 8.868000871 -8.644978704
v -3.466895162 8.839128101 -8.644978704
v -5.119912895 3.288528908 -8.644978704
v -5.115097990 3.286986850 -8.644978704
v -5.115091349 3.287009189 -8.644978704
v -5.115035218 3.286966686 -8.644978704
v 3.745150337 -3.418181285 -8.644978704
v 6.158387693 -0.323475997 -8.644978704
v 6.252841179 -0.202350033 -8.644978704
v 7.940397818 1.961751415 -8.644978704
v 5.635455894 3.759134829 -8.644978704
v -0.715132641 -9.137992177 -8.644978704
v -7.283140713 -4.016288829 -8.644978704
v -7.271706295 -4.025205337 -8.644978704
v -7.969488115 9.233413334 -8.644978704
v -7.704423053 4.084052422 -8.644978704
v -7.657757054 3.177484354 -8.644978704
v -5.119303674 3.290196931 -8.644978704
v -5.119174290 3.290099082 -8.644978704
v -5.114791178 3.288752975 -8.644978704
v -5.114570858 3.288762635 -8.644978704
v -7.242890049 8.666815408 -8.644978704
v -5.119319300 3.290143555 -8.644978704
v -5.119804569 3.288494145 -8.644978704
v -7.287635621 -4.012783720 -8.644978704
g roof
f 1 2 3
g roof
f 3 4 5
g roof
f 3 5 6
g roof
f 7 8 9
g roof
f 7 9 10
g roof
f 10 11 12
g roof
f 10 12 13
g roof
f 14 15 16 17
g roof
f 14 17 18
g roof
f 14 18 19
g roof
f 14 19 1
g roof
f 14 1 3
g roof
f 14 3 6
g roof
f 14 6 20
g roof
f 14 20 7
g roof
f 14 7 10
g roof
f 14 10 13
g roof
f 21 22 16
g roof
f 21 16 15
g roof
f 21 15 13
g roof
f 21 13 23
g roof
f 21 23 24
g roof
f 25 26 27
g roof
f 25 27 28
g roof
f 28 11 29
g roof
f 29 9 8
g roof
f 31 32 25
g roof
f 25 28 29
g roof
f 25 29 8
g roof
f 25 8 7
g roof
f 25 7 30
g roof
f 25 30 31
g roof
f 33 11 10
g roof
f 33 10 34
g roof
f 35 24 23
g roof
f 35 23 13
g roof
f 35 13 12
g roof
f 35 12 11
g roof
f 35 11 28
g facade_completed
f 3 2 36 37
g facade_completed
f 4 3 37 38
g facade_completed
f 5 4 38 39
g roof_step_or_fixture_side
f 32 31 6 5
g roof_step_or_fixture_side
f 31 30 20 6
g roof_step_or_fixture_side
f 30 7 20
g roof_step_or_fixture_side
f 34 10 9
g facade_completed
f 14 13 41 42
g facade_completed
f 15 14 42 43
g facade_completed
f 17 16 44 45
g facade_completed
f 18 17 45 46
g facade_completed
f 19 18 46 47
g facade_completed
f 1 19 47 48
g facade_completed
f 2 1 48 36
g facade_completed
f 16 22 49 44
g facade_completed
f 13 15 43 41
g facade_completed
f 21 24 50 51
g facade_completed
f 22 21 51 49
g facade_completed
f 27 26 52 53
g facade_completed
f 28 27 53 54
g roof_step_or_fixture_side
f 11 33 29
g roof_step_or_fixture_side
f 33 34 9 29
g facade_completed
f 25 32 5 39 59
g facade_completed
f 26 25 59 52
g facade_completed
f 35 28 54 62
g facade_completed
f 24 35 62 50
g ground_assumed
f 54 50 62
g ground_assumed
f 54 51 50
g ground_assumed
f 54 49 51
g ground_assumed
f 54 44 49
g ground_assumed
f 54 45 44
g ground_assumed
f 54 46 45
g ground_assumed
f 54 47 46
g ground_assumed
f 54 40 57 58 48 47
g ground_assumed
f 54 36 48 58 57 40
g ground_assumed
f 54 37 36
g ground_assumed
f 54 38 37
g ground_assumed
f 54 39 38
g ground_assumed
f 54 59 39
g ground_assumed
f 54 53 52 59
g ground_assumed
f 54 53 52
