v 0.30757164511638641 0.2070765645610613 0.23836284349195164
v 0.27407116773030349 0.23320008714562301 0.23799433431373809
v 0.11169428331314757 0.30830672804208242 0.26182791313132309
v -0.15687586131985892 0.4872299825130369 0.27404556128389612
v -0.19157136277127582 0.48564669730502158 0.28790690616676567
v -0.28192447954350547 0.18128289801737066 0.47332423559535958
v -0.28217691618155383 0.18135618492554517 0.47338291038412167
v -0.28218400876193861 0.18136155239779381 0.47338291356465095
v -0.28218486936930337 0.18135862740755318 0.47338469257727539
v -0.28221083773316497 0.18127036826727574 0.47343837223506613
v -0.28221742016761403 0.18127008300669772 0.47344099452665422
v -0.28221148206453589 0.18126817841800186 0.47343970410913749
v -0.28195338660678571 0.18118552161561238 0.4733835569637978
v -0.28195302249101523 0.18118674825803258 0.47338280970391761
v -0.28194994439667354 0.18118441588814307 0.47338280975875435
v 0.20391350289587779 -0.18650385515018461 0.47316424570313281
v 0.3362475057949087 -0.016800391238681021 0.33889892817518813
v 0.34142702444402556 -0.01015824158387354 0.33364381843407742
v 0.43396708255412592 0.10851396717395782 0.23975320815552262
v -0.28193656023576236 0.18128236944629961 0.473329050697404
v -0.40021469603678289 -0.21979105852345671 0.22959251195591951
v -0.040673752093204306 -0.50015948014782641 0.22531410175128108
v -0.31383010133976191 0.073805517897350514 0.40801973277398301
v -0.40084172192837142 -0.21930210653844473 0.22959997331319529
v -0.39863450784177495 0.47619763313484964 0.28729420324060495
v -0.43847875703400996 0.50726800066229027 0.26676543002039854
v -0.42394345815263135 0.22489397585344312 0.44175784214700453
v -0.42138445372405164 0.17518076451353015 0.4725660397941252
v -0.28970989914217615 0.18366963231067013 0.47170580647057653
v -0.28193656204537382 0.18128237010434017 0.47344006438633807
v -0.28192448042089285 0.18128289982698217 0.47344013945779739
v -0.19157136277127582 0.48564669730502158 0.28835166771288812
v -0.28970989914217615 0.18366963231067013 0.47507194912426853
v -0.28218486936930337 0.18135862493990113 0.47349574201974592
v -0.40108820790573452 -0.21910989788420102 0.22972420676257665
v 0.27407116773030349 0.23320008714562301 -0.47342939468483891
v 0.11169428331314757 0.30830672804208242 -0.47342939468483891
v -0.15687586131985892 0.4872299825130369 -0.47342939468483891
v -0.19157136211323528 0.48564669472769606 -0.47342939468483891
v -0.28221742016761403 0.18127008300669772 -0.47342939468483891
v -0.28195338660678571 0.18118552161561238 -0.47342939468483891
v -0.28195302243617854 0.18118674661293119 -0.47342939468483891
v -0.28194994439667354 0.18118441588814307 -0.47342939468483891
v 0.20391350289587779 -0.18650385515018461 -0.47342939468483891
v 0.3362475057949087 -0.016800391238681021 -0.47342939468483891
v 0.34142702444402556 -0.01015824158387354 -0.47342939468483891
v 0.43396708255412592 0.10851396717395782 -0.47342939468483891
v 0.30757164511638641 0.2070765645610613 -0.47342939468483891
v -0.040673752093204306 -0.50015948014782641 -0.47342939468483891
v -0.40084172192837142 -0.21930210653844473 -0.47342939468483891
v -0.40021469603678289 -0.21979105852345671 -0.47342939468483891
v -0.43847875703400996 0.50726800066229027 -0.47342939468483891
v -0.42394346045577325 0.22489397716952422 -0.47342939468483891
v -0.42138445048868561 0.175180764732877 -0.47342939468483891
v -0.28218401249083508 0.1813615519042634 -0.47342939468483891
v -0.28217691749763496 0.18135618618678953 -0.47342939468483891
v -0.28193656204537382 0.18128237010434017 -0.47342939468483891
v -0.28192448042089285 0.18128289982698217 -0.47342939468483891
v -0.39863450784177495 0.47619763313484964 -0.47342939468483891
v -0.28218486936930337 0.18135862493990113 -0.47342939468483891
v -0.28221147992590412 0.18126817671806375 -0.47342939468483891
v -0.40108820790573452 -0.21910989788420102 -0.47342939468483891
l 1 2
l 2 3
l 3 4
l 4 5
l 5 6
l 7 8
l 8 9
l 9 10
l 11 12
l 12 13
l 14 15
l 15 16
l 16 17
l 17 18
l 18 19
l 1 19
l 6 20
l 7 20
l 13 14
l 21 22
l 16 22
l 15 21
l 13 15
l 13 21
l 13 23
l 23 24
l 21 24
l 25 26
l 26 27
l 27 28
l 11 28
l 11 29
l 9 29
l 31 32
l 25 32
l 8 25
l 7 25
l 7 30
l 30 31
l 11 33
l 10 33
l 10 34
l 33 34
l 24 35
l 28 35
l 2 36
l 36 37
l 37 38
l 4 38
l 38 39
l 6 31
l 5 32
l 20 30
l 9 34
l 13 41
l 41 42
l 14 42
l 42 43
l 15 43
l 44 45
l 45 46
l 46 47
l 19 47
l 47 48
l 36 48
l 22 49
l 44 49
l 41 43
l 50 51
l 49 51
l 26 52
l 52 53
l 53 54
l 29 33
l 39 59
l 25 59
l 52 59
l 54 62
l 35 62
l 50 62
l 52 54
