# Source coordinates; no display transform
v 2680953.5 1250330 524.172244979
v 2680953.75 1250330.875 524.177359135
v 2680954 1250331.875 524.183230717
v 2680955.25 1250337.5 524.216375805
v 2680955.25 1250338.25 524.2209204
v 2680951.5 1250340.125 524.235099974
v 2680949.75 1250340.75 524.240202246
v 2680949.25 1250340.875 524.241335422
v 2680947.25 1250337.125 524.22011544
v 2680946.25 1250335 524.20799058
v 2680945.25 1250332.75 524.195108289
v 2680945 1250331.75 524.189236707
v 2680947.25 1250331.125 524.18375869
v 2680948.25 1250330.875 524.181492334
v 2680953 1250329.875 524.171863293
v 2680953.5 1250330 519.430490234
v 2680953.75 1250330.875 519.430490234
v 2680954 1250331.875 519.430490234
v 2680955.25 1250337.5 519.430490234
v 2680955.25 1250338.25 519.430490234
v 2680951.5 1250340.125 519.430490234
v 2680949.75 1250340.75 519.430490234
v 2680949.25 1250340.875 519.430490234
v 2680947.25 1250337.125 519.430490234
v 2680946.25 1250335 519.430490234
v 2680945.25 1250332.75 519.430490234
v 2680945 1250331.75 519.430490234
v 2680947.25 1250331.125 519.430490234
v 2680948.25 1250330.875 519.430490234
v 2680953 1250329.875 519.430490234
g roof
f 1 2 3 4 5 6 7 8 9 10 11 12 13 14 15
g wall
f 2 1 16 17
g wall
f 3 2 17 18
g wall
f 4 3 18 19
g wall
f 5 4 19 20
g wall
f 6 5 20 21
g wall
f 7 6 21 22
g wall
f 8 7 22 23
g wall
f 9 8 23 24
g wall
f 10 9 24 25
g wall
f 11 10 25 26
g wall
f 12 11 26 27
g wall
f 13 12 27 28
g wall
f 14 13 28 29
g wall
f 15 14 29 30
g wall
f 1 15 30 16
g ground_assumed
f 30 29 28 27 26 25 24 23 22 21 20 19 18 17 16
