# Source coordinates; no display transform
v 2684343 1252622.375 429.459933061
v 2684347.75 1252630.75 429.45928737
v 2684353.75 1252641.5 429.458347984
v 2684353.75 1252642.25 429.457805288
v 2684353.5 1252642.625 429.457248976
v 2684353 1252643 429.456407698
v 2684349.25 1252645.125 429.4505956
v 2684348 1252645.75 429.448718522
v 2684347.5 1252645.625 429.448239045
v 2684344.75 1252641 429.448451007
v 2684337.25 1252627.625 429.449580018
v 2684336.75 1252626.625 429.449733679
v 2684336.5 1252625.875 429.4499914
v 2684339 1252624.375 429.453926441
v 2684342.5 1252622.375 429.459363132
v 2684343 1252622.375 426.176742977
v 2684347.75 1252630.75 426.176742977
v 2684353.75 1252641.5 426.176742977
v 2684353.75 1252642.25 426.176742977
v 2684353.5 1252642.625 426.176742977
v 2684353 1252643 426.176742977
v 2684349.25 1252645.125 426.176742977
v 2684348 1252645.75 426.176742977
v 2684347.5 1252645.625 426.176742977
v 2684344.75 1252641 426.176742977
v 2684337.25 1252627.625 426.176742977
v 2684336.75 1252626.625 426.176742977
v 2684336.5 1252625.875 426.176742977
v 2684339 1252624.375 426.176742977
v 2684342.5 1252622.375 426.176742977
g roof
f 1 2 3 4 5 6 7 8 9 10 11 12 13 14 15
g wall
f 2 1 16 17
g wall
f 3 2 17 18
g wall
f 4 3 18 19
g wall
f 5 4 19 20
g wall
f 6 5 20 21
g wall
f 7 6 21 22
g wall
f 8 7 22 23
g wall
f 9 8 23 24
g wall
f 10 9 24 25
g wall
f 11 10 25 26
g wall
f 12 11 26 27
g wall
f 13 12 27 28
g wall
f 14 13 28 29
g wall
f 15 14 29 30
g wall
f 1 15 30 16
g ground_assumed
f 30 29 28 27 26 25 24 23 22 21 20 19 18 17 16
