# Source coordinates; no display transform
v 0.296232779076 -0.527866568507 0.245426123135
v 0.344144218165 0.505305221996 0.245859073224
v -0.289829729911 0.534704596055 0.250605790759
v -0.337741169 -0.498467194448 0.250172840215
v 0.296232779076 -0.527866568507 -0.245850016628
v 0.344144218165 0.505305221996 -0.245850016628
v -0.289829729911 0.534704596055 -0.245850016628
v -0.337741169 -0.498467194448 -0.245850016628
g roof
f 1 2 3 4
g wall
f 2 1 5 6
g wall
f 3 2 6 7
g wall
f 4 3 7 8
g wall
f 1 4 8 5
g ground_assumed
f 8 7 6 5
