# XYZ-only planar convex-roof baseline. Provisional base; no GT.
v -6.52147528 -8.88269909 5.49592262
v 6.07171836 -6.63391451 5.38922582
v 9.66977369 -5.50952222 5.35751562
v 10.11953061 -3.71049456 5.34933444
v 9.22001678 0.56219614 5.34568199
v 7.42098911 8.88269909 5.33894895
v 6.52147528 9.10757755 5.34558983
v 5.17220453 8.88269909 5.35698078
v 3.82293378 8.65782063 5.36837174
v 2.47366304 8.43294217 5.37976269
v -2.47366304 7.53342834 5.42172013
v -3.82293378 7.08367142 5.43368294
v -10.11953061 -1.23683152 5.50533059
v -10.11953061 -3.26073764 5.51047726
v -9.22001678 -7.98318526 5.51527341
v -8.77025986 -8.88269909 5.51395445
v -8.32050294 -9.10757755 5.51091994
v -6.52147528 -8.88269909 -4.37839763
v 6.07171836 -6.63391451 -4.37839763
v 9.66977369 -5.50952222 -4.37839763
v 10.11953061 -3.71049456 -4.37839763
v 9.22001678 0.56219614 -4.37839763
v 7.42098911 8.88269909 -4.37839763
v 6.52147528 9.10757755 -4.37839763
v 5.17220453 8.88269909 -4.37839763
v 3.82293378 8.65782063 -4.37839763
v 2.47366304 8.43294217 -4.37839763
v -2.47366304 7.53342834 -4.37839763
v -3.82293378 7.08367142 -4.37839763
v -10.11953061 -1.23683152 -4.37839763
v -10.11953061 -3.26073764 -4.37839763
v -9.22001678 -7.98318526 -4.37839763
v -8.77025986 -8.88269909 -4.37839763
v -8.32050294 -9.10757755 -4.37839763
g roof
f 1 2 3 4 5 6 7 8 9 10 11 12 13 14 15 16 17
g wall
f 2 1 18 19
g wall
f 3 2 19 20
g wall
f 4 3 20 21
g wall
f 5 4 21 22
g wall
f 6 5 22 23
g wall
f 7 6 23 24
g wall
f 8 7 24 25
g wall
f 9 8 25 26
g wall
f 10 9 26 27
g wall
f 11 10 27 28
g wall
f 12 11 28 29
g wall
f 13 12 29 30
g wall
f 14 13 30 31
g wall
f 15 14 31 32
g wall
f 16 15 32 33
g wall
f 17 16 33 34
g wall
f 1 17 34 18
g ground_assumed
f 34 33 32 31 30 29 28 27 26 25 24 23 22 21 20 19 18
