# pointcloud_to_mesh 0.5.1; candidate requires geometry validation; coordinates preserved
v 6.486331751 0.077015228 3.828487991
v 6.139968895 0.363101957 3.829926872
v 5.753843302 0.179445439 3.828980418
v 5.715949084 0.920577302 3.832740089
v 4.920203564 1.655102011 3.836437897
v 6.937300884 2.934571229 3.843006341
v 7.599036462 2.968405900 3.843202784
v 7.846164266 3.636096171 3.846600409
v 6.939649921 4.106720355 3.848954837
v 6.625821852 3.637082512 3.846559792
v 6.373943850 4.051261075 3.848652244
v 5.402313087 4.001581403 3.848363806
v 5.852014705 4.831627609 3.852592927
v 5.769863758 6.438328783 3.860743523
v 6.625041078 6.039576916 3.858751913
v 6.375050919 5.341701102 3.855200995
v 6.939384803 4.824743543 3.852598643
v 8.584877915 4.631916609 3.851681603
v 7.844387482 8.135875815 3.869435770
v 6.938075270 9.180258841 3.874701910
v 6.694719530 9.020423727 3.873881683
v 8.193654984 8.411770563 3.870848935
v 8.191117070 4.115836531 3.849047885
v 8.270123965 3.919414649 3.848054040
v 8.797361401 3.946372403 3.848210555
v 8.503827053 1.227236153 3.834400542
v 7.909115354 1.613035811 3.836336160
v 7.360361366 0.658805231 3.831473127
v 7.683198122 0.138211241 3.828843292
v 7.869653803 -0.162459934 3.827324420
v 7.901040971 -6.862698267 3.793323305
v 7.850924799 -7.758626193 3.788774787
v 8.547660791 -7.416445063 3.790537331
v 8.565346987 -7.762350159 3.788782597
v 8.797998084 -7.929215098 3.787944490
v 8.175592161 -8.204028612 3.786526601
v 9.681349354 -9.371061891 3.780660447
v 8.818364932 -2.002616081 3.818021485
v 8.235850866 -1.794413941 3.819056290
v 7.953197562 -1.185228192 3.822137211
v 7.903711278 -0.217379693 3.827046987
v 7.900821738 -0.160866311 3.827333673
v 8.161254116 -0.632683252 3.824949038
v 9.148943165 -0.904903536 3.823604502
v 9.149426930 -1.870037939 3.818706668
v 9.715929850 -7.323324631 3.791053573
v 8.938365074 5.581205331 3.856512257
v 8.700427356 10.050686246 3.879185030
v 8.194450446 10.519060334 3.881543013
v -9.895895842 9.352782551 3.874948099
v -9.485896846 1.334057374 3.834270096
v -8.557516707 2.913020719 3.842317708
v -8.500065818 2.784312239 3.841666687
v -8.508827144 2.955665502 3.842535941
v -7.294413527 3.017758709 3.842896451
v -7.273160902 2.602101680 3.840787875
v -7.767550876 2.286945250 3.839170040
v -7.045356290 2.323871202 3.839384430
v -5.941389810 3.537531713 3.845584772
v -5.960931563 3.919727656 3.847523604
v -4.363779536 3.037132391 3.843104330
v -4.913517970 5.358188856 3.854862647
v -5.929390940 5.306247071 3.854561076
v -5.244335810 6.032275549 3.858271127
v -5.832380938 6.753789192 3.861910672
v -7.640818584 6.661323419 3.861373820
v -7.703126258 7.879931557 3.867555668
v -6.136371402 7.834676493 3.867384581
v -5.244587044 8.780147570 3.872215985
v -5.283814019 9.547345383 3.876107885
v -4.460257754 8.431443246 3.870475707
v -4.915959580 8.139793035 3.868978607
v -5.266048917 7.188675431 3.864138799
v -4.945515229 6.047554304 3.858359835
v -4.838793340 5.534687165 3.855761132
v -4.348404318 2.736425204 3.841578879
v -4.956947393 2.437761234 3.840040473
v -4.881143638 0.955197900 3.832519612
v -7.362889004 1.605519717 3.835727078
v -7.704131210 2.157715088 3.838516595
v -7.993484533 2.142920395 3.838430698
v -8.019442142 2.126373322 3.838345755
v -7.702101628 -0.081202146 3.827154641
v -7.967336230 -0.527928747 3.824877682
v -7.902955379 -1.787083919 3.818490144
v -7.092550854 -1.745647776 3.818730720
v -6.448550978 -1.109633154 3.821982435
v -5.579685972 -1.065207915 3.822240366
v -6.140494559 -2.058540653 3.817178447
v -6.711447049 -1.907598564 3.817923102
v -6.757192011 -1.909937513 3.817909522
v -6.481210248 -2.070854852 3.817103218
v -7.284047881 -3.036510331 3.812172707
v -5.820471647 -3.141612131 3.811694053
v -4.865210789 -1.124802063 3.821964649
v -4.893719537 -0.567230416 3.824793141
v -4.273836246 -0.835026374 3.823457307
v -3.648355825 -0.566036237 3.824845759
v -3.654723443 -0.441498920 3.825477521
v -3.177486471 -0.417097699 3.825619193
v -3.318012002 0.522552435 3.830382465
v -4.544909311 0.459820935 3.830018249
v -4.546573546 0.492369898 3.830183366
v -6.381241820 0.818919860 3.831771949
v -4.843467881 0.952718521 3.832508438
v -4.577022114 1.087880365 3.833204317
v -4.612450993 1.780795352 3.836719389
v -3.684511910 1.828241060 3.836994857
v -3.410972449 2.260372695 3.839198059
v -3.389648335 1.843317492 3.837082390
v -3.385553683 1.843526853 3.837083605
v -3.119174543 -0.567816715 3.824856506
v -4.354069121 -2.068232174 3.817196050
v -3.848134295 -2.459407699 3.815229831
v -3.806083476 -3.281834000 3.811057764
v -2.835864463 -3.220210202 3.811406763
v -4.013865571 -4.135457076 3.806718040
v -5.492544609 -4.737649207 3.803606763
v -5.584691536 -4.989752747 3.802323946
v -5.550017857 -5.667897586 3.798883801
v -5.766360719 -5.486779027 3.799794851
v -5.823359982 -5.642722546 3.799001340
v -6.455112950 -6.106286821 3.796625232
v -6.713602659 -5.674422803 3.798807187
v -8.009210213 -5.740667472 3.798422573
v -8.030095181 -5.332201049 3.800494673
v -7.673860529 -5.313986702 3.800600424
v -7.361682492 -4.461533698 3.804938113
v -7.715069891 -4.085368575 3.806833860
v -7.931179997 -4.391923417 3.805270080
v -8.584127056 -4.425308728 3.805076247
v -9.153836615 -3.405669877 3.810229399
v -8.014828990 -1.770875431 3.818568216
v -8.729152706 -0.700955487 3.823971128
v -9.380144352 -0.734240817 3.823777875
v -8.889990992 -10.320618178 3.775147366
v -2.109448383 -9.973927700 3.777160236
v -6.710245629 -9.817356215 3.777782803
v -7.503209783 -9.857900628 3.777547404
v -7.560625575 -8.734967511 3.783243905
v -8.262725392 -9.034910482 3.781695511
v -8.837508650 -8.511377927 3.784330839
v -8.506175622 -8.043348318 3.786718377
v -8.889156941 -6.183278051 3.796143522
v -7.832037851 -6.129227344 3.796457338
v -7.814921368 -6.463990045 3.794759128
v -6.439917529 -6.393685828 3.795167311
v -6.399189287 -7.190245286 3.791126463
v -7.774193126 -7.260549503 3.790718280
v -7.725442810 -8.214004010 3.785881523
v -4.923361911 -9.861469241 3.777625741
v -5.493172261 -9.533178711 3.779270444
v -6.269620220 -9.264134615 3.780606758
v -6.348937143 -7.712861036 3.788476178
v -5.576246505 -7.673353212 3.788705558
v -5.822265599 -8.629062616 3.783846338
v -5.372858787 -8.788030721 3.783056410
v -5.176696092 -8.545388421 3.784295102
v -3.956324136 -7.894823245 3.787642205
v -4.000999339 -7.025570498 3.792051808
v -4.483339421 -7.050232641 3.791908621
v -4.509796832 -6.532780874 3.794533590
v -4.844586006 -6.379003474 3.795301462
v -4.541583469 -5.911100548 3.797687297
v -4.582004302 -5.120553372 3.801697646
v -4.010729069 -5.091343957 3.801867234
v -3.955067074 -5.005389526 3.802305516
v -3.954834283 -4.060144480 3.807102443
v -3.623804361 -4.714194204 3.803795654
v -3.132649833 -4.765380916 3.803554254
v -3.132180716 -6.266815720 3.795934808
v -2.481647314 -6.564185157 3.794450042
v -2.211450680 -6.450729560 3.795035906
v -2.786823160 -5.667698954 3.798988110
v -2.777066920 -4.891087606 3.802929613
v -2.751775172 -5.385741442 3.800420295
v -2.162590117 -5.975525022 3.797449295
v -0.941986775 -6.637660568 3.794134729
v -1.261545735 -7.157756878 3.791483404
v -1.799580944 -6.910349116 3.792718832
v -3.702498880 -8.065084162 3.786787656
v -4.270699953 -8.853126567 3.782767266
v -4.350989187 -9.562351664 3.779165097
v -2.134106943 -9.491657687 3.779606732
v -1.250061767 -9.446456283 3.779869169
v 2.071390208 -9.760160600 3.778401358
v 1.319821880 -9.388312978 3.780260308
v 1.336358292 -9.711730716 3.778619650
v 0.607610253 -9.748991746 3.778403314
v 0.278358952 -7.022547573 3.792227132
v -0.295089725 -6.597575450 3.794362337
v -0.395312595 -4.273927554 3.806150610
v -0.578539155 -3.838449838 3.808353718
v -0.344755492 -3.826496433 3.808423119
v -0.469111038 -2.486324521 3.815219558
v -0.565100689 -1.451850086 3.820465708
v 0.526545216 -1.158524162 3.821995085
v -0.015323183 -1.756574066 3.818939851
v 0.014017900 -2.330424448 3.816028779
v 0.607786385 -2.516347108 3.815107459
v 0.926598845 -3.154700221 3.811879871
v 1.747850567 -3.559692589 3.809855323
v 0.044117366 -3.780779585 3.808669660
v 1.254013304 -8.101234499 3.786789499
v 1.314498742 -9.284203500 3.780788443
v 1.501820009 -9.054624407 3.781960511
v 1.889913045 -9.034781134 3.782075720
v 1.780723978 -6.899270741 3.792908901
v 3.274326093 -6.822902571 3.793352291
v 1.829160713 -5.696328044 3.799015391
v 2.087506850 -0.871141092 3.823511850
v 1.828245522 -0.884397175 3.823434885
v 1.471794087 -0.179379070 3.826999377
v 1.322866407 0.115181945 3.828488644
v 1.258900347 0.241699167 3.829128301
v -0.303965067 0.499554057 3.830378433
v -1.571942287 0.708755773 3.831392684
v -1.895551331 0.330537745 3.829461210
v -1.852351616 -0.514358571 3.825175155
v -2.164706733 0.287537632 3.829232931
v -0.945175680 1.591011648 3.835893377
v -1.262453868 2.215024397 3.839048248
v -1.207561922 2.217831033 3.839064543
v -2.547272083 2.983519664 3.842900166
v -2.647126743 4.936468536 3.852807234
v -2.163758166 4.961183266 3.852950727
v -1.916782902 5.737607602 3.856900149
v -3.387373575 6.346107950 3.859933182
v -4.275933756 4.844075425 3.852277467
v -4.740420993 5.767040983 3.856943956
v -3.979966585 6.397415016 3.860171400
v -4.000483896 6.798690831 3.862207023
v -1.930587792 6.904525026 3.862821491
v -0.953855974 5.676798684 3.856627555
v -0.031027048 5.723983108 3.856901506
v 0.006851851 4.983150854 3.853143355
v 1.829171364 5.076326409 3.853684329
v 1.231104887 6.337232012 3.860060799
v -0.035468332 6.934936119 3.863046670
v 2.404052248 6.955733693 3.863243414
v 1.202621671 6.894304311 3.862886758
v 2.714835215 4.345698328 3.850009656
v 3.299030773 4.864005573 3.852661796
v 3.111671270 7.024356717 3.863618115
v 3.339373823 7.035999193 3.863685711
v 3.308715302 7.635615917 3.866727492
v 2.143737108 7.576050352 3.866381658
v 1.716951511 8.460572715 3.870854466
v 1.404050014 8.471447473 3.870897955
v 2.405533865 8.436641329 3.870758761
v 2.391488422 8.437129472 3.870760714
v 2.963297493 8.126518104 3.869205804
v 3.619447532 8.559429520 3.871427267
v 3.600326364 8.933399673 3.873324372
v 5.750977775 7.567537554 3.866473312
v 4.464658089 7.501767776 3.866091456
v 4.560825965 5.620924712 3.856550172
v 4.185989985 5.192727804 3.854363150
v 4.214720891 4.989427533 3.853332518
v 5.280528631 5.043922492 3.853648913
v 4.977006254 2.334088354 3.839885733
v 4.867786550 4.470197964 3.850721953
v 2.927221501 4.370976491 3.850145878
v 2.980439873 3.330136136 3.844865823
v 3.067610022 3.276192021 3.844595327
v 5.406260457 1.828948572 3.837338303
v 4.980483678 2.266077197 3.839540720
v 4.935043146 2.281376804 3.839616664
v 3.073312639 1.917735939 3.837701663
v 3.309464421 2.116053397 3.838716911
v 3.042020216 2.685840100 3.841598459
v 2.724688263 2.701858669 3.841667887
v 1.245545907 2.776524153 3.841991501
v 1.268381501 2.329907566 3.839725870
v 1.826374482 1.944798227 3.837792382
v 1.907498230 2.161823818 3.838896774
v 1.967462090 0.989055800 3.832947467
v 2.777483099 1.669301810 3.836429853
v 3.013663220 1.867643067 3.837445223
v 3.087716436 0.419316623 3.830098042
v 2.671211612 -0.118052616 3.827355436
v 4.548660515 -0.022058284 3.827912774
v 4.559051936 -0.225292799 3.826881791
v 3.622774990 -0.273164824 3.826603848
v 3.368037553 -0.613817019 3.824865587
v 2.660386955 -0.132018450 3.827284157
v 2.459360196 -4.652085548 3.804338260
v 2.419474502 -3.872004564 3.808295514
v 3.024392069 -4.691149405 3.804161143
v 3.437459792 -6.814561513 3.793400719
v 3.381269525 -5.715597085 3.798975630
v 4.840862865 -5.640967791 3.799408924
v 3.386972648 -2.061238420 3.817520938
v 2.194829938 -2.122192911 3.817167039
v 3.323230090 -0.814566941 3.823845149
v 4.881766351 -6.440954658 3.795350689
v 4.991317116 -6.619317818 3.794449630
v 4.951704284 -5.844573463 3.798379812
v 6.088219660 -5.786463208 3.798717198
v 6.085457125 -5.732433786 3.798991282
v 5.493129113 -5.024156111 3.802563497
v 4.683375025 -5.065558997 3.802323114
v 5.745103598 -3.877693749 3.808390971
v 5.797400330 -4.900508744 3.803202356
v 6.216999335 -4.737018171 3.804047723
v 6.270181963 -5.777159440 3.798771215
v 6.673455169 -5.756540001 3.798890930
v 5.036561597 -7.504205493 3.789960704
v 5.006469880 -6.915674289 3.792946250
v 4.906300731 -6.920795957 3.792916514
v 4.944246012 -7.662926515 3.789151777
v 3.561552219 -7.733623921 3.788741311
v 3.639684469 -9.261727766 3.780989429
v 3.434912326 -9.272197806 3.780928640
v 3.942722242 -9.413351406 3.780231300
v 3.569932669 -9.683539829 3.778846215
v 7.029093293 -8.262649324 3.786186252
v 7.279828771 -8.065088159 3.787198207
v 6.943244807 -7.308287997 3.791026224
v 7.077217129 -6.904820542 3.793078745
v 7.006616743 -5.524024270 3.800083354
v 7.830440586 -5.481901994 3.800327914
v 6.840000876 -0.215106290 3.827018758
v 5.749659840 0.962353191 3.832953353
v 6.648588770 9.922645160 3.878458541
v 8.112576370 9.997499134 3.878893140
v 8.978035924 1.607346803 3.836347251
v 9.409574800 -1.362992393 3.821289542
v 9.141041730 3.920287891 3.848091030
v -6.478743959 1.650726227 3.835989545
v -1.225403207 -9.928726296 3.777422673
v -0.593116546 -9.508891818 3.779576882
v -0.626522283 -8.855545282 3.782891228
v 0.527820150 -6.249700964 3.796158490
v 0.866210647 -6.761789630 3.793572399
v 0.525265264 -8.138495530 3.786573163
v 1.185220246 8.137437514 3.869194744
v 2.713012069 9.334012943 3.875324227
v 6.139509441 9.063228604 3.874078153
v 3.289551025 -4.468153148 3.805302714
v 4.625566045 -3.934935924 3.808058625
v 6.758312481 -7.416172032 3.790471822
v 6.781487297 -7.382765143 3.790642221
v -6.409459506 1.370798943 3.834571564
v -1.575047181 -9.139751048 3.781413484
v 1.342891269 9.667584964 3.876965813
v 2.151835959 9.938045346 3.878368584
v 4.915276972 2.011915938 3.838248468
v 3.256880602 -3.829187825 3.808544106
v -5.851910031 1.946119925 3.837512039
v -1.184668287 -8.347984006 3.785446128
v -6.138735234 2.135120197 3.838460453
v 2.131087380 -0.875521432 3.823491250
v -5.281296876 1.701938869 3.836294204
v -5.798620170 0.903881396 3.832224892
v 0.038323693 -0.661405923 3.824499603
v 7.593058419 10.246996224 3.880139863
v -5.242172028 0.936738447 3.832412437
v -3.695121212 -3.667970998 3.809102349
v -2.815270557 -3.622984061 3.809363541
v 5.156271451 1.595178285 3.836142622
v -5.231584306 3.957019325 3.847740118
v -5.216961552 3.671028746 3.846289323
v -5.964629856 5.995446773 3.858057301
v -4.519312683 9.586434487 3.876334835
v -1.301322892 9.792224757 3.877499480
v -1.545753577 9.044367625 3.873695126
v -0.380575644 9.103943402 3.874041020
v -1.113767895 9.801814481 3.877555158
v 5.486830993 2.975258250 3.843158594
v -8.018966528 -3.761884160 3.808464114
v -7.468584248 -3.735725661 3.808617439
v -7.493844341 -3.241690948 3.811123616
v -8.918283602 -3.314522807 3.810700757
v -8.893124619 -3.806580035 3.808204612
v 8.490107494 3.372505784 3.845286817
v 8.581730198 3.596805479 3.846428516
v 8.357833065 3.701357905 3.846950727
v 1.492686996 8.925365765 3.873204808
v 7.953197562 -1.185228192 3.725161255
v 8.235850866 -1.794413941 3.722918875
v 8.818364932 -2.002616081 3.722402361
v 9.149426930 -1.870037939 3.723092245
v 9.409574800 -1.362992393 3.725213404
v 9.148943165 -0.904903536 3.726874878
v 8.161254116 -0.632683252 3.727433963
v 7.903711278 -0.217379693 3.728929327
v 8.164598700 2.057296858 3.737979162
v 8.812752020 2.090437065 3.738442352
v 8.190555129 2.519024650 3.739802269
v 8.504855741 3.335839546 3.743165427
v 8.490107476 3.372505737 3.743301557
v 8.357833065 3.701357905 3.744522487
v 8.270123965 3.919414649 3.745332067
v 8.191117070 4.115836531 3.746061323
v 8.584877915 4.631916609 3.748286599
v 6.939384803 4.824743543 3.748196241
v 6.375050919 5.341701102 3.749932283
v 6.625041078 6.039576916 3.752796184
v 5.769863758 6.438328783 3.753919355
v 5.852014705 4.831627609 3.747664073
v 5.402313087 4.001581403 3.744179428
v 6.373943850 4.051261075 3.744873785
v 6.625821852 3.637082512 3.743379917
v 6.939649921 4.106720355 3.745382058
v 7.846164266 3.636096171 3.744003580
v 7.599036462 2.968405900 3.741259463
v 6.937300884 2.934571229 3.740786567
v 5.749659840 0.962353191 3.732445672
v 4.920203564 1.655102011 3.734734401
v 5.715949084 0.920577302 3.732264595
v 5.753843302 0.179445439 3.729379186
v 6.139968895 0.363101957 3.730297590
v 6.486331751 0.077015228 3.729354369
v 6.840000876 -0.215106290 3.728391253
v 7.869653803 -0.162459934 3.729127074
v 7.683198122 0.138211241 3.730209686
v 7.360361366 0.658805231 3.732084164
v 7.909115354 1.613035811 3.736106489
v 7.029093293 -8.262649324 3.696945838
v 8.175592161 -8.204028612 3.697765160
v 8.797998084 -7.929215098 3.699162358
v 8.565346987 -7.762350159 3.699696757
v 8.547660791 -7.416445063 3.701043450
v 7.850924799 -7.758626193 3.699343980
v 6.943244807 -7.308287997 3.700642348
v 6.781487344 -7.382765160 3.700267253
v 7.279828771 -8.065088159 3.697849120
v 4.548660515 -0.022058284 3.727969652
v 2.671211612 -0.118052616 3.726627971
v 2.660386955 -0.132018450 3.726567665
v 3.368037553 -0.613817019 3.725043128
v 3.622774990 -0.273164824 3.726509319
v 4.559051936 -0.225292799 3.727178410
v -0.555958804 1.845418318 3.732664385
v -0.490817106 0.571382585 3.727704251
v -0.303965067 0.499554057 3.727518800
v 1.258900347 0.241699167 3.727311789
v 1.322866405 0.115181989 3.726848793
v 2.054663106 0.280384061 3.727872615
v 2.642063364 -0.119542971 3.726607141
v 3.087716436 0.419316623 3.728948387
v 3.013663220 1.867643067 3.734587077
v 2.777483099 1.669301810 3.733688222
v 1.967462090 0.989055800 3.730605440
v 1.907498230 2.161823818 3.735171314
v 1.826374482 1.944798227 3.734278959
v 1.268381501 2.329907566 3.735501477
v 3.073312639 1.917735939 3.734814091
v 4.445890130 1.987916096 3.735794976
v 4.445512260 1.995306442 3.735823748
v 3.338857877 1.938722986 3.735032900
v 3.046146716 3.251388624 3.740027424
v 3.067610022 3.276192021 3.740135679
v 2.980439873 3.330136136 3.740302290
v 2.927221501 4.370976491 3.744354537
v 3.615422507 4.406164344 3.744846346
v 3.608911912 4.533498009 3.745342088
v 4.185989985 5.192727804 3.748222711
v 4.560825965 5.620924712 3.750093794
v 4.464658089 7.501767776 3.757416378
v 5.750977775 7.567537554 3.758335620
v 6.139509441 9.063228604 3.764397830
v 3.600326364 8.933399673 3.762583254
v 3.619447532 8.559429520 3.761127297
v 3.696407432 7.054254392 3.755267280
v 3.339373823 7.035999193 3.755012133
v 3.111671270 7.024356717 3.754849410
v 3.299030773 4.864005573 3.746478177
v 2.714835215 4.345698328 3.744146245
v 1.829171364 5.076326409 3.746554541
v 0.006851851 4.983150854 3.745252257
v 0.039655039 4.341588923 3.742754499
v -0.003788211 4.339367661 3.742723453
v 0.001285099 4.240144301 3.742337152
v -0.036778706 4.234546302 3.742295637
v -0.122611922 3.792151106 3.740517515
v -0.291113776 3.625564593 3.739777925
v -0.809838326 4.126879254 3.741476107
v -0.761938674 4.300603279 3.742181656
v -0.823335618 4.297464041 3.742137780
v -1.254454472 4.275420849 3.741829690
v -1.325136559 5.657815034 3.747211690
v -0.953855974 5.676798684 3.747477018
v -1.930587792 6.904525026 3.751786880
v -4.000483896 6.798690831 3.750307671
v -3.979966585 6.397415016 3.748745405
v -4.740420993 5.767040983 3.745883587
v -4.838793308 5.534687217 3.744922282
v -4.275933756 4.844075425 3.742504839
v -3.387373575 6.346107950 3.748849030
v -2.163758166 4.961183266 3.744049976
v -2.647126743 4.936468536 3.743704547
v -2.547272083 2.983519664 3.736101237
v -1.207561922 2.217831033 3.733789001
v 3.309464421 2.116053397 3.735712839
v 3.289438629 2.905260403 3.738795868
v -1.916782902 5.737607602 3.747220202
v 3.042020216 2.685840100 3.737808613
v 2.724688263 2.701858669 3.737708219
v -1.296260729 5.093064029 3.745012975
v 1.245545907 2.776524153 3.737240265
v 0.840797414 -3.231281448 3.713484311
v 0.564723420 -3.713222511 3.711453362
v 1.747850567 -3.559692589 3.712663519
v 0.926598845 -3.154700221 3.713828596
v 0.607786385 -2.516347108 3.716166704
v -0.015323183 -1.756574066 3.718824246
v 0.526545216 -1.158524162 3.721446967
v 0.038323693 -0.661405923 3.723144386
v -0.565100689 -1.451850086 3.719735915
v -0.469111038 -2.486324521 3.715730613
v 0.527271909 -2.666954940 3.715534989
v 0.014017900 -2.330424448 3.716590106
v -1.799580944 -6.910349116 3.697706323
v -1.261545735 -7.157756878 3.697013269
v -0.941986775 -6.637660568 3.699216130
v -2.751775172 -5.385741442 3.703192440
v -2.777066920 -4.891087606 3.705118249
v -2.786823160 -5.667698954 3.702069275
v -2.211450680 -6.450729560 3.699296026
v -1.911556515 -6.858858759 3.697850561
v -2.162590117 -5.975525022 3.701183734
v -5.596051595 -4.767573675 3.704152780
v -5.584691536 -4.989752747 3.703287782
v -5.492544609 -4.737649207 3.704323296
v -4.013865571 -4.135457076 3.707443981
v -3.695121212 -3.667970998 3.709440216
v -2.815270557 -3.622984061 3.710068984
v -2.835864463 -3.220210202 3.711637081
v -3.806083476 -3.281834000 3.710896636
v -3.791550838 -3.566062082 3.709790066
v -4.917879520 -3.623651489 3.708985158
v -5.766360719 -5.486779027 3.701246250
v -5.550017857 -5.667897586 3.700647598
v -5.822265599 -8.629062616 3.688901203
v -5.576246505 -7.673353212 3.692773651
v -6.348937143 -7.712861036 3.692221463
v -6.269620220 -9.264134615 3.686181974
v -5.493172261 -9.533178711 3.685526713
v -5.226604579 -9.625546087 3.685301751
v -5.267521756 -8.825291456 3.688417339
v -5.372858741 -8.788030720 3.688509217
v -6.140494559 -2.058540653 3.714490973
v -5.579685972 -1.065207915 3.718672759
v -6.448550978 -1.109633154 3.718051842
v -7.092550854 -1.745647776 3.715227799
v -7.286296126 -1.936990711 3.714378195
v -6.757192011 -1.909937513 3.714756308
v -6.711447049 -1.907598564 3.714788999
v -6.713602659 -5.674422803 3.700023680
v -6.455112950 -6.106286821 3.698463894
v -5.823359982 -5.642722546 3.700605713
v -6.712949748 -4.694310817 3.703865602
v -6.480478093 -3.982811787 3.706773891
v -6.794700112 -3.553697242 3.708294242
v -6.954949479 -3.561890824 3.708179723
v -7.461173918 -3.880656270 3.706669998
v -7.468584247 -3.735725692 3.707234248
v -7.715069891 -4.085368575 3.705737061
v -7.673860529 -5.313986702 3.700942636
v -8.030095181 -5.332201049 3.700688060
v -8.009210213 -5.740667472 3.699097800
v -7.361682492 -4.461533698 3.704444387
v -9.380144352 -0.734240817 3.718015714
v -8.729152706 -0.700955487 3.718480932
v -8.876995090 -0.479515947 3.719272848
v -9.236525027 1.229354576 3.725785953
v -8.398054598 2.122234648 3.729716791
v -8.578089562 2.113029425 3.729588133
v -9.485861102 1.333358288 3.726065385
v 8.112576370 9.997499134 3.769074335
v 6.648588770 9.922645160 3.768028126
v 6.694719530 9.020423727 3.764515557
v 6.938075270 9.180258841 3.765267176
v 7.844387482 8.135875815 3.761639723
v 8.193654984 8.411770563 3.762900704
v 1.404050014 8.471447473 3.759643239
v 1.716951511 8.460572715 3.759761517
v 1.492686996 8.925365765 3.761467969
v 2.391488422 8.437129472 3.760016492
v 2.405533865 8.436641329 3.760021801
v 2.713012069 9.334012943 3.763697196
v 2.151835959 9.938045346 3.765776154
v 1.342891269 9.667584964 3.764300096
v 2.404052248 6.955733693 3.754216566
v 1.185220246 8.137437514 3.758221547
v -0.035468332 6.934936119 3.752880591
v 1.231104887 6.337232012 3.751189168
v 1.202621671 6.894304311 3.753357988
v -1.545753577 9.044367625 3.760371965
v -0.380575644 9.103943402 3.761204636
v -1.113767895 9.801814481 3.763562944
v -1.301322892 9.792224757 3.763428911
v -4.956947393 2.437761234 3.732723006
v -4.348404318 2.736425204 3.734206557
v -4.363779536 3.037132391 3.735377284
v -5.216961552 3.671028746 3.737423139
v -5.231584306 3.957019325 3.738536571
v -5.960931563 3.919727656 3.738015358
v -5.941389810 3.537531713 3.736527375
v -7.045356290 2.323871202 3.731202702
v -7.767550876 2.286945250 3.730686600
v -7.993484533 2.142920395 3.730005909
v -7.704131210 2.157715088 3.730212689
v -7.362889004 1.605519717 3.728223813
v -6.478743959 1.650726227 3.728855649
v -6.138735234 2.135120197 3.730929090
v -5.281296876 1.701938869 3.729672134
v -5.242172028 0.936738447 3.726693021
v -4.881143638 0.955197900 3.726951023
v -4.460257754 8.431443246 3.756470879
v -4.519312683 9.586434487 3.760967544
v -5.283814019 9.547345383 3.760421209
v -5.244587044 8.780147570 3.757434319
v -6.136371402 7.834676493 3.753269933
v -7.703126258 7.879931557 3.752641651
v -7.640818584 6.661323419 3.747897310
v -5.832380938 6.753789192 3.749189673
v -5.244335810 6.032275549 3.746664059
v -4.945515229 6.047554304 3.746877606
v -5.266048917 7.188675431 3.751185447
v -4.915959580 8.139793035 3.755093413
v 7.903711278 -0.217379693 3.937072021
v 7.900821738 -0.160866311 3.937359594
v 7.869653852 -0.162459931 3.937347311
v 6.088219660 -5.786463208 3.908452732
v 6.270181963 -5.777159440 3.908524446
v 6.216999335 -4.737018171 3.913817289
v 5.797400330 -4.900508744 3.912928187
v 5.802912578 -5.008316821 3.912379597
v 5.493129147 -5.024156109 3.912257507
v 6.085457125 -5.732433786 3.908727665
v 4.906300731 -6.920795957 3.902514957
v 5.006469880 -6.915674289 3.902554435
v 4.991317118 -6.619317863 3.904062469
v 4.881766351 -6.440954658 3.904956669
v 1.829160713 -5.696328044 3.908343075
v 3.289551025 -4.468153148 3.914796213
v 3.256880602 -3.829187825 3.918047640
v 2.419474502 -3.872004564 3.917717609
v 2.427465939 -4.028300396 3.916922285
v 2.459360196 -4.652085548 3.913748104
v 1.906049109 -9.350368883 3.889734504
v 1.889913045 -9.034781134 3.891340398
v 1.501820009 -9.054624407 3.891187446
v 1.314498742 -9.284203500 3.889992624
v 1.319821880 -9.388312978 3.889462854
v 2.071390208 -9.760160600 3.887668533
v 3.569932669 -9.683539829 3.888259126
v 3.942722242 -9.413351406 3.889685645
v 3.434912326 -9.272197806 3.890337047
v 2.054663106 0.280384061 3.938827006
v 1.322866405 0.115181989 3.937887478
v 1.471794087 -0.179379070 3.936406463
v 1.828245522 -0.884397175 3.932861721
v 2.087506850 -0.871141092 3.932963899
v 2.660386955 -0.132018450 3.936806559
v 2.671211612 -0.118052616 3.936879167
v 2.642063394 -0.119542970 3.936867679
v 0.840797414 -3.231281448 3.920771474
v 0.527271909 -2.666954940 3.923605069
v -0.469111038 -2.486324521 3.924392357
v -0.344755492 -3.826496433 3.917580241
v -0.578539155 -3.838449838 3.917488104
v -0.395312595 -4.273927554 3.915293642
v 0.044117366 -3.780779585 3.917865133
v 0.564723420 -3.713222511 3.918278908
v 0.278358952 -7.022547573 3.901378282
v 0.866210647 -6.761789630 3.902785477
v 0.527820150 -6.249700964 3.905349577
v -0.295089725 -6.597575450 3.903467087
v -0.593116546 -9.508891818 3.888592922
v -0.626522283 -8.855545282 3.891917529
v -1.184668287 -8.347984006 3.894429204
v -1.575047181 -9.139751048 3.890342678
v -1.915373315 -0.352565605 3.935071542
v -1.852351616 -0.514358571 3.934255559
v -1.860766880 -0.349773568 3.935093063
v -1.895551331 0.330537745 3.938554882
v -1.571942287 0.708755773 3.940525287
v -0.303965067 0.499554057 3.939628697
v -0.490817106 0.571382585 3.939969733
v -0.555958804 1.845418318 3.946452768
v -1.207561922 2.217831033 3.948263321
v -1.262453868 2.215024397 3.948241688
v -0.945175680 1.591011648 3.945104469
v -2.164706733 0.287537632 3.938299825
v -4.273836246 -0.835026374 3.932298158
v -4.893719537 -0.567230416 3.933579883
v -4.865210789 -1.124802063 3.930742635
v -3.119174543 -0.567816715 3.933813943
v -3.177486471 -0.417097699 3.934574129
v -3.654723443 -0.441498920 3.934386044
v -3.648355825 -0.566036237 3.933752326
v -4.923361911 -9.861469241 3.886217952
v -4.350989187 -9.562351664 3.887818538
v -4.270699953 -8.853126567 3.891443057
v -3.702498880 -8.065084162 3.895534359
v -1.799580944 -6.910349116 3.901672404
v -1.911556515 -6.858858759 3.901919811
v -2.211450680 -6.450729560 3.903959337
v -2.481647314 -6.564185157 3.903345140
v -3.132180716 -6.266815720 3.904773460
v -3.623804361 -4.714194204 3.912619034
v -3.954834283 -4.060144480 3.915907467
v -3.955067074 -5.005389526 3.911091023
v -4.010729069 -5.091343957 3.910645615
v -3.472453703 -5.063821832 3.910857755
v -3.373788822 -6.993501101 3.901038425
v -4.000999339 -7.025570498 3.900791234
v -3.956324136 -7.894823245 3.896368002
v -5.176696092 -8.545388421 3.892890085
v -5.372858787 -8.788030721 3.891627519
v -5.267521756 -8.825291456 3.891451731
v -5.226604579 -9.625546087 3.887379570
v -5.493172261 -9.533178711 3.887814611
v -3.132649833 -4.765380916 3.912423826
v -4.844586006 -6.379003474 3.903973071
v -4.509796832 -6.532780874 3.903234234
v -4.541583469 -5.911100548 3.906397705
v -6.480478093 -3.982811787 3.915964129
v -6.712949748 -4.694310817 3.912307694
v -5.766360719 -5.486779027 3.908396190
v -5.584691536 -4.989752747 3.910953011
v -5.596051595 -4.767573675 3.912083587
v -4.917879520 -3.623651489 3.918002933
v -3.791550838 -3.566062082 3.918446832
v -3.806083476 -3.281834000 3.919893149
v -3.848134295 -2.459407699 3.924078133
v -4.354069121 -2.068232174 3.926003749
v -5.820471647 -3.141612131 3.920338552
v -7.284047881 -3.036510331 3.920678582
v -6.481210248 -2.070854852 3.925706238
v -6.757192011 -1.909937513 3.926489312
v -7.286296126 -1.936990711 3.926280786
v -7.092550854 -1.745647776 3.927281638
v -7.902955379 -1.787083919 3.926962248
v -7.967336230 -0.527928747 3.933369562
v -7.702101628 -0.081202146 3.935681248
v -8.019442142 2.126373322 3.946887363
v -7.273160902 2.602101680 3.949411084
v -7.294413527 3.017758709 3.951526189
v -8.508827144 2.955665502 3.951047575
v -8.500065818 2.784312239 3.950175630
v -8.557516672 2.913020710 3.950823778
v -9.485896846 1.334057374 3.942654295
v -9.485861102 1.333358288 3.942650738
v -8.578089562 2.113029425 3.946744745
v -8.398054641 2.122234646 3.946815699
v -9.236525027 1.229354576 3.942154103
v -8.876995090 -0.479515947 3.933494731
v -8.729152706 -0.700955487 3.932386155
v -8.014828990 -1.770875431 3.927029893
v -8.584127056 -4.425308728 3.913428415
v -7.931179997 -4.391923417 3.913685749
v -7.715069891 -4.085368575 3.915276640
v -8.018966528 -3.761884160 3.916884332
v -8.893124619 -3.806580035 3.916539816
v -7.468584248 -3.735725661 3.917091141
v -7.461173918 -3.880656270 3.916353650
v -6.954949518 -3.561890826 3.918045513
v -6.794700112 -3.553697242 3.918108669
v -9.153836615 -3.405669877 3.918547792
v -8.918283602 -3.314522807 3.919043689
v -7.493844341 -3.241690948 3.919605077
v -7.960498829 -0.661654062 3.932689090
v -7.725442810 -8.214004010 3.894238158
v -7.774193126 -7.260549503 3.899089889
v -7.964344732 -7.270271992 3.899014948
v -8.005072974 -6.473712534 3.903068306
v -7.814921368 -6.463990045 3.903143247
v -7.832037851 -6.129227344 3.904846714
v -8.889156941 -6.183278051 3.904430092
v -8.506175622 -8.043348318 3.895003428
v -8.837508650 -8.511377927 3.892574364
v -8.262725392 -9.034910482 3.889983531
v -7.560625575 -8.734967511 3.891605652
v -7.503209783 -9.857900628 3.885891515
v -6.710245629 -9.817356215 3.886204031
v 8.812752020 2.090437065 3.948952729
v 8.164598700 2.057296858 3.948697284
v 7.909115354 1.613035811 3.946399463
v 8.503827053 1.227236153 3.944513098
v 8.978035924 1.607346803 3.946513264
v 8.797361401 3.946372403 3.958407427
v 8.270123965 3.919414649 3.958199637
v 8.357833065 3.701357905 3.957100264
v 8.581730198 3.596805479 3.956597435
v 8.490107494 3.372505784 3.955442297
v 8.504855741 3.335839546 3.955257437
v 8.190555129 2.519024650 3.951053445
v 4.935043146 2.281376804 3.949407654
v 4.980483678 2.266077197 3.949335766
v 4.977006254 2.334088354 3.949681846
v 4.867786550 4.470197964 3.960551614
v 5.486830993 2.975258250 3.953016974
v 5.280528631 5.043922492 3.963530111
v 4.214720891 4.989427533 3.963110065
v 4.185989989 5.192727756 3.964142125
v 3.608911912 4.533498009 3.960705991
v 3.615422507 4.406164344 3.960058043
v 5.406260457 1.828948572 3.947165292
v 3.067610022 3.276192021 3.954227191
v 3.046146716 3.251388624 3.954097941
v 3.289438629 2.905260403 3.952366774
v 3.338857877 1.938722986 3.947448470
v 4.445512260 1.995306442 3.947884615
v 4.445890130 1.987916096 3.947847009
v 4.915276972 2.011915938 3.948031999
v 5.156271451 1.595178285 3.945940742
v 3.308715302 7.635615917 3.976472457
v 3.339373823 7.035999193 3.973421259
v 3.696407432 7.054254392 3.973561970
v 3.619447532 8.559429520 3.981221176
v 2.963297493 8.126518104 3.978927664
v 2.391488422 8.437129472 3.980433974
v 1.716951511 8.460572715 3.980463321
v 2.143737108 7.576050352 3.976013326
v -0.761938674 4.300603279 3.958935430
v -0.809838326 4.126879254 3.958043836
v -0.291113776 3.625564593 3.955558724
v -0.122611922 3.792151106 3.956430059
v -0.036778706 4.234546302 3.958695711
v 0.001285099 4.240144301 3.958729320
v -0.003788211 4.339367661 3.959234226
v -3.410972449 2.260372695 3.948185753
v -3.684511910 1.828241060 3.945947324
v -3.389648335 1.843317492 3.946063533
v -4.913517970 5.358188856 3.963769688
v -4.838793340 5.534687165 3.964679001
v -5.244335810 6.032275549 3.967160246
v -5.964629856 5.995446773 3.966876370
v -5.929390940 5.306247071 3.963369321
v -4.546573546 0.492369898 3.939025355
v -4.577022114 1.087880365 3.942055659
v -4.843467881 0.952718521 3.941331361
v -5.798620170 0.903881396 3.940954925
v -5.851910031 1.946119925 3.946258441
v -6.409459506 1.370798943 3.943252465
v -6.381241820 0.818919860 3.940444183
v -7.774193126 -7.260549503 4.096001018
v -6.399189287 -7.190245286 4.096001018
v -6.439917529 -6.393685828 4.096001018
v -7.814921368 -6.463990045 4.096001018
v -8.005072974 -6.473712534 4.096001018
v -7.964344732 -7.270271992 4.096001018
v -3.536703147 0.511370714 4.038657789
v -3.318012002 0.522552435 4.038657789
v -3.385553683 1.843526853 4.038657789
v -3.389648335 1.843317492 4.038657789
v -3.684511910 1.828241060 4.038657789
v -4.612450993 1.780795352 4.038657789
v -4.577022114 1.087880365 4.038657789
v -4.546573546 0.492369898 4.038657789
v -4.544909311 0.459820935 4.038657789
v -4.404140614 0.467018466 4.038657789
v -4.010729069 -5.091343957 4.056857008
v -4.582004302 -5.120553372 4.056857008
v -4.541583469 -5.911100548 4.056857008
v -4.509796832 -6.532780874 4.056857008
v -4.483339421 -7.050232641 4.056857008
v -4.000999339 -7.025570498 4.056857008
v -3.373788822 -6.993501101 4.056857008
v -3.472453703 -5.063821832 4.056857008
v -2.134106943 -9.491657687 4.022027467
v -2.109448383 -9.973927700 4.022027467
v -1.225403207 -9.928726296 4.022027467
v -1.250061767 -9.446456283 4.022027467
v -0.003788211 4.339367661 4.102616539
v 0.039655039 4.341588923 4.102616539
v 0.006851851 4.983150854 4.102616539
v -0.031027048 5.723983108 4.102616539
v -0.953855974 5.676798684 4.102616539
v -1.325136559 5.657815034 4.102616539
v -1.296260729 5.093064029 4.102616539
v -1.254454472 4.275420849 4.102616539
v -0.823335618 4.297464041 4.102616539
v -0.761938674 4.300603279 4.102616539
v 0.607610253 -9.748991746 4.056530154
v 1.336358292 -9.711730716 4.056530154
v 1.319821880 -9.388312978 4.056530154
v 1.314498742 -9.284203500 4.056530154
v 1.254013304 -8.101234499 4.056530154
v 0.525265264 -8.138495530 4.056530154
v 3.460052925 -7.256436075 4.108552204
v 3.437459792 -6.814561513 4.108552204
v 3.274326093 -6.822902571 4.108552204
v 1.780723978 -6.899270741 4.108552204
v 1.889913045 -9.034781134 4.108552204
v 1.906049109 -9.350368883 4.108552204
v 3.434912326 -9.272197806 4.108552204
v 3.639684469 -9.261727766 4.108552204
v 3.561552219 -7.733623921 4.108552204
v 3.484652672 -7.737555810 4.108552204
v 2.131087380 -0.875521432 4.104721478
v 2.194829938 -2.122192911 4.104721478
v 3.386972648 -2.061238420 4.104721478
v 3.323230090 -0.814566941 4.104721478
v 3.460052925 -7.256436075 4.038095600
v 3.484652672 -7.737555810 4.038095600
v 3.561552219 -7.733623921 4.038095600
v 4.944246012 -7.662926515 4.038095600
v 4.906300731 -6.920795957 4.038095600
v 4.881766351 -6.440954658 4.038095600
v 4.840862865 -5.640967791 4.038095600
v 3.381269525 -5.715597085 4.038095600
v 3.419133105 -6.456129731 4.038095600
v 3.437459792 -6.814561513 4.038095600
v 6.702761689 -7.419012355 4.034186429
v 6.758312481 -7.416172032 4.034186429
v 6.757176692 -7.393958349 4.034186429
v 6.754731276 -7.346131129 4.034186429
v 6.715077988 -6.570595529 4.034186429
v 6.673455169 -5.756540001 4.034186429
v 6.270181963 -5.777159440 4.034186429
v 6.088219660 -5.786463208 4.034186429
v 4.951704284 -5.844573463 4.034186429
v 4.991317118 -6.619317863 4.034186429
v 5.006469880 -6.915674289 4.034186429
v 5.036561597 -7.504205493 4.034186429
v 5.493129113 -5.024156111 4.044750343
v 5.802912578 -5.008316821 4.044750343
v 5.797400330 -4.900508744 4.044750343
v 5.745103598 -3.877693749 4.044750343
v 4.625566045 -3.934935924 4.044750343
v 4.683375025 -5.065558997 4.044750343
v 7.901040971 -6.862698267 4.139799427
v 7.830440586 -5.481901994 4.139799427
v 7.006616743 -5.524024270 4.139799427
v 7.068733442 -6.738897324 4.139799427
v 7.077217129 -6.904820542 4.139799427
v 7.384388070 -6.889114831 4.139799427
v 6.757176692 -7.393958349 3.790584509
v 6.702761647 -7.419012357 3.790455331
v 3.434912362 -9.272197804 -4.018479666
v 3.569932669 -9.683539829 -4.018479666
v 9.681349354 -9.371061891 -4.018479666
v 9.715929850 -7.323324631 -4.018479666
v 9.330114524 0.222418401 3.829332195
v 9.330114524 0.222418401 -4.018479666
v 9.141041730 3.920287891 -4.018479666
v 8.938365074 5.581205331 -4.018479666
v 8.700427356 10.050686246 -4.018479666
v 8.194450446 10.519060334 -4.018479666
v 7.593058419 10.246996224 -4.018479666
v 5.167826488 10.122993638 3.879419909
v 5.167826488 10.122993638 -4.018479666
v 2.709837348 9.997316170 3.878690232
v 2.709837348 9.997316170 -4.018479666
v 0.886419270 9.904084445 3.878148932
v 0.886419270 9.904084445 -4.018479666
v -1.113767895 9.801814481 -4.018479666
v -3.392091731 9.685323335 3.876878815
v -1.301322892 9.792224757 -4.018479666
v -3.392091731 9.685323335 -4.018479666
v -7.267029917 9.487196983 3.875728503
v -7.267029917 9.487196983 -4.018479666
v -9.895895842 9.352782551 -4.018479666
v -9.485896846 1.334057374 -4.018479666
v -7.767550890 2.286945250 3.947739191
v -7.993484529 2.142920395 3.946975145
v -7.960498829 -0.661654062 3.824199310
v -6.757191992 -1.909937512 -4.018479666
v -9.380144352 -0.734240817 -4.018479666
v -8.889990992 -10.320618178 -4.018479666
v -2.109448383 -9.973927700 -4.018479666
v -1.225403207 -9.928726296 -4.018479666
v 2.071390208 -9.760160600 -4.018479666
v 3.419133105 -6.456129731 3.795218999
v 4.991317116 -6.619317818 -4.018479666
v 6.715077987 -6.570595504 3.794761327
v 6.754731276 -7.346131126 3.790827131
v -1.915373348 -0.352565607 3.825993864
v 3.615422507 4.406164344 3.850350177
v 4.445890130 1.987916096 3.838109126
v 1.322866407 0.115181945 -4.018479666
v -1.860766880 -0.349773568 3.826010074
v -5.244335773 6.032275551 -4.018479666
v 7.384388073 -6.889114831 3.793169931
v 7.068733440 -6.738897287 3.793920453
v 3.024392069 -4.691149409 3.913624535
v 2.427465939 -4.028300396 3.807502645
v 0.564723443 -3.713222486 3.809031960
v -4.404140597 0.467018467 3.830060037
v -3.536703126 0.511370715 3.830317545
v 6.781487344 -7.382765160 -4.018479666
v -4.838793308 5.534687217 -4.018479666
v -1.799580958 -6.910349069 -4.018479666
v -5.372858741 -8.788030720 -4.018479666
v -6.954949479 -3.561890824 -4.018479666
v -7.468584247 -3.735725692 -4.018479666
v -9.485861102 1.333358288 -4.018479666
v 5.493129147 -5.024156109 -4.018479666
v 2.642063394 -0.119542970 -4.018479666
v -8.557516672 2.913020710 -4.018479666
v -8.398054641 2.122234646 -4.018479666
v 4.185989989 5.192727756 -4.018479666
v 6.757176692 -7.393958349 -4.018479666
g roof
f 1 2 3
g roof
f 3 4 5
g roof
f 6 7 8
g roof
f 6 8 9
g roof
f 6 9 10
g roof
f 6 10 11
g roof
f 6 11 12
g roof
f 12 13 14
g roof
f 15 16 17
g roof
f 18 19 20
g roof
f 18 20 21
g roof
f 22 19 18
g roof
f 18 23 24
g roof
f 18 24 25
g roof
f 26 27 28
g roof
f 26 28 29
g roof
f 26 29 30
g roof
f 31 32 33
g roof
f 33 34 35
g roof
f 35 36 37
g roof
f 35 37 38
g roof
f 35 38 39
g roof
f 35 39 40
g roof
f 40 41 30
g roof
f 42 41 43
g roof
f 42 43 44
g roof
f 45 38 37
g roof
f 45 37 46
g roof
f 47 48 49
g roof
f 50 51 52
g roof
f 50 52 53
g roof
f 50 53 54
g roof
f 50 54 55
g roof
f 56 57 58
g roof
f 56 58 59
g roof
f 56 59 60
g roof
f 61 62 63
g roof
f 64 65 66
g roof
f 67 68 69
g roof
f 67 69 70
g roof
f 71 72 73
g roof
f 71 73 74
g roof
f 75 62 61
g roof
f 76 77 78
g roof
f 79 80 81
g roof
f 79 81 82
g roof
f 79 82 83
g roof
f 83 84 963 85
g roof
f 83 85 86
g roof
f 83 86 87
g roof
f 83 87 88
g roof
f 89 90 91
g roof
f 89 91 92
g roof
f 89 92 93
g roof
f 89 93 94
g roof
f 89 94 95
g roof
f 89 95 96
g roof
f 96 97 98
g roof
f 96 98 99
g roof
f 99 100 101
g roof
f 99 101 986 985 102
g roof
f 102 103 104
g roof
f 105 106 107
g roof
f 107 108 109
g roof
f 109 110 111
g roof
f 111 101 100
g roof
f 111 100 112
g roof
f 112 95 94
g roof
f 112 94 113
g roof
f 112 113 114
g roof
f 112 114 115
g roof
f 112 115 116
g roof
f 117 118 119
g roof
f 117 119 120
g roof
f 120 121 122
g roof
f 120 122 123
g roof
f 123 124 125
g roof
f 126 127 128
g roof
f 126 128 129
g roof
f 126 129 130
g roof
f 126 130 131
g roof
f 132 133 134
g roof
f 132 134 135
g roof
f 132 135 136
g roof
f 136 137 138
g roof
f 136 138 139
g roof
f 136 139 140
g roof
f 136 140 141
g roof
f 136 141 142
g roof
f 142 143 144
g roof
f 145 146 147
g roof
f 148 149 150
g roof
f 148 150 138
g roof
f 138 137 151
g roof
f 138 151 152
g roof
f 138 152 153
g roof
f 138 153 154
g roof
f 155 156 157
g roof
f 155 157 158
g roof
f 155 158 159
g roof
f 155 159 160
g roof
f 155 160 161
g roof
f 155 161 162
g roof
f 155 162 163
g roof
f 163 164 165
g roof
f 165 166 167
g roof
f 165 167 168
g roof
f 168 169 170
g roof
f 170 171 172
g roof
f 172 173 174
g roof
f 175 176 177
g roof
f 175 177 178
g roof
f 179 180 181
g roof
f 179 181 182
g roof
f 179 182 183
g roof
f 183 151 137
g roof
f 183 137 184
g roof
f 183 184 185
g roof
f 186 187 188
g roof
f 186 188 189
g roof
f 189 190 191
g roof
f 191 192 193
g roof
f 193 194 195
g roof
f 193 195 196
g roof
f 197 198 199
g roof
f 197 199 200
g roof
f 197 200 201
g roof
f 197 201 202
g roof
f 202 984 203 192
g roof
f 204 205 206
g roof
f 204 206 207
g roof
f 204 207 208
g roof
f 208 209 210
g roof
f 210 211 212
g roof
f 212 213 214
g roof
f 214 215 216
g roof
f 214 216 217
g roof
f 214 217 218
g roof
f 214 218 978 219
g roof
f 220 221 222
g roof
f 222 223 224
g roof
f 225 226 227
g roof
f 225 227 228
g roof
f 225 228 229
g roof
f 230 231 232
g roof
f 233 234 235
g roof
f 235 236 237
g roof
f 235 237 238
g roof
f 235 238 239
g roof
f 240 241 238
g roof
f 240 238 237
g roof
f 240 237 242
g roof
f 240 242 243
g roof
f 240 243 244
g roof
f 244 245 246
g roof
f 244 246 247
g roof
f 247 248 249
g roof
f 250 251 252
g roof
f 250 252 253
g roof
f 250 253 254
g roof
f 255 256 257
g roof
f 257 258 259
g roof
f 257 259 260
g roof
f 261 262 975 263
g roof
f 261 263 264
g roof
f 261 264 265
g roof
f 266 267 268
g roof
f 261 267 266
g roof
f 269 270 271
g roof
f 269 271 272
g roof
f 269 272 273
g roof
f 269 273 274
g roof
f 274 275 276
g roof
f 276 277 278
g roof
f 276 278 279
g roof
f 280 281 282
g roof
f 283 284 285
g roof
f 285 286 211
g roof
f 210 287 983 288
g roof
f 289 210 209
g roof
f 289 209 290
g roof
f 289 290 970 291
g roof
f 292 293 294
g roof
f 295 293 292
g roof
f 292 296 297
g roof
f 292 297 298
g roof
f 292 298 299
g roof
f 292 299 300
g roof
f 292 300 301
g roof
f 292 301 302
g roof
f 303 304 305
g roof
f 305 306 307
g roof
f 308 309 310
g roof
f 308 310 311
g roof
f 311 312 313
g roof
f 313 314 315
g roof
f 315 316 37
g roof
f 315 37 36
g roof
f 315 36 317
g roof
f 315 317 318
g roof
f 319 32 31
g roof
f 319 31 980 320
g roof
f 319 320 981 321
g roof
f 322 31 30
g roof
f 322 30 323
g roof
f 322 323 1
g roof
f 322 1 3
g roof
f 322 3 5
g roof
f 324 6 12
g roof
f 15 17 18
g roof
f 15 18 21
g roof
f 15 21 325
g roof
f 326 22 18
g roof
f 326 18 25
g roof
f 327 26 30
g roof
f 33 35 40
g roof
f 328 45 46
g roof
f 328 46 940 329
g roof
f 328 329 47
g roof
f 328 47 49
g roof
f 55 56 60
g roof
f 330 79 83
g roof
f 88 89 96
g roof
f 96 99 102
g roof
f 96 102 104
g roof
f 109 111 112
g roof
f 109 112 116
g roof
f 125 126 131
g roof
f 125 131 132
g roof
f 132 136 142
g roof
f 132 142 144
g roof
f 132 144 145
g roof
f 148 138 154
g roof
f 148 154 155
g roof
f 148 155 163
g roof
f 148 163 165
g roof
f 148 165 168
g roof
f 170 172 174
g roof
f 170 174 175
g roof
f 331 186 189
g roof
f 331 189 332
g roof
f 333 332 189
g roof
f 333 189 191
g roof
f 333 191 193
g roof
f 333 193 196
g roof
f 202 192 191
g roof
f 202 191 334
g roof
f 202 334 335
g roof
f 190 189 336
g roof
f 190 336 204
g roof
f 190 204 208
g roof
f 208 210 212
g roof
f 220 222 224
g roof
f 224 225 229
g roof
f 233 235 239
g roof
f 233 239 337
g roof
f 240 244 247
g roof
f 240 247 249
g roof
f 338 250 254
g roof
f 338 254 339
g roof
f 255 257 260
g roof
f 269 274 276
g roof
f 269 276 279
g roof
f 269 279 280
g roof
f 269 280 282
g roof
f 340 289 291
g roof
f 340 291 292
g roof
f 295 292 302
g roof
f 295 302 341
g roof
f 295 341 303
g roof
f 342 935 308 311
g roof
f 342 311 313
g roof
f 342 313 315
g roof
f 342 315 318
g roof
f 342 318 343
g roof
f 343 319 321
g roof
f 321 322 5
g roof
f 14 15 325
g roof
f 31 33 40
g roof
f 31 40 30
g roof
f 50 55 60
g roof
f 83 88 96
g roof
f 83 96 104
g roof
f 83 104 344
g roof
f 125 132 145
g roof
f 125 145 147
g roof
f 168 170 175
g roof
f 185 331 332
g roof
f 185 332 345
g roof
f 335 190 208
g roof
f 220 224 229
g roof
f 232 233 337
g roof
f 337 240 249
g roof
f 337 249 346
g roof
f 347 338 339
g roof
f 339 255 260
g roof
f 348 976 269 282
g roof
f 348 282 283
g roof
f 349 340 292
g roof
f 349 292 294
g roof
f 307 972 973 934 342 343
g roof
f 307 343 321
g roof
f 307 321 5
g roof
f 330 83 344
g roof
f 330 344 350
g roof
f 123 125 147
g roof
f 183 185 345
g roof
f 183 345 351
g roof
f 202 335 208
g roof
f 202 208 212
g roof
f 202 212 213 214
g roof
f 219 974 220 229
g roof
f 232 337 346
g roof
f 288 349 294
g roof
f 305 307 5
g roof
f 327 30 42
g roof
f 327 42 44
g roof
f 327 44 328
g roof
f 352 330 350
g roof
f 120 123 147
g roof
f 120 147 148
g roof
f 179 183 351
g roof
f 179 351 333
g roof
f 197 202 214
g roof
f 210 288 294
g roof
f 210 294 353
g roof
f 303 305 5
g roof
f 25 327 328
g roof
f 25 328 49
g roof
f 354 352 350
g roof
f 354 350 355
g roof
f 117 120 148
g roof
f 117 148 168
g roof
f 178 179 333
g roof
f 178 333 196
g roof
f 356 197 214
g roof
f 356 214 219
g roof
f 211 210 353
g roof
f 211 353 295
g roof
f 326 25 49
g roof
f 326 49 357
g roof
f 358 354 355
g roof
f 358 355 105
g roof
f 359 117 168
g roof
f 359 168 175
g roof
f 359 175 178
g roof
f 196 356 219
g roof
f 285 211 295
g roof
f 285 295 303
g roof
f 325 326 357
g roof
f 78 358 105
g roof
f 78 105 107
g roof
f 360 359 178
g roof
f 360 178 196
g roof
f 360 196 219
g roof
f 283 285 303
g roof
f 283 303 5
g roof
f 76 78 107
g roof
f 76 107 109
g roof
f 116 360 219
g roof
f 348 283 5
g roof
f 61 76 109
g roof
f 109 116 219
g roof
f 109 219 229
g roof
f 361 348 5
g roof
f 361 5 324
g roof
f 362 363 61
g roof
f 362 61 63
g roof
f 75 61 109
g roof
f 75 109 229
g roof
f 266 361 324
g roof
f 60 362 63
g roof
f 60 63 364
g roof
f 71 74 75
g roof
f 71 75 230
g roof
f 71 230 232
g roof
f 64 75 74
g roof
f 365 71 232
g roof
f 364 64 66
g roof
f 60 364 66
g roof
f 50 60 66
g roof
f 50 66 67
g roof
f 50 67 70
g roof
f 50 70 365
g roof
f 366 954 957 50 365
g roof
f 366 365 232
g roof
f 367 366 232
g roof
f 368 367 232
g roof
f 368 232 346
g roof
f 368 346 347
g roof
f 369 368 347
g roof
f 357 947 949 951 369 347
g roof
f 325 357 347
g roof
f 325 347 339
g roof
f 325 339 260
g roof
f 14 325 260
g roof
f 12 14 260
g roof
f 12 260 370
g roof
f 324 12 370
g roof
f 266 324 370
g roof
f 265 266 268
g roof
f 261 266 370
g roof
f 261 265 268
g roof
f 371 129 372
g roof
f 371 372 373
g roof
f 371 373 374
g roof
f 371 374 375
g roof
f 376 377 378
g roof
f 248 251 379
g roof
f 380 381 382
g roof
f 380 382 383
g roof
f 380 383 384
g roof
f 380 384 385
g roof
f 380 385 386
g roof
f 380 386 387
g roof
f 388 389 390
g roof
f 390 391 392
g roof
f 390 392 393
g roof
f 390 393 394
g roof
f 390 394 395
g roof
f 395 396 397
g roof
f 398 399 400
g roof
f 398 400 401
g roof
f 398 401 402
g roof
f 398 402 403
g roof
f 398 403 404
g roof
f 398 404 405
g roof
f 398 405 406
g roof
f 407 408 409
g roof
f 409 410 411
g roof
f 409 411 412
g roof
f 409 412 413
g roof
f 409 413 414
g roof
f 409 414 415
g roof
f 409 415 416
g roof
f 409 416 417
g roof
f 409 417 418
g roof
f 409 418 419
g roof
f 409 419 388
g roof
f 409 388 390
g roof
f 397 398 406
g roof
f 407 409 390
g roof
f 407 390 395
g roof
f 395 397 406
g roof
f 395 406 407
g roof
f 420 421 422
g roof
f 420 422 423
g roof
f 420 423 424
g roof
f 420 424 425
g roof
f 425 426 427
g roof
f 428 420 425
g roof
f 428 425 427
g roof
f 429 430 431
g roof
f 431 432 433
g roof
f 431 433 434
g roof
f 431 434 429
g roof
f 435 436 437
g roof
f 435 437 438
g roof
f 438 439 440
g roof
f 440 441 430
g roof
f 440 430 442
g roof
f 440 442 443
g roof
f 440 443 444
g roof
f 440 444 445
g roof
f 445 446 447
g roof
f 445 447 448
g roof
f 449 450 451
g roof
f 449 451 452
g roof
f 453 454 455
g roof
f 456 457 458
g roof
f 456 458 459
g roof
f 456 459 460
g roof
f 461 462 463
g roof
f 461 463 464
g roof
f 461 464 465
g roof
f 461 465 466
g roof
f 467 468 469
g roof
f 470 471 472
g roof
f 470 472 473
g roof
f 470 473 474
g roof
f 470 474 475
g roof
f 470 475 476
g roof
f 470 476 477
g roof
f 470 477 478
g roof
f 479 480 481
g roof
f 479 481 482
g roof
f 483 484 485
g roof
f 483 485 486
g roof
f 487 488 489
g roof
f 487 489 490
g roof
f 487 490 491
g roof
f 492 493 494
g roof
f 492 494 495
g roof
f 492 495 435
g roof
f 492 435 438
g roof
f 492 438 440
g roof
f 492 440 445
g roof
f 492 445 448
g roof
f 496 449 452
g roof
f 496 452 497
g roof
f 496 497 453
g roof
f 496 453 455
g roof
f 460 461 466
g roof
f 460 466 467
g roof
f 460 467 469
g roof
f 460 469 470
g roof
f 478 479 482
g roof
f 486 487 491
g roof
f 486 491 498
g roof
f 499 496 455
g roof
f 456 460 470
g roof
f 456 470 478
g roof
f 483 486 498
g roof
f 483 498 492
g roof
f 500 499 455
g roof
f 500 455 456
g roof
f 500 456 478
g roof
f 501 483 492
g roof
f 502 500 478
g roof
f 482 501 492
g roof
f 482 492 448
g roof
f 448 502 478
g roof
f 448 478 482
g roof
f 503 504 505
g roof
f 503 505 506
g roof
f 503 506 507
g roof
f 508 509 510
g roof
f 508 510 511
g roof
f 508 511 512
g roof
f 513 503 507
g roof
f 513 507 514
g roof
f 514 508 512
g roof
f 514 512 513
g roof
f 515 516 517
g roof
f 518 519 520
g roof
f 518 520 521
g roof
f 518 521 522
g roof
f 518 522 515
g roof
f 515 517 523
g roof
f 515 523 518
g roof
f 524 525 526
g roof
f 524 526 527
g roof
f 524 527 528
g roof
f 528 529 530
g roof
f 528 530 531
g roof
f 528 531 532
g roof
f 528 532 533
g roof
f 528 533 524
g roof
f 525 534 535
g roof
f 536 537 538
g roof
f 536 538 539
g roof
f 536 539 540
g roof
f 536 540 541
g roof
f 536 541 542 543
g roof
f 544 545 546
g roof
f 544 546 547
g roof
f 547 548 549
g roof
f 547 549 550
g roof
f 547 550 544
g roof
f 551 552 553
g roof
f 551 553 534
g roof
f 551 534 554
g roof
f 554 555 556
g roof
f 554 556 557
g roof
f 554 557 558
g roof
f 561 562 563
g roof
f 561 563 551
g roof
f 561 551 554
g roof
f 558 559 560
g roof
f 558 560 564
g roof
f 564 561 554
g roof
f 564 554 558
g roof
f 565 566 567
g roof
f 565 567 568
g roof
f 568 569 570
g roof
f 568 570 571
g roof
f 568 571 565
g roof
f 572 573 574
g roof
f 572 574 575
g roof
f 572 575 576
g roof
f 572 576 577
g roof
f 578 579 580
g roof
f 580 581 582
g roof
f 580 582 583
g roof
f 580 583 584
g roof
f 580 584 585
g roof
f 580 585 578
g roof
f 586 587 588
g roof
f 588 589 590
g roof
f 588 590 586
g roof
f 591 592 593
g roof
f 591 593 594
g roof
f 595 596 597
g roof
f 595 597 598
g roof
f 598 599 600
g roof
f 598 600 601
g roof
f 598 601 602
g roof
f 602 603 604
g roof
f 602 604 605
g roof
f 602 605 606
g roof
f 602 606 607
g roof
f 602 607 608
g roof
f 609 610 611
g roof
f 609 611 595
g roof
f 609 595 598
g roof
f 598 602 608
g roof
f 598 608 609
g roof
f 612 613 614
g roof
f 612 614 615
g roof
f 612 615 616
g roof
f 616 617 618
g roof
f 616 618 619
g roof
f 616 619 620
g roof
f 616 620 621
g roof
f 616 621 622
g roof
f 616 622 623
g roof
f 616 623 612
g roof
f 624 625 626
g roof
f 627 628 629
g roof
f 629 630 631
g roof
f 633 627 629
g roof
f 633 629 631
g roof
f 633 631 632
g roof
f 634 635 636
g roof
f 634 636 637
g roof
f 638 982 639 640
g roof
f 640 641 642
g roof
f 640 642 643
g roof
f 640 643 638
g roof
f 644 645 646
g roof
f 644 646 647
g roof
f 644 647 648
g roof
f 644 648 649
g roof
f 644 649 650
g roof
f 644 650 651
g roof
f 644 651 652
g roof
f 653 654 655
g roof
f 653 655 656
g roof
f 653 656 657
g roof
f 653 657 658 660
g roof
f 658 659 660
g roof
f 661 662 663
g roof
f 661 663 664
g roof
f 664 665 666
g roof
f 664 666 667
g roof
f 664 667 668
g roof
f 664 668 661
g roof
f 669 670 671
g roof
f 669 671 672
g roof
f 673 674 675
g roof
f 673 675 676
g roof
f 677 678 679
g roof
f 677 679 680
g roof
f 681 682 683
g roof
f 681 683 684
g roof
f 684 685 686
g roof
f 684 686 687
g roof
f 684 687 688
g roof
f 688 677 680
g roof
f 688 680 681
g roof
f 688 681 684
g roof
f 689 690 691
g roof
f 689 691 692
g roof
f 689 692 693
g roof
f 693 694 695
g roof
f 693 695 689
g roof
f 696 697 698
g roof
f 699 700 701
g roof
f 699 701 702
g roof
f 699 702 703
g roof
f 699 703 704
g roof
f 705 706 707
g roof
f 705 707 708
g roof
f 705 708 709
g roof
f 710 711 712
g roof
f 712 713 714
g roof
f 712 714 715
g roof
f 712 715 716
g roof
f 716 717 696
g roof
f 716 696 698
g roof
f 716 698 699
g roof
f 718 705 709
g roof
f 718 709 710
g roof
f 712 716 699
g roof
f 704 718 710
g roof
f 710 712 699
g roof
f 710 699 704
g roof
f 719 720 721
g roof
f 722 723 724
g roof
f 722 724 725
g roof
f 722 725 726
g roof
f 722 726 727
g roof
f 727 728 729
g roof
f 727 729 730
g roof
f 727 730 731
g roof
f 727 731 732
g roof
f 727 732 733
g roof
f 733 734 735
g roof
f 733 735 736
g roof
f 736 737 738
g roof
f 739 740 741
g roof
f 741 962 961 742 743
g roof
f 741 743 744
g roof
f 741 744 745
g roof
f 745 746 747
g roof
f 745 747 748
g roof
f 745 748 749
g roof
f 745 749 750
g roof
f 750 751 752
g roof
f 750 752 753
g roof
f 750 753 754
g roof
f 755 756 757
g roof
f 755 757 758
g roof
f 755 758 759
g roof
f 760 761 762
g roof
f 763 722 727
g roof
f 763 727 733
g roof
f 733 736 738
g roof
f 739 741 745
g roof
f 739 745 750
g roof
f 739 750 754
g roof
f 764 755 759
g roof
f 764 759 765
g roof
f 766 760 762
g roof
f 766 762 763
g roof
f 766 763 733
g roof
f 766 733 738
g roof
f 767 739 754
g roof
f 754 764 765
g roof
f 754 765 766
g roof
f 754 766 738
g roof
f 754 738 767
g roof
f 768 769 770
g roof
f 771 772 773
g roof
f 771 773 774
g roof
f 771 774 775
g roof
f 775 776 777
g roof
f 775 777 778
g roof
f 778 779 780
g roof
f 778 780 768
g roof
f 770 771 775
g roof
f 775 778 768
g roof
f 775 768 770
g roof
f 781 782 783
g roof
f 781 783 784
g roof
f 781 784 785
g roof
f 781 785 786
g roof
f 786 787 788
g roof
f 786 788 789
g roof
f 786 789 790
g roof
f 786 790 791
g roof
f 786 791 792
g roof
f 786 792 781
g roof
f 793 794 795
g roof
f 796 795 797
g roof
f 796 797 798
g roof
f 796 798 799
g roof
f 800 801 802
g roof
f 802 796 799
g roof
f 802 799 800
g roof
f 803 804 805
g roof
f 803 805 806
g roof
f 806 807 808
g roof
f 808 809 810
g roof
f 810 811 803
g roof
f 810 803 806
g roof
f 810 806 808
g roof
f 812 813 814
g roof
f 812 814 815
g roof
f 812 815 816
g roof
f 812 816 817
g roof
f 812 817 818
g roof
f 812 818 819
g roof
f 820 821 822
g roof
f 820 822 823
g roof
f 820 823 824
g roof
f 820 824 825
g roof
f 820 825 826
g roof
f 827 828 829
g roof
f 830 831 832
g roof
f 830 832 833
g roof
f 830 833 834
g roof
f 835 836 837
g roof
f 835 837 838
g roof
f 838 839 840
g roof
f 838 840 841
g roof
f 838 841 835
g roof_fixture
f 842 843 844
g roof_fixture
f 842 844 845
g roof_fixture
f 842 845 846
g roof_fixture
f 842 846 847
g roof_fixture
f 848 849 850
g roof_fixture
f 848 850 851
g roof_fixture
f 848 851 852
g roof_fixture
f 848 852 853
g roof_fixture
f 848 853 854
g roof_fixture
f 848 854 855
g roof_fixture
f 855 856 857
g roof_fixture
f 855 857 848
g roof_fixture
f 858 859 860
g roof_fixture
f 858 860 861
g roof_fixture
f 858 861 862
g roof_fixture
f 858 862 863
g roof_fixture
f 858 863 864
g roof_fixture
f 858 864 865
g roof_fixture
f 866 867 868
g roof_fixture
f 866 868 869
g roof_fixture
f 870 871 872
g roof_fixture
f 870 872 873
g roof_fixture
f 870 873 874
g roof_fixture
f 870 874 875
g roof_fixture
f 870 875 876
g roof_fixture
f 876 877 878
g roof_fixture
f 876 878 879
g roof_fixture
f 876 879 870
g roof_fixture
f 880 881 882
g roof_fixture
f 880 882 883
g roof_fixture
f 880 883 884
g roof_fixture
f 880 884 885
g roof_fixture
f 886 887 888
g roof_fixture
f 886 888 889
g roof_fixture
f 886 889 890
g roof_fixture
f 886 890 891
g roof_fixture
f 886 891 892
g roof_fixture
f 892 893 894
g roof_fixture
f 892 894 895
g roof_fixture
f 892 895 886
g roof_fixture
f 896 897 898
g roof_fixture
f 896 898 899
g roof_fixture
f 900 901 902
g roof_fixture
f 900 902 903
g roof_fixture
f 900 903 904
g roof_fixture
f 900 904 905
g roof_fixture
f 900 905 906
g roof_fixture
f 906 907 908
g roof_fixture
f 906 908 909
g roof_fixture
f 906 909 900
g roof_fixture
f 910 911 912
g roof_fixture
f 910 912 913
g roof_fixture
f 910 913 914
g roof_fixture
f 910 914 915
g roof_fixture
f 910 915 916
g roof_fixture
f 910 916 917
g roof_fixture
f 910 917 918
g roof_fixture
f 910 918 919
g roof_fixture
f 910 919 920
g roof_fixture
f 910 920 921
g roof_fixture
f 922 923 924
g roof_fixture
f 922 924 925
g roof_fixture
f 922 925 926
g roof_fixture
f 922 926 927
g roof_fixture
f 928 929 930
g roof_fixture
f 928 930 931
g roof_fixture
f 931 932 933
g roof_fixture
f 931 933 928
g roof_step_or_fixture_side
f 912 911 342 934
g roof_step_or_fixture_side
f 911 910 935 342
g roof_step_or_fixture_side
f 910 921 308 935
g roof_step_or_fixture_side
f 921 920 635 309 308
g roof_step_or_fixture_side
f 635 634 310 309
g roof_step_or_fixture_side
f 904 903 311 310 634
g roof_step_or_fixture_side
f 903 902 312 311
g roof_step_or_fixture_side
f 894 893 313 312 902
g roof_step_or_fixture_side
f 893 892 652 314 313
g roof_step_or_fixture_side
f 652 651 315 314
g roof_step_or_fixture_side
f 651 650 316 315
g facade_completed
f 37 316 937 938
g facade_completed
f 46 37 938 939
g facade_completed
f 940 46 939 941
g facade_completed
f 329 940 941 942
g facade_completed
f 47 329 942 943
g facade_completed
f 48 47 943 944
g facade_completed
f 49 48 944 945
g facade_completed
f 357 49 945 946
g facade_completed
f 947 357 946 948
g facade_completed
f 949 947 948 950
g facade_completed
f 951 949 950 952
g facade_completed
f 369 951 952 953 593
g roof_step_or_fixture_side
f 368 369 593 592
g roof_step_or_fixture_side
f 367 368 592 591
g roof_step_or_fixture_side
f 366 367 591 594
g facade_completed
f 954 366 594 955 956
g facade_completed
f 957 954 956 958
g facade_completed
f 50 957 958 959
g facade_completed
f 51 50 959 960
g roof_step_or_fixture_side
f 747 746 52 51
g roof_step_or_fixture_side
f 746 745 53 52
g roof_step_or_fixture_side
f 745 744 54 53
g roof_step_or_fixture_side
f 744 743 55 54
g roof_step_or_fixture_side
f 743 742 56 55
g roof_step_or_fixture_side
f 742 961 57 56
g roof_step_or_fixture_side
f 58 57 603 602
g roof_step_or_fixture_side
f 59 58 602 601
g roof_step_or_fixture_side
f 60 59 601 600
g roof_step_or_fixture_side
f 362 60 600 599
g roof_step_or_fixture_side
f 363 362 599 598
g roof_step_or_fixture_side
f 61 363 598 597
g roof_step_or_fixture_side
f 76 61 597 596
g roof_step_or_fixture_side
f 77 76 596 595
g roof_step_or_fixture_side
f 78 77 595 611
g roof_step_or_fixture_side
f 358 78 611 610
g roof_step_or_fixture_side
f 354 358 610 609
g roof_step_or_fixture_side
f 352 354 609 608
g roof_step_or_fixture_side
f 330 352 608 607
g roof_step_or_fixture_side
f 79 330 607 606
g roof_step_or_fixture_side
f 80 79 606 605
g roof_step_or_fixture_side
f 81 80 605 604
g roof_step_or_fixture_side
f 962 741 82 81
g roof_step_or_fixture_side
f 741 740 83 82
g roof_step_or_fixture_side
f 740 739 84 83
g roof_step_or_fixture_side
f 739 767 963 84
g roof_step_or_fixture_side
f 767 738 85 963
g roof_step_or_fixture_side
f 738 737 86 85
g roof_step_or_fixture_side
f 87 86 547 546
g roof_step_or_fixture_side
f 88 87 546 545
g roof_step_or_fixture_side
f 89 88 545 544
g roof_step_or_fixture_side
f 90 89 544 550
g roof_step_or_fixture_side
f 91 90 550 549
g roof_step_or_fixture_side
f 735 734 92 91
g roof_step_or_fixture_side
f 734 733 93 92
g roof_step_or_fixture_side
f 733 732 94 93
g roof_step_or_fixture_side
f 732 731 113 94
g roof_step_or_fixture_side
f 731 730 114 113
g roof_step_or_fixture_side
f 730 729 115 114
g roof_step_or_fixture_side
f 116 115 531 530
g roof_step_or_fixture_side
f 360 116 530 529
g roof_step_or_fixture_side
f 359 360 529 528
g roof_step_or_fixture_side
f 117 359 528 527
g roof_step_or_fixture_side
f 118 117 527 526
g roof_step_or_fixture_side
f 119 118 526 525
g roof_step_or_fixture_side
f 120 119 525 535
g roof_step_or_fixture_side
f 121 120 535 534
g roof_step_or_fixture_side
f 122 121 534 553
g roof_step_or_fixture_side
f 123 122 553 552
g roof_step_or_fixture_side
f 124 123 552 551
g roof_step_or_fixture_side
f 125 124 551 563
g roof_step_or_fixture_side
f 126 125 563 562
g roof_step_or_fixture_side
f 127 126 562 561
g roof_step_or_fixture_side
f 128 127 561 564
g roof_step_or_fixture_side
f 129 128 564 560
g roof_step_or_fixture_side
f 757 756 130 129
g roof_step_or_fixture_side
f 756 755 131 130
g roof_step_or_fixture_side
f 755 764 132 131
g roof_step_or_fixture_side
f 764 754 133 132
g roof_step_or_fixture_side
f 754 753 134 133
g roof_step_or_fixture_side
f 135 134 566 565
g facade_completed
f 136 135 565 965 966
g facade_completed
f 137 136 966 967
g roof_step_or_fixture_side
f 867 866 184 137
g roof_step_or_fixture_side
f 866 869 185 184
g roof_step_or_fixture_side
f 869 868 331 185
g facade_completed
f 186 331 968 969
g roof_step_or_fixture_side
f 649 648 187 186
g roof_step_or_fixture_side
f 882 881 188 187 648
g roof_step_or_fixture_side
f 881 880 189 188
g roof_step_or_fixture_side
f 880 885 336 189
g roof_step_or_fixture_side
f 885 884 204 336
g roof_step_or_fixture_side
f 884 883 647 205 204
g roof_step_or_fixture_side
f 647 646 206 205
g roof_step_or_fixture_side
f 646 645 207 206
g roof_step_or_fixture_side
f 890 889 208 207 645
g roof_step_or_fixture_side
f 889 888 209 208
g roof_step_or_fixture_side
f 888 887 909 290 209
g roof_step_or_fixture_side
f 909 908 970 290
g roof_step_or_fixture_side
f 908 907 291 970
g roof_step_or_fixture_side
f 907 906 292 291
g roof_step_or_fixture_side
f 906 905 637 296 292
g roof_step_or_fixture_side
f 637 636 297 296
g roof_step_or_fixture_side
f 919 918 298 297 636
g roof_step_or_fixture_side
f 918 917 627 299 298
g roof_step_or_fixture_side
f 627 633 300 299
g roof_step_or_fixture_side
f 633 632 301 300
g roof_step_or_fixture_side
f 922 927 302 301 632
g roof_step_or_fixture_side
f 927 926 341 302
g roof_step_or_fixture_side
f 926 925 303 341
g roof_step_or_fixture_side
f 925 924 630 304 303
g roof_step_or_fixture_side
f 630 629 305 304
g roof_step_or_fixture_side
f 629 628 306 305
g roof_step_or_fixture_side
f 916 915 307 306 628
g roof_step_or_fixture_side
f 915 914 972 307
g roof_step_or_fixture_side
f 914 913 973 972
g roof_step_or_fixture_side
f 913 912 934 973
g roof_step_or_fixture_side
f 695 694 99 98
g roof_step_or_fixture_side
f 694 693 100 99
g roof_step_or_fixture_side
f 693 692 112 100
g roof_step_or_fixture_side
f 692 691 95 112
g roof_step_or_fixture_side
f 691 690 96 95
g roof_step_or_fixture_side
f 690 689 97 96
g roof_step_or_fixture_side
f 689 695 98 97
g roof_step_or_fixture_side
f 678 677 974 219
g roof_step_or_fixture_side
f 677 688 220 974
g roof_step_or_fixture_side
f 688 687 221 220
g roof_step_or_fixture_side
f 687 686 222 221
g roof_step_or_fixture_side
f 686 685 223 222
g roof_step_or_fixture_side
f 224 223 495 494
g roof_step_or_fixture_side
f 225 224 494 493
g roof_step_or_fixture_side
f 226 225 493 492
g roof_step_or_fixture_side
f 227 226 492 498
g roof_step_or_fixture_side
f 228 227 498 491
g roof_step_or_fixture_side
f 229 228 491 490
g roof_step_or_fixture_side
f 75 229 490 489
g roof_step_or_fixture_side
f 230 75 489 488
g roof_step_or_fixture_side
f 231 230 488 487
g roof_step_or_fixture_side
f 232 231 487 486
g roof_step_or_fixture_side
f 233 232 486 485
g roof_step_or_fixture_side
f 234 233 485 484
g roof_step_or_fixture_side
f 874 873 235 234
g roof_step_or_fixture_side
f 873 872 236 235
g roof_step_or_fixture_side
f 237 236 472 471
g roof_step_or_fixture_side
f 242 237 471 470
g roof_step_or_fixture_side
f 243 242 470 469
g roof_step_or_fixture_side
f 244 243 469 468
g roof_step_or_fixture_side
f 245 244 468 467
g roof_step_or_fixture_side
f 813 812 246 245
g roof_step_or_fixture_side
f 812 819 247 246
g roof_step_or_fixture_side
f 819 818 248 247
g roof_step_or_fixture_side
f 249 248 579 578
g roof_step_or_fixture_side
f 346 249 578 585
g roof_step_or_fixture_side
f 347 346 585 584
g roof_step_or_fixture_side
f 338 347 584 583
g roof_step_or_fixture_side
f 250 338 583 582
g roof_step_or_fixture_side
f 251 250 582 581
g roof_step_or_fixture_side
f 817 816 252 251
g roof_step_or_fixture_side
f 816 815 253 252
g roof_step_or_fixture_side
f 254 253 465 464
g roof_step_or_fixture_side
f 339 254 464 463
g roof_step_or_fixture_side
f 255 339 463 462
g roof_step_or_fixture_side
f 256 255 462 461
g roof_step_or_fixture_side
f 257 256 461 460
g roof_step_or_fixture_side
f 258 257 460 459
g roof_step_or_fixture_side
f 800 799 259 258
g roof_step_or_fixture_side
f 799 798 260 259
g roof_step_or_fixture_side
f 798 797 370 260
g roof_step_or_fixture_side
f 797 795 261 370
g roof_step_or_fixture_side
f 795 796 262 261
g roof_step_or_fixture_side
f 796 802 975 262
g roof_step_or_fixture_side
f 263 975 457 456
g roof_step_or_fixture_side
f 264 263 456 455
g roof_step_or_fixture_side
f 265 264 455 454
g roof_step_or_fixture_side
f 804 803 266 265
g roof_step_or_fixture_side
f 803 811 361 266
g roof_step_or_fixture_side
f 811 810 348 361
g roof_step_or_fixture_side
f 810 809 976 348
g roof_step_or_fixture_side
f 269 976 450 449
g roof_step_or_fixture_side
f 270 269 449 496
g roof_step_or_fixture_side
f 271 270 496 499
g roof_step_or_fixture_side
f 272 271 499 500
g roof_step_or_fixture_side
f 273 272 500 502
g roof_step_or_fixture_side
f 274 273 502 448
g roof_step_or_fixture_side
f 275 274 448 447
g roof_step_or_fixture_side
f 276 275 447 446
g roof_step_or_fixture_side
f 277 276 446 445
g roof_step_or_fixture_side
f 278 277 445 444
g roof_step_or_fixture_side
f 279 278 444 443
g roof_step_or_fixture_side
f 280 279 443 442
g roof_step_or_fixture_side
f 281 280 442 430
g roof_step_or_fixture_side
f 282 281 430 429
g roof_step_or_fixture_side
f 283 282 429 434
g roof_step_or_fixture_side
f 284 283 434 433
g roof_step_or_fixture_side
f 285 284 433 432
g roof_step_or_fixture_side
f 286 285 432 431
g roof_step_or_fixture_side
f 658 657 211 286
g roof_step_or_fixture_side
f 657 656 212 211
g roof_step_or_fixture_side
f 656 655 213 212
g roof_step_or_fixture_side
f 655 654 214 213
g roof_step_or_fixture_side
f 215 214 439 438
g roof_step_or_fixture_side
f 216 215 438 437
g roof_step_or_fixture_side
f 682 681 217 216
g roof_step_or_fixture_side
f 681 680 218 217
g roof_step_or_fixture_side
f 680 679 978 218
g roof_step_or_fixture_side
f 679 678 219 978
g roof_step_or_fixture_side
f 793 795 261 268
g roof_step_or_fixture_side
f 795 794 267 261
g roof_step_or_fixture_side
f 794 793 268 267
g roof_step_or_fixture_side
f 832 831 75 64
g roof_step_or_fixture_side
f 831 830 62 75
g roof_step_or_fixture_side
f 830 834 63 62
g roof_step_or_fixture_side
f 834 833 364 63
g roof_step_or_fixture_side
f 833 832 64 364
g roof_step_or_fixture_side
f 64 74 621 620
g roof_step_or_fixture_side
f 65 64 620 619
g roof_step_or_fixture_side
f 66 65 619 618
g roof_step_or_fixture_side
f 67 66 618 617
g roof_step_or_fixture_side
f 68 67 617 616
g roof_step_or_fixture_side
f 69 68 616 615
g roof_step_or_fixture_side
f 70 69 615 614
g roof_step_or_fixture_side
f 365 70 614 613
g roof_step_or_fixture_side
f 71 365 613 612
g roof_step_or_fixture_side
f 72 71 612 623
g roof_step_or_fixture_side
f 73 72 623 622
g roof_step_or_fixture_side
f 74 73 622 621
g roof_step_or_fixture_side
f 1 323 415 414
g roof_step_or_fixture_side
f 2 1 414 413
g roof_step_or_fixture_side
f 3 2 413 412
g roof_step_or_fixture_side
f 4 3 412 411
g roof_step_or_fixture_side
f 5 4 411 410
g roof_step_or_fixture_side
f 324 5 410 409
g roof_step_or_fixture_side
f 6 324 409 408
g roof_step_or_fixture_side
f 7 6 408 407
g roof_step_or_fixture_side
f 8 7 407 406
g roof_step_or_fixture_side
f 9 8 406 405
g roof_step_or_fixture_side
f 10 9 405 404
g roof_step_or_fixture_side
f 11 10 404 403
g roof_step_or_fixture_side
f 12 11 403 402
g roof_step_or_fixture_side
f 13 12 402 401
g roof_step_or_fixture_side
f 14 13 401 400
g roof_step_or_fixture_side
f 15 14 400 399
g roof_step_or_fixture_side
f 16 15 399 398
g roof_step_or_fixture_side
f 17 16 398 397
g roof_step_or_fixture_side
f 18 17 397 396
g roof_step_or_fixture_side
f 23 18 396 395
g roof_step_or_fixture_side
f 24 23 395 394
g roof_step_or_fixture_side
f 787 786 25 24
g roof_step_or_fixture_side
f 786 785 327 25
g roof_step_or_fixture_side
f 785 784 26 327
g roof_step_or_fixture_side
f 784 783 27 26
g roof_step_or_fixture_side
f 28 27 419 418
g roof_step_or_fixture_side
f 29 28 418 417
g roof_step_or_fixture_side
f 30 29 417 416
g roof_step_or_fixture_side
f 323 30 416 415
g roof_step_or_fixture_side
f 624 626 30 41
g roof_step_or_fixture_side
f 626 625 42 30
g roof_step_or_fixture_side
f 625 624 41 42
g roof_step_or_fixture_side
f 41 40 380 387
g roof_step_or_fixture_side
f 43 41 387 386
g roof_step_or_fixture_side
f 44 43 386 385
g roof_step_or_fixture_side
f 328 44 385 384
g roof_step_or_fixture_side
f 45 328 384 383
g roof_step_or_fixture_side
f 38 45 383 382
g roof_step_or_fixture_side
f 39 38 382 381
g roof_step_or_fixture_side
f 40 39 381 380
g roof_step_or_fixture_side
f 34 33 424 423
g roof_step_or_fixture_side
f 35 34 423 422
g roof_step_or_fixture_side
f 36 35 422 421
g roof_step_or_fixture_side
f 317 36 421 420
g roof_step_or_fixture_side
f 318 317 420 428
g roof_step_or_fixture_side
f 343 318 428 427
g roof_step_or_fixture_side
f 319 343 427 426
g roof_step_or_fixture_side
f 32 319 426 425
g roof_step_or_fixture_side
f 33 32 425 424
g roof_step_or_fixture_side
f 933 932 320 980
g roof_step_or_fixture_side
f 932 931 981 320
g roof_step_or_fixture_side
f 931 930 321 981
g roof_step_or_fixture_side
f 930 929 322 321
g roof_step_or_fixture_side
f 929 928 31 322
g roof_step_or_fixture_side
f 928 933 980 31
g roof_step_or_fixture_side
f 640 639 340 349
g roof_step_or_fixture_side
f 639 982 289 340
g roof_step_or_fixture_side
f 982 638 210 289
g roof_step_or_fixture_side
f 638 643 287 210
g roof_step_or_fixture_side
f 643 642 983 287
g roof_step_or_fixture_side
f 642 641 288 983
g roof_step_or_fixture_side
f 641 640 349 288
g roof_step_or_fixture_side
f 199 198 508 514
g roof_step_or_fixture_side
f 200 199 514 507
g roof_step_or_fixture_side
f 201 200 507 506
g roof_step_or_fixture_side
f 202 201 506 505
g roof_step_or_fixture_side
f 984 202 505 504
g roof_step_or_fixture_side
f 668 667 203 984
g roof_step_or_fixture_side
f 667 666 192 203
g roof_step_or_fixture_side
f 666 665 193 192
g roof_step_or_fixture_side
f 665 664 194 193
g roof_step_or_fixture_side
f 664 663 195 194
g roof_step_or_fixture_side
f 196 195 512 511
g roof_step_or_fixture_side
f 356 196 511 510
g roof_step_or_fixture_side
f 197 356 510 509
g roof_step_or_fixture_side
f 198 197 509 508
g roof_step_or_fixture_side
f 708 707 167 166
g roof_step_or_fixture_side
f 707 706 168 167
g roof_step_or_fixture_side
f 706 705 169 168
g roof_step_or_fixture_side
f 705 718 170 169
g roof_step_or_fixture_side
f 718 704 171 170
g roof_step_or_fixture_side
f 704 703 172 171
g roof_step_or_fixture_side
f 703 702 173 172
g roof_step_or_fixture_side
f 174 173 521 520
g roof_step_or_fixture_side
f 175 174 520 519
g roof_step_or_fixture_side
f 176 175 519 518
g roof_step_or_fixture_side
f 177 176 518 523
g roof_step_or_fixture_side
f 178 177 523 517
g roof_step_or_fixture_side
f 179 178 517 516
g roof_step_or_fixture_side
f 180 179 516 515
g roof_step_or_fixture_side
f 700 699 181 180
g roof_step_or_fixture_side
f 699 698 182 181
g roof_step_or_fixture_side
f 698 697 183 182
g roof_step_or_fixture_side
f 697 696 151 183
g roof_step_or_fixture_side
f 696 717 152 151
g roof_step_or_fixture_side
f 153 152 540 539
g roof_step_or_fixture_side
f 154 153 539 538
g roof_step_or_fixture_side
f 155 154 538 537
g roof_step_or_fixture_side
f 156 155 537 536
g roof_step_or_fixture_side
f 157 156 536 543
g roof_step_or_fixture_side
f 714 713 158 157
g roof_step_or_fixture_side
f 713 712 159 158
g roof_step_or_fixture_side
f 712 711 160 159
g roof_step_or_fixture_side
f 863 862 161 160 711
g roof_step_or_fixture_side
f 862 861 720 162 161
g roof_step_or_fixture_side
f 720 719 163 162
g roof_step_or_fixture_side
f 719 721 164 163
g roof_step_or_fixture_side
f 860 859 165 164 721
g roof_step_or_fixture_side
f 859 858 708 166 165
g roof_step_or_fixture_side
f 669 672 191 190
g roof_step_or_fixture_side
f 672 671 334 191
g roof_step_or_fixture_side
f 671 670 335 334
g roof_step_or_fixture_side
f 670 669 190 335
g roof_step_or_fixture_side
f 673 676 345 332
g roof_step_or_fixture_side
f 676 675 351 345
g roof_step_or_fixture_side
f 675 674 333 351
g roof_step_or_fixture_side
f 674 673 332 333
g roof_step_or_fixture_side
f 777 776 142 141
g roof_step_or_fixture_side
f 776 775 143 142
g roof_step_or_fixture_side
f 775 774 144 143
g roof_step_or_fixture_side
f 774 773 145 144
g roof_step_or_fixture_side
f 773 772 146 145
g roof_step_or_fixture_side
f 845 844 147 146 772
g roof_step_or_fixture_side
f 844 843 148 147
g roof_step_or_fixture_side
f 843 842 769 149 148
g roof_step_or_fixture_side
f 769 768 150 149
g roof_step_or_fixture_side
f 768 780 138 150
g roof_step_or_fixture_side
f 780 779 139 138
g roof_step_or_fixture_side
f 779 778 140 139
g roof_step_or_fixture_side
f 778 777 141 140
g roof_step_or_fixture_side
f 899 898 293 295
g roof_step_or_fixture_side
f 898 897 294 293
g roof_step_or_fixture_side
f 897 896 353 294
g roof_step_or_fixture_side
f 896 899 295 353
g roof_step_or_fixture_side
f 848 857 985 986
g roof_step_or_fixture_side
f 857 856 102 985
g roof_step_or_fixture_side
f 856 855 835 103 102
g roof_step_or_fixture_side
f 835 841 104 103
g roof_step_or_fixture_side
f 841 840 344 104
g roof_step_or_fixture_side
f 840 839 350 344
g roof_step_or_fixture_side
f 839 838 355 350
g roof_step_or_fixture_side
f 838 837 105 355
g roof_step_or_fixture_side
f 837 836 106 105
g roof_step_or_fixture_side
f 854 853 107 106 836
g roof_step_or_fixture_side
f 853 852 828 108 107
g roof_step_or_fixture_side
f 828 827 109 108
g roof_step_or_fixture_side
f 827 829 110 109
g roof_step_or_fixture_side
f 851 850 111 110 829
g roof_step_or_fixture_side
f 850 849 101 111
g roof_step_or_fixture_side
f 849 848 986 101
g roof_step_or_fixture_side
f 22 326 572 577
g roof_step_or_fixture_side
f 19 22 577 576
g roof_step_or_fixture_side
f 20 19 576 575
g roof_step_or_fixture_side
f 21 20 575 574
g roof_step_or_fixture_side
f 325 21 574 573
g roof_step_or_fixture_side
f 326 325 573 572
g roof_step_or_fixture_side
f 337 239 588 587
g roof_step_or_fixture_side
f 240 337 587 586
g roof_step_or_fixture_side
f 241 240 586 590
g roof_step_or_fixture_side
f 238 241 590 589
g roof_step_or_fixture_side
f 239 238 589 588
g roof_step_or_fixture_side
f 760 766 373 372
g roof_step_or_fixture_side
f 766 765 374 373
g roof_step_or_fixture_side
f 765 759 375 374
g roof_step_or_fixture_side
f 759 758 371 375
g roof_step_or_fixture_side
f 758 757 129 371
g roof_step_or_fixture_side
f 372 129 560 559
g roof_step_or_fixture_side
f 789 788 378 377
g roof_step_or_fixture_side
f 376 378 393 392
g roof_step_or_fixture_side
f 790 789 377 376
g roof_step_or_fixture_side
f 248 379 580 579
g roof_step_or_fixture_side
f 818 817 251 248
g roof_step_or_fixture_side
f 379 251 581 580
g roof_step_or_fixture_side
f 783 782 388 419 27
g roof_step_or_fixture_side
f 782 781 389 388
g roof_step_or_fixture_side
f 781 792 390 389
g roof_step_or_fixture_side
f 792 791 391 390
g roof_step_or_fixture_side
f 791 790 376 392 391
g roof_step_or_fixture_side
f 788 787 24 394 393 378
g roof_step_or_fixture_side
f 659 658 286 431 430 281
g roof_step_or_fixture_side
f 654 653 440 439 214
g roof_step_or_fixture_side
f 653 660 441 440
g roof_step_or_fixture_side
f 660 659 281 430 441
g roof_step_or_fixture_side
f 809 808 451 450 976
g roof_step_or_fixture_side
f 808 807 452 451
g roof_step_or_fixture_side
f 807 806 497 452
g roof_step_or_fixture_side
f 806 805 453 497
g roof_step_or_fixture_side
f 805 804 265 454 453
g roof_step_or_fixture_side
f 802 801 458 457 975
g roof_step_or_fixture_side
f 801 800 258 459 458
g roof_step_or_fixture_side
f 815 814 466 465 253
g roof_step_or_fixture_side
f 814 813 245 467 466
g roof_step_or_fixture_side
f 872 871 473 472 236
g roof_step_or_fixture_side
f 871 870 826 474 473
g roof_step_or_fixture_side
f 826 825 475 474
g roof_step_or_fixture_side
f 825 824 476 475
g roof_step_or_fixture_side
f 824 823 477 476
g roof_step_or_fixture_side
f 823 822 478 477
g roof_step_or_fixture_side
f 822 821 479 478
g roof_step_or_fixture_side
f 821 820 480 479
g roof_step_or_fixture_side
f 879 878 481 480 820
g roof_step_or_fixture_side
f 878 877 482 481
g roof_step_or_fixture_side
f 877 876 501 482
g roof_step_or_fixture_side
f 876 875 483 501
g roof_step_or_fixture_side
f 875 874 234 484 483
g roof_step_or_fixture_side
f 685 684 435 495 223
g roof_step_or_fixture_side
f 684 683 436 435
g roof_step_or_fixture_side
f 683 682 216 437 436
g roof_step_or_fixture_side
f 662 661 503 513
g roof_step_or_fixture_side
f 661 668 984 504 503
g roof_step_or_fixture_side
f 663 662 513 512 195
g roof_step_or_fixture_side
f 702 701 522 521 173
g roof_step_or_fixture_side
f 701 700 180 515 522
g roof_step_or_fixture_side
f 729 728 532 531 115
g roof_step_or_fixture_side
f 728 727 533 532
g roof_step_or_fixture_side
f 727 726 524 533
g roof_step_or_fixture_side
f 726 725 119 525 524
g roof_step_or_fixture_side
f 725 724 121 534 525 119
g roof_step_or_fixture_side
f 717 716 541 540 152
g roof_step_or_fixture_side
f 716 715 542 541
g roof_step_or_fixture_side
f 715 714 157 543 542
g roof_step_or_fixture_side
f 737 736 548 547 86
g roof_step_or_fixture_side
f 736 735 91 549 548
g roof_step_or_fixture_side
f 724 723 554 534 121
g roof_step_or_fixture_side
f 723 722 555 554
g roof_step_or_fixture_side
f 722 763 556 555
g roof_step_or_fixture_side
f 763 762 557 556
g roof_step_or_fixture_side
f 762 761 558 557
g roof_step_or_fixture_side
f 761 760 372 559 558
g roof_step_or_fixture_side
f 753 752 567 566 134
g roof_step_or_fixture_side
f 752 751 568 567
g roof_step_or_fixture_side
f 751 750 569 568
g roof_step_or_fixture_side
f 750 749 570 569
g roof_step_or_fixture_side
f 749 748 571 570
g facade_completed
f 565 571 993 965
g facade_completed
f 594 593 953 955
g roof_step_or_fixture_side
f 961 962 81 604 603 57
g roof_step_or_fixture_side
f 924 923 631 630
g roof_step_or_fixture_side
f 923 922 632 631
g roof_step_or_fixture_side
f 917 916 628 627
g roof_step_or_fixture_side
f 905 904 634 637
g roof_step_or_fixture_side
f 920 919 636 635
g roof_step_or_fixture_side
f 883 882 648 647
g facade_completed
f 650 649 186 969 937 316
g roof_step_or_fixture_side
f 892 891 644 652
g roof_step_or_fixture_side
f 891 890 645 644
g roof_step_or_fixture_side
f 858 865 709 708
g roof_step_or_fixture_side
f 865 864 710 709
g roof_step_or_fixture_side
f 864 863 711 710
g roof_step_or_fixture_side
f 861 860 721 720
g facade_completed
f 748 747 51 960 993 571
g roof_step_or_fixture_side
f 842 847 770 769
g roof_step_or_fixture_side
f 847 846 771 770
g roof_step_or_fixture_side
f 846 845 772 771
g roof_step_or_fixture_side
f 870 879 820 826
g roof_step_or_fixture_side
f 852 851 829 828
g roof_step_or_fixture_side
f 855 854 836 835
g facade_completed
f 868 867 137 967 968 331
g roof_step_or_fixture_side
f 895 894 902 901
g roof_step_or_fixture_side
f 886 895 901 900
g roof_step_or_fixture_side
f 887 886 900 909
g ground_assumed
f 965 967 966
g ground_assumed
f 965 968 967
g ground_assumed
f 965 969 968
g ground_assumed
f 965 937 969
g ground_assumed
f 965 938 937
g ground_assumed
f 965 939 938
g ground_assumed
f 965 995 941 939
g ground_assumed
f 965 942 941 995
g ground_assumed
f 965 943 942
g ground_assumed
f 965 944 943
g ground_assumed
f 965 945 944
g ground_assumed
f 965 946 945
g ground_assumed
f 965 948 946
g ground_assumed
f 965 950 948
g ground_assumed
f 965 952 950
g ground_assumed
f 965 953 952
g ground_assumed
f 965 955 953
g ground_assumed
f 965 956 955
g ground_assumed
f 965 958 956
g ground_assumed
f 958 960 959
g ground_assumed
f 958 993 960
g ground_assumed
f 958 965 993
