# Source coordinates; no display transform
v 0.374203365584 -0.24815610465 0.216377273132
v 0.509416398078 -0.237773003984 0.216341183582
v 0.509505907437 -0.0520766199894 0.218050865647
v 0.496294307354 0.242105263178 0.220772365274
v 0.479735051737 0.267758682522 0.221024692638
v 0.474113855896 0.272681704361 0.221075495472
v 0.390565699944 0.274042248537 0.221169394124
v -0.355674901382 0.249498746997 0.221670214738
v -0.439223057751 0.243412101822 0.221695544411
v -0.506194056381 0.222180451155 0.221565283834
v -0.506140350849 0.022592194781 0.219727554817
v -0.497744360707 -0.202685284765 0.217645171668
v -0.493089867362 -0.260794844335 0.217105604069
v -0.47563551732 -0.279591836848 0.216915534329
v 0.374203365584 -0.24815610465 -0.221116093888
v 0.509416398078 -0.237773003984 -0.221116093888
v 0.509505907437 -0.0520766199894 -0.221116093888
v 0.496294307354 0.242105263178 -0.221116093888
v 0.479735051737 0.267758682522 -0.221116093888
v 0.474113855896 0.272681704361 -0.221116093888
v 0.390565699944 0.274042248537 -0.221116093888
v -0.355674901382 0.249498746997 -0.221116093888
v -0.439223057751 0.243412101822 -0.221116093888
v -0.506194056381 0.222180451155 -0.221116093888
v -0.506140350849 0.022592194781 -0.221116093888
v -0.497744360707 -0.202685284765 -0.221116093888
v -0.493089867362 -0.260794844335 -0.221116093888
v -0.47563551732 -0.279591836848 -0.221116093888
g roof
f 1 2 3 4 5 6 7 8 9 10 11 12 13 14
g wall
f 2 1 15 16
g wall
f 3 2 16 17
g wall
f 4 3 17 18
g wall
f 5 4 18 19
g wall
f 6 5 19 20
g wall
f 7 6 20 21
g wall
f 8 7 21 22
g wall
f 9 8 22 23
g wall
f 10 9 23 24
g wall
f 11 10 24 25
g wall
f 12 11 25 26
g wall
f 13 12 26 27
g wall
f 14 13 27 28
g wall
f 1 14 28 15
g ground_assumed
f 28 27 26 25 24 23 22 21 20 19 18 17 16 15
