# XYZ-only planar convex-roof baseline. Provisional base; no GT.
v 8.93154650 -5.84420695 4.94477954
v 12.17317792 -5.59527987 4.94391432
v 12.17532384 -1.14334782 4.98490267
v 11.85858560 5.90944301 5.05014859
v 11.46158982 6.52446457 5.05619795
v 11.32682585 6.64249034 5.05741591
v 9.32382124 6.67510837 5.05966706
v -8.56673957 6.08669626 5.07167386
v -10.56974419 5.94077349 5.07228112
v -12.17532384 5.43176053 5.06915822
v -12.17403629 0.64678122 5.02510004
v -11.97274870 -4.75407802 4.97517646
v -11.86116070 -6.14721129 4.96224073
v -11.44270570 -6.59785514 4.95768395
v 8.93154650 -5.84420695 -5.54379703
v 12.17317792 -5.59527987 -5.54379703
v 12.17532384 -1.14334782 -5.54379703
v 11.85858560 5.90944301 -5.54379703
v 11.46158982 6.52446457 -5.54379703
v 11.32682585 6.64249034 -5.54379703
v 9.32382124 6.67510837 -5.54379703
v -8.56673957 6.08669626 -5.54379703
v -10.56974419 5.94077349 -5.54379703
v -12.17532384 5.43176053 -5.54379703
v -12.17403629 0.64678122 -5.54379703
v -11.97274870 -4.75407802 -5.54379703
v -11.86116070 -6.14721129 -5.54379703
v -11.44270570 -6.59785514 -5.54379703
g roof
f 1 2 3 4 5 6 7 8 9 10 11 12 13 14
g wall
f 2 1 15 16
g wall
f 3 2 16 17
g wall
f 4 3 17 18
g wall
f 5 4 18 19
g wall
f 6 5 19 20
g wall
f 7 6 20 21
g wall
f 8 7 21 22
g wall
f 9 8 22 23
g wall
f 10 9 23 24
g wall
f 11 10 24 25
g wall
f 12 11 25 26
g wall
f 13 12 26 27
g wall
f 14 13 27 28
g wall
f 1 14 28 15
g ground_assumed
f 28 27 26 25 24 23 22 21 20 19 18 17 16 15
