v 0.37420336558396267 -0.24815610465031199 0.21637727313198446
v 0.5094163980779407 -0.23777300398408288 0.21634118358174978
v 0.50950590743699342 -0.052076619989374476 0.21805086564684545
v 0.49629430735409269 0.24210526317796596 0.22077236527404842
v 0.47973505173671221 0.26775868252222224 0.22102469263773361
v 0.47411385589618465 0.27268170436106437 0.22107549547239283
v 0.39056569994404444 0.27404224853739134 0.22116939412361544
v -0.35567490138194424 0.24949874699726865 0.22167021473774581
v -0.43922305775119863 0.24341210182228409 0.22169554441144215
v -0.50619405638099346 0.22218045115536902 0.22156528383444679
v -0.50614035084898457 0.022592194781039365 0.21972755481713438
v -0.4977443607066801 -0.20268528476459052 0.21764517166798672
v -0.49308986736211036 -0.26079484433473804 0.21710560406939053
v -0.47563551731997405 -0.27959183684823646 0.21691553432907196
v 0.37420336558396267 -0.24815610465031199 -0.22111609388843578
v 0.5094163980779407 -0.23777300398408288 -0.22111609388843578
v 0.50950590743699342 -0.052076619989374476 -0.22111609388843578
v 0.49629430735409269 0.24210526317796596 -0.22111609388843578
v 0.47973505173671221 0.26775868252222224 -0.22111609388843578
v 0.47411385589618465 0.27268170436106437 -0.22111609388843578
v 0.39056569994404444 0.27404224853739134 -0.22111609388843578
v -0.35567490138194424 0.24949874699726865 -0.22111609388843578
v -0.43922305775119863 0.24341210182228409 -0.22111609388843578
v -0.50619405638099346 0.22218045115536902 -0.22111609388843578
v -0.50614035084898457 0.022592194781039365 -0.22111609388843578
v -0.4977443607066801 -0.20268528476459052 -0.22111609388843578
v -0.49308986736211036 -0.26079484433473804 -0.22111609388843578
v -0.47563551731997405 -0.27959183684823646 -0.22111609388843578
l 1 2
l 2 3
l 3 4
l 4 5
l 5 6
l 6 7
l 7 8
l 8 9
l 9 10
l 10 11
l 11 12
l 12 13
l 13 14
l 1 14
l 15 16
l 2 16
l 16 17
l 17 18
l 4 18
l 18 19
l 5 19
l 19 20
l 6 20
l 20 21
l 21 22
l 22 23
l 9 23
l 23 24
l 10 24
l 24 25
l 25 26
l 26 27
l 13 27
l 27 28
l 14 28
l 15 28
