# Source coordinates; no display transform
v 2684568.37374 1248832.73586 611.038075812
v 2684559.81493 1248821.6094 610.971567334
v 2684565.56586 1248817.18561 610.954915612
v 2684574.12467 1248828.31207 611.02142409
v 2684568.37374 1248832.73586 606.717758421
v 2684559.81493 1248821.6094 606.717758421
v 2684565.56586 1248817.18561 606.717758421
v 2684574.12467 1248828.31207 606.717758421
g roof
f 1 2 3 4
g wall
f 2 1 5 6
g wall
f 3 2 6 7
g wall
f 4 3 7 8
g wall
f 1 4 8 5
g ground_assumed
f 8 7 6 5
