v 2684568.3737360607 1248832.7358568753 611.03807581161527
v 2684559.8149256534 1248821.6094033464 610.97156733363965
v 2684565.5658550179 1248817.1856115272 610.95491561178801
v 2684574.1246654252 1248828.3120650561 611.02142408976374
v 2684568.3737360607 1248832.7358568753 606.71775842087663
v 2684559.8149256534 1248821.6094033464 606.71775842087663
v 2684565.5658550179 1248817.1856115272 606.71775842087663
v 2684574.1246654252 1248828.3120650561 606.71775842087663
l 1 2
l 2 3
l 3 4
l 1 4
l 1 5
l 5 6
l 2 6
l 6 7
l 3 7
l 7 8
l 4 8
l 5 8
