# Source coordinates; no display transform
v 0.527003873417 -0.039091126075 0.242151940795
v 0.339674187357 0.190360721041 0.366021042748
v -0.265711990392 -0.285802058516 0.363355003784
v -0.069521087941 -0.526107617624 0.233626548599
v 0.0888680120134 0.497562112516 0.195564470465
v -0.507656949345 0.010545620967 0.198920821573
v 0.527003873417 -0.039091126075 -0.36376806646
v 0.339674187357 0.190360721041 -0.36376806646
v 0.0888680120134 0.497562112516 -0.36376806646
v -0.507656949345 0.010545620967 -0.36376806646
v -0.265711990392 -0.285802058516 -0.36376806646
v -0.069521087941 -0.526107617624 -0.36376806646
g roof
f 1 2 3 4
g roof
f 2 5 6 3
g wall
f 2 1 7 8
g wall
f 4 3 11 12
g wall
f 1 4 12 7
g wall
f 5 2 8 9
g wall
f 6 5 9 10
g wall
f 3 6 10 11
g ground_assumed
f 12 11 10 9 8 7
