v 2685526.0545163909 1251230.2045696678 434.23191560914256
v 2685547.960254095 1251256.4914549177 434.2302254654312
v 2685543.2950819694 1251260.3790983646 434.23894549173451
v 2685521.3893442657 1251234.0922131145 434.24063563544587
v 2685526.0545163909 1251230.2045696678 431.39999388996927
v 2685547.960254095 1251256.4914549177 431.39999388996927
v 2685543.2950819694 1251260.3790983646 431.39999388996927
v 2685521.3893442657 1251234.0922131145 431.39999388996927
l 1 2
l 2 3
l 3 4
l 1 4
l 1 5
l 5 6
l 2 6
l 6 7
l 3 7
l 7 8
l 4 8
l 5 8
