v 2685723.4046199638 1251351.4811179277 433.0410295070788
v 2685728.6691203364 1251363.238502088 433.02376634064467
v 2685720.4289222495 1251366.9281430219 433.00187754005418
v 2685715.1644218774 1251355.1707588613 433.01914070648832
v 2685723.4046199638 1251351.4811179277 430.42527404755629
v 2685728.6691203364 1251363.238502088 430.42527404755629
v 2685720.4289222495 1251366.9281430219 430.42527404755629
v 2685715.1644218774 1251355.1707588613 430.42527404755629
l 1 2
l 2 3
l 3 4
l 1 4
l 1 5
l 5 6
l 2 6
l 6 7
l 3 7
l 7 8
l 4 8
l 5 8
