v 2686125.9313724604 1251443.385867838 427.48818339461985
v 2686114.7850674684 1251447.3410083198 427.62329430920875
v 2686112.647793903 1251441.3177828109 427.52107038487964
v 2686123.7940988895 1251437.3626423292 427.38595947029074
v 2686125.9313724604 1251443.385867838 425.14907580429411
v 2686114.7850674684 1251447.3410083198 425.14907580429411
v 2686112.647793903 1251441.3177828109 425.14907580429411
v 2686123.7940988895 1251437.3626423292 425.14907580429411
l 1 2
l 2 3
l 3 4
l 1 4
l 1 5
l 5 6
l 2 6
l 6 7
l 3 7
l 7 8
l 4 8
l 5 8
