# XYZ-only planar convex-roof baseline. Provisional base; no GT.
v -5.38373861 -9.42154257 3.30555887
v -4.61463310 -9.03698981 3.30714592
v -2.30731655 -7.75514729 3.31200241
v 10.25474021 -0.06409213 3.33897313
v 11.02384573 0.44864488 3.34065554
v 11.02384573 0.57682914 3.34075090
v 8.97289769 4.03780396 3.33985648
v 5.64010712 9.29335832 3.33812887
v 5.38373861 9.42154257 3.33779058
v 5.12737011 9.29335832 3.33726156
v -10.51110872 -0.32046063 3.30365657
v -11.02384573 -0.83319764 3.30240782
v -11.02384573 -5.70419924 3.29878404
v -9.48563470 -8.26788430 3.29947870
v -8.71652918 -9.42154257 3.29992139
v -5.38373861 -9.42154257 -3.58917472
v -4.61463310 -9.03698981 -3.58917472
v -2.30731655 -7.75514729 -3.58917472
v 10.25474021 -0.06409213 -3.58917472
v 11.02384573 0.44864488 -3.58917472
v 11.02384573 0.57682914 -3.58917472
v 8.97289769 4.03780396 -3.58917472
v 5.64010712 9.29335832 -3.58917472
v 5.38373861 9.42154257 -3.58917472
v 5.12737011 9.29335832 -3.58917472
v -10.51110872 -0.32046063 -3.58917472
v -11.02384573 -0.83319764 -3.58917472
v -11.02384573 -5.70419924 -3.58917472
v -9.48563470 -8.26788430 -3.58917472
v -8.71652918 -9.42154257 -3.58917472
g roof
f 1 2 3 4 5 6 7 8 9 10 11 12 13 14 15
g wall
f 2 1 16 17
g wall
f 3 2 17 18
g wall
f 4 3 18 19
g wall
f 5 4 19 20
g wall
f 6 5 20 21
g wall
f 7 6 21 22
g wall
f 8 7 22 23
g wall
f 9 8 23 24
g wall
f 10 9 24 25
g wall
f 11 10 25 26
g wall
f 12 11 26 27
g wall
f 13 12 27 28
g wall
f 14 13 28 29
g wall
f 15 14 29 30
g wall
f 1 15 30 16
g ground_assumed
f 30 29 28 27 26 25 24 23 22 21 20 19 18 17 16
