v 2685315.2500000014 1252344.875 435.93345148337863
v 2685315.9999999958 1252345.2500000021 435.93499910912743
v 2685318.2499999977 1252346.4999999956 435.93973495801242
v 2685330.4999999977 1252353.9999999965 435.96603569254262
v 2685331.2500000019 1252354.4999999958 435.96767630943316
v 2685331.2500000019 1252354.625000003 435.96776930057484
v 2685329.2500000042 1252358.0000000014 435.96689709905485
v 2685326.0000000033 1252363.1250000026 435.96521240498731
v 2685325.7499999986 1252363.25 435.96488251852213
v 2685325.5000000037 1252363.1250000026 435.96436664002198
v 2685310.2499999977 1252353.7500000016 435.93159643882302
v 2685309.7499999981 1252353.2500000021 435.93037870929095
v 2685309.7499999981 1252348.500000003 435.92684494839114
v 2685311.2499999963 1252345.9999999963 435.92752235219234
v 2685312.0000000005 1252344.875 435.92795404523457
v 2685315.2500000014 1252344.875 429.209991456826
v 2685315.9999999958 1252345.2500000021 429.209991456826
v 2685318.2499999977 1252346.4999999956 429.209991456826
v 2685330.4999999977 1252353.9999999965 429.209991456826
v 2685331.2500000019 1252354.4999999958 429.209991456826
v 2685331.2500000019 1252354.625000003 429.209991456826
v 2685329.2500000042 1252358.0000000014 429.209991456826
v 2685326.0000000033 1252363.1250000026 429.209991456826
v 2685325.7499999986 1252363.25 429.209991456826
v 2685325.5000000037 1252363.1250000026 429.209991456826
v 2685310.2499999977 1252353.7500000016 429.209991456826
v 2685309.7499999981 1252353.2500000021 429.209991456826
v 2685309.7499999981 1252348.500000003 429.209991456826
v 2685311.2499999963 1252345.9999999963 429.209991456826
v 2685312.0000000005 1252344.875 429.209991456826
l 1 2
l 2 3
l 3 4
l 4 5
l 5 6
l 6 7
l 7 8
l 8 9
l 9 10
l 10 11
l 11 12
l 12 13
l 13 14
l 14 15
l 1 15
l 1 16
l 16 17
l 17 18
l 18 19
l 19 20
l 5 20
l 20 21
l 6 21
l 21 22
l 22 23
l 8 23
l 23 24
l 9 24
l 24 25
l 25 26
l 11 26
l 26 27
l 12 27
l 27 28
l 13 28
l 28 29
l 29 30
l 15 30
l 16 30
