# XYZ-only planar convex-roof baseline. Provisional base; no GT.
v 11.93957602 -8.31267065 2.51544704
v 11.93957602 -8.03011843 2.51569912
v 11.93905900 -6.90016808 2.51670847
v 11.93880049 -6.62045949 2.51695865
v 11.84883876 -3.45292766 2.52000442
v 8.74696865 1.81474524 2.53228455
v 5.57426661 6.77272230 2.54446148
v 5.20976650 6.98444258 2.54554116
v 4.69481315 7.04777770 2.54685614
v 2.71720616 7.27914480 2.55189556
v -4.11419808 8.05364291 2.56928158
v -7.69638109 8.37626428 2.57832379
v -10.55266602 8.58565796 2.58549099
v -11.35223967 8.52904412 2.58739453
v -11.41919394 8.49181857 2.58752495
v -11.68028977 5.91963693 2.58586825
v -11.76120362 3.59562558 2.58399262
v -11.93880049 -3.03491583 2.57851120
v -11.93957602 -3.09825095 2.57845659
v -11.93905900 -4.02371932 2.57762967
v -11.93776644 -6.01502739 2.57584996
v -11.76533980 -6.48499987 2.57500928
v -7.69043535 -6.89551489 2.56468451
v 11.49467907 -8.57997073 2.51629584
v 11.85142386 -8.58565796 2.51541893
v 11.93957602 -8.31267065 -2.70221667
v 11.93957602 -8.03011843 -2.70221667
v 11.93905900 -6.90016808 -2.70221667
v 11.93880049 -6.62045949 -2.70221667
v 11.84883876 -3.45292766 -2.70221667
v 8.74696865 1.81474524 -2.70221667
v 5.57426661 6.77272230 -2.70221667
v 5.20976650 6.98444258 -2.70221667
v 4.69481315 7.04777770 -2.70221667
v 2.71720616 7.27914480 -2.70221667
v -4.11419808 8.05364291 -2.70221667
v -7.69638109 8.37626428 -2.70221667
v -10.55266602 8.58565796 -2.70221667
v -11.35223967 8.52904412 -2.70221667
v -11.41919394 8.49181857 -2.70221667
v -11.68028977 5.91963693 -2.70221667
v -11.76120362 3.59562558 -2.70221667
v -11.93880049 -3.03491583 -2.70221667
v -11.93957602 -3.09825095 -2.70221667
v -11.93905900 -4.02371932 -2.70221667
v -11.93776644 -6.01502739 -2.70221667
v -11.76533980 -6.48499987 -2.70221667
v -7.69043535 -6.89551489 -2.70221667
v 11.49467907 -8.57997073 -2.70221667
v 11.85142386 -8.58565796 -2.70221667
g roof
f 1 2 3 4 5 6 7 8 9 10 11 12 13 14 15 16 17 18 19 20 21 22 23 24 25
g wall
f 2 1 26 27
g wall
f 3 2 27 28
g wall
f 4 3 28 29
g wall
f 5 4 29 30
g wall
f 6 5 30 31
g wall
f 7 6 31 32
g wall
f 8 7 32 33
g wall
f 9 8 33 34
g wall
f 10 9 34 35
g wall
f 11 10 35 36
g wall
f 12 11 36 37
g wall
f 13 12 37 38
g wall
f 14 13 38 39
g wall
f 15 14 39 40
g wall
f 16 15 40 41
g wall
f 17 16 41 42
g wall
f 18 17 42 43
g wall
f 19 18 43 44
g wall
f 20 19 44 45
g wall
f 21 20 45 46
g wall
f 22 21 46 47
g wall
f 23 22 47 48
g wall
f 24 23 48 49
g wall
f 25 24 49 50
g wall
f 1 25 50 26
g ground_assumed
f 50 49 48 47 46 45 44 43 42 41 40 39 38 37 36 35 34 33 32 31 30 29 28 27 26
