# pointcloud_to_mesh 0.4.1; candidate requires geometry validation; coordinates preserved
v 8.315878548 -1.667880323 4.020849829
v 7.829891955 -1.526731892 4.020787000
v 7.734225335 -1.856120565 4.020690505
v 7.414384016 -1.892508470 4.020618705
v 7.367792229 -2.052928133 4.020571710
v 6.795266614 -1.962944603 4.020479722
v 5.904270504 -1.822907243 4.020336565
v 6.501503238 -1.996365656 4.020413776
v 6.073850431 -2.045019126 4.020317774
v 5.507245376 -1.494021156 4.020335542
v 4.897640997 -1.712776432 4.020163505
v 4.371448615 -1.155292641 4.020190790
v 4.312773257 -1.138251153 4.020183204
v 3.429281772 -0.881652641 4.020068985
v 2.867688489 -0.718545239 4.019996381
v 3.011355765 -0.223886039 4.020141293
v 2.818122795 0.080279080 4.020174734
v 3.031517928 0.815017488 4.020389977
v 3.382754220 1.054871854 4.020515907
v 3.494346682 1.439094618 4.020628466
v 3.315160561 2.516944159 4.020846915
v 4.543723522 5.909095215 4.021888761
v 4.554564023 6.653095983 4.022066143
v 5.016809766 6.859980184 4.022206253
v 3.628961247 7.364175044 4.022050646
v 2.533527837 7.682329308 4.021909026
v 1.896359194 7.559050843 4.021754028
v 1.589632424 7.956471349 4.021786998
v 1.370007965 8.020258392 4.021758605
v -0.954518766 8.173059073 4.021335060
v -4.106856812 9.180327601 4.020949124
v -4.855846591 9.419652769 4.020857426
v -6.595121998 4.231785543 4.019291662
v -7.092731669 3.922501182 4.019120442
v -6.885505191 3.151299628 4.018979763
v -7.542407410 2.351998356 4.018661637
v -7.189948481 1.700437535 4.018577848
v -7.414109594 0.928630898 4.018351746
v -8.141326622 0.110597895 4.018015307
v -8.117016608 -0.314449681 4.017919999
v -8.075966962 -1.032180739 4.017759063
v -8.163625587 -1.105022332 4.017724577
v -8.704063633 -1.554109174 4.017511962
v -6.890505297 -2.080833403 4.017746421
v -6.728178847 -1.521929007 4.017910153
v -6.512803444 -0.780372350 4.018127394
v -0.974256599 -2.388970627 4.018843424
v -1.820611255 -1.871872379 4.018797904
v 0.215653829 -2.734564502 4.018997258
v 0.515445672 -2.933030950 4.019009777
v 0.534493068 -2.953687920 4.019008677
v 0.543436512 -2.951561248 4.019010946
v 0.571563792 -2.970181902 4.019012121
v 0.616762643 -2.934124937 4.019029549
v 0.774012213 -2.896732370 4.019069443
v 1.948062370 -3.884899704 4.019068792
v 1.896925798 -4.551804298 4.018901603
v 2.215764922 -4.864855017 4.018890899
v 8.828218526 -6.785355425 4.019745766
v 9.027835434 -6.098056669 4.019947112
v 9.221874114 -5.429964250 4.020142831
v 9.243210838 -5.356500012 4.020164352
v 9.194535162 -5.342362801 4.020158059
v 9.017993320 -4.776674978 4.020256398
v 9.796044635 -2.097775146 4.021041187
v -0.564545650 -2.218061475 4.018964675
v -0.207537493 -2.454405896 4.018979584
v 1.996605448 -3.251818537 4.019227501
v 4.543723522 5.909095215 4.317203665
v 3.315160561 2.516944159 4.220404335
v 3.494346682 1.439094618 4.209225005
v 5.091811876 6.939309268 4.352616588
v 3.628961247 7.364175044 4.309166055
v 5.016809766 6.859980184 4.348762283
v 4.554564023 6.653095983 4.329544660
v 2.818122795 0.080279080 4.164121412
v 3.011355765 -0.223886039 4.165870801
v 3.382754220 1.054871854 4.199208248
v 3.031517928 0.815017488 4.183276174
v 9.579201583 -1.950552896 4.363862879
v 10.008377731 -1.798730223 4.381057996
v 7.641292774 -1.111241448 4.310749312
v 7.414384016 -1.892508470 4.290381541
v 7.734225335 -1.856120565 4.301961361
v 7.829891955 -1.526731892 4.310548583
v 8.315878548 -1.667880323 4.324983670
v 8.394746804 -1.606543543 4.328681440
v 7.367792229 -2.052928133 4.286199372
v 6.795266614 -1.962944603 4.267966464
v -0.453976944 -2.540079028 4.009491445
v 0.215653829 -2.734564502 4.029381250
v -0.564545650 -2.218061475 4.010870803
v -1.820611255 -1.871872379 3.973262824
v -0.974256599 -2.388970627 3.994037764
v -0.627944038 -2.600557599 4.002538482
v 1.936291527 -4.038410768 4.067553444
v 1.948062370 -3.884899704 4.070427517
v 1.906029782 -4.029621641 4.066654590
v 1.706412875 -4.716920397 4.048736589
v 2.215764922 -4.864855017 4.063865691
v 1.896925798 -4.551804298 4.057941561
v -7.542407410 2.351998356 3.844524723
v -6.885505191 3.151299628 3.879963521
v -7.092731669 3.922501182 3.885246083
v -6.595121998 4.231785543 3.907326590
v -4.855846591 9.419652769 4.050568292
v -3.497333366 8.985566197 4.090283922
v -0.954518766 8.173059073 4.164622163
v 1.370007965 8.020258392 4.242069169
v 1.176888250 8.076347480 4.236333002
v -5.391966971 9.984185309 4.041220630
v -7.099546396 4.104837573 3.887944979
v -8.607104313 3.103683746 3.820018004
v -9.356344077 0.523984642 3.752764786
v -9.878834500 0.197247215 3.729548250
v -9.472691981 0.079288448 3.741611757
v -9.482649119 0.045005137 3.740717985
v -8.347458592 -0.284696060 3.774436146
v -8.337501455 -0.250412749 3.775329918
v -8.117016647 -0.314449669 3.781878900
v -8.141326622 0.110597895 3.787880771
v -7.414109594 0.928630898 3.826037951
v -7.189948481 1.700437535 3.846159089
v -1.695926588 -2.983480663 7.466199977
v -1.481276354 -2.244420830 7.485950271
v -6.453700875 -0.800245356 7.511459463
v -6.668351108 -1.539305189 7.491709170
v -6.728178847 -1.521929007 7.492016094
v -6.890505297 -2.080833403 7.477080191
v -8.704063633 -1.554109174 7.486383984
v -8.163625634 -1.105022318 7.499380125
v -10.192041657 -0.515895493 7.509786166
v -10.391658565 -1.203194249 7.491419111
v 1.706412875 -4.716920397 7.429354413
v 1.906029782 -4.029621641 7.447721467
v 2.533527837 7.682329308 4.129272382
v 1.589632424 7.956471349 4.125685665
v 1.896359194 7.559050843 4.127807697
v 4.371448615 -1.155292641 4.162015876
v 4.897640997 -1.712776432 4.165270662
v 5.507245376 -1.494021156 4.166359258
v 6.073850431 -2.045019126 4.169711078
v 6.501503238 -1.996365656 4.170799887
v 5.904270504 -1.822907243 4.168530456
v 6.795266614 -1.962944603 4.171547811
v 7.414384016 -1.892508470 4.173124090
v 9.579201583 -1.950552896 4.179579817
v 8.394746804 -1.606543543 4.175078997
v 8.315878548 -1.667880323 4.175040638
v 9.796044635 -2.097775146 4.180665134
v 9.017993320 -4.776674978 4.186719918
v 9.194535146 -5.342362796 4.188986540
v 9.243210838 -5.356500012 4.189171504
v 10.287594673 -1.760593638 4.181044124
v 6.685620115 -1.827413396 4.170809517
v 10.008377731 -1.798730223 4.180352997
v 7.707895570 -1.011353873 4.171241502
v 7.641292774 -1.111241448 4.171358289
v -1.481276354 -2.244420830 4.148427826
v -1.695926588 -2.983480663 4.150098231
v 1.906029782 -4.029621641 4.163785338
v 1.948062370 -3.884899704 4.163458241
v 1.996605448 -3.251818537 4.161635062
v 0.774012213 -2.896732370 4.156989319
v 0.616762643 -2.934124937 4.156649459
v 0.571563792 -2.970181902 4.156630284
v 0.543436523 -2.951561259 4.156490982
v 0.534493068 -2.953687920 4.156471652
v 0.515445719 -2.933030949 4.156352355
v 0.215653829 -2.734564502 4.154867608
v -0.453976944 -2.540079028 4.152323072
v -0.627944038 -2.600557599 4.152006365
v -6.512803444 -0.780372350 4.129300082
v -6.728178847 -1.521929007 4.130976130
v -6.668351108 -1.539305189 4.131203470
v -6.453700875 -0.800245356 4.129533065
v -0.974256599 -2.388970627 4.150346057
v -9.878834457 0.197247202 4.116509470
v -10.008462156 0.116185046 4.116385154
v -10.192041657 -0.515895493 4.117813767
v -8.163625634 -1.105022318 4.125521563
v -8.075966962 -1.032180739 4.125549716
v -8.117016608 -0.314449681 4.123204218
v -8.337501455 -0.250412749 4.122366396
v -8.347458592 -0.284696060 4.122443882
v -9.482649119 0.045005137 4.118130261
v -9.472691981 0.079288448 4.118052775
v 4.371448615 -1.155292641 -6.988064640
v 4.312773257 -1.138251153 -6.988064640
v 3.429281772 -0.881652641 -6.988064640
v 2.867688489 -0.718545239 -6.988064640
v 3.011355765 -0.223886039 -6.988064640
v 3.382754220 1.054871854 -6.988064640
v 3.494346682 1.439094618 -6.988064640
v 3.628961247 7.364175044 -6.988064640
v 2.533527837 7.682329308 -6.988064640
v 1.589632424 7.956471349 -6.988064640
v 1.370007965 8.020258392 -6.988064640
v -3.497333391 8.985566184 4.021023747
v -4.106856832 9.180327586 4.072464729
v -8.163625587 -1.105022332 -6.988064640
v 0.515445672 -2.933030950 -6.988064640
v 1.936291574 -4.038410781 4.019030307
v 2.215764922 -4.864855017 -6.988064640
v 8.828218526 -6.785355425 -6.988064640
v 9.027835434 -6.098056669 -6.988064640
v 9.221874114 -5.429964250 -6.988064640
v 9.243210838 -5.356500012 -6.988064640
v 9.194535162 -5.342362801 -6.988064640
v 5.091811876 6.939309268 -6.988064640
v 1.706412875 -4.716920397 -6.988064640
v 1.176888250 8.076347480 -6.988064640
v -5.391966971 9.984185309 -6.988064640
v -7.099546396 4.104837573 -6.988064640
v -8.591235287 3.114222192 3.820733025
v -8.591235287 3.114222192 -6.988064640
v -8.607104313 3.103683746 -6.988064640
v -9.356344077 0.523984642 -6.988064640
v -9.878834457 0.197247202 -6.988064640
v -8.117016647 -0.314449669 -6.988064640
v -10.192041657 -0.515895493 -6.988064640
v -10.391658565 -1.203194249 -6.988064640
v 7.707895570 -1.011353873 -6.988064640
v 6.685620115 -1.827413396 -6.988064640
v 10.287594673 -1.760593638 -6.988064640
v 0.543436523 -2.951561259 -6.988064640
v -10.008462156 0.116185046 -6.988064640
g roof
f 1 2 3
g roof
f 3 4 5
g roof
f 6 7 8
g roof
f 9 10 11
g roof
f 11 12 13
g roof
f 11 13 14
g roof
f 11 14 15
g roof
f 15 16 17
g roof
f 18 19 20
g roof
f 18 20 21
g roof
f 21 22 23
g roof
f 23 24 25
g roof
f 23 25 26
g roof
f 23 26 27
g roof
f 27 28 29
g roof
f 27 29 30
g roof
f 31 32 33
g roof
f 33 34 35
g roof
f 35 36 37
g roof
f 38 39 40
g roof
f 38 40 41
g roof
f 42 43 44
g roof
f 42 44 45
g roof
f 42 45 46
g roof
f 46 47 48
g roof
f 50 51 52
g roof
f 50 52 53 54
g roof
f 50 54 55
g roof
f 56 203 57 58
g roof
f 56 58 59
g roof
f 56 59 60
g roof
f 56 60 61
g roof
f 56 61 62
g roof
f 56 62 63
g roof
f 56 63 64
g roof
f 56 64 65
g roof
f 65 1 3
g roof
f 65 3 5
g roof
f 5 6 8
g roof
f 5 8 9
g roof
f 17 18 21
g roof
f 21 23 27
g roof
f 21 27 30
g roof
f 21 30 199 31
g roof
f 21 31 33
g roof
f 21 33 35
g roof
f 21 35 37
g roof
f 21 37 38
g roof
f 21 38 41
g roof
f 21 41 42
g roof
f 21 42 46
g roof
f 21 46 48
g roof
f 21 48 66
g roof
f 21 66 67
g roof
f 21 67 49
g roof
f 21 49 50
g roof
f 21 50 55
g roof
f 21 55 68
g roof
f 21 68 56
g roof
f 56 65 5
g roof
f 56 5 9
g roof
f 56 9 11
g roof
f 56 11 15
g roof
f 56 15 17
g roof
f 56 17 21
g roof
f 69 70 71
g roof
f 69 71 72
g roof
f 72 73 74
g roof
f 74 75 69
g roof
f 74 69 72
g roof
f 76 77 78
g roof
f 76 78 79
g roof
f 80 81 82
g roof
f 82 83 84
g roof
f 82 84 85
g roof
f 82 85 86
g roof
f 82 86 87
g roof
f 82 87 80
g roof
f 88 83 89
g roof
f 90 91 67
g roof
f 90 67 92
g roof
f 90 92 93
g roof
f 90 93 94
g roof
f 90 94 95
g roof
f 96 97 98
g roof
f 96 98 99
g roof
f 99 100 101
g roof
f 99 101 96
g roof
f 102 103 104
g roof
f 104 105 106
g roof
f 107 108 109
g roof
f 107 109 110
g roof
f 107 110 111
g roof
f 112 215 113 114
g roof
f 114 115 116
g roof
f 116 117 118
g roof
f 116 118 119
g roof
f 121 122 123
g roof
f 121 123 102
g roof
f 106 200 107 111
g roof
f 106 111 112
g roof
f 112 114 116
g roof
f 112 116 119
g roof
f 119 120 121
g roof
f 119 121 102
g roof
f 119 102 104
g roof
f 104 106 112
g roof
f 104 112 119
g roof
f 124 125 126
g roof
f 124 126 127
g roof
f 127 128 129
g roof
f 130 131 132
g roof
f 130 132 133
g roof
f 130 133 134
g roof
f 134 135 124
g roof
f 134 124 127
g roof
f 134 127 129
g roof
f 134 129 130
g roof
f 136 137 138
g roof
f 139 140 141
g roof
f 142 143 144
g roof
f 144 145 146
g roof
f 147 148 149
g roof
f 147 149 150
g roof
f 150 151 152
g roof
f 150 152 153
g roof
f 150 153 154
g roof
f 155 139 141
g roof
f 141 142 144
g roof
f 156 147 150
g roof
f 156 150 154
g roof
f 156 154 157
g roof
f 155 141 144
g roof
f 155 144 146
g roof
f 155 146 158
g roof
f 158 156 157
g roof
f 158 157 155
g roof
f 159 160 161
g roof
f 159 161 162
g roof
f 162 163 164
g roof
f 162 164 165
g roof
f 162 165 166
g roof
f 162 166 167
g roof
f 168 169 170
g roof
f 168 170 171
g roof
f 168 171 172
g roof
f 173 174 175
g roof
f 173 175 176
g roof
f 173 176 159
g roof
f 162 167 168
g roof
f 162 168 172
g roof
f 177 173 159
g roof
f 159 162 172
g roof
f 159 172 177
g roof
f 178 179 180
g roof
f 178 180 181
g roof
f 178 181 182
g roof
f 182 183 184
g roof
f 182 184 185
g roof
f 182 185 186
g roof
f 186 187 178
g roof
f 186 178 182
g roof_step_or_fixture_side
f 85 84 3 2
g roof_step_or_fixture_side
f 84 83 146 4 3
g roof_step_or_fixture_side
f 83 88 5 4 146
g roof_step_or_fixture_side
f 88 89 145 6 5
g roof_step_or_fixture_side
f 145 144 7 6
g roof_step_or_fixture_side
f 144 143 8 7
g roof_step_or_fixture_side
f 143 142 9 8
g roof_step_or_fixture_side
f 142 141 10 9
g roof_step_or_fixture_side
f 141 140 11 10
g roof_step_or_fixture_side
f 140 139 12 11
g facade_completed
f 13 12 188 189
g facade_completed
f 14 13 189 190
g facade_completed
f 15 14 190 191
g facade_completed
f 16 15 191 192
g roof_step_or_fixture_side
f 77 76 17 16
g roof_step_or_fixture_side
f 76 79 18 17
g roof_step_or_fixture_side
f 79 78 19 18
g facade_completed
f 20 19 193 194
g roof_step_or_fixture_side
f 71 70 21 20
g roof_step_or_fixture_side
f 70 69 22 21
g roof_step_or_fixture_side
f 69 75 23 22
g roof_step_or_fixture_side
f 75 74 24 23
g roof_step_or_fixture_side
f 74 73 25 24
g facade_completed
f 26 25 195 196
g roof_step_or_fixture_side
f 136 138 27 26
g roof_step_or_fixture_side
f 138 137 28 27
g facade_completed
f 29 28 197 198
g roof_step_or_fixture_side
f 109 108 30 29
g roof_step_or_fixture_side
f 108 107 199 30
g roof_step_or_fixture_side
f 107 200 31 199
g roof_step_or_fixture_side
f 200 106 32 31
g roof_step_or_fixture_side
f 33 32 106 105
g roof_step_or_fixture_side
f 34 33 105 104
g roof_step_or_fixture_side
f 35 34 104 103
g roof_step_or_fixture_side
f 36 35 103 102
g roof_step_or_fixture_side
f 37 36 102 123
g roof_step_or_fixture_side
f 38 37 123 122
g roof_step_or_fixture_side
f 39 38 122 121
g roof_step_or_fixture_side
f 40 39 121 120
g roof_step_or_fixture_side
f 183 182 41 40
g roof_step_or_fixture_side
f 182 181 42 41
g roof_step_or_fixture_side
f 131 130 43 42 181
g roof_step_or_fixture_side
f 130 129 44 43
g roof_step_or_fixture_side
f 129 128 174 45 44
g roof_step_or_fixture_side
f 174 173 46 45
g roof_step_or_fixture_side
f 173 177 47 46
g roof_step_or_fixture_side
f 48 47 94 93
g roof_step_or_fixture_side
f 66 48 93 92
g roof_step_or_fixture_side
f 67 66 92
g roof_step_or_fixture_side
f 67 91 49
g roof_step_or_fixture_side
f 170 169 50 49 91
g roof_step_or_fixture_side
f 169 168 51 50
g roof_step_or_fixture_side
f 168 167 52 51
g roof_step_or_fixture_side
f 167 166 53 52
g roof_step_or_fixture_side
f 166 165 54 53
g roof_step_or_fixture_side
f 165 164 55 54
g roof_step_or_fixture_side
f 164 163 68 55
g roof_step_or_fixture_side
f 163 162 97 56 68
g roof_step_or_fixture_side
f 97 96 203 56
g roof_step_or_fixture_side
f 96 101 57 203
g roof_step_or_fixture_side
f 101 100 58 57
g facade_completed
f 59 58 204 205
g facade_completed
f 60 59 205 206
g facade_completed
f 61 60 206 207
g facade_completed
f 62 61 207 208
g roof_step_or_fixture_side
f 153 152 63 62
g roof_step_or_fixture_side
f 152 151 64 63
g roof_step_or_fixture_side
f 151 150 65 64
g roof_step_or_fixture_side
f 150 149 1 65
g roof_step_or_fixture_side
f 86 85 2 1 149
g facade_completed
f 72 71 20 194 210
g facade_completed
f 73 72 210 195 25
g facade_completed
f 78 77 16 192 193 19
g roof_step_or_fixture_side
f 83 82 158 146
g roof_step_or_fixture_side
f 87 86 149 148
g roof_step_or_fixture_side
f 80 87 148 147
g roof_step_or_fixture_side
f 81 80 147 156
g roof_step_or_fixture_side
f 82 81 156 158
g roof_step_or_fixture_side
f 89 83 146 145
g roof_step_or_fixture_side
f 177 172 95 94 47
g roof_step_or_fixture_side
f 172 171 90 95
g roof_step_or_fixture_side
f 171 170 91 90
g roof_step_or_fixture_side
f 162 161 98 97
g roof_step_or_fixture_side
f 135 134 99 98 161
g facade_completed
f 100 99 211 204 58
g facade_completed
f 110 109 29 198 212
g facade_completed
f 111 110 212 213
g facade_completed
f 112 111 213 214
g facade_completed
f 215 112 214 216
g facade_completed
f 113 215 216 217
g facade_completed
f 114 113 217 218
g facade_completed
f 115 114 218 219
g roof_step_or_fixture_side
f 178 187 116 115
g roof_step_or_fixture_side
f 187 186 117 116
g roof_step_or_fixture_side
f 186 185 118 117
g roof_step_or_fixture_side
f 185 184 119 118
g roof_step_or_fixture_side
f 184 183 40 120 119
g roof_step_or_fixture_side
f 127 126 176 175
g roof_step_or_fixture_side
f 128 127 175 174
g roof_step_or_fixture_side
f 132 131 181 180
g facade_completed
f 133 132 180 221 222
g facade_completed
f 134 133 222 211 99
g roof_step_or_fixture_side
f 124 135 161 160
g roof_step_or_fixture_side
f 125 124 160 159
g roof_step_or_fixture_side
f 126 125 159 176
g facade_completed
f 137 136 26 196 197 28
g facade_completed
f 155 157 223 224
g facade_completed
f 139 155 224 188 12
g facade_completed
f 154 153 62 208 225
g facade_completed
f 157 154 225 223
g facade_completed
f 179 178 115 219 227
g facade_completed
f 180 179 227 221
g ground_assumed
f 221 211 222
g ground_assumed
f 221 204 211
g ground_assumed
f 221 205 204
g ground_assumed
f 221 201 206 205
g ground_assumed
f 221 207 206 201
g ground_assumed
f 221 208 207
g ground_assumed
f 208 223 225
g ground_assumed
f 208 224 223
g ground_assumed
f 208 188 224
g ground_assumed
f 208 189 188
g ground_assumed
f 208 190 189
g ground_assumed
f 208 191 190
g ground_assumed
f 194 195 210
g ground_assumed
f 194 196 195
g ground_assumed
f 194 197 196
g ground_assumed
f 194 198 197
g ground_assumed
f 194 212 198
g ground_assumed
f 194 213 212
g ground_assumed
f 194 214 213
g ground_assumed
f 194 216 214
g ground_assumed
f 194 217 216
g ground_assumed
f 194 218 217
g ground_assumed
f 194 219 218
g ground_assumed
f 194 227 219
g ground_assumed
f 194 221 227
g ground_assumed
f 221 191 208
g ground_assumed
f 221 192 191
g ground_assumed
f 221 193 192
g ground_assumed
f 221 194 193
