v -0.30248266051657535 0.49991156306860607 0.10502285710405473
v -0.37863728125720963 -0.44598761529005582 0.10509981784484485
v -0.03821775999618518 -0.47339489060106077 0.44082171550938087
v 0.038217849156512822 0.47248166499656846 0.44102186586740078
v 0.30237202183219747 -0.50081587370883085 0.10483888312950713
v 0.37852664206279318 0.44508330413979252 0.10531622160216195
v -0.30248266051657535 0.49991156306860607 -0.41812281912792704
v -0.37863728125720963 -0.44598761529005582 -0.41812281912792704
v -0.03821775999618518 -0.47339489060106077 -0.41812281912792704
v 0.30237202183219747 -0.50081587370883085 -0.41812281912792704
v 0.37852664206279318 0.44508330413979252 -0.41812281912792704
v 0.038217849156512822 0.47248166499656846 -0.41812281912792704
l 1 2
l 2 3
l 3 4
l 1 4
l 3 5
l 5 6
l 4 6
l 1 7
l 7 8
l 2 8
l 8 9
l 7 12
l 9 10
l 5 10
l 10 11
l 6 11
l 11 12
