# XYZ-only planar convex-roof baseline. Provisional base; no GT.
v -0.20674438 0.21944398 8.62410140
v -0.29032770 0.27199902 8.62470151
v -8.77323330 -1.64177000 4.16002217
v -8.77323330 -2.05330992 3.90304631
v -8.39990422 -2.42663900 3.81382722
v -7.65324607 -2.98663261 3.75194707
v -3.91995530 -5.41327161 3.67566238
v 1.30665177 -8.58656876 3.70873343
v 1.88312295 -8.73068656 3.84093926
v 8.66057764 2.13780167 3.90350373
v 8.02657515 2.61330354 3.86029433
v 2.42663900 6.34659430 3.76863697
v 0.55999361 7.46658153 3.81541709
v -1.30665177 8.39990422 3.97819605
v -2.13932912 8.67746334 4.13705056
v -2.42663900 8.77323330 3.92186472
v -2.79996807 8.39990422 3.84054133
v -4.66661346 5.59993615 3.80571447
v -8.02657515 0.37332908 3.81738414
v -8.77323330 -1.11998723 3.95216944
v 4.29328438 -5.59993615 3.57654288
v 8.77323330 1.49331631 3.58241121
v 8.77323330 2.05330992 3.80103052
v 2.05330992 -8.77323330 3.71935493
v -8.77323330 -1.64177000 -8.32523955
v -8.77323330 -2.05330992 -8.32523955
v -8.39990422 -2.42663900 -8.32523955
v -7.65324607 -2.98663261 -8.32523955
v -3.91995530 -5.41327161 -8.32523955
v 1.30665177 -8.58656876 -8.32523955
v 1.88312295 -8.73068656 -8.32523955
v 2.05330992 -8.77323330 -8.32523955
v 4.29328438 -5.59993615 -8.32523955
v 8.77323330 1.49331631 -8.32523955
v 8.77323330 2.05330992 -8.32523955
v 8.66057764 2.13780167 -8.32523955
v 8.02657515 2.61330354 -8.32523955
v 2.42663900 6.34659430 -8.32523955
v 0.55999361 7.46658153 -8.32523955
v -1.30665177 8.39990422 -8.32523955
v -2.13932912 8.67746334 -8.32523955
v -2.42663900 8.77323330 -8.32523955
v -2.79996807 8.39990422 -8.32523955
v -4.66661346 5.59993615 -8.32523955
v -8.02657515 0.37332908 -8.32523955
v -8.77323330 -1.11998723 -8.32523955
g roof
f 1 2 3 4 5 6 7 8 9
g roof
f 10 11 12 13 14 15 2 1
g roof
f 15 16 17 18 19 20 3 2
g roof
f 21 22 23 10 1 9 24
g wall
f 4 3 25 26
g wall
f 5 4 26 27
g wall
f 6 5 27 28
g wall
f 7 6 28 29
g wall
f 8 7 29 30
g wall
f 9 8 30 31
g wall
f 11 10 36 37
g wall
f 12 11 37 38
g wall
f 13 12 38 39
g wall
f 14 13 39 40
g wall
f 15 14 40 41
g wall
f 16 15 41 42
g wall
f 17 16 42 43
g wall
f 18 17 43 44
g wall
f 19 18 44 45
g wall
f 20 19 45 46
g wall
f 3 20 46 25
g wall
f 22 21 33 34
g wall
f 23 22 34 35
g wall
f 10 23 35 36
g wall
f 24 9 31 32
g wall
f 21 24 32 33
g ground_assumed
f 46 45 44 43 42 41 40 39 38 37 36 35 34 33 32 31 30 29 28 27 26 25
