# Source coordinates; no display transform
v 2680438.23655 1250794.14695 510.740130088
v 2680438.18058 1250794.18214 510.740531951
v 2680432.5 1250792.90059 507.750757233
v 2680432.5 1250792.625 507.578673222
v 2680432.75 1250792.375 507.518927614
v 2680433.25 1250792 507.477489541
v 2680435.75 1250790.375 507.426405461
v 2680439.25 1250788.25 507.448551506
v 2680439.63603 1250788.15349 507.537083205
v 2680444.17456 1250795.43158 507.578979533
v 2680443.75 1250795.75 507.550044337
v 2680440 1250798.25 507.488665941
v 2680438.75 1250799 507.519992271
v 2680437.5 1250799.625 507.628997282
v 2680436.9424 1250799.81087 507.735374283
v 2680436.75 1250799.875 507.591274979
v 2680436.5 1250799.625 507.536816731
v 2680435.25 1250797.75 507.513494907
v 2680433 1250794.25 507.521309507
v 2680432.5 1250793.25 507.61156855
v 2680441.25 1250790.25 507.360030039
v 2680444.25 1250795 507.363959769
v 2680444.25 1250795.375 507.510358297
v 2680439.75 1250788.125 507.455664198
v 2680432.5 1250792.90059 499.389995573
v 2680432.5 1250792.625 499.389995573
v 2680432.75 1250792.375 499.389995573
v 2680433.25 1250792 499.389995573
v 2680435.75 1250790.375 499.389995573
v 2680439.25 1250788.25 499.389995573
v 2680439.63603 1250788.15349 499.389995573
v 2680439.75 1250788.125 499.389995573
v 2680441.25 1250790.25 499.389995573
v 2680444.25 1250795 499.389995573
v 2680444.25 1250795.375 499.389995573
v 2680444.17456 1250795.43158 499.389995573
v 2680443.75 1250795.75 499.389995573
v 2680440 1250798.25 499.389995573
v 2680438.75 1250799 499.389995573
v 2680437.5 1250799.625 499.389995573
v 2680436.9424 1250799.81087 499.389995573
v 2680436.75 1250799.875 499.389995573
v 2680436.5 1250799.625 499.389995573
v 2680435.25 1250797.75 499.389995573
v 2680433 1250794.25 499.389995573
v 2680432.5 1250793.25 499.389995573
g roof
f 1 2 3 4 5 6 7 8 9
g roof
f 10 11 12 13 14 15 2 1
g roof
f 15 16 17 18 19 20 3 2
g roof
f 21 22 23 10 1 9 24
g wall
f 4 3 25 26
g wall
f 5 4 26 27
g wall
f 6 5 27 28
g wall
f 7 6 28 29
g wall
f 8 7 29 30
g wall
f 9 8 30 31
g wall
f 11 10 36 37
g wall
f 12 11 37 38
g wall
f 13 12 38 39
g wall
f 14 13 39 40
g wall
f 15 14 40 41
g wall
f 16 15 41 42
g wall
f 17 16 42 43
g wall
f 18 17 43 44
g wall
f 19 18 44 45
g wall
f 20 19 45 46
g wall
f 3 20 46 25
g wall
f 22 21 33 34
g wall
f 23 22 34 35
g wall
f 10 23 35 36
g wall
f 24 9 31 32
g wall
f 21 24 32 33
g ground_assumed
f 46 45 44 43 42 41 40 39 38 37 36 35 34 33 32 31 30 29 28 27 26 25
