# Source coordinates; no display transform
v 2682641.50207 1247858.37286 412.261210973
v 2682641.27915 1247858.21987 412.261151936
v 2682641.24791 1247858.12716 412.261177634
v 2682639.74791 1247856.87714 412.260885547
v 2682639.74792 1247856.50215 412.261064327
v 2682640.00209 1247856.74784 412.261097666
v 2682640.00208 1247857.12283 412.260918885
v 2682641.75 1247858.49998 412.26129714
v 2682641.50001 1247858.375 412.261208728
v 2682641.75001 1247858.12499 412.261475921
v 2682639.99999 1247856.25 412.261333766
v 2682640.24999 1247856 412.26160096
v 2682640.25001 1247856.37501 412.261422182
v 2682642.24791 1247857.87715 412.26188885
v 2682642.49992 1247858.12075 412.261921904
v 2682642.25215 1247858.37706 412.261653031
v 2682641.22085 1247855.90517 412.262220936
v 2682641.02913 1247855.71985 412.262195789
v 2682641.5 1247855.74999 412.262460183
v 2682641.52915 1247855.34485 412.262670585
v 2682641.7187 1247855.52808 412.262695448
v 2682641.50217 1247855.75208 412.262460467
v 2682641.50001 1247856.49999 412.262102625
v 2682641.25 1247856.49999 412.261954617
v 2682641.50001 1247857.25 412.261745067
v 2682641.52913 1247856.84484 412.261955465
v 2682641.72085 1247857.03016 412.261980612
v 2682641.75 1247857.37499 412.261833479
v 2682641.49786 1247857.37292 412.261685191
v 2682641.25007 1247857.62925 412.26141629
v 2682641.50207 1247857.87285 412.261449345
v 2682641.75002 1247857.75 412.261654702
v 2682641.75207 1247858.12285 412.261478166
v 2682641.49577 1247857.87509 412.261444547
v 2682641.25633 1247858.12278 412.261184708
v 2682640.74583 1247857.6293 412.261117746
v 2682640.75 1247857.25 412.261301044
v 2682640.5 1247857.25001 412.261153037
v 2682640.50216 1247856.7521 412.261391693
v 2682640.93525 1247856.30407 412.261861681
v 2682640.99786 1247856.24793 412.261925515
v 2682641.25001 1247856.125 412.262133398
v 2682641.25001 1247857.25 412.261597059
v 2682642.00001 1247856.49999 412.26239864
v 2682641.75001 1247856.49999 412.262250632
v 2682642.00002 1247856.375 412.262458234
v 2682642.49999 1247856.25001 412.262813814
v 2682642.74999 1247856.50001 412.262842635
v 2682642.74998 1247857.37501 412.262425482
v 2682642.49998 1247857.37501 412.262277475
v 2682642.49999 1247857.00002 412.262456256
v 2682642.25 1247856.87498 412.262367866
v 2682642.49998 1247856.625 412.262635033
v 2682642.5 1247856.37502 412.262754222
v 2682641 1247854.87499 412.262581321
v 2682641.25002 1247855.00001 412.262669737
v 2682640.75001 1247855.00001 412.262373722
v 2682642.5 1247855.87502 412.262992595
v 2682642.74999 1247856.00001 412.263081007
v 2682643.22087 1247856.15516 412.263285809
v 2682643.02915 1247855.96984 412.263260662
v 2682643.25 1247855.87501 412.263436617
v 2682643.22086 1247855.65515 412.263524181
v 2682643.02915 1247855.46983 412.263499034
v 2682643.49794 1247855.62715 412.263701565
v 2682643.7521 1247855.87284 412.263734903
v 2682643.49999 1247856 412.263525029
v 2682643.49999 1247857.125 412.262988691
v 2682643.25 1247857.25001 412.262781092
v 2682643.25 1247856.50001 412.26313865
v 2682642.99999 1247856.50001 412.262990643
v 2682643.24998 1247856.37499 412.263198241
v 2682642.00207 1247855.74784 412.262758443
v 2682641.75007 1247855.50424 412.262725388
v 2682641.99993 1247855.24577 412.262996534
v 2682641.7479 1247855.00214 412.262963477
v 2682641.5 1247854.99998 412.262817741
v 2682641.50001 1247854.62499 412.262996522
v 2682641.00001 1247854.5 412.262760102
v 2682641.02914 1247854.34485 412.262851314
v 2682641.22299 1247854.53224 412.262876742
v 2682641.49785 1247854.2479 412.263175019
v 2682641.5 1247853.87498 412.26335408
v 2682641.75001 1247853.74999 412.263561682
v 2682641.77706 1247853.97202 412.263471845
v 2682642.22078 1247854.40094 412.263530047
v 2682642.00218 1247854.62708 412.263292821
v 2682642.74784 1247854.99793 412.263557471
v 2682642.50215 1247855.25209 412.263290842
v 2682642.525 1247854.47416 412.26367525
v 2682643.22502 1247855.15084 412.263767071
v 2682644.00208 1247856.12287 412.263763698
v 2682643.74792 1247855.87718 412.263730359
v 2682643.97084 1247856.03017 412.263789396
v 2682637.25 1247854.25 412.260659204
v 2682637 1247854.25 412.260511196
v 2682637 1247854 412.260630382
v 2682638.50209 1247855.24786 412.260924741
v 2682638.25001 1247855.37499 412.260714894
v 2682638.24792 1247855.00217 412.260891403
v 2682639.2521 1247855.24786 412.261368764
v 2682639.52915 1247855.09484 412.261605738
v 2682639.7187 1247855.27807 412.261630601
v 2682639.50008 1247855.50423 412.261393348
v 2682639.87487 1247855.86653 412.261442509
v 2682639.69164 1247856.05608 412.261243667
v 2682639.24792 1247855.62715 412.261185466
v 2682639.25 1247855.25002 412.261366492
v 2682639 1247855.25002 412.261218484
v 2682638.99793 1247855.00216 412.261335425
v 2682638 1247853.24999 412.26157997
v 2682638.25 1247853.24999 412.261727977
v 2682638.00002 1247853.375 412.261520379
v 2682637.75 1247853.24999 412.261431962
v 2682637.75 1247853.74999 412.26119359
v 2682638.00002 1247853.625 412.261401192
v 2682638.25001 1247853.74999 412.261489605
v 2682638.00001 1247853.99999 412.261222412
v 2682638 1247854.37498 412.261043631
v 2682637.75001 1247854.25 412.260955218
v 2682637.49999 1247854.37499 412.260747616
v 2682637.50001 1247854.25 412.260807211
v 2682637.25 1247853.75 412.260897576
v 2682637 1247853.75 412.260749568
v 2682637.50001 1247853.125 412.26134355
v 2682638.00001 1247852.875 412.261758751
v 2682637.5 1247853.49999 412.261164769
v 2682637.50002 1247853.87501 412.260985992
v 2682638.50002 1247853.625 412.261697207
v 2682638.50001 1247853.74999 412.261637612
v 2682638.99998 1247854.62501 412.261516448
v 2682639.25 1247854.75002 412.261604864
v 2682639 1247855.00002 412.26133767
v 2682638.50002 1247854.75 412.261160868
v 2682638.25002 1247855 412.260893675
v 2682638.00001 1247854.75 412.260864854
v 2682638.25001 1247854.5 412.261132047
v 2682638.5 1247854.12498 412.261458832
v 2682638.74998 1247854.125 412.261606813
v 2682638.99998 1247853.875 412.261874006
v 2682638.99998 1247852.75 412.262410345
v 2682639.25 1247852.87501 412.262498761
v 2682639.25 1247853.62502 412.262141203
v 2682639.49999 1247853.75001 412.262229615
v 2682639.24999 1247854.00001 412.261962422
v 2682639.25 1247854.25001 412.261843236
v 2682638.99999 1247854.25001 412.261695228
v 2682638.50002 1247853.375 412.261816394
v 2682638.50001 1247852.99998 412.261995171
v 2682640 1247853.75 412.26252563
v 2682639.99999 1247854.375 412.262227663
v 2682639.74999 1247854.375 412.262079656
v 2682639.75 1247854.75001 412.261900879
v 2682639.49999 1247854.875 412.261693276
v 2682639.75 1247854.25001 412.262139251
v 2682639.74998 1247853.87499 412.262318028
v 2682639.75 1247853.5 412.262496809
v 2682640.75 1247855.375 412.262194941
v 2682640.24999 1247855.24999 412.261958518
v 2682640.25 1247854.875 412.262137299
v 2682640.00001 1247854.75001 412.262048886
v 2682640.24999 1247854.625 412.262256485
v 2682640.49999 1247854.37499 412.262523678
v 2682640.5 1247854.875 412.262285306
v 2682638.25 1247852.74998 412.261966349
v 2682638 1247852.49998 412.261937528
v 2682638.25001 1247852.62499 412.262025944
v 2682638.5 1247852.49998 412.262233543
v 2682639.75425 1247853.49993 412.262499365
v 2682639.49792 1247853.25214 412.262465742
v 2682639.77917 1247853.09484 412.262707238
v 2682639.96872 1247853.27807 412.262732101
v 2682639.52915 1247852.21983 412.26297638
v 2682639.00208 1247852.49783 412.262531803
v 2682638.74791 1247852.25214 412.262498464
v 2682638.78552 1247851.78435 412.262743744
v 2682639.23944 1247851.31478 412.263236345
v 2682640.00411 1247852.05395 412.263336646
v 2682639.69179 1247852.37704 412.262997713
v 2682640.24995 1247852.99576 412.263033187
v 2682640.00009 1247852.75423 412.263000413
v 2682640.37069 1247852.37085 412.263402588
v 2682640.50206 1247852.49785 412.263419821
v 2682640.50001 1247853.37501 412.263000426
v 2682640.22087 1247853.40515 412.262820797
v 2682640.03132 1247853.22192 412.262795934
v 2682641.24791 1247858.12716 409.567173615
v 2682641.50207 1247858.37286 409.567173615
v 2682641.27915 1247858.21987 409.567173615
v 2682640.00209 1247856.74784 409.567173615
v 2682640.00208 1247857.12283 409.567173615
v 2682639.74791 1247856.87714 409.567173615
v 2682639.74792 1247856.50215 409.567173615
v 2682641.75001 1247858.12499 409.567173615
v 2682641.75 1247858.49998 409.567173615
v 2682641.50001 1247858.375 409.567173615
v 2682640.25001 1247856.37501 409.567173615
v 2682639.99999 1247856.25 409.567173615
v 2682640.24999 1247856 409.567173615
v 2682642.25215 1247858.37706 409.567173615
v 2682642.24791 1247857.87715 409.567173615
v 2682642.49992 1247858.12075 409.567173615
v 2682641.22085 1247855.90517 409.567173615
v 2682641.02913 1247855.71985 409.567173615
v 2682641.5 1247855.74999 409.567173615
v 2682641.52915 1247855.34485 409.567173615
v 2682641.7187 1247855.52808 409.567173615
v 2682641.50217 1247855.75208 409.567173615
v 2682641.50001 1247856.49999 409.567173615
v 2682641.25 1247856.49999 409.567173615
v 2682641.25001 1247857.25 409.567173615
v 2682641.50001 1247857.25 409.567173615
v 2682641.52913 1247856.84484 409.567173615
v 2682641.72085 1247857.03016 409.567173615
v 2682641.75 1247857.37499 409.567173615
v 2682641.49786 1247857.37292 409.567173615
v 2682641.25007 1247857.62925 409.567173615
v 2682641.50207 1247857.87285 409.567173615
v 2682641.75002 1247857.75 409.567173615
v 2682641.75207 1247858.12285 409.567173615
v 2682641.49577 1247857.87509 409.567173615
v 2682641.25633 1247858.12278 409.567173615
v 2682640.74583 1247857.6293 409.567173615
v 2682640.75 1247857.25 409.567173615
v 2682640.5 1247857.25001 409.567173615
v 2682640.50216 1247856.7521 409.567173615
v 2682640.93525 1247856.30407 409.567173615
v 2682640.99786 1247856.24793 409.567173615
v 2682641.25001 1247856.125 409.567173615
v 2682642.00002 1247856.375 409.567173615
v 2682642.00001 1247856.49999 409.567173615
v 2682641.75001 1247856.49999 409.567173615
v 2682642.74998 1247857.37501 409.567173615
v 2682642.49998 1247857.37501 409.567173615
v 2682642.49999 1247857.00002 409.567173615
v 2682642.25 1247856.87498 409.567173615
v 2682642.49998 1247856.625 409.567173615
v 2682642.5 1247856.37502 409.567173615
v 2682642.49999 1247856.25001 409.567173615
v 2682642.74999 1247856.50001 409.567173615
v 2682640.75001 1247855.00001 409.567173615
v 2682641 1247854.87499 409.567173615
v 2682641.25002 1247855.00001 409.567173615
v 2682642.74999 1247856.00001 409.567173615
v 2682642.5 1247855.87502 409.567173615
v 2682643.25 1247855.87501 409.567173615
v 2682643.22086 1247855.65515 409.567173615
v 2682643.02915 1247855.46983 409.567173615
v 2682643.49794 1247855.62715 409.567173615
v 2682643.7521 1247855.87284 409.567173615
v 2682643.49999 1247856 409.567173615
v 2682643.49999 1247857.125 409.567173615
v 2682643.25 1247857.25001 409.567173615
v 2682643.25 1247856.50001 409.567173615
v 2682642.99999 1247856.50001 409.567173615
v 2682643.24998 1247856.37499 409.567173615
v 2682643.22087 1247856.15516 409.567173615
v 2682643.02915 1247855.96984 409.567173615
v 2682641.75007 1247855.50424 409.567173615
v 2682641.99993 1247855.24577 409.567173615
v 2682641.7479 1247855.00214 409.567173615
v 2682641.5 1247854.99998 409.567173615
v 2682641.50001 1247854.62499 409.567173615
v 2682641.00001 1247854.5 409.567173615
v 2682641.02914 1247854.34485 409.567173615
v 2682641.22299 1247854.53224 409.567173615
v 2682641.49785 1247854.2479 409.567173615
v 2682641.5 1247853.87498 409.567173615
v 2682641.75001 1247853.74999 409.567173615
v 2682641.77706 1247853.97202 409.567173615
v 2682642.22078 1247854.40094 409.567173615
v 2682642.00218 1247854.62708 409.567173615
v 2682642.00207 1247855.74784 409.567173615
v 2682642.525 1247854.47416 409.567173615
v 2682643.22502 1247855.15084 409.567173615
v 2682642.74784 1247854.99793 409.567173615
v 2682642.50215 1247855.25209 409.567173615
v 2682643.97084 1247856.03017 409.567173615
v 2682644.00208 1247856.12287 409.567173615
v 2682643.74792 1247855.87718 409.567173615
v 2682637 1247854 409.567173615
v 2682637.25 1247854.25 409.567173615
v 2682637 1247854.25 409.567173615
v 2682638.24792 1247855.00217 409.567173615
v 2682638.50209 1247855.24786 409.567173615
v 2682638.25001 1247855.37499 409.567173615
v 2682639.52915 1247855.09484 409.567173615
v 2682639.7187 1247855.27807 409.567173615
v 2682639.50008 1247855.50423 409.567173615
v 2682639.87487 1247855.86653 409.567173615
v 2682639.69164 1247856.05608 409.567173615
v 2682639.24792 1247855.62715 409.567173615
v 2682639.25 1247855.25002 409.567173615
v 2682639 1247855.25002 409.567173615
v 2682638.99793 1247855.00216 409.567173615
v 2682639.2521 1247855.24786 409.567173615
v 2682638.25 1247853.24999 409.567173615
v 2682638.00002 1247853.375 409.567173615
v 2682637.75 1247853.24999 409.567173615
v 2682637.5 1247853.49999 409.567173615
v 2682637.75 1247853.74999 409.567173615
v 2682638.00002 1247853.625 409.567173615
v 2682638.25001 1247853.74999 409.567173615
v 2682638.00001 1247853.99999 409.567173615
v 2682638 1247854.37498 409.567173615
v 2682637.75001 1247854.25 409.567173615
v 2682637.49999 1247854.37499 409.567173615
v 2682637.50001 1247854.25 409.567173615
v 2682637.50002 1247853.87501 409.567173615
v 2682637.25 1247853.75 409.567173615
v 2682637 1247853.75 409.567173615
v 2682637.50001 1247853.125 409.567173615
v 2682638.00001 1247852.875 409.567173615
v 2682638 1247853.24999 409.567173615
v 2682638.50002 1247853.625 409.567173615
v 2682638.50001 1247853.74999 409.567173615
v 2682638.99998 1247854.62501 409.567173615
v 2682639.25 1247854.75002 409.567173615
v 2682639 1247855.00002 409.567173615
v 2682638.50002 1247854.75 409.567173615
v 2682638.25002 1247855 409.567173615
v 2682638.00001 1247854.75 409.567173615
v 2682638.25001 1247854.5 409.567173615
v 2682638.5 1247854.12498 409.567173615
v 2682638.74998 1247854.125 409.567173615
v 2682638.99998 1247853.875 409.567173615
v 2682638.99998 1247852.75 409.567173615
v 2682639.25 1247852.87501 409.567173615
v 2682639.25 1247853.62502 409.567173615
v 2682639.49999 1247853.75001 409.567173615
v 2682639.24999 1247854.00001 409.567173615
v 2682639.25 1247854.25001 409.567173615
v 2682638.99999 1247854.25001 409.567173615
v 2682638.50001 1247852.99998 409.567173615
v 2682638.50002 1247853.375 409.567173615
v 2682639.74999 1247854.375 409.567173615
v 2682639.75 1247854.75001 409.567173615
v 2682639.49999 1247854.875 409.567173615
v 2682639.75 1247854.25001 409.567173615
v 2682639.74998 1247853.87499 409.567173615
v 2682639.75 1247853.5 409.567173615
v 2682640 1247853.75 409.567173615
v 2682639.99999 1247854.375 409.567173615
v 2682640.25 1247854.875 409.567173615
v 2682640.00001 1247854.75001 409.567173615
v 2682640.24999 1247854.625 409.567173615
v 2682640.49999 1247854.37499 409.567173615
v 2682640.5 1247854.875 409.567173615
v 2682640.75 1247855.375 409.567173615
v 2682640.24999 1247855.24999 409.567173615
v 2682638 1247852.49998 409.567173615
v 2682638.25001 1247852.62499 409.567173615
v 2682638.5 1247852.49998 409.567173615
v 2682638.25 1247852.74998 409.567173615
v 2682639.77917 1247853.09484 409.567173615
v 2682639.96872 1247853.27807 409.567173615
v 2682639.75425 1247853.49993 409.567173615
v 2682639.49792 1247853.25214 409.567173615
v 2682638.74791 1247852.25214 409.567173615
v 2682638.78552 1247851.78435 409.567173615
v 2682639.23944 1247851.31478 409.567173615
v 2682640.00411 1247852.05395 409.567173615
v 2682639.69179 1247852.37704 409.567173615
v 2682639.52915 1247852.21983 409.567173615
v 2682639.00208 1247852.49783 409.567173615
v 2682640.00009 1247852.75423 409.567173615
v 2682640.37069 1247852.37085 409.567173615
v 2682640.50206 1247852.49785 409.567173615
v 2682640.50001 1247853.37501 409.567173615
v 2682640.22087 1247853.40515 409.567173615
v 2682640.03132 1247853.22192 409.567173615
v 2682640.24995 1247852.99576 409.567173615
g roof
f 1 2 3
g roof
f 4 5 6
g roof
f 4 6 7
g roof
f 8 9 10
g roof
f 11 12 13
g roof
f 14 15 16
g roof
f 17 18 19
g roof
f 19 20 21
g roof
f 19 21 22
g roof
f 19 22 23
g roof
f 19 23 24
g roof
f 25 26 27
g roof
f 25 27 28
g roof
f 25 28 29
g roof
f 25 29 30
g roof
f 31 32 33
g roof
f 31 33 34
g roof
f 34 35 36
g roof
f 34 36 37
g roof
f 37 38 39
g roof
f 37 39 40
g roof
f 37 40 41
g roof
f 37 41 42
g roof
f 42 17 19
g roof
f 42 19 24
g roof
f 43 25 30
g roof
f 30 31 34
g roof
f 30 34 37
g roof
f 37 42 24
g roof
f 37 24 43
g roof
f 37 43 30
g roof
f 44 45 46
g roof
f 47 48 49
g roof
f 49 50 51
g roof
f 51 52 53
g roof
f 51 53 54
g roof
f 54 47 49
g roof
f 54 49 51
g roof
f 55 56 57
g roof
f 47 58 59
g roof
f 60 61 62
g roof
f 63 64 65
g roof
f 63 65 66
g roof
f 63 66 67
g roof
f 63 67 68
g roof
f 68 69 70
g roof
f 70 71 72
g roof
f 72 60 62
g roof
f 62 63 68
g roof
f 62 68 70
g roof
f 62 70 72
g roof
f 73 74 75
g roof
f 76 77 78
g roof
f 79 80 81
g roof
f 82 83 84
g roof
f 82 84 85
g roof
f 82 85 86
g roof
f 82 86 87
g roof
f 87 73 75
g roof
f 87 75 76
g roof
f 87 76 78
g roof
f 78 79 81
g roof
f 78 81 82
g roof
f 78 82 87
g roof
f 88 89 90
g roof
f 88 90 91
g roof
f 92 93 94
g roof
f 95 96 97
g roof
f 98 99 100
g roof
f 101 102 103
g roof
f 101 103 104
g roof
f 104 105 106
g roof
f 104 106 107
g roof
f 104 107 108
g roof
f 108 109 110
g roof
f 108 110 101
g roof
f 108 101 104
g roof
f 111 112 113
g roof
f 111 113 114
g roof
f 115 116 117
g roof
f 115 117 118
g roof
f 115 118 119
g roof
f 115 119 120
g roof
f 115 120 121
g roof
f 121 95 122
g roof
f 123 97 124
g roof
f 123 124 125
g roof
f 123 125 126
g roof
f 126 111 114
g roof
f 126 114 127
g roof
f 115 121 122
g roof
f 115 122 128
g roof
f 115 128 123
g roof
f 123 126 127
g roof
f 123 127 115
g roof
f 129 130 117
g roof
f 131 132 133
g roof
f 131 133 134
g roof
f 134 135 136
g roof
f 134 136 119
g roof
f 134 119 137
g roof
f 134 137 138
g roof
f 134 138 139
g roof
f 134 139 140
g roof
f 140 141 142
g roof
f 140 142 143
g roof
f 140 143 144
g roof
f 140 144 145
g roof
f 140 145 146
g roof
f 140 146 147
g roof
f 140 147 131
g roof
f 140 131 134
g roof
f 148 112 149
g roof
f 150 151 152
g roof
f 152 153 154
g roof
f 152 154 132
g roof
f 152 132 155
g roof
f 156 144 157
g roof
f 156 157 150
g roof
f 150 152 155
g roof
f 150 155 156
g roof
f 158 159 160
g roof
f 160 161 151
g roof
f 160 151 162
g roof
f 160 162 163
g roof
f 160 163 164
g roof
f 160 164 57
g roof
f 160 57 158
g roof
f 165 126 166
g roof
f 165 166 167
g roof
f 165 167 168
g roof
f 165 168 149
g roof
f 169 170 171
g roof
f 169 171 172
g roof
f 173 174 175
g roof
f 173 175 176
g roof
f 173 176 177
g roof
f 173 177 178
g roof
f 173 178 179
g roof
f 180 181 182
g roof
f 180 182 183
g roof
f 180 183 184
g roof
f 180 184 185
g roof
f 180 185 186
g facade_completed
f 1 3 187 188
g facade_completed
f 2 1 188 189
g facade_completed
f 3 2 189 187
g facade_completed
f 7 6 190 191
g facade_completed
f 4 7 191 192
g facade_completed
f 5 4 192 193
g facade_completed
f 6 5 193 190
g facade_completed
f 8 10 194 195
g facade_completed
f 9 8 195 196
g facade_completed
f 10 9 196 194
g facade_completed
f 11 13 197 198
g facade_completed
f 12 11 198 199
g facade_completed
f 13 12 199 197
g facade_completed
f 14 16 200 201
g facade_completed
f 15 14 201 202
g facade_completed
f 16 15 202 200
g facade_completed
f 18 17 203 204
g facade_completed
f 19 18 204 205
g facade_completed
f 20 19 205 206
g facade_completed
f 21 20 206 207
g facade_completed
f 22 21 207 208
g facade_completed
f 23 22 208 209
g facade_completed
f 24 23 209 210
g facade_completed
f 43 24 210 211
g facade_completed
f 25 43 211 212
g facade_completed
f 26 25 212 213
g facade_completed
f 27 26 213 214
g facade_completed
f 28 27 214 215
g facade_completed
f 29 28 215 216
g facade_completed
f 30 29 216 217
g facade_completed
f 31 30 217 218
g facade_completed
f 32 31 218 219
g facade_completed
f 33 32 219 220
g facade_completed
f 34 33 220 221
g facade_completed
f 35 34 221 222
g facade_completed
f 36 35 222 223
g facade_completed
f 37 36 223 224
g facade_completed
f 38 37 224 225
g facade_completed
f 39 38 225 226
g facade_completed
f 40 39 226 227
g facade_completed
f 41 40 227 228
g facade_completed
f 42 41 228 229
g facade_completed
f 17 42 229 203
g facade_completed
f 44 46 230 231
g facade_completed
f 45 44 231 232
g facade_completed
f 46 45 232 230
g facade_completed
f 50 49 233 234
g facade_completed
f 51 50 234 235
g facade_completed
f 52 51 235 236
g facade_completed
f 53 52 236 237
g facade_completed
f 54 53 237 238
g facade_completed
f 47 54 238 239
g facade_completed
f 48 47 239 240
g facade_completed
f 49 48 240 233
g facade_completed
f 55 57 241 242
g facade_completed
f 56 55 242 243
g facade_completed
f 57 56 243 241
g facade_completed
f 47 59 244 239
g facade_completed
f 58 47 239 245
g facade_completed
f 59 58 245 244
g facade_completed
f 63 62 246 247
g facade_completed
f 64 63 247 248
g facade_completed
f 65 64 248 249
g facade_completed
f 66 65 249 250
g facade_completed
f 67 66 250 251
g facade_completed
f 68 67 251 252
g facade_completed
f 69 68 252 253
g facade_completed
f 70 69 253 254
g facade_completed
f 71 70 254 255
g facade_completed
f 72 71 255 256
g facade_completed
f 60 72 256 257
g facade_completed
f 61 60 257 258
g facade_completed
f 62 61 258 246
g facade_completed
f 75 74 259 260
g facade_completed
f 76 75 260 261
g facade_completed
f 77 76 261 262
g facade_completed
f 78 77 262 263
g facade_completed
f 79 78 263 264
g facade_completed
f 80 79 264 265
g facade_completed
f 81 80 265 266
g facade_completed
f 82 81 266 267
g facade_completed
f 83 82 267 268
g facade_completed
f 84 83 268 269
g facade_completed
f 85 84 269 270
g facade_completed
f 86 85 270 271
g facade_completed
f 87 86 271 272
g facade_completed
f 73 87 272 273
g facade_completed
f 74 73 273 259
g facade_completed
f 91 90 274 275
g facade_completed
f 88 91 275 276
g facade_completed
f 89 88 276 277
g facade_completed
f 90 89 277 274
g facade_completed
f 92 94 278 279
g facade_completed
f 93 92 279 280
g facade_completed
f 94 93 280 278
g facade_completed
f 95 97 281 282
g facade_completed
f 96 95 282 283
g facade_completed
f 97 96 283 281
g facade_completed
f 98 100 284 285
g facade_completed
f 99 98 285 286
g facade_completed
f 100 99 286 284
g facade_completed
f 103 102 287 288
g facade_completed
f 104 103 288 289
g facade_completed
f 105 104 289 290
g facade_completed
f 106 105 290 291
g facade_completed
f 107 106 291 292
g facade_completed
f 108 107 292 293
g facade_completed
f 109 108 293 294
g facade_completed
f 110 109 294 295
g facade_completed
f 101 110 295 296
g facade_completed
f 102 101 296 287
g facade_completed
f 113 112 297 298
g facade_completed
f 114 113 298 299
g facade_completed
f 127 114 299 300
g facade_completed
f 115 127 300 301
g facade_completed
f 116 115 301 302
g facade_completed
f 117 116 302 303
g facade_completed
f 118 117 303 304
g facade_completed
f 119 118 304 305
g facade_completed
f 120 119 305 306
g facade_completed
f 121 120 306 307
g facade_completed
f 95 121 307 282
g facade_completed
f 122 95 282 308
g facade_completed
f 128 122 308 309
g facade_completed
f 123 128 309 310
g facade_completed
f 97 123 310 281
g facade_completed
f 124 97 281 311
g facade_completed
f 125 124 311 312
g facade_completed
f 126 125 312 313
g facade_completed
f 111 126 313 314
g facade_completed
f 112 111 314 297
g facade_completed
f 129 117 303 315
g facade_completed
f 130 129 315 316
g facade_completed
f 117 130 316 303
g facade_completed
f 132 131 317 318
g facade_completed
f 133 132 318 319
g facade_completed
f 134 133 319 320
g facade_completed
f 135 134 320 321
g facade_completed
f 136 135 321 322
g facade_completed
f 119 136 322 305
g facade_completed
f 137 119 305 323
g facade_completed
f 138 137 323 324
g facade_completed
f 139 138 324 325
g facade_completed
f 140 139 325 326
g facade_completed
f 141 140 326 327
g facade_completed
f 142 141 327 328
g facade_completed
f 143 142 328 329
g facade_completed
f 144 143 329 330
g facade_completed
f 145 144 330 331
g facade_completed
f 146 145 331 332
g facade_completed
f 147 146 332 333
g facade_completed
f 131 147 333 317
g facade_completed
f 148 149 334 335
g facade_completed
f 112 148 335 297
g facade_completed
f 149 112 297 334
g facade_completed
f 153 152 336 337
g facade_completed
f 154 153 337 338
g facade_completed
f 132 154 338 318
g facade_completed
f 155 132 318 339
g facade_completed
f 156 155 339 340
g facade_completed
f 144 156 340 330
g facade_completed
f 157 144 330 341
g facade_completed
f 150 157 341 342
g facade_completed
f 151 150 342 343
g facade_completed
f 152 151 343 336
g facade_completed
f 161 160 344 345
g facade_completed
f 151 161 345 343
g facade_completed
f 162 151 343 346
g facade_completed
f 163 162 346 347
g facade_completed
f 164 163 347 348
g facade_completed
f 57 164 348 241
g facade_completed
f 158 57 241 349
g facade_completed
f 159 158 349 350
g facade_completed
f 160 159 350 344
g facade_completed
f 166 126 313 351
g facade_completed
f 167 166 351 352
g facade_completed
f 168 167 352 353
g facade_completed
f 149 168 353 334
g facade_completed
f 165 149 334 354
g facade_completed
f 126 165 354 313
g facade_completed
f 172 171 355 356
g facade_completed
f 169 172 356 357
g facade_completed
f 170 169 357 358
g facade_completed
f 171 170 358 355
g facade_completed
f 176 175 359 360
g facade_completed
f 177 176 360 361
g facade_completed
f 178 177 361 362
g facade_completed
f 179 178 362 363
g facade_completed
f 173 179 363 364
g facade_completed
f 174 173 364 365
g facade_completed
f 175 174 365 359
g facade_completed
f 182 181 366 367
g facade_completed
f 183 182 367 368
g facade_completed
f 184 183 368 369
g facade_completed
f 185 184 369 370
g facade_completed
f 186 185 370 371
g facade_completed
f 180 186 371 372
g facade_completed
f 181 180 372 366
g ground_assumed
f 189 188 187
g ground_assumed
f 193 191 190
g ground_assumed
f 193 192 191
g ground_assumed
f 196 195 194
g ground_assumed
f 199 198 197
g ground_assumed
f 202 201 200
g ground_assumed
f 203 205 204
g ground_assumed
f 205 207 206
g ground_assumed
f 205 208 207
g ground_assumed
f 205 209 208
g ground_assumed
f 205 210 209
g ground_assumed
f 212 214 213
g ground_assumed
f 212 215 214
g ground_assumed
f 212 216 215
g ground_assumed
f 212 217 216
g ground_assumed
f 218 220 219
g ground_assumed
f 218 221 220
g ground_assumed
f 221 223 222
g ground_assumed
f 221 224 223
g ground_assumed
f 224 226 225
g ground_assumed
f 224 227 226
g ground_assumed
f 224 228 227
g ground_assumed
f 224 229 228
g ground_assumed
f 229 205 203
g ground_assumed
f 229 210 205
g ground_assumed
f 211 217 212
g ground_assumed
f 217 221 218
g ground_assumed
f 217 224 221
g ground_assumed
f 224 210 229
g ground_assumed
f 224 211 210
g ground_assumed
f 224 217 211
g ground_assumed
f 232 231 230
g ground_assumed
f 240 234 233
g ground_assumed
f 240 235 234
g ground_assumed
f 240 236 235
g ground_assumed
f 240 237 236
g ground_assumed
f 240 238 237
g ground_assumed
f 240 239 238
g ground_assumed
f 243 242 241
g ground_assumed
f 245 239 244
g ground_assumed
f 247 249 248
g ground_assumed
f 247 250 249
g ground_assumed
f 247 251 250
g ground_assumed
f 247 252 251
g ground_assumed
f 252 254 253
g ground_assumed
f 254 256 255
g ground_assumed
f 257 246 258
g ground_assumed
f 246 252 247
g ground_assumed
f 246 254 252
g ground_assumed
f 246 256 254
g ground_assumed
f 246 257 256
g ground_assumed
f 273 260 259
g ground_assumed
f 261 263 262
g ground_assumed
f 264 266 265
g ground_assumed
f 267 269 268
g ground_assumed
f 267 270 269
g ground_assumed
f 267 271 270
g ground_assumed
f 267 272 271
g ground_assumed
f 272 260 273
g ground_assumed
f 272 261 260
g ground_assumed
f 272 263 261
g ground_assumed
f 263 266 264
g ground_assumed
f 263 267 266
g ground_assumed
f 263 272 267
g ground_assumed
f 274 276 275
g ground_assumed
f 274 277 276
g ground_assumed
f 280 279 278
g ground_assumed
f 283 282 281
g ground_assumed
f 286 285 284
g ground_assumed
f 296 288 287
g ground_assumed
f 296 289 288
g ground_assumed
f 289 291 290
g ground_assumed
f 289 292 291
g ground_assumed
f 289 293 292
g ground_assumed
f 293 295 294
g ground_assumed
f 293 296 295
g ground_assumed
f 293 289 296
g ground_assumed
f 314 298 297
g ground_assumed
f 314 299 298
g ground_assumed
f 301 303 302
g ground_assumed
f 301 304 303
g ground_assumed
f 301 305 304
g ground_assumed
f 301 306 305
g ground_assumed
f 301 307 306
g ground_assumed
f 307 308 282
g ground_assumed
f 310 311 281
g ground_assumed
f 310 312 311
g ground_assumed
f 310 313 312
g ground_assumed
f 313 299 314
g ground_assumed
f 313 300 299
g ground_assumed
f 301 308 307
g ground_assumed
f 301 309 308
g ground_assumed
f 301 310 309
g ground_assumed
f 310 300 313
g ground_assumed
f 310 301 300
g ground_assumed
f 316 315 303
g ground_assumed
f 317 319 318
g ground_assumed
f 317 320 319
g ground_assumed
f 320 322 321
g ground_assumed
f 320 305 322
g ground_assumed
f 320 323 305
g ground_assumed
f 320 324 323
g ground_assumed
f 320 325 324
g ground_assumed
f 320 326 325
g ground_assumed
f 326 328 327
g ground_assumed
f 326 329 328
g ground_assumed
f 326 330 329
g ground_assumed
f 326 331 330
g ground_assumed
f 326 332 331
g ground_assumed
f 326 333 332
g ground_assumed
f 326 317 333
g ground_assumed
f 326 320 317
g ground_assumed
f 297 335 334
g ground_assumed
f 336 338 337
g ground_assumed
f 336 318 338
g ground_assumed
f 336 339 318
g ground_assumed
f 340 341 330
g ground_assumed
f 340 342 341
g ground_assumed
f 340 343 342
g ground_assumed
f 343 339 336
g ground_assumed
f 343 340 339
g ground_assumed
f 344 343 345
g ground_assumed
f 344 346 343
g ground_assumed
f 344 347 346
g ground_assumed
f 344 348 347
g ground_assumed
f 344 241 348
g ground_assumed
f 344 349 241
g ground_assumed
f 344 350 349
g ground_assumed
f 354 351 313
g ground_assumed
f 354 352 351
g ground_assumed
f 354 353 352
g ground_assumed
f 354 334 353
g ground_assumed
f 358 356 355
g ground_assumed
f 358 357 356
g ground_assumed
f 365 360 359
g ground_assumed
f 365 361 360
g ground_assumed
f 361 363 362
g ground_assumed
f 361 364 363
g ground_assumed
f 361 365 364
g ground_assumed
f 372 367 366
g ground_assumed
f 372 368 367
g ground_assumed
f 372 369 368
g ground_assumed
f 372 370 369
g ground_assumed
f 372 371 370
