v 2682641.5020743501 1247858.3728566379 412.26121097266446
v 2682641.2791535333 1247858.2198666506 412.26115193596394
v 2682641.2479078253 1247858.1271623306 412.26117763432575
v 2682639.7479108488 1247856.8771361143 412.26088554678921
v 2682639.7479210412 1247856.5021451511 412.26106432749344
v 2682640.0020875656 1247856.7478394585 412.26109766618652
v 2682640.0020773737 1247857.1228304212 412.26091888548234
v 2682641.74999564 1247858.4999840662 412.26129714017816
v 2682641.5000053453 1247858.3749969874 412.26120872759287
v 2682641.7500058319 1247858.1249931033 412.26147592088239
v 2682639.9999905326 1247856.2500009171 412.26133376620896
v 2682640.2499910197 1247855.999997033 412.26160095985284
v 2682640.2500063078 1247856.3750126269 412.26142218233821
v 2682642.2479148689 1247857.8771533503 412.26188884997373
v 2682642.4999155635 1247858.1207540219 412.26192190444465
v 2682642.252152252 1247858.3770608963 412.26165303062959
v 2682641.2208485394 1247855.9051701992 412.26222093628706
v 2682641.0291343606 1247855.7198464933 412.26219578935877
v 2682641.5000002491 1247855.7499863538 412.26246018295365
v 2682641.5291489242 1247855.344852133 412.26267058496865
v 2682641.7186972727 1247855.5280822031 412.26269544767479
v 2682641.5021660794 1247855.7520799895 412.26246046682144
v 2682641.5000053453 1247856.4999929108 412.26210262473478
v 2682641.2500031595 1247856.4999946093 412.26195461728196
v 2682641.5000104411 1247857.2499994675 412.26174506651591
v 2682641.529133636 1247856.8448406158 412.26195546498695
v 2682641.7208478143 1247857.0301643217 412.26198061191525
v 2682641.7500007362 1247857.3749865461 412.26183347910126
v 2682641.4978582007 1247857.3729192403 412.26168519097018
v 2682641.2500702576 1247857.6292515949 412.26141629022129
v 2682641.5020709522 1247857.8728522665 412.26144934504663
v 2682641.7500160243 1247857.7500021402 412.26165470194098
v 2682641.7520748368 1247858.1228527534 412.26147816630834
v 2682641.4957679622 1247857.8750894417 412.26144454693701
v 2682641.2563299313 1247858.1227839566 412.26118470763026
v 2682640.7458310518 1247857.6293017063 412.26111774602191
v 2682640.7500038845 1247857.2500045637 412.26130104415745
v 2682640.5000016987 1247857.2500062622 412.26115303670463
v 2682640.5021641315 1247856.7520955268 412.26139169295459
v 2682640.9352511493 1247856.3040744739 412.26186168124065
v 2682640.9978589257 1247856.2479251178 412.261925515342
v 2682641.2500133514 1247856.1250036466 412.26213339798619
v 2682641.2500082557 1247857.2500011665 412.26159705906309
v 2682642.0000097165 1247856.4999895135 412.26239863964042
v 2682641.7500075311 1247856.499991212 412.2622506321876
v 2682642.0000216071 1247856.3750007362 412.26245823415354
v 2682642.4999877578 1247856.2500094108 412.2628138138034
v 2682642.7499916423 1247856.5000098979 412.26284263506511
v 2682642.7499848474 1247857.3750052319 412.26242548197877
v 2682642.499982662 1247857.3750069304 412.26227747488031
v 2682642.499992854 1247857.0000159678 412.26245625558454
v 2682642.2500017099 1247856.8749787777 412.26236786603465
v 2682642.4999775658 1247856.6250003737 412.26263503274481
v 2682642.5000013476 1247856.375022819 412.26275422247983
v 2682641.0000026729 1247854.874994417 412.26258132113441
v 2682641.2500184476 1247855.0000061265 412.26266973690923
v 2682640.7500140765 1247855.0000095242 412.26237372235801
v 2682642.4999979502 1247855.8750184476 412.26299259450758
v 2682642.7499882453 1247856.0000055265 412.26308100709292
v 2682643.2208677228 1247856.1551587954 412.26328580936416
v 2682643.0291535445 1247855.9698350893 412.26326066243587
v 2682643.2500045071 1247855.8750133517 412.26343661651168
v 2682643.2208643258 1247855.6551544243 412.26352418139197
v 2682643.029150147 1247855.4698307179 412.26349903446368
v 2682643.4979359894 1247855.6271498171 412.26370156472956
v 2682643.7521025143 1247855.8728441244 412.26373490342269
v 2682643.4999948018 1247856.0000004303 412.26352502945139
v 2682643.4999897056 1247857.1249979502 412.26298869052829
v 2682643.2500011097 1247857.2500130569 412.26278109175189
v 2682643.2499960135 1247856.5000065002 412.26313864997076
v 2682642.9999938277 1247856.5000081989 412.26299064251793
v 2682643.2499824241 1247856.3749930919 412.26319824129433
v 2682642.0020736251 1247855.7478426069 412.26275844293087
v 2682641.7500729305 1247855.5042419352 412.26272538845996
v 2682641.9999298779 1247855.2457692309 412.26299653428043
v 2682641.7479037028 1247855.0021439283 412.26296347661997
v 2682641.4999951534 1247854.9999797971 412.26281774117251
v 2682641.5000053453 1247854.6249888339 412.26299652187674
v 2682641.0000128648 1247854.5000034543 412.26276010183858
v 2682641.0291377581 1247854.3448467876 412.26285131447293
v 2682641.2229922866 1247854.5322394986 412.26287674207947
v 2682641.497849707 1247854.2479042353 412.26317501871313
v 2682641.5000002491 1247853.8749822772 412.26335408009561
v 2682641.7500143256 1247853.7499918011 412.26356168206155
v 2682641.7770608715 1247853.9720165585 412.26347184517584
v 2682642.2207757444 1247854.4009409363 412.26353004692947
v 2682642.0021755463 1247854.6270790722 412.26329282065012
v 2682642.7478411007 1247854.9979277793 412.26355747082459
v 2682642.5021467935 1247855.252094304 412.26329084208112
v 2682642.5250018206 1247854.4741561837 412.26367525008055
v 2682643.2250235686 1247855.1508438729 412.26376707085109
v 2682644.0020817672 1247856.1228700918 412.26376369810504
v 2682643.7479152428 1247855.8771757844 412.26373035941191
v 2682643.9708360592 1247856.0301657713 412.26378939611249
v 2682637.2500030124 1247854.2500012682 412.26065920352551
v 2682637.0000008265 1247854.250002967 412.26051119607268
v 2682636.9999991283 1247854.0000007814 412.26063038190938
v 2682638.5020897402 1247855.2478611676 412.26092474145128
v 2682638.250006659 1247855.3749919937 412.26071489405933
v 2682638.2479232154 1247855.0021668607 412.26089140275815
v 2682639.2520962972 1247855.2478560717 412.26136876380974
v 2682639.5291543715 1247855.0948380562 412.26160573847091
v 2682639.71870272 1247855.2780681266 412.26163060117705
v 2682639.5000778907 1247855.5042317433 412.26139334831834
v 2682639.8748684083 1247855.8665292433 412.26144250918458
v 2682639.6916383379 1247856.0560775921 412.26124366707342
v 2682639.2479234645 1247855.6271532143 412.26118546567415
v 2682639.2500026613 1247855.2500219019 412.26136649180438
v 2682639.0000004759 1247855.2500236004 412.26121848435156
v 2682638.9979297724 1247855.0021617645 412.26133542511661
v 2682638.0000027744 1247853.2499874299 412.26157996993953
v 2682638.2500049602 1247853.249985731 412.26172797739235
v 2682638.0000163643 1247853.3750008382 412.26152037861596
v 2682637.7500005891 1247853.2499891284 412.26143196248671
v 2682637.7500039865 1247853.7499934998 412.26119359045896
v 2682638.0000180625 1247853.6250030235 412.26140119242484
v 2682638.2500083577 1247853.7499901021 412.26148960501018
v 2682638.0000078706 1247853.9999939867 412.26122241172067
v 2682637.9999976787 1247854.3749849494 412.26104363101649
v 2682637.750007384 1247854.2499978712 412.26095521807679
v 2682637.4999933071 1247854.3749883471 412.26074761611085
v 2682637.5000051982 1247854.2499995697 412.26080721097833
v 2682637.2499996149 1247853.7499968971 412.26089757555332
v 2682636.9999974295 1247853.749998596 412.26074956810049
v 2682637.5000102944 1247853.1250020498 412.26134354990143
v 2682638.0000129668 1247852.8749964668 412.26175875064376
v 2682637.500000102 1247853.499993013 412.26116476919719
v 2682637.5000153901 1247853.8750086066 412.26098599168256
v 2682638.5000224342 1247853.6249996263 412.26169720733049
v 2682638.500010543 1247853.7499884036 412.26163761246301
v 2682638.9999834886 1247854.625005821 412.26151644770289
v 2682639.2499992638 1247854.7500175305 412.26160486383213
v 2682638.9999987767 1247855.0000214146 412.26133767018825
v 2682638.500017338 1247854.7499971464 412.26116086840744
v 2682638.2500168509 1247855.0000010305 412.26089367476351
v 2682638.0000129668 1247854.7500005434 412.2608648535018
v 2682638.2500134539 1247854.4999966593 412.26113204714574
v 2682638.5000003511 1247854.1249793668 412.26145883175883
v 2682638.7499779058 1247854.1250031483 412.26160681263224
v 2682638.9999783929 1247853.8749992638 412.26187400592175
v 2682638.9999834886 1247852.7500017441 412.26241034484485
v 2682639.2499992638 1247852.8750134539 412.2624987609741
v 2682639.25000436 1247853.6250200106 412.26214120275523
v 2682639.4999946547 1247853.7500070892 412.26222961534052
v 2682639.2499941681 1247854.0000109738 412.261962422051
v 2682639.2499958668 1247854.2500131594 412.26184323585994
v 2682638.999993681 1247854.2500148579 412.26169522840712
v 2682638.5000207354 1247853.374997441 412.2618163935216
v 2682638.5000054473 1247852.9999818469 412.26199517068187
v 2682639.9999990263 1247853.7500036918 412.26252563024616
v 2682639.9999905326 1247854.3749968403 412.26222766335087
v 2682639.7499883468 1247854.3749985392 412.26207965589805
v 2682639.750003635 1247854.7500141331 412.26190087873778
v 2682639.4999895589 1247854.8750046093 412.26169327641747
v 2682639.750000238 1247854.2500097617 412.26213925076559
v 2682639.7499849494 1247853.8749941681 412.26231802828022
v 2682639.7499951418 1247853.5000032049 412.26249680898445
v 2682640.7500038845 1247855.3750004868 412.26219494129941
v 2682640.2499859235 1247855.2499904758 412.26195851807171
v 2682640.2499961155 1247854.8749995132 412.26213729877594
v 2682640.0000058208 1247854.7500124343 412.2620488861906
v 2682640.2499944172 1247854.6249973273 412.262256484967
v 2682640.4999949038 1247854.3749934433 412.26252367825651
v 2682640.4999983013 1247854.8749978144 412.26228530622876
v 2682638.2500015628 1247852.74998136 412.26196634942016
v 2682637.9999976787 1247852.4999808727 412.2619375281584
v 2682638.2500134539 1247852.6249925827 412.26202594428764
v 2682638.5000020498 1247852.4999774755 412.26223354306404
v 2682639.7542546075 1247853.4999310107 412.26249936521197
v 2682639.4979222529 1247853.2521430675 412.26246574229668
v 2682639.7791684479 1247853.0948435036 412.26270723757881
v 2682639.9687167965 1247853.278073574 412.26273210063931
v 2682639.5291475765 1247852.2198252373 412.26297637966843
v 2682639.0020754258 1247852.4978337283 412.26253180304133
v 2682638.747908901 1247852.2521394209 412.2624984643482
v 2682638.7855196013 1247851.7843549568 412.26274374417955
v 2682639.2394444523 1247851.3147775249 412.26323634549306
v 2682640.0041098567 1247852.0539540821 412.26333664579448
v 2682639.691788672 1247852.3770449627 412.26299771334169
v 2682640.2499494017 1247852.9957606015 412.26303318724496
v 2682640.0000890568 1247852.7542289346 412.26300041345229
v 2682640.3706872067 1247852.3708515379 412.26340258817226
v 2682640.5020639086 1247852.4978490165 412.26341982082448
v 2682640.5000135894 1247853.3750093314 412.26300042585603
v 2682640.2208729214 1247853.405154288 412.26282079744681
v 2682640.0313245729 1247853.2219242181 412.2627959343863
v 2682641.2479078253 1247858.1271623306 409.56717361459914
v 2682641.5020743501 1247858.3728566379 409.56717361459914
v 2682641.2791535333 1247858.2198666506 409.56717361459914
v 2682640.0020875656 1247856.7478394585 409.56717361459914
v 2682640.0020773737 1247857.1228304212 409.56717361459914
v 2682639.7479108488 1247856.8771361143 409.56717361459914
v 2682639.7479210412 1247856.5021451511 409.56717361459914
v 2682641.7500058319 1247858.1249931033 409.56717361459914
v 2682641.74999564 1247858.4999840662 409.56717361459914
v 2682641.5000053453 1247858.3749969874 409.56717361459914
v 2682640.2500063078 1247856.3750126269 409.56717361459914
v 2682639.9999905326 1247856.2500009171 409.56717361459914
v 2682640.2499910197 1247855.999997033 409.56717361459914
v 2682642.252152252 1247858.3770608963 409.56717361459914
v 2682642.2479148689 1247857.8771533503 409.56717361459914
v 2682642.4999155635 1247858.1207540219 409.56717361459914
v 2682641.2208485394 1247855.9051701992 409.56717361459914
v 2682641.0291343606 1247855.7198464933 409.56717361459914
v 2682641.5000002491 1247855.7499863538 409.56717361459914
v 2682641.5291489242 1247855.344852133 409.56717361459914
v 2682641.7186972727 1247855.5280822031 409.56717361459914
v 2682641.5021660794 1247855.7520799895 409.56717361459914
v 2682641.5000053453 1247856.4999929108 409.56717361459914
v 2682641.2500031595 1247856.4999946093 409.56717361459914
v 2682641.2500082557 1247857.2500011665 409.56717361459914
v 2682641.5000104411 1247857.2499994675 409.56717361459914
v 2682641.529133636 1247856.8448406158 409.56717361459914
v 2682641.7208478143 1247857.0301643217 409.56717361459914
v 2682641.7500007362 1247857.3749865461 409.56717361459914
v 2682641.4978582007 1247857.3729192403 409.56717361459914
v 2682641.2500702576 1247857.6292515949 409.56717361459914
v 2682641.5020709522 1247857.8728522665 409.56717361459914
v 2682641.7500160243 1247857.7500021402 409.56717361459914
v 2682641.7520748368 1247858.1228527534 409.56717361459914
v 2682641.4957679622 1247857.8750894417 409.56717361459914
v 2682641.2563299313 1247858.1227839566 409.56717361459914
v 2682640.7458310518 1247857.6293017063 409.56717361459914
v 2682640.7500038845 1247857.2500045637 409.56717361459914
v 2682640.5000016987 1247857.2500062622 409.56717361459914
v 2682640.5021641315 1247856.7520955268 409.56717361459914
v 2682640.9352511493 1247856.3040744739 409.56717361459914
v 2682640.9978589257 1247856.2479251178 409.56717361459914
v 2682641.2500133514 1247856.1250036466 409.56717361459914
v 2682642.0000216071 1247856.3750007362 409.56717361459914
v 2682642.0000097165 1247856.4999895135 409.56717361459914
v 2682641.7500075311 1247856.499991212 409.56717361459914
v 2682642.7499848474 1247857.3750052319 409.56717361459914
v 2682642.499982662 1247857.3750069304 409.56717361459914
v 2682642.499992854 1247857.0000159678 409.56717361459914
v 2682642.2500017099 1247856.8749787777 409.56717361459914
v 2682642.4999775658 1247856.6250003737 409.56717361459914
v 2682642.5000013476 1247856.375022819 409.56717361459914
v 2682642.4999877578 1247856.2500094108 409.56717361459914
v 2682642.7499916423 1247856.5000098979 409.56717361459914
v 2682640.7500140765 1247855.0000095242 409.56717361459914
v 2682641.0000026729 1247854.874994417 409.56717361459914
v 2682641.2500184476 1247855.0000061265 409.56717361459914
v 2682642.7499882453 1247856.0000055265 409.56717361459914
v 2682642.4999979502 1247855.8750184476 409.56717361459914
v 2682643.2500045071 1247855.8750133517 409.56717361459914
v 2682643.2208643258 1247855.6551544243 409.56717361459914
v 2682643.029150147 1247855.4698307179 409.56717361459914
v 2682643.4979359894 1247855.6271498171 409.56717361459914
v 2682643.7521025143 1247855.8728441244 409.56717361459914
v 2682643.4999948018 1247856.0000004303 409.56717361459914
v 2682643.4999897056 1247857.1249979502 409.56717361459914
v 2682643.2500011097 1247857.2500130569 409.56717361459914
v 2682643.2499960135 1247856.5000065002 409.56717361459914
v 2682642.9999938277 1247856.5000081989 409.56717361459914
v 2682643.2499824241 1247856.3749930919 409.56717361459914
v 2682643.2208677228 1247856.1551587954 409.56717361459914
v 2682643.0291535445 1247855.9698350893 409.56717361459914
v 2682641.7500729305 1247855.5042419352 409.56717361459914
v 2682641.9999298779 1247855.2457692309 409.56717361459914
v 2682641.7479037028 1247855.0021439283 409.56717361459914
v 2682641.4999951534 1247854.9999797971 409.56717361459914
v 2682641.5000053453 1247854.6249888339 409.56717361459914
v 2682641.0000128648 1247854.5000034543 409.56717361459914
v 2682641.0291377581 1247854.3448467876 409.56717361459914
v 2682641.2229922866 1247854.5322394986 409.56717361459914
v 2682641.497849707 1247854.2479042353 409.56717361459914
v 2682641.5000002491 1247853.8749822772 409.56717361459914
v 2682641.7500143256 1247853.7499918011 409.56717361459914
v 2682641.7770608715 1247853.9720165585 409.56717361459914
v 2682642.2207757444 1247854.4009409363 409.56717361459914
v 2682642.0021755463 1247854.6270790722 409.56717361459914
v 2682642.0020736251 1247855.7478426069 409.56717361459914
v 2682642.5250018206 1247854.4741561837 409.56717361459914
v 2682643.2250235686 1247855.1508438729 409.56717361459914
v 2682642.7478411007 1247854.9979277793 409.56717361459914
v 2682642.5021467935 1247855.252094304 409.56717361459914
v 2682643.9708360592 1247856.0301657713 409.56717361459914
v 2682644.0020817672 1247856.1228700918 409.56717361459914
v 2682643.7479152428 1247855.8771757844 409.56717361459914
v 2682636.9999991283 1247854.0000007814 409.56717361459914
v 2682637.2500030124 1247854.2500012682 409.56717361459914
v 2682637.0000008265 1247854.250002967 409.56717361459914
v 2682638.2479232154 1247855.0021668607 409.56717361459914
v 2682638.5020897402 1247855.2478611676 409.56717361459914
v 2682638.250006659 1247855.3749919937 409.56717361459914
v 2682639.5291543715 1247855.0948380562 409.56717361459914
v 2682639.71870272 1247855.2780681266 409.56717361459914
v 2682639.5000778907 1247855.5042317433 409.56717361459914
v 2682639.8748684083 1247855.8665292433 409.56717361459914
v 2682639.6916383379 1247856.0560775921 409.56717361459914
v 2682639.2479234645 1247855.6271532143 409.56717361459914
v 2682639.2500026613 1247855.2500219019 409.56717361459914
v 2682639.0000004759 1247855.2500236004 409.56717361459914
v 2682638.9979297724 1247855.0021617645 409.56717361459914
v 2682639.2520962972 1247855.2478560717 409.56717361459914
v 2682638.2500049602 1247853.249985731 409.56717361459914
v 2682638.0000163643 1247853.3750008382 409.56717361459914
v 2682637.7500005891 1247853.2499891284 409.56717361459914
v 2682637.500000102 1247853.499993013 409.56717361459914
v 2682637.7500039865 1247853.7499934998 409.56717361459914
v 2682638.0000180625 1247853.6250030235 409.56717361459914
v 2682638.2500083577 1247853.7499901021 409.56717361459914
v 2682638.0000078706 1247853.9999939867 409.56717361459914
v 2682637.9999976787 1247854.3749849494 409.56717361459914
v 2682637.750007384 1247854.2499978712 409.56717361459914
v 2682637.4999933071 1247854.3749883471 409.56717361459914
v 2682637.5000051982 1247854.2499995697 409.56717361459914
v 2682637.5000153901 1247853.8750086066 409.56717361459914
v 2682637.2499996149 1247853.7499968971 409.56717361459914
v 2682636.9999974295 1247853.749998596 409.56717361459914
v 2682637.5000102944 1247853.1250020498 409.56717361459914
v 2682638.0000129668 1247852.8749964668 409.56717361459914
v 2682638.0000027744 1247853.2499874299 409.56717361459914
v 2682638.5000224342 1247853.6249996263 409.56717361459914
v 2682638.500010543 1247853.7499884036 409.56717361459914
v 2682638.9999834886 1247854.625005821 409.56717361459914
v 2682639.2499992638 1247854.7500175305 409.56717361459914
v 2682638.9999987767 1247855.0000214146 409.56717361459914
v 2682638.500017338 1247854.7499971464 409.56717361459914
v 2682638.2500168509 1247855.0000010305 409.56717361459914
v 2682638.0000129668 1247854.7500005434 409.56717361459914
v 2682638.2500134539 1247854.4999966593 409.56717361459914
v 2682638.5000003511 1247854.1249793668 409.56717361459914
v 2682638.7499779058 1247854.1250031483 409.56717361459914
v 2682638.9999783929 1247853.8749992638 409.56717361459914
v 2682638.9999834886 1247852.7500017441 409.56717361459914
v 2682639.2499992638 1247852.8750134539 409.56717361459914
v 2682639.25000436 1247853.6250200106 409.56717361459914
v 2682639.4999946547 1247853.7500070892 409.56717361459914
v 2682639.2499941681 1247854.0000109738 409.56717361459914
v 2682639.2499958668 1247854.2500131594 409.56717361459914
v 2682638.999993681 1247854.2500148579 409.56717361459914
v 2682638.5000054473 1247852.9999818469 409.56717361459914
v 2682638.5000207354 1247853.374997441 409.56717361459914
v 2682639.7499883468 1247854.3749985392 409.56717361459914
v 2682639.750003635 1247854.7500141331 409.56717361459914
v 2682639.4999895589 1247854.8750046093 409.56717361459914
v 2682639.750000238 1247854.2500097617 409.56717361459914
v 2682639.7499849494 1247853.8749941681 409.56717361459914
v 2682639.7499951418 1247853.5000032049 409.56717361459914
v 2682639.9999990263 1247853.7500036918 409.56717361459914
v 2682639.9999905326 1247854.3749968403 409.56717361459914
v 2682640.2499961155 1247854.8749995132 409.56717361459914
v 2682640.0000058208 1247854.7500124343 409.56717361459914
v 2682640.2499944172 1247854.6249973273 409.56717361459914
v 2682640.4999949038 1247854.3749934433 409.56717361459914
v 2682640.4999983013 1247854.8749978144 409.56717361459914
v 2682640.7500038845 1247855.3750004868 409.56717361459914
v 2682640.2499859235 1247855.2499904758 409.56717361459914
v 2682637.9999976787 1247852.4999808727 409.56717361459914
v 2682638.2500134539 1247852.6249925827 409.56717361459914
v 2682638.5000020498 1247852.4999774755 409.56717361459914
v 2682638.2500015628 1247852.74998136 409.56717361459914
v 2682639.7791684479 1247853.0948435036 409.56717361459914
v 2682639.9687167965 1247853.278073574 409.56717361459914
v 2682639.7542546075 1247853.4999310107 409.56717361459914
v 2682639.4979222529 1247853.2521430675 409.56717361459914
v 2682638.747908901 1247852.2521394209 409.56717361459914
v 2682638.7855196013 1247851.7843549568 409.56717361459914
v 2682639.2394444523 1247851.3147775249 409.56717361459914
v 2682640.0041098567 1247852.0539540821 409.56717361459914
v 2682639.691788672 1247852.3770449627 409.56717361459914
v 2682639.5291475765 1247852.2198252373 409.56717361459914
v 2682639.0020754258 1247852.4978337283 409.56717361459914
v 2682640.0000890568 1247852.7542289346 409.56717361459914
v 2682640.3706872067 1247852.3708515379 409.56717361459914
v 2682640.5020639086 1247852.4978490165 409.56717361459914
v 2682640.5000135894 1247853.3750093314 409.56717361459914
v 2682640.2208729214 1247853.405154288 409.56717361459914
v 2682640.0313245729 1247853.2219242181 409.56717361459914
v 2682640.2499494017 1247852.9957606015 409.56717361459914
l 1 2
l 2 3
l 1 3
l 4 5
l 5 6
l 6 7
l 4 7
l 8 9
l 9 10
l 8 10
l 11 12
l 12 13
l 11 13
l 14 15
l 15 16
l 14 16
l 17 18
l 18 19
l 19 20
l 20 21
l 21 22
l 22 23
l 23 24
l 25 26
l 26 27
l 27 28
l 28 29
l 29 30
l 31 32
l 32 33
l 33 34
l 34 35
l 35 36
l 36 37
l 37 38
l 38 39
l 39 40
l 40 41
l 41 42
l 17 42
l 25 43
l 30 31
l 24 43
l 44 45
l 45 46
l 44 46
l 47 48
l 48 49
l 49 50
l 50 51
l 51 52
l 52 53
l 53 54
l 47 54
l 55 56
l 56 57
l 55 57
l 47 58
l 58 59
l 47 59
l 60 61
l 61 62
l 63 64
l 64 65
l 65 66
l 66 67
l 67 68
l 68 69
l 69 70
l 70 71
l 71 72
l 60 72
l 62 63
l 73 74
l 74 75
l 76 77
l 77 78
l 79 80
l 80 81
l 82 83
l 83 84
l 84 85
l 85 86
l 86 87
l 73 87
l 75 76
l 78 79
l 81 82
l 88 89
l 89 90
l 90 91
l 88 91
l 92 93
l 93 94
l 92 94
l 95 96
l 96 97
l 95 97
l 98 99
l 99 100
l 98 100
l 101 102
l 102 103
l 103 104
l 104 105
l 105 106
l 106 107
l 107 108
l 108 109
l 109 110
l 101 110
l 111 112
l 112 113
l 113 114
l 115 116
l 116 117
l 117 118
l 118 119
l 119 120
l 120 121
l 95 121
l 95 122
l 97 123
l 97 124
l 124 125
l 125 126
l 111 126
l 114 127
l 122 128
l 123 128
l 115 127
l 129 130
l 117 130
l 117 129
l 131 132
l 132 133
l 133 134
l 134 135
l 135 136
l 119 136
l 119 137
l 137 138
l 138 139
l 139 140
l 140 141
l 141 142
l 142 143
l 143 144
l 144 145
l 145 146
l 146 147
l 131 147
l 112 148
l 112 149
l 148 149
l 150 151
l 151 152
l 152 153
l 153 154
l 132 154
l 132 155
l 144 156
l 144 157
l 150 157
l 155 156
l 158 159
l 159 160
l 160 161
l 151 161
l 151 162
l 162 163
l 163 164
l 57 164
l 57 158
l 126 165
l 126 166
l 166 167
l 167 168
l 149 168
l 149 165
l 169 170
l 170 171
l 171 172
l 169 172
l 173 174
l 174 175
l 175 176
l 176 177
l 177 178
l 178 179
l 173 179
l 180 181
l 181 182
l 182 183
l 183 184
l 184 185
l 185 186
l 180 186
l 3 187
l 187 188
l 1 188
l 188 189
l 2 189
l 187 189
l 6 190
l 190 191
l 7 191
l 191 192
l 4 192
l 192 193
l 5 193
l 190 193
l 10 194
l 194 195
l 8 195
l 195 196
l 9 196
l 194 196
l 13 197
l 197 198
l 11 198
l 198 199
l 12 199
l 197 199
l 16 200
l 200 201
l 14 201
l 201 202
l 15 202
l 200 202
l 17 203
l 203 204
l 18 204
l 204 205
l 19 205
l 205 206
l 20 206
l 206 207
l 21 207
l 207 208
l 22 208
l 208 209
l 23 209
l 209 210
l 24 210
l 210 211
l 43 211
l 211 212
l 25 212
l 212 213
l 26 213
l 213 214
l 27 214
l 214 215
l 28 215
l 215 216
l 29 216
l 216 217
l 30 217
l 217 218
l 31 218
l 218 219
l 32 219
l 219 220
l 33 220
l 220 221
l 34 221
l 221 222
l 35 222
l 222 223
l 36 223
l 223 224
l 37 224
l 224 225
l 38 225
l 225 226
l 39 226
l 226 227
l 227 228
l 41 228
l 228 229
l 42 229
l 203 229
l 46 230
l 230 231
l 44 231
l 231 232
l 45 232
l 230 232
l 49 233
l 233 234
l 50 234
l 234 235
l 51 235
l 235 236
l 52 236
l 236 237
l 53 237
l 237 238
l 238 239
l 47 239
l 239 240
l 48 240
l 233 240
l 57 241
l 241 242
l 55 242
l 242 243
l 56 243
l 241 243
l 59 244
l 239 244
l 239 245
l 58 245
l 244 245
l 62 246
l 246 247
l 63 247
l 247 248
l 64 248
l 248 249
l 65 249
l 249 250
l 66 250
l 250 251
l 67 251
l 251 252
l 68 252
l 252 253
l 69 253
l 253 254
l 70 254
l 254 255
l 71 255
l 255 256
l 72 256
l 256 257
l 60 257
l 257 258
l 61 258
l 246 258
l 74 259
l 259 260
l 75 260
l 260 261
l 76 261
l 261 262
l 77 262
l 262 263
l 78 263
l 263 264
l 79 264
l 264 265
l 80 265
l 265 266
l 81 266
l 266 267
l 82 267
l 267 268
l 83 268
l 268 269
l 84 269
l 269 270
l 85 270
l 270 271
l 86 271
l 271 272
l 87 272
l 272 273
l 73 273
l 259 273
l 90 274
l 274 275
l 91 275
l 275 276
l 88 276
l 276 277
l 89 277
l 274 277
l 94 278
l 278 279
l 92 279
l 279 280
l 93 280
l 278 280
l 97 281
l 281 282
l 95 282
l 282 283
l 96 283
l 281 283
l 100 284
l 284 285
l 98 285
l 285 286
l 99 286
l 284 286
l 102 287
l 287 288
l 103 288
l 288 289
l 104 289
l 289 290
l 105 290
l 290 291
l 106 291
l 291 292
l 107 292
l 292 293
l 108 293
l 293 294
l 109 294
l 294 295
l 110 295
l 295 296
l 101 296
l 287 296
l 112 297
l 297 298
l 113 298
l 298 299
l 114 299
l 299 300
l 127 300
l 300 301
l 115 301
l 301 302
l 116 302
l 302 303
l 117 303
l 303 304
l 118 304
l 304 305
l 119 305
l 305 306
l 120 306
l 306 307
l 121 307
l 282 307
l 282 308
l 122 308
l 308 309
l 128 309
l 309 310
l 123 310
l 281 310
l 281 311
l 124 311
l 311 312
l 125 312
l 312 313
l 126 313
l 313 314
l 111 314
l 297 314
l 303 315
l 129 315
l 315 316
l 130 316
l 303 316
l 131 317
l 317 318
l 132 318
l 318 319
l 133 319
l 319 320
l 134 320
l 320 321
l 135 321
l 321 322
l 136 322
l 305 322
l 305 323
l 137 323
l 323 324
l 138 324
l 324 325
l 139 325
l 325 326
l 140 326
l 326 327
l 141 327
l 327 328
l 142 328
l 328 329
l 143 329
l 329 330
l 144 330
l 330 331
l 145 331
l 331 332
l 146 332
l 332 333
l 147 333
l 317 333
l 149 334
l 334 335
l 148 335
l 297 335
l 297 334
l 152 336
l 336 337
l 153 337
l 337 338
l 154 338
l 318 338
l 318 339
l 155 339
l 339 340
l 156 340
l 330 340
l 330 341
l 157 341
l 341 342
l 150 342
l 342 343
l 151 343
l 336 343
l 160 344
l 344 345
l 161 345
l 343 345
l 343 346
l 162 346
l 346 347
l 163 347
l 347 348
l 164 348
l 241 348
l 241 349
l 158 349
l 349 350
l 159 350
l 344 350
l 313 351
l 166 351
l 351 352
l 167 352
l 352 353
l 168 353
l 334 353
l 334 354
l 165 354
l 313 354
l 171 355
l 355 356
l 172 356
l 356 357
l 169 357
l 357 358
l 170 358
l 355 358
l 175 359
l 359 360
l 176 360
l 360 361
l 177 361
l 361 362
l 178 362
l 362 363
l 179 363
l 363 364
l 173 364
l 364 365
l 174 365
l 359 365
l 181 366
l 366 367
l 182 367
l 367 368
l 183 368
l 368 369
l 184 369
l 369 370
l 185 370
l 370 371
l 186 371
l 371 372
l 180 372
l 366 372
