v 2680955.8452352956 1250339.2559411738 524.22656854615809
v 2680947.4040588238 1250341.366235293 524.24569925085962
v 2680944.9782941164 1250331.6631764681 524.18872691477168
v 2680953.4194705877 1250329.5528823542 524.16959620476484
v 2680955.8452352956 1250339.2559411738 519.43049023408298
v 2680947.4040588238 1250341.366235293 519.43049023408298
v 2680944.9782941164 1250331.6631764681 519.43049023408298
v 2680953.4194705877 1250329.5528823542 519.43049023408298
l 1 2
l 2 3
l 3 4
l 1 4
l 1 5
l 5 6
l 2 6
l 6 7
l 3 7
l 7 8
l 4 8
l 5 8
