# Source coordinates; no display transform
v 2685276.29653 1252428.31977 429.946021759
v 2685288.23519 1252427.89339 429.954390842
v 2685288.32819 1252430.49721 429.909778259
v 2685276.38952 1252430.92359 429.901409176
v 2685276.29653 1252428.31977 429.787318483
v 2685288.23519 1252427.89339 429.787318483
v 2685288.32819 1252430.49721 429.787318483
v 2685276.38952 1252430.92359 429.787318483
g roof
f 1 2 3 4
g wall
f 2 1 5 6
g wall
f 3 2 6 7
g wall
f 4 3 7 8
g wall
f 1 4 8 5
g ground_assumed
f 8 7 6 5
