# Source coordinates; no display transform
v 0.3564438721 -0.352483514953 0.279106788239
v 0.498786530916 0.0988294507741 0.279137565735
v 0.494775449925 0.103020016386 0.279136698011
v 0.189308986075 0.283596707085 0.279070614298
v 0.00182605645481 0.343462483909 0.279030056978
v -0.0208123610872 0.34995122721 0.279025159607
v -0.35398181756 0.367821608495 0.278953088453
v -0.356908189976 0.36637402953 0.278952455587
v -0.360907565595 0.363377423918 0.27895159075
v -0.498037379678 -0.073050060282 0.278921940381
v -0.499465449529 -0.0867415818092 0.278921631889
v -0.284384876599 -0.25224160147 0.278968162693
v 0.0888134536264 -0.369038979442 0.279048895688
v 0.3564438721 -0.352483514953 -0.362012747182
v 0.498786530916 0.0988294507741 -0.362012747182
v 0.494775449925 0.103020016386 -0.362012747182
v 0.189308986075 0.283596707085 -0.362012747182
v 0.00182605645481 0.343462483909 -0.362012747182
v -0.0208123610872 0.34995122721 -0.362012747182
v -0.35398181756 0.367821608495 -0.362012747182
v -0.356908189976 0.36637402953 -0.362012747182
v -0.360907565595 0.363377423918 -0.362012747182
v -0.498037379678 -0.073050060282 -0.362012747182
v -0.499465449529 -0.0867415818092 -0.362012747182
v -0.284384876599 -0.25224160147 -0.362012747182
v 0.0888134536264 -0.369038979442 -0.362012747182
g roof
f 1 2 3 4 5 6 7 8 9 10 11 12 13
g wall
f 2 1 14 15
g wall
f 3 2 15 16
g wall
f 4 3 16 17
g wall
f 5 4 17 18
g wall
f 6 5 18 19
g wall
f 7 6 19 20
g wall
f 8 7 20 21
g wall
f 9 8 21 22
g wall
f 10 9 22 23
g wall
f 11 10 23 24
g wall
f 12 11 24 25
g wall
f 13 12 25 26
g wall
f 1 13 26 14
g ground_assumed
f 26 25 24 23 22 21 20 19 18 17 16 15 14
