# XYZ-only planar convex-roof baseline. Provisional base; no GT.
v 7.41346064 -7.31142883 5.75361167
v 10.37112664 2.06617466 5.75425118
v 10.28778242 2.15324830 5.75423315
v 3.94064951 5.90535988 5.75286003
v 0.04503669 7.14928053 5.75201731
v -0.42535552 7.28410684 5.75191555
v -7.34811488 7.65542644 5.75041802
v -7.40892049 7.62534793 5.75040487
v -7.49202149 7.56308298 5.75038690
v -10.34137243 -1.50522263 5.74977081
v -10.37104557 -1.78971182 5.74976440
v -5.90199530 -5.22855289 5.75073124
v 1.85250375 -7.65542644 5.75240875
v 7.41346064 -7.31142883 -7.56788638
v 10.37112664 2.06617466 -7.56788638
v 10.28778242 2.15324830 -7.56788638
v 3.94064951 5.90535988 -7.56788638
v 0.04503669 7.14928053 -7.56788638
v -0.42535552 7.28410684 -7.56788638
v -7.34811488 7.65542644 -7.56788638
v -7.40892049 7.62534793 -7.56788638
v -7.49202149 7.56308298 -7.56788638
v -10.34137243 -1.50522263 -7.56788638
v -10.37104557 -1.78971182 -7.56788638
v -5.90199530 -5.22855289 -7.56788638
v 1.85250375 -7.65542644 -7.56788638
g roof
f 1 2 3 4 5 6 7 8 9 10 11 12 13
g wall
f 2 1 14 15
g wall
f 3 2 15 16
g wall
f 4 3 16 17
g wall
f 5 4 17 18
g wall
f 6 5 18 19
g wall
f 7 6 19 20
g wall
f 8 7 20 21
g wall
f 9 8 21 22
g wall
f 10 9 22 23
g wall
f 11 10 23 24
g wall
f 12 11 24 25
g wall
f 13 12 25 26
g wall
f 1 13 26 14
g ground_assumed
f 26 25 24 23 22 21 20 19 18 17 16 15 14
