# Source coordinates; no display transform
v 0.0199270747966 0.0603095996452 0.286035200677
v 0.151515430557 0.0343859987941 0.28610647657
v 0.151597651461 0.034803352561 0.286106365351
v 0.0200092957008 0.060726953412 0.286035089458
v 0.00456251749325 0.0637700502658 0.286026722606
v -0.12565185346 0.0894229688284 0.285956190928
v -0.231364276536 0.11024887429 0.285898930971
v -0.231446497393 0.109831520571 0.28589904219
v -0.125734074364 0.0890056150615 0.285956302147
v -0.125900363785 0.0881615288554 0.285956527071
v -0.228555318906 0.10838509697 0.285900923211
v -0.243587355392 0.0127694958657 0.285928193039
v -0.224634505983 0.0090356844283 0.285938459026
v -0.22365010322 0.00977218309953 0.285938657996
v -0.144418541285 -0.00583685292313 0.285981574383
v -0.0142041703798 -0.0314897715335 0.28605210606
v 0.00124260787554 -0.0345328683873 0.286060472912
v 0.109116829596 -0.0557846595998 0.286118903848
v 0.0494595669269 -0.358605288272 0.286199595072
v 0.0731737009193 -0.363277097863 0.286212440031
v 0.10093475957 -0.368746172993 0.286227477011
v 0.349072667834 -0.417630651039 0.286361882903
v 0.427414397472 -0.0199675543818 0.28625591949
v 0.427496618376 -0.019550200615 0.286255808271
v 0.27138286789 0.0112050324859 0.286171247992
v 0.24115520171 0.0171600423074 0.28615487495
v 0.241072980806 0.0167426885406 0.286154986121
v 0.240402401211 0.0168747963043 0.286154622927
v 0.240484622067 0.0172921500233 0.286154511708
v 0.179358710064 0.0293342774301 0.28612140238
v 0.17927648916 0.0289169236632 0.286121513599
v 0.17911019974 0.0280728374571 0.286121738474
v 0.151349141089 0.0335419125402 0.286106701494
v 0.0197607853764 0.0594655133913 0.2860354256
v -0.255706575585 0.325893448074 0.197599410807
v -0.250307461793 0.353299382546 0.19765003218
v -0.471451110014 0.157113696401 0.197335833104
v -0.46749612074 0.156334542638 0.197333309384
v -0.469896972652 0.154157499249 0.197329808734
v -0.322032504935 -0.0160766110969 0.19696748371
v -0.284806679883 -0.0234102951809 0.196943729396
v -0.244837548959 0.00481727914166 0.196986785392
v -0.243587355392 0.0127694958657 0.197001557445
v -0.228555318906 0.10838509697 0.197179172994
v -0.125900363785 0.0881615288554 0.197113667583
v -0.125734074364 0.0890056150615 0.197115226705
v -0.231446497393 0.109831520571 0.197182683107
v 0.151515430557 0.0343859987941 0.196938310302
v 0.0199270747966 0.0603095996452 0.197022278496
v 0.0197607853764 0.0594655133913 0.197020719375
v 0.151349141089 0.0335419125402 0.19693675118
v 0.17911019974 0.0280728374571 0.196919036484
v 0.17927648916 0.0289169236632 0.196920595605
v 0.179358710064 0.0293342774301 0.196921366491
v 0.240484622067 0.0172921500233 0.196882361266
v 0.24115520171 0.0171600423074 0.196881933405
v 0.269151877646 0.15927133989 0.197144426591
v 0.268481298003 0.159403447606 0.1971448545
v 0.268772304548 0.160880598526 0.197147582926
v 0.207646392545 0.172922725933 0.197186588151
v 0.179885333894 0.178391801064 0.197204302848
v 0.0482969781814 0.204315401867 0.197288270994
v 0.0328501999261 0.207358498768 0.197298127808
v -0.0973641709795 0.233011417331 0.197381219251
v -0.176637937203 0.248628767822 0.197431804825
v 0.151597651461 0.034803352561 0.196939081187
v -0.231364276536 0.11024887429 0.197183454041
v -0.12565185346 0.0894229688284 0.19711599759
v 0.00456251749325 0.0637700502658 0.197032906148
v 0.0200092957008 0.060726953412 0.197023049382
v -0.163054449092 0.27774329288 0.105898911073
v -0.244900265148 0.358096330622 0.10579178347
v -0.246522717646 0.356656985798 0.105799831864
v -0.250307461793 0.353299382546 0.105818606654
v -0.255706575585 0.325893448074 0.105921259449
v -0.176637937203 0.248628767822 0.1060235382
v -0.0973641709795 0.233011417331 0.105918603623
v 0.0328501999261 0.207358498768 0.105746239026
v 0.0482969781814 0.204315401867 0.105725792128
v 0.179885333894 0.178391801064 0.105551608787
v 0.207646392545 0.172922725933 0.105514861494
v 0.268772304548 0.160880598526 0.10543394917
v 0.268481298003 0.159403447606 0.105439482064
v 0.269151877646 0.15927133989 0.105438594415
v 0.24115520171 0.0171600423074 0.105970892326
v 0.27138286789 0.0112050324859 0.105930880012
v 0.306024654877 0.18704695413 0.105272239277
v 0.214000497051 0.205176199122 0.105394051564
v 0.214520613494 0.20781631331 0.105384162632
v 0.186759554843 0.213285388393 0.105420909925
v 0.122215093536 0.226000988045 0.105506347338
v 0.121694977141 0.223360873857 0.10551623627
v 0.121369788843 0.221710216326 0.105522419033
v -0.0913352547224 0.263614232941 0.105803976456
v 0.0543258944385 0.234918217525 0.105611164961
v 0.0388791161832 0.237961314379 0.105631611859
v -0.469896972652 0.154157499249 0.10692245566
v -0.46749612074 0.156334542638 0.106910387706
v -0.471451109536 0.157113696305 0.106915622933
v -0.50216712697 0.129864246059 0.107067994301
v -0.498748317231 0.126073895843 0.107073924754
v -0.496092514425 0.123129472658 0.107078531668
v -0.325270363799 -0.0662568410606 0.10737484843
v -0.224634505983 0.0090356844283 0.106922546566
v -0.243587355392 0.0127694958657 0.106947634456
v -0.244837548959 0.00481727914166 0.10697679257
v -0.284806679883 -0.0234102951809 0.107150808867
v -0.322032504935 -0.0160766110969 0.107200084667
v 0.241072980806 0.0167426885406 0.105972455557
v 0.240484622067 0.0172921500233 0.105971779975
v 0.240402401211 0.0168747963043 0.105973343206
v 0.224602413684 0.40537597021 0.0233611134839
v 0.160057952376 0.418091569909 0.0234086603473
v 0.13388861269 0.285255842257 0.0233753847887
v 0.122215093536 0.226000988045 0.0233605413298
v 0.186759554843 0.213285388393 0.0233129944664
v 0.214520613494 0.20781631331 0.0232925441743
v 0.214000497051 0.205176199122 0.0232918828347
v 0.306024654877 0.18704695413 0.0232240929184
v 0.27138286789 0.0112050324859 0.02318004422
v 0.427496618376 -0.019550200615 0.0230650424834
v 0.500501380551 0.351022417082 0.023157871539
v 0.252363472287 0.399906895127 0.0233406631918
v -0.224634504741 0.00903568418933 -0.284937627735
v -0.22365010322 0.00977218309953 -0.284937627735
v -0.144418541285 -0.00583685292313 -0.284937627735
v -0.0142041703798 -0.0314897715335 -0.284937627735
v 0.00124260787554 -0.0345328683873 -0.284937627735
v 0.109116829596 -0.0557846595998 -0.284937627735
v 0.0494595669269 -0.358605288272 -0.284937627735
v 0.0731737009193 -0.363277097863 -0.284937627735
v 0.10093475957 -0.368746172993 -0.284937627735
v 0.349072667834 -0.417630651039 -0.284937627735
v 0.427414397472 -0.0199675543818 -0.284937627735
v 0.427496618376 -0.019550200615 -0.284937627735
v -0.250307461698 0.353299383024 -0.284937627735
v -0.471451109536 0.157113696305 -0.284937627735
v -0.163054449092 0.27774329288 -0.284937627735
v -0.244900265148 0.358096330622 -0.284937627735
v -0.246522719175 0.35665698489 -0.284937627735
v 0.122215093536 0.226000988045 -0.284937627735
v 0.121694977141 0.223360873857 -0.284937627735
v 0.121369788843 0.221710216326 -0.284937627735
v 0.0543258944385 0.234918217525 -0.284937627735
v 0.0388791161832 0.237961314379 -0.284937627735
v -0.0913352547224 0.263614232941 -0.284937627735
v -0.50216712697 0.129864246059 -0.284937627735
v -0.498748315558 0.1260738946 -0.284937627735
v -0.49609251323 0.12312947175 -0.284937627735
v -0.325270363799 -0.0662568410606 -0.284937627735
v 0.224602413684 0.40537597021 -0.284937627735
v 0.160057952376 0.418091569909 -0.284937627735
v 0.13388861269 0.285255842257 -0.284937627735
v 0.500501380551 0.351022417082 -0.284937627735
v 0.252363472287 0.399906895127 -0.284937627735
g roof
f 1 2 3
g roof
f 1 3 4
g roof
f 1 4 5
g roof
f 1 5 6
g roof
f 1 6 7
g roof
f 7 8 9
g roof
f 10 11 12
g roof
f 10 12 13
g roof
f 10 13 14
g roof
f 10 14 15
g roof
f 10 15 16
g roof
f 10 16 17
g roof
f 10 17 18
g roof
f 18 19 20
g roof
f 18 20 21
g roof
f 18 21 22
g roof
f 18 22 23
g roof
f 18 23 24
g roof
f 18 24 25
g roof
f 25 26 27
g roof
f 28 29 30
g roof
f 28 30 31
g roof
f 28 31 32
g roof
f 1 7 9
g roof
f 1 9 10
g roof
f 18 25 27
g roof
f 18 27 28
g roof
f 18 28 32
g roof
f 18 32 33
g roof
f 18 33 34
g roof
f 34 1 10
g roof
f 34 10 18
g roof
f 35 36 37
g roof
f 35 37 38
g roof
f 35 38 39
g roof
f 35 39 40
g roof
f 35 40 41
g roof
f 35 41 42
g roof
f 35 42 43
g roof
f 44 45 46
g roof
f 44 46 47
g roof
f 48 49 50
g roof
f 48 50 51
g roof
f 48 51 52
g roof
f 48 52 53
g roof
f 48 53 54
g roof
f 55 56 57
g roof
f 55 57 58
g roof
f 58 59 60
g roof
f 58 60 61
g roof
f 58 61 62
g roof
f 58 62 63
g roof
f 58 63 64
g roof
f 58 64 65
g roof
f 43 44 47
g roof
f 66 48 54
g roof
f 54 55 58
g roof
f 54 58 65
g roof
f 35 43 47
g roof
f 35 47 67
g roof
f 35 67 68
g roof
f 35 68 69
g roof
f 66 54 65
g roof
f 65 35 69
g roof
f 65 69 70
g roof
f 65 70 66
g roof
f 71 72 73
g roof
f 71 73 74
g roof
f 71 74 75
g roof
f 71 75 76
g roof
f 71 76 77
g roof
f 71 77 78
g roof
f 71 78 79
g roof
f 71 79 80
g roof
f 71 80 81
g roof
f 71 81 82
g roof
f 82 83 84
g roof
f 84 85 86
g roof
f 84 86 87
g roof
f 88 89 90
g roof
f 88 90 91
g roof
f 88 91 92
g roof
f 88 92 93
g roof
f 94 71 82
g roof
f 82 84 87
g roof
f 82 87 88
g roof
f 82 88 93
g roof
f 82 93 95
g roof
f 82 95 96
g roof
f 82 96 94
g roof
f 97 98 99
g roof
f 97 99 100
g roof
f 97 100 101
g roof
f 97 101 102
g roof
f 97 102 103
g roof
f 104 105 106
g roof
f 104 106 107
g roof
f 108 97 103
g roof
f 103 104 107
g roof
f 103 107 108
g roof
f 109 85 110
g roof
f 109 110 111
g roof
f 112 113 114
g roof
f 112 114 115
g roof
f 112 115 116
g roof
f 112 116 117
g roof
f 117 118 119
g roof
f 119 120 121
g roof
f 119 121 122
g roof
f 119 122 123
g roof
f 119 123 112
g roof
f 119 112 117
g roof_step_or_fixture_side
f 4 3 66 70
g roof_step_or_fixture_side
f 5 4 70 69
g roof_step_or_fixture_side
f 6 5 69 68
g roof_step_or_fixture_side
f 7 6 68 67
g roof_step_or_fixture_side
f 8 7 67 47
g roof_step_or_fixture_side
f 9 8 47 46
g roof_step_or_fixture_side
f 10 9 46 45
g roof_step_or_fixture_side
f 11 10 45 44
g roof_step_or_fixture_side
f 12 11 44 43
g roof_step_or_fixture_side
f 13 12 43 105 104
g facade_completed
f 14 13 104 124 125
g facade_completed
f 15 14 125 126
g facade_completed
f 16 15 126 127
g facade_completed
f 17 16 127 128
g facade_completed
f 18 17 128 129
g facade_completed
f 19 18 129 130
g facade_completed
f 20 19 130 131
g facade_completed
f 21 20 131 132
g facade_completed
f 22 21 132 133
g facade_completed
f 23 22 133 134
g facade_completed
f 24 23 134 135 121
g roof_step_or_fixture_side
f 25 24 121 120 86
g roof_step_or_fixture_side
f 26 25 86 85 56
g roof_step_or_fixture_side
f 27 26 56 85 109
g roof_step_or_fixture_side
f 28 27 109 111
g roof_step_or_fixture_side
f 29 28 111 110 55
g roof_step_or_fixture_side
f 30 29 55 54
g roof_step_or_fixture_side
f 31 30 54 53
g roof_step_or_fixture_side
f 32 31 53 52
g roof_step_or_fixture_side
f 33 32 52 51
g roof_step_or_fixture_side
f 34 33 51 50
g roof_step_or_fixture_side
f 1 34 50 49
g roof_step_or_fixture_side
f 2 1 49 48
g roof_step_or_fixture_side
f 3 2 48 66
g roof_step_or_fixture_side
f 65 64 77 76
g roof_step_or_fixture_side
f 35 65 76 75
g roof_step_or_fixture_side
f 36 35 75 74
g facade_completed
f 37 36 74 136 137 99
g roof_step_or_fixture_side
f 38 37 99 98
g roof_step_or_fixture_side
f 39 38 98 97
g roof_step_or_fixture_side
f 40 39 97 108
g roof_step_or_fixture_side
f 41 40 108 107
g roof_step_or_fixture_side
f 42 41 107 106
g roof_step_or_fixture_side
f 43 42 106 105
g roof_step_or_fixture_side
f 56 55 110 85
g roof_step_or_fixture_side
f 57 56 85 84
g roof_step_or_fixture_side
f 58 57 84 83
g roof_step_or_fixture_side
f 59 58 83 82
g roof_step_or_fixture_side
f 60 59 82 81
g roof_step_or_fixture_side
f 61 60 81 80
g roof_step_or_fixture_side
f 62 61 80 79
g roof_step_or_fixture_side
f 63 62 79 78
g roof_step_or_fixture_side
f 64 63 78 77
g facade_completed
f 72 71 138 139
g facade_completed
f 73 72 139 140
g facade_completed
f 74 73 140 136
g roof_step_or_fixture_side
f 87 86 120 119
g roof_step_or_fixture_side
f 88 87 119 118
g roof_step_or_fixture_side
f 89 88 118 117
g roof_step_or_fixture_side
f 90 89 117 116
g roof_step_or_fixture_side
f 91 90 116 115
g facade_completed
f 92 91 115 141 142
g facade_completed
f 93 92 142 143
g facade_completed
f 95 93 143 144
g facade_completed
f 96 95 144 145
g facade_completed
f 94 96 145 146
g facade_completed
f 71 94 146 138
g facade_completed
f 100 99 137 147
g facade_completed
f 101 100 147 148
g facade_completed
f 102 101 148 149
g facade_completed
f 103 102 149 150
g facade_completed
f 104 103 150 124
g facade_completed
f 113 112 151 152
g facade_completed
f 114 113 152 153
g facade_completed
f 115 114 153 141
g facade_completed
f 122 121 135 154
g facade_completed
f 123 122 154 155
g facade_completed
f 112 123 155 151
g ground_assumed
f 135 155 154
g ground_assumed
f 135 151 155
g ground_assumed
f 135 152 151
g ground_assumed
f 135 153 152
g ground_assumed
f 135 141 153
g ground_assumed
f 135 142 141
g ground_assumed
f 135 143 142
g ground_assumed
f 135 144 143
g ground_assumed
f 135 145 144
g ground_assumed
f 135 146 145
g ground_assumed
f 135 138 146
g ground_assumed
f 138 140 139
g ground_assumed
f 138 136 140
g ground_assumed
f 138 137 136
g ground_assumed
f 138 147 137
g ground_assumed
f 138 148 147
g ground_assumed
f 138 149 148
g ground_assumed
f 138 150 149
g ground_assumed
f 138 124 150
g ground_assumed
f 138 125 124
g ground_assumed
f 138 126 125
g ground_assumed
f 138 127 126
g ground_assumed
f 138 128 127
g ground_assumed
f 138 129 128
g ground_assumed
f 129 131 130
g ground_assumed
f 129 132 131
g ground_assumed
f 129 133 132
g ground_assumed
f 129 134 133
g ground_assumed
f 129 135 134
g ground_assumed
f 129 138 135
