# pointcloud_to_mesh 0.5.1; candidate requires geometry validation; coordinates preserved
v 0.410545467 1.268059131 5.888207426
v 3.163727059 0.725667821 5.889698709
v 3.165447341 0.734399982 5.889696382
v 0.412265749 1.276791292 5.888205099
v 0.089077689 1.340461046 5.888030042
v -2.635356453 1.877188956 5.886554330
v -4.847144081 2.312922796 5.885356298
v -4.848864362 2.304190636 5.885358625
v -2.637076735 1.868456795 5.886556657
v -2.640555956 1.850796246 5.886561363
v -4.788373148 2.273927572 5.885397981
v -5.102883698 0.273392560 5.885968539
v -4.706339218 0.195271203 5.886183331
v -4.685742870 0.210680732 5.886187494
v -3.028005933 -0.115902197 5.887085420
v -0.303571792 -0.652630108 5.888561132
v 0.019616269 -0.716299862 5.888736189
v 2.276634527 -1.160944375 5.889958721
v 1.028444469 -7.496764712 5.891646998
v 1.524607802 -7.594511508 5.891915749
v 2.105443661 -7.708939239 5.892230363
v 7.297154716 -8.731733728 5.895042495
v 8.936273973 -0.411554399 5.892825456
v 8.937994255 -0.402822238 5.892823129
v 5.671675578 0.240659787 5.891053901
v 5.039231669 0.365254576 5.890711333
v 5.037511387 0.356522415 5.890713659
v 5.023481062 0.359286464 5.890706060
v 5.025201343 0.368018624 5.890703733
v 3.746283199 0.619972251 5.890010997
v 3.744562917 0.611240090 5.890013324
v 3.741083696 0.593579541 5.890018029
v 3.160247837 0.708007271 5.889703415
v 0.407066246 1.250398581 5.888212132
v -5.356450313 6.824786080 4.037893336
v -5.243486361 7.398191788 4.038952471
v -9.870405042 3.293460662 4.032378583
v -9.787656051 3.277158674 4.032325780
v -9.837888317 3.231609083 4.032252537
v -6.744166777 -0.330145422 4.024671725
v -5.965302601 -0.483585777 4.024174721
v -5.129041103 0.107010842 4.025075568
v -5.102883698 0.273392560 4.025384639
v -4.788373148 2.273927572 4.029100833
v -2.640555956 1.850796246 4.027730284
v -2.637076735 1.868456795 4.027762905
v -4.848864362 2.304190636 4.029174274
v 3.163727059 0.725667821 4.024061339
v 0.410545467 1.268059131 4.025818179
v 0.407066246 1.250398581 4.025785558
v 3.160247837 0.708007271 4.024028718
v 3.741083696 0.593579541 4.023658079
v 3.744562917 0.611240090 4.023690700
v 3.746283199 0.619972251 4.023706829
v 5.025201343 0.368018624 4.022890735
v 5.039231669 0.365254576 4.022881783
v 5.624997274 3.338604355 4.028373845
v 5.610966948 3.341368403 4.028382798
v 5.617055586 3.372274365 4.028439884
v 4.338137442 3.624227992 4.029255978
v 3.757301583 3.738655723 4.029626617
v 1.004119992 4.281047032 4.031383456
v 0.680931931 4.344716787 4.031589687
v -2.043502210 4.881444697 4.033328183
v -3.702122174 5.208201587 4.034386569
v 3.165447341 0.734399982 4.024077468
v -4.847144081 2.312922796 4.029190404
v -2.635356453 1.877188956 4.027779034
v 0.089077689 1.340461046 4.026040538
v 0.412265749 1.276791292 4.025834308
v -3.417919144 5.817355596 2.119272753
v -5.130353294 7.498556817 2.117031356
v -5.164299355 7.468441860 2.117199750
v -5.243486361 7.398191788 2.117592569
v -5.356450313 6.824786080 2.119740341
v -3.702122174 5.208201587 2.121880287
v -2.043502210 4.881444697 2.119684774
v 0.680931931 4.344716787 2.116078444
v 1.004119992 4.281047032 2.115650640
v 3.757301583 3.738655723 2.112006257
v 4.338137442 3.624227992 2.111237405
v 5.617055586 3.372274365 2.109544502
v 5.610966948 3.341368403 2.109660265
v 5.624997274 3.338604355 2.109641693
v 5.039231669 0.365254576 2.120778794
v 5.671675578 0.240659787 2.119941629
v 6.396474742 3.919744756 2.106161097
v 4.471082363 4.299057221 2.108709737
v 4.481964595 4.354295496 2.108502834
v 3.901128736 4.468723226 2.109271686
v 2.550685365 4.734767700 2.111059266
v 2.539803134 4.679529425 2.111266169
v 2.532999322 4.644993239 2.111395529
v -1.917361100 5.521737739 2.117286466
v 1.130261102 4.921340075 2.113252332
v 0.807073041 4.985009829 2.113680136
v -9.837888317 3.231609083 2.140688053
v -9.787656051 3.277158674 2.140435559
v -9.870405032 3.293460660 2.140545094
v -10.513066560 2.723329022 2.143733112
v -10.441535884 2.644024722 2.143857193
v -10.385969361 2.582419486 2.143953582
v -6.811911475 -1.380050519 2.150153324
v -4.706339218 0.195271203 2.140689955
v -5.102883698 0.273392560 2.141214861
v -5.129041103 0.107010842 2.141824927
v -5.965302601 -0.483585777 2.145465815
v -6.744166777 -0.330145422 2.146496797
v 5.037511387 0.356522415 2.120811501
v 5.025201343 0.368018624 2.120797366
v 5.023481062 0.359286464 2.120830073
v 4.692902915 8.487773778 0.392360492
v 3.342459544 8.753818253 0.393355300
v 2.794926718 5.974538293 0.392659086
v 2.550685365 4.734767700 0.392348521
v 3.901128736 4.468723226 0.391353713
v 4.481964595 4.354295496 0.390925838
v 4.471082363 4.299057221 0.390912001
v 6.396474742 3.919744756 0.389493654
v 5.671675578 0.240659787 0.388572037
v 8.937994255 -0.402822238 0.386165892
v 10.465449828 7.350551559 0.388108125
v 5.273738773 8.373346048 0.391932617
v -4.706339192 0.195271198 -6.058076663
v -4.685742870 0.210680732 -6.058076663
v -3.028005933 -0.115902197 -6.058076663
v -0.303571792 -0.652630108 -6.058076663
v 0.019616269 -0.716299862 -6.058076663
v 2.276634527 -1.160944375 -6.058076663
v 1.028444469 -7.496764712 -6.058076663
v 1.524607802 -7.594511508 -6.058076663
v 2.105443661 -7.708939239 -6.058076663
v 7.297154716 -8.731733728 -6.058076663
v 8.936273973 -0.411554399 -6.058076663
v 8.937994255 -0.402822238 -6.058076663
v -5.243486359 7.398191798 -6.058076663
v -9.870405032 3.293460660 -6.058076663
v -3.417919144 5.817355596 -6.058076663
v -5.130353294 7.498556817 -6.058076663
v -5.164299387 7.468441841 -6.058076663
v 2.550685365 4.734767700 -6.058076663
v 2.539803134 4.679529425 -6.058076663
v 2.532999322 4.644993239 -6.058076663
v 1.130261102 4.921340075 -6.058076663
v 0.807073041 4.985009829 -6.058076663
v -1.917361100 5.521737739 -6.058076663
v -10.513066560 2.723329022 -6.058076663
v -10.441535849 2.644024696 -6.058076663
v -10.385969336 2.582419467 -6.058076663
v -6.811911475 -1.380050519 -6.058076663
v 4.692902915 8.487773778 -6.058076663
v 3.342459544 8.753818253 -6.058076663
v 2.794926718 5.974538293 -6.058076663
v 10.465449828 7.350551559 -6.058076663
v 5.273738773 8.373346048 -6.058076663
g roof
f 1 2 3
g roof
f 1 3 4
g roof
f 1 4 5
g roof
f 1 5 6
g roof
f 1 6 7
g roof
f 7 8 9
g roof
f 10 11 12
g roof
f 10 12 13
g roof
f 10 13 14
g roof
f 10 14 15
g roof
f 10 15 16
g roof
f 10 16 17
g roof
f 10 17 18
g roof
f 18 19 20
g roof
f 18 20 21
g roof
f 18 21 22
g roof
f 18 22 23
g roof
f 18 23 24
g roof
f 18 24 25
g roof
f 25 26 27
g roof
f 28 29 30
g roof
f 28 30 31
g roof
f 28 31 32
g roof
f 1 7 9
g roof
f 1 9 10
g roof
f 18 25 27
g roof
f 18 27 28
g roof
f 18 28 32
g roof
f 18 32 33
g roof
f 18 33 34
g roof
f 34 1 10
g roof
f 34 10 18
g roof
f 35 36 37
g roof
f 35 37 38
g roof
f 35 38 39
g roof
f 35 39 40
g roof
f 35 40 41
g roof
f 35 41 42
g roof
f 35 42 43
g roof
f 44 45 46
g roof
f 44 46 47
g roof
f 48 49 50
g roof
f 48 50 51
g roof
f 48 51 52
g roof
f 48 52 53
g roof
f 48 53 54
g roof
f 55 56 57
g roof
f 55 57 58
g roof
f 58 59 60
g roof
f 58 60 61
g roof
f 58 61 62
g roof
f 58 62 63
g roof
f 58 63 64
g roof
f 58 64 65
g roof
f 43 44 47
g roof
f 66 48 54
g roof
f 54 55 58
g roof
f 54 58 65
g roof
f 35 43 47
g roof
f 35 47 67
g roof
f 35 67 68
g roof
f 35 68 69
g roof
f 66 54 65
g roof
f 65 35 69
g roof
f 65 69 70
g roof
f 65 70 66
g roof
f 71 72 73
g roof
f 71 73 74
g roof
f 71 74 75
g roof
f 71 75 76
g roof
f 71 76 77
g roof
f 71 77 78
g roof
f 71 78 79
g roof
f 71 79 80
g roof
f 71 80 81
g roof
f 71 81 82
g roof
f 82 83 84
g roof
f 84 85 86
g roof
f 84 86 87
g roof
f 88 89 90
g roof
f 88 90 91
g roof
f 88 91 92
g roof
f 88 92 93
g roof
f 94 71 82
g roof
f 82 84 87
g roof
f 82 87 88
g roof
f 82 88 93
g roof
f 82 93 95
g roof
f 82 95 96
g roof
f 82 96 94
g roof
f 97 98 99
g roof
f 97 99 100
g roof
f 97 100 101
g roof
f 97 101 102
g roof
f 97 102 103
g roof
f 104 105 106
g roof
f 104 106 107
g roof
f 108 97 103
g roof
f 103 104 107
g roof
f 103 107 108
g roof
f 109 85 110
g roof
f 109 110 111
g roof
f 112 113 114
g roof
f 112 114 115
g roof
f 112 115 116
g roof
f 112 116 117
g roof
f 117 118 119
g roof
f 119 120 121
g roof
f 119 121 122
g roof
f 119 122 123
g roof
f 119 123 112
g roof
f 119 112 117
g roof_step_or_fixture_side
f 4 3 66 70
g roof_step_or_fixture_side
f 5 4 70 69
g roof_step_or_fixture_side
f 6 5 69 68
g roof_step_or_fixture_side
f 7 6 68 67
g roof_step_or_fixture_side
f 8 7 67 47
g roof_step_or_fixture_side
f 9 8 47 46
g roof_step_or_fixture_side
f 10 9 46 45
g roof_step_or_fixture_side
f 11 10 45 44
g roof_step_or_fixture_side
f 12 11 44 43
g roof_step_or_fixture_side
f 13 12 43 105 104
g facade_completed
f 14 13 104 124 125
g facade_completed
f 15 14 125 126
g facade_completed
f 16 15 126 127
g facade_completed
f 17 16 127 128
g facade_completed
f 18 17 128 129
g facade_completed
f 19 18 129 130
g facade_completed
f 20 19 130 131
g facade_completed
f 21 20 131 132
g facade_completed
f 22 21 132 133
g facade_completed
f 23 22 133 134
g facade_completed
f 24 23 134 135 121
g roof_step_or_fixture_side
f 25 24 121 120 86
g roof_step_or_fixture_side
f 26 25 86 85 56
g roof_step_or_fixture_side
f 27 26 56 85 109
g roof_step_or_fixture_side
f 28 27 109 111
g roof_step_or_fixture_side
f 29 28 111 110 55
g roof_step_or_fixture_side
f 30 29 55 54
g roof_step_or_fixture_side
f 31 30 54 53
g roof_step_or_fixture_side
f 32 31 53 52
g roof_step_or_fixture_side
f 33 32 52 51
g roof_step_or_fixture_side
f 34 33 51 50
g roof_step_or_fixture_side
f 1 34 50 49
g roof_step_or_fixture_side
f 2 1 49 48
g roof_step_or_fixture_side
f 3 2 48 66
g roof_step_or_fixture_side
f 65 64 77 76
g roof_step_or_fixture_side
f 35 65 76 75
g roof_step_or_fixture_side
f 36 35 75 74
g facade_completed
f 37 36 74 136 137 99
g roof_step_or_fixture_side
f 38 37 99 98
g roof_step_or_fixture_side
f 39 38 98 97
g roof_step_or_fixture_side
f 40 39 97 108
g roof_step_or_fixture_side
f 41 40 108 107
g roof_step_or_fixture_side
f 42 41 107 106
g roof_step_or_fixture_side
f 43 42 106 105
g roof_step_or_fixture_side
f 56 55 110 85
g roof_step_or_fixture_side
f 57 56 85 84
g roof_step_or_fixture_side
f 58 57 84 83
g roof_step_or_fixture_side
f 59 58 83 82
g roof_step_or_fixture_side
f 60 59 82 81
g roof_step_or_fixture_side
f 61 60 81 80
g roof_step_or_fixture_side
f 62 61 80 79
g roof_step_or_fixture_side
f 63 62 79 78
g roof_step_or_fixture_side
f 64 63 78 77
g facade_completed
f 72 71 138 139
g facade_completed
f 73 72 139 140
g facade_completed
f 74 73 140 136
g roof_step_or_fixture_side
f 87 86 120 119
g roof_step_or_fixture_side
f 88 87 119 118
g roof_step_or_fixture_side
f 89 88 118 117
g roof_step_or_fixture_side
f 90 89 117 116
g roof_step_or_fixture_side
f 91 90 116 115
g facade_completed
f 92 91 115 141 142
g facade_completed
f 93 92 142 143
g facade_completed
f 95 93 143 144
g facade_completed
f 96 95 144 145
g facade_completed
f 94 96 145 146
g facade_completed
f 71 94 146 138
g facade_completed
f 100 99 137 147
g facade_completed
f 101 100 147 148
g facade_completed
f 102 101 148 149
g facade_completed
f 103 102 149 150
g facade_completed
f 104 103 150 124
g facade_completed
f 113 112 151 152
g facade_completed
f 114 113 152 153
g facade_completed
f 115 114 153 141
g facade_completed
f 122 121 135 154
g facade_completed
f 123 122 154 155
g facade_completed
f 112 123 155 151
g ground_assumed
f 135 155 154
g ground_assumed
f 135 151 155
g ground_assumed
f 135 152 151
g ground_assumed
f 135 153 152
g ground_assumed
f 135 141 153
g ground_assumed
f 135 142 141
g ground_assumed
f 135 143 142
g ground_assumed
f 135 144 143
g ground_assumed
f 135 145 144
g ground_assumed
f 135 146 145
g ground_assumed
f 135 138 146
g ground_assumed
f 138 140 139
g ground_assumed
f 138 136 140
g ground_assumed
f 138 137 136
g ground_assumed
f 138 147 137
g ground_assumed
f 138 148 147
g ground_assumed
f 138 149 148
g ground_assumed
f 138 150 149
g ground_assumed
f 138 124 150
g ground_assumed
f 138 125 124
g ground_assumed
f 138 126 125
g ground_assumed
f 138 127 126
g ground_assumed
f 138 128 127
g ground_assumed
f 138 129 128
g ground_assumed
f 129 131 130
g ground_assumed
f 129 132 131
g ground_assumed
f 129 133 132
g ground_assumed
f 129 134 133
g ground_assumed
f 129 135 134
g ground_assumed
f 129 138 135
