# pointcloud_to_mesh 0.5.1; candidate requires geometry validation; coordinates preserved
v -6.379105872 -9.771323376 -0.574494093
v -6.568739964 -8.555827201 -0.578643519
v -8.954905581 -9.034475647 -0.672741323
v -10.003690159 -9.244854636 -0.714099862
v -10.029919913 -8.756057965 -0.713822262
v -12.970106474 -9.563078546 -0.830344609
v -12.970147152 -9.563089665 -0.830346221
v -12.970113492 -9.563039458 -0.830344778
v -10.071124595 -7.988200549 -0.713386176
v -12.726504320 -9.199678890 -0.819902981
v -13.011969589 -9.329918264 -0.831354017
v -13.261258959 -9.443652909 -0.841353908
v -13.228025199 -9.633871917 -0.840566170
v -13.184570404 -9.882917398 -0.839537025
v -15.039711357 -10.255045924 -0.912694012
v -16.716612575 -10.591420800 -0.978822164
v -16.716661112 -10.591430536 -0.978824078
v -17.156161360 -6.612757336 -0.985356242
v -20.214442921 -7.952487224 -1.107887328
v -19.710344883 -11.183600532 -1.096857044
v -16.397124818 -10.666692712 -0.966593315
v -14.553703251 -22.482457716 -0.926256988
v -6.964707136 -21.298470127 -0.627885339
v -6.323491620 -21.406498970 -0.603227603
v -4.933269639 -21.640716746 -0.549767064
v -1.987306873 -21.181106107 -0.433942552
v -1.637411961 -20.981382728 -0.419800557
v -1.383798360 -20.836617618 -0.409550044
v -0.398142692 -20.273995917 -0.369711974
v -0.181266241 -20.240160213 -0.361185183
v -0.575566311 -18.470461617 -0.371824863
v -9.690051777 -15.089568151 -0.717419224
v -2.560382976 -8.135114486 -0.421592976
v -4.662355470 -8.463051054 -0.504234868
v -4.888571418 -9.002687075 -0.514468129
v -4.927039971 -9.094453448 -0.516208319
v -5.038156716 -9.359521401 -0.521234873
v -5.129028031 -9.576294070 -0.525345591
v -13.184525417 -9.882850235 -0.839535096
v -9.690051110 -15.089580574 -0.717419231
v -9.690115027 -15.089661025 -0.717421931
v -15.528185728 4.684367670 -0.892025303
v -14.318954484 4.827449425 -0.844603764
v -14.559427523 4.932939297 -0.853678535
v -15.545202627 4.779144846 -0.892435616
v -14.946719527 1.445840844 -0.878004925
v -14.694320476 1.491168872 -0.868065714
v -14.957852441 1.507846579 -0.878273363
v -15.528175276 4.684309524 -0.892025051
v -15.528256173 4.684359296 -0.892028066
v -15.654579498 4.762080552 -0.896735916
v -15.740836055 4.748623345 -0.900127209
v -15.725530066 4.661016943 -0.899764412
v -18.113335986 4.378480782 -0.993405254
v -18.366078566 4.339049470 -1.003342170
v -18.075091505 1.705122075 -0.999016525
v -15.177053439 1.521718786 -0.886763896
v -15.157192653 1.408042241 -0.886293137
v -17.986143830 0.899994461 -0.997694280
v -17.879200658 -0.068022982 -0.996104525
v -14.896150703 -0.086075233 -0.880105671
v -14.494322981 -2.386003735 -0.870581168
v -14.454504188 -2.613913287 -0.869637345
v -14.227492032 -2.559959904 -0.860662831
v -11.587245634 -1.932459756 -0.756285489
v -14.265144880 -2.350248805 -0.861570720
v -14.642380015 -1.538574417 -0.874090557
v -14.328895949 -1.995181649 -0.863107893
v -13.997597233 -5.229097042 -0.858807300
v -16.121819847 -6.159647244 -0.943914999
v -13.913021324 -5.713181470 -0.856802601
v -13.670156085 -5.664090973 -0.847224284
v -13.766439071 -5.127834456 -0.849545870
v -14.029775052 -3.661161663 -0.855895457
v -14.256714920 -3.745993406 -0.864949155
v 2.293037115 8.101397085 3.396474928
v 3.124469032 8.252430071 3.412915936
v 2.222231164 13.097372545 3.414489810
v 3.682512050 15.275502572 3.450780438
v 1.911411079 23.912817444 3.450484726
v 0.266181241 23.601198300 3.417901964
v -0.909445529 23.378525576 3.394619401
v -1.442454691 23.277569554 3.384063484
v -0.975907347 20.287144645 3.381369295
v -1.661810001 20.180134414 3.367874199
v -2.027190009 20.123130116 3.360685369
v -2.059597971 20.118074029 3.360047744
v -2.115249756 20.108259566 3.358948410
v -2.877930887 19.973757039 3.343882569
v -5.826714072 19.453724781 3.285632930
v -6.718528227 19.296449017 3.268016222
v -7.792077355 19.107123407 3.246809560
v -9.946066982 18.727256859 3.204260105
v -10.473729285 18.634201045 3.193836776
v -11.490150301 18.454950255 3.173758610
v -16.896888367 17.501445698 3.066955052
v -19.811920561 16.785843263 3.008590992
v -19.569135897 15.229668271 3.007188974
v -19.250787396 13.189152338 3.005350594
v -19.342181800 13.174893557 3.003552415
v -19.435354690 13.160357306 3.001719243
v -20.954280287 12.923384059 2.971834469
v -20.947867689 12.882281278 2.971797438
v -20.420678132 9.503158438 2.968753056
v -18.961628220 9.730790256 2.997459780
v -17.277303452 9.993568045 3.030598773
v -16.725419226 6.456159977 3.027411786
v -16.666241427 6.076848498 3.027070050
v -15.991306102 6.182147676 3.040349363
v -15.802391398 6.211620963 3.044066249
v -15.117674402 6.318446215 3.057538017
v -13.414774339 6.584122006 3.091042479
v -10.875894906 7.008189935 3.141103194
v -9.131783200 7.299508156 3.175492964
v -7.982710381 7.491437290 3.198149971
v -7.981428778 7.491651355 3.198175241
v -7.441181347 7.581888649 3.208827646
v -7.173080142 7.626669477 3.214113970
v -2.674043588 8.378141599 3.302824362
v -0.723220819 8.703986679 3.341289986
v -0.676304046 8.711823167 3.342215075
v -0.653122016 8.715695251 3.342672170
v -0.061423641 8.925054759 3.354767491
v 0.710980259 9.198352959 3.370556741
v 0.751840815 9.212810572 3.371392001
v 0.866173124 8.479975656 3.370731761
v 0.998769141 7.866288050 3.370881648
v 1.062455482 -0.182650468 3.340897242
v 1.611759613 -0.185974641 3.351359702
v 1.555924075 0.118055171 3.351473373
v 1.020014316 0.034445891 3.340929379
v 11.821214781 2.433816598 1.435398736
v 11.966788530 2.066276474 1.427059356
v 12.815772145 2.453612888 1.292800842
v 12.805009056 2.581491742 1.290010361
v 12.755996544 3.163820004 1.277303227
v 13.101077262 3.229549340 1.225834771
v 13.101542892 3.354801319 1.221530772
v 12.993999158 3.909665652 1.218105491
v 12.993899897 3.909674157 1.218119368
v 12.699117416 3.839614015 1.262556543
v 11.387847834 3.527968138 1.460224720
v 11.617936359 2.947047707 1.447043802
v 13.802113962 -0.259745909 1.243844045
v 13.774390435 -0.116708270 1.242961046
v 13.088121725 -0.255424178 1.345587974
v 13.044523893 -0.264236631 1.352107740
v 13.044528583 -0.264293285 1.352108988
v 13.088078508 -0.267049359 1.345987447
v 13.086246135 -0.759948318 1.362924801
v 13.086261883 -0.760135425 1.362928883
v 13.676066305 -2.249255492 1.329141178
v 13.222083553 -2.373862675 1.398142447
v 13.277588390 -3.033327898 1.412532810
v 13.481252477 -3.088695785 1.385342179
v 13.369216059 -3.331486109 1.409544453
v 14.274033401 -3.758984428 1.294885862
v 14.501132264 -3.866281634 1.266107860
v 14.161875963 -2.115912601 1.255302506
v 13.812414194 -0.312889181 1.244172107
v 13.073380985 -4.220608113 1.481842517
v 13.074310529 -3.970565665 1.473250376
v 13.028714365 -4.069375542 1.483100126
v 15.418439921 -6.648346817 1.229327061
v 15.423632520 -6.661456933 1.229029596
v 15.420041005 -6.648987465 1.229120253
v 16.685281985 -15.135248532 1.335673288
v 15.999069713 -11.594784566 1.313817346
v 15.936050523 -11.674916965 1.325521545
v 15.061770038 -11.853116330 1.456314475
v 14.817959012 -11.212846805 1.469445748
v 14.407823642 -11.102348036 1.524235629
v 14.381848393 -10.231341488 1.498474339
v 13.866224091 -10.027038642 1.565144400
v 13.420220773 -9.850321318 1.622812490
v 13.156565952 -8.929760545 1.629292694
v 13.055753125 -8.962412921 1.644783873
v 12.805690482 -9.043405980 1.683209196
v 12.186331218 -6.188658544 1.675012317
v 11.957214468 -5.224148464 1.675076869
v 11.985925654 -5.355732700 1.675431431
v 12.064467131 -5.715690676 1.676401359
v 11.822018702 -6.167522421 1.726286392
v 11.881588333 -6.549345422 1.730703437
v 9.350672406 -6.944203055 2.105236279
v 8.291635708 -7.202296813 2.265097818
v 6.826559090 -7.559344996 2.486251063
v 7.192329628 -9.294626723 2.492762270
v 8.148924771 -13.832887458 2.509790949
v 9.351159036 -13.767786140 2.336023787
v 9.736427735 -14.248266450 2.297299797
v 10.637440371 -18.642329785 2.317381850
v 10.442761764 -19.039020505 2.358584355
v 10.710226253 -18.997292372 2.319004124
v 13.019787551 -18.636969100 1.977228031
v 14.260972964 -18.443327135 1.793553538
v 14.570528282 -18.395032255 1.747744575
v 17.236478354 -17.979107441 1.353228958
v 18.893829422 -17.720537920 1.107968971
v 18.855908770 -17.477478207 1.105157182
v 18.682167439 -16.363849741 1.092274388
v 11.872627246 -6.794861265 1.740288573
v 9.490624815 9.408868132 1.532003720
v 9.394609054 9.391426479 1.546295723
v 9.403163747 9.336593529 1.546930047
v 9.454519738 9.007417429 1.550738057
v 9.821168139 9.468912669 1.482802151
v 9.941942102 9.620929191 1.460424066
v 9.778856080 9.586988203 1.484845529
v 9.745479436 7.674569367 1.554309909
v 10.590152123 5.541965739 1.505921746
v 11.869007282 6.102189003 1.304469339
v 11.769209152 6.243720804 1.313922680
v 11.495759273 6.631522233 1.339825116
v 12.166743501 7.155921600 1.226330831
v 11.777858929 7.915029161 1.256144246
v 0.561074992 -0.037154945 3.125873545
v 1.020014316 0.034445891 3.057958270
v 0.928530532 0.502406556 3.055181301
v 11.003376675 -0.158029390 1.639796085
v 11.023866131 -0.242933024 1.639744619
v 11.326574174 -0.244764895 1.596608695
v 12.033096109 -2.700210704 3.930794182
v 12.007130084 -2.687942510 3.934454321
v 11.600982737 -2.577527795 3.994138645
v 11.122750163 -0.652685914 4.010792287
v 11.023866131 -0.242933024 4.013884590
v 10.897582184 -0.242168803 4.033445198
v 10.879659338 -0.127288870 4.032792333
v 4.878713349 -1.167554635 4.994466822
v 10.632412564 1.457486866 4.023786017
v 6.868117795 -0.259917820 4.658843315
v 6.868088009 -0.259931448 4.658848341
v 10.887640987 1.573931131 3.980727573
v 10.620742056 1.532291233 4.023360902
v 10.347947882 3.280817948 4.013423986
v 10.496278767 3.316071346 3.989368365
v 10.327420969 3.505156530 4.009904671
v 10.232707476 4.146272561 4.005437839
v 10.060777872 5.310064754 3.997329379
v 10.056018652 5.342279936 3.997104927
v 9.970566650 5.920704891 3.993074882
v 9.937028943 5.914681897 3.998455678
v 9.663966948 7.664925264 3.988509006
v 9.745479389 7.674569352 3.975580357
v 9.608510424 8.020384515 3.986488923
v 9.454519744 9.007417391 3.980879593
v 9.311728035 8.827687430 4.008392725
v 9.296399225 8.808393274 4.011346283
v 9.087565304 9.335650734 4.027978367
v 9.394609054 9.391426479 3.978697261
v 9.382401532 9.469672937 3.978252584
v 9.054730232 9.418551715 4.030593439
v 8.299399964 11.325586350 4.090749936
v 6.756470523 9.059991646 4.397707917
v 3.270635405 8.516153508 4.954520766
v 3.306617693 8.285518115 4.955831473
v 3.124469068 8.252430090 4.985066673
v 3.372494594 6.920553385 4.986396411
v 3.766185140 4.806467829 4.988507092
v 3.786263394 4.698649267 4.988614736
v 3.786280871 4.698647736 4.988612072
v 3.786267373 4.698627900 4.988614758
v 4.082247072 3.109241482 4.990201584
v 4.112427805 3.120523255 4.985184254
v 4.173211172 2.730920578 4.987398375
v 4.154246149 2.722612679 4.990587583
v 4.212565570 2.409441961 4.990900257
v 4.279146336 2.051908773 4.991257214
v 4.393511895 1.318860734 4.995423142
v 4.415054276 1.322094413 4.991985853
v 4.699370414 -0.204659653 4.993510148
v 4.631137572 -0.204246734 5.004078996
v 4.787891442 -1.208990808 5.009788979
v 4.878685564 -1.167567347 4.994471511
v 5.498124159 -4.493900975 4.997792480
v 6.288580764 -8.738587344 5.002030330
v 7.192329628 -9.294626723 4.878494456
v 6.826559090 -7.559344996 4.883371536
v 8.291635708 -7.202296813 4.645507816
v 9.350672406 -6.944203055 4.473567041
v 11.881588333 -6.549345422 4.069289024
v 11.822018702 -6.167522421 4.067119115
v 12.064467131 -5.715690676 4.016022221
v 11.985925654 -5.355732700 4.017447622
v 11.665950959 -5.167176211 4.061434125
v 11.311951303 -2.898147349 4.048539184
v 11.467175565 -2.079906272 4.000021409
v 4.878679526 -1.167534704 4.994471472
v 6.868081677 -0.259900755 4.658848406
v 4.501428940 0.858269638 4.992448930
v 4.552221337 0.585518682 4.992721242
v 5.160220074 -2.679384078 4.995980886
v -7.223804197 -0.425009357 1.247057241
v -0.920039247 0.602786135 1.258834142
v -0.924451709 0.619738211 1.258448243
v -6.649858404 -0.135978564 1.243952526
v -6.649893968 -0.135978349 1.243952331
v -6.649865787 -0.135936315 1.243951583
v -2.210239220 0.701109695 1.249826905
v -2.219493617 0.753605780 1.248655482
v -5.930806385 0.936567009 1.224880119
v -5.930810069 0.936586904 1.224879674
v -2.664426867 3.277509483 1.192335892
v -2.728351046 3.640122253 1.184244377
v -3.150972978 3.564224113 1.183604244
v -4.308525560 3.356340702 1.181850931
v -4.751925626 3.276711043 1.181179325
v -5.395201530 3.161185933 1.180204972
v -6.278299384 3.002591502 1.178867368
v -6.312216848 2.996500307 1.178815995
v -6.458247930 2.970274769 1.178594805
v -7.111616918 2.852937055 1.177605165
v -7.170293292 2.842399439 1.177516290
v -7.762817656 2.735988735 1.176618810
v -10.619078883 2.223036378 1.172292509
v -11.322408412 2.096726313 1.171227195
v -11.322397987 2.096677445 1.171228296
v -11.145848858 1.266602682 1.189912721
v -10.852942787 -0.110543144 1.220911349
v -10.675851317 -0.943167668 1.239653168
v -10.603040752 -1.285498451 1.247358805
v -10.519416468 -1.678671706 1.256208871
v -10.411087440 -1.652925441 1.256238497
v -10.405976674 -1.748165579 1.258301218
v -10.376601419 -2.295579285 1.270157161
v -10.372685633 -2.368550737 1.271737585
v -10.125086058 -3.532680653 1.297941368
v -9.836565963 -4.889205094 1.328475822
v -6.574987305 -4.229940238 1.331844815
v -5.956339541 -4.104892593 1.332483837
v -5.812381287 -4.075794225 1.332632536
v -5.031942662 -3.918043696 1.333438677
v -4.991735862 -3.909916671 1.333480208
v -4.942687937 -3.900002606 1.333530872
v -3.870237101 -3.683227452 1.334638641
v -3.432312503 -3.594709489 1.335090988
v -2.408366963 -3.387738761 1.336148656
v -1.611072764 -3.226581205 1.336972207
v -1.610997660 -3.226566030 1.336972285
v -1.521043601 -3.208383578 1.337065202
v -1.536994401 -3.117901725 1.335046147
v -2.009395788 -0.438183678 1.275249641
v -2.057771890 -0.163768074 1.269126200
v -2.084791342 -0.010499020 1.265706081
v -0.895962545 0.510286735 1.260939809
v -4.093528741 -0.151448470 1.257966245
v -4.093567350 -0.151457667 1.257966235
v -4.093569186 -0.151448226 1.257966023
v -6.954670341 -0.590574187 1.252036082
v -0.899615583 0.524321209 1.260620326
v -1.851185085 0.381483240 1.258579489
v -1.850545139 0.381635334 1.258579664
v -4.130131823 0.039395608 1.253691817
v -4.130213674 0.039365038 1.253692032
v -4.130217093 0.039382843 1.253691634
v -5.930822715 0.936568042 1.224880009
v -6.954680566 -0.590589439 1.252036353
v -6.954697078 -0.590579280 1.252036048
v -7.223831322 -0.424992704 1.247056739
v -7.223807648 -0.424989115 1.247056789
v 13.106637672 4.725271439 1.245812794
v 12.814887981 4.833777175 1.241932301
v 12.993993211 3.909696335 1.262639400
v 13.103702615 3.935770718 1.262669402
v 13.098832043 2.625596867 1.290642890
v 13.101077262 3.229549340 1.277747917
v 13.096203370 1.918497186 1.305740156
v 13.371599589 1.961462777 1.306296041
v 13.238804855 2.646607873 1.290943090
v 13.238780256 2.646604181 1.290943038
v 13.098672542 2.582682100 1.291559162
v 13.086245620 -0.760094250 1.362930691
v 13.119424129 -4.105221164 1.434596563
v 13.195250195 -4.591242911 1.445389141
v 13.405168449 -4.549134749 1.445612870
v 13.351875887 -3.915954050 1.431795990
v 13.071911159 -4.615983876 1.445257687
v 13.183541797 -4.593591581 1.445376663
v 13.073380985 -4.220608138 1.436816031
v 4.325532014 -7.530804464 1.460733723
v 3.207015629 -6.842627493 1.440039765
v 3.400087243 -8.080157130 1.467520295
v 2.629904128 -8.200316270 1.465965687
v 1.970085931 -8.303256968 1.464633850
v 3.384521090 -15.934857811 1.635298778
v 1.420435043 -8.389010053 1.463524385
v 1.240807987 -8.417034340 1.463161809
v 3.850066830 -19.611216905 1.716357677
v 4.059829338 -19.578491074 1.716781081
v 4.322254784 -19.537549101 1.717310784
v 4.830802891 -19.458208614 1.718337284
v 5.142136695 -19.409636266 1.718965708
v 6.068925357 -19.265044511 1.720836423
v 6.835057477 -19.145517381 1.722382854
v 7.967656457 -18.968816390 1.724668995
v 8.187299442 -18.934549069 1.725112342
v 8.915490533 -18.820941261 1.726582189
v 10.353343455 -19.052970989 1.739237176
v 10.442761764 -19.039020505 1.739417666
v 10.637440371 -18.642329785 1.731982084
v 9.736427735 -14.248266450 1.633254322
v 9.351159036 -13.767786140 1.620923834
v 8.148924771 -13.832887458 1.615879979
v 7.192329628 -9.294626723 1.513773079
v 6.288580764 -8.738587344 1.497052590
v 3.070869778 -8.131519574 1.466855773
v 4.631137572 -0.204246734 4.957212754
v 4.611086082 0.269419886 4.993029297
v 1.062455482 -0.182650468 3.059222973
v 0.561074992 -0.037154945 2.806548996
v 2.612858393 0.395878381 3.941505220
v 2.612832510 0.395880019 3.941491599
v 2.612852581 0.395905281 3.941504765
v 2.020019763 0.433396368 3.629536721
v 4.393511895 1.318860734 4.980191965
v 4.355313937 1.563697889 4.983885837
v -0.681289423 0.604349641 2.208031224
v -0.681201265 0.604366400 2.208079808
v -0.864639055 0.615952948 2.111547445
v -0.864703333 0.615937671 2.111511721
v -0.864707909 0.615957305 2.111511212
v 4.311256283 1.846093896 4.988146362
v 3.637860441 1.686049742 4.613894253
v 3.637842028 1.686045365 4.613884020
v 3.637857311 1.686064601 4.613894045
v 1.367075474 1.146353759 3.351863330
v 0.783201335 1.245871733 3.050753496
v 0.783188227 1.245865991 3.050745953
v 0.783185252 1.245881211 3.050745863
v 1.306683875 1.475191758 3.351985523
v 1.711918201 1.652711233 3.585172970
v 0.128889593 1.631448239 2.740217939
v 0.128854732 1.631435170 2.740198095
v 0.128847712 1.631472919 2.740198062
v 1.656418310 2.202449376 3.609582164
v 1.656401957 2.202443263 3.609572857
v 1.656398806 2.202458591 3.609572684
v 4.173211172 2.730920578 5.001495794
v 4.112427805 3.120523255 5.007373752
v 2.293037115 8.101397085 4.527554948
v 0.998769141 7.866288050 3.815357603
v 0.866173124 8.479975656 3.804994687
v 1.148527835 6.670168841 3.777690026
v -2.464762290 6.106445972 1.798497121
v -3.017724689 5.281662860 1.423121137
v -3.017732437 5.281651317 1.423115879
v -2.850271454 4.331721232 1.419038412
v -1.756082669 3.814750793 1.950885185
v -1.756051866 3.814736272 1.950900160
v -1.756077674 3.814731604 1.950885960
v -2.728351046 3.640122253 1.416069812
v -2.664426867 3.277509483 1.414513343
v -2.219493643 0.753605823 1.403679811
v -2.210239220 0.701109695 1.403454478
v -0.924451709 0.619738211 2.080072330
v -0.920039247 0.602786135 2.080757770
v -1.850545139 0.381635334 1.563612027
v -1.851184780 0.381483285 1.563256532
v -0.899615583 0.524321209 2.083930421
v -0.895962545 0.510286735 2.084497891
v -2.084791342 -0.010499020 1.400399989
v -2.057771890 -0.163768074 1.399742101
v -2.009395788 -0.438183678 1.398564208
v -1.536994401 -3.117901725 1.387061862
v -1.521043566 -3.208383549 1.386673480
v -1.377629403 -4.021906818 1.383181536
v -1.377617164 -4.021914349 1.383187314
v -0.623764553 -3.677980070 1.818327577
v -1.290350168 -4.517002192 1.381056403
v -1.192197081 -5.073779980 1.378666506
v -0.923960809 -6.256674411 1.405379224
v -0.324407684 -6.092125418 1.740756680
v -0.048128804 -5.623432441 1.933863217
v 2.943975786 -5.156623044 3.572799470
v 3.207015629 -6.842627493 3.547362622
v 3.560235486 -7.059949094 3.714099842
v 4.325532014 -7.530804464 4.075357604
v 5.754215609 -8.409814518 4.749766829
v 5.792770895 -6.076129495 4.999358131
v 5.012789824 -1.887695874 4.995180731
v 4.787891442 -1.208990808 4.942054122
v 1.491872824 0.466820320 3.351610824
v 1.417437966 0.872125202 3.351761430
v 2.000459628 0.528558916 3.628462802
v -0.681245868 0.604346822 2.208054138
v -0.845250957 0.532481761 2.113677330
v -0.845320412 0.532471312 2.113639323
v -0.845255188 0.532499915 2.113676859
v -1.611056627 -3.226652554 1.336953720
v 1.367079295 1.146359370 3.351848238
v 1.306683875 1.475191758 3.533729207
v -1.377629403 -4.021906818 0.887742705
v -9.836625445 -4.889217120 1.328476839
v -10.207719343 -5.442730291 1.072813738
v -12.726504320 -9.199678890 -0.662489388
v -10.071124595 -7.988200549 -0.299771822
v -10.003690159 -9.244854636 -0.977393274
v -8.954905581 -9.034475647 -0.977169641
v -6.568739964 -8.555827201 -0.976660838
v -6.680914186 -7.836824952 -0.581095909
v -6.777843073 -7.215540613 -0.239291281
v -6.084332453 -7.107343434 -0.255637107
v -5.449017837 -7.008225631 -0.270611270
v -5.267809905 -6.979954706 -0.274882284
v -4.487548704 -6.858223246 -0.293272793
v -4.373725619 -6.840465282 -0.295955567
v -4.367303309 -6.839463314 -0.296106938
v -4.036307358 -6.787823401 -0.303908408
v -3.207335410 -6.658492395 -0.323447014
v -2.961212749 -6.620093881 -0.329248047
v -2.854503607 -6.603445790 -0.331763147
v -1.308801919 -6.362295104 -0.368194845
v -0.974248997 -6.310100255 -0.376080152
v -0.913978093 -6.300697167 -0.377500718
v -0.400094529 -6.220524275 -0.389612790
v -0.324407684 -6.092125418 -0.329196107
v -0.923960809 -6.256674411 -0.352948598
v -1.054806023 -4.220526025 0.747301971
v -0.623764553 -3.677980070 0.990711574
v -1.377617164 -4.021914349 0.887737380
v -1.377627263 -4.021918957 0.887736001
v -1.192197081 -5.073779980 0.306768508
v -1.290350168 -4.517002192 0.614289928
v 14.501132264 -3.866281634 1.272116382
v 16.364953526 -1.511221590 1.017482142
v 15.764913154 2.334852552 1.003039471
v 11.326574174 -0.244764895 1.545981512
v 13.238804857 2.646607922 1.274783404
v 13.371599589 1.961462777 1.274502839
v 15.428930008 4.488401132 0.994952525
v 13.101542892 3.354801319 1.275073410
v 12.805009036 2.581491753 1.323933366
v 12.815772145 2.453612888 1.325425683
v 12.993999158 3.909665652 1.275300627
v 15.062795319 6.835211825 0.986139847
v 13.113253096 6.485095993 1.208230599
v 13.113179793 6.485068591 1.208239248
v 12.485937973 6.372445508 1.279693812
v 13.113179846 6.485082838 1.208238944
v 14.837845693 8.277069709 0.980725423
v 12.166743501 7.155921600 1.298448720
v 11.495759273 6.631522233 1.383345068
v 11.769209140 6.243720831 1.361343330
v 11.869007256 6.102189039 1.353313587
v 11.777858929 7.915029161 1.325390903
v 14.604972809 9.769713239 0.975120289
v 14.359998287 10.293409605 0.991139390
v 14.222596902 10.587140585 1.000124188
v 16.965318274 11.015042776 0.689028980
v 16.541763085 13.729901206 0.678834219
v 15.868569792 17.080693734 0.682821874
v 13.139800971 13.646030051 1.055345959
v 11.995023069 12.205113892 1.211627919
v 11.505580153 11.589058843 1.278445332
v 9.941942102 9.620929191 1.491908939
v 9.821168139 9.468912669 1.508396671
v 9.454519744 9.007417391 1.558450511
v 9.608510424 8.020384515 1.562156990
v 9.663966948 7.664925264 1.563491800
v 9.937028943 5.914681897 1.570064266
v 9.970566650 5.920704891 1.566243669
v 10.056018652 5.342279936 1.568943439
v 10.060777872 5.310064754 1.569093802
v 10.232707476 4.146272561 1.574525746
v 10.327420969 3.505156530 1.577518124
v 10.496278767 3.316071346 1.562876700
v 10.347947882 3.280817948 1.579954878
v 10.620742056 1.532291233 1.586520897
v 10.887641029 1.573931138 1.556247683
v 10.632412564 1.457486866 1.586801800
v 10.897582184 -0.242168803 1.593184300
v 11.023866131 -0.242933024 1.579289042
v 11.467175565 -2.079906272 1.568923536
v 11.575885577 -2.484192835 1.565414531
v 11.600982737 -2.577527795 1.564604430
v 12.007130046 -2.687942540 1.522176056
v 12.033096071 -2.700210713 1.519572589
v 11.311951303 -2.898147349 1.603157956
v 11.665950959 -5.167176211 1.611678550
v 11.985925654 -5.355732700 1.580379230
v 11.957214468 -5.224148464 1.580786452
v 12.186331218 -6.188658544 1.575745489
v 11.872627246 -6.794861265 1.622997426
v 12.805690482 -9.043405980 1.567300224
v 13.055753125 -8.962412921 1.538057565
v 13.156565952 -8.929760545 1.526268379
v 13.420220773 -9.850321318 1.516502389
v 13.866224091 -10.027038642 1.471072004
v 14.381848393 -10.231341488 1.418549949
v 14.407823642 -11.102348036 1.433928671
v 14.817959012 -11.212846805 1.391062737
v 15.061770038 -11.853116330 1.377613014
v 15.936050523 -11.674916965 1.277571758
v 15.999069713 -11.594784566 1.268951566
v 16.685281985 -15.135248532 1.267501748
v 18.682167439 -16.363849741 1.073256317
v 16.909931877 -5.004365125 1.030599497
v 16.734710716 -3.881251402 1.026382012
v 13.183541812 -4.593591532 1.432491197
v 13.074310529 -3.970565665 1.431476912
v 13.351875850 -3.915954072 1.399757063
v 13.369216019 -3.331486134 1.385607303
v 13.481252477 -3.088695785 1.368181148
v 13.277588390 -3.033327898 1.389457015
v 13.222083553 -2.373862675 1.381761208
v 13.088078508 -0.267049359 1.352403342
v 13.044528618 -0.264293290 1.357143021
v 13.088117340 -0.255425064 1.352155635
v 14.161875963 -2.115912601 1.272833157
v 13.238780239 2.646604182 1.274786194
v 12.993899897 3.909674157 1.275311383
v 12.814887981 4.833777175 1.275679050
v 12.485906062 6.372431529 1.279697620
v 11.988886401 -5.357477425 1.580089615
v 13.405168449 -4.549134749 1.407146131
v 13.044523851 -0.264236642 1.357142360
v 13.802113969 -0.259745892 1.273593256
v 12.993993211 3.909696335 1.275300639
v 13.195250195 -4.591242911 1.431152235
v 13.119424129 -4.105221164 1.429327140
v 13.028714365 -4.069375542 1.438568941
v 13.774390435 -0.116708270 1.273651829
v 11.003376675 -0.158029390 1.579768128
v 12.699117372 3.839613998 1.309251371
v 10.408959497 5.999435311 1.516302203
v 9.087565304 9.335650734 1.592000022
v 9.296399225 8.808393274 1.580036694
v 9.311728016 8.827687412 1.577944049
v 9.403163752 9.336593495 1.557214398
v 9.394609054 9.391426479 1.557008491
v 3.228188988 24.129223877 -1.023191789
v 2.239943764 23.975044054 -1.023473187
v 1.911411079 23.912817444 -1.023549364
v 3.682512050 15.275502572 -1.008931744
v 2.222231164 13.097372545 -1.006259554
v 3.124469032 8.252430071 -0.998108583
v 3.306617693 8.285518115 -0.998064111
v 3.270635405 8.516153508 -0.998448420
v 5.012798398 8.787954854 -0.997952347
v 6.756470523 9.059991646 -0.997455845
v 8.299399964 11.325586350 -1.000222571
v 9.054730232 9.418551715 -0.996801427
v 9.382401532 9.469672937 -0.996708124
v 9.394609054 9.391426479 -0.996577741
v 9.490624815 9.408868132 -0.996554299
v 9.778856080 9.586988203 -0.996683052
v 9.941942073 9.620929221 -0.996650068
v 11.505580153 11.589058843 -0.998934794
v 11.995023069 12.205113892 -0.999649948
v 13.139800971 13.646030051 -1.001322652
v 15.868569792 17.080693734 -1.005309820
v 16.541763085 13.729901206 -0.999646394
v 15.994302935 17.238952307 -1.005493536
v 15.890144460 17.906576080 -1.006606000
v 15.708343699 17.878212665 -1.006657767
v 13.396213477 17.517488606 -1.007316135
v 13.159825995 19.032659622 -1.009840869
v 12.147591215 25.520773085 -1.020652032
v 10.890794650 25.324695566 -1.021009899
v 10.364758100 25.242626641 -1.021159685
v 8.903435679 25.014640280 -1.021575789
v 13.232198948 18.568771267 -1.009067890
v -15.740836055 4.748623345 -1.002592830
v -18.113335986 4.378480782 -1.003268388
v -15.725530066 4.661016943 -1.002445980
v -15.157192653 1.408042241 -0.996993192
v -15.177053414 1.521718763 -0.997183742
v -18.740153392 4.280688661 -1.003446872
v -20.685816754 3.977138463 -1.004000890
v -22.042603738 3.765461065 -1.004387228
v -22.029763127 3.683156699 -1.004250084
v -21.757520589 1.938165808 -1.001342401
v -21.497178355 0.269452192 -0.998561818
v -21.447896921 -0.046426630 -0.998035468
v -21.064697939 -2.502614194 -0.993942716
v -20.947190161 -3.255802890 -0.992687675
v -20.926333802 -3.389485733 -0.992464919
v -20.811616121 -4.124790767 -0.991239678
v -20.506246965 -6.082113091 -0.987978186
v -20.360483677 -7.016410915 -0.986421363
v -20.214442921 -7.952487224 -0.984861576
v -15.039711357 -10.255045924 -0.978464086
v -13.184570438 -9.882917388 -0.978066788
v -13.184525415 -9.882850261 -0.978066870
v -13.228025199 -9.633871917 -0.978484219
v -13.261258959 -9.443652909 -0.978803073
v -13.913021324 -5.713181470 -0.985056264
v -16.121819847 -6.159647244 -0.985523925
v -13.997597233 -5.229097042 -0.985867709
v -14.256714920 -3.745993406 -0.988353757
v -14.454504188 -2.613913287 -0.990251402
v -14.494322981 -2.386003735 -0.990633435
v -14.555077736 -2.038263682 -0.991216333
v -14.642380015 -1.538574417 -0.992053936
v -14.896150703 -0.086075233 -0.994488683
v 1.970085931 -8.303256968 1.717205582
v -2.560382976 -8.135114486 -0.291865815
v 1.131058600 -20.035419520 0.244482896
v 1.436859337 -19.987710407 0.385618484
v 2.164062381 -19.874256747 0.721243015
v 3.850066830 -19.611216905 1.499381193
v 1.240807987 -8.417034340 1.380623427
v -0.376823567 -8.669407072 0.634041251
v -0.553486481 -8.696968912 0.552506378
v -1.928255931 -8.911451821 -0.081988150
v -2.061517736 -8.057284659 -0.061625563
v -13.359765722 4.406675852 -0.478285899
v -15.545202627 4.779144846 -0.952264275
v -15.654579498 4.762080552 -0.954016450
v -11.322461871 2.096716713 1.171228443
v -1.756077674 3.814731604 1.185712107
v -1.756082669 3.814750793 1.185699741
v -2.850271454 4.331721232 0.745045518
v -3.017732456 5.281651275 0.141799835
v -3.017734649 5.281663714 0.141791936
v -3.017724689 5.281662860 0.141793577
v -2.464762290 6.106445972 -0.303752141
v -3.144440244 6.000406880 -0.314640320
v -3.684309460 5.916179870 -0.323288817
v -5.213016729 5.677680547 -0.347778119
v -5.578396736 5.620676250 -0.353631366
v -5.930932125 5.565675889 -0.359278847
v -6.073210982 5.543478434 -0.361558099
v -6.418336013 5.489634190 -0.367086869
v -6.749529573 5.437963448 -0.372392463
v -6.763856264 5.435728287 -0.372621971
v -6.976681720 5.402524594 -0.376031353
v -7.572276822 5.309603581 -0.385572557
v -7.600633788 5.305179505 -0.386026824
v -8.185360366 5.213954130 -0.395393919
v -10.758038744 4.812580981 -0.436607235
v -11.863367610 4.640134502 -0.454314178
v 1.491872824 0.466820320 3.609483300
v 2.020019763 0.433396368 3.689208843
v -10.376601419 -2.295579285 1.276481024
v -10.405976674 -1.748165579 1.311909583
v -10.411087440 -1.652925452 1.318073514
v -14.694320476 1.491168872 -0.735287539
v -14.671425168 -0.087435183 -0.871360998
v -14.416953721 -1.504736181 -0.865225660
v -11.587245634 -1.932459756 0.646621482
v -9.836578349 -4.889146856 1.328493772
v -13.184570404 -9.882917398 -4.635263233
v -16.716612557 -10.591420746 -4.635263233
v -16.716661126 -10.591430550 -4.635263233
v -20.214442921 -7.952487224 -4.635263233
v -19.710344883 -11.183600532 -4.635263233
v -19.523208664 -11.154404713 -1.089499531
v -19.523208664 -11.154404713 -4.635263233
v -17.772783511 -10.881314356 -1.020679198
v -17.772783511 -10.881314356 -4.635263233
v -16.703024359 -10.714417241 -0.978620169
v -16.703024359 -10.714417241 -4.635263233
v -16.397124818 -10.666692712 -4.635263233
v -16.366880786 -10.860547654 -0.965931538
v -16.366880786 -10.860547654 -4.635263233
v -15.889866725 -13.918060996 -0.955493885
v -15.889866725 -13.918060996 -4.635263233
v -14.719459663 -21.420010116 -0.929883942
v -14.719459663 -21.420010116 -4.635263233
v -14.585596677 -22.278030664 -0.926954855
v -14.585596677 -22.278030664 -4.635263233
v -14.553703251 -22.482457716 -4.635263233
v -11.077949353 -21.940192387 -0.789603021
v -11.077949353 -21.940192387 -4.635263233
v -10.756833879 -21.890093964 -0.776977932
v -10.756833879 -21.890093964 -4.635263233
v -9.337009457 -21.668581860 -0.721155614
v -9.337009457 -21.668581860 -4.635263233
v -6.964707136 -21.298470127 -4.635263233
v -6.323491638 -21.406499007 -4.635263233
v -4.933269639 -21.640716746 -4.635263233
v -3.640606946 -21.439043618 -0.498944281
v -3.640606946 -21.439043618 -4.635263233
v -2.946305887 -21.330723120 -0.471646896
v -2.946305887 -21.330723120 -4.635263233
v -2.587348189 -21.274720791 -0.457533988
v -2.587348189 -21.274720791 -4.635263233
v -1.987306873 -21.181106107 -4.635263233
v -1.637411958 -20.981382687 -4.635263233
v -1.383798360 -20.836617618 -4.635263233
v -0.398142692 -20.273995917 -4.635263233
v -0.234126788 -20.248407184 -0.363263467
v -0.234126788 -20.248407184 -4.635263233
v -0.181266241 -20.240160213 -4.635263233
v -2.867665784 -8.183054823 -0.433674215
v -2.560382976 -8.135114486 -4.635263233
v -2.867665784 -8.183054823 -4.635263233
v -4.041861569 -8.366245486 -0.479839311
v -4.041861569 -8.366245486 -4.635263233
v -4.077332478 -8.371779435 -0.481233898
v -4.077332478 -8.371779435 -4.635263233
v -4.203604963 -8.391479677 -0.486198471
v -4.203604963 -8.391479677 -4.635263233
v -4.391828034 -8.420845060 -0.493598716
v -4.391828034 -8.420845060 -4.635263233
v -4.662355470 -8.463051054 -4.635263233
v -4.888571444 -9.002687057 -4.635263233
v -4.927039935 -9.094453463 -4.635263233
v -5.038156691 -9.359521394 -4.635263233
v -5.129028031 -9.576294070 -4.635263233
v -5.335431177 -9.608495795 -0.533460610
v -5.335431177 -9.608495795 -4.635263233
v -5.649531514 -9.657499760 -0.545809890
v -5.649531514 -9.657499760 -4.635263233
v -6.031214307 -9.717047516 -0.560816265
v -6.031214307 -9.717047516 -4.635263233
v -6.379105872 -9.771323376 -4.635263233
v -6.568739964 -8.555827201 -4.635263233
v -12.970113492 -9.563039477 -4.635263233
v -12.970106483 -9.563078564 -4.635263233
v -12.970147157 -9.563089666 -4.635263233
v -9.690051793 -15.089568171 -4.635263233
v -9.690051068 -15.089580608 -4.635263233
v -9.690115035 -15.089661030 -4.635263233
v -14.318954438 4.827449425 -4.635263233
v -14.559427523 4.932939297 -4.635263233
v -15.545202627 4.779144846 -4.635263233
v -15.528185728 4.684367670 -4.635263233
v -15.654579498 4.762080552 -4.635263233
v -15.740836055 4.748623345 -4.635263233
v -18.113335986 4.378480782 -4.635263233
v -18.366078566 4.339049470 -4.635263233
v -15.157192615 1.408042280 -4.635263233
v -14.555077708 -2.038263692 -0.872021234
v -14.227492032 -2.559959904 -4.635263233
v 1.911411089 23.912817416 -4.635263233
v 0.266181240 23.601198299 -4.635263233
v -0.909445524 23.378525546 -4.635263233
v -1.442454691 23.277569554 -4.635263233
v -0.975907347 20.287144645 -4.635263233
v -1.661810001 20.180134414 -4.635263233
v -2.027190009 20.123130116 -4.635263233
v -2.059597971 20.118074029 -4.635263233
v -2.115249751 20.108259557 -4.635263233
v -2.877930877 19.973757003 -4.635263233
v -5.826714034 19.453724822 -4.635263233
v -6.718528238 19.296449039 -4.635263233
v -7.792077359 19.107123430 -4.635263233
v -9.946067028 18.727256879 -4.635263233
v -10.473729286 18.634201034 -4.635263233
v -11.490150319 18.454950281 -4.635263233
v -16.896888367 17.501445698 -4.635263233
v -19.811920561 16.785843263 -4.635263233
v -19.569135897 15.229668271 -4.635263233
v -19.250787396 13.189152338 -4.635263233
v -19.342181800 13.174893557 -4.635263233
v -19.435354690 13.160357306 -4.635263233
v -20.954280287 12.923384059 -4.635263233
v -20.947867689 12.882281278 -4.635263233
v -20.420678132 9.503158438 -4.635263233
v -18.961628220 9.730790256 -4.635263233
v -17.277303452 9.993568045 -4.635263233
v -16.725419226 6.456159977 -4.635263233
v -16.666241427 6.076848498 -4.635263233
v -15.991306102 6.182147676 -4.635263233
v -15.802391398 6.211620963 -4.635263233
v -15.117674402 6.318446215 -4.635263233
v -13.414774339 6.584122006 -4.635263233
v -10.875894917 7.008189936 -4.635263233
v -9.131783230 7.299508145 -4.635263233
v -7.982710351 7.491437284 -4.635263233
v -7.981428739 7.491651402 -4.635263233
v -7.441181373 7.581888640 -4.635263233
v -7.173080150 7.626669512 -4.635263233
v -2.674043588 8.378141553 -4.635263233
v -0.723220795 8.703986649 -4.635263233
v -0.676304022 8.711823188 -4.635263233
v -0.653122016 8.715695251 -4.635263233
v -0.061423673 8.925054801 -4.635263233
v 0.710980261 9.198352955 -4.635263233
v 0.751840815 9.212810572 -4.635263233
v 0.866173124 8.479975656 -4.635263233
v 12.805009056 2.581491742 -4.635263233
v 12.699117416 3.839614015 -4.635263233
v 13.044523893 -0.264236631 -4.635263233
v 13.044528583 -0.264293285 -4.635263233
v 13.369216059 -3.331486109 -4.635263233
v 13.812414164 -0.312889233 1.273571498
v 13.802113962 -0.259745909 -4.635263233
v 13.073380987 -4.220608117 -4.635263233
v 11.988886454 -5.357477459 1.675067939
v 10.442761764 -19.039020505 -4.635263233
v 10.710226253 -18.997292372 -4.635263233
v 13.019787551 -18.636969100 -4.635263233
v 14.260972964 -18.443327135 -4.635263233
v 14.570528282 -18.395032255 -4.635263233
v 17.236478354 -17.979107441 -4.635263233
v 18.893829422 -17.720537920 -4.635263233
v 18.855908770 -17.477478207 -4.635263233
v 18.682167439 -16.363849741 -4.635263233
v 9.454519738 9.007417429 -4.635263233
v 11.769209152 6.243720804 -4.635263233
v 5.012798406 8.787954856 4.676234872
v 3.124469068 8.252430090 -4.635263233
v 3.786263427 4.698649265 -4.635263233
v 3.786280871 4.698647736 -4.635263233
v 3.786267365 4.698627917 -4.635263233
v 4.173211166 2.730920617 -4.635263233
v 4.154246149 2.722612679 -4.635263233
v 4.311256276 1.846093942 4.992426864
v 4.311256276 1.846093942 -4.635263233
v 4.355313938 1.563697880 4.994031727
v 4.393511889 1.318860768 -4.635263233
v 4.771577079 -1.104420759 5.009194705
v 4.771577079 -1.104420759 4.943631776
v 4.787891437 -1.208990779 -4.635263233
v 4.878685564 -1.167567347 -4.635263233
v 11.625231635 -4.906177876 4.059950866
v 11.625231635 -4.906177876 1.610698457
v 12.007130084 -2.687942510 -4.635263233
v 11.575885574 -2.484192822 3.995242029
v 11.122750178 -0.652685910 1.576976924
v 10.879659338 -0.127288870 1.592752906
v 10.879659338 -0.127288870 -4.635263233
v 10.510780611 2.237110256 4.019355400
v 10.510780611 2.237110256 1.583874180
v 10.435168634 2.721759764 4.016601126
v 10.435168634 2.721759764 1.582054238
v 9.716183785 7.330231404 3.990411078
v 9.716183785 7.330231404 1.564748633
v 9.663966954 7.664925222 -4.635263233
v 9.745479389 7.674569352 -4.635263233
v 9.311728035 8.827687430 -4.635263233
v 4.878713333 -1.167554614 -4.635263233
v 4.878679557 -1.167534682 -4.635263233
v 6.868117761 -0.259917798 -4.635263233
v 6.868088009 -0.259931448 -4.635263233
v 6.868081702 -0.259900753 -4.635263233
v -3.150972997 3.564224066 -4.635263233
v -11.322397987 2.096677445 -4.635263233
v -4.942687937 -3.900002606 -4.635263233
v -1.521043601 -3.208383578 -4.635263233
v -2.084791324 -0.010498972 1.400400003
v -2.084791324 -0.010498972 1.265706080
v -2.219493617 0.753605780 -4.635263233
v -4.093567350 -0.151457667 -4.635263233
v -4.093569225 -0.151448243 -4.635263233
v -4.093528701 -0.151448500 -4.635263233
v -4.130217069 0.039382815 -4.635263233
v -4.130131823 0.039395608 -4.635263233
v -4.130213686 0.039365024 -4.635263233
v -6.649893976 -0.135978328 -4.635263233
v -6.649865821 -0.135936285 -4.635263233
v -6.649858417 -0.135978549 -4.635263233
v -5.930810065 0.936586947 -4.635263233
v -5.930806343 0.936566982 -4.635263233
v -5.930822707 0.936568073 -4.635263233
v -6.954670384 -0.590574210 -4.635263233
v -6.954680555 -0.590589460 -4.635263233
v -6.954697120 -0.590579292 -4.635263233
v -7.223804236 -0.425009327 -4.635263233
v -7.223831322 -0.424992704 -4.635263233
v -7.223807692 -0.424989118 -4.635263233
v 13.103702615 3.935770718 -4.635263233
v 13.238804857 2.646607922 -4.635263233
v 13.238780239 2.646604182 -4.635263233
v 13.098672542 2.582682100 -4.635263233
v 13.086245620 -0.760094250 -4.635263233
v 13.405168494 -4.549134784 1.445612871
v 13.405168494 -4.549134784 1.407146126
v 13.183541797 -4.593591581 -4.635263233
v 5.754215645 -8.409814498 1.487166163
v 3.560235459 -7.059949124 1.446574776
v 3.207015629 -6.842627493 -4.635263233
v 3.400087243 -8.080157130 -4.635263233
v 3.070869778 -8.131519574 -4.635263233
v 2.629904128 -8.200316270 -4.635263233
v 1.970085931 -8.303256968 -4.635263233
v 1.420435043 -8.389010053 -4.635263233
v 1.240807987 -8.417034340 -4.635263233
v 3.850066830 -19.611216905 -4.635263233
v 4.059829338 -19.578491074 -4.635263233
v 4.322254784 -19.537549101 -4.635263233
v 4.830802891 -19.458208614 -4.635263233
v 5.142136695 -19.409636266 -4.635263233
v 6.068925357 -19.265044511 -4.635263233
v 6.835057477 -19.145517381 -4.635263233
v 7.967656457 -18.968816390 -4.635263233
v 8.187299442 -18.934549069 -4.635263233
v 8.915490533 -18.820941261 -4.635263233
v 10.353343455 -19.052970989 -4.635263233
v 3.766185124 4.806467804 -4.635263233
v 0.962932447 7.859778169 3.795637731
v 0.962932447 7.859778169 -4.635263233
v 1.148527835 6.670168841 -4.635263233
v 0.810516746 6.617434471 3.592543214
v 0.810516746 6.617434471 -4.635263233
v 0.750838670 6.608123871 3.559854329
v 0.750838670 6.608123871 -4.635263233
v 0.374787748 6.549454765 3.353871059
v 0.374787748 6.549454765 -4.635263233
v -0.235035239 6.454314006 3.019838283
v -0.235035239 6.454314006 -4.635263233
v -0.750104460 6.373956136 2.737707230
v -0.750104460 6.373956136 -4.635263233
v -2.155700996 6.154663778 1.967786577
v -2.155700996 6.154663778 -4.635263233
v -2.356966295 6.123263628 1.857542772
v -2.356966295 6.123263628 -4.635263233
v -2.464762290 6.106445972 -4.635263233
v -3.017724721 5.281662844 -4.635263233
v -3.017732437 5.281651317 -4.635263233
v -1.756082673 3.814750797 -4.635263233
v -1.756051866 3.814736272 -4.635263233
v -1.756077660 3.814731641 -4.635263233
v -1.851185033 0.381483225 -4.635263233
v -1.377629363 -4.021906862 -4.635263233
v -1.377617160 -4.021914371 -4.635263233
v -1.054806008 -4.220526040 1.535570192
v -0.324407640 -6.092125445 -4.635263233
v -0.048128804 -5.623432441 -4.635263233
v 0.567227250 -5.527428448 2.270926750
v 0.567227250 -5.527428448 -4.635263233
v 0.671367469 -5.511181144 2.327969937
v 0.671367469 -5.511181144 -4.635263233
v 0.967781753 -5.464936446 2.490331947
v 0.967781753 -5.464936446 -4.635263233
v 1.430682060 -5.392717643 2.743887286
v 1.430682060 -5.392717643 -4.635263233
v 2.061748071 -5.294262680 3.089556006
v 2.061748071 -5.294262680 -4.635263233
v 2.536307341 -5.220224919 3.349497585
v 2.536307341 -5.220224919 -4.635263233
v 2.943975786 -5.156623044 -4.635263233
v 2.949710129 -5.193378415 3.572244939
v 2.949710129 -5.193378415 -4.635263233
v 3.169526593 -6.602334313 3.550987940
v 3.169526593 -6.602334313 -4.635263233
v 4.699370368 -0.204659659 -4.635263233
v 4.501428919 0.858269606 -4.635263233
v 4.212565562 2.409441921 -4.635263233
v 0.783185303 1.245881179 -4.635263233
v 0.783201350 1.245871740 -4.635263233
v 0.783188187 1.245865941 -4.635263233
v 3.637857308 1.686064637 -4.635263233
v 3.637860441 1.686049742 -4.635263233
v 3.637841998 1.686045347 -4.635263233
v 1.656401946 2.202443244 -4.635263233
v 1.656398850 2.202458550 -4.635263233
v 1.656418302 2.202449338 -4.635263233
v 2.612832477 0.395880007 -4.635263233
v 2.612852617 0.395905314 -4.635263233
v 2.612858437 0.395878389 -4.635263233
v 1.367079323 1.146359331 -4.635263233
v 1.367075434 1.146353765 -4.635263233
v -0.681289423 0.604349641 -4.635263233
v -0.681201258 0.604366433 -4.635263233
v -0.681245868 0.604346822 -4.635263233
v -0.864703341 0.615937675 -4.635263233
v -0.864707921 0.615957304 -4.635263233
v -0.864639030 0.615952971 -4.635263233
v 0.128854732 1.631435170 -4.635263233
v 0.128847726 1.631472941 -4.635263233
v 0.128889640 1.631448207 -4.635263233
v -0.845250990 0.532481738 -4.635263233
v -0.845320412 0.532471312 -4.635263233
v -0.845255142 0.532499915 -4.635263233
v -1.611072722 -3.226581182 -4.635263233
v -1.611056627 -3.226652554 -4.635263233
v -4.991735831 -3.909916687 -4.635263233
v -5.031942633 -3.918043661 -4.635263233
v -5.956339506 -4.104892599 -4.635263233
v -9.836625445 -4.889217120 -4.635263233
v -6.680914186 -7.836824952 -4.635263233
v -6.777843073 -7.215540613 -4.635263233
v -6.084332453 -7.107343434 -4.635263233
v -5.449017837 -7.008225631 -4.635263233
v -5.267809905 -6.979954706 -4.635263233
v -4.487548704 -6.858223246 -4.635263233
v -4.373725619 -6.840465282 -4.635263233
v -4.367303309 -6.839463314 -4.635263233
v -4.036307358 -6.787823401 -4.635263233
v -3.207335410 -6.658492395 -4.635263233
v -2.961212749 -6.620093881 -4.635263233
v -2.854503607 -6.603445790 -4.635263233
v -1.308801919 -6.362295104 -4.635263233
v -0.974248997 -6.310100255 -4.635263233
v -0.913978093 -6.300697167 -4.635263233
v -0.400094529 -6.220524275 -4.635263233
v -1.377627270 -4.021918984 -4.635263233
v 15.006977968 7.192983866 0.984796352
v 15.062795319 6.835211825 -4.635263233
v 15.006977968 7.192983866 -4.635263233
v 14.965527304 7.458669870 0.983798655
v 14.965527304 7.458669870 -4.635263233
v 14.837845693 8.277069709 -4.635263233
v 14.604972809 9.769713239 -4.635263233
v 14.359998314 10.293409588 -4.635263233
v 14.222596902 10.587140585 -4.635263233
v 16.965318274 11.015042776 -4.635263233
v 16.541763085 13.729901206 -4.635263233
v 10.897582179 -0.242168771 -4.635263233
v 11.023866089 -0.242933069 -4.635263233
v 12.033096071 -2.700210713 -4.635263233
v 18.302405979 -13.929695638 1.064115650
v 18.302405979 -13.929695638 -4.635263233
v 17.468829883 -8.586729360 1.044051891
v 17.468829883 -8.586729360 -4.635263233
v 17.314495910 -7.597496089 1.040337150
v 17.314495910 -7.597496089 -4.635263233
v 16.909931877 -5.004365125 -4.635263233
v 16.838560893 -4.546899080 1.028881633
v 16.838560893 -4.546899080 -4.635263233
v 16.734710716 -3.881251402 -4.635263233
v 16.725800905 -3.824142250 1.026167557
v 16.725800905 -3.824142250 -4.635263233
v 16.364953526 -1.511221590 -4.635263233
v 16.201586423 -0.464088729 1.013549977
v 16.201586423 -0.464088729 -4.635263233
v 16.171943571 -0.274087173 1.012836489
v 16.171943571 -0.274087173 -4.635263233
v 16.074845120 0.348284019 1.010499378
v 16.074845120 0.348284019 -4.635263233
v 15.764913154 2.334852552 -4.635263233
v 15.659583147 3.009985487 1.000504231
v 15.659583147 3.009985487 -4.635263233
v 15.553436150 3.690355074 0.997949326
v 15.553436150 3.690355074 -4.635263233
v 15.552480426 3.696480970 0.997926322
v 15.552480426 3.696480970 -4.635263233
v 15.551648022 3.701816427 0.997906286
v 15.551648022 3.701816427 -4.635263233
v 15.428930008 4.488401132 -4.635263233
v 11.869007256 6.102189039 -4.635263233
v 14.274033424 -3.758984448 -4.635263233
v 12.485937989 6.372445500 -4.635263233
v 12.485906064 6.372431512 -4.635263233
v 13.113179886 6.485082893 -4.635263233
v 13.113253134 6.485096041 -4.635263233
v 13.113179787 6.485068607 -4.635263233
v 13.106637650 4.725271469 -4.635263233
v 13.071911193 -4.615983868 -4.635263233
v 13.351875850 -3.915954072 -4.635263233
v 9.403163752 9.336593495 -4.635263233
v 2.239943764 23.975044054 -4.635263233
v 9.941942073 9.620929221 -4.635263233
v 15.994302935 17.238952307 -4.635263233
v 15.890144460 17.906576080 -4.635263233
v 15.708343699 17.878212665 -4.635263233
v 13.396213477 17.517488606 -4.635263233
v 13.232198948 18.568771267 -4.635263233
v 13.159825995 19.032659622 -4.635263233
v 12.147591215 25.520773085 -4.635263233
v 10.890794650 25.324695566 -4.635263233
v 10.364758100 25.242626641 -4.635263233
v 8.903435679 25.014640280 -4.635263233
v 3.228188988 24.129223877 -4.635263233
v -18.740153392 4.280688661 -4.635263233
v -20.685816754 3.977138463 -4.635263233
v -22.042603738 3.765461065 -4.635263233
v -22.029763127 3.683156699 -4.635263233
v -21.757520589 1.938165808 -4.635263233
v -21.497178355 0.269452192 -4.635263233
v -21.447896921 -0.046426630 -4.635263233
v -21.064697939 -2.502614194 -4.635263233
v -20.947190161 -3.255802890 -4.635263233
v -20.926333802 -3.389485733 -4.635263233
v -20.811616121 -4.124790767 -4.635263233
v -20.506246965 -6.082113091 -4.635263233
v -20.360483677 -7.016410915 -4.635263233
v -13.184525415 -9.882850261 -4.635263233
v -15.177053414 1.521718763 -4.635263233
v 1.131058600 -20.035419520 -4.635263233
v 1.436859337 -19.987710407 -4.635263233
v 2.164062381 -19.874256747 -4.635263233
v -0.376823567 -8.669407072 -4.635263233
v -0.553486481 -8.696968912 -4.635263233
v -1.928255931 -8.911451821 -4.635263233
v -2.061517736 -8.057284659 -4.635263233
v -5.213016729 5.677680547 -4.635263233
v -5.578396736 5.620676250 -4.635263233
v -5.930932125 5.565675889 -4.635263233
v -6.073210982 5.543478434 -4.635263233
v -6.418336013 5.489634190 -4.635263233
v -6.749529573 5.437963448 -4.635263233
v -6.763856264 5.435728287 -4.635263233
v -6.976681720 5.402524594 -4.635263233
v -7.572276822 5.309603581 -4.635263233
v -7.600633788 5.305179505 -4.635263233
v -8.185360366 5.213954130 -4.635263233
v -10.758038744 4.812580981 -4.635263233
v -11.863367610 4.640134502 -4.635263233
v -13.359765722 4.406675852 -4.635263233
v -15.528256182 4.684359310 -4.635263233
v -7.111616958 2.852937008 -4.635263233
v -6.278299414 3.002591497 -4.635263233
v -3.017734675 5.281663720 -4.635263233
v -3.144440244 6.000406880 -4.635263233
v -3.684309460 5.916179870 -4.635263233
v 2.000459646 0.528558880 -4.635263233
v -10.411087440 -1.652925452 -4.635263233
v -11.322461896 2.096716662 -4.635263233
v -14.029775106 -3.661161627 -4.635263233
v -9.836565986 -4.889205111 -4.635263233
v -10.376601404 -2.295579311 -4.635263233
g roof
f 1 2 3
g roof
f 1 3 4
g roof
f 4 5 6
g roof
f 4 6 7
g roof
f 8 6 5
g roof
f 8 5 9
g roof
f 8 9 10
g roof
f 8 10 11
g roof
f 8 11 12
g roof
f 8 12 13
g roof
f 14 15 16
g roof
f 17 16 18
g roof
f 17 18 19
g roof
f 17 19 20
g roof
f 17 20 749 751 753 21
g roof
f 21 756 758 760 762 22 765 767 769 23
g roof
f 21 23 24
g roof
f 21 24 25
g roof
f 21 25 774 776 778 26
g roof
f 21 26 27
g roof
f 21 27 28
g roof
f 29 784 30 31
g roof
f 32 31 33
g roof
f 33 787 790 792 794 796 34 35
g roof
f 33 35 36
g roof
f 33 36 37
g roof
f 33 37 38
g roof
f 1 4 7
g roof
f 7 8 13
g roof
f 7 13 39
g roof
f 7 39 14
g roof
f 14 15 16 17 21
g roof
f 28 29 31
g roof
f 32 33 38
g roof
f 32 38 803 805 807 1
g roof
f 32 1 7
g roof
f 28 31 32
g roof
f 28 32 40
g roof
f 28 40 41
g roof
f 32 7 39 14
g roof
f 32 14 21
g roof
f 21 28 41
g roof
f 21 41 32
g roof
f 42 43 44
g roof
f 42 44 45
g roof
f 46 47 48
g roof
f 48 49 50
g roof
f 48 50 51
g roof
f 48 51 52
g roof
f 48 52 53
g roof
f 48 53 54
g roof
f 48 54 55
g roof
f 55 56 57
g roof
f 58 59 60
g roof
f 58 60 61
g roof
f 62 63 64
g roof
f 64 65 66
g roof
f 48 55 57
g roof
f 48 57 58
g roof
f 48 58 61 67
g roof
f 48 67 826 62
g roof
f 62 64 66
g roof
f 62 66 68
g roof
f 62 68 46 48
g roof
f 69 70 71
g roof
f 69 71 72
g roof
f 69 72 73
g roof
f 69 73 74
g roof
f 69 74 75
g roof
f 76 77 78
g roof
f 78 79 80
g roof
f 78 80 81
g roof
f 78 81 82
g roof
f 78 82 83
g roof
f 78 83 84
g roof
f 78 84 85
g roof
f 78 85 86
g roof
f 78 86 87
g roof
f 78 87 88
g roof
f 78 88 89
g roof
f 78 89 90
g roof
f 78 90 91
g roof
f 78 91 92
g roof
f 78 92 93
g roof
f 78 93 94
g roof
f 78 94 95
g roof
f 78 95 96
g roof
f 78 96 97
g roof
f 78 97 98
g roof
f 78 98 99
g roof
f 78 99 100
g roof
f 78 100 101
g roof
f 78 101 102
g roof
f 78 102 103
g roof
f 78 103 104
g roof
f 78 104 105
g roof
f 78 105 106
g roof
f 78 106 107
g roof
f 78 107 108
g roof
f 78 108 109
g roof
f 78 109 110
g roof
f 78 110 111
g roof
f 78 111 112
g roof
f 78 112 113
g roof
f 78 113 114
g roof
f 78 114 115
g roof
f 78 115 116
g roof
f 78 116 117
g roof
f 78 117 118
g roof
f 78 118 119
g roof
f 78 119 120
g roof
f 78 120 121
g roof
f 78 121 122
g roof
f 78 122 123
g roof
f 78 123 124
g roof
f 78 124 125
g roof
f 78 125 126
g roof
f 78 126 127
g roof
f 78 127 76
g roof
f 128 129 130
g roof
f 128 130 131
g roof
f 132 133 134
g roof
f 132 134 135
g roof
f 132 135 136
g roof
f 136 137 138
g roof
f 136 138 139
g roof
f 136 139 140
g roof
f 136 140 141
g roof
f 136 141 142
g roof
f 136 142 143
g roof
f 136 143 132
g roof
f 144 145 146
g roof
f 144 146 147
g roof
f 144 147 148
g roof
f 144 148 149
g roof
f 144 149 150
g roof
f 144 150 151
g roof
f 144 151 152
g roof
f 152 153 154
g roof
f 152 154 155
g roof
f 156 157 158
g roof
f 156 157 158 159
g roof
f 159 160 144
g roof
f 159 160 144 152
g roof
f 159 152 155
g roof
f 159 155 156
g roof
f 161 162 163
g roof
f 164 165 166
g roof
f 167 168 169
g roof
f 167 169 170
g roof
f 170 171 172
g roof
f 172 173 174
g roof
f 172 174 175
g roof
f 175 176 177
g roof
f 175 177 178
g roof
f 179 883 180 181
g roof
f 179 181 182
g roof
f 179 182 183
g roof
f 179 183 184
g roof
f 184 185 186
g roof
f 184 186 187
g roof
f 184 187 188
g roof
f 184 188 189
g roof
f 184 189 190
g roof
f 184 190 191
g roof
f 184 191 192
g roof
f 192 193 194
g roof
f 192 194 195
g roof
f 192 195 196
g roof
f 192 196 197
g roof
f 192 197 198
g roof
f 192 198 199
g roof
f 192 199 200
g roof
f 192 200 201
g roof
f 192 201 167
g roof
f 192 167 170
g roof
f 192 170 172
g roof
f 192 172 175
g roof
f 192 175 178
g roof
f 192 178 202
g roof
f 202 179 184
g roof
f 202 184 192
g roof
f 203 204 205
g roof
f 203 205 206
g roof
f 203 206 207
g roof
f 203 207 208
g roof
f 203 208 209
g roof
f 210 626 211 212
g roof
f 210 212 213
g roof
f 210 213 214
g roof
f 210 214 215
g roof
f 210 215 216
g roof
f 217 218 219
g roof
f 220 221 222
g roof
f 223 224 225
g roof
f 226 227 228
g roof
f 228 229 230
g roof
f 229 231 232
g roof
f 229 232 233
g roof
f 232 231 234
g roof
f 232 231 234 235
g roof
f 232 235 917 919 236
g roof
f 236 237 238
g roof
f 236 238 239
g roof
f 236 239 240
g roof
f 236 240 241
g roof
f 236 241 242
g roof
f 236 242 243
g roof
f 244 245 246
g roof
f 246 247 248
g roof
f 246 248 249
g roof
f 250 251 252
g roof
f 250 252 253
g roof
f 253 254 255
g roof
f 255 895 256 257
g roof
f 257 258 259
g roof
f 257 259 260
g roof
f 257 260 261
g roof
f 257 261 262
g roof
f 262 263 264
g roof
f 262 264 265
g roof
f 266 267 268
g roof
f 266 268 269
g roof
f 269 902 904 270 271
g roof
f 272 273 906 274
g roof
f 272 274 275 289
g roof
f 276 277 278
g roof
f 276 278 279
g roof
f 276 279 280
g roof
f 276 280 281
g roof
f 276 281 282
g roof
f 276 282 283
g roof
f 276 283 284
g roof
f 276 284 285
g roof
f 276 285 286
g roof
f 276 286 910 287
g roof
f 287 223 225
g roof
f 287 225 913 288
g roof
f 287 288 226
g roof
f 287 226 228
g roof
f 287 228 230
g roof
f 289 230 229
g roof
f 289 229 233
g roof
f 289 233 290
g roof
f 290 232 236
g roof
f 290 236 243
g roof
f 290 243 921 244
g roof
f 290 244 246
g roof
f 290 246 249
g roof
f 290 249 250
g roof
f 290 250 253
g roof
f 290 253 255
g roof
f 290 255 257
g roof
f 290 257 262
g roof
f 290 262 265
g roof
f 290 265 266
g roof
f 290 266 269
g roof
f 290 269 271 291
g roof
f 290 291 292
g roof
f 290 292 272
g roof
f 293 276 287
g roof
f 293 287 230
g roof
f 275 293 230
g roof
f 289 290 272
g roof
f 289 272 275
g roof
f 294 295 296
g roof
f 294 296 297
g roof
f 294 297 298
g roof
f 294 298 299
g roof
f 299 297 296
g roof
f 299 296 300
g roof
f 299 300 301
g roof
f 299 301 302
g roof
f 303 302 301
g roof
f 303 301 304
g roof
f 303 304 305
g roof
f 303 305 306
g roof
f 303 306 307
g roof
f 303 307 308
g roof
f 303 308 309
g roof
f 303 309 310
g roof
f 303 310 311
g roof
f 303 311 312
g roof
f 303 312 313
g roof
f 303 313 314
g roof
f 303 314 315
g roof
f 303 315 316
g roof
f 303 316 317
g roof
f 303 317 318
g roof
f 303 318 319
g roof
f 303 319 320
g roof
f 303 320 321
g roof
f 303 321 322
g roof
f 303 322 323
g roof
f 303 323 324
g roof
f 303 324 325
g roof
f 303 325 326
g roof
f 303 326 327
g roof
f 328 329 330
g roof
f 328 330 331
g roof
f 328 331 332
g roof
f 328 332 333
g roof
f 328 333 334
g roof
f 328 334 335
g roof
f 328 335 336
g roof
f 328 336 337
g roof
f 328 337 338
g roof
f 328 338 339
g roof
f 328 339 340
g roof
f 328 340 341
g roof
f 328 341 342
g roof
f 328 342 343
g roof
f 328 343 344
g roof
f 328 344 936 345
g roof
f 345 936 346 347
g roof
f 936 345 347 348
g roof
f 349 347 346
g roof
f 350 346 351
g roof
f 350 351 352
g roof
f 350 352 353
g roof
f 350 353 295
g roof
f 356 354 295
g roof
f 356 295 294
g roof
f 294 299 302
g roof
f 294 302 357
g roof
f 294 357 303
g roof
f 327 328 936 345
g roof
f 327 936 345 348
g roof
f 327 348 349
g roof
f 349 346 350
g roof
f 349 350 358
g roof
f 359 350 295
g roof
f 295 354 355
g roof
f 355 356 294
g roof
f 327 349 358
g roof
f 327 358 359
g roof
f 359 350 295 355
g roof
f 359 350 355 294
g roof
f 359 294 360
g roof
f 361 294 303
g roof
f 327 359 294 360
g roof
f 303 327 360
g roof
f 303 360 361
g roof
f 362 363 364
g roof
f 362 364 365
g roof
f 135 366 367
g roof
f 135 367 136
g roof
f 368 369 370
g roof
f 368 370 371
g roof
f 368 371 366 372
g roof
f 372 368 366
g roof
f 373 151 150
g roof
f 374 375 376
g roof
f 374 961 376 377
g roof
f 378 379 380
g roof
f 381 965 382 383
g roof
f 384 385 386
g roof
f 386 387 388
g roof
f 386 388 389
g roof
f 386 389 390
g roof
f 386 390 391
g roof
f 386 391 392
g roof
f 386 392 393
g roof
f 386 393 394
g roof
f 386 394 395
g roof
f 386 395 396
g roof
f 386 396 397
g roof
f 386 397 398
g roof
f 386 398 399
g roof
f 386 399 400
g roof
f 386 400 401
g roof
f 386 401 402
g roof
f 386 402 403
g roof
f 386 403 404
g roof
f 386 404 405
g roof
f 386 405 406
g roof
f 386 406 964 381
g roof
f 386 381 383
g roof
f 386 383 407
g roof
f 386 407 384
g roof
f 408 272 409
g roof
f 408 409 129
g roof
f 410 218 411
g roof
f 219 218 130
g roof
f 130 129 409
g roof
f 130 409 292
g roof
f 130 292 412
g roof
f 130 412 413
g roof
f 130 413 414
g roof
f 414 412 292
g roof
f 414 292 415
g roof
f 415 292 291
g roof
f 415 291 271
g roof
f 415 271 416
g roof
f 415 416 417
g roof
f 418 419 417
g roof
f 418 419 417 420
g roof
f 418 420 421
g roof
f 422 420 417
g roof
f 417 423 424
g roof
f 417 424 425
g roof
f 426 424 423
g roof
f 426 423 269
g roof
f 427 428 429
g roof
f 430 428 427
g roof
f 430 427 431
g roof
f 430 431 432
g roof
f 432 269 433
g roof
f 432 433 434
g roof
f 435 433 269
g roof
f 435 269 268
g roof
f 268 436 437
g roof
f 438 436 268
g roof
f 438 268 267
g roof
f 438 267 439
g roof
f 439 440 264
g roof
f 260 259 258
g roof
f 260 259 258 441
g roof
f 260 441 442
g roof
f 442 443 985 444
g roof
f 444 988 990 992 994 996 998 1000 445 446
g roof
f 444 446 447
g roof
f 444 447 448
g roof
f 444 448 449
g roof
f 444 449 450
g roof
f 451 452 453
g roof
f 451 453 454
g roof
f 451 454 455
g roof
f 451 455 456
g roof
f 457 458 459
g roof
f 457 458 459 460
g roof
f 461 462 463
g roof
f 461 463 464
g roof
f 461 464 465
g roof
f 461 465 466
g roof
f 461 466 467
g roof
f 461 467 468
g roof
f 461 468 469
g roof
f 469 1011 470 471
g roof
f 469 471 472
g roof
f 469 472 473
g roof
f 469 473 474
g roof
f 469 474 1014 1016 1018 1020 1022 1024 475
g roof
f 475 1027 1029 476 477
g roof
f 475 477 478
g roof
f 475 478 479
g roof
f 475 479 277
g roof
f 475 277 480
g roof
f 475 480 276
g roof
f 475 276 293
g roof
f 475 293 481
g roof
f 475 481 275
g roof
f 475 275 482
g roof
f 475 482 907 408
g roof
f 475 408 410
g roof
f 475 410 411
g roof
f 219 130 414
g roof
f 219 414 415
g roof
f 219 415 483
g roof
f 219 483 484
g roof
f 485 415 417
g roof
f 417 419 486
g roof
f 426 269 432
g roof
f 426 432 427
g roof
f 430 432 434
g roof
f 435 268 437
g roof
f 435 437 438
g roof
f 438 439 264
g roof
f 438 264 263
g roof
f 438 263 261 260
g roof
f 260 442 444
g roof
f 260 444 450
g roof
f 461 469 475
g roof
f 461 475 411
g roof
f 461 411 219
g roof
f 461 219 484
g roof
f 484 485 417
g roof
f 484 417 487
g roof
f 484 487 488
g roof
f 489 487 417
g roof
f 489 417 486
g roof
f 489 486 418
g roof
f 489 418 421
g roof
f 425 426 427
g roof
f 429 430 434
g roof
f 435 438 260
g roof
f 435 260 450 451
g roof
f 461 484 487 488
g roof
f 461 488 489 421
g roof
f 461 421 422
g roof
f 417 425 427
g roof
f 434 435 451
g roof
f 451 456 457 460 461 422
g roof
f 422 417 427
g roof
f 422 427 429
g roof
f 422 429 434
g roof
f 422 434 451
g roof
f 340 339 490
g roof
f 491 432 492
g roof
f 491 492 427
g roof
f 493 341 340
g roof
f 493 340 490
g roof
f 490 339 338
g roof
f 490 338 337
g roof
f 490 337 336
g roof
f 490 336 335
g roof
f 490 335 334
g roof
f 334 333 332
g roof
f 334 333 332 331
g roof
f 331 330 329
g roof
f 331 330 329 494
g roof
f 494 495 496
g roof
f 494 495 496 497
g roof
f 494 497 5
g roof
f 494 5 498
g roof
f 494 498 499
g roof
f 494 499 500
g roof
f 494 500 501
g roof
f 494 501 502
g roof
f 494 502 503
g roof
f 494 503 504
g roof
f 494 504 505
g roof
f 494 505 506
g roof
f 494 506 507
g roof
f 494 507 508
g roof
f 494 508 509
g roof
f 494 509 510
g roof
f 494 510 511
g roof
f 494 511 512
g roof
f 494 512 513
g roof
f 494 513 514
g roof
f 494 514 515
g roof
f 515 516 517
g roof
f 515 517 518
g roof
f 519 520 521
g roof
f 519 521 522
g roof
f 522 493 490
g roof
f 522 493 490 335 334
g roof
f 522 334 333 332 331
g roof
f 522 331 330 329 494
g roof
f 494 515 518
g roof
f 494 518 523
g roof
f 494 523 524
g roof
f 494 524 519
g roof
f 494 519 522
g roof
f 525 526 1110 1112 1114 527
g roof
f 528 527 530 368
g roof
f 528 368 372
g roof
f 528 372 366
g roof
f 529 530 527
g roof
f 529 527 1117 1119 1121 1123 531
g roof
f 529 531 532
g roof
f 366 533 534
g roof
f 535 532 531
g roof
f 531 536 362
g roof
f 531 362 365
g roof
f 362 536 537
g roof
f 362 537 538
g roof
f 539 538 540
g roof
f 539 540 537
g roof
f 539 540 537 536
g roof
f 539 536 1083 1086 541
g roof
f 539 541 542
g roof
f 539 542 543
g roof
f 539 543 544
g roof
f 539 544 545 614
g roof
f 546 542 541
g roof
f 546 541 547
g roof
f 546 547 548
g roof
f 546 548 549
g roof
f 549 550 551
g roof
f 549 551 552
g roof
f 549 552 553
g roof
f 549 553 554
g roof
f 549 554 555
g roof
f 549 555 556
g roof
f 549 556 557
g roof
f 549 557 558
g roof
f 549 558 559
g roof
f 210 560 922 561
g roof
f 210 561 562
g roof
f 210 562 563
g roof
f 210 563 564
g roof
f 210 564 565
g roof
f 210 565 566
g roof
f 210 566 567
g roof
f 567 568 920 918 569
g roof
f 567 569 570
g roof
f 570 571 915 572
g roof
f 573 914 574 575
g roof
f 573 575 576
g roof
f 573 576 577
g roof
f 573 577 578
g roof
f 578 579 911 580
g roof
f 580 581 582
g roof
f 583 584 585
g roof
f 583 585 586
g roof
f 583 586 587
g roof
f 587 588 589
g roof
f 587 589 590
g roof
f 590 591 592
g roof
f 592 593 594
g roof
f 592 594 595
g roof
f 595 596 597
g roof
f 595 597 1097 1099 1101 598
g roof
f 595 598 165
g roof
f 595 165 164
g roof
f 166 165 598
g roof
f 166 598 1104 599
g roof
f 166 599 962 616 620 600
g roof
f 166 600 378
g roof
f 599 1107 526 525
g roof
f 602 525 157
g roof
f 602 157 603
g roof
f 603 604 605
g roof
f 606 152 151
g roof
f 606 151 373
g roof
f 150 607 608
g roof
f 610 525 527
g roof
f 366 611 529
g roof
f 529 532 367
g roof
f 612 535 531 365 619
g roof
f 613 362 538
g roof
f 613 538 539
g roof
f 613 539 614
g roof
f 210 546 549
g roof
f 210 549 559
g roof
f 210 567 570
g roof
f 578 580 582
g roof
f 578 582 615
g roof
f 578 615 583
g roof
f 578 583 587
g roof
f 578 587 590
g roof
f 578 590 592
g roof
f 578 592 595
g roof
f 164 166 378
g roof
f 599 525 602
g roof
f 599 602 616 962
g roof
f 601 602 603
g roof
f 601 603 605
g roof
f 601 605 606
g roof
f 601 606 373
g roof
f 601 373 150
g roof
f 601 150 608 617
g roof
f 618 880 610 527
g roof
f 619 613 614
g roof
f 619 614 545 211
g roof
f 573 578 595
g roof
f 600 620 621
g roof
f 621 602 601
g roof
f 622 601 617
g roof
f 623 618 527
g roof
f 623 527 528
g roof
f 366 611 529 367
g roof
f 595 164 378
g roof
f 380 600 621
g roof
f 380 621 601
g roof
f 609 623 528
g roof
f 573 595 378
g roof
f 617 609 528
g roof
f 624 528 366
g roof
f 622 617 528
g roof
f 380 622 528
g roof
f 573 378 380
g roof
f 573 380 528
g roof
f 624 366 534
g roof
f 624 534 133
g roof
f 624 133 132
g roof
f 624 132 143 142
g roof
f 625 612 619 211
g roof
f 626 210 570
g roof
f 142 625 211
g roof
f 142 211 626 570
g roof
f 142 570 572
g roof
f 624 142 572
g roof
f 624 572 573
g roof
f 627 628 629
g roof
f 627 629 558
g roof
f 627 558 630
g roof
f 627 630 631
g roof
f 632 633 634
g roof
f 632 634 635
g roof
f 635 636 637
g roof
f 637 638 639
g roof
f 640 641 642
g roof
f 642 643 644
g roof
f 644 645 646
g roof
f 644 646 647
g roof
f 648 649 650
g roof
f 648 649 650 651
g roof
f 648 649 650 651 652
g roof
f 652 653 654
g roof
f 652 654 655
g roof
f 652 655 656
g roof
f 652 656 657
g roof
f 658 659 660
g roof
f 658 660 661
g roof
f 658 661 662
g roof
f 658 662 632
g roof
f 658 632 635
g roof
f 635 637 639
g roof
f 635 639 640
g roof
f 635 640 642
g roof
f 642 644 647
g roof
f 642 647 648
g roof
f 642 648 649 650 651 652
g roof
f 642 652 657
g roof
f 642 657 663
g roof
f 642 663 658
g roof
f 642 658 635
g roof
f 664 665 666
g roof
f 667 668 56
g roof
f 56 55 669
g roof
f 56 669 670
g roof
f 56 670 671
g roof
f 56 671 672
g roof
f 56 672 673
g roof
f 56 673 674
g roof
f 56 674 675
g roof
f 56 675 676
g roof
f 56 676 677
g roof
f 56 677 678
g roof
f 56 678 679
g roof
f 56 679 680
g roof
f 56 680 681
g roof
f 56 681 682
g roof
f 16 683 684
g roof
f 16 683 684 685
g roof
f 16 685 686
g roof
f 16 686 687
g roof
f 16 687 688
g roof
f 16 688 689
g roof
f 689 690 691
g roof
f 689 691 692
g roof
f 689 692 693
g roof
f 689 693 694
g roof
f 689 694 695
g roof
f 689 695 696
g roof
f 689 696 60
g roof
f 59 667 56
g roof
f 59 56 682
g roof
f 18 16 689
g roof
f 18 689 60
g roof
f 60 59 682
g roof
f 60 682 18
g roof
f 697 387 386
g roof
f 698 31 30
g roof
f 698 30 699
g roof
f 698 699 700
g roof
f 698 700 701
g roof
f 698 701 702
g roof
f 702 703 704
g roof
f 702 704 705
g roof
f 702 705 706
g roof
f 706 707 698
g roof
f 706 698 702
g roof
f 708 43 42
g roof
f 42 709 710
g roof
f 42 710 50
g roof
f 42 50 49
g roof
f 42 49 711
g roof
f 42 711 318
g roof
f 42 318 317
g roof
f 42 317 316
g roof
f 42 316 315
g roof
f 42 315 314
g roof
f 42 314 313
g roof
f 42 313 312
g roof
f 42 312 311
g roof
f 42 311 310
g roof
f 42 310 309
g roof
f 42 309 308
g roof
f 306 305 712
g roof
f 306 305 712 713
g roof
f 306 713 714
g roof
f 306 714 715
g roof
f 306 715 716
g roof
f 716 717 718
g roof
f 716 718 719
g roof
f 716 719 720
g roof
f 716 720 721
g roof
f 716 721 722
g roof
f 716 722 723
g roof
f 716 723 724
g roof
f 716 724 725
g roof
f 716 725 726
g roof
f 716 726 727
g roof
f 716 727 728
g roof
f 716 728 729
g roof
f 716 729 730
g roof
f 716 730 731
g roof
f 716 731 732
g roof
f 716 732 733
g roof
f 716 733 708
g roof
f 708 42 308
g roof
f 708 308 307
g roof
f 708 307 306
g roof
f 708 306 716
g roof
f 485 484 734
g roof
f 485 734 735
g roof
f 736 737 738
g roof
f 320 319 318 711
g roof
f 711 49 48
g roof
f 711 48 739
g roof
f 711 739 46
g roof
f 711 46 740
g roof
f 711 740 741
g roof
f 711 741 68
g roof
f 711 68 66
g roof
f 711 66 742
g roof
f 64 692 691
g roof
f 64 691 74
g roof
f 72 688 687
g roof
f 72 687 11
g roof
f 72 11 496
g roof
f 72 496 495
g roof
f 72 495 494
g roof
f 494 329 743
g roof
f 494 743 328
g roof
f 494 328 327
g roof
f 327 736 737 738
g roof
f 327 738 323
g roof
f 323 322 321 320 711
g roof
f 323 711 742
g roof
f 323 64 74
g roof
f 323 74 73 72
g roof
f 323 72 494
g roof
f 323 494 327
g roof_step_or_fixture_side
f 5 4 498
g roof_step_or_fixture_side
f 5 497 9
g roof_step_or_fixture_side
f 497 496 10 9
g roof_step_or_fixture_side
f 496 11 10
g roof_step_or_fixture_side
f 12 11 687
g roof_step_or_fixture_side
f 13 12 687 686
g roof_step_or_fixture_side
f 39 13 686 685
g roof_step_or_fixture_side
f 14 39 685 684
g roof_step_or_fixture_side
f 15 14 684 683
g roof_step_or_fixture_side
f 16 15 683
g facade_completed
f 17 16 745 746
g facade_completed
f 16 17 746 745
g roof_step_or_fixture_side
f 18 682 19
g facade_completed
f 20 19 747 748
g facade_completed
f 749 20 748 750
g facade_completed
f 751 749 750 752
g facade_completed
f 753 751 752 754
g facade_completed
f 21 753 754 755
g facade_completed
f 756 21 755 757
g facade_completed
f 758 756 757 759
g facade_completed
f 760 758 759 761
g facade_completed
f 762 760 761 763
g facade_completed
f 22 762 763 764
g facade_completed
f 765 22 764 766
g facade_completed
f 767 765 766 768
g facade_completed
f 769 767 768 770
g facade_completed
f 23 769 770 771
g facade_completed
f 24 23 771 772
g facade_completed
f 25 24 772 773
g facade_completed
f 774 25 773 775
g facade_completed
f 776 774 775 777
g facade_completed
f 778 776 777 779
g facade_completed
f 26 778 779 780
g facade_completed
f 27 26 780 781
g facade_completed
f 28 27 781 782
g facade_completed
f 29 28 782 783
g facade_completed
f 784 29 783 785
g facade_completed
f 30 784 785 786
g roof_step_or_fixture_side
f 31 698 33
g facade_completed
f 787 33 788 789
g facade_completed
f 790 787 789 791
g facade_completed
f 792 790 791 793
g facade_completed
f 794 792 793 795
g facade_completed
f 796 794 795 797
g facade_completed
f 34 796 797 798
g facade_completed
f 35 34 798 799
g facade_completed
f 36 35 799 800
g facade_completed
f 37 36 800 801
g facade_completed
f 38 37 801 802
g facade_completed
f 803 38 802 804
g facade_completed
f 805 803 804 806
g facade_completed
f 807 805 806 808
g facade_completed
f 1 807 808 809
g facade_completed
f 2 1 809 810 500
g roof_step_or_fixture_side
f 3 2 500 499
g roof_step_or_fixture_side
f 4 3 499 498
g facade_completed
f 6 8 811 812
g facade_completed
f 7 6 812 813
g facade_completed
f 8 7 813 811
g facade_completed
f 40 32 814 815
g facade_completed
f 41 40 815 816
g facade_completed
f 32 41 816 814
g facade_completed
f 44 43 817 818
g facade_completed
f 45 44 818 819 709
g roof_step_or_fixture_side
f 42 45 709
g roof_step_or_fixture_side
f 739 48 47
g roof_step_or_fixture_side
f 51 50 710
g facade_completed
f 52 51 710 821 822 664
g roof_step_or_fixture_side
f 53 52 664 666
g roof_step_or_fixture_side
f 54 53 666 665
g facade_completed
f 55 54 665 823 824
g roof_step_or_fixture_side
f 57 56 668
g roof_step_or_fixture_side
f 58 57 668 667
g roof_step_or_fixture_side
f 59 58 667
g roof_step_or_fixture_side
f 61 60 696
g roof_step_or_fixture_side
f 67 61 696 695
g roof_step_or_fixture_side
f 826 67 695 694
g roof_step_or_fixture_side
f 62 826 694 693
g roof_step_or_fixture_side
f 63 62 693 692
g roof_step_or_fixture_side
f 64 63 692
g roof_step_or_fixture_side
f 64 742 65
g roof_step_or_fixture_side
f 742 66 65
g roof_step_or_fixture_side
f 46 739 47
g roof_step_or_fixture_side
f 72 71 688
g roof_step_or_fixture_side
f 75 74 691
g roof_step_or_fixture_side
f 69 75 691 690
g roof_step_or_fixture_side
f 70 69 690 689
g roof_step_or_fixture_side
f 71 70 689 688
g roof_step_or_fixture_side
f 78 77 637 636
g roof_step_or_fixture_side
f 79 78 636 635
g roof_step_or_fixture_side
f 80 79 635 634
g facade_completed
f 81 80 634 828 829
g facade_completed
f 82 81 829 830
g facade_completed
f 83 82 830 831
g facade_completed
f 84 83 831 832
g facade_completed
f 85 84 832 833
g facade_completed
f 86 85 833 834
g facade_completed
f 87 86 834 835
g facade_completed
f 88 87 835 836
g facade_completed
f 89 88 836 837
g facade_completed
f 90 89 837 838
g facade_completed
f 91 90 838 839
g facade_completed
f 92 91 839 840
g facade_completed
f 93 92 840 841
g facade_completed
f 94 93 841 842
g facade_completed
f 95 94 842 843
g facade_completed
f 96 95 843 844
g facade_completed
f 97 96 844 845
g facade_completed
f 98 97 845 846
g facade_completed
f 99 98 846 847
g facade_completed
f 100 99 847 848
g facade_completed
f 101 100 848 849
g facade_completed
f 102 101 849 850
g facade_completed
f 103 102 850 851
g facade_completed
f 104 103 851 852
g facade_completed
f 105 104 852 853
g facade_completed
f 106 105 853 854
g facade_completed
f 107 106 854 855
g facade_completed
f 108 107 855 856
g facade_completed
f 109 108 856 857
g facade_completed
f 110 109 857 858
g facade_completed
f 111 110 858 859
g facade_completed
f 112 111 859 860
g facade_completed
f 113 112 860 861
g facade_completed
f 114 113 861 862
g facade_completed
f 115 114 862 863
g facade_completed
f 116 115 863 864
g facade_completed
f 117 116 864 865
g facade_completed
f 118 117 865 866
g facade_completed
f 119 118 866 867
g facade_completed
f 120 119 867 868
g facade_completed
f 121 120 868 869
g facade_completed
f 122 121 869 870
g facade_completed
f 123 122 870 871
g facade_completed
f 124 123 871 872
g facade_completed
f 125 124 872 873
g facade_completed
f 126 125 873 874
g roof_step_or_fixture_side
f 443 442 127 126
g roof_step_or_fixture_side
f 442 441 76 127
g roof_step_or_fixture_side
f 441 258 77 76
g roof_step_or_fixture_side
f 131 130 218
g roof_step_or_fixture_side
f 128 131 218 410
g roof_step_or_fixture_side
f 129 128 410
g roof_step_or_fixture_side
f 534 533 135 134
g roof_step_or_fixture_side
f 136 367 137
g roof_step_or_fixture_side
f 367 532 138 137
g roof_step_or_fixture_side
f 532 535 139 138
g roof_step_or_fixture_side
f 535 612 140 139
g roof_step_or_fixture_side
f 612 625 141 140
g roof_step_or_fixture_side
f 625 142 141
g roof_step_or_fixture_side
f 133 534 134
g roof_step_or_fixture_side
f 623 609 146 145
g roof_step_or_fixture_side
f 609 617 147 146
g roof_step_or_fixture_side
f 617 608 148 147
g roof_step_or_fixture_side
f 608 607 149 148
g roof_step_or_fixture_side
f 607 150 149
g roof_step_or_fixture_side
f 153 152 606
g roof_step_or_fixture_side
f 154 153 606 605
g roof_step_or_fixture_side
f 155 154 605 604
g roof_step_or_fixture_side
f 156 155 604 603
g roof_step_or_fixture_side
f 157 156 603
g roof_step_or_fixture_side
f 157 525 158
g roof_step_or_fixture_side
f 525 610 159 158
g roof_step_or_fixture_side
f 610 880 160 159
g roof_step_or_fixture_side
f 880 618 144 160
g roof_step_or_fixture_side
f 618 623 145 144
g roof_step_or_fixture_side
f 163 162 601 622
g roof_step_or_fixture_side
f 161 163 622 380
g roof_step_or_fixture_side
f 162 161 380 601
g roof_step_or_fixture_side
f 170 169 594 593
g roof_step_or_fixture_side
f 171 170 593 592
g roof_step_or_fixture_side
f 172 171 592 591
g roof_step_or_fixture_side
f 173 172 591 590
g roof_step_or_fixture_side
f 174 173 590 589
g roof_step_or_fixture_side
f 175 174 589 588
g roof_step_or_fixture_side
f 176 175 588 587
g roof_step_or_fixture_side
f 177 176 587 586
g roof_step_or_fixture_side
f 178 177 586 585
g roof_step_or_fixture_side
f 202 178 585 584
g roof_step_or_fixture_side
f 179 202 584 583
g roof_step_or_fixture_side
f 883 179 583 615
g roof_step_or_fixture_side
f 180 883 615 582
g roof_step_or_fixture_side
f 181 180 582 581
g roof_step_or_fixture_side
f 285 284 182 181
g roof_step_or_fixture_side
f 284 283 183 182
g roof_step_or_fixture_side
f 283 282 184 183
g roof_step_or_fixture_side
f 282 281 185 184
g roof_step_or_fixture_side
f 281 280 186 185
g roof_step_or_fixture_side
f 280 279 187 186
g roof_step_or_fixture_side
f 279 278 188 187
g roof_step_or_fixture_side
f 189 188 405 404
g roof_step_or_fixture_side
f 190 189 404 403
g roof_step_or_fixture_side
f 191 190 403 402
g roof_step_or_fixture_side
f 192 191 402 401
g roof_step_or_fixture_side
f 193 192 401 400
g facade_completed
f 194 193 400 884 885
g facade_completed
f 195 194 885 886
g facade_completed
f 196 195 886 887
g facade_completed
f 197 196 887 888
g facade_completed
f 198 197 888 889
g facade_completed
f 199 198 889 890
g facade_completed
f 200 199 890 891
g facade_completed
f 201 200 891 892 597
g roof_step_or_fixture_side
f 167 201 597 596
g roof_step_or_fixture_side
f 168 167 596 595
g roof_step_or_fixture_side
f 169 168 595 594
g roof_step_or_fixture_side
f 630 558 206 205
g roof_step_or_fixture_side
f 558 557 207 206
g roof_step_or_fixture_side
f 557 556 208 207
g roof_step_or_fixture_side
f 209 208 648 647
g roof_step_or_fixture_side
f 203 209 647 646
g roof_step_or_fixture_side
f 204 203 646 645
g roof_step_or_fixture_side
f 631 630 205 204
g roof_step_or_fixture_side
f 211 545 212
g roof_step_or_fixture_side
f 545 544 213 212
g roof_step_or_fixture_side
f 544 543 214 213
g roof_step_or_fixture_side
f 543 542 215 214
g roof_step_or_fixture_side
f 542 546 216 215
g roof_step_or_fixture_side
f 546 210 216
g roof_step_or_fixture_side
f 217 219 411
g roof_step_or_fixture_side
f 218 217 411
g roof_step_or_fixture_side
f 220 222 528 624
g roof_step_or_fixture_side
f 221 220 624 573
g roof_step_or_fixture_side
f 222 221 573 528
g roof_step_or_fixture_side
f 251 250 627 631
g roof_step_or_fixture_side
f 252 251 631 204 645 644
g roof_step_or_fixture_side
f 253 252 644 643
g roof_step_or_fixture_side
f 254 253 643 642
g roof_step_or_fixture_side
f 255 254 642 641
g roof_step_or_fixture_side
f 895 255 641 640
g roof_step_or_fixture_side
f 256 895 640 639
g roof_step_or_fixture_side
f 257 256 639 638
g roof_step_or_fixture_side
f 258 257 638 637 77
g facade_completed
f 262 261 897 898
g facade_completed
f 263 262 898 899
g roof_step_or_fixture_side
f 264 440 265
g roof_step_or_fixture_side
f 440 439 266 265
g roof_step_or_fixture_side
f 439 267 266
g roof_step_or_fixture_side
f 902 269 423
g roof_step_or_fixture_side
f 904 902 423 417
g roof_step_or_fixture_side
f 270 904 417 416
g roof_step_or_fixture_side
f 271 270 416
g roof_step_or_fixture_side
f 273 272 408
g roof_step_or_fixture_side
f 906 273 408 907
g roof_step_or_fixture_side
f 274 906 907 482
g roof_step_or_fixture_side
f 275 274 482
g roof_step_or_fixture_side
f 278 277 406 405 188
g roof_step_or_fixture_side
f 286 285 181 581 580
g roof_step_or_fixture_side
f 910 286 580 911
g roof_step_or_fixture_side
f 287 910 911 579
g roof_step_or_fixture_side
f 223 287 579 578
g roof_step_or_fixture_side
f 224 223 578 577
g roof_step_or_fixture_side
f 225 224 577 576
g roof_step_or_fixture_side
f 913 225 576 575
g roof_step_or_fixture_side
f 288 913 575 574
g roof_step_or_fixture_side
f 226 288 574 914
g roof_step_or_fixture_side
f 227 226 914 573 221
g roof_step_or_fixture_side
f 228 227 221 573 572
g roof_step_or_fixture_side
f 229 228 572 915
g roof_step_or_fixture_side
f 231 229 915 571
g roof_step_or_fixture_side
f 234 231 571 570
g roof_step_or_fixture_side
f 235 234 570 569
g roof_step_or_fixture_side
f 917 235 569 918
g roof_step_or_fixture_side
f 919 917 918 920
g roof_step_or_fixture_side
f 236 919 920 568
g roof_step_or_fixture_side
f 237 236 568 567
g roof_step_or_fixture_side
f 238 237 567 566
g roof_step_or_fixture_side
f 239 238 566 565
g roof_step_or_fixture_side
f 240 239 565 564
g roof_step_or_fixture_side
f 241 240 564 563
g roof_step_or_fixture_side
f 242 241 563 562
g roof_step_or_fixture_side
f 243 242 562 561
g roof_step_or_fixture_side
f 921 243 561 922
g roof_step_or_fixture_side
f 244 921 922 560
g roof_step_or_fixture_side
f 245 244 560 210
g roof_step_or_fixture_side
f 246 245 210 559
g roof_step_or_fixture_side
f 247 246 559 558
g roof_step_or_fixture_side
f 248 247 558 629
g roof_step_or_fixture_side
f 249 248 629 628
g roof_step_or_fixture_side
f 250 249 628 627
g facade_completed
f 275 230 926 909
g facade_completed
f 289 275 909 927
g facade_completed
f 230 289 927 926
g facade_completed
f 233 232 928 929
g facade_completed
f 290 233 929 930
g facade_completed
f 232 290 930 928
g roof_step_or_fixture_side
f 453 452 305 304
g roof_step_or_fixture_side
f 323 738 324
g roof_step_or_fixture_side
f 738 737 325 324
g roof_step_or_fixture_side
f 737 736 326 325
g roof_step_or_fixture_side
f 736 327 326
g roof_step_or_fixture_side
f 466 465 342 341
g roof_step_or_fixture_side
f 465 464 343 342
g roof_step_or_fixture_side
f 464 463 344 343
g roof_step_or_fixture_side
f 463 462 935 936 345 344
g roof_step_or_fixture_side
f 462 935 461 346 936 345
g roof_step_or_fixture_side
f 461 460 351 346
g roof_step_or_fixture_side
f 460 459 352 351
g roof_step_or_fixture_side
f 459 458 353 352
g roof_step_or_fixture_side
f 458 457 295 353
g roof_step_or_fixture_side
f 457 456 296 295
g roof_step_or_fixture_side
f 456 455 300 296
g roof_step_or_fixture_side
f 455 454 301 300
g roof_step_or_fixture_side
f 454 453 304 301
g facade_completed
f 349 348 938 939
g facade_completed
f 347 349 939 940
g facade_completed
f 348 347 940 938
g facade_completed
f 354 356 941 942
g facade_completed
f 355 354 942 943
g facade_completed
f 356 355 943 941
g facade_completed
f 299 298 944 945
g facade_completed
f 297 299 945 946
g facade_completed
f 298 297 946 944
g facade_completed
f 302 303 947 948
g facade_completed
f 357 302 948 949
g facade_completed
f 303 357 949 947
g facade_completed
f 358 350 950 951
g facade_completed
f 359 358 951 952
g facade_completed
f 350 359 952 950
g facade_completed
f 360 294 953 954
g facade_completed
f 361 360 954 955
g facade_completed
f 294 361 955 953
g roof_step_or_fixture_side
f 619 365 364
g roof_step_or_fixture_side
f 362 613 363
g roof_step_or_fixture_side
f 613 619 364 363
g roof_step_or_fixture_side
f 533 366 135
g facade_completed
f 371 370 529 957 958 611
g roof_step_or_fixture_side
f 366 371 611
g roof_step_or_fixture_side
f 369 368 530
g roof_step_or_fixture_side
f 370 369 530 529
g roof_step_or_fixture_side
f 377 961 376 616 962 602
g roof_step_or_fixture_side
f 374 377 602 621
g roof_step_or_fixture_side
f 375 374 621 620
g roof_step_or_fixture_side
f 961 376 375 620 616 962
g roof_step_or_fixture_side
f 380 379 600
g roof_step_or_fixture_side
f 379 378 600
g roof_step_or_fixture_side
f 479 478 381 964
g roof_step_or_fixture_side
f 478 477 965 381
g roof_step_or_fixture_side
f 477 476 382 965
g facade_completed
f 383 382 966 967
g facade_completed
f 407 383 967 968
g facade_completed
f 384 407 968 969
g facade_completed
f 385 384 969 970
g roof_step_or_fixture_side
f 697 386 385
g facade_completed
f 388 387 971 972 703
g roof_step_or_fixture_side
f 389 388 703 702
g facade_completed
f 390 389 702 973 974
g facade_completed
f 391 390 974 975
g facade_completed
f 392 391 975 976
g facade_completed
f 393 392 976 977
g facade_completed
f 394 393 977 978
g facade_completed
f 395 394 978 979
g facade_completed
f 396 395 979 980
g facade_completed
f 397 396 980 981
g facade_completed
f 398 397 981 982
g facade_completed
f 399 398 982 983
g facade_completed
f 400 399 983 884
g roof_step_or_fixture_side
f 277 479 964 406
g facade_completed
f 261 263 899 897
g facade_completed
f 985 443 126 874 986
g facade_completed
f 444 985 986 987
g facade_completed
f 988 444 987 989
g facade_completed
f 990 988 989 991
g facade_completed
f 992 990 991 993
g facade_completed
f 994 992 993 995
g facade_completed
f 996 994 995 997
g facade_completed
f 998 996 997 999
g facade_completed
f 1000 998 999 1001
g facade_completed
f 445 1000 1001 1002 718
g roof_step_or_fixture_side
f 446 445 718 717
g facade_completed
f 447 446 717 1003 1004 715
g roof_step_or_fixture_side
f 448 447 715 714
g roof_step_or_fixture_side
f 449 448 714 713
g facade_completed
f 450 449 713 1005 1006
g facade_completed
f 451 450 1006 1007 712
g roof_step_or_fixture_side
f 452 451 712 305
g roof_step_or_fixture_side
f 467 466 341 493
g facade_completed
f 468 467 493 1009 1010 521
g roof_step_or_fixture_side
f 469 468 521 520
g roof_step_or_fixture_side
f 1011 469 520 519
g roof_step_or_fixture_side
f 470 1011 519 524
g roof_step_or_fixture_side
f 471 470 524 523
g roof_step_or_fixture_side
f 472 471 523 518
g roof_step_or_fixture_side
f 473 472 518 517
g facade_completed
f 474 473 517 1012 1013
g facade_completed
f 1014 474 1013 1015
g facade_completed
f 1016 1014 1015 1017
g facade_completed
f 1018 1016 1017 1019
g facade_completed
f 1020 1018 1019 1021
g facade_completed
f 1022 1020 1021 1023
g facade_completed
f 1024 1022 1023 1025
g facade_completed
f 475 1024 1025 1026
g facade_completed
f 1027 475 1026 1028
g facade_completed
f 1029 1027 1028 1030
g facade_completed
f 476 1029 1030 966 382
g roof_step_or_fixture_side
f 485 735 415
g roof_step_or_fixture_side
f 735 734 483 415
g roof_step_or_fixture_side
f 734 484 483
g facade_completed
f 428 430 1034 1035
g facade_completed
f 429 428 1035 1036
g facade_completed
f 430 429 1036 1034
g facade_completed
f 424 426 1037 1038
g facade_completed
f 425 424 1038 1039
g facade_completed
f 426 425 1039 1037
g facade_completed
f 438 437 1040 1041
g facade_completed
f 436 438 1041 1042
g facade_completed
f 437 436 1042 1040
g facade_completed
f 414 413 1043 1044
g facade_completed
f 412 414 1044 1045
g facade_completed
f 413 412 1045 1043
g facade_completed
f 427 491 1046 1047
g roof_step_or_fixture_side
f 427 492 431
g roof_step_or_fixture_side
f 492 432 431
g facade_completed
f 419 418 1048 1049
g facade_completed
f 486 419 1049 1050
g facade_completed
f 418 486 1050 1048
g facade_completed
f 422 421 1051 1052
g facade_completed
f 420 422 1052 1053
g facade_completed
f 421 420 1053 1051
g facade_completed
f 435 434 1054 1055
g facade_completed
f 433 435 1055 1056
g facade_completed
f 434 433 1056 1054
g facade_completed
f 488 487 1057 1058
g facade_completed
f 489 488 1058 1059
g facade_completed
f 487 489 1059 1057
g facade_completed
f 491 427 1047 1046
g facade_completed
f 501 500 810 1066
g facade_completed
f 502 501 1066 1067
g facade_completed
f 503 502 1067 1068
g facade_completed
f 504 503 1068 1069
g facade_completed
f 505 504 1069 1070
g facade_completed
f 506 505 1070 1071
g facade_completed
f 507 506 1071 1072
g facade_completed
f 508 507 1072 1073
g facade_completed
f 509 508 1073 1074
g facade_completed
f 510 509 1074 1075
g facade_completed
f 511 510 1075 1076
g facade_completed
f 512 511 1076 1077
g facade_completed
f 513 512 1077 1078
g facade_completed
f 514 513 1078 1079
g facade_completed
f 515 514 1079 1080
g facade_completed
f 516 515 1080 1081
g facade_completed
f 517 516 1081 1012
g facade_completed
f 522 521 1010 1082
g facade_completed
f 493 522 1082 1009
g facade_completed
f 1083 536 1084 1085
g facade_completed
f 1086 1083 1085 1087
g facade_completed
f 541 1086 1087 1088
g facade_completed
f 547 541 1088 1089
g facade_completed
f 548 547 1089 1090
g facade_completed
f 549 548 1090 1091
g facade_completed
f 550 549 1091 1092
g facade_completed
f 551 550 1092 1093 653
g roof_step_or_fixture_side
f 552 551 653 652
g roof_step_or_fixture_side
f 553 552 652 651
g roof_step_or_fixture_side
f 554 553 651 650
g roof_step_or_fixture_side
f 555 554 650 649
g roof_step_or_fixture_side
f 556 555 649 648 208
g facade_completed
f 1097 597 892 1098
g facade_completed
f 1099 1097 1098 1100
g facade_completed
f 1101 1099 1100 1102
g facade_completed
f 598 1101 1102 1103
g facade_completed
f 1104 598 1103 1105
g facade_completed
f 599 1104 1105 1106
g facade_completed
f 1107 599 1106 1108
g facade_completed
f 526 1107 1108 1109
g facade_completed
f 1110 526 1109 1111
g facade_completed
f 1112 1110 1111 1113
g facade_completed
f 1114 1112 1113 1115
g facade_completed
f 527 1114 1115 1116
g facade_completed
f 1117 527 1116 1118
g facade_completed
f 1119 1117 1118 1120
g facade_completed
f 1121 1119 1120 1122
g facade_completed
f 1123 1121 1122 1124
g facade_completed
f 531 1123 1124 1125
g facade_completed
f 536 531 1125 1084
g facade_completed
f 529 611 958 957
g facade_completed
f 614 539 1128 1129
g facade_completed
f 539 614 1129 1128
g facade_completed
f 537 540 1130 1131
g facade_completed
f 538 537 1131 1132
g facade_completed
f 540 538 1132 1130
g facade_completed
f 634 633 1137 828
g facade_completed
f 654 653 1093 1139
g facade_completed
f 655 654 1139 1140
g facade_completed
f 656 655 1140 1141
g facade_completed
f 657 656 1141 1142
g facade_completed
f 663 657 1142 1143
g facade_completed
f 658 663 1143 1144
g facade_completed
f 659 658 1144 1145
g facade_completed
f 660 659 1145 1146
g facade_completed
f 661 660 1146 1147
g facade_completed
f 662 661 1147 1148
g facade_completed
f 632 662 1148 1149
g facade_completed
f 633 632 1149 1137
g facade_completed
f 665 664 822 823
g facade_completed
f 669 55 824 1150
g facade_completed
f 670 669 1150 1151
g facade_completed
f 671 670 1151 1152
g facade_completed
f 672 671 1152 1153
g facade_completed
f 673 672 1153 1154
g facade_completed
f 674 673 1154 1155
g facade_completed
f 675 674 1155 1156
g facade_completed
f 676 675 1156 1157
g facade_completed
f 677 676 1157 1158
g facade_completed
f 678 677 1158 1159
g facade_completed
f 679 678 1159 1160
g facade_completed
f 680 679 1160 1161
g facade_completed
f 681 680 1161 1162
g facade_completed
f 682 681 1162 747 19
g facade_completed
f 387 697 385 970 971
g facade_completed
f 699 30 786 1165
g facade_completed
f 700 699 1165 1166
g facade_completed
f 701 700 1166 1167
g facade_completed
f 702 701 1167 973
g facade_completed
f 704 703 972 1168
g facade_completed
f 705 704 1168 1169
g facade_completed
f 706 705 1169 1170
g facade_completed
f 707 706 1170 1171
g facade_completed
f 698 707 1171 788 33
g facade_completed
f 722 721 1172 1173
g facade_completed
f 723 722 1173 1174
g facade_completed
f 724 723 1174 1175
g facade_completed
f 725 724 1175 1176
g facade_completed
f 726 725 1176 1177
g facade_completed
f 727 726 1177 1178
g facade_completed
f 728 727 1178 1179
g facade_completed
f 729 728 1179 1180
g facade_completed
f 730 729 1180 1181
g facade_completed
f 731 730 1181 1182
g facade_completed
f 732 731 1182 1183
g facade_completed
f 733 732 1183 1184
g facade_completed
f 708 733 1184 1185
g facade_completed
f 43 708 1185 817
g facade_completed
f 710 709 819 821
g facade_completed
f 713 712 1007 1005
g facade_completed
f 716 715 1004 1189
g facade_completed
f 717 716 1189 1003
g facade_completed
f 719 718 1002 1190
g facade_completed
f 720 719 1190 1191
g facade_completed
f 721 720 1191 1172
g ground_assumed
f 983 1109 1108 1106 1105 1103 1102 1100 1098 892 891 890 889 888 887 886 885 884
g ground_assumed
f 983 1026 1109
g ground_assumed
f 983 967 966 1030 1028 1026
g ground_assumed
f 983 1170 1169 1168 972 971 970 969 968 967
g ground_assumed
f 1170 798 797 795 793 791 789 788 1171
g ground_assumed
f 1170 799 798
g ground_assumed
f 1170 800 799
g ground_assumed
f 1170 801 800
g ground_assumed
f 1170 802 801
g ground_assumed
f 1067 1012 1081 1080 1079 1078 1077 1076 1075 1074 1073 1072 1071 1070 1069 1068
g ground_assumed
f 1067 1013 1012
g ground_assumed
f 1013 1109 1026 1025 1023 1021 1019 1017 1015
g ground_assumed
f 1013 1089 1088 1087 1085 1084 1125 1124 1122 1120 1118 1116 1115 1113 1111 1109
g ground_assumed
f 1013 1090 1089
g ground_assumed
f 1013 1091 1090
g ground_assumed
f 1091 1140 1139 1093 1092
g ground_assumed
f 1091 1142 1141 1140
g ground_assumed
f 1091 1145 1144 1143 1142
g ground_assumed
f 1091 1137 1149 1148 1147 1146 1145
g ground_assumed
f 1091 828 1137
g ground_assumed
f 1091 829 828
g ground_assumed
f 1091 830 829
g ground_assumed
f 1091 831 830
g ground_assumed
f 1091 832 831
g ground_assumed
f 1091 835 834 833 832
g ground_assumed
f 1091 836 835
g ground_assumed
f 1091 837 836
g ground_assumed
f 1091 838 837
g ground_assumed
f 1091 839 838
g ground_assumed
f 1091 840 839
g ground_assumed
f 1091 841 840
g ground_assumed
f 1091 842 841
g ground_assumed
f 1091 843 842
g ground_assumed
f 1091 844 843
g ground_assumed
f 1091 845 844
g ground_assumed
f 1091 847 846 845
g ground_assumed
f 1091 850 849 848 847
g ground_assumed
f 850 854 853 852 851
g ground_assumed
f 854 860 859 858 857 856 855
g ground_assumed
f 854 861 860
g ground_assumed
f 854 862 861
g ground_assumed
f 854 863 862
g ground_assumed
f 854 864 863
g ground_assumed
f 854 865 864
g ground_assumed
f 854 866 865
g ground_assumed
f 854 867 866
g ground_assumed
f 854 868 867
g ground_assumed
f 854 869 868
g ground_assumed
f 854 870 869
g ground_assumed
f 854 871 870
g ground_assumed
f 854 872 871
g ground_assumed
f 854 873 872
g ground_assumed
f 1185 817 818
g ground_assumed
f 1185 1152 1151 1150 824 823 822 821 819 818 817
g ground_assumed
f 1185 748 747 1162 1161 1160 1159 1158 1157 1156 1155 1154 1153 1152
g ground_assumed
f 1185 755 754 752 750 748
g ground_assumed
f 1185 764 763 761 759 757 755
g ground_assumed
f 1185 771 770 768 766 764
g ground_assumed
f 1185 772 771
g ground_assumed
f 1185 773 772
g ground_assumed
f 1185 780 779 777 775 773
g ground_assumed
f 1185 781 780
g ground_assumed
f 1185 782 781
g ground_assumed
f 982 1170 983
g ground_assumed
f 982 802 1170
g ground_assumed
f 982 809 808 806 804 802
g ground_assumed
f 1067 1091 1013
g ground_assumed
f 1091 854 850
g ground_assumed
f 1091 873 854
g ground_assumed
f 1091 987 986 874 873
g ground_assumed
f 783 809 982 981 980 979 978 977 976 975 974 973 1167 1166 1165 786 785
g ground_assumed
f 1067 987 1091
g ground_assumed
f 1067 1185 1184 1183 1182 1181 1180 1179 1178 1177 1176 1175 1174 1173 1172 1191 1190 1002 1001 999 997 995 993 991 989 987
g ground_assumed
f 782 809 783
g ground_assumed
f 809 1185 1067 1066 810
g ground_assumed
f 809 782 1185
