# Source coordinates; no display transform
v 0.479826563237 -0.464917220612 0.191761501692
v 0.429978303112 0.51001077511 0.189646483348
v -0.479375957812 0.463515312923 0.187105827784
v -0.4295276972 -0.511412682799 0.189220846613
v 0.479826563237 -0.464917220612 -0.191678261869
v 0.429978303112 0.51001077511 -0.191678261869
v -0.479375957812 0.463515312923 -0.191678261869
v -0.4295276972 -0.511412682799 -0.191678261869
g roof
f 1 2 3 4
g wall
f 2 1 5 6
g wall
f 3 2 6 7
g wall
f 4 3 7 8
g wall
f 1 4 8 5
g ground_assumed
f 8 7 6 5
