# Source coordinates; no display transform
v 2680640.80817 1246301.36336 460.264409424
v 2680632.536 1246323.36732 460.257259593
v 2680625.48784 1246320.71763 460.244724069
v 2680633.76 1246298.71367 460.2518739
v 2680640.80817 1246301.36336 457.957687987
v 2680632.536 1246323.36732 457.957687987
v 2680625.48784 1246320.71763 457.957687987
v 2680633.76 1246298.71367 457.957687987
g roof
f 1 2 3 4
g wall
f 2 1 5 6
g wall
f 3 2 6 7
g wall
f 4 3 7 8
g wall
f 1 4 8 5
g ground_assumed
f 8 7 6 5
