# Source coordinates; no display transform
v 0.271785828144 -0.490279224035 0.123570081564
v 0.50709584603 0.390853092195 0.122707522284
v 0.119739742316 0.494298136613 0.408735970132
v -0.114336292358 -0.387163719923 0.408687341297
v -0.268651229819 0.598019546912 0.122401378572
v -0.503961247161 -0.283112769317 0.121443016972
v 0.271785828144 -0.490279224035 -0.408320141723
v 0.50709584603 0.390853092195 -0.408320141723
v 0.119739742316 0.494298136613 -0.408320141723
v -0.268651229819 0.598019546912 -0.408320141723
v -0.503961247161 -0.283112769317 -0.408320141723
v -0.114336292358 -0.387163719923 -0.408320141723
g roof
f 1 2 3 4
g roof
f 3 5 6 4
g wall
f 2 1 7 8
g wall
f 3 2 8 9
g wall
f 1 4 12 7
g wall
f 5 3 9 10
g wall
f 6 5 10 11
g wall
f 4 6 11 12
g ground_assumed
f 12 11 10 9 8 7
