# Source coordinates; no display transform
v 2684899.44353 1252145.87905 436.497475942
v 2684898.31893 1252173.99391 436.501407477
v 2684891.53863 1252173.7227 436.332919722
v 2684892.66323 1252145.60784 436.328988187
v 2684899.44353 1252145.87905 431.730010987
v 2684898.31893 1252173.99391 431.730010987
v 2684891.53863 1252173.7227 431.730010987
v 2684892.66323 1252145.60784 431.730010987
g roof
f 1 2 3 4
g wall
f 2 1 5 6
g wall
f 3 2 6 7
g wall
f 4 3 7 8
g wall
f 1 4 8 5
g ground_assumed
f 8 7 6 5
