# Source coordinates; no display transform
v -0.188175099591 0.502910744873 0.0749322068414
v -0.192018192203 0.357828311447 0.0744076971953
v -0.192018192203 0.345537237221 0.0743645005641
v -0.191949971653 0.185605457817 0.0738026873004
v -0.191790790244 -0.184206935729 0.0725036041065
v -0.191711199729 -0.368709493997 0.0718554808685
v -0.191688459419 -0.417805571486 0.0716830214387
v -0.19166571911 -0.46686753832 0.0715106820196
v -0.191654349144 -0.491324616394 0.0714247718282
v -0.1916429788 -0.50347924952 0.0713820983979
v -0.164172825435 -0.503524730139 0.0714864705389
v 0.0736554859218 -0.503661171239 0.0723909974195
v 0.101125639666 -0.503649800895 0.0724955694521
v 0.126719727155 -0.503627060964 0.0725930423073
v 0.179772598045 -0.503536100104 0.0727952435496
v 0.18367254124 -0.497737350723 0.0728304634495
v 0.19597498581 -0.105071063158 0.0742572860263
v 0.195997726119 -0.0554860714775 0.0744316364752
v 0.196236498044 0.492256964221 0.0763575635472
v 0.196236498044 0.497134735801 0.0763747061372
v 0.196225128078 0.498794769684 0.0763804969337
v 0.179340534437 0.505537237175 0.0763399424291
v 0.154621944129 0.505832859684 0.0762469198101
v -0.00455940884895 0.505810119374 0.0756411080777
v -0.163740761827 0.505628197656 0.075034737179
v -0.188175099591 0.502910744873 -0.143199977334
v -0.192018192203 0.357828311447 -0.143199977334
v -0.192018192203 0.345537237221 -0.143199977334
v -0.191949971653 0.185605457817 -0.143199977334
v -0.191790790244 -0.184206935729 -0.143199977334
v -0.191711199729 -0.368709493997 -0.143199977334
v -0.191688459419 -0.417805571486 -0.143199977334
v -0.19166571911 -0.46686753832 -0.143199977334
v -0.191654349144 -0.491324616394 -0.143199977334
v -0.1916429788 -0.50347924952 -0.143199977334
v -0.164172825435 -0.503524730139 -0.143199977334
v 0.0736554859218 -0.503661171239 -0.143199977334
v 0.101125639666 -0.503649800895 -0.143199977334
v 0.126719727155 -0.503627060964 -0.143199977334
v 0.179772598045 -0.503536100104 -0.143199977334
v 0.18367254124 -0.497737350723 -0.143199977334
v 0.19597498581 -0.105071063158 -0.143199977334
v 0.195997726119 -0.0554860714775 -0.143199977334
v 0.196236498044 0.492256964221 -0.143199977334
v 0.196236498044 0.497134735801 -0.143199977334
v 0.196225128078 0.498794769684 -0.143199977334
v 0.179340534437 0.505537237175 -0.143199977334
v 0.154621944129 0.505832859684 -0.143199977334
v -0.00455940884895 0.505810119374 -0.143199977334
v -0.163740761827 0.505628197656 -0.143199977334
g roof
f 1 2 3 4 5 6 7 8 9 10 11 12 13 14 15 16 17 18 19 20 21 22 23 24 25
g wall
f 2 1 26 27
g wall
f 3 2 27 28
g wall
f 4 3 28 29
g wall
f 5 4 29 30
g wall
f 6 5 30 31
g wall
f 7 6 31 32
g wall
f 8 7 32 33
g wall
f 9 8 33 34
g wall
f 10 9 34 35
g wall
f 11 10 35 36
g wall
f 12 11 36 37
g wall
f 13 12 37 38
g wall
f 14 13 38 39
g wall
f 15 14 39 40
g wall
f 16 15 40 41
g wall
f 17 16 41 42
g wall
f 18 17 42 43
g wall
f 19 18 43 44
g wall
f 20 19 44 45
g wall
f 21 20 45 46
g wall
f 22 21 46 47
g wall
f 23 22 47 48
g wall
f 24 23 48 49
g wall
f 25 24 49 50
g wall
f 1 25 50 26
g ground_assumed
f 50 49 48 47 46 45 44 43 42 41 40 39 38 37 36 35 34 33 32 31 30 29 28 27 26
