v -0.18817509959140033 0.50291074487290499 0.074932206841437879
v -0.19201819220271638 0.35782831144686705 0.074407697195306266
v -0.19201819220271638 0.34553723722134994 0.07436450056406238
v -0.19194997165293903 0.18560545781739601 0.073802687300437347
v -0.19179079024393098 -0.18420693572934971 0.072503604106493758
v -0.1917111997287182 -0.36870949399748482 0.071855480868510541
v -0.19168845941926493 -0.41780557148552305 0.071683021438734812
v -0.19166571910981167 -0.46686753832009009 0.071510682019582161
v -0.19165434914437623 -0.49132461639416974 0.071424771828245984
v -0.19164297880035841 -0.50347924952013212 0.071382098397888838
v -0.16417282543489148 -0.50352473013903865 0.071486470538894523
v 0.073655485921808844 -0.50366117123859344 0.072390997419549075
v 0.10112563966585816 -0.50364980089457556 0.07249556945206577
v 0.12671972715528237 -0.50362706096370469 0.07259304230728264
v 0.17977259804473811 -0.50353610010447403 0.072795243549550387
v 0.18367254124039611 -0.49773735072332009 0.072830463449474581
v 0.195974985809931 -0.10507106315801031 0.074257286026343433
v 0.19599772611938426 -0.055486071477512638 0.074431636475243132
v 0.1962364980436051 0.49225696422062748 0.076357563547226046
v 0.1962364980436051 0.49713473580120437 0.076374706137206455
v 0.19622512807816966 0.49879476968389708 0.076380496933706993
v 0.17934053443662057 0.50553723717508126 0.076339942429082944
v 0.15462194412886682 0.50583285968364411 0.076246919810062694
v -0.0045594088489535689 0.50581011937419085 0.075641108077655325
v -0.16374076182677394 0.50562819765572953 0.075034737179032529
v -0.18817509959140033 0.50291074487290499 -0.1431999773340405
v -0.19201819220271638 0.35782831144686705 -0.1431999773340405
v -0.19201819220271638 0.34553723722134994 -0.1431999773340405
v -0.19194997165293903 0.18560545781739601 -0.1431999773340405
v -0.19179079024393098 -0.18420693572934971 -0.1431999773340405
v -0.1917111997287182 -0.36870949399748482 -0.1431999773340405
v -0.19168845941926493 -0.41780557148552305 -0.1431999773340405
v -0.19166571910981167 -0.46686753832009009 -0.1431999773340405
v -0.19165434914437623 -0.49132461639416974 -0.1431999773340405
v -0.19164297880035841 -0.50347924952013212 -0.1431999773340405
v -0.16417282543489148 -0.50352473013903865 -0.1431999773340405
v 0.073655485921808844 -0.50366117123859344 -0.1431999773340405
v 0.10112563966585816 -0.50364980089457556 -0.1431999773340405
v 0.12671972715528237 -0.50362706096370469 -0.1431999773340405
v 0.17977259804473811 -0.50353610010447403 -0.1431999773340405
v 0.18367254124039611 -0.49773735072332009 -0.1431999773340405
v 0.195974985809931 -0.10507106315801031 -0.1431999773340405
v 0.19599772611938426 -0.055486071477512638 -0.1431999773340405
v 0.1962364980436051 0.49225696422062748 -0.1431999773340405
v 0.1962364980436051 0.49713473580120437 -0.1431999773340405
v 0.19622512807816966 0.49879476968389708 -0.1431999773340405
v 0.17934053443662057 0.50553723717508126 -0.1431999773340405
v 0.15462194412886682 0.50583285968364411 -0.1431999773340405
v -0.0045594088489535689 0.50581011937419085 -0.1431999773340405
v -0.16374076182677394 0.50562819765572953 -0.1431999773340405
l 1 2
l 2 3
l 3 4
l 4 5
l 5 6
l 6 7
l 7 8
l 8 9
l 9 10
l 10 11
l 11 12
l 12 13
l 13 14
l 14 15
l 15 16
l 16 17
l 17 18
l 18 19
l 19 20
l 20 21
l 21 22
l 22 23
l 23 24
l 24 25
l 1 25
l 1 26
l 26 27
l 27 28
l 28 29
l 29 30
l 30 31
l 31 32
l 32 33
l 33 34
l 34 35
l 10 35
l 35 36
l 36 37
l 37 38
l 38 39
l 39 40
l 15 40
l 40 41
l 16 41
l 41 42
l 42 43
l 43 44
l 44 45
l 45 46
l 21 46
l 46 47
l 22 47
l 47 48
l 48 49
l 49 50
l 26 50
