# Source coordinates; no display transform
v 2686509.55508 1245156.04761 524.52454207
v 2686534.26983 1245144.41714 524.517933091
v 2686543.13461 1245163.2548 524.526953283
v 2686518.41986 1245174.88527 524.533562262
v 2686509.55508 1245156.04761 521.706848872
v 2686534.26983 1245144.41714 521.706848872
v 2686543.13461 1245163.2548 521.706848872
v 2686518.41986 1245174.88527 521.706848872
g roof
f 1 2 3 4
g wall
f 2 1 5 6
g wall
f 3 2 6 7
g wall
f 4 3 7 8
g wall
f 1 4 8 5
g ground_assumed
f 8 7 6 5
