# Source coordinates; no display transform
v 0.383585313409 -0.46874602958 0.19149040502
v 0.474348875388 -0.462253843142 0.191740248449
v 0.478071401136 -0.459280904528 0.191745024137
v 0.478122220982 -0.43206708179 0.191690164707
v 0.430339220025 0.489073815504 0.189689847893
v 0.419171642779 0.500406555547 0.189634586158
v 0.398399187121 0.507013085909 0.189561049607
v -0.367640706206 0.469190699854 0.187418082146
v -0.429818320307 0.465506288747 0.18724538485
v -0.473904205439 0.45361453429 0.187141693299
v -0.47394232008 0.366014483646 0.187318646394
v -0.430186761515 -0.495654935673 0.189187086404
v -0.411294626051 -0.508944225679 0.189268683172
v 0.383585313409 -0.46874602958 -0.191678261869
v 0.474348875388 -0.462253843142 -0.191678261869
v 0.478071401136 -0.459280904528 -0.191678261869
v 0.478122220982 -0.43206708179 -0.191678261869
v 0.430339220025 0.489073815504 -0.191678261869
v 0.419171642779 0.500406555547 -0.191678261869
v 0.398399187121 0.507013085909 -0.191678261869
v -0.367640706206 0.469190699854 -0.191678261869
v -0.429818320307 0.465506288747 -0.191678261869
v -0.473904205439 0.45361453429 -0.191678261869
v -0.47394232008 0.366014483646 -0.191678261869
v -0.430186761515 -0.495654935673 -0.191678261869
v -0.411294626051 -0.508944225679 -0.191678261869
g roof
f 1 2 3 4 5 6 7 8 9 10 11 12 13
g wall
f 2 1 14 15
g wall
f 3 2 15 16
g wall
f 4 3 16 17
g wall
f 5 4 17 18
g wall
f 6 5 18 19
g wall
f 7 6 19 20
g wall
f 8 7 20 21
g wall
f 9 8 21 22
g wall
f 10 9 22 23
g wall
f 11 10 23 24
g wall
f 12 11 24 25
g wall
f 13 12 25 26
g wall
f 1 13 26 14
g ground_assumed
f 26 25 24 23 22 21 20 19 18 17 16 15 14
