v 0.38358531340906032 -0.46874602958004713 0.19149040502013187
v 0.47434887538769765 -0.46225384314184154 0.19174024844900481
v 0.47807140113621105 -0.45928090452758569 0.19174502413653852
v 0.47812222098175994 -0.4320670817904837 0.19169016470749636
v 0.43033922002477643 0.48907381550386941 0.1896898478929811
v 0.41917164277923613 0.5004065555468733 0.18963458615757231
v 0.39839918712066802 0.50701308590874783 0.18956104960687023
v -0.36764070620627731 0.46919069985424794 0.18741808214572059
v -0.42981832030729239 0.46550628874695754 0.18724538484967279
v -0.47390420543853695 0.45361453428993403 0.1871416932989296
v -0.47394232007976 0.36601448364579053 0.18731864639384885
v -0.43018676151519697 -0.49565493567324204 0.18918708640396925
v -0.41129462605149714 -0.50894422567943753 0.18926868317244491
v 0.38358531340906032 -0.46874602958004713 -0.19167826186863746
v 0.47434887538769765 -0.46225384314184154 -0.19167826186863746
v 0.47807140113621105 -0.45928090452758569 -0.19167826186863746
v 0.47812222098175994 -0.4320670817904837 -0.19167826186863746
v 0.43033922002477643 0.48907381550386941 -0.19167826186863746
v 0.41917164277923613 0.5004065555468733 -0.19167826186863746
v 0.39839918712066802 0.50701308590874783 -0.19167826186863746
v -0.36764070620627731 0.46919069985424794 -0.19167826186863746
v -0.42981832030729239 0.46550628874695754 -0.19167826186863746
v -0.47390420543853695 0.45361453428993403 -0.19167826186863746
v -0.47394232007976 0.36601448364579053 -0.19167826186863746
v -0.43018676151519697 -0.49565493567324204 -0.19167826186863746
v -0.41129462605149714 -0.50894422567943753 -0.19167826186863746
l 1 2
l 2 3
l 3 4
l 4 5
l 5 6
l 6 7
l 7 8
l 8 9
l 9 10
l 10 11
l 11 12
l 12 13
l 1 13
l 14 15
l 2 15
l 15 16
l 3 16
l 16 17
l 17 18
l 5 18
l 18 19
l 6 19
l 19 20
l 7 20
l 20 21
l 21 22
l 9 22
l 22 23
l 10 23
l 23 24
l 24 25
l 12 25
l 25 26
l 13 26
l 14 26
