v 2685640.9444172243 1251067.8072833989 436.4398172548278
v 2685653.1358506521 1251065.2894873635 436.44770250169154
v 2685654.0495099751 1251069.7135219874 436.43718615991179
v 2685641.8444188056 1251072.1651857921 436.42945811323301
v 2685654.3849978452 1251071.3379895766 435.28148465003522
v 2685642.1935644173 1251073.8557856069 435.22670788725833
v 2685640.9444172243 1251067.8072833989 433.8958425318375
v 2685653.1358506521 1251065.2894873635 433.8958425318375
v 2685654.0495099751 1251069.7135219874 433.8958425318375
v 2685654.3849978452 1251071.3379895766 433.8958425318375
v 2685642.1935644173 1251073.8557856069 433.8958425318375
v 2685641.8444188056 1251072.1651857921 433.8958425318375
l 1 2
l 2 3
l 3 4
l 1 4
l 3 5
l 5 6
l 4 6
l 1 7
l 7 8
l 2 8
l 8 9
l 7 12
l 9 10
l 5 10
l 10 11
l 6 11
l 11 12
