v 0.25000757293080278 0.45553122420189962 0.19629593606567608
v -0.14223133439656124 0.49969756772218982 0.196332396776148
v -0.23554132673961625 -0.32898342622005827 0.19637475896033058
v -0.24967464860760821 -0.45450069317776748 0.19638117539748853
v 0.14256425871975584 -0.49866703665696904 0.19634471468701661
v 0.15669758062883637 -0.37314976969925984 0.19633829824985866
v -0.23554132673961625 -0.32898342622005827 -0.25218400812269304
v -0.24967464860760821 -0.45450069317776748 -0.25218400812269304
v 0.14256425871975584 -0.49866703665696904 -0.25218400812269304
v 0.15669758062883637 -0.37314976969925984 -0.25218400812269304
v 0.25000757293080278 0.45553122420189962 -0.25218400812269304
v -0.14223133439656124 0.49969756772218982 -0.25218400812269304
l 1 2
l 2 3
l 3 4
l 4 5
l 5 6
l 1 6
l 7 8
l 4 8
l 8 9
l 5 9
l 9 10
l 10 11
l 1 11
l 11 12
l 2 12
l 7 12
