# Source coordinates; no display transform
v 2684056.57678 1251798.23763 443.448117192
v 2684060.43211 1251798.51301 443.440606677
v 2684060.11612 1251802.93687 443.424806631
v 2684056.26079 1251802.66148 443.432317145
v 2684056.57678 1251798.23763 428.855010987
v 2684060.43211 1251798.51301 428.855010987
v 2684060.11612 1251802.93687 428.855010987
v 2684056.26079 1251802.66148 428.855010987
g roof
f 1 2 3 4
g wall
f 2 1 5 6
g wall
f 3 2 6 7
g wall
f 4 3 7 8
g wall
f 1 4 8 5
g ground_assumed
f 8 7 6 5
