v 2685653.5032639205 1251067.068541093 436.4434735228358
v 2685654.0495099751 1251069.7135219874 436.43718615991179
v 2685641.8444188056 1251072.1651857921 436.42945811323301
v 2685641.2827134402 1251069.4453492837 436.43592341810466
v 2685654.3849978452 1251071.3379895766 435.28148465003522
v 2685642.1935644173 1251073.8557856069 435.22670788725833
v 2685640.9444172243 1251067.8072833989 435.31109394161297
v 2685653.1358506521 1251065.2894873635 435.22183030425475
v 2685653.5032639205 1251067.068541093 433.8958425318375
v 2685654.0495099751 1251069.7135219874 433.8958425318375
v 2685654.3849978452 1251071.3379895766 433.8958425318375
v 2685642.1935644173 1251073.8557856069 433.8958425318375
v 2685641.8444188056 1251072.1651857921 433.8958425318375
v 2685641.2827134402 1251069.4453492837 433.8958425318375
v 2685640.9444172243 1251067.8072833989 433.8958425318375
v 2685653.1358506521 1251065.2894873635 433.8958425318375
l 1 2
l 2 3
l 3 4
l 1 4
l 2 5
l 5 6
l 3 6
l 7 8
l 1 8
l 4 7
l 9 10
l 13 14
l 10 11
l 5 11
l 11 12
l 6 12
l 12 13
l 7 15
l 15 16
l 8 16
l 9 16
l 14 15
