v 0.19627251152731323 -0.41530085139772149 0.17717231902066449
v 0.27094792696603204 -0.31309507196904884 0.17750059419116551
v 0.47982688811474483 -0.012355158255476865 0.17851345393592863
v 0.50945134734610409 0.032723718902489055 0.1786725585018222
v 0.50943738641030234 0.037540136760425037 0.17870329954580358
v 0.39754292890404636 0.11806505674198069 0.17969989770380124
v 0.34946251547899865 0.14921122435933701 0.18010612193140238
v 0.30974452024177623 0.17043138351646284 0.18041297194443026
v -0.25944436677819199 0.42293731673465762 0.18448170264559757
v -0.34167248362717917 0.31164316611341913 0.1841281797188144
v -0.46775094245299237 0.12998743527449985 0.18351599150963485
v -0.511014938020104 0.063590674250790014 0.18328004722774838
v -0.49368979475943603 0.045776909289025822 0.18309168718632998
v -0.094318023358185635 -0.23903392435114929 0.17955119165660477
v 0.048945972133269289 -0.33857322352500274 0.17829787980924194
v 0.15796453995266518 -0.41147563879877685 0.17736226778222391
v 0.18351249480613219 -0.4268044115266576 0.17715419471709595
v 0.19627251152731323 -0.41530085139772149 -0.1779352225585972
v 0.27094792696603204 -0.31309507196904884 -0.1779352225585972
v 0.47982688811474483 -0.012355158255476865 -0.1779352225585972
v 0.50945134734610409 0.032723718902489055 -0.1779352225585972
v 0.50943738641030234 0.037540136760425037 -0.1779352225585972
v 0.39754292890404636 0.11806505674198069 -0.1779352225585972
v 0.34946251547899865 0.14921122435933701 -0.1779352225585972
v 0.30974452024177623 0.17043138351646284 -0.1779352225585972
v -0.25944436677819199 0.42293731673465762 -0.1779352225585972
v -0.34167248362717917 0.31164316611341913 -0.1779352225585972
v -0.46775094245299237 0.12998743527449985 -0.1779352225585972
v -0.511014938020104 0.063590674250790014 -0.1779352225585972
v -0.49368979475943603 0.045776909289025822 -0.1779352225585972
v -0.094318023358185635 -0.23903392435114929 -0.1779352225585972
v 0.048945972133269289 -0.33857322352500274 -0.1779352225585972
v 0.15796453995266518 -0.41147563879877685 -0.1779352225585972
v 0.18351249480613219 -0.4268044115266576 -0.1779352225585972
l 1 2
l 2 3
l 3 4
l 4 5
l 5 6
l 6 7
l 7 8
l 8 9
l 9 10
l 10 11
l 11 12
l 12 13
l 13 14
l 14 15
l 15 16
l 16 17
l 1 17
l 1 18
l 18 19
l 19 20
l 20 21
l 4 21
l 21 22
l 5 22
l 22 23
l 23 24
l 24 25
l 25 26
l 9 26
l 26 27
l 27 28
l 28 29
l 12 29
l 29 30
l 13 30
l 30 31
l 31 32
l 32 33
l 33 34
l 17 34
l 18 34
