# pointcloud_to_mesh 0.5.1; candidate requires geometry validation; coordinates preserved
v 2.696615674 3.621082720 18.839509223
v 2.899991574 3.411758578 18.839493024
v 3.219633946 3.648472622 18.840309046
v 4.112212636 4.309479830 18.842587729
v 4.100726564 4.324989832 18.842594130
v 3.471432661 5.174745057 18.842944808
v 3.099712430 5.676690502 18.843151952
v 2.883143438 5.969130379 18.843272636
v 2.214035119 6.872648253 18.843645502
v 1.101493013 8.374948629 18.844265474
v 0.979669235 8.539451083 18.844333361
v -0.313793381 10.286054077 18.845054152
v -0.553691596 10.609996135 18.845187837
v -3.163711475 8.677122349 18.838524663
v -2.916897790 8.343842117 18.838387124
v -1.629313694 6.605177072 18.837669609
v -1.756121603 6.511162949 18.837345722
v -1.029787954 5.438606797 18.836804467
v -0.898921689 5.618905921 18.837262593
v -0.394139507 4.937282765 18.836981299
v -0.381582535 4.920326693 18.836974302
v 0.984985235 5.932350793 18.840463041
v 1.466625314 5.281977144 18.840194644
v 1.356114312 5.228368234 18.839954511
v 1.456870277 4.897087563 18.839607967
v 1.706396034 4.640263801 18.839588092
v 1.858217917 4.753197413 18.839976426
v 2.530465436 3.845440580 18.839601811
v 0.990281921 5.925198513 18.840460090
v 1.251431555 5.572560001 18.840314562
v 2.715019438 -3.456335372 18.829008345
v 2.499991706 -3.179894422 18.829107469
v 2.704135908 -3.455556719 18.828993708
v 2.355788423 -6.266454161 18.824306953
v 2.707810353 -6.383833865 18.824643258
v 3.083107517 -6.077832008 18.825643119
v 3.304239610 -5.575518169 18.826711245
v 3.782732098 -5.221166237 18.827932799
v 3.892816050 -5.139642573 18.828213834
v 3.187702169 -4.187505263 18.828606764
v 3.194315917 -4.132248708 18.828698557
v 2.271539723 -2.886195175 18.829212780
v 1.900759710 -2.409518153 18.829383702
v 1.768013262 -2.508786283 18.829043381
v 1.378986347 -2.799701592 18.828046034
v 1.374140058 -2.834652718 18.827987011
v 1.002542918 -3.109842335 18.827038353
v 0.983120108 -3.095731386 18.827031153
v 0.236645137 -3.653947234 18.825117419
v 0.258347234 -3.723056648 18.825046117
v -1.809706123 -2.285920144 18.824182380
v -1.791959487 -2.148985799 18.824411825
v -1.852263388 -2.067555557 18.824445429
v -2.169501277 -1.446258328 18.824909181
v -2.578449426 -0.645350366 18.825506997
v -2.763964057 -0.282027668 18.825778190
v -4.739289526 -0.598507625 18.822440547
v -5.077983919 -0.138688650 18.822632960
v -2.564559472 3.324078941 18.831431643
v -2.565837557 3.325799571 18.831432347
v -2.565853373 3.325820897 18.831432356
v -2.678959798 3.478094055 18.831494704
v -2.676038092 3.474440784 18.831493510
v -2.560394479 3.329838589 18.831446255
v -2.560360657 3.329863687 18.831446341
v -2.435964897 3.501244850 18.831881810
v -3.376085753 4.770719422 18.832405699
v -3.549163153 4.649633277 18.831974390
v -3.774220083 4.952623398 18.832098449
v -3.808058675 4.929773242 18.832015348
v -3.828747793 4.915802480 18.831964539
v -3.591945687 4.619702321 18.831867775
v -6.885633150 2.315415800 18.823659889
v -6.296764717 1.515955032 18.823325352
v -6.418655861 1.456825612 18.823060491
v -5.945524924 0.817942120 18.822796836
v -5.156735308 -0.247185150 18.822357277
v -5.052765528 -0.387578792 18.822299339
v -4.879879317 -0.621032446 18.822202997
v -4.053120200 -1.737431120 18.821742280
v -3.521071070 -2.455873688 18.821445791
v -2.707583423 -3.554351480 18.820992470
v -1.808813182 -4.767989026 18.820491623
v -1.610752834 -5.035436103 18.820381253
v -1.520719645 -4.968109056 18.820612070
v 0.466300542 -7.665731470 18.819483240
v -0.506464613 -4.289444967 18.823093612
v -1.836587438 -2.493338547 18.823834833
v -0.544497616 -4.238087815 18.823114807
v -0.738864149 -3.975628611 18.823223119
v -4.167672306 9.235333576 18.837897901
v -1.176796114 11.451393639 18.845535067
v -2.262914304 12.918012975 18.846140314
v -5.254335574 10.702688946 18.838503452
v 6.040827029 1.045132900 21.600114132
v 6.416346799 0.999478017 21.604330518
v 6.510302087 1.071264699 21.604522351
v 6.422519932 1.189799686 21.602417894
v 6.356519654 1.278921924 21.600835627
v 6.286845190 1.227323871 21.600676391
v 5.699389154 2.020584116 21.586592934
v 4.883768673 1.986733995 21.578814730
v 4.513298222 2.486991824 21.569933206
v 4.500102190 3.388422359 21.560451403
v 4.435860700 3.487911518 21.558779133
v 3.503024809 2.791088128 21.556709468
v 3.504098671 2.789982859 21.556731636
v 3.207709568 2.570489233 21.556054258
v 2.869876217 2.320303694 21.555282161
v 2.709187576 2.379440762 21.553067160
v 1.566734332 1.491985079 21.550885604
v 1.636964485 1.397151109 21.552569276
v 1.330600471 1.168298840 21.551889552
v -0.023057980 0.157123263 21.548886216
v -0.023049292 0.157112434 21.548886415
v -0.023078842 0.157107679 21.548886170
v -0.087628516 0.146765749 21.548350074
v -0.068994099 0.122809229 21.548784298
v -0.144665130 0.066283323 21.548616409
v -0.144688675 0.066250144 21.548616518
v -0.190049411 0.127318491 21.547530962
v -0.883611221 -0.411439130 21.546206581
v -0.867602189 -0.473746716 21.547012442
v -0.850592940 -0.539947173 21.547868652
v -1.009865895 -0.580016939 21.546696804
v -1.650657033 -1.058684470 21.545275093
v -2.169501277 -1.446258328 21.544123943
v -1.852263388 -2.067555557 21.553730403
v -1.791959502 -2.148985778 21.555176106
v -1.809706123 -2.285920144 21.556419605
v -1.836587438 -2.493338547 21.558303169
v -0.738864149 -3.975628611 21.584619587
v -0.545350760 -3.832320523 21.585061849
v 0.134546000 -3.328816839 21.586615709
v -0.018232016 -2.842301695 21.580046484
v 0.304906414 -2.602998613 21.580784996
v 0.713649309 -2.899956655 21.587939213
v 1.439632834 -2.362323002 21.589598401
v 1.474176171 -2.113198660 21.587358601
v 1.503843441 -1.899240202 21.585434967
v 1.521227217 -1.773869140 21.584307794
v 1.543852106 -1.610700259 21.582840793
v 2.128812224 -1.177502763 21.584177682
v 2.451374448 -1.613068615 21.591910671
v 2.873263190 -1.300635098 21.592874870
v 2.842453644 -0.873203749 21.588134169
v 2.832860011 -0.740108006 21.586657985
v 3.328720413 -0.887279792 21.593126816
v 3.402043422 -0.909042123 21.594083363
v 4.328727561 -0.222777818 21.596201240
v 4.034255626 0.174856838 21.589141677
v 4.630546885 0.616445713 21.590504462
v 4.925018819 0.218811057 21.597564025
v 5.180667297 0.408133845 21.598148293
v 5.290362363 1.008409235 21.593015145
v 5.313238337 1.133591564 21.591944671
v 5.744464771 1.081163985 21.596786538
v 6.184730420 1.151701856 21.600443014
v -0.544497643 -4.238087778 21.589279259
v -0.506464613 -4.289444967 21.590191049
v 0.258347234 -3.723056648 21.591938977
v 0.236645142 -3.653947272 21.591005820
v -0.072344380 0.218751556 21.547755724
v -0.053456477 0.195133895 21.548188959
v 0.006756859 0.280197263 21.547906771
v -1.144102065 -0.613787969 22.957019221
v -1.643249139 -1.001524557 22.956020158
v -1.650656968 -1.058684421 22.955883027
v -1.009865895 -0.580016939 22.957120158
v -0.850592940 -0.539947173 22.957239920
v -0.867602162 -0.473746755 22.957394816
v -0.883611234 -0.411439158 22.957540604
v -0.883611221 -0.411439130 22.957540604
v -0.989891905 0.002208164 22.958508458
v -0.192065827 0.130033156 22.958934945
v -0.185122685 0.131145563 22.958938656
v -0.116775622 0.184237444 22.959075456
v -0.552968604 0.745009774 22.960342752
v -0.614832278 0.699196072 22.960224263
v -1.644199773 2.147903150 22.963513168
v -1.625990149 2.161448430 22.963548188
v -0.515439198 0.772802515 22.960414633
v 0.865915629 1.795777303 22.963060367
v 0.975160253 1.648260873 22.962726150
v 1.207711082 1.976785394 22.963543446
v 1.314997517 2.128348950 22.963920502
v 2.004333685 2.638843072 22.965240801
v 2.869876217 2.320303694 22.964615678
v 3.207709530 2.570489204 22.965262737
v 3.504098671 2.789982859 22.965830416
v 3.503024820 2.791088117 22.965832881
v 3.134858607 3.170022271 22.966677979
v 3.173470328 3.387936956 22.967202366
v 3.219633946 3.648472622 22.967829316
v 2.899991574 3.411758578 22.967217099
v 2.696615693 3.621082695 22.967683933
v 2.530465436 3.845440580 22.968192245
v 1.858217917 4.753197413 22.970248887
v 1.706396034 4.640263801 22.969956909
v 1.456870277 4.897087563 22.970529677
v 1.356114308 5.228368195 22.971302410
v 1.466625314 5.281977144 22.971446907
v 1.251431555 5.572560001 22.972105260
v 0.990281921 5.925198513 22.972904209
v 0.851575895 5.822478513 22.972638543
v 1.282035779 5.241215080 22.971321614
v 1.091076009 5.099798098 22.970955865
v -0.874708044 4.146195847 22.968385548
v -1.082360966 4.426596078 22.969020831
v -2.398172939 3.450213187 22.966496001
v -2.374717704 3.418540850 22.966424243
v -1.559406926 3.814048277 22.967490285
v -2.144489886 2.758546766 22.964889288
v -2.499987218 3.237146470 22.965973454
v -3.174583270 2.286010611 22.963607037
v -2.905811186 1.348081990 22.961416728
v -3.083313604 1.077409754 22.960745518
v -2.177100607 1.751501690 22.962488313
v -1.303308840 0.298966508 22.959166439
v -1.901185085 -0.143796143 22.958021316
v -1.366822226 -0.058182336 22.958306965
v -1.480686693 -0.698465666 22.956766132
v -1.622239093 3.145304306 22.965889564
v -1.264214353 0.518802852 22.959695472
v -1.674287747 2.125522031 22.963455304
v -2.118753777 2.777605874 22.964938581
v -2.128433716 2.770437308 22.964920040
v -3.244922147 5.407372437 15.778281393
v -3.062735862 5.542451724 15.778176002
v -3.950972245 6.741865072 15.662167503
v -3.205688535 7.293791652 15.661777313
v -3.482068418 7.666996047 15.625680599
v -4.172223315 7.155895607 15.626041926
v -4.292083152 7.317746092 15.610387580
v -4.362963523 7.413458072 15.601130219
v -3.672808626 7.924558511 15.600768891
v -4.474923288 9.007679007 15.496008358
v -5.965761875 7.903056936 15.496824508
v -6.064120096 7.830179387 15.496878354
v -6.123999611 7.785812254 15.496911134
v -9.340641117 5.402473621 15.498672065
v -8.457522880 4.209971466 15.614012105
v -7.182330854 2.488039821 15.780559113
v -4.715931181 4.316714857 15.779132345
v -7.141452046 2.678835217 15.770470652
v -3.995393851 5.124178639 15.761579928
v -3.858218543 4.952653025 15.778636174
v -3.837693051 4.967871343 15.778624300
v -3.972884572 5.141674435 15.761516320
v -3.935961900 5.170373457 15.761411973
v -3.385985542 5.597854746 15.759857747
v -3.828747824 4.915802492 15.782300535
v -4.167672306 9.235333576 15.495840155
v -5.254335574 10.702688946 15.353916027
v -5.561642551 10.475109990 15.354076917
v -0.515439198 0.772802515 22.977391132
v -0.570501770 0.841653400 22.977114305
v -0.607074744 0.814568954 22.970795748
v -0.552968604 0.745009774 22.970907335
v -1.901185085 -0.143796143 22.747217792
v -1.303308840 0.298966508 22.850510335
v -1.264214353 0.518802852 22.873346452
v -2.177100607 1.751501690 22.876441761
v -3.083313604 1.077409754 22.719627470
v -2.905811186 1.348081990 22.762023127
v -3.174583270 2.286010611 22.811377676
v -2.564559457 3.324078922 22.966165195
v -5.077983919 -0.138688650 22.397011981
v -4.950621657 -0.311598465 22.396501904
v -4.739289526 -0.598507625 22.395655534
v -2.763964057 -0.282027668 22.640343457
v -2.169501277 -1.446258328 22.607870873
v -1.650657033 -1.058684470 22.697790708
v -1.643249139 -1.001524557 22.703424041
v -1.144102065 -0.613787969 22.791183529
v -1.480686693 -0.698465666 22.746899272
v -1.366822226 -0.058182336 22.813410498
v 2.634727126 -1.860655466 21.596299354
v 2.639198503 -1.866693307 21.593103592
v 2.900136201 -1.673453539 21.593032782
v 3.245615463 -1.417605752 21.592939031
v 3.480515644 -1.243648302 21.592875287
v 3.773973585 -1.019431310 21.595151311
v 4.432919572 -0.515962613 21.600262015
v 4.505040413 -0.460858573 21.600821375
v 6.416346799 0.999478017 21.615645233
v 6.040827029 1.045132900 21.726370282
v 5.180667297 0.408133845 21.726603700
v 4.925018819 0.218811057 21.726673075
v 4.630546885 0.616445713 21.937136704
v 4.034255626 0.174856838 21.937298517
v 4.328727561 -0.222777818 21.726834888
v 3.402043422 -0.909042123 21.727086359
v 2.832860011 -0.740108006 21.928993191
v 2.842453627 -0.873203727 21.881085007
v 2.873263190 -1.300635098 21.727229852
v 2.451374448 -1.613068615 21.727344339
v 2.128812224 -1.177502763 21.957884531
v 1.543852106 -1.610700259 21.958043269
v 1.521227270 -1.773869131 21.908020720
v 1.503843441 -1.899240202 21.869585812
v 1.474176171 -2.113198660 21.803992740
v 1.439632834 -2.362323002 21.727618891
v 0.713649309 -2.899956655 21.727815899
v 0.304906414 -2.602998613 21.932825594
v -0.018232016 -2.842301695 21.932913283
v 0.134546000 -3.328816839 21.727973048
v -0.545350760 -3.832320523 21.728157549
v -0.738864149 -3.975628611 21.728210062
v 0.983120110 -3.095731364 21.592659723
v 1.002542918 -3.109842335 21.582917990
v 1.374140058 -2.834652718 21.582817151
v 1.378986347 -2.799701592 21.593532089
v 1.900759710 -2.409518153 21.594681917
v 2.271539723 -2.886195175 21.337879973
v 1.972786819 -2.482779792 21.551403277
v 1.979858737 -2.477542619 21.551401358
v 2.045251622 -2.429115328 21.551383612
v 1.981370288 -2.349237359 21.594859558
v 1.768013262 -2.508786283 21.594389385
v 6.184730392 1.151701836 21.726331231
v 5.744464771 1.081163985 21.813755096
v 0.975160273 1.648260847 23.215668342
v 0.865915629 1.795777303 23.293747172
v -0.552968604 0.745009774 23.294132209
v -0.116775622 0.184237444 22.992025294
v -0.185122687 0.131145579 22.991197525
v -0.192065787 0.130033161 22.992576215
v -0.989891905 0.002208164 23.151001118
v -0.883611221 -0.411439130 22.982737874
v -0.190049411 0.127318491 22.991137849
v -0.144696171 0.066260211 22.958785931
v -0.144665176 0.066283342 22.958785983
v -0.068994126 0.122809210 22.958931849
v -0.087628516 0.146765749 22.971838032
v -0.023078882 0.157107694 22.959020372
v -0.053456469 0.195133890 22.979708804
v -0.072344395 0.218751532 22.992563412
v 0.006756859 0.280197263 22.993521440
v -0.023057980 0.157123263 22.959020397
v 1.330600471 1.168298840 22.961629755
v 1.636964485 1.397151109 22.962220313
v 1.566734332 1.491985079 23.012414885
v 2.709187560 2.379440782 23.026251545
v 2.004333685 2.638843072 23.293438244
v 1.314997517 2.128348950 23.293625306
v 3.892816050 -5.139642573 19.916964087
v 3.304239610 -5.575518169 19.917224002
v 3.083107517 -6.077832008 19.917726580
v 2.707810353 -6.383833865 19.917925887
v 2.355788423 -6.266454161 19.917629145
v 0.466300542 -7.665731470 19.918463542
v -1.520719645 -4.968109056 19.914354515
v -1.610752834 -5.035436103 19.914395054
v -1.005264261 -5.853046247 19.915641884
v 0.818348221 -8.115548001 19.919157908
v 4.118491770 -5.673193483 19.917702475
v 2.715019452 -3.456335391 19.914427648
v 4.207941775 -5.375645337 19.917386321
v 4.322149494 -5.522471394 19.917612657
v 4.445886135 -5.430896961 19.917558087
v 4.676478497 -5.260241324 19.917456391
v 2.331891526 -2.094272263 19.912628384
v 2.639198503 -1.866693307 19.912492677
v 2.634727126 -1.860655466 19.912483470
v 1.981370288 -2.349237359 19.912777652
v 2.045251622 -2.429115328 19.912901563
v 3.194315903 -4.132248690 19.915448954
v 3.187702169 -4.187505263 19.915512106
v 4.007651931 -5.523971789 19.917474768
v 2.704135908 -3.455556719 19.914421883
v 2.499991706 -3.179894422 19.914001506
v 1.972786819 -2.482779792 19.912933564
v -1.756121603 6.511162949 19.900520154
v -1.629313694 6.605177072 19.900464029
v -2.916897790 8.343842117 19.897812618
v -2.970251632 8.304034083 19.897836533
v -3.320935752 8.821879307 19.897061408
v -1.501604511 10.169201483 19.896257992
v -1.432675643 10.562570357 19.895818117
v -3.812054564 8.800499815 19.896868850
v -3.275648186 8.076173519 19.897973425
v -3.297288625 8.060027290 19.897983126
v -4.167672306 9.235333576 19.896190819
v -4.474923288 9.007679007 19.896326641
v -3.672808626 7.924558511 19.897978367
v -3.428827459 8.105240967 19.897870625
v -3.238087251 7.847678503 19.898263400
v -3.482068418 7.666996047 19.898371142
v -3.205688535 7.293791652 19.898940267
v -2.902881868 7.518037863 19.898806548
v -1.465813598 5.577519665 19.901765779
v -1.425775123 4.893041145 19.902602234
v -1.191241664 5.216166260 19.902319927
v -1.128025134 5.303262027 19.902243834
v -0.864467408 5.194482669 19.902490998
v -1.029787954 5.438606797 19.902125586
v -3.360446648 8.012904221 19.898011436
v -2.015062079 6.319187054 19.900634759
v -2.139339738 3.909908014 19.903461185
v -2.137667473 3.912211845 19.903459172
v -3.244922147 5.407372437 19.901179098
v -3.385985542 5.597854746 19.900888618
v -3.935961864 5.170373467 19.901155637
v -3.972884572 5.141674435 19.901173564
v -3.837693039 4.967871393 19.901441486
v -3.858218527 4.952653014 19.901450572
v -3.828747824 4.915802492 19.901507736
v -3.808058689 4.929773228 19.901500215
v -3.774220083 4.952623398 19.901487915
v -3.549163153 4.649633277 19.901950265
v -3.376085753 4.770719422 19.901882312
v -2.435964897 3.501244850 19.903818222
v -3.995393839 5.124178616 19.901184492
v -7.141452046 2.678835217 19.902711936
v -4.715931181 4.316714857 19.901830236
v -7.182330854 2.488039821 19.902921981
v -6.418655861 1.456825612 19.904494552
v -6.296764717 1.515955032 19.904477968
v -6.885633150 2.315415800 19.903260226
v -3.591945687 4.619702321 19.901967063
v -0.524629500 4.316019021 23.274871425
v 1.091076009 5.099798098 23.519229244
v 1.282035779 5.241215080 23.519759230
v 0.851575895 5.822478513 22.995490334
v 0.990281921 5.925198513 22.995875296
v 0.984985235 5.932350793 22.989424317
v -0.381582535 4.920326693 22.985631569
v -0.394139507 4.937282765 22.970338089
v -0.898921689 5.618905921 22.355550027
v -1.029787954 5.438606797 22.403647217
v -0.864467408 5.194482669 22.617134219
v -1.128025069 5.303262019 22.439752237
v -1.191241664 5.216166260 22.462986190
v -1.425775123 4.893041145 22.549184113
v -1.397065823 4.402240744 22.846855866
v -2.227585366 4.414721908 22.479852500
v -3.062735862 5.542451724 21.462699808
v -3.244922147 5.407372437 21.462286919
v -2.137667496 3.912211877 22.810842723
v -2.676038107 3.474440738 22.832058093
v -2.678959798 3.478094055 22.828669347
v -2.565853387 3.325820948 22.966158565
v -2.565837564 3.325799612 22.966177818
v -2.564559472 3.324078941 22.967731433
v -2.499987218 3.237146470 23.046223800
v -2.495920457 3.242880374 23.044653024
v -2.493537661 3.246239993 23.043732668
v -2.118753777 2.777605874 23.478428617
v -1.622239093 3.145304306 23.479806635
v -1.559406926 3.814048277 23.118372637
v -2.374717704 3.418540850 22.995065783
v -0.874708044 4.146195847 23.221925868
v -2.139339738 3.909908014 22.811457295
v -2.560360657 3.329863687 22.966188310
v -2.560386299 3.329828360 22.966197734
v -3.320935752 8.821879307 19.444969148
v -3.163711475 8.677122349 19.597200439
v -0.553691596 10.609996135 19.604444242
v -3.812054564 8.800499815 19.244660006
v -1.432675643 10.562570357 19.251263691
v -1.501604511 10.169201483 19.450018487
v -6.064120096 7.830179387 10.012897946
v -4.474923288 9.007679007 10.017141000
v -5.561642551 10.475109990 9.783529010
v -7.054861942 9.369292889 9.779484446
v -7.185853148 9.272286168 9.779129641
v -7.265572950 9.213248949 9.778913710
v -10.428247140 6.871102024 9.770347229
v -9.340641117 5.402473621 10.004149846
v 5.699389154 2.020584116 21.691355453
v 6.286845190 1.227323871 21.697843333
v 6.356519654 1.278921924 21.678396926
v 5.613614812 2.282089550 21.670192266
v 4.619206656 3.624869960 21.659209996
v 4.494169159 3.793712000 21.657829079
v 4.112212636 4.309479830 21.653610742
v 3.219633946 3.648472622 21.902732835
v 3.173470328 3.387936956 21.947027152
v 3.134858607 3.170022271 21.984075370
v 3.503024809 2.791088128 21.971737386
v 4.435860700 3.487911518 21.710546285
v 4.500102190 3.388422359 21.713023928
v 4.513298222 2.486991824 21.835786310
v 4.883768673 1.986733995 21.839877795
v 5.180667297 0.408133845 22.006581773
v 6.040827029 1.045132900 21.766507933
v 5.313238337 1.133591564 21.882534413
v 5.290362363 1.008409235 21.903939572
v -0.570501770 0.841653400 22.960574072
v -1.644199773 2.147903150 22.968642903
v -1.674287747 2.125522031 22.977054336
v -0.667365251 0.769920274 22.987609036
v -0.614832278 0.699196072 22.988159694
v -2.495920433 3.242880369 22.966886431
v -2.499987218 3.237146470 22.968399240
v -2.144489886 2.758546766 22.972125612
v -2.128433755 2.770437279 22.967644285
v -2.493537616 3.246239983 22.966000044
v 6.407975039 -5.687838720 15.674068555
v 6.702022171 -5.470079462 15.666626863
v 6.242451861 -5.200185075 15.596963611
v 6.081546408 -5.247051937 15.591405042
v 4.917745518 -5.586031724 15.551200890
v 4.676478497 -5.260241324 15.490103371
v 4.445886202 -5.430896971 15.495924297
v 4.322149494 -5.522471394 15.499047821
v 4.207941775 -5.375645337 15.471111077
v 4.007651931 -5.523971789 15.476179976
v 4.118491770 -5.673193483 15.504188835
v 0.818348221 -8.115548001 15.587495572
v 1.682326632 -9.187460312 15.793664401
v 4.937980470 -6.776456470 15.711270909
v 5.166130185 -6.607498139 15.705496937
v 5.304755848 -6.504837652 15.701988624
v 2.696615674 3.621082720 -19.157426670
v 4.112212636 4.309479830 -19.157426670
v 4.100726564 4.324989832 -19.157426670
v 3.471432661 5.174745057 -19.157426670
v 3.099712430 5.676690502 -19.157426670
v 2.883143438 5.969130379 -19.157426670
v 2.214035119 6.872648253 -19.157426670
v 1.101493013 8.374948629 -19.157426670
v 0.979669235 8.539451083 -19.157426670
v -0.313793381 10.286054077 -19.157426670
v -0.553691596 10.609996135 -19.157426670
v 2.715019443 -3.456335372 -19.157426670
v 3.782732084 -5.221166247 19.917012700
v 3.194315917 -4.132248708 -19.157426670
v 2.271539726 -2.886195179 19.913548760
v 0.983120108 -3.095731386 -19.157426670
v -0.544497616 -4.238087815 -19.157426670
v -1.791959487 -2.148985799 -19.157426670
v -2.578449405 -0.645350350 22.630209707
v -4.950621635 -0.311598487 18.822560605
v -2.565837557 3.325799571 -19.157426670
v -2.676038092 3.474440784 -19.157426670
v -2.560394441 3.329838608 22.966188251
v -2.560394441 3.329838608 -19.157426670
v -2.560360609 3.329863663 -19.157426670
v -2.435964879 3.501244826 22.920471169
v -3.808058675 4.929773242 -19.157426670
v -3.828747793 4.915802480 -19.157426670
v -6.418655861 1.456825612 -19.157426670
v -5.945524924 0.817942120 -19.157426670
v -5.156735308 -0.247185150 -19.157426670
v -5.052765528 -0.387578792 -19.157426670
v -4.879879317 -0.621032446 -19.157426670
v -4.053120200 -1.737431120 -19.157426670
v -3.521071070 -2.455873688 -19.157426670
v -2.707583423 -3.554351480 -19.157426670
v -1.808813182 -4.767989026 -19.157426670
v -1.610752834 -5.035436103 -19.157426670
v -2.262914304 12.918012975 -19.157426670
v -5.254335574 10.702688946 -19.157426670
v -1.176796114 11.451393639 -19.157426670
v 6.510302087 1.071264699 -19.157426670
v 6.422519932 1.189799686 -19.157426670
v 6.356519654 1.278921924 -19.157426670
v 2.709187576 2.379440762 22.964731733
v 2.709187576 2.379440762 -19.157426670
v -0.023057967 0.157123307 -19.157426670
v -0.023049292 0.157112434 -19.157426670
v -0.023078882 0.157107694 -19.157426670
v -0.144665130 0.066283323 -19.157426670
v -0.144688673 0.066250085 -19.157426670
v -0.144696171 0.066260211 21.548616339
v -0.144696171 0.066260211 -19.157426670
v -0.883611234 -0.411439158 22.982737868
v -0.883611234 -0.411439158 21.546206581
v 1.521227217 -1.773869140 -19.157426670
v 3.328720389 -0.887279759 21.753096299
v 6.416346759 0.999477989 -19.157426670
v 0.236645142 -3.653947272 -19.157426670
v -0.053456477 0.195133895 -19.157426670
v 3.503024820 2.791088117 -19.157426670
v 1.356114308 5.228368195 -19.157426670
v -0.524629486 4.316019002 22.968843285
v -2.128433716 2.770437308 -19.157426670
v -2.144489862 2.758546783 -19.157426670
v -1.650656974 -1.058684467 -19.157426670
v -0.867602162 -0.473746755 -19.157426670
v -0.883611234 -0.411439158 -19.157426670
v -0.667365253 0.769920273 22.960384474
v -1.644199779 2.147903146 -19.157426670
v -1.625990149 2.161448430 -19.157426670
v -0.515439200 0.772802513 23.294122025
v 0.975160253 1.648260873 -19.157426670
v 1.207711055 1.976785431 23.269014354
v 3.207709530 2.570489204 -19.157426670
v -3.950972245 6.741865072 -19.157426670
v -3.205688535 7.293791652 -19.157426670
v -3.482068418 7.666996047 -19.157426670
v -4.172223315 7.155895607 -19.157426670
v -4.292083152 7.317746092 -19.157426670
v -4.362963523 7.413458072 -19.157426670
v -3.672808626 7.924558511 -19.157426670
v -5.965761869 7.903056961 10.013160555
v -6.123999635 7.785812204 15.496911136
v -6.123999635 7.785812204 10.012738075
v -9.340641117 5.402473621 -19.157426670
v -8.457522880 4.209971466 -19.157426670
v -7.182330854 2.488039821 -19.157426670
v -3.935961900 5.170373457 -19.157426670
v -3.062735862 5.542451724 -19.157426670
v -5.561642551 10.475109990 -19.157426670
v -2.564559457 3.324078922 -19.157426670
v 2.639198503 -1.866693307 -19.157426670
v 2.900136201 -1.673453539 -19.157426670
v 3.245615463 -1.417605752 -19.157426670
v 3.480515644 -1.243648302 -19.157426670
v 3.773973541 -1.019431289 -19.157426670
v 4.432919601 -0.515962644 -19.157426670
v 4.505040429 -0.460858595 -19.157426670
v 2.842453627 -0.873203727 -19.157426670
v 1.979858737 -2.477542619 19.912930441
v 6.040826989 1.045132871 -19.157426670
v 6.184730392 1.151701836 -19.157426670
v 1.566734356 1.491985047 -19.157426670
v -0.552968582 0.745009790 -19.157426670
v -0.185122687 0.131145579 -19.157426670
v -0.192065787 0.130033161 -19.157426670
v -0.068994126 0.122809210 -19.157426670
v -0.072344395 0.218751532 -19.157426670
v 4.445886135 -5.430896961 -19.157426670
v 4.676478497 -5.260241324 -19.157426670
v 2.331891526 -2.094272263 -19.157426670
v 2.634727148 -1.860655496 -19.157426670
v -1.005264261 -5.853046247 -19.157426670
v 0.818348254 -8.115547970 -19.157426670
v -3.428827459 8.105240967 -19.157426670
v -3.360446648 8.012904221 -19.157426670
v -3.238087251 7.847678503 -19.157426670
v -2.902881868 7.518037863 -19.157426670
v -2.015062079 6.319187054 -19.157426670
v -1.465813598 5.577519665 -19.157426670
v -1.425775082 4.893041139 -19.157426670
v -1.128025134 5.303262027 -19.157426670
v -3.837693039 4.967871393 -19.157426670
v -2.139339767 3.909907993 22.811457295
v -2.139339767 3.909907993 19.903461185
v -2.137667473 3.912211845 -19.157426670
v -3.995393839 5.124178616 -19.157426670
v -0.394139489 4.937282742 -19.157426670
v -1.397065823 4.402240744 -19.157426670
v -2.227585366 4.414721908 -19.157426670
v -2.560386324 3.329828318 -19.157426670
v -2.565853387 3.325820948 -19.157426670
v -2.495920457 3.242880374 -19.157426670
v -2.493537661 3.246239993 -19.157426670
v -7.054861942 9.369292889 -19.157426670
v -7.185853148 9.272286168 -19.157426670
v -7.265572950 9.213248949 -19.157426670
v -10.428247140 6.871102024 -19.157426670
v 5.613614812 2.282089550 -19.157426670
v 4.619206656 3.624869960 -19.157426670
v 4.494169159 3.793712000 -19.157426670
v -2.118753787 2.777605866 -19.157426670
v 6.702022171 -5.470079462 -19.157426670
v 6.242451861 -5.200185075 -19.157426670
v 6.081546413 -5.247051944 -19.157426670
v 4.917745518 -5.586031724 -19.157426670
v 1.682326632 -9.187460312 -19.157426670
v 4.937980470 -6.776456470 -19.157426670
v 5.166130185 -6.607498139 -19.157426670
v 5.304755848 -6.504837652 -19.157426670
v 6.407975039 -5.687838720 -19.157426670
g roof
f 1 2 3
g roof
f 1 3 4
g roof
f 1 4 5
g roof
f 1 5 6
g roof
f 1 6 7
g roof
f 1 7 8
g roof
f 1 8 9
g roof
f 1 9 10
g roof
f 1 10 11
g roof
f 1 11 12
g roof
f 1 12 13
g roof
f 13 14 15
g roof
f 13 15 16
g roof
f 16 17 18
g roof
f 16 18 19
g roof
f 20 21 22
g roof
f 23 24 25
g roof
f 23 25 26
g roof
f 23 26 27
g roof
f 28 1 13
g roof
f 13 16 19
g roof
f 13 19 20
g roof
f 13 20 22
g roof
f 13 22 29
g roof
f 13 29 30
g roof
f 13 30 23
g roof
f 13 23 27
g roof
f 13 27 28
g roof
f 31 32 33
g roof
f 34 35 36
g roof
f 34 36 37
g roof
f 34 37 38
g roof
f 34 38 39
g roof
f 34 39 40
g roof
f 34 40 41
g roof
f 34 41 42
g roof
f 34 42 43
g roof
f 34 43 44
g roof
f 34 44 45
g roof
f 34 45 46
g roof
f 34 46 47
g roof
f 34 47 48
g roof
f 48 49 50
g roof
f 51 52 53
g roof
f 51 53 54
g roof
f 51 54 55
g roof
f 51 55 56
g roof
f 51 56 57
g roof
f 58 59 60
g roof
f 58 60 61
g roof
f 58 61 62
g roof
f 63 64 65
g roof
f 63 65 66
g roof
f 63 66 67
g roof
f 63 67 68
g roof
f 68 69 70
g roof
f 68 70 71
g roof
f 68 71 72
g roof
f 72 73 74
g roof
f 74 75 76
g roof
f 74 76 77
g roof
f 74 77 78
g roof
f 74 78 79
g roof
f 74 79 80
g roof
f 74 80 81
g roof
f 74 81 82
g roof
f 74 82 83
g roof
f 74 83 84
g roof
f 85 86 34
g roof
f 34 48 50
g roof
f 34 50 87
g roof
f 88 51 57
g roof
f 62 63 68
g roof
f 62 68 72
g roof
f 62 72 74
g roof
f 85 34 87
g roof
f 85 87 89
g roof
f 85 89 90
g roof
f 85 90 88
g roof
f 85 88 57
g roof
f 58 62 74
g roof
f 58 74 84
g roof
f 58 84 85 57 535
g roof
f 91 92 93
g roof
f 91 93 94
g roof
f 95 96 97
g roof
f 95 97 98
g roof
f 98 99 100
g roof
f 100 101 102
g roof
f 103 104 105
g roof
f 103 105 106
g roof
f 103 106 107
g roof
f 103 107 108
g roof
f 103 108 109
g roof
f 110 111 112
g roof
f 113 114 115
g roof
f 116 117 118
g roof
f 116 118 119
g roof
f 120 567 121 570 122
g roof
f 120 122 570 123
g roof
f 120 123 124
g roof
f 124 125 126
g roof
f 124 126 127
g roof
f 124 127 128
g roof
f 124 128 129
g roof
f 124 129 130
g roof
f 124 130 131
g roof
f 124 131 132
g roof
f 124 132 133
g roof
f 124 133 134
g roof
f 124 134 135
g roof
f 124 135 136
g roof
f 124 136 137
g roof
f 124 137 138
g roof
f 124 138 139
g roof
f 124 139 140
g roof
f 124 140 141
g roof
f 124 141 142
g roof
f 124 142 143
g roof
f 143 144 145
g roof
f 143 145 146
g roof
f 143 146 147
g roof
f 148 149 150
g roof
f 148 150 151
g roof
f 152 153 154
g roof
f 152 154 155
g roof
f 152 155 156
g roof
f 156 157 158
g roof
f 158 95 98
g roof
f 158 98 100
g roof
f 158 100 102
g roof
f 102 103 109
g roof
f 109 110 112
g roof
f 112 113 115
g roof
f 115 116 118 119
g roof
f 115 119 120
g roof
f 115 120 124
g roof
f 115 124 143
g roof
f 115 143 147
g roof
f 115 147 148
g roof
f 115 148 151
g roof
f 115 151 152
g roof
f 115 152 156
g roof
f 156 158 102
g roof
f 156 102 109
g roof
f 156 109 112
g roof
f 156 112 115
g roof
f 159 160 161
g roof
f 159 161 162
g roof
f 163 164 165
g roof
f 166 167 168
g roof
f 166 168 169
g roof
f 169 170 171
g roof
f 169 171 172
g roof
f 169 172 173
g roof
f 169 172 173 174
g roof
f 175 176 177
g roof
f 175 177 178
g roof
f 175 178 179
g roof
f 181 182 183
g roof
f 184 185 186
g roof
f 187 560 188 189
g roof
f 187 189 190
g roof
f 187 190 191
g roof
f 187 191 192
g roof
f 187 192 193
g roof
f 187 193 194
g roof
f 187 194 195
g roof
f 187 195 196
g roof
f 187 196 197
g roof
f 187 197 198
g roof
f 187 198 199
g roof
f 187 199 200
g roof
f 187 200 201
g roof
f 201 202 203
g roof
f 201 203 204
g roof
f 201 204 205
g roof
f 201 205 206
g roof
f 201 206 207
g roof
f 208 209 210
g roof
f 210 211 212
g roof
f 213 214 215
g roof
f 213 215 216
g roof
f 216 217 218
g roof
f 219 220 221
g roof
f 221 222 166
g roof
f 221 166 169
g roof
f 221 169 174
g roof
f 221 174 175 179
g roof
f 183 184 185 186
g roof
f 186 187 201
g roof
f 201 207 578 208
g roof
f 208 210 212
g roof
f 208 212 223
g roof
f 213 216 218
g roof
f 213 218 224
g roof
f 224 219 221 179
g roof
f 224 179 584 225
g roof
f 181 183 186
g roof
f 181 186 201
g roof
f 181 201 207 578 208
g roof
f 181 208 223
g roof
f 181 223 226
g roof
f 181 226 227
g roof
f 181 227 213
g roof
f 213 224 225
g roof
f 213 225 180
g roof
f 213 180 181
g roof
f 228 229 230
g roof
f 230 231 232
g roof
f 230 232 233
g roof
f 230 233 234
g roof
f 230 234 235
g roof
f 235 236 237
g roof
f 235 237 238
g roof
f 235 238 239
g roof
f 235 239 599 240
g roof
f 235 240 599 241
g roof
f 235 241 242
g roof
f 243 244 245
g roof
f 246 247 248
g roof
f 246 248 249
g roof
f 246 249 250
g roof
f 251 228 230
g roof
f 251 230 235
g roof
f 251 235 242
g roof
f 242 243 245
g roof
f 242 245 246
g roof
f 242 246 249 250
g roof
f 242 250 251
g roof
f 247 244 252
g roof
f 253 254 255
g roof
f 253 255 237
g roof
f 256 257 258
g roof
f 256 258 259
g roof
f 260 261 262
g roof
f 260 262 263
g roof
f 260 263 264
g roof
f 264 265 266
g roof
f 266 214 267
g roof
f 266 267 268
g roof
f 266 268 269
g roof
f 266 269 270
g roof
f 271 534 272 273
g roof
f 271 273 274
g roof
f 274 275 276
g roof
f 274 276 277
g roof
f 274 277 260
g roof
f 274 260 264
g roof
f 264 266 270
g roof
f 264 270 271
g roof
f 264 271 274
g roof
f 278 279 280
g roof
f 278 280 281
g roof
f 278 281 282
g roof
f 278 282 283
g roof
f 278 283 284
g roof
f 278 284 285
g roof
f 278 285 286
g roof
f 278 286 287
g roof
f 278 287 288
g roof
f 278 288 289
g roof
f 289 290 291
g roof
f 289 291 292
g roof
f 293 572 294 295
g roof
f 293 295 296
g roof
f 297 298 299
g roof
f 297 299 300
g roof
f 297 300 301
g roof
f 297 301 302
g roof
f 297 302 303
g roof
f 304 305 306
g roof
f 304 306 307
g roof
f 308 309 159
g roof
f 308 159 162
g roof
f 308 162 310
g roof
f 310 311 312
g roof
f 310 312 313
g roof
f 314 315 316
g roof
f 314 316 317
g roof
f 314 317 318
g roof
f 314 318 319
g roof
f 319 278 289
g roof
f 319 289 292
g roof
f 319 292 293
g roof
f 319 293 296
g roof
f 319 296 297
g roof
f 319 297 303
g roof
f 319 303 304
g roof
f 319 304 307
g roof
f 319 307 308
g roof
f 308 310 313
g roof
f 308 313 320
g roof
f 308 320 314
g roof
f 308 314 319
g roof
f 322 287 321
g roof
f 323 324 587 325
g roof
f 323 325 326
g roof
f 328 329 569 330
g roof
f 328 569 330 331
g roof
f 328 331 332
g roof
f 328 331 332 333
g roof
f 328 331 333 334
g roof
f 328 334 335 327
g roof
f 328 327 335 336
g roof
f 336 337 338
g roof
f 339 337 336
g roof
f 339 336 340
g roof
f 339 340 341
g roof
f 339 341 342
g roof
f 339 342 343
g roof
f 339 343 344 345
g roof
f 339 345 346 589 323
g roof
f 327 328 335 336
g roof
f 327 335 336 338 326
g roof
f 323 326 338 339
g roof
f 347 528 348 349
g roof
f 350 351 352
g roof
f 352 353 354
g roof
f 352 354 355
g roof
f 352 355 356
g roof
f 352 356 357
g roof
f 358 359 360
g roof
f 361 362 363
g roof
f 363 364 365
g roof
f 363 365 366
g roof
f 363 366 367
g roof
f 368 369 347
g roof
f 350 352 357
g roof
f 350 357 370
g roof
f 350 370 359
g roof
f 359 358 371
g roof
f 372 358 359 360
g roof
f 372 358 359 360 361
g roof
f 372 361 363
g roof
f 372 363 367
g roof
f 372 367 616 373
g roof
f 372 373 530 368
g roof
f 349 350 359
g roof
f 371 372 368
g roof
f 347 349 359
g roof
f 359 371 368
g roof
f 359 368 347
g roof
f 374 375 376
g roof
f 374 376 377
g roof
f 378 379 380
g roof
f 378 380 381
g roof
f 378 381 382
g roof
f 383 384 385
g roof
f 385 386 387
g roof
f 388 389 390
g roof
f 388 390 391
g roof
f 392 393 394
g roof
f 392 394 395
g roof
f 392 395 396
g roof
f 392 396 397
g roof
f 392 397 374
g roof
f 392 374 377 378
g roof
f 392 378 382
g roof
f 392 382 383
g roof
f 383 385 387
g roof
f 383 387 398
g roof
f 383 398 388
g roof
f 383 388 391
g roof
f 383 391 399
g roof
f 383 399 392
g roof
f 400 401 402
g roof
f 641 400 402 403
g roof
f 641 400 403 404
g roof
f 407 408 409
g roof
f 407 409 410
g roof
f 410 411 412
g roof
f 412 413 400 641
g roof
f 412 400 641 404
g roof
f 412 404 405
g roof
f 406 407 410
g roof
f 410 412 405
g roof
f 410 405 406
g roof
f 414 415 416
g roof
f 414 416 407
g roof
f 417 418 419
g roof
f 417 419 420
g roof
f 417 420 421
g roof
f 417 421 408
g roof
f 417 408 416
g roof
f 422 423 424
g roof
f 422 424 425
g roof
f 425 426 427
g roof
f 425 427 428
g roof
f 429 430 431
g roof
f 429 431 432
g roof
f 429 432 433
g roof
f 429 433 434
g roof
f 429 434 435
g roof
f 429 435 436
g roof
f 437 438 439
g roof
f 437 439 440
g roof
f 441 442 443
g roof
f 443 444 445
g roof
f 443 444 445 446
g roof
f 443 444 445 446 447
g roof
f 443 444 447 448
g roof
f 448 449 450
g roof
f 448 450 451
g roof
f 448 451 452
g roof
f 448 452 210
g roof
f 209 453 422
g roof
f 422 425 428
g roof
f 422 428 429
g roof
f 436 437 440
g roof
f 436 440 640 454
g roof
f 436 454 640 541 455
g roof
f 436 455 456
g roof
f 456 538 441 443
g roof
f 456 443 448
g roof
f 456 448 210
g roof
f 209 422 429
g roof
f 209 429 436
g roof
f 436 456 210
g roof
f 436 210 209
g roof
f 457 377 376
g roof
f 457 376 458
g roof
f 457 458 459
g roof
f 91 383 382
g roof
f 91 382 460
g roof
f 91 460 461
g roof
f 462 457 459
g roof
f 462 459 92
g roof
f 92 91 461
g roof
f 92 461 462
g roof
f 463 598 464 465
g roof
f 463 465 466
g roof
f 463 466 467
g roof
f 463 467 468
g roof
f 463 468 469
g roof
f 463 469 470 600
g roof
f 471 472 473
g roof
f 471 473 474
g roof
f 471 474 475
g roof
f 471 475 476
g roof
f 471 476 477
g roof
f 477 478 479
g roof
f 477 479 480
g roof
f 477 480 481
g roof
f 477 481 482
g roof
f 477 482 483
g roof
f 483 484 485
g roof
f 483 485 471
g roof
f 483 471 477
g roof
f 486 487 322
g roof
f 322 488 489
g roof
f 322 489 486
g roof
f 258 490 181
g roof
f 258 181 491
g roof
f 258 491 492
g roof
f 258 492 493
g roof
f 258 493 494
g roof
f 258 494 259
g roof
f 495 496 497
g roof
f 495 497 498
g roof
f 495 498 226
g roof
f 495 226 499
g roof
f 500 501 502
g roof
f 500 502 503
g roof
f 500 503 504
g roof
f 504 505 506
g roof
f 504 506 507
g roof
f 507 508 509
g roof
f 507 509 510
g roof
f 507 510 511 512
g roof
f 507 512 513
g roof
f 507 513 514
g roof
f 507 514 515
g roof
f 515 500 504
g roof
f 515 504 507
g roof_step_or_fixture_side
f 197 196 1 28
g roof_step_or_fixture_side
f 196 195 2 1
g roof_step_or_fixture_side
f 195 194 478 3 2
g roof_step_or_fixture_side
f 478 477 4 3
g facade_completed
f 5 4 517 518
g facade_completed
f 6 5 518 519
g facade_completed
f 7 6 519 520
g facade_completed
f 8 7 520 521
g facade_completed
f 9 8 521 522
g facade_completed
f 10 9 522 523
g facade_completed
f 11 10 523 524
g facade_completed
f 12 11 524 525
g facade_completed
f 13 12 525 526
g roof_step_or_fixture_side
f 459 458 14 13
g roof_step_or_fixture_side
f 458 376 15 14
g roof_step_or_fixture_side
f 376 375 16 15
g roof_step_or_fixture_side
f 375 374 17 16
g roof_step_or_fixture_side
f 374 397 18 17
g roof_step_or_fixture_side
f 431 430 19 18 397
g roof_step_or_fixture_side
f 430 429 20 19
g roof_step_or_fixture_side
f 429 428 21 20
g roof_step_or_fixture_side
f 428 427 22 21
g roof_step_or_fixture_side
f 427 426 204 29 22
g roof_step_or_fixture_side
f 204 203 30 29
g roof_step_or_fixture_side
f 203 202 23 30
g roof_step_or_fixture_side
f 202 201 24 23
g roof_step_or_fixture_side
f 201 200 25 24
g roof_step_or_fixture_side
f 200 199 26 25
g roof_step_or_fixture_side
f 199 198 27 26
g roof_step_or_fixture_side
f 198 197 28 27
g roof_step_or_fixture_side
f 358 372 32 31
g roof_step_or_fixture_side
f 372 371 33 32
g roof_step_or_fixture_side
f 371 358 31 33
g roof_step_or_fixture_side
f 349 348 37 36
g roof_step_or_fixture_side
f 348 528 38 37
g roof_step_or_fixture_side
f 528 347 39 38
g roof_step_or_fixture_side
f 347 369 40 39
g roof_step_or_fixture_side
f 369 368 41 40
g roof_step_or_fixture_side
f 368 530 42 41
g roof_step_or_fixture_side
f 315 314 43 42 530
g roof_step_or_fixture_side
f 314 320 44 43
g roof_step_or_fixture_side
f 320 313 45 44
g roof_step_or_fixture_side
f 313 312 46 45
g roof_step_or_fixture_side
f 312 311 47 46
g roof_step_or_fixture_side
f 311 310 48 47
g roof_step_or_fixture_side
f 310 162 49 48
g roof_step_or_fixture_side
f 162 161 50 49
g roof_step_or_fixture_side
f 161 160 87 50
g roof_step_or_fixture_side
f 160 159 89 87
g roof_step_or_fixture_side
f 159 309 132 90 89
g roof_step_or_fixture_side
f 132 131 88 90
g roof_step_or_fixture_side
f 131 130 51 88
g roof_step_or_fixture_side
f 130 129 52 51
g roof_step_or_fixture_side
f 129 128 53 52
g roof_step_or_fixture_side
f 128 127 54 53
g roof_step_or_fixture_side
f 272 534 55 54 127
g roof_step_or_fixture_side
f 534 271 56 55
g roof_step_or_fixture_side
f 271 270 57 56
g roof_step_or_fixture_side
f 270 269 535 57
g roof_step_or_fixture_side
f 269 268 58 535
g roof_step_or_fixture_side
f 268 267 59 58
g roof_step_or_fixture_side
f 445 444 60 59 267
g roof_step_or_fixture_side
f 444 443 61 60
g roof_step_or_fixture_side
f 443 442 62 61
g roof_step_or_fixture_side
f 442 441 63 62
g roof_step_or_fixture_side
f 441 538 64 63
g facade_completed
f 65 64 539 540
g roof_step_or_fixture_side
f 455 541 413 66 65
g roof_step_or_fixture_side
f 413 412 67 66
g roof_step_or_fixture_side
f 412 411 68 67
g roof_step_or_fixture_side
f 411 410 69 68
g roof_step_or_fixture_side
f 410 409 70 69
g roof_step_or_fixture_side
f 409 408 71 70
g roof_step_or_fixture_side
f 408 421 72 71
g roof_step_or_fixture_side
f 421 420 73 72
g roof_step_or_fixture_side
f 420 419 74 73
g roof_step_or_fixture_side
f 419 418 75 74
g facade_completed
f 76 75 544 545
g facade_completed
f 77 76 545 546
g facade_completed
f 78 77 546 547
g facade_completed
f 79 78 547 548
g facade_completed
f 80 79 548 549
g facade_completed
f 81 80 549 550
g facade_completed
f 82 81 550 551
g facade_completed
f 83 82 551 552
g facade_completed
f 84 83 552 553
g roof_step_or_fixture_side
f 354 353 85 84
g roof_step_or_fixture_side
f 353 352 86 85
g roof_step_or_fixture_side
f 352 351 34 86
g roof_step_or_fixture_side
f 351 350 35 34
g roof_step_or_fixture_side
f 350 349 36 35
g facade_completed
f 94 93 554 555 254
g roof_step_or_fixture_side
f 91 94 254 253
g facade_completed
f 93 92 556 554
g facade_completed
f 98 97 557 558
g facade_completed
f 99 98 558 559
g roof_step_or_fixture_side
f 473 472 100 99
g roof_step_or_fixture_side
f 472 471 101 100
g roof_step_or_fixture_side
f 471 485 102 101
g roof_step_or_fixture_side
f 485 484 103 102
g roof_step_or_fixture_side
f 484 483 104 103
g roof_step_or_fixture_side
f 483 482 105 104
g roof_step_or_fixture_side
f 482 481 106 105
g roof_step_or_fixture_side
f 191 190 107 106 481
g roof_step_or_fixture_side
f 190 189 108 107
g roof_step_or_fixture_side
f 189 188 109 108
g roof_step_or_fixture_side
f 188 560 110 109
g roof_step_or_fixture_side
f 344 343 111 110 560
g roof_step_or_fixture_side
f 343 342 112 111
g roof_step_or_fixture_side
f 342 341 113 112
g roof_step_or_fixture_side
f 341 340 114 113
g facade_completed
f 115 114 562 563
g facade_completed
f 116 115 563 564
g roof_step_or_fixture_side
f 336 335 117 116
g roof_step_or_fixture_side
f 335 334 118 117
g roof_step_or_fixture_side
f 334 333 119 118
g facade_completed
f 120 119 565 566
g facade_completed
f 567 120 566 568
g roof_step_or_fixture_side
f 332 331 121 567
g roof_step_or_fixture_side
f 331 330 569 173 172 570 122 121
g roof_step_or_fixture_side
f 172 171 123 122 570
g roof_step_or_fixture_side
f 171 170 124 123
g roof_step_or_fixture_side
f 170 169 125 124
g roof_step_or_fixture_side
f 169 168 273 126 125
g roof_step_or_fixture_side
f 273 272 127 126
g roof_step_or_fixture_side
f 309 308 133 132
g roof_step_or_fixture_side
f 308 307 134 133
g roof_step_or_fixture_side
f 307 306 135 134
g roof_step_or_fixture_side
f 306 305 136 135
g roof_step_or_fixture_side
f 305 304 137 136
g roof_step_or_fixture_side
f 304 303 138 137
g roof_step_or_fixture_side
f 303 302 139 138
g roof_step_or_fixture_side
f 302 301 140 139
g roof_step_or_fixture_side
f 301 300 141 140
g roof_step_or_fixture_side
f 300 299 142 141
g roof_step_or_fixture_side
f 299 298 143 142
g roof_step_or_fixture_side
f 298 297 144 143
g roof_step_or_fixture_side
f 297 296 145 144
g roof_step_or_fixture_side
f 296 295 146 145
g roof_step_or_fixture_side
f 295 294 147 146
g roof_step_or_fixture_side
f 294 572 148 147
g roof_step_or_fixture_side
f 572 293 149 148
g roof_step_or_fixture_side
f 293 292 150 149
g roof_step_or_fixture_side
f 292 291 151 150
g roof_step_or_fixture_side
f 291 290 152 151
g roof_step_or_fixture_side
f 290 289 153 152
g roof_step_or_fixture_side
f 289 288 154 153
g roof_step_or_fixture_side
f 486 489 155 154 288
g roof_step_or_fixture_side
f 489 488 156 155
g roof_step_or_fixture_side
f 488 322 157 156
g roof_step_or_fixture_side
f 322 321 158 157
g roof_step_or_fixture_side
f 321 287 95 158
g roof_step_or_fixture_side
f 287 286 96 95
g facade_completed
f 97 96 573 557
g roof_step_or_fixture_side
f 337 339 165 164
g roof_step_or_fixture_side
f 339 338 163 165
g roof_step_or_fixture_side
f 338 337 164 163
g roof_step_or_fixture_side
f 192 191 481 480
g roof_step_or_fixture_side
f 193 192 480 479
g roof_step_or_fixture_side
f 194 193 479 478
g roof_step_or_fixture_side
f 426 425 205 204
g roof_step_or_fixture_side
f 425 424 206 205
g roof_step_or_fixture_side
f 424 423 207 206
g roof_step_or_fixture_side
f 423 422 578 207
g roof_step_or_fixture_side
f 422 453 208 578
g roof_step_or_fixture_side
f 453 209 208
g roof_step_or_fixture_side
f 210 452 211
g roof_step_or_fixture_side
f 452 451 212 211
g roof_step_or_fixture_side
f 451 450 223 212
g roof_step_or_fixture_side
f 450 449 226 223
g roof_step_or_fixture_side
f 226 498 227
g roof_step_or_fixture_side
f 498 497 213 227
g roof_step_or_fixture_side
f 497 496 214 213
g roof_step_or_fixture_side
f 215 214 266
g roof_step_or_fixture_side
f 216 215 266 265
g roof_step_or_fixture_side
f 217 216 265 264
g roof_step_or_fixture_side
f 218 217 264 263
g roof_step_or_fixture_side
f 224 218 263 262
g roof_step_or_fixture_side
f 219 224 262 261
g roof_step_or_fixture_side
f 220 219 261 260
g roof_step_or_fixture_side
f 221 220 260 277
g roof_step_or_fixture_side
f 222 221 277 276
g roof_step_or_fixture_side
f 166 222 276 275
g roof_step_or_fixture_side
f 167 166 275 274
g roof_step_or_fixture_side
f 168 167 274 273
g roof_step_or_fixture_side
f 569 330 329 174 172 173
g roof_step_or_fixture_side
f 329 328 175 174
g roof_step_or_fixture_side
f 328 327 176 175
g roof_step_or_fixture_side
f 327 326 177 176
g roof_step_or_fixture_side
f 326 325 259 178 177
g roof_step_or_fixture_side
f 259 494 179 178
g roof_step_or_fixture_side
f 494 493 584 179
g roof_step_or_fixture_side
f 493 492 225 584
g roof_step_or_fixture_side
f 492 491 180 225
g roof_step_or_fixture_side
f 491 181 180
g roof_step_or_fixture_side
f 257 256 182 490
g roof_step_or_fixture_side
f 587 324 183 182 256
g roof_step_or_fixture_side
f 324 323 184 183
g roof_step_or_fixture_side
f 323 589 185 184
g roof_step_or_fixture_side
f 589 346 186 185
g roof_step_or_fixture_side
f 346 345 187 186
g roof_step_or_fixture_side
f 345 344 560 187
g facade_completed
f 231 230 591 592
g roof_step_or_fixture_side
f 390 389 232 231
g facade_completed
f 233 232 593 594
g facade_completed
f 234 233 594 595
g facade_completed
f 235 234 595 596
g facade_completed
f 236 235 596 597
g roof_step_or_fixture_side
f 386 385 237 236
g roof_step_or_fixture_side
f 238 237 464 598
g roof_step_or_fixture_side
f 239 238 598 463
g roof_step_or_fixture_side
f 599 240 239 463 600
g roof_step_or_fixture_side
f 241 599 240 600 470
g facade_completed
f 242 241 470 601 602
g facade_completed
f 243 242 602 603
g roof_step_or_fixture_side
f 417 416 244 243
g roof_step_or_fixture_side
f 416 415 245 244
g roof_step_or_fixture_side
f 415 414 246 245
g roof_step_or_fixture_side
f 414 407 247 246
g roof_step_or_fixture_side
f 407 406 248 247
g roof_step_or_fixture_side
f 406 405 249 248
g roof_step_or_fixture_side
f 405 404 250 249
g roof_step_or_fixture_side
f 404 403 251 250
g roof_step_or_fixture_side
f 403 402 228 251
g roof_step_or_fixture_side
f 439 438 229 228 402
g facade_completed
f 230 229 605 591
g roof_step_or_fixture_side
f 416 408 71 252 244
g roof_step_or_fixture_side
f 408 407 247 252 71
g roof_step_or_fixture_side
f 407 416 244 247
g roof_step_or_fixture_side
f 237 255 465 464
g roof_step_or_fixture_side
f 385 384 91 253 237
g facade_completed
f 255 254 555 606 465
g roof_step_or_fixture_side
f 325 587 256 259
g roof_step_or_fixture_side
f 258 257 490
g roof_step_or_fixture_side
f 446 445 267 214 496
g facade_completed
f 280 279 364 608 609
g facade_completed
f 281 280 609 610
g facade_completed
f 282 281 610 611
g facade_completed
f 283 282 611 612
g facade_completed
f 284 283 612 613
g facade_completed
f 285 284 613 614
g facade_completed
f 286 285 614 573 96
g roof_step_or_fixture_side
f 487 486 288 287
g roof_step_or_fixture_side
f 316 315 530 373
g roof_step_or_fixture_side
f 317 316 373 616
g roof_step_or_fixture_side
f 318 317 616 367
g roof_step_or_fixture_side
f 319 318 367 366
g roof_step_or_fixture_side
f 278 319 366 365
g roof_step_or_fixture_side
f 279 278 365 364
g roof_step_or_fixture_side
f 322 487 287
g facade_completed
f 333 332 567 568 565 119
g facade_completed
f 340 336 116 564 562 114
g roof_step_or_fixture_side
f 360 359 508 507
g roof_step_or_fixture_side
f 361 360 507 506
g roof_step_or_fixture_side
f 362 361 506 505
g facade_completed
f 363 362 505 626 627
g facade_completed
f 364 363 627 608
g facade_completed
f 355 354 84 553 629
g facade_completed
f 356 355 629 630 511
g roof_step_or_fixture_side
f 357 356 511 510
g roof_step_or_fixture_side
f 370 357 510 509
g roof_step_or_fixture_side
f 359 370 509 508
g roof_step_or_fixture_side
f 378 377 457
g roof_step_or_fixture_side
f 379 378 457 462
g roof_step_or_fixture_side
f 380 379 462 461
g roof_step_or_fixture_side
f 381 380 461 460
g roof_step_or_fixture_side
f 382 381 460
g roof_step_or_fixture_side
f 384 383 91
g facade_completed
f 387 386 236 597 631
g facade_completed
f 398 387 631 632
g facade_completed
f 388 398 632 633
g facade_completed
f 389 388 633 593 232
g facade_completed
f 391 390 231 592 634
g facade_completed
f 399 391 634 635
g facade_completed
f 392 399 635 636
g facade_completed
f 393 392 636 637
g roof_step_or_fixture_side
f 435 434 394 393
g roof_step_or_fixture_side
f 434 433 395 394
g roof_step_or_fixture_side
f 433 432 396 395
g roof_step_or_fixture_side
f 432 431 397 396
g roof_step_or_fixture_side
f 440 439 402 401
g roof_step_or_fixture_side
f 541 454 640 400 641 413
g roof_step_or_fixture_side
f 640 454 440 401 400 641
g facade_completed
f 418 417 243 603 544 75
g facade_completed
f 436 435 393 637 645
g facade_completed
f 437 436 645 646
g facade_completed
f 438 437 646 605 229
g facade_completed
f 456 455 65 540 647
g facade_completed
f 538 456 647 539 64
g roof_step_or_fixture_side
f 447 446 496 495
g roof_step_or_fixture_side
f 448 447 495 499
g roof_step_or_fixture_side
f 449 448 499 226
g facade_completed
f 92 459 13 526 556
g facade_completed
f 466 465 606 651
g facade_completed
f 467 466 651 652
g facade_completed
f 468 467 652 653
g facade_completed
f 469 468 653 654
g facade_completed
f 470 469 654 601
g facade_completed
f 474 473 99 559 655
g facade_completed
f 475 474 655 656
g facade_completed
f 476 475 656 657
g facade_completed
f 477 476 657 517 4
g facade_completed
f 502 501 659 660
g facade_completed
f 503 502 660 661
g facade_completed
f 504 503 661 662
g facade_completed
f 505 504 662 626
g facade_completed
f 512 511 630 663
g facade_completed
f 513 512 663 664
g facade_completed
f 514 513 664 665
g facade_completed
f 515 514 665 666
g facade_completed
f 500 515 666 667
g facade_completed
f 501 500 667 659
g ground_assumed
f 634 594 593 633
g ground_assumed
f 631 634 633 632
g ground_assumed
f 637 610 645
g ground_assumed
f 637 611 610
g ground_assumed
f 637 612 611
g ground_assumed
f 637 613 612
g ground_assumed
f 637 614 613
g ground_assumed
f 637 573 614
g ground_assumed
f 637 557 573
g ground_assumed
f 654 630 629 553 552 551 550 549 548 547 546 545 544 603 602 601
g ground_assumed
f 654 663 630
g ground_assumed
f 663 660 659 667 666 665 664
g ground_assumed
f 663 661 660
g ground_assumed
f 663 662 661
g ground_assumed
f 663 627 626 662
g ground_assumed
f 627 645 610 609 608
g ground_assumed
f 627 646 645
g ground_assumed
f 627 591 605 646
g ground_assumed
f 636 557 637
g ground_assumed
f 636 554 556 526 525 524 523 522 521 520 519 518 517 657 656 655 559 558 557
g ground_assumed
f 654 627 663
g ground_assumed
f 654 591 627
g ground_assumed
f 634 554 636 635
g ground_assumed
f 591 594 634 592
g ground_assumed
f 591 596 595 594
g ground_assumed
f 631 554 634
g ground_assumed
f 631 654 653 652 651 606 555 554
g ground_assumed
f 654 596 591
g ground_assumed
f 654 631 597 596
