v 2680637.5000000023 1246300.2499999981 460.25856492169373
v 2680639.5 1246301.3749999981 460.26223437938444
v 2680639.5 1246301.8750000021 460.26238495390146
v 2680638.5000000014 1246308.3749999993 460.26267698556256
v 2680635.0000000009 1246315.3750000005 460.25895623345815
v 2680631.2499999981 1246322.6250000037 460.2548944254313
v 2680630.5000000014 1246322.6250000037 460.25364540967479
v 2680628.9999999986 1246322.1249999995 460.25099683121732
v 2680627.9999999995 1246321.6249999956 460.24918092074
v 2680626.4999999967 1246320.6249999967 460.24638176776551
v 2680625.75 1246320.1250000019 460.24498219587377
v 2680625.75 1246319.7499999988 460.24486926728372
v 2680632.0000000042 1246303.125000003 460.25027129236923
v 2680632.4999999991 1246302.000000003 460.25076518377017
v 2680633.2499999958 1246300.5000000002 460.25156249435742
v 2680633.75 1246299.6250000023 460.25213166842144
v 2680634.4999999967 1246298.8749999963 460.2531548269979
v 2680637.5000000023 1246300.2499999981 457.95768798653438
v 2680639.5 1246301.3749999981 457.95768798653438
v 2680639.5 1246301.8750000021 457.95768798653438
v 2680638.5000000014 1246308.3749999993 457.95768798653438
v 2680635.0000000009 1246315.3750000005 457.95768798653438
v 2680631.2499999981 1246322.6250000037 457.95768798653438
v 2680630.5000000014 1246322.6250000037 457.95768798653438
v 2680628.9999999986 1246322.1249999995 457.95768798653438
v 2680627.9999999995 1246321.6249999956 457.95768798653438
v 2680626.4999999967 1246320.6249999967 457.95768798653438
v 2680625.75 1246320.1250000019 457.95768798653438
v 2680625.75 1246319.7499999988 457.95768798653438
v 2680632.0000000042 1246303.125000003 457.95768798653438
v 2680632.4999999991 1246302.000000003 457.95768798653438
v 2680633.2499999958 1246300.5000000002 457.95768798653438
v 2680633.75 1246299.6250000023 457.95768798653438
v 2680634.4999999967 1246298.8749999963 457.95768798653438
l 1 2
l 2 3
l 3 4
l 4 5
l 5 6
l 6 7
l 7 8
l 8 9
l 9 10
l 10 11
l 11 12
l 12 13
l 13 14
l 14 15
l 15 16
l 16 17
l 1 17
l 18 19
l 2 19
l 19 20
l 20 21
l 4 21
l 21 22
l 22 23
l 6 23
l 23 24
l 7 24
l 24 25
l 25 26
l 26 27
l 27 28
l 11 28
l 28 29
l 12 29
l 29 30
l 30 31
l 31 32
l 32 33
l 16 33
l 33 34
l 17 34
l 18 34
