# Source coordinates; no display transform
v 0.196160111511 0.233290612172 0.0766962559169
v -0.16618627579 0.471689661507 0.0798868549045
v -0.508216892455 -0.0481679413069 0.035290041885
v -0.0231574173539 -0.367303778808 0.0310189075799
v 0.189601709508 -0.50728467926 -0.0120617524975
v 0.531632326174 0.0125729235534 0.00876796289756
v 0.196160111511 0.233290612172 -0.0970382260052
v -0.16618627579 0.471689661507 -0.0970382260052
v -0.508216892455 -0.0481679413069 -0.0970382260052
v -0.0231574173539 -0.367303778808 -0.0970382260052
v 0.189601709508 -0.50728467926 -0.0970382260052
v 0.531632326174 0.0125729235534 -0.0970382260052
g roof
f 1 2 3 4
g roof
f 5 6 1 4
g wall
f 2 1 7 8
g wall
f 3 2 8 9
g wall
f 4 3 9 10
g wall
f 6 5 11 12
g wall
f 1 6 12 7
g wall
f 5 4 10 11
g ground_assumed
f 12 11 10 9 8 7
