# Source coordinates; no display transform
v -0.0558169286097 -0.498599957546 -0.00261950413198
v -0.0466278160143 -0.494136877172 -0.00298235835822
v 0.44847558814 -0.198550209802 -0.000897833999063
v 0.493738895813 -0.169923956994 -7.80048819499e-05
v 0.493703361725 -0.166747210414 0.00117708874005
v 0.32776632773 0.109153578127 0.147658662551
v 0.141111245304 0.327554747325 0.276338664843
v -0.379908889622 0.0190127673074 0.27513317487
v -0.0723971290354 -0.495224220172 0.00252108992369
v -0.0657025087281 -0.498813161569 -0.00042823889664
v -0.00651694962243 0.500291379508 0.176869313561
v -0.0139293583104 0.500874138151 0.174957589022
v -0.0249093880439 0.498472034897 0.17336992523
v -0.496567408145 0.216423850604 0.173321842765
v -0.496574514761 0.214107028757 0.174202991733
v -0.0558169286097 -0.498599957546 -0.276144346498
v -0.0466278160143 -0.494136877172 -0.276144346498
v 0.44847558814 -0.198550209802 -0.276144346498
v 0.493738895813 -0.169923956994 -0.276144346498
v 0.493703361725 -0.166747210414 -0.276144346498
v 0.32776632773 0.109153578127 -0.276144346498
v 0.141111245304 0.327554747325 -0.276144346498
v -0.00651694962243 0.500291379508 -0.276144346498
v -0.0139293583104 0.500874138151 -0.276144346498
v -0.0249093880439 0.498472034897 -0.276144346498
v -0.496567408145 0.216423850604 -0.276144346498
v -0.496574514761 0.214107028757 -0.276144346498
v -0.379908889622 0.0190127673074 -0.276144346498
v -0.0723971290354 -0.495224220172 -0.276144346498
v -0.0657025087281 -0.498813161569 -0.276144346498
g roof
f 1 2 3 4 5 6 7 8 9 10
g roof
f 7 11 12 13 14 15 8
g wall
f 2 1 16 17
g wall
f 3 2 17 18
g wall
f 4 3 18 19
g wall
f 5 4 19 20
g wall
f 6 5 20 21
g wall
f 7 6 21 22
g wall
f 9 8 28 29
g wall
f 10 9 29 30
g wall
f 1 10 30 16
g wall
f 11 7 22 23
g wall
f 12 11 23 24
g wall
f 13 12 24 25
g wall
f 14 13 25 26
g wall
f 15 14 26 27
g wall
f 8 15 27 28
g ground_assumed
f 30 29 28 27 26 25 24 23 22 21 20 19 18 17 16
