# XYZ-only planar convex-roof baseline. Provisional base; no GT.
v -1.07512372 -9.86351905 -0.05599556
v -0.89347796 -9.77529512 -0.06316828
v 8.89347733 -3.93228642 -0.02196245
v 9.78821965 -3.36641704 -0.00575648
v 9.78751723 -3.30362071 0.01905358
v 6.50735733 2.15024743 2.91462772
v 2.81765346 6.46749199 5.45830934
v -7.48161074 0.36838918 5.43447982
v -1.40287279 -9.79678917 0.04562112
v -1.27053690 -9.86773356 -0.01267973
v -0.10058651 9.88206293 3.49204919
v -0.24711128 9.89358261 3.45425918
v -0.46415899 9.84609904 3.42287504
v -9.78765771 4.27071227 3.42192457
v -9.78779819 4.22491450 3.43934268
v -1.07512372 -9.86351905 -5.46289719
v -0.89347796 -9.77529512 -5.46289719
v 8.89347733 -3.93228642 -5.46289719
v 9.78821965 -3.36641704 -5.46289719
v 9.78751723 -3.30362071 -5.46289719
v 6.50735733 2.15024743 -5.46289719
v 2.81765346 6.46749199 -5.46289719
v -0.10058651 9.88206293 -5.46289719
v -0.24711128 9.89358261 -5.46289719
v -0.46415899 9.84609904 -5.46289719
v -9.78765771 4.27071227 -5.46289719
v -9.78779819 4.22491450 -5.46289719
v -7.48161074 0.36838918 -5.46289719
v -1.40287279 -9.79678917 -5.46289719
v -1.27053690 -9.86773356 -5.46289719
g roof
f 1 2 3 4 5 6 7 8 9 10
g roof
f 7 11 12 13 14 15 8
g wall
f 2 1 16 17
g wall
f 3 2 17 18
g wall
f 4 3 18 19
g wall
f 5 4 19 20
g wall
f 6 5 20 21
g wall
f 7 6 21 22
g wall
f 9 8 28 29
g wall
f 10 9 29 30
g wall
f 1 10 30 16
g wall
f 11 7 22 23
g wall
f 12 11 23 24
g wall
f 13 12 24 25
g wall
f 14 13 25 26
g wall
f 15 14 26 27
g wall
f 8 15 27 28
g ground_assumed
f 30 29 28 27 26 25 24 23 22 21 20 19 18 17 16
