v -0.05581692860970168 -0.49859995754554531 -0.0026195041319783162
v -0.046627816014271031 -0.49413687717206778 -0.0029823583582233846
v 0.44847558814036342 -0.19855020980157193 -0.00089783399906314581
v 0.49373889581336861 -0.16992395699431379 -7.8004881949862053e-05
v 0.49370336172510099 -0.16674721041377252 0.0011770887400504005
v 0.32776632773038189 0.10915357812702242 0.14765866255095192
v 0.14111124530387079 0.32755474732497397 0.27633866484281644
v -0.37990888962186647 0.019012767307397271 0.27513317486950206
v -0.072397129035396648 -0.49522422017188145 0.0025210899236927159
v -0.065702508728120959 -0.49881316156927014 -0.0004282388966404077
v -0.0065169496224307781 0.5002913795081062 0.17686931356118793
v -0.013929358310360409 0.50087413815099069 0.17495758902177425
v -0.02490938804389441 0.4984720348970364 0.17336992522950759
v -0.49656740814540207 0.21642385060358263 0.17332184276477744
v -0.49657451476070325 0.21410702875676585 0.17420299173290968
v -0.05581692860970168 -0.49859995754554531 -0.27614434649817265
v -0.046627816014271031 -0.49413687717206778 -0.27614434649817265
v 0.44847558814036342 -0.19855020980157193 -0.27614434649817265
v 0.49373889581336861 -0.16992395699431379 -0.27614434649817265
v 0.49370336172510099 -0.16674721041377252 -0.27614434649817265
v 0.32776632773038189 0.10915357812702242 -0.27614434649817265
v 0.14111124530387079 0.32755474732497397 -0.27614434649817265
v -0.0065169496224307781 0.5002913795081062 -0.27614434649817265
v -0.013929358310360409 0.50087413815099069 -0.27614434649817265
v -0.02490938804389441 0.4984720348970364 -0.27614434649817265
v -0.49656740814540207 0.21642385060358263 -0.27614434649817265
v -0.49657451476070325 0.21410702875676585 -0.27614434649817265
v -0.37990888962186647 0.019012767307397271 -0.27614434649817265
v -0.072397129035396648 -0.49522422017188145 -0.27614434649817265
v -0.065702508728120959 -0.49881316156927014 -0.27614434649817265
l 1 2
l 2 3
l 3 4
l 4 5
l 5 6
l 6 7
l 7 8
l 8 9
l 9 10
l 1 10
l 7 11
l 11 12
l 12 13
l 13 14
l 14 15
l 8 15
l 1 16
l 16 17
l 17 18
l 18 19
l 4 19
l 19 20
l 5 20
l 20 21
l 21 22
l 28 29
l 9 29
l 29 30
l 10 30
l 16 30
l 22 23
l 11 23
l 23 24
l 12 24
l 24 25
l 13 25
l 25 26
l 14 26
l 26 27
l 15 27
l 27 28
