# Source coordinates; no display transform
v -0.191964398671 0.506766055853 0.0749313368591
v -0.192411504116 -0.503570462515 0.0713788531895
v 0.195799839959 -0.503742257911 0.0728555074329
v 0.196246945404 0.506594260078 0.0764079911024
v -0.191964398671 0.506766055853 -0.143199977334
v -0.192411504116 -0.503570462515 -0.143199977334
v 0.195799839959 -0.503742257911 -0.143199977334
v 0.196246945404 0.506594260078 -0.143199977334
g roof
f 1 2 3 4
g wall
f 2 1 5 6
g wall
f 3 2 6 7
g wall
f 4 3 7 8
g wall
f 1 4 8 5
g ground_assumed
f 8 7 6 5
