v -0.42613628404837822 -0.46072742630980479 0.16279478067081843
v 0.50833045137607846 -0.36050187264794314 0.16010120017806742
v 0.42010957244245789 0.46203763079546184 0.15328126263404515
v -0.51435716298199874 0.36181207760715045 0.15597484312679616
v -0.42613628404837822 -0.46072742630980479 -0.16059756807751827
v 0.50833045137607846 -0.36050187264794314 -0.16059756807751827
v 0.42010957244245789 0.46203763079546184 -0.16059756807751827
v -0.51435716298199874 0.36181207760715045 -0.16059756807751827
l 1 2
l 2 3
l 3 4
l 1 4
l 1 5
l 5 6
l 2 6
l 6 7
l 3 7
l 7 8
l 4 8
l 5 8
