# pointcloud_to_mesh 0.5.1; candidate requires geometry validation; coordinates preserved
v 0.488184218 -4.676789079 3.069950880
v 0.528805693 -4.605389516 3.111003472
v 0.457297163 -4.563583281 3.111344036
v 0.457284024 -4.563535193 3.111361615
v 0.551494116 -4.534115256 3.147542307
v 0.377489989 -4.271077853 3.218297232
v -0.396304334 -1.435003691 4.255294067
v -0.688690625 -0.363363358 4.647134184
v -0.808121037 -0.290219195 4.649142704
v -0.817819767 -0.252637365 4.663022355
v -1.134089967 -0.005583304 4.691471100
v -1.260800262 0.093396349 4.702868817
v -1.297406406 0.241323748 4.757891359
v -1.399118254 0.652347437 4.910774287
v -1.777416285 0.868598239 4.910445490
v -2.058057771 1.029023696 4.910201214
v -2.114419484 1.061242219 4.910152157
v -2.364421241 1.204152762 4.909934520
v -2.906763104 1.514176159 4.909462432
v -2.804587194 1.299323463 4.841733595
v -3.039226001 1.482611267 4.862839534
v -3.384854959 1.752598884 4.893929121
v -3.643082977 1.678886132 4.797761233
v -3.516631685 1.368606844 4.694702261
v -3.516619946 1.368578037 4.694692693
v -3.516657079 1.368600780 4.694693317
v -3.902418652 1.604857192 4.701180836
v -3.918872923 1.600160190 4.695053012
v -3.922530645 1.617174612 4.701519068
v -3.922538248 1.617179302 4.701519210
v -5.078394131 1.300128197 4.276651453
v -2.181384759 -0.011129493 4.428634498
v -7.977805316 0.504820132 3.210890280
v -8.137262135 0.461081137 3.152277378
v -8.137273813 0.461078001 3.152273115
v -10.419605237 -0.164965229 2.313337163
v -6.978970201 -2.122451577 2.320369016
v -4.651128546 -3.458330323 2.320143221
v -4.308967030 -3.654686589 2.320110032
v -1.789688163 -5.100425428 2.319865669
v -1.603722990 -5.207145251 2.319847644
v -1.412068423 -5.317130110 2.319829041
v -0.602613538 -5.781652073 2.319750526
v 1.048093999 -6.728943788 2.319590412
v 0.972814160 -6.453031699 2.420476336
v 1.171064380 -6.550101117 2.427696633
v 0.967736544 -6.434421465 2.427281078
v 0.636043603 -5.218716266 2.871797819
v 0.309236878 -4.020919795 3.309766319
v -2.181366695 -0.011167479 4.428622523
v -2.181407562 -0.011179152 4.428607300
v 0.393385596 5.529317545 2.322868425
v 0.407098845 5.553749997 2.308720459
v -5.284703234 8.791996644 2.310513569
v -5.240346367 8.630391772 2.370334908
v -5.240320955 8.630377762 2.370334703
v -5.240340738 8.630371300 2.370342483
v -5.187163644 8.436631756 2.442059129
v -4.256483570 5.045895532 3.697209284
v -4.178494280 4.761758031 3.802388574
v -4.178487729 4.761734007 3.802397478
v -4.178518295 4.761751484 3.802397450
v -4.419891442 4.695940850 3.891604365
v -4.327693394 4.502069253 3.953625729
v -4.062708448 4.339916797 3.958541710
v -3.962973392 3.976553211 4.093048150
v -4.119740290 4.064791256 4.093515082
v -1.416605706 2.304556210 4.190219137
v -1.416578037 2.304563817 4.190208884
v -1.416598019 2.304528214 4.190229500
v -3.806268075 3.405630496 4.304386835
v -3.806215953 3.405440662 4.304457102
v -1.783096710 2.204027798 4.325932365
v -1.783064444 2.204036686 4.325920401
v -1.783088609 2.203995064 4.325944704
v -1.305321975 1.896684547 4.341368060
v -3.357890643 1.772062052 4.909085506
v -3.357889326 1.772057233 4.909087291
v -2.906846062 1.514223581 4.909480872
v -3.039226001 1.482611267 4.956439729
v -2.804587194 1.299323463 4.978214351
v -0.996383897 0.764379390 4.760977299
v 0.837530814 1.274534402 4.078749813
v 0.912548573 1.295402704 4.050842748
v 1.569715701 1.478212243 3.806372557
v 1.569711299 1.478229915 3.806365904
v 1.569733550 1.478217256 3.806365897
v 1.951628833 1.584452134 3.664298537
v 4.979521634 2.426745768 2.537903899
v 4.984211918 2.423973176 2.537948116
v 4.986967796 2.428817128 2.535133881
v 5.599993633 2.599347525 2.307084521
v 2.137281516 4.569394225 2.308175392
v 0.950708534 5.222540472 2.318172752
v 0.943554559 5.248543334 2.308551457
v 0.643341008 5.419344341 2.308646034
v 0.615810968 5.406884033 2.320994401
v 0.591286542 5.395784039 2.331994646
v 0.584163516 5.424304313 2.321261036
v -1.305317570 1.896668403 4.341374043
v -1.305330844 1.896665233 4.341378751
v -5.417866300 8.573008227 2.307257393
v -5.467869008 8.556803724 2.289500861
v -7.274779483 5.380832922 2.296544006
v -8.940974060 5.674831480 1.496014396
v -4.262578337 3.198970084 4.157057511
v -4.262562157 3.198894821 4.157083417
v -9.219724863 5.184876707 1.497100937
v -9.203384161 5.113566089 1.522087709
v -7.670095159 4.237079303 2.410503861
v -8.052421630 4.146491418 2.266392856
v -7.554209766 3.841365775 2.560156844
v -8.832026582 3.492967722 2.089934877
v -8.832004445 3.492871120 2.089968726
v -8.341586879 1.352696847 2.839871917
v -8.341574881 1.352644488 2.839890263
v -9.215094232 3.388523938 1.948970365
v -10.430216421 3.057219639 1.501819304
v -10.444408629 3.032274274 1.501874624
v -9.059289015 2.244235814 2.303499834
v -10.427427825 -0.160514711 2.308832693
v -8.137276454 0.461089481 3.152285358
v -3.922532019 1.617181005 4.701525850
v -3.918872961 1.600160210 4.707384586
v -3.902418652 1.604857192 4.713386819
v -3.643082977 1.678886132 4.807987772
v -3.384854959 1.752598884 4.902184672
v -3.343731200 1.720475112 4.928170156
v -4.119740290 4.064791256 4.002550904
v -4.327693348 4.502069233 3.802323131
v -5.321990904 8.813210781 2.288932244
v -5.417825963 8.572984342 2.307280972
v -5.417858878 8.572973700 2.307269278
v -4.262549921 3.198900359 4.157087368
v -4.419891442 4.695940850 3.713550122
v -0.688670916 -0.363375428 4.647124773
v -0.688686153 -0.363379750 4.647130498
v 2.757427949 -3.277316442 2.401836507
v 0.551494116 -4.534115256 3.076624293
v 0.528805693 -4.605389516 3.069314861
v 1.171064380 -6.550101117 2.308547034
v 1.151779528 -6.788445813 2.258920857
v 2.085696091 -5.146919142 2.244187213
v 3.327314671 -5.853315314 1.519103634
v 3.389819686 -5.809375068 1.502017653
v 3.889245015 -5.458285283 1.365497853
v 4.687305363 -4.897258801 1.147345044
v 6.419487140 -5.882751928 0.135781121
v 8.014534138 -6.801499773 -0.798452082
v 8.208032789 -6.461391022 -0.801504753
v 7.717039701 -6.174568063 -0.512946242
v 3.391044929 -3.647455862 2.029457390
v 4.240402691 -3.382144871 1.716255506
v 3.750197024 -3.081922556 2.007735983
v 3.736575694 -3.105864499 2.007950875
v 3.487213386 -3.055623613 2.131196372
v 3.248192801 -3.128225049 2.219838796
v 2.881247314 -1.794472405 2.708873145
v 2.257603399 0.472313132 3.540013759
v 2.757401191 -3.277300811 2.401852232
v 2.757422388 -3.277294344 2.401844378
v 3.391026179 -3.647387711 2.029482379
v 2.256653772 0.475764780 3.541279342
v 2.198333915 0.508590780 3.575250663
v 2.257600483 0.472323730 3.540017645
v 2.257613261 0.472315969 3.540010063
v 2.261049438 0.473290574 3.538718853
v -3.643082977 1.678886132 4.603550770
v 1.742180869 0.787724974 3.548793838
v -0.536495144 0.159240159 4.397891921
v 0.024083407 -0.161208023 4.379299655
v 1.849830023 0.356651280 3.693248509
v 2.198333915 0.508590780 3.541027271
v 2.256653772 0.475764780 3.538887985
v 3.483077168 -0.214541683 3.493900392
v 3.740628782 0.238151694 3.245049462
v 6.609897497 -1.400840893 3.149409472
v 5.933645055 1.514994714 2.158694942
v 6.982853389 1.812594770 1.764439477
v 6.484989110 2.095845542 1.781491526
v 6.228499922 2.025102901 1.877066534
v 5.840178560 1.917999443 2.021765877
v 5.840183483 1.917978216 2.021773090
v 5.840157432 1.917993616 2.021773751
v 4.483452960 1.543799060 2.527319585
v 2.441073702 0.980487583 3.288366922
v 4.056197162 -0.628293352 3.509394864
v 4.864675274 -1.123026180 3.495629530
v 4.879617173 -1.096763100 3.481192403
v 4.984211918 2.423973176 2.535069988
v 2.057484058 1.199602851 3.516403057
v 2.057507707 1.199609606 3.516394306
v -0.885773645 0.358901136 4.605563387
v -0.885754741 0.358906556 4.605556397
v -0.885749459 0.358887310 4.605549007
v -1.134090015 -0.005583294 4.620577970
v -0.817819767 -0.252637365 4.415186101
v -0.808121069 -0.290219192 4.401029788
v -0.688690660 -0.363363336 4.328745917
v -0.688670928 -0.363375367 4.328733988
v 0.024083407 -0.161208023 4.064605153
v 1.715492007 0.780363882 3.558750719
v 1.742168456 0.787721553 3.548810391
v 1.742165264 0.787734524 3.548815208
v 2.140594103 0.897611885 3.400346790
v 2.057514324 1.199585585 3.516385072
v 6.823459182 -2.321666794 0.474100316
v 7.537766961 -5.401587731 -0.650222202
v 8.261933214 -5.845097228 -1.088515433
v 8.354603195 -6.203767118 -1.223667370
v 8.481986922 -5.979867261 -1.221700388
v 8.904341119 -5.237503642 -1.215178654
v 9.597484637 -4.019178992 -1.204475558
v 9.753945084 -3.744171558 -1.202059592
v 9.988981906 -3.331051984 -1.198430298
v 11.179594482 -1.238335810 -1.180045590
v 11.153960609 -1.223182725 -1.164674013
v 10.599362303 -0.895340119 -0.832104266
v 7.417105118 -1.861936538 0.330407092
v 7.246210725 -1.913844947 0.392836576
v 6.762924082 -2.060641108 0.569386169
v 6.762921244 -2.060641970 0.569387206
v 3.131146006 -2.702789996 2.375840543
v 3.487213348 -3.055623619 2.311042532
v 3.736575694 -3.105864499 2.351344903
v 3.750197000 -3.081922598 2.365161609
v 4.240402691 -3.382144871 2.356705365
v 5.157600174 -3.095722935 2.710041418
v 4.532192420 -2.738215895 2.709722990
v 4.089663345 -2.485249318 2.709497674
v 3.456472900 -0.261303479 3.519606530
v 3.483077168 -0.214541683 3.546592442
v 2.261049502 0.473290594 3.541301938
v 2.784425117 -1.442548573 2.837918074
v 6.518315457 -2.134939886 0.658739011
v 6.823459182 -2.321666794 0.660668058
v 11.179594482 -1.238335810 -0.833335622
v 11.195616348 -1.210174493 -0.848642839
v 11.464674911 -0.737255579 -1.105700144
v 11.344641642 -0.668964846 -1.104364211
v 6.982853389 1.812594770 -1.055818850
v 6.331164935 1.627748239 -0.823067880
v 6.331166906 1.627740610 -0.823065260
v 5.933645055 1.514994714 -0.681093387
v 6.609897497 -1.400840893 0.338635820
v 3.740628782 0.238151694 0.367901547
v 3.483077168 -0.214541683 0.613965166
v 3.456472907 -0.261303467 0.588638299
v 4.056197162 -0.628293352 0.568238210
v 4.879617173 -1.096763100 0.554966066
v 4.864675274 -1.123026180 0.540737204
v 4.089663345 -2.485249318 -0.197290711
v 4.532192420 -2.738215895 -0.204922073
v 5.157600174 -3.095722935 -0.215707156
v 3.391026179 -3.647387711 -0.835183180
v 3.391044922 -3.647455816 -0.835207390
v 7.717039701 -6.174568063 -0.932371411
v 8.208032789 -6.461391022 -0.943399361
v 8.354603195 -6.203767118 -0.803823378
v 8.261933214 -5.845097228 -0.674986419
v 6.878355513 -2.558366383 0.387701860
v 6.518315457 -2.134939886 0.484487359
v 7.285028866 -4.311842703 -0.252394414
v 0.591286516 5.395784078 2.310961487
v 0.643341008 5.419344341 2.332255603
v 0.575805997 5.457767150 2.333344153
v 0.407098845 5.553749997 2.336063429
v 0.943554559 5.248543334 2.327416666
v -10.084411140 3.665034741 1.852592792
v -10.430216421 3.057219639 1.802697692
v -9.215094232 3.388523938 2.225019669
v -8.341595644 1.352692880 2.839868960
v -8.832004445 3.492871120 2.358178547
v -8.832026572 3.492967690 2.358156812
v -7.554209766 3.841365775 2.802268622
v -8.052421630 4.146491418 2.568754116
v -7.670095159 4.237079303 2.703502563
v -9.203384136 5.113566041 1.993405545
v -9.219724863 5.184876707 1.977355513
v -9.246329073 5.138115013 1.973516880
v -9.356207427 4.944984002 1.957662895
v -9.656469070 4.417220053 1.914339137
v -9.845517202 4.084933891 1.887062007
v -3.343731156 1.720475137 4.713081567
v -3.357889307 1.772057185 4.700571976
v -8.137262135 0.461081137 -4.696850200
v -8.137273813 0.461078001 -4.696850200
v -10.277407967 -0.245865764 2.313627781
v -10.419605237 -0.164965229 -4.696850200
v -10.277407967 -0.245865764 -4.696850200
v -10.229516344 -0.273112826 2.313725660
v -10.229516344 -0.273112826 -4.696850200
v -8.422237721 -1.301330930 2.317419315
v -8.422237721 -1.301330930 -4.696850200
v -7.845973725 -1.629185786 2.318597063
v -7.845973725 -1.629185786 -4.696850200
v -7.630157209 -1.751970644 2.319038142
v -7.630157209 -1.751970644 -4.696850200
v -7.576529021 -1.782481421 2.319147745
v -7.576529021 -1.782481421 -4.696850200
v -6.978970201 -2.122451577 -4.696850200
v -4.651128503 -3.458330342 -4.696850200
v -4.308967009 -3.654686623 -4.696850200
v -1.789688144 -5.100425439 -4.696850200
v -1.603722990 -5.207145251 -4.696850200
v -1.412068415 -5.317130143 -4.696850200
v -0.602613497 -5.781652055 -4.696850200
v 1.048094017 -6.728943745 -4.696850200
v 0.528805684 -4.605389533 -4.696850200
v 0.457297163 -4.563583281 -4.696850200
v 0.457284024 -4.563535193 -4.696850200
v 0.551494137 -4.534115268 3.147542308
v 0.551494137 -4.534115268 3.076624281
v -0.688686164 -0.363379700 -4.696850200
v -0.688690660 -0.363363336 -4.696850200
v -0.808121037 -0.290219195 -4.696850200
v -1.260800262 0.093396349 -4.696850200
v -1.297406406 0.241323748 -4.696850200
v -1.399118254 0.652347437 -4.696850200
v -2.058057771 1.029023696 -4.696850200
v -2.114419484 1.061242219 -4.696850200
v -2.364421241 1.204152762 -4.696850200
v -3.343731156 1.720475137 4.890230030
v -3.516631701 1.368606858 -4.696850200
v -3.516619900 1.368578054 -4.696850200
v -3.516657104 1.368600831 -4.696850200
v -3.918872923 1.600160190 -4.696850200
v -3.922530661 1.617174640 -4.696850200
v -3.922538248 1.617179302 -4.696850200
v -2.181407584 -0.011179188 -4.696850200
v -2.181384718 -0.011129494 -4.696850200
v -2.181366736 -0.011167452 -4.696850200
v -3.806215953 3.405440662 -4.696850200
v -3.357890637 1.772062006 -4.696850200
v -3.357889326 1.772057233 -4.696850200
v 1.569715723 1.478212211 -4.696850200
v 1.569711299 1.478229915 -4.696850200
v 1.569733550 1.478217256 -4.696850200
v 5.210167989 2.821131692 2.307207329
v 5.599993633 2.599347525 -4.696850200
v 5.210167989 2.821131692 -4.696850200
v 4.428430677 3.265886832 2.307453603
v 4.428430677 3.265886832 -4.696850200
v 3.667119011 3.699021174 2.307693442
v 3.667119011 3.699021174 -4.696850200
v 2.137281516 4.569394225 -4.696850200
v 0.943554559 5.248543334 -4.696850200
v 0.643341008 5.419344341 -4.696850200
v 0.591286542 5.395784039 -4.696850200
v 0.584163516 5.424304313 -4.696850200
v 0.380849716 5.568683959 2.308728728
v 0.407098845 5.553749997 -4.696850200
v 0.380849716 5.568683959 -4.696850200
v 0.224832541 5.657447076 2.308777879
v 0.224832541 5.657447076 -4.696850200
v 0.178853106 5.683606234 2.308792364
v 0.178853106 5.683606234 -4.696850200
v -0.137440210 5.863555529 2.308892007
v -0.137440210 5.863555529 -4.696850200
v -0.333874091 5.975312991 2.308953890
v -0.333874091 5.975312991 -4.696850200
v -2.801118404 7.379006498 2.309731156
v -2.801118404 7.379006498 -4.696850200
v -3.106720849 7.552873417 2.309827431
v -3.106720849 7.552873417 -4.696850200
v -5.087487094 8.679794129 2.310451439
v -5.087487094 8.679794129 -4.696850200
v -5.284703234 8.791996644 -4.696850200
v -5.240346358 8.630391755 -4.696850200
v -5.240320955 8.630377762 -4.696850200
v -5.240340738 8.630371300 -4.696850200
v -4.178494323 4.761758008 -4.696850200
v -4.178487729 4.761734007 -4.696850200
v -4.178518275 4.761751501 -4.696850200
v -4.327693394 4.502069253 -4.696850200
v -4.062708448 4.339916797 -4.696850200
v -1.783096676 2.204027757 -4.696850200
v -1.783064444 2.204036686 -4.696850200
v -1.783088577 2.203995077 -4.696850200
v -1.305317570 1.896668370 -4.696850200
v -1.305330861 1.896665232 -4.696850200
v -1.305321942 1.896684549 -4.696850200
v -1.416578023 2.304563816 -4.696850200
v -1.416598025 2.304528255 -4.696850200
v -1.416605706 2.304556210 -4.696850200
v -10.444408629 3.032274274 -4.696850200
v -9.059289015 2.244235814 -4.696850200
v -9.590433662 1.310653373 2.305570179
v -9.590433662 1.310653373 -4.696850200
v -9.991326471 0.606012014 2.307132816
v -9.991326471 0.606012014 -4.696850200
v -10.427427825 -0.160514711 -4.696850200
v -8.137276464 0.461089519 -4.696850200
v -3.922531975 1.617181025 -4.696850200
v -3.806268108 3.405630486 -4.696850200
v -5.321990904 8.813210781 -4.696850200
v -5.381726751 8.708214264 2.289165088
v -5.381726751 8.708214264 -4.696850200
v -5.429050597 8.625034077 2.289349551
v -5.429050597 8.625034077 -4.696850200
v -5.448385627 8.591049277 2.289424917
v -5.448385627 8.591049277 -4.696850200
v -5.467869008 8.556803724 -4.696850200
v -5.897146233 7.802271635 2.291174138
v -5.897146233 7.802271635 -4.696850200
v -6.037832066 7.554990931 2.291722517
v -6.037832066 7.554990931 -4.696850200
v -6.781167541 6.248444869 2.294619959
v -6.781167541 6.248444869 -4.696850200
v -6.884567918 6.066700071 2.295023003
v -6.884567918 6.066700071 -4.696850200
v -7.076632513 5.729111932 2.295771650
v -7.076632513 5.729111932 -4.696850200
v -7.274779483 5.380832922 -4.696850200
v -8.940974060 5.674831480 -4.696850200
v -9.219724863 5.184876707 -4.696850200
v -9.203384161 5.113566089 -4.696850200
v -8.341586915 1.352696882 -4.696850200
v -8.341574859 1.352644463 -4.696850200
v -8.341595639 1.352692872 -4.696850200
v -9.215094196 3.388523909 2.225019687
v -9.215094196 3.388523909 1.948970388
v -10.430216421 3.057219639 -4.696850200
v -4.262562115 3.198894815 -4.696850200
v -4.262578320 3.198970074 -4.696850200
v -4.262549908 3.198900295 -4.696850200
v -5.417866321 8.573008224 -4.696850200
v -5.417825953 8.572984336 -4.696850200
v -5.417858901 8.572973743 -4.696850200
v 1.151779528 -6.788445813 -4.696850200
v 1.928296090 -5.423578011 2.246670385
v 1.928296090 -5.423578011 -4.696850200
v 2.085696091 -5.146919142 -4.696850200
v 3.327314671 -5.853315314 -4.696850200
v 3.389819653 -5.809375033 -4.696850200
v 3.889245035 -5.458285307 -4.696850200
v 4.687305363 -4.897258801 -4.696850200
v 6.419487140 -5.882751928 -4.696850200
v 8.014534138 -6.801499773 -4.696850200
v 8.208032789 -6.461391022 -4.696850200
v 4.240402719 -3.382144868 -0.537336387
v -0.688670928 -0.363375367 -4.696850200
v 2.757422388 -3.277294344 -4.696850200
v 2.757427961 -3.277316498 -4.696850200
v 2.757401215 -3.277300821 -4.696850200
v 2.257600508 0.472323685 -4.696850200
v 2.257613261 0.472315969 -4.696850200
v 2.256653802 0.475764813 -4.696850200
v 1.742180865 0.787724962 -4.696850200
v 1.742168456 0.787721553 -4.696850200
v 2.257603393 0.472313184 -4.696850200
v 6.331157517 1.627746164 2.009323776
v 6.331157517 1.627746164 -4.696850200
v 6.982853389 1.812594770 -4.696850200
v 6.484989110 2.095845542 -4.696850200
v 5.840178545 1.917999428 -4.696850200
v 5.840183497 1.917978202 -4.696850200
v 5.840157408 1.917993620 -4.696850200
v -1.134090015 -0.005583294 -4.696850200
v 1.742165256 0.787734533 -4.696850200
v 6.162872312 2.279108000 1.972801133
v 6.162872312 2.279108000 -4.696850200
v 6.053877583 2.341118557 2.037527019
v 6.053877583 2.341118557 -4.696850200
v 5.694646950 2.545496252 2.250854045
v 5.694646950 2.545496252 -4.696850200
v 4.979521645 2.426745713 -4.696850200
v -0.885773708 0.358901124 -4.696850200
v -0.885754741 0.358906556 -4.696850200
v -0.885749458 0.358887328 -4.696850200
v 2.057484076 1.199602794 -4.696850200
v 2.057507729 1.199609586 -4.696850200
v 2.057514324 1.199585585 -4.696850200
v 8.354603195 -6.203767118 -4.696850200
v 8.481986922 -5.979867261 -4.696850200
v 8.904341119 -5.237503642 -4.696850200
v 9.597484637 -4.019178992 -4.696850200
v 9.753945084 -3.744171558 -4.696850200
v 9.988981906 -3.331051984 -4.696850200
v 11.179594482 -1.238335810 -4.696850200
v 11.153960600 -1.223182723 -0.833281321
v 6.762924072 -2.060641149 -4.696850200
v 6.762921209 -2.060641936 -4.696850200
v 3.487213348 -3.055623619 -4.696850200
v 3.750197000 -3.081922598 -4.696850200
v 7.417105072 -1.861936554 -4.696850200
v 11.195616348 -1.210174493 -4.696850200
v 11.464674911 -0.737255579 -4.696850200
v 11.344641642 -0.668964846 -4.696850200
v 6.331166892 1.627740600 -4.696850200
v 4.864675299 -1.123026137 -4.696850200
v 3.391044922 -3.647455816 -4.696850200
v 3.456472907 -0.261303467 -4.696850200
v 0.615810965 5.406883997 -4.696850200
v 0.575805997 5.457767150 -4.696850200
v 0.950708514 5.222540508 -4.696850200
v -9.656469070 4.417220053 -4.696850200
v -9.845517202 4.084933891 -4.696850200
v -10.084411140 3.665034741 -4.696850200
v -8.832026572 3.492967690 -4.696850200
v -9.246329073 5.138115013 -4.696850200
v -9.356207427 4.944984002 -4.696850200
v -3.343731156 1.720475137 -4.696850200
g roof
f 1 2 3
g roof
f 1 3 4
g roof
f 4 312 5 6
g roof
f 7 8 9
g roof
f 9 10 11
g roof
f 9 11 12
g roof
f 14 15 16
g roof
f 14 15 16 17
g roof
f 14 15 16 17 18
g roof
f 18 19 20
g roof
f 21 323 22 23
g roof
f 21 23 24
g roof
f 21 24 25
g roof
f 26 27 28
g roof
f 28 29 30
g roof
f 28 30 31
g roof
f 28 31 32
g roof
f 32 31 33
g roof
f 32 33 34
g roof
f 32 34 35
g roof
f 32 35 36
g roof
f 32 36 288 291 293 295 297 299 37
g roof
f 32 37 38
g roof
f 32 38 39
g roof
f 39 40 41
g roof
f 41 42 43
g roof
f 41 42 43 44
g roof
f 41 42 43 44 45
g roof
f 45 46 47
g roof
f 48 1 3 4
g roof
f 4 6 49 7
g roof
f 4 6 49 7 9
g roof
f 4 9 12
g roof
f 12 13 14
g roof
f 12 13 14 15 16 17 18
g roof
f 12 18 20
g roof
f 12 20 21 25
g roof
f 25 26 28
g roof
f 25 26 28 32
g roof
f 39 40 41 45
g roof
f 39 45 47 48
g roof
f 39 48 1 3 4
g roof
f 39 4 12
g roof
f 12 25 32
g roof
f 12 32 50
g roof
f 12 50 51
g roof
f 51 32 39
g roof
f 51 39 12
g roof
f 52 53 351 354 356 358 360 362 364 366 54
g roof
f 54 55 56
g roof
f 57 58 59
g roof
f 57 58 59 60
g roof
f 61 62 63
g roof
f 61 63 64
g roof
f 61 64 65
g roof
f 66 67 68
g roof
f 66 68 69
g roof
f 70 68 67
g roof
f 70 67 71
g roof
f 70 71 72
g roof
f 72 73 74
g roof
f 75 73 72
g roof
f 75 72 76
g roof
f 76 72 77
g roof
f 76 77 78
g roof
f 76 78 79
g roof
f 79 80 81
g roof
f 79 81 19
g roof
f 15 14 82
g roof
f 15 82 83
g roof
f 15 83 84
g roof
f 15 84 85
g roof
f 15 85 86
g roof
f 87 88 89
g roof
f 89 90 91
g roof
f 91 92 339 342 344 93
g roof
f 91 93 94
g roof
f 94 95 96
g roof
f 94 96 97
g roof
f 94 97 98
g roof
f 98 99 52
g roof
f 98 52 54
g roof
f 98 54 56
g roof
f 98 56 57
g roof
f 98 57 58 59 60
g roof
f 98 60 61
g roof
f 65 66 69
g roof
f 70 72 74
g roof
f 70 74 75
g roof
f 70 75 76
g roof
f 76 79 19
g roof
f 76 19 18
g roof
f 76 18 17 16 15 101
g roof
f 86 87 88 89
g roof
f 86 89 91
g roof
f 86 89 91 94
g roof
f 86 94 98
g roof
f 86 98 61
g roof
f 86 61 65
g roof
f 86 65 69
g roof
f 86 69 70
g roof
f 86 70 76
g roof
f 86 76 100
g roof
f 86 100 101
g roof
f 101 15 86
g roof
f 102 103 404 406 408 410 412 104
g roof
f 104 105 106
g roof
f 107 106 105
g roof
f 107 105 108
g roof
f 107 108 109
g roof
f 107 109 110
g roof
f 107 110 111
g roof
f 107 111 112
g roof
f 107 112 113
g roof
f 107 113 114
g roof
f 107 114 115
g roof
f 107 115 116
g roof
f 422 117 118 119
g roof
f 422 117 119 120
g roof
f 120 388 390 121 36
g roof
f 120 36 35
g roof
f 120 35 122
g roof
f 120 122 34
g roof
f 120 34 33
g roof
f 123 124 125
g roof
f 123 125 126
g roof
f 123 126 127
g roof
f 127 128 78
g roof
f 127 78 77
g roof
f 77 72 71
g roof
f 129 66 65
g roof
f 129 65 130
g roof
f 62 60 59
g roof
f 62 59 58
g roof
f 62 58 57
g roof
f 57 55 54 131
g roof
f 131 397 399 401 103 102
g roof
f 131 102 132
g roof
f 133 102 104
g roof
f 133 104 106
g roof
f 133 106 134
g roof
f 116 272 117 422 120
g roof
f 116 120 33
g roof
f 116 33 123
g roof
f 116 123 127
g roof
f 116 127 77
g roof
f 77 72 71 129
g roof
f 77 129 130
g roof
f 77 130 135
g roof
f 135 62 58 57
g roof
f 135 57 131
g roof
f 135 131 132
g roof
f 135 132 133
g roof
f 135 133 134
g roof
f 107 116 77
g roof
f 77 135 134
g roof
f 77 134 107
g roof
f 136 137 7
g roof
f 138 160 7 49
g roof
f 138 49 6
g roof
f 138 6 139 313
g roof
f 139 4 3
g roof
f 139 3 140
g roof
f 140 1 48
g roof
f 140 48 47
g roof
f 140 47 141
g roof
f 141 45 44
g roof
f 141 44 142
g roof
f 141 142 431 143
g roof
f 143 144 145
g roof
f 143 145 146
g roof
f 143 146 147
g roof
f 148 149 150
g roof
f 148 150 151
g roof
f 148 151 152
g roof
f 153 154 155
g roof
f 153 155 156
g roof
f 153 156 157
g roof
f 158 159 136
g roof
f 158 136 7
g roof
f 158 7 160
g roof
f 158 160 161
g roof
f 158 161 138
g roof
f 138 139 313 140
g roof
f 138 140 141
g roof
f 138 141 143
g roof
f 138 143 147
g roof
f 138 147 148
g roof
f 138 148 152
g roof
f 138 152 162
g roof
f 138 162 153
g roof
f 138 153 157
g roof
f 138 157 158
g roof
f 163 164 165
g roof
f 163 165 166
g roof
f 166 167 163
g roof
f 168 27 26
g roof
f 168 26 24
g roof
f 169 170 171
g roof
f 169 171 172
g roof
f 169 172 159
g roof
f 169 159 165 173
g roof
f 169 173 174
g roof
f 169 174 167
g roof
f 169 167 175
g roof
f 169 175 176
g roof
f 176 177 178
g roof
f 178 452 179 180
g roof
f 178 180 181
g roof
f 178 181 182 183
g roof
f 178 183 184
g roof
f 178 184 185
g roof
f 178 185 186
g roof
f 178 186 169
g roof
f 178 169 176
g roof
f 187 188 189
g roof
f 181 180 463 92
g roof
f 181 92 91
g roof
f 181 91 190
g roof
f 89 88 87
g roof
f 89 88 87 85
g roof
f 85 84 191
g roof
f 85 191 192
g roof
f 191 84 83
g roof
f 191 83 82
g roof
f 191 82 14
g roof
f 14 193 194
g roof
f 195 193 14
g roof
f 195 193 14 13
g roof
f 195 13 12
g roof
f 195 12 196
g roof
f 195 196 197
g roof
f 195 197 198
g roof
f 195 198 199
g roof
f 195 199 200
g roof
f 200 201 170
g roof
f 170 202 203
g roof
f 204 169 205
g roof
f 204 205 186
g roof
f 204 186 185
g roof
f 204 185 184
g roof
f 182 181 190
g roof
f 190 89 88 87 85
g roof
f 190 87 85 192
g roof
f 190 192 206
g roof
f 206 191 14
g roof
f 206 14 194
g roof
f 206 194 195
g roof
f 195 200 170
g roof
f 195 170 202 203
g roof
f 195 203 204
g roof
f 195 204 184
g roof
f 195 184 182
g roof
f 182 190 206 184
g roof
f 182 184 206 195
g roof
f 207 208 209
g roof
f 209 210 211
g roof
f 209 211 212
g roof
f 209 212 213
g roof
f 209 213 214
g roof
f 209 214 215
g roof
f 209 215 216
g roof
f 209 216 217
g roof
f 209 217 218
g roof
f 209 218 219
g roof
f 209 219 220
g roof
f 209 220 221
g roof
f 209 221 222
g roof
f 209 222 207
g roof
f 223 157 224
g roof
f 223 224 225
g roof
f 223 225 226
g roof
f 226 227 228
g roof
f 226 228 229
g roof
f 226 229 230
g roof
f 230 188 187
g roof
f 230 187 231
g roof
f 231 232 233
g roof
f 231 233 166
g roof
f 231 166 159
g roof
f 231 159 234
g roof
f 231 234 223
g roof
f 231 223 226
g roof
f 231 226 230
g roof
f 222 235 236
g roof
f 222 221 220
g roof
f 222 221 220 219
g roof
f 222 221 220 219 218
g roof
f 218 481 237 238
g roof
f 218 238 239
g roof
f 218 239 240
g roof
f 218 240 241
g roof
f 218 241 242
g roof
f 218 242 243
g roof
f 218 242 244
g roof
f 218 244 245
g roof
f 245 246 247
g roof
f 245 247 222
g roof
f 245 222 221 220 219 218
g roof
f 248 249 250
g roof
f 251 252 253
g roof
f 251 253 254
g roof
f 254 441 255 256
g roof
f 254 256 257
g roof
f 254 257 258
g roof
f 254 258 259
g roof
f 259 260 208
g roof
f 261 207 262
g roof
f 222 247 248
g roof
f 222 248 250
g roof
f 222 250 251
g roof
f 254 259 208
g roof
f 254 208 263
g roof
f 254 263 261
g roof
f 254 261 262
g roof
f 262 222 251
g roof
f 262 251 254
g roof
f 99 264 97
g roof
f 99 97 265
g roof
f 99 265 266
g roof
f 99 266 267
g roof
f 99 267 52
g roof
f 94 93 268
g roof
f 269 270 421 271
g roof
f 271 421 272 115
g roof
f 271 421 115 273
g roof
f 271 421 273 274
g roof
f 274 275 276
g roof
f 276 277 278
g roof
f 278 279 280
g roof
f 278 280 281
g roof
f 278 281 282
g roof
f 278 282 283
g roof
f 278 283 269
g roof
f 278 269 421 271
g roof
f 278 271 421 274
g roof
f 278 274 276
g roof
f 284 21 79
g roof
f 284 79 285
g facade_completed
f 35 34 286 287
g facade_completed
f 288 36 289 290
g facade_completed
f 291 288 290 292
g facade_completed
f 293 291 292 294
g facade_completed
f 295 293 294 296
g facade_completed
f 297 295 296 298
g facade_completed
f 299 297 298 300
g facade_completed
f 37 299 300 301
g facade_completed
f 38 37 301 302
g facade_completed
f 39 38 302 303
g facade_completed
f 40 39 303 304
g facade_completed
f 41 40 304 305
g facade_completed
f 42 41 305 306
g facade_completed
f 43 42 306 307
g facade_completed
f 44 43 307 308
g roof_step_or_fixture_side
f 46 45 141
g roof_step_or_fixture_side
f 47 46 141
g roof_step_or_fixture_side
f 2 1 140
g roof_step_or_fixture_side
f 3 2 140
g roof_step_or_fixture_side
f 312 5 4 139 313
g roof_step_or_fixture_side
f 6 312 5 139 313
g facade_completed
f 8 137 314 315 199
g roof_step_or_fixture_side
f 9 8 199 198
g roof_step_or_fixture_side
f 10 9 198 197
g roof_step_or_fixture_side
f 11 10 197 196
g roof_step_or_fixture_side
f 12 11 196
g roof_step_or_fixture_side
f 19 81 20
g roof_step_or_fixture_side
f 81 80 21 20
g roof_step_or_fixture_side
f 323 21 284
g roof_step_or_fixture_side
f 128 127 22 323
g roof_step_or_fixture_side
f 127 126 23 22
g roof_step_or_fixture_side
f 24 23 168
g facade_completed
f 25 24 324 325
g facade_completed
f 26 25 325 326
g roof_step_or_fixture_side
f 125 124 28 27
g roof_step_or_fixture_side
f 124 29 28
g facade_completed
f 30 29 328 329
g facade_completed
f 32 51 330 331
g facade_completed
f 50 32 331 332
g facade_completed
f 51 50 332 330
g roof_step_or_fixture_side
f 67 66 129
g roof_step_or_fixture_side
f 71 67 129
g facade_completed
f 78 77 334 335 285
g roof_step_or_fixture_side
f 79 78 285
g roof_step_or_fixture_side
f 80 79 21
g facade_completed
f 86 85 336 337
g facade_completed
f 87 86 337 338
g roof_step_or_fixture_side
f 90 89 190
g roof_step_or_fixture_side
f 91 90 190
g facade_completed
f 339 92 340 341
g facade_completed
f 342 339 341 343
g facade_completed
f 344 342 343 345
g facade_completed
f 93 344 345 346
g roof_step_or_fixture_side
f 94 268 95
g facade_completed
f 96 95 347 348
g roof_step_or_fixture_side
f 265 97 96
g roof_step_or_fixture_side
f 98 97 264
g roof_step_or_fixture_side
f 99 98 264
g roof_step_or_fixture_side
f 52 267 53
g facade_completed
f 351 53 352 353
g facade_completed
f 354 351 353 355
g facade_completed
f 356 354 355 357
g facade_completed
f 358 356 357 359
g facade_completed
f 360 358 359 361
g facade_completed
f 362 360 361 363
g facade_completed
f 364 362 363 365
g facade_completed
f 366 364 365 367
g facade_completed
f 54 366 367 368
g facade_completed
f 56 55 369 370
g facade_completed
f 57 56 370 371
g facade_completed
f 61 60 372 373
g facade_completed
f 62 61 373 374
g roof_step_or_fixture_side
f 63 62 135
g roof_step_or_fixture_side
f 64 63 135 130
g roof_step_or_fixture_side
f 65 64 130
g facade_completed
f 74 73 377 378
g facade_completed
f 75 74 378 379
g facade_completed
f 73 75 379 377
g facade_completed
f 101 100 380 381
g facade_completed
f 76 101 381 382
g facade_completed
f 100 76 382 380
g facade_completed
f 70 69 383 384
g facade_completed
f 68 70 384 385
g facade_completed
f 69 68 385 383
g facade_completed
f 120 119 386 387
g facade_completed
f 388 120 387 389
g facade_completed
f 390 388 389 391
g facade_completed
f 121 390 391 392
g facade_completed
f 36 121 392 289
g facade_completed
f 122 35 287 393
g facade_completed
f 34 122 393 286
g facade_completed
f 123 30 329 394
g facade_completed
f 29 123 394 328
g roof_step_or_fixture_side
f 126 125 27 168 23
g roof_step_or_fixture_side
f 78 128 323 284 285
g facade_completed
f 77 78 285 335 334
g facade_completed
f 60 62 374 372
g facade_completed
f 55 57 371 369
g facade_completed
f 131 54 368 396
g facade_completed
f 397 131 396 398
g facade_completed
f 399 397 398 400
g facade_completed
f 401 399 400 402
g facade_completed
f 103 401 402 403
g facade_completed
f 404 103 403 405
g facade_completed
f 406 404 405 407
g facade_completed
f 408 406 407 409
g facade_completed
f 410 408 409 411
g facade_completed
f 412 410 411 413
g facade_completed
f 104 412 413 414
g facade_completed
f 105 104 414 415
g facade_completed
f 108 105 415 416
g roof_step_or_fixture_side
f 279 278 109 108
g roof_step_or_fixture_side
f 278 277 110 109
g roof_step_or_fixture_side
f 277 276 111 110
g roof_step_or_fixture_side
f 276 275 112 111
g roof_step_or_fixture_side
f 275 274 113 112
g roof_step_or_fixture_side
f 274 273 114 113
g roof_step_or_fixture_side
f 273 115 114
g facade_completed
f 116 115 418 419
g facade_completed
f 272 116 419 420
g roof_step_or_fixture_side
f 272 421 271 117 422
g roof_step_or_fixture_side
f 421 271 270 118 117 422
g facade_completed
f 119 118 423 386
g facade_completed
f 106 107 424 425
g facade_completed
f 134 106 425 426
g facade_completed
f 107 134 426 424
g facade_completed
f 132 102 427 428
g facade_completed
f 133 132 428 429
g facade_completed
f 102 133 429 427
g facade_completed
f 142 44 308 430
g facade_completed
f 431 142 430 432
g facade_completed
f 143 431 432 433
g facade_completed
f 144 143 433 434
g facade_completed
f 145 144 434 435
g facade_completed
f 146 145 435 436
g facade_completed
f 147 146 436 437
g facade_completed
f 148 147 437 438
g facade_completed
f 149 148 438 439
g facade_completed
f 150 149 439 440 258
g roof_step_or_fixture_side
f 151 150 258 257
g roof_step_or_fixture_side
f 152 151 257 256
g roof_step_or_fixture_side
f 162 152 256 255
g roof_step_or_fixture_side
f 153 162 255 441
g roof_step_or_fixture_side
f 227 226 154 153
g roof_step_or_fixture_side
f 226 225 155 154
g roof_step_or_fixture_side
f 225 224 156 155
g roof_step_or_fixture_side
f 224 157 156
g roof_step_or_fixture_side
f 136 171 201 200
g facade_completed
f 137 136 200 442 314
g facade_completed
f 138 161 443 444
g facade_completed
f 160 138 444 445
g facade_completed
f 161 160 445 443
g roof_step_or_fixture_side
f 165 164 173
g facade_completed
f 166 165 446 447
g roof_step_or_fixture_side
f 166 233 167
g roof_step_or_fixture_side
f 163 167 174
g roof_step_or_fixture_side
f 164 163 174 173
g facade_completed
f 24 26 326 324
g facade_completed
f 203 169 449 450
g roof_step_or_fixture_side
f 171 170 201
g facade_completed
f 165 159 451 446
g roof_step_or_fixture_side
f 233 232 175 167
g roof_step_or_fixture_side
f 176 175 247 246
g roof_step_or_fixture_side
f 177 176 246 245
g roof_step_or_fixture_side
f 178 177 245 244
g roof_step_or_fixture_side
f 452 178 244 242
g roof_step_or_fixture_side
f 179 452 242 241
g facade_completed
f 180 179 241 454 455
g facade_completed
f 183 182 456 457
g facade_completed
f 184 183 457 458
g roof_step_or_fixture_side
f 187 189 250 249
g roof_step_or_fixture_side
f 189 188 251 250
g facade_completed
f 200 199 315 442
g facade_completed
f 204 203 450 460
g facade_completed
f 169 204 460 449
g facade_completed
f 182 184 458 456
g facade_completed
f 461 180 455 462
g facade_completed
f 463 461 462 464
g facade_completed
f 465 463 464 466
g facade_completed
f 92 465 466 340
g facade_completed
f 85 87 338 336
g facade_completed
f 194 193 468 469
g facade_completed
f 195 194 469 470
g facade_completed
f 193 195 470 468
g facade_completed
f 192 191 471 472
g facade_completed
f 206 192 472 473
g facade_completed
f 191 206 473 471
g roof_step_or_fixture_side
f 208 260 209
g roof_step_or_fixture_side
f 260 259 210 209
g facade_completed
f 211 210 474 475
g facade_completed
f 212 211 475 476
g facade_completed
f 213 212 476 477
g facade_completed
f 214 213 477 478
g facade_completed
f 215 214 478 479
g facade_completed
f 216 215 479 480
g roof_step_or_fixture_side
f 237 481 217 216
g roof_step_or_fixture_side
f 481 218 217
g facade_completed
f 222 221 482 483
g roof_step_or_fixture_side
f 222 236 207
g roof_step_or_fixture_side
f 228 227 153 441 254
g roof_step_or_fixture_side
f 229 228 254 253
g roof_step_or_fixture_side
f 230 229 253 252
g roof_step_or_fixture_side
f 188 230 252 251
g roof_step_or_fixture_side
f 231 187 249 248
g roof_step_or_fixture_side
f 232 231 248 247 175
g facade_completed
f 159 166 447 451
g roof_step_or_fixture_side
f 235 222 262
g roof_step_or_fixture_side
f 236 235 262 207
g facade_completed
f 238 237 216 480 487
g facade_completed
f 239 238 487 488
g facade_completed
f 240 239 488 489
g facade_completed
f 241 240 489 454
g facade_completed
f 243 242 453 490
g facade_completed
f 242 243 490 453
g facade_completed
f 221 222 483 482
g facade_completed
f 259 258 440 474 210
g facade_completed
f 266 265 96 348 495
g facade_completed
f 267 266 495 352 53
g facade_completed
f 268 93 346 347 95
g facade_completed
f 283 282 497 498
g facade_completed
f 269 283 498 499
g facade_completed
f 270 269 499 423 118
g facade_completed
f 115 272 420 418
g facade_completed
f 280 279 108 416 501
g facade_completed
f 281 280 501 502
g facade_completed
f 282 281 502 497
g ground_assumed
f 414 416 415
g ground_assumed
f 414 501 416
g ground_assumed
f 414 502 501
g ground_assumed
f 414 497 502
g ground_assumed
f 414 498 497
g ground_assumed
f 414 499 498
g ground_assumed
f 414 423 499
g ground_assumed
f 414 386 423
g ground_assumed
f 414 387 386
g ground_assumed
f 391 289 392
g ground_assumed
f 391 290 289
g ground_assumed
f 391 292 290
g ground_assumed
f 391 294 292
g ground_assumed
f 391 296 294
g ground_assumed
f 391 298 296
g ground_assumed
f 391 300 298
g ground_assumed
f 391 301 300
g ground_assumed
f 391 302 301
g ground_assumed
f 391 303 302
g ground_assumed
f 391 304 303
g ground_assumed
f 391 305 304
g ground_assumed
f 391 306 305
g ground_assumed
f 391 307 306
g ground_assumed
f 391 308 307
g ground_assumed
f 391 430 308
g ground_assumed
f 391 432 430
g ground_assumed
f 391 433 432
g ground_assumed
f 433 435 434
g ground_assumed
f 433 436 435
g ground_assumed
f 433 437 436
g ground_assumed
f 438 440 439
g ground_assumed
f 438 474 440
g ground_assumed
f 438 475 474
g ground_assumed
f 438 476 475
g ground_assumed
f 438 477 476
g ground_assumed
f 438 478 477
g ground_assumed
f 438 479 478
g ground_assumed
f 438 480 479
g ground_assumed
f 438 487 480
g ground_assumed
f 438 488 487
g ground_assumed
f 438 489 488
g ground_assumed
f 438 454 489
g ground_assumed
f 438 455 454
g ground_assumed
f 438 462 455
g ground_assumed
f 438 464 462
g ground_assumed
f 438 466 464
g ground_assumed
f 438 340 466
g ground_assumed
f 438 341 340
g ground_assumed
f 438 343 341
g ground_assumed
f 438 345 343
g ground_assumed
f 438 346 345
g ground_assumed
f 438 347 346
g ground_assumed
f 438 348 347
g ground_assumed
f 438 495 348
g ground_assumed
f 438 352 495
g ground_assumed
f 438 353 352
g ground_assumed
f 438 355 353
g ground_assumed
f 438 357 355
g ground_assumed
f 438 359 357
g ground_assumed
f 438 361 359
g ground_assumed
f 438 363 361
g ground_assumed
f 438 365 363
g ground_assumed
f 438 367 365
g ground_assumed
f 438 368 367
g ground_assumed
f 438 396 368
g ground_assumed
f 438 398 396
g ground_assumed
f 438 400 398
g ground_assumed
f 438 402 400
g ground_assumed
f 438 403 402
g ground_assumed
f 438 405 403
g ground_assumed
f 438 407 405
g ground_assumed
f 438 409 407
g ground_assumed
f 438 411 409
g ground_assumed
f 438 413 411
g ground_assumed
f 438 414 413
g ground_assumed
f 389 433 391
g ground_assumed
f 389 437 433
g ground_assumed
f 437 414 438
g ground_assumed
f 437 387 414
g ground_assumed
f 437 389 387
