v 2684359.2275090259 1252705.3805415165 428.46562405197119
v 2684354.0930685913 1252708.4291155252 428.44403486337893
v 2684351.1093140808 1252703.4038447649 428.44185987521621
v 2684356.2437545117 1252700.3552707597 428.46344906380847
v 2684359.2275090259 1252705.3805415165 428.33599548204438
v 2684354.0930685913 1252708.4291155252 428.33599548204438
v 2684351.1093140808 1252703.4038447649 428.33599548204438
v 2684356.2437545117 1252700.3552707597 428.33599548204438
l 1 2
l 2 3
l 3 4
l 1 4
l 1 5
l 5 6
l 2 6
l 6 7
l 3 7
l 7 8
l 4 8
l 5 8
