# Source coordinates; no display transform
v 2685884 1245516.125 478.711820974
v 2685886.75 1245518.625 478.707634294
v 2685889 1245522.125 478.704584381
v 2685889 1245522.5 478.704681205
v 2685887.25 1245524.5 478.708272592
v 2685883.75 1245528.25 478.715390816
v 2685882.25 1245529.75 478.718413816
v 2685881.75 1245529.625 478.719260119
v 2685881.25 1245529.375 478.720074143
v 2685875.25 1245523.625 478.729132431
v 2685875.75 1245522.75 478.728027936
v 2685879.5 1245518.75 478.720405877
v 2685881.25 1245517 478.716879041
v 2685882.5 1245515.875 478.714392142
v 2685883.25 1245515.75 478.71304201
v 2685884 1245516.125 475.937498476
v 2685886.75 1245518.625 475.937498476
v 2685889 1245522.125 475.937498476
v 2685889 1245522.5 475.937498476
v 2685887.25 1245524.5 475.937498476
v 2685883.75 1245528.25 475.937498476
v 2685882.25 1245529.75 475.937498476
v 2685881.75 1245529.625 475.937498476
v 2685881.25 1245529.375 475.937498476
v 2685875.25 1245523.625 475.937498476
v 2685875.75 1245522.75 475.937498476
v 2685879.5 1245518.75 475.937498476
v 2685881.25 1245517 475.937498476
v 2685882.5 1245515.875 475.937498476
v 2685883.25 1245515.75 475.937498476
g roof
f 1 2 3 4 5 6 7 8 9 10 11 12 13 14 15
g wall
f 2 1 16 17
g wall
f 3 2 17 18
g wall
f 4 3 18 19
g wall
f 5 4 19 20
g wall
f 6 5 20 21
g wall
f 7 6 21 22
g wall
f 8 7 22 23
g wall
f 9 8 23 24
g wall
f 10 9 24 25
g wall
f 11 10 25 26
g wall
f 12 11 26 27
g wall
f 13 12 27 28
g wall
f 14 13 28 29
g wall
f 15 14 29 30
g wall
f 1 15 30 16
g ground_assumed
f 30 29 28 27 26 25 24 23 22 21 20 19 18 17 16
