# XYZ-only planar convex-roof baseline. Provisional base; no GT.
v 2.80910072 -10.01912590 1.63575936
v 6.92911511 -6.27365827 1.62948693
v 10.30003597 -1.03000360 1.62491759
v 10.30003597 -0.46818345 1.62506265
v 7.67820863 2.52819065 1.63044322
v 2.43455396 8.14639208 1.64110765
v 0.18727338 10.39367266 1.64563667
v -0.56182014 10.20639928 1.64690459
v -1.31091367 9.83185251 1.64812415
v -10.30003597 1.21727698 1.66169516
v -9.55094244 -0.09363669 1.66004042
v -3.93274101 -6.08638489 1.64862115
v -1.31091367 -8.70821223 1.64333729
v 0.56182014 -10.39367266 1.63961145
v 1.68546043 -10.58094604 1.63758870
v 2.80910072 -10.01912590 -2.52069468
v 6.92911511 -6.27365827 -2.52069468
v 10.30003597 -1.03000360 -2.52069468
v 10.30003597 -0.46818345 -2.52069468
v 7.67820863 2.52819065 -2.52069468
v 2.43455396 8.14639208 -2.52069468
v 0.18727338 10.39367266 -2.52069468
v -0.56182014 10.20639928 -2.52069468
v -1.31091367 9.83185251 -2.52069468
v -10.30003597 1.21727698 -2.52069468
v -9.55094244 -0.09363669 -2.52069468
v -3.93274101 -6.08638489 -2.52069468
v -1.31091367 -8.70821223 -2.52069468
v 0.56182014 -10.39367266 -2.52069468
v 1.68546043 -10.58094604 -2.52069468
g roof
f 1 2 3 4 5 6 7 8 9 10 11 12 13 14 15
g wall
f 2 1 16 17
g wall
f 3 2 17 18
g wall
f 4 3 18 19
g wall
f 5 4 19 20
g wall
f 6 5 20 21
g wall
f 7 6 21 22
g wall
f 8 7 22 23
g wall
f 9 8 23 24
g wall
f 10 9 24 25
g wall
f 11 10 25 26
g wall
f 12 11 26 27
g wall
f 13 12 27 28
g wall
f 14 13 28 29
g wall
f 15 14 29 30
g wall
f 1 15 30 16
g ground_assumed
f 30 29 28 27 26 25 24 23 22 21 20 19 18 17 16
