# pointcloud_to_mesh 0.5.1; candidate requires geometry validation; coordinates preserved
v -5.652648802 3.441574215 9.191997321
v -5.311624209 2.757519892 9.189867685
v -3.932648122 2.799006188 9.168092756
v -2.022897115 3.008929722 9.137221681
v -1.362695821 3.028791782 9.126796673
v -2.026294392 3.121852905 9.136745395
v -2.128600562 6.522440045 9.122402439
v -2.203066870 6.520199737 9.123578310
v -2.190704580 6.109285654 9.125311459
v -2.675843219 5.730825774 9.134678130
v -3.549380723 5.123682834 9.151195290
v -3.590875320 4.560880517 9.154483420
v -3.918957395 4.772098538 9.158627454
v -4.044869860 4.853160515 9.160217865
v -4.628922905 5.491275401 9.166366190
v -4.605296471 4.705948904 9.169678531
v -5.275902597 4.529795584 9.180999157
v -5.772105708 4.026946727 9.191122194
v -5.317378329 4.581571772 9.181405478
v -5.276295297 5.660194989 9.175705308
v -4.709403470 5.579205508 9.167213409
v -3.460673674 6.468258440 9.143502878
v -3.931360713 6.454097889 9.150935332
v -3.913624690 5.864564621 9.153421859
v -4.826511657 5.837100549 9.167836937
v -5.187466678 6.478636311 9.170477829
v -6.129162184 5.726078012 9.188743429
v -6.908708530 5.915421709 9.200055255
v -8.168438569 5.877522914 9.219947211
v -8.640429029 6.122840514 9.226183473
v -9.142102049 6.107747754 9.234105216
v -9.090235159 4.383727781 9.241376766
v -8.758219012 3.516919914 9.240244967
v -8.671815292 0.644919342 9.252358457
v -1.957853003 0.846907922 9.146340630
v -4.708504571 1.838140671 9.184739712
v -5.311531733 1.819998687 9.194261903
v -5.279914822 0.769074174 9.198694480
v -5.700424563 0.756423200 9.205334602
v -5.727948778 1.671309262 9.201475806
v -5.983120182 2.088698807 9.203512161
v -6.049378168 2.197078470 9.204040922
v -5.777659328 2.365928540 9.198996962
v -5.935652067 2.783443219 9.199511923
v -0.942469982 2.322609132 9.123531320
v 0.291271815 2.359726075 9.104049736
v 0.289416419 2.421398172 9.103789616
v 0.834046385 2.437783285 9.095189555
v 1.257248647 2.897117236 9.086412977
v 0.468505511 2.873388013 9.098867743
v -0.955881760 2.768407432 9.121651038
v -0.494709187 -1.889330958 9.136272164
v -0.201484584 -1.880509339 9.131641957
v -0.474208896 -1.400193280 9.133657970
v -1.365215971 -2.627141854 9.153354544
v -3.057015629 -2.476348188 9.179123510
v -3.018458273 -3.757968323 9.184529112
v -1.866558079 -3.055611610 9.163209269
v -1.840216183 -3.063259527 9.162832887
v -1.835965156 -3.204560778 9.163428866
v -1.818086309 -3.180310397 9.163035369
v -1.472831209 -3.169923448 9.157583567
v -0.457102082 -3.139365384 9.141544544
v 0.593260246 -2.649858301 9.122811695
v 0.785365929 -2.644078830 9.119778222
v 0.763555252 -1.919106841 9.116720444
v -0.104152157 -1.945211692 9.130422108
v -0.102352492 -2.005031327 9.130674414
v -0.082341480 -2.670183681 9.133479886
v -2.321673814 -3.863362807 9.174118871
v -1.822635480 -3.647630083 9.165297639
v -4.623042159 -0.242802142 9.193158976
v -4.404815386 0.496266132 9.186278618
v -4.721472116 0.486739560 9.191278833
v -4.701047885 -0.192147892 9.194142237
v -4.693069821 -0.457333297 9.195260732
v -5.054740550 -0.729409818 9.202196391
v -5.163493281 -1.013678413 9.205231150
v -5.150674702 -1.027418264 9.205094965
v -4.818992663 -1.382938552 9.201571170
v -3.975574265 -1.357564432 9.188253045
v -4.001372389 -0.500052411 9.184636242
v -4.558464679 -0.516812451 9.193433091
v -4.705253920 -0.521228584 9.195750988
v -7.031274469 -3.079531900 9.244147135
v -6.132882949 -3.700897153 9.233001008
v -5.641570168 -3.191792525 9.222925173
v -5.672711954 -2.156660867 9.218559207
v -7.057785282 -2.198330597 9.240430415
v 2.373473494 2.484096726 -0.322105239
v 2.431838893 0.544070763 -0.322186326
v 2.860099708 -0.123248968 -0.315858375
v 8.952178285 0.414690724 -0.220724122
v 9.008159360 3.099788459 -0.218482373
v 8.675996969 3.545801627 -0.223426897
v 8.580529774 6.719065894 -0.223294263
v 8.161419399 6.706457019 -0.229826666
v 7.686252001 6.036465143 -0.237567361
v 2.032134231 5.712592290 -0.325772898
v 2.062500179 4.703248965 -0.325815086
v -0.803003333 4.617040708 -0.370477835
v -0.833369280 5.626384033 -0.370435648
v 6.900710091 6.747664551 -0.249436147
v 5.649663781 6.042024906 -0.269276244
v 5.173767296 6.626678509 -0.276388111
v 3.922748924 6.063103952 -0.296155284
v 3.454155126 6.494807986 -0.303231483
v -0.474567335 6.376612941 -0.364465939
v -0.465287348 6.068152503 -0.364478831
v -1.368918719 5.689808076 -0.378742327
v -1.736178113 6.534246018 -0.384030051
v -2.128600562 6.522440045 -0.390146486
v -2.026294392 3.121852905 -0.390288621
v -1.362695821 3.028791782 -0.380003210
v -2.022897115 3.008929722 -0.390293341
v -1.854649148 -2.583517644 -0.390527089
v -1.365215971 -2.627141854 -0.382928383
v -0.474208896 -1.400193280 -0.368428461
v -0.201484584 -1.880509339 -0.364426951
v 1.192327519 -1.838576704 -0.342702503
v 0.947794207 -2.645194913 -0.346921708
v 2.050673953 -2.612014936 -0.329731834
v 0.792738140 -4.159442450 -0.350108729
v 0.763972094 -3.203278760 -0.350068764
v 0.016084422 -3.566093086 -0.361899250
v -0.003146532 -3.596621164 -0.362214272
v -0.030483868 -3.588684243 -0.362635892
v -0.595214600 -3.862645698 -0.371569104
v -1.364780401 -3.449700752 -0.383341310
v -1.822635480 -3.647630083 -0.390571566
v -1.745498863 -6.211598478 -0.390678733
v 9.141675269 -5.884059426 -0.220987392
v 2.501832183 -0.881265327 -0.321823736
v 2.227256414 -0.889525899 -0.326103371
v 2.197037816 0.114919643 -0.326061388
v 0.360468766 0.059666730 -0.354686802
v 0.291271815 2.359726075 -0.354590666
v -0.942469982 2.322609132 -0.373820201
v 1.257248647 2.897117236 -0.339275235
v 0.834046385 2.437783285 -0.346099293
v 0.468505511 2.873388013 -0.351568864
v 2.096048461 -4.120232548 -0.329794874
v -0.955881760 2.768407432 -0.373801568
v -3.839732316 4.965159507 9.297799806
v -3.918957395 4.772098538 9.300823080
v -3.590875320 4.560880517 9.298089859
v -3.549380723 5.123682834 9.292035960
v -4.705253920 -0.521228584 9.363529854
v -4.558464679 -0.516812451 9.361349152
v -4.404931636 -0.384435654 9.357831201
v -4.623042159 -0.242802142 9.359636497
v 2.860099708 -0.123248968 9.249489150
v 2.431838893 0.544070763 9.249265070
v 2.444525841 0.122365284 9.253163608
v 2.197037816 0.114919643 9.256840293
v 2.227256414 -0.889525899 9.266126084
v 2.501832183 -0.881265327 9.262046983
v -5.054740550 -0.729409818 9.370635814
v -4.693069821 -0.457333297 9.362733706
v -4.701047885 -0.192147892 9.360282149
v -4.819718870 -0.115087014 9.361264386
v -5.163493281 -1.013678413 9.374972301
v -5.274480150 -0.894714834 9.375436883
v -5.150674701 -1.027418275 9.374918644
v -5.177646487 -1.050673456 9.375536657
v -1.818086309 -3.180310397 9.347226663
v -1.835965156 -3.204560778 9.347721877
v -1.822635480 -3.647630083 9.351817916
v -1.364780401 -3.449700752 9.343232870
v -0.595214600 -3.862645698 9.336022866
v -0.030483871 -3.588684237 9.325144998
v -0.003146532 -3.596621164 9.324823690
v 0.016084422 -3.566093086 9.324247997
v 0.763972094 -3.203278760 9.309842152
v 0.747363632 -2.651224838 9.304738583
v 0.947794207 -2.645194913 9.301760985
v 1.192327519 -1.838576704 9.290389050
v 0.763555252 -1.919106841 9.297413753
v 0.785365929 -2.644078830 9.304115897
v -0.082341480 -2.670183681 9.317006567
v -0.104152157 -1.945211692 9.310304423
v -0.494709187 -1.889330958 9.315451684
v -0.457102082 -3.139365384 9.327007869
v -5.317378329 4.581571772 9.053392403
v -5.772105708 4.026946727 9.060146924
v -5.275902597 4.529795584 9.052906650
v -4.605296471 4.705948904 9.043762566
v -4.628922905 5.491275401 9.043076959
v -4.709403470 5.579205508 9.044035489
v -5.276295297 5.660194989 9.051472668
v -3.918957395 4.772098538 9.034549271
v -3.839732316 4.965159507 9.033249687
v -4.044869860 4.853160515 9.036120840
v -5.311624209 2.757519892 9.055638220
v -5.652648802 3.441574215 9.059303300
v -5.935652099 2.783443263 9.063905481
v -5.777659328 2.365928540 9.062335574
v -6.049378168 2.197078470 9.066164714
v -5.983120182 2.088698807 9.065421397
v -5.727948778 1.671309262 9.062558746
v -5.700424563 0.756423200 9.063357461
v -5.279914822 0.769074174 9.057748106
v -5.311531733 1.819998687 9.056830626
v -4.708504571 1.838140671 9.048786595
v -3.932648122 2.799006188 9.037243481
v -4.826843546 2.772104448 9.049171528
v -3.975574265 -1.357564432 9.043106524
v -5.672711954 -2.156660867 9.066697743
v -5.641570168 -3.191792525 9.067601435
v -4.818992663 -1.382938552 9.054357234
v -5.150674701 -1.027418275 9.058316333
v -5.177646487 -1.050673456 9.058704696
v -5.163493274 -1.013678421 9.058469341
v -5.274480150 -0.894714834 9.059794127
v -5.054740550 -0.729409818 9.056660882
v -4.819718870 -0.115087014 9.052752686
v -4.701047885 -0.192147892 9.051272342
v -4.721472116 0.486739560 9.050679659
v -4.404815386 0.496266132 9.046455643
v -4.623042159 -0.242802142 9.050299271
v -4.404931636 -0.384435654 9.047578484
v -4.558464634 -0.516812450 9.049789184
v -4.001372389 -0.500052411 9.042357897
v -1.957853003 0.846907922 9.013461884
v -1.745498863 -6.211598478 9.019624111
v -1.822635480 -3.647630083 9.017385712
v -2.321673814 -3.863362807 9.024298145
v -1.835965156 -3.204560778 9.016998903
v -1.840216183 -3.063259527 9.016875544
v -1.866558079 -3.055611610 9.017216183
v -3.018458273 -3.757968323 9.033431969
v -3.057015629 -2.476348188 9.032313087
v -1.854649148 -2.583517644 9.016456719
v -6.132882949 -3.700897153 9.074784626
v -7.057785282 -2.198330597 9.085173815
v -8.671815292 0.644919342 9.103022235
v -8.459461152 -6.413587059 9.109184462
v -7.031274469 -3.079531900 9.085943123
v 0.947794207 -2.645194913 9.381023218
v 0.747363632 -2.651224838 9.381023218
v 0.763972094 -3.203278760 9.381023218
v 0.792738140 -4.159442450 9.381023218
v 2.096048461 -4.120232548 9.381023218
v 2.050673953 -2.612014936 9.381023218
v 2.418766809 0.978577893 9.387184051
v 2.373473494 2.484096726 9.387184051
v 0.834046385 2.437783285 9.387184051
v 0.289416419 2.421398172 9.387184051
v 0.291271815 2.359726075 9.387184051
v 0.334709734 0.915879339 9.387184051
v 0.360468766 0.059666730 9.387184051
v 2.197037816 0.114919643 9.387184051
v 2.444525841 0.122365284 9.387184051
v 2.431838893 0.544070763 9.387184051
v -0.803003333 4.617040708 9.426443167
v 2.062500179 4.703248965 9.426443167
v 2.032134231 5.712592290 9.426443167
v -0.833369280 5.626384033 9.426443167
v -2.128600562 6.522440045 -9.701732827
v -2.203066870 6.520199737 -9.701732827
v -2.190704580 6.109285654 -9.701732827
v -2.675843219 5.730825774 -9.701732827
v -3.460673674 6.468258440 -9.701732827
v -3.931360713 6.454097889 -9.701732827
v -3.913624690 5.864564621 -9.701732827
v -4.826511657 5.837100549 -9.701732827
v -5.187466678 6.478636311 -9.701732827
v -6.129162184 5.726078012 -9.701732827
v -6.908708530 5.915421709 -9.701732827
v -8.168438569 5.877522914 -9.701732827
v -8.640429029 6.122840514 -9.701732827
v -9.142102049 6.107747754 -9.701732827
v -9.090235159 4.383727781 -9.701732827
v -8.758219012 3.516919914 -9.701732827
v -8.671815292 0.644919342 -9.701732827
v -1.957853003 0.846907922 -0.390383707
v -3.839732338 4.965159508 9.156482427
v -4.826843546 2.772104448 9.182212683
v -5.935652067 2.783443219 -9.701732827
v -1.854649147 -2.583517692 9.160809438
v -1.472831219 -3.169923448 9.342097550
v -0.201484555 -1.880509338 9.311095536
v -0.102352492 -2.005031327 9.310857437
v -0.102352492 -2.005031327 -9.701732827
v 0.593260246 -2.649858301 9.306969821
v -5.150674702 -1.027418264 -9.701732827
v 9.008159360 3.099788459 -9.701732827
v 8.675996969 3.545801627 -9.701732827
v 8.580529774 6.719065894 -9.701732827
v 8.161419399 6.706457019 -9.701732827
v 7.686252001 6.036465143 -9.701732827
v 6.900710091 6.747664551 -9.701732827
v 5.649663781 6.042024906 -9.701732827
v 5.173767296 6.626678509 -9.701732827
v 3.922748924 6.063103952 -9.701732827
v 3.454155126 6.494807986 -9.701732827
v -0.474567335 6.376612941 -9.701732827
v -0.465287348 6.068152503 -9.701732827
v -1.368918719 5.689808076 -9.701732827
v -1.736178113 6.534246018 -9.701732827
v -0.030483868 -3.588684243 -9.701732827
v -1.745498863 -6.211598478 -9.701732827
v 9.141675269 -5.884059426 -9.701732827
v 8.952178285 0.414690724 -9.701732827
v 2.418766809 0.978577893 -0.322168165
v 0.334709734 0.915879339 -0.354651015
v -1.822635481 -3.647630038 -9.701732827
v -8.459461152 -6.413587059 -9.701732827
v -4.558464634 -0.516812450 -9.701732827
g roof
f 1 2 278 3
g roof
f 1 3 4
g roof
f 1 4 5
g roof
f 1 5 6
g roof
f 6 7 8
g roof
f 6 8 9
g roof
f 6 9 10
g roof
f 6 10 11
g roof
f 6 11 12
g roof
f 6 12 13
g roof
f 6 13 14
g roof
f 14 277 11 10
g roof
f 14 10 15
g roof
f 14 15 16
g roof
f 16 17 18
g roof
f 18 19 20
g roof
f 21 15 10
g roof
f 10 22 23
g roof
f 10 23 24
g roof
f 10 24 25
g roof
f 25 26 27
g roof
f 27 28 29
g roof
f 29 30 31
g roof
f 29 31 32
g roof
f 29 32 33
g roof
f 29 33 34
g roof
f 35 4 3
g roof
f 35 3 36
g roof
f 35 36 37
g roof
f 35 37 38
g roof
f 35 38 39
g roof
f 39 40 41
g roof
f 39 41 42
g roof
f 42 43 44
g roof
f 1 6 14
g roof
f 1 14 16
g roof
f 1 16 18
g roof
f 20 21 10
g roof
f 20 10 25
g roof
f 20 25 27
g roof
f 20 27 29
g roof
f 20 29 34
g roof
f 34 35 39
g roof
f 34 39 42
g roof
f 34 42 44
g roof
f 34 44 1
g roof
f 34 1 18
g roof
f 34 18 20
g roof
f 45 46 47
g roof
f 47 48 49
g roof
f 47 49 50
g roof
f 47 50 51
g roof
f 47 51 45
g roof
f 52 53 54
g roof
f 52 54 55
g roof
f 55 280 56 57
g roof
f 55 57 58
g roof
f 55 58 59
g roof
f 59 60 61
g roof
f 59 61 62
g roof
f 59 62 63
g roof
f 59 63 52
g roof
f 59 52 55
g roof
f 64 65 66
g roof
f 64 66 67
g roof
f 64 67 68
g roof
f 64 68 69
g roof
f 60 70 71
g roof
f 72 73 74
g roof
f 72 74 75
g roof
f 72 75 76
g roof
f 76 77 78
g roof
f 76 78 79
g roof
f 79 80 81
g roof
f 79 81 82
g roof
f 79 82 83
g roof
f 79 83 84
g roof
f 84 72 76
g roof
f 84 76 79
g roof
f 85 86 87
g roof
f 85 87 88
g roof
f 85 88 89
g roof
f 90 305 91 92
g roof
f 90 92 93
g roof
f 90 93 94
g roof
f 90 94 95
g roof
f 95 96 97
g roof
f 95 97 98
g roof
f 95 98 99
g roof
f 95 99 100
g roof
f 95 100 101
g roof
f 102 99 98
g roof
f 98 103 104
g roof
f 104 105 106
g roof
f 106 107 108
g roof
f 106 108 109
g roof
f 106 109 110
g roof
f 110 111 112
g roof
f 110 112 113
g roof
f 110 113 114
g roof
f 114 115 276 116
g roof
f 114 116 117
g roof
f 114 117 118
g roof
f 114 118 119
g roof
f 114 119 120
g roof
f 120 121 122
g roof
f 123 124 125
g roof
f 123 125 126
g roof
f 123 126 127
g roof
f 123 127 128
g roof
f 128 129 130
g roof
f 128 130 131
g roof
f 132 93 92
g roof
f 132 92 133
g roof
f 132 133 134
g roof
f 134 135 136
g roof
f 136 306 137 138
g roof
f 139 140 90
g roof
f 139 90 95
g roof
f 139 95 101
g roof
f 102 98 104
g roof
f 102 104 106
g roof
f 102 106 110
g roof
f 102 110 114
g roof
f 123 128 131
g roof
f 123 131 132
g roof
f 132 134 136
g roof
f 141 139 101
g roof
f 101 102 114
g roof
f 142 123 132
g roof
f 143 141 101
g roof
f 143 101 114
g roof
f 122 142 132
g roof
f 122 132 136
g roof
f 138 143 114
g roof
f 138 114 120
g roof
f 120 122 136
g roof
f 120 136 138
g roof
f 144 145 146
g roof
f 144 146 147
g roof
f 148 149 150
g roof
f 148 150 151
g roof
f 152 153 154
g roof
f 152 154 155
g roof
f 152 155 156
g roof
f 152 156 157
g roof
f 158 159 160
g roof
f 158 160 161
g roof
f 162 158 163
g roof
f 164 162 165
g roof
f 166 167 168
g roof
f 166 168 169
g roof
f 166 169 170
g roof
f 166 170 171
g roof
f 171 172 173
g roof
f 173 174 175
g roof
f 176 177 178
g roof
f 176 178 179
g roof
f 176 179 285 180
g roof
f 181 178 177
g roof
f 181 177 282 182
g roof
f 181 182 183
g roof
f 183 281 166 171
g roof
f 183 171 173
g roof
f 183 173 175
g roof
f 175 176 180
g roof
f 180 283 181 183
g roof
f 180 183 175
g roof
f 184 185 186
g roof
f 184 186 187
g roof
f 184 187 188
g roof
f 184 188 189
g roof
f 184 189 190
g roof
f 191 192 193
g roof
f 194 195 196
g roof
f 194 196 197
g roof
f 197 198 199
g roof
f 197 199 200
g roof
f 200 201 202
g roof
f 200 202 203
g roof
f 203 204 205
g roof
f 203 205 206
g roof
f 203 206 194
g roof
f 203 194 197
g roof
f 203 197 200
g roof
f 207 208 209
g roof
f 210 211 212
g roof
f 212 213 214
g roof
f 214 215 216
g roof
f 216 217 218
g roof
f 219 220 221
g roof
f 221 222 223
g roof
f 221 223 224
g roof
f 225 226 227
g roof
f 227 228 229
g roof
f 227 229 230
g roof
f 227 230 231
g roof
f 232 233 224
g roof
f 232 224 223
g roof
f 232 223 207
g roof
f 232 207 209
g roof
f 232 209 234
g roof
f 235 208 207
g roof
f 235 207 210
g roof
f 235 210 212
g roof
f 235 212 214
g roof
f 235 214 216
g roof
f 235 216 218
g roof
f 219 221 224
g roof
f 219 224 236
g roof
f 237 225 227
g roof
f 237 227 231
g roof
f 237 231 232
g roof
f 237 232 234
g roof
f 237 234 238
g roof
f 237 238 235
g roof
f 218 219 236
g roof
f 236 237 235
g roof
f 236 235 218
g roof_fixture
f 239 240 241
g roof_fixture
f 239 241 242
g roof_fixture
f 239 242 243
g roof_fixture
f 239 243 244
g roof_fixture
f 245 246 247
g roof_fixture
f 245 247 248
g roof_fixture
f 245 248 249
g roof_fixture
f 245 249 250
g roof_fixture
f 245 250 251
g roof_fixture
f 245 251 252
g roof_fixture
f 252 253 254
g roof_fixture
f 252 254 245
g roof_fixture
f 255 256 257
g roof_fixture
f 255 257 258
g roof_step_or_fixture_side
f 6 5 114 113
g roof_step_or_fixture_side
f 7 6 113 112
g facade_completed
f 8 7 112 259 260
g facade_completed
f 9 8 260 261
g facade_completed
f 10 9 261 262
g facade_completed
f 22 10 262 263
g facade_completed
f 23 22 263 264
g facade_completed
f 24 23 264 265
g facade_completed
f 25 24 265 266
g facade_completed
f 26 25 266 267
g facade_completed
f 27 26 267 268
g facade_completed
f 28 27 268 269
g facade_completed
f 29 28 269 270
g facade_completed
f 30 29 270 271
g facade_completed
f 31 30 271 272
g facade_completed
f 32 31 272 273
g facade_completed
f 33 32 273 274
g facade_completed
f 34 33 274 275 236
g roof_step_or_fixture_side
f 35 34 236 224
g roof_step_or_fixture_side
f 4 35 224 276 115
g roof_step_or_fixture_side
f 5 4 115 114
g roof_step_or_fixture_side
f 277 14 193 192
g roof_step_or_fixture_side
f 144 147 11 277
g roof_step_or_fixture_side
f 147 146 12 11
g roof_step_or_fixture_side
f 146 145 13 12
g roof_step_or_fixture_side
f 14 13 191 193
g roof_step_or_fixture_side
f 278 2 194 206
g roof_step_or_fixture_side
f 3 278 206 205
g roof_step_or_fixture_side
f 36 3 205 204
g roof_step_or_fixture_side
f 37 36 204 203
g roof_step_or_fixture_side
f 38 37 203 202
g roof_step_or_fixture_side
f 39 38 202 201
g roof_step_or_fixture_side
f 40 39 201 200
g roof_step_or_fixture_side
f 41 40 200 199
g roof_step_or_fixture_side
f 42 41 199 198
g roof_step_or_fixture_side
f 43 42 198 197
g roof_step_or_fixture_side
f 44 43 197 196
g roof_step_or_fixture_side
f 1 44 196 195
g roof_step_or_fixture_side
f 2 1 195 194
g roof_step_or_fixture_side
f 16 15 188 187
g roof_step_or_fixture_side
f 17 16 187 186
g roof_step_or_fixture_side
f 18 17 186 185
g roof_step_or_fixture_side
f 19 18 185 184
g roof_step_or_fixture_side
f 20 19 184 190
g roof_step_or_fixture_side
f 21 20 190 189
g roof_step_or_fixture_side
f 15 21 189 188
g roof_step_or_fixture_side
f 248 247 48 47
g roof_step_or_fixture_side
f 49 48 140 139
g roof_step_or_fixture_side
f 50 49 139 141
g roof_step_or_fixture_side
f 51 50 141 143
g roof_step_or_fixture_side
f 45 51 143 138
g roof_step_or_fixture_side
f 46 45 138 137
g roof_step_or_fixture_side
f 249 248 47 46
g roof_step_or_fixture_side
f 54 53 119 118
g roof_step_or_fixture_side
f 55 54 118 117
g roof_step_or_fixture_side
f 280 55 117 116 233
g roof_step_or_fixture_side
f 56 280 233 232
g roof_step_or_fixture_side
f 57 56 232 231
g roof_step_or_fixture_side
f 58 57 231 230
g roof_step_or_fixture_side
f 59 58 230 229
g roof_step_or_fixture_side
f 60 59 229 228
g roof_step_or_fixture_side
f 167 166 61 60
g roof_step_or_fixture_side
f 166 281 62 61
g roof_step_or_fixture_side
f 281 183 63 62
g roof_step_or_fixture_side
f 183 182 52 63
g roof_step_or_fixture_side
f 182 282 53 52
g roof_step_or_fixture_side
f 179 178 66 65
g roof_step_or_fixture_side
f 178 181 67 66
g roof_step_or_fixture_side
f 181 283 68 67
g roof_step_or_fixture_side
f 283 180 69 68
g roof_step_or_fixture_side
f 180 285 64 69
g roof_step_or_fixture_side
f 285 179 65 64
g roof_step_or_fixture_side
f 168 167 60 71
g roof_step_or_fixture_side
f 70 60 228 227
g roof_step_or_fixture_side
f 71 70 227 226
g roof_step_or_fixture_side
f 148 151 72 84
g roof_step_or_fixture_side
f 73 72 220 219
g roof_step_or_fixture_side
f 74 73 219 218
g roof_step_or_fixture_side
f 75 74 218 217
g roof_step_or_fixture_side
f 160 159 76 75
g roof_step_or_fixture_side
f 159 158 77 76
g roof_step_or_fixture_side
f 158 162 78 77
g roof_step_or_fixture_side
f 162 164 79 78
g roof_step_or_fixture_side
f 80 79 211 210
g roof_step_or_fixture_side
f 81 80 210 207
g roof_step_or_fixture_side
f 82 81 207 223
g roof_step_or_fixture_side
f 83 82 223 222
g roof_step_or_fixture_side
f 149 148 84 83
g roof_step_or_fixture_side
f 88 87 209 208
g roof_step_or_fixture_side
f 89 88 208 235
g roof_step_or_fixture_side
f 85 89 235 238
g roof_step_or_fixture_side
f 86 85 238 234
g roof_step_or_fixture_side
f 87 86 234 209
g facade_completed
f 95 94 287 288
g facade_completed
f 96 95 288 289
g facade_completed
f 97 96 289 290
g facade_completed
f 98 97 290 291
g facade_completed
f 103 98 291 292
g facade_completed
f 104 103 292 293
g facade_completed
f 105 104 293 294
g facade_completed
f 106 105 294 295
g facade_completed
f 107 106 295 296
g facade_completed
f 108 107 296 297
g facade_completed
f 109 108 297 298
g facade_completed
f 110 109 298 299
g facade_completed
f 111 110 299 300
g facade_completed
f 112 111 300 259
g roof_step_or_fixture_side
f 224 233 116 276
g roof_step_or_fixture_side
f 282 177 120 119 53
g roof_step_or_fixture_side
f 177 176 121 120
g roof_step_or_fixture_side
f 239 244 122 121 176
g roof_step_or_fixture_side
f 244 243 142 122
g roof_step_or_fixture_side
f 243 242 123 142
g roof_step_or_fixture_side
f 242 241 174 124 123
g roof_step_or_fixture_side
f 174 173 125 124
g roof_step_or_fixture_side
f 173 172 126 125
g roof_step_or_fixture_side
f 172 171 127 126
g roof_step_or_fixture_side
f 171 170 128 127
g roof_step_or_fixture_side
f 170 169 129 128
g roof_step_or_fixture_side
f 169 168 71 226 130 129
g roof_step_or_fixture_side
f 226 225 131 130
g facade_completed
f 132 131 302 303
g facade_completed
f 93 132 303 304
g facade_completed
f 94 93 304 287
g roof_step_or_fixture_side
f 247 246 90 140 48
g roof_step_or_fixture_side
f 246 245 305 90
g roof_step_or_fixture_side
f 245 254 153 91 305
g roof_step_or_fixture_side
f 153 152 92 91
g roof_step_or_fixture_side
f 152 157 133 92
g roof_step_or_fixture_side
f 157 156 134 133
g roof_step_or_fixture_side
f 156 155 135 134
g roof_step_or_fixture_side
f 252 251 136 135 155
g roof_step_or_fixture_side
f 251 250 306 136
g roof_step_or_fixture_side
f 250 249 46 137 306
g roof_step_or_fixture_side
f 257 256 100 99
g roof_step_or_fixture_side
f 256 255 101 100
g roof_step_or_fixture_side
f 255 258 102 101
g roof_step_or_fixture_side
f 258 257 99 102
g roof_step_or_fixture_side
f 145 144 277 192 191 13
g roof_step_or_fixture_side
f 151 150 221 220 72
g roof_step_or_fixture_side
f 150 149 83 222 221
g roof_step_or_fixture_side
f 253 252 155 154
g roof_step_or_fixture_side
f 254 253 154 153
g roof_step_or_fixture_side
f 161 160 75 217 216
g roof_step_or_fixture_side
f 158 161 216 215 77
g roof_step_or_fixture_side
f 162 163 214 213 78
g roof_step_or_fixture_side
f 163 158 77 215 214
g roof_step_or_fixture_side
f 165 162 78 213 212
g roof_step_or_fixture_side
f 164 165 212 211 79
g roof_step_or_fixture_side
f 241 240 175 174
g roof_step_or_fixture_side
f 240 239 176 175
g facade_completed
f 237 236 275 308
g facade_completed
f 225 237 308 302 131
g ground_assumed
f 304 288 287
g ground_assumed
f 288 290 289
g ground_assumed
f 288 291 290
g ground_assumed
f 288 292 291
g ground_assumed
f 288 293 292
g ground_assumed
f 293 295 294
g ground_assumed
f 295 297 296
g ground_assumed
f 295 298 297
g ground_assumed
f 295 299 298
g ground_assumed
f 299 259 300
g ground_assumed
f 299 260 259
g ground_assumed
f 299 261 260
g ground_assumed
f 299 262 261
g ground_assumed
f 262 264 263
g ground_assumed
f 262 265 264
g ground_assumed
f 262 266 265
g ground_assumed
f 266 268 267
g ground_assumed
f 268 270 269
g ground_assumed
f 270 272 271
g ground_assumed
f 270 273 272
g ground_assumed
f 270 274 273
g ground_assumed
f 270 275 274
g ground_assumed
f 270 308 275
g ground_assumed
f 270 302 308
g ground_assumed
f 270 303 302
g ground_assumed
f 270 304 303
g ground_assumed
f 270 288 304
g ground_assumed
f 288 295 293
g ground_assumed
f 288 299 295
g ground_assumed
f 288 262 299
g ground_assumed
f 288 266 262
g ground_assumed
f 288 268 266
g ground_assumed
f 288 270 268
