v -0.30808975316371456 0.17906475096048249 0.50490830153488742
v -0.28973042244226699 0.14223814136932933 0.50479365088375294
v -0.21549214591362792 0.14447158917428535 0.50362138022892955
v -0.11267917860035713 0.1557729899120352 0.50195941130561605
v -0.077136715833533681 0.15684227973990761 0.50139817269240627
v -0.11286207371489031 0.16185229945560098 0.50193377006926099
v -0.1183698079030655 0.34492561801348409 0.50116160560331835
v -0.12237876093530965 0.34480500924703683 0.50122490955563692
v -0.12171322720183946 0.32268312213757155 0.50131821501317197
v -0.14783105243198041 0.30230843290887022 0.50182247721061402
v -0.1948586400685231 0.26962240891102918 0.50271169168148677
v -0.19709253476442903 0.23932349768675873 0.50288871078029729
v -0.21475509471565155 0.25069458816371049 0.50311180815300482
v -0.22153369260664793 0.25505862429255755 0.50319742919656396
v -0.25297665370717903 0.28941204768437967 0.50352842917244534
v -0.25170470580524451 0.24713336990368692 0.50370675168973444
v -0.28780732099423978 0.23765001554759516 0.50431620661167842
v -0.31452081089160955 0.21057874661842182 0.50486118837546701
v -0.29004020007783748 0.240437427888229 0.50433808122650436
v -0.28782846231167636 0.29850596831380083 0.50403120803217594
v -0.25730938905768785 0.29414583506488468 0.5035740398824462
v -0.19008302539631483 0.34200870813181505 0.5022975645515011
v -0.21542283722419633 0.34124636358440319 0.5026976966354002
v -0.21446800429242532 0.30950837031156098 0.50283156079792057
v -0.26361400162655946 0.30802982010974111 0.50360760800920623
v -0.28304630282164078 0.34256740908706707 0.50374978253451275
v -0.33374323080992485 0.30205283335818123 0.50473312566609052
v -0.37571072955541851 0.31224630217127802 0.50534210683302205
v -0.44352930006462221 0.31020599034148177 0.50641300613587803
v -0.46893928260071505 0.32341285882733251 0.5067487402702302
v -0.49594724940798685 0.32260032806554251 0.50717521361735118
v -0.49315495405290399 0.22978633897388759 0.50756668330618837
v -0.47528060020055951 0.1831210467079849 0.50750575200511006
v -0.4706289870805539 0.028504607260949166 0.50815789139231526
v -0.10917747699817716 0.039378823426865286 0.50245033719178223
v -0.2572609961137039 0.092742628367527127 0.50451758237089461
v -0.28972544392311428 0.091765940201817026 0.50503021711146823
v -0.28802332232439565 0.035188581578759606 0.5052688484265162
v -0.31066179932892424 0.034507506312101539 0.50562632468579816
v -0.31214358737707604 0.083761126518608939 0.50541858332812239
v -0.32588094325361283 0.10623162528504104 0.50552821212228771
v -0.32944799472990038 0.1120663308087451 0.50555667839208418
v -0.31481979444990449 0.12115650888123844 0.50528513278602949
v -0.32332545945597158 0.14363374433627793 0.50531285612182897
v -0.054513522919412187 0.11882437403098348 0.50122237981154139
v 0.011905949872088199 0.12082259423531377 0.50017357321232447
v 0.01180606314989145 0.12414276072286146 0.50015956944483886
v 0.041126651376807766 0.1250248663382629 0.49969657830764641
v 0.063910082395000317 0.14975347562656188 0.49922408423709541
v 0.021447467131075131 0.14847599399690128 0.49989459648971829
v -0.055235556675683348 0.14282428076134379 0.50112115333170326
v -0.030407963706844565 -0.10792877714493045 0.50190829330126541
v -0.014621983538129405 -0.10745385825625192 0.50165902241767912
v -0.029304314204490596 -0.081595660463451375 0.5017675560840642
v -0.077272390117052753 -0.14764941468133105 0.50282793684125338
v -0.16835177287480546 -0.13953131750705042 0.50421522966075893
v -0.16627600688877703 -0.20852835877829751 0.50450624455207072
v -0.10426254201310581 -0.17071642543659915 0.50335847381470811
v -0.10284440505049097 -0.17112815714280247 0.50333821098980525
v -0.10261554762436746 -0.17873522259119748 0.5033702959941968
v -0.10165302564874219 -0.17742968400530404 0.50334911176962993
v -0.083065942211723198 -0.17687049432868793 0.50305560966450213
v -0.028383355240641651 -0.17522537660199319 0.50219213608004454
v 0.028163737704944118 -0.14887237270796591 0.50118363822620804
v 0.038505900235335476 -0.14856123028110868 0.50102032878992486
v 0.037331705058444901 -0.10953178553418209 0.50085571087459824
v -0.009382014767859076 -0.11093716099032437 0.50159335087468504
v -0.0092851283684585069 -0.11415759870990339 0.50160693396925393
v -0.0082078195909685049 -0.14996660573725096 0.50175796879001178
v -0.12876406028161283 -0.214202354811693 0.50394580093207342
v -0.10189793389469212 -0.20258821170103833 0.50347090287784835
v -0.25266005905999234 -0.019286586241890669 0.50497084015751748
v -0.24091164683395314 0.020501743241125261 0.50460043060173532
v -0.25795911423241757 0.019988872645925453 0.50486962116085532
v -0.25685955948077477 -0.016559574327542063 0.50502377479699823
v -0.25643005404773722 -0.030836041927918348 0.50508398986663483
v -0.2759008859533354 -0.045483498249579778 0.50545737659582057
v -0.28175567589011175 -0.060787324590708874 0.50562075526493877
v -0.28106557747471672 -0.061527020418371402 0.50561342363694006
v -0.26320921059279789 -0.080666738431542012 0.50542371732505653
v -0.21780310902922104 -0.079300702461093109 0.50470672545267103
v -0.21919197159289225 -0.033135859472318202 0.50451201198099094
v -0.24918347896338433 -0.034038149581538238 0.50498559735698056
v -0.25708599472672478 -0.034275895620742222 0.50511038318907242
v -0.38230916455240938 -0.17200419331046313 0.50771582832896822
v -0.33394354115872071 -0.20545588686220331 0.50711576769974465
v -0.30749332607393032 -0.17804783351611655 0.50657332709324066
v -0.30916986893965415 -0.12232069582706923 0.50633828183445895
v -0.38373639529632664 -0.12456401894759099 0.50751573574597075
v 0.12400293653578712 0.12751818734097209 -0.0072909914258131592
v 0.12714508430144764 0.023075343645790981 -0.0072953568090751535
v 0.15020084655147886 -0.012850345849501246 -0.0069546865243425952
v 0.47817275142869842 0.016110066145247844 -0.001833058203053569
v 0.48118653721178761 0.16066444242237077 -0.0017123718592230112
v 0.46330431019716345 0.18467591674273612 -0.0019785642489787113
v 0.45816475767798814 0.35551112728253675 -0.001971423791894699
v 0.43560161665720276 0.35483231844909169 -0.0023231009129719375
v 0.4100206011322266 0.31876277189833291 -0.0027398273967386231
v 0.10562666530413385 0.30132681876774514 -0.007488442770779629
v 0.1072614403128743 0.24698801653608174 -0.007490713995378602
v -0.047005224731653507 0.24234692632244267 -0.0098951686788565189
v -0.048639999686558147 0.29668572855410613 -0.0098928975080933464
v 0.36773032642101955 0.3570507587719649 -0.0033787929491030134
v 0.30037925138246191 0.31906208616992815 -0.0044469003813684595
v 0.27475898487784245 0.35053737878896485 -0.0048297734086517122
v 0.20740941390377812 0.32019689340890811 -0.0058939549192651396
v 0.18218229337320341 0.34343802409765301 -0.0062749077313451057
v -0.029323611053690163 0.3370748996622509 -0.0095715134669083698
v -0.028824015558465178 0.32046868617510638 -0.0095722075180018074
v -0.077471730506296119 0.30010021245066287 -0.010340094191524041
v -0.097243432645691102 0.34556120197793871 -0.010624763026770581
v -0.1183698079030655 0.34492561801348409 -0.01095404617908927
v -0.11286207371489031 0.16185229945560098 -0.010961698130079481
v -0.077136715833533681 0.15684227973990761 -0.010407974832607456
v -0.11267917860035713 0.1557729899120352 -0.010961952235040776
v -0.10362141522267547 -0.14530087057251401 -0.010974536244890989
v -0.077272390117052753 -0.14764941468133105 -0.010565453852088166
v -0.029304314204490596 -0.081595660463451375 -0.0097848389964516613
v -0.014621983538129405 -0.10745385825625192 -0.0095694145168594251
v 0.060415001734464416 -0.10519638143555018 -0.0083998615468984308
v 0.047250356018080801 -0.1486213154988032 -0.0086270058102934886
v 0.10662476601202531 -0.146835044996391 -0.0077015752451552975
v 0.038902789089322883 -0.23014203833394598 -0.0087985816255168776
v 0.037354146079689933 -0.1786662041305469 -0.0087964300778943759
v -0.0029089827226996398 -0.19819860249195506 -0.0094333337192380844
v -0.0039442964561433288 -0.19984210589844442 -0.0094502931796443083
v -0.0054160237244090925 -0.19941481543159822 -0.0094729914283268497
v -0.035818752706929004 -0.21416374867722479 -0.0099539180150871286
v -0.077248940859003662 -0.19193252843979078 -0.010587684106188391
v -0.10189793389469212 -0.20258821170103833 -0.010976930699629031
v -0.097745222649504485 -0.34062149343313919 -0.010982700120473778
v 0.48837447256959232 -0.32298816755784843 -0.0018472315532994145
v 0.13091322884518203 -0.053658760587931877 -0.0072758364874827182
v 0.11613122351582802 -0.054103475064275611 -0.0075062340480835203
v 0.11450438121175853 -2.834888338570235e-05 -0.0075039738598229079
v 0.015631222871167187 -0.0030029334849436557 -0.0090450458336683685
v 0.011905949872088199 0.12082259423531377 -0.0090398702754990561
v -0.054513522919412187 0.11882437403098348 -0.010075107615946967
v 0.063910082395000317 0.14975347562656188 -0.0082153518429808788
v 0.041126651376807766 0.1250248663382629 -0.0085827304433985299
v 0.021447467131075131 0.14847599399690128 -0.0088771891568011699
v 0.10906753880845811 -0.22803114201400357 -0.0077049690537909117
v -0.055235556675683348 0.14282428076134379 -0.010074104493543613
v -0.21048994945443045 0.26108817927716466 0.51060426262724767
v -0.21475509471565155 0.25069458816371049 0.51076702299223864
v -0.19709253476442903 0.23932349768675873 0.51061987786164142
v -0.1948586400685231 0.26962240891102918 0.51029396138471672
v -0.25708599472672478 -0.034275895620742222 0.51414289214059949
v -0.24918347896338433 -0.034038149581538238 0.51402549231066152
v -0.24091790524534096 -0.026911539225994395 0.51383610061517493
v -0.25266005905999234 -0.019286586241890669 0.51393329016394784
v 0.15020084655147886 -0.012850345849501246 0.50800341996346332
v 0.12714508430144764 0.023075343645790981 0.50799135643809734
v 0.12782809625706285 0.00037249313316695554 0.50820123733801281
v 0.11450438121175853 -2.834888338570235e-05 0.50839917460488193
v 0.11613122351582802 -0.054103475064275611 0.50889908256307215
v 0.13091322884518203 -0.053658760587931877 0.50867948091016379
v -0.2759008859533354 -0.045483498249579778 0.51452544715983062
v -0.25643005404773722 -0.030836041927918348 0.51410003087858136
v -0.25685955948077477 -0.016559574327542063 0.51396804935387808
v -0.26324830652534614 -0.012410940551774694 0.51402092886550277
v -0.28175567589011175 -0.060787324590708874 0.51475890539315594
v -0.28773074242646846 -0.054382825514983697 0.51478391653534428
v -0.28106557742088101 -0.061527021010565168 0.5147560167258024
v -0.28251762501359545 -0.062778982211398909 0.5147892879481426
v -0.10165302564874219 -0.17742968400530404 0.51326519686135053
v -0.10261554762436746 -0.17873522259119748 0.51329185710166902
v -0.10189793389469212 -0.20258821170103833 0.51351237062530497
v -0.077248940859003662 -0.19193252843979078 0.51305018783260281
v -0.035818752706929004 -0.21416374867722479 0.51266203152172074
v -0.0054160238859164824 -0.19941481510858344 0.51207641282953376
v -0.0039442964561433288 -0.19984210589844442 0.51205911495730838
v -0.0029089827226996398 -0.19819860249195506 0.51202812206589243
v 0.037354146079689933 -0.1786662041305469 0.51125257192051943
v 0.036460016292890085 -0.14894594131633337 0.51097781721644819
v 0.047250356018080801 -0.1486213154988032 0.51081751585531576
v 0.060415001734464416 -0.10519638143555018 0.51020529867246933
v 0.037331705058444901 -0.10953178553418209 0.51058347915635294
v 0.038505900235335476 -0.14856123028110868 0.51094429441942923
v -0.0082078195909685049 -0.14996660573725096 0.51163827391125738
v -0.009382014767859076 -0.11093716099032437 0.51127745864818108
v -0.030407963706844565 -0.10792877714493045 0.51155456554588974
v -0.028383355240641651 -0.17522537660199319 0.5121767019743122
v -0.29004020007783748 0.240437427888229 0.49744639532221402
v -0.31452081089160955 0.21057874661842182 0.49781003034282367
v -0.28780732099423978 0.23765001554759516 0.49742024442236993
v -0.25170470580524451 0.24713336990368692 0.49692796537344891
v -0.25297665370717903 0.28941204768437967 0.49689105517425419
v -0.25730938905768785 0.29414583506488468 0.49694265840064211
v -0.28782846231167636 0.29850596831380083 0.49734304485868153
v -0.21475509471565155 0.25069458816371049 0.49643196029518971
v -0.21048994945443045 0.26108817927716466 0.4963619961549311
v -0.22153369260664793 0.25505862429255755 0.49651656696466412
v -0.28973042244226699 0.14223814136932933 0.49756730067006633
v -0.30808975316371456 0.17906475096048249 0.49776461317251258
v -0.32332546117871708 0.14363374670505299 0.49801237525405545
v -0.31481979444990449 0.12115650888123844 0.49792785805967549
v -0.32944799472990038 0.1120663308087451 0.49813400286295867
v -0.32588094325361283 0.10623162528504104 0.4980939857999257
v -0.31214358737707604 0.083761126518608939 0.49793987270213785
v -0.31066179932892424 0.034507506312101539 0.49798287216064668
v -0.28802332232439565 0.035188581578759606 0.49768088806421223
v -0.28972544392311428 0.091765940201817026 0.49763149479728647
v -0.2572609961137039 0.092742628367527127 0.49719843797823587
v -0.21549214591362792 0.14447158917428535 0.49657700523751463
v -0.26363186913535175 0.14302331256379938 0.49721916115303821
v -0.21780310902922104 -0.079300702461093109 0.49689264682958911
v -0.30916986893965415 -0.12232069582706923 0.49816269890393639
v -0.30749332607393032 -0.17804783351611655 0.49821134988289473
v -0.26320921059279789 -0.080666738431542012 0.4974983377679581
v -0.28106557742088101 -0.061527021010565168 0.49771147901756868
v -0.28251762501359545 -0.062778982211398909 0.49773238684915422
v -0.28175567551326108 -0.06078732502139525 0.49771971632517842
v -0.28773074242646846 -0.054382825514983697 0.49779103723519014
v -0.2759008859533354 -0.045483498249579778 0.49762235649378
v -0.26324830652534614 -0.012410940551774694 0.49741195564773832
v -0.25685955948077477 -0.016559574327542063 0.4973322601488348
v -0.25795911423241757 0.019988872645925453 0.49730035258722977
v -0.24091164683395314 0.020501743241125261 0.49707294931981583
v -0.25266005905999234 -0.019286586241890669 0.49727987409612434
v -0.24091790524534096 -0.026911539225994395 0.49713339835982573
v -0.24918347654077344 -0.034038149527702441 0.49725241315599877
v -0.21919197159289225 -0.033135859472318202 0.49685234389847466
v -0.10917747699817716 0.039378823426865286 0.49529670401182796
v -0.097745222649504485 -0.34062149343313919 0.49562845241295761
v -0.10189793389469212 -0.20258821170103833 0.49550794641904655
v -0.12876406028161283 -0.214202354811693 0.49588008275801393
v -0.10261554762436746 -0.17873522259119748 0.49548712224828939
v -0.10284440505049097 -0.17112815714280247 0.49548048111822146
v -0.10426254201310581 -0.17071642543659915 0.49549881969023651
v -0.16627600688877703 -0.20852835877829751 0.49637180945165887
v -0.16835177287480546 -0.13953131750705042 0.49631157354756889
v -0.10362141522267547 -0.14530087057251401 0.49545793334059129
v -0.33394354115872071 -0.20545588686220331 0.49859806269455498
v -0.38373639529632664 -0.12456401894759099 0.49915737296335605
v -0.4706289870805539 0.028504607260949166 0.50011825687718958
v -0.45919673273188122 -0.35149570965289112 0.50045000527831918
v -0.38230916455240938 -0.17200419331046313 0.49919878927258593
v 0.047250356018080801 -0.1486213154988032 0.51508466133173425
v 0.036460016292890085 -0.14894594131633337 0.51508466133173425
v 0.037354146079689933 -0.1786662041305469 0.51508466133173425
v 0.038902789089322883 -0.23014203833394598 0.51508466133173425
v 0.10906753880845811 -0.22803114201400357 0.51508466133173425
v 0.10662476601202531 -0.146835044996391 0.51508466133173425
v 0.12644133824236345 0.04646738124144028 0.51541633468576309
v 0.12400293653578712 0.12751818734097209 0.51541633468576309
v 0.041126651376807766 0.1250248663382629 0.51541633468576309
v 0.01180606314989145 0.12414276072286146 0.51541633468576309
v 0.011905949872088199 0.12082259423531377 0.51541633468576309
v 0.014244464856467787 0.043091954623329667 0.51541633468576309
v 0.015631222871167187 -0.0030029334849436557 0.51541633468576309
v 0.11450438121175853 -2.834888338570235e-05 0.51541633468576309
v 0.12782809625706285 0.00037249313316695554 0.51541633468576309
v 0.12714508430144764 0.023075343645790981 0.51541633468576309
v -0.047005224731653507 0.24234692632244267 0.51752988048061344
v 0.1072614403128743 0.24698801653608174 0.51752988048061344
v 0.10562666530413385 0.30132681876774514 0.51752988048061344
v -0.048639999686558147 0.29668572855410613 0.51752988048061344
v -0.1183698079030655 0.34492561801348409 -0.51225071710784131
v -0.12237876093530965 0.34480500924703683 -0.51225071710784131
v -0.12171322720183946 0.32268312213757155 -0.51225071710784131
v -0.14783105243198041 0.30230843290887022 -0.51225071710784131
v -0.19008302539631483 0.34200870813181505 -0.51225071710784131
v -0.21542283722419633 0.34124636358440319 -0.51225071710784131
v -0.21446800429242532 0.30950837031156098 -0.51225071710784131
v -0.26361400162655946 0.30802982010974111 -0.51225071710784131
v -0.28304630282164078 0.34256740908706707 -0.51225071710784131
v -0.33374323080992485 0.30205283335818123 -0.51225071710784131
v -0.37571072955541851 0.31224630217127802 -0.51225071710784131
v -0.44352930006462221 0.31020599034148177 -0.51225071710784131
v -0.46893928260071505 0.32341285882733251 -0.51225071710784131
v -0.49594724940798685 0.32260032806554251 -0.51225071710784131
v -0.49315495405290399 0.22978633897388759 -0.51225071710784131
v -0.47528060020055951 0.1831210467079849 -0.51225071710784131
v -0.4706289870805539 0.028504607260949166 -0.51225071710784131
v -0.10917747699817716 0.039378823426865286 -0.010966817160662064
v -0.21048995063881798 0.26108817933100048 0.50299632891512047
v -0.26363186913535175 0.14302331256379938 0.50438153775092875
v -0.32332545945597158 0.14363374433627793 -0.51225071710784131
v -0.10362141516883967 -0.14530087315663226 0.50322927700043452
v -0.083065942750081168 -0.17687049432868793 0.51298906697568369
v -0.014621981976891296 -0.10745385820241612 0.51132004884696192
v -0.0092851283684585069 -0.11415759870990339 0.51130723059755945
v -0.0092851283684585069 -0.11415759870990339 -0.51225071710784131
v 0.028163737704944118 -0.14887237270796591 0.51109793769221756
v -0.28106557747471672 -0.061527020418371402 -0.51225071710784131
v 0.48118653721178761 0.16066444242237077 -0.51225071710784131
v 0.46330431019716345 0.18467591674273612 -0.51225071710784131
v 0.45816475767798814 0.35551112728253675 -0.51225071710784131
v 0.43560161665720276 0.35483231844909169 -0.51225071710784131
v 0.4100206011322266 0.31876277189833291 -0.51225071710784131
v 0.36773032642101955 0.3570507587719649 -0.51225071710784131
v 0.30037925138246191 0.31906208616992815 -0.51225071710784131
v 0.27475898487784245 0.35053737878896485 -0.51225071710784131
v 0.20740941390377812 0.32019689340890811 -0.51225071710784131
v 0.18218229337320341 0.34343802409765301 -0.51225071710784131
v -0.029323611053690163 0.3370748996622509 -0.51225071710784131
v -0.028824015558465178 0.32046868617510638 -0.51225071710784131
v -0.077471730506296119 0.30010021245066287 -0.51225071710784131
v -0.097243432645691102 0.34556120197793871 -0.51225071710784131
v -0.0054160237244090925 -0.19941481543159822 -0.51225071710784131
v -0.097745222649504485 -0.34062149343313919 -0.51225071710784131
v 0.48837447256959232 -0.32298816755784843 -0.51225071710784131
v 0.47817275142869842 0.016110066145247844 -0.51225071710784131
v 0.12644133824236345 0.04646738124144028 -0.0072943790971679301
v 0.014244464856467787 0.043091954623329667 -0.0090431192120052559
v -0.10189793394852792 -0.20258820927842747 -0.51225071710784131
v -0.45919673273188122 -0.35149570965289112 -0.51225071710784131
v -0.24918347654077344 -0.034038149527702441 -0.51225071710784131
l 1 2
l 2 278
l 3 278
l 4 5
l 5 6
l 6 7
l 7 8
l 8 9
l 9 10
l 11 12
l 12 13
l 13 14
l 14 277
l 11 277
l 15 16
l 16 17
l 17 18
l 18 19
l 19 20
l 15 21
l 10 22
l 22 23
l 23 24
l 24 25
l 25 26
l 26 27
l 27 28
l 28 29
l 29 30
l 30 31
l 31 32
l 32 33
l 33 34
l 4 35
l 3 36
l 36 37
l 37 38
l 38 39
l 39 40
l 40 41
l 41 42
l 42 43
l 43 44
l 20 21
l 34 35
l 1 44
l 45 46
l 46 47
l 47 48
l 48 49
l 49 50
l 50 51
l 45 51
l 52 53
l 53 54
l 54 55
l 55 280
l 56 280
l 56 57
l 57 58
l 58 59
l 59 60
l 60 61
l 61 62
l 62 63
l 52 63
l 64 65
l 65 66
l 66 67
l 67 68
l 68 69
l 64 69
l 60 70
l 70 71
l 60 71
l 72 73
l 73 74
l 74 75
l 75 76
l 76 77
l 77 78
l 78 79
l 79 80
l 80 81
l 81 82
l 82 83
l 83 84
l 72 84
l 85 86
l 86 87
l 87 88
l 88 89
l 85 89
l 90 305
l 91 305
l 91 92
l 93 94
l 94 95
l 95 96
l 96 97
l 97 98
l 99 100
l 100 101
l 99 102
l 98 103
l 103 104
l 104 105
l 105 106
l 106 107
l 107 108
l 108 109
l 109 110
l 110 111
l 111 112
l 112 113
l 113 114
l 114 115
l 115 276
l 116 276
l 116 117
l 117 118
l 118 119
l 119 120
l 120 121
l 121 122
l 123 124
l 124 125
l 125 126
l 126 127
l 127 128
l 128 129
l 129 130
l 130 131
l 93 132
l 92 133
l 133 134
l 134 135
l 135 136
l 136 306
l 137 306
l 137 138
l 139 140
l 90 140
l 131 132
l 139 141
l 101 102
l 123 142
l 141 143
l 122 142
l 138 143
l 144 145
l 145 146
l 146 147
l 144 147
l 148 149
l 149 150
l 150 151
l 148 151
l 152 153
l 153 154
l 154 155
l 155 156
l 156 157
l 152 157
l 158 159
l 159 160
l 160 161
l 158 161
l 158 162
l 158 163
l 162 163
l 162 164
l 162 165
l 164 165
l 166 167
l 167 168
l 168 169
l 169 170
l 170 171
l 171 172
l 172 173
l 173 174
l 174 175
l 176 177
l 178 179
l 179 285
l 180 285
l 178 181
l 177 282
l 182 282
l 182 183
l 183 281
l 166 281
l 175 176
l 180 283
l 181 283
l 184 185
l 185 186
l 186 187
l 187 188
l 188 189
l 189 190
l 184 190
l 191 192
l 192 193
l 191 193
l 194 195
l 195 196
l 196 197
l 197 198
l 198 199
l 199 200
l 200 201
l 201 202
l 202 203
l 203 204
l 204 205
l 205 206
l 194 206
l 208 209
l 210 211
l 211 212
l 212 213
l 213 214
l 214 215
l 215 216
l 216 217
l 217 218
l 219 220
l 220 221
l 221 222
l 222 223
l 225 226
l 226 227
l 227 228
l 228 229
l 229 230
l 230 231
l 232 233
l 224 233
l 207 223
l 209 234
l 208 235
l 207 210
l 224 236
l 225 237
l 231 232
l 234 238
l 235 238
l 218 219
l 236 237
l 239 240
l 240 241
l 241 242
l 242 243
l 243 244
l 239 244
l 245 246
l 246 247
l 247 248
l 248 249
l 249 250
l 250 251
l 251 252
l 252 253
l 253 254
l 245 254
l 255 256
l 256 257
l 257 258
l 255 258
l 5 114
l 6 113
l 7 112
l 259 260
l 8 260
l 260 261
l 9 261
l 261 262
l 10 262
l 262 263
l 22 263
l 263 264
l 23 264
l 264 265
l 24 265
l 265 266
l 25 266
l 266 267
l 26 267
l 267 268
l 27 268
l 268 269
l 28 269
l 269 270
l 29 270
l 270 271
l 30 271
l 271 272
l 31 272
l 272 273
l 32 273
l 273 274
l 33 274
l 274 275
l 34 236
l 35 224
l 4 115
l 14 193
l 192 277
l 11 147
l 144 277
l 12 146
l 13 145
l 13 191
l 2 194
l 3 205
l 36 204
l 37 203
l 38 202
l 39 201
l 40 200
l 42 198
l 43 197
l 44 196
l 1 195
l 15 188
l 16 187
l 17 186
l 18 185
l 19 184
l 20 190
l 21 189
l 47 248
l 48 140
l 49 139
l 51 143
l 45 138
l 46 137
l 53 119
l 54 118
l 55 117
l 116 233
l 56 232
l 57 231
l 58 230
l 59 229
l 60 228
l 61 166
l 60 167
l 63 183
l 52 182
l 66 178
l 65 179
l 67 181
l 69 180
l 71 168
l 70 227
l 72 151
l 84 148
l 72 220
l 73 219
l 74 218
l 75 217
l 76 159
l 75 160
l 77 158
l 78 162
l 79 164
l 79 211
l 80 210
l 81 207
l 82 223
l 83 222
l 83 149
l 87 209
l 88 208
l 89 235
l 85 238
l 86 234
l 94 287
l 287 288
l 95 288
l 288 289
l 96 289
l 289 290
l 97 290
l 290 291
l 98 291
l 291 292
l 103 292
l 292 293
l 104 293
l 293 294
l 105 294
l 294 295
l 106 295
l 295 296
l 107 296
l 296 297
l 108 297
l 297 298
l 109 298
l 298 299
l 110 299
l 299 300
l 111 300
l 259 300
l 120 177
l 121 176
l 122 244
l 142 243
l 123 242
l 124 174
l 125 173
l 126 172
l 127 171
l 128 170
l 129 169
l 130 226
l 131 225
l 302 303
l 132 303
l 303 304
l 287 304
l 90 246
l 91 153
l 92 152
l 133 157
l 134 156
l 135 155
l 136 251
l 100 256
l 99 257
l 101 255
l 102 258
l 150 221
l 154 253
l 161 216
l 77 215
l 163 214
l 78 213
l 165 212
l 175 240
l 275 308
l 237 308
l 302 308
