# pointcloud_to_mesh 0.5.1; candidate requires geometry validation; coordinates preserved
v 1.176919293 1.019095470 1.636565703
v -1.067004264 -1.044085198 1.623244184
v -0.253769979 -1.917226788 0.917452061
v 1.976795053 0.160296467 0.942367216
v 0.270652423 1.992122937 0.898417690
v -1.959912609 -0.085400318 0.895950767
v -0.253769979 -1.917226788 -1.377511363
v 1.976795053 0.160296467 -1.377511363
v 1.176919293 1.019095470 -1.377511363
v -1.067004264 -1.044085198 -1.377511363
v 0.270652423 1.992122937 -1.377511363
v -1.959912609 -0.085400318 -1.377511363
g roof
f 1 2 3
g roof
f 1 3 4
g roof
f 5 6 2
g roof
f 5 2 1
g facade_completed
f 4 3 7 8
g facade_completed
f 1 4 8 9
g facade_completed
f 3 2 10 7
g facade_completed
f 5 1 9 11
g facade_completed
f 6 5 11 12
g facade_completed
f 2 6 12 10
g ground_assumed
f 10 8 7
g ground_assumed
f 10 9 8
g ground_assumed
f 10 11 9
g ground_assumed
f 10 12 11
