# Source coordinates; no display transform
v 0.471638029966 0.178310087097 0.0670622140714
v -0.0545596659155 0.500149585565 0.0670250231001
v -0.0578721110907 0.497458392305 0.0670284892495
v -0.0846411965245 0.454241627729 0.067073343401
v -0.471111111118 -0.178114682228 0.0677275218906
v 0.056284616957 -0.500532309228 0.0677646764101
v 0.471638029966 0.178310087097 -0.0712297014347
v -0.0545596659155 0.500149585565 -0.0712297014347
v -0.0578721110907 0.497458392305 -0.0712297014347
v -0.0846411965245 0.454241627729 -0.0712297014347
v -0.471111111118 -0.178114682228 -0.0712297014347
v 0.056284616957 -0.500532309228 -0.0712297014347
g roof
f 1 2 3 4 5 6
g wall
f 2 1 7 8
g wall
f 3 2 8 9
g wall
f 4 3 9 10
g wall
f 5 4 10 11
g wall
f 6 5 11 12
g wall
f 1 6 12 7
g ground_assumed
f 12 11 10 9 8 7
