v 0.47163802996619136 0.17831008709670335 0.067062214071398951
v -0.054559665915547999 0.50014958556480871 0.06702502310009853
v -0.057872111090654904 0.49745839230534539 0.067028489249529172
v -0.084641196524547269 0.45424162772945231 0.067073343401040486
v -0.47111111111752252 -0.17811468222799456 0.067727521890615205
v 0.056284616957022242 -0.50053230922787262 0.067764676410131119
v 0.47163802996619136 0.17831008709670335 -0.071229701434686377
v -0.054559665915547999 0.50014958556480871 -0.071229701434686377
v -0.057872111090654904 0.49745839230534539 -0.071229701434686377
v -0.084641196524547269 0.45424162772945231 -0.071229701434686377
v -0.47111111111752252 -0.17811468222799456 -0.071229701434686377
v 0.056284616957022242 -0.50053230922787262 -0.071229701434686377
l 1 2
l 2 3
l 3 4
l 4 5
l 5 6
l 1 6
l 1 7
l 7 8
l 2 8
l 8 9
l 3 9
l 9 10
l 10 11
l 5 11
l 11 12
l 6 12
l 7 12
