# XYZ-only planar convex-roof baseline. Provisional base; no GT.
v 13.13428435 -4.37809478 3.62846838
v 13.13428435 3.10115047 3.23302086
v 12.40460188 5.10777725 3.12487924
v 12.03976065 5.29019786 3.11421121
v 1.45936493 4.92535663 3.10383508
v -8.75618956 4.56051540 3.09448193
v -12.40460188 4.19567417 3.10354232
v -12.76944311 4.01325355 3.11216440
v -13.13428435 1.09452370 3.26546241
v -13.13428435 -1.64178554 3.41013833
v -12.76944311 -5.29019786 3.60406253
v -12.40460188 -5.29019786 3.60508551
v -1.82420616 -4.92535663 3.61546163
v 13.13428435 -4.37809478 -3.66880624
v 13.13428435 3.10115047 -3.66880624
v 12.40460188 5.10777725 -3.66880624
v 12.03976065 5.29019786 -3.66880624
v 1.45936493 4.92535663 -3.66880624
v -8.75618956 4.56051540 -3.66880624
v -12.40460188 4.19567417 -3.66880624
v -12.76944311 4.01325355 -3.66880624
v -13.13428435 1.09452370 -3.66880624
v -13.13428435 -1.64178554 -3.66880624
v -12.76944311 -5.29019786 -3.66880624
v -12.40460188 -5.29019786 -3.66880624
v -1.82420616 -4.92535663 -3.66880624
g roof
f 1 2 3 4 5 6 7 8 9 10 11 12 13
g wall
f 2 1 14 15
g wall
f 3 2 15 16
g wall
f 4 3 16 17
g wall
f 5 4 17 18
g wall
f 6 5 18 19
g wall
f 7 6 19 20
g wall
f 8 7 20 21
g wall
f 9 8 21 22
g wall
f 10 9 22 23
g wall
f 11 10 23 24
g wall
f 12 11 24 25
g wall
f 13 12 25 26
g wall
f 1 13 26 14
g ground_assumed
f 26 25 24 23 22 21 20 19 18 17 16 15 14
