v 2684264.7500000028 1252133.5000000014 430.95133016161031
v 2684264.7500000028 1252138.6249999995 430.68035782796636
v 2684264.2499999981 1252140.000000003 430.60625599231582
v 2684263.9999999995 1252140.1249999988 430.59894594271816
v 2684256.7500000019 1252139.8750000002 430.59183591163162
v 2684249.7500000028 1252139.6250000014 430.58542685668942
v 2684247.2500000019 1252139.3750000026 430.59163530382301
v 2684247.0000000028 1252139.2499999998 430.59754340798429
v 2684246.7499999972 1252137.250000003 430.70258773728659
v 2684246.7499999972 1252135.3750000023 430.80172395557543
v 2684247.0000000028 1252132.8750000012 430.93460655153666
v 2684247.2500000019 1252132.8750000012 430.935307527681
v 2684254.4999999995 1252133.1249999998 430.94241755191524
v 2684264.7500000028 1252133.5000000014 425.95102181975443
v 2684264.7500000028 1252138.6249999995 425.95102181975443
v 2684264.2499999981 1252140.000000003 425.95102181975443
v 2684263.9999999995 1252140.1249999988 425.95102181975443
v 2684256.7500000019 1252139.8750000002 425.95102181975443
v 2684249.7500000028 1252139.6250000014 425.95102181975443
v 2684247.2500000019 1252139.3750000026 425.95102181975443
v 2684247.0000000028 1252139.2499999998 425.95102181975443
v 2684246.7499999972 1252137.250000003 425.95102181975443
v 2684246.7499999972 1252135.3750000023 425.95102181975443
v 2684247.0000000028 1252132.8750000012 425.95102181975443
v 2684247.2500000019 1252132.8750000012 425.95102181975443
v 2684254.4999999995 1252133.1249999998 425.95102181975443
l 1 2
l 2 3
l 3 4
l 4 5
l 5 6
l 6 7
l 7 8
l 8 9
l 9 10
l 10 11
l 11 12
l 12 13
l 1 13
l 1 14
l 14 15
l 2 15
l 15 16
l 3 16
l 16 17
l 4 17
l 17 18
l 18 19
l 19 20
l 7 20
l 20 21
l 8 21
l 21 22
l 22 23
l 23 24
l 11 24
l 24 25
l 25 26
l 14 26
