# XYZ-only planar convex-roof baseline. Provisional base; no GT.
v 4.79632545 -13.14919980 1.91700130
v 5.12128626 -2.77718356 1.95957602
v 5.12789360 13.17352681 2.02556685
v 4.68189840 13.35162456 2.02677121
v 4.02897344 13.35943323 2.02748788
v -4.38036360 13.35402722 2.03627968
v -5.02578022 13.28224753 2.03665917
v -5.12729293 9.44999250 2.02090920
v -5.11738192 -13.30086820 1.92676471
v 4.69331107 -13.30236987 1.91647552
v 4.79632545 -13.14919980 -3.90326527
v 5.12128626 -2.77718356 -3.90326527
v 5.12789360 13.17352681 -3.90326527
v 4.68189840 13.35162456 -3.90326527
v 4.02897344 13.35943323 -3.90326527
v -4.38036360 13.35402722 -3.90326527
v -5.02578022 13.28224753 -3.90326527
v -5.12729293 9.44999250 -3.90326527
v -5.11738192 -13.30086820 -3.90326527
v 4.69331107 -13.30236987 -3.90326527
g roof
f 1 2 3 4 5 6 7 8 9 10
g wall
f 2 1 11 12
g wall
f 3 2 12 13
g wall
f 4 3 13 14
g wall
f 5 4 14 15
g wall
f 6 5 15 16
g wall
f 7 6 16 17
g wall
f 8 7 17 18
g wall
f 9 8 18 19
g wall
f 10 9 19 20
g wall
f 1 10 20 11
g ground_assumed
f 20 19 18 17 16 15 14 13 12 11
