# Source coordinates; no display transform
v 0.18367254124 -0.497737350723 0.0771450755274
v 0.19597498581 -0.105071063158 0.0787568795257
v 0.196225128078 0.498794769684 0.0812551762532
v 0.179340534437 0.505537237175 0.081300771204
v 0.154621944129 0.505832859684 0.0813279030694
v -0.163740761827 0.505628197656 0.0816607451501
v -0.188175099591 0.502910744873 0.0816751119739
v -0.192018192203 0.357828311447 0.0810788458183
v -0.1916429788 -0.50347924952 0.0775147010534
v 0.179772598045 -0.503536100104 0.0771251704216
v 0.18367254124 -0.497737350723 -0.143199977334
v 0.19597498581 -0.105071063158 -0.143199977334
v 0.196225128078 0.498794769684 -0.143199977334
v 0.179340534437 0.505537237175 -0.143199977334
v 0.154621944129 0.505832859684 -0.143199977334
v -0.163740761827 0.505628197656 -0.143199977334
v -0.188175099591 0.502910744873 -0.143199977334
v -0.192018192203 0.357828311447 -0.143199977334
v -0.1916429788 -0.50347924952 -0.143199977334
v 0.179772598045 -0.503536100104 -0.143199977334
g roof
f 1 2 3 4 5 6 7 8 9 10
g wall
f 2 1 11 12
g wall
f 3 2 12 13
g wall
f 4 3 13 14
g wall
f 5 4 14 15
g wall
f 6 5 15 16
g wall
f 7 6 16 17
g wall
f 8 7 17 18
g wall
f 9 8 18 19
g wall
f 10 9 19 20
g wall
f 1 10 20 11
g ground_assumed
f 20 19 18 17 16 15 14 13 12 11
