v 0.18367254124039611 -0.49773735072332009 0.077145075527386475
v 0.195974985809931 -0.10507106315801031 0.078756879525731613
v 0.19622512807816966 0.49879476968389708 0.081255176253181918
v 0.17934053443662057 0.50553723717508126 0.081300771203975414
v 0.15462194412886682 0.50583285968364411 0.081327903069352184
v -0.16374076182677394 0.50562819765572953 0.08166074515011397
v -0.18817509959140033 0.50291074487290499 0.081675111973884801
v -0.19201819220271638 0.35782831144686705 0.081078845818292583
v -0.19164297880035841 -0.50347924952013212 0.077514701053414195
v 0.17977259804473811 -0.50353610010447403 0.077125170421580749
v 0.18367254124039611 -0.49773735072332009 -0.1431999773340405
v 0.195974985809931 -0.10507106315801031 -0.1431999773340405
v 0.19622512807816966 0.49879476968389708 -0.1431999773340405
v 0.17934053443662057 0.50553723717508126 -0.1431999773340405
v 0.15462194412886682 0.50583285968364411 -0.1431999773340405
v -0.16374076182677394 0.50562819765572953 -0.1431999773340405
v -0.18817509959140033 0.50291074487290499 -0.1431999773340405
v -0.19201819220271638 0.35782831144686705 -0.1431999773340405
v -0.19164297880035841 -0.50347924952013212 -0.1431999773340405
v 0.17977259804473811 -0.50353610010447403 -0.1431999773340405
l 1 2
l 2 3
l 3 4
l 4 5
l 5 6
l 6 7
l 7 8
l 8 9
l 9 10
l 1 10
l 1 11
l 11 12
l 12 13
l 3 13
l 13 14
l 4 14
l 14 15
l 15 16
l 16 17
l 7 17
l 17 18
l 18 19
l 9 19
l 19 20
l 10 20
l 11 20
