# Source coordinates; no display transform
v -0.374436691159 -0.213263380219 0.267637190729
v -0.368074181808 -0.264858215618 0.267622685139
v -0.306891191358 -0.288706658382 0.267609153689
v -0.0719950340684 -0.380266543266 0.267557203325
v 0.0259824669623 -0.482251987512 0.267518520791
v 0.121819763595 -0.390181017033 0.26753184213
v 0.151492816478 -0.361674090457 0.26753596669
v 0.384592166675 -0.137735351066 0.267568367365
v 0.49807851648 -0.0287089204908 0.267584141916
v 0.441305605791 0.0303863866376 0.267606556444
v 0.499833549395 0.121964776768 0.267624119446
v 0.31780501733 0.311439508347 0.267695986161
v 0.162214749329 0.473394471866 0.26775741476
v -0.0115042842652 0.325882901431 0.267738436479
v -0.0546093915934 0.284471788979 0.26773244492
v -0.0987675518687 0.266782677642 0.267732903199
v -0.128138428947 0.297355022508 0.267744499086
v -0.175305658896 0.4342300515 0.267786530871
v -0.355897522562 0.444336292376 0.26781039332
v -0.36297300968 0.320636105224 0.267778232963
v -0.394158019615 0.290676640258 0.267773898292
v -0.433844793305 0.285523157314 0.267777175603
v -0.448094602807 -0.00222122093375 0.267702107146
v -0.50056046565 -0.157753650453 0.267666777639
v -0.368074181808 -0.264858215618 -0.266153582307
v -0.306891191407 -0.288706658432 -0.266153582307
v -0.0719950340684 -0.380266543266 -0.266153582307
v 0.0259824669623 -0.482251987512 -0.266153582307
v 0.121819763595 -0.390181017033 -0.266153582307
v 0.151492816478 -0.361674090457 -0.266153582307
v 0.384592166675 -0.137735351066 -0.266153582307
v 0.49807851648 -0.0287089204908 -0.266153582307
v 0.441305605791 0.0303863866376 -0.266153582307
v 0.499833549395 0.121964776768 -0.266153582307
v 0.31780501733 0.311439508347 -0.266153582307
v 0.162214749329 0.473394471866 -0.266153582307
v -0.0115042842652 0.325882901431 -0.266153582307
v -0.0546093915934 0.284471788979 -0.266153582307
v -0.0987675518687 0.266782677642 -0.266153582307
v -0.128138428947 0.297355022508 -0.266153582307
v -0.175305658896 0.4342300515 -0.266153582307
v -0.355897522562 0.444336292376 -0.266153582307
v -0.36297300968 0.320636105224 -0.266153582307
v -0.394158019615 0.290676640258 -0.266153582307
v -0.433844793305 0.285523157314 -0.266153582307
v -0.448094602807 -0.00222122093375 -0.266153582307
v -0.50056046565 -0.157753650453 -0.266153582307
v -0.374436691159 -0.213263380219 -0.266153582307
g roof
f 1 2 3
g roof
f 1 3 4
g roof
f 4 5 6
g roof
f 4 6 7
g roof
f 4 7 8
g roof
f 4 8 9
g roof
f 4 9 10
g roof
f 4 10 11
g roof
f 4 11 12
g roof
f 4 12 13
g roof
f 4 13 14
g roof
f 4 14 15
g roof
f 4 15 16
g roof
f 4 16 17
g roof
f 4 17 18
g roof
f 4 18 19
g roof
f 4 19 20
g roof
f 4 20 21
g roof
f 4 21 22
g roof
f 4 22 23
g roof
f 23 24 1
g roof
f 23 1 4
g facade_completed
f 3 2 25 26
g facade_completed
f 4 3 26 27
g facade_completed
f 5 4 27 28
g facade_completed
f 6 5 28 29
g facade_completed
f 7 6 29 30
g facade_completed
f 8 7 30 31
g facade_completed
f 9 8 31 32
g facade_completed
f 10 9 32 33
g facade_completed
f 11 10 33 34
g facade_completed
f 12 11 34 35
g facade_completed
f 13 12 35 36
g facade_completed
f 14 13 36 37
g facade_completed
f 15 14 37 38
g facade_completed
f 16 15 38 39
g facade_completed
f 17 16 39 40
g facade_completed
f 18 17 40 41
g facade_completed
f 19 18 41 42
g facade_completed
f 20 19 42 43
g facade_completed
f 21 20 43 44
g facade_completed
f 22 21 44 45
g facade_completed
f 23 22 45 46
g facade_completed
f 24 23 46 47
g facade_completed
f 1 24 47 48
g facade_completed
f 2 1 48 25
g ground_assumed
f 33 35 34
g ground_assumed
f 33 36 35
g ground_assumed
f 33 37 36
g ground_assumed
f 33 38 37
g ground_assumed
f 33 39 38
g ground_assumed
f 40 42 41
g ground_assumed
f 40 43 42
g ground_assumed
f 40 44 43
g ground_assumed
f 40 45 44
g ground_assumed
f 40 46 45
g ground_assumed
f 40 47 46
g ground_assumed
f 40 48 47
g ground_assumed
f 40 25 48
g ground_assumed
f 40 26 25
g ground_assumed
f 40 27 26
g ground_assumed
f 40 28 27
g ground_assumed
f 40 29 28
g ground_assumed
f 40 30 29
g ground_assumed
f 31 33 32
g ground_assumed
f 31 39 33
g ground_assumed
f 39 30 40
g ground_assumed
f 39 31 30
