# XYZ-only planar convex-roof baseline. Provisional base; no GT.
v -10.57359796 -0.45442002 5.34335800
v -10.38538405 -8.75420958 2.80014062
v 10.88934048 -8.27176374 2.71918227
v 10.69324204 0.37571518 5.36893845
v 10.50388424 8.72594794 2.84253241
v -10.77084029 8.24350210 2.71175675
v -10.57359796 -0.45442002 -5.42141713
v -10.38538405 -8.75420958 -5.42141713
v 10.88934048 -8.27176374 -5.42141713
v 10.69324204 0.37571518 -5.42141713
v 10.50388424 8.72594794 -5.42141713
v -10.77084029 8.24350210 -5.42141713
g roof
f 1 2 3 4
g roof
f 5 6 1 4
g wall
f 2 1 7 8
g wall
f 3 2 8 9
g wall
f 4 3 9 10
g wall
f 6 5 11 12
g wall
f 1 6 12 7
g wall
f 5 4 10 11
g ground_assumed
f 12 11 10 9 8 7
