v -0.50168425499532376 -0.021110532252751314 0.25253902024896513
v -0.49279971211312229 -0.41289792065070829 0.13248772397989508
v 0.51146295048077772 -0.390124307617433 0.1286661258193379
v 0.50220622232868295 0.018075582006417408 0.25374653251504053
v 0.49326768269481996 0.41224411626928664 0.13448880708851485
v -0.51099497989908005 0.38947050323601135 0.12831560788544746
v -0.50168425499532376 -0.021110532252751314 -0.25560677120577369
v -0.49279971211312229 -0.41289792065070829 -0.25560677120577369
v 0.51146295048077772 -0.390124307617433 -0.25560677120577369
v 0.50220622232868295 0.018075582006417408 -0.25560677120577369
v 0.49326768269481996 0.41224411626928664 -0.25560677120577369
v -0.51099497989908005 0.38947050323601135 -0.25560677120577369
l 1 2
l 2 3
l 3 4
l 1 4
l 5 6
l 1 6
l 4 5
l 7 8
l 2 8
l 8 9
l 3 9
l 9 10
l 5 11
l 11 12
l 6 12
l 7 12
l 10 11
