# XYZ-only planar convex-roof baseline. Provisional base; no GT.
v 10.76045329 -2.96216608 4.34623771
v 10.65895772 0.37437692 5.36889721
v -10.54649318 -0.45336200 5.34339060
v -10.31940441 -8.58017706 2.85271597
v -9.90650758 -8.71825620 2.80600146
v -9.08942766 -8.72060220 2.79650078
v -5.21449817 -8.63447032 2.78122257
v 2.49447329 -8.45617396 2.75295264
v 10.42530976 -8.25642842 2.72886522
v 10.76212901 -8.08952694 2.77634610
v 10.76212901 -7.63574260 2.91528386
v 10.76112358 -4.79975805 3.78360439
v 10.76078844 -3.87777821 4.06589587
v 10.41793661 8.29765107 2.97087213
v 10.30700410 8.54599242 2.89436612
v 9.68631828 8.66865496 2.84922036
v 8.85382176 8.67569297 2.83626947
v 8.12220343 8.66295752 2.83060688
v -4.88538723 8.36836635 2.75053401
v -7.51793965 8.30837566 2.73444011
v -10.02481325 8.22727093 2.72636214
v -10.76045329 8.09555952 2.75660896
v -10.76112358 7.99132988 2.78810473
v -10.76112358 7.87604051 2.82295214
v -10.64818021 3.18570682 4.24212238
v 10.76045329 -2.96216608 -5.42141713
v 10.65895772 0.37437692 -5.42141713
v 10.41793661 8.29765107 -5.42141713
v 10.30700410 8.54599242 -5.42141713
v 9.68631828 8.66865496 -5.42141713
v 8.85382176 8.67569297 -5.42141713
v 8.12220343 8.66295752 -5.42141713
v -4.88538723 8.36836635 -5.42141713
v -7.51793965 8.30837566 -5.42141713
v -10.02481325 8.22727093 -5.42141713
v -10.76045329 8.09555952 -5.42141713
v -10.76112358 7.99132988 -5.42141713
v -10.76112358 7.87604051 -5.42141713
v -10.64818021 3.18570682 -5.42141713
v -10.54649318 -0.45336200 -5.42141713
v -10.31940441 -8.58017706 -5.42141713
v -9.90650758 -8.71825620 -5.42141713
v -9.08942766 -8.72060220 -5.42141713
v -5.21449817 -8.63447032 -5.42141713
v 2.49447329 -8.45617396 -5.42141713
v 10.42530976 -8.25642842 -5.42141713
v 10.76212901 -8.08952694 -5.42141713
v 10.76212901 -7.63574260 -5.42141713
v 10.76112358 -4.79975805 -5.42141713
v 10.76078844 -3.87777821 -5.42141713
g roof
f 1 2 3 4 5 6 7 8 9 10 11 12 13
g roof
f 2 14 15 16 17 18 19 20 21 22 23 24 25 3
g wall
f 2 1 26 27
g wall
f 4 3 40 41
g wall
f 5 4 41 42
g wall
f 6 5 42 43
g wall
f 7 6 43 44
g wall
f 8 7 44 45
g wall
f 9 8 45 46
g wall
f 10 9 46 47
g wall
f 11 10 47 48
g wall
f 12 11 48 49
g wall
f 13 12 49 50
g wall
f 1 13 50 26
g wall
f 14 2 27 28
g wall
f 15 14 28 29
g wall
f 16 15 29 30
g wall
f 17 16 30 31
g wall
f 18 17 31 32
g wall
f 19 18 32 33
g wall
f 20 19 33 34
g wall
f 21 20 34 35
g wall
f 22 21 35 36
g wall
f 23 22 36 37
g wall
f 24 23 37 38
g wall
f 25 24 38 39
g wall
f 3 25 39 40
g ground_assumed
f 50 49 48 47 46 45 44 43 42 41 40 39 38 37 36 35 34 33 32 31 30 29 28 27 26
