v 0.50537889555348015 -0.13948742271606401 0.20547045886995668
v 0.50058784826043734 0.018012410116743927 0.25374458580159909
v -0.50040478749888506 -0.021060588951216232 0.25254055911555562
v -0.48968517641843207 -0.40468280314511279 0.13496951691231837
v -0.47019458939401892 -0.41120075944530071 0.13276438198198284
v -0.43162474305574483 -0.41131150119441817 0.13231590716484484
v -0.24871064696469555 -0.40724568915435894 0.13159470695223421
v 0.1151874704169439 -0.39882929922780969 0.13026023913653539
v 0.48955861391766803 -0.38940041155601929 0.12912320460007845
v 0.50545799707258965 -0.38152191120414364 0.13136451564050403
v 0.50545799707258965 -0.36010124985131642 0.13792300266559701
v 0.505410536255533 -0.22623002668967093 0.17891163620644907
v 0.505394716140529 -0.18270843243021762 0.19223706342561753
v 0.48921056808326663 0.39202657810843733 0.14054701897003694
v 0.48397405478770184 0.40374940653009217 0.13693559127805002
v 0.45467489308299897 0.40953962998737947 0.13480450840181851
v 0.41537731390182425 0.40987185570677698 0.13419316815832816
v 0.38084163890155653 0.40927068520004278 0.1339258684476993
v -0.23317513070326923 0.39536465730559595 0.13014606892482691
v -0.35744344256785598 0.3925328269810579 0.12938636447635199
v -0.47577914899603013 0.38870431902628261 0.12900504796862874
v -0.51050466679247997 0.38248694821548429 0.13043283388169025
v -0.51053630749453283 0.377566840524313 0.13191957585083036
v -0.51053630749453283 0.37212466384551707 0.13356453029908902
v -0.50520487256485436 0.15071982293530334 0.20055574712479632
v 0.50537889555348015 -0.13948742271606401 -0.25560677120577369
v 0.50058784826043734 0.018012410116743927 -0.25560677120577369
v 0.48921056808326663 0.39202657810843733 -0.25560677120577369
v 0.48397405478770184 0.40374940653009217 -0.25560677120577369
v 0.45467489308299897 0.40953962998737947 -0.25560677120577369
v 0.41537731390182425 0.40987185570677698 -0.25560677120577369
v 0.38084163890155653 0.40927068520004278 -0.25560677120577369
v -0.23317513070326923 0.39536465730559595 -0.25560677120577369
v -0.35744344256785598 0.3925328269810579 -0.25560677120577369
v -0.47577914899603013 0.38870431902628261 -0.25560677120577369
v -0.51050466679247997 0.38248694821548429 -0.25560677120577369
v -0.51053630749453283 0.377566840524313 -0.25560677120577369
v -0.51053630749453283 0.37212466384551707 -0.25560677120577369
v -0.50520487256485436 0.15071982293530334 -0.25560677120577369
v -0.50040478749888506 -0.021060588951216232 -0.25560677120577369
v -0.48968517641843207 -0.40468280314511279 -0.25560677120577369
v -0.47019458939401892 -0.41120075944530071 -0.25560677120577369
v -0.43162474305574483 -0.41131150119441817 -0.25560677120577369
v -0.24871064696469555 -0.40724568915435894 -0.25560677120577369
v 0.1151874704169439 -0.39882929922780969 -0.25560677120577369
v 0.48955861391766803 -0.38940041155601929 -0.25560677120577369
v 0.50545799707258965 -0.38152191120414364 -0.25560677120577369
v 0.50545799707258965 -0.36010124985131642 -0.25560677120577369
v 0.505410536255533 -0.22623002668967093 -0.25560677120577369
v 0.505394716140529 -0.18270843243021762 -0.25560677120577369
l 1 2
l 2 3
l 3 4
l 4 5
l 5 6
l 6 7
l 7 8
l 8 9
l 9 10
l 10 11
l 11 12
l 12 13
l 1 13
l 2 14
l 14 15
l 15 16
l 16 17
l 17 18
l 18 19
l 19 20
l 20 21
l 21 22
l 22 23
l 23 24
l 24 25
l 3 25
l 26 27
l 40 41
l 4 41
l 41 42
l 5 42
l 42 43
l 43 44
l 44 45
l 45 46
l 9 46
l 46 47
l 10 47
l 47 48
l 48 49
l 49 50
l 26 50
l 27 28
l 14 28
l 28 29
l 15 29
l 29 30
l 16 30
l 30 31
l 31 32
l 32 33
l 33 34
l 34 35
l 35 36
l 22 36
l 36 37
l 37 38
l 38 39
l 39 40
