# Source coordinates; no display transform
v 2685778 1251569 435.31899453
v 2685781 1251576.125 435.320139718
v 2685781 1251576.375 435.320038066
v 2685780.75 1251576.75 435.319548756
v 2685778.5 1251577.75 435.316110571
v 2685769.75 1251581.375 435.302847152
v 2685769.5 1251581.375 435.302510308
v 2685768.5 1251579.375 435.301976112
v 2685766 1251573.375 435.301047204
v 2685767 1251572.875 435.302597874
v 2685777 1251568.75 435.317748801
v 2685777.75 1251568.5 435.318860983
v 2685778 1251569 426.891026058
v 2685781 1251576.125 426.891026058
v 2685781 1251576.375 426.891026058
v 2685780.75 1251576.75 426.891026058
v 2685778.5 1251577.75 426.891026058
v 2685769.75 1251581.375 426.891026058
v 2685769.5 1251581.375 426.891026058
v 2685768.5 1251579.375 426.891026058
v 2685766 1251573.375 426.891026058
v 2685767 1251572.875 426.891026058
v 2685777 1251568.75 426.891026058
v 2685777.75 1251568.5 426.891026058
g roof
f 1 2 3 4 5 6 7 8 9 10 11 12
g wall
f 2 1 13 14
g wall
f 3 2 14 15
g wall
f 4 3 15 16
g wall
f 5 4 16 17
g wall
f 6 5 17 18
g wall
f 7 6 18 19
g wall
f 8 7 19 20
g wall
f 9 8 20 21
g wall
f 10 9 21 22
g wall
f 11 10 22 23
g wall
f 12 11 23 24
g wall
f 1 12 24 13
g ground_assumed
f 24 23 22 21 20 19 18 17 16 15 14 13
