# XYZ-only planar convex-roof baseline. Provisional base; no GT.
v 6.16265383 -8.13127936 5.43544483
v 10.27108972 1.62625587 5.43701314
v 10.27108972 1.96862553 5.43687393
v 9.92872006 2.48218002 5.43620383
v 6.84739315 3.85165864 5.43149531
v -5.13554486 8.81601868 5.41333134
v -5.47791452 8.81601868 5.41287004
v -6.84739315 6.07706142 5.41213847
v -10.27108972 -2.13981036 5.41086635
v -8.90161109 -2.82454967 5.41298996
v 4.79317520 -8.47364902 5.43373883
v 5.82028417 -8.81601868 5.43526194
v 6.16265383 -8.13127936 -6.10647788
v 10.27108972 1.62625587 -6.10647788
v 10.27108972 1.96862553 -6.10647788
v 9.92872006 2.48218002 -6.10647788
v 6.84739315 3.85165864 -6.10647788
v -5.13554486 8.81601868 -6.10647788
v -5.47791452 8.81601868 -6.10647788
v -6.84739315 6.07706142 -6.10647788
v -10.27108972 -2.13981036 -6.10647788
v -8.90161109 -2.82454967 -6.10647788
v 4.79317520 -8.47364902 -6.10647788
v 5.82028417 -8.81601868 -6.10647788
g roof
f 1 2 3 4 5 6 7 8 9 10 11 12
g wall
f 2 1 13 14
g wall
f 3 2 14 15
g wall
f 4 3 15 16
g wall
f 5 4 16 17
g wall
f 6 5 17 18
g wall
f 7 6 18 19
g wall
f 8 7 19 20
g wall
f 9 8 20 21
g wall
f 10 9 21 22
g wall
f 11 10 22 23
g wall
f 12 11 23 24
g wall
f 1 12 24 13
g ground_assumed
f 24 23 22 21 20 19 18 17 16 15 14 13
