v 2685777.9999999991 1251569.0000000007 435.31899453017729
v 2685781.0000000005 1251576.1249999984 435.32013971781771
v 2685781.0000000005 1251576.3750000002 435.32003806599414
v 2685780.7499999986 1251576.7500000033 435.31954875569335
v 2685778.5000000028 1251577.7499999965 435.31611057133654
v 2685769.7499999995 1251581.375000003 435.3028471515122
v 2685769.4999999977 1251581.375000003 435.30251030799371
v 2685768.4999999972 1251579.3750000021 435.30197611199799
v 2685765.9999999995 1251573.3749999986 435.30104720374567
v 2685767 1251572.8750000021 435.30259787416486
v 2685776.9999999981 1251568.7499999988 435.31774880062477
v 2685777.7499999967 1251568.499999997 435.31886098300384
v 2685777.9999999991 1251569.0000000007 426.89102605838349
v 2685781.0000000005 1251576.1249999984 426.89102605838349
v 2685781.0000000005 1251576.3750000002 426.89102605838349
v 2685780.7499999986 1251576.7500000033 426.89102605838349
v 2685778.5000000028 1251577.7499999965 426.89102605838349
v 2685769.7499999995 1251581.375000003 426.89102605838349
v 2685769.4999999977 1251581.375000003 426.89102605838349
v 2685768.4999999972 1251579.3750000021 426.89102605838349
v 2685765.9999999995 1251573.3749999986 426.89102605838349
v 2685767 1251572.8750000021 426.89102605838349
v 2685776.9999999981 1251568.7499999988 426.89102605838349
v 2685777.7499999967 1251568.499999997 426.89102605838349
l 1 2
l 2 3
l 3 4
l 4 5
l 5 6
l 6 7
l 7 8
l 8 9
l 9 10
l 10 11
l 11 12
l 1 12
l 13 14
l 2 14
l 14 15
l 3 15
l 15 16
l 4 16
l 16 17
l 17 18
l 6 18
l 18 19
l 7 19
l 19 20
l 20 21
l 9 21
l 21 22
l 22 23
l 23 24
l 12 24
l 13 24
