# Source coordinates; no display transform
v 0.524102153146 0.17941299001 0.279143039183
v -0.334062851272 0.448987120146 0.278957394828
v -0.530148821852 -0.175234936095 0.278914997626
v 0.328016182566 -0.444809066232 0.27910064198
v 0.524102153146 0.17941299001 -0.362012747182
v -0.334062851272 0.448987120146 -0.362012747182
v -0.530148821852 -0.175234936095 -0.362012747182
v 0.328016182566 -0.444809066232 -0.362012747182
g roof
f 1 2 3 4
g wall
f 2 1 5 6
g wall
f 3 2 6 7
g wall
f 4 3 7 8
g wall
f 1 4 8 5
g ground_assumed
f 8 7 6 5
