# pointcloud_to_mesh 0.5.1; candidate requires geometry validation; coordinates preserved
v -7.274993957 -1.671509326 0.008433718
v -7.882624418 -1.975315634 0.016349432
v -7.915132264 -2.885535322 0.038373131
v -7.307501803 -2.581729014 0.030457417
v -9.097856787 -1.671548587 0.010159872
v -10.313057034 -0.456301941 -0.018053093
v -10.345564880 -1.366521629 0.003970606
v -10.345593433 -2.277901291 0.025991594
v -9.721705480 -2.886156354 0.040097926
v -9.130364633 -2.581768275 0.032183572
v -4.860847386 -1.063286385 -0.008547114
v -4.860879509 -1.974765984 0.013476292
v -4.253277601 -2.582339339 0.027581566
v -4.253216925 -0.759480078 -0.016462828
v -5.468460002 2.278529462 -0.088717760
v -4.860886647 2.886131370 -0.103973798
v -5.468431448 3.189909125 -0.110738748
v -6.683649541 2.886088540 -0.102247652
v -6.076090463 1.974723154 -0.080802046
v -6.076051202 0.151860324 -0.036757661
v -4.253227633 1.974762415 -0.082528200
v -4.860847386 1.063268540 -0.059929413
v -5.468488555 1.367149800 -0.066696772
v -5.468477847 0.759462232 -0.052013699
v -12.776026049 1.367667327 -0.059793230
v -12.743514634 2.277986951 -0.081819347
v -13.367334774 1.974758846 -0.073902282
v -4.253299016 2.886145647 -0.104549180
v 12.776051033 -2.582942526 0.011479132
v 12.152188064 -3.189962662 0.026736530
v 12.743543187 -3.493162214 0.033502831
v 8.474372148 -3.177988153 0.029927981
v 9.097474888 -3.200241823 0.029875959
v 9.130371772 -2.279129080 0.007588691
v 8.539005941 -1.368241960 -0.013860685
v 14.631396726 -0.457408378 -0.041634451
v 14.007487357 -1.368320482 -0.019034303
v 13.942857134 -3.177966739 0.024751945
v 14.533480581 -3.199060433 0.024702634
v 2.446657986 -1.975283511 0.006572749
v 2.414146571 -2.885603135 0.028598867
v 3.038066646 -2.582378600 0.020681793
v 3.646057592 -3.179058899 0.034523498
v 4.171622517 -3.197829075 0.034479618
v 4.334554354 1.364262355 -0.075904865
v 3.645686400 0.455670201 -0.053299294
v 3.086757032 1.061605314 -0.067411049
v 2.989229925 -1.669153685 -0.001337533
v 11.609551880 1.668600466 -0.090143601
v 11.479516927 -1.972378221 -0.002046386
v 12.087090282 -1.364776313 -0.017302424
v 12.217125235 2.276202374 -0.105399639
v 13.974968804 0.455702323 -0.063075977
v 14.539255471 -0.454117619 -0.041626758
v 14.625943060 1.973134881 -0.100356623
v 13.975029480 2.278561585 -0.107120370
v 13.399878311 1.973595302 -0.099207368
v 13.334859050 0.153055990 -0.055157551
v -0.059587010 -2.276423662 0.132488925
v -0.010050735 -3.015962882 0.140307405
v 1.176492782 -3.058339436 0.138701223
v 1.247700954 -1.064510605 0.117266933
v 0.607591201 -1.367156938 0.121612560
v -0.000007138 -0.759483647 0.116171963
v 0.596773098 -0.151496270 0.108637942
v 0.618444995 0.455316855 0.102114509
v 0.059611994 1.061148463 0.096608970
v -7.340023925 -0.757806145 0.128891832
v -7.242496818 1.972952855 0.099535310
v -7.898921171 2.886163493 0.090913760
v -8.457782725 2.580615438 0.095149404
v -8.555309832 -0.150143561 0.124505925
v -7.898910463 0.151921000 0.120138248
v 0.016271769 1.974177074 0.086925424
v -0.016239646 1.063857450 0.096711648
v 0.591333708 1.671459358 0.089163016
v 0.623845124 2.581778982 0.079376793
v 3.065474173 2.592240170 0.075027799
v 3.010905392 1.064314302 0.091453485
v 3.629371802 1.671527172 0.083890108
v 3.661494179 2.570953741 0.074220988
v -2.446715092 2.279079112 0.087940774
v -2.414203677 3.189398736 0.078154550
v -3.021777032 2.581796828 0.085703182
v -3.054288447 1.671477204 0.095489405
v -7.915132264 -2.885535322 -0.358923824
v -7.307501803 -2.581729014 -0.358923824
v -7.274993957 -1.671509326 -0.358923824
v -7.882624418 -1.975315634 -0.358923824
v -10.345564880 -1.366521629 -0.358923824
v -10.345593433 -2.277901291 -0.358923824
v -9.721705480 -2.886156354 -0.358923824
v -9.130364633 -2.581768275 -0.358923824
v -9.097856787 -1.671548587 -0.358923824
v -10.313057034 -0.456301941 -0.358923824
v -4.253277601 -2.582339339 -0.358923824
v -4.253216925 -0.759480078 -0.358923824
v -4.860847386 -1.063286385 -0.358923824
v -4.860879509 -1.974765984 -0.358923824
v -4.860886647 2.886131370 -0.358923824
v -5.468431448 3.189909125 -0.358923824
v -6.683649541 2.886088540 -0.358923824
v -6.076090463 1.974723154 -0.358923824
v -6.076051202 0.151860324 -0.358923824
v -5.468477847 0.759462232 -0.358923824
v -4.253227633 1.974762415 -0.358923824
v -4.860847386 1.063268540 -0.358923824
v -5.468488555 1.367149800 -0.358923824
v -5.468460002 2.278529462 -0.358923824
v -13.367334774 1.974758846 -0.358923824
v -12.776026049 1.367667327 -0.358923824
v -12.743514634 2.277986951 -0.358923824
v -4.253299016 2.886145647 -0.358923824
v 12.743543187 -3.493162214 -0.358923824
v 12.776051033 -2.582942526 -0.358923824
v 12.152188064 -3.189962662 -0.358923824
v 9.130371772 -2.279129080 -0.358923824
v 8.539005941 -1.368241960 -0.358923824
v 8.474372148 -3.177988153 -0.358923824
v 9.097474888 -3.200241823 -0.358923824
v 13.942857134 -3.177966739 -0.358923824
v 14.533480581 -3.199060433 -0.358923824
v 14.631396726 -0.457408378 -0.358923824
v 14.007487357 -1.368320482 -0.358923824
v 3.038066646 -2.582378600 -0.358923824
v 3.646057592 -3.179058899 -0.358923824
v 4.171622517 -3.197829075 -0.358923824
v 4.334554354 1.364262355 -0.358923824
v 3.645686400 0.455670201 -0.358923824
v 3.086757032 1.061605314 -0.358923824
v 2.989229925 -1.669153685 -0.358923824
v 2.446657986 -1.975283511 -0.358923824
v 2.414146571 -2.885603135 -0.358923824
v 12.087090282 -1.364776313 -0.358923824
v 12.217125235 2.276202374 -0.358923824
v 11.609551880 1.668600466 -0.358923824
v 11.479516927 -1.972378221 -0.358923824
v 14.539255471 -0.454117619 -0.358923824
v 14.625943060 1.973134881 -0.358923824
v 13.975029480 2.278561585 -0.358923824
v 13.399878311 1.973595302 -0.358923824
v 13.334859050 0.153055990 -0.358923824
v 13.974968804 0.455702323 -0.358923824
v 1.176492782 -3.058339436 -0.358923824
v 1.247700954 -1.064510605 -0.358923824
v 0.607591201 -1.367156938 -0.358923824
v -0.000007138 -0.759483647 -0.358923824
v 0.596773098 -0.151496270 -0.358923824
v 0.618444995 0.455316855 -0.358923824
v 0.059611994 1.061148463 -0.358923824
v -0.059587010 -2.276423662 -0.358923824
v -0.010050735 -3.015962882 -0.358923824
v -7.898921171 2.886163493 -0.358923824
v -8.457782725 2.580615438 -0.358923824
v -8.555309832 -0.150143561 -0.358923824
v -7.898910463 0.151921000 -0.358923824
v -7.340023925 -0.757806145 -0.358923824
v -7.242496818 1.972952855 -0.358923824
v 0.591333708 1.671459358 -0.358923824
v 0.623845124 2.581778982 -0.358923824
v 0.016271769 1.974177074 -0.358923824
v -0.016239646 1.063857450 -0.358923824
v 3.629371802 1.671527172 -0.358923824
v 3.661494179 2.570953741 -0.358923824
v 3.065474173 2.592240170 -0.358923824
v 3.010905392 1.064314302 -0.358923824
v -3.021777032 2.581796828 -0.358923824
v -3.054288447 1.671477204 -0.358923824
v -2.446715092 2.279079112 -0.358923824
v -2.414203677 3.189398736 -0.358923824
g roof
f 1 2 3
g roof
f 1 3 4
g roof
f 5 6 7
g roof
f 5 7 8
g roof
f 5 8 9
g roof
f 5 9 10
g roof
f 11 12 13
g roof
f 11 13 14
g roof
f 15 16 17
g roof
f 15 17 18
g roof
f 15 18 19
g roof
f 15 19 20
g roof
f 14 21 22
g roof
f 14 22 23
g roof
f 23 15 20
g roof
f 23 20 24
g roof
f 23 24 14
g roof
f 25 26 27
g roof
f 21 28 16
g roof
f 29 30 31
g roof
f 32 33 34
g roof
f 32 34 35
g roof
f 36 37 38
g roof
f 36 38 39
g roof
f 40 41 42
g roof
f 40 42 43
g roof
f 40 43 44
g roof
f 44 45 46
g roof
f 44 46 47
g roof
f 44 47 48
g roof
f 44 48 40
g roof
f 49 50 51
g roof
f 49 51 52
g roof
f 53 54 55
g roof
f 53 55 56
g roof
f 53 56 57
g roof
f 53 57 58
g roof
f 59 60 61
g roof
f 59 61 62
g roof
f 59 62 63
g roof
f 59 63 64
g roof
f 64 65 66
g roof
f 64 66 67
g roof
f 64 67 59
g roof
f 68 69 70
g roof
f 68 70 71
g roof
f 71 72 73
g roof
f 71 73 68
g roof
f 74 75 76
g roof
f 74 76 77
g roof
f 78 79 80
g roof
f 78 80 81
g roof
f 82 83 84
g roof
f 82 84 85
g facade_completed
f 4 3 86 87
g facade_completed
f 1 4 87 88
g facade_completed
f 2 1 88 89
g facade_completed
f 3 2 89 86
g facade_completed
f 8 7 90 91
g facade_completed
f 9 8 91 92
g facade_completed
f 10 9 92 93
g facade_completed
f 5 10 93 94
g facade_completed
f 6 5 94 95
g facade_completed
f 7 6 95 90
g facade_completed
f 14 13 96 97
g facade_completed
f 11 14 97 98
g facade_completed
f 12 11 98 99
g facade_completed
f 13 12 99 96
g facade_completed
f 17 16 100 101
g facade_completed
f 18 17 101 102
g facade_completed
f 19 18 102 103
g facade_completed
f 20 19 103 104
g facade_completed
f 24 20 104 105
g facade_completed
f 14 24 105 97
g facade_completed
f 21 14 97 106
g facade_completed
f 22 21 106 107
g facade_completed
f 23 22 107 108
g facade_completed
f 15 23 108 109
g facade_completed
f 16 15 109 100
g facade_completed
f 25 27 110 111
g facade_completed
f 26 25 111 112
g facade_completed
f 27 26 112 110
g facade_completed
f 21 16 100 106
g facade_completed
f 28 21 106 113
g facade_completed
f 16 28 113 100
g facade_completed
f 29 31 114 115
g facade_completed
f 30 29 115 116
g facade_completed
f 31 30 116 114
g facade_completed
f 35 34 117 118
g facade_completed
f 32 35 118 119
g facade_completed
f 33 32 119 120
g facade_completed
f 34 33 120 117
g facade_completed
f 39 38 121 122
g facade_completed
f 36 39 122 123
g facade_completed
f 37 36 123 124
g facade_completed
f 38 37 124 121
g facade_completed
f 43 42 125 126
g facade_completed
f 44 43 126 127
g facade_completed
f 45 44 127 128
g facade_completed
f 46 45 128 129
g facade_completed
f 47 46 129 130
g facade_completed
f 48 47 130 131
g facade_completed
f 40 48 131 132
g facade_completed
f 41 40 132 133
g facade_completed
f 42 41 133 125
g facade_completed
f 52 51 134 135
g facade_completed
f 49 52 135 136
g facade_completed
f 50 49 136 137
g facade_completed
f 51 50 137 134
g facade_completed
f 55 54 138 139
g facade_completed
f 56 55 139 140
g facade_completed
f 57 56 140 141
g facade_completed
f 58 57 141 142
g facade_completed
f 53 58 142 143
g facade_completed
f 54 53 143 138
g facade_completed
f 62 61 144 145
g facade_completed
f 63 62 145 146
g facade_completed
f 64 63 146 147
g facade_completed
f 65 64 147 148
g facade_completed
f 66 65 148 149
g facade_completed
f 67 66 149 150
g facade_completed
f 59 67 150 151
g facade_completed
f 60 59 151 152
g facade_completed
f 61 60 152 144
g facade_completed
f 71 70 153 154
g facade_completed
f 72 71 154 155
g facade_completed
f 73 72 155 156
g facade_completed
f 68 73 156 157
g facade_completed
f 69 68 157 158
g facade_completed
f 70 69 158 153
g facade_completed
f 77 76 159 160
g facade_completed
f 74 77 160 161
g facade_completed
f 75 74 161 162
g facade_completed
f 76 75 162 159
g facade_completed
f 81 80 163 164
g facade_completed
f 78 81 164 165
g facade_completed
f 79 78 165 166
g facade_completed
f 80 79 166 163
g facade_completed
f 85 84 167 168
g facade_completed
f 82 85 168 169
g facade_completed
f 83 82 169 170
g facade_completed
f 84 83 170 167
g ground_assumed
f 88 86 89
g ground_assumed
f 88 87 86
g ground_assumed
f 95 91 90
g ground_assumed
f 95 92 91
g ground_assumed
f 95 93 92
g ground_assumed
f 95 94 93
g ground_assumed
f 99 97 96
g ground_assumed
f 99 98 97
g ground_assumed
f 156 158 157
g ground_assumed
f 156 153 158
g ground_assumed
f 156 154 153
g ground_assumed
f 156 155 154
g ground_assumed
f 109 101 100
g ground_assumed
f 109 102 101
g ground_assumed
f 109 103 102
g ground_assumed
f 109 104 103
g ground_assumed
f 97 107 106
g ground_assumed
f 97 108 107
g ground_assumed
f 108 104 109
g ground_assumed
f 108 105 104
g ground_assumed
f 108 97 105
g ground_assumed
f 112 111 110
g ground_assumed
f 160 162 161
g ground_assumed
f 160 159 162
g ground_assumed
f 113 106 100
g ground_assumed
f 169 167 170
g ground_assumed
f 169 168 167
g ground_assumed
f 115 114 116
g ground_assumed
f 120 118 117
g ground_assumed
f 120 119 118
g ground_assumed
f 124 122 121
g ground_assumed
f 124 123 122
g ground_assumed
f 151 144 152
g ground_assumed
f 151 145 144
g ground_assumed
f 151 146 145
g ground_assumed
f 151 147 146
g ground_assumed
f 147 149 148
g ground_assumed
f 147 150 149
g ground_assumed
f 147 151 150
g ground_assumed
f 132 125 133
g ground_assumed
f 132 126 125
g ground_assumed
f 132 127 126
g ground_assumed
f 127 129 128
g ground_assumed
f 127 130 129
g ground_assumed
f 127 131 130
g ground_assumed
f 127 132 131
g ground_assumed
f 137 135 134
g ground_assumed
f 137 136 135
g ground_assumed
f 143 139 138
g ground_assumed
f 143 140 139
g ground_assumed
f 143 141 140
g ground_assumed
f 143 142 141
g ground_assumed
f 164 166 165
g ground_assumed
f 164 163 166
