v 2685279.2567063766 1252428.7497580943 429.9384676088045
v 2685279.0066970438 1252428.6247570992 429.94172452645722
v 2685278.9933217023 1252428.250247539 429.95078616941851
v 2685279.2433310351 1252428.3752485341 429.94752925176579
v 2685278.5066901264 1252428.7497419405 429.93917783424143
v 2685278.0066964258 1252429.249754732 429.92756962003051
v 2685277.9933210844 1252428.8752451716 429.93663126299174
v 2685277.9933093362 1252428.5002583405 429.94569179051308
v 2685278.2500078082 1252428.2499920155 429.95149583569531
v 2685278.493314785 1252428.3752323801 429.94823947761409
v 2685280.2500061071 1252429.0000112026 429.9314808516404
v 2685280.2499928898 1252428.6249832525 429.94054237404691
v 2685280.4999904744 1252428.374997416 429.94634598391548
v 2685280.5000154395 1252429.1250121975 429.92822393398768
v 2685280.0000041164 1252430.3750001204 429.89849466843719
v 2685280.2499899529 1252430.6249977048 429.89221757713847
v 2685280.0000158651 1252430.7499869519 429.88943414091591
v 2685279.500014822 1252430.6249800825 429.89292779928377
v 2685279.7499947841 1252430.249999125 429.90175158608997
v 2685279.7500109379 1252429.4999828753 429.9198736323147
v 2685280.5000110338 1252430.250015279 429.90104136065304
v 2685280.2500061071 1252429.874981455 429.9103396233632
v 2685279.9999923687 1252430.000013289 429.90755519595854
v 2685279.9999967744 1252429.7499804597 429.91359654101592
v 2685276.9933087183 1252430.0002262255 429.91039565580917
v 2685277.0066855284 1252430.3747769042 429.90133301796266
v 2685276.750014958 1252430.2500138106 429.90459049148387
v 2685280.4999816632 1252430.6250035791 429.89198083642339
v 2685287.5067015612 1252428.3747492351 429.93972064328966
v 2685287.2500133691 1252428.1249910204 429.94599829415989
v 2685287.4933262197 1252428.0002396747 429.94878228625089
v 2685285.7367773452 1252428.1299179278 429.94731141551568
v 2685285.9931527413 1252428.1207616632 429.94729001108271
v 2685286.0066881524 1252428.4997531672 429.93811992275204
v 2685285.7633708958 1252428.874537342 429.92929458478068
v 2685288.2700828733 1252429.249299489 429.91786707883898
v 2685288.0133755896 1252428.8745050342 429.92716590153208
v 2685287.9867835082 1252428.1299267386 429.94518173738186
v 2685288.2297953111 1252428.1212477458 429.94516144838883
v 2685283.2566765402 1252428.6247703163 429.93770191378479
v 2685283.2432997306 1252428.2502196373 429.94676455204274
v 2685283.5000114189 1252428.3749812623 429.94350707481851
v 2685283.7501690732 1252428.1294773696 429.94920223931769
v 2685283.9664125708 1252428.1217543876 429.94918418490761
v 2685284.0334508158 1252429.9988252509 429.90376652943525
v 2685283.7500163461 1252429.6249853389 429.91306758341972
v 2685283.5200450607 1252429.8742971213 429.90726130694605
v 2685283.4799175677 1252428.750727322 429.93444723112651
v 2685287.026745908 1252430.1240450563 429.89790800667521
v 2685286.9732430736 1252428.6259656968 429.93415557381689
v 2685287.22322891 1252428.8759632814 429.92787848251817
v 2685287.2767317444 1252430.3740426407 429.89163091537642
v 2685287.999995843 1252429.6249985555 429.90904497074729
v 2685288.2321713874 1252429.2506534704 429.91787024412105
v 2685288.2678389642 1252430.2493456306 429.89370586247958
v 2685288.0000208081 1252430.3750133372 429.89092292123092
v 2685287.7633750681 1252430.2495350707 429.89417872303227
v 2685287.736622917 1252429.5004748316 429.91230300425144
v 2685282.2254829463 1252428.5008663104 429.98951007870562
v 2685282.2458646288 1252428.1965831667 429.99272698946436
v 2685282.734067528 1252428.179147349 429.99206612646333
v 2685282.7633661046 1252428.9995074978 429.98324699562124
v 2685282.499993179 1252428.874983774 429.98503500227338
v 2685282.2499970631 1252429.1250107291 429.98279647061207
v 2685282.4955420746 1252429.3751669147 429.9796966004057
v 2685282.504458969 1252429.6248399548 429.97701253626519
v 2685282.2745273332 1252429.8741091499 429.97474728424157
v 2685279.2299498199 1252429.1257009367 429.98803005609614
v 2685279.2700773124 1252430.2492707362 429.9759513257726
v 2685278.9999917508 1252430.6250109219 429.97240399215383
v 2685278.7700483669 1252430.4992932854 429.97414674634052
v 2685278.7299208743 1252429.3757234863 429.98622547625263
v 2685278.9999961564 1252429.5000078403 429.98442839713601
v 2685282.2566950135 1252430.2497744407 429.97076299275398
v 2685282.2433182034 1252429.8752237617 429.97478953106742
v 2685282.4933040394 1252430.1252213463 429.97168364917036
v 2685282.5066808499 1252430.4997720253 429.96765711126835
v 2685283.5112882359 1252430.5040762771 429.9658677192653
v 2685283.4888359308 1252429.8754117333 429.97262606180919
v 2685283.7433037111 1252430.1252492482 429.96951411308726
v 2685283.756520451 1252430.4953179837 429.96553575717212
v 2685281.2432999634 1252430.3752262737 429.97118075814302
v 2685281.2566767731 1252430.7497769524 429.96715421982958
v 2685281.0066909366 1252430.4997793681 429.97026010172658
v 2685280.993314127 1252430.1252286891 429.97428663962859
v 2685278.9933217023 1252428.250247539 429.78731848146089
v 2685279.2433310351 1252428.3752485341 429.78731848146089
v 2685279.2567063766 1252428.7497580943 429.78731848146089
v 2685279.0066970438 1252428.6247570992 429.78731848146089
v 2685277.9933210844 1252428.8752451716 429.78731848146089
v 2685277.9933093362 1252428.5002583405 429.78731848146089
v 2685278.2500078082 1252428.2499920155 429.78731848146089
v 2685278.493314785 1252428.3752323801 429.78731848146089
v 2685278.5066901264 1252428.7497419405 429.78731848146089
v 2685278.0066964258 1252429.249754732 429.78731848146089
v 2685280.4999904744 1252428.374997416 429.78731848146089
v 2685280.5000154395 1252429.1250121975 429.78731848146089
v 2685280.2500061071 1252429.0000112026 429.78731848146089
v 2685280.2499928898 1252428.6249832525 429.78731848146089
v 2685280.2499899529 1252430.6249977048 429.78731848146089
v 2685280.0000158651 1252430.7499869519 429.78731848146089
v 2685279.500014822 1252430.6249800825 429.78731848146089
v 2685279.7499947841 1252430.249999125 429.78731848146089
v 2685279.7500109379 1252429.4999828753 429.78731848146089
v 2685279.9999967744 1252429.7499804597 429.78731848146089
v 2685280.5000110338 1252430.250015279 429.78731848146089
v 2685280.2500061071 1252429.874981455 429.78731848146089
v 2685279.9999923687 1252430.000013289 429.78731848146089
v 2685280.0000041164 1252430.3750001204 429.78731848146089
v 2685276.750014958 1252430.2500138106 429.78731848146089
v 2685276.9933087183 1252430.0002262255 429.78731848146089
v 2685277.0066855284 1252430.3747769042 429.78731848146089
v 2685280.4999816632 1252430.6250035791 429.78731848146089
v 2685287.4933262197 1252428.0002396747 429.78731848146089
v 2685287.5067015612 1252428.3747492351 429.78731848146089
v 2685287.2500133691 1252428.1249910204 429.78731848146089
v 2685286.0066881524 1252428.4997531672 429.78731848146089
v 2685285.7633708958 1252428.874537342 429.78731848146089
v 2685285.7367773452 1252428.1299179278 429.78731848146089
v 2685285.9931527413 1252428.1207616632 429.78731848146089
v 2685287.9867835082 1252428.1299267386 429.78731848146089
v 2685288.2297953111 1252428.1212477458 429.78731848146089
v 2685288.2700828733 1252429.249299489 429.78731848146089
v 2685288.0133755896 1252428.8745050342 429.78731848146089
v 2685283.5000114189 1252428.3749812623 429.78731848146089
v 2685283.7501690732 1252428.1294773696 429.78731848146089
v 2685283.9664125708 1252428.1217543876 429.78731848146089
v 2685284.0334508158 1252429.9988252509 429.78731848146089
v 2685283.7500163461 1252429.6249853389 429.78731848146089
v 2685283.5200450607 1252429.8742971213 429.78731848146089
v 2685283.4799175677 1252428.750727322 429.78731848146089
v 2685283.2566765402 1252428.6247703163 429.78731848146089
v 2685283.2432997306 1252428.2502196373 429.78731848146089
v 2685287.22322891 1252428.8759632814 429.78731848146089
v 2685287.2767317444 1252430.3740426407 429.78731848146089
v 2685287.026745908 1252430.1240450563 429.78731848146089
v 2685286.9732430736 1252428.6259656968 429.78731848146089
v 2685288.2321713874 1252429.2506534704 429.78731848146089
v 2685288.2678389642 1252430.2493456306 429.78731848146089
v 2685288.0000208081 1252430.3750133372 429.78731848146089
v 2685287.7633750681 1252430.2495350707 429.78731848146089
v 2685287.736622917 1252429.5004748316 429.78731848146089
v 2685287.999995843 1252429.6249985555 429.78731848146089
v 2685282.734067528 1252428.179147349 429.78731848146089
v 2685282.7633661046 1252428.9995074978 429.78731848146089
v 2685282.499993179 1252428.874983774 429.78731848146089
v 2685282.2499970631 1252429.1250107291 429.78731848146089
v 2685282.4955420746 1252429.3751669147 429.78731848146089
v 2685282.504458969 1252429.6248399548 429.78731848146089
v 2685282.2745273332 1252429.8741091499 429.78731848146089
v 2685282.2254829463 1252428.5008663104 429.78731848146089
v 2685282.2458646288 1252428.1965831667 429.78731848146089
v 2685278.9999917508 1252430.6250109219 429.78731848146089
v 2685278.7700483669 1252430.4992932854 429.78731848146089
v 2685278.7299208743 1252429.3757234863 429.78731848146089
v 2685278.9999961564 1252429.5000078403 429.78731848146089
v 2685279.2299498199 1252429.1257009367 429.78731848146089
v 2685279.2700773124 1252430.2492707362 429.78731848146089
v 2685282.4933040394 1252430.1252213463 429.78731848146089
v 2685282.5066808499 1252430.4997720253 429.78731848146089
v 2685282.2566950135 1252430.2497744407 429.78731848146089
v 2685282.2433182034 1252429.8752237617 429.78731848146089
v 2685283.7433037111 1252430.1252492482 429.78731848146089
v 2685283.756520451 1252430.4953179837 429.78731848146089
v 2685283.5112882359 1252430.5040762771 429.78731848146089
v 2685283.4888359308 1252429.8754117333 429.78731848146089
v 2685281.0066909366 1252430.4997793681 429.78731848146089
v 2685280.993314127 1252430.1252286891 429.78731848146089
v 2685281.2432999634 1252430.3752262737 429.78731848146089
v 2685281.2566767731 1252430.7497769524 429.78731848146089
l 1 2
l 2 3
l 3 4
l 1 4
l 5 6
l 6 7
l 7 8
l 8 9
l 9 10
l 5 10
l 11 12
l 12 13
l 13 14
l 11 14
l 15 16
l 16 17
l 17 18
l 18 19
l 19 20
l 14 21
l 21 22
l 22 23
l 15 23
l 20 24
l 14 24
l 25 26
l 26 27
l 25 27
l 21 28
l 16 28
l 16 21
l 29 30
l 30 31
l 29 31
l 32 33
l 33 34
l 34 35
l 32 35
l 36 37
l 37 38
l 38 39
l 36 39
l 40 41
l 41 42
l 42 43
l 43 44
l 44 45
l 45 46
l 46 47
l 47 48
l 40 48
l 49 50
l 50 51
l 51 52
l 49 52
l 53 54
l 54 55
l 55 56
l 56 57
l 57 58
l 53 58
l 59 60
l 60 61
l 61 62
l 62 63
l 63 64
l 64 65
l 65 66
l 66 67
l 59 67
l 68 69
l 69 70
l 70 71
l 71 72
l 72 73
l 68 73
l 74 75
l 75 76
l 76 77
l 74 77
l 78 79
l 79 80
l 80 81
l 78 81
l 82 83
l 83 84
l 84 85
l 82 85
l 3 86
l 86 87
l 4 87
l 87 88
l 1 88
l 88 89
l 2 89
l 86 89
l 90 91
l 8 91
l 91 92
l 9 92
l 92 93
l 10 93
l 93 94
l 5 94
l 94 95
l 6 95
l 90 95
l 13 96
l 96 97
l 14 97
l 97 98
l 11 98
l 98 99
l 12 99
l 96 99
l 16 100
l 100 101
l 17 101
l 101 102
l 18 102
l 102 103
l 19 103
l 103 104
l 20 104
l 104 105
l 24 105
l 97 105
l 97 106
l 21 106
l 106 107
l 22 107
l 107 108
l 23 108
l 108 109
l 15 109
l 100 109
l 27 110
l 110 111
l 25 111
l 111 112
l 26 112
l 110 112
l 100 106
l 106 113
l 28 113
l 100 113
l 31 114
l 114 115
l 29 115
l 115 116
l 30 116
l 114 116
l 34 117
l 117 118
l 35 118
l 118 119
l 32 119
l 119 120
l 33 120
l 117 120
l 38 121
l 121 122
l 39 122
l 122 123
l 36 123
l 123 124
l 37 124
l 121 124
l 42 125
l 125 126
l 43 126
l 126 127
l 44 127
l 127 128
l 45 128
l 128 129
l 46 129
l 129 130
l 47 130
l 130 131
l 48 131
l 131 132
l 40 132
l 132 133
l 41 133
l 125 133
l 51 134
l 134 135
l 52 135
l 135 136
l 49 136
l 136 137
l 50 137
l 134 137
l 54 138
l 138 139
l 55 139
l 139 140
l 56 140
l 140 141
l 57 141
l 141 142
l 58 142
l 142 143
l 53 143
l 138 143
l 61 144
l 144 145
l 62 145
l 145 146
l 63 146
l 146 147
l 64 147
l 147 148
l 65 148
l 148 149
l 66 149
l 149 150
l 67 150
l 150 151
l 151 152
l 60 152
l 144 152
l 70 153
l 153 154
l 71 154
l 154 155
l 72 155
l 155 156
l 73 156
l 156 157
l 68 157
l 157 158
l 69 158
l 153 158
l 76 159
l 159 160
l 77 160
l 160 161
l 74 161
l 161 162
l 75 162
l 159 162
l 80 163
l 163 164
l 81 164
l 164 165
l 78 165
l 165 166
l 79 166
l 163 166
l 84 167
l 167 168
l 85 168
l 168 169
l 82 169
l 169 170
l 83 170
l 167 170
