v -0.42242196488588507 -0.2759511508638397 0.075066839854844136
v -0.24105640732648465 -0.2584397282788895 0.075071388873187359
v 0.29695119335772746 -0.20476109143602123 0.075085385017415351
v 0.47628421364722806 -0.18670737446640154 0.075090097319415863
v 0.50149024304742973 -0.18107092517253418 0.075091657362042805
v 0.50149024304742973 -0.17618173267738615 0.075093073827660783
v 0.50148597273739792 -0.16627097652181411 0.075095945367840311
v 0.50148170282954285 -0.16100602087446708 0.075097470823288617
v 0.50146889270380068 -0.15762415129814666 0.07509845052523223
v 0.48545198331411255 0.0055083479334214862 0.075145760155131247
v 0.46803877182724379 0.17909389810740772 0.075196102195808107
v 0.46549382992983723 0.20158845397555569 0.075202626705098377
v 0.46146718496291067 0.21121311745694682 0.075205426657861674
v 0.45456253482928355 0.21257952939478811 0.075205842508358253
v -0.16958452553451692 0.27622870311408365 0.075226088073153438
v -0.19749348824888516 0.27482386079901611 0.075225761505838901
v -0.20827960205842083 0.27411503477969962 0.075225587363416252
v -0.269221572153518 0.26911909137075973 0.075224316083513237
v -0.39141722526937739 0.25651394171673136 0.075221017431895243
v -0.45119347553065137 0.25019855656288681 0.075219360464732821
v -0.49638327856661235 0.24498911132636331 0.075217981803705453
v -0.50191724685454298 0.24313591541467605 0.075217460985143481
v -0.50302745627754275 0.24035185103602519 0.075216657436505005
v -0.50303172618539782 0.2402066697450071 0.075216615610149445
v -0.50303599649542963 0.23677356006789491 0.075215621027675497
v -0.50195994713962455 0.22293863954915644 0.075211609317130557
v -0.48026815848101928 0.0030189164468384377 0.075147830961907774
v -0.46224006136070728 -0.17631410384266213 0.075095821899656121
v -0.46027584422519646 -0.19514496777034046 0.075090360342844067
v -0.45632606001272236 -0.23127375205320885 0.075079881634247753
v -0.450975703393036 -0.27129254022987259 0.075068272005345438
v -0.44878944461423115 -0.27477689040995312 0.075067256107517216
v -0.44763653450397356 -0.27529356494531498 0.075067103280448827
v -0.44345616802814203 -0.27697595971667649 0.075066603375064642
v -0.44234595860514236 -0.27724497195508369 0.075066522537588998
v -0.42242196488588507 -0.2759511508638397 -0.18146241081322234
v -0.24105640732648465 -0.2584397282788895 -0.18146241081322234
v 0.29695119335772746 -0.20476109143602123 -0.18146241081322234
v 0.47628421364722806 -0.18670737446640154 -0.18146241081322234
v 0.50149024304742973 -0.18107092517253418 -0.18146241081322234
v 0.50149024304742973 -0.17618173267738615 -0.18146241081322234
v 0.50148597273739792 -0.16627097652181411 -0.18146241081322234
v 0.50148170282954285 -0.16100602087446708 -0.18146241081322234
v 0.50146889270380068 -0.15762415129814666 -0.18146241081322234
v 0.48545198331411255 0.0055083479334214862 -0.18146241081322234
v 0.46803877182724379 0.17909389810740772 -0.18146241081322234
v 0.46549382992983723 0.20158845397555569 -0.18146241081322234
v 0.46146718496291067 0.21121311745694682 -0.18146241081322234
v 0.45456253482928355 0.21257952939478811 -0.18146241081322234
v -0.16958452553451692 0.27622870311408365 -0.18146241081322234
v -0.19749348824888516 0.27482386079901611 -0.18146241081322234
v -0.20827960205842083 0.27411503477969962 -0.18146241081322234
v -0.269221572153518 0.26911909137075973 -0.18146241081322234
v -0.39141722526937739 0.25651394171673136 -0.18146241081322234
v -0.45119347553065137 0.25019855656288681 -0.18146241081322234
v -0.49638327856661235 0.24498911132636331 -0.18146241081322234
v -0.50191724685454298 0.24313591541467605 -0.18146241081322234
v -0.50302745627754275 0.24035185103602519 -0.18146241081322234
v -0.50303172618539782 0.2402066697450071 -0.18146241081322234
v -0.50303599649542963 0.23677356006789491 -0.18146241081322234
v -0.50195994713962455 0.22293863954915644 -0.18146241081322234
v -0.48026815848101928 0.0030189164468384377 -0.18146241081322234
v -0.46224006136070728 -0.17631410384266213 -0.18146241081322234
v -0.46027584422519646 -0.19514496777034046 -0.18146241081322234
v -0.45632606001272236 -0.23127375205320885 -0.18146241081322234
v -0.450975703393036 -0.27129254022987259 -0.18146241081322234
v -0.44878944461423115 -0.27477689040995312 -0.18146241081322234
v -0.44763653450397356 -0.27529356494531498 -0.18146241081322234
v -0.44345616802814203 -0.27697595971667649 -0.18146241081322234
v -0.44234595860514236 -0.27724497195508369 -0.18146241081322234
l 1 2
l 2 3
l 3 4
l 4 5
l 5 6
l 6 7
l 7 8
l 8 9
l 9 10
l 10 11
l 11 12
l 12 13
l 13 14
l 14 15
l 15 16
l 16 17
l 17 18
l 18 19
l 19 20
l 20 21
l 21 22
l 22 23
l 23 24
l 24 25
l 25 26
l 26 27
l 27 28
l 28 29
l 29 30
l 30 31
l 31 32
l 32 33
l 33 34
l 34 35
l 1 35
l 36 37
l 37 38
l 38 39
l 39 40
l 5 40
l 40 41
l 41 42
l 42 43
l 43 44
l 44 45
l 45 46
l 46 47
l 12 47
l 47 48
l 13 48
l 48 49
l 49 50
l 50 51
l 51 52
l 52 53
l 53 54
l 54 55
l 55 56
l 21 56
l 56 57
l 22 57
l 57 58
l 23 58
l 58 59
l 59 60
l 60 61
l 61 62
l 62 63
l 63 64
l 64 65
l 65 66
l 31 66
l 66 67
l 32 67
l 67 68
l 68 69
l 69 70
l 35 70
l 36 70
