v 2683245.9331008666 1251947.7345031148 453.63982079800275
v 2683253.7174983621 1251934.3213874388 452.11023952537261
v 2683273.7298993357 1251945.9357273011 452.08648211407058
v 2683265.8675479637 1251959.4831634932 453.63138080141493
v 2683258.3427724899 1251972.4489304675 452.10256230874677
v 2683238.3303715163 1251960.8345906052 452.09516431412254
v 2683245.9331008666 1251947.7345031148 441.30118774786916
v 2683253.7174983621 1251934.3213874388 441.30118774786916
v 2683273.7298993357 1251945.9357273011 441.30118774786916
v 2683265.8675479637 1251959.4831634932 441.30118774786916
v 2683258.3427724899 1251972.4489304675 441.30118774786916
v 2683238.3303715163 1251960.8345906052 441.30118774786916
l 1 2
l 2 3
l 3 4
l 1 4
l 5 6
l 1 6
l 4 5
l 7 8
l 2 8
l 8 9
l 3 9
l 9 10
l 5 11
l 11 12
l 6 12
l 7 12
l 10 11
