# Source coordinates; no display transform
v -0.36961938331 -0.335695742803 0.287398285149
v -0.0123257510709 -0.502153301512 0.1483552144
v 0.378992848305 0.337794400644 0.141867235958
v 0.021699216066 0.504251958895 0.280910307165
v -0.36961938331 -0.335695742803 -0.281126261346
v -0.0123257510709 -0.502153301512 -0.281126261346
v 0.378992848305 0.337794400644 -0.281126261346
v 0.021699216066 0.504251958895 -0.281126261346
g roof
f 1 2 3 4
g wall
f 2 1 5 6
g wall
f 3 2 6 7
g wall
f 4 3 7 8
g wall
f 1 4 8 5
g ground_assumed
f 8 7 6 5
