v -0.081433937245473251 -0.1305532069225529 0.38383572655200898
v 0.079878022806061585 0.12886604398974788 0.38347129796392809
v -0.079536915877926259 0.50523698156674257 0.064055532937439569
v -0.49130264694900211 -0.15208842496613001 0.062524813225950007
v 0.080178154466973461 -0.50514328162934186 0.06472220905951695
v 0.49073722739837594 0.15025586766642093 0.061355582826639596
v 0.48747162409958633 0.15230152631656818 0.065028914068387678
v -0.078523123972430262 0.50685535712407326 0.061466977007486573
v -0.49174337770934295 -0.15279198932095658 0.061387490619666418
v 0.07751697312782567 -0.5093914787786088 0.057854935111392954
v -0.079536915877926259 0.50523698156674257 -0.38411014233955393
v -0.49130264694900211 -0.15208842496613001 -0.38411014233955393
v -0.49174337770934295 -0.15279198932095658 -0.38411014233955393
v 0.07751697312782567 -0.5093914787786088 -0.38411014233955393
v 0.080178154466973461 -0.50514328162934186 -0.38411014233955393
v 0.49073722739837594 0.15025586766642093 -0.38411014233955393
v 0.48747162409958633 0.15230152631656818 -0.38411014233955393
v -0.078523123972430262 0.50685535712407326 -0.38411014233955393
l 1 2
l 2 3
l 3 4
l 1 4
l 5 6
l 6 7
l 2 7
l 1 5
l 7 8
l 3 8
l 9 10
l 5 10
l 4 9
l 11 12
l 15 16
l 6 16
l 16 17
l 17 18
l 8 18
l 11 18
l 9 13
l 13 14
l 10 14
l 14 15
l 12 13
