# pointcloud_to_mesh 0.4.1; candidate requires geometry validation; coordinates preserved
v 7.628748796 -6.975520035 4.642049982
v 8.383382720 -7.737394254 4.646202816
v 9.622851493 -8.089908286 4.336126084
v 11.538254813 -8.135500732 3.680966631
v 1.258543068 0.570001624 4.214172317
v -0.329037255 2.213688332 4.191024987
v -0.195061514 2.338793987 4.099967272
v -8.804144147 12.026640379 3.701382553
v -9.132028193 11.701872304 3.930786493
v -10.282263120 12.863143100 3.924456623
v -9.954379075 13.187911175 3.695052684
v 11.192938032 -7.786870827 3.679066315
v 11.506817390 -6.737172466 3.198988550
v 11.224413427 -6.452058994 3.197434450
v 10.883778352 -6.100340136 3.192804436
v 9.736418756 -6.202980133 3.631071678
v 8.331999151 -4.785085898 3.623343003
v 7.926765635 -4.426694593 3.638998412
v 3.113653497 0.432596693 3.612511327
v 2.757944053 0.781629773 3.614110870
v -4.401168806 8.009430359 3.574713485
v -4.762858391 8.350006612 3.581390248
v -9.326571166 12.957505687 3.556275635
v -9.766998220 13.216573959 3.619281617
v -10.144468037 14.087915240 3.444361735
v -10.279245076 13.954419023 3.538658436
v -10.375579083 10.260558419 4.874726233
v 7.943953580 -7.900633505 4.857747947
v 8.098272550 -8.053618653 4.857604927
v 8.098282235 -8.053618884 4.857601614
v 8.350420320 -8.059620540 4.771358342
v 8.350449185 -8.059621211 4.771348463
v 8.155256283 -7.822138722 4.756024930
v 7.534072912 -7.066263008 4.707220547
v -8.089453633 10.248389046 4.077867346
v -9.273975980 9.168476774 4.873705283
v 8.099664722 -7.754493140 4.751657279
v -8.089466382 10.248377384 4.077875926
v -8.089477779 10.248389174 4.077875763
v 7.783237129 -8.046119849 4.965362093
v 8.097146799 -8.299290433 4.944613546
v 8.098282191 -8.053628212 4.857604918
v 7.989961133 -11.392077483 3.674279963
v -10.431552709 8.113130442 4.118244875
v -10.431583623 8.113102263 4.118224702
v -10.431552729 8.113130471 4.118244879
v 8.080003329 -12.008584117 3.493123103
v 8.091650019 -9.488616385 4.362521074
v 8.097146615 -8.299330339 4.772829056
v 8.097146799 -8.299290433 4.772842824
v 7.783237129 -8.046119849 4.753206216
v 7.710415221 -7.987388368 4.748650860
v 7.701929642 -7.990540620 4.744687097
v 7.371580658 -7.750664520 4.714902944
v 7.391919399 -7.730519064 4.728727349
v 7.092759290 -7.489244116 4.710013399
v 7.314548325 -7.276668372 4.858324891
v 6.534151509 -6.503016739 4.859049507
v -1.322641217 1.285867575 4.866344706
v -12.704441451 10.272951979 4.088270976
v -13.989130493 10.279789643 3.654419244
v -14.074671639 10.195061417 3.596276240
v -13.538012627 9.653253458 3.592416598
v -13.129253314 9.381679022 3.637937696
v -10.885010911 7.115904354 3.621797147
v -10.499906046 6.792187065 3.641379027
v -9.096964258 5.375784827 3.631289096
v -8.689264275 5.074870182 3.666374076
v -7.032489670 3.402199742 3.654458584
v -6.663340839 3.009614935 3.644971322
v -3.711645898 0.029600114 3.623742788
v -3.235671270 -0.470693323 3.613536040
v -1.832166504 -1.887663941 3.603442060
v -1.402017547 -2.166765204 3.653640771
v 4.913753900 -8.543132984 3.608217863
v 5.307255194 -8.855859369 3.634425299
v 7.443053913 -11.012149895 3.619064675
v -10.431582183 8.113158449 4.118244487
v 10.190021737 -10.298106148 4.796990229
v 9.583258258 -10.906023028 4.382191776
v 11.421298809 -12.652628348 4.406431081
v 11.809217961 -12.268395696 4.670102846
v 8.350433273 -8.059636267 4.771346830
v 8.097169466 -8.299308714 4.772828900
v 8.108077329 -12.200802959 3.417148854
v 9.974772446 -14.085407983 2.140950347
v 11.421298809 -12.652628348 2.154622970
v 9.583258258 -10.906023028 3.373433669
v 8.374990985 -12.116587106 3.357237950
v 9.311432659 -10.647719675 3.553682112
v 9.962457290 -10.021198480 3.553488125
v 9.432431008 -9.376245615 3.953914613
v 9.432338260 -9.376132702 3.953984701
v 10.085428865 -9.902855341 3.553451483
v 10.753206868 -9.260211343 3.553252504
v 11.412451816 -8.625779230 3.553056067
v 11.188979730 -9.297249227 3.394956898
v 10.985697252 -9.500918127 3.392232082
v 12.754433419 -11.332162873 2.167223810
v 13.738796030 -10.357154925 2.176528043
v 8.325785055 -11.596269216 3.553975808
v -10.315783606 12.553374449 4.045428389
v -10.989506572 13.250907333 3.560830221
v -12.191274422 12.060560205 3.598315826
v -13.363628622 10.899347202 3.634883958
v 12.351949537 -11.730821844 5.038994822
v 12.754433419 -11.332162873 5.035948134
v 10.985697252 -9.500918127 4.909511001
v 11.188979730 -9.297249227 4.907881745
v 11.412451816 -8.625779230 4.888625049
v 10.753206868 -9.260211343 4.892891554
v 10.085428865 -9.902855341 4.897213282
v 9.432338130 -9.376132598 4.856359382
v 9.432430969 -9.376245608 4.856366677
v 9.962457290 -10.021198480 4.898009130
v 8.325785055 -11.596269216 4.908601353
v 8.374990985 -12.116587106 4.930435132
v 9.583258258 -10.906023028 4.920751184
v 10.190021737 -10.298106148 4.915888133
v 11.809217961 -12.268395696 5.043103145
v 12.079624608 -12.000558795 5.041056244
v -0.329037255 2.213688332 4.100683423
v 7.888947076 -7.238214774 4.724959225
v 7.628748796 -6.975520035 4.706620515
v 7.771216339 -7.354826684 4.725850413
v 8.383382720 -7.737394254 4.759806926
v 8.101061091 -7.452363906 4.739908968
v 7.371580658 -7.750664520 4.728875541
v 7.701929642 -7.990540620 4.748504252
v 7.943953580 -7.900633505 4.752518494
v 7.582220229 -7.542026714 4.727281060
v 7.314548325 -7.276668372 4.708606110
v -8.804144147 12.026640379 5.665735096
v -9.954379075 13.187911175 5.683963400
v -10.282263120 12.863143100 5.684429976
v -9.132028193 11.701872304 5.666201671
v 11.235884109 -6.463639731 3.197497575
v 11.235884109 -6.463639731 -1.981272608
v 11.224413427 -6.452058994 -1.981272608
v 10.883778352 -6.100340136 -1.981272608
v 9.736418756 -6.202980133 -1.981272608
v 9.339096860 -5.801846153 3.628885172
v 9.339096860 -5.801846153 -1.981272608
v 9.102505252 -5.562984579 3.627583183
v 9.102505252 -5.562984579 -1.981272608
v 8.331999151 -4.785085898 -1.981272608
v 7.926765635 -4.426694593 -1.981272608
v 3.113653497 0.432596693 -1.981272608
v 2.757944053 0.781629773 -1.981272608
v 0.537768969 3.023106208 3.601893002
v 0.537768969 3.023106208 -1.981272608
v -4.401168806 8.009430359 -1.981272608
v -4.762858391 8.350006612 -1.981272608
v -6.635535152 10.240650671 3.571084702
v -6.635535152 10.240650671 -1.981272608
v -6.948621429 10.556740838 3.569361754
v -6.948621429 10.556740838 -1.981272608
v -7.329476212 10.941249712 3.567265868
v -7.329476212 10.941249712 -1.981272608
v -9.326571166 12.957505687 -1.981272608
v -9.766998220 13.216573959 -1.981272608
v -10.144468037 14.087915240 -1.981272608
v -10.279245076 13.954419023 -1.981272608
v 7.582220255 -7.542026688 4.858083178
v 8.098272536 -8.053618687 -1.981272608
v 8.098282293 -8.053618875 -1.981272608
v 8.350420338 -8.059620507 -1.981272608
v 8.350449185 -8.059621211 -1.981272608
v 11.538254813 -8.135500732 -1.981272608
v 11.192938032 -7.786870827 -1.981272608
v 11.506817390 -6.737172466 -1.981272608
v 7.888947076 -7.238214774 4.643481882
v 8.101061093 -7.452363908 4.644649169
v -8.089477781 10.248389177 -1.981272608
v -8.089453599 10.248389062 -1.981272608
v -8.089466382 10.248377384 -1.981272608
v 8.098282249 -8.053628208 -1.981272608
v 7.710415221 -7.987388368 -1.981272608
v -13.989130493 10.279789643 -1.981272608
v -14.074671639 10.195061417 -1.981272608
v -13.538012627 9.653253458 -1.981272608
v -13.129253314 9.381679022 -1.981272608
v -11.188878419 7.422687302 3.623982556
v -11.188878419 7.422687302 -1.981272608
v -10.885010911 7.115904354 -1.981272608
v -10.499906046 6.792187065 -1.981272608
v -10.466901446 6.758865804 3.641141658
v -10.466901446 6.758865804 -1.981272608
v -10.042908455 6.330804835 3.638092309
v -10.042908455 6.330804835 -1.981272608
v -9.096964258 5.375784827 -1.981272608
v -8.689264275 5.074870182 -1.981272608
v -7.032489670 3.402199742 -1.981272608
v -6.663340839 3.009614935 -1.981272608
v -3.711645898 0.029600114 -1.981272608
v -3.235671270 -0.470693323 -1.981272608
v -3.220330113 -0.486181670 3.613425706
v -3.220330113 -0.486181670 -1.981272608
v -1.832166504 -1.887663941 -1.981272608
v -1.402017547 -2.166765204 -1.981272608
v 4.340290185 -7.964167201 3.612342203
v 4.340290185 -7.964167201 -1.981272608
v 4.913753900 -8.543132984 -1.981272608
v 5.307255194 -8.855859369 -1.981272608
v 5.482411801 -9.032696506 3.633165576
v 5.482411801 -9.032696506 -1.981272608
v 5.776990168 -9.330101189 3.631046974
v 5.776990168 -9.330101189 -1.981272608
v 6.372550779 -9.931375875 3.626763713
v 6.372550779 -9.931375875 -1.981272608
v 7.443053913 -11.012149895 -1.981272608
v 7.989961133 -11.392077483 -1.981272608
v 8.080003334 -12.008584148 -1.981272608
v 8.097146665 -8.299330344 -1.981272608
v 8.097146785 -8.299290393 -1.981272608
v -10.431583623 8.113102263 -1.981272608
v -10.431582153 8.113158472 -1.981272608
v -10.431552729 8.113130471 -1.981272608
v 11.421298809 -12.652628348 -1.981272608
v 11.809217961 -12.268395696 -1.981272608
v 12.754433419 -11.332162873 -1.981272608
v 13.738796030 -10.357154925 -1.981272608
v 8.350433273 -8.059636267 -1.981272608
v 8.097169467 -8.299308745 -1.981272608
v 8.108077329 -12.200802959 -1.981272608
v 9.974772446 -14.085407983 -1.981272608
v 9.311432675 -10.647719649 4.902222434
v 9.432338169 -9.376132592 -1.981272608
v -10.989506572 13.250907333 -1.981272608
v -12.191274422 12.060560205 -1.981272608
v -13.363628622 10.899347202 -1.981272608
v 9.432430969 -9.376245608 -1.981272608
v 12.079624608 -12.000558795 -1.981272608
v 12.351949537 -11.730821844 -1.981272608
v 7.534072930 -7.066263006 -1.981272608
v 8.155256244 -7.822138735 -1.981272608
g roof
f 1 172 173 2 3
g roof
f 1 3 4
g roof
f 1 4 5
g roof
f 1 5 6
g roof
f 7 5 4
g roof
f 7 4 8
g roof
f 7 8 9
g roof
f 7 9 10
g roof
f 11 8 4
g roof
f 11 4 12
g roof
f 12 13 137 14
g roof
f 12 14 15
g roof
f 12 15 16
g roof
f 12 16 142 144 17
g roof
f 12 17 18
g roof
f 12 18 19
g roof
f 12 19 20
g roof
f 12 20 150 21
g roof
f 12 21 22
g roof
f 12 22 154 156 158 23
g roof
f 12 23 24
g roof
f 24 25 26
g roof
f 28 29 30
g roof
f 28 30 31
g roof
f 28 31 32
g roof
f 32 3 2
g roof
f 32 2 33
g roof
f 34 1 6
g roof
f 35 7 10
g roof
f 11 12 24
g roof
f 11 24 26
g roof
f 36 164 28 32
g roof
f 36 32 33
g roof
f 36 33 37
g roof
f 36 37 125 34
g roof
f 36 34 6
g roof
f 36 6 7
g roof
f 7 35 38
g roof
f 39 35 10
g roof
f 10 11 26
g roof
f 10 26 27
g roof
f 10 27 36
g roof
f 36 7 38
g roof
f 36 38 39
g roof
f 36 39 10
g roof
f 29 40 41
g roof
f 29 41 42
g roof
f 43 44 45
g roof
f 46 44 43
g roof
f 43 47 48
g roof
f 43 48 49
g roof
f 43 49 50
g roof
f 43 49 50 51
g roof
f 51 29 28
g roof
f 51 28 52
g roof
f 51 52 53
g roof
f 54 55 56
g roof
f 56 57 58
g roof
f 56 58 59
g roof
f 56 59 36
g roof
f 56 36 27
g roof
f 56 27 60
g roof
f 60 61 62
g roof
f 60 62 63
g roof
f 60 63 64
g roof
f 60 64 183 65
g roof
f 60 65 66
g roof
f 60 66 187 189 67
g roof
f 60 67 68
g roof
f 60 68 69
g roof
f 60 69 70
g roof
f 60 70 71
g roof
f 60 71 72
g roof
f 60 72 197 73
g roof
f 60 73 74
g roof
f 60 74 201 75
g roof
f 60 75 76
g roof
f 60 76 205 207 209 77
g roof
f 60 77 43
g roof
f 60 43 45
g roof
f 60 45 78
g roof
f 60 78 44 46
g roof
f 43 51 53
g roof
f 43 53 54
g roof
f 43 54 56
g roof
f 56 60 78 46 44
g roof
f 56 46 44 43
g roof
f 79 80 81
g roof
f 79 81 82
g roof
f 4 3 32 83
g roof
f 83 31 30
g roof
f 83 30 42
g roof
f 83 42 50
g roof
f 83 50 84
g roof
f 83 84 49
g roof
f 49 48 47
g roof
f 49 48 47 85
g roof
f 85 86 87
g roof
f 87 88 89
g roof
f 90 91 92
g roof
f 90 92 93
g roof
f 93 94 95
g roof
f 93 95 96
g roof
f 97 98 99
g roof
f 97 99 100
g roof
f 4 83 84 49
g roof
f 85 87 89
g roof
f 85 89 101
g roof
f 101 90 93
g roof
f 96 97 100
g roof
f 96 100 4
g roof
f 96 4 49
g roof
f 49 85 101
g roof
f 49 101 93
g roof
f 49 93 96
g roof
f 102 26 103
g roof
f 102 103 104
g roof
f 102 104 105
g roof
f 102 105 61
g roof
f 102 61 60
g roof
f 102 60 27
g roof
f 106 107 108
g roof
f 108 109 110
g roof
f 108 110 111
g roof
f 108 111 112
g roof
f 115 227 116 117
g roof
f 115 117 118
g roof
f 115 118 119
g roof
f 115 119 120 121
g roof
f 115 121 106
g roof
f 115 106 108
g roof
f 115 108 112
g roof
f 112 113 114
g roof
f 112 114 115
g roof
f 7 122 5
g roof
f 123 124 34
g roof
f 123 34 125
g roof
f 123 125 37
g roof
f 123 37 33
g roof
f 33 126 127
g roof
f 33 127 123
g roof
f 55 128 129
g roof
f 55 129 52
g roof
f 55 52 130
g roof
f 55 130 131
g roof
f 55 131 132
g roof
f 55 132 56
g roof
f 133 134 135
g roof
f 133 135 136
g facade_completed
f 14 137 138 139
g facade_completed
f 15 14 139 140
g facade_completed
f 16 15 140 141
g facade_completed
f 142 16 141 143
g facade_completed
f 144 142 143 145
g facade_completed
f 17 144 145 146
g facade_completed
f 18 17 146 147
g facade_completed
f 19 18 147 148
g facade_completed
f 20 19 148 149
g facade_completed
f 150 20 149 151
g facade_completed
f 21 150 151 152
g facade_completed
f 22 21 152 153
g facade_completed
f 154 22 153 155
g facade_completed
f 156 154 155 157
g facade_completed
f 158 156 157 159
g facade_completed
f 23 158 159 160
g facade_completed
f 24 23 160 161
g facade_completed
f 25 24 161 162
g facade_completed
f 26 25 162 163
g roof_step_or_fixture_side
f 164 57 132 131
g roof_step_or_fixture_side
f 28 164 131 130
g facade_completed
f 30 29 165 166
g facade_completed
f 32 31 167 168
g facade_completed
f 12 4 169 170
g facade_completed
f 13 12 170 171
g facade_completed
f 137 13 171 138
g roof_step_or_fixture_side
f 34 124 1
g roof_step_or_fixture_side
f 124 123 172 1
g roof_step_or_fixture_side
f 123 127 173 172
g roof_step_or_fixture_side
f 127 126 2 173
g roof_step_or_fixture_side
f 126 33 2
g roof_step_or_fixture_side
f 7 6 122
g roof_step_or_fixture_side
f 6 5 122
g facade_completed
f 35 39 174 175
g facade_completed
f 38 35 175 176
g facade_completed
f 39 38 176 174
g roof_step_or_fixture_side
f 136 135 10 9
g roof_step_or_fixture_side
f 135 134 11 10
g roof_step_or_fixture_side
f 134 133 8 11
g roof_step_or_fixture_side
f 133 136 9 8
g roof_step_or_fixture_side
f 40 29 51
g roof_step_or_fixture_side
f 41 40 51 50
g roof_step_or_fixture_side
f 42 41 50
g facade_completed
f 29 42 177 165
g roof_step_or_fixture_side
f 52 28 130
g roof_step_or_fixture_side
f 52 129 53
g roof_step_or_fixture_side
f 129 128 54 53
g roof_step_or_fixture_side
f 128 55 54
g roof_step_or_fixture_side
f 57 56 132
g facade_completed
f 62 61 179 180
g facade_completed
f 63 62 180 181
g facade_completed
f 64 63 181 182
g facade_completed
f 183 64 182 184
g facade_completed
f 65 183 184 185
g facade_completed
f 66 65 185 186
g facade_completed
f 187 66 186 188
g facade_completed
f 189 187 188 190
g facade_completed
f 67 189 190 191
g facade_completed
f 68 67 191 192
g facade_completed
f 69 68 192 193
g facade_completed
f 70 69 193 194
g facade_completed
f 71 70 194 195
g facade_completed
f 72 71 195 196
g facade_completed
f 197 72 196 198
g facade_completed
f 73 197 198 199
g facade_completed
f 74 73 199 200
g facade_completed
f 201 74 200 202
g facade_completed
f 75 201 202 203
g facade_completed
f 76 75 203 204
g facade_completed
f 205 76 204 206
g facade_completed
f 207 205 206 208
g facade_completed
f 209 207 208 210
g facade_completed
f 77 209 210 211
g facade_completed
f 43 77 211 212
g facade_completed
f 47 43 212 213
g facade_completed
f 50 49 214 215
g facade_completed
f 78 45 216 217
g facade_completed
f 46 78 217 218
g facade_completed
f 45 44 46 218 216
g facade_completed
f 82 81 87 219 220
g roof_step_or_fixture_side
f 120 119 79 82
g roof_step_or_fixture_side
f 119 118 80 79
g roof_step_or_fixture_side
f 81 80 88 87
g roof_step_or_fixture_side
f 108 107 99 98
g facade_completed
f 100 99 221 222
g facade_completed
f 4 100 222 169
g facade_completed
f 83 32 168 223
g facade_completed
f 31 83 223 167
g facade_completed
f 42 30 166 177
g facade_completed
f 84 50 215 224
g facade_completed
f 49 84 224 214
g facade_completed
f 85 47 213 225
g facade_completed
f 86 85 225 226
g facade_completed
f 87 86 226 219
g roof_step_or_fixture_side
f 118 117 89 88 80
g roof_step_or_fixture_side
f 117 116 101 89
g roof_step_or_fixture_side
f 116 227 90 101
g roof_step_or_fixture_side
f 227 115 91 90
g roof_step_or_fixture_side
f 115 114 92 91
g roof_step_or_fixture_side
f 114 113 93 92
g roof_step_or_fixture_side
f 113 112 94 93
g roof_step_or_fixture_side
f 112 111 95 94
g roof_step_or_fixture_side
f 111 110 96 95
g roof_step_or_fixture_side
f 110 109 97 96
g roof_step_or_fixture_side
f 109 108 98 97
g facade_completed
f 103 26 163 229
g facade_completed
f 104 103 229 230
g facade_completed
f 105 104 230 231
g facade_completed
f 61 105 231 179
g facade_completed
f 121 120 82 220 233
g facade_completed
f 106 121 233 234
g facade_completed
f 107 106 234 221 99
g ground_assumed
f 213 226 225
g ground_assumed
f 213 219 226
g ground_assumed
f 213 220 219
g ground_assumed
f 213 233 220
g ground_assumed
f 213 234 233
g ground_assumed
f 213 221 234
g ground_assumed
f 213 222 221
g ground_assumed
f 213 169 222
g ground_assumed
f 213 170 169
g ground_assumed
f 213 171 170
g ground_assumed
f 213 138 171
g ground_assumed
f 213 139 138
g ground_assumed
f 213 140 139
g ground_assumed
f 213 141 140
g ground_assumed
f 213 143 141
g ground_assumed
f 213 145 143
g ground_assumed
f 213 146 145
g ground_assumed
f 213 147 146
g ground_assumed
f 147 149 148
g ground_assumed
f 151 153 152
g ground_assumed
f 159 161 160
g ground_assumed
f 161 163 162
g ground_assumed
f 161 229 163
g ground_assumed
f 161 230 229
g ground_assumed
f 161 231 230
g ground_assumed
f 161 179 231
g ground_assumed
f 161 180 179
g ground_assumed
f 161 181 180
g ground_assumed
f 161 182 181
g ground_assumed
f 161 184 182
g ground_assumed
f 161 185 184
g ground_assumed
f 161 186 185
g ground_assumed
f 161 188 186
g ground_assumed
f 161 190 188
g ground_assumed
f 161 191 190
g ground_assumed
f 161 192 191
g ground_assumed
f 161 193 192
g ground_assumed
f 161 194 193
g ground_assumed
f 161 195 194
g ground_assumed
f 161 196 195
g ground_assumed
f 161 198 196
g ground_assumed
f 161 199 198
g ground_assumed
f 161 200 199
g ground_assumed
f 161 202 200
g ground_assumed
f 161 203 202
g ground_assumed
f 161 204 203
g ground_assumed
f 161 206 204
g ground_assumed
f 161 208 206
g ground_assumed
f 161 210 208
g ground_assumed
f 161 211 210
g ground_assumed
f 161 212 211
g ground_assumed
f 212 147 213
g ground_assumed
f 212 149 147
g ground_assumed
f 212 151 149
g ground_assumed
f 212 153 151
g ground_assumed
f 212 155 153
g ground_assumed
f 212 157 155
g ground_assumed
f 212 159 157
g ground_assumed
f 212 161 159
