# Source coordinates; no display transform
v 2686485.5 1251301.375 430.415819644
v 2686486.75 1251301.625 430.501372544
v 2686487.75 1251302 430.573659021
v 2686488 1251302.25 430.595162914
v 2686488 1251302.75 430.6061462
v 2686487.75 1251303.75 430.612100519
v 2686482.5 1251320.25 430.63829166
v 2686481.75 1251321.75 430.623204766
v 2686480 1251321.25 430.500135712
v 2686478.5 1251320.75 430.393078911
v 2686478 1251320.5 430.355562764
v 2686478 1251320.125 430.347325302
v 2686478.5 1251318.375 430.340908303
v 2686481.25 1251310.25 430.338564683
v 2686484.5 1251301.25 430.349024813
v 2686485.5 1251301.375 430.223350129
v 2686486.75 1251301.625 430.223350129
v 2686487.75 1251302 430.223350129
v 2686488 1251302.25 430.223350129
v 2686488 1251302.75 430.223350129
v 2686487.75 1251303.75 430.223350129
v 2686482.5 1251320.25 430.223350129
v 2686481.75 1251321.75 430.223350129
v 2686480 1251321.25 430.223350129
v 2686478.5 1251320.75 430.223350129
v 2686478 1251320.5 430.223350129
v 2686478 1251320.125 430.223350129
v 2686478.5 1251318.375 430.223350129
v 2686481.25 1251310.25 430.223350129
v 2686484.5 1251301.25 430.223350129
g roof
f 1 2 3 4 5 6 7 8 9 10 11 12 13 14 15
g wall
f 2 1 16 17
g wall
f 3 2 17 18
g wall
f 4 3 18 19
g wall
f 5 4 19 20
g wall
f 6 5 20 21
g wall
f 7 6 21 22
g wall
f 8 7 22 23
g wall
f 9 8 23 24
g wall
f 10 9 24 25
g wall
f 11 10 25 26
g wall
f 12 11 26 27
g wall
f 13 12 27 28
g wall
f 14 13 28 29
g wall
f 15 14 29 30
g wall
f 1 15 30 16
g ground_assumed
f 30 29 28 27 26 25 24 23 22 21 20 19 18 17 16
