# pointcloud_to_mesh 0.4.1; candidate requires geometry validation; coordinates preserved
v -22.462748106 16.240587128 9.476096703
v -22.517427995 16.311652555 9.476110342
v -22.541698143 16.234755935 9.476095381
v -25.917982671 20.731222914 9.476958552
v -25.953258763 20.777069896 9.476967351
v -25.969158358 20.728864292 9.476957971
v -5.671399011 -4.653416937 9.472088434
v -5.676060018 -4.666522754 9.472085883
v -5.203424131 -5.284454166 9.471967282
v -4.326088827 -6.431495810 9.471747127
v -4.161386520 -6.646830134 9.471705797
v -4.081783040 -6.585610565 9.471717855
v -2.253535074 -9.086656818 9.471237616
v -2.266814650 -9.123822478 9.471230382
v -1.793647705 -9.742448203 9.471111647
v -0.279612559 -11.721920993 9.470731722
v 0.179379431 -12.322014166 9.470616544
v 0.021694680 -12.328251303 9.470614952
v 0.078684433 -12.402354775 9.470600730
v 0.283674543 -12.458371222 9.470590373
v 0.406255666 -12.491868246 9.470584180
v 0.557360124 -12.533159676 9.470576545
v 0.570832805 -12.703282046 9.470543610
v 0.582363440 -12.848881645 9.470515421
v 3.114321487 -16.159202459 9.469880063
v 3.573443373 -16.759465460 9.469764853
v 7.205327105 -21.507845999 9.468853484
v 7.834461024 -22.330385341 9.468695612
v 11.249745013 -26.795580051 9.467838595
v 11.729445184 -27.422747419 9.467718221
v 13.476324536 -29.706644296 9.467279867
v 13.950194120 -30.326188664 9.467160956
v 16.172659713 -33.218352795 9.466605881
v 14.344569865 -30.841801566 9.467061993
v 14.860438777 -31.516256500 9.466932543
v 15.372938931 -32.186307067 9.466803939
v 15.940529832 -32.928384125 9.466661510
v 16.154793654 -33.208515934 9.466607744
v 16.170843642 -33.229499976 9.466603716
v 18.235869764 -35.893091486 9.466092553
v 18.652444045 -36.503877051 9.465975201
v 18.722224996 -36.507153450 9.465974736
v 20.123881577 -38.356949934 9.465619667
v 20.076625673 -38.552237332 9.465581707
v 20.417964002 -38.981414363 9.465499365
v 20.139738940 -39.001133556 9.465494867
v 22.583586759 -42.162223015 9.464888214
v 22.514857336 -42.215079822 9.464877803
v 22.525100978 -42.228393090 9.464875248
v 24.104845941 -41.045777535 9.465108277
v 26.673468711 -39.038267831 9.465503572
v 32.737443108 -34.298962553 9.466436780
v 33.244648858 -33.690648705 9.466555902
v 35.137744825 -32.030509988 9.466882235
v 38.696959247 -28.938910538 9.467490031
v 34.738761403 -31.982988111 9.466890473
v 32.574473189 -29.412955422 9.467383263
v 34.740927846 -32.243340942 9.466840024
v 34.469018713 -32.322012626 9.466824116
v 33.785203536 -31.432851395 9.466994766
v 33.301107323 -31.457196864 9.466988870
v 29.548013821 -26.466213868 9.467946959
v 29.447747026 -26.043110524 9.468028710
v 28.831912281 -25.250160489 9.468180880
v 27.605696087 -23.671282094 9.468483873
v 27.274097382 -23.518762698 9.468512623
v 26.338704462 -22.220691812 9.468761905
v 23.012000985 -17.604132464 9.469648471
v 22.023394204 -16.395499056 9.469880291
v 21.385503013 -15.615637315 9.470029871
v 21.402758829 -15.563150628 9.470040085
v 12.975650845 -4.622650762 9.472139780
v 12.897954879 -4.604784841 9.472143053
v 12.028686798 -3.378523686 9.472378579
v 11.986734292 -3.339583345 9.472386024
v 11.250615364 -2.656317957 9.472516645
v 11.045955658 -2.036381686 9.472636287
v 10.818471254 -1.739184884 9.472693328
v 10.016188895 -0.691043578 9.472894499
v 7.726124494 2.300809549 9.473468729
v 7.632399240 2.423256845 9.473492231
v 7.467620275 2.638532215 9.473533549
v 6.077909373 4.454119106 9.473882017
v 5.164118536 5.647940542 9.474111148
v 5.070332500 5.770467247 9.474134665
v 3.515842634 7.801329508 9.474524451
v 3.490010446 7.835077952 9.474530928
v 3.316175021 8.062185129 9.474574517
v 3.136597687 7.924080023 9.474547316
v -1.225620546 13.882832329 9.475691471
v -1.734148325 14.549768349 9.475819481
v -4.220903919 17.811156919 9.476445467
v -4.753999906 18.510314151 9.476579662
v -9.323068025 24.502662806 9.477729824
v -9.647250751 24.601537945 9.477748197
v -10.271914398 25.413784756 9.477904085
v -10.314711808 25.968266114 9.478011436
v -10.693166352 26.460368541 9.478105881
v -11.162463904 26.571761533 9.478126327
v -11.674376101 27.237398235 9.478254077
v -11.696852127 27.590101799 9.478322374
v -12.348614214 28.437584568 9.478485025
v -12.651449375 28.448008428 9.478486308
v -15.998701604 32.820103847 9.479325448
v -15.892290506 33.042619359 9.479368830
v -16.075482501 33.280822934 9.479414546
v -16.338556893 33.264014151 9.479410648
v -16.708069805 33.746662485 9.479503284
v -16.570426300 34.014615272 9.479555546
v -23.374925458 42.819327911 9.481245287
v -23.727477785 42.915234009 9.481263015
v -24.376452459 43.762908163 9.481425710
v -24.815036424 44.335775343 9.481535661
v -27.446373417 42.312128663 9.481137086
v -26.304181997 40.826943247 9.480852045
v -25.913940333 41.127061115 9.480911156
v -26.039974933 40.483396211 9.480786111
v -26.056950011 40.396703894 9.480769269
v -26.643914930 39.928652222 9.480677135
v -26.841616684 40.000728180 9.480690622
v -33.267828971 35.194395867 9.479743543
v -33.418929809 35.182471509 9.479740864
v -33.495955649 35.023773956 9.479709922
v -35.367101976 33.624294659 9.479434157
v -34.229444758 32.145005041 9.479150248
v -33.933716911 32.156289484 9.479153155
v -32.991166799 30.971213378 9.478925788
v -33.105482195 30.683522510 9.478869757
v -32.767075978 30.243494710 9.478785306
v -32.472630847 30.259727773 9.478789168
v -32.085519643 29.756369137 9.478692562
v -32.008653881 29.257322499 9.478596037
v -31.390244476 28.453208047 9.478441709
v -31.001546591 28.353446177 9.478423322
v -29.494426837 26.294694677 9.478028016
v -29.339162163 26.270980205 9.478023798
v -28.662001474 25.385649926 9.477853875
v -28.636779094 24.941294509 9.477767823
v -28.243911396 24.418096835 9.477667386
v -27.881811598 24.365617706 9.477658097
v -21.259704306 15.726035437 9.475999914
v -26.804232532 22.956774296 9.477387694
v -25.732164347 21.447400762 9.477097796
v -25.817941419 21.187335342 9.477047188
v -25.490250788 20.750936532 9.476963414
v -23.837077192 18.549338932 9.476540781
v -23.524106712 18.132543588 9.476460770
v -23.216104730 18.132804537 9.476461570
v -22.313190708 16.958750246 9.476236243
v -22.410706732 16.649784167 9.476176129
v -22.194386891 16.361702356 9.476120827
v -21.928190320 16.280069074 9.476105655
v -21.626723610 16.187619660 9.476088473
v -17.496529903 10.841171406 9.475062414
v -17.503825229 10.797278999 9.475053891
v -17.537197727 10.596491748 9.475014898
v -17.496763611 10.544406911 9.475004903
v -17.320642314 10.557782820 9.475007923
v -9.076090970 -0.221270098 9.472939072
v -9.148977234 -0.407274429 9.472902848
v -8.752104698 -0.919271079 9.472804592
v -8.606542527 -1.107057673 9.472768554
v -8.431325030 -1.333101960 9.472725174
v -8.405287465 -1.366692457 9.472718728
v -7.192171940 -2.931706445 9.472418390
v -6.838438694 -3.388050022 9.472330814
v -6.722261343 -3.298703082 9.472348412
v -6.628518938 -3.421263341 9.472324889
v -6.588766214 -3.473236664 9.472314913
v -6.579372912 -3.472783313 9.472315024
v -3.990757294 -6.710133936 9.471693945
v 16.555308639 -33.429035204 9.466565983
v 1.570431415 9.957181514 9.474937508
v 0.291988585 11.616777991 9.475256016
v -0.191951592 12.244999601 9.475376584
v -1.247141581 13.614782860 9.475639472
v -16.900314645 10.008240031 9.474902448
v -21.253915885 15.700205117 9.475994922
v -12.752197278 3.620157097 9.473674571
v -12.769468810 3.529782606 9.473657015
v -12.667092910 3.509550216 9.473653343
v -7.386561066 -3.511740781 9.472305510
v -7.269057139 -3.506069708 9.472306895
v -7.349585496 -3.401410021 9.472326981
v 10.642176592 -0.694540629 9.472895345
v 10.633681487 -0.644202233 9.472905080
v 10.605074023 -0.646372304 9.472904590
v 10.558449200 -0.649909130 9.472903791
v 10.656195554 -0.777610860 9.472879281
v 18.039759580 -36.398967075 9.465994040
v 18.010769358 -36.473748736 9.465979478
v 18.100542116 -36.477963803 9.465978879
v -39.014468675 28.747081194 1.677543228
v -39.278623882 29.090560803 1.677553343
v -39.374217823 29.123001186 1.677554095
v -44.405200377 35.664760987 1.677746735
v -45.358648828 34.931505309 1.677720766
v -14.285061751 -5.474159495 1.676530909
v -14.476644240 -5.621497243 1.676525691
v -14.302102493 -5.848061220 1.676519020
v -14.110711595 -5.700870816 1.676524233
v -9.956057103 -11.103258907 1.676365145
v 14.953215604 -43.493330932 1.675411329
v 16.945400789 -46.017160276 1.675337156
v 17.647566268 -45.477155387 1.675356280
v 16.789080946 -43.977520414 1.675401291
v 17.071207118 -43.246477622 1.675425254
v 16.894400987 -42.320246635 1.675454073
v 17.312149020 -41.998974817 1.675465451
v 17.284329691 -39.700423159 1.675538156
v 17.701126495 -39.379882890 1.675549508
v 17.434658106 -38.103149849 1.675589168
v 17.853119560 -37.781329369 1.675600566
v 17.897202341 -36.213690904 1.675650333
v 16.139038035 -33.928672255 1.675717619
v 16.071283561 -33.840614366 1.675720212
v 14.198261065 -31.406318937 1.675791894
v 14.101531473 -31.390259478 1.675792124
v 14.132365583 -31.320677096 1.675794416
v 2.945896332 -16.782052492 1.676222530
v 2.892909267 -16.713187237 1.676224557
v -0.466149349 -12.347547715 1.676353111
v -0.699225770 -12.044627238 1.676362031
v -2.429013531 -9.796488495 1.676428231
v -2.482380761 -9.727129155 1.676430273
v -4.501516189 -7.102936357 1.676507547
v -4.595548968 -6.980725564 1.676511146
v -4.760868594 -6.765865993 1.676517473
v -5.840623479 -5.362550023 1.676558796
v -5.897369185 -5.288799807 1.676560967
v -6.155139317 -4.953785863 1.676570832
v -7.071928421 -3.762270262 1.676605919
v -7.166022180 -3.639980215 1.676609520
v -7.269057139 -3.506069708 1.676613463
v -7.386561066 -3.511740781 1.676612944
v -7.349585496 -3.401410021 1.676616545
v -8.725612530 -1.613040513 1.676669206
v -8.751529476 -1.579357253 1.676670198
v -8.925935279 -1.352688728 1.676676873
v -9.260313335 -0.918110405 1.676689670
v -9.319173468 -0.841612150 1.676691922
v -12.667092910 3.509550216 1.676820049
v -12.769468810 3.529782606 1.676820395
v -12.752197316 3.620157086 1.676823306
v -16.116369901 7.992443098 1.676952055
v -16.191317676 7.986576049 1.676951654
v -16.166213547 8.057222971 1.676953963
v -17.573158932 9.885775873 1.677007808
v -17.655726639 9.883357620 1.677007493
v -17.640728639 9.973593615 1.677010394
v -22.462748042 16.240587119 1.677194936
v -22.541698143 16.234755935 1.677194523
v -22.517428043 16.311652547 1.677197028
v -23.918221182 18.132209681 1.677250638
v -23.975884017 18.207151885 1.677252844
v -25.917982671 20.731222914 1.677327170
v -25.969158358 20.728864292 1.677326948
v -25.953258763 20.777069896 1.677328520
v -28.818896663 24.501429458 1.677438190
v -28.896678667 24.512702405 1.677438322
v -28.877925149 24.578146454 1.677440449
v -31.431682628 27.897167068 1.677538183
v -31.967746340 27.971180463 1.677538981
v -32.865360864 27.280864226 1.677514533
v -33.264237810 27.799521793 1.677529806
v -33.914402775 27.299508234 1.677512098
v -34.334311747 27.845513633 1.677528177
v -10.121323982 -10.888358771 1.676371473
v -28.662001474 25.385649926 1.677466642
v -29.339162163 26.270980205 1.677492723
v -29.494426837 26.294694677 1.677493026
v -28.697849156 25.206555866 1.677460867
v -28.243911396 24.418096835 1.677437209
v -28.636779094 24.941294509 1.677452644
v -23.216104730 18.132804537 1.677252681
v -23.524106712 18.132543588 1.677251785
v -22.410706732 16.649784167 1.677208043
v -22.313190708 16.958750246 1.677218108
v -12.097895190 3.397060559 1.676818129
v -9.148977218 -0.407274461 1.676706167
v -9.076090970 -0.221270098 1.676712267
v -11.798357900 3.337863472 1.676817118
v -12.604678498 4.392059397 1.676848174
v -12.656989875 4.118336468 1.676839356
v -25.817941424 21.187335298 1.677341901
v -25.732164347 21.447400762 1.677350384
v -26.804232532 22.956774296 1.677395087
v -27.881811598 24.365617706 1.677436592
v -17.496529903 10.841171406 1.677038282
v -21.259704306 15.726035437 1.677182111
v -21.253915885 15.700205117 1.677181310
v -17.503825193 10.797278986 1.677036871
v -18.649752872 37.570517224 1.677881356
v -18.663868629 37.465132373 1.677877978
v -5.596471301 20.455842085 1.677377054
v 2.759896760 9.538584670 1.677055451
v 3.681005545 8.342760397 1.677020241
v 3.855530913 8.116183824 1.677013570
v 3.881465627 8.082514228 1.677012578
v 5.442125171 6.056396797 1.676952921
v 5.536283438 5.934156359 1.676949322
v 6.453701056 4.743124122 1.676914253
v 7.848927636 2.931779100 1.676860919
v 8.014360599 2.717006691 1.676854595
v 7.993562485 2.701011767 1.676854029
v 8.087287268 2.578564109 1.676850421
v 10.558449196 -0.649909155 1.676755317
v 10.605073988 -0.646372322 1.676755563
v 10.633681487 -0.644202233 1.676755714
v 10.642176612 -0.694540595 1.676754145
v 10.656195554 -0.777610860 1.676751555
v 31.226321166 -27.651649246 1.675959894
v 36.190203065 -27.967634668 1.675964203
v 36.802028040 -28.315206330 1.675954962
v 38.367817548 -28.283361914 1.675960485
v 38.883334363 -28.777021666 1.675946340
v 39.343167633 -28.377601987 1.675960314
v 42.093059316 -31.953271487 1.675855019
v 42.587389213 -32.391329648 1.675842573
v 44.313295559 -34.635516471 1.675776487
v 44.842256946 -35.074316176 1.675764117
v 45.357633028 -35.744456948 1.675744383
v 46.305849720 -35.015224787 1.675770209
v 46.153992396 -34.817765518 1.675776024
v 43.518405202 -31.390725536 1.675876942
v 42.974312338 -30.937827661 1.675889715
v 38.054830003 -24.541051000 1.676078085
v 39.920249972 -27.401176821 1.675992897
v 13.560627429 6.787871649 1.676999496
v 13.342008131 6.619741069 1.676993541
v 13.466474548 6.909990076 1.677003091
v 13.300943859 7.124687328 1.677009412
v 11.904892802 8.935398281 1.677062724
v 11.687967260 8.768570295 1.677056815
v 9.116844688 12.108816250 1.677155171
v 9.331137371 12.273619420 1.677161008
v 9.305187332 12.307277229 1.677161999
v 9.130558832 12.533774488 1.677168668
v 8.916471333 12.369129116 1.677162837
v -22.202822090 52.797421050 1.678353278
v -22.518183218 52.292493136 1.678336380
v -17.544139540 45.824770652 1.678145920
v -17.622563911 45.239272445 1.678127154
v -17.428587453 44.987045891 1.678119726
v -18.639975784 37.557804128 1.677880982
v 13.247951598 6.741933593 1.676997140
v 10.676829025 10.082179547 1.677095496
v 3.114321487 -16.159202459 1.676242738
v 0.582363440 -12.848881645 1.676340260
v 0.602891324 -13.108091429 1.676332111
v 3.053131273 -16.312303526 1.676237714
v -0.279612559 -11.721920993 1.676373460
v -1.793647705 -9.742448203 1.676431775
v -1.956294918 -9.756281971 1.676430867
v -0.383288592 -11.801653714 1.676370636
v -22.553932972 42.528668131 6.722617243
v -18.663868629 37.465132373 6.721390769
v -18.649752872 37.570517224 6.721412655
v -18.639975784 37.557804128 6.721409575
v -17.428587453 44.987045891 6.722944172
v -17.622563911 45.239272445 6.723005273
v -17.544139540 45.824770652 6.723126867
v -22.518183218 52.292493136 6.724693659
v -22.202822090 52.797421050 6.724789036
v 8.916471333 12.369129116 6.714994313
v 9.130558832 12.533774488 6.715021154
v -22.359844429 53.377565847 6.724918505
v -23.820377163 52.254333732 6.724735393
v -25.148260036 53.980972754 6.725153668
v -26.935222826 52.606697499 6.724929630
v -32.087231023 48.589383692 6.724271973
v -32.901703260 47.900310724 6.724156517
v -33.816108850 47.195188921 6.724041472
v -34.997613471 46.351009153 6.723907061
v -37.708910702 44.302074331 6.723574841
v -38.330335155 43.811277587 6.723494189
v -38.536274420 43.648628176 6.723467461
v -39.259627361 43.052843170 6.723368369
v -41.093062764 41.720546171 6.723155043
v -44.101640558 39.534311980 6.722804987
v -45.078785922 38.704359556 6.722665779
v -45.371553435 38.455693271 6.722624071
v -44.238836664 36.982827691 6.722267272
v -44.357395800 35.694460860 6.721997641
v -39.278623882 29.090560803 6.720397861
v -39.014468675 28.747081194 6.720314654
v -34.334311747 27.845513633 6.719943616
v -33.914402775 27.299508234 6.719811347
v -33.264237810 27.799521793 6.719892861
v -32.865360864 27.280864226 6.719767217
v -31.967746340 27.971180463 6.719879754
v -31.431682628 27.897167068 6.719843481
v -31.666744457 28.202667902 6.719917492
v -31.571055384 28.276258200 6.719929489
v -31.780517698 28.553374236 6.719996480
v -31.930864861 28.752281665 6.720044564
v -33.046381501 30.228096310 6.720401331
v -33.203730414 30.436266965 6.720451655
v -33.265580172 30.280613299 6.720420899
v -34.686676695 32.127557892 6.720868344
v -34.487852607 32.135144662 6.720862347
v -34.692751615 32.406223502 6.720927878
v -35.634144904 33.651675119 6.721228957
v -26.304181997 40.826943247 6.722398687
v -27.446373417 42.312128663 6.722758470
v -24.815036424 44.335775343 6.723088370
v -24.376452459 43.762908163 6.722949670
v -24.438227767 44.236381703 6.723052792
v 19.985692842 -38.928021828 6.703654267
v 18.731164562 -37.297559586 6.704049267
v 18.390063772 -37.202498294 6.704082555
v 17.526591076 -43.662764844 6.702740840
v 17.786736800 -45.384506788 6.702364486
v 18.180944204 -45.561475834 6.702311734
v 19.280802639 -44.715622613 6.702449627
v 22.142654106 -42.514697291 6.702808428
v 22.525100978 -42.228393090 6.702854712
v 20.047004405 -39.007706113 6.703634963
v 20.139738898 -39.001133543 6.703632811
v 20.008940953 -38.831947842 6.703673822
v 36.802028040 -28.315206330 6.705268906
v 36.190203065 -27.967634668 6.705366295
v 31.226321166 -27.651649246 6.705623580
v 32.574473189 -29.412955422 6.705197153
v 34.738761403 -31.982988111 6.704567378
v 38.696959247 -28.938910538 6.705063631
v 38.883334363 -28.777021666 6.705090947
v 38.367817548 -28.283361914 6.705215736
v -22.517427995 16.311652555 9.571861123
v -22.462748106 16.240587128 9.571846294
v -17.640728651 9.973593642 9.570538564
v -17.655726639 9.883357620 9.570531225
v -17.573158932 9.885775873 9.570520239
v -16.166213547 8.057222971 9.570138676
v -16.191317676 7.986576049 9.570134749
v -16.116369901 7.992443098 9.570125159
v -12.752197278 3.620157097 9.569212797
v -12.667092912 3.509550250 9.569189716
v -9.319173468 -0.841612150 9.568281762
v -9.260313335 -0.918110405 9.568265799
v -8.925935279 -1.352688728 9.568175116
v -8.751529476 -1.579357253 9.568127817
v -8.725612530 -1.613040513 9.568120789
v -7.349585496 -3.401410021 9.567747611
v -7.269057115 -3.506069667 9.567725771
v -7.166022180 -3.639980215 9.567697828
v -7.071928421 -3.762270262 9.567672310
v -6.155139317 -4.953785863 9.567423677
v -5.897369185 -5.288799807 9.567353770
v -5.840623479 -5.362550023 9.567338381
v -4.760868594 -6.765865993 9.567045552
v -4.595548968 -6.980725564 9.567000717
v -4.501516189 -7.102936357 9.566975216
v -2.482380761 -9.727129155 9.566427627
v -2.429013529 -9.796488435 9.566413154
v -0.699225770 -12.044627238 9.565944036
v -0.466149349 -12.347547715 9.565880826
v 2.892909267 -16.713187237 9.564969851
v 2.945896332 -16.782052492 9.564955480
v 14.132365555 -31.320677072 9.561921715
v 14.101531473 -31.390259478 9.561918678
v 14.198261065 -31.406318937 9.561903844
v 16.071283561 -33.840614366 9.561395881
v 16.139037983 -33.928672233 9.561377506
v 18.039759580 -36.398967075 9.560862031
v 19.985692842 -38.928021828 9.560334295
v 20.008940929 -38.831947862 9.560341119
v 20.139738898 -39.001133543 9.560305730
v 20.417964002 -38.981414363 9.560269916
v 20.076625673 -38.552237332 9.560360985
v 20.123881577 -38.356949934 9.560374855
v 18.722224996 -36.507153450 9.560757907
v 18.652444086 -36.503877032 9.560767744
v 18.235869764 -35.893091486 9.560887932
v 16.957196423 -34.018287273 9.561256846
v 16.555308639 -33.429035204 9.561372796
v 16.172659764 -33.218352814 9.561446773
v 16.170843665 -33.229499965 9.561445861
v 16.154793664 -33.208515942 9.561450227
v 15.940529832 -32.928384125 9.561508508
v 15.372938931 -32.186307067 9.561662896
v 14.860438777 -31.516256500 9.561802299
v 14.344569865 -30.841801566 9.561942618
v 13.950194120 -30.326188664 9.562049890
v 13.476324536 -29.706644296 9.562178786
v 11.729445184 -27.422747419 9.562653947
v 11.249745013 -26.795580051 9.562784428
v 7.834461024 -22.330385341 9.563713404
v 7.205327105 -21.507845999 9.563884532
v 3.573443373 -16.759465460 9.564872425
v 3.114321487 -16.159202459 9.564997309
v 3.053131316 -16.312303523 9.564989720
v 0.602891324 -13.108091429 9.565656275
v 0.582363440 -12.848881645 9.565686016
v 0.557360124 -12.533159676 9.565722240
v 0.406255666 -12.491868246 9.565747096
v 0.283674567 -12.458371228 9.565767261
v 0.078684433 -12.402354775 9.565800981
v 0.021694680 -12.328251303 9.565816441
v 0.179379431 -12.322014166 9.565795629
v -0.279612559 -11.721920993 9.565920478
v -0.383288592 -11.801653714 9.565926299
v -1.793647752 -9.742448207 9.566332304
v -2.266814650 -9.123822478 9.566461008
v -2.253535074 -9.086656818 9.566463064
v -3.990757294 -6.710133936 9.566946540
v -4.081783040 -6.585610565 9.566971873
v -4.161386520 -6.646830134 9.566976342
v -5.676060018 -4.666522754 9.567388342
v -5.671399011 -4.653416937 9.567389070
v -5.706025651 -4.608392102 9.567398463
v -5.784618526 -4.506198207 9.567419783
v -6.260594787 -3.887288810 9.567548898
v -6.579372912 -3.472783313 9.567635372
v -6.588766214 -3.473236664 9.567636603
v -6.722261343 -3.298703082 9.567672915
v -6.838438694 -3.388050022 9.567679437
v -12.604678508 4.392059352 9.569272965
v -15.401310684 8.048419244 9.570033665
v -16.900314645 10.008240031 9.570441402
v -17.320642287 10.557782842 9.570555734
v -17.496763611 10.544406911 9.570578312
v -17.537197727 10.596491748 9.570589229
v -17.503825193 10.797278986 9.570605561
v -21.253915885 15.700205117 9.571625606
v -21.626723610 16.187619660 9.571727012
v -21.928190259 16.280069060 9.571777650
v -22.194386891 16.361702356 9.571822363
v -22.410706727 16.649784113 9.571881750
v -23.524106712 18.132543588 9.572187417
v -23.837077192 18.549338932 9.572273338
v -25.490250788 20.750936532 9.572727191
v -25.817941424 21.187335298 9.572817153
v -28.243911396 24.418096835 9.573483165
v -28.818896663 24.501429458 9.573570079
v -25.953258763 20.777069896 9.572792919
v -25.917982671 20.731222914 9.572783352
v -23.975884047 18.207151893 9.572256656
v -23.918221232 18.132209689 9.572241018
v 17.897202341 -36.213690904 9.560900693
v -1.956294918 -9.756281971 9.566353001
v -4.326088827 -6.431495810 9.567021142
v -7.192171940 -2.931706445 9.567775017
v -8.405287465 -1.366692457 9.568102805
v -8.606542527 -1.107057673 9.568157185
v -12.656989875 4.118336468 9.569251629
v -28.877925120 24.578146478 9.573586087
v -28.896678667 24.512702405 9.573581836
v -34.686676641 32.127557876 9.575161418
v -33.265580172 30.280613299 9.574776017
v -33.203730456 30.436266948 9.574783781
v -33.046381487 30.228096361 9.574740727
v -31.930864861 28.752281665 9.574435494
v -31.780517743 28.553374247 9.574394356
v -31.571055384 28.276258200 9.574337042
v -31.666744457 28.202667902 9.574342414
v -31.431682628 27.897167068 9.574278665
v -28.697849156 25.206555866 9.573626908
v -29.494426837 26.294694677 9.573848434
v -30.581604648 27.779798262 9.574150776
v -31.001546591 28.353446177 9.574267561
v -31.390244476 28.453208047 9.574330830
v -32.008653881 29.257322499 9.574498583
v -32.085519643 29.756369137 9.574560923
v -32.472630847 30.259727773 9.574665933
v -32.767075978 30.243494710 9.574704317
v -33.105482195 30.683522510 9.574796115
v -32.991166799 30.971213378 9.574810465
v -33.933716911 32.156289484 9.575061934
v -34.229444758 32.145005041 9.575101007
v -35.367101976 33.624294659 9.575409614
v -33.495955649 35.023773956 9.575300453
v -33.418929809 35.182471509 9.575306468
v -33.267828971 35.194395867 9.575287144
v -26.841616684 40.000728180 9.574912244
v -26.643914930 39.928652222 9.574877846
v -26.056949968 40.396703874 9.574846622
v -26.039974933 40.483396211 9.574853324
v -25.913940333 41.127061115 9.574903086
v -26.304181997 40.826943247 9.574924995
v -35.634144904 33.651675119 9.575448802
v -34.487852607 32.135144662 9.575135149
v -34.631678328 32.668027208 9.575210119
v -34.692751615 32.406223502 9.575191214
v -16.570426300 34.014615272 9.572892131
v -16.708069805 33.746662485 9.572883007
v -16.338556893 33.264014151 9.572782545
v -16.075482501 33.280822934 9.572748490
v -15.892290506 33.042619359 9.572698797
v -15.998701604 32.820103847 9.572690146
v -15.608529144 32.310470540 9.572584068
v -12.651449375 28.448008428 9.571780107
v -12.348614214 28.437584568 9.571737810
v -11.696852127 27.590101799 9.571561010
v -11.674376101 27.237398235 9.571521285
v -11.162463904 26.571761533 9.571382421
v -10.693166352 26.460368541 9.571306974
v -10.314711808 25.968266114 9.571204312
v -10.271914398 25.413784756 9.571140846
v -9.647250751 24.601537945 9.570971396
v -9.323068025 24.502662806 9.570916999
v -4.753999906 18.510314151 9.569672245
v -4.220903919 17.811156919 9.569527013
v -1.734148325 14.549768349 9.568849545
v -1.225620518 13.882832369 9.568711006
v -1.247141581 13.614782860 9.568686070
v -0.191951592 12.244999601 9.568400069
v 0.291988585 11.616777991 9.568268902
v 0.826757466 10.922573660 9.568123957
v 1.570431415 9.957181514 9.567922391
v 3.136597687 7.924080023 9.567497895
v 3.316175021 8.062185129 9.567487813
v 11.045955658 -2.036381686 9.565386046
v 11.250615364 -2.656317957 9.565293747
v 11.986734243 -3.339583334 9.565122538
v 12.028686798 -3.378523686 9.565112780
v 12.132992128 -3.525665376 9.565083289
v 12.897954879 -4.604784841 9.564867003
v 12.975650845 -4.622650762 9.564854572
v 21.402758829 -15.563150628 9.562570379
v 21.385503013 -15.615637315 9.562567271
v 22.023394204 -16.395499056 9.562399388
v 23.012000985 -17.604132464 9.562139202
v 27.274097382 -23.518762698 9.560944304
v 27.605696087 -23.671282094 9.560883321
v 28.831912281 -25.250160489 9.560552309
v 29.447747026 -26.043110524 9.560386067
v 29.548013821 -26.466213868 9.560328437
v 33.075095518 -31.156639183 9.559360831
v 33.301107323 -31.457196864 9.559298828
v 33.785203536 -31.432851395 9.559235478
v 34.469018713 -32.322012626 9.559049983
v 34.740927846 -32.243340942 9.559021157
v 32.574473189 -29.412955422 9.559610229
v 31.226321166 -27.651649246 9.559976800
v 10.656195590 -0.777610872 9.565569946
v 10.558449196 -0.649909155 9.565596524
v 8.087287268 2.578564109 9.566268449
v 7.993562478 2.701011762 9.566293933
v 8.014360599 2.717006691 9.566292765
v 7.848927636 2.931779100 9.566337606
v 6.453701056 4.743124122 9.566715785
v 5.536283438 5.934156359 9.566964454
v 5.442125171 6.056396797 9.566989975
v 3.881465627 8.082514228 9.567412996
v 3.855530913 8.116183824 9.567420025
v 3.681005545 8.342760397 9.567467331
v 2.759896760 9.538584670 9.567716999
v -5.596471301 20.455842085 9.569989148
v -18.663868629 37.465132373 9.573535734
v -22.553932972 42.528668131 9.574591525
v -24.438227767 44.236381703 9.575025489
v -24.376452459 43.762908163 9.574967861
v -23.727477785 42.915234009 9.574791420
v -23.374925458 42.819327911 9.574733471
v -12.023729352 28.015138513 9.571649680
v 3.490010446 7.835077952 9.567440547
v 5.164118536 5.647940542 9.566985348
v 7.467620275 2.638532215 9.566359014
v 7.632399240 2.423256845 9.566314209
v 10.016188895 -0.691043578 9.565666045
v 20.047004405 -39.007706113 9.560317667
v 22.514857336 -42.215079822 9.559648387
v 22.583586759 -42.162223015 9.559644528
v -44.405200377 35.664760987 2.114111540
v -39.374217823 29.123001186 2.112492745
v -39.278623911 29.090560840 2.112479127
v -44.357395800 35.694460860 2.114113299
v -44.238836664 36.982827691 2.114344324
v -45.371553435 38.455693271 2.114708793
v -45.793458752 38.097341940 2.114675311
v -44.516479479 36.436892596 2.114264424
v -46.221160967 35.125896307 2.114154689
v -46.175439172 35.066444499 2.114139978
v 16.411481034 -46.314994283 2.094001695
v 17.781824404 -45.868421490 2.093976587
v 18.180944204 -45.561475834 2.094002279
v 18.390063772 -37.202498294 2.095545502
v 18.731164562 -37.297559586 2.095500772
v 18.100542116 -36.477963803 2.095703610
v 18.010769358 -36.473748736 2.095711500
v 18.039759580 -36.398967075 2.095723160
v 17.897202341 -36.213690904 2.095769013
v 17.853119560 -37.781329369 2.095479983
v 17.434658106 -38.103149849 2.095453045
v 17.701126495 -39.379882890 2.095193723
v 17.284329691 -39.700423159 2.095166893
v 17.312149020 -41.998974817 2.094735785
v 16.894400987 -42.320246635 2.094708894
v 17.071207118 -43.246477622 2.094522070
v 16.789080946 -43.977520414 2.094407984
v 17.647566268 -45.477155387 2.094060220
v -14.084802918 -5.734560435 2.103987175
v -14.110711595 -5.700870816 2.103995512
v -14.302102493 -5.848061220 2.103983191
v -14.476644240 -5.621497243 2.104039280
v -14.285061751 -5.474159495 2.104051612
v -45.358648828 34.931505309 2.114050164
v 17.526591076 -43.662764844 2.094408356
v 14.953215604 -43.493330932 2.094643609
v -14.732682165 -5.818404860 2.104022798
v -14.558329717 -6.045114419 2.103966697
v -14.532420700 -6.078803776 2.103958361
v -12.973307465 -8.106110406 2.103456693
v -12.879242490 -8.228422591 2.103426426
v -11.962733854 -9.420153886 2.103131525
v -10.568889670 -11.232562049 2.102683035
v -10.403620619 -11.447460516 2.102629857
v -10.309616607 -11.569693431 2.102599610
v 17.786736800 -45.384506788 2.094066496
v 16.945400789 -46.017160276 2.094015020
v 9.331137371 12.273619420 2.105494516
v 9.116844688 12.108816250 2.105480722
v 10.676829025 10.082179547 2.104979110
v 10.770946555 9.959907780 2.104948846
v 11.687967260 8.768570295 2.104653979
v 11.904892802 8.935398281 2.104667943
v 13.466474580 6.909990101 2.104166434
v 13.247951598 6.741933593 2.104152367
v 13.342008131 6.619741069 2.104122123
v 13.560627429 6.787871649 2.104136196
v 39.920249972 -27.401176821 2.095670681
v 38.054830003 -24.541051000 2.096351991
v 38.028006550 -24.506172607 2.096360622
v 37.514479214 -23.712620481 2.096549334
v 29.478039434 -13.253694675 2.099136893
v 27.093427657 -10.159066005 2.099903045
v 25.871423120 -8.580598295 2.100294285
v 23.853665264 -5.958230793 2.100943284
v 22.447756928 -4.127347072 2.101396176
v 13.904126537 6.974836463 2.104143902
v 13.772639294 7.145448048 2.104186142
v 12.211457191 9.171163602 2.104687677
v 11.212361689 10.467542349 2.105008640
v 11.199449564 10.484104242 2.105012752
v 10.626274194 11.219294555 2.105195294
v 9.749524226 12.350141876 2.105475688
v 9.605340055 12.538111616 2.105522172
v 9.431272209 12.765040050 2.105578291
v -21.958029481 53.686584224 2.115698088
v -21.971346686 53.676342541 2.115697230
v -22.359844429 53.377565847 2.115672222
v 13.300943859 7.124687328 2.104219595
v -25.817941419 21.187335342 -6.130845800
v -21.259704276 15.726035433 -6.130845800
v -17.503825229 10.797278999 -6.130845800
v -17.320642314 10.557782820 -6.130845800
v -15.401310744 8.048419259 9.474526295
v -12.604678508 4.392059352 9.473824520
v -11.798357932 3.337863431 9.473622185
v -9.076090938 -0.221270077 9.472939072
v -9.076090938 -0.221270077 1.676712267
v -9.148977234 -0.407274429 -6.130845800
v -9.148977234 -0.407274429 9.568303752
v -8.752104690 -0.919271052 9.568196516
v -8.431325065 -1.333101987 9.568109840
v -6.722261373 -3.298703105 -6.130845800
v -6.628518944 -3.421263346 9.567647416
v -6.260594761 -3.887288844 9.472235471
v -5.784618553 -4.506198171 9.472116689
v -5.706025651 -4.608392102 9.472097075
v -5.203424086 -5.284454163 9.567259782
v 0.283674543 -12.458371222 -6.130845800
v 0.570832805 -12.703282046 9.565702721
v 0.570832805 -12.703282046 -6.130845800
v 16.170843642 -33.229499976 -6.130845800
v 16.957196458 -34.018287260 9.466452768
v 22.514857299 -42.215079850 6.702857938
v 22.525100994 -42.228393110 -6.130845800
v 24.104845941 -41.045777535 -6.130845800
v 26.673468664 -39.038267817 -6.130845800
v 32.737443108 -34.298962553 -6.130845800
v 33.244648858 -33.690648705 -6.130845800
v 35.137744825 -32.030509988 -6.130845800
v 38.696959209 -28.938910567 -6.130845800
v 33.075095522 -31.156639205 9.467046566
v 26.338704425 -22.220691777 9.561206545
v 12.132992157 -3.525665372 9.472350318
v 11.986734292 -3.339583345 -6.130845800
v 10.818471254 -1.739184884 9.565447900
v 10.818471254 -1.739184884 -6.130845800
v 7.726124478 2.300809536 9.566288725
v 6.077909389 4.454119119 9.566736883
v 5.070332467 5.770467221 9.567010849
v 3.515842601 7.801329482 9.567433523
v 0.826757450 10.922573627 9.475122785
v -1.225620546 13.882832329 -6.130845800
v -12.023729376 28.015138544 9.478403948
v -15.608529129 32.310470586 9.479227634
v -26.056950011 40.396703894 -6.130845800
v -34.631678353 32.668027240 9.479250628
v -30.581604624 27.779798239 9.478313175
v 10.605074023 -0.646372304 -6.130845800
v 10.558449200 -0.649909130 -6.130845800
v 10.642176592 -0.694540629 -6.130845800
v 18.100542112 -36.477963848 9.560845547
v -14.084802890 -5.734560413 1.676523241
v -12.525710186 -7.761882832 2.103485506
v -12.525710186 -7.761882832 1.676463541
v -12.431646400 -7.884195932 2.103455239
v -12.431646400 -7.884195932 1.676459939
v -11.515149813 -9.075936493 2.103160337
v -11.515149813 -9.075936493 1.676424845
v -10.121324020 -10.888358800 2.102711846
v -9.956057109 -11.103258912 2.102658668
v -9.862054365 -11.225492803 2.102628421
v -9.862054365 -11.225492803 1.676361545
v 14.132365583 -31.320677096 -6.130845800
v -12.752197316 3.620157086 -6.130845800
v -17.640728639 9.973593615 -6.130845800
v -22.517428043 16.311652547 -6.130845800
v -23.975884017 18.207151885 -6.130845800
v -28.877925149 24.578146454 -6.130845800
v -12.097895164 3.397060577 9.569100560
v 7.993562485 2.701011767 -6.130845800
v 38.883334340 -28.777021659 -6.130845800
v 39.343167633 -28.377601987 -6.130845800
v 42.093059316 -31.953271487 -6.130845800
v 42.587389213 -32.391329648 -6.130845800
v 44.313295559 -34.635516471 -6.130845800
v 44.842256946 -35.074316176 -6.130845800
v 45.357633028 -35.744456948 -6.130845800
v 46.305849720 -35.015224787 -6.130845800
v 46.153992396 -34.817765518 -6.130845800
v 43.518405202 -31.390725536 -6.130845800
v 42.974312338 -30.937827661 -6.130845800
v 38.054830003 -24.541051000 -6.130845800
v 13.466474548 6.909990076 -6.130845800
v 10.770946545 9.959907773 1.677091895
v 9.305187306 12.307277209 2.105502850
v 9.130558843 12.533774497 2.105558933
v -22.359844429 53.377565847 -6.130845800
v -23.820377163 52.254333732 -6.130845800
v -25.148260036 53.980972754 -6.130845800
v -26.935222826 52.606697499 -6.130845800
v -32.087231023 48.589383692 -6.130845800
v -32.901703260 47.900310724 -6.130845800
v -33.816108850 47.195188921 -6.130845800
v -34.997613471 46.351009153 -6.130845800
v -37.708910702 44.302074331 -6.130845800
v -38.330335191 43.811277586 -6.130845800
v -38.536274420 43.648628176 -6.130845800
v -39.259627361 43.052843170 -6.130845800
v -41.093062799 41.720546152 -6.130845800
v -44.101640558 39.534311980 -6.130845800
v -45.078785948 38.704359550 -6.130845800
v -45.371553431 38.455693266 -6.130845800
v 18.180944204 -45.561475834 -6.130845800
v 19.280802639 -44.715622613 -6.130845800
v 22.142654106 -42.514697291 -6.130845800
v 18.731164547 -37.297559576 9.560674523
v -12.667092912 3.509550250 -6.130845800
v -2.429013529 -9.796488435 -6.130845800
v 16.139037983 -33.928672233 -6.130845800
v 20.008940929 -38.831947862 -6.130845800
v 18.652444086 -36.503877032 -6.130845800
v 16.154793664 -33.208515942 -6.130845800
v 3.053131316 -16.312303523 -6.130845800
v -1.793647752 -9.742448207 -6.130845800
v -12.604678508 4.392059352 -6.130845800
v -21.928190259 16.280069060 -6.130845800
v -22.410706727 16.649784113 -6.130845800
v -23.918221232 18.132209689 -6.130845800
v -34.686676641 32.127557876 -6.130845800
v -33.203730456 30.436266948 -6.130845800
v -33.046381487 30.228096361 -6.130845800
v -31.780517743 28.553374247 -6.130845800
v -39.278623911 29.090560840 -6.130845800
v -45.793458752 38.097341940 -6.130845800
v -44.516479479 36.436892596 -6.130845800
v -46.221160967 35.125896307 -6.130845800
v -46.175439172 35.066444499 -6.130845800
v -14.732682165 -5.818404860 -6.130845800
v -14.558329717 -6.045114419 -6.130845800
v -14.532420700 -6.078803776 -6.130845800
v -12.973307465 -8.106110406 -6.130845800
v -12.879242490 -8.228422591 -6.130845800
v -11.962733854 -9.420153886 -6.130845800
v -10.568889670 -11.232562049 -6.130845800
v -10.403620619 -11.447460516 -6.130845800
v -10.309616607 -11.569693431 -6.130845800
v 16.411481034 -46.314994283 -6.130845800
v 17.781824404 -45.868421490 -6.130845800
v 38.028006550 -24.506172607 -6.130845800
v 37.514479214 -23.712620481 -6.130845800
v 29.478039434 -13.253694675 -6.130845800
v 27.093427657 -10.159066005 -6.130845800
v 25.871423120 -8.580598295 -6.130845800
v 23.853665264 -5.958230793 -6.130845800
v 22.447756928 -4.127347072 -6.130845800
v 13.904126537 6.974836463 -6.130845800
v 13.772639307 7.145448058 -6.130845800
v 12.211457228 9.171163630 -6.130845800
v 11.212361689 10.467542349 -6.130845800
v 11.199449561 10.484104240 -6.130845800
v 10.626274194 11.219294555 -6.130845800
v 9.749524226 12.350141876 -6.130845800
v 9.605340060 12.538111620 -6.130845800
v 9.431272188 12.765040034 -6.130845800
v -21.958029481 53.686584224 -6.130845800
v -21.971346686 53.676342541 -6.130845800
g roof
f 1 2 3
g roof
f 4 5 6
g roof
f 7 8 9
g roof
f 7 9 10
g roof
f 7 10 11
g roof
f 7 11 12
g roof
f 13 14 15
g roof
f 13 15 16
g roof
f 13 16 17
g roof
f 17 18 19
g roof
f 17 19 20
g roof
f 17 20 21
g roof
f 17 21 22
g roof
f 23 24 25
g roof
f 23 25 26
g roof
f 23 26 27
g roof
f 23 27 28
g roof
f 23 28 29
g roof
f 23 29 30
g roof
f 23 30 31
g roof
f 23 31 32
g roof
f 33 32 34
g roof
f 33 34 35
g roof
f 33 35 36
g roof
f 33 36 37
g roof
f 33 37 38
g roof
f 33 38 39
g roof
f 40 41 42
g roof
f 43 44 45
g roof
f 45 46 47
g roof
f 47 48 49
g roof
f 47 49 50
g roof
f 47 50 51
g roof
f 47 51 52
g roof
f 47 52 53
g roof
f 47 53 54
g roof
f 54 55 56
g roof
f 56 57 58
g roof
f 59 60 61
g roof
f 62 63 64
g roof
f 62 64 65
g roof
f 62 65 66
g roof
f 67 68 69
g roof
f 67 69 70
g roof
f 70 71 72
g roof
f 70 72 73
g roof
f 73 778 74 75
g roof
f 73 75 76
g roof
f 76 77 78
g roof
f 78 79 80
g roof
f 78 79 80 81
g roof
f 78 79 80 81 82
g roof
f 78 79 80 81 82 83
g roof
f 78 79 80 81 82 83 84
g roof
f 78 79 80 81 82 83 84 85
g roof
f 78 79 80 81 82 83 84 85 86
g roof
f 78 79 80 81 82 83 84 85 86 87
g roof
f 78 79 80 81 82 83 84 85 86 87 88
g roof
f 78 79 80 81 82 83 84 85 86 87 88 89
g roof
f 90 91 92
g roof
f 90 91 92 93
g roof
f 90 91 92 93 94
g roof
f 90 91 92 93 94 95
g roof
f 96 97 98
g roof
f 96 98 99
g roof
f 100 101 788 102
g roof
f 100 102 103
g roof
f 104 105 106
g roof
f 104 106 107
g roof
f 108 109 110
g roof
f 108 110 111
g roof
f 112 113 114
g roof
f 112 114 115
g roof
f 112 115 116
g roof
f 112 116 117
g roof
f 112 117 118
g roof
f 119 120 121
g roof
f 121 122 123
g roof
f 123 124 791 125
g roof
f 123 125 126
g roof
f 123 126 127
g roof
f 127 128 129
g roof
f 127 129 130
g roof
f 127 130 131
g roof
f 131 132 133
g roof
f 131 133 134
g roof
f 134 792 135 136
g roof
f 137 138 139
g roof
f 137 139 140
g roof
f 141 142 143
g roof
f 143 144 145
g roof
f 143 145 146
g roof
f 143 146 147
g roof
f 143 147 148
g roof
f 143 148 149
g roof
f 149 150 151
g roof
f 149 151 152
g roof
f 149 152 153
g roof
f 155 156 157
g roof
f 155 157 158
g roof
f 159 160 161
g roof
f 751 159 161 162
g roof
f 751 159 162 163
g roof
f 751 159 163 164
g roof
f 751 159 164 165
g roof
f 159 751 165 166
g roof
f 159 751 166 167
g roof
f 168 169 170
g roof
f 170 759 760 761 7 12
g roof
f 171 13 17
g roof
f 171 17 22
g roof
f 22 23 32
g roof
f 22 32 33
g roof
f 172 767 40 42
g roof
f 172 42 43
g roof
f 43 45 47
g roof
f 54 56 58
g roof
f 61 776 62 66
g roof
f 66 67 70
g roof
f 66 70 73
g roof
f 66 73 76
g roof
f 76 78 89
g roof
f 76 89 173
g roof
f 76 173 786 174
g roof
f 76 174 175
g roof
f 76 175 176
g roof
f 176 90 95
g roof
f 176 95 96
g roof
f 176 96 99
g roof
f 176 99 100
g roof
f 176 100 103
g roof
f 107 108 111 112 118
g roof
f 107 118 119
g roof
f 107 119 121
g roof
f 107 121 123
g roof
f 107 123 127
g roof
f 107 127 131
g roof
f 107 131 134
g roof
f 107 134 136
g roof
f 107 136 137
g roof
f 107 137 140
g roof
f 107 140 142
g roof
f 107 142 141
g roof
f 143 149 153
g roof
f 154 155 158 177
g roof
f 154 177 748 749 750 751 159
g roof
f 154 159 751 167 168
g roof
f 154 168 170
g roof
f 154 170 12
g roof
f 12 171 22
g roof
f 47 54 58
g roof
f 47 58 59
g roof
f 47 59 61
g roof
f 47 61 66
g roof
f 47 66 76
g roof
f 47 76 176
g roof
f 47 176 103
g roof
f 47 103 789 104 107
g roof
f 141 143 153
g roof
f 141 153 178
g roof
f 154 12 22
g roof
f 43 47 107
g roof
f 141 154 22
g roof
f 172 43 107
g roof
f 33 172 107
g roof
f 107 141 22
g roof
f 107 22 33
g roof
f 179 180 181
g roof
f 182 183 184
g roof
f 185 186 187
g roof
f 185 187 188
g roof
f 185 188 189
g roof
f 190 191 192
g roof
f 193 194 195
g roof
f 195 196 197
g roof
f 195 197 198
g roof
f 198 199 200
g roof
f 198 200 201
g roof
f 202 807 203 204
g roof
f 202 204 205
g roof
f 202 205 206
g roof
f 202 206 207
g roof
f 202 207 208
g roof
f 202 208 209
g roof
f 202 209 210
g roof
f 202 210 211
g roof
f 202 211 212
g roof
f 202 212 213
g roof
f 202 213 214
g roof
f 202 214 215
g roof
f 202 215 216
g roof
f 216 217 218
g roof
f 218 219 220
g roof
f 218 220 221
g roof
f 218 221 222
g roof
f 218 222 223
g roof
f 218 223 224
g roof
f 218 224 225
g roof
f 218 225 226
g roof
f 218 226 227
g roof
f 218 227 228
g roof
f 218 228 229
g roof
f 218 229 230
g roof
f 218 230 231
g roof
f 218 231 232
g roof
f 218 232 233
g roof
f 218 233 234
g roof
f 235 236 237
g roof
f 235 237 238
g roof
f 235 238 239
g roof
f 235 239 240
g roof
f 235 240 241
g roof
f 235 241 242
g roof
f 235 242 243
g roof
f 244 245 246
g roof
f 246 247 248
g roof
f 246 248 249
g roof
f 249 250 251
g roof
f 249 251 252
g roof
f 254 255 256 257
g roof
f 257 258 259
g roof
f 257 259 260
g roof
f 261 262 263
g roof
f 261 263 264
g roof
f 264 265 266
g roof
f 266 267 193
g roof
f 193 195 198
g roof
f 193 198 201
g roof
f 193 201 797 799 801 803 268
g roof
f 193 268 202
g roof
f 193 202 216
g roof
f 193 216 218
g roof
f 218 234 235
g roof
f 243 244 246
g roof
f 243 246 249
g roof
f 243 249 252
g roof
f 252 253 254
g roof
f 252 254 257
g roof
f 252 257 260
g roof
f 260 261 264
g roof
f 260 264 266
g roof
f 260 266 193
g roof
f 193 218 235
g roof
f 193 235 243
g roof
f 193 243 252
g roof
f 193 252 260
g roof
f 269 270 271
g roof
f 269 271 272
g roof
f 272 261 259
g roof
f 259 273 274
g roof
f 259 274 269
g roof
f 259 269 272
g roof
f 275 276 277
g roof
f 275 277 278
g roof
f 279 280 752 281
g roof
f 279 752 281 282
g roof
f 279 282 283
g roof
f 279 283 284
g roof
f 273 285 286
g roof
f 273 286 287
g roof
f 273 287 288
g roof
f 289 290 291
g roof
f 289 291 292
g roof
f 293 294 295
g roof
f 293 295 296
g roof
f 293 296 297
g roof
f 293 297 298
g roof
f 293 298 299
g roof
f 293 299 300
g roof
f 293 300 301
g roof
f 293 301 302
g roof
f 293 302 303
g roof
f 293 303 304
g roof
f 304 305 306
g roof
f 304 306 307
g roof
f 304 307 308
g roof
f 304 308 309
g roof
f 310 311 312
g roof
f 310 312 313
g roof
f 310 313 314
g roof
f 310 314 315
g roof
f 310 315 316
g roof
f 310 316 317
g roof
f 317 318 319
g roof
f 319 320 321
g roof
f 321 322 323
g roof
f 321 323 324
g roof
f 321 324 325
g roof
f 321 325 326
g roof
f 326 327 328
g roof
f 328 329 330
g roof
f 331 332 333
g roof
f 331 332 333 334
g roof
f 335 336 337
g roof
f 335 337 338
g roof
f 335 338 339
g roof
f 339 340 341
g roof
f 339 341 342
g roof
f 339 342 343
g roof
f 339 343 344
g roof
f 339 344 345
g roof
f 345 293 304
g roof
f 345 304 309
g roof
f 309 310 317
g roof
f 317 319 321
g roof
f 317 321 326
g roof
f 317 326 328
g roof
f 317 328 330
g roof
f 317 330 346
g roof
f 346 331 334
g roof
f 347 335 339 345
g roof
f 347 345 309
g roof
f 347 309 317
g roof
f 347 317 346 334 829
g roof
f 348 349 350
g roof
f 348 350 351
g roof
f 352 353 354
g roof
f 352 354 355
g roof
f 356 357 358
g roof
f 358 359 360
g roof
f 358 360 361
g roof
f 361 362 363
g roof
f 364 365 366
g roof
f 364 366 367
g roof
f 364 367 368
g roof
f 368 369 370
g roof
f 368 370 371
g roof
f 368 371 372
g roof
f 368 372 373
g roof
f 368 373 374
g roof
f 368 374 375
g roof
f 368 375 376
g roof
f 368 376 377
g roof
f 368 377 378
g roof
f 368 378 379
g roof
f 368 379 380
g roof
f 368 380 381
g roof
f 368 381 382
g roof
f 368 382 383
g roof
f 368 383 384
g roof
f 368 384 385
g roof
f 368 385 386
g roof
f 387 388 389
g roof
f 389 390 391
g roof
f 391 392 393
g roof
f 393 394 395
g roof
f 393 395 396
g roof
f 393 396 397
g roof
f 393 397 398
g roof
f 393 398 399
g roof
f 400 401 402
g roof
f 400 402 403
g roof
f 403 404 405
g roof
f 406 407 408
g roof
f 356 358 361
g roof
f 356 361 363
g roof
f 363 364 368
g roof
f 386 387 389
g roof
f 386 389 391
g roof
f 386 391 393
g roof
f 386 393 399 400
g roof
f 386 400 403
g roof
f 408 356 363
g roof
f 408 363 368
g roof
f 368 386 403
g roof
f 368 403 405
g roof
f 368 405 406
g roof
f 368 406 408
g roof
f 409 410 411
g roof
f 409 411 412
g roof
f 409 412 413
g roof
f 409 413 414
g roof
f 409 414 415
g roof
f 409 415 416
g roof
f 409 416 417 768 418
g roof
f 409 418 419
g roof
f 409 419 420
g roof
f 421 422 423
g roof
f 421 423 424
g roof
f 421 424 425
g roof
f 421 425 426
g roof
f 421 426 427
g roof
f 421 427 428
g roof
f 431 432 433
g roof
f 434 435 436
g roof
f 434 436 437 438
g roof
f 438 439 440
g roof
f 438 439 440 441
g roof
f 438 439 440 441 442
g roof
f 438 439 440 441 442 443
g roof
f 438 439 440 441 442 443 444
g roof
f 438 439 440 441 442 443 444 445
g roof
f 438 439 440 441 442 443 444 445 446
g roof
f 438 439 440 441 442 443 444 445 446 447
g roof
f 438 439 440 441 442 443 444 445 446 447 448
g roof
f 438 439 440 441 442 443 444 445 446 447 448 449
g roof
f 438 439 440 441 442 443 444 445 446 447 448 449 450
g roof
f 438 439 440 441 442 443 444 445 446 447 448 449 450 451
g roof
f 438 439 440 441 442 443 444 445 446 447 448 449 450 451 452
g roof
f 438 439 440 441 442 443 444 445 446 447 448 449 450 451 452 453
g roof
f 438 439 440 441 442 443 444 445 446 447 448 449 450 451 452 453 454
g roof
f 438 439 440 441 442 443 444 445 446 447 448 449 450 451 452 453 454 455
g roof
f 455 456 457
g roof
f 455 456 457 458
g roof
f 455 456 457 458 459
g roof
f 455 456 457 458 459 460
g roof
f 460 461 462
g roof
f 465 796 851 466 467
g roof
f 467 468 469
g roof
f 467 469 470
g roof
f 467 470 471 472
g roof
f 467 472 473
g roof
f 467 473 474
g roof
f 467 474 475
g roof
f 467 475 476
g roof
f 467 476 477
g roof
f 467 477 478
g roof
f 467 478 479
g roof
f 467 479 480
g roof
f 467 480 481
g roof
f 467 481 482
g roof
f 467 482 483
g roof
f 467 483 484
g roof
f 467 484 485
g roof
f 467 485 486
g roof
f 467 486 487
g roof
f 467 487 488
g roof
f 467 488 489
g roof
f 467 489 490
g roof
f 467 490 491
g roof
f 467 491 492
g roof
f 467 492 493
g roof
f 494 764 495 496
g roof
f 494 496 497
g roof
f 494 497 498
g roof
f 499 500 501
g roof
f 499 501 502
g roof
f 504 505 506
g roof
f 504 506 507
g roof
f 504 507 508
g roof
f 509 510 511
g roof
f 509 511 512
g roof
f 509 512 513
g roof
f 509 513 514
g roof
f 509 514 515
g roof
f 515 758 516 517
g roof
f 518 519 520
g roof
f 518 519 520 521
g roof
f 518 519 520 521 522
g roof
f 523 524 525
g roof
f 523 525 526
g roof
f 523 526 527
g roof
f 523 527 528
g roof
f 529 530 531
g roof
f 529 530 531 532
g roof
f 529 530 531 532 533
g roof
f 529 530 531 532 533 534
g roof
f 529 530 531 532 533 534 535
g roof
f 529 535 536
g roof
f 529 536 537
g roof
f 529 537 538
g roof
f 433 434 436 437 438
g roof
f 455 456 457 458 459 460 462
g roof
f 455 456 457 458 459 460 462 463
g roof
f 455 456 457 458 459 460 462 463 464
g roof
f 455 456 457 458 459 460 462 463 464 540
g roof
f 455 456 457 458 459 460 462 463 464 540 465
g roof
f 455 456 457 458 459 460 462 463 464 540 465 467
g roof
f 455 467 493
g roof
f 493 494 498
g roof
f 493 498 499
g roof
f 493 499 502
g roof
f 493 502 541
g roof
f 541 503 504
g roof
f 541 504 508 542
g roof
f 541 542 762 509
g roof
f 541 509 515
g roof
f 541 515 517
g roof
f 541 517 543
g roof
f 541 543 544
g roof
f 541 544 756 545
g roof
f 541 545 755 754 814 546
g roof
f 546 518 522
g roof
f 546 522 523
g roof
f 546 523 528
g roof
f 528 529 538
g roof
f 528 538 539 429 430 431 433
g roof
f 528 433 434 436 437 438
g roof
f 528 438 439 440 441 442 443 444 445 446 447 448 449 450 451 452 453 454 455
g roof
f 528 455 493
g roof
f 528 493 541
g roof
f 528 541 546
g roof
f 547 548 535
g roof
f 549 550 551
g roof
f 555 556 557
g roof
f 555 557 547
g roof
f 555 547 558
g roof
f 555 558 559
g roof
f 555 559 560
g roof
f 555 560 561
g roof
f 555 561 562
g roof
f 555 562 563
g roof
f 563 564 565
g roof
f 563 565 566
g roof
f 567 568 569
g roof
f 567 569 570
g roof
f 571 572 573
g roof
f 573 574 575
g roof
f 575 576 577
g roof
f 575 577 578
g roof
f 575 578 579
g roof
f 575 579 580
g roof
f 575 580 581
g roof
f 582 549 551
g roof
f 582 551 552
g roof
f 552 553 554
g roof
f 552 553 554 555
g roof
f 552 553 554 555 563
g roof
f 552 563 566
g roof
f 552 566 567
g roof
f 552 567 570
g roof
f 552 570 583
g roof
f 552 583 571
g roof
f 573 575 581
g roof
f 584 582 551 552
g roof
f 584 582 551 552 571
g roof
f 571 573 581
g roof
f 571 581 584
g roof
f 585 586 587
g roof
f 585 587 588
g roof
f 585 588 589
g roof
f 589 590 591
g roof
f 589 591 592
g roof
f 589 592 593
g roof
f 594 595 596
g roof
f 594 596 597
g roof
f 598 599 600
g roof
f 598 600 601
g roof
f 598 601 602
g roof
f 598 602 603
g roof
f 598 603 604
g roof
f 598 604 605
g roof
f 605 606 607
g roof
f 605 607 608
g roof
f 605 608 609
g roof
f 605 609 610
g roof
f 605 610 611
g roof
f 605 611 612
g roof
f 613 614 615
g roof
f 613 615 616
g roof
f 617 618 619
g roof
f 617 619 620
g roof
f 620 621 622
g roof
f 620 622 623
g roof
f 623 777 624 625
g roof
f 623 625 626
g roof
f 623 626 627
g roof
f 627 628 629
g roof
f 627 629 630
g roof
f 627 630 631
g roof
f 631 632 633
g roof
f 631 633 634
g roof
f 631 634 635
g roof
f 631 635 636
g roof
f 631 636 637
g roof
f 631 637 638
g roof
f 631 638 639
g roof
f 639 640 641
g roof
f 639 641 642
g roof
f 639 642 643
g roof
f 639 643 644
g roof
f 639 644 645
g roof
f 639 645 646
g roof
f 639 646 647
g roof
f 639 647 648
g roof
f 648 649 650
g roof
f 648 650 651
g roof
f 648 651 652
g roof
f 652 653 654
g roof
f 652 654 655
g roof
f 652 655 585
g roof
f 585 589 593
g roof
f 585 593 656
g roof
f 585 656 594
g roof
f 585 594 597
g roof
f 598 605 612
g roof
f 598 612 657
g roof
f 598 657 785 784 658
g roof
f 598 658 783 659
g roof
f 598 659 660
g roof
f 598 660 782 661
g roof
f 598 661 780 613
g roof
f 616 617 620
g roof
f 616 620 623
g roof
f 623 627 631
g roof
f 623 631 639
g roof
f 623 639 648
g roof
f 648 652 585
g roof
f 648 585 597
g roof
f 648 597 598
g roof
f 648 598 613
g roof
f 648 613 616
g roof
f 648 616 623
g roof
f 468 662 663
g roof
f 468 663 664
g roof
f 665 666 667
g roof
f 665 667 668
g roof
f 665 668 669
g roof
f 669 670 671
g roof
f 669 671 672
g roof
f 672 673 674
g roof
f 675 676 677
g roof
f 678 679 680
g roof
f 678 680 681
g roof
f 681 682 683
g roof
f 681 683 684
g roof
f 684 685 686
g roof
f 686 687 688
g roof
f 688 689 690
g roof
f 690 691 692
g roof
f 693 694 695
g roof
f 696 697 698
g roof
f 665 669 672
g roof
f 665 672 674
g roof
f 699 678 681
g roof
f 699 681 684
g roof
f 699 684 686
g roof
f 699 686 688
g roof
f 699 688 690
g roof
f 699 690 692
g roof
f 700 806 805 804 802 800 798 693 695
g roof
f 698 665 674
g roof
f 698 674 701
g roof
f 698 701 702
g roof
f 698 702 703
g roof
f 698 703 704
g roof
f 698 704 705
g roof
f 698 705 706
g roof
f 698 706 707
g roof
f 698 707 708
g roof
f 698 708 709
g roof
f 698 709 675
g roof
f 710 699 692
g roof
f 710 692 711
g roof
f 696 698 675
g roof
f 677 710 711
g roof
f 695 696 675
g roof
f 675 677 711
g roof
f 675 711 700
g roof
f 675 700 695
g roof
f 712 713 714
g roof
f 712 714 715
g roof
f 712 715 716
g roof
f 712 716 717
g roof
f 718 719 720
g roof
f 718 720 721
g roof
f 721 722 723
g roof
f 721 723 724
g roof
f 721 724 725
g roof
f 721 725 726
g roof
f 721 726 727
g roof
f 721 727 728
g roof
f 721 728 729
g roof
f 721 729 730
g roof
f 721 730 731
g roof
f 721 731 732
g roof
f 721 732 733
g roof
f 721 733 734
g roof
f 721 734 735
g roof
f 721 735 736
g roof
f 721 736 737
g roof
f 721 737 738
g roof
f 721 738 739
g roof
f 721 739 740
g roof
f 721 740 741
g roof
f 741 742 831 830 712
g roof
f 741 712 717 743
g roof
f 741 743 718
g roof
f 741 718 721
g roof_step_or_fixture_side
f 430 429 2 1
g roof_step_or_fixture_side
f 3 2 253 252
g roof_step_or_fixture_side
f 1 3 252 251
g roof_step_or_fixture_side
f 4 6 257 256
g roof_step_or_fixture_side
f 537 536 5 4
g roof_step_or_fixture_side
f 6 5 258 257
g roof_step_or_fixture_side
f 142 140 288 287
g roof_step_or_fixture_side
f 143 142 287 286
g roof_step_or_fixture_side
f 144 143 286 285
g roof_step_or_fixture_side
f 533 532 145 144
g roof_step_or_fixture_side
f 532 531 146 145
g roof_step_or_fixture_side
f 531 530 147 146
g roof_step_or_fixture_side
f 148 147 276 275
g roof_step_or_fixture_side
f 149 148 275 278
g roof_step_or_fixture_side
f 150 149 278 277
g roof_step_or_fixture_side
f 529 528 151 150
g roof_step_or_fixture_side
f 528 527 152 151
g roof_step_or_fixture_side
f 527 526 153 152
g roof_step_or_fixture_side
f 526 525 178 153
g roof_step_or_fixture_side
f 141 178 291 290
g roof_step_or_fixture_side
f 154 141 290 289
g roof_step_or_fixture_side
f 155 154 289 292
g roof_step_or_fixture_side
f 524 523 156 155
g roof_step_or_fixture_side
f 523 522 157 156
g roof_step_or_fixture_side
f 522 521 158 157
g roof_step_or_fixture_side
f 521 520 177 158
g roof_step_or_fixture_side
f 520 519 748 177
g roof_step_or_fixture_side
f 519 518 749 748
g roof_step_or_fixture_side
f 750 749 283 282
g roof_step_or_fixture_side
f 751 159 750 282 281 752
g roof_step_or_fixture_side
f 160 159 751 752 281 280
g roof_step_or_fixture_side
f 754 755 161 160
g roof_step_or_fixture_side
f 755 545 162 161
g roof_step_or_fixture_side
f 545 756 163 162
g roof_step_or_fixture_side
f 756 544 164 163
g roof_step_or_fixture_side
f 544 543 165 164
g roof_step_or_fixture_side
f 543 517 166 165
g roof_step_or_fixture_side
f 517 516 167 166
g roof_step_or_fixture_side
f 516 758 168 167
g roof_step_or_fixture_side
f 758 515 169 168
g roof_step_or_fixture_side
f 515 514 170 169
g roof_step_or_fixture_side
f 514 513 759 170
g roof_step_or_fixture_side
f 513 512 760 759
g roof_step_or_fixture_side
f 512 511 761 760
g roof_step_or_fixture_side
f 511 510 7 761
g roof_step_or_fixture_side
f 510 509 8 7
g roof_step_or_fixture_side
f 509 762 9 8
g roof_step_or_fixture_side
f 762 542 10 9
g roof_step_or_fixture_side
f 542 508 11 10
g roof_step_or_fixture_side
f 508 507 12 11
g roof_step_or_fixture_side
f 507 506 171 12
g roof_step_or_fixture_side
f 506 505 13 171
g roof_step_or_fixture_side
f 505 504 14 13
g roof_step_or_fixture_side
f 504 503 15 14
g roof_step_or_fixture_side
f 16 15 353 352
g roof_step_or_fixture_side
f 501 500 17 16
g roof_step_or_fixture_side
f 500 499 18 17
g roof_step_or_fixture_side
f 499 498 19 18
g roof_step_or_fixture_side
f 498 497 20 19
g roof_step_or_fixture_side
f 497 496 21 20
g roof_step_or_fixture_side
f 496 495 22 21
g roof_step_or_fixture_side
f 495 764 23 22
g roof_step_or_fixture_side
f 764 494 24 23
g roof_step_or_fixture_side
f 25 24 349 348
g roof_step_or_fixture_side
f 491 490 26 25
g roof_step_or_fixture_side
f 490 489 27 26
g roof_step_or_fixture_side
f 489 488 28 27
g roof_step_or_fixture_side
f 488 487 29 28
g roof_step_or_fixture_side
f 487 486 30 29
g roof_step_or_fixture_side
f 486 485 31 30
g roof_step_or_fixture_side
f 485 484 32 31
g roof_step_or_fixture_side
f 484 483 34 32
g roof_step_or_fixture_side
f 483 482 35 34
g roof_step_or_fixture_side
f 482 481 36 35
g roof_step_or_fixture_side
f 481 480 37 36
g roof_step_or_fixture_side
f 480 479 38 37
g roof_step_or_fixture_side
f 479 478 39 38
g roof_step_or_fixture_side
f 478 477 33 39
g roof_step_or_fixture_side
f 477 476 172 33
g roof_step_or_fixture_side
f 476 475 767 172
g roof_step_or_fixture_side
f 475 474 40 767
g roof_step_or_fixture_side
f 474 473 41 40
g roof_step_or_fixture_side
f 473 472 42 41
g roof_step_or_fixture_side
f 472 471 43 42
g roof_step_or_fixture_side
f 471 470 44 43
g roof_step_or_fixture_side
f 470 469 45 44
g roof_step_or_fixture_side
f 469 468 46 45
g roof_step_or_fixture_side
f 468 664 47 46
g roof_step_or_fixture_side
f 664 663 48 47
g roof_step_or_fixture_side
f 49 48 768 417
g facade_completed
f 50 49 417 769 770
g facade_completed
f 51 50 770 771
g facade_completed
f 52 51 771 772
g facade_completed
f 53 52 772 773
g facade_completed
f 54 53 773 774
g facade_completed
f 55 54 774 775 426
g roof_step_or_fixture_side
f 56 55 426 425
g roof_step_or_fixture_side
f 57 56 425 424
g roof_step_or_fixture_side
f 634 633 58 57
g roof_step_or_fixture_side
f 633 632 59 58
g roof_step_or_fixture_side
f 632 631 60 59
g roof_step_or_fixture_side
f 631 630 61 60
g roof_step_or_fixture_side
f 630 629 776 61
g roof_step_or_fixture_side
f 629 628 62 776
g roof_step_or_fixture_side
f 628 627 63 62
g roof_step_or_fixture_side
f 627 626 64 63
g roof_step_or_fixture_side
f 626 625 65 64
g roof_step_or_fixture_side
f 625 624 66 65
g roof_step_or_fixture_side
f 624 777 67 66
g roof_step_or_fixture_side
f 777 623 68 67
g roof_step_or_fixture_side
f 623 622 69 68
g roof_step_or_fixture_side
f 622 621 70 69
g roof_step_or_fixture_side
f 621 620 71 70
g roof_step_or_fixture_side
f 620 619 72 71
g roof_step_or_fixture_side
f 619 618 73 72
g roof_step_or_fixture_side
f 618 617 778 73
g roof_step_or_fixture_side
f 617 616 74 778
g roof_step_or_fixture_side
f 616 615 75 74
g roof_step_or_fixture_side
f 615 614 76 75
g roof_step_or_fixture_side
f 614 613 77 76
g roof_step_or_fixture_side
f 613 780 78 77
g roof_step_or_fixture_side
f 780 661 79 78
g roof_step_or_fixture_side
f 661 782 80 79
g roof_step_or_fixture_side
f 782 660 81 80
g roof_step_or_fixture_side
f 660 659 82 81
g roof_step_or_fixture_side
f 659 783 83 82
g roof_step_or_fixture_side
f 783 658 84 83
g roof_step_or_fixture_side
f 658 784 85 84
g roof_step_or_fixture_side
f 784 785 86 85
g roof_step_or_fixture_side
f 785 657 87 86
g roof_step_or_fixture_side
f 657 612 88 87
g roof_step_or_fixture_side
f 612 611 89 88
g roof_step_or_fixture_side
f 611 610 173 89
g roof_step_or_fixture_side
f 610 609 786 173
g roof_step_or_fixture_side
f 609 608 174 786
g roof_step_or_fixture_side
f 608 607 175 174
g roof_step_or_fixture_side
f 607 606 176 175
g roof_step_or_fixture_side
f 606 605 90 176
g roof_step_or_fixture_side
f 605 604 91 90
g roof_step_or_fixture_side
f 604 603 92 91
g roof_step_or_fixture_side
f 603 602 93 92
g roof_step_or_fixture_side
f 602 601 94 93
g roof_step_or_fixture_side
f 601 600 95 94
g roof_step_or_fixture_side
f 600 599 96 95
g roof_step_or_fixture_side
f 599 598 97 96
g roof_step_or_fixture_side
f 598 597 98 97
g roof_step_or_fixture_side
f 597 596 99 98
g roof_step_or_fixture_side
f 596 595 100 99
g roof_step_or_fixture_side
f 595 594 101 100
g roof_step_or_fixture_side
f 594 656 788 101
g roof_step_or_fixture_side
f 656 593 102 788
g roof_step_or_fixture_side
f 593 592 103 102
g roof_step_or_fixture_side
f 592 591 789 103
g roof_step_or_fixture_side
f 591 590 104 789
g roof_step_or_fixture_side
f 590 589 105 104
g roof_step_or_fixture_side
f 589 588 106 105
g roof_step_or_fixture_side
f 588 587 107 106
g roof_step_or_fixture_side
f 587 586 108 107
g roof_step_or_fixture_side
f 586 585 109 108
g roof_step_or_fixture_side
f 585 655 110 109
g roof_step_or_fixture_side
f 655 654 111 110
g roof_step_or_fixture_side
f 654 653 112 111
g roof_step_or_fixture_side
f 113 112 407 406
g roof_step_or_fixture_side
f 114 113 406 405
g roof_step_or_fixture_side
f 115 114 405 404
g roof_step_or_fixture_side
f 580 579 116 115
g roof_step_or_fixture_side
f 579 578 117 116
g roof_step_or_fixture_side
f 578 577 118 117
g roof_step_or_fixture_side
f 577 576 119 118
g roof_step_or_fixture_side
f 576 575 120 119
g roof_step_or_fixture_side
f 575 574 121 120
g roof_step_or_fixture_side
f 574 573 122 121
g roof_step_or_fixture_side
f 573 572 123 122
g roof_step_or_fixture_side
f 572 571 124 123
g roof_step_or_fixture_side
f 571 583 791 124
g roof_step_or_fixture_side
f 583 570 125 791
g roof_step_or_fixture_side
f 570 569 126 125
g roof_step_or_fixture_side
f 569 568 127 126
g roof_step_or_fixture_side
f 568 567 128 127
g roof_step_or_fixture_side
f 567 566 129 128
g roof_step_or_fixture_side
f 566 565 130 129
g roof_step_or_fixture_side
f 565 564 131 130
g roof_step_or_fixture_side
f 564 563 132 131
g roof_step_or_fixture_side
f 563 562 133 132
g roof_step_or_fixture_side
f 562 561 134 133
g roof_step_or_fixture_side
f 561 560 792 134
g roof_step_or_fixture_side
f 560 559 135 792
g roof_step_or_fixture_side
f 136 135 271 270
g roof_step_or_fixture_side
f 137 136 270 269
g roof_step_or_fixture_side
f 138 137 269 274
g roof_step_or_fixture_side
f 139 138 274 273
g roof_step_or_fixture_side
f 140 139 273 288
g roof_step_or_fixture_side
f 438 437 179 181
g roof_step_or_fixture_side
f 180 179 244 243
g roof_step_or_fixture_side
f 181 180 243 242
g roof_step_or_fixture_side
f 445 444 184 183
g roof_step_or_fixture_side
f 182 184 236 235
g roof_step_or_fixture_side
f 183 182 235 234
g roof_step_or_fixture_side
f 187 186 309 308
g roof_step_or_fixture_side
f 188 187 308 307
g roof_step_or_fixture_side
f 637 636 189 188
g roof_step_or_fixture_side
f 185 189 311 310
g roof_step_or_fixture_side
f 186 185 310 309
g roof_step_or_fixture_side
f 796 465 190 192
g roof_step_or_fixture_side
f 191 190 682 681
g roof_step_or_fixture_side
f 192 191 681 680
g roof_step_or_fixture_side
f 666 665 196 195
g roof_step_or_fixture_side
f 665 698 197 196
g roof_step_or_fixture_side
f 698 697 198 197
g roof_step_or_fixture_side
f 697 696 199 198
g roof_step_or_fixture_side
f 696 695 200 199
g roof_step_or_fixture_side
f 695 694 201 200
g roof_step_or_fixture_side
f 694 693 797 201
g roof_step_or_fixture_side
f 693 798 799 797
g roof_step_or_fixture_side
f 798 800 801 799
g roof_step_or_fixture_side
f 800 802 803 801
g roof_step_or_fixture_side
f 802 804 268 803
g roof_step_or_fixture_side
f 804 805 202 268
g roof_step_or_fixture_side
f 805 806 807 202
g roof_step_or_fixture_side
f 806 700 203 807
g roof_step_or_fixture_side
f 700 711 204 203
g roof_step_or_fixture_side
f 711 692 205 204
g roof_step_or_fixture_side
f 692 691 206 205
g roof_step_or_fixture_side
f 691 690 207 206
g roof_step_or_fixture_side
f 690 689 208 207
g roof_step_or_fixture_side
f 689 688 209 208
g roof_step_or_fixture_side
f 688 687 210 209
g roof_step_or_fixture_side
f 687 686 211 210
g roof_step_or_fixture_side
f 686 685 212 211
g roof_step_or_fixture_side
f 685 684 213 212
g roof_step_or_fixture_side
f 684 683 214 213
g roof_step_or_fixture_side
f 540 464 215 214 683
g roof_step_or_fixture_side
f 464 463 216 215
g roof_step_or_fixture_side
f 463 462 217 216
g roof_step_or_fixture_side
f 462 461 218 217
g roof_step_or_fixture_side
f 461 460 219 218
g roof_step_or_fixture_side
f 460 459 220 219
g roof_step_or_fixture_side
f 459 458 221 220
g roof_step_or_fixture_side
f 458 457 222 221
g roof_step_or_fixture_side
f 457 456 223 222
g roof_step_or_fixture_side
f 456 455 224 223
g roof_step_or_fixture_side
f 455 454 225 224
g roof_step_or_fixture_side
f 454 453 226 225
g roof_step_or_fixture_side
f 453 452 227 226
g roof_step_or_fixture_side
f 452 451 228 227
g roof_step_or_fixture_side
f 451 450 229 228
g roof_step_or_fixture_side
f 450 449 230 229
g roof_step_or_fixture_side
f 449 448 231 230
g roof_step_or_fixture_side
f 448 447 232 231
g roof_step_or_fixture_side
f 447 446 233 232
g roof_step_or_fixture_side
f 446 445 183 234 233
g roof_step_or_fixture_side
f 444 443 237 236 184
g roof_step_or_fixture_side
f 443 442 238 237
g roof_step_or_fixture_side
f 442 441 239 238
g roof_step_or_fixture_side
f 441 440 240 239
g roof_step_or_fixture_side
f 440 439 241 240
g roof_step_or_fixture_side
f 439 438 181 242 241
g roof_step_or_fixture_side
f 437 436 245 244 179
g roof_step_or_fixture_side
f 436 435 246 245
g roof_step_or_fixture_side
f 435 434 247 246
g roof_step_or_fixture_side
f 434 433 248 247
g roof_step_or_fixture_side
f 433 432 249 248
g roof_step_or_fixture_side
f 432 431 250 249
g roof_step_or_fixture_side
f 431 430 1 251 250
g roof_step_or_fixture_side
f 429 539 254 253 2
g roof_step_or_fixture_side
f 539 538 255 254
g roof_step_or_fixture_side
f 538 537 4 256 255
g roof_step_or_fixture_side
f 536 535 259 258 5
g roof_step_or_fixture_side
f 535 548 260 259
g roof_step_or_fixture_side
f 548 547 261 260
g roof_step_or_fixture_side
f 547 557 392 262 261
g roof_step_or_fixture_side
f 392 391 263 262
g roof_step_or_fixture_side
f 391 390 264 263
g roof_step_or_fixture_side
f 390 389 265 264
g roof_step_or_fixture_side
f 389 388 266 265
g roof_step_or_fixture_side
f 388 387 267 266
g roof_step_or_fixture_side
f 387 386 193 267
g roof_step_or_fixture_side
f 386 385 667 194 193
g roof_step_or_fixture_side
f 667 666 195 194
g roof_step_or_fixture_side
f 559 558 272 271 135
g roof_step_or_fixture_side
f 558 547 261 272
g roof_step_or_fixture_side
f 547 535 259 261
g roof_step_or_fixture_side
f 535 534 139 273 259
g roof_step_or_fixture_side
f 530 529 150 277 276 147
g roof_step_or_fixture_side
f 518 546 284 283 749
g roof_step_or_fixture_side
f 546 814 279 284
g roof_step_or_fixture_side
f 814 754 160 280 279
g roof_step_or_fixture_side
f 534 533 144 285 273 139
g roof_step_or_fixture_side
f 525 524 155 292 291 178
g roof_step_or_fixture_side
f 358 357 294 293
g roof_step_or_fixture_side
f 650 649 295 294 357
g roof_step_or_fixture_side
f 649 648 296 295
g roof_step_or_fixture_side
f 648 647 297 296
g roof_step_or_fixture_side
f 647 646 298 297
g roof_step_or_fixture_side
f 646 645 299 298
g roof_step_or_fixture_side
f 645 644 300 299
g roof_step_or_fixture_side
f 644 643 301 300
g roof_step_or_fixture_side
f 643 642 302 301
g roof_step_or_fixture_side
f 642 641 303 302
g roof_step_or_fixture_side
f 641 640 304 303
g roof_step_or_fixture_side
f 640 639 305 304
g roof_step_or_fixture_side
f 639 638 306 305
g roof_step_or_fixture_side
f 638 637 188 307 306
g roof_step_or_fixture_side
f 636 635 423 312 311 189
g roof_step_or_fixture_side
f 423 422 313 312
g roof_step_or_fixture_side
f 422 421 314 313
g roof_step_or_fixture_side
f 421 428 315 314
g roof_step_or_fixture_side
f 428 427 316 315
g facade_completed
f 317 316 816 817
g facade_completed
f 318 317 817 818
g facade_completed
f 319 318 818 819
g facade_completed
f 320 319 819 820
g facade_completed
f 321 320 820 821
g facade_completed
f 322 321 821 822
g facade_completed
f 323 322 822 823
g facade_completed
f 324 323 823 824
g facade_completed
f 325 324 824 825
g facade_completed
f 326 325 825 826
g facade_completed
f 327 326 826 827
g roof_step_or_fixture_side
f 723 722 328 327
g roof_step_or_fixture_side
f 722 721 329 328
g roof_step_or_fixture_side
f 721 720 330 329
g roof_step_or_fixture_side
f 720 719 346 330
g roof_step_or_fixture_side
f 719 718 331 346
g roof_step_or_fixture_side
f 718 743 332 331
g roof_step_or_fixture_side
f 743 717 333 332
g roof_step_or_fixture_side
f 717 716 334 333
g roof_step_or_fixture_side
f 716 715 829 334
g roof_step_or_fixture_side
f 715 714 347 829
g roof_step_or_fixture_side
f 714 713 335 347
g roof_step_or_fixture_side
f 713 712 336 335
g roof_step_or_fixture_side
f 712 830 337 336
g roof_step_or_fixture_side
f 830 831 338 337
g roof_step_or_fixture_side
f 366 365 339 338 831
g roof_step_or_fixture_side
f 365 364 340 339
g roof_step_or_fixture_side
f 364 363 341 340
g roof_step_or_fixture_side
f 363 362 342 341
g roof_step_or_fixture_side
f 362 361 343 342
g roof_step_or_fixture_side
f 361 360 344 343
g roof_step_or_fixture_side
f 360 359 345 344
g roof_step_or_fixture_side
f 359 358 293 345
g roof_step_or_fixture_side
f 493 492 351 350
g roof_step_or_fixture_side
f 492 491 25 348 351
g roof_step_or_fixture_side
f 494 493 350 349 24
g roof_step_or_fixture_side
f 541 502 355 354
g roof_step_or_fixture_side
f 502 501 16 352 355
g roof_step_or_fixture_side
f 503 541 354 353 15
g roof_step_or_fixture_side
f 557 556 393 392
g roof_step_or_fixture_side
f 556 555 394 393
g roof_step_or_fixture_side
f 555 554 395 394
g roof_step_or_fixture_side
f 554 553 396 395
g roof_step_or_fixture_side
f 553 552 397 396
g roof_step_or_fixture_side
f 552 551 398 397
g roof_step_or_fixture_side
f 551 550 399 398
g roof_step_or_fixture_side
f 550 549 400 399
g roof_step_or_fixture_side
f 549 582 401 400
g roof_step_or_fixture_side
f 582 584 402 401
g roof_step_or_fixture_side
f 584 581 403 402
g roof_step_or_fixture_side
f 581 580 115 404 403
g roof_step_or_fixture_side
f 653 652 408 407 112
g roof_step_or_fixture_side
f 652 651 356 408
g roof_step_or_fixture_side
f 651 650 357 356
g roof_step_or_fixture_side
f 367 366 831 742
g facade_completed
f 368 367 742 832 833
g facade_completed
f 369 368 833 834
g facade_completed
f 370 369 834 835
g facade_completed
f 371 370 835 836
g facade_completed
f 372 371 836 837
g facade_completed
f 373 372 837 838
g facade_completed
f 374 373 838 839
g facade_completed
f 375 374 839 840
g facade_completed
f 376 375 840 841
g facade_completed
f 377 376 841 842
g facade_completed
f 378 377 842 843
g facade_completed
f 379 378 843 844
g facade_completed
f 380 379 844 845
g facade_completed
f 381 380 845 846
g facade_completed
f 382 381 846 847 670
g roof_step_or_fixture_side
f 383 382 670 669
g roof_step_or_fixture_side
f 384 383 669 668
g roof_step_or_fixture_side
f 385 384 668 667
g roof_step_or_fixture_side
f 412 411 678 699
g roof_step_or_fixture_side
f 413 412 699 710
g roof_step_or_fixture_side
f 414 413 710 677
g facade_completed
f 415 414 677 848 849
g facade_completed
f 416 415 849 850
g facade_completed
f 417 416 850 769
g roof_step_or_fixture_side
f 663 662 418 768 48
g roof_step_or_fixture_side
f 662 468 46 419 418
g roof_step_or_fixture_side
f 468 467 420 419 46
g roof_step_or_fixture_side
f 467 466 409 420
g roof_step_or_fixture_side
f 466 851 410 409
g roof_step_or_fixture_side
f 411 410 679 678
g roof_step_or_fixture_side
f 635 634 57 424 423
g facade_completed
f 427 426 775 816 316
g roof_step_or_fixture_side
f 465 540 683 682 190
g roof_step_or_fixture_side
f 851 796 192 680 679 410
g facade_completed
f 671 670 847 869
g facade_completed
f 672 671 869 870
g facade_completed
f 673 672 870 871
g facade_completed
f 674 673 871 872
g facade_completed
f 701 674 872 873
g facade_completed
f 702 701 873 874
g facade_completed
f 703 702 874 875
g facade_completed
f 704 703 875 876
g facade_completed
f 705 704 876 877
g facade_completed
f 706 705 877 878
g facade_completed
f 707 706 878 879
g facade_completed
f 708 707 879 880
g facade_completed
f 709 708 880 881
g facade_completed
f 675 709 881 882
g facade_completed
f 676 675 882 883
g facade_completed
f 677 676 883 848
g facade_completed
f 724 723 327 827 884
g facade_completed
f 725 724 884 885
g facade_completed
f 726 725 885 886
g facade_completed
f 727 726 886 887
g facade_completed
f 728 727 887 888
g facade_completed
f 729 728 888 889
g facade_completed
f 730 729 889 890
g facade_completed
f 731 730 890 891
g facade_completed
f 732 731 891 892
g facade_completed
f 733 732 892 893
g facade_completed
f 734 733 893 894
g facade_completed
f 735 734 894 895
g facade_completed
f 736 735 895 896
g facade_completed
f 737 736 896 897
g facade_completed
f 738 737 897 898
g facade_completed
f 739 738 898 899
g facade_completed
f 740 739 899 900
g facade_completed
f 741 740 900 901
g facade_completed
f 742 741 901 832
g ground_assumed
f 843 844 845
g ground_assumed
f 843 846 845 844
g ground_assumed
f 843 847 846
g ground_assumed
f 843 869 847
g ground_assumed
f 843 870 869
g ground_assumed
f 870 872 871
g ground_assumed
f 870 873 872
g ground_assumed
f 870 874 873
g ground_assumed
f 870 875 874
g ground_assumed
f 870 876 875
g ground_assumed
f 870 877 876
g ground_assumed
f 870 878 877
g ground_assumed
f 870 879 878
g ground_assumed
f 870 880 879
g ground_assumed
f 870 881 880
g ground_assumed
f 870 882 881
g ground_assumed
f 870 883 882
g ground_assumed
f 870 848 883
g ground_assumed
f 870 849 848
g ground_assumed
f 870 850 849
g ground_assumed
f 870 769 850
g ground_assumed
f 870 770 769
g ground_assumed
f 870 771 770
g ground_assumed
f 870 772 771
g ground_assumed
f 870 773 772
g ground_assumed
f 870 774 773
g ground_assumed
f 870 775 774
g ground_assumed
f 870 816 775
g ground_assumed
f 870 817 816
g ground_assumed
f 817 819 818
g ground_assumed
f 819 821 820
g ground_assumed
f 821 823 822
g ground_assumed
f 821 824 823
g ground_assumed
f 821 825 824
g ground_assumed
f 821 826 825
g ground_assumed
f 821 827 826
g ground_assumed
f 821 884 827
g ground_assumed
f 821 885 884
g ground_assumed
f 821 886 885
g ground_assumed
f 821 887 886
g ground_assumed
f 821 888 887
g ground_assumed
f 821 889 888
g ground_assumed
f 821 890 889
g ground_assumed
f 821 891 890
g ground_assumed
f 821 892 891
g ground_assumed
f 821 893 892
g ground_assumed
f 821 894 893
g ground_assumed
f 821 895 894
g ground_assumed
f 821 896 895
g ground_assumed
f 821 897 896
g ground_assumed
f 821 898 897
g ground_assumed
f 821 899 898
g ground_assumed
f 821 900 899
g ground_assumed
f 821 901 900
g ground_assumed
f 821 832 901
g ground_assumed
f 821 833 832
g ground_assumed
f 833 835 834
g ground_assumed
f 833 836 835
g ground_assumed
f 833 837 836
g ground_assumed
f 833 838 837
g ground_assumed
f 833 839 838
g ground_assumed
f 833 840 839
g ground_assumed
f 833 841 840
g ground_assumed
f 833 842 841
g ground_assumed
f 833 843 842
g ground_assumed
f 833 870 843
g ground_assumed
f 833 817 870
g ground_assumed
f 833 819 817
g ground_assumed
f 833 821 819
