# Source coordinates; no display transform
v 2684446.83388 1252468.02479 427.925485615
v 2684456.91147 1252471.51318 427.922420528
v 2684455.10634 1252476.728 427.922640603
v 2684445.02875 1252473.23961 427.925705689
v 2684446.83388 1252468.02479 425.125580565
v 2684456.91147 1252471.51318 425.125580565
v 2684455.10634 1252476.728 425.125580565
v 2684445.02875 1252473.23961 425.125580565
g roof
f 1 2 3 4
g wall
f 2 1 5 6
g wall
f 3 2 6 7
g wall
f 4 3 7 8
g wall
f 1 4 8 5
g ground_assumed
f 8 7 6 5
