v 0.12078046388891278 0.50344029308764082 0.20434344417330921
v -0.29836391690538078 0.42586054728078304 0.20447148265136839
v -0.12605360867613091 -0.50508987914537373 0.20416269211469665
v 0.29309077211816259 -0.4275101333385159 0.20403465363663745
v 0.12078046388891278 0.50344029308764082 -0.2025617778538564
v -0.29836391690538078 0.42586054728078304 -0.2025617778538564
v -0.12605360867613091 -0.50508987914537373 -0.2025617778538564
v 0.29309077211816259 -0.4275101333385159 -0.2025617778538564
l 1 2
l 2 3
l 3 4
l 1 4
l 1 5
l 5 6
l 2 6
l 6 7
l 3 7
l 7 8
l 4 8
l 5 8
