# Source coordinates; no display transform
v 2685722.75 1251353.125 433.034221957
v 2685725.25 1251355.875 433.032893335
v 2685725.5 1251356.375 433.03214633
v 2685726.5 1251358.75 433.028134723
v 2685727.75 1251363.25 433.018940628
v 2685727.75 1251363.625 433.017917048
v 2685727.5 1251363.75 433.016958099
v 2685726.25 1251364.25 433.012504534
v 2685723 1251365.5 433.001061743
v 2685720.5 1251366.375 432.992495812
v 2685720.25 1251366.375 432.99187805
v 2685718.75 1251363.125 432.997042475
v 2685715.5 1251355.625 433.009483102
v 2685715.5 1251355.25 433.010506675
v 2685722.25 1251353.125 433.032986439
v 2685722.75 1251353.125 430.425274048
v 2685725.25 1251355.875 430.425274048
v 2685725.5 1251356.375 430.425274048
v 2685726.5 1251358.75 430.425274048
v 2685727.75 1251363.25 430.425274048
v 2685727.75 1251363.625 430.425274048
v 2685727.5 1251363.75 430.425274048
v 2685726.25 1251364.25 430.425274048
v 2685723 1251365.5 430.425274048
v 2685720.5 1251366.375 430.425274048
v 2685720.25 1251366.375 430.425274048
v 2685718.75 1251363.125 430.425274048
v 2685715.5 1251355.625 430.425274048
v 2685715.5 1251355.25 430.425274048
v 2685722.25 1251353.125 430.425274048
g roof
f 1 2 3 4 5 6 7 8 9 10 11 12 13 14 15
g wall
f 2 1 16 17
g wall
f 3 2 17 18
g wall
f 4 3 18 19
g wall
f 5 4 19 20
g wall
f 6 5 20 21
g wall
f 7 6 21 22
g wall
f 8 7 22 23
g wall
f 9 8 23 24
g wall
f 10 9 24 25
g wall
f 11 10 25 26
g wall
f 12 11 26 27
g wall
f 13 12 27 28
g wall
f 14 13 28 29
g wall
f 15 14 29 30
g wall
f 1 15 30 16
g ground_assumed
f 30 29 28 27 26 25 24 23 22 21 20 19 18 17 16
