# XYZ-only planar convex-roof baseline. Provisional base; no GT.
v 1.82229149 -10.73127210 2.34746009
v 5.87182813 -6.27678179 2.34530797
v 6.27678179 -5.46687446 2.34409796
v 7.89659645 -1.61981466 2.33759990
v 9.92136477 5.66935130 2.32270717
v 9.92136477 6.27678179 2.32104916
v 9.51641110 6.47925862 2.31949584
v 7.49164278 7.28916595 2.31228189
v 2.22724515 9.31393427 2.29374669
v -1.82229149 10.73127210 2.27987147
v -2.22724515 10.73127210 2.27887081
v -4.65696714 5.46687446 2.28723622
v -9.92136477 -6.68173546 2.30738773
v -9.92136477 -7.28916595 2.30904573
v 1.01238416 -10.73127210 2.34545878
v 1.82229149 -10.73127210 -1.87855197
v 5.87182813 -6.27678179 -1.87855197
v 6.27678179 -5.46687446 -1.87855197
v 7.89659645 -1.61981466 -1.87855197
v 9.92136477 5.66935130 -1.87855197
v 9.92136477 6.27678179 -1.87855197
v 9.51641110 6.47925862 -1.87855197
v 7.49164278 7.28916595 -1.87855197
v 2.22724515 9.31393427 -1.87855197
v -1.82229149 10.73127210 -1.87855197
v -2.22724515 10.73127210 -1.87855197
v -4.65696714 5.46687446 -1.87855197
v -9.92136477 -6.68173546 -1.87855197
v -9.92136477 -7.28916595 -1.87855197
v 1.01238416 -10.73127210 -1.87855197
g roof
f 1 2 3 4 5 6 7 8 9 10 11 12 13 14 15
g wall
f 2 1 16 17
g wall
f 3 2 17 18
g wall
f 4 3 18 19
g wall
f 5 4 19 20
g wall
f 6 5 20 21
g wall
f 7 6 21 22
g wall
f 8 7 22 23
g wall
f 9 8 23 24
g wall
f 10 9 24 25
g wall
f 11 10 25 26
g wall
f 12 11 26 27
g wall
f 13 12 27 28
g wall
f 14 13 28 29
g wall
f 15 14 29 30
g wall
f 1 15 30 16
g ground_assumed
f 30 29 28 27 26 25 24 23 22 21 20 19 18 17 16
