v 2685722.7500000014 1251353.1249999977 433.03422195662313
v 2685725.2500000009 1251355.8750000014 433.03289333547997
v 2685725.4999999986 1251356.3750000026 433.03214633026215
v 2685726.5000000009 1251358.7499999977 433.02813472314665
v 2685727.7500000009 1251363.2500000023 433.01894062804183
v 2685727.7500000009 1251363.6249999986 433.01791704797125
v 2685727.4999999972 1251363.7499999974 433.01695809875184
v 2685726.2499999972 1251364.2499999986 433.01250453366458
v 2685722.9999999986 1251365.4999999986 433.00106174301527
v 2685720.4999999986 1251366.3750000023 432.9924958123712
v 2685720.2500000014 1251366.3750000023 432.99187805033517
v 2685718.7499999977 1251363.1249999974 432.99704247452945
v 2685715.4999999991 1251355.6249999977 433.00948310156326
v 2685715.4999999991 1251355.2500000014 433.01050667546036
v 2685722.25 1251353.1249999977 433.03298643872449
v 2685722.7500000014 1251353.1249999977 430.42527404755629
v 2685725.2500000009 1251355.8750000014 430.42527404755629
v 2685725.4999999986 1251356.3750000026 430.42527404755629
v 2685726.5000000009 1251358.7499999977 430.42527404755629
v 2685727.7500000009 1251363.2500000023 430.42527404755629
v 2685727.7500000009 1251363.6249999986 430.42527404755629
v 2685727.4999999972 1251363.7499999974 430.42527404755629
v 2685726.2499999972 1251364.2499999986 430.42527404755629
v 2685722.9999999986 1251365.4999999986 430.42527404755629
v 2685720.4999999986 1251366.3750000023 430.42527404755629
v 2685720.2500000014 1251366.3750000023 430.42527404755629
v 2685718.7499999977 1251363.1249999974 430.42527404755629
v 2685715.4999999991 1251355.6249999977 430.42527404755629
v 2685715.4999999991 1251355.2500000014 430.42527404755629
v 2685722.25 1251353.1249999977 430.42527404755629
l 1 2
l 2 3
l 3 4
l 4 5
l 5 6
l 6 7
l 7 8
l 8 9
l 9 10
l 10 11
l 11 12
l 12 13
l 13 14
l 14 15
l 1 15
l 1 16
l 16 17
l 2 17
l 17 18
l 18 19
l 19 20
l 5 20
l 20 21
l 6 21
l 21 22
l 22 23
l 23 24
l 24 25
l 10 25
l 25 26
l 11 26
l 26 27
l 27 28
l 13 28
l 28 29
l 14 29
l 29 30
l 15 30
l 16 30
