v 2678470.9308000011 1248936.3615999972 425.44645981265279
v 2678451.8808000018 1248945.8866000019 425.48391227040798
v 2678446.5000000023 1248935.1250000026 425.4521669576759
v 2678465.5500000017 1248925.5999999978 425.41471451040468
v 2678470.9308000011 1248936.3615999972 413.771910888251
v 2678451.8808000018 1248945.8866000019 413.771910888251
v 2678446.5000000023 1248935.1250000026 413.771910888251
v 2678465.5500000017 1248925.5999999978 413.771910888251
l 1 2
l 2 3
l 3 4
l 1 4
l 1 5
l 5 6
l 2 6
l 6 7
l 3 7
l 7 8
l 4 8
l 5 8
