# pointcloud_to_mesh 0.4.1; candidate requires geometry validation; coordinates preserved
v -2.319108930 -10.320384546 2.402594471
v 9.649116997 -4.309004024 2.248355202
v 2.299470341 10.323613449 2.265583581
v -9.668755586 4.312232927 2.419822849
v 2.299470341 10.323613449 -2.165670600
v -9.668755586 4.312232927 -2.165670600
v -2.319108930 -10.320384546 -2.165670600
v 9.649116997 -4.309004024 -2.165670600
g roof
f 1 2 3
g roof
f 1 3 4
g facade_completed
f 4 3 5 6
g facade_completed
f 1 4 6 7
g facade_completed
f 2 1 7 8
g facade_completed
f 3 2 8 5
g ground_assumed
f 8 6 5
g ground_assumed
f 8 7 6
