# XYZ-only planar convex-roof baseline. Provisional base; no GT.
v -13.68476245 -3.64680259 0.95559344
v 9.96131693 -8.53023203 0.95980949
v 11.74690221 0.11575988 0.93680734
v -11.93633061 4.81928841 0.93306989
v 12.38411929 3.20123206 -1.30740310
v -11.26196009 8.08466149 -1.44199101
v -13.68476245 -3.64680259 -3.98419591
v 9.96131693 -8.53023203 -3.98419591
v 11.74690221 0.11575988 -3.98419591
v 12.38411929 3.20123206 -3.98419591
v -11.26196009 8.08466149 -3.98419591
v -11.93633061 4.81928841 -3.98419591
g roof
f 1 2 3 4
g roof
f 3 5 6 4
g wall
f 2 1 7 8
g wall
f 3 2 8 9
g wall
f 1 4 12 7
g wall
f 5 3 9 10
g wall
f 6 5 10 11
g wall
f 4 6 11 12
g ground_assumed
f 12 11 10 9 8 7
