# Source coordinates; no display transform
v 2685640.94442 1251067.80728 436.442696581
v 2685653.13585 1251065.28949 436.44487029
v 2685654.05646 1251069.74718 436.433010853
v 2685641.84587 1251072.17223 436.4310839
v 2685654.385 1251071.33799 435.27594199
v 2685642.19356 1251073.85579 435.206551225
v 2685640.94442 1251067.80728 433.895842532
v 2685653.13585 1251065.28949 433.895842532
v 2685654.05646 1251069.74718 433.895842532
v 2685654.385 1251071.33799 433.895842532
v 2685642.19356 1251073.85579 433.895842532
v 2685641.84587 1251072.17223 433.895842532
g roof
f 1 2 3 4
g roof
f 3 5 6 4
g wall
f 2 1 7 8
g wall
f 3 2 8 9
g wall
f 1 4 12 7
g wall
f 5 3 9 10
g wall
f 6 5 10 11
g wall
f 4 6 11 12
g ground_assumed
f 12 11 10 9 8 7
