v 2685640.9444172243 1251067.8072833989 436.44269658064258
v 2685653.1358506521 1251065.2894873635 436.44487028953006
v 2685654.056461791 1251069.7471834193 436.4330108528805
v 2685641.845872812 1251072.1722262362 436.43108390033444
v 2685654.3849978452 1251071.3379895766 435.27594199011924
v 2685642.1935644173 1251073.8557856069 435.20655122480173
v 2685640.9444172243 1251067.8072833989 433.8958425318375
v 2685653.1358506521 1251065.2894873635 433.8958425318375
v 2685654.056461791 1251069.7471834193 433.8958425318375
v 2685654.3849978452 1251071.3379895766 433.8958425318375
v 2685642.1935644173 1251073.8557856069 433.8958425318375
v 2685641.845872812 1251072.1722262362 433.8958425318375
l 1 2
l 2 3
l 3 4
l 1 4
l 3 5
l 5 6
l 4 6
l 1 7
l 7 8
l 2 8
l 8 9
l 7 12
l 9 10
l 5 10
l 10 11
l 6 11
l 11 12
