# pointcloud_to_mesh 0.5.1; candidate requires geometry validation; coordinates preserved
v -6.009394118 -5.064923529 1.167369068
v -4.280794118 -8.431423529 1.197021131
v -3.004647059 -7.750811765 1.195413587
v -2.408096428 -7.455908750 1.194834742
v 4.947841176 -3.669964706 1.186587071
v 5.118029412 -3.211317647 1.183642205
v 8.332129412 -1.711217647 1.181182446
v 8.530035294 -1.204241176 1.177953674
v 9.132147059 -1.103888235 1.178833829
v 9.734205882 -0.401423529 1.175244840
v 10.537100000 -0.501800000 1.178156728
v 11.313858824 0.387564706 1.173652014
v 9.588545434 3.722384231 1.144243960
v 9.637082353 3.748270588 1.144182818
v 9.527482353 3.953770588 1.142361763
v 9.671533326 4.030597774 1.142180304
v 7.390317647 8.383829412 1.103713097
v 7.720882353 7.752970588 1.109287601
v 8.339900000 6.571700000 1.119725861
v 8.238517647 6.517629412 1.119853571
v 7.610941176 7.694335294 1.109426092
v 7.321794118 8.318723529 1.104011393
v 7.381182353 8.207370588 1.104998157
v 5.507676471 7.351194118 1.106296611
v -3.955064706 2.332958824 1.118004709
v -3.936005882 2.297223529 1.118321380
v -4.130371214 2.193562019 1.118566219
v -4.551775558 1.630418253 1.121608693
v -7.226643137 -1.944141483 1.140920823
v -5.836166871 -4.504128998 1.163674243
v -6.203888235 -4.700247059 1.164137456
v 5.567064706 7.239841176 1.107283374
v -6.117458824 -4.380564706 1.437761424
v -6.317488235 -4.487247059 1.436989212
v -6.203888235 -4.700247059 1.439821344
v -5.836166871 -4.504128998 1.441240929
v -7.226643137 -1.944141483 1.406987887
v -4.130371214 2.193562019 1.397188133
v -5.208447059 1.618588235 1.393026232
v -5.227505882 1.654323529 1.392551081
v -6.547947059 0.950088235 1.387453531
v -7.072982353 1.934529412 1.374364014
v -10.078723529 7.670594118 1.298551155
v -11.089194118 7.131676471 1.294650243
v -11.540588235 6.623352941 1.295248669
v -12.202788235 6.698352941 1.288946210
v -11.480482353 5.344029412 1.306953829
v -11.139217647 4.114470588 1.320620922
v -10.537052941 3.612711765 1.330145153
v -10.510970588 3.024482353 1.335513901
v -10.485088235 2.975952941 1.336159167
v -9.960947059 1.993188235 1.349226393
v -8.931376471 1.706005882 1.360517622
v -9.116523529 0.710794118 1.367645954
v -8.845652941 0.202911765 1.374398957
v -8.144241176 -1.112235294 1.391885670
v -7.325770588 -1.605617647 1.403180962
v -7.248173950 -2.619932773 1.412716729
v -7.098917647 -2.540329412 1.413292931
v 11.274588235 1.075747059 1.208004145
v 10.026252941 3.353688235 1.237487405
v 10.369541176 2.727235294 1.229379432
v 10.223247059 2.649211765 1.230602510
v 9.637082353 3.748270588 1.244637039
v 9.588545441 3.722384235 1.245042828
v 11.313858824 0.387564706 1.203087584
v 10.537100000 -0.501800000 1.206507621
v 9.734205882 -0.401423529 1.216640242
v 9.132147059 -1.103888235 1.219206153
v 8.530035294 -1.204241176 1.225668515
v 8.332129412 -1.711217647 1.224725749
v 5.118029412 -3.211317647 1.252982132
v 4.947841176 -3.669964706 1.252024692
v -2.408096428 -7.455908750 1.314411191
v 0.341311765 -6.096747059 1.290731476
v 2.252558824 -5.114135294 1.274515084
v 2.784564706 -4.857258824 1.269893507
v 4.440917647 -3.973870588 1.256045722
v 4.957582353 -3.688229412 1.251791459
v 7.686876471 -2.232605882 1.228973449
v 9.332805882 -2.207723529 1.209694013
v 12.207952941 -0.674311765 1.185656613
v 12.205176471 -0.669105882 1.185723090
v 11.906588235 -0.109252941 1.192872182
v -4.130371214 2.193562019 1.524557879
v -3.936005882 2.297223529 1.524557879
v -3.955064706 2.332958824 1.524557879
v -4.073211765 2.269947059 1.524557879
v -5.227505882 1.654323529 1.524557879
v -5.208447059 1.618588235 1.524557879
v 5.567064706 7.239841176 1.517348684
v 7.381182353 8.207370588 1.517348684
v 7.321794118 8.318723529 1.517348684
v 5.507676471 7.351194118 1.517348684
v 7.720882353 7.752970588 1.524959683
v 7.610941176 7.694335294 1.524959683
v 8.238517647 6.517629412 1.524959683
v 8.339900000 6.571700000 1.524959683
v 9.779638794 3.824300690 1.508510224
v 9.671533326 4.030597774 1.508510224
v 9.527482353 3.953770588 1.508510224
v 9.637082353 3.748270588 1.508510224
v 10.223247059 2.649211765 1.508510224
v 10.369541176 2.727235294 1.508510224
v 10.026252941 3.353688235 1.508510224
v -7.248173950 -2.619932773 1.590001688
v -7.237252941 -2.762688235 1.590001688
v -6.317488235 -4.487247059 1.590001688
v -6.117458824 -4.380564706 1.590001688
v -7.098917647 -2.540329412 1.590001688
v 9.671533353 4.030597788 -1.770553147
v 7.390317647 8.383829412 -1.770553147
v -3.955064706 2.332958824 -1.770553147
v -4.551775571 1.630418282 1.398521885
v -6.203888235 -4.700247059 -1.770553147
v -6.009394118 -5.064923529 -1.770553147
v -4.280794118 -8.431423529 -1.770553147
v -3.652823529 -8.096505882 1.196230086
v -3.652823529 -8.096505882 -1.770553147
v -3.004647059 -7.750811765 -1.770553147
v -2.408096406 -7.455908776 -1.770553147
v -5.227505882 1.654323529 -1.770553147
v -6.547947059 0.950088235 -1.770553147
v -7.072982353 1.934529412 -1.770553147
v -10.078723529 7.670594118 -1.770553147
v -11.089194118 7.131676471 -1.770553147
v -11.540588235 6.623352941 -1.770553147
v -12.202788235 6.698352941 -1.770553147
v -11.480482353 5.344029412 -1.770553147
v -11.139217647 4.114470588 -1.770553147
v -10.537052941 3.612711765 -1.770553147
v -10.510970588 3.024482353 -1.770553147
v -10.485088235 2.975952941 -1.770553147
v -9.960947059 1.993188235 -1.770553147
v -8.931376471 1.706005882 -1.770553147
v -9.116523529 0.710794118 -1.770553147
v -8.845652941 0.202911765 -1.770553147
v -8.144241176 -1.112235294 -1.770553147
v -7.325770588 -1.605617647 -1.770553147
v -7.248173912 -2.619932753 -1.770553147
v -6.317488235 -4.487247059 -1.770553147
v 9.588545441 3.722384235 -1.770553147
v 0.341311765 -6.096747059 -1.770553147
v 2.252558824 -5.114135294 -1.770553147
v 2.784564706 -4.857258824 -1.770553147
v 4.440917647 -3.973870588 -1.770553147
v 4.957582353 -3.688229412 -1.770553147
v 7.686876471 -2.232605882 -1.770553147
v 9.332805882 -2.207723529 -1.770553147
v 12.207952941 -0.674311765 -1.770553147
v 12.205176471 -0.669105882 -1.770553147
v 11.906588235 -0.109252941 -1.770553147
v 11.274588235 1.075747059 -1.770553147
v 10.026252941 3.353688235 -1.770553147
v -4.073211765 2.269947059 -1.770553147
v 9.779638824 3.824300706 -1.770553147
v -7.237252941 -2.762688235 -1.770553147
g roof
f 1 2 118 3
g roof
f 1 3 4
g roof
f 1 4 5
g roof
f 1 5 6
g roof
f 1 6 7
g roof
f 1 7 8
g roof
f 8 9 10
g roof
f 10 11 12
g roof
f 10 12 13
g roof
f 13 14 15
g roof
f 16 17 18
g roof
f 16 18 19
g roof
f 16 19 20
g roof
f 21 18 17
g roof
f 17 22 23
g roof
f 24 22 17
g roof
f 24 17 25
g roof
f 24 25 26
g roof
f 26 27 28
g roof
f 26 28 29
g roof
f 26 29 30
g roof
f 30 31 1
g roof
f 30 1 8
g roof
f 30 8 10
g roof
f 30 10 13
g roof
f 30 13 15
g roof
f 15 16 20
g roof
f 15 20 21
g roof
f 21 17 23
g roof
f 21 23 32
g roof
f 32 24 26
g roof
f 32 26 30
g roof
f 32 30 15
g roof
f 32 15 21
g roof
f 33 34 35
g roof
f 33 35 36
g roof
f 33 36 37
g roof
f 37 114 38 39
g roof
f 37 39 40
g roof
f 37 40 41
g roof
f 37 41 42
g roof
f 42 43 44
g roof
f 42 44 45
g roof
f 42 45 46
g roof
f 42 46 47
g roof
f 42 47 48
g roof
f 42 48 49
g roof
f 42 49 50
g roof
f 42 50 51
g roof
f 42 51 52
g roof
f 42 52 53
g roof
f 42 53 54
g roof
f 42 54 55
g roof
f 42 55 56
g roof
f 42 56 57
g roof
f 57 58 59
g roof
f 59 33 37
g roof
f 37 42 57
g roof
f 37 57 59
g roof
f 60 61 62
g roof
f 60 62 63
g roof
f 63 64 65
g roof
f 63 65 66
g roof
f 67 68 69
g roof
f 69 70 71
g roof
f 71 72 73
g roof
f 73 74 75
g roof
f 73 75 76
g roof
f 73 76 77
g roof
f 73 77 78
g roof
f 73 78 79
g roof
f 73 79 80
g roof
f 80 81 82
g roof
f 80 82 83
g roof
f 80 83 84
g roof
f 84 60 63
g roof
f 84 63 66
g roof
f 84 66 67
g roof
f 84 67 69
g roof
f 84 69 71
g roof
f 71 73 80
g roof
f 71 80 84
g roof_fixture
f 85 86 87
g roof_fixture
f 85 87 88
g roof_fixture
f 85 88 89
g roof_fixture
f 85 89 90
g roof_fixture
f 91 92 93
g roof_fixture
f 91 93 94
g roof_fixture
f 95 96 97
g roof_fixture
f 95 97 98
g roof_fixture
f 99 100 101
g roof_fixture
f 99 101 102
g roof_fixture
f 99 102 103
g roof_fixture
f 103 104 105
g roof_fixture
f 103 105 99
g roof_fixture
f 106 107 108
g roof_fixture
f 106 108 109
g roof_fixture
f 109 110 106
g facade_completed
f 17 16 111 112
g facade_completed
f 25 17 112 113
g roof_step_or_fixture_side
f 87 86 26 25
g roof_step_or_fixture_side
f 86 85 38 27 26
g roof_step_or_fixture_side
f 38 114 28 27
g roof_step_or_fixture_side
f 114 37 29 28
g roof_step_or_fixture_side
f 37 36 30 29
g roof_step_or_fixture_side
f 36 35 31 30
g facade_completed
f 1 31 115 116
g facade_completed
f 2 1 116 117
g facade_completed
f 118 2 117 119
g facade_completed
f 3 118 119 120
g facade_completed
f 4 3 120 121
g roof_step_or_fixture_side
f 74 73 5 4
g roof_step_or_fixture_side
f 73 72 6 5
g roof_step_or_fixture_side
f 72 71 7 6
g roof_step_or_fixture_side
f 71 70 8 7
g roof_step_or_fixture_side
f 70 69 9 8
g roof_step_or_fixture_side
f 69 68 10 9
g roof_step_or_fixture_side
f 68 67 11 10
g roof_step_or_fixture_side
f 67 66 12 11
g roof_step_or_fixture_side
f 66 65 13 12
g roof_step_or_fixture_side
f 65 64 14 13
g roof_step_or_fixture_side
f 102 101 15 14 64
g roof_step_or_fixture_side
f 101 100 16 15
g roof_step_or_fixture_side
f 91 94 24 32
g roof_step_or_fixture_side
f 94 93 22 24
g roof_step_or_fixture_side
f 93 92 23 22
g roof_step_or_fixture_side
f 92 91 32 23
g roof_step_or_fixture_side
f 95 98 19 18
g roof_step_or_fixture_side
f 98 97 20 19
g roof_step_or_fixture_side
f 97 96 21 20
g roof_step_or_fixture_side
f 96 95 18 21
g roof_step_or_fixture_side
f 85 90 39 38
g roof_step_or_fixture_side
f 90 89 40 39
g facade_completed
f 41 40 122 123
g facade_completed
f 42 41 123 124
g facade_completed
f 43 42 124 125
g facade_completed
f 44 43 125 126
g facade_completed
f 45 44 126 127
g facade_completed
f 46 45 127 128
g facade_completed
f 47 46 128 129
g facade_completed
f 48 47 129 130
g facade_completed
f 49 48 130 131
g facade_completed
f 50 49 131 132
g facade_completed
f 51 50 132 133
g facade_completed
f 52 51 133 134
g facade_completed
f 53 52 134 135
g facade_completed
f 54 53 135 136
g facade_completed
f 55 54 136 137
g facade_completed
f 56 55 137 138
g facade_completed
f 57 56 138 139
g facade_completed
f 58 57 139 140
g roof_step_or_fixture_side
f 106 110 59 58
g roof_step_or_fixture_side
f 110 109 33 59
g roof_step_or_fixture_side
f 109 108 34 33
g facade_completed
f 35 34 141 115 31
g roof_step_or_fixture_side
f 105 104 62 61
g roof_step_or_fixture_side
f 104 103 63 62
g roof_step_or_fixture_side
f 103 102 64 63
g facade_completed
f 75 74 4 121 143
g facade_completed
f 76 75 143 144
g facade_completed
f 77 76 144 145
g facade_completed
f 78 77 145 146
g facade_completed
f 79 78 146 147
g facade_completed
f 80 79 147 148
g facade_completed
f 81 80 148 149
g facade_completed
f 82 81 149 150
g facade_completed
f 83 82 150 151
g facade_completed
f 84 83 151 152
g facade_completed
f 60 84 152 153
g facade_completed
f 61 60 153 154
g facade_completed
f 88 87 25 113 155
g facade_completed
f 89 88 155 122 40
g facade_completed
f 100 99 156 111 16
g facade_completed
f 99 105 61 154 156
g facade_completed
f 107 106 58 140 157
g facade_completed
f 108 107 157 141 34
g ground_assumed
f 154 156 111
g ground_assumed
f 154 156 111 112
g ground_assumed
f 154 113 112 111 156
g ground_assumed
f 154 155 113
g ground_assumed
f 154 122 155
g ground_assumed
f 154 123 122
g ground_assumed
f 124 126 125
g ground_assumed
f 124 127 126
g ground_assumed
f 124 128 127
g ground_assumed
f 124 129 128
g ground_assumed
f 124 130 129
g ground_assumed
f 124 131 130
g ground_assumed
f 124 132 131
g ground_assumed
f 124 133 132
g ground_assumed
f 124 134 133
g ground_assumed
f 124 135 134
g ground_assumed
f 124 136 135
g ground_assumed
f 124 137 136
g ground_assumed
f 124 138 137
g ground_assumed
f 124 139 138
g ground_assumed
f 124 140 139
g ground_assumed
f 124 157 140
g ground_assumed
f 124 141 157
g ground_assumed
f 124 115 141
g ground_assumed
f 124 116 115
g ground_assumed
f 124 117 116
g ground_assumed
f 124 119 117
g ground_assumed
f 124 120 119
g ground_assumed
f 124 121 120
g ground_assumed
f 121 144 143
g ground_assumed
f 144 146 145
g ground_assumed
f 144 147 146
g ground_assumed
f 144 148 147
g ground_assumed
f 148 150 149
g ground_assumed
f 148 151 150
g ground_assumed
f 148 152 151
g ground_assumed
f 148 153 152
g ground_assumed
f 148 154 153
g ground_assumed
f 148 123 154
g ground_assumed
f 123 121 124
g ground_assumed
f 123 144 121
g ground_assumed
f 123 148 144
