v 2679901.8896783809 1246946.6911141379 451.1040727521256
v 2679904.042828382 1246942.4977903625 451.14100746199273
v 2679905.6324014706 1246943.3455626755 451.13900509975446
v 2679906.3754669521 1246943.7128948674 451.13828408846649
v 2679915.5380476876 1246948.4286795615 451.12801076160002
v 2679915.7500347295 1246948.9999718878 451.12434262655972
v 2679919.7535285498 1246950.8685015168 451.12127874243782
v 2679920.0000407854 1246951.4999931219 451.1172569731246
v 2679920.7500332342 1246951.6249930845 451.11835329716661
v 2679921.4999597385 1246952.4999854958 451.11388284034103
v 2679922.5000473647 1246952.3749562243 451.11750989787311
v 2679923.4675807809 1246953.4827519073 451.11189881089325
v 2679921.3185245921 1246957.636614376 451.07526803946104
v 2679921.3789823428 1246957.6688585097 451.07519188077924
v 2679921.2424642122 1246957.9248300041 451.07292356851787
v 2679921.4218945908 1246958.0205262066 451.07269754257436
v 2679918.5804046332 1246963.4429262446 451.02478265955443
v 2679918.9921571477 1246962.6571263617 451.03172628057308
v 2679919.7632076205 1246961.1857317258 451.04472821249999
v 2679919.6369254189 1246961.1183812188 451.04488728850748
v 2679918.8552140463 1246962.5840900415 451.03189878543066
v 2679918.4950514939 1246963.3618301367 451.02515421805998
v 2679918.56902568 1246963.2231285372 451.02638333463267
v 2679916.2353804228 1246962.156672233 451.0280006933225
v 2679904.4485580381 1246955.9059413942 451.04258433975298
v 2679904.4722977737 1246955.86142939 451.0429787862206
v 2679904.2301956592 1246955.732308263 451.04328375850633
v 2679903.7052929844 1246955.0308544852 451.04707347440126
v 2679900.3734688899 1246950.5783707995 451.07112872878497
v 2679902.1054508253 1246947.3896417005 451.09947046562075
v 2679901.6474158517 1246947.1453563811 451.10004744529874
v 2679916.3093546089 1246962.0179706323 451.02922980864957
v 2679901.7550726179 1246947.5435538003 451.44087438441511
v 2679901.5059153079 1246947.4106699009 451.43991251453861
v 2679901.6474158517 1246947.1453563811 451.44344022772759
v 2679902.1054508253 1246947.3896417005 451.44520846760037
v 2679900.3734688899 1246950.5783707995 451.40254276274413
v 2679904.2301956592 1246955.732308263 451.39033615604836
v 2679902.887340744 1246955.0161189747 451.38515207809968
v 2679902.8636010098 1246955.0606309776 451.38456022840853
v 2679901.2188550178 1246954.1834331159 451.37821070290391
v 2679900.5648692814 1246955.4096563724 451.36190635629924
v 2679896.8209079164 1246962.5545179523 451.26747360295712
v 2679895.5622623363 1246961.8832403102 451.26261461378874
v 2679895.000004299 1246961.2500708036 451.26336001523646
v 2679894.1751657412 1246961.3434910569 451.25550965101002
v 2679895.0748723885 1246959.656541093 451.27794000208416
v 2679895.4999528592 1246958.1249984673 451.2949637793061
v 2679896.2500112518 1246957.5000059819 451.3068271936221
v 2679896.2824995192 1246956.7673054386 451.31351452427191
v 2679896.3147386652 1246956.7068570391 451.31431826978184
v 2679896.9676106852 1246955.4827220005 451.3305948506416
v 2679898.2500472884 1246955.1250066913 451.34465924363707
v 2679898.0194274876 1246953.8853675551 451.35353831806293
v 2679898.3568248074 1246953.2527475802 451.36194988141813
v 2679899.2305056718 1246951.6145959597 451.38373139021854
v 2679900.2499954016 1246951.0000372336 451.39780084410052
v 2679900.3466500365 1246949.7366028852 451.40967862769708
v 2679900.5325641916 1246949.8357571007 451.41039634685529
v 2679923.4186652023 1246954.3399541716 451.15468794134273
v 2679921.8637345419 1246957.1773653976 451.19141238962271
v 2679922.2913355273 1246956.3970534976 451.18131307105705
v 2679922.1091110809 1246956.2998671262 451.18283654114663
v 2679921.3789823428 1246957.6688585097 451.20031799789172
v 2679921.3185246009 1246957.6366143811 451.2008234500413
v 2679923.4675807809 1246953.4827519073 451.14856385634806
v 2679922.5000473647 1246952.3749562243 451.15282386599159
v 2679921.4999597385 1246952.4999854958 451.16544509294732
v 2679920.7500332342 1246951.6249930845 451.1686412003591
v 2679920.0000407854 1246951.4999931219 451.17669074030266
v 2679919.7535285498 1246950.8685015168 451.17551642778744
v 2679915.7500347295 1246948.9999718878 451.21071267393057
v 2679915.5380476876 1246948.4286795615 451.20952008343141
v 2679906.3754669521 1246943.7128948674 451.28722891738983
v 2679909.8001390877 1246945.4058712623 451.25773338437205
v 2679912.1807948826 1246946.6298157971 451.23753419170163
v 2679912.8434632067 1246946.9497819962 451.23177753977416
v 2679914.906622027 1246948.0501333678 451.21452869198646
v 2679915.5501813306 1246948.405928982 451.20922956761848
v 2679918.9497993062 1246950.2190585693 451.18080737726041
v 2679920.9999745423 1246950.2500521124 451.15679284663361
v 2679924.5812674342 1246952.160074987 451.12685177997122
v 2679924.5778090535 1246952.1665594524 451.12693458394705
v 2679924.2058865377 1246952.8639141675 451.13583951709904
v 2679904.2301956592 1246955.732308263 451.5489883420484
v 2679904.4722977737 1246955.86142939 451.5489883420484
v 2679904.4485580381 1246955.9059413942 451.5489883420484
v 2679904.3013936621 1246955.8274537269 451.5489883420484
v 2679902.8636010098 1246955.0606309776 451.5489883420484
v 2679902.887340744 1246955.0161189747 451.5489883420484
v 2679916.3093546089 1246962.0179706323 451.54000854439653
v 2679918.56902568 1246963.2231285372 451.54000854439653
v 2679918.4950514939 1246963.3618301367 451.54000854439653
v 2679916.2353804228 1246962.156672233 451.54000854439653
v 2679918.9921571477 1246962.6571263617 451.54948883046848
v 2679918.8552140463 1246962.5840900415 451.54948883046848
v 2679919.6369254189 1246961.1183812188 451.54948883046848
v 2679919.7632076205 1246961.1857317258 451.54948883046848
v 2679921.5565511272 1246957.7635618618 451.52899932875539
v 2679921.4218945908 1246958.0205262066 451.52899932875539
v 2679921.2424642122 1246957.9248300041 451.52899932875539
v 2679921.3789823428 1246957.6688585097 451.52899932875539
v 2679922.1091110809 1246956.2998671262 451.52899932875539
v 2679922.2913355273 1246956.3970534976 451.52899932875539
v 2679921.8637345419 1246957.1773653976 451.52899932875539
v 2679900.3466500365 1246949.7366028852 451.63050537167345
v 2679900.3602532819 1246949.5587861994 451.63050537167345
v 2679901.5059153079 1246947.4106699009 451.63050537167345
v 2679901.7550726179 1246947.5435538003 451.63050537167345
v 2679900.5325641916 1246949.8357571007 451.63050537167345
v 2679921.4218946248 1246958.020526224 447.44458691388058
v 2679918.5804046332 1246963.4429262446 447.44458691388058
v 2679904.4485580381 1246955.9059413942 447.44458691388058
v 2679903.7052929681 1246955.0308545213 451.39199748204629
v 2679901.6474158517 1246947.1453563811 447.44458691388058
v 2679901.8896783809 1246946.6911141379 447.44458691388058
v 2679904.042828382 1246942.4977903625 447.44458691388058
v 2679904.8250306696 1246942.9149649153 451.1400221336678
v 2679904.8250306696 1246942.9149649153 447.44458691388058
v 2679905.6324014706 1246943.3455626755 447.44458691388058
v 2679906.3754669796 1246943.712894835 447.44458691388058
v 2679902.8636010098 1246955.0606309776 447.44458691388058
v 2679901.2188550178 1246954.1834331159 447.44458691388058
v 2679900.5648692814 1246955.4096563724 447.44458691388058
v 2679896.8209079164 1246962.5545179523 447.44458691388058
v 2679895.5622623363 1246961.8832403102 447.44458691388058
v 2679895.000004299 1246961.2500708036 447.44458691388058
v 2679894.1751657412 1246961.3434910569 447.44458691388058
v 2679895.0748723885 1246959.656541093 447.44458691388058
v 2679895.4999528592 1246958.1249984673 447.44458691388058
v 2679896.2500112518 1246957.5000059819 447.44458691388058
v 2679896.2824995192 1246956.7673054386 447.44458691388058
v 2679896.3147386652 1246956.7068570391 447.44458691388058
v 2679896.9676106852 1246955.4827220005 447.44458691388058
v 2679898.2500472884 1246955.1250066913 447.44458691388058
v 2679898.0194274876 1246953.8853675551 447.44458691388058
v 2679898.3568248074 1246953.2527475802 447.44458691388058
v 2679899.2305056718 1246951.6145959597 447.44458691388058
v 2679900.2499954016 1246951.0000372336 447.44458691388058
v 2679900.3466500835 1246949.7366029101 447.44458691388058
v 2679901.5059153079 1246947.4106699009 447.44458691388058
v 2679921.3185246009 1246957.6366143811 447.44458691388058
v 2679909.8001390877 1246945.4058712623 447.44458691388058
v 2679912.1807948826 1246946.6298157971 447.44458691388058
v 2679912.8434632067 1246946.9497819962 447.44458691388058
v 2679914.906622027 1246948.0501333678 447.44458691388058
v 2679915.5501813306 1246948.405928982 447.44458691388058
v 2679918.9497993062 1246950.2190585693 447.44458691388058
v 2679920.9999745423 1246950.2500521124 447.44458691388058
v 2679924.5812674342 1246952.160074987 447.44458691388058
v 2679924.5778090535 1246952.1665594524 447.44458691388058
v 2679924.2058865377 1246952.8639141675 447.44458691388058
v 2679923.4186652023 1246954.3399541716 447.44458691388058
v 2679921.8637345419 1246957.1773653976 447.44458691388058
v 2679904.3013936621 1246955.8274537269 447.44458691388058
v 2679921.5565511645 1246957.7635618816 447.44458691388058
v 2679900.3602532819 1246949.5587861994 447.44458691388058
l 1 2
l 2 118
l 3 118
l 3 4
l 4 5
l 5 6
l 6 7
l 7 8
l 8 9
l 9 10
l 10 11
l 11 12
l 12 13
l 13 14
l 14 15
l 16 17
l 18 19
l 19 20
l 18 21
l 22 23
l 22 24
l 17 25
l 25 26
l 26 27
l 27 28
l 28 29
l 29 30
l 30 31
l 1 31
l 15 16
l 20 21
l 23 32
l 24 32
l 33 34
l 34 35
l 35 36
l 36 37
l 37 114
l 38 114
l 38 39
l 39 40
l 40 41
l 41 42
l 42 43
l 43 44
l 44 45
l 45 46
l 46 47
l 47 48
l 48 49
l 49 50
l 50 51
l 51 52
l 52 53
l 53 54
l 54 55
l 55 56
l 56 57
l 57 58
l 58 59
l 33 59
l 60 61
l 61 62
l 62 63
l 63 64
l 64 65
l 65 66
l 67 68
l 68 69
l 69 70
l 70 71
l 71 72
l 72 73
l 73 74
l 74 75
l 75 76
l 76 77
l 77 78
l 78 79
l 79 80
l 80 81
l 81 82
l 82 83
l 83 84
l 60 84
l 66 67
l 85 86
l 86 87
l 87 88
l 88 89
l 89 90
l 85 90
l 91 92
l 92 93
l 93 94
l 91 94
l 95 96
l 96 97
l 97 98
l 95 98
l 99 100
l 100 101
l 101 102
l 102 103
l 103 104
l 104 105
l 99 105
l 106 107
l 107 108
l 108 109
l 109 110
l 106 110
l 111 112
l 17 112
l 112 113
l 26 86
l 25 87
l 27 38
l 29 37
l 30 36
l 31 35
l 115 116
l 116 117
l 2 117
l 117 119
l 119 120
l 120 121
l 5 73
l 4 74
l 6 72
l 7 71
l 8 70
l 9 69
l 10 68
l 11 67
l 12 66
l 13 65
l 14 64
l 15 101
l 16 100
l 24 94
l 32 91
l 22 93
l 23 92
l 19 98
l 18 95
l 20 97
l 21 96
l 39 90
l 40 89
l 122 123
l 41 123
l 123 124
l 124 125
l 43 125
l 125 126
l 44 126
l 126 127
l 45 127
l 127 128
l 46 128
l 128 129
l 47 129
l 129 130
l 48 130
l 130 131
l 49 131
l 131 132
l 50 132
l 132 133
l 133 134
l 52 134
l 134 135
l 53 135
l 135 136
l 54 136
l 136 137
l 137 138
l 56 138
l 138 139
l 57 139
l 139 140
l 59 110
l 58 106
l 33 109
l 34 108
l 115 141
l 62 104
l 63 103
l 121 143
l 143 144
l 144 145
l 145 146
l 146 147
l 147 148
l 80 148
l 148 149
l 81 149
l 149 150
l 82 150
l 150 151
l 151 152
l 152 153
l 153 154
l 113 155
l 122 155
l 111 156
l 154 156
l 140 157
l 107 157
l 141 157
l 111 154
l 112 154
