# XYZ-only planar convex-roof baseline. Provisional base; no GT.
v 8.07660333 -7.96122328 1.41386510
v 9.46116390 -5.19210214 1.45868400
v 10.84572447 -1.26918052 1.52530268
v 11.76876485 1.96146081 1.58134168
v 9.92268409 2.88450119 1.60878229
v -0.23076010 6.57666271 1.73354588
v -1.61532067 7.03818290 1.74976637
v -7.15356295 8.65350357 1.81028841
v -8.53812352 8.88426366 1.82214895
v -8.99964371 7.96122328 1.80720931
v -11.30724466 1.26918052 1.69327154
v -11.76876485 -0.34614014 1.66525204
v -11.76876485 -1.26918052 1.64781221
v -8.07660333 -3.11526128 1.59293100
v 4.84596200 -7.73046319 1.43572642
v 7.61508314 -8.42274347 1.40764538
v 8.07660333 -7.96122328 -2.73391468
v 9.46116390 -5.19210214 -2.73391468
v 10.84572447 -1.26918052 -2.73391468
v 11.76876485 1.96146081 -2.73391468
v 9.92268409 2.88450119 -2.73391468
v -0.23076010 6.57666271 -2.73391468
v -1.61532067 7.03818290 -2.73391468
v -7.15356295 8.65350357 -2.73391468
v -8.53812352 8.88426366 -2.73391468
v -8.99964371 7.96122328 -2.73391468
v -11.30724466 1.26918052 -2.73391468
v -11.76876485 -0.34614014 -2.73391468
v -11.76876485 -1.26918052 -2.73391468
v -8.07660333 -3.11526128 -2.73391468
v 4.84596200 -7.73046319 -2.73391468
v 7.61508314 -8.42274347 -2.73391468
g roof
f 1 2 3 4 5 6 7 8 9 10 11 12 13 14 15 16
g wall
f 2 1 17 18
g wall
f 3 2 18 19
g wall
f 4 3 19 20
g wall
f 5 4 20 21
g wall
f 6 5 21 22
g wall
f 7 6 22 23
g wall
f 8 7 23 24
g wall
f 9 8 24 25
g wall
f 10 9 25 26
g wall
f 11 10 26 27
g wall
f 12 11 27 28
g wall
f 13 12 28 29
g wall
f 14 13 29 30
g wall
f 15 14 30 31
g wall
f 16 15 31 32
g wall
f 1 16 32 17
g ground_assumed
f 32 31 30 29 28 27 26 25 24 23 22 21 20 19 18 17
