v 2686123.7500000009 1251437.8750000005 427.39587879797597
v 2686124.5000000005 1251439.375 427.42015666325199
v 2686125.25 1251441.5000000016 427.45624321017544
v 2686125.75 1251443.2500000009 427.48659887022524
v 2686124.7500000005 1251443.7500000007 427.50146312241952
v 2686119.2499999972 1251445.7499999998 427.56904607580248
v 2686118.4999999977 1251445.9999999995 427.57783252238937
v 2686115.4999999991 1251446.8750000019 427.61061659190801
v 2686114.7499999995 1251446.9999999993 427.61704130541551
v 2686114.4999999995 1251446.4999999995 427.60894868004561
v 2686113.25 1251442.8749999984 427.547229944648
v 2686113 1251442.0000000014 427.53205211462307
v 2686113 1251441.5000000016 427.52260516605503
v 2686114.9999999991 1251440.5000000021 427.49287666708324
v 2686122.0000000014 1251437.9999999979 427.40772081510971
v 2686123.5000000009 1251437.6250000007 427.39250964959848
v 2686123.7500000009 1251437.8750000005 425.14907580429411
v 2686124.5000000005 1251439.375 425.14907580429411
v 2686125.25 1251441.5000000016 425.14907580429411
v 2686125.75 1251443.2500000009 425.14907580429411
v 2686124.7500000005 1251443.7500000007 425.14907580429411
v 2686119.2499999972 1251445.7499999998 425.14907580429411
v 2686118.4999999977 1251445.9999999995 425.14907580429411
v 2686115.4999999991 1251446.8750000019 425.14907580429411
v 2686114.7499999995 1251446.9999999993 425.14907580429411
v 2686114.4999999995 1251446.4999999995 425.14907580429411
v 2686113.25 1251442.8749999984 425.14907580429411
v 2686113 1251442.0000000014 425.14907580429411
v 2686113 1251441.5000000016 425.14907580429411
v 2686114.9999999991 1251440.5000000021 425.14907580429411
v 2686122.0000000014 1251437.9999999979 425.14907580429411
v 2686123.5000000009 1251437.6250000007 425.14907580429411
l 1 2
l 2 3
l 3 4
l 4 5
l 5 6
l 6 7
l 7 8
l 8 9
l 9 10
l 10 11
l 11 12
l 12 13
l 13 14
l 14 15
l 15 16
l 1 16
l 1 17
l 17 18
l 18 19
l 19 20
l 4 20
l 20 21
l 21 22
l 22 23
l 23 24
l 24 25
l 9 25
l 25 26
l 26 27
l 27 28
l 12 28
l 28 29
l 13 29
l 29 30
l 30 31
l 31 32
l 16 32
l 17 32
