# Source coordinates; no display transform
v 2685722.75 1251353.125 433.036300225
v 2685725.25 1251355.875 433.034374857
v 2685726 1251357.25 433.032579633
v 2685726.5 1251358.375 433.030921604
v 2685727.75 1251363.25 433.022210484
v 2685727.75 1251363.625 433.021380296
v 2685727.25 1251364 433.019717569
v 2685723 1251365.5 433.00932025
v 2685720.5 1251366.375 433.003220459
v 2685720.25 1251366.375 433.002804189
v 2685719.25 1251364.375 433.005566795
v 2685715.5 1251356 433.017863665
v 2685715.5 1251354.625 433.020907693
v 2685722.25 1251353.125 433.035467692
v 2685722.75 1251353.125 430.425274048
v 2685725.25 1251355.875 430.425274048
v 2685726 1251357.25 430.425274048
v 2685726.5 1251358.375 430.425274048
v 2685727.75 1251363.25 430.425274048
v 2685727.75 1251363.625 430.425274048
v 2685727.25 1251364 430.425274048
v 2685723 1251365.5 430.425274048
v 2685720.5 1251366.375 430.425274048
v 2685720.25 1251366.375 430.425274048
v 2685719.25 1251364.375 430.425274048
v 2685715.5 1251356 430.425274048
v 2685715.5 1251354.625 430.425274048
v 2685722.25 1251353.125 430.425274048
g roof
f 1 2 3 4 5 6 7 8 9 10 11 12 13 14
g wall
f 2 1 15 16
g wall
f 3 2 16 17
g wall
f 4 3 17 18
g wall
f 5 4 18 19
g wall
f 6 5 19 20
g wall
f 7 6 20 21
g wall
f 8 7 21 22
g wall
f 9 8 22 23
g wall
f 10 9 23 24
g wall
f 11 10 24 25
g wall
f 12 11 25 26
g wall
f 13 12 26 27
g wall
f 14 13 27 28
g wall
f 1 14 28 15
g ground_assumed
f 28 27 26 25 24 23 22 21 20 19 18 17 16 15
