v 2680498.4999999986 1248770.7499999984 411.64496132148912
v 2680499.7499999991 1248771.9999999986 411.58143938533391
v 2680500.75 1248773.1249999995 411.52715865276656
v 2680501.5000000019 1248774.0000000012 411.48558231003068
v 2680502.0000000005 1248774.7499999988 411.45324716654858
v 2680502.4999999991 1248775.5000000007 411.42091202306648
v 2680502.2499999995 1248775.8749999995 411.41630049034791
v 2680501.5000000019 1248776.7500000012 411.4093922560113
v 2680500.2500000019 1248777.8750000021 411.4071136882099
v 2680498.4999999986 1248779.3750000016 411.40600160070005
v 2680498 1248779.7500000005 411.40716808532568
v 2680497.2499999981 1248779.7500000005 411.42450213735827
v 2680496.2500000009 1248778.6249999998 411.47878286992568
v 2680495.0000000005 1248777.0000000005 411.5526943561436
v 2680493.5000000009 1248774.9999999981 411.64277341410269
v 2680493.5000000009 1248774.1250000007 411.66701570480592
v 2680495.0000000005 1248772.6250000012 411.67390580965997
v 2680497.2499999981 1248770.8749999979 411.67038822630053
v 2680498 1248770.3749999995 411.66690691057437
v 2680498.4999999986 1248770.7499999984 411.38355456651067
v 2680499.7499999991 1248771.9999999986 411.38355456651067
v 2680500.75 1248773.1249999995 411.38355456651067
v 2680501.5000000019 1248774.0000000012 411.38355456651067
v 2680502.0000000005 1248774.7499999988 411.38355456651067
v 2680502.4999999991 1248775.5000000007 411.38355456651067
v 2680502.2499999995 1248775.8749999995 411.38355456651067
v 2680501.5000000019 1248776.7500000012 411.38355456651067
v 2680500.2500000019 1248777.8750000021 411.38355456651067
v 2680498.4999999986 1248779.3750000016 411.38355456651067
v 2680498 1248779.7500000005 411.38355456651067
v 2680497.2499999981 1248779.7500000005 411.38355456651067
v 2680496.2500000009 1248778.6249999998 411.38355456651067
v 2680495.0000000005 1248777.0000000005 411.38355456651067
v 2680493.5000000009 1248774.9999999981 411.38355456651067
v 2680493.5000000009 1248774.1250000007 411.38355456651067
v 2680495.0000000005 1248772.6250000012 411.38355456651067
v 2680497.2499999981 1248770.8749999979 411.38355456651067
v 2680498 1248770.3749999995 411.38355456651067
l 1 2
l 2 3
l 3 4
l 4 5
l 5 6
l 6 7
l 7 8
l 8 9
l 9 10
l 10 11
l 11 12
l 12 13
l 13 14
l 14 15
l 15 16
l 16 17
l 17 18
l 18 19
l 1 19
l 20 21
l 21 22
l 22 23
l 23 24
l 24 25
l 6 25
l 25 26
l 26 27
l 27 28
l 28 29
l 29 30
l 11 30
l 30 31
l 12 31
l 31 32
l 32 33
l 33 34
l 15 34
l 34 35
l 16 35
l 35 36
l 36 37
l 37 38
l 19 38
l 20 38
