# Source coordinates; no display transform
v 2679919.25 1246962.25 451.036811007
v 2679918.5 1246963.375 451.026368379
v 2679897 1246962.25 450.975660525
v 2679896.5 1246962.125 450.975217614
v 2679895 1246961.25 450.977613968
v 2679894.75 1246960.25 450.984376996
v 2679895.5 1246958.5 450.999475964
v 2679900.25 1246949.5 451.079581614
v 2679903.5 1246943.375 451.134145681
v 2679904 1246943 451.138313644
v 2679904.5 1246943 451.139687806
v 2679905.75 1246943.125 451.142191967
v 2679920.25 1246950 451.130823283
v 2679921.5 1246950.625 451.12960238
v 2679924.5 1246952.25 451.12574096
v 2679924.5 1246952.375 451.124809684
v 2679920.25 1246960.375 451.053528324
v 2679919.25 1246962.25 447.444636958
v 2679918.5 1246963.375 447.444636958
v 2679897 1246962.25 447.444636958
v 2679896.5 1246962.125 447.444636958
v 2679895 1246961.25 447.444636958
v 2679894.75 1246960.25 447.444636958
v 2679895.5 1246958.5 447.444636958
v 2679900.25 1246949.5 447.444636958
v 2679903.5 1246943.375 447.444636958
v 2679904 1246943 447.444636958
v 2679904.5 1246943 447.444636958
v 2679905.75 1246943.125 447.444636958
v 2679920.25 1246950 447.444636958
v 2679921.5 1246950.625 447.444636958
v 2679924.5 1246952.25 447.444636958
v 2679924.5 1246952.375 447.444636958
v 2679920.25 1246960.375 447.444636958
g roof
f 1 2 3 4 5 6 7 8 9 10 11 12 13 14 15 16 17
g wall
f 2 1 18 19
g wall
f 3 2 19 20
g wall
f 4 3 20 21
g wall
f 5 4 21 22
g wall
f 6 5 22 23
g wall
f 7 6 23 24
g wall
f 8 7 24 25
g wall
f 9 8 25 26
g wall
f 10 9 26 27
g wall
f 11 10 27 28
g wall
f 12 11 28 29
g wall
f 13 12 29 30
g wall
f 14 13 30 31
g wall
f 15 14 31 32
g wall
f 16 15 32 33
g wall
f 17 16 33 34
g wall
f 1 17 34 18
g ground_assumed
f 34 33 32 31 30 29 28 27 26 25 24 23 22 21 20 19 18
