# XYZ-only planar convex-roof baseline. Provisional base; no GT.
v 7.92788472 7.42611987 1.11336974
v 7.32576690 8.32929661 1.10498615
v -9.93494415 7.42611987 1.06427668
v -10.33635603 7.32576690 1.06392110
v -11.54059169 6.62329610 1.06584495
v -11.74129763 5.82047233 1.07127447
v -11.13917980 4.41553073 1.08339628
v -7.32576690 -2.80988319 1.14770700
v -4.71658965 -7.72717878 1.19151233
v -4.31517776 -8.02823769 1.19485847
v -3.91376588 -8.02823769 1.19596168
v -2.91023616 -7.92788472 1.19797208
v 8.73070849 -2.40847131 1.18884503
v 9.73423820 -1.90670645 1.18786486
v 12.14270951 -0.60211783 1.18476482
v 12.14270951 -0.50176486 1.18401717
v 8.73070849 5.92082530 1.12679080
v 7.92788472 7.42611987 -1.77051297
v 7.32576690 8.32929661 -1.77051297
v -9.93494415 7.42611987 -1.77051297
v -10.33635603 7.32576690 -1.77051297
v -11.54059169 6.62329610 -1.77051297
v -11.74129763 5.82047233 -1.77051297
v -11.13917980 4.41553073 -1.77051297
v -7.32576690 -2.80988319 -1.77051297
v -4.71658965 -7.72717878 -1.77051297
v -4.31517776 -8.02823769 -1.77051297
v -3.91376588 -8.02823769 -1.77051297
v -2.91023616 -7.92788472 -1.77051297
v 8.73070849 -2.40847131 -1.77051297
v 9.73423820 -1.90670645 -1.77051297
v 12.14270951 -0.60211783 -1.77051297
v 12.14270951 -0.50176486 -1.77051297
v 8.73070849 5.92082530 -1.77051297
g roof
f 1 2 3 4 5 6 7 8 9 10 11 12 13 14 15 16 17
g wall
f 2 1 18 19
g wall
f 3 2 19 20
g wall
f 4 3 20 21
g wall
f 5 4 21 22
g wall
f 6 5 22 23
g wall
f 7 6 23 24
g wall
f 8 7 24 25
g wall
f 9 8 25 26
g wall
f 10 9 26 27
g wall
f 11 10 27 28
g wall
f 12 11 28 29
g wall
f 13 12 29 30
g wall
f 14 13 30 31
g wall
f 15 14 31 32
g wall
f 16 15 32 33
g wall
f 17 16 33 34
g wall
f 1 17 34 18
g ground_assumed
f 34 33 32 31 30 29 28 27 26 25 24 23 22 21 20 19 18
