v 2679919.2499999953 1246962.250000003 451.03681100670502
v 2679918.5000000042 1246963.3750000021 451.02636837867288
v 2679896.9999999967 1246962.250000003 450.97566052528356
v 2679896.5000000023 1246962.1250000044 450.97521761363402
v 2679894.9999999953 1246961.2500000023 450.97761396769471
v 2679894.7499999981 1246960.2500000016 450.98437699615306
v 2679895.5000000019 1246958.4999999974 450.99947596364871
v 2679900.2499999958 1246949.500000004 451.07958161378667
v 2679903.4999999944 1246943.3750000014 451.1341456808529
v 2679904.0000000009 1246943.0000000058 451.13831364414352
v 2679904.4999999953 1246943.0000000058 451.13968780624725
v 2679905.7500000056 1246943.1250000044 451.14219196728038
v 2679920.2499999963 1246949.9999999981 451.13082328296008
v 2679921.4999999939 1246950.625000003 451.12960237989608
v 2679924.4999999958 1246952.2499999965 451.12574095959707
v 2679924.4999999958 1246952.3749999949 451.12480968423074
v 2679920.2499999963 1246960.3750000002 451.05352832439081
v 2679919.2499999953 1246962.250000003 447.44463695848754
v 2679918.5000000042 1246963.3750000021 447.44463695848754
v 2679896.9999999967 1246962.250000003 447.44463695848754
v 2679896.5000000023 1246962.1250000044 447.44463695848754
v 2679894.9999999953 1246961.2500000023 447.44463695848754
v 2679894.7499999981 1246960.2500000016 447.44463695848754
v 2679895.5000000019 1246958.4999999974 447.44463695848754
v 2679900.2499999958 1246949.500000004 447.44463695848754
v 2679903.4999999944 1246943.3750000014 447.44463695848754
v 2679904.0000000009 1246943.0000000058 447.44463695848754
v 2679904.4999999953 1246943.0000000058 447.44463695848754
v 2679905.7500000056 1246943.1250000044 447.44463695848754
v 2679920.2499999963 1246949.9999999981 447.44463695848754
v 2679921.4999999939 1246950.625000003 447.44463695848754
v 2679924.4999999958 1246952.2499999965 447.44463695848754
v 2679924.4999999958 1246952.3749999949 447.44463695848754
v 2679920.2499999963 1246960.3750000002 447.44463695848754
l 1 2
l 2 3
l 3 4
l 4 5
l 5 6
l 6 7
l 7 8
l 8 9
l 9 10
l 10 11
l 11 12
l 12 13
l 13 14
l 14 15
l 15 16
l 16 17
l 1 17
l 18 19
l 2 19
l 19 20
l 3 20
l 20 21
l 4 21
l 21 22
l 5 22
l 22 23
l 6 23
l 23 24
l 24 25
l 25 26
l 9 26
l 26 27
l 10 27
l 27 28
l 28 29
l 12 29
l 29 30
l 30 31
l 31 32
l 15 32
l 32 33
l 16 33
l 33 34
l 18 34
