# Source coordinates; no display transform
v 0.248458328676 0.427853840241 0.196209984751
v 0.249247772613 0.455146047075 0.196206801206
v -0.143656253458 0.500002255565 0.196365116821
v -0.249980827926 -0.443525431553 0.196507968331
v -0.249985339043 -0.455006202836 0.196509171816
v 0.143566031376 -0.499970677738 0.196350598986
v 0.248458328676 0.427853840241 -0.252183566215
v 0.249247772613 0.455146047075 -0.252183566215
v -0.143656253458 0.500002255565 -0.252183566215
v -0.249980827926 -0.443525431553 -0.252183566215
v -0.249985339043 -0.455006202836 -0.252183566215
v 0.143566031376 -0.499970677738 -0.252183566215
g roof
f 1 2 3 4 5 6
g wall
f 2 1 7 8
g wall
f 3 2 8 9
g wall
f 4 3 9 10
g wall
f 5 4 10 11
g wall
f 6 5 11 12
g wall
f 1 6 12 7
g ground_assumed
f 12 11 10 9 8 7
