# XYZ-only planar convex-roof baseline. Provisional base; no GT.
v 4.13919118 -9.25871711 6.12325483
v 4.57489551 -9.04086494 6.12366054
v 7.18912152 -4.03026509 6.12916050
v 9.80334753 1.41603909 6.13502113
v 9.36764319 1.85174342 6.13515642
v 7.62482585 2.94100426 6.13515660
v 4.57489551 4.68382160 6.13502167
v 0.65355650 6.86234327 6.13479665
v -2.83207817 8.60516061 6.13443634
v -4.57489551 9.04086494 6.13389552
v -9.36764319 -0.76248259 6.12330132
v -9.80334753 -2.72315209 6.12145292
v -9.36764319 -3.15885643 6.12131763
v 2.83207817 -9.25871711 6.12257871
v 4.13919118 -9.25871711 -6.55648042
v 4.57489551 -9.04086494 -6.55648042
v 7.18912152 -4.03026509 -6.55648042
v 9.80334753 1.41603909 -6.55648042
v 9.36764319 1.85174342 -6.55648042
v 7.62482585 2.94100426 -6.55648042
v 4.57489551 4.68382160 -6.55648042
v 0.65355650 6.86234327 -6.55648042
v -2.83207817 8.60516061 -6.55648042
v -4.57489551 9.04086494 -6.55648042
v -9.36764319 -0.76248259 -6.55648042
v -9.80334753 -2.72315209 -6.55648042
v -9.36764319 -3.15885643 -6.55648042
v 2.83207817 -9.25871711 -6.55648042
g roof
f 1 2 3 4 5 6 7 8 9 10 11 12 13 14
g wall
f 2 1 15 16
g wall
f 3 2 16 17
g wall
f 4 3 17 18
g wall
f 5 4 18 19
g wall
f 6 5 19 20
g wall
f 7 6 20 21
g wall
f 8 7 21 22
g wall
f 9 8 22 23
g wall
f 10 9 23 24
g wall
f 11 10 24 25
g wall
f 12 11 25 26
g wall
f 13 12 26 27
g wall
f 14 13 27 28
g wall
f 1 14 28 15
g ground_assumed
f 28 27 26 25 24 23 22 21 20 19 18 17 16 15
