v 2682087.5000000009 1251987.2499999993 455.38343355347183
v 2682087.7499999986 1251987.3750000009 455.38366634321471
v 2682089.25 1251990.2500000026 455.38682213004307
v 2682090.7500000019 1251993.3750000016 455.39018486340115
v 2682090.4999999986 1251993.6249999991 455.39026249058389
v 2682089.4999999977 1251994.2500000012 455.39026259386492
v 2682087.7499999986 1251995.2500000021 455.39018517324428
v 2682085.4999999991 1251996.5000000007 455.39005606045941
v 2682083.5000000028 1251997.5000000016 455.38984932049186
v 2682082.5000000014 1251997.7499999991 455.38953900684726
v 2682079.7500000014 1251992.1249999974 455.38346022867125
v 2682079.4999999981 1251991.0000000005 455.38239964707179
v 2682079.7500000014 1251990.7499999974 455.38232201988905
v 2682086.7499999972 1251987.2499999993 455.38304560690671
v 2682087.5000000009 1251987.2499999993 448.1080094614374
v 2682087.7499999986 1251987.3750000009 448.1080094614374
v 2682089.25 1251990.2500000026 448.1080094614374
v 2682090.7500000019 1251993.3750000016 448.1080094614374
v 2682090.4999999986 1251993.6249999991 448.1080094614374
v 2682089.4999999977 1251994.2500000012 448.1080094614374
v 2682087.7499999986 1251995.2500000021 448.1080094614374
v 2682085.4999999991 1251996.5000000007 448.1080094614374
v 2682083.5000000028 1251997.5000000016 448.1080094614374
v 2682082.5000000014 1251997.7499999991 448.1080094614374
v 2682079.7500000014 1251992.1249999974 448.1080094614374
v 2682079.4999999981 1251991.0000000005 448.1080094614374
v 2682079.7500000014 1251990.7499999974 448.1080094614374
v 2682086.7499999972 1251987.2499999993 448.1080094614374
l 1 2
l 2 3
l 3 4
l 4 5
l 5 6
l 6 7
l 7 8
l 8 9
l 9 10
l 10 11
l 11 12
l 12 13
l 13 14
l 1 14
l 1 15
l 15 16
l 2 16
l 16 17
l 17 18
l 4 18
l 18 19
l 5 19
l 19 20
l 20 21
l 21 22
l 22 23
l 9 23
l 23 24
l 10 24
l 24 25
l 11 25
l 25 26
l 12 26
l 26 27
l 13 27
l 27 28
l 14 28
l 15 28
