# Source coordinates; no display transform
v 2686484.42751 1251301.72545 430.355547966
v 2686484.50002 1251301.25004 430.349774322
v 2686485.24999 1251301.00002 430.391596609
v 2686485.77688 1251301.42067 430.433951227
v 2686487.72312 1251302.07939 430.570929534
v 2686488 1251302.25002 430.592089923
v 2686488.03971 1251302.76341 430.605761313
v 2686487.71034 1251303.73657 430.606176117
v 2686486.70018 1251306.19272 430.595952666
v 2686486.13438 1251307.58589 430.590605805
v 2686485.96225 1251308.07182 430.590330282
v 2686485.03778 1251310.8032 430.591494518
v 2686484.75005 1251311.49998 430.588520799
v 2686484.75004 1251312.00001 430.599398426
v 2686483.99996 1251312.87502 430.571166732
v 2686484.12235 1251313.5818 430.594255191
v 2686483.62771 1251315.04322 430.594878113
v 2686483.9275 1251315.47549 430.623174109
v 2686483.57244 1251316.52453 430.623621257
v 2686483.5 1251317.49999 430.640277673
v 2686483.07767 1251318.02631 430.625113722
v 2686482.67238 1251319.22375 430.625624125
v 2686482.5 1251319.50004 430.620771631
v 2686482.3154 1251320.18748 430.624094045
v 2686481.76935 1251321.80081 430.624781717
v 2686480.53908 1251321.38441 430.538194633
v 2686479.44803 1251320.90359 430.458978997
v 2686477.80027 1251320.34589 430.343008181
v 2686478.00176 1251319.75061 430.342754444
v 2686478.50003 1251319.37498 430.365982278
v 2686478.50002 1251318.37499 430.344227056
v 2686479.00002 1251318.00003 430.367578404
v 2686479.00002 1251317.00004 430.345823182
v 2686479.36372 1251316.45388 430.356860753
v 2686480.13634 1251314.17114 430.355887748
v 2686480.64129 1251312.58823 430.353272174
v 2686480.74999 1251311.62503 430.339167733
v 2686481.49999 1251310.75 430.367394282
v 2686481.25001 1251310.25001 430.340763828
v 2686481.84644 1251309.19801 430.355462385
v 2686482.40355 1251307.552 430.354760784
v 2686482.63956 1251306.71265 430.351373619
v 2686483.0776 1251305.52629 430.353168227
v 2686483.49999 1251305.12498 430.371055435
v 2686483.49999 1251304.12499 430.349300213
v 2686483.99999 1251303.75003 430.372651561
v 2686484.07245 1251302.77449 430.355995114
v 2686484.50002 1251301.25004 430.223350128
v 2686485.24999 1251301.00002 430.223350128
v 2686485.77688 1251301.42067 430.223350128
v 2686487.72312 1251302.07939 430.223350128
v 2686488 1251302.25002 430.223350128
v 2686488.03971 1251302.76341 430.223350128
v 2686487.71034 1251303.73657 430.223350128
v 2686486.70018 1251306.19272 430.223350128
v 2686486.13438 1251307.58589 430.223350128
v 2686485.96225 1251308.07182 430.223350128
v 2686485.03778 1251310.8032 430.223350128
v 2686484.75005 1251311.49998 430.223350128
v 2686484.75004 1251312.00001 430.223350128
v 2686483.99996 1251312.87502 430.223350128
v 2686484.12235 1251313.5818 430.223350128
v 2686483.62771 1251315.04322 430.223350128
v 2686483.9275 1251315.47549 430.223350128
v 2686483.57244 1251316.52453 430.223350128
v 2686483.5 1251317.49999 430.223350128
v 2686483.07767 1251318.02631 430.223350128
v 2686482.67238 1251319.22375 430.223350128
v 2686482.5 1251319.50004 430.223350128
v 2686482.3154 1251320.18748 430.223350128
v 2686481.76935 1251321.80081 430.223350128
v 2686480.53908 1251321.38441 430.223350128
v 2686479.44803 1251320.90359 430.223350128
v 2686477.80027 1251320.34589 430.223350128
v 2686478.00176 1251319.75061 430.223350128
v 2686478.50003 1251319.37498 430.223350128
v 2686478.50002 1251318.37499 430.223350128
v 2686479.00002 1251318.00003 430.223350128
v 2686479.00002 1251317.00004 430.223350128
v 2686479.36372 1251316.45388 430.223350128
v 2686480.13634 1251314.17114 430.223350128
v 2686480.64129 1251312.58823 430.223350128
v 2686480.74999 1251311.62503 430.223350128
v 2686481.49999 1251310.75 430.223350128
v 2686481.25001 1251310.25001 430.223350128
v 2686481.84644 1251309.19801 430.223350128
v 2686482.40355 1251307.552 430.223350128
v 2686482.63956 1251306.71265 430.223350128
v 2686483.0776 1251305.52629 430.223350128
v 2686483.49999 1251305.12498 430.223350128
v 2686483.49999 1251304.12499 430.223350128
v 2686483.99999 1251303.75003 430.223350128
v 2686484.07245 1251302.77449 430.223350128
v 2686484.42751 1251301.72545 430.223350128
g roof
f 1 2 3
g roof
f 1 3 4
g roof
f 1 4 5
g roof
f 1 5 6
g roof
f 1 6 7
g roof
f 1 7 8
g roof
f 1 8 9
g roof
f 1 9 10
g roof
f 1 10 11
g roof
f 1 11 12
g roof
f 1 12 13
g roof
f 1 13 14
g roof
f 1 14 15
g roof
f 15 16 17
g roof
f 17 18 19
g roof
f 17 19 20
g roof
f 17 20 21
g roof
f 17 21 22
g roof
f 17 22 23
g roof
f 17 23 24
g roof
f 17 24 25
g roof
f 17 25 26
g roof
f 17 26 27
g roof
f 17 27 28
g roof
f 28 29 30
g roof
f 30 31 32
g roof
f 32 33 34
g roof
f 32 34 35
g roof
f 32 35 36
g roof
f 36 37 38
g roof
f 38 39 40
g roof
f 38 40 41
g roof
f 41 42 43
g roof
f 41 43 44
g roof
f 44 45 46
g roof
f 46 47 1
g roof
f 46 1 15
g roof
f 46 15 17
g roof
f 17 28 30
g roof
f 17 30 32
g roof
f 17 32 36
g roof
f 17 36 38
g roof
f 17 38 41
g roof
f 17 41 44
g roof
f 17 44 46
g facade_completed
f 3 2 48 49
g facade_completed
f 4 3 49 50
g facade_completed
f 5 4 50 51
g facade_completed
f 6 5 51 52
g facade_completed
f 7 6 52 53
g facade_completed
f 8 7 53 54
g facade_completed
f 9 8 54 55
g facade_completed
f 10 9 55 56
g facade_completed
f 11 10 56 57
g facade_completed
f 12 11 57 58
g facade_completed
f 13 12 58 59
g facade_completed
f 14 13 59 60
g facade_completed
f 15 14 60 61
g facade_completed
f 16 15 61 62
g facade_completed
f 17 16 62 63
g facade_completed
f 18 17 63 64
g facade_completed
f 19 18 64 65
g facade_completed
f 20 19 65 66
g facade_completed
f 21 20 66 67
g facade_completed
f 22 21 67 68
g facade_completed
f 23 22 68 69
g facade_completed
f 24 23 69 70
g facade_completed
f 25 24 70 71
g facade_completed
f 26 25 71 72
g facade_completed
f 27 26 72 73
g facade_completed
f 28 27 73 74
g facade_completed
f 29 28 74 75
g facade_completed
f 30 29 75 76
g facade_completed
f 31 30 76 77
g facade_completed
f 32 31 77 78
g facade_completed
f 33 32 78 79
g facade_completed
f 34 33 79 80
g facade_completed
f 35 34 80 81
g facade_completed
f 36 35 81 82
g facade_completed
f 37 36 82 83
g facade_completed
f 38 37 83 84
g facade_completed
f 39 38 84 85
g facade_completed
f 40 39 85 86
g facade_completed
f 41 40 86 87
g facade_completed
f 42 41 87 88
g facade_completed
f 43 42 88 89
g facade_completed
f 44 43 89 90
g facade_completed
f 45 44 90 91
g facade_completed
f 46 45 91 92
g facade_completed
f 47 46 92 93
g facade_completed
f 1 47 93 94
g facade_completed
f 2 1 94 48
g ground_assumed
f 94 49 48
g ground_assumed
f 94 50 49
g ground_assumed
f 94 51 50
g ground_assumed
f 94 52 51
g ground_assumed
f 94 53 52
g ground_assumed
f 94 54 53
g ground_assumed
f 94 55 54
g ground_assumed
f 94 56 55
g ground_assumed
f 94 57 56
g ground_assumed
f 94 58 57
g ground_assumed
f 94 59 58
g ground_assumed
f 94 60 59
g ground_assumed
f 94 61 60
g ground_assumed
f 61 63 62
g ground_assumed
f 63 65 64
g ground_assumed
f 63 66 65
g ground_assumed
f 63 67 66
g ground_assumed
f 63 68 67
g ground_assumed
f 63 69 68
g ground_assumed
f 63 70 69
g ground_assumed
f 63 71 70
g ground_assumed
f 63 72 71
g ground_assumed
f 63 73 72
g ground_assumed
f 63 74 73
g ground_assumed
f 74 76 75
g ground_assumed
f 76 78 77
g ground_assumed
f 78 80 79
g ground_assumed
f 78 81 80
g ground_assumed
f 78 82 81
g ground_assumed
f 82 84 83
g ground_assumed
f 84 86 85
g ground_assumed
f 84 87 86
g ground_assumed
f 87 89 88
g ground_assumed
f 87 90 89
g ground_assumed
f 90 92 91
g ground_assumed
f 92 94 93
g ground_assumed
f 92 61 94
g ground_assumed
f 92 63 61
g ground_assumed
f 63 76 74
g ground_assumed
f 63 78 76
g ground_assumed
f 63 82 78
g ground_assumed
f 63 84 82
g ground_assumed
f 63 87 84
g ground_assumed
f 63 90 87
g ground_assumed
f 63 92 90
