# pointcloud_to_mesh 0.5.1; candidate requires geometry validation; coordinates preserved
v 2.011609841 -12.503046783 -0.038154274
v 2.105554721 -13.119043186 -0.045635262
v 3.077307956 -13.443002706 0.008554432
v 3.760005851 -12.897962979 0.063433873
v 6.281778927 -12.044439784 0.240918487
v 6.640536246 -11.823353748 0.268336284
v 6.691989018 -11.158145831 0.286050487
v 6.265211391 -9.897211933 0.286587953
v 4.956338163 -6.714748432 0.273341292
v 4.223217776 -4.909601070 0.266413293
v 4.000187761 -4.279969128 0.266056295
v 2.802344275 -0.740886101 0.267564810
v 2.429521527 0.161943328 0.263711723
v 2.429508411 0.809837594 0.277806009
v 1.457628395 1.943601191 0.241225828
v 1.616204007 2.859378334 0.271141851
v 0.975300194 4.752957779 0.271948979
v 1.363738891 5.313053868 0.308612478
v 0.903683381 6.672308785 0.309191853
v 0.809820107 7.936231514 0.330773793
v 0.262601784 8.618192038 0.311125660
v -0.262534750 10.169731796 0.311786996
v -0.485894105 10.527719685 0.305499555
v -0.725085081 11.418452438 0.309804451
v -1.432608778 13.508863361 0.310695477
v -3.026678533 12.969332059 0.198503441
v -4.440364851 12.346324800 0.095862688
v -6.575389647 11.623701023 -0.054402241
v -6.314328182 10.852383059 -0.054731011
v -5.668713063 10.365674349 -0.024634398
v -5.668718892 9.069980539 -0.052822928
v -5.020862515 8.584135981 -0.022566276
v -5.020868344 7.288442170 -0.050754806
v -4.549616741 6.580769833 -0.036453279
v -3.548523127 3.622993247 -0.037714015
v -2.894244626 1.571992337 -0.041103048
v -2.753399440 0.323971178 -0.059378360
v -1.781614145 -0.809824479 -0.022804846
v -2.105516832 -1.457661912 -0.057310279
v -1.332722668 -2.820756696 -0.038265163
v -0.610868322 -4.953508173 -0.039174237
v -0.305057461 -6.041072404 -0.043563031
v 0.262514348 -7.578249454 -0.041237734
v 0.809808449 -8.098236047 -0.018061041
v 0.809802620 -9.393929857 -0.046249571
v 1.457658998 -9.879774415 -0.015992919
v 1.551554331 -11.143791866 -0.037574899
v 2.105554721 -13.119043186 -0.209444771
v 3.077307956 -13.443002706 -0.209444771
v 3.760005851 -12.897962979 -0.209444771
v 6.281778927 -12.044439784 -0.209444771
v 6.640536246 -11.823353748 -0.209444771
v 6.691989018 -11.158145831 -0.209444771
v 6.265211391 -9.897211933 -0.209444771
v 4.956338163 -6.714748432 -0.209444771
v 4.223217776 -4.909601070 -0.209444771
v 4.000187761 -4.279969128 -0.209444771
v 2.802344275 -0.740886101 -0.209444771
v 2.429521527 0.161943328 -0.209444771
v 2.429508411 0.809837594 -0.209444771
v 1.457628395 1.943601191 -0.209444771
v 1.616204007 2.859378334 -0.209444771
v 0.975300194 4.752957779 -0.209444771
v 1.363738891 5.313053868 -0.209444771
v 0.903683381 6.672308785 -0.209444771
v 0.809820107 7.936231514 -0.209444771
v 0.262601784 8.618192038 -0.209444771
v -0.262534750 10.169731796 -0.209444771
v -0.485894105 10.527719685 -0.209444771
v -0.725085081 11.418452438 -0.209444771
v -1.432608778 13.508863361 -0.209444771
v -3.026678533 12.969332059 -0.209444771
v -4.440364851 12.346324800 -0.209444771
v -6.575389647 11.623701023 -0.209444771
v -6.314328182 10.852383059 -0.209444771
v -5.668713063 10.365674349 -0.209444771
v -5.668718892 9.069980539 -0.209444771
v -5.020862515 8.584135981 -0.209444771
v -5.020868344 7.288442170 -0.209444771
v -4.549616741 6.580769833 -0.209444771
v -3.548523127 3.622993247 -0.209444771
v -2.894244626 1.571992337 -0.209444771
v -2.753399440 0.323971178 -0.209444771
v -1.781614145 -0.809824479 -0.209444771
v -2.105516832 -1.457661912 -0.209444771
v -1.332722668 -2.820756696 -0.209444771
v -0.610868322 -4.953508173 -0.209444771
v -0.305057461 -6.041072404 -0.209444771
v 0.262514348 -7.578249454 -0.209444771
v 0.809808449 -8.098236047 -0.209444771
v 0.809802620 -9.393929857 -0.209444771
v 1.457658998 -9.879774415 -0.209444771
v 1.551554331 -11.143791866 -0.209444771
v 2.011609841 -12.503046783 -0.209444771
g roof
f 1 2 3
g roof
f 1 3 4
g roof
f 1 4 5
g roof
f 1 5 6
g roof
f 1 6 7
g roof
f 1 7 8
g roof
f 1 8 9
g roof
f 1 9 10
g roof
f 1 10 11
g roof
f 1 11 12
g roof
f 1 12 13
g roof
f 1 13 14
g roof
f 1 14 15
g roof
f 15 16 17
g roof
f 17 18 19
g roof
f 17 19 20
g roof
f 17 20 21
g roof
f 17 21 22
g roof
f 17 22 23
g roof
f 17 23 24
g roof
f 17 24 25
g roof
f 17 25 26
g roof
f 17 26 27
g roof
f 17 27 28
g roof
f 28 29 30
g roof
f 30 31 32
g roof
f 32 33 34
g roof
f 32 34 35
g roof
f 32 35 36
g roof
f 36 37 38
g roof
f 38 39 40
g roof
f 38 40 41
g roof
f 41 42 43
g roof
f 41 43 44
g roof
f 44 45 46
g roof
f 46 47 1
g roof
f 46 1 15
g roof
f 46 15 17
g roof
f 17 28 30
g roof
f 17 30 32
g roof
f 17 32 36
g roof
f 17 36 38
g roof
f 17 38 41
g roof
f 17 41 44
g roof
f 17 44 46
g facade_completed
f 3 2 48 49
g facade_completed
f 4 3 49 50
g facade_completed
f 5 4 50 51
g facade_completed
f 6 5 51 52
g facade_completed
f 7 6 52 53
g facade_completed
f 8 7 53 54
g facade_completed
f 9 8 54 55
g facade_completed
f 10 9 55 56
g facade_completed
f 11 10 56 57
g facade_completed
f 12 11 57 58
g facade_completed
f 13 12 58 59
g facade_completed
f 14 13 59 60
g facade_completed
f 15 14 60 61
g facade_completed
f 16 15 61 62
g facade_completed
f 17 16 62 63
g facade_completed
f 18 17 63 64
g facade_completed
f 19 18 64 65
g facade_completed
f 20 19 65 66
g facade_completed
f 21 20 66 67
g facade_completed
f 22 21 67 68
g facade_completed
f 23 22 68 69
g facade_completed
f 24 23 69 70
g facade_completed
f 25 24 70 71
g facade_completed
f 26 25 71 72
g facade_completed
f 27 26 72 73
g facade_completed
f 28 27 73 74
g facade_completed
f 29 28 74 75
g facade_completed
f 30 29 75 76
g facade_completed
f 31 30 76 77
g facade_completed
f 32 31 77 78
g facade_completed
f 33 32 78 79
g facade_completed
f 34 33 79 80
g facade_completed
f 35 34 80 81
g facade_completed
f 36 35 81 82
g facade_completed
f 37 36 82 83
g facade_completed
f 38 37 83 84
g facade_completed
f 39 38 84 85
g facade_completed
f 40 39 85 86
g facade_completed
f 41 40 86 87
g facade_completed
f 42 41 87 88
g facade_completed
f 43 42 88 89
g facade_completed
f 44 43 89 90
g facade_completed
f 45 44 90 91
g facade_completed
f 46 45 91 92
g facade_completed
f 47 46 92 93
g facade_completed
f 1 47 93 94
g facade_completed
f 2 1 94 48
g ground_assumed
f 94 49 48
g ground_assumed
f 94 50 49
g ground_assumed
f 94 51 50
g ground_assumed
f 94 52 51
g ground_assumed
f 94 53 52
g ground_assumed
f 94 54 53
g ground_assumed
f 94 55 54
g ground_assumed
f 94 56 55
g ground_assumed
f 94 57 56
g ground_assumed
f 94 58 57
g ground_assumed
f 94 59 58
g ground_assumed
f 94 60 59
g ground_assumed
f 94 61 60
g ground_assumed
f 61 63 62
g ground_assumed
f 63 65 64
g ground_assumed
f 63 66 65
g ground_assumed
f 63 67 66
g ground_assumed
f 63 68 67
g ground_assumed
f 63 69 68
g ground_assumed
f 63 70 69
g ground_assumed
f 63 71 70
g ground_assumed
f 63 72 71
g ground_assumed
f 63 73 72
g ground_assumed
f 63 74 73
g ground_assumed
f 74 76 75
g ground_assumed
f 76 78 77
g ground_assumed
f 78 80 79
g ground_assumed
f 78 81 80
g ground_assumed
f 78 82 81
g ground_assumed
f 82 84 83
g ground_assumed
f 84 86 85
g ground_assumed
f 84 87 86
g ground_assumed
f 87 89 88
g ground_assumed
f 87 90 89
g ground_assumed
f 90 92 91
g ground_assumed
f 92 94 93
g ground_assumed
f 92 61 94
g ground_assumed
f 92 63 61
g ground_assumed
f 63 76 74
g ground_assumed
f 63 78 76
g ground_assumed
f 63 82 78
g ground_assumed
f 63 84 82
g ground_assumed
f 63 87 84
g ground_assumed
f 63 90 87
g ground_assumed
f 63 92 90
