# XYZ-only planar convex-roof baseline. Provisional base; no GT.
v 13.96944317 -3.61543414 1.19660972
v 14.11027004 -2.42053110 1.13155857
v 14.40319732 1.96081085 0.89379476
v 14.37030076 2.01089494 0.89119991
v -10.80934000 3.71532512 0.88459580
v -13.96972039 3.89477773 0.88562999
v -14.05732136 3.40825971 0.91221905
v -14.37723121 -1.69135471 1.18889015
v -2.18166138 -3.25671373 1.23206951
v 6.87441183 -3.87343192 1.23464498
v 13.96944317 -3.61543414 -1.26300632
v 14.11027004 -2.42053110 -1.26300632
v 14.40319732 1.96081085 -1.26300632
v 14.37030076 2.01089494 -1.26300632
v -10.80934000 3.71532512 -1.26300632
v -13.96972039 3.89477773 -1.26300632
v -14.05732136 3.40825971 -1.26300632
v -14.37723121 -1.69135471 -1.26300632
v -2.18166138 -3.25671373 -1.26300632
v 6.87441183 -3.87343192 -1.26300632
g roof
f 1 2 3 4 5 6 7 8 9 10
g wall
f 2 1 11 12
g wall
f 3 2 12 13
g wall
f 4 3 13 14
g wall
f 5 4 14 15
g wall
f 6 5 15 16
g wall
f 7 6 16 17
g wall
f 8 7 17 18
g wall
f 9 8 18 19
g wall
f 10 9 19 20
g wall
f 1 10 20 11
g ground_assumed
f 20 19 18 17 16 15 14 13 12 11
