# Source coordinates; no display transform
v 0.486706151097 -0.123742234412 0.0416341112531
v 0.491611677922 -0.0821192904656 0.0393681362915
v 0.501815431153 0.0704992436674 0.0310859331295
v 0.500669520877 0.0722438599257 0.0309955447947
v -0.376431583452 0.131615540697 0.0307654989322
v -0.486519457881 0.137866546575 0.0308015236396
v -0.48957092745 0.120919303495 0.0317277200898
v -0.500714584558 -0.0567193483848 0.041365209745
v -0.0758972542482 -0.111246660279 0.0428693084215
v 0.239559661483 -0.13272926246 0.0429590216784
v 0.486706151097 -0.123742234412 -0.0440435187605
v 0.491611677922 -0.0821192904656 -0.0440435187605
v 0.501815431153 0.0704992436674 -0.0440435187605
v 0.500669520877 0.0722438599257 -0.0440435187605
v -0.376431583452 0.131615540697 -0.0440435187605
v -0.486519457881 0.137866546575 -0.0440435187605
v -0.48957092745 0.120919303495 -0.0440435187605
v -0.500714584558 -0.0567193483848 -0.0440435187605
v -0.0758972542482 -0.111246660279 -0.0440435187605
v 0.239559661483 -0.13272926246 -0.0440435187605
g roof
f 1 2 3 4 5 6 7 8 9 10
g wall
f 2 1 11 12
g wall
f 3 2 12 13
g wall
f 4 3 13 14
g wall
f 5 4 14 15
g wall
f 6 5 15 16
g wall
f 7 6 16 17
g wall
f 8 7 17 18
g wall
f 9 8 18 19
g wall
f 10 9 19 20
g wall
f 1 10 20 11
g ground_assumed
f 20 19 18 17 16 15 14 13 12 11
