v 0.48670615109654874 -0.12374223441223828 0.041634111253051588
v 0.4916116779217124 -0.082119290465606537 0.039368136291506643
v 0.50181543115333804 0.0704992436674024 0.031085933129509837
v 0.50066952087687144 0.072243859925712403 0.030995544794653884
v -0.37643158345189764 0.13161554069663708 0.03076549893223195
v -0.48651945788144479 0.13786654657499417 0.030801523639642659
v -0.48957092745003883 0.1209193034953496 0.031727720089836334
v -0.50071458455758577 -0.056719348384801999 0.041365209745024535
v -0.075897254248238594 -0.11124666027934231 0.042869308421458932
v 0.23955966148311919 -0.13272926246038469 0.042959021678399198
v 0.48670615109654874 -0.12374223441223828 -0.044043518760473445
v 0.4916116779217124 -0.082119290465606537 -0.044043518760473445
v 0.50181543115333804 0.0704992436674024 -0.044043518760473445
v 0.50066952087687144 0.072243859925712403 -0.044043518760473445
v -0.37643158345189764 0.13161554069663708 -0.044043518760473445
v -0.48651945788144479 0.13786654657499417 -0.044043518760473445
v -0.48957092745003883 0.1209193034953496 -0.044043518760473445
v -0.50071458455758577 -0.056719348384801999 -0.044043518760473445
v -0.075897254248238594 -0.11124666027934231 -0.044043518760473445
v 0.23955966148311919 -0.13272926246038469 -0.044043518760473445
l 1 2
l 2 3
l 3 4
l 4 5
l 5 6
l 6 7
l 7 8
l 8 9
l 9 10
l 1 10
l 1 11
l 11 12
l 12 13
l 3 13
l 13 14
l 4 14
l 14 15
l 15 16
l 6 16
l 16 17
l 17 18
l 8 18
l 18 19
l 19 20
l 11 20
