# XYZ-only planar convex-roof baseline. Provisional base; no GT.
v 3.74482585 -13.85585563 2.07481101
v 3.74482585 -9.11240956 2.08018065
v 2.99586068 8.61309945 2.08166855
v 2.74620562 11.60896012 2.07886737
v 2.49655056 13.85585563 2.07521836
v 1.24827528 14.10551069 2.04453836
v 0.00000000 14.10551069 2.01357574
v -3.74482585 11.48413260 1.91772047
v -3.74482585 8.73792697 1.91461174
v -2.99586068 -9.98620226 1.91199339
v -2.74620562 -14.10551069 1.91352281
v 3.74482585 -13.85585563 -2.68127763
v 3.74482585 -9.11240956 -2.68127763
v 2.99586068 8.61309945 -2.68127763
v 2.74620562 11.60896012 -2.68127763
v 2.49655056 13.85585563 -2.68127763
v 1.24827528 14.10551069 -2.68127763
v 0.00000000 14.10551069 -2.68127763
v -3.74482585 11.48413260 -2.68127763
v -3.74482585 8.73792697 -2.68127763
v -2.99586068 -9.98620226 -2.68127763
v -2.74620562 -14.10551069 -2.68127763
g roof
f 1 2 3 4 5 6 7 8 9 10 11
g wall
f 2 1 12 13
g wall
f 3 2 13 14
g wall
f 4 3 14 15
g wall
f 5 4 15 16
g wall
f 6 5 16 17
g wall
f 7 6 17 18
g wall
f 8 7 18 19
g wall
f 9 8 19 20
g wall
f 10 9 20 21
g wall
f 11 10 21 22
g wall
f 1 11 22 12
g ground_assumed
f 22 21 20 19 18 17 16 15 14 13 12
