# Source coordinates; no display transform
v 2684339 1252624.375 429.458999114
v 2684342.5 1252622.375 429.465791441
v 2684343 1252622.375 429.466491147
v 2684347.75 1252630.75 429.465205529
v 2684353.75 1252641.5 429.463419574
v 2684353.75 1252642.25 429.462709176
v 2684353.5 1252642.625 429.462004119
v 2684353 1252643 429.460949214
v 2684349.25 1252645.125 429.453688633
v 2684348 1252645.75 429.45134738
v 2684347.5 1252645.625 429.45076607
v 2684346.75 1252644.375 429.450900517
v 2684344.75 1252641 429.451298499
v 2684337.25 1252627.625 429.453471754
v 2684336.75 1252626.625 429.453719247
v 2684336.5 1252625.875 429.454079796
v 2684339 1252624.375 426.176742977
v 2684342.5 1252622.375 426.176742977
v 2684343 1252622.375 426.176742977
v 2684347.75 1252630.75 426.176742977
v 2684353.75 1252641.5 426.176742977
v 2684353.75 1252642.25 426.176742977
v 2684353.5 1252642.625 426.176742977
v 2684353 1252643 426.176742977
v 2684349.25 1252645.125 426.176742977
v 2684348 1252645.75 426.176742977
v 2684347.5 1252645.625 426.176742977
v 2684346.75 1252644.375 426.176742977
v 2684344.75 1252641 426.176742977
v 2684337.25 1252627.625 426.176742977
v 2684336.75 1252626.625 426.176742977
v 2684336.5 1252625.875 426.176742977
g roof
f 1 2 3 4 5 6 7 8 9 10 11 12 13 14 15 16
g wall
f 2 1 17 18
g wall
f 3 2 18 19
g wall
f 4 3 19 20
g wall
f 5 4 20 21
g wall
f 6 5 21 22
g wall
f 7 6 22 23
g wall
f 8 7 23 24
g wall
f 9 8 24 25
g wall
f 10 9 25 26
g wall
f 11 10 26 27
g wall
f 12 11 27 28
g wall
f 13 12 28 29
g wall
f 14 13 29 30
g wall
f 15 14 30 31
g wall
f 16 15 31 32
g wall
f 1 16 32 17
g ground_assumed
f 32 31 30 29 28 27 26 25 24 23 22 21 20 19 18 17
