v 2684338.9999999953 1252624.3750000042 429.45899911426989
v 2684342.5000000009 1252622.3749999995 429.46579144053038
v 2684343.0000000047 1252622.3749999995 429.46649114715984
v 2684347.7499999953 1252630.7499999991 429.46520552872528
v 2684353.7499999995 1252641.500000004 429.46341957369128
v 2684353.7499999995 1252642.2500000044 429.46270917631932
v 2684353.5000000028 1252642.6250000049 429.46200411939202
v 2684352.9999999991 1252642.9999999951 429.46094921407661
v 2684349.2499999963 1252645.1250000035 429.45368863329719
v 2684348.0000000019 1252645.7500000005 429.451347380409
v 2684347.4999999981 1252645.6249999972 429.45076607005711
v 2684346.7499999977 1252644.3750000028 429.45090051722821
v 2684344.7500000028 1252641.0000000002 429.45129849859035
v 2684337.2499999972 1252627.6250000033 429.45347175409734
v 2684336.7500000033 1252626.624999996 429.45371924724816
v 2684336.4999999967 1252625.8749999956 429.45407979623195
v 2684338.9999999953 1252624.3750000042 426.17674297745799
v 2684342.5000000009 1252622.3749999995 426.17674297745799
v 2684343.0000000047 1252622.3749999995 426.17674297745799
v 2684347.7499999953 1252630.7499999991 426.17674297745799
v 2684353.7499999995 1252641.500000004 426.17674297745799
v 2684353.7499999995 1252642.2500000044 426.17674297745799
v 2684353.5000000028 1252642.6250000049 426.17674297745799
v 2684352.9999999991 1252642.9999999951 426.17674297745799
v 2684349.2499999963 1252645.1250000035 426.17674297745799
v 2684348.0000000019 1252645.7500000005 426.17674297745799
v 2684347.4999999981 1252645.6249999972 426.17674297745799
v 2684346.7499999977 1252644.3750000028 426.17674297745799
v 2684344.7500000028 1252641.0000000002 426.17674297745799
v 2684337.2499999972 1252627.6250000033 426.17674297745799
v 2684336.7500000033 1252626.624999996 426.17674297745799
v 2684336.4999999967 1252625.8749999956 426.17674297745799
l 1 2
l 2 3
l 3 4
l 4 5
l 5 6
l 6 7
l 7 8
l 8 9
l 9 10
l 10 11
l 11 12
l 12 13
l 13 14
l 14 15
l 15 16
l 1 16
l 17 18
l 2 18
l 18 19
l 3 19
l 19 20
l 20 21
l 5 21
l 21 22
l 6 22
l 22 23
l 7 23
l 23 24
l 24 25
l 25 26
l 10 26
l 26 27
l 11 27
l 27 28
l 28 29
l 29 30
l 30 31
l 31 32
l 16 32
l 17 32
