# Source coordinates; no display transform
v 0.347311861433 -0.418550634916 0.286289938261
v 0.354122019235 -0.404654691674 0.286294089259
v 0.401303808996 -0.166184577205 0.28632348845
v 0.405243109508 -0.146209352753 0.286325943202
v 0.480631774575 0.236593372343 0.286372925702
v 0.48300712278 0.248727160218 0.286374406392
v 0.50274698068 0.349832765747 0.286386712652
v 0.502768659065 0.350606999108 0.286386728902
v 0.502777949938 0.351040569676 0.28638673655
v 0.502762465309 0.351954165176 0.286386731292
v 0.47386807066 0.35766491193 0.286369409901
v 0.401598017902 0.371920099233 0.286326086587
v 0.314292350724 0.389117373692 0.286273749612
v 0.22371632063 0.406912356838 0.286219451607
v 0.168968720974 0.417587488168 0.286186631726
v 0.158773614098 0.417760916682 0.286180511574
v 0.155939919345 0.417717559434 0.286178810072
v -0.244899349682 0.35809538538 0.285937895475
v -0.249355837664 0.354694952155 0.285935204615
v -0.306649117399 0.304732115284 0.285900583818
v -0.433908330599 0.191306906333 0.285823672558
v -0.448364819035 0.17835243121 0.285814935151
v -0.476224837313 0.153208423454 0.285798096011
v -0.48123877385 0.131759058307 0.285794989335
v -0.484332610656 0.115797460396 0.285793060329
v -0.484329514017 0.112174047653 0.285793045512
v -0.484320223144 0.111752864597 0.285793049336
v -0.477293279581 0.102304118942 0.285797225664
v -0.461811706602 0.0842489932643 0.285806438631
v -0.441873645164 0.0612078041469 0.285818305178
v -0.35770517204 -0.0330628676011 0.28586841156
v -0.343257974477 -0.0486342521925 0.28587701514
v -0.328810777392 -0.0633570764386 0.285885622545
v -0.325270981549 -0.0662589034633 0.285887734606
v 0.0468875814744 -0.359402291561 0.286109842821
v 0.0496128833462 -0.359953545882 0.286111476455
v 0.0929544750803 -0.368494890271 0.286137458781
v 0.194122019126 -0.388423660358 0.286198105397
v 0.347311861433 -0.418550634916 -0.284936537865
v 0.354122019235 -0.404654691674 -0.284936537865
v 0.401303808996 -0.166184577205 -0.284936537865
v 0.405243109508 -0.146209352753 -0.284936537865
v 0.480631774575 0.236593372343 -0.284936537865
v 0.48300712278 0.248727160218 -0.284936537865
v 0.50274698068 0.349832765747 -0.284936537865
v 0.502768659065 0.350606999108 -0.284936537865
v 0.502777949938 0.351040569676 -0.284936537865
v 0.502762465309 0.351954165176 -0.284936537865
v 0.47386807066 0.35766491193 -0.284936537865
v 0.401598017902 0.371920099233 -0.284936537865
v 0.314292350724 0.389117373692 -0.284936537865
v 0.22371632063 0.406912356838 -0.284936537865
v 0.168968720974 0.417587488168 -0.284936537865
v 0.158773614098 0.417760916682 -0.284936537865
v 0.155939919345 0.417717559434 -0.284936537865
v -0.244899349682 0.35809538538 -0.284936537865
v -0.249355837664 0.354694952155 -0.284936537865
v -0.306649117399 0.304732115284 -0.284936537865
v -0.433908330599 0.191306906333 -0.284936537865
v -0.448364819035 0.17835243121 -0.284936537865
v -0.476224837313 0.153208423454 -0.284936537865
v -0.48123877385 0.131759058307 -0.284936537865
v -0.484332610656 0.115797460396 -0.284936537865
v -0.484329514017 0.112174047653 -0.284936537865
v -0.484320223144 0.111752864597 -0.284936537865
v -0.477293279581 0.102304118942 -0.284936537865
v -0.461811706602 0.0842489932643 -0.284936537865
v -0.441873645164 0.0612078041469 -0.284936537865
v -0.35770517204 -0.0330628676011 -0.284936537865
v -0.343257974477 -0.0486342521925 -0.284936537865
v -0.328810777392 -0.0633570764386 -0.284936537865
v -0.325270981549 -0.0662589034633 -0.284936537865
v 0.0468875814744 -0.359402291561 -0.284936537865
v 0.0496128833462 -0.359953545882 -0.284936537865
v 0.0929544750803 -0.368494890271 -0.284936537865
v 0.194122019126 -0.388423660358 -0.284936537865
g roof
f 1 2 3 4 5 6 7 8 9 10 11 12 13 14 15 16 17 18 19 20 21 22 23 24 25 26 27 28 29 30 31 32 33 34 35 36 37 38
g wall
f 2 1 39 40
g wall
f 3 2 40 41
g wall
f 4 3 41 42
g wall
f 5 4 42 43
g wall
f 6 5 43 44
g wall
f 7 6 44 45
g wall
f 8 7 45 46
g wall
f 9 8 46 47
g wall
f 10 9 47 48
g wall
f 11 10 48 49
g wall
f 12 11 49 50
g wall
f 13 12 50 51
g wall
f 14 13 51 52
g wall
f 15 14 52 53
g wall
f 16 15 53 54
g wall
f 17 16 54 55
g wall
f 18 17 55 56
g wall
f 19 18 56 57
g wall
f 20 19 57 58
g wall
f 21 20 58 59
g wall
f 22 21 59 60
g wall
f 23 22 60 61
g wall
f 24 23 61 62
g wall
f 25 24 62 63
g wall
f 26 25 63 64
g wall
f 27 26 64 65
g wall
f 28 27 65 66
g wall
f 29 28 66 67
g wall
f 30 29 67 68
g wall
f 31 30 68 69
g wall
f 32 31 69 70
g wall
f 33 32 70 71
g wall
f 34 33 71 72
g wall
f 35 34 72 73
g wall
f 36 35 73 74
g wall
f 37 36 74 75
g wall
f 38 37 75 76
g wall
f 1 38 76 39
g ground_assumed
f 76 75 74 73 72 71 70 69 68 67 66 65 64 63 62 61 60 59 58 57 56 55 54 53 52 51 50 49 48 47 46 45 44 43 42 41 40 39
