v 0.34731186143305609 -0.41855063491609623 0.28628993826146731
v 0.35412201923457726 -0.40465469167432933 0.28629408925852873
v 0.40130380899554413 -0.16618457720468768 0.28632348845026628
v 0.4052431095083226 -0.14620935275279351 0.28632594320224181
v 0.48063177457452377 0.23659337234342626 0.28637292570208422
v 0.48300712277962848 0.24872716021760433 0.28637440639165196
v 0.50274698067966717 0.34983276574703559 0.28638671265213972
v 0.50276865906466561 0.35060699910842641 0.28638672890244482
v 0.50277794993765079 0.3510405696760972 0.28638673654964725
v 0.50276246530865909 0.35195416517636446 0.28638673129219561
v 0.47386807065997805 0.35766491192971672 0.28636940990077353
v 0.40159801790228877 0.37192009923322367 0.28632608658728709
v 0.31429235072369505 0.38911737369237576 0.28627374961190316
v 0.2237163206297994 0.40691235683800209 0.28621945160704965
v 0.16896872097394056 0.41758748816842084 0.28618663172608139
v 0.15877361409816809 0.41776091668225923 0.286180511574398
v 0.15593991934546553 0.4177175594343121 0.28617881007186041
v -0.24489934968219298 0.35809538538040919 0.28593789547465226
v -0.24935583766360789 0.35469495215511615 0.28593520461530214
v -0.30664911739938155 0.30473211528442878 0.28590058381816502
v -0.43390833059874206 0.19130690633291778 0.28582367255781771
v -0.44836481903504272 0.17835243121037347 0.28581493515110745
v -0.47622483731260018 0.15320842345369062 0.28579809601138773
v -0.48123877384952063 0.13175905830699541 0.28579498933540626
v -0.48433261065605565 0.11579746039586027 0.28579306032859686
v -0.48432951401702734 0.11217404765277507 0.28579304551214219
v -0.48432022314404227 0.11175286459711764 0.2857930493357434
v -0.47729327958073553 0.10230411894173079 0.28579722566416277
v -0.46181170660219678 0.084248993264321864 0.28580643863127325
v -0.44187364516429289 0.061207804146897894 0.28581830517762208
v -0.35770517204018132 -0.03306286760108515 0.28586841155965137
v -0.34325797447686579 -0.048634252192496619 0.28587701514031938
v -0.32881077739150039 -0.063357076438636362 0.28588562254458855
v -0.32527098154938089 -0.066258903463312854 0.28588773460630573
v 0.046887581474403778 -0.3594022915608327 0.28610984282097279
v 0.049612883346213582 -0.35995354588238149 0.28611147645458884
v 0.092954475080259918 -0.36849489027145788 0.28613745878069702
v 0.19412201912565841 -0.38842366035842646 0.28619810539740609
v 0.34731186143305609 -0.41855063491609623 -0.28493653786531947
v 0.35412201923457726 -0.40465469167432933 -0.28493653786531947
v 0.40130380899554413 -0.16618457720468768 -0.28493653786531947
v 0.4052431095083226 -0.14620935275279351 -0.28493653786531947
v 0.48063177457452377 0.23659337234342626 -0.28493653786531947
v 0.48300712277962848 0.24872716021760433 -0.28493653786531947
v 0.50274698067966717 0.34983276574703559 -0.28493653786531947
v 0.50276865906466561 0.35060699910842641 -0.28493653786531947
v 0.50277794993765079 0.3510405696760972 -0.28493653786531947
v 0.50276246530865909 0.35195416517636446 -0.28493653786531947
v 0.47386807065997805 0.35766491192971672 -0.28493653786531947
v 0.40159801790228877 0.37192009923322367 -0.28493653786531947
v 0.31429235072369505 0.38911737369237576 -0.28493653786531947
v 0.2237163206297994 0.40691235683800209 -0.28493653786531947
v 0.16896872097394056 0.41758748816842084 -0.28493653786531947
v 0.15877361409816809 0.41776091668225923 -0.28493653786531947
v 0.15593991934546553 0.4177175594343121 -0.28493653786531947
v -0.24489934968219298 0.35809538538040919 -0.28493653786531947
v -0.24935583766360789 0.35469495215511615 -0.28493653786531947
v -0.30664911739938155 0.30473211528442878 -0.28493653786531947
v -0.43390833059874206 0.19130690633291778 -0.28493653786531947
v -0.44836481903504272 0.17835243121037347 -0.28493653786531947
v -0.47622483731260018 0.15320842345369062 -0.28493653786531947
v -0.48123877384952063 0.13175905830699541 -0.28493653786531947
v -0.48433261065605565 0.11579746039586027 -0.28493653786531947
v -0.48432951401702734 0.11217404765277507 -0.28493653786531947
v -0.48432022314404227 0.11175286459711764 -0.28493653786531947
v -0.47729327958073553 0.10230411894173079 -0.28493653786531947
v -0.46181170660219678 0.084248993264321864 -0.28493653786531947
v -0.44187364516429289 0.061207804146897894 -0.28493653786531947
v -0.35770517204018132 -0.03306286760108515 -0.28493653786531947
v -0.34325797447686579 -0.048634252192496619 -0.28493653786531947
v -0.32881077739150039 -0.063357076438636362 -0.28493653786531947
v -0.32527098154938089 -0.066258903463312854 -0.28493653786531947
v 0.046887581474403778 -0.3594022915608327 -0.28493653786531947
v 0.049612883346213582 -0.35995354588238149 -0.28493653786531947
v 0.092954475080259918 -0.36849489027145788 -0.28493653786531947
v 0.19412201912565841 -0.38842366035842646 -0.28493653786531947
l 1 2
l 2 3
l 3 4
l 4 5
l 5 6
l 6 7
l 7 8
l 8 9
l 9 10
l 10 11
l 11 12
l 12 13
l 13 14
l 14 15
l 15 16
l 16 17
l 17 18
l 18 19
l 19 20
l 20 21
l 21 22
l 22 23
l 23 24
l 24 25
l 25 26
l 26 27
l 27 28
l 28 29
l 29 30
l 30 31
l 31 32
l 32 33
l 33 34
l 34 35
l 35 36
l 36 37
l 37 38
l 1 38
l 1 39
l 39 40
l 2 40
l 40 41
l 41 42
l 42 43
l 43 44
l 44 45
l 45 46
l 46 47
l 47 48
l 10 48
l 48 49
l 49 50
l 50 51
l 51 52
l 52 53
l 15 53
l 53 54
l 54 55
l 55 56
l 18 56
l 56 57
l 57 58
l 58 59
l 59 60
l 60 61
l 23 61
l 61 62
l 62 63
l 25 63
l 63 64
l 64 65
l 27 65
l 65 66
l 66 67
l 67 68
l 68 69
l 69 70
l 70 71
l 71 72
l 72 73
l 35 73
l 73 74
l 74 75
l 75 76
l 39 76
