# Source coordinates; no display transform
v 2685528.25 1251232.875 434.231777807
v 2685534 1251239.75 434.231312135
v 2685542.75 1251250.25 434.230637018
v 2685546.25 1251254.5 434.230411038
v 2685547.75 1251256.375 434.230361414
v 2685547.75 1251256.5 434.230471572
v 2685546.75 1251257.5 434.23248764
v 2685544.5 1251259.375 434.236693281
v 2685543.75 1251259.875 434.237985004
v 2685543.25 1251260.125 434.238772697
v 2685542.75 1251259.625 434.238899417
v 2685541 1251257.625 434.239122572
v 2685523.5 1251236.625 434.240472791
v 2685522.75 1251235.625 434.240442518
v 2685521.75 1251234.125 434.240255276
v 2685523 1251232.75 434.237625033
v 2685525 1251231.125 434.233923409
v 2685525.5 1251230.75 434.233025532
v 2685526 1251230.625 434.232347997
v 2685526.25 1251230.625 434.232064322
v 2685528.25 1251232.875 431.39999389
v 2685534 1251239.75 431.39999389
v 2685542.75 1251250.25 431.39999389
v 2685546.25 1251254.5 431.39999389
v 2685547.75 1251256.375 431.39999389
v 2685547.75 1251256.5 431.39999389
v 2685546.75 1251257.5 431.39999389
v 2685544.5 1251259.375 431.39999389
v 2685543.75 1251259.875 431.39999389
v 2685543.25 1251260.125 431.39999389
v 2685542.75 1251259.625 431.39999389
v 2685541 1251257.625 431.39999389
v 2685523.5 1251236.625 431.39999389
v 2685522.75 1251235.625 431.39999389
v 2685521.75 1251234.125 431.39999389
v 2685523 1251232.75 431.39999389
v 2685525 1251231.125 431.39999389
v 2685525.5 1251230.75 431.39999389
v 2685526 1251230.625 431.39999389
v 2685526.25 1251230.625 431.39999389
g roof
f 1 2 3 4 5 6 7 8 9 10 11 12 13 14 15 16 17 18 19 20
g wall
f 2 1 21 22
g wall
f 3 2 22 23
g wall
f 4 3 23 24
g wall
f 5 4 24 25
g wall
f 6 5 25 26
g wall
f 7 6 26 27
g wall
f 8 7 27 28
g wall
f 9 8 28 29
g wall
f 10 9 29 30
g wall
f 11 10 30 31
g wall
f 12 11 31 32
g wall
f 13 12 32 33
g wall
f 14 13 33 34
g wall
f 15 14 34 35
g wall
f 16 15 35 36
g wall
f 17 16 36 37
g wall
f 18 17 37 38
g wall
f 19 18 38 39
g wall
f 20 19 39 40
g wall
f 1 20 40 21
g ground_assumed
f 40 39 38 37 36 35 34 33 32 31 30 29 28 27 26 25 24 23 22 21
