# XYZ-only planar convex-roof baseline. Provisional base; no GT.
v -4.94473336 -9.50910262 1.05496007
v -0.57054616 -4.27909618 1.05460582
v 6.08582568 3.70855002 1.05409224
v 8.74837441 6.94164492 1.05392033
v 9.88946673 8.36801031 1.05388258
v 9.88946673 8.46310134 1.05396638
v 9.12873852 9.22382955 1.05550006
v 7.41710005 10.65019494 1.05869941
v 6.84655389 11.03055904 1.05968206
v 6.46618978 11.22074110 1.06028128
v 6.08582568 10.84037699 1.06037768
v 4.75455131 9.31892057 1.06054744
v -8.55819236 -6.65637184 1.06157459
v -9.12873852 -7.41710005 1.06155156
v -9.88946673 -8.55819236 1.06140912
v -8.93855647 -9.60419365 1.05940822
v -7.41710005 -10.84037699 1.05659229
v -7.03673594 -11.12565007 1.05590925
v -6.65637184 -11.22074110 1.05539383
v -6.46618978 -11.22074110 1.05517803
v -4.94473336 -9.50910262 -1.09925784
v -0.57054616 -4.27909618 -1.09925784
v 6.08582568 3.70855002 -1.09925784
v 8.74837441 6.94164492 -1.09925784
v 9.88946673 8.36801031 -1.09925784
v 9.88946673 8.46310134 -1.09925784
v 9.12873852 9.22382955 -1.09925784
v 7.41710005 10.65019494 -1.09925784
v 6.84655389 11.03055904 -1.09925784
v 6.46618978 11.22074110 -1.09925784
v 6.08582568 10.84037699 -1.09925784
v 4.75455131 9.31892057 -1.09925784
v -8.55819236 -6.65637184 -1.09925784
v -9.12873852 -7.41710005 -1.09925784
v -9.88946673 -8.55819236 -1.09925784
v -8.93855647 -9.60419365 -1.09925784
v -7.41710005 -10.84037699 -1.09925784
v -7.03673594 -11.12565007 -1.09925784
v -6.65637184 -11.22074110 -1.09925784
v -6.46618978 -11.22074110 -1.09925784
g roof
f 1 2 3 4 5 6 7 8 9 10 11 12 13 14 15 16 17 18 19 20
g wall
f 2 1 21 22
g wall
f 3 2 22 23
g wall
f 4 3 23 24
g wall
f 5 4 24 25
g wall
f 6 5 25 26
g wall
f 7 6 26 27
g wall
f 8 7 27 28
g wall
f 9 8 28 29
g wall
f 10 9 29 30
g wall
f 11 10 30 31
g wall
f 12 11 31 32
g wall
f 13 12 32 33
g wall
f 14 13 33 34
g wall
f 15 14 34 35
g wall
f 16 15 35 36
g wall
f 17 16 36 37
g wall
f 18 17 37 38
g wall
f 19 18 38 39
g wall
f 20 19 39 40
g wall
f 1 20 40 21
g ground_assumed
f 40 39 38 37 36 35 34 33 32 31 30 29 28 27 26 25 24 23 22 21
