# Source coordinates; no display transform
v 0.381892479933 -0.363756023331 0.228795197152
v 0.161217931622 0.498502374388 0.222221340126
v -0.115178872291 0.427765180071 0.494791645886
v 0.112732639834 -0.432641088601 0.494228729207
v -0.383733413675 0.359035026921 0.229716587402
v -0.163058865899 -0.503223371333 0.222010470929
v 0.381892479933 -0.363756023331 -0.489377692682
v 0.161217931622 0.498502374388 -0.489377692682
v -0.115178872291 0.427765180071 -0.489377692682
v -0.383733413675 0.359035026921 -0.489377692682
v -0.163058865899 -0.503223371333 -0.489377692682
v 0.112732639834 -0.432641088601 -0.489377692682
g roof
f 1 2 3 4
g roof
f 3 5 6 4
g wall
f 2 1 7 8
g wall
f 3 2 8 9
g wall
f 1 4 12 7
g wall
f 5 3 9 10
g wall
f 6 5 10 11
g wall
f 4 6 11 12
g ground_assumed
f 12 11 10 9 8 7
