v 0.52410215314601705 0.17941299000995822 0.27914303918296379
v -0.33406285127184365 0.44898712014614184 0.27895739482841397
v -0.53014882185155954 -0.17523493609536459 0.27891499762559119
v 0.32801618256630116 -0.44480906623154826 0.27910064198014101
v 0.52410215314601705 0.17941299000995822 -0.36201274718227677
v -0.33406285127184365 0.44898712014614184 -0.36201274718227677
v -0.53014882185155954 -0.17523493609536459 -0.36201274718227677
v 0.32801618256630116 -0.44480906623154826 -0.36201274718227677
l 1 2
l 2 3
l 3 4
l 1 4
l 1 5
l 5 6
l 2 6
l 6 7
l 3 7
l 7 8
l 4 8
l 5 8
