# pointcloud_to_mesh 0.5.1; candidate requires geometry validation; coordinates preserved
v -1.867900252 -9.213429551 2.343504881
v -1.830181859 -9.331558180 2.343803447
v -1.004476124 -9.701277166 2.345832312
v 1.354092891 -9.003077552 2.348060013
v 2.215028251 -9.388570997 2.350175441
v 2.690141873 -8.327483910 2.348752327
v 3.442110868 -8.301520077 2.349862470
v 3.497497199 -7.516401561 2.348351461
v 3.821527468 -6.792733961 2.347380889
v 4.627062874 -7.153421456 2.349360192
v 5.972865320 -3.972346550 2.344972288
v 5.071680570 -3.568830991 2.342757963
v 6.267022197 -3.315396193 2.344091197
v 5.871809342 -6.276759315 2.349502399
v 6.075738494 -5.760632101 2.348768154
v 6.882769613 -3.958262601 2.346350843
v 7.235234774 -3.306164457 2.345569795
v 7.748109017 -2.160745315 2.344033576
v 7.491655549 -0.404932264 2.340066232
v 7.109724298 0.010854135 2.338629994
v 7.916755417 1.813223635 2.336212683
v 8.497582432 2.725736571 2.335255208
v 9.320428877 4.563426964 2.332790526
v 10.045054114 6.343747638 2.330290612
v 9.065834833 6.782204033 2.327884545
v 8.301556857 6.681767863 2.326906818
v 7.896630041 7.289183968 2.325045306
v 4.657022086 7.086719198 2.320446892
v 3.412268806 6.615019290 2.319481119
v 2.227241878 7.491640564 2.315865685
v 2.227256863 9.313950179 2.312159746
v 0.202466132 8.099029425 2.311499079
v -0.607417467 8.099107071 2.310246410
v -1.012386511 8.504062493 2.308796570
v -1.038321737 10.268416636 2.305168360
v -2.067921207 10.729431324 2.302638503
v -2.765634509 9.171204949 2.304728373
v -3.643165744 7.400293098 2.306972678
v -3.847040407 6.074332687 2.309353935
v -4.674615103 5.474783379 2.309293344
v -5.089981939 4.547130776 2.310537498
v -4.206320734 4.151461580 2.312708766
v -4.251990380 2.632167331 2.315727867
v -5.466815779 1.417351468 2.316319625
v -5.519737862 0.631129557 2.317836689
v -6.628894820 -1.845987649 2.321158961
v -6.681774674 -2.429748877 2.322264354
v -6.442914223 -2.760327316 2.323306044
v -7.325466585 -4.731360925 2.325949564
v -7.491610596 -5.264406860 2.326776652
v -7.086648363 -5.264400048 2.327402926
v -6.664106735 -5.879703383 2.329307719
v -6.340035600 -5.155944514 2.328337025
v -5.421236038 -5.567347303 2.330594632
v -5.512469078 -6.783667053 2.332927121
v -4.611284329 -7.187182612 2.335141447
v -4.710543544 -8.016205343 2.336673891
v -2.983653059 -8.789439889 2.340917081
v -3.029307721 -8.486424523 2.340230244
v -3.854922188 -8.116746403 2.338201604
v -3.847048580 -7.289207126 2.336530846
v -3.449980388 -6.901852894 2.336357177
v -2.397746341 -7.373002467 2.338942650
v -2.239050927 -7.315647734 2.339071437
v -1.000537958 -7.870205780 2.342114622
v -0.698752673 -9.315315119 2.345520206
v 1.103708095 -10.122387104 2.349949082
v 1.012419204 -10.731243071 2.351046108
v 1.822302803 -10.731320718 2.352298778
v 1.867943843 -10.224411618 2.351338481
v 0.984373905 -9.828783288 2.349167437
v 5.859542589 2.557632332 2.331517261
v 4.958357839 2.961147892 2.329302935
v 5.365837447 -2.911880634 2.341876871
v 2.662042085 6.950941702 2.317637716
v 5.524767162 4.226128713 2.327606362
v 6.334656210 3.618719420 2.330094147
v 7.112230775 4.565413074 2.329371437
v 6.248739899 4.952050780 2.327249729
v 7.519710383 5.475450864 2.328150908
v 5.871865193 4.252044869 2.328090456
v 6.656219506 5.862088570 2.326029201
v -6.651827722 -7.019985609 2.331645658
v -5.901692270 -7.355867155 2.333488836
v -6.727355777 -6.783687486 2.331048301
v -7.896643664 -6.479259502 2.328620855
v -7.896559206 -6.074338136 2.327797513
v -8.706532712 -5.871850209 2.326133070
v -9.921329504 -6.074280923 2.324666023
v -9.921364921 -6.681703839 2.325901261
v -9.516367271 -6.074274112 2.325292297
v -1.004476124 -9.701277166 0.899608074
v -1.867900252 -9.213429551 0.899608074
v -1.830181859 -9.331558180 0.899608074
v -2.983653059 -8.789439889 0.899608074
v -3.029307721 -8.486424523 0.899608074
v -3.854922188 -8.116746403 0.899608074
v -3.847048580 -7.289207126 0.899608074
v -3.449980388 -6.901852894 0.899608074
v -2.397746341 -7.373002467 0.899608074
v -2.239050927 -7.315647734 0.899608074
v -1.000537958 -7.870205780 0.899608074
v -0.698752673 -9.315315119 0.899608074
v 1.103708095 -10.122387104 0.899608074
v 1.012419204 -10.731243071 0.899608074
v 1.822302803 -10.731320718 0.899608074
v 1.867943843 -10.224411618 0.899608074
v 0.984373905 -9.828783288 0.899608074
v 1.354092891 -9.003077552 0.899608074
v 2.215028251 -9.388570997 0.899608074
v 2.690141873 -8.327483910 0.899608074
v 3.442110868 -8.301520077 0.899608074
v 3.497497199 -7.516401561 0.899608074
v 3.821527468 -6.792733961 0.899608074
v 4.627062874 -7.153421456 0.899608074
v 5.871809342 -6.276759315 0.899608074
v 6.075738494 -5.760632101 0.899608074
v 6.882769613 -3.958262601 0.899608074
v 7.235234774 -3.306164457 0.899608074
v 7.748109017 -2.160745315 0.899608074
v 7.491655549 -0.404932264 0.899608074
v 7.109724298 0.010854135 0.899608074
v 7.916755417 1.813223635 0.899608074
v 8.497582432 2.725736571 0.899608074
v 9.320428877 4.563426964 0.899608074
v 10.045054114 6.343747638 0.899608074
v 9.065834833 6.782204033 0.899608074
v 8.301556857 6.681767863 0.899608074
v 7.896630041 7.289183968 0.899608074
v 4.657022086 7.086719198 0.899608074
v 3.412268806 6.615019290 0.899608074
v 2.662042085 6.950941702 0.899608074
v 2.227241878 7.491640564 0.899608074
v 2.227256863 9.313950179 0.899608074
v 0.202466132 8.099029425 0.899608074
v -0.607417467 8.099107071 0.899608074
v -1.012386511 8.504062493 0.899608074
v -1.038321737 10.268416636 0.899608074
v -2.067921207 10.729431324 0.899608074
v -2.765634509 9.171204949 0.899608074
v -3.643165744 7.400293098 0.899608074
v -3.847040407 6.074332687 0.899608074
v -4.674615103 5.474783379 0.899608074
v -5.089981939 4.547130776 0.899608074
v -4.206320734 4.151461580 0.899608074
v -4.251990380 2.632167331 0.899608074
v -5.466815779 1.417351468 0.899608074
v -5.519737862 0.631129557 0.899608074
v -6.628894820 -1.845987649 0.899608074
v -6.681774674 -2.429748877 0.899608074
v -6.442914223 -2.760327316 0.899608074
v -7.325466585 -4.731360925 0.899608074
v -7.491610596 -5.264406860 0.899608074
v -7.086648363 -5.264400048 0.899608074
v -6.664106735 -5.879703383 0.899608074
v -6.340035600 -5.155944514 0.899608074
v -5.421236038 -5.567347303 0.899608074
v -5.512469078 -6.783667053 0.899608074
v -4.611284329 -7.187182612 0.899608074
v -4.710543544 -8.016205343 0.899608074
v 7.519710383 5.475450864 0.899608074
v 7.112230775 4.565413074 0.899608074
v 6.248739899 4.952050780 0.899608074
v 6.656219506 5.862088570 0.899608074
v 5.524767162 4.226128713 0.899608074
v 5.871865193 4.252044869 0.899608074
v 6.334656210 3.618719420 0.899608074
v 5.859542589 2.557632332 0.899608074
v 4.958357839 2.961147892 0.899608074
v 5.071680570 -3.568830991 0.899608074
v 5.365837447 -2.911880634 0.899608074
v 6.267022197 -3.315396193 0.899608074
v 5.972865320 -3.972346550 0.899608074
v -6.727355777 -6.783687486 0.899608074
v -6.651827722 -7.019985609 0.899608074
v -5.901692270 -7.355867155 0.899608074
v -8.706532712 -5.871850209 0.899608074
v -9.921329504 -6.074280923 0.899608074
v -9.921364921 -6.681703839 0.899608074
v -9.516367271 -6.074274112 0.899608074
v -7.896643664 -6.479259502 0.899608074
v -7.896559206 -6.074338136 0.899608074
g roof
f 1 2 3
g roof
f 4 5 6
g roof
f 6 7 8
g roof
f 6 8 9
g roof
f 9 10 11
g roof
f 9 11 12
g roof
f 13 11 10
g roof
f 13 10 14
g roof
f 13 14 15
g roof
f 13 15 16
g roof
f 13 16 17
g roof
f 13 17 18
g roof
f 13 18 19
g roof
f 13 19 20
g roof
f 21 22 23
g roof
f 21 23 24
g roof
f 21 24 25
g roof
f 21 25 26
g roof
f 21 26 27
g roof
f 27 28 29
g roof
f 30 31 32
g roof
f 30 32 33
g roof
f 34 35 36
g roof
f 34 36 37
g roof
f 34 37 38
g roof
f 34 38 39
g roof
f 39 40 41
g roof
f 39 41 42
g roof
f 39 42 43
g roof
f 43 44 45
g roof
f 43 45 46
g roof
f 43 46 47
g roof
f 43 47 48
g roof
f 48 49 50
g roof
f 48 50 51
g roof
f 48 51 52
g roof
f 48 52 53
g roof
f 48 53 54
g roof
f 54 55 56
g roof
f 57 58 59
g roof
f 57 59 60
g roof
f 57 60 61
g roof
f 57 61 62
g roof
f 62 63 64
g roof
f 65 66 67
g roof
f 67 68 69
g roof
f 67 69 70
g roof
f 67 70 71
g roof
f 71 72 73
g roof
f 4 6 9
g roof
f 4 9 12
g roof
f 4 12 74
g roof
f 74 13 20
g roof
f 74 20 21
g roof
f 75 30 33
g roof
f 33 34 39
g roof
f 33 39 43
g roof
f 33 43 48
g roof
f 33 48 54
g roof
f 33 54 56
g roof
f 33 56 57
g roof
f 33 57 62
g roof
f 33 62 64
g roof
f 33 64 65
g roof
f 65 67 71
g roof
f 65 71 73
g roof
f 65 73 76
g roof
f 77 72 71
g roof
f 77 71 78
g roof
f 77 78 79
g roof
f 80 78 71
g roof
f 80 71 4
g roof
f 80 4 74
g roof
f 80 74 21
g roof
f 80 21 27
g roof
f 29 75 33
g roof
f 29 33 65
g roof
f 29 65 76
g roof
f 29 76 81
g roof
f 81 77 79
g roof
f 81 79 82
g roof
f 82 80 27
g roof
f 82 27 29
g roof
f 82 29 81
g roof
f 83 84 85
g roof
f 86 87 88
g roof
f 89 90 91
g roof
f 91 86 88
g roof
f 91 88 89
g facade_completed
f 1 3 92 93
g facade_completed
f 2 1 93 94
g facade_completed
f 3 2 94 92
g facade_completed
f 59 58 95 96
g facade_completed
f 60 59 96 97
g facade_completed
f 61 60 97 98
g facade_completed
f 62 61 98 99
g facade_completed
f 63 62 99 100
g facade_completed
f 64 63 100 101
g facade_completed
f 65 64 101 102
g facade_completed
f 66 65 102 103
g facade_completed
f 67 66 103 104
g facade_completed
f 68 67 104 105
g facade_completed
f 69 68 105 106
g facade_completed
f 70 69 106 107
g facade_completed
f 71 70 107 108
g facade_completed
f 4 71 108 109
g facade_completed
f 5 4 109 110
g facade_completed
f 6 5 110 111
g facade_completed
f 7 6 111 112
g facade_completed
f 8 7 112 113
g facade_completed
f 9 8 113 114
g facade_completed
f 10 9 114 115
g facade_completed
f 14 10 115 116
g facade_completed
f 15 14 116 117
g facade_completed
f 16 15 117 118
g facade_completed
f 17 16 118 119
g facade_completed
f 18 17 119 120
g facade_completed
f 19 18 120 121
g facade_completed
f 20 19 121 122
g facade_completed
f 21 20 122 123
g facade_completed
f 22 21 123 124
g facade_completed
f 23 22 124 125
g facade_completed
f 24 23 125 126
g facade_completed
f 25 24 126 127
g facade_completed
f 26 25 127 128
g facade_completed
f 27 26 128 129
g facade_completed
f 28 27 129 130
g facade_completed
f 29 28 130 131
g facade_completed
f 75 29 131 132
g facade_completed
f 30 75 132 133
g facade_completed
f 31 30 133 134
g facade_completed
f 32 31 134 135
g facade_completed
f 33 32 135 136
g facade_completed
f 34 33 136 137
g facade_completed
f 35 34 137 138
g facade_completed
f 36 35 138 139
g facade_completed
f 37 36 139 140
g facade_completed
f 38 37 140 141
g facade_completed
f 39 38 141 142
g facade_completed
f 40 39 142 143
g facade_completed
f 41 40 143 144
g facade_completed
f 42 41 144 145
g facade_completed
f 43 42 145 146
g facade_completed
f 44 43 146 147
g facade_completed
f 45 44 147 148
g facade_completed
f 46 45 148 149
g facade_completed
f 47 46 149 150
g facade_completed
f 48 47 150 151
g facade_completed
f 49 48 151 152
g facade_completed
f 50 49 152 153
g facade_completed
f 51 50 153 154
g facade_completed
f 52 51 154 155
g facade_completed
f 53 52 155 156
g facade_completed
f 54 53 156 157
g facade_completed
f 55 54 157 158
g facade_completed
f 56 55 158 159
g facade_completed
f 57 56 159 160
g facade_completed
f 58 57 160 95
g facade_completed
f 78 80 161 162
g facade_completed
f 79 78 162 163
g facade_completed
f 82 79 163 164
g facade_completed
f 80 82 164 161
g facade_completed
f 81 76 165 166
g facade_completed
f 77 81 166 167
g facade_completed
f 72 77 167 168
g facade_completed
f 73 72 168 169
g facade_completed
f 76 73 169 165
g facade_completed
f 74 12 170 171
g facade_completed
f 13 74 171 172
g facade_completed
f 11 13 172 173
g facade_completed
f 12 11 173 170
g facade_completed
f 83 85 174 175
g facade_completed
f 84 83 175 176
g facade_completed
f 85 84 176 174
g facade_completed
f 89 88 177 178
g facade_completed
f 90 89 178 179
g facade_completed
f 91 90 179 180
g facade_completed
f 86 91 180 181
g facade_completed
f 87 86 181 182
g facade_completed
f 88 87 182 177
g ground_assumed
f 94 93 92
g ground_assumed
f 109 111 110
g ground_assumed
f 111 113 112
g ground_assumed
f 111 114 113
g ground_assumed
f 114 173 115
g ground_assumed
f 114 170 173
g ground_assumed
f 172 115 173
g ground_assumed
f 172 116 115
g ground_assumed
f 172 117 116
g ground_assumed
f 172 118 117
g ground_assumed
f 172 119 118
g ground_assumed
f 172 120 119
g ground_assumed
f 172 121 120
g ground_assumed
f 172 122 121
g ground_assumed
f 123 125 124
g ground_assumed
f 123 126 125
g ground_assumed
f 123 127 126
g ground_assumed
f 123 128 127
g ground_assumed
f 123 129 128
g ground_assumed
f 129 131 130
g ground_assumed
f 133 135 134
g ground_assumed
f 133 136 135
g ground_assumed
f 137 139 138
g ground_assumed
f 137 140 139
g ground_assumed
f 137 141 140
g ground_assumed
f 137 142 141
g ground_assumed
f 142 144 143
g ground_assumed
f 142 145 144
g ground_assumed
f 142 146 145
g ground_assumed
f 146 148 147
g ground_assumed
f 146 149 148
g ground_assumed
f 146 150 149
g ground_assumed
f 146 151 150
g ground_assumed
f 151 153 152
g ground_assumed
f 151 154 153
g ground_assumed
f 151 155 154
g ground_assumed
f 151 156 155
g ground_assumed
f 151 157 156
g ground_assumed
f 157 159 158
g ground_assumed
f 160 96 95
g ground_assumed
f 160 97 96
g ground_assumed
f 160 98 97
g ground_assumed
f 160 99 98
g ground_assumed
f 99 101 100
g ground_assumed
f 102 104 103
g ground_assumed
f 104 106 105
g ground_assumed
f 104 107 106
g ground_assumed
f 104 108 107
g ground_assumed
f 108 169 168
g ground_assumed
f 109 114 111
g ground_assumed
f 109 170 114
g ground_assumed
f 109 171 170
g ground_assumed
f 171 122 172
g ground_assumed
f 171 123 122
g ground_assumed
f 132 136 133
g ground_assumed
f 136 142 137
g ground_assumed
f 136 146 142
g ground_assumed
f 136 151 146
g ground_assumed
f 136 157 151
g ground_assumed
f 136 159 157
g ground_assumed
f 136 160 159
g ground_assumed
f 136 99 160
g ground_assumed
f 136 101 99
g ground_assumed
f 136 102 101
g ground_assumed
f 102 108 104
g ground_assumed
f 102 169 108
g ground_assumed
f 102 165 169
g ground_assumed
f 167 108 168
g ground_assumed
f 167 162 108
g ground_assumed
f 167 163 162
g ground_assumed
f 161 108 162
g ground_assumed
f 161 109 108
g ground_assumed
f 161 171 109
g ground_assumed
f 161 123 171
g ground_assumed
f 161 129 123
g ground_assumed
f 131 136 132
g ground_assumed
f 131 102 136
g ground_assumed
f 131 165 102
g ground_assumed
f 131 166 165
g ground_assumed
f 166 163 167
g ground_assumed
f 166 164 163
g ground_assumed
f 164 129 161
g ground_assumed
f 164 131 129
g ground_assumed
f 164 166 131
g ground_assumed
f 176 175 174
g ground_assumed
f 178 180 179
g ground_assumed
f 180 182 181
g ground_assumed
f 180 177 182
g ground_assumed
f 180 178 177
