# Source coordinates; no display transform
v 2685720.47184 1251354.06205 433.03178019
v 2685720.49513 1251353.98912 433.031964511
v 2685721.00488 1251353.76087 433.03321704
v 2685722.46096 1251354.19191 433.034592322
v 2685722.99246 1251353.95392 433.035898291
v 2685723.28577 1251354.60899 433.035019725
v 2685723.75 1251354.62502 433.035705077
v 2685723.7842 1251355.10972 433.034772249
v 2685723.98424 1251355.55647 433.034173062
v 2685724.48154 1251355.3338 433.035394993
v 2685725.31238 1251357.29765 433.032686101
v 2685724.75603 1251357.54677 433.031319077
v 2685725.49397 1251357.70322 433.032142155
v 2685725.24999 1251355.87501 433.035482785
v 2685725.37588 1251356.19365 433.035029496
v 2685725.87411 1251357.30635 433.033537158
v 2685726.09171 1251357.70892 433.033054974
v 2685726.40833 1251358.41605 433.032106583
v 2685726.25001 1251359.50001 433.029657325
v 2685726.01422 1251359.7567 433.028770656
v 2685726.51245 1251360.8694 433.027278318
v 2685726.87102 1251361.43275 433.026687217
v 2685727.37901 1251362.56725 433.025165634
v 2685727.82636 1251363.66634 433.023622301
v 2685727.22183 1251363.93702 433.022136904
v 2685726.75 1251363.87502 433.0215333
v 2685726.50002 1251364.25001 433.020384087
v 2685724.50003 1251364.12502 433.017545235
v 2685723.73158 1251363.83381 433.016949011
v 2685723 1251364.375 433.014717006
v 2685723.00001 1251365.50001 433.012429128
v 2685721.74999 1251364.74997 433.012021262
v 2685721.25001 1251364.75002 433.011247921
v 2685721 1251365.00002 433.010352855
v 2685720.98399 1251366.08925 433.008112963
v 2685720.34836 1251366.37386 433.006551145
v 2685719.91762 1251365.41189 433.007841335
v 2685719.37587 1251364.3186 433.009226867
v 2685719.25001 1251363.50002 433.010696947
v 2685718.7391 1251363.12988 433.010659541
v 2685718.48268 1251362.55719 433.011427625
v 2685719.02821 1251362.31292 433.012768068
v 2685719.00001 1251361.37498 433.014631923
v 2685718.25004 1251360.62501 433.014997248
v 2685718.21736 1251360.13963 433.015933814
v 2685717.53262 1251358.61037 433.017984834
v 2685717.49998 1251358.24998 433.018667254
v 2685717.64744 1251358.0459 433.019310346
v 2685717.10259 1251356.82907 433.020942335
v 2685717.00002 1251356.49999 433.021452941
v 2685717.25003 1251356.5 433.021839575
v 2685717.51088 1251356.12014 433.023015507
v 2685717.71095 1251356.56695 433.022416245
v 2685718.27818 1251356.31297 433.023809989
v 2685718.22185 1251355.56207 433.025249962
v 2685718.7782 1251355.31296 433.026616986
v 2685718.71692 1251354.80116 433.027563047
v 2685719.78303 1251354.3238 433.0301826
v 2685719.75484 1251354.51087 433.029758578
v 2685719.24515 1251354.73909 433.028506188
v 2685719.25001 1251355.24997 433.027474738
v 2685719.49514 1251355.48911 433.027367522
v 2685720.14474 1251355.19824 433.028963676
v 2685720.24271 1251355.23365 433.029043183
v 2685721.00731 1251354.89129 433.030921907
v 2685721.19362 1251353.99915 433.03302436
v 2685722.30638 1251353.5009 433.035758547
v 2685722.25002 1251353.12502 433.036435801
v 2685722.75001 1251353.12497 433.037209143
v 2685722.77818 1251353.43791 433.036616299
v 2685722.23271 1251353.68216 433.035275995
v 2685725.24242 1251361.32897 433.024379578
v 2685724.68606 1251361.57808 433.023012554
v 2685724.93762 1251357.95234 433.030775131
v 2685723.26842 1251364.0412 433.015810977
v 2685725.03574 1251362.35902 433.021965167
v 2685725.53573 1251361.98403 433.023501012
v 2685726.01577 1251362.56848 433.023054844
v 2685725.48269 1251362.80717 433.021744998
v 2685726.26733 1251363.13029 433.022301345
v 2685725.25002 1251362.37502 433.022264024
v 2685725.73425 1251363.36899 433.020991499
v 2685717.51846 1251355.41618 433.024458845
v 2685717.98156 1251355.20882 433.025596739
v 2685717.47184 1251355.56206 433.024090063
v 2685716.74997 1251355.75 433.022591469
v 2685716.75002 1251355.99998 433.022083175
v 2685716.24998 1251356.12499 433.021055623
v 2685715.50002 1251356.00001 433.020149935
v 2685715.5 1251355.62502 433.020912515
v 2685715.75003 1251356.00002 433.020536568
v 2685721.00488 1251353.76087 432.14038388
v 2685720.47184 1251354.06205 432.14038388
v 2685720.49513 1251353.98912 432.14038388
v 2685719.78303 1251354.3238 432.14038388
v 2685719.75484 1251354.51087 432.14038388
v 2685719.24515 1251354.73909 432.14038388
v 2685719.25001 1251355.24997 432.14038388
v 2685719.49514 1251355.48911 432.14038388
v 2685720.14474 1251355.19824 432.14038388
v 2685720.24271 1251355.23365 432.14038388
v 2685721.00731 1251354.89129 432.14038388
v 2685721.19362 1251353.99915 432.14038388
v 2685722.30638 1251353.5009 432.14038388
v 2685722.25002 1251353.12502 432.14038388
v 2685722.75001 1251353.12497 432.14038388
v 2685722.77818 1251353.43791 432.14038388
v 2685722.23271 1251353.68216 432.14038388
v 2685722.46096 1251354.19191 432.14038388
v 2685722.99246 1251353.95392 432.14038388
v 2685723.28577 1251354.60899 432.14038388
v 2685723.75 1251354.62502 432.14038388
v 2685723.7842 1251355.10972 432.14038388
v 2685723.98424 1251355.55647 432.14038388
v 2685724.48154 1251355.3338 432.14038388
v 2685725.24999 1251355.87501 432.14038388
v 2685725.37588 1251356.19365 432.14038388
v 2685725.87411 1251357.30635 432.14038388
v 2685726.09171 1251357.70892 432.14038388
v 2685726.40833 1251358.41605 432.14038388
v 2685726.25001 1251359.50001 432.14038388
v 2685726.01422 1251359.7567 432.14038388
v 2685726.51245 1251360.8694 432.14038388
v 2685726.87102 1251361.43275 432.14038388
v 2685727.37901 1251362.56725 432.14038388
v 2685727.82636 1251363.66634 432.14038388
v 2685727.22183 1251363.93702 432.14038388
v 2685726.75 1251363.87502 432.14038388
v 2685726.50002 1251364.25001 432.14038388
v 2685724.50003 1251364.12502 432.14038388
v 2685723.73158 1251363.83381 432.14038388
v 2685723.26842 1251364.0412 432.14038388
v 2685723 1251364.375 432.14038388
v 2685723.00001 1251365.50001 432.14038388
v 2685721.74999 1251364.74997 432.14038388
v 2685721.25001 1251364.75002 432.14038388
v 2685721 1251365.00002 432.14038388
v 2685720.98399 1251366.08925 432.14038388
v 2685720.34836 1251366.37386 432.14038388
v 2685719.91762 1251365.41189 432.14038388
v 2685719.37587 1251364.3186 432.14038388
v 2685719.25001 1251363.50002 432.14038388
v 2685718.7391 1251363.12988 432.14038388
v 2685718.48268 1251362.55719 432.14038388
v 2685719.02821 1251362.31292 432.14038388
v 2685719.00001 1251361.37498 432.14038388
v 2685718.25004 1251360.62501 432.14038388
v 2685718.21736 1251360.13963 432.14038388
v 2685717.53262 1251358.61037 432.14038388
v 2685717.49998 1251358.24998 432.14038388
v 2685717.64744 1251358.0459 432.14038388
v 2685717.10259 1251356.82907 432.14038388
v 2685717.00002 1251356.49999 432.14038388
v 2685717.25003 1251356.5 432.14038388
v 2685717.51088 1251356.12014 432.14038388
v 2685717.71095 1251356.56695 432.14038388
v 2685718.27818 1251356.31297 432.14038388
v 2685718.22185 1251355.56207 432.14038388
v 2685718.7782 1251355.31296 432.14038388
v 2685718.71692 1251354.80116 432.14038388
v 2685726.26733 1251363.13029 432.14038388
v 2685726.01577 1251362.56848 432.14038388
v 2685725.48269 1251362.80717 432.14038388
v 2685725.73425 1251363.36899 432.14038388
v 2685725.03574 1251362.35902 432.14038388
v 2685725.25002 1251362.37502 432.14038388
v 2685725.53573 1251361.98403 432.14038388
v 2685725.24242 1251361.32897 432.14038388
v 2685724.68606 1251361.57808 432.14038388
v 2685724.75603 1251357.54677 432.14038388
v 2685724.93762 1251357.95234 432.14038388
v 2685725.49397 1251357.70322 432.14038388
v 2685725.31238 1251357.29765 432.14038388
v 2685717.47184 1251355.56206 432.14038388
v 2685717.51846 1251355.41618 432.14038388
v 2685717.98156 1251355.20882 432.14038388
v 2685716.24998 1251356.12499 432.14038388
v 2685715.50002 1251356.00001 432.14038388
v 2685715.5 1251355.62502 432.14038388
v 2685715.75003 1251356.00002 432.14038388
v 2685716.74997 1251355.75 432.14038388
v 2685716.75002 1251355.99998 432.14038388
g roof
f 1 2 3
g roof
f 4 5 6
g roof
f 6 7 8
g roof
f 6 8 9
g roof
f 9 10 11
g roof
f 9 11 12
g roof
f 13 11 10
g roof
f 13 10 14
g roof
f 13 14 15
g roof
f 13 15 16
g roof
f 13 16 17
g roof
f 13 17 18
g roof
f 13 18 19
g roof
f 13 19 20
g roof
f 21 22 23
g roof
f 21 23 24
g roof
f 21 24 25
g roof
f 21 25 26
g roof
f 21 26 27
g roof
f 27 28 29
g roof
f 30 31 32
g roof
f 30 32 33
g roof
f 34 35 36
g roof
f 34 36 37
g roof
f 34 37 38
g roof
f 34 38 39
g roof
f 39 40 41
g roof
f 39 41 42
g roof
f 39 42 43
g roof
f 43 44 45
g roof
f 43 45 46
g roof
f 43 46 47
g roof
f 43 47 48
g roof
f 48 49 50
g roof
f 48 50 51
g roof
f 48 51 52
g roof
f 48 52 53
g roof
f 48 53 54
g roof
f 54 55 56
g roof
f 57 58 59
g roof
f 57 59 60
g roof
f 57 60 61
g roof
f 57 61 62
g roof
f 62 63 64
g roof
f 65 66 67
g roof
f 67 68 69
g roof
f 67 69 70
g roof
f 67 70 71
g roof
f 71 72 73
g roof
f 4 6 9
g roof
f 4 9 12
g roof
f 4 12 74
g roof
f 74 13 20
g roof
f 74 20 21
g roof
f 75 30 33
g roof
f 33 34 39
g roof
f 33 39 43
g roof
f 33 43 48
g roof
f 33 48 54
g roof
f 33 54 56
g roof
f 33 56 57
g roof
f 33 57 62
g roof
f 33 62 64
g roof
f 33 64 65
g roof
f 65 67 71
g roof
f 65 71 73
g roof
f 65 73 76
g roof
f 77 72 71
g roof
f 77 71 78
g roof
f 77 78 79
g roof
f 80 78 71
g roof
f 80 71 4
g roof
f 80 4 74
g roof
f 80 74 21
g roof
f 80 21 27
g roof
f 29 75 33
g roof
f 29 33 65
g roof
f 29 65 76
g roof
f 29 76 81
g roof
f 81 77 79
g roof
f 81 79 82
g roof
f 82 80 27
g roof
f 82 27 29
g roof
f 82 29 81
g roof
f 83 84 85
g roof
f 86 87 88
g roof
f 89 90 91
g roof
f 91 86 88
g roof
f 91 88 89
g facade_completed
f 1 3 92 93
g facade_completed
f 2 1 93 94
g facade_completed
f 3 2 94 92
g facade_completed
f 59 58 95 96
g facade_completed
f 60 59 96 97
g facade_completed
f 61 60 97 98
g facade_completed
f 62 61 98 99
g facade_completed
f 63 62 99 100
g facade_completed
f 64 63 100 101
g facade_completed
f 65 64 101 102
g facade_completed
f 66 65 102 103
g facade_completed
f 67 66 103 104
g facade_completed
f 68 67 104 105
g facade_completed
f 69 68 105 106
g facade_completed
f 70 69 106 107
g facade_completed
f 71 70 107 108
g facade_completed
f 4 71 108 109
g facade_completed
f 5 4 109 110
g facade_completed
f 6 5 110 111
g facade_completed
f 7 6 111 112
g facade_completed
f 8 7 112 113
g facade_completed
f 9 8 113 114
g facade_completed
f 10 9 114 115
g facade_completed
f 14 10 115 116
g facade_completed
f 15 14 116 117
g facade_completed
f 16 15 117 118
g facade_completed
f 17 16 118 119
g facade_completed
f 18 17 119 120
g facade_completed
f 19 18 120 121
g facade_completed
f 20 19 121 122
g facade_completed
f 21 20 122 123
g facade_completed
f 22 21 123 124
g facade_completed
f 23 22 124 125
g facade_completed
f 24 23 125 126
g facade_completed
f 25 24 126 127
g facade_completed
f 26 25 127 128
g facade_completed
f 27 26 128 129
g facade_completed
f 28 27 129 130
g facade_completed
f 29 28 130 131
g facade_completed
f 75 29 131 132
g facade_completed
f 30 75 132 133
g facade_completed
f 31 30 133 134
g facade_completed
f 32 31 134 135
g facade_completed
f 33 32 135 136
g facade_completed
f 34 33 136 137
g facade_completed
f 35 34 137 138
g facade_completed
f 36 35 138 139
g facade_completed
f 37 36 139 140
g facade_completed
f 38 37 140 141
g facade_completed
f 39 38 141 142
g facade_completed
f 40 39 142 143
g facade_completed
f 41 40 143 144
g facade_completed
f 42 41 144 145
g facade_completed
f 43 42 145 146
g facade_completed
f 44 43 146 147
g facade_completed
f 45 44 147 148
g facade_completed
f 46 45 148 149
g facade_completed
f 47 46 149 150
g facade_completed
f 48 47 150 151
g facade_completed
f 49 48 151 152
g facade_completed
f 50 49 152 153
g facade_completed
f 51 50 153 154
g facade_completed
f 52 51 154 155
g facade_completed
f 53 52 155 156
g facade_completed
f 54 53 156 157
g facade_completed
f 55 54 157 158
g facade_completed
f 56 55 158 159
g facade_completed
f 57 56 159 160
g facade_completed
f 58 57 160 95
g facade_completed
f 78 80 161 162
g facade_completed
f 79 78 162 163
g facade_completed
f 82 79 163 164
g facade_completed
f 80 82 164 161
g facade_completed
f 81 76 165 166
g facade_completed
f 77 81 166 167
g facade_completed
f 72 77 167 168
g facade_completed
f 73 72 168 169
g facade_completed
f 76 73 169 165
g facade_completed
f 74 12 170 171
g facade_completed
f 13 74 171 172
g facade_completed
f 11 13 172 173
g facade_completed
f 12 11 173 170
g facade_completed
f 83 85 174 175
g facade_completed
f 84 83 175 176
g facade_completed
f 85 84 176 174
g facade_completed
f 89 88 177 178
g facade_completed
f 90 89 178 179
g facade_completed
f 91 90 179 180
g facade_completed
f 86 91 180 181
g facade_completed
f 87 86 181 182
g facade_completed
f 88 87 182 177
g ground_assumed
f 94 93 92
g ground_assumed
f 109 111 110
g ground_assumed
f 111 113 112
g ground_assumed
f 111 114 113
g ground_assumed
f 114 173 115
g ground_assumed
f 114 170 173
g ground_assumed
f 172 115 173
g ground_assumed
f 172 116 115
g ground_assumed
f 172 117 116
g ground_assumed
f 172 118 117
g ground_assumed
f 172 119 118
g ground_assumed
f 172 120 119
g ground_assumed
f 172 121 120
g ground_assumed
f 172 122 121
g ground_assumed
f 123 125 124
g ground_assumed
f 123 126 125
g ground_assumed
f 123 127 126
g ground_assumed
f 123 128 127
g ground_assumed
f 123 129 128
g ground_assumed
f 129 131 130
g ground_assumed
f 133 135 134
g ground_assumed
f 133 136 135
g ground_assumed
f 137 139 138
g ground_assumed
f 137 140 139
g ground_assumed
f 137 141 140
g ground_assumed
f 137 142 141
g ground_assumed
f 142 144 143
g ground_assumed
f 142 145 144
g ground_assumed
f 142 146 145
g ground_assumed
f 146 148 147
g ground_assumed
f 146 149 148
g ground_assumed
f 146 150 149
g ground_assumed
f 146 151 150
g ground_assumed
f 151 153 152
g ground_assumed
f 151 154 153
g ground_assumed
f 151 155 154
g ground_assumed
f 151 156 155
g ground_assumed
f 151 157 156
g ground_assumed
f 157 159 158
g ground_assumed
f 160 96 95
g ground_assumed
f 160 97 96
g ground_assumed
f 160 98 97
g ground_assumed
f 160 99 98
g ground_assumed
f 99 101 100
g ground_assumed
f 102 104 103
g ground_assumed
f 104 106 105
g ground_assumed
f 104 107 106
g ground_assumed
f 104 108 107
g ground_assumed
f 108 169 168
g ground_assumed
f 109 114 111
g ground_assumed
f 109 170 114
g ground_assumed
f 109 171 170
g ground_assumed
f 171 122 172
g ground_assumed
f 171 123 122
g ground_assumed
f 132 136 133
g ground_assumed
f 136 142 137
g ground_assumed
f 136 146 142
g ground_assumed
f 136 151 146
g ground_assumed
f 136 157 151
g ground_assumed
f 136 159 157
g ground_assumed
f 136 160 159
g ground_assumed
f 136 99 160
g ground_assumed
f 136 101 99
g ground_assumed
f 136 102 101
g ground_assumed
f 102 108 104
g ground_assumed
f 102 169 108
g ground_assumed
f 102 165 169
g ground_assumed
f 167 108 168
g ground_assumed
f 167 162 108
g ground_assumed
f 167 163 162
g ground_assumed
f 161 108 162
g ground_assumed
f 161 109 108
g ground_assumed
f 161 171 109
g ground_assumed
f 161 123 171
g ground_assumed
f 161 129 123
g ground_assumed
f 131 136 132
g ground_assumed
f 131 102 136
g ground_assumed
f 131 165 102
g ground_assumed
f 131 166 165
g ground_assumed
f 166 163 167
g ground_assumed
f 166 164 163
g ground_assumed
f 164 129 161
g ground_assumed
f 164 131 129
g ground_assumed
f 164 166 131
g ground_assumed
f 176 175 174
g ground_assumed
f 178 180 179
g ground_assumed
f 180 182 181
g ground_assumed
f 180 177 182
g ground_assumed
f 180 178 177
