v -0.031574894582399572 0.0052221107259685763 0.25033507359742357
v 0.18594285848959399 0.0075049269809278323 0.25107447279564621
v 0.18525740784724171 0.037731686453008624 0.24221852002490227
v 0.49651042089311687 0.041644879180347191 0.24308718982287716
v 0.48837845302264926 0.40024549552880789 0.13802299595082956
v 0.4890601836202349 0.13615000012220083 0.21536436365548325
v 0.48952185875001775 0.11579121430628031 0.22132915939590311
v 0.4490879673555937 0.086950380602117114 0.22951311508906422
v 0.4155040474486999 0.11583612324824874 0.2208369251134944
v 0.35765117376828282 0.05329838935643464 0.23877583774018724
v 0.34170189621568459 0.064103441991941013 0.23550848527636686
v 0.35761974657216827 0.10444745456142311 0.22379729115818078
v 0.33649500114551406 0.12610279410779515 0.21731907386908028
v 0.3364176565777694 0.12618208137659903 0.21729535497844907
v 0.33648957324205891 0.12634215239115931 0.21724894578316845
v 0.35758363215835537 0.17329320728625028 0.203636467831114
v 0.18296405819208422 0.13886299926303206 0.21258867732075001
v 0.18371396039080939 0.10579408013125406 0.22227733700209021
v 0.15380556560414169 0.1549934840684016 0.20767634364372134
v -0.011504920463112217 0.16979143984115833 0.20227297458408966
v -0.030594231738510242 0.16935855251526485 0.20227618373458922
v -0.029658253332003316 0.12808411094710534 0.21436892906125585
v -0.032748711051456401 0.18982532225199564 0.19626880953820006
v 0.41547202132193201 0.20199158612754531 0.19560720316162211
v 0.43141877480289043 0.19004855543210314 0.19920778146651028
v 0.41548658475882638 0.16741045480196615 0.20573393511076671
v 0.43150909569794343 0.13484491705845592 0.21537403864191007
v -0.032250100480050545 0.034997098335639069 0.24161148270730312
v 0.13611821924052958 0.13812794934551623 0.21250071561203004
v -0.079572209294863722 0.3873661073747508 0.13811847478682146
v -0.071570344947491496 0.034502749102962887 0.24150174462019319
v -0.046260526972174372 0.12770762204325345 0.21437172007432417
v -0.067677085498971598 0.1716008726462151 0.20137952893959929
v 0.37527141412506249 0.12205348136103746 0.21875584473323675
v 0.41023807429882697 0.1252639101111776 0.21804203523425603
v 0.38074499944860574 0.16739225279526623 0.20551439903404056
v 0.33867739738659114 0.02986426372197298 0.24551541027765469
v 0.49673505142073393 0.031739201970994613 0.2459893934134825
v 0.49673109176594221 0.03191381371708641 0.24593823497379494
v 0.33867290847498316 0.030062215306587967 0.24545741365297036
v 0.18621073612487521 -0.0043078453606699863 0.25453542444787791
v 0.18619435828874345 -0.0035856214713452135 0.25432382453274049
v 0.076180336113577038 -0.0051491054428303741 0.25406960037327186
v 0.33938656833570952 -0.0014085019377205626 0.25467782596966493
v 0.49743580453357994 0.00083764199347999507 0.25504305178620945
v 0.49740658863211046 0.0021259935650043251 0.25466558560766372
v 0.33934224137798014 0.00054621058889681227 0.25410512671346563
v -0.17723057177767704 0.23829362195388806 0.18114032924890028
v -0.23344262706783109 0.086742528110354364 0.22515627505405003
v -0.23214300192960119 0.029432121235831978 0.241947299461578
v -0.24064343096560853 0.032377096254388886 0.2410298821935814
v -0.28376920258670307 0.047318029396587122 0.23637548955808677
v -0.19435101380350633 0.30365926479829519 0.16188803212847891
v -0.33540182824784265 0.28078077031254672 0.16767474668671295
v -0.33443203220951134 0.23801505004548401 0.18020441258587494
v -0.36197933893554762 0.20225174337299204 0.19049893405123444
v -0.36391775382647307 0.28773127227248141 0.16545481144731888
v -0.17872090284631015 0.30401370802210376 0.16188540453737793
v -0.12656636534131527 0.3863004232846462 0.13812637502578815
v -0.4178753898595296 0.37969442342314108 0.13817534733082734
v -0.28907313291952874 0.031768220321645613 0.2408947204254441
v -0.28886114743806268 0.022420161475905771 0.24363355081092672
v -0.11836053635893258 0.024442704503970035 0.24414484735478209
v -0.071354858450123126 0.025000303702557142 0.24428580777049114
v -0.11857526621542429 0.03391178510528766 0.24137055950046635
v -0.26793552591969749 0.085960334401181185 0.22516207370162183
v -0.21529595277082703 0.2540884431363698 0.17626864010681809
v -0.40995102245601711 0.030248496948339115 0.2405573647573743
v 0.18640537758857229 -0.012891074246485213 0.25705017201951808
v 0.18640000585846814 -0.012654194482421596 0.25698077008037801
v -0.031134148321473983 -0.014213761283162079 0.25602947046319213
v -0.031097501771370446 -0.015829787588562821 0.25650294006130103
v 0.33867290842777864 0.030062216769927361 0.25752673724131203
v 0.49673109176594221 0.03191381371708641 0.25811825938495558
v 0.49651042089311687 0.041644879180347191 0.26087382527504099
v 0.33845531103972953 0.039657749484911742 0.26024392408185826
v 0.076180336113577038 -0.0051491054428303741 0.24744396065609925
v -0.031321068309633188 -0.0059710295718725763 0.24716551251788546
v -0.031305066929362149 -0.0066766534334999246 0.24696569956555897
v 0.33942575193868946 -0.0031364079038348181 0.24812581407978507
v 0.49749851702909215 -0.0019278305154972362 0.24853525101422422
v 0.49743580453357994 0.00083764199347999507 0.24931835558136459
v 0.33938656833570952 -0.0014085029762194888 0.24861510846614307
v 0.33961667666193457 -0.011555737962457213 0.24574169494524298
v 0.49769114918618523 -0.010422456041869668 0.24612981036382178
v 0.49765176661625193 -0.0086857770256458713 0.2466215893116559
v 0.33960002046088617 -0.010821238166145226 0.24594968480209095
v -0.028653534651785762 -0.12360297690485464 0.21385543085247266
v -0.030138634329283244 -0.12432570385250011 0.21365013656120085
v -0.029652871547341388 -0.14574669780821065 0.20758430941425829
v -0.032406238415950792 -0.15258966764157236 0.20564533519725217
v -0.033278792152704725 -0.1547582275838213 0.20503086779747287
v -0.03743513028576393 -0.16508802209004561 0.20210389227832529
v -0.058922810600331769 -0.14922845295415652 0.20658589867092675
v -0.067445557827941524 -0.14739064090012879 0.2071027107769875
v -0.10117206165479727 -0.14011798887899091 0.20914785706460942
v -0.10586358695230183 -0.17142985071893663 0.20027891644865989
v -0.11407746175231884 -0.16443079001255775 0.20225743104023153
v -0.19466525899970216 -0.15242275693147142 0.20562363193862748
v -0.19386637052340683 -0.18765185664089076 0.19564773492502607
v -0.23315599102644807 -0.10204667649922461 0.21987285554705949
v -0.23267259125440351 -0.12336346733107871 0.2138365358365576
v -0.14162234915349331 -0.14095973134390247 0.20889229730111292
v -0.11497568019625999 -0.12482147323245771 0.21347368313167261
v -0.10702965376473628 -0.12000905089365548 0.21483985065504507
v -0.077884470106985432 -0.12999499066391704 0.21202440354795152
v -0.11540724022611694 -0.10579069468321238 0.21886266803708818
v -0.11723843741962153 -0.025039213672322914 0.24172923182233336
v -0.22451558588289561 -0.02643292917348054 0.24128895817282814
v -0.21016756467913092 -0.038481721543644667 0.23788305933125686
v -0.20978219325794181 -0.055475691818736628 0.23307084167115202
v -0.28631792852147864 -0.089729798180335593 0.22333817333200334
v -0.28148743984169983 -0.30274296576887239 0.16301879436744482
v -0.30666243488275657 -0.32214716313591707 0.15751317984884136
v -0.28065663229843496 -0.33937961902484387 0.15264431754804045
v -0.27923554630839953 -0.40204616143159244 0.1348989031865451
v -0.10884324207604126 -0.39524754121411848 0.1368965744957612
v -0.061867423560399454 -0.39337321506580475 0.13744731676916638
v 0.17435140933976059 -0.38394812900815112 0.14021673519642674
v 0.19480929910819694 -0.38348420647228321 0.14035680533532915
v 0.19158998717985659 -0.24152013706364603 0.18055706430462701
v 0.054066104756157515 -0.28366802746022479 0.16856309731385846
v -0.11024959417374493 -0.33323072947668309 0.15445800328942647
v -0.11000310060028208 -0.34410051363843197 0.15137998400204253
v -0.13605800478275917 -0.3446913593888431 0.15120159249749576
v -0.13646199729216937 -0.32687624197072362 0.15624633610932559
v -0.12309785266162979 -0.32657318395700452 0.15633783711679466
v -0.12492721624366687 -0.32484171683645929 0.15682737937396449
v -0.18021068761730366 -0.29324437225539246 0.1657516706609482
v -0.16824499607281798 -0.28384205877982588 0.16841931992260789
v -0.12194359683909514 -0.32654700892200417 0.15634574004641763
v -0.11957675067955456 -0.32649333608759851 0.15636194525570515
v -0.12000079377095757 -0.32765742016956062 0.15603211766635047
v -0.11094003739968432 -0.30278381007324862 0.16307972036157717
v 0.040732269755274518 -0.28397039817647279 0.16847180381735666
v 0.038310595572886547 -0.27912820353679924 0.16984199542965869
v -0.14867404183512686 -0.26846373774061549 0.17278249791656794
v -0.17490076292706316 -0.27754247066991272 0.17020041898382843
v -0.21554282681253276 -0.27846410868077187 0.16992215277174466
v 0.18898496865552086 -0.24157921094214824 0.18053922841600306
v 0.19141991603429662 -0.23402040209967723 0.18268077978624991
v 0.061950083473095219 -0.12316988924307742 0.21401658506861737
v -0.011407129550874884 -0.20389293629498428 0.19112611385798137
v -0.02638932806155939 -0.22344915215591646 0.1855817830137102
v -0.027306511903320094 -0.22464634934259059 0.1852423688047464
v -0.066179855493154541 -0.20320512920415976 0.19129760670857118
v -0.033654436284884723 -0.22141477717915589 0.18615479273388391
v -0.054348968803607088 -0.19733791384392221 0.19296412360444104
v -0.11339797808877336 -0.19439441835590349 0.19377256844226318
v -0.043459896554099653 -0.19193776738807161 0.19449797476434247
v -0.032603970641269894 -0.186554058954086 0.19602715688027667
v -0.012264407062835166 -0.20319168895105841 0.19132432992939105
v 0.26799656881638395 -0.20781708712137739 0.19013362864790856
v 0.24868891838147661 -0.24172207478477531 0.18052414955320986
v 0.26800003372084635 -0.24128415763094685 0.18065636802657267
v 0.28391085476132633 -0.20208766857868857 0.1917628596559724
v 0.31333208092173326 -0.21347101344797417 0.18855181035551941
v 0.30671249782470655 -0.20565955726504037 0.19076105811923819
v 0.3419415975341259 -0.20486066874154052 0.19100226308971546
v 0.3408598607996669 -0.15715862721882307 0.20451014881124768
v 0.26281784841089595 -0.15892838195379758 0.20397581434882958
v 0.18934306961416059 -0.14243636900171877 0.20861481973455451
v 0.18154539133809261 -0.14941809739704381 0.2066344075222179
v 0.19108312922761578 -0.10444286058385847 0.21937462591594145
v 0.2487272516898586 -0.11931680766585019 0.21518709821420381
v 0.1941162206912326 -0.089113663753757469 0.22371686323992004
v 0.1879493579365672 -0.08097696825854242 0.22601840528267392
v 0.18640537763577678 -0.012891076040256086 0.24529842810581026
v 0.17496285041205578 -0.017594577637807703 0.24396161880546463
v 0.17349196863453728 -0.021262121374537341 0.24292241228397937
v 0.13550059560649147 -0.018489461178470223 0.24369143041566388
v -0.031097501771370446 -0.015829788627061751 0.24437378732251086
v -0.029480611151636225 -0.087130854025036536 0.22418331725853377
v -0.015992152157469228 -0.093292237517754464 0.2224442595605198
v -0.01143700593766131 -0.081394782716613767 0.22581533729707712
v 0.041163695582747531 -0.050639625786066324 0.23454699340587995
v 0.046448795711432005 -0.072154436790669033 0.22845663899130123
v 0.034429398855847025 -0.082229012397067078 0.22559859454643966
v 0.046646895187734967 -0.10629229136387119 0.21878950729828966
v 0.014531376414856814 -0.098907398378802525 0.22086712296290295
v 0.0081006637485859789 -0.10429757755798306 0.21933798942039573
v 0.011474381963071843 -0.10583865591513805 0.21890301825199807
v -0.021078397113064026 -0.10657685361730782 0.21868013735904901
v -0.02735524001949817 -0.12297115812340492 0.21403490220708454
v -0.066141961233795815 -0.20487617725966212 0.19082441259590469
v -0.067823397677282737 -0.20402019933469881 0.19106609518147893
v 0.26316141741804056 -0.20298728333164034 0.19149928551303635
v 0.18851563327443224 -0.10594837663099321 0.21894719996149126
v 0.16283344810309189 -0.0478384797532748 0.23539194327472471
v 0.1592007871204488 -0.056896291508047661 0.23282539263879087
v 0.13638327914499737 -0.057413722984308864 0.2326691667609134
v 0.027226815820591208 -0.13857085475137099 0.20964055399828968
v 0.011484441666146305 -0.10628226413749042 0.21877740076103638
v -0.2488349709580403 -0.12294146300188559 0.21394916982512743
v -0.11040709310969228 -0.3262853962203125 0.15642472766107685
v 0.23498188699038239 -0.17483891887041231 0.1994584094930158
v 0.1591362106609778 -0.12317574283668327 0.21405623708181745
v -0.23290838767526922 -0.16272859921523763 0.20268895042701687
v 0.22763758774822179 -0.16750274229480655 0.20153275874807502
v 0.19189293350773667 -0.14015332243602041 0.20926242058418387
v 0.17487687251951159 -0.15538882565698789 0.20494077202066432
v 0.18993088894267868 -0.16835781516795575 0.20127459022807173
v 0.11504095969651988 -0.20293775306945083 0.1914503519628889
v 0.062440350744128958 -0.20413057439928645 0.19109020851288408
v 0.098433536801037336 -0.16773021193687399 0.20141342441163865
v 0.0853050381506327 -0.13989794927189911 0.20928943165802424
v 0.08509865442678291 -0.13975012631367303 0.20933120471087191
v -0.12045387248985735 -0.20618636053324646 0.19043030702111127
v -0.11185111019451448 -0.26260764602560221 0.17445648780350539
v -0.1204735418011308 -0.24113183622580445 0.18053437923967672
v -0.19429027662736056 -0.24162535871892649 0.1803632463705783
v 0.32301324839977574 -0.10349556820359686 0.21969895960995472
v 0.3221700544910015 -0.06631270458912461 0.23022810795757118
v 0.28338957389997765 -0.040429740331024998 0.23754120601874715
v 0.28483934516573578 -0.10436123584278993 0.21943759227723658
v 0.43218642235201493 -0.080334247032139719 0.2263042268576719
v 0.49794011821065637 -0.1207195851086368 0.21489578699226908
v 0.49683687085912348 -0.072068977061884476 0.22867228022500957
v 0.44926653337516448 -0.041271778626516993 0.23737326332394068
v 0.44880710560426212 -0.021012096763112362 0.24311023930654152
v 0.43085041109088945 -0.021419299839157024 0.24298729425095267
v -0.4095002127156574 0.010368850793050392 0.25163191999575418
v -0.49367553254265717 0.0094260832942232083 0.251329166215016
v -0.49352816888418338 0.002927694768436477 0.24948900408512295
v -0.49347027223862289 0.00037458787873675758 0.24876603554486368
v -0.40929360665862846 0.0012580094123431321 0.24905198424157116
v -0.40935151236745226 0.00381151503842597 0.24977506569498636
v -0.40910783199317113 -0.0069342154701303978 0.2467321750027075
v -0.40926871690766253 0.00016042966869934039 0.24874118030038489
v -0.49344951075691074 -0.00054094399445953273 0.24850678250155009
v -0.49328545233131471 -0.0077755333777991698 0.2464581488401254
v -0.49324628378656921 -0.009502773902124291 0.24596904256368654
v -0.49316152565821825 -0.013240409141280879 0.24491064868883855
v -0.49306435340811389 -0.017525475777652809 0.24369723751284053
v -0.49296129518211895 -0.022070100445591139 0.24241032676416713
v -0.49278332445845524 -0.029918190575027863 0.24018796681859866
v -0.41154767329813602 -0.02886279909498415 0.24052136415360276
v -0.40864258386062863 -0.027450562012684376 0.24092251872867496
v -0.40879038557683117 -0.020932854527398251 0.24276815143488803
v -0.40888134075870564 -0.01692194514049556 0.24390392891559945
v -0.40899195269545735 -0.01204421821286164 0.24528516496398034
v -0.40906418048458426 -0.0088591438947522774 0.24618708900811223
v -0.11771504654159744 -0.0040218740058041626 0.24768075535765996
v -0.28822287783171563 -0.0057260240257573439 0.24712569566658307
v -0.2881727885738769 -0.00793484227576121 0.24650022008377837
v -0.11765587679076259 -0.0066311201176544434 0.2469418897590672
v -0.39614559291404083 -0.055504286509030283 0.23298352907146536
v -0.36152115665528911 -0.079505491468343778 0.22620154428506126
v -0.39653642221354046 -0.038269635186169285 0.23786390091425055
v -0.35124599913531429 -0.086628095877737898 0.22418892052669395
v -0.36028969372450398 -0.096920771647278775 0.22127037898775653
v -0.3600815219887305 -0.10610065441918072 0.21867089259440459
v -0.33495009495150613 -0.11592686908943339 0.21589897062946042
v -0.32266886976408882 -0.10643738708230391 0.21859143855211402
v -0.35768156347974978 -0.17403818134677906 0.19943324793855827
v -0.36032368369994561 -0.17287758440259729 0.19976078469369102
v -0.36025032380537581 -0.17611258318764755 0.19884472342206488
v -0.40162386932605121 -0.17705080895303502 0.1985614489072966
v -0.40521805774704717 -0.17846409222859383 0.19815970522010637
v -0.40648356913964523 -0.12265802232728915 0.21396242536703339
v -0.41255995725421207 -0.13276764415694564 0.21109698260861795
v -0.43692488541653313 -0.12137551429481287 0.21431266890118489
v -0.44124146789906427 -0.12540799151063939 0.21316891032020405
v -0.45463370458641728 -0.1379187906221753 0.20962038842614306
v -0.48957510053594411 -0.17056044571092657 0.20036201675508886
v -0.47555744821549711 -0.20612248709034395 0.1902974555354485
v -0.44276312373005422 -0.19322731738735666 0.19396307115730838
v -0.43695696809428797 -0.20053964771459928 0.191894820912033
v -0.40511533552265938 -0.18299389874417391 0.1968769905263438
v -0.30675363359262914 -0.098875941679877594 0.2207394664737089
v -0.28670949666575968 -0.07246256607787116 0.22822777115204329
v -0.30675535561266654 -0.081934652991966297 0.22553692876343598
v -0.32266991973370762 -0.12304822220203059 0.21388755351243621
v -0.34640077528868235 -0.14603020216167303 0.20736939022053055
v -0.34190990856485703 -0.15514800011625465 0.20478930553616054
v -0.40618673919280385 -0.13574752274677213 0.2102558445028769
v -0.322654692554386 -0.14016862778598849 0.20903937433388312
v -0.39637614113897013 -0.17817832559962993 0.19824438739642228
v -0.2893863326777375 -0.17575212318428826 0.19897692032297276
v -0.34748499785913889 -0.14382890717552568 0.20799229584892465
v -0.35768177679687008 -0.15695520859822523 0.20427083320074843
v -0.070896991071061705 0.0048094312202462217 0.25662542374013975
v -0.031574894582399572 0.0052221107259685763 0.25682403255296138
v -0.031632841170317491 0.0077774179116656805 0.25755696624568836
v -0.031787539510683707 0.014599249335409546 0.25951365871771281
v -0.031825461337468462 0.016271513567563328 0.25999331097197365
v -0.031838799676061555 0.016859702224063106 0.26016201998457855
v -0.032033981064791217 0.025466742898958932 0.26263076049604495
v -0.032039711501865333 0.025719440937051117 0.2627032413956828
v -0.032250100432846041 0.034997096305845715 0.26536433300866924
v -0.071570344947491496 0.034502749102962887 0.26514229962525293
v -0.071360720587742871 0.025258810489983366 0.26249087893910661
v -0.071354858497327631 0.025000304882669556 0.26241673228719131
v -0.11836053635893258 0.024442704503970035 0.26216087400245802
v -0.11816637147183355 0.015880491060058947 0.25970499119339996
v -0.11815368592422448 0.015321089404972139 0.25954453909693831
v -0.11811539108750728 0.013632376718759642 0.25906016898926087
v -0.11796206356572349 0.0068709943349140705 0.25712081496487471
v -0.11790412632429592 0.0043160991028591434 0.2563879994250029
v -0.11786494593122172 0.0025883347502348082 0.25589242816231772
v -0.11771504654159744 -0.0040218740058041626 0.25399643500843272
v -0.11765587683796708 -0.0066311182766790756 0.25324803060838597
v -0.070645704966668527 -0.0062716941759985486 0.25344704637117321
v -0.07070737811357368 -0.0035520532208765704 0.25422711564197509
v -0.070855505210371636 0.0029800033456847006 0.25610069256051815
v 0.22376325668919608 -0.012386326240835209 0.25229354407401838
v 0.18640000585846814 -0.012654194482421596 0.25214047419437724
v 0.18640537758857229 -0.012891074246485213 0.25207253044934297
v 0.13557464209046491 -0.021754735039485558 0.2494260734104273
v 0.13638327914499737 -0.057413722984308864 0.23919807610927468
v 0.15614272192906656 -0.056965639114812061 0.2393669314086147
v 0.1592007871204488 -0.056896291508047661 0.23939306424279508
v 0.16283344810309189 -0.0478384797532748 0.24199892867171061
v 0.17349197080594411 -0.021262123404330698 0.24964474677777287
v 0.17496285041205578 -0.017594577637807703 0.25069987216606904
v 0.13550059560649147 -0.018489461178470223 0.25036264550788845
v -0.015992152157469228 -0.093292237517754464 0.22859458898744156
v -0.029480611151636225 -0.087130854025036536 0.23033461348075124
v -0.029035543271838743 -0.10675729743175499 0.22470519936355624
v -0.021078397113064026 -0.10657685361730782 0.22477319758257966
v 0.027226815820591208 -0.13857085475137099 0.21569348931397286
v 0.046646895187734967 -0.10629229136387119 0.22499299861814542
v 0.034429397486916626 -0.082229013860406472 0.23187120929890526
v 0.014531376414856814 -0.098907398378802525 0.22704601521708309
v 0.011484441666146305 -0.10628226413749042 0.22492413967233024
v 0.33978779499204809 -0.019101653368715953 0.25060379288887979
v 0.3221700544910015 -0.06631270458912461 0.23702421363871368
v 0.32301324839977574 -0.10349556820359686 0.22635912611210476
v 0.28338957389997765 -0.040429740331024998 0.24437025406593735
v 0.18659134819989509 -0.021091939864864205 0.24972029233494611
v 0.1879493579365672 -0.08097696825854242 0.2325435875527985
v 0.1941162206912326 -0.089113663753757469 0.23022195985511079
v 0.2487272516898586 -0.11931680766585019 0.221668867122427
v 0.26281784841089595 -0.15892838195379758 0.21033407113384581
v 0.3408598607996669 -0.15715862721882307 0.21100098305982362
v 0.3419415975341259 -0.20486066874154052 0.1973187004198638
v 0.34399918461404178 -0.20481400898479171 0.19733628362281724
v 0.28483934516573578 -0.10436123584278993 0.22603290910028906
v 0.18066403500121422 -0.1105523595373215 0.22404430511401457
v 0.1591362106609778 -0.12317574283668327 0.22037906169961066
v 0.17487687251951159 -0.15538882565698789 0.21117006904753874
v 0.1815453913852971 -0.14941809947404167 0.21289652144558796
v 0.18934306966136508 -0.14243637103151213 0.21491530803421857
v 0.19189293350773667 -0.14015332243602041 0.21557545801046171
v 0.19108312922761578 -0.10444286058385847 0.22581821946202849
v -0.032406238415950792 -0.15258966764157236 0.21155019387774429
v -0.029652871500136891 -0.14574670012123098 0.21351888257011334
v -0.030138634329283244 -0.12432570484379453 0.21966302443161553
v -0.033015431090866521 -0.12572570609572475 0.21925553109512103
v -0.027306511903320094 -0.22464634934259059 0.1908893881693948
v -0.026389328014354889 -0.22344915272237043 0.19123470426216452
v -0.011407129550874884 -0.20389293629498428 0.19687544547596428
v -0.012264407062835166 -0.20319168895105841 0.19707486639494617
v -0.027124351450148101 -0.19103635154755058 0.20053160419617178
v -0.032603970641269894 -0.186554058954086 0.20180627968092957
v -0.043459896554099653 -0.19193776738807161 0.20023968479150236
v -0.054348968803607088 -0.19733791384392221 0.19866830662322607
v -0.033654436284884723 -0.22141477717915589 0.19180349267302169
v 0.18898496865552086 -0.24157921094214824 0.18647304521420849
v 0.19158998717985659 -0.24152013706364603 0.18649530652439245
v 0.19141991603429662 -0.23402040209967723 0.18864644073788872
v 0.26799656881638395 -0.20781708712137739 0.19631972350579954
v 0.26316141888137995 -0.20298728361486729 0.19769540570912827
v 0.26272132404250803 -0.20360222674156372 0.19751809650928048
v 0.2096346337722319 -0.20480607088781874 0.19706444151788571
v 0.21045749429687394 -0.24109227961289201 0.18665653976086452
v 0.19480929910819694 -0.38348420647228321 0.14577603203753964
v 0.34797211647285364 -0.38001094110226252 0.14708489254671916
v 0.34504411279256469 -0.25089287871583849 0.18411957213577052
v 0.31333208092173326 -0.21347101344797417 0.19479024711703324
v 0.28391085476132633 -0.20208766857868857 0.19799581342638353
v 0.26800003372084635 -0.24128415763094685 0.18671888835691208
v 0.24868891838147661 -0.24172207478477531 0.18655386422172385
v -0.11723843741962153 -0.025039213672322914 0.24796807284315645
v -0.070233962989453932 -0.024428544346343291 0.24823915278428524
v -0.070623850134405128 -0.0072354394003370575 0.25317061721648515
v -0.11762702464714425 -0.0079034333949913639 0.25288309495788219
v -0.11742083030773498 -0.016996116244340134 0.25027505865007632
v -0.28811855523327817 -0.010326404284902042 0.25184018434675015
v -0.2881727885738769 -0.00793484227576121 0.25252615140629564
v -0.28846794247786067 0.0050807482223571288 0.25625938756400135
v -0.40935151241465678 0.0038115172570373115 0.25564866130939878
v -0.40864258386062863 -0.027450562012684376 0.24668182069162017
v -0.3969110918088874 -0.021747588514716743 0.24834179079585106
v -0.39653642221354046 -0.038269635186169285 0.2436028046812897
v -0.36152115665528911 -0.079505491468343778 0.23184473267437583
v -0.35124599913531429 -0.086628095877737898 0.2298224031050454
v -0.32266886976408882 -0.10643738708230391 0.22419792733347085
v -0.33495009495150613 -0.11592686908943339 0.2214505837114282
v -0.3279394716452888 -0.11866797449563155 0.22067853354051553
v -0.34748499785913889 -0.14382890717552568 0.21342063358544061
v -0.34640077528868235 -0.14603020216167303 0.21279135058234591
v -0.32266991973370762 -0.12304822220203059 0.21943270359074657
v -0.30675535561266654 -0.081934652991966297 0.23125959729912773
v -0.2867094967129642 -0.072462564236895802 0.23401779196042652
v -0.28631792852147864 -0.089729798180335593 0.22906506525400952
v -0.20978219325794181 -0.055475691818736628 0.23904782962498658
v -0.21016756467913092 -0.038481721543644667 0.24392217666345659
v -0.22451558588289561 -0.02643292917348054 0.24734939385818697
v -0.28791506849659171 -0.019299689732606904 0.24926639457082511
v -0.10586358695230183 -0.17142985071893663 0.20599556811039191
v -0.10702965376473628 -0.12000905089365548 0.22074449488550896
v -0.11497568019625999 -0.12482147323245771 0.21934772379007933
v -0.11407746175231884 -0.16443079001255775 0.20798666147300124
v -0.12045387248985735 -0.20618636053324646 0.19599505300770281
v -0.1204735418011308 -0.24113183622580445 0.18597005420712792
v -0.11185111019451448 -0.26260764602560221 0.17982678713935749
v -0.11339797808877336 -0.19439441835590349 0.19939225295742877
v -0.16824499635604498 -0.28384205731648648 0.17362013033316157
v -0.14867404183512686 -0.26846373774061549 0.1780717019097813
v -0.19429027662736056 -0.24162535871892649 0.18567788055903955
v -0.21554282681253276 -0.27846410868077187 0.1750664324932571
v -0.17490076292706316 -0.27754247066991272 0.17541374127664797
v -0.18021068761730366 -0.29324437225539246 0.17089843645448069
v -0.12492721855668722 -0.32484171527871086 0.16194675565520703
v -0.13605800478275917 -0.3446913593888431 0.1562296949193071
v -0.11000310060028208 -0.34410051363843197 0.15645234838099134
v -0.11024959407933592 -0.33323073178970347 0.15957010653784923
v -0.12000079277966313 -0.32765742234096745 0.16114905215339081
v -0.11957675067955456 -0.32649333608759851 0.16148386368790976
v -0.1219435959422097 -0.32654700892200417 0.1614636376940074
v -0.12309785266162979 -0.32657318395700452 0.16145377393679849
v -0.13646199729216937 -0.32687624197072362 0.16133956997387494
v -0.3600815219887305 -0.10610065441918072 0.22421820109832377
v -0.36028969372450398 -0.096920771647278775 0.22685124880308341
v -0.36309284089752158 -0.10011104799532687 0.22593032178635264
v -0.38058953689042296 -0.079576686564697671 0.23178540695988412
v -0.38723043465865797 -0.090625515682840246 0.22860223366126342
v -0.39652023258173685 -0.072506048169519652 0.23378129087083491
v -0.40774455215767619 -0.067051642363392699 0.23532312077078091
v -0.43126740308079548 -0.055620822515701364 0.23855433979737625
v -0.43165256042959227 -0.038636290685303581 0.24342597961075946
v -0.41154767329813602 -0.02886279909498415 0.24627075945045165
v -0.49278332445845524 -0.029918190575027863 0.24580226459263016
v -0.48415918135840419 -0.41022257512071197 0.13672030676872277
v -0.27923554630839953 -0.40204616143159244 0.13948397771808574
v -0.28065663229843496 -0.33937961902484387 0.15745849867918302
v -0.30666243488275657 -0.32214716313591707 0.16234899244056919
v -0.28148743984169983 -0.30274296576887239 0.16796691778575848
v -0.30675363359262914 -0.098875941679877594 0.22639958055454321
v -0.322654692554386 -0.14016862778598849 0.21452133033640655
v -0.2893863326777375 -0.17575212318428826 0.20438121152244632
v -0.39637614113897013 -0.17817832559962993 0.20346692476225789
v -0.40511533552265938 -0.18299389874417391 0.2020676316721863
v -0.43695696809428797 -0.20053964771459928 0.19696924666414559
v -0.44276312302198678 -0.19322731875628707 0.19905512066103703
v -0.47555744821549711 -0.20612248709034395 0.19528892410516591
v -0.43692488541653313 -0.12137551429481287 0.21967946703231667
v -0.41255995725421207 -0.13276764415694564 0.21646106511226254
v -0.40648356913964523 -0.12265802100556322 0.21937365265362976
v -0.40618673919280385 -0.13574752274677213 0.21561921667325604
v -0.40521805774704717 -0.17846409222859383 0.20336690716670958
v -0.40162386932605121 -0.17705080895303502 0.20377967433118219
v -0.36025032380537581 -0.17611258318764755 0.20413323402842712
v -0.36032368369994561 -0.17287758440259729 0.20506112238668639
v -0.3962975341341673 -0.15707543000156249 0.20952096343584556
v -0.39668039120784293 -0.14019233581958546 0.21436350809686169
v -0.39668119325944529 -0.14015696752004644 0.21437365272082562
v -0.36819696564192222 -0.12774971638115806 0.21799108529683009
v -0.36310491986734883 -0.13768159633455057 0.21515227257755817
v -0.35398398946957466 -0.13063401733598121 0.21719264960606652
v -0.48957510053594411 -0.17056044571092657 0.20546216197160475
v -0.44124146964563066 -0.12540799354043275 0.21851384606635299
v -0.17872090284631015 0.30401370802210376 0.1557694631142135
v -0.19435101380350633 0.30365926479829519 0.15577748263894317
v -0.21529595277082703 0.2540884431363698 0.17037697347818395
v -0.17723057177767704 0.23829362195388806 0.17530734583435412
v -0.071570344947491496 0.034502749102962887 0.23652120592124129
v -0.079572209294863722 0.3873661073747508 0.13161868202166868
v -0.12656636534131527 0.3863004232846462 0.13164279374812093
v -0.11857526621542429 0.03391178510528766 0.23640418842870453
v -0.034358612762236097 0.12797752111669428 0.20897700171074673
v -0.029658253332003316 0.12808411094710534 0.20897459008021788
v -0.030594231738510242 0.16935855251526485 0.19670413752538782
v -0.011504920463112217 0.16979143984115833 0.19669434320599347
v -0.032748711051456401 0.18982532225199564 0.19060906148103265
v -0.035725905829626439 0.18827192229390072 0.19105211745797887
v -0.28376920258670307 0.047318029396587122 0.23139215956283959
v -0.23214300192960119 0.029432121235831978 0.23702831528463125
v -0.23221218875785005 0.032483097963976283 0.23612129230518131
v -0.23344262706783109 0.086742528110354364 0.21999054079440575
v -0.26793552591969749 0.085960334401181185 0.22000823837385455
v 0.18594285853679848 0.0075049257064064238 0.2461466662870955
v -0.031574894582399572 0.0052221107259685763 0.24547087977413581
v -0.031531480370817253 0.003307645697276422 0.24604002991305074
v -0.031384835636827285 -0.0031590418463152553 0.24796250733859357
v 0.18613538467259214 -0.00098502388414233792 0.24867063804221951
v 0.18599694053978094 0.0051200360056611605 0.24685566866895634
v 0.33934224137798014 0.00054621058889681227 0.24916939844069769
v 0.49740658863211046 0.0021259935650043251 0.24968397229834582
v 0.49727987948995955 0.0077135694399418555 0.24802284540072028
v 0.33920957318737782 0.0063965665799323983 0.24743014984769932
v -0.031305066929362149 -0.0066766534334999246 0.24900825583685918
v -0.031134148321473983 -0.014213761283162079 0.25124895784486911
v 0.18621073617207967 -0.0043078468240093822 0.24965847795218696
v 0.076180336113577038 -0.0051491054428303741 0.24922348034927122
v 0.33960002041368165 -0.010821236041942878 0.2525488194776272
v 0.49765176661625193 -0.0086857770256458713 0.25289819671485625
v 0.49749851702909215 -0.0019278305154972362 0.25088913108983224
v 0.33942575198589392 -0.003136408375879785 0.25026420189907611
v 0.33961667670913909 -0.011555738764933656 0.25276717931270598
v 0.33978779499204809 -0.019101653368715953 0.25501049947091758
v 0.4978414023263073 -0.017048263948663805 0.25538427515471152
v 0.49769114918618523 -0.010422456041869668 0.25341449292297324
v -0.33443203220951134 0.23801505004548401 0.17441149120278673
v -0.33540182824784265 0.28078077031254672 0.16169769736703277
v -0.36391775382647307 0.28773127227248141 0.15945484708238078
v -0.36197933893554762 0.20225174337299204 0.18486700199898415
v -0.40995102245601711 0.030248496948339115 0.23567881623547635
v -0.4178753898595296 0.37969442342314108 0.13179225847874018
v -0.5109623278878912 0.3775834956868625 0.13184001946919108
v -0.50464880789004418 0.099172144220501315 0.21460875348902436
v -0.49487252755247219 0.062210742437400116 0.2256526278815861
v -0.49412372342474786 0.029190245347843983 0.23546927051841909
v -0.4939223157629114 0.020308642456102238 0.23810967664893296
v -0.49391503852889135 0.01998773434520568 0.23820507920245826
v -0.4937252958534466 0.011620528247045151 0.24069256060715818
v -0.4937154501755599 0.011186358469386953 0.24082163464738629
v -0.49367553254265717 0.0094260832942232083 0.24134494572693099
v -0.4095002127156574 0.010368850793050392 0.241588823604826
v -0.40953976668511799 0.012113086021869345 0.24107028102912287
v -0.40955024882123287 0.012575325339796078 0.2409328622251832
v -0.40974098264949366 0.020986236806874201 0.23843238768837416
v -0.40974797797825968 0.021294714416057049 0.2383406805860728
v -0.28886773798827009 0.022710787807798762 0.23867241688924909
v -0.28907313291952874 0.031768220321645613 0.23597973852894946
v -0.046260526972174372 0.12770762204325345 0.21998664812279481
v -0.034358612762236097 0.12797752111669428 0.21998971414926058
v -0.035725905829626439 0.18827192229390072 0.20244048861486216
v -0.067677085498971598 0.1716008726462151 0.20707114909526206
v 0.15380556560414169 0.1549934840684016 0.21342042999244662
v 0.13611821924052958 0.13812794934551623 0.21820543709250825
v 0.18371396039080939 0.10579408013125406 0.22793771424799328
v 0.18296405819208422 0.13886299926303206 0.21831270912230474
v 0.41023807429882697 0.1252639101111776 0.22382656153363931
v 0.4890601836202349 0.13615000012220083 0.22120003876483679
v 0.43150909569794343 0.13484491705845592 0.22118521320137255
v 0.41548658475882638 0.16741045480196615 0.21160195875360022
v 0.43141877480289043 0.19004855543210314 0.20512566136578705
v 0.41547202132193201 0.20199158612754531 0.20154208607338411
v 0.35758363215835537 0.17329320728625028 0.20949375471677775
v 0.3364176565777694 0.12618208137659903 0.22305346677442048
v 0.33649500114551406 0.12610279410779515 0.22307706189486154
v 0.35761974657216827 0.10444745456142311 0.22952147410853374
v 0.34170189621568459 0.064103441991941013 0.24114858186556049
v 0.35765117376828282 0.05329838935643464 0.24440113265139196
v 0.4155040474486999 0.11583612324824874 0.22660523308074007
v 0.4490879673555937 0.086950380602117114 0.23523839526073709
v 0.48952185875001775 0.11579121430628031 0.22712564570978205
v 0.37527141412506249 0.12205348136103746 0.22452081066932483
v 0.38074499944860574 0.16739225279526623 0.21136912068574343
v 0.33867290847498316 0.030062215306587967 0.25103053263156239
v 0.33845531103972953 0.039657749484911742 0.24823766645629952
v 0.18525740784724171 0.037731686453008624 0.2477478835978103
v 0.18547202630112136 0.028267518518065322 0.25050251446122629
v 0.18547702827840334 0.02804694106293882 0.25056671550333542
v 0.1856747708887117 0.019326959428631527 0.25310474423830942
v 0.18568975406799021 0.018666236625821661 0.25329705356385002
v 0.18572673600604236 0.017035420349147155 0.25377171724690595
v 0.33892940557816942 0.018751297382200618 0.25432267661379115
v 0.33889308563597814 0.020352921170836022 0.25385650964572148
v 0.33887694396394308 0.02106473085131657 0.25364933109255727
v 0.3386773974337956 0.029864262022611096 0.25108814869359486
v -0.070645704966668527 -0.0062716941759985486 0.2587945568393869
v -0.11765587679076259 -0.0066311201176544434 0.25857688807813883
v -0.11762702464714425 -0.0079034333949913639 0.25894720622137191
v -0.070623850134405128 -0.0072354394003370575 0.25907506351849463
v -0.070233963036658423 -0.024428543024617385 0.26407927031603939
v -0.030914092334421866 -0.023917711303440413 0.26420018213234442
v -0.031097501771370446 -0.015829788627061751 0.26184611980017491
v -0.031134148321473983 -0.014213761283162079 0.26137576055355416
v -0.031305066929362149 -0.0066766534334999246 0.25918201781482419
v -0.031321068309633188 -0.0059710295718725763 0.25897663964116191
v -0.031384835589622795 -0.0031590437344951212 0.25815818598671258
v -0.031531480323612762 0.0033076433370515901 0.25627599877916452
v -0.031574894582399572 0.0052221107259685763 0.25571877589482461
v -0.070896991071061705 0.0048094312202462217 0.25556929601156186
v -0.070707378160778184 -0.0035520522295821406 0.25800298067005256
v -0.070459209771774584 -0.01449569245236498 0.26118822520757679
v -0.070416909397494967 -0.016361039125305329 0.26173115102999678
v -0.11836053631172808 0.024442703229448626 0.24953257341068125
v -0.28886114743806268 0.022420161475905771 0.24895225667045018
v -0.28866899025261478 0.013946482520076884 0.2514185968332624
v -0.28865759395421792 0.013443932827835405 0.25156486841570636
v -0.28861856234971717 0.011722731127560945 0.25206583963678475
v -0.28846794252506514 0.0050807503937639739 0.25399904758850378
v -0.28841002369339125 0.0025266666070062893 0.25474243655798701
v -0.28837920534087436 0.0011676513201467373 0.25513799013071492
v -0.28822287787892009 -0.0057260225152134516 0.25714445568485955
v -0.11771504654159744 -0.0040218740058041626 0.25781744358482683
v -0.11790412632429592 0.0043160983475871977 0.25539060206780517
v -0.11796206356572349 0.0068709943349140705 0.2546469766982028
v -0.11811539104030279 0.01363237435853481 0.25267901646562585
v -0.11815368587701998 0.015321087233565293 0.25218750148533697
v -0.11816637142462905 0.015880488794243107 0.2520246826498227
v -0.28811855523327817 -0.010326404284902042 0.25848343799700346
v -0.28798864303000776 -0.016055227248456736 0.2601508632017977
v -0.11746988937463899 -0.014832727790720616 0.2609640394407271
v 0.3390899908385161 0.011669864970798409 0.24586273572423287
v 0.33892940557816942 0.018751297382200618 0.24785247280724476
v 0.18572673600604236 0.017035420349147155 0.24734637607471674
v 0.18588488844104123 0.010061270352530681 0.24538678312239626
v 0.18594285848959399 0.0075049269809278323 0.24466850312156127
v 0.18599694053978094 0.005120036619319617 0.24399839790579475
v 0.18613538467259214 -0.00098502303446139838 0.24228300150892604
v 0.18619435824153896 -0.0035856196303698448 0.24155228727722211
v 0.18621073612487521 -0.0043078453606699863 0.24134935670391502
v 0.18640000585846814 -0.012654194482421596 0.23900420398446379
v 0.22376325668919608 -0.012386326240835209 0.2390853149045864
v 0.18640537758857229 -0.012891074246485213 0.23893764564420136
v 0.18659134815269057 -0.021091938495933802 0.23663337121636399
v 0.33978779499204809 -0.019101653368715953 0.23721657097122739
v 0.33961667670913909 -0.011555738764933656 0.23933681800805068
v 0.33960002046088617 -0.010821238166145226 0.23954319762510923
v 0.33942575198589392 -0.003136408375879785 0.24170247697450076
v 0.33938656833570952 -0.0014085029762194888 0.2421879829167764
v 0.33934224137798014 0.00054621058889681227 0.2427372172897409
v 0.33920957318737782 0.0063965665799323983 0.2443810471380716
v 0.33914797750305165 0.0091127902127246183 0.24514425024222403
v -0.067938085155865385 -0.12567134558621207 0.2072085201754556
v -0.070233962989453932 -0.024428544346343291 0.23565566818882297
v -0.11723843741962153 -0.025039213672322914 0.23547672793200278
v -0.11540724022611694 -0.10579069468321238 0.2127872200472764
v -0.077884470106985432 -0.12999499066391704 0.20599209352900771
v -0.10117206165479727 -0.14011798887899091 0.2031440602609981
v -0.067445557827941524 -0.14739064090012879 0.20110584420714142
v -0.058922810600331769 -0.14922845295415652 0.20059078343511047
v -0.03743513028576393 -0.16508802209004561 0.19613787507435038
v -0.033278790406138348 -0.15475822966081915 0.19904102143316257
v -0.032406238415950792 -0.15258966844404881 0.19965048676125091
v -0.033015431090866521 -0.12572570609572475 0.20719870848480648
v -0.030138634329283244 -0.12432570484379453 0.20759253508102476
v -0.028653534651785762 -0.12360297690485464 0.2077958416381476
v -0.02735524001949817 -0.12297115812340492 0.20797357506480671
v -0.021078397113064026 -0.10657685361730782 0.21258107796324494
v -0.029035543271838743 -0.10675729743175499 0.21252913163330392
v -0.029480611151636225 -0.087130854025036536 0.21804375918967783
v -0.032653382608990797 -0.08568156599171052 0.21845048819096277
v -0.062346099200829265 -0.12324053945792661 0.20789241014273993
v 0.0853050381506327 -0.13989794927189911 0.20323505698282954
v 0.061950083473095219 -0.12316988924307742 0.20793170444026454
v 0.062440350744128958 -0.20413057439928645 0.18518320401038368
v 0.11504095969651988 -0.20293775306945083 0.18552659449012199
v 0.4978414023263073 -0.017048263948663805 0.23781826176592358
v 0.49683687085912348 -0.072068977061884476 0.22235821898040412
v 0.49794011821065637 -0.1207195851086368 0.20868839719464935
v 0.44880710560426212 -0.021012096763112362 0.23669682199020364
v 0.44926653337516448 -0.041271778626516993 0.23100426742152988
v 0.34399918461404178 -0.20481400898479171 0.18503521281533156
v 0.35706675018963951 -0.20451767643173138 0.18512052130090889
v 0.35800047689445225 -0.28629459634782056 0.1621427421638314
v 0.35753184561563545 -0.26562906013524928 0.1679493334498971
v 0.34504411279256469 -0.25089287871583849 0.1720879967088704
v 0.34797211647285364 -0.38001094110226252 0.13580847275417979
v 0.50599102812444663 -0.37642755429741465 0.13684006136679275
v 0.43218642235201493 -0.080334247032139719 0.22002570568976873
v 0.43085041109088945 -0.021419299839157024 0.23657959599540515
v 0.30671249782470655 -0.20565955726504037 0.18479179560611927
v 0.31333208092173326 -0.21347101344797417 0.18259794458027404
v 0.34239182174990934 -0.22471449630298293 0.17944326254689491
v 0.3419415975341259 -0.20486066874154052 0.18502178035097216
v 0.038310594392774129 -0.27912820183743736 0.16410637034534267
v 0.040732269755274518 -0.28397039817647279 0.16274617423799967
v 0.054066104756157515 -0.28366802746022479 0.16283322102916575
v -0.2488349709580403 -0.12294146300188559 0.20794727432423177
v -0.23290838767526922 -0.16272859921523763 0.19677025629737757
v -0.19386637052340683 -0.18765185664089076 0.18977335142036025
v -0.19466525899970216 -0.15242275693147142 0.19967200497824875
v -0.23267259125440351 -0.12336346733107871 0.20783122645926047
v -0.23315599102644807 -0.10204667649922461 0.21382080692064118
v -0.3962975341341673 -0.15707543000156249 0.19833314294316223
v -0.36032368369994561 -0.17287758308087137 0.19389863352626202
v -0.36068321113126928 -0.15702327195945404 0.19835336936190501
v -0.39668039120784293 -0.14019233581958546 0.20307694571015172
v -0.067823397677282737 -0.20402019933469881 0.18519384126047453
v -0.066141961233795815 -0.20487617725966212 0.18495358901835296
v -0.066179855493154541 -0.20320512920415976 0.18542311921239926
v -0.031321068356837685 -0.0059710290526231134 0.25938872276527369
v 0.076180336113577038 -0.0051491054428303741 0.25947455625926263
v 0.18619435828874345 -0.0035856214713452135 0.25977388266311341
v 0.18613538467259214 -0.00098502388414233792 0.26053536044291359
v -0.031384835636827285 -0.0031590418463152553 0.26021209725247518
v -0.032653382608990797 -0.08568156599171052 0.2360533006475829
v -0.029480611198840719 -0.087130852136856674 0.23562441536611903
v -0.030914092334421866 -0.023917711303440413 0.25413377691624739
v -0.070233962989453932 -0.024428544346343291 0.25404083933433208
v -0.067938085108660895 -0.12567134742718744 0.22439605938087651
v -0.062346099200829265 -0.12324053945792661 0.2250996892301568
v 0.034429397486916626 -0.082229013860406472 0.23696752368170085
v 0.046448795711432005 -0.072154436790669033 0.23989981074521938
v 0.041163695582747531 -0.050639625786066324 0.24620644407905154
v -0.01143700593766131 -0.081394782716613767 0.23727781597334804
v -0.015992152157469228 -0.093292237517754464 0.23380108503800201
v -0.021078397113064026 -0.10657685361730782 0.22991899124670831
v 0.0061171544020203333 -0.10596014150209981 0.23006038721830793
v 0.011474381963071843 -0.10583865591513805 0.2300882406563908
v 0.0081006637485859789 -0.10429757755798306 0.23054428985985517
v -0.11407746175231884 -0.16443079001255775 0.2131146631014833
v -0.11497568019625999 -0.12482147323245771 0.22471261816386165
v -0.14162234915349331 -0.14095973134390247 0.22002609399395809
v -0.11957675067955456 -0.32649333608759851 0.16567454092086772
v -0.11040709310969228 -0.3262853962203125 0.16572221609354376
v -0.11094003739968432 -0.30278381007324862 0.17260368648081906
v -0.40929360665862846 0.0012580094123431321 0.262049507265805
v -0.49347027223862289 0.00037458787873675758 0.26191208015387391
v -0.49344951075691074 -0.00054094399445953273 0.2616440044013203
v -0.40926871690766253 0.00016042966869934039 0.26172812630746556
v -0.39675409890514396 -0.028670605042824347 0.25326906667865512
v -0.3969110918088874 -0.021747588514716743 0.25529618656030462
v -0.40864258386062863 -0.027450562012684376 0.25364338596943237
v -0.41154767329813602 -0.02886279909498415 0.25323410013658698
v -0.43165256042959227 -0.038636290685303581 0.25040160710812076
v -0.43126740308079548 -0.055620822515701364 0.24542838737196393
v -0.40774455215767619 -0.067051642363392699 0.24204784263199197
v -0.39652023258173685 -0.072506048169519652 0.24043475947975218
v -0.38723043465865797 -0.090625515682840246 0.23511643465492565
v -0.38058953689042296 -0.079576686564697671 0.23834170468762741
v -0.36309284089752158 -0.10011104799532687 0.23230453836447829
v -0.36028969372450398 -0.096920771647278775 0.23323453841589475
v -0.35124599913531429 -0.086628095877737898 0.23623496469826819
v -0.36152115665528911 -0.079505491468343778 0.23833508973269524
v -0.39614559291404083 -0.055504286509030283 0.24541192957141486
v -0.39653642221354046 -0.038269635186169285 0.25045838651765473
v -0.36032368369994561 -0.17287758308087137 0.21099624778794768
v -0.35768156347974978 -0.17403818134677906 0.21065264762583533
v -0.34190990856485703 -0.15514800011625465 0.21616052956523038
v -0.34640077528868235 -0.14603020216167303 0.21883646996629341
v -0.35768177679687008 -0.15695520859822523 0.21565413416985213
v -0.34748499785913889 -0.14382890717552568 0.21948251788239231
v -0.3279394716452888 -0.11866797449563155 0.2268208914968852
v -0.33495009495150613 -0.11592686908943339 0.22763351723697478
v -0.35398398734537234 -0.13063401568382382 0.22335502562053081
v -0.36310491986734883 -0.13768159633455057 0.22130479687196022
v -0.3681969658779447 -0.12774971841095142 0.22421994615415561
v -0.39668119325944529 -0.14015696752004644 0.22062841846181716
v -0.39668039125504739 -0.14019233345936064 0.22061806297536679
v -0.36068321113126928 -0.15702327195945404 0.21563852902412586
v 0.49693645908257034 0.022857599079252871 0.24352164490451308
v 0.33887694391673862 0.021064733022723412 0.24307037709171789
v 0.33889308563597814 0.020352921170836022 0.24287252491977282
v 0.33892940557816942 0.018751297382200618 0.24242734450445533
v 0.3390899908385161 0.011669865962092839 0.24045902041961834
v 0.33914797745584718 0.0091127917704730086 0.2397482670813636
v 0.33920957314017336 0.0063965676184313241 0.23899327718199057
v 0.49727987948995955 0.0077135694399418555 0.23931227587099804
v 0.49721053188319514 0.010771634631324111 0.24016228247434088
v 0.49715252817783628 0.01332946074337092 0.24087324473969773
v 0.49698943295999426 0.020521577031177751 0.24287233435521988
v 0.49695379597246031 0.022093082746003936 0.24330914328908071
v 0.35753184561563545 -0.26562906013524928 0.16337859029794535
v 0.35800047689445225 -0.28629459634782056 0.15763448709721481
v 0.35706675018963951 -0.20451767643173138 0.1803645724392979
v 0.34399918461404178 -0.20481400898479171 0.18028609760708569
v 0.3419415975341259 -0.20486066874154052 0.18027374112202271
v 0.34239182174990934 -0.22471449630298293 0.17475525700547778
v 0.31333208092173326 -0.21347101344797417 0.17788902263198675
v -0.28886773798827009 0.022710787807798762 0.24371478781425984
v -0.4097479780254642 0.021294716493054904 0.24335718066185946
v -0.40974098269669812 0.020986238978281047 0.24327143756448158
v -0.40953976668511799 0.012113086541118808 0.24080509447499063
v -0.40950021276286191 0.010368851548322337 0.24032027441405115
v -0.40935151241465678 0.0038115172570373115 0.23849762614370604
v -0.28846794247786067 0.0050807482223571288 0.23881441816410909
v -0.28861856234971717 0.011722730891538462 0.24066059499655493
v -0.28865759395421792 0.01344393103406453 0.24113901233397916
v -0.28866899020541026 0.013946480773510508 0.24127869888914186
v -0.28791506849659171 -0.019299689732606904 0.23203773694451599
v -0.11742083030773498 -0.016996116244340134 0.23262725332189274
v -0.11746988937463899 -0.014832727790720616 0.23322857941464792
v -0.28798864303000776 -0.016055227248456736 0.23293955369282698
v 0.19158998717985659 -0.24152013706364603 0.17012904370791085
v 0.21045749429687394 -0.24109227961289201 0.17024234903883187
v 0.2096346337722319 -0.20480607088781874 0.18032830687668674
v 0.26272132404250803 -0.20360222674156372 0.1806471091477837
v 0.26316141741804056 -0.20298728333164034 0.1808179009643939
v 0.23498188699038239 -0.17483891887041231 0.18865009833110635
v 0.22763758774822179 -0.16750274229480655 0.19069136728857872
v 0.18993088894267868 -0.16835781516795575 0.19046492670453805
v 0.19141991603429662 -0.23402040040031533 0.17221363813251186
v 0.3303595414182609 0.39666210872396002 0.13804956070615421
v 0.48837845302264926 0.40024549552880789 -0.2556068659924029
v 0.3303595414182609 0.39666210872396002 -0.2556068659924029
v 0.17719672405360423 0.39318884335393933 0.13807530905970947
v 0.17719672405360423 0.39318884335393933 -0.2556068659924029
v 0.12008452513131807 0.39189371293347047 0.13808491026550807
v 0.12008452513131807 0.39189371293347047 -0.2556068659924029
v -0.040260970076451276 0.38825756632359104 0.13811186611008736
v -0.040260970076451276 0.38825756632359104 -0.2556068659924029
v -0.079572209294863722 0.3873661073747508 -0.2556068659924029
v -0.032039711501865333 0.025719440937051117 0.24432968661593391
v -0.032033981111995721 0.025466744692729807 0.24440372252610007
v -0.032033981111995721 0.025466744692729807 -0.2556068659924029
v -0.031838799676061555 0.016859702224063106 0.24692544706395705
v -0.031825461384672959 0.016271515502947691 0.24709777628381835
v -0.031825461384672959 0.016271515502947691 -0.2556068659924029
v -0.031787539510683707 0.014599249335409546 0.24758772327234238
v -0.031632841170317491 0.007777418525324137 0.24958640961984974
v -0.031574894629604069 0.0052221124725349522 -0.2556068659924029
v 0.18588488844104123 0.010061269974894708 0.25032550552918154
v 0.18588488844104123 0.010061269974894708 -0.2556068659924029
v 0.18572673600604236 0.017035418885807757 0.24828219247539118
v 0.18572673600604236 0.017035418885807757 -0.2556068659924029
v 0.18568975406799021 0.01866623596495871 0.2478043893628773
v 0.18568975406799021 0.01866623596495871 -0.2556068659924029
v 0.18567477093591619 0.01932695739883817 0.24761080863142415
v 0.18567477093591619 0.01932695739883817 -0.2556068659924029
v 0.18547702832560783 0.028046940590893854 0.2450559943078765
v 0.18547202630112136 0.028267517715588879 0.25050251469724871
v 0.18547202630112136 0.028267517715588879 0.24499136875572897
v 0.18547202630112136 0.028267517715588879 -0.2556068659924029
v 0.33845531099252502 0.03965775047620617 0.24264607668860366
v 0.49651042089311687 0.041644879180347191 -0.2556068659924029
v -0.034358612762236097 0.12797752111669428 0.21436971921732512
v -0.035725905782421942 0.18827192002808488 0.19670443330876375
v 0.33648957324205891 0.12634215239115931 0.22300739452483687
v 0.33648957324205891 0.12634215239115931 -0.2556068659924029
v 0.49673505142073393 0.031739201970994613 -0.2556068659924029
v 0.49673109176594221 0.03191381371708641 -0.2556068659924029
v 0.33867739738659114 0.02986426372197298 -0.2556068659924029
v 0.49743580453357994 0.00083764199347999507 -0.2556068659924029
v 0.49740658863211046 0.0021259935650043251 -0.2556068659924029
v 0.33938656833570952 -0.0014085019377205626 -0.2556068659924029
v -0.21486799765396947 0.38429801169987743 0.1381412195182555
v -0.12656636534131527 0.3863004232846462 -0.2556068659924029
v -0.21486799765396947 0.38429801169987743 -0.2556068659924029
v -0.29702518415536761 0.38243493735699635 0.13815503103472293
v -0.29702518415536761 0.38243493735699635 -0.2556068659924029
v -0.4178753898595296 0.37969442342314108 -0.2556068659924029
v -0.28886773798827009 0.022710788799093187 0.24354840173493453
v -0.28886773798827009 0.022710788799093187 -0.2556068659924029
v -0.071360720587742871 0.025258810489983366 0.24421006943015364
v -0.071570344853082515 0.034502746931556041 -0.2556068659924029
v -0.23221218875785005 0.032483098152794272 0.24105341245504405
v -0.24064343096560853 0.032377096254388886 0.23610030325059081
v -0.24064343096560853 0.032377096254388886 -0.2556068659924029
v -0.031097501771370446 -0.015829787588562821 -0.2556068659924029
v 0.33867290842777864 0.030062216769927361 -0.2556068659924029
v 0.49749851702909215 -0.0019278305154972362 -0.2556068659924029
v 0.33942575193868946 -0.0031364079038348181 -0.2556068659924029
v 0.49769114918618523 -0.010422456041869668 -0.2556068659924029
v 0.49765176661625193 -0.0086857770256458713 -0.2556068659924029
v 0.33961667666193457 -0.011555737962457213 -0.2556068659924029
v 0.18659134815269057 -0.021091938495933802 0.24297617291874873
v 0.18640537763577678 -0.012891076040256086 -0.2556068659924029
v -0.03091409238162636 -0.023917709320851552 0.24208351412601287
v -0.03091409238162636 -0.023917709320851552 -0.2556068659924029
v 0.034429398855847025 -0.082229012397067078 -0.2556068659924029
v 0.014531375234744397 -0.098907396112986684 0.23211314575026246
v 0.0061171567150406694 -0.10596014145489532 0.21886633861154239
v 0.0061171567150406694 -0.10596014145489532 -0.2556068659924029
v -0.028653534698990259 -0.12360297511108377 -0.2556068659924029
v -0.030138634329283244 -0.12432570385250011 -0.2556068659924029
v -0.033278792152704725 -0.1547582275838213 -0.2556068659924029
v -0.27923554635560405 -0.40204615987384407 -0.2556068659924029
v -0.10884324207604126 -0.3952475411197095 -0.2556068659924029
v -0.06186742351319495 -0.39337321586828117 -0.2556068659924029
v 0.17435140933976059 -0.38394812900815112 -0.2556068659924029
v 0.19480929910819694 -0.38348420647228321 -0.2556068659924029
v 0.18154539133809261 -0.14941809739704381 -0.2556068659924029
v 0.18066403500121422 -0.11055235882925404 0.21764009904712853
v 0.18851563327443224 -0.10594837719744718 0.2253810874605926
v 0.15614272192906656 -0.056965639114812061 0.23280445480107922
v 0.13557464204326042 -0.021754733859373144 0.24276679642981197
v 0.17349196863453728 -0.021262121374537341 -0.2556068659924029
v 0.08509865442678291 -0.13975012442549317 0.20327656097004634
v 0.098433539208466675 -0.16773021415548531 0.19541671701535521
v -0.033654435954453249 -0.2214147791145403 -0.2556068659924029
v -0.027124351450148101 -0.19103635168916408 0.19476018271473672
v 0.038310595572886547 -0.27912820353679924 -0.2556068659924029
v -0.1195767487913747 -0.32649333604039399 -0.2556068659924029
v -0.11024959417374493 -0.33323072947668309 -0.2556068659924029
v -0.12194359683909514 -0.32654700892200417 -0.2556068659924029
v -0.49352816888418338 0.002927694768436477 -0.2556068659924029
v -0.49347027223862289 0.00037458787873675758 -0.2556068659924029
v -0.40929360670583292 0.0012580117253634675 0.2549162443642965
v -0.40935151236745226 0.00381151503842597 -0.2556068659924029
v -0.49367553254265717 0.0094260832942232083 -0.2556068659924029
v -0.40888134075870564 -0.01692194514049556 0.24970172312446684
v -0.40899195269545735 -0.012044217882430167 0.25110079204038394
v -0.40906418048458426 -0.0088591438947522774 0.25201436053695148
v -0.40906418048458426 -0.0088591438947522774 -0.2556068659924029
v -0.40910783199317113 -0.0069342145732449621 0.2525664842027463
v -0.40926871690766253 0.00016043061278927322 0.25460142733282842
v -0.49344951075691074 -0.00054094399445953273 -0.2556068659924029
v -0.49328545233131471 -0.0077755333777991698 -0.2556068659924029
v -0.49324628378656921 -0.009502773902124291 -0.2556068659924029
v -0.49316152565821825 -0.013240409141280879 -0.2556068659924029
v -0.49306435340811389 -0.017525475777652809 -0.2556068659924029
v -0.49296129518211895 -0.022070100445591139 -0.2556068659924029
v -0.49278332445845524 -0.029918190575027863 -0.2556068659924029
v -0.40879038562403569 -0.020932852450400399 0.24855128246375963
v -0.40888134075870564 -0.01692194514049556 -0.2556068659924029
v -0.11771504649439293 -0.004021876082802015 -0.2556068659924029
v -0.28822287787892009 -0.0057260225152134516 0.25315970282879452
v -0.40648356913964523 -0.12265802232728915 -0.2556068659924029
v -0.44124146789906427 -0.12540799151063939 -0.2556068659924029
v -0.45463370458641728 -0.13791879142465174 0.21489749806086328
v -0.28670949666575968 -0.07246256607787116 -0.2556068659924029
v -0.031787539510683707 0.014599249335409546 -0.2556068659924029
v -0.031838799676061555 0.016859702224063106 -0.2556068659924029
v -0.032039711501865333 0.025719440937051117 -0.2556068659924029
v -0.032250100432846041 0.034997096305845715 -0.2556068659924029
v -0.071360720587742871 0.025258810489983366 -0.2556068659924029
v -0.071354858497327631 0.025000304882669556 -0.2556068659924029
v -0.11815368592422448 0.015321089404972139 -0.2556068659924029
v -0.11811539108750728 0.013632376718759642 -0.2556068659924029
v -0.11790412632429592 0.0043160991028591434 -0.2556068659924029
v -0.11786494593122172 0.0025883347502348082 -0.2556068659924029
v -0.11765587683796708 -0.0066311182766790756 -0.2556068659924029
v -0.070855505210371636 0.0029800033456847006 -0.2556068659924029
v -0.0708969910238572 0.004809429473679845 -0.2556068659924029
v 0.13557464204326042 -0.021754733859373144 -0.2556068659924029
v 0.18934306966136508 -0.14243637103151213 -0.2556068659924029
v -0.029652871500136891 -0.14574670012123098 -0.2556068659924029
v -0.026389328014354889 -0.22344915272237043 -0.2556068659924029
v 0.34797211647285364 -0.38001094110226252 -0.2556068659924029
v 0.34504411279256469 -0.25089287857422499 0.16747821402206248
v 0.26316141888137995 -0.20298728361486729 -0.2556068659924029
v -0.070623850134405128 -0.0072354398251775268 0.25907506361290367
v -0.070623850134405128 -0.0072354398251775268 0.25317061707487165
v -0.28837920529366989 0.0011676492431488851 -0.2556068659924029
v -0.28841002369339125 0.0025266666070062893 0.25552680540316086
v -0.40929360670583292 0.0012580117253634675 -0.2556068659924029
v -0.40926871690766253 0.00016043061278927322 -0.2556068659924029
v -0.40910783199317113 -0.0069342145732449621 -0.2556068659924029
v -0.40879038562403569 -0.020932852450400399 -0.2556068659924029
v -0.39675409895234842 -0.02867060452357488 0.24635607572477089
v -0.070416909350290477 -0.016361041438325667 0.25055313873482987
v -0.070416909350290477 -0.016361041438325667 -0.2556068659924029
v -0.070459209771774584 -0.01449569245236498 0.25108817314552412
v -0.1174698894218435 -0.014832726421790213 0.25089557950730024
v -0.1174698894218435 -0.014832726421790213 -0.2556068659924029
v -0.11742083035493946 -0.016996114072933284 -0.2556068659924029
v -0.28798864303000776 -0.016055227578888213 0.25019699728205014
v -0.28798864303000776 -0.016055227578888213 -0.2556068659924029
v -0.28811855523327817 -0.010326404945764997 -0.2556068659924029
v -0.16824499635604498 -0.28384205731648648 -0.2556068659924029
v -0.12000079277966313 -0.32765742234096745 -0.2556068659924029
v -0.48415918135840419 -0.41022257512071197 -0.2556068659924029
v -0.44276312302198678 -0.19322731875628707 -0.2556068659924029
v -0.33495009726452651 -0.11592687074159076 -0.2556068659924029
v -0.031531480370817253 0.003307645697276422 -0.2556068659924029
v 0.18599694053978094 0.0051200360056611605 -0.2556068659924029
v 0.18594285853679848 0.0075049257064064238 -0.2556068659924029
v 0.49727987948995955 0.0077135694399418555 -0.2556068659924029
v 0.18621073617207967 -0.0043078468240093822 -0.2556068659924029
v 0.33960002041368165 -0.010821236041942878 -0.2556068659924029
v 0.4978414023263073 -0.017048263948663805 -0.2556068659924029
v -0.5109623278878912 0.3775834956868625 -0.2556068659924029
v -0.50464880789004418 0.099172144220501315 -0.2556068659924029
v -0.49487252755247219 0.062210742437400116 -0.2556068659924029
v -0.49412372342474786 0.029190245347843983 -0.2556068659924029
v -0.4939223157629114 0.020308642456102238 -0.2556068659924029
v -0.49391503852889135 0.01998773434520568 -0.2556068659924029
v -0.4937252958534466 0.011620528247045151 -0.2556068659924029
v -0.4937154501755599 0.011186358469386953 -0.2556068659924029
v -0.40953976668511799 0.012113086021869345 -0.2556068659924029
v -0.40974098264949366 0.020986236806874201 -0.2556068659924029
v -0.40974797797825968 0.021294714416057049 -0.2556068659924029
v -0.070459209771774584 -0.01449569245236498 -0.2556068659924029
v -0.070233963036658423 -0.024428543024617385 -0.2556068659924029
v -0.031384835589622795 -0.0031590437344951212 -0.2556068659924029
v -0.070707378160778184 -0.0035520522295821406 -0.2556068659924029
v -0.28866899025261478 0.013946482520076884 -0.2556068659924029
v -0.28861856234971717 0.011722731127560945 -0.2556068659924029
v -0.28846794252506514 0.0050807503937639739 -0.2556068659924029
v -0.28841002369339125 0.0025266666070062893 -0.2556068659924029
v -0.28822287787892009 -0.0057260225152134516 -0.2556068659924029
v -0.11816637142462905 0.015880488794243107 -0.2556068659924029
v -0.11836053631172808 0.024442703229448626 -0.2556068659924029
v 0.33914797750305165 0.0091127902127246183 -0.2556068659924029
v 0.18613538467259214 -0.00098502303446139838 -0.2556068659924029
v 0.18619435824153896 -0.0035856196303698448 -0.2556068659924029
v 0.18659134815269057 -0.021091938495933802 -0.2556068659924029
v -0.067938085155865385 -0.12567134558621207 -0.2556068659924029
v -0.032406238415950792 -0.15258966844404881 -0.2556068659924029
v 0.50599102812444663 -0.37642755429741465 -0.2556068659924029
v -0.031321068356837685 -0.0059710290526231134 -0.2556068659924029
v -0.029480611198840719 -0.087130852136856674 -0.2556068659924029
v -0.35398398734537234 -0.13063401568382382 -0.2556068659924029
v -0.3681969658779447 -0.12774971841095142 -0.2556068659924029
v -0.39668039125504739 -0.14019233345936064 -0.2556068659924029
v 0.49715252817783628 0.01332946074337092 -0.2556068659924029
v 0.49698943295999426 0.020521577031177751 -0.2556068659924029
v 0.49695379597246031 0.022093082746003936 -0.2556068659924029
v 0.49693645908257034 0.022857599079252871 -0.2556068659924029
v 0.33887694391673862 0.021064733022723412 -0.2556068659924029
v 0.3390899908385161 0.011669865962092839 -0.2556068659924029
v 0.33920957314017336 0.0063965676184313241 -0.2556068659924029
v 0.49721053188319514 0.010771634631324111 -0.2556068659924029
v -0.28886114739085822 0.022420159351703422 -0.2556068659924029
v -0.40950021276286191 0.010368851548322337 -0.2556068659924029
v -0.28865759395421792 0.01344393103406453 -0.2556068659924029
v -0.28791506854379617 -0.019299688458085499 -0.2556068659924029
l 1 2
l 2 799
l 799 801
l 801 803
l 803 805
l 805 807
l 807 809
l 3 809
l 4 5
l 6 7
l 7 8
l 8 9
l 9 10
l 11 12
l 12 13
l 13 14
l 15 16
l 17 18
l 17 19
l 20 21
l 21 22
l 20 23
l 25 26
l 26 27
l 6 27
l 28 790
l 790 791
l 791 793
l 793 794
l 794 796
l 796 797
l 1 797
l 3 811
l 4 811
l 10 11
l 14 15
l 18 29
l 19 29
l 24 25
l 5 780
l 780 783
l 783 785
l 785 787
l 30 787
l 28 31
l 16 24
l 22 813
l 32 813
l 32 33
l 33 814
l 23 814
l 30 31
l 34 35
l 35 36
l 34 36
l 37 38
l 38 39
l 39 40
l 37 40
l 41 42
l 42 43
l 41 43
l 44 45
l 45 46
l 46 47
l 44 47
l 49 833
l 50 833
l 54 55
l 55 56
l 54 57
l 53 58
l 59 823
l 823 826
l 60 826
l 61 829
l 62 829
l 62 63
l 63 64
l 64 831
l 31 831
l 31 65
l 59 65
l 48 58
l 49 66
l 48 67
l 53 67
l 60 68
l 52 66
l 56 57
l 61 68
l 50 51
l 51 52
l 69 70
l 70 71
l 71 72
l 69 72
l 73 74
l 74 75
l 75 76
l 73 76
l 77 78
l 78 79
l 77 79
l 80 81
l 81 82
l 82 83
l 80 83
l 84 85
l 85 86
l 86 87
l 84 87
l 88 89
l 89 90
l 93 94
l 94 95
l 95 96
l 97 98
l 99 100
l 101 102
l 99 102
l 98 103
l 103 104
l 104 105
l 106 107
l 107 108
l 108 109
l 109 110
l 110 111
l 111 112
l 113 114
l 114 115
l 115 116
l 116 117
l 117 118
l 118 119
l 119 120
l 120 121
l 123 124
l 124 125
l 126 127
l 127 128
l 128 129
l 128 130
l 128 131
l 132 133
l 123 133
l 122 135
l 135 136
l 122 136
l 130 138
l 138 139
l 121 140
l 140 141
l 143 144
l 144 145
l 147 148
l 146 148
l 150 151
l 143 152
l 153 154
l 154 155
l 155 156
l 156 157
l 157 158
l 158 159
l 159 160
l 160 161
l 165 166
l 166 167
l 167 843
l 168 843
l 169 171
l 168 172
l 172 845
l 173 845
l 173 174
l 174 175
l 175 176
l 177 178
l 178 179
l 180 181
l 181 182
l 182 849
l 183 849
l 183 184
l 88 184
l 90 91
l 91 92
l 92 93
l 96 106
l 97 105
l 125 126
l 146 185
l 147 185
l 185 186
l 147 186
l 146 186
l 148 186
l 151 868
l 152 868
l 153 187
l 161 165
l 164 188
l 169 170
l 170 189
l 189 190
l 190 862
l 191 862
l 191 863
l 171 863
l 176 177
l 179 192
l 180 193
l 101 194
l 112 113
l 134 195
l 132 134
l 187 196
l 197 860
l 188 860
l 192 193
l 194 198
l 196 199
l 164 200
l 162 200
l 162 163
l 163 201
l 100 198
l 132 195
l 199 202
l 141 202
l 203 204
l 203 205
l 197 201
l 205 206
l 206 207
l 142 207
l 142 204
l 148 150
l 149 208
l 149 209
l 208 210
l 209 210
l 145 147
l 137 211
l 139 211
l 129 130
l 131 132
l 130 137
l 212 213
l 213 214
l 214 215
l 212 215
l 216 217
l 217 218
l 218 219
l 219 220
l 220 221
l 216 221
l 222 223
l 223 224
l 224 225
l 225 226
l 226 227
l 222 227
l 228 229
l 229 230
l 230 231
l 231 232
l 232 233
l 233 234
l 234 235
l 235 236
l 236 237
l 237 238
l 238 239
l 239 240
l 240 241
l 241 242
l 228 242
l 243 244
l 244 245
l 245 246
l 243 246
l 247 248
l 248 249
l 247 249
l 250 251
l 251 252
l 252 253
l 253 254
l 250 254
l 255 256
l 256 257
l 257 258
l 258 259
l 261 262
l 262 263
l 263 264
l 264 265
l 265 266
l 266 267
l 267 268
l 268 269
l 112 270
l 112 271
l 271 272
l 272 273
l 273 274
l 274 275
l 260 276
l 260 261
l 270 277
l 255 275
l 259 276
l 269 278
l 277 279
l 278 279
l 280 281
l 274 281
l 274 280
l 282 283
l 283 284
l 284 285
l 285 286
l 286 287
l 287 288
l 288 289
l 289 290
l 290 291
l 291 292
l 292 293
l 293 294
l 294 295
l 295 296
l 296 297
l 297 298
l 298 299
l 299 300
l 300 301
l 301 302
l 302 303
l 303 304
l 304 305
l 282 305
l 306 307
l 307 308
l 306 308
l 309 310
l 310 311
l 311 312
l 312 313
l 313 314
l 314 315
l 315 316
l 309 316
l 317 318
l 318 319
l 319 320
l 317 320
l 321 322
l 322 323
l 323 324
l 324 325
l 321 325
l 327 328
l 327 329
l 326 330
l 330 331
l 331 332
l 332 333
l 333 334
l 335 336
l 336 337
l 326 337
l 328 338
l 329 338
l 334 335
l 339 340
l 340 341
l 341 342
l 342 343
l 343 344
l 344 345
l 345 861
l 339 861
l 346 347
l 347 348
l 348 349
l 346 349
l 351 352
l 352 353
l 353 354
l 354 355
l 355 356
l 356 357
l 357 358
l 350 358
l 350 351
l 359 360
l 360 361
l 359 361
l 362 363
l 363 364
l 364 365
l 365 366
l 360 366
l 360 367
l 367 368
l 368 369
l 369 370
l 370 371
l 371 372
l 372 373
l 362 373
l 374 375
l 375 928
l 928 930
l 376 930
l 376 920
l 374 920
l 376 377
l 377 931
l 378 931
l 377 379
l 302 377
l 302 380
l 380 894
l 894 922
l 381 922
l 381 382
l 382 875
l 875 883
l 882 883
l 880 882
l 879 880
l 878 879
l 878 891
l 383 891
l 383 384
l 384 927
l 385 927
l 385 386
l 386 387
l 387 388
l 388 389
l 389 390
l 390 391
l 391 392
l 392 393
l 393 394
l 395 396
l 396 397
l 397 398
l 398 399
l 374 376
l 378 400
l 394 395
l 374 399
l 400 934
l 379 934
l 401 402
l 402 403
l 403 404
l 401 404
l 405 406
l 406 407
l 407 408
l 405 408
l 409 410
l 410 411
l 411 412
l 412 413
l 409 413
l 409 414
l 414 415
l 409 415
l 416 417
l 417 418
l 418 419
l 419 420
l 420 421
l 422 423
l 416 423
l 415 421
l 415 422
l 424 425
l 425 426
l 426 427
l 427 428
l 428 429
l 429 430
l 430 431
l 432 433
l 433 434
l 435 436
l 436 437
l 437 438
l 438 439
l 396 440
l 440 441
l 441 442
l 442 443
l 443 444
l 444 445
l 448 449
l 449 450
l 451 452
l 452 453
l 453 454
l 454 455
l 455 456
l 456 457
l 457 458
l 459 460
l 460 461
l 389 461
l 389 424
l 431 432
l 396 439
l 445 446
l 446 447
l 450 451
l 458 459
l 447 462
l 434 435
l 462 897
l 463 897
l 448 463
l 464 465
l 465 466
l 466 467
l 464 467
l 468 469
l 469 470
l 470 471
l 468 471
l 472 473
l 473 474
l 474 475
l 475 476
l 476 477
l 472 477
l 478 834
l 479 834
l 479 480
l 480 481
l 481 482
l 478 482
l 483 484
l 484 485
l 485 486
l 486 487
l 487 488
l 483 488
l 489 490
l 490 491
l 491 492
l 489 492
l 493 494
l 307 494
l 307 495
l 495 496
l 493 496
l 497 498
l 498 499
l 499 500
l 497 500
l 501 502
l 502 503
l 503 504
l 501 504
l 505 506
l 506 507
l 507 508
l 505 508
l 509 510
l 510 511
l 511 512
l 512 513
l 513 514
l 514 515
l 515 516
l 516 517
l 517 518
l 518 519
l 519 520
l 520 521
l 521 522
l 522 523
l 523 524
l 524 525
l 525 526
l 509 526
l 527 528
l 528 529
l 529 530
l 527 530
l 531 532
l 532 533
l 533 534
l 531 534
l 536 537
l 537 538
l 538 539
l 539 540
l 540 541
l 541 815
l 542 815
l 542 543
l 543 544
l 544 545
l 545 546
l 546 547
l 547 548
l 548 549
l 536 549
l 535 550
l 535 551
l 550 551
l 552 553
l 553 554
l 554 555
l 555 808
l 552 808
l 552 555
l 556 808
l 556 557
l 557 558
l 558 559
l 559 560
l 560 561
l 561 562
l 562 563
l 552 563
l 564 565
l 565 566
l 566 567
l 564 567
l 568 569
l 569 570
l 570 571
l 571 572
l 572 573
l 573 574
l 574 575
l 575 576
l 576 577
l 305 577
l 305 578
l 564 578
l 564 919
l 567 919
l 579 919
l 579 580
l 568 580
l 581 582
l 582 583
l 583 584
l 584 585
l 585 586
l 586 587
l 587 588
l 588 589
l 589 590
l 300 590
l 300 591
l 591 592
l 592 593
l 593 594
l 594 595
l 581 595
l 596 597
l 597 598
l 566 598
l 566 596
l 599 600
l 600 601
l 601 602
l 602 603
l 603 604
l 604 605
l 605 606
l 606 607
l 607 608
l 608 609
l 609 610
l 610 611
l 611 612
l 612 613
l 613 614
l 614 615
l 615 616
l 616 617
l 617 618
l 618 619
l 599 619
l 620 621
l 621 622
l 622 623
l 623 624
l 620 624
l 624 625
l 625 626
l 626 627
l 627 628
l 628 629
l 629 630
l 630 631
l 631 632
l 632 633
l 633 634
l 634 635
l 636 637
l 637 638
l 638 639
l 620 639
l 624 639
l 635 636
l 640 865
l 641 865
l 641 642
l 642 643
l 643 866
l 640 866
l 645 646
l 647 648
l 645 648
l 612 644
l 612 649
l 649 650
l 651 652
l 652 653
l 653 654
l 654 655
l 644 655
l 646 656
l 647 657
l 650 651
l 656 657
l 658 659
l 659 660
l 660 661
l 658 661
l 662 663
l 663 664
l 662 664
l 665 666
l 666 667
l 667 668
l 668 669
l 669 670
l 665 670
l 671 672
l 672 673
l 673 674
l 671 674
l 675 676
l 676 677
l 675 677
l 678 679
l 679 680
l 680 681
l 681 682
l 678 682
l 683 684
l 684 685
l 685 686
l 686 687
l 687 688
l 683 688
l 689 690
l 690 691
l 691 692
l 692 693
l 693 694
l 695 696
l 696 697
l 697 848
l 689 848
l 694 695
l 698 699
l 699 700
l 698 700
l 701 702
l 702 703
l 701 703
l 704 705
l 705 706
l 706 707
l 704 707
l 708 709
l 709 710
l 710 711
l 711 712
l 712 713
l 713 714
l 714 715
l 715 716
l 716 717
l 717 718
l 718 719
l 719 720
l 720 721
l 721 722
l 708 723
l 722 723
l 724 725
l 725 726
l 726 727
l 727 728
l 729 730
l 730 731
l 731 732
l 732 733
l 734 735
l 735 736
l 736 737
l 724 737
l 728 729
l 733 734
l 38 738
l 37 739
l 739 740
l 740 741
l 741 742
l 742 743
l 743 744
l 744 745
l 745 746
l 746 747
l 747 748
l 748 749
l 738 749
l 750 751
l 751 752
l 752 753
l 753 754
l 754 755
l 755 756
l 756 917
l 750 917
l 62 757
l 757 758
l 758 759
l 522 759
l 522 760
l 760 761
l 761 762
l 762 763
l 763 764
l 764 765
l 765 766
l 62 766
l 767 768
l 768 769
l 769 770
l 767 770
l 771 772
l 772 773
l 773 774
l 774 775
l 775 776
l 776 777
l 777 778
l 778 779
l 771 779
l 5 781
l 781 782
l 782 784
l 784 786
l 786 788
l 788 789
l 30 469
l 31 468
l 28 290
l 31 291
l 283 576
l 1 484
l 2 483
l 601 801
l 559 801
l 555 809
l 3 554
l 808 809
l 4 75
l 76 553
l 781 812
l 22 473
l 472 813
l 32 527
l 528 813
l 33 530
l 529 814
l 477 814
l 23 476
l 20 475
l 21 474
l 18 533
l 17 534
l 29 532
l 19 531
l 11 545
l 10 546
l 12 544
l 14 542
l 16 541
l 24 540
l 25 539
l 26 538
l 27 537
l 6 536
l 7 549
l 8 548
l 9 547
l 34 550
l 36 551
l 35 535
l 817 818
l 73 552
l 40 552
l 39 74
l 41 495
l 42 680
l 45 82
l 820 821
l 46 490
l 47 489
l 44 83
l 65 471
l 59 470
l 824 825
l 825 827
l 827 828
l 60 510
l 68 509
l 61 526
l 525 829
l 757 829
l 62 582
l 64 293
l 294 581
l 52 478
l 66 482
l 49 481
l 50 479
l 57 507
l 54 506
l 55 505
l 56 508
l 48 467
l 67 466
l 53 465
l 58 464
l 72 172
l 69 308
l 70 307
l 71 494
l 812 818
l 77 496
l 79 493
l 573 678
l 78 573
l 81 499
l 80 500
l 820 838
l 85 504
l 84 501
l 840 841
l 87 497
l 86 498
l 166 332
l 165 333
l 167 331
l 330 843
l 611 843
l 168 610
l 569 685
l 318 684
l 173 318
l 174 317
l 175 692
l 176 691
l 177 690
l 178 323
l 179 322
l 192 321
l 193 325
l 180 324
l 181 697
l 182 696
l 320 694
l 183 635
l 184 634
l 90 347
l 89 348
l 91 346
l 91 630
l 93 628
l 94 627
l 96 625
l 106 624
l 107 623
l 108 622
l 109 399
l 110 398
l 111 397
l 112 396
l 113 439
l 114 438
l 115 437
l 116 436
l 854 855
l 855 856
l 856 857
l 857 858
l 121 360
l 120 367
l 140 359
l 141 361
l 202 778
l 199 777
l 187 775
l 153 362
l 187 363
l 154 373
l 155 372
l 156 371
l 157 370
l 158 658
l 160 335
l 159 336
l 161 334
l 209 407
l 149 408
l 210 406
l 208 405
l 97 401
l 103 700
l 404 698
l 403 699
l 105 402
l 200 344
l 201 341
l 197 340
l 164 345
l 190 312
l 191 310
l 171 316
l 169 315
l 206 640
l 203 643
l 204 642
l 142 641
l 143 352
l 145 350
l 147 358
l 148 357
l 151 355
l 122 664
l 135 663
l 136 662
l 146 677
l 185 676
l 186 675
l 420 701
l 132 420
l 195 702
l 134 703
l 131 421
l 133 419
l 123 418
l 124 417
l 125 416
l 126 423
l 127 422
l 128 415
l 130 409
l 129 414
l 137 410
l 138 413
l 139 412
l 211 411
l 194 665
l 101 670
l 102 669
l 99 668
l 100 667
l 198 666
l 215 338
l 214 329
l 212 328
l 213 327
l 218 645
l 219 648
l 220 647
l 221 657
l 216 656
l 217 646
l 873 874
l 704 875
l 226 875
l 225 705
l 227 382
l 227 762
l 222 520
l 223 519
l 873 877
l 229 883
l 230 706
l 707 883
l 884 885
l 885 886
l 886 887
l 887 888
l 888 889
l 889 890
l 237 433
l 236 434
l 238 383
l 246 302
l 245 380
l 243 301
l 589 894
l 244 894
l 301 590
l 247 722
l 249 385
l 248 386
l 253 389
l 252 424
l 254 388
l 250 387
l 251 425
l 387 720
l 255 725
l 275 726
l 455 724
l 256 455
l 257 454
l 258 453
l 259 452
l 260 450
l 261 449
l 262 448
l 265 462
l 266 447
l 267 446
l 268 445
l 278 443
l 279 442
l 277 441
l 270 440
l 271 395
l 272 394
l 273 393
l 274 392
l 392 727
l 280 391
l 281 728
l 303 564
l 302 565
l 282 577
l 306 609
l 307 608
l 319 636
l 173 637
l 661 754
l 337 649
l 326 612
l 349 631
l 121 771
l 364 774
l 365 773
l 366 772
l 858 916
l 368 654
l 369 653
l 659 756
l 377 566
l 377 920
l 376 919
l 588 894
l 588 922
l 381 586
l 586 763
l 384 709
l 390 730
l 389 731
l 375 621
l 568 686
l 376 567
l 920 930
l 379 596
l 598 931
l 769 931
l 378 768
l 400 767
l 770 934
l 597 934
l 426 718
l 427 717
l 428 716
l 429 715
l 431 713
l 432 712
l 890 939
l 435 939
l 854 939
l 256 672
l 456 671
l 457 674
l 458 735
l 457 736
l 459 734
l 460 733
l 789 824
l 486 574
l 487 681
l 574 682
l 491 745
l 618 744
l 492 618
l 821 945
l 838 841
l 503 644
l 840 948
l 326 502
l 828 949
l 511 949
l 949 950
l 512 950
l 950 951
l 513 951
l 951 952
l 952 953
l 953 954
l 954 955
l 955 956
l 877 956
l 524 758
l 560 600
l 638 683
l 639 688
l 620 687
l 651 751
l 652 750
l 916 977
l 655 977
l 948 977
l 650 752
l 660 755
l 673 737
l 874 884
l 983 984
l 984 985
l 985 986
l 817 986
l 945 990
l 983 990
