# Source coordinates; no display transform
v -0.107865098656 0.500033993757 0.388425403682
v -0.352855543383 -0.371501265955 0.389923381707
v 0.103140803503 -0.499682824379 0.124157173743
v 0.348131248229 0.371852435284 0.122659195669
v 0.103140803503 -0.499682824379 -0.387558673895
v 0.348131248229 0.371852435284 -0.387558673895
v -0.107865098656 0.500033993757 -0.387558673895
v -0.352855543383 -0.371501265955 -0.387558673895
g roof
f 1 2 3
g roof
f 1 3 4
g facade_completed
f 4 3 5 6
g facade_completed
f 1 4 6 7
g facade_completed
f 2 1 7 8
g facade_completed
f 3 2 8 5
g ground_assumed
f 8 6 5
g ground_assumed
f 8 7 6
