# pointcloud_to_mesh 0.5.1; candidate requires geometry validation; coordinates preserved
v -2.219026043 10.241426666 7.949573103
v -7.233037566 -7.595545873 7.980230948
v 2.099452688 -10.218929049 2.541019510
v 7.113464211 7.618043489 2.510361664
v 2.099452688 -10.218929049 -7.931834480
v 7.113464211 7.618043489 -7.931834480
v -2.219026043 10.241426666 -7.931834480
v -7.233037566 -7.595545873 -7.931834480
g roof
f 1 2 3
g roof
f 1 3 4
g facade_completed
f 4 3 5 6
g facade_completed
f 1 4 6 7
g facade_completed
f 2 1 7 8
g facade_completed
f 3 2 8 5
g ground_assumed
f 8 6 5
g ground_assumed
f 8 7 6
