v -0.1078650986564464 0.50003399375723712 0.38842540368188072
v -0.35285554338257963 -0.37150126595489646 0.38992338170734825
v 0.10314080350291273 -0.49968282437914813 0.12415717374343198
v 0.34813124822904595 0.37185243528412415 0.12265919566910331
v 0.10314080350291273 -0.49968282437914813 -0.38755867389522897
v 0.34813124822904595 0.37185243528412415 -0.38755867389522897
v -0.1078650986564464 0.50003399375723712 -0.38755867389522897
v -0.35285554338257963 -0.37150126595489646 -0.38755867389522897
l 1 2
l 2 3
l 3 4
l 1 4
l 3 5
l 5 6
l 4 6
l 6 7
l 1 7
l 7 8
l 2 8
l 5 8
