# Source coordinates; no display transform
v 0.185136224236 -0.263582137479 0.120561390274
v 0.313815895499 -0.234096404947 0.120991715378
v 0.486039013383 -0.191778171735 0.123050465788
v 0.501870062904 -0.167838142939 0.133653422868
v 0.501805577987 -0.140609382477 0.147803107025
v 0.447869302445 0.0980723589365 0.278009666917
v -0.449687915333 -0.0963931593281 0.280825864124
v -0.384265677777 -0.372303724111 0.129954631086
v -0.363324197822 -0.385684346345 0.120582667106
v 0.389327744631 0.357133645205 0.129686092823
v 0.373512816222 0.382701918488 0.113890228775
v 0.293148476321 0.371320328658 0.110846898339
v -0.28781234869 0.24083507974 0.115191141237
v -0.454118974921 0.203111397632 0.116637369966
v -0.513541834398 0.183266161722 0.120633230266
v -0.459390617411 -0.0554731583031 0.257344892118
v 0.185136224236 -0.263582137479 -0.291942704971
v 0.313815895499 -0.234096404947 -0.291942704971
v 0.486039013383 -0.191778171735 -0.291942704971
v 0.501870062904 -0.167838142939 -0.291942704971
v 0.501805577987 -0.140609382477 -0.291942704971
v 0.447869302445 0.0980723589365 -0.291942704971
v 0.389327744631 0.357133645205 -0.291942704971
v 0.373512816222 0.382701918488 -0.291942704971
v 0.293148476321 0.371320328658 -0.291942704971
v -0.28781234869 0.24083507974 -0.291942704971
v -0.454118974921 0.203111397632 -0.291942704971
v -0.513541834398 0.183266161722 -0.291942704971
v -0.459390617411 -0.0554731583031 -0.291942704971
v -0.449687915333 -0.0963931593281 -0.291942704971
v -0.384265677777 -0.372303724111 -0.291942704971
v -0.363324197822 -0.385684346345 -0.291942704971
g roof
f 1 2 3 4 5 6 7 8 9
g roof
f 6 10 11 12 13 14 15 16 7
g wall
f 2 1 17 18
g wall
f 3 2 18 19
g wall
f 4 3 19 20
g wall
f 5 4 20 21
g wall
f 6 5 21 22
g wall
f 8 7 30 31
g wall
f 9 8 31 32
g wall
f 1 9 32 17
g wall
f 10 6 22 23
g wall
f 11 10 23 24
g wall
f 12 11 24 25
g wall
f 13 12 25 26
g wall
f 14 13 26 27
g wall
f 15 14 27 28
g wall
f 16 15 28 29
g wall
f 7 16 29 30
g ground_assumed
f 32 31 30 29 28 27 26 25 24 23 22 21 20 19 18 17
