v 0.18513622423578052 -0.26358213747854919 0.12056139027414464
v 0.31381589549875399 -0.23409640494666509 0.12099171537750975
v 0.48603901338273897 -0.19177817173478676 0.12305046578831412
v 0.5018700629035191 -0.16783814293902938 0.13365342286829079
v 0.50180557798724879 -0.14060938247660101 0.14780310702513225
v 0.4478693024452487 0.098072358936500487 0.27800966691690615
v -0.44968791533275893 -0.096393159328109684 0.28082586412376431
v -0.38426567777679982 -0.37230372411100582 0.12995463108643435
v -0.36332419782182829 -0.38568434634507331 0.1205826671063943
v 0.38932774463072034 0.35713364520515956 0.12968609282316679
v 0.3735128162218963 0.38270191848807333 0.11389022877458192
v 0.29314847632081903 0.37132032865838094 0.11084689833855753
v -0.28781234868986194 0.24083507973984286 0.115191141236648
v -0.45411897492050141 0.20311139763199476 0.11663736996589448
v -0.51354183439816081 0.18326616172206228 0.12063323026622176
v -0.45939061741114529 -0.055473158303085315 0.25734489211849665
v 0.18513622423578052 -0.26358213747854919 -0.29194270497119329
v 0.31381589549875399 -0.23409640494666509 -0.29194270497119329
v 0.48603901338273897 -0.19177817173478676 -0.29194270497119329
v 0.5018700629035191 -0.16783814293902938 -0.29194270497119329
v 0.50180557798724879 -0.14060938247660101 -0.29194270497119329
v 0.4478693024452487 0.098072358936500487 -0.29194270497119329
v 0.38932774463072034 0.35713364520515956 -0.29194270497119329
v 0.3735128162218963 0.38270191848807333 -0.29194270497119329
v 0.29314847632081903 0.37132032865838094 -0.29194270497119329
v -0.28781234868986194 0.24083507973984286 -0.29194270497119329
v -0.45411897492050141 0.20311139763199476 -0.29194270497119329
v -0.51354183439816081 0.18326616172206228 -0.29194270497119329
v -0.45939061741114529 -0.055473158303085315 -0.29194270497119329
v -0.44968791533275893 -0.096393159328109684 -0.29194270497119329
v -0.38426567777679982 -0.37230372411100582 -0.29194270497119329
v -0.36332419782182829 -0.38568434634507331 -0.29194270497119329
l 1 2
l 2 3
l 3 4
l 4 5
l 5 6
l 6 7
l 7 8
l 8 9
l 1 9
l 6 10
l 10 11
l 11 12
l 12 13
l 13 14
l 14 15
l 15 16
l 7 16
l 17 18
l 18 19
l 3 19
l 19 20
l 4 20
l 20 21
l 5 21
l 21 22
l 30 31
l 8 31
l 31 32
l 9 32
l 17 32
l 22 23
l 10 23
l 23 24
l 11 24
l 24 25
l 25 26
l 26 27
l 27 28
l 15 28
l 28 29
l 29 30
