# Source coordinates; no display transform
v 0.461467184963 0.211213117457 0.0752054266579
v 0.454562534829 0.212579529395 0.0752058425084
v -0.168427345516 0.275216704387 0.0752257912669
v -0.172202058279 0.275549767254 0.075225898648
v -0.212054314821 0.271903155749 0.075224957555
v -0.28917972594 0.264272599161 0.0752229695966
v -0.491045732073 0.244139373924 0.075217720389
v -0.500311712838 0.24169691263 0.0752170395042
v -0.503027456278 0.240351851036 0.0752166574365
v -0.503031726185 0.240206669745 0.0752166156101
v -0.50302318637 0.24004440842 0.0752165685555
v -0.483171783497 0.0411289978988 0.0751588807611
v -0.456338870138 -0.227392288377 0.0750810065219
v -0.454972458201 -0.240432981904 0.075077224052
v -0.450975703393 -0.27129254023 0.0750682720053
v -0.448789444614 -0.27477689041 0.0750672561075
v -0.447636534504 -0.275293564945 0.0750671032804
v -0.440343311092 -0.275289295037 0.0750670831716
v -0.428861180987 -0.274653059463 0.07506723439
v -0.375255134589 -0.269977368795 0.0750684340825
v -0.0378581493231 -0.236342286309 0.075077203541
v 0.0746615994062 -0.225124898534 0.0750801281684
v 0.313792219898 -0.201281011164 0.0750863446105
v 0.428024253961 -0.189845851654 0.0750893275536
v 0.473214056997 -0.185255561556 0.0750905268439
v 0.494243989829 -0.182394636825 0.075091295001
v 0.501490243047 -0.181070925173 0.075091657362
v 0.501490243047 -0.176181732677 0.0750930738277
v 0.501485972737 -0.171228489554 0.0750945091956
v 0.50148170283 -0.170899696996 0.0750946041092
v 0.501477432922 -0.170839916276 0.075094621805
v 0.474452367677 0.100858277565 0.0751734170284
v 0.465463939368 0.187723643297 0.0751986097663
v 0.461467184963 0.211213117457 -0.181462410813
v 0.454562534829 0.212579529395 -0.181462410813
v -0.168427345516 0.275216704387 -0.181462410813
v -0.172202058279 0.275549767254 -0.181462410813
v -0.212054314821 0.271903155749 -0.181462410813
v -0.28917972594 0.264272599161 -0.181462410813
v -0.491045732073 0.244139373924 -0.181462410813
v -0.500311712838 0.24169691263 -0.181462410813
v -0.503027456278 0.240351851036 -0.181462410813
v -0.503031726185 0.240206669745 -0.181462410813
v -0.50302318637 0.24004440842 -0.181462410813
v -0.483171783497 0.0411289978988 -0.181462410813
v -0.456338870138 -0.227392288377 -0.181462410813
v -0.454972458201 -0.240432981904 -0.181462410813
v -0.450975703393 -0.27129254023 -0.181462410813
v -0.448789444614 -0.27477689041 -0.181462410813
v -0.447636534504 -0.275293564945 -0.181462410813
v -0.440343311092 -0.275289295037 -0.181462410813
v -0.428861180987 -0.274653059463 -0.181462410813
v -0.375255134589 -0.269977368795 -0.181462410813
v -0.0378581493231 -0.236342286309 -0.181462410813
v 0.0746615994062 -0.225124898534 -0.181462410813
v 0.313792219898 -0.201281011164 -0.181462410813
v 0.428024253961 -0.189845851654 -0.181462410813
v 0.473214056997 -0.185255561556 -0.181462410813
v 0.494243989829 -0.182394636825 -0.181462410813
v 0.501490243047 -0.181070925173 -0.181462410813
v 0.501490243047 -0.176181732677 -0.181462410813
v 0.501485972737 -0.171228489554 -0.181462410813
v 0.50148170283 -0.170899696996 -0.181462410813
v 0.501477432922 -0.170839916276 -0.181462410813
v 0.474452367677 0.100858277565 -0.181462410813
v 0.465463939368 0.187723643297 -0.181462410813
g roof
f 1 2 3 4 5 6 7 8 9 10 11 12 13 14 15 16 17 18 19 20 21 22 23 24 25 26 27 28 29 30 31 32 33
g wall
f 2 1 34 35
g wall
f 3 2 35 36
g wall
f 4 3 36 37
g wall
f 5 4 37 38
g wall
f 6 5 38 39
g wall
f 7 6 39 40
g wall
f 8 7 40 41
g wall
f 9 8 41 42
g wall
f 10 9 42 43
g wall
f 11 10 43 44
g wall
f 12 11 44 45
g wall
f 13 12 45 46
g wall
f 14 13 46 47
g wall
f 15 14 47 48
g wall
f 16 15 48 49
g wall
f 17 16 49 50
g wall
f 18 17 50 51
g wall
f 19 18 51 52
g wall
f 20 19 52 53
g wall
f 21 20 53 54
g wall
f 22 21 54 55
g wall
f 23 22 55 56
g wall
f 24 23 56 57
g wall
f 25 24 57 58
g wall
f 26 25 58 59
g wall
f 27 26 59 60
g wall
f 28 27 60 61
g wall
f 29 28 61 62
g wall
f 30 29 62 63
g wall
f 31 30 63 64
g wall
f 32 31 64 65
g wall
f 33 32 65 66
g wall
f 1 33 66 34
g ground_assumed
f 66 65 64 63 62 61 60 59 58 57 56 55 54 53 52 51 50 49 48 47 46 45 44 43 42 41 40 39 38 37 36 35 34
