# XYZ-only planar convex-roof baseline. Provisional base; no GT.
v 11.49346286 5.26438651 1.82430628
v 11.32178077 5.29836194 1.82431662
v -4.16867894 6.85581683 1.82481264
v -4.26253606 6.86409834 1.82481531
v -5.25345067 6.77342642 1.82479191
v -7.17115128 6.58369488 1.82474248
v -12.19049001 6.08308817 1.82461196
v -12.42088589 6.02235709 1.82459503
v -12.48841205 5.98891253 1.82458553
v -12.48851822 5.98530264 1.82458449
v -12.48830588 5.98126806 1.82458332
v -11.99470660 1.03529502 1.82314893
v -11.32751412 -5.64140760 1.82121261
v -11.29353869 -5.96566060 1.82111856
v -11.19416056 -6.73297442 1.82089597
v -11.13979988 -6.81961176 1.82087071
v -11.11113311 -6.83245872 1.82086691
v -10.92978926 -6.83235255 1.82086641
v -10.64428948 -6.81653274 1.82087017
v -9.31139094 -6.70027307 1.82090000
v -0.92211437 -5.86394666 1.82111805
v 1.87565601 -5.58502962 1.82119077
v 7.82156839 -4.99215839 1.82134534
v 10.66191424 -4.70782652 1.82141951
v 11.78554537 -4.59369031 1.82144933
v 12.30844845 -4.52255426 1.82146843
v 12.48862440 -4.48964056 1.82147744
v 12.48862440 -4.36807223 1.82151266
v 12.48851822 -4.24491130 1.82154835
v 12.48841205 -4.23673597 1.82155071
v 12.48830588 -4.23524954 1.82155115
v 11.81633560 2.52044595 1.82351037
v 11.59284098 4.68032766 1.82413678
v 11.49346286 5.26438651 -4.55766383
v 11.32178077 5.29836194 -4.55766383
v -4.16867894 6.85581683 -4.55766383
v -4.26253606 6.86409834 -4.55766383
v -5.25345067 6.77342642 -4.55766383
v -7.17115128 6.58369488 -4.55766383
v -12.19049001 6.08308817 -4.55766383
v -12.42088589 6.02235709 -4.55766383
v -12.48841205 5.98891253 -4.55766383
v -12.48851822 5.98530264 -4.55766383
v -12.48830588 5.98126806 -4.55766383
v -11.99470660 1.03529502 -4.55766383
v -11.32751412 -5.64140760 -4.55766383
v -11.29353869 -5.96566060 -4.55766383
v -11.19416056 -6.73297442 -4.55766383
v -11.13979988 -6.81961176 -4.55766383
v -11.11113311 -6.83245872 -4.55766383
v -10.92978926 -6.83235255 -4.55766383
v -10.64428948 -6.81653274 -4.55766383
v -9.31139094 -6.70027307 -4.55766383
v -0.92211437 -5.86394666 -4.55766383
v 1.87565601 -5.58502962 -4.55766383
v 7.82156839 -4.99215839 -4.55766383
v 10.66191424 -4.70782652 -4.55766383
v 11.78554537 -4.59369031 -4.55766383
v 12.30844845 -4.52255426 -4.55766383
v 12.48862440 -4.48964056 -4.55766383
v 12.48862440 -4.36807223 -4.55766383
v 12.48851822 -4.24491130 -4.55766383
v 12.48841205 -4.23673597 -4.55766383
v 12.48830588 -4.23524954 -4.55766383
v 11.81633560 2.52044595 -4.55766383
v 11.59284098 4.68032766 -4.55766383
g roof
f 1 2 3 4 5 6 7 8 9 10 11 12 13 14 15 16 17 18 19 20 21 22 23 24 25 26 27 28 29 30 31 32 33
g wall
f 2 1 34 35
g wall
f 3 2 35 36
g wall
f 4 3 36 37
g wall
f 5 4 37 38
g wall
f 6 5 38 39
g wall
f 7 6 39 40
g wall
f 8 7 40 41
g wall
f 9 8 41 42
g wall
f 10 9 42 43
g wall
f 11 10 43 44
g wall
f 12 11 44 45
g wall
f 13 12 45 46
g wall
f 14 13 46 47
g wall
f 15 14 47 48
g wall
f 16 15 48 49
g wall
f 17 16 49 50
g wall
f 18 17 50 51
g wall
f 19 18 51 52
g wall
f 20 19 52 53
g wall
f 21 20 53 54
g wall
f 22 21 54 55
g wall
f 23 22 55 56
g wall
f 24 23 56 57
g wall
f 25 24 57 58
g wall
f 26 25 58 59
g wall
f 27 26 59 60
g wall
f 28 27 60 61
g wall
f 29 28 61 62
g wall
f 30 29 62 63
g wall
f 31 30 63 64
g wall
f 32 31 64 65
g wall
f 33 32 65 66
g wall
f 1 33 66 34
g ground_assumed
f 66 65 64 63 62 61 60 59 58 57 56 55 54 53 52 51 50 49 48 47 46 45 44 43 42 41 40 39 38 37 36 35 34
