# XYZ-only planar convex-roof baseline. Provisional base; no GT.
v 0.65201180 -9.94317988 2.63616633
v 2.60804718 -7.98714449 2.61583741
v 9.78017693 -0.16300295 2.53546750
v 10.43218873 0.81501474 2.52577593
v 1.95603539 8.96516219 2.46518957
v -0.65201180 10.26918578 2.45731166
v -8.47615334 1.46702654 2.54737313
v -10.43218873 -0.81501474 2.57061731
v -10.43218873 -1.46702654 2.57644784
v -8.47615334 -3.42306193 2.59110206
v -2.60804718 -8.96516219 2.63214946
v -1.30402359 -9.94317988 2.63900368
v 0.00000000 -10.26918578 2.64002738
v 0.65201180 -9.94317988 -3.17567232
v 2.60804718 -7.98714449 -3.17567232
v 9.78017693 -0.16300295 -3.17567232
v 10.43218873 0.81501474 -3.17567232
v 1.95603539 8.96516219 -3.17567232
v -0.65201180 10.26918578 -3.17567232
v -8.47615334 1.46702654 -3.17567232
v -10.43218873 -0.81501474 -3.17567232
v -10.43218873 -1.46702654 -3.17567232
v -8.47615334 -3.42306193 -3.17567232
v -2.60804718 -8.96516219 -3.17567232
v -1.30402359 -9.94317988 -3.17567232
v 0.00000000 -10.26918578 -3.17567232
g roof
f 1 2 3 4 5 6 7 8 9 10 11 12 13
g wall
f 2 1 14 15
g wall
f 3 2 15 16
g wall
f 4 3 16 17
g wall
f 5 4 17 18
g wall
f 6 5 18 19
g wall
f 7 6 19 20
g wall
f 8 7 20 21
g wall
f 9 8 21 22
g wall
f 10 9 22 23
g wall
f 11 10 23 24
g wall
f 12 11 24 25
g wall
f 13 12 25 26
g wall
f 1 13 26 14
g ground_assumed
f 26 25 24 23 22 21 20 19 18 17 16 15 14
