# Source coordinates; no display transform
v 2685796.25 1249237.75 604.125771921
v 2685797 1249238.5 604.117977231
v 2685799.75 1249241.5 604.087161105
v 2685800 1249241.875 604.08344508
v 2685796.75 1249245 604.060214534
v 2685795.75 1249245.5 604.057193917
v 2685792.75 1249242.125 604.091726065
v 2685792 1249241.25 604.100638549
v 2685792 1249241 604.102874142
v 2685792.75 1249240.25 604.108492989
v 2685795 1249238.125 604.124231738
v 2685795.5 1249237.75 604.126859843
v 2685796 1249237.625 604.127252359
v 2685796.25 1249237.75 601.897346496
v 2685797 1249238.5 601.897346496
v 2685799.75 1249241.5 601.897346496
v 2685800 1249241.875 601.897346496
v 2685796.75 1249245 601.897346496
v 2685795.75 1249245.5 601.897346496
v 2685792.75 1249242.125 601.897346496
v 2685792 1249241.25 601.897346496
v 2685792 1249241 601.897346496
v 2685792.75 1249240.25 601.897346496
v 2685795 1249238.125 601.897346496
v 2685795.5 1249237.75 601.897346496
v 2685796 1249237.625 601.897346496
g roof
f 1 2 3 4 5 6 7 8 9 10 11 12 13
g wall
f 2 1 14 15
g wall
f 3 2 15 16
g wall
f 4 3 16 17
g wall
f 5 4 17 18
g wall
f 6 5 18 19
g wall
f 7 6 19 20
g wall
f 8 7 20 21
g wall
f 9 8 21 22
g wall
f 10 9 22 23
g wall
f 11 10 23 24
g wall
f 12 11 24 25
g wall
f 13 12 25 26
g wall
f 1 13 26 14
g ground_assumed
f 26 25 24 23 22 21 20 19 18 17 16 15 14
