v 2685796.2500000019 1249237.7500000002 604.12577192132824
v 2685796.9999999995 1249238.5000000016 604.11797723105485
v 2685799.7499999995 1249241.4999999995 604.08716110527189
v 2685800.0000000014 1249241.8749999984 604.08344507970764
v 2685796.7500000014 1249245.0000000012 604.06021453371739
v 2685795.7499999981 1249245.5000000007 604.05719391735147
v 2685792.7500000005 1249242.125 604.09172606486436
v 2685791.9999999986 1249241.2500000016 604.10063854933276
v 2685791.9999999986 1249241 604.10287414155709
v 2685792.7500000005 1249240.2499999984 604.10849298929213
v 2685795.0000000005 1249238.1249999988 604.12423173830234
v 2685795.5000000005 1249237.7500000002 604.12685984259736
v 2685796 1249237.6249999993 604.12725235850246
v 2685796.2500000019 1249237.7500000002 601.89734649608317
v 2685796.9999999995 1249238.5000000016 601.89734649608317
v 2685799.7499999995 1249241.4999999995 601.89734649608317
v 2685800.0000000014 1249241.8749999984 601.89734649608317
v 2685796.7500000014 1249245.0000000012 601.89734649608317
v 2685795.7499999981 1249245.5000000007 601.89734649608317
v 2685792.7500000005 1249242.125 601.89734649608317
v 2685791.9999999986 1249241.2500000016 601.89734649608317
v 2685791.9999999986 1249241 601.89734649608317
v 2685792.7500000005 1249240.2499999984 601.89734649608317
v 2685795.0000000005 1249238.1249999988 601.89734649608317
v 2685795.5000000005 1249237.7500000002 601.89734649608317
v 2685796 1249237.6249999993 601.89734649608317
l 1 2
l 2 3
l 3 4
l 4 5
l 5 6
l 6 7
l 7 8
l 8 9
l 9 10
l 10 11
l 11 12
l 12 13
l 1 13
l 1 14
l 14 15
l 15 16
l 16 17
l 4 17
l 17 18
l 5 18
l 18 19
l 6 19
l 19 20
l 20 21
l 8 21
l 21 22
l 9 22
l 22 23
l 23 24
l 24 25
l 12 25
l 25 26
l 13 26
l 14 26
