# XYZ-only planar convex-roof baseline. Provisional base; no GT.
v 9.58117908 4.47848694 3.39764620
v 9.68615838 5.00425587 3.39799169
v 9.58263308 5.19560319 3.39810035
v 0.48694694 10.46172571 3.40033784
v -0.48985496 10.76561317 3.40041249
v -1.84586188 8.64305376 3.39890536
v -3.58630825 5.80047009 3.39689608
v -8.73174819 -2.86861040 3.39078792
v -9.42123831 -4.06293174 3.38994874
v -9.68557678 -4.64511614 3.38954833
v 0.77193231 -10.72722739 3.38695840
v 9.58117908 4.47848694 -3.74425179
v 9.68615838 5.00425587 -3.74425179
v 9.58263308 5.19560319 -3.74425179
v 0.48694694 10.46172571 -3.74425179
v -0.48985496 10.76561317 -3.74425179
v -1.84586188 8.64305376 -3.74425179
v -3.58630825 5.80047009 -3.74425179
v -8.73174819 -2.86861040 -3.74425179
v -9.42123831 -4.06293174 -3.74425179
v -9.68557678 -4.64511614 -3.74425179
v 0.77193231 -10.72722739 -3.74425179
g roof
f 1 2 3 4 5 6 7 8 9 10 11
g wall
f 2 1 12 13
g wall
f 3 2 13 14
g wall
f 4 3 14 15
g wall
f 5 4 15 16
g wall
f 6 5 16 17
g wall
f 7 6 17 18
g wall
f 8 7 18 19
g wall
f 9 8 19 20
g wall
f 10 9 20 21
g wall
f 11 10 21 22
g wall
f 1 11 22 12
g ground_assumed
f 22 21 20 19 18 17 16 15 14 13 12
