v 0.44114044656575657 0.20557974972678575 0.16866812801202233
v 0.44605334780870942 0.23018508458521028 0.16868429651619818
v 0.44120849196525203 0.23913990221367326 0.16868938166964328
v 0.015541643903631101 0.48558791505096754 0.16879409343093427
v -0.030171475431597258 0.49980947187171032 0.16879758695849431
v -0.09363092012898723 0.40047631987288446 0.16872705514079034
v -0.17508165503068532 0.26744692412019255 0.16863302332490435
v -0.41588187256657483 -0.13825530779199963 0.16834716900070754
v -0.44814915637920971 -0.19414806756246059 0.16830789641587354
v -0.46051986944191126 -0.22139357655697453 0.16828915772370576
v 0.028878606319044306 -0.50602885151025312 0.16816795220684519
v 0.44114044656575657 0.20557974972678575 -0.16556385402742452
v 0.44605334780870942 0.23018508458521028 -0.16556385402742452
v 0.44120849196525203 0.23913990221367326 -0.16556385402742452
v 0.015541643903631101 0.48558791505096754 -0.16556385402742452
v -0.030171475431597258 0.49980947187171032 -0.16556385402742452
v -0.09363092012898723 0.40047631987288446 -0.16556385402742452
v -0.17508165503068532 0.26744692412019255 -0.16556385402742452
v -0.41588187256657483 -0.13825530779199963 -0.16556385402742452
v -0.44814915637920971 -0.19414806756246059 -0.16556385402742452
v -0.46051986944191126 -0.22139357655697453 -0.16556385402742452
v 0.028878606319044306 -0.50602885151025312 -0.16556385402742452
l 1 2
l 2 3
l 3 4
l 4 5
l 5 6
l 6 7
l 7 8
l 8 9
l 9 10
l 10 11
l 1 11
l 1 12
l 12 13
l 2 13
l 13 14
l 3 14
l 14 15
l 4 15
l 15 16
l 5 16
l 16 17
l 17 18
l 18 19
l 19 20
l 20 21
l 10 21
l 21 22
l 11 22
l 12 22
