v 0.4370569466091056 0.10844337011620109 0.23859540785378516
v -0.29532129501313809 0.67954865066274439 0.23056714864494385
v -0.53474594124043962 0.37251349058067612 0.47369671067428898
v 0.20624874694196671 -0.1875421671877768 0.47297519059854715
v -0.77321954778378643 0.066697931336552219 0.23206117926184117
v -0.040841306161542718 -0.50440734920999097 0.22260896691600907
v 0.4370569466091056 0.10844337011620109 -0.47342939446549204
v -0.29532129501313809 0.67954865066274439 -0.47342939446549204
v -0.53474594124043962 0.37251349058067612 -0.47342939446549204
v -0.77321954778378643 0.066697931336552219 -0.47342939446549204
v -0.040841306161542718 -0.50440734920999097 -0.47342939446549204
v 0.20624874694196671 -0.1875421671877768 -0.47342939446549204
l 1 2
l 2 3
l 3 4
l 1 4
l 3 5
l 5 6
l 4 6
l 1 7
l 7 8
l 2 8
l 8 9
l 7 12
l 9 10
l 5 10
l 10 11
l 6 11
l 11 12
