# Source coordinates; no display transform
v 0.273686426605 -0.478848096951 0.124353285889
v 0.28507073112 -0.443634220417 0.122953401974
v 0.324427416403 -0.300488380039 0.122034828839
v 0.373206467031 -0.119712024055 0.121511748685
v 0.391739642825 -0.049233748834 0.121641564857
v 0.442531155318 0.146412933541 0.12245446486
v 0.470453014479 0.254824856728 0.123058517448
v 0.499376894666 0.371295048821 0.124447587701
v 0.502265072179 0.38623273808 0.125192099834
v 0.502265072179 0.392505894255 0.126341059025
v 0.50225665182 0.394299427344 0.126675358736
v 0.502248231462 0.395899292732 0.126974188156
v 0.502214550572 0.397061300024 0.127210238382
v 0.502197709855 0.397196025759 0.127246525845
v 0.499360053949 0.400547322444 0.129816895624
v 0.470579319856 0.405767935443 0.150617388814
v 0.108111786565 0.450510656747 0.408733554522
v -0.115458220658 -0.391388573985 0.408687107896
v -0.0504041763824 -0.40882452 0.360638874418
v 0.206534186449 -0.475109464322 0.171339495467
v 0.224688447201 -0.479445941314 0.158027888035
v 0.255405860476 -0.482771976923 0.136239055747
v -0.205153250051 0.489179858416 0.186006529803
v -0.275993600686 0.49652239794 0.135896257334
v -0.286577972235 0.495469855309 0.128802060442
v -0.295116200485 0.486485348604 0.124566123411
v -0.315316605079 0.417994274173 0.123177023779
v -0.322995958398 0.391242842662 0.12277943183
v -0.433369821299 -0.0112411589021 0.120352909977
v -0.472718086768 -0.156508925805 0.119813583759
v -0.503671269536 -0.272414954425 0.119687518855
v -0.503679689895 -0.27291175503 0.119772517306
v -0.503679689895 -0.274368474324 0.120038746332
v -0.482704614498 -0.29172280211 0.137650205435
v -0.425109464334 -0.308395082492 0.180347232286
v 0.273686426605 -0.478848096951 -0.408320141723
v 0.28507073112 -0.443634220417 -0.408320141723
v 0.324427416403 -0.300488380039 -0.408320141723
v 0.373206467031 -0.119712024055 -0.408320141723
v 0.391739642825 -0.049233748834 -0.408320141723
v 0.442531155318 0.146412933541 -0.408320141723
v 0.470453014479 0.254824856728 -0.408320141723
v 0.499376894666 0.371295048821 -0.408320141723
v 0.502265072179 0.38623273808 -0.408320141723
v 0.502265072179 0.392505894255 -0.408320141723
v 0.50225665182 0.394299427344 -0.408320141723
v 0.502248231462 0.395899292732 -0.408320141723
v 0.502214550572 0.397061300024 -0.408320141723
v 0.502197709855 0.397196025759 -0.408320141723
v 0.499360053949 0.400547322444 -0.408320141723
v 0.470579319856 0.405767935443 -0.408320141723
v 0.108111786565 0.450510656747 -0.408320141723
v -0.205153250051 0.489179858416 -0.408320141723
v -0.275993600686 0.49652239794 -0.408320141723
v -0.286577972235 0.495469855309 -0.408320141723
v -0.295116200485 0.486485348604 -0.408320141723
v -0.315316605079 0.417994274173 -0.408320141723
v -0.322995958398 0.391242842662 -0.408320141723
v -0.433369821299 -0.0112411589021 -0.408320141723
v -0.472718086768 -0.156508925805 -0.408320141723
v -0.503671269536 -0.272414954425 -0.408320141723
v -0.503679689895 -0.27291175503 -0.408320141723
v -0.503679689895 -0.274368474324 -0.408320141723
v -0.482704614498 -0.29172280211 -0.408320141723
v -0.425109464334 -0.308395082492 -0.408320141723
v -0.115458220658 -0.391388573985 -0.408320141723
v -0.0504041763824 -0.40882452 -0.408320141723
v 0.206534186449 -0.475109464322 -0.408320141723
v 0.224688447201 -0.479445941314 -0.408320141723
v 0.255405860476 -0.482771976923 -0.408320141723
g roof
f 1 2 3 4 5 6 7 8 9 10 11 12 13 14 15 16 17 18 19 20 21 22
g roof
f 17 23 24 25 26 27 28 29 30 31 32 33 34 35 18
g wall
f 2 1 36 37
g wall
f 3 2 37 38
g wall
f 4 3 38 39
g wall
f 5 4 39 40
g wall
f 6 5 40 41
g wall
f 7 6 41 42
g wall
f 8 7 42 43
g wall
f 9 8 43 44
g wall
f 10 9 44 45
g wall
f 11 10 45 46
g wall
f 12 11 46 47
g wall
f 13 12 47 48
g wall
f 14 13 48 49
g wall
f 15 14 49 50
g wall
f 16 15 50 51
g wall
f 17 16 51 52
g wall
f 19 18 66 67
g wall
f 20 19 67 68
g wall
f 21 20 68 69
g wall
f 22 21 69 70
g wall
f 1 22 70 36
g wall
f 23 17 52 53
g wall
f 24 23 53 54
g wall
f 25 24 54 55
g wall
f 26 25 55 56
g wall
f 27 26 56 57
g wall
f 28 27 57 58
g wall
f 29 28 58 59
g wall
f 30 29 59 60
g wall
f 31 30 60 61
g wall
f 32 31 61 62
g wall
f 33 32 62 63
g wall
f 34 33 63 64
g wall
f 35 34 64 65
g wall
f 18 35 65 66
g ground_assumed
f 70 69 68 67 66 65 64 63 62 61 60 59 58 57 56 55 54 53 52 51 50 49 48 47 46 45 44 43 42 41 40 39 38 37 36
