# Source coordinates; no display transform
v 0.471631291462 0.178319520265 0.0670687121788
v -0.0515827774118 0.498331648788 0.0670245889086
v -0.0545583181224 0.500149585565 0.0670243392831
v -0.0545596659155 0.500149585565 0.0670243397445
v -0.055043460459 0.499935314132 0.067024700571
v -0.0578721110907 0.497458392305 0.0670277740563
v -0.0641668350195 0.487384947201 0.0670382043422
v -0.0846411965245 0.454241627729 0.0670724279537
v -0.174453203951 0.307407856672 0.0672236927082
v -0.392585405329 -0.0492352265427 0.067591092551
v -0.436598611865 -0.121196684831 0.0676652244067
v -0.454777980093 -0.150929182682 0.0676958512883
v -0.468026413462 -0.172625833889 0.0677181939251
v -0.471119196954 -0.177793948975 0.0677234905078
v -0.471117849161 -0.177997439447 0.0677236501574
v -0.471115154036 -0.17804460621 0.0677236866092
v -0.471111111118 -0.178114682228 0.0677237401333
v -0.471108415993 -0.178118725146 0.067723741979
v -0.402281517248 -0.220215618922 0.0677295465796
v 0.0252516675496 -0.481703389118 0.0677655983173
v 0.0441304495476 -0.493247085573 0.0677671883534
v 0.0481962132991 -0.495726702986 0.0677675251863
v 0.0509938683786 -0.497430092106 0.0677677554324
v 0.056284616957 -0.500532309228 0.0677680959566
v 0.0566848593963 -0.500024257175 0.0677675371831
v 0.0648689439129 -0.48676773797 0.0677538506916
v 0.0666626236419 -0.483850144985 0.067750841343
v 0.0688713696897 -0.480241223604 0.067747123261
v 0.138489320144 -0.366429485857 0.067629875404
v 0.258388248891 -0.170392830794 0.067427926981
v 0.471632639255 0.178269658376 0.0670687509376
v 0.47163533438 0.178281787131 0.0670687403251
v 0.471638029966 0.178310087097 0.0670687167929
v 0.471631291462 0.178319520265 -0.0712297014347
v -0.0515827774118 0.498331648788 -0.0712297014347
v -0.0545583181224 0.500149585565 -0.0712297014347
v -0.0545596659155 0.500149585565 -0.0712297014347
v -0.055043460459 0.499935314132 -0.0712297014347
v -0.0578721110907 0.497458392305 -0.0712297014347
v -0.0641668350195 0.487384947201 -0.0712297014347
v -0.0846411965245 0.454241627729 -0.0712297014347
v -0.174453203951 0.307407856672 -0.0712297014347
v -0.392585405329 -0.0492352265427 -0.0712297014347
v -0.436598611865 -0.121196684831 -0.0712297014347
v -0.454777980093 -0.150929182682 -0.0712297014347
v -0.468026413462 -0.172625833889 -0.0712297014347
v -0.471119196954 -0.177793948975 -0.0712297014347
v -0.471117849161 -0.177997439447 -0.0712297014347
v -0.471115154036 -0.17804460621 -0.0712297014347
v -0.471111111118 -0.178114682228 -0.0712297014347
v -0.471108415993 -0.178118725146 -0.0712297014347
v -0.402281517248 -0.220215618922 -0.0712297014347
v 0.0252516675496 -0.481703389118 -0.0712297014347
v 0.0441304495476 -0.493247085573 -0.0712297014347
v 0.0481962132991 -0.495726702986 -0.0712297014347
v 0.0509938683786 -0.497430092106 -0.0712297014347
v 0.056284616957 -0.500532309228 -0.0712297014347
v 0.0566848593963 -0.500024257175 -0.0712297014347
v 0.0648689439129 -0.48676773797 -0.0712297014347
v 0.0666626236419 -0.483850144985 -0.0712297014347
v 0.0688713696897 -0.480241223604 -0.0712297014347
v 0.138489320144 -0.366429485857 -0.0712297014347
v 0.258388248891 -0.170392830794 -0.0712297014347
v 0.471632639255 0.178269658376 -0.0712297014347
v 0.47163533438 0.178281787131 -0.0712297014347
v 0.471638029966 0.178310087097 -0.0712297014347
g roof
f 1 2 3 4 5 6 7 8 9 10 11 12 13 14 15 16 17 18 19 20 21 22 23 24 25 26 27 28 29 30 31 32 33
g wall
f 2 1 34 35
g wall
f 3 2 35 36
g wall
f 4 3 36 37
g wall
f 5 4 37 38
g wall
f 6 5 38 39
g wall
f 7 6 39 40
g wall
f 8 7 40 41
g wall
f 9 8 41 42
g wall
f 10 9 42 43
g wall
f 11 10 43 44
g wall
f 12 11 44 45
g wall
f 13 12 45 46
g wall
f 14 13 46 47
g wall
f 15 14 47 48
g wall
f 16 15 48 49
g wall
f 17 16 49 50
g wall
f 18 17 50 51
g wall
f 19 18 51 52
g wall
f 20 19 52 53
g wall
f 21 20 53 54
g wall
f 22 21 54 55
g wall
f 23 22 55 56
g wall
f 24 23 56 57
g wall
f 25 24 57 58
g wall
f 26 25 58 59
g wall
f 27 26 59 60
g wall
f 28 27 60 61
g wall
f 29 28 61 62
g wall
f 30 29 62 63
g wall
f 31 30 63 64
g wall
f 32 31 64 65
g wall
f 33 32 65 66
g wall
f 1 33 66 34
g ground_assumed
f 66 65 64 63 62 61 60 59 58 57 56 55 54 53 52 51 50 49 48 47 46 45 44 43 42 41 40 39 38 37 36 35 34
