# XYZ-only planar convex-roof baseline. Provisional base; no GT.
v 10.21856475 3.86383488 1.44622812
v -1.12077351 10.79928633 1.44527186
v -1.18526081 10.83868550 1.44526645
v -1.18529002 10.83868550 1.44526646
v -1.19577504 10.83404171 1.44527428
v -1.25707887 10.78036071 1.44534089
v -1.39350105 10.56204433 1.44556694
v -1.83723092 9.84374692 1.44630865
v -3.78367845 6.66149725 1.44958693
v -8.51114081 -1.06783726 1.45754939
v -9.46501546 -2.62741940 1.45915601
v -9.85900717 -3.27179590 1.45981977
v -10.14613337 -3.74201580 1.46030399
v -10.21316161 -3.85402159 1.46041878
v -10.21313240 -3.85843173 1.46042224
v -10.21307399 -3.85945395 1.46042303
v -10.21298637 -3.86097267 1.46042419
v -10.21292796 -3.86106029 1.46042423
v -8.72127945 -4.77340372 1.46055003
v 0.54441826 -10.44048810 1.46133136
v 0.95356799 -10.69066845 1.46136582
v 1.04168311 -10.74440787 1.46137312
v 1.10231519 -10.78132451 1.46137811
v 1.21697875 -10.84855720 1.46138549
v 1.22565299 -10.83754646 1.46137338
v 1.40302227 -10.55024502 1.46107676
v 1.44189573 -10.48701359 1.46101154
v 1.48976470 -10.40879937 1.46093096
v 2.99855725 -7.94221854 1.45838991
v 5.59706251 -3.69362112 1.45401319
v 10.21859396 3.86275425 1.44622896
v 10.21865237 3.86301711 1.44622873
v 10.21871079 3.86363044 1.44622822
v 10.21856475 3.86383488 -1.55103932
v -1.12077351 10.79928633 -1.55103932
v -1.18526081 10.83868550 -1.55103932
v -1.18529002 10.83868550 -1.55103932
v -1.19577504 10.83404171 -1.55103932
v -1.25707887 10.78036071 -1.55103932
v -1.39350105 10.56204433 -1.55103932
v -1.83723092 9.84374692 -1.55103932
v -3.78367845 6.66149725 -1.55103932
v -8.51114081 -1.06783726 -1.55103932
v -9.46501546 -2.62741940 -1.55103932
v -9.85900717 -3.27179590 -1.55103932
v -10.14613337 -3.74201580 -1.55103932
v -10.21316161 -3.85402159 -1.55103932
v -10.21313240 -3.85843173 -1.55103932
v -10.21307399 -3.85945395 -1.55103932
v -10.21298637 -3.86097267 -1.55103932
v -10.21292796 -3.86106029 -1.55103932
v -8.72127945 -4.77340372 -1.55103932
v 0.54441826 -10.44048810 -1.55103932
v 0.95356799 -10.69066845 -1.55103932
v 1.04168311 -10.74440787 -1.55103932
v 1.10231519 -10.78132451 -1.55103932
v 1.21697875 -10.84855720 -1.55103932
v 1.22565299 -10.83754646 -1.55103932
v 1.40302227 -10.55024502 -1.55103932
v 1.44189573 -10.48701359 -1.55103932
v 1.48976470 -10.40879937 -1.55103932
v 2.99855725 -7.94221854 -1.55103932
v 5.59706251 -3.69362112 -1.55103932
v 10.21859396 3.86275425 -1.55103932
v 10.21865237 3.86301711 -1.55103932
v 10.21871079 3.86363044 -1.55103932
g roof
f 1 2 3 4 5 6 7 8 9 10 11 12 13 14 15 16 17 18 19 20 21 22 23 24 25 26 27 28 29 30 31 32 33
g wall
f 2 1 34 35
g wall
f 3 2 35 36
g wall
f 4 3 36 37
g wall
f 5 4 37 38
g wall
f 6 5 38 39
g wall
f 7 6 39 40
g wall
f 8 7 40 41
g wall
f 9 8 41 42
g wall
f 10 9 42 43
g wall
f 11 10 43 44
g wall
f 12 11 44 45
g wall
f 13 12 45 46
g wall
f 14 13 46 47
g wall
f 15 14 47 48
g wall
f 16 15 48 49
g wall
f 17 16 49 50
g wall
f 18 17 50 51
g wall
f 19 18 51 52
g wall
f 20 19 52 53
g wall
f 21 20 53 54
g wall
f 22 21 54 55
g wall
f 23 22 55 56
g wall
f 24 23 56 57
g wall
f 25 24 57 58
g wall
f 26 25 58 59
g wall
f 27 26 59 60
g wall
f 28 27 60 61
g wall
f 29 28 61 62
g wall
f 30 29 62 63
g wall
f 31 30 63 64
g wall
f 32 31 64 65
g wall
f 33 32 65 66
g wall
f 1 33 66 34
g ground_assumed
f 66 65 64 63 62 61 60 59 58 57 56 55 54 53 52 51 50 49 48 47 46 45 44 43 42 41 40 39 38 37 36 35 34
