v 0.47163129146162736 0.17831952026482903 0.067068712178751433
v -0.051582777411772869 0.49833164878814046 0.067024588908589727
v -0.054558318122352185 0.50014958556480871 0.067024339283078271
v -0.054559665915547999 0.50014958556480871 0.067024339744493261
v -0.055043460458988926 0.49993531413157483 0.067024700571018142
v -0.057872111090654904 0.49745839230534539 0.067027774056289374
v -0.064166835019490179 0.48738494720101783 0.067038204342215829
v -0.084641196524547269 0.45424162772945231 0.067072427953693503
v -0.17445320395114994 0.30740785667201015 0.06722369270815956
v -0.39258540532896186 -0.049235226542679034 0.067591092551017917
v -0.43659861186520377 -0.12119668483078243 0.067665224406692287
v -0.45477798009330078 -0.1509291826821518 0.067695851288296166
v -0.46802641346194757 -0.1726258338890489 0.067718193925108028
v -0.47111919695386745 -0.17779394897474168 0.067723490507817591
v -0.47111784916067156 -0.17799743944665405 0.067723650157405335
v -0.47111515403569498 -0.17804460621011242 0.067723686609189815
v -0.47111111111752252 -0.17811468222799456 0.067723740133329047
v -0.47110841599254594 -0.178118725146167 0.067723741978989033
v -0.40228151724845251 -0.22021561892206659 0.067729546579606364
v 0.025251667549585854 -0.48170338911833993 0.067765598317288012
v 0.044130449547553442 -0.49324708557348668 0.067767188353355351
v 0.048196213299138348 -0.49572670298610777 0.067767525186300553
v 0.050993868378620688 -0.49743009210641204 0.067767755432382282
v 0.056284616957022242 -0.50053230922787262 0.067768095956647428
v 0.05668485939628292 -0.50002425717539711 0.067767537183090393
v 0.064868943912864352 -0.4867677379704054 0.06775385069155529
v 0.066662623641912971 -0.48385014498460588 0.067750841342968132
v 0.068871369689716175 -0.48024122360386573 0.067747123260951086
v 0.13848932014420534 -0.36642948585706103 0.067629875404045636
v 0.25838824889117545 -0.1703928307936261 0.067427926981041331
v 0.47163263925482313 0.17826965837639402 0.06706875093761086
v 0.47163533437979971 0.17828178713091131 0.067068740325066017
v 0.47163802996619136 0.17831008709670335 0.067068716792901356
v 0.47163129146162736 0.17831952026482903 -0.071229701434686377
v -0.051582777411772869 0.49833164878814046 -0.071229701434686377
v -0.054558318122352185 0.50014958556480871 -0.071229701434686377
v -0.054559665915547999 0.50014958556480871 -0.071229701434686377
v -0.055043460458988926 0.49993531413157483 -0.071229701434686377
v -0.057872111090654904 0.49745839230534539 -0.071229701434686377
v -0.064166835019490179 0.48738494720101783 -0.071229701434686377
v -0.084641196524547269 0.45424162772945231 -0.071229701434686377
v -0.17445320395114994 0.30740785667201015 -0.071229701434686377
v -0.39258540532896186 -0.049235226542679034 -0.071229701434686377
v -0.43659861186520377 -0.12119668483078243 -0.071229701434686377
v -0.45477798009330078 -0.1509291826821518 -0.071229701434686377
v -0.46802641346194757 -0.1726258338890489 -0.071229701434686377
v -0.47111919695386745 -0.17779394897474168 -0.071229701434686377
v -0.47111784916067156 -0.17799743944665405 -0.071229701434686377
v -0.47111515403569498 -0.17804460621011242 -0.071229701434686377
v -0.47111111111752252 -0.17811468222799456 -0.071229701434686377
v -0.47110841599254594 -0.178118725146167 -0.071229701434686377
v -0.40228151724845251 -0.22021561892206659 -0.071229701434686377
v 0.025251667549585854 -0.48170338911833993 -0.071229701434686377
v 0.044130449547553442 -0.49324708557348668 -0.071229701434686377
v 0.048196213299138348 -0.49572670298610777 -0.071229701434686377
v 0.050993868378620688 -0.49743009210641204 -0.071229701434686377
v 0.056284616957022242 -0.50053230922787262 -0.071229701434686377
v 0.05668485939628292 -0.50002425717539711 -0.071229701434686377
v 0.064868943912864352 -0.4867677379704054 -0.071229701434686377
v 0.066662623641912971 -0.48385014498460588 -0.071229701434686377
v 0.068871369689716175 -0.48024122360386573 -0.071229701434686377
v 0.13848932014420534 -0.36642948585706103 -0.071229701434686377
v 0.25838824889117545 -0.1703928307936261 -0.071229701434686377
v 0.47163263925482313 0.17826965837639402 -0.071229701434686377
v 0.47163533437979971 0.17828178713091131 -0.071229701434686377
v 0.47163802996619136 0.17831008709670335 -0.071229701434686377
l 1 2
l 2 3
l 3 4
l 4 5
l 5 6
l 6 7
l 7 8
l 8 9
l 9 10
l 10 11
l 11 12
l 12 13
l 13 14
l 14 15
l 15 16
l 16 17
l 17 18
l 18 19
l 19 20
l 20 21
l 21 22
l 22 23
l 23 24
l 24 25
l 25 26
l 26 27
l 27 28
l 28 29
l 29 30
l 30 31
l 31 32
l 32 33
l 1 33
l 1 34
l 34 35
l 35 36
l 3 36
l 36 37
l 4 37
l 37 38
l 5 38
l 38 39
l 6 39
l 39 40
l 40 41
l 41 42
l 42 43
l 43 44
l 44 45
l 45 46
l 46 47
l 14 47
l 47 48
l 48 49
l 49 50
l 17 50
l 50 51
l 18 51
l 51 52
l 52 53
l 53 54
l 54 55
l 55 56
l 56 57
l 24 57
l 57 58
l 58 59
l 59 60
l 60 61
l 61 62
l 62 63
l 63 64
l 31 64
l 64 65
l 65 66
l 33 66
l 34 66
