v 2680413.5000002608 1247041.6250034973 439.31539189991429
v 2680413.5218834085 1247041.5101169732 439.31549059767394
v 2680413.6724262536 1247041.5387918013 439.31417873568989
v 2680413.6867870688 1247036.3629854142 439.32664132003794
v 2680413.5631639273 1247037.0120069073 439.32608375329204
v 2680412.9368420397 1247036.6129514899 439.33222167002589
v 2680412.9999901047 1247037.5000094147 439.32954440824835
v 2680413.5574435233 1247037.1359134687 439.32582976775905
v 2680413.4425569992 1247037.7390677186 439.32531160507654
v 2680413.7500235401 1247037.9999805682 439.32214042093301
v 2680414.3534066062 1247036.7697165746 439.3201522408329
v 2680414.5142409788 1247033.1753498132 439.32756216079741
v 2680414.7499970496 1247033.1250232547 439.32573921884568
v 2680415.2336078463 1247033.5861866642 439.32062787220724
v 2680415.9803156466 1247033.7284167211 439.31412090389432
v 2680415.8030481115 1247034.9089079949 439.3127140995125
v 2680416.4999831929 1247033.9999851238 439.30917290327102
v 2680416.807441934 1247033.760968423 439.30721698559864
v 2680416.6925658104 1247034.364068069 439.30669886960806
v 2680416.9253368704 1247034.7358059548 439.30387462565488
v 2680416.8246889533 1247035.2642075187 439.30342068210717
v 2680416.5000091949 1247034.875019799 439.30704570029479
v 2680416.2543594246 1247035.6020286062 439.307305433377
v 2680416.6334740319 1247035.6742409123 439.30400174876956
v 2680416.3621396455 1247037.0987464411 439.30277797270168
v 2680416.3246579953 1247037.6392362593 439.30177344784823
v 2680416.2040354661 1247038.116245189 439.30160924136823
v 2680415.9338087579 1247038.5349943996 439.30282106542427
v 2680415.5661947639 1247040.4649678702 439.30116304756234
v 2680415.5000200844 1247040.7500000247 439.30101622769661
v 2680415.5787796536 1247041.3364532935 439.29894084604695
v 2680415.0043470347 1247041.2270375569 439.30394657229732
v 2680414.7281373041 1247041.7398796203 439.30497904780492
v 2680414.0000130171 1247041.3750192206 439.31187383839216
v 2680413.7499871375 1247040.9999947024 439.31484844412432
v 2680413.2500289851 1247041.2499893797 439.31836603038971
v 2680412.7516491441 1247041.4914008502 439.32189145700153
v 2680412.2166041108 1247041.1752002912 439.32707483032561
v 2680411.0333930445 1247040.9498267544 439.33738558005842
v 2680409.1542583695 1247040.7525976084 439.35337013081573
v 2680409.3418980371 1247039.7674893506 439.35421642575102
v 2680409.6465927823 1247039.4803016428 439.35240040587183
v 2680409.8533802046 1247038.3946676769 439.35333306134686
v 2680409.4655237789 1247037.9934463056 439.35750861414834
v 2680409.534449453 1247037.6315865181 439.35781948374273
v 2680409.9310528971 1247037.3618486449 439.35520269018491
v 2680410.0831324505 1247036.5634309878 439.35588860126069
v 2680409.4111227323 1247036.4354291367 439.36174463516954
v 2680409.3246822199 1247036.8892418265 439.36135477012505
v 2680409.0000102622 1247036.9999836574 439.3637645212857
v 2680408.7412399645 1247036.7959342287 439.36639568204896
v 2680408.2587602474 1247036.7040333299 439.37060011211622
v 2680407.7483363547 1247036.3836386746 439.37559052565041
v 2680407.0016285544 1247036.2414086177 439.3820974945192
v 2680406.7499723597 1247036.0000101479 439.3847607415039
v 2680406.2527496004 1247036.2356440099 439.38829066498926
v 2680405.7128266217 1247036.1328015379 439.39299566712572
v 2680405.7817522953 1247035.7709417504 439.3933065367201
v 2680406.2182555608 1247035.8540852296 439.38950275530021
v 2680406.7067677043 1247033.2893964776 439.39170604937988
v 2680406.3246576851 1247032.3892284257 439.39704700115919
v 2680406.4253160032 1247031.8607722584 439.39750099139877
v 2680406.7499983613 1247031.7499758236 439.39509128693004
v 2680407.0000112397 1247032.0000017034 439.39242062816385
v 2680407.7286373619 1247031.9870267855 439.38644011923742
v 2680408.4901402085 1247032.301716638 439.37939186741909
v 2680409.4780878671 1247032.489897144 439.37078268351672
v 2680409.750007295 1247032.7499805349 439.36790682223608
v 2680410.2500200514 1247032.4999962582 439.36438876015808
v 2680410.4999913271 1247032.8750103761 439.36141462968266
v 2680410.9874165938 1247032.5660435285 439.35814380171286
v 2680412.2625805619 1247032.8089319034 439.34703175468525
v 2680410.5574267888 1247035.01094181 439.35574880796838
v 2680410.0000253739 1247035.2499949133 439.35976696685884
v 2680410.4425506657 1247035.6140414556 439.35523069197779
v 2680410.4999939278 1247035.6249830294 439.35473011935272
v 2680410.0344804106 1247035.8815951745 439.35794741006907
v 2680410.7499912051 1247036.2499944246 439.35114809438949
v 2680412.9983467888 1247033.0086052227 439.34047543693663
v 2680413.2358007794 1247032.9496616544 439.33865943095384
v 2680413.7642023433 1247033.0503095714 439.33405482860763
v 2680413.9857848114 1247033.0746914956 439.33216723895629
v 2680412.8132084971 1247037.2620275868 439.33166405658812
v 2680414.146629585 1247037.855295937 439.31921963260567
v 2680415.5618082536 1247034.8629575458 439.31481631399026
v 2680415.9999964386 1247035.1250040755 439.31056376237279
v 2680409.9655547366 1247036.243454962 439.35763654047469
v 2680410.2499784487 1247036.4999787011 439.35466615646749
v 2680415.446932131 1247035.4660571914 439.31429819799962
v 2680415.6881719888 1247035.5120076409 439.31219598352186
v 2680413.6724262536 1247041.5387918013 436.11889404282971
v 2680413.5000002608 1247041.6250034973 436.11889404282971
v 2680413.5218834085 1247041.5101169732 436.11889404282971
v 2680415.5661947639 1247040.4649678702 436.11889404282971
v 2680415.5000200844 1247040.7500000247 436.11889404282971
v 2680415.5787796536 1247041.3364532935 436.11889404282971
v 2680415.0043470347 1247041.2270375569 436.11889404282971
v 2680414.7281373041 1247041.7398796203 436.11889404282971
v 2680414.0000130171 1247041.3750192206 436.11889404282971
v 2680413.7499871375 1247040.9999947024 436.11889404282971
v 2680413.2500289851 1247041.2499893797 436.11889404282971
v 2680412.7516491441 1247041.4914008502 436.11889404282971
v 2680412.2166041108 1247041.1752002912 436.11889404282971
v 2680411.0333930445 1247040.9498267544 436.11889404282971
v 2680409.1542583695 1247040.7525976084 436.11889404282971
v 2680409.3418980371 1247039.7674893506 436.11889404282971
v 2680409.6465927823 1247039.4803016428 436.11889404282971
v 2680409.8533802046 1247038.3946676769 436.11889404282971
v 2680409.4655237789 1247037.9934463056 436.11889404282971
v 2680409.534449453 1247037.6315865181 436.11889404282971
v 2680409.9310528971 1247037.3618486449 436.11889404282971
v 2680410.0831324505 1247036.5634309878 436.11889404282971
v 2680409.4111227323 1247036.4354291367 436.11889404282971
v 2680409.3246822199 1247036.8892418265 436.11889404282971
v 2680409.0000102622 1247036.9999836574 436.11889404282971
v 2680408.7412399645 1247036.7959342287 436.11889404282971
v 2680408.2587602474 1247036.7040333299 436.11889404282971
v 2680407.7483363547 1247036.3836386746 436.11889404282971
v 2680407.0016285544 1247036.2414086177 436.11889404282971
v 2680406.7499723597 1247036.0000101479 436.11889404282971
v 2680406.2527496004 1247036.2356440099 436.11889404282971
v 2680405.7128266217 1247036.1328015379 436.11889404282971
v 2680405.7817522953 1247035.7709417504 436.11889404282971
v 2680406.2182555608 1247035.8540852296 436.11889404282971
v 2680406.7067677043 1247033.2893964776 436.11889404282971
v 2680406.3246576851 1247032.3892284257 436.11889404282971
v 2680406.4253160032 1247031.8607722584 436.11889404282971
v 2680406.7499983613 1247031.7499758236 436.11889404282971
v 2680407.0000112397 1247032.0000017034 436.11889404282971
v 2680407.7286373619 1247031.9870267855 436.11889404282971
v 2680408.4901402085 1247032.301716638 436.11889404282971
v 2680409.4780878671 1247032.489897144 436.11889404282971
v 2680409.750007295 1247032.7499805349 436.11889404282971
v 2680410.2500200514 1247032.4999962582 436.11889404282971
v 2680410.4999913271 1247032.8750103761 436.11889404282971
v 2680410.9874165938 1247032.5660435285 436.11889404282971
v 2680412.2625805619 1247032.8089319034 436.11889404282971
v 2680412.9983467888 1247033.0086052227 436.11889404282971
v 2680413.2358007794 1247032.9496616544 436.11889404282971
v 2680413.7642023433 1247033.0503095714 436.11889404282971
v 2680413.9857848114 1247033.0746914956 436.11889404282971
v 2680414.5142409788 1247033.1753498132 436.11889404282971
v 2680414.7499970496 1247033.1250232547 436.11889404282971
v 2680415.2336078463 1247033.5861866642 436.11889404282971
v 2680415.9803156466 1247033.7284167211 436.11889404282971
v 2680416.4999831929 1247033.9999851238 436.11889404282971
v 2680416.807441934 1247033.760968423 436.11889404282971
v 2680416.6925658104 1247034.364068069 436.11889404282971
v 2680416.9253368704 1247034.7358059548 436.11889404282971
v 2680416.8246889533 1247035.2642075187 436.11889404282971
v 2680416.5000091949 1247034.875019799 436.11889404282971
v 2680415.9999964386 1247035.1250040755 436.11889404282971
v 2680416.2543594246 1247035.6020286062 436.11889404282971
v 2680416.6334740319 1247035.6742409123 436.11889404282971
v 2680416.3621396455 1247037.0987464411 436.11889404282971
v 2680416.3246579953 1247037.6392362593 436.11889404282971
v 2680416.2040354661 1247038.116245189 436.11889404282971
v 2680415.9338087579 1247038.5349943996 436.11889404282971
v 2680413.5631639273 1247037.0120069073 436.11889404282971
v 2680412.9368420397 1247036.6129514899 436.11889404282971
v 2680412.8132084971 1247037.2620275868 436.11889404282971
v 2680412.9999901047 1247037.5000094147 436.11889404282971
v 2680413.5574435233 1247037.1359134687 436.11889404282971
v 2680413.4425569992 1247037.7390677186 436.11889404282971
v 2680413.7500235401 1247037.9999805682 436.11889404282971
v 2680414.146629585 1247037.855295937 436.11889404282971
v 2680414.3534066062 1247036.7697165746 436.11889404282971
v 2680413.6867870688 1247036.3629854142 436.11889404282971
v 2680409.9655547366 1247036.243454962 436.11889404282971
v 2680410.2499784487 1247036.4999787011 436.11889404282971
v 2680410.7499912051 1247036.2499944246 436.11889404282971
v 2680410.4999939278 1247035.6249830294 436.11889404282971
v 2680410.0344804106 1247035.8815951745 436.11889404282971
v 2680410.0000253739 1247035.2499949133 436.11889404282971
v 2680410.4425506657 1247035.6140414556 436.11889404282971
v 2680410.5574267888 1247035.01094181 436.11889404282971
v 2680415.6881719888 1247035.5120076409 436.11889404282971
v 2680415.8030481115 1247034.9089079949 436.11889404282971
v 2680415.5618082536 1247034.8629575458 436.11889404282971
v 2680415.446932131 1247035.4660571914 436.11889404282971
l 1 2
l 2 3
l 1 3
l 4 5
l 5 6
l 7 8
l 8 9
l 9 10
l 4 11
l 12 13
l 13 14
l 14 15
l 15 17
l 17 18
l 18 19
l 19 20
l 20 21
l 21 22
l 23 24
l 24 25
l 25 26
l 26 27
l 27 28
l 28 29
l 29 30
l 30 31
l 31 32
l 32 33
l 3 33
l 3 34
l 34 35
l 1 36
l 1 37
l 37 38
l 38 39
l 39 40
l 40 41
l 41 42
l 42 43
l 43 44
l 44 45
l 45 46
l 46 47
l 48 49
l 49 50
l 50 51
l 51 52
l 52 53
l 53 54
l 54 55
l 55 56
l 56 57
l 57 58
l 58 59
l 59 60
l 60 61
l 61 62
l 62 63
l 63 64
l 64 65
l 65 66
l 66 67
l 67 68
l 68 69
l 69 70
l 70 71
l 71 72
l 73 74
l 73 75
l 76 77
l 76 78
l 72 79
l 79 80
l 80 81
l 81 82
l 12 82
l 6 83
l 7 83
l 11 84
l 16 85
l 22 86
l 23 86
l 35 36
l 74 75
l 77 87
l 78 88
l 85 89
l 89 90
l 16 90
l 87 88
l 47 48
l 10 84
l 3 91
l 91 92
l 1 92
l 92 93
l 2 93
l 91 93
l 94 95
l 30 95
l 95 96
l 31 96
l 96 97
l 32 97
l 97 98
l 33 98
l 91 98
l 91 99
l 34 99
l 99 100
l 35 100
l 100 101
l 36 101
l 92 101
l 92 102
l 37 102
l 102 103
l 38 103
l 103 104
l 104 105
l 40 105
l 105 106
l 41 106
l 106 107
l 42 107
l 107 108
l 43 108
l 108 109
l 44 109
l 109 110
l 45 110
l 110 111
l 46 111
l 111 112
l 47 112
l 112 113
l 48 113
l 113 114
l 49 114
l 114 115
l 50 115
l 115 116
l 51 116
l 116 117
l 52 117
l 117 118
l 53 118
l 118 119
l 54 119
l 119 120
l 55 120
l 120 121
l 56 121
l 121 122
l 57 122
l 122 123
l 58 123
l 123 124
l 59 124
l 124 125
l 60 125
l 125 126
l 61 126
l 126 127
l 62 127
l 127 128
l 63 128
l 128 129
l 64 129
l 129 130
l 65 130
l 130 131
l 66 131
l 131 132
l 67 132
l 132 133
l 68 133
l 133 134
l 69 134
l 134 135
l 70 135
l 135 136
l 71 136
l 136 137
l 137 138
l 79 138
l 138 139
l 80 139
l 139 140
l 140 141
l 141 142
l 12 142
l 142 143
l 13 143
l 143 144
l 14 144
l 144 145
l 15 145
l 145 146
l 17 146
l 146 147
l 18 147
l 147 148
l 19 148
l 148 149
l 20 149
l 149 150
l 21 150
l 150 151
l 22 151
l 151 152
l 86 152
l 152 153
l 23 153
l 153 154
l 24 154
l 154 155
l 155 156
l 26 156
l 156 157
l 27 157
l 157 158
l 28 158
l 94 158
l 5 159
l 159 160
l 6 160
l 160 161
l 83 161
l 161 162
l 7 162
l 162 163
l 8 163
l 163 164
l 9 164
l 164 165
l 10 165
l 165 166
l 84 166
l 166 167
l 11 167
l 167 168
l 4 168
l 159 168
l 87 169
l 169 170
l 88 170
l 170 171
l 78 171
l 171 172
l 76 172
l 172 173
l 77 173
l 169 173
l 74 174
l 174 175
l 75 175
l 175 176
l 73 176
l 174 176
l 90 177
l 177 178
l 16 178
l 178 179
l 85 179
l 179 180
l 89 180
l 177 180
