# Source coordinates; no display transform
v -0.103850696947 0.502472635646 0.386224167982
v -0.194346011264 0.182400188929 0.387119317231
v -0.258169934832 -0.0453972752097 0.38744082272
v -0.29270021254 -0.168745570444 0.38759905716
v -0.314048350369 -0.245381526202 0.387640214385
v -0.339538546394 -0.337522639449 0.387593666796
v -0.343554610702 -0.361052051578 0.386230205757
v -0.343554610702 -0.372029293761 0.384578399835
v -0.339554295813 -0.376596582372 0.381722532165
v -0.323938892877 -0.384447594376 0.372075914853
v -0.295062603454 -0.392637215721 0.355189514769
v -0.00113394755711 -0.475297267453 0.183410172453
v 0.0627057249418 -0.493149066925 0.14611592662
v 0.0877628160886 -0.499314906696 0.131604473303
v 0.109103078963 -0.504394046793 0.119271463272
v 0.111355224918 -0.497165131233 0.119138332233
v 0.124497991982 -0.451807229116 0.118838789349
v 0.161201669526 -0.320970155102 0.118629215994
v 0.30060634704 0.176163477504 0.117863292801
v 0.354311363229 0.368784943605 0.11773419916
v 0.354342861579 0.370186628733 0.117928043128
v 0.354374360418 0.372478147993 0.118255784768
v 0.354374360418 0.374257815765 0.118523581575
v 0.354342861579 0.37629734627 0.118847556508
v 0.248791243582 0.406157965363 0.180561208377
v -0.0471296950496 0.488857390399 0.353426507188
v -0.0742026933047 0.496117804309 0.369195506174
v -0.0867233639241 0.498858177866 0.376395419212
v -0.103850696947 0.502472635646 -0.387558114924
v -0.194346011264 0.182400188929 -0.387558114924
v -0.258169934832 -0.0453972752097 -0.387558114924
v -0.29270021254 -0.168745570444 -0.387558114924
v -0.314048350369 -0.245381526202 -0.387558114924
v -0.339538546394 -0.337522639449 -0.387558114924
v -0.343554610702 -0.361052051578 -0.387558114924
v -0.343554610702 -0.372029293761 -0.387558114924
v -0.339554295813 -0.376596582372 -0.387558114924
v -0.323938892877 -0.384447594376 -0.387558114924
v -0.295062603454 -0.392637215721 -0.387558114924
v -0.00113394755711 -0.475297267453 -0.387558114924
v 0.0627057249418 -0.493149066925 -0.387558114924
v 0.0877628160886 -0.499314906696 -0.387558114924
v 0.109103078963 -0.504394046793 -0.387558114924
v 0.111355224918 -0.497165131233 -0.387558114924
v 0.124497991982 -0.451807229116 -0.387558114924
v 0.161201669526 -0.320970155102 -0.387558114924
v 0.30060634704 0.176163477504 -0.387558114924
v 0.354311363229 0.368784943605 -0.387558114924
v 0.354342861579 0.370186628733 -0.387558114924
v 0.354374360418 0.372478147993 -0.387558114924
v 0.354374360418 0.374257815765 -0.387558114924
v 0.354342861579 0.37629734627 -0.387558114924
v 0.248791243582 0.406157965363 -0.387558114924
v -0.0471296950496 0.488857390399 -0.387558114924
v -0.0742026933047 0.496117804309 -0.387558114924
v -0.0867233639241 0.498858177866 -0.387558114924
g roof
f 1 2 3 4 5 6 7 8 9 10 11 12 13 14 15 16 17 18 19 20 21 22 23 24 25 26 27 28
g wall
f 2 1 29 30
g wall
f 3 2 30 31
g wall
f 4 3 31 32
g wall
f 5 4 32 33
g wall
f 6 5 33 34
g wall
f 7 6 34 35
g wall
f 8 7 35 36
g wall
f 9 8 36 37
g wall
f 10 9 37 38
g wall
f 11 10 38 39
g wall
f 12 11 39 40
g wall
f 13 12 40 41
g wall
f 14 13 41 42
g wall
f 15 14 42 43
g wall
f 16 15 43 44
g wall
f 17 16 44 45
g wall
f 18 17 45 46
g wall
f 19 18 46 47
g wall
f 20 19 47 48
g wall
f 21 20 48 49
g wall
f 22 21 49 50
g wall
f 23 22 50 51
g wall
f 24 23 51 52
g wall
f 25 24 52 53
g wall
f 26 25 53 54
g wall
f 27 26 54 55
g wall
f 28 27 55 56
g wall
f 1 28 56 29
g ground_assumed
f 56 55 54 53 52 51 50 49 48 47 46 45 44 43 42 41 40 39 38 37 36 35 34 33 32 31 30 29
