# XYZ-only planar convex-roof baseline. Provisional base; no GT.
v -2.13686669 10.29133628 7.90452228
v -3.98895749 3.74068514 7.92284254
v -5.29518757 -0.92145224 7.92942252
v -6.00188946 -3.44591712 7.93266097
v -6.43880368 -5.01436019 7.93350330
v -6.96048989 -6.90013416 7.93255065
v -7.04268327 -7.38169067 7.90464585
v -7.04268327 -7.60635257 7.87083974
v -6.96081222 -7.69982739 7.81239112
v -6.64122502 -7.86050739 7.61496199
v -6.05023851 -8.02811742 7.26936237
v -0.03465015 -9.71985055 3.75370035
v 1.27190225 -10.08520818 2.99043067
v 1.78472447 -10.21139919 2.69343707
v 2.22147752 -10.31534964 2.44102782
v 2.26757028 -10.16740156 2.43830314
v 2.53655214 -9.23909987 2.43217265
v 3.28773516 -6.56136851 2.42788349
v 6.14081239 3.61304366 2.41220799
v 7.23994738 7.55526374 2.40956594
v 7.24059203 7.58395084 2.41353318
v 7.24123669 7.63084942 2.42024079
v 7.24123669 7.66727237 2.42572156
v 7.24059203 7.70901371 2.43235208
v 5.08035664 8.32014566 3.69539302
v -0.97600608 10.01268461 7.23328039
v -1.53008616 10.16127734 7.55601111
v -1.78633610 10.21736224 7.70336562
v -2.13686669 10.29133628 -7.93182304
v -3.98895749 3.74068514 -7.93182304
v -5.29518757 -0.92145224 -7.93182304
v -6.00188946 -3.44591712 -7.93182304
v -6.43880368 -5.01436019 -7.93182304
v -6.96048989 -6.90013416 -7.93182304
v -7.04268327 -7.38169067 -7.93182304
v -7.04268327 -7.60635257 -7.93182304
v -6.96081222 -7.69982739 -7.93182304
v -6.64122502 -7.86050739 -7.93182304
v -6.05023851 -8.02811742 -7.93182304
v -0.03465015 -9.71985055 -7.93182304
v 1.27190225 -10.08520818 -7.93182304
v 1.78472447 -10.21139919 -7.93182304
v 2.22147752 -10.31534964 -7.93182304
v 2.26757028 -10.16740156 -7.93182304
v 2.53655214 -9.23909987 -7.93182304
v 3.28773516 -6.56136851 -7.93182304
v 6.14081239 3.61304366 -7.93182304
v 7.23994738 7.55526374 -7.93182304
v 7.24059203 7.58395084 -7.93182304
v 7.24123669 7.63084942 -7.93182304
v 7.24123669 7.66727237 -7.93182304
v 7.24059203 7.70901371 -7.93182304
v 5.08035664 8.32014566 -7.93182304
v -0.97600608 10.01268461 -7.93182304
v -1.53008616 10.16127734 -7.93182304
v -1.78633610 10.21736224 -7.93182304
g roof
f 1 2 3 4 5 6 7 8 9 10 11 12 13 14 15 16 17 18 19 20 21 22 23 24 25 26 27 28
g wall
f 2 1 29 30
g wall
f 3 2 30 31
g wall
f 4 3 31 32
g wall
f 5 4 32 33
g wall
f 6 5 33 34
g wall
f 7 6 34 35
g wall
f 8 7 35 36
g wall
f 9 8 36 37
g wall
f 10 9 37 38
g wall
f 11 10 38 39
g wall
f 12 11 39 40
g wall
f 13 12 40 41
g wall
f 14 13 41 42
g wall
f 15 14 42 43
g wall
f 16 15 43 44
g wall
f 17 16 44 45
g wall
f 18 17 45 46
g wall
f 19 18 46 47
g wall
f 20 19 47 48
g wall
f 21 20 48 49
g wall
f 22 21 49 50
g wall
f 23 22 50 51
g wall
f 24 23 51 52
g wall
f 25 24 52 53
g wall
f 26 25 53 54
g wall
f 27 26 54 55
g wall
f 28 27 55 56
g wall
f 1 28 56 29
g ground_assumed
f 56 55 54 53 52 51 50 49 48 47 46 45 44 43 42 41 40 39 38 37 36 35 34 33 32 31 30 29
