v -0.1038506969468472 0.50247263564584865 0.38622416798239739
v -0.19434601126429293 0.1824001889287471 0.3871193172305214
v -0.25816993483245831 -0.045397275209735188 0.38744082271950847
v -0.29270021254037792 -0.16874557044393909 0.38759905715955389
v -0.31404835036853496 -0.24538152620197728 0.38764021438473373
v -0.33953854639403591 -0.33752263944912886 0.38759366679582258
v -0.34355461070249926 -0.36105205157841658 0.38623020575656603
v -0.34355461070249926 -0.37202929376095673 0.38457839983522563
v -0.33955429581337548 -0.37659658237157273 0.38172253216484953
v -0.32393889287749755 -0.38444759437623643 0.37207591485279884
v -0.29506260345377155 -0.39263721572072258 0.35518951476923388
v -0.0011339475571125045 -0.47529726745284412 0.18341017245307631
v 0.062705724941780672 -0.49314906692462329 0.14611592661989348
v 0.087762816088645793 -0.49931490669553835 0.13160447330331218
v 0.10910307896282728 -0.50439404679287581 0.11927146327195694
v 0.11135522491806803 -0.49716513123308659 0.11913833223269339
v 0.12449799198239941 -0.45180722911621085 0.11883878934879702
v 0.16120166952608578 -0.3209701551018691 0.11862921599399291
v 0.30060634704016742 0.17616347750372194 0.11786329280081949
v 0.35431136322908896 0.36878494360470687 0.11773419915962628
v 0.35434286157915618 0.37018662873340358 0.11792804312816862
v 0.3543743604178351 0.37247814799268714 0.11825578476765457
v 0.3543743604178351 0.37425781576524914 0.11852358157537676
v 0.35434286157915618 0.37629734626954808 0.11884755650764688
v 0.24879124358196078 0.40615796536267434 0.18056120837671405
v -0.047129695049590435 0.48885739039883869 0.3534265071881284
v -0.07420269330466274 0.49611780430869518 0.36919550617365088
v -0.086723363924119751 0.4988581778659541 0.37639541921168507
v -0.1038506969468472 0.50247263564584865 -0.38755811492350051
v -0.19434601126429293 0.1824001889287471 -0.38755811492350051
v -0.25816993483245831 -0.045397275209735188 -0.38755811492350051
v -0.29270021254037792 -0.16874557044393909 -0.38755811492350051
v -0.31404835036853496 -0.24538152620197728 -0.38755811492350051
v -0.33953854639403591 -0.33752263944912886 -0.38755811492350051
v -0.34355461070249926 -0.36105205157841658 -0.38755811492350051
v -0.34355461070249926 -0.37202929376095673 -0.38755811492350051
v -0.33955429581337548 -0.37659658237157273 -0.38755811492350051
v -0.32393889287749755 -0.38444759437623643 -0.38755811492350051
v -0.29506260345377155 -0.39263721572072258 -0.38755811492350051
v -0.0011339475571125045 -0.47529726745284412 -0.38755811492350051
v 0.062705724941780672 -0.49314906692462329 -0.38755811492350051
v 0.087762816088645793 -0.49931490669553835 -0.38755811492350051
v 0.10910307896282728 -0.50439404679287581 -0.38755811492350051
v 0.11135522491806803 -0.49716513123308659 -0.38755811492350051
v 0.12449799198239941 -0.45180722911621085 -0.38755811492350051
v 0.16120166952608578 -0.3209701551018691 -0.38755811492350051
v 0.30060634704016742 0.17616347750372194 -0.38755811492350051
v 0.35431136322908896 0.36878494360470687 -0.38755811492350051
v 0.35434286157915618 0.37018662873340358 -0.38755811492350051
v 0.3543743604178351 0.37247814799268714 -0.38755811492350051
v 0.3543743604178351 0.37425781576524914 -0.38755811492350051
v 0.35434286157915618 0.37629734626954808 -0.38755811492350051
v 0.24879124358196078 0.40615796536267434 -0.38755811492350051
v -0.047129695049590435 0.48885739039883869 -0.38755811492350051
v -0.07420269330466274 0.49611780430869518 -0.38755811492350051
v -0.086723363924119751 0.4988581778659541 -0.38755811492350051
l 1 2
l 2 3
l 3 4
l 4 5
l 5 6
l 6 7
l 7 8
l 8 9
l 9 10
l 10 11
l 11 12
l 12 13
l 13 14
l 14 15
l 15 16
l 16 17
l 17 18
l 18 19
l 19 20
l 20 21
l 21 22
l 22 23
l 23 24
l 24 25
l 25 26
l 26 27
l 27 28
l 1 28
l 1 29
l 29 30
l 30 31
l 31 32
l 32 33
l 33 34
l 34 35
l 35 36
l 8 36
l 36 37
l 9 37
l 37 38
l 10 38
l 38 39
l 39 40
l 40 41
l 41 42
l 42 43
l 15 43
l 43 44
l 44 45
l 45 46
l 46 47
l 47 48
l 20 48
l 48 49
l 49 50
l 50 51
l 51 52
l 24 52
l 52 53
l 53 54
l 54 55
l 55 56
l 29 56
