# pointcloud_to_mesh 0.5.1; candidate requires geometry validation; coordinates preserved
v -0.200444619 -1.904127071 3.416221422
v -0.204699493 0.093439547 4.494994511
v -1.848990279 -0.291707544 4.292564543
v -1.849013917 -0.291731875 4.292551484
v -1.849038787 -0.291707551 4.292564704
v -4.334327091 -0.292054179 4.300786521
v -4.334296743 -0.292054175 4.300786421
v -9.201087647 -0.292732956 4.316886713
v -9.201105807 -0.292750739 4.316877171
v -9.201123664 -0.292732961 4.316886832
v -0.205654541 0.541813064 4.737135764
v -0.665599421 0.540231895 4.737838106
v -1.041980431 0.538937996 4.738412844
v -1.011496320 0.570314926 4.755254385
v -1.430312016 0.574111604 4.758721798
v -1.432115651 0.537596815 4.739008586
v -2.692545144 0.533263792 4.740933277
v -5.230995224 0.524537272 4.744809522
v -5.326019871 0.439856448 4.699400312
v -5.504673560 0.523596402 4.745227412
v -6.872324986 0.518894815 4.747315853
v -6.871196734 0.623434754 4.803767408
v -6.940619572 0.624064091 4.804342167
v -6.940202920 0.518661468 4.747419503
v -8.378013802 0.513718655 4.749615058
v -8.378019028 0.513713585 4.749612338
v -8.296531648 0.433529173 4.706034123
v -8.441890128 0.433219555 4.706358741
v -8.441596616 0.451419916 4.716186605
v -8.440595422 0.513503495 4.749710610
v -10.004407536 0.508127544 4.752098582
v -10.430672627 0.506662157 4.752749494
v -11.178999082 0.504089609 4.753892198
v -11.167773644 -4.765998436 1.907814821
v -9.395605338 -3.186737928 2.754676829
v -9.436000319 -3.148925649 2.775233513
v -8.861327339 -2.625680795 3.055860368
v -8.794313494 -2.650899170 3.042014785
v -8.487213374 -2.377228159 3.188768016
v -8.487212781 -2.377190358 3.188788427
v -6.923046610 -3.821463092 2.403536195
v -6.923046329 -3.821534213 2.403497786
v -6.923010040 -3.821496858 2.403517836
v -5.069202428 -5.533210074 1.472858002
v -5.454319589 -5.534030385 1.473718054
v -5.443076726 -6.886557605 0.743266077
v -4.886449010 -7.407596761 0.460002607
v -5.061351847 -7.586598010 0.363927202
v -1.837359161 -7.579730813 0.356727312
v -1.072704445 -6.618699901 0.873131770
v -0.104806640 -6.616638251 0.870970240
v -0.107136887 -5.522640732 1.461776609
v -1.755167346 -6.003235967 1.207813823
v -1.755190990 -6.003256676 1.207802719
v -1.755188891 -6.003214822 1.207825314
v -0.192736692 -5.522823062 1.461967773
v -0.198940560 -2.610248218 3.034885209
v -5.466941071 -4.015650124 2.293741374
v -5.466941344 -4.015621136 2.293757030
v -0.200295686 -1.974047369 3.378461412
v -0.153605853 -2.016172558 3.355554301
v -0.153747229 -1.949799779 3.391398496
v -4.334312093 -0.292067839 4.300779094
v -5.503974286 0.439477400 4.699797723
v -8.487192204 -2.377209294 3.188778132
v -7.775601249 -3.034256786 2.831540889
v -6.919206767 -3.825008611 2.401608494
v -6.056060663 -4.621994545 1.968286608
v -5.466955555 -4.015635735 2.293749194
v -0.114665722 -1.988023730 3.370623938
v -0.118279438 -0.291466158 4.286839015
v -0.157279515 -0.291471598 4.286968035
v -5.324138898 0.609410241 4.790959168
v -5.230971362 0.524558537 4.744820925
v -5.137652021 0.607719685 4.789415225
v -0.107136887 -5.522640732 2.379276916
v -0.104806640 -6.616638251 1.792209726
v 0.313292411 -6.615747688 1.792762587
v 0.278570531 -5.789499494 2.236142697
v 0.664718254 -5.452296503 2.417163852
v 1.330085007 -5.450879253 2.418043680
v 1.005188139 -5.154981624 2.576771816
v 1.367619735 -4.838488710 2.746675151
v 2.124223427 -4.177785533 3.101361365
v 0.221928404 -4.441633108 2.959432807
v 0.221927332 -4.441606765 2.959446943
v 2.184193391 -4.125416875 3.129474505
v 3.216996691 -3.223522719 3.613639610
v 5.321712827 -1.385582125 4.600303837
v 0.130784646 -2.272759626 4.123290556
v 0.130803910 -2.272777007 4.123281233
v 5.422539083 -1.297535706 4.647569920
v 5.422539042 -1.297469506 4.647605445
v 5.422577312 -1.297502324 4.647587840
v 5.657660354 -1.499977261 4.538976655
v 8.912891382 -4.303677762 3.035021461
v 9.053828714 -4.604725575 2.873496620
v 9.549418869 -4.851913024 2.740938242
v 11.241364184 -6.309169939 1.959239517
v 11.228542931 -0.289883593 5.189343298
v 1.155002540 -1.224643595 4.685920595
v 1.154998904 -1.224582609 4.685953321
v 11.226687680 0.581114431 5.656743227
v 6.575707950 -0.290532534 5.188160845
v 6.575691689 -0.290546779 5.188153198
v 6.575677978 -0.290532538 5.188160838
v 4.253812893 -0.290856373 5.187570768
v 5.754902615 0.562303882 5.645667951
v 5.754869979 0.562303770 5.645667885
v 5.754887762 0.562319316 5.645676230
v 11.226348154 0.740514069 5.742281171
v 7.752144851 0.736773299 5.739650880
v 7.768885363 0.719549543 5.730411165
v 7.732313391 0.719471644 5.730362805
v 7.752126343 0.736773279 5.739650866
v 5.952221311 0.734835271 5.738288173
v 6.024282464 0.797833675 5.772107680
v 5.529242007 0.796779225 5.771453078
v 5.589233395 0.734444467 5.738013376
v 5.607998068 0.714946791 5.727553780
v 5.229991361 0.714141626 5.727053934
v 5.249357130 0.734078478 5.737756040
v 4.876107094 0.733676590 5.737473456
v 3.066543078 0.731728182 5.736103450
v 3.092248675 0.709588173 5.724227152
v 3.044786074 0.709487076 5.724164392
v 3.066517920 0.731728155 5.736103431
v 1.040029540 0.729546179 5.734569193
v 0.004663953 0.728431372 5.733785327
v -0.120451562 0.728296657 5.733690603
v -0.201851560 0.728209012 5.733628976
v -0.201499601 0.562972078 5.644958590
v -0.205699692 0.563010153 5.644978269
v -0.200444619 -1.904127057 4.321049023
v -0.153747229 -1.949799779 4.296548221
v -0.153605853 -2.016172570 4.260930875
v -0.200295686 -1.974047413 4.283527963
v -0.192736692 -5.522823062 2.379163726
v 0.221914217 -4.441620188 2.959439738
v 0.130786140 -2.272795193 4.123271471
v 4.253781111 -0.290856378 5.187570760
v 4.253795549 -0.290841474 5.187578761
v 1.154969973 -1.224612164 4.685937455
v 11.224506323 1.605212108 5.272701122
v 3.888741953 1.573218962 5.280244430
v 3.888727260 1.573203951 5.280252561
v 11.213864511 6.601300774 2.559624129
v 8.796669994 6.596152080 2.559180942
v 8.770820591 6.569696960 2.573512421
v 5.417993113 3.138304316 4.432393879
v 5.417948578 3.138350136 4.432368937
v 5.417295062 3.769847520 4.089441398
v 5.077283195 3.769123285 4.089379057
v 4.844841287 4.258029287 3.823573359
v 4.088643002 4.256418563 3.823434712
v 3.537091272 5.252121486 3.281991741
v 3.288765434 5.700418080 3.038217183
v 2.810414754 6.068089422 2.837916908
v 2.738213954 6.123584619 2.807684192
v 2.627369799 6.009483740 2.869496696
v 2.099504416 6.552586859 2.573864062
v 2.071085251 6.581826392 2.557947821
v -0.241109504 6.576901351 2.557523886
v -0.240117834 6.553303409 2.570339778
v -0.218459286 6.553349543 2.570343749
v -0.217302771 6.010392006 2.865191519
v -0.212878511 5.905111508 2.922368690
v -0.215284099 5.062671224 3.379842002
v -0.219391547 5.066163645 3.377939984
v -0.219230915 4.990750455 3.418892378
v -0.215138673 4.994397239 3.416917521
v -0.210946621 4.998132969 3.414894498
v -0.207503300 3.381571961 4.292752112
v -0.211695361 3.377840246 4.294772955
v -0.215787610 3.374197359 4.296745695
v -0.215168265 3.083428753 4.454644738
v -0.211077226 3.087639991 4.452363360
v -0.206886405 3.091953941 4.450026340
v -0.203613440 1.555371152 5.284452566
v -0.122214011 1.555726156 5.284368864
v -0.053834891 1.556024360 5.284298558
v -0.122065058 1.485795869 5.322343821
v -0.207477991 1.397881332 5.369970242
v -0.211569031 1.393670514 5.372251391
v -0.210271596 0.784553896 5.703026201
v -0.206171605 0.784562629 5.703026953
v -0.205699692 0.563010153 5.823338854
v -0.201499601 0.562972078 5.823365159
v 3.066529431 0.731739936 5.736097175
v 5.229991361 0.714141626 5.748552824
v 5.607998078 0.714946792 5.748622131
v 5.529242007 0.796779225 5.704078528
v 6.024282464 0.797833675 5.704169292
v 7.752136323 0.736782007 5.739638009
v 3.888709730 1.573218821 5.280244463
v -0.211076469 5.059093685 3.381790378
v 7.768885363 0.719549543 5.749018325
v 7.732313391 0.719471644 5.749011619
v 3.044786083 0.709487076 5.748152172
v 3.092248675 0.709588173 5.748160874
v -0.240117834 6.553303409 1.496051756
v -0.241109504 6.576901351 1.483328605
v -2.421204558 6.572257686 1.485116905
v -2.422526279 6.548654817 1.497841953
v -2.434359605 6.337338932 1.611768990
v -2.724961580 6.052605721 1.765187495
v -2.905673513 5.875543322 1.860591359
v -2.853055236 5.830223685 1.885042698
v -3.046709311 5.494022900 2.066241745
v -3.711866784 5.085631376 2.286207707
v -4.102530918 4.845772504 2.415399388
v -4.287405822 4.521715529 2.590053984
v -4.528806019 4.285190484 2.717497209
v -5.263830869 3.565009691 3.105541371
v -5.527805259 3.306366346 3.244902267
v -5.529768342 3.542527088 3.117575603
v -5.750237707 3.523888402 3.127552306
v -6.834609525 4.011662649 2.864213110
v -6.834629300 4.011643377 2.864223494
v -6.834628937 4.011680163 2.864203661
v -6.463192354 4.221198876 2.751363562
v -6.522584993 4.315785827 2.700347538
v -6.541275463 4.297568676 2.710163178
v -6.828511487 4.578501908 2.558603832
v -6.826439686 4.770463242 2.455108594
v -6.825882386 4.822106347 2.427265407
v -6.858296671 4.792816137 2.443046583
v -7.528291656 5.262926988 2.189366568
v -8.361944296 5.389677506 2.120755512
v -8.361959034 5.389664256 2.120762651
v -8.361958612 5.389690423 2.120748544
v -7.995102444 5.719494672 1.943055018
v -8.351025995 6.067608280 1.755252846
v -8.353063187 5.941286541 1.823358520
v -8.619930610 6.330612403 1.613365990
v -8.852989968 6.558557798 1.490392802
v -11.333784340 6.553273635 1.492427761
v -11.180854120 1.374987633 4.284349858
v -8.441596585 0.451419922 4.783190019
v -8.441890128 0.433219555 4.793002647
v -8.296531624 0.433529173 4.792883411
v -6.940619572 0.624064091 4.690601448
v -5.505400509 0.611053428 4.698087068
v -5.324138936 0.609410240 4.699032468
v -5.137652021 0.607719685 4.700005120
v -5.230948191 0.524537434 4.744822203
v -3.409940511 0.530797576 4.742044556
v -2.978207409 0.532281760 4.741386019
v -2.759390817 0.533033994 4.741052250
v -2.692532103 0.533277216 4.740943055
v -2.692518471 0.533263883 4.740950247
v -1.430312060 0.574111608 4.719341359
v -1.011496320 0.570314926 4.721525761
v -0.206171605 0.784562629 4.606278395
v -0.210271596 0.784553896 4.606281758
v -0.211569031 1.393670474 4.277876245
v -0.207477991 1.397881332 4.275607304
v -0.203287170 1.402194874 4.273283033
v -0.122065057 1.485795838 4.228236240
v -0.053834891 1.556024360 4.190394933
v -0.122214011 1.555726156 4.190533274
v -0.203613440 1.555371152 4.190697965
v -0.206886405 3.091953943 3.362248570
v -0.211077226 3.087640005 3.364573054
v -0.215168265 3.083428781 3.366842192
v -0.215787610 3.374197322 3.210074185
v -5.527805011 3.306336488 3.244918365
v -0.211695360 3.377840235 3.208111452
v -0.207503300 3.381571961 3.206100868
v -0.210946621 4.998132969 2.334531177
v -0.215138673 4.994397279 2.336543898
v -0.219230915 4.990750455 2.338508740
v -0.219391547 5.066163645 2.297849680
v -0.211076469 5.059093685 2.301664175
v -0.212878511 5.905111508 1.845533235
v -0.217302771 6.010391975 1.788769840
v -0.218459286 6.553349543 1.496033990
v -6.871196734 0.623434754 4.690963534
v -1.705976456 1.548818963 4.193737622
v -1.706003821 1.548790794 4.193752801
v -1.706032585 1.548818718 4.193737736
v -5.527820385 3.306351525 3.244910252
v 5.414377667 6.588947701 4.265022433
v 5.422665824 -1.419958124 4.653528312
v 5.426749079 -5.365637300 4.844930183
v 5.428494799 -7.052539044 4.926760493
v 5.428864635 -7.409913880 4.944096473
v 5.429024356 -7.564253208 4.951583355
v 5.586323999 -7.563918155 4.872249701
v 5.994323073 -7.563049106 4.666476458
v 7.689819227 -7.559437650 3.811357506
v 8.926616421 -7.556803237 3.187582148
v 9.680071162 -6.595796180 2.760538761
v 11.241967619 -6.592469296 1.972800459
v 9.053828714 -4.604725575 2.978692764
v 4.844841287 4.258029287 4.085978645
v 5.077283195 3.769123285 4.228141721
v 5.417295024 3.769847520 4.401745988
v 4.834678982 6.587712926 3.969007266
v 3.390682258 6.584637171 3.231727054
v 3.185682723 6.584200516 3.127057772
v 2.738213954 6.123584619 2.920643110
v 3.288765434 5.700418080 3.222105768
v 4.088643002 4.256418563 3.699876639
v 4.330748352 4.256934254 3.823491521
v 2.810414754 6.068089422 2.960177733
v 5.657660322 -1.499977251 4.777350921
v 1.501260924 -4.721786718 2.809326309
v 1.330085007 -5.450879253 2.756892227
v 0.313292411 -6.615747688 2.293523370
v 0.751291417 -6.614814737 2.517158226
v 1.827232526 -7.571925128 3.112549014
v 3.654728381 -7.568032509 4.045637370
v -2.422526279 6.548654817 1.606194290
v -2.421204558 6.572257686 1.605574300
v -3.711401631 6.569509529 2.291111413
v -4.211400497 6.568444517 2.556782283
v -4.894898947 6.566988646 2.919954362
v -5.554897449 6.565582830 3.270639910
v -5.549988523 5.975034224 3.265972232
v -5.544123529 5.269469847 3.260395473
v -5.544123198 5.269430051 3.260395159
v -5.529768342 3.542527088 3.246745771
v -4.102530918 4.845772504 2.492927215
v -3.046709311 5.494022900 1.934176542
v -2.853055236 5.830223685 1.832450752
v -7.598484123 -3.197797880 2.742608519
v -8.493452628 -2.764117898 3.188646377
v -8.513582774 -4.012367483 3.188231201
v -8.513560240 -4.012388576 3.188219886
v -8.513583447 -4.012409235 3.188231187
v -8.537302759 -5.483219288 3.187741987
v -8.565060988 -7.204478435 3.187169485
v -8.944343038 -7.594868893 3.371428965
v -8.571343885 -7.594074394 3.187039903
v -7.388646567 -7.591555215 2.602383216
v -6.959847540 -7.590641861 2.390409945
v -6.908147658 -7.590531738 2.364852533
v -5.437250994 -7.587398686 1.637726871
v -5.061351847 -7.586598010 1.451904221
v -4.886449010 -7.407596761 1.366925952
v -5.443076726 -6.886557605 1.646427356
v -5.454319589 -5.534030385 1.663218101
v -5.457305226 -5.174855365 1.667677025
v -5.817899835 -4.841900341 1.848705571
v -5.505400509 0.611053428 4.611195503
v -5.504673524 0.523596439 4.612202164
v -5.503974286 0.439477400 4.613170405
v -8.861327339 -2.625680795 3.009340583
v -9.436000326 -3.148925635 2.734804908
v -11.164352612 -6.372094792 1.921470283
v -11.163781553 -6.640194184 1.923753075
v -9.938484333 -6.637584266 2.517436673
v -9.170142526 -7.595349852 2.896894133
v -8.944343038 -7.594868893 3.006298978
v -6.807094609 6.562915614 2.594755233
v -6.878294447 6.562763956 2.556322012
v -6.964094253 6.562581200 2.510007821
v -7.057594040 6.562382043 2.459537228
v -8.343091124 6.559643897 1.765634052
v -8.776290142 6.558721171 1.531795969
v -8.353063187 5.941286541 1.752587957
v -6.957373257 4.862334514 2.492563889
v -6.858296671 4.792816137 2.545180623
v -6.825882386 4.822106347 2.563039796
v -6.522585023 4.315785829 2.720474790
v -5.544143834 5.269450055 3.260424379
v -0.203879607 -0.291478130 5.186437891
v -0.204699493 0.093439597 5.392994638
v -0.203879607 -0.291478130 4.287122179
v -0.205460603 0.450763387 5.584743768
v -0.205460603 0.450763387 4.687964968
v -0.205654541 0.541813080 5.633603374
v -1.430312016 0.574111604 -5.546098400
v -2.692518473 0.533263881 -5.546098400
v -2.692545173 0.533263824 -5.546098400
v -5.230948144 0.524537446 -5.546098400
v -5.230995243 0.524537245 -5.546098400
v -5.504673560 0.523596402 -5.546098400
v -8.378013839 0.513718696 -5.546098400
v -8.378019028 0.513713585 -5.546098400
v -8.440595422 0.513503495 -5.546098400
v -11.178835710 0.427389783 4.712470947
v -11.178999082 0.504089609 -5.546098400
v -11.178835710 0.427389783 -5.546098400
v -11.178154315 0.107490509 4.539711388
v -11.178154315 0.107490509 -5.546098400
v -11.177454176 -0.221208746 4.362199455
v -11.177454176 -0.221208746 -5.546098400
v -11.177301240 -0.293008583 4.323424412
v -11.177301240 -0.293008583 -5.546098400
v -11.174684719 -1.521405796 3.660036346
v -11.174684719 -1.521405796 -5.546098400
v -11.173186034 -2.225004200 3.280062523
v -11.173186034 -2.225004200 -5.546098400
v -11.167859271 -4.725798527 1.929524525
v -11.167859271 -4.725798527 -5.546098400
v -11.167773644 -4.765998436 -5.546098400
v -9.436000319 -3.148925649 -5.546098400
v -8.487213401 -2.377228160 -5.546098400
v -8.487212781 -2.377190358 -5.546098400
v -8.487192241 -2.377209315 -5.546098400
v -4.696052676 -7.585819913 0.363111408
v -5.061351847 -7.586598010 -5.546098400
v -4.696052676 -7.585819913 -5.546098400
v -3.562655247 -7.583405744 0.360580281
v -3.562655247 -7.583405744 -5.546098400
v -3.213856038 -7.582662791 0.359801335
v -3.213856038 -7.582662791 -5.546098400
v -2.850456862 -7.581888741 0.358989784
v -2.850456862 -7.581888741 -5.546098400
v -2.828356913 -7.581841667 0.358940430
v -2.828356913 -7.581841667 -5.546098400
v -1.891959037 -7.579847113 0.356849246
v -1.891959037 -7.579847113 -5.546098400
v -1.837359161 -7.579730813 -5.546098400
v -1.072704445 -6.618699901 -5.546098400
v -0.670005358 -6.617842140 0.872232454
v -0.670005358 -6.617842140 -5.546098400
v -0.594505530 -6.617681323 0.872063846
v -0.594505530 -6.617681323 -5.546098400
v -0.190406446 -6.616820581 0.871161403
v -0.190406446 -6.616820581 -5.546098400
v -0.104806640 -6.616638251 -5.546098400
v -0.105853424 -6.125197165 2.055929645
v -0.105853424 -6.125197165 1.136369858
v -0.194127372 -4.869930543 2.729522635
v -0.194127372 -4.869930543 1.814558206
v -0.194619368 -4.638949867 2.853472803
v -0.194619368 -4.638949867 1.939297844
v -0.195850110 -4.061144178 3.163538188
v -0.195850110 -4.061144178 2.251338115
v -0.198940560 -2.610248169 3.942126283
v -0.200444619 -1.904127071 -5.546098400
v -5.466941333 -4.015621125 -5.546098400
v -5.466941071 -4.015650124 -5.546098400
v -5.466955602 -4.015635755 -5.546098400
v -4.334312121 -0.292067851 4.300779088
v -4.334296750 -0.292054218 -5.546098400
v -4.334312121 -0.292067851 -5.546098400
v -4.334327050 -0.292054183 -5.546098400
v -1.755188891 -6.003214813 -5.546098400
v -1.755167346 -6.003235967 -5.546098400
v -1.755191002 -6.003256717 -5.546098400
v -1.849038750 -0.291707558 -5.546098400
v -1.848990250 -0.291707555 -5.546098400
v -1.849013899 -0.291731905 -5.546098400
v -9.201087644 -0.292733000 -5.546098400
v -9.201105807 -0.292750739 -5.546098400
v -9.201123645 -0.292732977 -5.546098400
v -0.157279515 -0.291471570 5.186449766
v -0.114665722 -1.988023751 4.276043248
v -0.114665722 -1.988023751 3.370623927
v -0.118279438 -0.291466199 5.186459641
v 5.589233395 0.734444467 -5.546098400
v 5.607998068 0.714946791 -5.546098400
v 5.420456893 0.714547323 5.748587746
v 5.420456893 0.714547323 5.727305790
v -0.205699692 0.563010132 4.725728537
v -0.205654541 0.541813080 -5.546098400
v -0.204699493 0.093439597 -5.546098400
v -0.200295686 -1.974047413 -5.546098400
v 0.313292411 -6.615747688 -5.546098400
v 2.184193391 -4.125416875 -5.546098400
v 5.422539083 -1.297535706 -5.546098400
v 5.422577312 -1.297502324 -5.546098400
v 11.239322130 -5.350472113 2.473701413
v 11.241364184 -6.309169939 -5.546098400
v 11.239322130 -5.350472113 -5.546098400
v 11.238865027 -5.135872600 2.588861029
v 11.238865027 -5.135872600 -5.546098400
v 11.237884364 -4.675473645 2.835922943
v 11.237884364 -4.675473645 -5.546098400
v 11.233986633 -2.845577796 3.817892094
v 11.233986633 -2.845577796 -5.546098400
v 11.228542931 -0.289883593 -5.546098400
v 11.226687680 0.581114431 -5.546098400
v 11.226377123 0.726914100 5.734983078
v 11.226377123 0.726914100 -5.546098400
v 11.226348154 0.740514069 -5.546098400
v 1.154998910 -1.224582603 -5.546098400
v 1.155002540 -1.224643595 -5.546098400
v 1.154969973 -1.224612164 -5.546098400
v 5.754902634 0.562303855 -5.546098400
v 5.754869934 0.562303786 -5.546098400
v 5.754887801 0.562319324 -5.546098400
v 6.575677958 -0.290532508 -5.546098400
v 6.575707958 -0.290532544 -5.546098400
v 6.575691689 -0.290546779 -5.546098400
v 4.253812881 -0.290856337 -5.546098400
v 4.253781081 -0.290856405 -5.546098400
v 4.253795549 -0.290841474 -5.546098400
v 0.130803866 -2.272777040 -5.546098400
v 0.130786105 -2.272795178 -5.546098400
v 0.130784629 -2.272759581 -5.546098400
v 0.221914260 -4.441620193 -5.546098400
v 0.221927332 -4.441606765 -5.546098400
v 0.221928388 -4.441633063 -5.546098400
v 11.226202461 0.808913914 5.705123053
v 11.226202461 0.808913914 -5.546098400
v 11.224506323 1.605212108 -5.546098400
v 11.219905897 3.765007208 4.099845556
v 11.219905897 3.765007208 -5.546098400
v 11.216557287 5.337103642 3.246133993
v 11.216557287 5.337103642 -5.546098400
v 11.213920743 6.574900834 2.573960358
v 11.213920743 6.574900834 -5.546098400
v 11.213864511 6.601300774 -5.546098400
v 10.947965114 6.600734401 2.559575377
v 10.947965114 6.600734401 -5.546098400
v 8.796669994 6.596152080 -5.546098400
v 3.767150243 4.836801492 3.507834295
v 3.537091280 5.252121503 3.370432036
v 1.564986399 6.580748387 2.557855029
v 2.071085251 6.581826392 -5.546098400
v 1.564986399 6.580748387 -5.546098400
v 0.695888371 6.578897183 2.557695682
v 0.695888371 6.578897183 -5.546098400
v -0.034009974 6.577342479 2.557561857
v -0.034009974 6.577342479 -5.546098400
v -0.132909749 6.577131819 2.557543724
v -0.132909749 6.577131819 -5.546098400
v -0.218509555 6.576949489 2.557528029
v -0.218509555 6.576949489 -5.546098400
v -0.241109504 6.576901351 -5.546098400
v -0.218447145 6.547649556 2.573439071
v -0.218447145 6.547649556 1.499107141
v -0.215284099 5.062671224 2.299733965
v -0.215284099 5.062671224 -5.546098400
v -0.207866203 3.551946698 4.200231781
v -0.207866203 3.551946698 3.114243242
v -0.207503300 3.381571984 -5.546098400
v -0.211695361 3.377840246 -5.546098400
v -0.206886405 3.091953941 -5.546098400
v -0.122065058 1.485795869 -5.546098400
v -0.203287170 1.402194874 5.367633443
v -0.207477991 1.397881338 -5.546098400
v -0.211569031 1.393670514 -5.546098400
v -0.206051560 0.728204457 5.733631706
v -0.206051560 0.728204457 4.636663932
v 0.004663934 0.728431387 -5.546098400
v 3.066517958 0.731728116 -5.546098400
v 3.066529433 0.731739941 -5.546098400
v 3.066543058 0.731728170 -5.546098400
v 7.752126341 0.736773285 -5.546098400
v 7.752136323 0.736782007 -5.546098400
v 7.752144841 0.736773325 -5.546098400
v 3.888741928 1.573218982 -5.546098400
v 3.888727260 1.573203951 -5.546098400
v 3.888709728 1.573218813 -5.546098400
v -1.133907478 6.574999665 1.484060954
v -1.133907478 6.574999665 -5.546098400
v -1.991805532 6.573172318 1.484764675
v -1.991805532 6.573172318 -5.546098400
v -2.194105073 6.572741414 1.484930619
v -2.194105073 6.572741414 -5.546098400
v -2.421204558 6.572257686 -5.546098400
v -2.434359605 6.337338932 -5.546098400
v -6.541275463 4.297568676 -5.546098400
v -6.826439686 4.770463242 2.562098954
v -6.826439686 4.770463242 -5.546098400
v -6.957373271 4.862334559 2.405533230
v -8.619930610 6.330612403 -5.546098400
v -9.655588147 6.556848241 1.491051162
v -8.852989968 6.558557798 -5.546098400
v -9.655588147 6.556848241 -5.546098400
v -11.333784340 6.553273635 -5.546098400
v -11.180854120 1.374987633 -5.546098400
v -11.179816373 0.887788738 4.547023391
v -11.179816373 0.887788738 -5.546098400
v -11.179451287 0.716389127 4.639433579
v -11.179451287 0.716389127 -5.546098400
v -11.179336478 0.662489250 4.668493725
v -11.179336478 0.662489250 -5.546098400
v -8.441596585 0.451419922 -5.546098400
v -6.872324948 0.518894861 -5.546098400
v -5.324138936 0.609410240 -5.546098400
v -5.230971389 0.524558496 -5.546098400
v -2.692532101 0.533277252 -5.546098400
v -0.205699692 0.563010132 -5.546098400
v -0.206051560 0.728204457 -5.546098400
v -0.203287170 1.402194874 -5.546098400
v -0.211077226 3.087640005 -5.546098400
v -0.215168265 3.083428781 -5.546098400
v -0.215787610 3.374197322 -5.546098400
v -0.207866203 3.551946698 -5.546098400
v -0.215138673 4.994397279 -5.546098400
v -0.217302771 6.010391975 -5.546098400
v -5.527820347 3.306351511 -5.546098400
v -5.527805279 3.306366343 -5.546098400
v -5.527805015 3.306336444 -5.546098400
v -1.706032591 1.548818723 -5.546098400
v -1.705976491 1.548818943 -5.546098400
v -1.706003831 1.548790785 -5.546098400
v -6.834609541 4.011662619 -5.546098400
v -6.834629300 4.011643377 -5.546098400
v -6.834628979 4.011680178 -5.546098400
v -8.361944311 5.389677486 -5.546098400
v -8.361959083 5.389664254 -5.546098400
v -8.361958638 5.389690455 -5.546098400
v 5.414377667 6.588947701 -5.546098400
v 5.429024356 -7.564253208 -5.546098400
v 5.586323999 -7.563918155 -5.546098400
v 5.994323073 -7.563049106 -5.546098400
v 7.689819227 -7.559437650 -5.546098400
v 8.926616421 -7.556803237 -5.546098400
v 9.680071162 -6.595796180 -5.546098400
v 11.241967619 -6.592469296 -5.546098400
v 5.417295024 3.769847520 -5.546098400
v 4.834678982 6.587712926 -5.546098400
v 3.390682258 6.584637171 -5.546098400
v 3.185682723 6.584200516 -5.546098400
v 2.099504396 6.552586859 -5.546098400
v 0.751291417 -6.614814737 -5.546098400
v 1.827232526 -7.571925128 -5.546098400
v 3.654728381 -7.568032509 -5.546098400
v 5.428864609 -7.409913898 -5.546098400
v 5.657660322 -1.499977251 -5.546098400
v -3.711401631 6.569509529 -5.546098400
v -4.211400497 6.568444517 -5.546098400
v -4.894898947 6.566988646 -5.546098400
v -5.554897449 6.565582830 -5.546098400
v -5.544123573 5.269469838 -5.546098400
v -5.544123189 5.269430039 -5.546098400
v -2.905673539 5.875543275 -5.546098400
v -6.923046597 -3.821463123 -5.546098400
v -7.775601200 -3.034256799 -5.546098400
v -8.513582775 -4.012367436 -5.546098400
v -8.513560230 -4.012388588 -5.546098400
v -8.513583486 -4.012409238 -5.546098400
v -8.944343038 -7.594868893 -5.546098400
v -8.571343885 -7.594074394 -5.546098400
v -7.388646567 -7.591555215 -5.546098400
v -6.959847540 -7.590641861 -5.546098400
v -6.908147658 -7.590531738 -5.546098400
v -5.437250994 -7.587398686 -5.546098400
v -6.923010025 -3.821496846 -5.546098400
v -9.395605386 -3.186737893 -5.546098400
v -11.164352612 -6.372094792 -5.546098400
v -11.163781553 -6.640194184 -5.546098400
v -9.938484333 -6.637584266 -5.546098400
v -9.170142526 -7.595349852 -5.546098400
v -6.807094609 6.562915614 -5.546098400
v -6.878294447 6.562763956 -5.546098400
v -6.964094253 6.562581200 -5.546098400
v -7.057594040 6.562382043 -5.546098400
v -8.343091124 6.559643897 -5.546098400
v -8.776290142 6.558721171 -5.546098400
v -6.522585023 4.315785829 -5.546098400
v -6.463192316 4.221198922 -5.546098400
v -5.544143831 5.269450095 -5.546098400
g roof
f 1 370 2 3
g roof
f 1 3 4
g roof
f 5 3 2
g roof
f 6 7 2
g roof
f 6 2 8
g roof
f 6 8 9
g roof
f 10 8 2
g roof
f 10 8 2 372 11
g roof
f 10 11 12
g roof
f 10 12 13
g roof
f 10 13 14
g roof
f 17 18 19
g roof
f 21 22 23
g roof
f 21 23 24
g roof
f 21 24 25 26
g roof
f 21 24 26 27
g roof
f 28 29 30
g roof
f 30 31 32
g roof
f 30 31 32 33
g roof
f 34 35 36
g roof
f 37 38 39
g roof
f 37 39 40
g roof
f 41 42 43
g roof
f 44 45 46
g roof
f 44 46 47
g roof
f 47 48 403 406 408 410 412 414 49
g roof
f 47 49 50
g roof
f 50 418 420 422 51 426 52
g roof
f 50 52 53
g roof
f 50 53 54
g roof
f 55 53 52
g roof
f 55 52 56
g roof
f 55 56 428 430 432 57
g roof
f 55 57 58
g roof
f 59 58 57
g roof
f 59 57 60
g roof
f 60 61 62
g roof
f 60 62 1
g roof
f 60 1 4
g roof
f 60 4 5
g roof
f 5 2 7
g roof
f 5 7 438 63
g roof
f 63 438 6 9
g roof
f 14 15 16
g roof
f 16 17 19
g roof
f 64 20 21
g roof
f 64 21 27
g roof
f 28 29 30 31 32 33
g roof
f 33 383 386 388 390 392 394 396 34 36
g roof
f 33 36 37
g roof
f 33 37 40
g roof
f 33 40 65
g roof
f 33 65 66
g roof
f 33 66 41
g roof
f 33 41 43 67
g roof
f 33 67 68
g roof
f 33 68 44
g roof
f 44 47 50
g roof
f 44 50 54
g roof
f 44 54 55
g roof
f 44 55 58
g roof
f 44 58 69
g roof
f 59 60 4 5
g roof
f 59 5 63 438
g roof
f 10 14 16
g roof
f 10 16 19
g roof
f 10 19 64
g roof
f 10 64 27
g roof
f 10 27 28
g roof
f 10 28 33
g roof
f 10 33 44
g roof
f 9 10 44
g roof
f 9 44 69
g roof
f 63 438 9 69
g roof
f 59 63 438 69
g roof
f 453 70 71 72
g roof
f 453 70 72 62
g roof
f 73 74 75
g roof
f 76 425 77 78
g roof
f 76 78 79
g roof
f 76 79 80
g roof
f 80 81 82
g roof
f 83 308 84 85
g roof
f 85 84 86
g roof
f 86 84 87
g roof
f 86 87 88
g roof
f 86 88 89
g roof
f 90 91 89
g roof
f 90 89 92
g roof
f 90 92 93
g roof
f 94 95 96
g roof
f 96 97 98
g roof
f 96 98 99 467 470 472 474 100
g roof
f 102 101 100
g roof
f 100 103 104
g roof
f 100 104 105
g roof
f 106 104 103
g roof
f 106 103 107
g roof
f 107 103 108
g roof
f 107 108 109
g roof
f 107 109 110
g roof
f 110 108 103
g roof
f 110 103 478 111
g roof
f 111 112 113
g roof
f 114 115 116
g roof
f 116 117 118
g roof
f 116 118 119
g roof
f 116 119 120
g roof
f 121 122 123
g roof
f 121 123 124
g roof
f 121 124 125
g roof
f 126 127 128
g roof
f 126 128 129
g roof
f 126 129 130
g roof
f 126 130 131
g roof
f 126 131 132
g roof
f 132 133 373 371 369 368 134
g roof
f 132 134 135
g roof
f 136 137 433 431 429 427 138
g roof
f 136 138 76
g roof
f 76 80 82 83
g roof
f 76 83 85
g roof
f 76 85 139
g roof
f 86 89 91
g roof
f 86 91 140
g roof
f 94 95 96 100
g roof
f 102 100 105
g roof
f 102 105 106
g roof
f 102 106 107
g roof
f 102 107 141
g roof
f 102 141 142
g roof
f 110 111 113
g roof
f 110 113 114
g roof
f 110 114 116
g roof
f 110 116 120
g roof
f 110 120 458 121
g roof
f 110 121 125
g roof
f 110 125 126
g roof
f 110 126 132
g roof
f 135 136 76
g roof
f 135 76 139
g roof
f 93 94 100
g roof
f 93 100 101
g roof
f 142 107 110
g roof
f 142 110 132
g roof
f 132 135 139
g roof
f 90 93 101
g roof
f 90 101 143
g roof
f 102 142 132
g roof
f 132 139 86
g roof
f 132 86 140 90
g roof
f 132 90 143
g roof
f 132 143 102
g roof
f 112 111 144
g roof
f 144 145 146
g roof
f 145 144 502 504 506 147
g roof
f 147 509 148 149
g roof
f 147 149 150
g roof
f 151 152 153
g roof
f 153 154 155
g roof
f 156 157 158
g roof
f 156 158 159
g roof
f 156 159 160
g roof
f 161 162 514 517 519 521 523 163
g roof
f 163 164 165
g roof
f 165 526 166 167
g roof
f 168 169 170
g roof
f 168 170 171
g roof
f 168 171 172
g roof
f 173 174 175 176
g roof
f 173 176 177
g roof
f 173 177 178
g roof
f 178 179 180
g roof
f 178 180 181
g roof
f 183 184 185
g roof
f 183 185 186
g roof
f 186 539 187 188
g roof
f 186 188 131
g roof
f 186 131 130
g roof
f 186 130 129
g roof
f 129 128 127
g roof
f 129 128 127 189
g roof
f 189 124 123
g roof
f 189 123 122
g roof
f 122 190 457 191
g roof
f 122 191 119
g roof
f 122 119 192
g roof
f 193 116 115
g roof
f 193 115 194
g roof
f 195 145 147
g roof
f 195 147 150
g roof
f 195 150 151
g roof
f 195 151 153
g roof
f 195 153 155
g roof
f 195 155 512 156
g roof
f 195 156 160
g roof
f 195 160 161
g roof
f 161 163 165
g roof
f 161 165 167
g roof
f 161 167 196
g roof
f 196 168 172
g roof
f 173 178 181
g roof
f 182 536 183 186
g roof
f 182 186 129
g roof
f 182 129 189
g roof
f 182 189 122
g roof
f 182 122 192
g roof
f 182 192 193
g roof
f 182 193 194
g roof
f 194 112 144
g roof
f 194 144 146
g roof
f 195 161 196
g roof
f 195 196 172
g roof
f 195 172 530 173
g roof
f 195 173 181
g roof
f 195 181 182
g roof
f 182 194 146
g roof
f 182 146 195
g roof
f 197 112 115
g roof
f 197 115 198
g roof
f 127 199 200
g roof
f 127 200 124
g roof
f 201 202 551 553 555 203
g roof
f 201 203 204
g roof
f 201 204 205
g roof
f 201 205 206
g roof
f 201 206 207
g roof
f 201 207 208
g roof
f 201 208 209
g roof
f 201 209 210
g roof
f 201 210 211
g roof
f 201 211 212
g roof
f 201 212 213
g roof
f 201 213 214
g roof
f 215 216 217
g roof
f 215 217 218
g roof
f 215 218 219
g roof
f 220 218 217
g roof
f 220 217 221
g roof
f 221 222 223
g roof
f 224 225 226
g roof
f 227 562 228 229
g roof
f 227 229 230
g roof
f 231 229 228
g roof
f 231 228 232
g roof
f 231 232 233 234
g roof
f 234 235 236
g roof
f 234 236 564 237
g roof
f 234 237 238
g roof
f 234 238 569 571 573 33
g roof
f 234 33 32
g roof
f 234 32 31
g roof
f 239 240 241
g roof
f 239 241 26
g roof
f 25 24 242
g roof
f 21 20 243
g roof
f 245 74 246
g roof
f 245 246 247
g roof
f 245 247 248
g roof
f 245 248 249
g roof
f 245 249 17
g roof
f 250 251 16
g roof
f 250 16 252
g roof
f 253 13 12
g roof
f 253 12 11
g roof
f 253 11 254
g roof
f 253 254 255
g roof
f 253 255 256
g roof
f 258 259 260
g roof
f 260 261 262
g roof
f 262 263 264
g roof
f 262 264 265
g roof
f 265 266 267
g roof
f 267 266 268
g roof
f 267 268 269
g roof
f 269 531 270 271
g roof
f 269 271 272
g roof
f 273 528 274 275
g roof
f 273 275 276
g roof
f 273 276 527 277
g roof
f 273 277 201
g roof
f 273 201 214
g roof
f 220 221 223
g roof
f 220 223 224
g roof
f 220 224 225 226
g roof
f 220 224 225 226 227
g roof
f 220 227 230
g roof
f 231 234 233
g roof
f 231 234 31
g roof
f 30 239 26
g roof
f 30 26 25
g roof
f 30 25 242
g roof
f 278 21 243
g roof
f 245 17 250
g roof
f 245 250 252
g roof
f 245 252 253 256
g roof
f 245 256 257
g roof
f 245 257 258
g roof
f 245 258 259 260
g roof
f 279 262 261 260
g roof
f 279 262 265
g roof
f 279 265 267
g roof
f 267 269 272
g roof
f 267 272 273
g roof
f 267 273 214
g roof
f 219 220 230
g roof
f 230 231 31
g roof
f 230 31 30
g roof
f 230 30 242
g roof
f 230 242 278
g roof
f 230 278 243 244 245
g roof
f 260 261 262 279 280
g roof
f 281 279 267
g roof
f 219 230 245
g roof
f 245 260 261 280
g roof
f 245 280 281
g roof
f 245 281 267
g roof
f 245 267 282
g roof
f 215 267 214
g roof
f 219 245 282
g roof
f 219 282 215
g roof
f 151 150 149
g roof
f 151 149 148
g roof
f 151 149 148 283
g roof
f 96 95 284
g roof
f 96 284 285
g roof
f 96 285 286
g roof
f 96 286 287
g roof
f 96 287 288
g roof
f 96 288 289
g roof
f 96 289 290
g roof
f 96 290 291
g roof
f 96 291 292
g roof
f 96 292 293
g roof
f 293 294 99
g roof
f 293 99 98
g roof
f 293 98 295
g roof
f 293 295 96
g roof
f 296 297 298
g roof
f 296 298 283
g roof
f 296 283 299
g roof
f 296 299 300
g roof
f 296 300 301
g roof
f 301 162 161
g roof
f 161 160 302
g roof
f 303 513 304 305
g roof
f 303 305 296
g roof
f 303 296 301
g roof
f 301 161 302
g roof
f 301 302 306
g roof
f 301 306 303
g roof
f 307 94 93
g roof
f 307 93 92
g roof
f 308 83 82 309
g roof
f 309 80 79
g roof
f 309 79 310
g roof
f 309 310 311
g roof
f 309 311 312
g roof
f 309 312 313
g roof
f 309 313 288
g roof
f 309 288 287
g roof
f 309 287 286
g roof
f 309 286 285
g roof
f 309 285 284
g roof
f 284 307 92
g roof
f 284 92 89 88 87
g roof
f 284 87 84 308
g roof
f 284 308 309
g roof
f 207 206 205 314
g roof
f 207 314 315
g roof
f 207 315 316
g roof
f 207 316 317
g roof
f 207 317 318
g roof
f 207 318 319
g roof
f 207 319 320
g roof
f 207 320 321
g roof
f 207 321 322
g roof
f 323 215 214
g roof
f 323 214 213
g roof
f 323 213 212
g roof
f 323 212 324
g roof
f 324 325 326
g roof
f 324 326 207
g roof
f 324 207 322
g roof
f 324 322 323
g roof
f 67 43 42
g roof
f 42 41 327
g roof
f 42 327 66
g roof
f 42 66 65
g roof
f 42 65 39
g roof
f 42 39 328
g roof
f 42 328 329
g roof
f 42 329 330
g roof
f 42 330 331
g roof
f 42 331 332
g roof
f 42 332 333
g roof
f 333 334 335
g roof
f 333 335 336
g roof
f 333 336 337
g roof
f 333 337 338
g roof
f 333 338 339
g roof
f 333 339 340
g roof
f 333 340 341
g roof
f 333 341 342
g roof
f 333 342 343
g roof
f 343 44 344
g roof
f 343 344 345
g roof
f 343 345 68
g roof
f 343 68 67
g roof
f 343 67 42
g roof
f 343 42 333
g roof
f 18 74 244
g roof
f 18 244 346
g roof
f 18 346 347
g roof
f 18 347 348
g roof
f 18 348 19
g roof
f 329 39 38
g roof
f 329 38 349
g roof
f 349 350 35
g roof
f 35 34 351
g roof
f 35 351 352
g roof
f 35 352 353
g roof
f 35 353 354
g roof
f 35 354 355
g roof
f 35 355 333
g roof
f 35 333 332
g roof
f 35 332 331
g roof
f 35 331 329
g roof
f 35 329 349
g roof
f 321 320 319
g roof
f 321 320 319 356
g roof
f 321 356 357
g roof
f 321 357 358
g roof
f 321 358 359
g roof
f 321 359 360
g roof
f 321 360 361
g roof
f 321 361 236
g roof
f 321 236 235
g roof
f 235 362 233
g roof
f 233 232 228 363
g roof
f 233 363 364
g roof
f 365 560 224 223
g roof
f 365 223 366
g roof
f 365 366 221
g roof
f 221 217 323
g roof
f 221 323 322
g roof
f 221 322 367
g roof
f 367 321 235
g roof
f 367 235 233
g roof
f 233 364 365
g roof
f 365 221 367
g roof
f 365 367 233
g roof_step_or_fixture_side
f 368 369 2 370
g roof_step_or_fixture_side
f 369 371 372 2
g roof_step_or_fixture_side
f 371 373 11 372
g roof_step_or_fixture_side
f 14 13 253
g roof_step_or_fixture_side
f 15 14 253 252
g roof_step_or_fixture_side
f 16 15 252
g facade_completed
f 17 251 375 376
g facade_completed
f 18 246 377 378
g roof_step_or_fixture_side
f 64 19 348
g roof_step_or_fixture_side
f 20 64 348 347
g roof_step_or_fixture_side
f 22 21 278
g roof_step_or_fixture_side
f 23 22 278 242
g roof_step_or_fixture_side
f 24 23 242
g facade_completed
f 26 25 380 381
g roof_step_or_fixture_side
f 26 241 27
g roof_step_or_fixture_side
f 241 240 28 27
g roof_step_or_fixture_side
f 240 239 29 28
g roof_step_or_fixture_side
f 239 30 29
g facade_completed
f 383 33 384 385
g facade_completed
f 386 383 385 387
g facade_completed
f 388 386 387 389
g facade_completed
f 390 388 389 391
g facade_completed
f 392 390 391 393
g facade_completed
f 394 392 393 395
g facade_completed
f 396 394 395 397
g facade_completed
f 34 396 397 398
g roof_step_or_fixture_side
f 36 35 350
g roof_step_or_fixture_side
f 37 36 350 349
g roof_step_or_fixture_side
f 38 37 349
g facade_completed
f 40 39 400 401
g facade_completed
f 65 40 401 402
g roof_step_or_fixture_side
f 44 343 45
g roof_step_or_fixture_side
f 343 342 46 45
g roof_step_or_fixture_side
f 342 341 47 46
g roof_step_or_fixture_side
f 341 340 48 47
g facade_completed
f 403 48 404 405
g facade_completed
f 406 403 405 407
g facade_completed
f 408 406 407 409
g facade_completed
f 410 408 409 411
g facade_completed
f 412 410 411 413
g facade_completed
f 414 412 413 415
g facade_completed
f 49 414 415 416
g facade_completed
f 50 49 416 417
g facade_completed
f 418 50 417 419
g facade_completed
f 420 418 419 421
g facade_completed
f 422 420 421 423
g facade_completed
f 51 422 423 424
g roof_step_or_fixture_side
f 77 425 426 51
g roof_step_or_fixture_side
f 425 76 52 426
g roof_step_or_fixture_side
f 76 138 56 52
g roof_step_or_fixture_side
f 138 427 428 56
g roof_step_or_fixture_side
f 427 429 430 428
g roof_step_or_fixture_side
f 429 431 432 430
g roof_step_or_fixture_side
f 431 433 57 432
g roof_step_or_fixture_side
f 433 137 60 57
g roof_step_or_fixture_side
f 137 136 61 60
g roof_step_or_fixture_side
f 136 135 62 61
g roof_step_or_fixture_side
f 135 134 1 62
g roof_step_or_fixture_side
f 134 368 370 1
g facade_completed
f 58 59 435 436
g facade_completed
f 69 58 436 437
g facade_completed
f 59 69 437 435
g facade_completed
f 438 63 7 439 440
g facade_completed
f 6 63 438 440 441
g facade_completed
f 7 6 441 439
g facade_completed
f 53 55 442 443
g facade_completed
f 54 53 443 444
g facade_completed
f 55 54 444 442
g facade_completed
f 3 5 445 446
g facade_completed
f 4 3 446 447
g facade_completed
f 5 4 447 445
g facade_completed
f 9 8 448 449
g facade_completed
f 10 9 449 450
g facade_completed
f 8 10 450 448
g roof_step_or_fixture_side
f 451 135 62 72
g roof_step_or_fixture_side
f 135 452 453 70 62
g roof_step_or_fixture_side
f 452 454 71 453 70
g roof_step_or_fixture_side
f 454 451 72 71
g roof_step_or_fixture_side
f 73 75 245 244
g roof_step_or_fixture_side
f 74 73 244
g roof_step_or_fixture_side
f 75 74 245
g roof_step_or_fixture_side
f 112 197 113
g roof_step_or_fixture_side
f 197 198 114 113
g roof_step_or_fixture_side
f 198 115 114
g roof_step_or_fixture_side
f 117 116 193
g roof_step_or_fixture_side
f 118 117 193 192
g roof_step_or_fixture_side
f 119 118 192
g roof_step_or_fixture_side
f 119 191 120
g roof_step_or_fixture_side
f 191 457 458 120
g roof_step_or_fixture_side
f 457 190 121 458
g roof_step_or_fixture_side
f 190 122 121
g roof_step_or_fixture_side
f 124 200 125
g roof_step_or_fixture_side
f 200 199 126 125
g roof_step_or_fixture_side
f 199 127 126
g roof_step_or_fixture_side
f 131 188 132
g roof_step_or_fixture_side
f 188 187 133 132
g roof_step_or_fixture_side
f 373 133 459 11
g facade_completed
f 78 77 51 424 463
g roof_step_or_fixture_side
f 310 79 78
g roof_step_or_fixture_side
f 80 309 81
g roof_step_or_fixture_side
f 309 82 81
g roof_step_or_fixture_side
f 94 307 95
g roof_step_or_fixture_side
f 96 295 97
g roof_step_or_fixture_side
f 295 98 97
g facade_completed
f 467 99 468 469
g facade_completed
f 470 467 469 471
g facade_completed
f 472 470 471 473
g facade_completed
f 474 472 473 475
g facade_completed
f 100 474 475 476
g facade_completed
f 103 100 476 477
g facade_completed
f 478 103 477 479
g facade_completed
f 111 478 479 480
g facade_completed
f 101 102 481 482
g facade_completed
f 143 101 482 483
g facade_completed
f 102 143 483 481
g facade_completed
f 109 108 484 485
g facade_completed
f 110 109 485 486
g facade_completed
f 108 110 486 484
g facade_completed
f 104 106 487 488
g facade_completed
f 105 104 488 489
g facade_completed
f 106 105 489 487
g facade_completed
f 141 107 490 491
g facade_completed
f 142 141 491 492
g facade_completed
f 107 142 492 490
g facade_completed
f 140 91 493 494
g facade_completed
f 90 140 494 495
g facade_completed
f 91 90 495 493
g facade_completed
f 86 139 496 497
g facade_completed
f 85 86 497 498
g facade_completed
f 139 85 498 496
g facade_completed
f 144 499 500 501
g facade_completed
f 502 144 501 503
g facade_completed
f 504 502 503 505
g facade_completed
f 506 504 505 507
g facade_completed
f 147 506 507 508
g facade_completed
f 509 147 508 510
g facade_completed
f 148 509 510 511
g roof_step_or_fixture_side
f 151 298 152
g roof_step_or_fixture_side
f 298 297 153 152
g roof_step_or_fixture_side
f 297 296 154 153
g roof_step_or_fixture_side
f 296 305 154
g roof_step_or_fixture_side
f 155 305 304
g roof_step_or_fixture_side
f 512 155 304
g roof_step_or_fixture_side
f 512 513 156
g roof_step_or_fixture_side
f 513 303 157 156
g roof_step_or_fixture_side
f 303 306 158 157
g roof_step_or_fixture_side
f 306 302 159 158
g roof_step_or_fixture_side
f 302 160 159
g facade_completed
f 514 162 515 516
g facade_completed
f 517 514 516 518
g facade_completed
f 519 517 518 520
g facade_completed
f 521 519 520 522
g facade_completed
f 523 521 522 524
g facade_completed
f 163 523 524 525 202
g roof_step_or_fixture_side
f 164 163 202 201
g roof_step_or_fixture_side
f 165 164 201 277
g roof_step_or_fixture_side
f 526 165 277 527
g roof_step_or_fixture_side
f 166 526 527 276
g roof_step_or_fixture_side
f 167 166 276 275
g roof_step_or_fixture_side
f 196 167 275 274
g roof_step_or_fixture_side
f 168 196 274 528
g roof_step_or_fixture_side
f 169 168 528 273
g roof_step_or_fixture_side
f 170 169 273 272
g roof_step_or_fixture_side
f 171 170 272 271
g roof_step_or_fixture_side
f 172 171 271 270
g roof_step_or_fixture_side
f 530 172 270 531
g roof_step_or_fixture_side
f 173 530 531 269
g roof_step_or_fixture_side
f 174 173 269 268
g roof_step_or_fixture_side
f 175 174 268 266
g roof_step_or_fixture_side
f 176 175 266 265
g roof_step_or_fixture_side
f 177 176 265 264
g roof_step_or_fixture_side
f 178 177 264 263
g roof_step_or_fixture_side
f 179 178 263 262
g roof_step_or_fixture_side
f 180 179 262 261
g roof_step_or_fixture_side
f 181 180 261 260
g roof_step_or_fixture_side
f 182 181 260 259
g roof_step_or_fixture_side
f 536 182 259 258
g roof_step_or_fixture_side
f 183 536 258 257
g roof_step_or_fixture_side
f 184 183 257 256
g roof_step_or_fixture_side
f 185 184 256 255
g roof_step_or_fixture_side
f 186 185 255 254
g roof_step_or_fixture_side
f 539 186 254 540
g roof_step_or_fixture_side
f 187 539 540 459 133
g facade_completed
f 189 127 542 543
g facade_completed
f 124 189 543 544
g facade_completed
f 194 115 545 546
g facade_completed
f 112 194 546 547
g facade_completed
f 499 111 480 500
g facade_completed
f 146 145 548 549
g facade_completed
f 195 146 549 550
g facade_completed
f 145 195 550 548
g facade_completed
f 115 112 547 545
g facade_completed
f 127 124 544 542
g facade_completed
f 551 202 525 552
g facade_completed
f 553 551 552 554
g facade_completed
f 555 553 554 556
g facade_completed
f 203 555 556 557
g roof_step_or_fixture_side
f 315 314 204 203
g roof_step_or_fixture_side
f 314 205 204
g roof_step_or_fixture_side
f 208 207 326
g roof_step_or_fixture_side
f 209 208 326 325
g roof_step_or_fixture_side
f 210 209 325
g roof_step_or_fixture_side
f 210 324 211
g roof_step_or_fixture_side
f 324 212 211
g roof_step_or_fixture_side
f 215 323 216
g roof_step_or_fixture_side
f 323 217 216
g roof_step_or_fixture_side
f 221 366 222
g roof_step_or_fixture_side
f 366 223 222
g roof_step_or_fixture_side
f 224 560 225
g roof_step_or_fixture_side
f 560 365 226 225
g roof_step_or_fixture_side
f 365 364 227 226
g roof_step_or_fixture_side
f 364 363 562 227
g roof_step_or_fixture_side
f 363 228 562
g roof_step_or_fixture_side
f 234 233 362
g roof_step_or_fixture_side
f 235 234 362
g facade_completed
f 564 236 565 566
g facade_completed
f 237 564 566 567
g facade_completed
f 238 237 567 568
g facade_completed
f 569 238 568 570
g facade_completed
f 571 569 570 572
g facade_completed
f 573 571 572 574
g facade_completed
f 33 573 574 384
g facade_completed
f 25 26 381 380
g roof_step_or_fixture_side
f 243 20 347 346
g roof_step_or_fixture_side
f 244 243 346
g facade_completed
f 246 74 578 377
g facade_completed
f 250 17 376 579
g facade_completed
f 251 250 579 375
g facade_completed
f 215 282 589 590
g facade_completed
f 267 215 590 591
g facade_completed
f 282 267 591 589
g facade_completed
f 279 281 592 593
g facade_completed
f 280 279 593 594
g facade_completed
f 281 280 594 592
g facade_completed
f 219 218 595 596
g facade_completed
f 220 219 596 597
g facade_completed
f 218 220 597 595
g facade_completed
f 230 229 598 599
g facade_completed
f 231 230 599 600
g facade_completed
f 229 231 600 598
g facade_completed
f 283 148 511 601
g facade_completed
f 289 288 602 603
g facade_completed
f 290 289 603 604
g facade_completed
f 291 290 604 605
g facade_completed
f 292 291 605 606
g facade_completed
f 293 292 606 607
g facade_completed
f 294 293 607 608
g facade_completed
f 99 294 608 468
g roof_step_or_fixture_side
f 307 284 95
g facade_completed
f 299 283 601 610
g facade_completed
f 300 299 610 611
g facade_completed
f 301 300 611 612
g facade_completed
f 162 301 612 515
g facade_completed
f 311 310 78 463 614
g facade_completed
f 312 311 614 615
g facade_completed
f 313 312 615 616
g facade_completed
f 288 313 616 602
g facade_completed
f 316 315 203 557 619
g facade_completed
f 317 316 619 620
g facade_completed
f 318 317 620 621
g facade_completed
f 319 318 621 622
g facade_completed
f 322 321 623 624
g facade_completed
f 39 65 402 400
g facade_completed
f 330 329 628 629
g facade_completed
f 331 330 629 630
g roof_step_or_fixture_side
f 334 333 355
g facade_completed
f 335 334 355 631 632
g facade_completed
f 336 335 632 633
g facade_completed
f 337 336 633 634
g facade_completed
f 338 337 634 635
g facade_completed
f 339 338 635 636
g facade_completed
f 340 339 636 404 48
g facade_completed
f 74 18 378 578
g facade_completed
f 351 34 398 639
g facade_completed
f 352 351 639 640
g facade_completed
f 353 352 640 641
g facade_completed
f 354 353 641 642
g facade_completed
f 355 354 642 631
g facade_completed
f 329 331 630 628
g facade_completed
f 356 319 622 643
g facade_completed
f 357 356 643 644
g facade_completed
f 358 357 644 645
g facade_completed
f 359 358 645 646
g facade_completed
f 360 359 646 647
g facade_completed
f 361 360 647 648
g facade_completed
f 236 361 648 565
g facade_completed
f 367 322 624 651
g facade_completed
f 321 367 651 623
g ground_assumed
f 607 468 608
g ground_assumed
f 607 469 468
g ground_assumed
f 607 471 469
g ground_assumed
f 607 473 471
g ground_assumed
f 607 475 473
g ground_assumed
f 607 476 475
g ground_assumed
f 607 477 476
g ground_assumed
f 607 479 477
g ground_assumed
f 607 480 479
g ground_assumed
f 607 500 480
g ground_assumed
f 607 501 500
g ground_assumed
f 607 503 501
g ground_assumed
f 607 505 503
g ground_assumed
f 607 507 505
g ground_assumed
f 607 508 507
g ground_assumed
f 607 510 508
g ground_assumed
f 607 511 510
g ground_assumed
f 607 601 511
g ground_assumed
f 607 610 601
g ground_assumed
f 607 611 610
g ground_assumed
f 607 612 611
g ground_assumed
f 607 515 612
g ground_assumed
f 607 516 515
g ground_assumed
f 607 518 516
g ground_assumed
f 607 520 518
g ground_assumed
f 607 522 520
g ground_assumed
f 607 524 522
g ground_assumed
f 607 525 524
g ground_assumed
f 607 552 525
g ground_assumed
f 607 554 552
g ground_assumed
f 607 556 554
g ground_assumed
f 607 557 556
g ground_assumed
f 607 619 557
g ground_assumed
f 607 620 619
g ground_assumed
f 607 621 620
g ground_assumed
f 607 622 621
g ground_assumed
f 607 643 622
g ground_assumed
f 607 644 643
g ground_assumed
f 607 645 644
g ground_assumed
f 607 646 645
g ground_assumed
f 607 647 646
g ground_assumed
f 607 648 647
g ground_assumed
f 607 565 648
g ground_assumed
f 607 566 565
g ground_assumed
f 607 567 566
g ground_assumed
f 607 568 567
g ground_assumed
f 607 570 568
g ground_assumed
f 607 572 570
g ground_assumed
f 607 574 572
g ground_assumed
f 607 384 574
g ground_assumed
f 607 385 384
g ground_assumed
f 607 387 385
g ground_assumed
f 607 389 387
g ground_assumed
f 607 391 389
g ground_assumed
f 607 393 391
g ground_assumed
f 607 395 393
g ground_assumed
f 607 397 395
g ground_assumed
f 607 398 397
g ground_assumed
f 607 639 398
g ground_assumed
f 639 641 640
g ground_assumed
f 641 631 642
g ground_assumed
f 641 632 631
g ground_assumed
f 641 633 632
g ground_assumed
f 641 634 633
g ground_assumed
f 641 635 634
g ground_assumed
f 641 636 635
g ground_assumed
f 641 404 636
g ground_assumed
f 641 405 404
g ground_assumed
f 641 407 405
g ground_assumed
f 641 409 407
g ground_assumed
f 641 411 409
g ground_assumed
f 641 413 411
g ground_assumed
f 641 415 413
g ground_assumed
f 641 416 415
g ground_assumed
f 641 417 416
g ground_assumed
f 614 616 615
g ground_assumed
f 614 602 616
g ground_assumed
f 614 603 602
g ground_assumed
f 614 604 603
g ground_assumed
f 614 605 604
g ground_assumed
f 614 606 605
g ground_assumed
f 614 607 606
g ground_assumed
f 614 639 607
g ground_assumed
f 639 417 641
g ground_assumed
f 639 419 417
g ground_assumed
f 639 421 419
g ground_assumed
f 639 423 421
g ground_assumed
f 639 424 423
g ground_assumed
f 639 463 424
g ground_assumed
f 639 614 463
