# Source coordinates; no display transform
v -0.0813556440713 -0.13058875359 0.383877994385
v 0.0800412059824 0.129235197405 0.383616303843
v -0.0798976623666 0.504661101214 0.0644101089745
v -0.491405912228 -0.152253273625 0.0622757912398
v 0.080145639928 -0.505195186958 0.0646456870286
v 0.490737227398 0.150255867666 0.0611964360851
v 0.487264492665 0.152431278698 0.0651055065395
v -0.0785231239724 0.506855357124 0.0608901766637
v -0.491743377709 -0.152791989321 0.0614049090846
v 0.0775169731278 -0.509391478779 0.0578620084778
v -0.0798976623666 0.504661101214 -0.38411014234
v -0.491405912228 -0.152253273625 -0.38411014234
v -0.491743377709 -0.152791989321 -0.38411014234
v 0.0775169731278 -0.509391478779 -0.38411014234
v 0.080145639928 -0.505195186958 -0.38411014234
v 0.490737227398 0.150255867666 -0.38411014234
v 0.487264492665 0.152431278698 -0.38411014234
v -0.0785231239724 0.506855357124 -0.38411014234
g roof
f 1 2 3 4
g roof
f 5 6 7 2 1
g roof
f 7 8 3 2
g roof
f 9 10 5 1 4
g wall
f 4 3 11 12
g wall
f 6 5 15 16
g wall
f 7 6 16 17
g wall
f 8 7 17 18
g wall
f 3 8 18 11
g wall
f 10 9 13 14
g wall
f 5 10 14 15
g wall
f 9 4 12 13
g ground_assumed
f 18 17 16 15 14 13 12 11
