# XYZ-only planar convex-roof baseline. Provisional base; no GT.
v -12.00768758 -1.07852303 0.21859361
v 0.24810169 -11.58348526 0.22794881
v 11.27179733 1.27749299 -0.38465372
v -0.98399194 11.78245522 -0.39400892
v -12.00768758 -1.07852303 -0.44171337
v 0.24810169 -11.58348526 -0.44171337
v 11.27179733 1.27749299 -0.44171337
v -0.98399194 11.78245522 -0.44171337
g roof
f 1 2 3 4
g wall
f 2 1 5 6
g wall
f 3 2 6 7
g wall
f 4 3 7 8
g wall
f 1 4 8 5
g ground_assumed
f 8 7 6 5
