v 2680492.7957647075 1248774.595058823 411.66973730289777
v 2680498.1075294111 1248770.042117649 411.6737919272112
v 2680502.8852941156 1248775.6161764727 411.40828471062378
v 2680497.573529412 1248780.1691176465 411.40423008631035
v 2680492.7957647075 1248774.595058823 411.38355456651067
v 2680498.1075294111 1248770.042117649 411.38355456651067
v 2680502.8852941156 1248775.6161764727 411.38355456651067
v 2680497.573529412 1248780.1691176465 411.38355456651067
l 1 2
l 2 3
l 3 4
l 1 4
l 1 5
l 5 6
l 2 6
l 6 7
l 3 7
l 7 8
l 4 8
l 5 8
