# Source coordinates; no display transform
v -0.402844035573 0.530400817211 0.28584384779
v -0.554791567862 -0.240885783627 0.285749154394
v 0.351420450933 -0.419414335766 0.286292401139
v 0.503367983701 0.351872264594 0.286387094534
v -0.402844035573 0.530400817211 -0.284936537865
v -0.554791567862 -0.240885783627 -0.284936537865
v 0.351420450933 -0.419414335766 -0.284936537865
v 0.503367983701 0.351872264594 -0.284936537865
g roof
f 1 2 3 4
g wall
f 2 1 5 6
g wall
f 3 2 6 7
g wall
f 4 3 7 8
g wall
f 1 4 8 5
g ground_assumed
f 8 7 6 5
