# Source coordinates; no display transform
v 0.202317464566 -0.416110568175 0.177141032286
v 0.326636884163 -0.238098561914 0.177737613277
v 0.492126204085 0.003462236634 0.178561048307
v 0.509451347346 0.0327237189025 0.178672558502
v 0.509451347346 0.0367443809187 0.178698170052
v 0.50943738641 0.0375401367604 0.178703299546
v 0.505165433536 0.0464330589963 0.178778412853
v 0.483512494579 0.0624877842684 0.178974274416
v 0.326818372184 0.171241100294 0.180344330024
v -0.259444366778 0.422937316735 0.184481702646
v -0.319181906942 0.352896831133 0.184293752908
v -0.454976964796 0.154837358534 0.183619071817
v -0.493745637121 0.0971380707897 0.183419099843
v -0.51101493802 0.0651961468701 0.18329027398
v -0.51101493802 0.0635906742508 0.183280047228
v -0.493689794759 0.045776909289 0.183091687186
v -0.455074689505 0.0177858440881 0.182746473496
v -0.129401088758 -0.217339103508 0.179841030852
v 0.0928102750459 -0.372567359879 0.17789173755
v 0.13716319966 -0.40247103184 0.177509539376
v 0.183512494806 -0.426804411527 0.177154194717
v 0.202317464566 -0.416110568175 -0.177935222559
v 0.326636884163 -0.238098561914 -0.177935222559
v 0.492126204085 0.003462236634 -0.177935222559
v 0.509451347346 0.0327237189025 -0.177935222559
v 0.509451347346 0.0367443809187 -0.177935222559
v 0.50943738641 0.0375401367604 -0.177935222559
v 0.505165433536 0.0464330589963 -0.177935222559
v 0.483512494579 0.0624877842684 -0.177935222559
v 0.326818372184 0.171241100294 -0.177935222559
v -0.259444366778 0.422937316735 -0.177935222559
v -0.319181906942 0.352896831133 -0.177935222559
v -0.454976964796 0.154837358534 -0.177935222559
v -0.493745637121 0.0971380707897 -0.177935222559
v -0.51101493802 0.0651961468701 -0.177935222559
v -0.51101493802 0.0635906742508 -0.177935222559
v -0.493689794759 0.045776909289 -0.177935222559
v -0.455074689505 0.0177858440881 -0.177935222559
v -0.129401088758 -0.217339103508 -0.177935222559
v 0.0928102750459 -0.372567359879 -0.177935222559
v 0.13716319966 -0.40247103184 -0.177935222559
v 0.183512494806 -0.426804411527 -0.177935222559
g roof
f 1 2 3 4 5 6 7 8 9 10 11 12 13 14 15 16 17 18 19 20 21
g wall
f 2 1 22 23
g wall
f 3 2 23 24
g wall
f 4 3 24 25
g wall
f 5 4 25 26
g wall
f 6 5 26 27
g wall
f 7 6 27 28
g wall
f 8 7 28 29
g wall
f 9 8 29 30
g wall
f 10 9 30 31
g wall
f 11 10 31 32
g wall
f 12 11 32 33
g wall
f 13 12 33 34
g wall
f 14 13 34 35
g wall
f 15 14 35 36
g wall
f 16 15 36 37
g wall
f 17 16 37 38
g wall
f 18 17 38 39
g wall
f 19 18 39 40
g wall
f 20 19 40 41
g wall
f 21 20 41 42
g wall
f 1 21 42 22
g ground_assumed
f 42 41 40 39 38 37 36 35 34 33 32 31 30 29 28 27 26 25 24 23 22
