# XYZ-only planar convex-roof baseline. Provisional base; no GT.
v -14.46950507 -2.71657335 0.02679356
v 14.54659773 -3.75286274 0.04713404
v 14.77261234 2.57554643 -0.06129377
v -14.24349046 3.61183581 -0.08163425
v -14.46950507 -2.71657335 -0.35892382
v 14.54659773 -3.75286274 -0.35892382
v 14.77261234 2.57554643 -0.35892382
v -14.24349046 3.61183581 -0.35892382
g roof
f 1 2 3 4
g wall
f 2 1 5 6
g wall
f 3 2 6 7
g wall
f 4 3 7 8
g wall
f 1 4 8 5
g ground_assumed
f 8 7 6 5
