# Source coordinates; no display transform
v 0.357891451065 -0.353006359886 0.279107101544
v 0.367119278901 -0.329017909431 0.279109096876
v 0.376073978658 -0.301041788729 0.279111033013
v 0.421822935074 -0.157103281296 0.279120924971
v 0.485169144215 0.0429864607946 0.279134621826
v 0.494763744071 0.0750321903117 0.279136696086
v 0.498782629286 0.0936907408673 0.279137564773
v 0.498786530916 0.0988294507741 0.279137565735
v 0.494775449925 0.103020016386 0.279136698011
v 0.189328495189 0.284896016397 0.279070618629
v 0.179507589224 0.289956689847 0.279068493836
v 0.165702914642 0.295274883893 0.279065507575
v -0.0163603732497 0.352405478294 0.279026122622
v -0.35398181756 0.367821608495 0.278953088453
v -0.360907565595 0.367466541848 0.278951590269
v -0.362316126331 0.366311600076 0.278951285627
v -0.366775917911 0.353181942192 0.278950321168
v -0.380549377525 0.3097935934 0.278947343089
v -0.421331304432 0.180026532568 0.278938525318
v -0.498041281308 -0.0691170157471 0.278921939419
v -0.499469351159 -0.0755706424501 0.278921630927
v -0.499469351159 -0.0807600764386 0.278921630927
v -0.499465449529 -0.0867415818092 0.278921631889
v -0.288356939362 -0.251625112115 0.278967303632
v -0.279449061576 -0.255109446544 0.278969230624
v -0.138760778719 -0.300198993266 0.278999665458
v 0.0797143858474 -0.368828280336 0.279046927306
v 0.0888134536264 -0.369038979442 0.279048895688
v 0.357891451065 -0.353006359886 -0.362012747182
v 0.367119278901 -0.329017909431 -0.362012747182
v 0.376073978658 -0.301041788729 -0.362012747182
v 0.421822935074 -0.157103281296 -0.362012747182
v 0.485169144215 0.0429864607946 -0.362012747182
v 0.494763744071 0.0750321903117 -0.362012747182
v 0.498782629286 0.0936907408673 -0.362012747182
v 0.498786530916 0.0988294507741 -0.362012747182
v 0.494775449925 0.103020016386 -0.362012747182
v 0.189328495189 0.284896016397 -0.362012747182
v 0.179507589224 0.289956689847 -0.362012747182
v 0.165702914642 0.295274883893 -0.362012747182
v -0.0163603732497 0.352405478294 -0.362012747182
v -0.35398181756 0.367821608495 -0.362012747182
v -0.360907565595 0.367466541848 -0.362012747182
v -0.362316126331 0.366311600076 -0.362012747182
v -0.366775917911 0.353181942192 -0.362012747182
v -0.380549377525 0.3097935934 -0.362012747182
v -0.421331304432 0.180026532568 -0.362012747182
v -0.498041281308 -0.0691170157471 -0.362012747182
v -0.499469351159 -0.0755706424501 -0.362012747182
v -0.499469351159 -0.0807600764386 -0.362012747182
v -0.499465449529 -0.0867415818092 -0.362012747182
v -0.288356939362 -0.251625112115 -0.362012747182
v -0.279449061576 -0.255109446544 -0.362012747182
v -0.138760778719 -0.300198993266 -0.362012747182
v 0.0797143858474 -0.368828280336 -0.362012747182
v 0.0888134536264 -0.369038979442 -0.362012747182
g roof
f 1 2 3 4 5 6 7 8 9 10 11 12 13 14 15 16 17 18 19 20 21 22 23 24 25 26 27 28
g wall
f 2 1 29 30
g wall
f 3 2 30 31
g wall
f 4 3 31 32
g wall
f 5 4 32 33
g wall
f 6 5 33 34
g wall
f 7 6 34 35
g wall
f 8 7 35 36
g wall
f 9 8 36 37
g wall
f 10 9 37 38
g wall
f 11 10 38 39
g wall
f 12 11 39 40
g wall
f 13 12 40 41
g wall
f 14 13 41 42
g wall
f 15 14 42 43
g wall
f 16 15 43 44
g wall
f 17 16 44 45
g wall
f 18 17 45 46
g wall
f 19 18 46 47
g wall
f 20 19 47 48
g wall
f 21 20 48 49
g wall
f 22 21 49 50
g wall
f 23 22 50 51
g wall
f 24 23 51 52
g wall
f 25 24 52 53
g wall
f 26 25 53 54
g wall
f 27 26 54 55
g wall
f 28 27 55 56
g wall
f 1 28 56 29
g ground_assumed
f 56 55 54 53 52 51 50 49 48 47 46 45 44 43 42 41 40 39 38 37 36 35 34 33 32 31 30 29
