v 0.35789145106473463 -0.35300635988595341 0.27910710154375179
v 0.3671192789008626 -0.32901790943110343 0.27910909687609642
v 0.37607397865765813 -0.30104178872923948 0.27911103301261903
v 0.42182293507408053 -0.15710328129569362 0.27912092497137736
v 0.48516914421519952 0.042986460794645333 0.27913462182582244
v 0.49476374407107493 0.075032190311703273 0.27913669608592989
v 0.49878262928573858 0.093690740867347119 0.27913756477258744
v 0.4987865309160614 0.098829450774133715 0.27913756573512111
v 0.49477544992457689 0.10302001638580247 0.27913669801099728
v 0.18932849518884856 0.28489601639683515 0.27907061862920285
v 0.17950758922384816 0.2899566898470316 0.27906849383607657
v 0.16570291464215642 0.29527488389273571 0.27906550757529541
v -0.016360373249706187 0.35240547829356306 0.27902612262166343
v -0.35398181755961289 0.36782160849518963 0.27895308845267347
v -0.36090756559492909 0.36746654184767735 0.27895159026898098
v -0.36231612633147614 0.36631160007631525 0.27895128562706734
v -0.36677591791088771 0.35318194219167576 0.27895032116830737
v -0.3805493775249299 0.30979359339977464 0.2789473430890626
v -0.42133130443157085 0.18002653256766804 0.27893852531790514
v -0.49804128130836678 -0.069117015747142768 0.2789219394185819
v -0.49946935115906133 -0.075570642450061426 0.27892163092653344
v -0.49946935115906133 -0.080760076438645093 0.27892163092653344
v -0.49946544952873861 -0.086741581809166232 0.2789216318890671
v -0.28835693936215234 -0.25162511211534289 0.27896730363151195
v -0.27944906157556426 -0.25510944654357681 0.27896923062396445
v -0.13876077871921499 -0.30019899326550492 0.27899966545805621
v 0.079714385847435357 -0.36882828033562254 0.27904692730616115
v 0.088813453626442954 -0.36903897944218966 0.27904889568756241
v 0.35789145106473463 -0.35300635988595341 -0.36201274718227677
v 0.3671192789008626 -0.32901790943110343 -0.36201274718227677
v 0.37607397865765813 -0.30104178872923948 -0.36201274718227677
v 0.42182293507408053 -0.15710328129569362 -0.36201274718227677
v 0.48516914421519952 0.042986460794645333 -0.36201274718227677
v 0.49476374407107493 0.075032190311703273 -0.36201274718227677
v 0.49878262928573858 0.093690740867347119 -0.36201274718227677
v 0.4987865309160614 0.098829450774133715 -0.36201274718227677
v 0.49477544992457689 0.10302001638580247 -0.36201274718227677
v 0.18932849518884856 0.28489601639683515 -0.36201274718227677
v 0.17950758922384816 0.2899566898470316 -0.36201274718227677
v 0.16570291464215642 0.29527488389273571 -0.36201274718227677
v -0.016360373249706187 0.35240547829356306 -0.36201274718227677
v -0.35398181755961289 0.36782160849518963 -0.36201274718227677
v -0.36090756559492909 0.36746654184767735 -0.36201274718227677
v -0.36231612633147614 0.36631160007631525 -0.36201274718227677
v -0.36677591791088771 0.35318194219167576 -0.36201274718227677
v -0.3805493775249299 0.30979359339977464 -0.36201274718227677
v -0.42133130443157085 0.18002653256766804 -0.36201274718227677
v -0.49804128130836678 -0.069117015747142768 -0.36201274718227677
v -0.49946935115906133 -0.075570642450061426 -0.36201274718227677
v -0.49946935115906133 -0.080760076438645093 -0.36201274718227677
v -0.49946544952873861 -0.086741581809166232 -0.36201274718227677
v -0.28835693936215234 -0.25162511211534289 -0.36201274718227677
v -0.27944906157556426 -0.25510944654357681 -0.36201274718227677
v -0.13876077871921499 -0.30019899326550492 -0.36201274718227677
v 0.079714385847435357 -0.36882828033562254 -0.36201274718227677
v 0.088813453626442954 -0.36903897944218966 -0.36201274718227677
l 1 2
l 2 3
l 3 4
l 4 5
l 5 6
l 6 7
l 7 8
l 8 9
l 9 10
l 10 11
l 11 12
l 12 13
l 13 14
l 14 15
l 15 16
l 16 17
l 17 18
l 18 19
l 19 20
l 20 21
l 21 22
l 22 23
l 23 24
l 24 25
l 25 26
l 26 27
l 27 28
l 1 28
l 1 29
l 29 30
l 30 31
l 31 32
l 32 33
l 33 34
l 34 35
l 7 35
l 35 36
l 8 36
l 36 37
l 9 37
l 37 38
l 38 39
l 39 40
l 40 41
l 13 41
l 41 42
l 42 43
l 15 43
l 43 44
l 16 44
l 44 45
l 45 46
l 46 47
l 47 48
l 48 49
l 21 49
l 49 50
l 50 51
l 23 51
l 51 52
l 24 52
l 52 53
l 53 54
l 54 55
l 27 55
l 55 56
l 29 56
