# Source coordinates; no display transform
v -0.501684254995 -0.0211105322528 0.252539020249
v -0.492799712113 -0.412897920651 0.13248772398
v 0.511462950481 -0.390124307617 0.128666125819
v 0.502206222329 0.0180755820064 0.253746532515
v 0.493267682695 0.412244116269 0.134488807089
v -0.510994979899 0.389470503236 0.128315607885
v -0.501684254995 -0.0211105322528 -0.255606771206
v -0.492799712113 -0.412897920651 -0.255606771206
v 0.511462950481 -0.390124307617 -0.255606771206
v 0.502206222329 0.0180755820064 -0.255606771206
v 0.493267682695 0.412244116269 -0.255606771206
v -0.510994979899 0.389470503236 -0.255606771206
g roof
f 1 2 3 4
g roof
f 5 6 1 4
g wall
f 2 1 7 8
g wall
f 3 2 8 9
g wall
f 4 3 9 10
g wall
f 6 5 11 12
g wall
f 1 6 12 7
g wall
f 5 4 10 11
g ground_assumed
f 12 11 10 9 8 7
