# XYZ-only planar convex-roof baseline. Provisional base; no GT.
v 5.79221985 -4.03424906 2.89987895
v 8.43430552 0.42848265 1.16258625
v -3.36495398 7.41403690 1.16683006
v -6.00794157 2.94978176 2.90471582
v -8.61417212 -1.45238727 1.17266776
v 3.18508739 -8.43794151 1.16723150
v 5.79221985 -4.03424906 -2.67154935
v 8.43430552 0.42848265 -2.67154935
v -3.36495398 7.41403690 -2.67154935
v -6.00794157 2.94978176 -2.67154935
v -8.61417212 -1.45238727 -2.67154935
v 3.18508739 -8.43794151 -2.67154935
g roof
f 1 2 3 4
g roof
f 5 6 1 4
g wall
f 2 1 7 8
g wall
f 3 2 8 9
g wall
f 4 3 9 10
g wall
f 6 5 11 12
g wall
f 1 6 12 7
g wall
f 5 4 10 11
g ground_assumed
f 12 11 10 9 8 7
