# Source coordinates; no display transform
v 2680492.79576 1248774.59506 411.67026884
v 2680498.10753 1248770.04212 411.673644347
v 2680502.88529 1248775.61618 411.408788353
v 2680497.57353 1248780.16912 411.40541285
v 2680492.79576 1248774.59506 411.383554567
v 2680498.10753 1248770.04212 411.383554567
v 2680502.88529 1248775.61618 411.383554567
v 2680497.57353 1248780.16912 411.383554567
g roof
f 1 2 3 4
g wall
f 2 1 5 6
g wall
f 3 2 6 7
g wall
f 4 3 7 8
g wall
f 1 4 8 5
g ground_assumed
f 8 7 6 5
