v 2685276.4999999991 1252430.6250000007 429.90653582207648
v 2685276.7499999995 1252428.4999999998 429.94297351392373
v 2685278.2499999991 1252428.2499999993 429.94739115404394
v 2685282.25 1252428.1249999991 429.94988916765323
v 2685287.5 1252427.9999999986 429.95249841255736
v 2685288.0000000009 1252428.1249999991 429.95040081762045
v 2685288.2500000019 1252428.4999999998 429.94399680974374
v 2685288.2500000019 1252430.2499999998 429.91400761993691
v 2685288.0000000009 1252430.3750000002 429.91184328786886
v 2685287.2499999995 1252430.5000000005 429.90963446986603
v 2685281.2500000019 1252430.7500000009 429.90481640284452
v 2685277 1252430.7500000009 429.90443823125406
v 2685276.4999999991 1252430.6250000007 429.78731848310667
v 2685276.7499999995 1252428.4999999998 429.78731848310667
v 2685278.2499999991 1252428.2499999993 429.78731848310667
v 2685282.25 1252428.1249999991 429.78731848310667
v 2685287.5 1252427.9999999986 429.78731848310667
v 2685288.0000000009 1252428.1249999991 429.78731848310667
v 2685288.2500000019 1252428.4999999998 429.78731848310667
v 2685288.2500000019 1252430.2499999998 429.78731848310667
v 2685288.0000000009 1252430.3750000002 429.78731848310667
v 2685287.2499999995 1252430.5000000005 429.78731848310667
v 2685281.2500000019 1252430.7500000009 429.78731848310667
v 2685277 1252430.7500000009 429.78731848310667
l 1 2
l 2 3
l 3 4
l 4 5
l 5 6
l 6 7
l 7 8
l 8 9
l 9 10
l 10 11
l 11 12
l 1 12
l 1 13
l 13 14
l 2 14
l 14 15
l 15 16
l 16 17
l 5 17
l 17 18
l 6 18
l 18 19
l 7 19
l 19 20
l 8 20
l 20 21
l 9 21
l 21 22
l 22 23
l 23 24
l 12 24
l 13 24
