# XYZ-only planar convex-roof baseline. Provisional base; no GT.
v 9.61447863 -7.43619831 0.91329917
v 11.11674091 -6.83529340 0.92212502
v 12.91945566 -3.68054260 0.94427811
v 12.91945566 -3.22986391 0.94641924
v 9.91493109 -1.12669671 0.94446913
v -5.10769177 6.68506717 0.92187182
v -5.40814423 6.83529340 0.92139133
v -7.51131143 7.28597209 0.91517303
v -9.31402617 7.43619831 0.90872152
v -9.61447863 7.28597209 0.90681361
v -11.41719337 5.33303111 0.89037019
v -12.91945566 3.07963769 0.87369355
v -12.91945566 2.77918523 0.87226613
v -11.11674091 1.72760163 0.87443539
v 2.10316720 -5.48325734 0.89272231
v 4.20633440 -6.53484094 0.89608577
v 9.31402617 -7.43619831 0.91210497
v 9.61447863 -7.43619831 -1.64485588
v 11.11674091 -6.83529340 -1.64485588
v 12.91945566 -3.68054260 -1.64485588
v 12.91945566 -3.22986391 -1.64485588
v 9.91493109 -1.12669671 -1.64485588
v -5.10769177 6.68506717 -1.64485588
v -5.40814423 6.83529340 -1.64485588
v -7.51131143 7.28597209 -1.64485588
v -9.31402617 7.43619831 -1.64485588
v -9.61447863 7.28597209 -1.64485588
v -11.41719337 5.33303111 -1.64485588
v -12.91945566 3.07963769 -1.64485588
v -12.91945566 2.77918523 -1.64485588
v -11.11674091 1.72760163 -1.64485588
v 2.10316720 -5.48325734 -1.64485588
v 4.20633440 -6.53484094 -1.64485588
v 9.31402617 -7.43619831 -1.64485588
g roof
f 1 2 3 4 5 6 7 8 9 10 11 12 13 14 15 16 17
g wall
f 2 1 18 19
g wall
f 3 2 19 20
g wall
f 4 3 20 21
g wall
f 5 4 21 22
g wall
f 6 5 22 23
g wall
f 7 6 23 24
g wall
f 8 7 24 25
g wall
f 9 8 25 26
g wall
f 10 9 26 27
g wall
f 11 10 27 28
g wall
f 12 11 28 29
g wall
f 13 12 29 30
g wall
f 14 13 30 31
g wall
f 15 14 31 32
g wall
f 16 15 32 33
g wall
f 17 16 33 34
g wall
f 1 17 34 18
g ground_assumed
f 34 33 32 31 30 29 28 27 26 25 24 23 22 21 20 19 18
