# Source coordinates; no display transform
v 2686086 1251466.875 427.119937123
v 2686087.25 1251467.375 427.127280922
v 2686088.75 1251470 427.14571403
v 2686088.75 1251470.375 427.147495618
v 2686086.25 1251472.125 427.145872973
v 2686073.75 1251478.625 427.12707024
v 2686073.5 1251478.75 427.126670435
v 2686071.75 1251479.125 427.121496321
v 2686070.25 1251479.25 427.116128159
v 2686070 1251479.125 427.114540629
v 2686068.5 1251477.5 427.100858414
v 2686067.25 1251475.625 427.086982142
v 2686067.25 1251475.375 427.085794417
v 2686068.75 1251474.5 427.087599411
v 2686079.75 1251468.5 427.102815562
v 2686081.5 1251467.625 427.105614225
v 2686085.75 1251466.875 427.118943455
v 2686086 1251466.875 424.991351561
v 2686087.25 1251467.375 424.991351561
v 2686088.75 1251470 424.991351561
v 2686088.75 1251470.375 424.991351561
v 2686086.25 1251472.125 424.991351561
v 2686073.75 1251478.625 424.991351561
v 2686073.5 1251478.75 424.991351561
v 2686071.75 1251479.125 424.991351561
v 2686070.25 1251479.25 424.991351561
v 2686070 1251479.125 424.991351561
v 2686068.5 1251477.5 424.991351561
v 2686067.25 1251475.625 424.991351561
v 2686067.25 1251475.375 424.991351561
v 2686068.75 1251474.5 424.991351561
v 2686079.75 1251468.5 424.991351561
v 2686081.5 1251467.625 424.991351561
v 2686085.75 1251466.875 424.991351561
g roof
f 1 2 3 4 5 6 7 8 9 10 11 12 13 14 15 16 17
g wall
f 2 1 18 19
g wall
f 3 2 19 20
g wall
f 4 3 20 21
g wall
f 5 4 21 22
g wall
f 6 5 22 23
g wall
f 7 6 23 24
g wall
f 8 7 24 25
g wall
f 9 8 25 26
g wall
f 10 9 26 27
g wall
f 11 10 27 28
g wall
f 12 11 28 29
g wall
f 13 12 29 30
g wall
f 14 13 30 31
g wall
f 15 14 31 32
g wall
f 16 15 32 33
g wall
f 17 16 33 34
g wall
f 1 17 34 18
g ground_assumed
f 34 33 32 31 30 29 28 27 26 25 24 23 22 21 20 19 18
