v 2686086.0000000005 1251466.875000004 427.11993712295924
v 2686087.2499999958 1251467.3750000005 427.12728092211086
v 2686088.7500000019 1251470.0000000002 427.14571402980556
v 2686088.7500000019 1251470.3750000037 427.14749561783134
v 2686086.2500000033 1251472.1250000037 427.1458729734216
v 2686073.7500000014 1251478.6249999984 427.12707023985985
v 2686073.4999999991 1251478.7499999995 427.12667043450915
v 2686071.7499999991 1251479.1250000033 427.12149632139091
v 2686070.2500000019 1251479.249999996 427.11612815926895
v 2686069.9999999995 1251479.1250000033 427.11454062856774
v 2686068.5000000019 1251477.499999996 427.10085841395437
v 2686067.2499999981 1251475.6250000035 427.08698214201638
v 2686067.2499999981 1251475.3750000009 427.08579441666586
v 2686068.7500000042 1251474.5000000012 427.08759941105706
v 2686079.75 1251468.5000000026 427.1028155622019
v 2686081.5 1251467.6250000028 427.10561422461905
v 2686085.7499999981 1251466.875000004 427.11894345493329
v 2686086.0000000005 1251466.875000004 424.9913515605669
v 2686087.2499999958 1251467.3750000005 424.9913515605669
v 2686088.7500000019 1251470.0000000002 424.9913515605669
v 2686088.7500000019 1251470.3750000037 424.9913515605669
v 2686086.2500000033 1251472.1250000037 424.9913515605669
v 2686073.7500000014 1251478.6249999984 424.9913515605669
v 2686073.4999999991 1251478.7499999995 424.9913515605669
v 2686071.7499999991 1251479.1250000033 424.9913515605669
v 2686070.2500000019 1251479.249999996 424.9913515605669
v 2686069.9999999995 1251479.1250000033 424.9913515605669
v 2686068.5000000019 1251477.499999996 424.9913515605669
v 2686067.2499999981 1251475.6250000035 424.9913515605669
v 2686067.2499999981 1251475.3750000009 424.9913515605669
v 2686068.7500000042 1251474.5000000012 424.9913515605669
v 2686079.75 1251468.5000000026 424.9913515605669
v 2686081.5 1251467.6250000028 424.9913515605669
v 2686085.7499999981 1251466.875000004 424.9913515605669
l 1 2
l 2 3
l 3 4
l 4 5
l 5 6
l 6 7
l 7 8
l 8 9
l 9 10
l 10 11
l 11 12
l 12 13
l 13 14
l 14 15
l 15 16
l 16 17
l 1 17
l 1 18
l 18 19
l 2 19
l 19 20
l 3 20
l 20 21
l 4 21
l 21 22
l 22 23
l 23 24
l 7 24
l 24 25
l 25 26
l 9 26
l 26 27
l 10 27
l 27 28
l 28 29
l 12 29
l 29 30
l 13 30
l 30 31
l 31 32
l 32 33
l 16 33
l 33 34
l 17 34
l 18 34
