v 2680845.0000041807 1250259.7499992521 500.07977680879623
v 2680845.2499869922 1250259.3750007234 500.08022103427334
v 2680845.5000184262 1250259.6250078464 500.07917696663145
v 2680845.5042971778 1250260.0107761873 500.07825073108285
v 2680845.2456677221 1250260.114227969 500.07846860727562
v 2680844.9999960768 1250260.5000044138 500.07799098037935
v 2680844.9999879734 1250259.8749825542 500.07947923902293
v 2680844.5000061421 1250259.7500073561 500.08067422029785
v 2680844.5129477447 1250260.282339141 500.07938345241621
v 2680844.4999899347 1250260.000014479 500.08007895550526
v 2680844.9870949928 1250260.0926802417 500.07898401876628
v 2680844.0000243112 1250260.7500115368 500.07919050455104
v 2680843.7499928772 1250260.5000044138 500.08023457175648
v 2680843.7500090846 1250260.1249734699 500.08112753200481
v 2680844 1250260.3749968002 500.08008349840196
v 2680843.2499948391 1250260.5000125172 500.0811319832581
v 2680843.2499948391 1250260.3749886968 500.08142967871385
v 2680842.999979612 1250259.9999982717 500.08277131569258
v 2680843.0000120266 1250259.6250078464 500.08366414982208
v 2680843.2499867352 1250259.8749906581 500.08262024233807
v 2680843.2500110464 1250260.2500053942 500.08172724805075
v 2680842.9999877159 1250259.2499931101 500.08455714410945
v 2680842.5129231759 1250259.2823349608 500.08535435135366
v 2680842.9870704245 1250259.0926760612 500.08495491770373
v 2680842.5129312798 1250259.6573091785 500.08446148318518
v 2680842.9870785279 1250259.4676502789 500.0840620490988
v 2680842.4568780148 1250259.2672458789 500.08549087391032
v 2680842.2930861129 1250258.8577661237 500.08675987429058
v 2680842.5000058846 1250258.999994091 500.08604982040367
v 2680842.5000058846 1250260.3750211115 500.0827757329069
v 2680842.0129251378 1250260.4073224431 500.08357306626993
v 2680842.4870723858 1250260.217663544 500.08317363218362
v 2680842.0129494485 1250260.7823371796 500.08268007198262
v 2680842.4870561785 1250260.5926944877 500.08228067237167
v 2680842.5000139885 1250260.749995329 500.08188286473836
v 2680842.0129170339 1250261.1573276047 500.08178723785306
v 2680842.4870642824 1250260.9676687052 500.08138780376675
v 2680842.4999815738 1250261.124985754 500.08099003017247
v 2680841.2629280803 1250260.9073123783 500.08372868252115
v 2680841.2616071776 1250260.8749867349 500.0838080243654
v 2680841.3437624471 1250260.8749786315 500.08366058576468
v 2680841.2499864777 1250261.7500076133 500.08174536334241
v 2680840.7629219382 1250261.7823494636 500.08254257058661
v 2680841.2232118663 1250261.5982334923 500.08215481056664
v 2680840.7499884395 1250261.750015717 500.08264277484403
v 2680840.7500127503 1250262.0000066324 500.08204747557602
v 2680840.7499803356 1250262.3749970577 500.08115464144652
v 2680840.7500127503 1250263.1249860115 500.07936877899067
v 2680841.2500107889 1250263.2500017283 500.07817367246975
v 2680840.7500127503 1250263.2500098322 500.07907108397137
v 2680840.4999813163 1250263.0000027092 500.08011515117681
v 2680840.500013731 1250261.3750090844 500.08398437734741
v 2680840.7499965429 1250261.0000105558 500.08442860282452
v 2680840.7629300416 1250259.6573172819 500.08760248606387
v 2680841.2370772902 1250259.4676583828 500.08720305241394
v 2680841.7500007236 1250258.9999859871 500.08739600027917
v 2680841.9999916391 1250259.2500093174 500.08635196711271
v 2680841.9999835351 1250261.1249938579 500.0818874416741
v 2680841.7500007236 1250261.4999923867 500.08144321619699
v 2680841.7500088275 1250260.8750110462 500.0829313495945
v 2680841.6939636664 1250260.7348981437 500.08336556717046
v 2680841.2456753114 1250260.4892264982 500.08475515636621
v 2680841.2500107889 1250260.8750191496 500.08382876109613
v 2680841.2499864777 1250261.6249837927 500.08204305836176
v 2680841.2387952735 1250261.613808796 500.0820897537543
v 2680841.0000117696 1250261.3750009809 500.08308696584578
v 2680841.547416429 1250260.3685300509 500.0845009618742
v 2680840.2499822974 1250259.874998762 500.08800483703033
v 2680840.2499985048 1250261.0000186593 500.08532601432614
v 2680840.0000156928 1250261.2499933676 500.08517948430477
v 2680839.9569121338 1250263.0172392703 500.08104884693864
v 2680839.7931202324 1250262.6077595158 500.08231784731896
v 2680839.7457055072 1250260.6142179037 500.08714978749526
v 2680840.0042944439 1250260.5107823294 500.08693194534146
v 2680839.9999913815 1250259.7499992521 500.08875117517744
v 2680839.0430826559 1250260.6077592582 500.08842628169134
v 2680839.0000034082 1250260.2500134981 500.08935543455647
v 2680839.2499943241 1250260.2499891869 500.08890679142866
v 2680839.5000176542 1250259.9999982717 500.08905328784743
v 2680839.5000014468 1250260.2500053942 500.08845802305484
v 2680839.2500186353 1250260.6250039232 500.08801379757773
v 2680839.2068745582 1250261.0172390132 500.08715728131108
v 2680847.7500095991 1250259.1249936004 500.07632911587535
v 2680847.2629450592 1250259.1573354511 500.07712632311956
v 2680847.7370923078 1250258.9676765515 500.07672688946963
v 2680847.7499933918 1250259.5000245443 500.0754361560634
v 2680847.2629126445 1250259.5323258764 500.07623348899006
v 2680847.7370598931 1250259.3426669766 500.07583405534012
v 2680847.7370842039 1250259.7176817132 500.07494106105275
v 2680847.7500014952 1250259.874998762 500.07454328745848
v 2680847.2629369558 1250259.9073406123 500.07534049470269
v 2680847.7370517892 1250260.0926721378 500.07404822692325
v 2680847.7500095991 1250260.2499729795 500.07365041885362
v 2680847.2629450592 1250260.28231483 500.07444762653421
v 2680846.9999963343 1250259.8749906581 500.07588946733398
v 2680847.0000044378 1250259.124985497 500.07767529575079
v 2680847.2499872497 1250258.749986968 500.0781195212279
v 2680847.2499953532 1250260.6250120266 500.07365487054329
v 2680847.0000125417 1250260.8749867349 500.07350834008548
v 2680847.004315604 1250261.6357698117 500.0716891106859
v 2680846.7456861488 1250261.7392215941 500.07190698687867
v 2680846.7500135223 1250260.2499891869 500.07544524185687
v 2680845.4820687398 1250261.2196612337 500.07541214286113
v 2680845.0129457829 1250261.4073104165 500.07580734432923
v 2680843.9999918961 1250261.2500257823 500.07799997496579
v 2680843.9999918961 1250261.1250019614 500.07829767042153
v 2680845.4820444286 1250261.2173678877 500.07541764757769
v 2680845.0000041807 1250261.0000024519 500.07680041675513
v 2680844.5129396408 1250261.0323443026 500.07759762443578
v 2680844.9870868893 1250260.8426854028 500.07719819034946
v 2680845.4779277514 1250260.9932196587 500.07595875720091
v 2680845.4698159518 1250260.5495747214 500.07702968335599
v 2680846.0301865246 1250260.3254264924 500.07655761267119
v 2680845.9698139899 1250259.4245872386 500.07881096843965
v 2680846.5301845632 1250259.2004390096 500.07833889775486
v 2680846.4999982957 1250259.874998762 500.07678687883561
v 2680846.2500154837 1250260.2499972908 500.07634265335849
v 2680846.2499911725 1250261.5966451678 500.07313618389026
v 2680846.749997315 1250261.7499995094 500.07187358545957
v 2680846.2499992764 1250261.7500076133 500.0727709969612
v 2680845.7629347364 1250261.7823494636 500.0735682042054
v 2680846.223224665 1250261.5982334923 500.07318044418543
v 2680845.9999840502 1250261.3750171883 500.07411263393993
v 2680845.7500012377 1250261.750015717 500.07366840846282
v 2680845.706921991 1250262.5172493355 500.07191886430621
v 2680845.5819143774 1250262.2047303028 500.0728873780331
v 2680844.7629143489 1250262.5323303139 500.07357732447429
v 2680844.7629305562 1250262.4073470118 500.07387489424758
v 2680845.2370778043 1250262.2176881123 500.07347546016126
v 2680845.250011303 1250261.9999742177 500.07397064637888
v 2680844.7586355973 1250262.0215381524 500.07480125547863
v 2680845.491371783 1250261.7284436785 500.07418397967496
v 2680845.4780493067 1250260.9999862446 500.07594242721092
v 2680844.4999980386 1250260.5000125172 500.07888839188098
v 2680844.9870625781 1250260.467670667 500.07809118463678
v 2680844.5129153295 1250260.6573295661 500.07849061828671
v 2680843.9999837927 1250261.7499833021 500.07680953702402
v 2680844.0000162073 1250261.5000166979 500.07740467613417
v 2680844.9870787854 1250261.5926905645 500.07541236193259
v 2680844.5267888568 1250261.7768065357 500.07580012195257
v 2680844.7500132648 1250261.9999823212 500.07486805788051
v 2680844.7068853956 1250262.39225793 500.0740114163678
v 2680844.5430934932 1250261.982778175 500.07528041674806
v 2680844.5058813216 1250261.7818794493 500.07582556915668
v 2680844.0000081039 1250261.9999742177 500.07621423819239
v 2680844.4870888507 1250261.9676728859 500.07541690526574
v 2680844.0129416026 1250262.157331785 500.07581633891567
v 2680842.7629302992 1250261.6573337468 500.07925049391702
v 2680843.2370775477 1250261.4676748472 500.07885106026708
v 2680843.2499948391 1250261.6249918961 500.07845328667275
v 2680842.4429963841 1250263.3575053588 500.07577644215792
v 2680842.2930942168 1250262.9827499408 500.07693782956244
v 2680841.793112386 1250261.4827477217 500.08140689789775
v 2680841.9569042875 1250261.8922274767 500.08013789751749
v 2680842.5000058846 1250261.3749766697 500.08039473134085
v 2680842.7499968004 1250261.625 500.07935069817438
v 2680842.7500130078 1250262.6249960768 500.07696957092594
v 2680842.7499805931 1250262.9999865019 500.07607673679644
v 2680842.4754192713 1250263.3674729047 500.07569451335002
v 2680842.4999977811 1250263.3749850306 500.07563251131933
v 2680842.9999958193 1250263.5000007479 500.07443740436196
v 2680841.512935203 1250263.4073349847 500.07732713006516
v 2680841.9870824511 1250263.2176760854 500.07692769641523
v 2680841.9999916391 1250263.221630689 500.07689510975001
v 2680841.9999916391 1250262.8749950959 500.07772048644517
v 2680841.750016931 1250262.6250122841 500.07876439392919
v 2680842.0232897648 1250263.2287619414 500.07683631218532
v 2680841.250002685 1250262.6249798695 500.07966193111326
v 2680841.2500188923 1250262.4999965671 500.07995950045017
v 2680841.2500107889 1250261.9999985285 500.08115006407439
v 2680841.2499945816 1250262.1249818308 500.08085249473748
v 2680841.2499783742 1250262.3749889538 500.08025722994489
v 2680841.29309814 1250262.9827661482 500.07873265300208
v 2680841.4568900419 1250263.3922459029 500.07746365262182
v 2680841.5000098078 1250263.7499754557 500.07653446571771
v 2680841.2499783742 1250263.6249921536 500.0772808379038
v 2680847.2629288519 1250263.0323283521 500.06789957765943
v 2680846.9999882304 1250263.2500260395 500.06785316025201
v 2680846.999980127 1250262.6250041807 500.06934141889559
v 2680847.2500034571 1250262.2499894442 500.06978561033367
v 2680847.2499791458 1250261.9999985285 500.07038090916529
v 2680847.5000024764 1250261.7500076133 500.07052740514769
v 2680847.5000105798 1250261.0000024519 500.07231323356456
v 2680847.7499771845 1250260.7499872255 500.07245988970476
v 2680847.7930807429 1250260.2327445219 500.07361413459336
v 2680847.9568888526 1250260.6422647955 500.07234500896703
v 2680848.2500076373 1250260.3749886968 500.07245531233264
v 2680848.2931030924 1250260.7327749752 500.07152603422145
v 2680848.4568949947 1250261.1422547302 500.07025703384119
v 2680849.0000127992 1250261.4999761791 500.0684304354354
v 2680848.9870874039 1250262.2176881123 500.06674468559351
v 2680848.4894394372 1250262.416747299 500.06716391684705
v 2680848.5000147605 1250262.7499874828 500.06635145489594
v 2680848.2500238447 1250262.7500117936 500.06680009802375
v 2680848.0129259098 1250262.5323384174 500.06774396140821
v 2680848.443961496 1250262.3599241832 500.06738084605752
v 2680848.2974142586 1250261.9935560906 500.06851624076126
v 2680847.9957136596 1250262.1142363304 500.06877040121424
v 2680847.9999924111 1250262.500004671 500.06784416522919
v 2680847.7370761004 1250262.842669453 500.0675001440095
v 2680846.9870547317 1250263.217692293 500.06795336407305
v 2680847.0000125417 1250263.3749931345 500.06755555643974
v 2680846.5129480017 1250263.4073349847 500.06835276368395
v 2680845.7629428403 1250262.1573236815 500.07267533603692
v 2680846.2370495703 1250261.9676809898 500.07227593598958
v 2680846.7500216258 1250262.125014246 500.0709805911722
v 2680846.245696214 1250263.4892309357 500.06863744271504
v 2680846.2499992764 1250262.8749869925 500.07009229993946
v 2680846.4999901922 1250263.1250103228 500.069048266773
v 2680846.5043256693 1250263.3857791536 500.06841956652227
v 2680846.2370576742 1250262.342655207 500.0713830678211
v 2680846.2499911725 1250262.5000127745 500.07098516854433
v 2680845.7629104257 1250262.5323141066 500.07178250147103
v 2680845.762926633 1250263.6573340043 500.06910367920324
v 2680845.7370839468 1250263.8426574264 500.06870878845001
v 2680845.2629366983 1250264.0323163255 500.06910822209994
v 2680845.2974017169 1250263.7435249137 500.06973400547059
v 2680846.2025845516 1250263.38145178 500.06897145603358
v 2680845.2974098208 1250262.9935197525 500.07151983388746
v 2680846.2025926551 1250262.6314466188 500.07075728445045
v 2680846.2025926551 1250262.7564704395 500.0704595894311
v 2680845.2974098208 1250263.1185435734 500.07122213843172
v 2680846.1681276369 1250263.0452618508 500.06983380606044
v 2680844.831909216 1250263.5797492194 500.07095947084815
v 2680844.7629467635 1250263.2823192677 500.07179146201844
v 2680845.2370534935 1250263.092676576 500.07139206240748
v 2680844.7499889536 1250262.9999946058 500.07248696510743
v 2680844.7500051609 1250262.8750113032 500.07278453444434
v 2680844.2500071228 1250262.7499955862 500.07397964140171
v 2680844.7888056571 1250263.7719769904 500.07057912085571
v 2680844.7629143489 1250263.7823335137 500.07060093243319
v 2680844.7499970575 1250263.6250164649 500.07099870602747
v 2680845.2370615969 1250263.5926746142 500.07020149878326
v 2680844.8060260112 1250263.7650888488 500.07056461413396
v 2680844.9525732482 1250264.1314569416 500.06942921943022
v 2680845.2543143658 1250264.0107604943 500.0691750249382
v 2680844.9999960768 1250264.2500140129 500.06906180425614
v 2680844.7500051609 1250264.125014503 500.06980814240325
v 2680844.2499909154 1250264.250005909 500.07040798456802
v 2680844.0000081039 1250264.6250044378 500.06996375909091
v 2680843.7500009811 1250264.6249882304 500.07041252746473
v 2680843.9999837927 1250264.2499897017 500.07085675294184
v 2680843.9999756888 1250262.4999884632 500.07502370860715
v 2680842.9976538513 1250264.2493414059 500.07265734730049
v 2680843.2500191499 1250263.2500098322 500.07458390078074
v 2680843.2500110464 1250262.6249879734 500.07607215942431
v 2680843.5000019614 1250262.7499874828 500.0753258212772
v 2680843.5042969203 1250264.2607757207 500.07172076302436
v 2680843.2457079836 1250264.3642112957 500.0719386051781
v 2680843.2542979014 1250264.760757552 500.07097896821034
v 2680842.9956684457 1250264.8642093341 500.07119684440312
v 2680842.9976376439 1250264.250005909 500.07265579416219
v 2680841.9999916391 1250264.2500221164 500.0744463989484
v 2680841.5129270991 1250264.1573401464 500.07554130164834
v 2680841.9870743477 1250263.9676812466 500.07514186799841
v 2680841.9870500364 1250263.5926665107 500.07603486184934
v 2680842.9870866318 1250263.7176579162 500.07394230978775
v 2680842.5129393833 1250263.9073168158 500.07434174343769
v 2680841.5129433065 1250263.7823092025 500.07643426146029
v 2680842.5129312798 1250264.657321977 500.07255591502081
v 2680841.5000017043 1250264.4999806173 500.07474863730084
v 2680841.5000179117 1250264.3749973152 500.07504620707414
v 2680842.9870785279 1250264.4676630779 500.07215648137088
v 2680842.0000240537 1250265.0000110702 500.07266053649255
v 2680841.499985497 1250264.8750115607 500.07385567748889
v 2680841.499985497 1250264.7499877398 500.07415337250825
v 2680842.9870623206 1250264.8426940213 500.07126352155893
v 2680842.5129555906 1250265.0323367135 500.07166292116989
v 2680842.4870723858 1250265.2176763429 500.07126806445569
v 2680842.0129251378 1250265.407335242 500.07166749810563
v 2680841.4999936004 1250265.2499857785 500.07296280888397
v 2680841.9870581403 1250265.3426677487 500.07186790618402
v 2680841.5129108918 1250265.5323266482 500.07226734027034
v 2680840.7499803356 1250263.6250002575 500.07817824940543
v 2680840.7499965429 1250263.5000169552 500.07847581917872
v 2680845.2499869922 1250259.3750007234 497.50923492413403
v 2680845.5000184262 1250259.6250078464 497.50923492413403
v 2680845.5042971778 1250260.0107761873 497.50923492413403
v 2680845.2456677221 1250260.114227969 497.50923492413403
v 2680844.9999960768 1250260.5000044138 497.50923492413403
v 2680844.9999879734 1250259.8749825542 497.50923492413403
v 2680844.5000061421 1250259.7500073561 497.50923492413403
v 2680845.0000041807 1250259.7499992521 497.50923492413403
v 2680844.9870949928 1250260.0926802417 497.50923492413403
v 2680844.5129477447 1250260.282339141 497.50923492413403
v 2680844.4999899347 1250260.000014479 497.50923492413403
v 2680843.7500090846 1250260.1249734699 497.50923492413403
v 2680844 1250260.3749968002 497.50923492413403
v 2680844.0000243112 1250260.7500115368 497.50923492413403
v 2680843.7499928772 1250260.5000044138 497.50923492413403
v 2680843.2499948391 1250260.5000125172 497.50923492413403
v 2680843.2499948391 1250260.3749886968 497.50923492413403
v 2680843.2499867352 1250259.8749906581 497.50923492413403
v 2680843.2500110464 1250260.2500053942 497.50923492413403
v 2680842.999979612 1250259.9999982717 497.50923492413403
v 2680843.0000120266 1250259.6250078464 497.50923492413403
v 2680842.9870704245 1250259.0926760612 497.50923492413403
v 2680842.9999877159 1250259.2499931101 497.50923492413403
v 2680842.5129231759 1250259.2823349608 497.50923492413403
v 2680842.5129312798 1250259.6573091785 497.50923492413403
v 2680842.9870785279 1250259.4676502789 497.50923492413403
v 2680842.5000058846 1250258.999994091 497.50923492413403
v 2680842.4568780148 1250259.2672458789 497.50923492413403
v 2680842.2930861129 1250258.8577661237 497.50923492413403
v 2680842.4870723858 1250260.217663544 497.50923492413403
v 2680842.5000058846 1250260.3750211115 497.50923492413403
v 2680842.0129251378 1250260.4073224431 497.50923492413403
v 2680842.5000139885 1250260.749995329 497.50923492413403
v 2680842.0129494485 1250260.7823371796 497.50923492413403
v 2680842.4870561785 1250260.5926944877 497.50923492413403
v 2680842.4999815738 1250261.124985754 497.50923492413403
v 2680842.0129170339 1250261.1573276047 497.50923492413403
v 2680842.4870642824 1250260.9676687052 497.50923492413403
v 2680841.3437624471 1250260.8749786315 497.50923492413403
v 2680841.2629280803 1250260.9073123783 497.50923492413403
v 2680841.2616071776 1250260.8749867349 497.50923492413403
v 2680841.2232118663 1250261.5982334923 497.50923492413403
v 2680841.0000117696 1250261.3750009809 497.50923492413403
v 2680840.7499884395 1250261.750015717 497.50923492413403
v 2680840.7500127503 1250262.0000066324 497.50923492413403
v 2680840.7499803356 1250262.3749970577 497.50923492413403
v 2680840.7500127503 1250263.1249860115 497.50923492413403
v 2680841.2500107889 1250263.2500017283 497.50923492413403
v 2680840.7500127503 1250263.2500098322 497.50923492413403
v 2680840.4999813163 1250263.0000027092 497.50923492413403
v 2680840.500013731 1250261.3750090844 497.50923492413403
v 2680840.7499965429 1250261.0000105558 497.50923492413403
v 2680840.7629300416 1250259.6573172819 497.50923492413403
v 2680841.2370772902 1250259.4676583828 497.50923492413403
v 2680841.7500007236 1250258.9999859871 497.50923492413403
v 2680841.9999916391 1250259.2500093174 497.50923492413403
v 2680841.9999835351 1250261.1249938579 497.50923492413403
v 2680841.7500007236 1250261.4999923867 497.50923492413403
v 2680841.7500088275 1250260.8750110462 497.50923492413403
v 2680841.6939636664 1250260.7348981437 497.50923492413403
v 2680841.547416429 1250260.3685300509 497.50923492413403
v 2680841.2456753114 1250260.4892264982 497.50923492413403
v 2680841.2500107889 1250260.8750191496 497.50923492413403
v 2680841.2499864777 1250261.6249837927 497.50923492413403
v 2680841.2387952735 1250261.613808796 497.50923492413403
v 2680841.2499864777 1250261.7500076133 497.50923492413403
v 2680840.7629219382 1250261.7823494636 497.50923492413403
v 2680840.0000156928 1250261.2499933676 497.50923492413403
v 2680839.9569121338 1250263.0172392703 497.50923492413403
v 2680839.7931202324 1250262.6077595158 497.50923492413403
v 2680839.7457055072 1250260.6142179037 497.50923492413403
v 2680840.0042944439 1250260.5107823294 497.50923492413403
v 2680839.9999913815 1250259.7499992521 497.50923492413403
v 2680840.2499822974 1250259.874998762 497.50923492413403
v 2680840.2499985048 1250261.0000186593 497.50923492413403
v 2680839.2499943241 1250260.2499891869 497.50923492413403
v 2680839.5000176542 1250259.9999982717 497.50923492413403
v 2680839.5000014468 1250260.2500053942 497.50923492413403
v 2680839.2500186353 1250260.6250039232 497.50923492413403
v 2680839.2068745582 1250261.0172390132 497.50923492413403
v 2680839.0430826559 1250260.6077592582 497.50923492413403
v 2680839.0000034082 1250260.2500134981 497.50923492413403
v 2680847.7370923078 1250258.9676765515 497.50923492413403
v 2680847.7500095991 1250259.1249936004 497.50923492413403
v 2680847.2629450592 1250259.1573354511 497.50923492413403
v 2680847.7370598931 1250259.3426669766 497.50923492413403
v 2680847.7499933918 1250259.5000245443 497.50923492413403
v 2680847.2629126445 1250259.5323258764 497.50923492413403
v 2680847.2629369558 1250259.9073406123 497.50923492413403
v 2680847.7370842039 1250259.7176817132 497.50923492413403
v 2680847.7500014952 1250259.874998762 497.50923492413403
v 2680847.2629450592 1250260.28231483 497.50923492413403
v 2680847.7370517892 1250260.0926721378 497.50923492413403
v 2680847.7500095991 1250260.2499729795 497.50923492413403
v 2680847.2499872497 1250258.749986968 497.50923492413403
v 2680847.2499953532 1250260.6250120266 497.50923492413403
v 2680847.0000125417 1250260.8749867349 497.50923492413403
v 2680847.004315604 1250261.6357698117 497.50923492413403
v 2680846.7456861488 1250261.7392215941 497.50923492413403
v 2680846.7500135223 1250260.2499891869 497.50923492413403
v 2680846.9999963343 1250259.8749906581 497.50923492413403
v 2680847.0000044378 1250259.124985497 497.50923492413403
v 2680843.9999918961 1250261.2500257823 497.50923492413403
v 2680843.9999918961 1250261.1250019614 497.50923492413403
v 2680845.4820444286 1250261.2173678877 497.50923492413403
v 2680845.4780493067 1250260.9999862446 497.50923492413403
v 2680845.0000041807 1250261.0000024519 497.50923492413403
v 2680844.5129396408 1250261.0323443026 497.50923492413403
v 2680844.9870868893 1250260.8426854028 497.50923492413403
v 2680845.4779277514 1250260.9932196587 497.50923492413403
v 2680845.4698159518 1250260.5495747214 497.50923492413403
v 2680846.0301865246 1250260.3254264924 497.50923492413403
v 2680845.9698139899 1250259.4245872386 497.50923492413403
v 2680846.5301845632 1250259.2004390096 497.50923492413403
v 2680846.4999982957 1250259.874998762 497.50923492413403
v 2680846.2500154837 1250260.2499972908 497.50923492413403
v 2680846.2499911725 1250261.5966451678 497.50923492413403
v 2680846.749997315 1250261.7499995094 497.50923492413403
v 2680846.2499992764 1250261.7500076133 497.50923492413403
v 2680845.7629347364 1250261.7823494636 497.50923492413403
v 2680846.223224665 1250261.5982334923 497.50923492413403
v 2680845.9999840502 1250261.3750171883 497.50923492413403
v 2680845.7500012377 1250261.750015717 497.50923492413403
v 2680845.706921991 1250262.5172493355 497.50923492413403
v 2680845.5819143774 1250262.2047303028 497.50923492413403
v 2680844.7629143489 1250262.5323303139 497.50923492413403
v 2680844.7629305562 1250262.4073470118 497.50923492413403
v 2680845.2370778043 1250262.2176881123 497.50923492413403
v 2680845.250011303 1250261.9999742177 497.50923492413403
v 2680844.7586355973 1250262.0215381524 497.50923492413403
v 2680845.491371783 1250261.7284436785 497.50923492413403
v 2680845.4820687398 1250261.2196612337 497.50923492413403
v 2680845.0129457829 1250261.4073104165 497.50923492413403
v 2680844.5129153295 1250260.6573295661 497.50923492413403
v 2680844.4999980386 1250260.5000125172 497.50923492413403
v 2680844.9870625781 1250260.467670667 497.50923492413403
v 2680844.9870787854 1250261.5926905645 497.50923492413403
v 2680844.5267888568 1250261.7768065357 497.50923492413403
v 2680844.7500132648 1250261.9999823212 497.50923492413403
v 2680844.7068853956 1250262.39225793 497.50923492413403
v 2680844.5430934932 1250261.982778175 497.50923492413403
v 2680844.5058813216 1250261.7818794493 497.50923492413403
v 2680843.9999837927 1250261.7499833021 497.50923492413403
v 2680844.0000162073 1250261.5000166979 497.50923492413403
v 2680844.0129416026 1250262.157331785 497.50923492413403
v 2680844.0000081039 1250261.9999742177 497.50923492413403
v 2680844.4870888507 1250261.9676728859 497.50923492413403
v 2680843.2499948391 1250261.6249918961 497.50923492413403
v 2680842.7629302992 1250261.6573337468 497.50923492413403
v 2680843.2370775477 1250261.4676748472 497.50923492413403
v 2680842.4754192713 1250263.3674729047 497.50923492413403
v 2680842.4999977811 1250263.3749850306 497.50923492413403
v 2680842.9999958193 1250263.5000007479 497.50923492413403
v 2680841.512935203 1250263.4073349847 497.50923492413403
v 2680841.9870824511 1250263.2176760854 497.50923492413403
v 2680841.9999916391 1250263.221630689 497.50923492413403
v 2680841.9999916391 1250262.8749950959 497.50923492413403
v 2680841.750016931 1250262.6250122841 497.50923492413403
v 2680841.793112386 1250261.4827477217 497.50923492413403
v 2680841.9569042875 1250261.8922274767 497.50923492413403
v 2680842.5000058846 1250261.3749766697 497.50923492413403
v 2680842.7499968004 1250261.625 497.50923492413403
v 2680842.7500130078 1250262.6249960768 497.50923492413403
v 2680842.7499805931 1250262.9999865019 497.50923492413403
v 2680842.0232897648 1250263.2287619414 497.50923492413403
v 2680842.4429963841 1250263.3575053588 497.50923492413403
v 2680842.2930942168 1250262.9827499408 497.50923492413403
v 2680841.2500188923 1250262.4999965671 497.50923492413403
v 2680841.250002685 1250262.6249798695 497.50923492413403
v 2680841.2500107889 1250261.9999985285 497.50923492413403
v 2680841.2499945816 1250262.1249818308 497.50923492413403
v 2680841.2499783742 1250262.3749889538 497.50923492413403
v 2680841.5000098078 1250263.7499754557 497.50923492413403
v 2680841.2499783742 1250263.6249921536 497.50923492413403
v 2680841.29309814 1250262.9827661482 497.50923492413403
v 2680841.4568900419 1250263.3922459029 497.50923492413403
v 2680846.999980127 1250262.6250041807 497.50923492413403
v 2680847.2500034571 1250262.2499894442 497.50923492413403
v 2680847.2499791458 1250261.9999985285 497.50923492413403
v 2680847.5000024764 1250261.7500076133 497.50923492413403
v 2680847.5000105798 1250261.0000024519 497.50923492413403
v 2680847.7499771845 1250260.7499872255 497.50923492413403
v 2680847.7930807429 1250260.2327445219 497.50923492413403
v 2680847.9568888526 1250260.6422647955 497.50923492413403
v 2680848.2500076373 1250260.3749886968 497.50923492413403
v 2680848.2931030924 1250260.7327749752 497.50923492413403
v 2680848.4568949947 1250261.1422547302 497.50923492413403
v 2680849.0000127992 1250261.4999761791 497.50923492413403
v 2680848.9870874039 1250262.2176881123 497.50923492413403
v 2680848.4894394372 1250262.416747299 497.50923492413403
v 2680848.5000147605 1250262.7499874828 497.50923492413403
v 2680848.2500238447 1250262.7500117936 497.50923492413403
v 2680848.0129259098 1250262.5323384174 497.50923492413403
v 2680848.443961496 1250262.3599241832 497.50923492413403
v 2680848.2974142586 1250261.9935560906 497.50923492413403
v 2680847.9957136596 1250262.1142363304 497.50923492413403
v 2680847.9999924111 1250262.500004671 497.50923492413403
v 2680847.7370761004 1250262.842669453 497.50923492413403
v 2680847.2629288519 1250263.0323283521 497.50923492413403
v 2680846.9999882304 1250263.2500260395 497.50923492413403
v 2680846.5129480017 1250263.4073349847 497.50923492413403
v 2680846.9870547317 1250263.217692293 497.50923492413403
v 2680847.0000125417 1250263.3749931345 497.50923492413403
v 2680846.7500216258 1250262.125014246 497.50923492413403
v 2680845.7629428403 1250262.1573236815 497.50923492413403
v 2680846.2370495703 1250261.9676809898 497.50923492413403
v 2680846.4999901922 1250263.1250103228 497.50923492413403
v 2680846.5043256693 1250263.3857791536 497.50923492413403
v 2680846.245696214 1250263.4892309357 497.50923492413403
v 2680846.2499992764 1250262.8749869925 497.50923492413403
v 2680845.7629104257 1250262.5323141066 497.50923492413403
v 2680846.2370576742 1250262.342655207 497.50923492413403
v 2680846.2499911725 1250262.5000127745 497.50923492413403
v 2680845.2629366983 1250264.0323163255 497.50923492413403
v 2680845.2974017169 1250263.7435249137 497.50923492413403
v 2680846.2025845516 1250263.38145178 497.50923492413403
v 2680845.762926633 1250263.6573340043 497.50923492413403
v 2680845.7370839468 1250263.8426574264 497.50923492413403
v 2680846.2025926551 1250262.7564704395 497.50923492413403
v 2680845.2974098208 1250263.1185435734 497.50923492413403
v 2680846.1681276369 1250263.0452618508 497.50923492413403
v 2680844.831909216 1250263.5797492194 497.50923492413403
v 2680844.7629467635 1250263.2823192677 497.50923492413403
v 2680845.2370534935 1250263.092676576 497.50923492413403
v 2680844.7499889536 1250262.9999946058 497.50923492413403
v 2680844.7500051609 1250262.8750113032 497.50923492413403
v 2680844.2500071228 1250262.7499955862 497.50923492413403
v 2680845.2974098208 1250262.9935197525 497.50923492413403
v 2680846.2025926551 1250262.6314466188 497.50923492413403
v 2680844.7499970575 1250263.6250164649 497.50923492413403
v 2680845.2370615969 1250263.5926746142 497.50923492413403
v 2680844.8060260112 1250263.7650888488 497.50923492413403
v 2680844.9525732482 1250264.1314569416 497.50923492413403
v 2680845.2543143658 1250264.0107604943 497.50923492413403
v 2680844.9999960768 1250264.2500140129 497.50923492413403
v 2680844.7500051609 1250264.125014503 497.50923492413403
v 2680844.7888056571 1250263.7719769904 497.50923492413403
v 2680844.7629143489 1250263.7823335137 497.50923492413403
v 2680843.7500009811 1250264.6249882304 497.50923492413403
v 2680843.9999837927 1250264.2499897017 497.50923492413403
v 2680843.9999756888 1250262.4999884632 497.50923492413403
v 2680844.2499909154 1250264.250005909 497.50923492413403
v 2680844.0000081039 1250264.6250044378 497.50923492413403
v 2680843.2500191499 1250263.2500098322 497.50923492413403
v 2680843.2500110464 1250262.6249879734 497.50923492413403
v 2680843.5000019614 1250262.7499874828 497.50923492413403
v 2680843.5042969203 1250264.2607757207 497.50923492413403
v 2680843.2457079836 1250264.3642112957 497.50923492413403
v 2680843.2542979014 1250264.760757552 497.50923492413403
v 2680842.9956684457 1250264.8642093341 497.50923492413403
v 2680842.9976376439 1250264.250005909 497.50923492413403
v 2680841.9999916391 1250264.2500221164 497.50923492413403
v 2680841.5129270991 1250264.1573401464 497.50923492413403
v 2680841.9870743477 1250263.9676812466 497.50923492413403
v 2680842.9976538513 1250264.2493414059 497.50923492413403
v 2680842.5129393833 1250263.9073168158 497.50923492413403
v 2680841.5129433065 1250263.7823092025 497.50923492413403
v 2680841.9870500364 1250263.5926665107 497.50923492413403
v 2680842.9870866318 1250263.7176579162 497.50923492413403
v 2680841.5000179117 1250264.3749973152 497.50923492413403
v 2680842.9870785279 1250264.4676630779 497.50923492413403
v 2680842.5129312798 1250264.657321977 497.50923492413403
v 2680841.5000017043 1250264.4999806173 497.50923492413403
v 2680841.499985497 1250264.7499877398 497.50923492413403
v 2680842.9870623206 1250264.8426940213 497.50923492413403
v 2680842.5129555906 1250265.0323367135 497.50923492413403
v 2680842.4870723858 1250265.2176763429 497.50923492413403
v 2680842.0129251378 1250265.407335242 497.50923492413403
v 2680842.0000240537 1250265.0000110702 497.50923492413403
v 2680841.499985497 1250264.8750115607 497.50923492413403
v 2680841.5129108918 1250265.5323266482 497.50923492413403
v 2680841.4999936004 1250265.2499857785 497.50923492413403
v 2680841.9870581403 1250265.3426677487 497.50923492413403
v 2680840.7499965429 1250263.5000169552 497.50923492413403
v 2680840.7499803356 1250263.6250002575 497.50923492413403
l 1 2
l 2 3
l 3 4
l 4 5
l 5 6
l 6 7
l 7 8
l 1 8
l 9 10
l 10 11
l 9 11
l 12 13
l 13 14
l 14 15
l 12 15
l 16 17
l 13 17
l 13 16
l 18 19
l 19 20
l 20 21
l 18 21
l 22 23
l 23 24
l 22 24
l 25 26
l 19 26
l 19 25
l 27 28
l 28 29
l 27 29
l 30 31
l 31 32
l 30 32
l 33 34
l 34 35
l 33 35
l 36 37
l 37 38
l 36 38
l 39 40
l 40 41
l 39 41
l 42 43
l 43 44
l 45 46
l 46 47
l 45 47
l 48 49
l 49 50
l 50 51
l 51 52
l 53 54
l 54 55
l 55 56
l 56 57
l 57 58
l 58 59
l 59 60
l 41 60
l 41 61
l 40 62
l 40 63
l 63 64
l 64 65
l 42 65
l 44 66
l 47 48
l 52 53
l 45 53
l 61 67
l 62 67
l 45 66
l 47 53
l 68 69
l 69 70
l 70 71
l 71 72
l 72 73
l 73 74
l 74 75
l 68 75
l 76 77
l 77 78
l 78 79
l 79 80
l 80 81
l 81 82
l 76 82
l 83 84
l 84 85
l 83 85
l 86 87
l 87 88
l 86 88
l 89 90
l 90 91
l 89 91
l 92 93
l 93 94
l 92 94
l 95 96
l 96 97
l 97 98
l 98 99
l 99 100
l 100 101
l 101 102
l 95 102
l 103 104
l 104 105
l 105 106
l 106 107
l 108 109
l 109 110
l 110 111
l 111 112
l 112 113
l 113 114
l 114 115
l 115 116
l 116 117
l 117 118
l 118 119
l 119 120
l 120 121
l 121 122
l 122 123
l 124 125
l 125 126
l 126 127
l 127 128
l 128 129
l 129 130
l 130 131
l 131 132
l 103 132
l 108 133
l 123 124
l 107 133
l 134 135
l 135 136
l 134 136
l 137 138
l 138 139
l 139 140
l 140 141
l 141 142
l 142 143
l 143 144
l 137 144
l 145 146
l 146 147
l 145 147
l 148 149
l 149 150
l 148 150
l 151 152
l 153 154
l 38 154
l 38 155
l 155 156
l 156 157
l 157 158
l 158 159
l 160 161
l 161 162
l 162 163
l 163 164
l 165 166
l 153 166
l 152 167
l 151 167
l 159 160
l 164 165
l 166 168
l 168 169
l 166 169
l 170 171
l 46 171
l 46 170
l 47 169
l 47 172
l 169 172
l 173 174
l 174 175
l 175 176
l 173 176
l 177 178
l 178 179
l 179 180
l 180 181
l 181 182
l 182 183
l 183 184
l 184 185
l 185 186
l 186 187
l 187 188
l 188 189
l 189 190
l 190 191
l 191 192
l 192 193
l 193 194
l 194 195
l 195 196
l 196 197
l 198 199
l 199 200
l 177 200
l 197 198
l 201 202
l 202 203
l 201 203
l 204 205
l 205 206
l 204 206
l 207 208
l 208 209
l 209 210
l 207 210
l 211 212
l 212 213
l 211 213
l 214 215
l 215 216
l 216 217
l 217 218
l 214 218
l 219 220
l 220 221
l 221 222
l 222 223
l 223 224
l 224 225
l 225 226
l 226 227
l 227 228
l 228 229
l 219 229
l 230 231
l 231 232
l 232 233
l 233 234
l 235 236
l 236 237
l 237 238
l 230 238
l 234 235
l 239 240
l 240 241
l 241 242
l 242 243
l 229 243
l 229 239
l 161 244
l 161 245
l 245 246
l 246 247
l 247 248
l 248 249
l 249 250
l 250 251
l 251 252
l 252 253
l 253 254
l 254 255
l 244 255
l 256 257
l 257 258
l 258 259
l 256 259
l 260 261
l 261 262
l 262 263
l 260 263
l 264 265
l 265 266
l 266 267
l 267 268
l 268 269
l 269 270
l 264 270
l 271 272
l 272 273
l 271 273
l 176 274
l 274 275
l 176 275
l 2 276
l 276 277
l 3 277
l 277 278
l 4 278
l 278 279
l 5 279
l 279 280
l 6 280
l 280 281
l 7 281
l 281 282
l 8 282
l 282 283
l 1 283
l 276 283
l 11 284
l 284 285
l 9 285
l 285 286
l 10 286
l 284 286
l 14 287
l 287 288
l 15 288
l 288 289
l 12 289
l 289 290
l 13 290
l 287 290
l 290 291
l 16 291
l 291 292
l 17 292
l 290 292
l 20 293
l 293 294
l 21 294
l 294 295
l 18 295
l 295 296
l 19 296
l 293 296
l 24 297
l 297 298
l 22 298
l 298 299
l 23 299
l 297 299
l 296 300
l 25 300
l 300 301
l 26 301
l 296 301
l 29 302
l 302 303
l 27 303
l 303 304
l 28 304
l 302 304
l 32 305
l 305 306
l 30 306
l 306 307
l 31 307
l 305 307
l 35 308
l 308 309
l 33 309
l 309 310
l 34 310
l 308 310
l 38 311
l 311 312
l 36 312
l 312 313
l 37 313
l 311 313
l 41 314
l 314 315
l 39 315
l 315 316
l 40 316
l 314 316
l 44 317
l 317 318
l 66 318
l 318 319
l 45 319
l 319 320
l 46 320
l 320 321
l 47 321
l 321 322
l 48 322
l 322 323
l 49 323
l 323 324
l 50 324
l 324 325
l 51 325
l 325 326
l 52 326
l 326 327
l 53 327
l 327 328
l 54 328
l 328 329
l 55 329
l 329 330
l 56 330
l 330 331
l 57 331
l 331 332
l 58 332
l 332 333
l 59 333
l 333 334
l 60 334
l 314 334
l 314 335
l 61 335
l 335 336
l 67 336
l 336 337
l 62 337
l 316 337
l 316 338
l 63 338
l 338 339
l 64 339
l 339 340
l 65 340
l 340 341
l 42 341
l 341 342
l 43 342
l 317 342
l 70 343
l 343 344
l 71 344
l 344 345
l 72 345
l 345 346
l 73 346
l 346 347
l 74 347
l 347 348
l 75 348
l 348 349
l 68 349
l 349 350
l 69 350
l 343 350
l 78 351
l 351 352
l 79 352
l 352 353
l 80 353
l 353 354
l 81 354
l 354 355
l 82 355
l 355 356
l 76 356
l 356 357
l 77 357
l 351 357
l 85 358
l 358 359
l 83 359
l 359 360
l 84 360
l 358 360
l 88 361
l 361 362
l 86 362
l 362 363
l 87 363
l 361 363
l 91 364
l 364 365
l 89 365
l 365 366
l 90 366
l 364 366
l 94 367
l 367 368
l 92 368
l 368 369
l 93 369
l 367 369
l 97 370
l 370 371
l 98 371
l 371 372
l 99 372
l 372 373
l 100 373
l 373 374
l 101 374
l 374 375
l 102 375
l 375 376
l 95 376
l 376 377
l 96 377
l 370 377
l 105 378
l 378 379
l 106 379
l 379 380
l 107 380
l 380 381
l 133 381
l 381 382
l 382 383
l 109 383
l 383 384
l 110 384
l 384 385
l 111 385
l 385 386
l 112 386
l 386 387
l 113 387
l 387 388
l 114 388
l 388 389
l 115 389
l 389 390
l 116 390
l 390 391
l 117 391
l 391 392
l 118 392
l 392 393
l 119 393
l 393 394
l 394 395
l 121 395
l 395 396
l 122 396
l 396 397
l 123 397
l 397 398
l 124 398
l 398 399
l 125 399
l 399 400
l 126 400
l 400 401
l 127 401
l 401 402
l 128 402
l 402 403
l 129 403
l 403 404
l 130 404
l 404 405
l 131 405
l 405 406
l 132 406
l 406 407
l 103 407
l 407 408
l 104 408
l 378 408
l 136 409
l 409 410
l 134 410
l 410 411
l 135 411
l 409 411
l 139 412
l 412 413
l 140 413
l 413 414
l 141 414
l 414 415
l 142 415
l 415 416
l 143 416
l 416 417
l 144 417
l 417 418
l 137 418
l 418 419
l 138 419
l 412 419
l 147 420
l 420 421
l 145 421
l 421 422
l 146 422
l 420 422
l 150 423
l 423 424
l 148 424
l 424 425
l 149 425
l 423 425
l 159 426
l 426 427
l 427 428
l 161 428
l 428 429
l 162 429
l 429 430
l 163 430
l 430 431
l 164 431
l 431 432
l 165 432
l 432 433
l 166 433
l 433 434
l 153 434
l 434 435
l 154 435
l 311 435
l 311 436
l 155 436
l 436 437
l 156 437
l 437 438
l 438 439
l 158 439
l 426 439
l 167 440
l 440 441
l 151 441
l 441 442
l 152 442
l 440 442
l 169 443
l 433 443
l 433 444
l 168 444
l 443 444
l 320 445
l 170 445
l 445 446
l 171 446
l 320 446
l 172 447
l 443 447
l 321 443
l 321 447
l 175 448
l 448 449
l 176 449
l 449 450
l 173 450
l 450 451
l 174 451
l 448 451
l 179 452
l 452 453
l 180 453
l 453 454
l 181 454
l 454 455
l 182 455
l 455 456
l 183 456
l 456 457
l 184 457
l 457 458
l 185 458
l 458 459
l 186 459
l 459 460
l 187 460
l 460 461
l 188 461
l 461 462
l 189 462
l 462 463
l 190 463
l 463 464
l 191 464
l 464 465
l 192 465
l 465 466
l 193 466
l 466 467
l 194 467
l 467 468
l 195 468
l 468 469
l 196 469
l 469 470
l 197 470
l 470 471
l 198 471
l 471 472
l 199 472
l 472 473
l 200 473
l 473 474
l 177 474
l 474 475
l 178 475
l 452 475
l 203 476
l 476 477
l 201 477
l 477 478
l 202 478
l 476 478
l 206 479
l 479 480
l 204 480
l 480 481
l 205 481
l 479 481
l 209 482
l 482 483
l 210 483
l 483 484
l 207 484
l 484 485
l 208 485
l 482 485
l 213 486
l 486 487
l 211 487
l 487 488
l 212 488
l 486 488
l 216 489
l 489 490
l 217 490
l 490 491
l 218 491
l 491 492
l 214 492
l 492 493
l 215 493
l 489 493
l 221 494
l 494 495
l 222 495
l 495 496
l 223 496
l 496 497
l 224 497
l 497 498
l 225 498
l 498 499
l 226 499
l 499 500
l 227 500
l 500 501
l 228 501
l 501 502
l 229 502
l 502 503
l 219 503
l 503 504
l 220 504
l 494 504
l 232 505
l 505 506
l 233 506
l 506 507
l 234 507
l 507 508
l 235 508
l 508 509
l 236 509
l 509 510
l 237 510
l 510 511
l 238 511
l 511 512
l 230 512
l 512 513
l 231 513
l 505 513
l 241 514
l 514 515
l 242 515
l 515 516
l 243 516
l 502 516
l 502 517
l 239 517
l 517 518
l 240 518
l 514 518
l 245 519
l 519 520
l 246 520
l 520 521
l 247 521
l 521 522
l 248 522
l 522 523
l 249 523
l 523 524
l 250 524
l 524 525
l 251 525
l 525 526
l 252 526
l 526 527
l 253 527
l 527 528
l 254 528
l 528 529
l 255 529
l 529 530
l 244 530
l 428 530
l 428 519
l 258 531
l 531 532
l 259 532
l 532 533
l 256 533
l 533 534
l 257 534
l 531 534
l 262 535
l 535 536
l 263 536
l 536 537
l 260 537
l 537 538
l 261 538
l 535 538
l 266 539
l 539 540
l 267 540
l 540 541
l 268 541
l 541 542
l 269 542
l 542 543
l 270 543
l 543 544
l 264 544
l 544 545
l 265 545
l 539 545
l 273 546
l 546 547
l 271 547
l 547 548
l 272 548
l 546 548
l 275 549
l 449 549
l 449 550
l 274 550
l 549 550
l 319 321
l 319 327
l 321 327
