# Source coordinates; no display transform
v 0.354311363229 0.368784943605 0.11773419916
v 0.354342861579 0.37629734627 0.118847556508
v -0.0471296950496 0.488857390399 0.353426507188
v -0.103850696947 0.502472635646 0.386224167982
v -0.339538546394 -0.337522639449 0.387593666796
v -0.343554610702 -0.361052051578 0.386230205757
v -0.343554610702 -0.372029293761 0.384578399835
v -0.339554295813 -0.376596582372 0.381722532165
v -0.323938892877 -0.384447594376 0.372075914853
v 0.0627057249418 -0.493149066925 0.14611592662
v 0.109103078963 -0.504394046793 0.119271463272
v 0.354311363229 0.368784943605 -0.387558114924
v 0.354342861579 0.37629734627 -0.387558114924
v -0.0471296950496 0.488857390399 -0.387558114924
v -0.103850696947 0.502472635646 -0.387558114924
v -0.339538546394 -0.337522639449 -0.387558114924
v -0.343554610702 -0.361052051578 -0.387558114924
v -0.343554610702 -0.372029293761 -0.387558114924
v -0.339554295813 -0.376596582372 -0.387558114924
v -0.323938892877 -0.384447594376 -0.387558114924
v 0.0627057249418 -0.493149066925 -0.387558114924
v 0.109103078963 -0.504394046793 -0.387558114924
g roof
f 1 2 3 4 5 6 7 8 9 10 11
g wall
f 2 1 12 13
g wall
f 3 2 13 14
g wall
f 4 3 14 15
g wall
f 5 4 15 16
g wall
f 6 5 16 17
g wall
f 7 6 17 18
g wall
f 8 7 18 19
g wall
f 9 8 19 20
g wall
f 10 9 20 21
g wall
f 11 10 21 22
g wall
f 1 11 22 12
g ground_assumed
f 22 21 20 19 18 17 16 15 14 13 12
