v 0.35431136322908896 0.36878494360470687 0.11773419915962628
v 0.35434286157915618 0.37629734626954808 0.11884755650764688
v -0.047129695049590435 0.48885739039883869 0.3534265071881284
v -0.1038506969468472 0.50247263564584865 0.38622416798239739
v -0.33953854639403591 -0.33752263944912886 0.38759366679582258
v -0.34355461070249926 -0.36105205157841658 0.38623020575656603
v -0.34355461070249926 -0.37202929376095673 0.38457839983522563
v -0.33955429581337548 -0.37659658237157273 0.38172253216484953
v -0.32393889287749755 -0.38444759437623643 0.37207591485279884
v 0.062705724941780672 -0.49314906692462329 0.14611592661989348
v 0.10910307896282728 -0.50439404679287581 0.11927146327195694
v 0.35431136322908896 0.36878494360470687 -0.38755811492350051
v 0.35434286157915618 0.37629734626954808 -0.38755811492350051
v -0.047129695049590435 0.48885739039883869 -0.38755811492350051
v -0.1038506969468472 0.50247263564584865 -0.38755811492350051
v -0.33953854639403591 -0.33752263944912886 -0.38755811492350051
v -0.34355461070249926 -0.36105205157841658 -0.38755811492350051
v -0.34355461070249926 -0.37202929376095673 -0.38755811492350051
v -0.33955429581337548 -0.37659658237157273 -0.38755811492350051
v -0.32393889287749755 -0.38444759437623643 -0.38755811492350051
v 0.062705724941780672 -0.49314906692462329 -0.38755811492350051
v 0.10910307896282728 -0.50439404679287581 -0.38755811492350051
l 1 2
l 2 3
l 3 4
l 4 5
l 5 6
l 6 7
l 7 8
l 8 9
l 9 10
l 10 11
l 1 11
l 1 12
l 12 13
l 2 13
l 13 14
l 14 15
l 4 15
l 15 16
l 16 17
l 17 18
l 7 18
l 18 19
l 8 19
l 19 20
l 9 20
l 20 21
l 21 22
l 11 22
l 12 22
