v 0.30845574561327205 0.40521726721932172 0.18815095578453228
v -0.51246965990019366 0.01296999304522517 0.19953501322643752
v -0.31149890019498816 -0.40763714325270439 0.20043047446153484
v 0.50942650531847766 -0.015389869526478039 0.18904641701962957
v 0.30845574561327205 0.40521726721932172 -0.19037751082960172
v -0.51246965990019366 0.01296999304522517 -0.19037751082960172
v -0.31149890019498816 -0.40763714325270439 -0.19037751082960172
v 0.50942650531847766 -0.015389869526478039 -0.19037751082960172
l 1 2
l 2 3
l 3 4
l 1 4
l 1 5
l 5 6
l 2 6
l 6 7
l 3 7
l 7 8
l 4 8
l 5 8
