# Source coordinates; no display transform
v 2683245.93712 1251947.73687 453.6398191
v 2683252.25 1251936.875 452.400712721
v 2683253.75 1251934.625 452.134344642
v 2683254 1251934.5 452.111147231
v 2683257.25 1251936.375 452.106342727
v 2683268 1251942.625 452.094527341
v 2683272.75 1251945.5 452.098919317
v 2683273.5 1251946 452.103517539
v 2683273.5 1251946.125 452.114116178
v 2683271.5 1251949.75 452.522266812
v 2683268.25 1251955.375 453.162989475
v 2683265.86536 1251959.48188 453.631381721
v 2683258.5 1251972.125 452.139174067
v 2683258 1251972.25 452.102435583
v 2683244 1251964.125 452.097260204
v 2683241 1251962.375 452.096937295
v 2683239 1251961.125 452.104058951
v 2683238.75 1251960.75 452.124208602
v 2683238.75 1251960.25 452.168230187
v 2683239.25 1251959.25 452.282006423
v 2683243.75 1251951.5 453.195938697
v 2683259.25 1251970.875 452.287827637
v 2683245.93712 1251947.73687 441.301187748
v 2683252.25 1251936.875 441.301187748
v 2683253.75 1251934.625 441.301187748
v 2683254 1251934.5 441.301187748
v 2683257.25 1251936.375 441.301187748
v 2683268 1251942.625 441.301187748
v 2683272.75 1251945.5 441.301187748
v 2683273.5 1251946 441.301187748
v 2683273.5 1251946.125 441.301187748
v 2683271.5 1251949.75 441.301187748
v 2683268.25 1251955.375 441.301187748
v 2683265.86536 1251959.48188 441.301187748
v 2683259.25 1251970.875 441.301187748
v 2683258.5 1251972.125 441.301187748
v 2683258 1251972.25 441.301187748
v 2683244 1251964.125 441.301187748
v 2683241 1251962.375 441.301187748
v 2683239 1251961.125 441.301187748
v 2683238.75 1251960.75 441.301187748
v 2683238.75 1251960.25 441.301187748
v 2683239.25 1251959.25 441.301187748
v 2683243.75 1251951.5 441.301187748
g roof
f 1 2 3 4 5 6 7 8 9 10 11 12
g roof
f 13 14 15 16 17 18 19 20 21 1 12 22
g wall
f 2 1 23 24
g wall
f 3 2 24 25
g wall
f 4 3 25 26
g wall
f 5 4 26 27
g wall
f 6 5 27 28
g wall
f 7 6 28 29
g wall
f 8 7 29 30
g wall
f 9 8 30 31
g wall
f 10 9 31 32
g wall
f 11 10 32 33
g wall
f 12 11 33 34
g wall
f 14 13 36 37
g wall
f 15 14 37 38
g wall
f 16 15 38 39
g wall
f 17 16 39 40
g wall
f 18 17 40 41
g wall
f 19 18 41 42
g wall
f 20 19 42 43
g wall
f 21 20 43 44
g wall
f 1 21 44 23
g wall
f 22 12 34 35
g wall
f 13 22 35 36
g ground_assumed
f 44 43 42 41 40 39 38 37 36 35 34 33 32 31 30 29 28 27 26 25 24 23
