v 2683245.9371179352 1251947.7368706211 453.63981910006697
v 2683252.2500000065 1251936.8750000056 452.40071272147406
v 2683253.7500000009 1251934.6250000049 452.13434464208592
v 2683253.9999999972 1251934.5000000068 452.11114723122807
v 2683257.2500000005 1251936.3749999956 452.1063427273856
v 2683267.9999999944 1251942.6250000058 452.09452734058965
v 2683272.7499999925 1251945.499999997 452.0989193167851
v 2683273.4999999986 1251946.000000007 452.10351753911726
v 2683273.4999999986 1251946.1250000051 452.11411617805908
v 2683271.4999999939 1251949.7500000026 452.52226681195219
v 2683268.2500000084 1251955.3750000047 453.16298947543385
v 2683265.8653625967 1251959.4818755204 453.63138172113014
v 2683258.4999999991 1251972.1249999951 452.13917406667332
v 2683258.0000000065 1251972.2499999932 452.10243558260242
v 2683243.9999999916 1251964.1249999942 452.0972602036
v 2683241.0000000023 1251962.3750000033 452.09693729512583
v 2683238.9999999977 1251961.1250000049 452.10405895070204
v 2683238.7500000014 1251960.749999993 452.12420860220982
v 2683238.7500000014 1251960.2500000007 452.16823018725063
v 2683239.2499999935 1251959.2499999984 452.28200642303437
v 2683243.7499999953 1251951.4999999935 453.1959386974504
v 2683259.2500000051 1251970.8749999967 452.28782763667198
v 2683245.9371179352 1251947.7368706211 441.30118774786916
v 2683252.2500000065 1251936.8750000056 441.30118774786916
v 2683253.7500000009 1251934.6250000049 441.30118774786916
v 2683253.9999999972 1251934.5000000068 441.30118774786916
v 2683257.2500000005 1251936.3749999956 441.30118774786916
v 2683267.9999999944 1251942.6250000058 441.30118774786916
v 2683272.7499999925 1251945.499999997 441.30118774786916
v 2683273.4999999986 1251946.000000007 441.30118774786916
v 2683273.4999999986 1251946.1250000051 441.30118774786916
v 2683271.4999999939 1251949.7500000026 441.30118774786916
v 2683268.2500000084 1251955.3750000047 441.30118774786916
v 2683265.8653625967 1251959.4818755204 441.30118774786916
v 2683259.2500000051 1251970.8749999967 441.30118774786916
v 2683258.4999999991 1251972.1249999951 441.30118774786916
v 2683258.0000000065 1251972.2499999932 441.30118774786916
v 2683243.9999999916 1251964.1249999942 441.30118774786916
v 2683241.0000000023 1251962.3750000033 441.30118774786916
v 2683238.9999999977 1251961.1250000049 441.30118774786916
v 2683238.7500000014 1251960.749999993 441.30118774786916
v 2683238.7500000014 1251960.2500000007 441.30118774786916
v 2683239.2499999935 1251959.2499999984 441.30118774786916
v 2683243.7499999953 1251951.4999999935 441.30118774786916
l 1 2
l 2 3
l 3 4
l 4 5
l 5 6
l 6 7
l 7 8
l 8 9
l 9 10
l 10 11
l 11 12
l 1 12
l 13 14
l 14 15
l 15 16
l 16 17
l 17 18
l 18 19
l 19 20
l 20 21
l 1 21
l 12 22
l 13 22
l 23 24
l 24 25
l 3 25
l 25 26
l 4 26
l 26 27
l 27 28
l 28 29
l 29 30
l 8 30
l 30 31
l 9 31
l 31 32
l 32 33
l 33 34
l 13 36
l 36 37
l 14 37
l 37 38
l 38 39
l 39 40
l 17 40
l 40 41
l 18 41
l 41 42
l 19 42
l 42 43
l 43 44
l 23 44
l 34 35
l 35 36
