# Source coordinates; no display transform
v 0.219213730669 -0.46007374596 0.0220691246258
v 0.226022627845 -0.451911292836 0.0220686577008
v 0.497915616616 -0.0386191211003 0.0220456368257
v 0.50014987913 -0.0325728839355 0.0220453151253
v 0.49930697419 -0.0224593468456 0.0220448155707
v 0.496209910491 -0.016135236431 0.0220445251213
v 0.413368437943 0.0903739026052 0.0220398930962
v -0.151646019548 0.462102422009 0.0220260733099
v -0.159032548957 0.463929490501 0.0220260448164
v -0.168746849971 0.462160118962 0.0220262157771
v -0.17675544486 0.455620473927 0.0220266119281
v -0.496539512648 -0.030420855837 0.0220536848486
v -0.50053386197 -0.0415835477566 0.0220542781559
v -0.498832798439 -0.0501691117155 0.0220546936089
v -0.492449664288 -0.0585132768072 0.0220550575898
v 0.0713677481398 -0.429491736742 0.0220688498018
v 0.207552325122 -0.464024988817 0.0220694215093
v 0.219213730669 -0.46007374596 -0.0970382260052
v 0.226022627845 -0.451911292836 -0.0970382260052
v 0.497915616616 -0.0386191211003 -0.0970382260052
v 0.50014987913 -0.0325728839355 -0.0970382260052
v 0.49930697419 -0.0224593468456 -0.0970382260052
v 0.496209910491 -0.016135236431 -0.0970382260052
v 0.413368437943 0.0903739026052 -0.0970382260052
v -0.151646019548 0.462102422009 -0.0970382260052
v -0.159032548957 0.463929490501 -0.0970382260052
v -0.168746849971 0.462160118962 -0.0970382260052
v -0.17675544486 0.455620473927 -0.0970382260052
v -0.496539512648 -0.030420855837 -0.0970382260052
v -0.50053386197 -0.0415835477566 -0.0970382260052
v -0.498832798439 -0.0501691117155 -0.0970382260052
v -0.492449664288 -0.0585132768072 -0.0970382260052
v 0.0713677481398 -0.429491736742 -0.0970382260052
v 0.207552325122 -0.464024988817 -0.0970382260052
g roof
f 1 2 3 4 5 6 7 8 9 10 11 12 13 14 15 16 17
g wall
f 2 1 18 19
g wall
f 3 2 19 20
g wall
f 4 3 20 21
g wall
f 5 4 21 22
g wall
f 6 5 22 23
g wall
f 7 6 23 24
g wall
f 8 7 24 25
g wall
f 9 8 25 26
g wall
f 10 9 26 27
g wall
f 11 10 27 28
g wall
f 12 11 28 29
g wall
f 13 12 29 30
g wall
f 14 13 30 31
g wall
f 15 14 31 32
g wall
f 16 15 32 33
g wall
f 17 16 33 34
g wall
f 1 17 34 18
g ground_assumed
f 34 33 32 31 30 29 28 27 26 25 24 23 22 21 20 19 18
