# Source coordinates; no display transform
v 2684445.25 1252472.625 427.930456358
v 2684446.75 1252468.5 427.930036234
v 2684447.25 1252468.375 427.929862698
v 2684447.5 1252468.375 427.92977426
v 2684448 1252468.5 427.929594023
v 2684449.25 1252468.875 427.929141767
v 2684450 1252469.125 427.928869742
v 2684455.75 1252471.125 427.926781995
v 2684456.75 1252471.625 427.926414832
v 2684456.75 1252471.875 427.926408131
v 2684456.25 1252473.375 427.926544827
v 2684455.25 1252476.125 427.92682491
v 2684454.75 1252476.5 427.926991745
v 2684454.5 1252476.5 427.927080183
v 2684450.5 1252475.125 427.928532096
v 2684447 1252473.875 427.929803773
v 2684445.75 1252473.375 427.93025938
v 2684445.25 1252473.125 427.930442962
v 2684445.25 1252472.625 425.125580565
v 2684446.75 1252468.5 425.125580565
v 2684447.25 1252468.375 425.125580565
v 2684447.5 1252468.375 425.125580565
v 2684448 1252468.5 425.125580565
v 2684449.25 1252468.875 425.125580565
v 2684450 1252469.125 425.125580565
v 2684455.75 1252471.125 425.125580565
v 2684456.75 1252471.625 425.125580565
v 2684456.75 1252471.875 425.125580565
v 2684456.25 1252473.375 425.125580565
v 2684455.25 1252476.125 425.125580565
v 2684454.75 1252476.5 425.125580565
v 2684454.5 1252476.5 425.125580565
v 2684450.5 1252475.125 425.125580565
v 2684447 1252473.875 425.125580565
v 2684445.75 1252473.375 425.125580565
v 2684445.25 1252473.125 425.125580565
g roof
f 1 2 3 4 5 6 7 8 9 10 11 12 13 14 15 16 17 18
g wall
f 2 1 19 20
g wall
f 3 2 20 21
g wall
f 4 3 21 22
g wall
f 5 4 22 23
g wall
f 6 5 23 24
g wall
f 7 6 24 25
g wall
f 8 7 25 26
g wall
f 9 8 26 27
g wall
f 10 9 27 28
g wall
f 11 10 28 29
g wall
f 12 11 29 30
g wall
f 13 12 30 31
g wall
f 14 13 31 32
g wall
f 15 14 32 33
g wall
f 16 15 33 34
g wall
f 17 16 34 35
g wall
f 18 17 35 36
g wall
f 1 18 36 19
g ground_assumed
f 36 35 34 33 32 31 30 29 28 27 26 25 24 23 22 21 20 19
