v 2684445.2499999981 1252472.6250000016 427.93045635835369
v 2684446.7499999977 1252468.5 427.93003623366423
v 2684447.2500000009 1252468.3749999993 427.92986269804101
v 2684447.5000000023 1252468.3749999993 427.92977425985873
v 2684448.0000000005 1252468.5 427.92959402349794
v 2684449.2499999986 1252468.8750000023 427.92914176703914
v 2684449.9999999986 1252469.1249999991 427.92886974212735
v 2684455.7500000005 1252471.1250000019 427.92678199545651
v 2684456.7500000019 1252471.6250000002 427.92641483162498
v 2684456.7500000019 1252471.8750000016 427.92640813088741
v 2684456.2499999986 1252473.3750000014 427.92654482689557
v 2684455.2500000023 1252476.1249999991 427.92682491002188
v 2684454.7499999991 1252476.5000000014 427.92699174490764
v 2684454.4999999977 1252476.5000000014 427.92708018308986
v 2684450.5000000019 1252475.1249999977 427.92853209619983
v 2684446.9999999995 1252473.8749999998 427.92980377294907
v 2684445.7500000014 1252473.3750000014 427.9302593797766
v 2684445.2499999981 1252473.1249999998 427.93044296169239
v 2684445.2499999981 1252472.6250000016 425.12558056476865
v 2684446.7499999977 1252468.5 425.12558056476865
v 2684447.2500000009 1252468.3749999993 425.12558056476865
v 2684447.5000000023 1252468.3749999993 425.12558056476865
v 2684448.0000000005 1252468.5 425.12558056476865
v 2684449.2499999986 1252468.8750000023 425.12558056476865
v 2684449.9999999986 1252469.1249999991 425.12558056476865
v 2684455.7500000005 1252471.1250000019 425.12558056476865
v 2684456.7500000019 1252471.6250000002 425.12558056476865
v 2684456.7500000019 1252471.8750000016 425.12558056476865
v 2684456.2499999986 1252473.3750000014 425.12558056476865
v 2684455.2500000023 1252476.1249999991 425.12558056476865
v 2684454.7499999991 1252476.5000000014 425.12558056476865
v 2684454.4999999977 1252476.5000000014 425.12558056476865
v 2684450.5000000019 1252475.1249999977 425.12558056476865
v 2684446.9999999995 1252473.8749999998 425.12558056476865
v 2684445.7500000014 1252473.3750000014 425.12558056476865
v 2684445.2499999981 1252473.1249999998 425.12558056476865
l 1 2
l 2 3
l 3 4
l 4 5
l 5 6
l 6 7
l 7 8
l 8 9
l 9 10
l 10 11
l 11 12
l 12 13
l 13 14
l 14 15
l 15 16
l 16 17
l 17 18
l 1 18
l 1 19
l 19 20
l 2 20
l 20 21
l 3 21
l 21 22
l 4 22
l 22 23
l 23 24
l 24 25
l 25 26
l 26 27
l 9 27
l 27 28
l 10 28
l 28 29
l 29 30
l 12 30
l 30 31
l 13 31
l 31 32
l 14 32
l 32 33
l 33 34
l 34 35
l 35 36
l 18 36
l 19 36
