# pointcloud_to_mesh 0.4.1; candidate requires geometry validation; coordinates preserved
v 6.634904445 0.777997571 6.288936697
v -0.635102406 -2.460869266 6.287300642
v -0.282845923 -3.664793985 6.286683902
v -1.302328542 -2.656093044 6.287202673
v 6.055592454 0.608496604 6.288851636
v 5.408590750 2.819786905 6.289984424
v 5.987902740 2.989287872 6.290069484
v 5.205996688 5.661647557 6.291438466
v -6.795435906 2.150146901 6.289676292
v -6.102155608 -0.219312081 6.288462479
v -7.416260938 -0.603806323 6.288269528
v -6.181313283 -4.824549099 6.286107349
v -5.425981050 -4.603546347 6.286218255
v -4.700361617 -5.020977107 6.286002717
v 7.303950261 -1.508634001 6.287765313
v -0.950072059 -3.860017763 6.286585933
v -0.950072059 -3.860017763 6.693550000
v -0.282845923 -3.664793985 6.693550000
v -0.635102406 -2.460869266 6.693550000
v -1.302328542 -2.656093044 6.693550000
v 6.055592454 0.608496604 7.294560000
v 6.634904445 0.777997571 7.294560000
v 5.987902740 2.989287872 7.294560000
v 5.408590750 2.819786905 7.294560000
v 7.303950261 -1.508634001 -7.292223600
v 6.634904445 0.777997571 -7.292223600
v 5.987902740 2.989287872 -7.292223600
v 5.205996688 5.661647557 -7.292223600
v -6.795435906 2.150146901 -7.292223600
v -6.102155608 -0.219312081 -7.292223600
v -7.416260938 -0.603806323 -7.292223600
v -6.181313283 -4.824549099 -7.292223600
v -5.425981050 -4.603546347 -7.292223600
v -4.700361617 -5.020977107 -7.292223600
g roof
f 1 2 3
g roof
f 4 2 1
g roof
f 4 1 5
g roof
f 4 5 6
g roof
f 6 7 8
g roof
f 6 8 9
g roof
f 6 9 10
g roof
f 6 10 11
g roof
f 6 11 12
g roof
f 6 12 13
g roof
f 6 13 14
g roof
f 15 1 3
g roof
f 15 3 16
g roof
f 4 6 14
g roof
f 14 15 16
g roof
f 14 16 4
g roof_fixture
f 17 18 19
g roof_fixture
f 17 19 20
g roof_fixture
f 21 22 23
g roof_fixture
f 21 23 24
g facade_completed
f 1 15 25 26
g roof_step_or_fixture_side
f 22 21 5 1
g roof_step_or_fixture_side
f 21 24 6 5
g roof_step_or_fixture_side
f 24 23 7 6
g facade_completed
f 8 7 27 28
g facade_completed
f 9 8 28 29
g facade_completed
f 10 9 29 30
g facade_completed
f 11 10 30 31
g facade_completed
f 12 11 31 32
g facade_completed
f 13 12 32 33
g facade_completed
f 14 13 33 34
g facade_completed
f 15 14 34 25
g roof_step_or_fixture_side
f 19 18 3 2
g roof_step_or_fixture_side
f 18 17 16 3
g roof_step_or_fixture_side
f 17 20 4 16
g roof_step_or_fixture_side
f 20 19 2 4
g facade_completed
f 23 22 1 26 27 7
g ground_assumed
f 34 26 25
g ground_assumed
f 34 27 26
g ground_assumed
f 34 28 27
g ground_assumed
f 28 30 29
g ground_assumed
f 30 32 31
g ground_assumed
f 30 33 32
g ground_assumed
f 30 34 33
g ground_assumed
f 30 28 34
