# pointcloud_to_mesh 0.5.1; candidate requires geometry validation; coordinates preserved
v 8.171500952 -0.953360999 1.094290081
v -1.776179642 8.062012583 1.079746543
v -4.947485758 4.562752122 3.038704302
v 5.002746655 -4.449805749 3.051671548
v -8.250747755 0.917889824 0.991001068
v 1.696932839 -8.097483757 1.002457535
v 5.002746655 -4.449805749 -2.875291200
v 8.171500952 -0.953360999 -2.875291200
v -1.776179642 8.062012583 -2.875291200
v -4.947485758 4.562752122 -2.875291200
v -8.250747755 0.917889824 -2.875291200
v 1.696932839 -8.097483757 -2.875291200
g roof
f 1 2 3
g roof
f 1 3 4
g roof
f 4 3 5
g roof
f 4 5 6
g facade_completed
f 1 4 7 8
g facade_completed
f 2 1 8 9
g facade_completed
f 3 2 9 10
g facade_completed
f 6 5 11 12
g facade_completed
f 4 6 12 7
g facade_completed
f 5 3 10 11
g ground_assumed
f 10 12 11
g ground_assumed
f 10 7 12
g ground_assumed
f 10 8 7
g ground_assumed
f 10 9 8
