# Source coordinates; no display transform
v 0.00509608551028 0.477380741897 0.166304581075
v -0.185266939724 0.132477151418 0.166879083329
v -0.147305041959 0.110472180487 0.167147089776
v -0.165601837381 0.0789074455345 0.167195625707
v -0.15928970015 0.0752485558603 0.167240188658
v -0.289834628547 0.0482089919769 0.166751386824
v -0.328914154122 -0.135334036847 0.16734440922
v -0.277012109896 -0.165419544793 0.16771083145
v -0.364308455236 -0.196394550907 0.167438299703
v -0.245270807241 0.125088313017 0.16663317231
v -0.2035637351 0.100912416513 0.166927619261
v -0.0308192376836 0.415421385971 0.166399853714
v -0.0634407191408 0.434330734409 0.166169549941
v -0.0654403175832 0.4308811251 0.1661748543
v -0.120161412979 0.340659619792 0.166302395573
v -0.133665376168 0.32005080315 0.166326892058
v -0.166905180273 0.262707121669 0.166415067289
v -0.194981721929 0.21943133421 0.166467799432
v -0.232791140577 0.153999078027 0.166568961694
v -0.259296660579 0.106350702322 0.166647373768
v -0.280667821935 0.0721324536679 0.166692896889
v -0.319521522238 0.00510395354412 0.166795964142
v -0.346373466844 -0.0350140572844 0.166841043424
v -0.370629437293 -0.0741810418358 0.166894101099
v -0.460843518914 -0.222647131276 0.167103210742
v -0.460717373039 -0.222681877719 0.167103939633
v -0.423858639786 -0.232834489155 0.167316906149
v -0.227032516214 -0.346926602288 0.168706475058
v -0.189835002607 -0.265111991898 0.168533451518
v -0.192435725153 -0.263604458615 0.168515090773
v -0.177197427374 -0.237316093853 0.168474668109
v -0.0559974856969 -0.446068665817 0.169913961918
v 0.0311375400525 -0.496577302746 0.170529124808
v 0.0715660414773 -0.42683203286 0.170421880064
v 0.18176794184 -0.232797756854 0.170113030981
v 0.260029442826 -0.0989699885938 0.169910420843
v 0.295362151061 -0.0414871619454 0.169831322512
v 0.299950731316 -0.0332799931439 0.169817923372
v 0.357798558729 0.0677274896643 0.169659366125
v 0.449812949448 0.223274731887 0.169428728443
v 0.418952712196 0.241163158553 0.169210858867
v 0.262592186679 0.126736155868 0.168971116954
v 0.243679426096 0.094108787969 0.169021286865
v 0.229354540511 0.102412342564 0.168920154881
v 0.132269661582 -0.0708970077157 0.169202231609
v 0.199832608197 -0.110060504964 0.169679217926
v 0.0748750834517 -0.16991132181 0.169354482254
v 0.122670657127 0.0243394595876 0.168756580339
v 0.122668977893 0.0243400054016 0.168756570277
v 0.206312334134 0.244563539683 0.168214733185
v -0.0349430492345 0.0755673599291 0.167812974567
v 0.0186139387581 0.193364053303 0.167563855259
v -0.0128065369054 0.211577227435 0.167342030439
v 0.119314465166 0.414851285655 0.167095448652
v 0.060339102318 0.449036909255 0.166679089663
v 0.0140252211951 0.362970149525 0.166827940145
v 0.0773733282689 0.326249823657 0.167275170218
v -0.00748923792216 0.325854458779 0.166885011562
v -0.0239204860237 0.502509104256 0.166064714584
v -0.0275253959002 0.496290090289 0.166074277349
v -0.203853521409 -0.00163076518012 0.167358403173
v 0.325950301247 0.0132230309306 0.169742001741
v 0.142438030114 -0.209074819058 0.169831468618
v 0.0436464970784 0.248422276543 0.167447416757
v 0.0558588691517 0.28913413291 0.167332241635
v 0.0173775428047 0.26364932287 0.16726196108
v 0.122668044398 0.0243375475774 0.168756576314
v -0.312406410964 -0.226480058853 0.167804721933
v -0.148438824888 -0.174062568808 0.168340898013
v 0.0481001213112 0.176272110346 0.172234705491
v 0.0186139387581 0.193364053303 0.17324035664
v -0.0349430492345 0.0755673599291 0.173786926772
v 0.229354540511 0.102412342564 0.166321242558
v 0.192441391109 0.123809396692 0.167580196637
v 0.234735715078 0.196773492147 0.166976043905
v 0.285973750065 0.167072883424 0.165228527507
v 0.262592186679 0.126736155868 0.165562521144
v 0.418952712196 0.241163158553 0.161993252877
v 0.299941191061 0.310149305727 0.166052241216
v 0.243621865398 0.342795332386 0.167973059325
v 0.119314465166 0.414851285655 0.172212668094
v 0.0436464970784 0.248422276543 0.1729848895
v 0.0782842010213 0.228344205781 0.171803541386
v -0.137865497171 -0.295236604328 0.173595196363
v -0.189835002607 -0.265111991898 0.175367660198
v -0.227032516214 -0.346926602288 0.175747275467
v -0.148438824888 -0.174062568808 0.174945195889
v -0.177197427374 -0.237316093853 0.175238688754
v -0.161207254232 -0.209730630604 0.175010277336
v -0.10663702625 -0.241362776364 0.173149113656
v 0.285973750065 0.167072883424 0.180870985289
v 0.234735715078 0.196773492147 0.180870985289
v 0.192441391109 0.123809396692 0.180870985289
v 0.229354540511 0.102412342564 0.180870985289
v 0.243679426096 0.094108787969 0.180870985289
v 0.262592186679 0.126736155868 0.180870985289
v 0.142438030114 -0.209074819058 0.184335873691
v 0.199832608197 -0.110060504964 0.184335873691
v 0.132269661582 -0.0708970077157 0.184335873691
v 0.0748750834517 -0.16991132181 0.184335873691
v 0.0558588691517 0.28913413291 0.180734893834
v 0.0773733282689 0.326249823657 0.180734893834
v 0.0140252211951 0.362970149525 0.180734893834
v -0.00748923792216 0.325854458779 0.180734893834
v 0.0436464970784 0.248422276543 0.179545454542
v 0.0173775428047 0.26364932287 0.179545454542
v -0.0128065369054 0.211577227435 0.179545454542
v 0.0186139387581 0.193364053303 0.179545454542
v 0.0481001213112 0.176272110346 0.179545454542
v 0.0782842010213 0.228344205781 0.179545454542
v 0.00509608551028 0.477380741897 0.17986799128
v -0.0275253959002 0.496290090289 0.17986799128
v -0.0634407191408 0.434330734409 0.17986799128
v -0.0308192376836 0.415421385971 0.17986799128
v -0.177197427374 -0.237316093853 0.180272863372
v -0.192435725153 -0.263604458615 0.180272863372
v -0.189835003168 -0.265111991571 0.180272863372
v -0.137865497171 -0.295236604328 0.180272863372
v -0.10663702625 -0.241362776364 0.180272863372
v -0.161207254232 -0.209730630604 0.180272863372
v -0.153645767244 0.114147641509 0.181431682095
v -0.185266939724 0.132477151418 0.181431682095
v -0.189194425696 0.125701645046 0.181431682095
v -0.2035637351 0.100912416513 0.181431682095
v -0.165601837381 0.0789074455345 0.181431682095
v -0.147305041959 0.110472180487 0.181431682095
v -0.289834628547 0.0482089919769 0.184478769732
v -0.203853521409 -0.00163076518012 0.184478769732
v -0.15928970015 0.0752485558603 0.184478769732
v -0.165601837381 0.0789074455345 0.184478769732
v -0.2035637351 0.100912416513 0.184478769732
v -0.245270807241 0.125088313017 0.184478769732
v -0.312406410964 -0.226480058853 0.179333151866
v -0.277012109896 -0.165419544793 0.179333151866
v -0.328914154122 -0.135334036847 0.179333151866
v -0.364308455236 -0.196394550907 0.179333151866
v -0.346373466844 -0.0350140572844 -0.165563854121
v -0.370629437293 -0.0741810418358 -0.165563854121
v -0.460843518914 -0.222647131276 -0.165563854121
v -0.460717372899 -0.222681879638 -0.165563854121
v -0.423858639786 -0.232834489155 -0.165563854121
v -0.314985407044 -0.295943882157 0.168085538184
v -0.314985407044 -0.295943882157 -0.165563854121
v -0.227032516214 -0.346926602288 -0.165563854121
v -0.0559974856969 -0.446068665817 -0.165563854121
v 0.0311375400525 -0.496577302746 -0.165563854121
v 0.0715660414773 -0.42683203286 -0.165563854121
v 0.18176794184 -0.232797756854 -0.165563854121
v 0.260029442826 -0.0989699885938 -0.165563854121
v 0.295362151061 -0.0414871619454 -0.165563854121
v 0.299950733983 -0.0332799926291 -0.165563854121
v 0.325950301247 0.0132230309306 -0.165563854121
v 0.357798558729 0.0677274896643 -0.165563854121
v 0.449812949448 0.223274731887 -0.165563854121
v 0.418952712196 0.241163158553 -0.165563854121
v 0.119314465166 0.414851285655 -0.165563854121
v 0.060339102318 0.449036909255 -0.165563854121
v -0.0239204860237 0.502509104256 -0.165563854121
v -0.0275253959002 0.496290090289 -0.165563854121
v -0.0634407191408 0.434330734409 -0.165563854121
v -0.0654403175832 0.4308811251 -0.165563854121
v -0.120161412979 0.340659619792 -0.165563854121
v -0.133665376168 0.32005080315 -0.165563854121
v -0.166905180273 0.262707121669 -0.165563854121
v -0.194981721929 0.21943133421 -0.165563854121
v -0.232791140577 0.153999078027 -0.165563854121
v -0.259296660579 0.106350702322 -0.165563854121
v -0.280667821935 0.0721324536679 -0.165563854121
v -0.319521522238 0.00510395354412 -0.165563854121
v -0.189194425696 0.125701645046 0.166889501763
v -0.153645768039 0.114147641977 0.167102325029
v 0.122670656471 0.0243394618808 -0.165563854121
v 0.299941191061 0.310149305727 -0.165563854121
v 0.243621865398 0.342795332386 -0.165563854121
v -0.189835003168 -0.265111991571 -0.165563854121
v -0.189194425696 0.125701645046 -0.165563854121
g roof
f 1 2 171 3
g roof
f 3 4 5
g roof
f 6 7 8
g roof
f 9 7 6
g roof
f 10 11 170 2
g roof
f 12 13 14
g roof
f 12 14 15
g roof
f 12 15 16
g roof
f 12 16 17
g roof
f 12 17 18
g roof
f 12 18 19
g roof
f 12 19 20
g roof
f 20 21 22
g roof
f 22 23 24
g roof
f 22 24 25
g roof
f 22 25 26
g roof
f 22 26 27
g roof
f 27 142 28 29
g roof
f 27 29 30
g roof
f 27 30 31
g roof
f 32 33 34
g roof
f 32 34 35
g roof
f 32 35 36
g roof
f 32 36 37
g roof
f 32 37 38
g roof
f 39 40 41
g roof
f 39 41 42
g roof
f 39 42 43
g roof
f 43 44 45
g roof
f 43 45 46
g roof
f 47 45 44
g roof
f 47 44 48
g roof
f 47 48 49
g roof
f 49 50 51
g roof
f 51 52 53
g roof
f 54 55 56
g roof
f 54 56 57
g roof
f 58 56 55
g roof
f 55 59 60
g roof
f 55 60 1
g roof
f 55 1 3
g roof
f 55 3 5
g roof
f 55 5 61
g roof
f 2 1 12
g roof
f 62 39 43
g roof
f 62 43 46
g roof
f 62 46 63
g roof
f 64 54 57
g roof
f 64 57 65
g roof
f 64 65 58
g roof
f 58 55 61
g roof
f 10 2 12
g roof
f 10 12 20
g roof
f 10 20 22
g roof
f 38 62 63
g roof
f 66 64 58
g roof
f 66 58 61
g roof
f 6 10 22
g roof
f 6 22 27
g roof
f 32 38 63
g roof
f 32 63 47
g roof
f 32 47 49 67
g roof
f 53 66 61
g roof
f 61 6 8
g roof
f 9 6 27
g roof
f 67 49 51
g roof
f 51 53 61
g roof
f 51 61 8
g roof
f 51 8 68
g roof
f 68 9 27
g roof
f 68 27 31
g roof
f 68 31 69
g roof
f 68 69 67
g roof
f 68 67 51
g roof
f 70 71 72
g roof
f 70 72 50
g roof
f 50 49 48
g roof
f 48 73 74
g roof
f 48 74 75
g roof
f 76 77 78
g roof
f 76 78 79
g roof
f 76 79 80
g roof
f 76 80 81
g roof
f 81 82 83
g roof
f 83 70 50
g roof
f 50 48 75
g roof
f 50 75 76
g roof
f 50 76 81
g roof
f 50 81 83
g roof
f 84 85 86
g roof
f 84 86 32
g roof
f 84 32 67
g roof
f 87 88 89
g roof
f 87 89 90
g roof
f 90 84 67
g roof
f 90 67 87
g roof_fixture
f 91 92 93
g roof_fixture
f 91 93 94
g roof_fixture
f 94 95 96
g roof_fixture
f 94 96 91
g roof_fixture
f 97 98 99
g roof_fixture
f 97 99 100
g roof_fixture
f 101 102 103
g roof_fixture
f 101 103 104
g roof_fixture
f 105 106 107
g roof_fixture
f 105 107 108
g roof_fixture
f 105 108 109
g roof_fixture
f 105 109 110
g roof_fixture
f 111 112 113
g roof_fixture
f 111 113 114
g roof_fixture
f 115 116 117
g roof_fixture
f 115 117 118
g roof_fixture
f 115 118 119
g roof_fixture
f 115 119 120
g roof_fixture
f 121 122 123
g roof_fixture
f 121 123 124
g roof_fixture
f 121 124 125
g roof_fixture
f 121 125 126
g roof_fixture
f 127 128 129
g roof_fixture
f 127 129 130
g roof_fixture
f 127 130 131
g roof_fixture
f 127 131 132
g roof_fixture
f 133 134 135
g roof_fixture
f 133 135 136
g facade_completed
f 24 23 137 138
g facade_completed
f 25 24 138 139
g facade_completed
f 26 25 139 140
g facade_completed
f 27 26 140 141
g facade_completed
f 142 27 141 143
g facade_completed
f 28 142 143 144
g roof_step_or_fixture_side
f 86 85 29 28
g roof_step_or_fixture_side
f 117 116 30 29 85
g roof_step_or_fixture_side
f 116 115 88 31 30
g roof_step_or_fixture_side
f 88 87 69 31
g roof_step_or_fixture_side
f 87 67 69
g facade_completed
f 33 32 145 146
g facade_completed
f 34 33 146 147
g facade_completed
f 35 34 147 148
g facade_completed
f 36 35 148 149
g facade_completed
f 37 36 149 150
g facade_completed
f 38 37 150 151
g facade_completed
f 62 38 151 152
g facade_completed
f 39 62 152 153
g facade_completed
f 40 39 153 154
g facade_completed
f 41 40 154 155 78
g roof_step_or_fixture_side
f 42 41 78 77
g roof_step_or_fixture_side
f 96 95 43 42
g roof_step_or_fixture_side
f 95 94 44 43
g roof_step_or_fixture_side
f 48 44 73
g roof_step_or_fixture_side
f 50 72 51
g roof_step_or_fixture_side
f 72 71 52 51
g roof_step_or_fixture_side
f 108 107 53 52 71
g roof_step_or_fixture_side
f 107 106 66 53
g roof_step_or_fixture_side
f 106 105 82 64 66
g roof_step_or_fixture_side
f 82 81 54 64
g facade_completed
f 55 54 156 157
g facade_completed
f 59 55 157 158
g facade_completed
f 60 59 158 159
g roof_step_or_fixture_side
f 112 111 1 60
g roof_step_or_fixture_side
f 111 114 12 1
g roof_step_or_fixture_side
f 114 113 13 12
g facade_completed
f 14 13 160 161
g facade_completed
f 15 14 161 162
g facade_completed
f 16 15 162 163
g facade_completed
f 17 16 163 164
g facade_completed
f 18 17 164 165
g facade_completed
f 19 18 165 166
g facade_completed
f 20 19 166 167
g facade_completed
f 21 20 167 168
g facade_completed
f 22 21 168 169
g facade_completed
f 23 22 169 137
g roof_step_or_fixture_side
f 102 101 65 57
g roof_step_or_fixture_side
f 101 104 58 65
g roof_step_or_fixture_side
f 104 103 56 58
g roof_step_or_fixture_side
f 103 102 57 56
g roof_step_or_fixture_side
f 124 123 170 11
g roof_step_or_fixture_side
f 123 122 2 170
g roof_step_or_fixture_side
f 122 121 171 2
g roof_step_or_fixture_side
f 121 126 3 171
g roof_step_or_fixture_side
f 126 125 4 3
g roof_step_or_fixture_side
f 130 129 5 4 125
g roof_step_or_fixture_side
f 129 128 61 5
g roof_step_or_fixture_side
f 128 127 6 61
g roof_step_or_fixture_side
f 127 132 10 6
g roof_step_or_fixture_side
f 132 131 124 11 10
g roof_step_or_fixture_side
f 134 133 68 8
g roof_step_or_fixture_side
f 133 136 9 68
g roof_step_or_fixture_side
f 136 135 7 9
g roof_step_or_fixture_side
f 135 134 8 7
g roof_step_or_fixture_side
f 98 97 63 46
g roof_step_or_fixture_side
f 97 100 47 63
g roof_step_or_fixture_side
f 100 99 45 47
g roof_step_or_fixture_side
f 99 98 46 45
g roof_step_or_fixture_side
f 94 93 74 73 44
g roof_step_or_fixture_side
f 93 92 75 74
g roof_step_or_fixture_side
f 92 91 76 75
g roof_step_or_fixture_side
f 91 96 42 77 76
g facade_completed
f 79 78 155 173
g facade_completed
f 80 79 173 174
g facade_completed
f 81 80 174 156 54
g roof_step_or_fixture_side
f 105 110 83 82
g roof_step_or_fixture_side
f 110 109 70 83
g roof_step_or_fixture_side
f 109 108 71 70
g facade_completed
f 32 86 28 144 145
g roof_step_or_fixture_side
f 115 120 89 88
g roof_step_or_fixture_side
f 120 119 90 89
g roof_step_or_fixture_side
f 119 118 84 90
g roof_step_or_fixture_side
f 118 117 85 84
g facade_completed
f 113 112 60 159 160 13
g roof_step_or_fixture_side
f 131 130 125 124
g ground_assumed
f 153 155 154
g ground_assumed
f 153 173 155
g ground_assumed
f 153 174 173
g ground_assumed
f 153 156 174
g ground_assumed
f 153 157 156
g ground_assumed
f 153 158 157
g ground_assumed
f 153 159 158
g ground_assumed
f 153 160 159
g ground_assumed
f 153 161 160
g ground_assumed
f 153 162 161
g ground_assumed
f 153 163 162
g ground_assumed
f 153 164 163
g ground_assumed
f 153 165 164
g ground_assumed
f 153 166 165
g ground_assumed
f 153 167 166
g ground_assumed
f 153 168 167
g ground_assumed
f 153 169 168
g ground_assumed
f 153 137 169
g ground_assumed
f 153 138 137
g ground_assumed
f 153 139 138
g ground_assumed
f 153 140 139
g ground_assumed
f 153 141 140
g ground_assumed
f 153 143 141
g ground_assumed
f 153 144 143
g ground_assumed
f 153 145 144
g ground_assumed
f 145 147 146
g ground_assumed
f 145 148 147
g ground_assumed
f 145 149 148
g ground_assumed
f 145 150 149
g ground_assumed
f 145 151 150
g ground_assumed
f 145 152 151
g ground_assumed
f 145 153 152
