v 0.0050960855102786043 0.47738074189717616 0.1663045810754826
v -0.18526693972416891 0.13247715141813832 0.16687908332915649
v -0.14730504195896688 0.11047218048679495 0.16714708977561427
v -0.16560183738110246 0.078907445534477025 0.1671956257073369
v -0.15928970014961236 0.075248555860349148 0.16724018865818596
v -0.28983462854696018 0.048208991976857116 0.16675138682404969
v -0.32891415412174818 -0.13533403684702791 0.16734440921967428
v -0.27701210989638902 -0.16541954479339829 0.16771083144961677
v -0.36430845523603572 -0.19639455090654301 0.16743829970329999
v -0.24527080724091294 0.12508831301732942 0.16663317230964617
v -0.20356373509950576 0.10091241651261916 0.16692761926087915
v -0.030819237683586534 0.41542138597052425 0.166399853713736
v -0.06344071914083052 0.43433073440909753 0.16616954994085259
v -0.06544031758317187 0.43088112510013965 0.16617485429969747
v -0.12016141297947289 0.34065961979162607 0.16630239557331175
v -0.13366537616758853 0.32005080315036272 0.1663268920575264
v -0.16690518027340379 0.26270712166898635 0.1664150672891796
v -0.19498172192890928 0.21943133421032304 0.1664677994318691
v -0.23279114057716094 0.15399907802659971 0.16656896169428101
v -0.25929666057883671 0.10635070232211673 0.16664737376827071
v -0.28066782193459827 0.072132453667878876 0.16669289688931338
v -0.31952152223760011 0.0051039535441161112 0.16679596414211861
v -0.34637346684356241 -0.035014057284396882 0.1668410434237054
v -0.37062943729308873 -0.074181041835790412 0.16689410109858119
v -0.46084351891403552 -0.22264713127628796 0.16710321074186851
v -0.46071737303909843 -0.22268187771888517 0.1671039396325818
v -0.4238586397857862 -0.23283448915491436 0.16731690614901495
v -0.22703251621433104 -0.34692660228818095 0.16870647505774639
v -0.18983500260686276 -0.26511199189835277 0.1685334515184084
v -0.19243572515285473 -0.26360445861459902 0.16851509077304
v -0.17719742737422553 -0.23731609385252136 0.16847466810863751
v -0.055997485696933059 -0.44606866581727311 0.16991396191843108
v 0.03113754005248516 -0.49657730274626588 0.17052912480821061
v 0.071566041477310785 -0.42683203285956017 0.17042188006394324
v 0.1817679418397378 -0.23279775685366361 0.17011303098099562
v 0.260029442826056 -0.098969988593781297 0.16991042084332914
v 0.29536215106051222 -0.041487161945433726 0.16983132251229804
v 0.29995073131590932 -0.033279993143927086 0.16981792337164386
v 0.35779855872861188 0.067727489664332924 0.16965936612512283
v 0.44981294944756423 0.22327473188670607 0.16942872844307477
v 0.41895271219639618 0.24116315855321857 0.16921085886717827
v 0.26259218667937723 0.12673615586804401 0.16897111695403128
v 0.24367942609629042 0.094108787968957303 0.16902128686451828
v 0.22935454051126217 0.10241234256406287 0.16892015488090517
v 0.132269661581562 -0.070897007715656379 0.16920223160905848
v 0.19983260819688783 -0.11006050496372516 0.1696792179258374
v 0.074875083451728427 -0.16991132181024224 0.16935448225445432
v 0.12267065712650274 0.024339459587647598 0.16875658033914348
v 0.12266897789333586 0.024340005401605171 0.16875657027740973
v 0.20631233413392341 0.24456353968317093 0.16821473318500452
v -0.034943049234522537 0.075567359929084449 0.16781297456727493
v 0.018613938758058519 0.19336405330349093 0.16756385525865702
v -0.012806536905409522 0.21157722743467447 0.16734203043861764
v 0.11931446516568989 0.4148512856551736 0.16709544865245604
v 0.060339102317960594 0.44903690925468154 0.16667908966345729
v 0.014025221195094591 0.36297014952537909 0.16682794014482263
v 0.077373328268916172 0.32624982365655997 0.16727517021776195
v -0.007489237922159153 0.3258544587792499 0.16688501156229341
v -0.023920486023714847 0.50250910425571416 0.16606471458403202
v -0.027525395900166623 0.49629009028895066 0.16607427734939798
v -0.2038535214088609 -0.0016307651801231496 0.16735840317258951
v 0.32595030124719704 0.013223030930551719 0.1697420017405562
v 0.142438030113853 -0.20907481905831102 0.16983146861803203
v 0.043646497078404151 0.24842227654287394 0.1674474167572596
v 0.055858869151662424 0.28913413291043089 0.16733224163523272
v 0.017377542804718298 0.26364932286962039 0.16726196108008023
v 0.12266804439843643 0.024337547577440038 0.16875657631444999
v -0.31240641096387778 -0.22648005885291342 0.16780472193324245
v -0.14843882488828283 -0.17406256880762694 0.16834089801344002
v 0.048100121311183797 0.17627211034614707 0.17223470549076245
v 0.018613938758058519 0.19336405330349093 0.17324035663968912
v -0.034943049234522537 0.075567359929084449 0.1737869267716565
v 0.22935454051126217 0.10241234256406287 0.16632124255781408
v 0.1924413911086198 0.12380939669189278 0.16758019663745857
v 0.23473571507754276 0.19677349214657311 0.1669760439051465
v 0.28597375006521342 0.1670728834236376 0.16522852750742803
v 0.26259218667937723 0.12673615586804401 0.16556252114384218
v 0.41895271219639618 0.24116315855321857 0.16199325287670124
v 0.29994119106074779 0.31014930572657085 0.16605224121648157
v 0.24362186539776623 0.34279533238554039 0.16797305932537748
v 0.11931446516568989 0.4148512856551736 0.17221266809427949
v 0.043646497078404151 0.24842227654287394 0.17298488950023699
v 0.078284201021311617 0.22834420578109305 0.17180354138591211
v -0.13786549717095034 -0.29523660432840515 0.17359519636330867
v -0.18983500260686276 -0.26511199189835277 0.17536766019810943
v -0.22703251621433104 -0.34692660228818095 0.17574727546695956
v -0.14843882488828283 -0.17406256880762694 0.1749451958894595
v -0.17719742737422553 -0.23731609385252136 0.17523868875433793
v -0.16120725423207555 -0.20973063060371322 0.17501027733618219
v -0.10663702625017114 -0.2413627763643181 0.1731491136556097
v 0.28597375006521342 0.1670728834236376 0.18087098528864537
v 0.23473571507754276 0.19677349214657311 0.18087098528864537
v 0.1924413911086198 0.12380939669189278 0.18087098528864537
v 0.22935454051126217 0.10241234256406287 0.18087098528864537
v 0.24367942609629042 0.094108787968957303 0.18087098528864537
v 0.26259218667937723 0.12673615586804401 0.18087098528864537
v 0.142438030113853 -0.20907481905831102 0.18433587369131324
v 0.19983260819688783 -0.11006050496372516 0.18433587369131324
v 0.132269661581562 -0.070897007715656379 0.18433587369131324
v 0.074875083451728427 -0.16991132181024224 0.18433587369131324
v 0.055858869151662424 0.28913413291043089 0.18073489383447178
v 0.077373328268916172 0.32624982365655997 0.18073489383447178
v 0.014025221195094591 0.36297014952537909 0.18073489383447178
v -0.007489237922159153 0.3258544587792499 0.18073489383447178
v 0.043646497078404151 0.24842227654287394 0.17954545454184226
v 0.017377542804718298 0.26364932286962039 0.17954545454184226
v -0.012806536905409522 0.21157722743467447 0.17954545454184226
v 0.018613938758058519 0.19336405330349093 0.17954545454184226
v 0.048100121311183797 0.17627211034614707 0.17954545454184226
v 0.078284201021311617 0.22834420578109305 0.17954545454184226
v 0.0050960855102786043 0.47738074189717616 0.17986799127980987
v -0.027525395900166623 0.49629009028895066 0.17986799127980987
v -0.06344071914083052 0.43433073440909753 0.17986799127980987
v -0.030819237683586534 0.41542138597052425 0.17986799127980987
v -0.17719742737422553 -0.23731609385252136 0.18027286337235582
v -0.19243572515285473 -0.26360445861459902 0.18027286337235582
v -0.1898350031684479 -0.26511199157076148 0.18027286337235582
v -0.13786549717095034 -0.29523660432840515 0.18027286337235582
v -0.10663702625017114 -0.2413627763643181 0.18027286337235582
v -0.16120725423207555 -0.20973063060371322 0.18027286337235582
v -0.15364576724360729 0.11414764150883928 0.18143168209481611
v -0.18526693972416891 0.13247715141813832 0.18143168209481611
v -0.1891944256963469 0.12570164504595419 0.18143168209481611
v -0.20356373509950576 0.10091241651261916 0.18143168209481611
v -0.16560183738110246 0.078907445534477025 0.18143168209481611
v -0.14730504195896688 0.11047218048679495 0.18143168209481611
v -0.28983462854696018 0.048208991976857116 0.18447876973223512
v -0.2038535214088609 -0.0016307651801231496 0.18447876973223512
v -0.15928970014961236 0.075248555860349148 0.18447876973223512
v -0.16560183738110246 0.078907445534477025 0.18447876973223512
v -0.20356373509950576 0.10091241651261916 0.18447876973223512
v -0.24527080724091294 0.12508831301732942 0.18447876973223512
v -0.31240641096387778 -0.22648005885291342 0.17933315186584367
v -0.27701210989638902 -0.16541954479339829 0.17933315186584367
v -0.32891415412174818 -0.13533403684702791 0.17933315186584367
v -0.36430845523603572 -0.19639455090654301 0.17933315186584367
v -0.34637346684356241 -0.035014057284396882 -0.16556385412102204
v -0.37062943729308873 -0.074181041835790412 -0.16556385412102204
v -0.46084351891403552 -0.22264713127628796 -0.16556385412102204
v -0.46071737289870218 -0.22268187963763444 -0.16556385412102204
v -0.4238586397857862 -0.23283448915491436 -0.16556385412102204
v -0.31498540704435951 -0.2959438821567919 0.16808553818354843
v -0.31498540704435951 -0.2959438821567919 -0.16556385412102204
v -0.22703251621433104 -0.34692660228818095 -0.16556385412102204
v -0.055997485696933059 -0.44606866581727311 -0.16556385412102204
v 0.03113754005248516 -0.49657730274626588 -0.16556385412102204
v 0.071566041477310785 -0.42683203285956017 -0.16556385412102204
v 0.1817679418397378 -0.23279775685366361 -0.16556385412102204
v 0.260029442826056 -0.098969988593781297 -0.16556385412102204
v 0.29536215106051222 -0.041487161945433726 -0.16556385412102204
v 0.29995073398343874 -0.033279992629140713 -0.16556385412102204
v 0.32595030124719704 0.013223030930551719 -0.16556385412102204
v 0.35779855872861188 0.067727489664332924 -0.16556385412102204
v 0.44981294944756423 0.22327473188670607 -0.16556385412102204
v 0.41895271219639618 0.24116315855321857 -0.16556385412102204
v 0.11931446516568989 0.4148512856551736 -0.16556385412102204
v 0.060339102317960594 0.44903690925468154 -0.16556385412102204
v -0.023920486023714847 0.50250910425571416 -0.16556385412102204
v -0.027525395900166623 0.49629009028895066 -0.16556385412102204
v -0.06344071914083052 0.43433073440909753 -0.16556385412102204
v -0.06544031758317187 0.43088112510013965 -0.16556385412102204
v -0.12016141297947289 0.34065961979162607 -0.16556385412102204
v -0.13366537616758853 0.32005080315036272 -0.16556385412102204
v -0.16690518027340379 0.26270712166898635 -0.16556385412102204
v -0.19498172192890928 0.21943133421032304 -0.16556385412102204
v -0.23279114057716094 0.15399907802659971 -0.16556385412102204
v -0.25929666057883671 0.10635070232211673 -0.16556385412102204
v -0.28066782193459827 0.072132453667878876 -0.16556385412102204
v -0.31952152223760011 0.0051039535441161112 -0.16556385412102204
v -0.1891944256963469 0.12570164504595419 0.16688950176308118
v -0.15364576803918625 0.11414764197682689 0.16710232502850478
v 0.12267065647132008 0.024339461880786915 -0.16556385412102204
v 0.29994119106074779 0.31014930572657085 -0.16556385412102204
v 0.24362186539776623 0.34279533238554039 -0.16556385412102204
v -0.1898350031684479 -0.26511199157076148 -0.16556385412102204
v -0.1891944256963469 0.12570164504595419 -0.16556385412102204
l 2 171
l 3 171
l 3 4
l 4 5
l 7 8
l 7 9
l 10 11
l 11 170
l 2 170
l 12 13
l 13 14
l 14 15
l 15 16
l 16 17
l 17 18
l 18 19
l 19 20
l 20 21
l 21 22
l 22 23
l 23 24
l 24 25
l 25 26
l 26 27
l 27 142
l 28 142
l 28 29
l 29 30
l 30 31
l 32 33
l 33 34
l 34 35
l 35 36
l 36 37
l 37 38
l 39 40
l 40 41
l 41 42
l 42 43
l 43 44
l 45 46
l 45 47
l 44 48
l 50 51
l 51 52
l 52 53
l 54 55
l 56 57
l 56 58
l 55 59
l 59 60
l 1 60
l 5 61
l 1 12
l 39 62
l 46 63
l 54 64
l 57 65
l 58 65
l 38 62
l 64 66
l 6 10
l 47 63
l 53 66
l 6 61
l 8 68
l 9 68
l 31 69
l 67 69
l 70 71
l 71 72
l 50 72
l 48 73
l 73 74
l 74 75
l 76 77
l 77 78
l 78 79
l 79 80
l 80 81
l 81 82
l 82 83
l 70 83
l 75 76
l 84 85
l 85 86
l 32 86
l 87 88
l 88 89
l 89 90
l 84 90
l 67 87
l 91 92
l 92 93
l 93 94
l 94 95
l 95 96
l 91 96
l 97 98
l 98 99
l 99 100
l 97 100
l 101 102
l 102 103
l 103 104
l 101 104
l 105 106
l 106 107
l 107 108
l 108 109
l 109 110
l 105 110
l 111 112
l 112 113
l 113 114
l 111 114
l 115 116
l 116 117
l 117 118
l 118 119
l 119 120
l 115 120
l 121 122
l 122 123
l 123 124
l 124 125
l 125 126
l 121 126
l 127 128
l 128 129
l 129 130
l 130 131
l 131 132
l 127 132
l 133 134
l 134 135
l 135 136
l 133 136
l 137 138
l 138 139
l 25 139
l 139 140
l 140 141
l 27 141
l 141 143
l 143 144
l 29 85
l 28 86
l 30 116
l 69 87
l 145 146
l 33 146
l 146 147
l 147 148
l 148 149
l 149 150
l 150 151
l 151 152
l 152 153
l 153 154
l 40 154
l 154 155
l 41 78
l 42 77
l 43 95
l 44 73
l 51 72
l 52 71
l 53 107
l 66 106
l 64 82
l 54 81
l 156 157
l 157 158
l 59 158
l 158 159
l 1 111
l 60 112
l 12 114
l 13 113
l 160 161
l 161 162
l 162 163
l 163 164
l 164 165
l 165 166
l 166 167
l 167 168
l 168 169
l 137 169
l 65 101
l 57 102
l 58 104
l 56 103
l 11 124
l 2 122
l 3 126
l 4 125
l 5 129
l 61 128
l 6 127
l 10 132
l 68 133
l 8 134
l 9 136
l 7 135
l 63 97
l 46 98
l 47 100
l 45 99
l 74 93
l 75 92
l 76 91
l 155 173
l 173 174
l 156 174
l 83 110
l 70 109
l 144 145
l 89 120
l 90 119
l 84 118
l 159 160
