# XYZ-only planar convex-roof baseline. Provisional base; no GT.
v 7.08506291 -8.02973796 0.50397308
v 11.43056816 1.03914256 0.50754410
v 11.99737319 2.26722013 0.50802318
v 12.56417822 3.58976521 0.50853006
v 12.56417822 4.15657024 0.50869683
v 11.80843818 4.53444026 0.50865101
v 8.02973796 6.32932286 0.50839415
v 5.00677779 7.74633545 0.50818310
v 4.25103774 8.02973796 0.50810950
v 4.06210273 8.02973796 0.50807025
v -8.21867297 6.51825787 0.50507440
v -12.37524321 -1.32254508 0.50190396
v -11.99737319 -1.60594759 0.50189907
v -11.24163315 -1.98381761 0.50194488
v -8.59654299 -3.21189518 0.50213302
v 7.08506291 -8.02973796 -1.62723452
v 11.43056816 1.03914256 -1.62723452
v 11.99737319 2.26722013 -1.62723452
v 12.56417822 3.58976521 -1.62723452
v 12.56417822 4.15657024 -1.62723452
v 11.80843818 4.53444026 -1.62723452
v 8.02973796 6.32932286 -1.62723452
v 5.00677779 7.74633545 -1.62723452
v 4.25103774 8.02973796 -1.62723452
v 4.06210273 8.02973796 -1.62723452
v -8.21867297 6.51825787 -1.62723452
v -12.37524321 -1.32254508 -1.62723452
v -11.99737319 -1.60594759 -1.62723452
v -11.24163315 -1.98381761 -1.62723452
v -8.59654299 -3.21189518 -1.62723452
g roof
f 1 2 3 4 5 6 7 8 9 10 11 12 13 14 15
g wall
f 2 1 16 17
g wall
f 3 2 17 18
g wall
f 4 3 18 19
g wall
f 5 4 19 20
g wall
f 6 5 20 21
g wall
f 7 6 21 22
g wall
f 8 7 22 23
g wall
f 9 8 23 24
g wall
f 10 9 24 25
g wall
f 11 10 25 26
g wall
f 12 11 26 27
g wall
f 13 12 27 28
g wall
f 14 13 28 29
g wall
f 15 14 29 30
g wall
f 1 15 30 16
g ground_assumed
f 30 29 28 27 26 25 24 23 22 21 20 19 18 17 16
