# Source coordinates; no display transform
v 2686535.5 1245147.25 524.526876233
v 2686541.25 1245159.25 524.531601429
v 2686542 1245160.875 524.53223535
v 2686542.75 1245162.625 524.532906057
v 2686542.75 1245163.375 524.533126728
v 2686541.75 1245163.875 524.533066099
v 2686536.75 1245166.25 524.53272622
v 2686532.75 1245168.125 524.532446958
v 2686531.75 1245168.5 524.53234957
v 2686531.5 1245168.5 524.532297634
v 2686515.25 1245166.5 524.528333506
v 2686509.75 1245156.125 524.52413836
v 2686510.25 1245155.75 524.524131889
v 2686511.25 1245155.25 524.524192505
v 2686514.75 1245153.625 524.524441454
v 2686535.5 1245147.25 521.706848872
v 2686541.25 1245159.25 521.706848872
v 2686542 1245160.875 521.706848872
v 2686542.75 1245162.625 521.706848872
v 2686542.75 1245163.375 521.706848872
v 2686541.75 1245163.875 521.706848872
v 2686536.75 1245166.25 521.706848872
v 2686532.75 1245168.125 521.706848872
v 2686531.75 1245168.5 521.706848872
v 2686531.5 1245168.5 521.706848872
v 2686515.25 1245166.5 521.706848872
v 2686509.75 1245156.125 521.706848872
v 2686510.25 1245155.75 521.706848872
v 2686511.25 1245155.25 521.706848872
v 2686514.75 1245153.625 521.706848872
g roof
f 1 2 3 4 5 6 7 8 9 10 11 12 13 14 15
g wall
f 2 1 16 17
g wall
f 3 2 17 18
g wall
f 4 3 18 19
g wall
f 5 4 19 20
g wall
f 6 5 20 21
g wall
f 7 6 21 22
g wall
f 8 7 22 23
g wall
f 9 8 23 24
g wall
f 10 9 24 25
g wall
f 11 10 25 26
g wall
f 12 11 26 27
g wall
f 13 12 27 28
g wall
f 14 13 28 29
g wall
f 15 14 29 30
g wall
f 1 15 30 16
g ground_assumed
f 30 29 28 27 26 25 24 23 22 21 20 19 18 17 16
