v 2686535.5000000037 1245147.2500000019 524.52687623254724
v 2686541.2500000042 1245159.2500000005 524.53160142877186
v 2686542.0000000009 1245160.8749999995 524.53223535045458
v 2686542.7499999972 1245162.6250000049 524.53290605727295
v 2686542.7499999972 1245163.3750000016 524.53312672839047
v 2686541.7500000019 1245163.8749999993 524.53306609907702
v 2686536.7499999981 1245166.2499999951 524.53272622030227
v 2686532.7500000033 1245168.1250000065 524.53244695760895
v 2686531.7499999944 1245168.4999999981 524.53234956962399
v 2686531.4999999953 1245168.4999999981 524.53229763377601
v 2686515.2500000028 1245166.4999999939 524.52833350612912
v 2686509.7500000014 1245156.1249999946 524.52413835989125
v 2686510.2499999991 1245155.750000003 524.52413188941227
v 2686511.2499999949 1245155.2500000054 524.52419250549372
v 2686514.7500000051 1245153.6250000061 524.52444145353036
v 2686535.5000000037 1245147.2500000019 521.7068488718968
v 2686541.2500000042 1245159.2500000005 521.7068488718968
v 2686542.0000000009 1245160.8749999995 521.7068488718968
v 2686542.7499999972 1245162.6250000049 521.7068488718968
v 2686542.7499999972 1245163.3750000016 521.7068488718968
v 2686541.7500000019 1245163.8749999993 521.7068488718968
v 2686536.7499999981 1245166.2499999951 521.7068488718968
v 2686532.7500000033 1245168.1250000065 521.7068488718968
v 2686531.7499999944 1245168.4999999981 521.7068488718968
v 2686531.4999999953 1245168.4999999981 521.7068488718968
v 2686515.2500000028 1245166.4999999939 521.7068488718968
v 2686509.7500000014 1245156.1249999946 521.7068488718968
v 2686510.2499999991 1245155.750000003 521.7068488718968
v 2686511.2499999949 1245155.2500000054 521.7068488718968
v 2686514.7500000051 1245153.6250000061 521.7068488718968
l 1 2
l 2 3
l 3 4
l 4 5
l 5 6
l 6 7
l 7 8
l 8 9
l 9 10
l 10 11
l 11 12
l 12 13
l 13 14
l 14 15
l 1 15
l 1 16
l 16 17
l 17 18
l 18 19
l 4 19
l 19 20
l 5 20
l 20 21
l 21 22
l 22 23
l 23 24
l 9 24
l 24 25
l 25 26
l 11 26
l 26 27
l 12 27
l 27 28
l 13 28
l 28 29
l 29 30
l 16 30
