# Source coordinates; no display transform
v 2684342.90884 1252622.13122 429.460005552
v 2684354.26412 1252642.31837 429.458341836
v 2684347.58962 1252646.07277 429.448017199
v 2684336.23435 1252625.88562 429.449680906
v 2684342.90884 1252622.13122 426.176742977
v 2684354.26412 1252642.31837 426.176742977
v 2684347.58962 1252646.07277 426.176742977
v 2684336.23435 1252625.88562 426.176742977
g roof
f 1 2 3 4
g wall
f 2 1 5 6
g wall
f 3 2 6 7
g wall
f 4 3 7 8
g wall
f 1 4 8 5
g ground_assumed
f 8 7 6 5
