# Source coordinates; no display transform
v 2679914.22847 1246971.66537 450.952864563
v 2679894.12707 1246960.94462 450.977489968
v 2679904.47411 1246941.54391 451.150464704
v 2679924.57552 1246952.26466 451.125839288
v 2679914.22847 1246971.66537 447.444636958
v 2679894.12707 1246960.94462 447.444636958
v 2679904.47411 1246941.54391 447.444636958
v 2679924.57552 1246952.26466 447.444636958
g roof
f 1 2 3 4
g wall
f 2 1 5 6
g wall
f 3 2 6 7
g wall
f 4 3 7 8
g wall
f 1 4 8 5
g ground_assumed
f 8 7 6 5
