# XYZ-only planar convex-roof baseline. Provisional base; no GT.
v 5.00854720 -9.13792354 2.26087574
v 9.33365184 7.05768727 2.25637345
v 2.20779845 8.96067580 7.50546924
v -2.10064400 -7.23938472 7.49769771
v -4.92493055 10.86550048 2.24002292
v -9.25003518 -5.33011033 2.21995121
v 5.00854720 -9.13792354 -7.51516906
v 9.33365184 7.05768727 -7.51516906
v 2.20779845 8.96067580 -7.51516906
v -4.92493055 10.86550048 -7.51516906
v -9.25003518 -5.33011033 -7.51516906
v -2.10064400 -7.23938472 -7.51516906
g roof
f 1 2 3 4
g roof
f 3 5 6 4
g wall
f 2 1 7 8
g wall
f 3 2 8 9
g wall
f 1 4 12 7
g wall
f 5 3 9 10
g wall
f 6 5 10 11
g wall
f 4 6 11 12
g ground_assumed
f 12 11 10 9 8 7
