# Source coordinates; no display transform
v 2684017.51018 1251590.02212 434.124496573
v 2684027.04135 1251575.51817 434.067626073
v 2684037.22347 1251582.20928 439.152103764
v 2684027.69231 1251596.71323 439.208974264
v 2684017.51018 1251590.02212 434.02959839
v 2684027.04135 1251575.51817 434.02959839
v 2684037.22347 1251582.20928 434.02959839
v 2684027.69231 1251596.71323 434.02959839
g roof
f 1 2 3 4
g wall
f 2 1 5 6
g wall
f 3 2 6 7
g wall
f 4 3 7 8
g wall
f 1 4 8 5
g ground_assumed
f 8 7 6 5
