v 2682087.5698000011 1251986.8400999976 455.38656622255911
v 2682091.0396000012 1251993.7796999977 455.39489284961422
v 2682082.5999999992 1251997.9995000013 455.39474172649062
v 2682079.1301999991 1251991.0599000014 455.38641509943551
v 2682087.5698000011 1251986.8400999976 448.1080094614374
v 2682091.0396000012 1251993.7796999977 448.1080094614374
v 2682082.5999999992 1251997.9995000013 448.1080094614374
v 2682079.1301999991 1251991.0599000014 448.1080094614374
l 1 2
l 2 3
l 3 4
l 1 4
l 1 5
l 5 6
l 2 6
l 6 7
l 3 7
l 7 8
l 4 8
l 5 8
