# Source coordinates; no display transform
v 0.159236284271 -0.501469466471 0.0636549908669
v 0.162536228145 -0.0254334671355 0.0637218390919
v 0.16251588967 0.0796766155704 0.0637363226541
v 0.162404027166 0.377271571529 0.0637773095407
v 0.162343011028 0.495388213684 0.0637935714042
v 0.162337926498 0.500259317503 0.0637942412097
v 0.157975288478 0.501027101087 0.0637927353957
v 0.121762342867 0.501449128099 0.0637794181082
v 0.0554024509478 0.501596583024 0.0637549281234
v -0.0845477194273 0.501906747175 0.0637032796316
v -0.133467229394 0.501977932729 0.0636852205638
v -0.158148166942 0.501815223502 0.0636760818922
v -0.162800630639 0.105298215345 0.0636196973266
v -0.164463314257 -0.360431179301 0.0635548749243
v -0.164463314257 -0.365902272948 0.0635541205906
v -0.16445822937 -0.382035897628 0.0635518982489
v -0.16442263695 -0.462866730966 0.0635407676373
v -0.164407383005 -0.495342451744 0.0635362958477
v -0.164402298118 -0.498393247605 0.0635358771301
v -0.162546397383 -0.499710174294 0.0635363810892
v -0.156165149757 -0.500838968752 0.0635385823881
v 0.122194538939 -0.501484720773 0.0636413072907
v 0.159236284271 -0.501469466471 -0.0622080184257
v 0.162536228145 -0.0254334671355 -0.0622080184257
v 0.16251588967 0.0796766155704 -0.0622080184257
v 0.162404027166 0.377271571529 -0.0622080184257
v 0.162343011028 0.495388213684 -0.0622080184257
v 0.162337926498 0.500259317503 -0.0622080184257
v 0.157975288478 0.501027101087 -0.0622080184257
v 0.121762342867 0.501449128099 -0.0622080184257
v 0.0554024509478 0.501596583024 -0.0622080184257
v -0.0845477194273 0.501906747175 -0.0622080184257
v -0.133467229394 0.501977932729 -0.0622080184257
v -0.158148166942 0.501815223502 -0.0622080184257
v -0.162800630639 0.105298215345 -0.0622080184257
v -0.164463314257 -0.360431179301 -0.0622080184257
v -0.164463314257 -0.365902272948 -0.0622080184257
v -0.16445822937 -0.382035897628 -0.0622080184257
v -0.16442263695 -0.462866730966 -0.0622080184257
v -0.164407383005 -0.495342451744 -0.0622080184257
v -0.164402298118 -0.498393247605 -0.0622080184257
v -0.162546397383 -0.499710174294 -0.0622080184257
v -0.156165149757 -0.500838968752 -0.0622080184257
v 0.122194538939 -0.501484720773 -0.0622080184257
g roof
f 1 2 3 4 5 6 7 8 9 10 11 12 13 14 15 16 17 18 19 20 21 22
g wall
f 2 1 23 24
g wall
f 3 2 24 25
g wall
f 4 3 25 26
g wall
f 5 4 26 27
g wall
f 6 5 27 28
g wall
f 7 6 28 29
g wall
f 8 7 29 30
g wall
f 9 8 30 31
g wall
f 10 9 31 32
g wall
f 11 10 32 33
g wall
f 12 11 33 34
g wall
f 13 12 34 35
g wall
f 14 13 35 36
g wall
f 15 14 36 37
g wall
f 16 15 37 38
g wall
f 17 16 38 39
g wall
f 18 17 39 40
g wall
f 19 18 40 41
g wall
f 20 19 41 42
g wall
f 21 20 42 43
g wall
f 22 21 43 44
g wall
f 1 22 44 23
g ground_assumed
f 44 43 42 41 40 39 38 37 36 35 34 33 32 31 30 29 28 27 26 25 24 23
