# XYZ-only planar convex-roof baseline. Provisional base; no GT.
v 4.49175276 -14.06924969 1.70043173
v 4.58427656 -0.72215614 1.70230602
v 4.58370631 2.22491952 1.70271211
v 4.58056991 10.56888452 1.70386130
v 4.57885914 13.88063799 1.70431725
v 4.57871658 14.01721396 1.70433603
v 4.45639697 14.03874107 1.70429381
v 3.44105869 14.05057386 1.70392042
v 1.58046057 14.05470820 1.70323377
v -2.34346119 14.06340458 1.70178565
v -3.71506602 14.06540048 1.70127931
v -4.40706995 14.06083844 1.70102308
v -4.53751569 2.94329773 1.69944217
v -4.58413400 -10.11481932 1.69762468
v -4.58413400 -10.26821780 1.69760353
v -4.58399143 -10.72057224 1.69754122
v -4.58299349 -12.98690650 1.69722914
v -4.58256580 -13.89746050 1.69710376
v -4.58242323 -13.98299869 1.69709202
v -4.53038750 -14.01992267 1.69710615
v -4.35147013 -14.05157180 1.69716787
v 3.45317660 -14.06967739 1.70004807
v 4.49175276 -14.06924969 -1.82851432
v 4.58427656 -0.72215614 -1.82851432
v 4.58370631 2.22491952 -1.82851432
v 4.58056991 10.56888452 -1.82851432
v 4.57885914 13.88063799 -1.82851432
v 4.57871658 14.01721396 -1.82851432
v 4.45639697 14.03874107 -1.82851432
v 3.44105869 14.05057386 -1.82851432
v 1.58046057 14.05470820 -1.82851432
v -2.34346119 14.06340458 -1.82851432
v -3.71506602 14.06540048 -1.82851432
v -4.40706995 14.06083844 -1.82851432
v -4.53751569 2.94329773 -1.82851432
v -4.58413400 -10.11481932 -1.82851432
v -4.58413400 -10.26821780 -1.82851432
v -4.58399143 -10.72057224 -1.82851432
v -4.58299349 -12.98690650 -1.82851432
v -4.58256580 -13.89746050 -1.82851432
v -4.58242323 -13.98299869 -1.82851432
v -4.53038750 -14.01992267 -1.82851432
v -4.35147013 -14.05157180 -1.82851432
v 3.45317660 -14.06967739 -1.82851432
g roof
f 1 2 3 4 5 6 7 8 9 10 11 12 13 14 15 16 17 18 19 20 21 22
g wall
f 2 1 23 24
g wall
f 3 2 24 25
g wall
f 4 3 25 26
g wall
f 5 4 26 27
g wall
f 6 5 27 28
g wall
f 7 6 28 29
g wall
f 8 7 29 30
g wall
f 9 8 30 31
g wall
f 10 9 31 32
g wall
f 11 10 32 33
g wall
f 12 11 33 34
g wall
f 13 12 34 35
g wall
f 14 13 35 36
g wall
f 15 14 36 37
g wall
f 16 15 37 38
g wall
f 17 16 38 39
g wall
f 18 17 39 40
g wall
f 19 18 40 41
g wall
f 20 19 41 42
g wall
f 21 20 42 43
g wall
f 22 21 43 44
g wall
f 1 22 44 23
g ground_assumed
f 44 43 42 41 40 39 38 37 36 35 34 33 32 31 30 29 28 27 26 25 24 23
