v 0.15923628427131747 -0.50146946647083368 0.063654990866883365
v 0.16253622814526292 -0.025433467135540143 0.063721839091918392
v 0.16251588967025304 0.079676615570429946 0.063736322654069658
v 0.16240402716605151 0.37727157152949059 0.063777309540692328
v 0.16234301102770407 0.49538821368366032 0.063793571404227173
v 0.16233792649811635 0.50025931750267394 0.063794241209682134
v 0.15797528847759737 0.5010271010866626 0.063792735395714728
v 0.12176234286718933 0.50144912809887121 0.063779418108237423
v 0.055402450947830709 0.50159658302350474 0.06375492812337899
v -0.084547719427284715 0.50190674717485284 0.063703279631609974
v -0.13346722939371974 0.50197793272903457 0.063685220563768685
v -0.15814816694221701 0.50181522350232 0.063676081892218003
v -0.16280063063907418 0.10529821534546481 0.063619697326627755
v -0.16446331425667515 -0.36043117930120611 0.063554874924267965
v -0.16446331425667515 -0.36590227294790606 0.063554120590648577
v -0.1644582293704285 -0.38203589762750206 0.063551898248907474
v -0.16442263694999651 -0.46286673096551473 0.063540767637279089
v -0.16440738300457439 -0.49534245174434666 0.063536295847718846
v -0.16440229811832771 -0.49839324760529141 0.063535877130144774
v -0.16254639738316792 -0.49971017429445341 0.063536381089201122
v -0.15616514975743354 -0.50083896875230316 0.06353858238806584
v 0.12219453893857335 -0.50148472077291484 0.063641307290693477
v 0.15923628427131747 -0.50146946647083368 -0.062208018425659366
v 0.16253622814526292 -0.025433467135540143 -0.062208018425659366
v 0.16251588967025304 0.079676615570429946 -0.062208018425659366
v 0.16240402716605151 0.37727157152949059 -0.062208018425659366
v 0.16234301102770407 0.49538821368366032 -0.062208018425659366
v 0.16233792649811635 0.50025931750267394 -0.062208018425659366
v 0.15797528847759737 0.5010271010866626 -0.062208018425659366
v 0.12176234286718933 0.50144912809887121 -0.062208018425659366
v 0.055402450947830709 0.50159658302350474 -0.062208018425659366
v -0.084547719427284715 0.50190674717485284 -0.062208018425659366
v -0.13346722939371974 0.50197793272903457 -0.062208018425659366
v -0.15814816694221701 0.50181522350232 -0.062208018425659366
v -0.16280063063907418 0.10529821534546481 -0.062208018425659366
v -0.16446331425667515 -0.36043117930120611 -0.062208018425659366
v -0.16446331425667515 -0.36590227294790606 -0.062208018425659366
v -0.1644582293704285 -0.38203589762750206 -0.062208018425659366
v -0.16442263694999651 -0.46286673096551473 -0.062208018425659366
v -0.16440738300457439 -0.49534245174434666 -0.062208018425659366
v -0.16440229811832771 -0.49839324760529141 -0.062208018425659366
v -0.16254639738316792 -0.49971017429445341 -0.062208018425659366
v -0.15616514975743354 -0.50083896875230316 -0.062208018425659366
v 0.12219453893857335 -0.50148472077291484 -0.062208018425659366
l 1 2
l 2 3
l 3 4
l 4 5
l 5 6
l 6 7
l 7 8
l 8 9
l 9 10
l 10 11
l 11 12
l 12 13
l 13 14
l 14 15
l 15 16
l 16 17
l 17 18
l 18 19
l 19 20
l 20 21
l 21 22
l 1 22
l 1 23
l 23 24
l 24 25
l 25 26
l 26 27
l 27 28
l 6 28
l 28 29
l 29 30
l 30 31
l 31 32
l 32 33
l 33 34
l 12 34
l 34 35
l 35 36
l 36 37
l 37 38
l 38 39
l 39 40
l 40 41
l 19 41
l 41 42
l 20 42
l 42 43
l 43 44
l 23 44
