# XYZ-only planar convex-roof baseline. Provisional base; no GT.
v 9.83335235 -3.37126641 -0.01804623
v 3.65607023 6.96399251 5.46024919
v -7.48249753 0.36786403 5.43447777
v -1.27822781 -10.01254806 -0.06775149
v 1.29999464 10.90596096 3.42118388
v -9.81158551 4.26467931 3.41876888
v 9.83335235 -3.37126641 -5.46289719
v 3.65607023 6.96399251 -5.46289719
v 1.29999464 10.90596096 -5.46289719
v -9.81158551 4.26467931 -5.46289719
v -7.48249753 0.36786403 -5.46289719
v -1.27822781 -10.01254806 -5.46289719
g roof
f 1 2 3 4
g roof
f 2 5 6 3
g wall
f 2 1 7 8
g wall
f 4 3 11 12
g wall
f 1 4 12 7
g wall
f 5 2 8 9
g wall
f 6 5 9 10
g wall
f 3 6 10 11
g ground_assumed
f 12 11 10 9 8 7
