v -0.13702364211603421 -0.35659848238779901 0.15709828930453909
v -0.15588082081966731 -0.34659051057064444 0.15718273402111305
v -0.20339716855428605 -0.39717502933184518 0.15753124140570279
v -0.20097111707022133 -0.41979465443759917 0.15755857202843801
v -0.18969887710914182 -0.4255581960243332 0.15750770164764269
v -0.18179330869736837 -0.42471029004737287 0.15746326908814925
v -0.1766199256860691 -0.41969628952122118 0.15742620856994352
v -0.16859067986439674 -0.42329425164428824 0.15738906489630922
v -0.14938471594422653 -0.4212343298659707 0.15728111948957302
v -0.14189732443878814 -0.38604344531022078 0.15717746629518992
v -0.13462183091295396 -0.37899209956254881 0.15712534687818477
v -0.13655738986470212 -0.36094564958752712 0.15710354187685335
v -0.13667569361548101 -0.35984262820147905 0.15710220911695458
v -0.41344469424183916 -0.28465347352183479 0.15846998952670036
v -0.43950623150087487 -0.28744868481780217 0.15861646606202659
v -0.43901233508916937 -0.29205359600949393 0.15862203004100281
v -0.40012486943425091 -0.31670161836751465 0.15845506630005521
v -0.3537319450048968 -0.29588516574047091 0.15816595661080354
v -0.31705285937682021 -0.36254335546765121 0.15808619942635371
v -0.2918556765321213 -0.32032027837872118 0.15787381984611806
v -0.28788084979208439 -0.31365963632866073 0.15784031720585134
v -0.276575064239728 -0.31868136737365954 0.15778793653115852
v -0.26224121348611484 -0.31714400060682368 0.15770737435859328
v -0.26658780499077156 -0.27661795699475322 0.15765840793404054
v -0.28788087526908929 -0.29816193604034053 0.15781256891177203
v -0.30225381774011012 -0.28431533381022828 0.15786579842533588
v -0.33031639643580263 -0.28732516538427555 0.15802352168502395
v -0.33355550850475135 -0.25712485823205034 0.15798703155812652
v -0.32960981235205139 -0.25288256783326529 0.15795801703796236
v -0.33254648462294428 -0.22550209990624839 0.15792493405795083
v -0.33182325865652862 -0.22494371627025078 0.15792000833003758
v -0.30138355379716014 -0.20144216149990021 0.15771269100225999
v -0.28793910348466401 -0.16799985892580144 0.15757983149985064
v -0.30138451737726324 -0.16368864105855471 0.1576450990402887
v -0.31263119703596198 -0.18387410465820503 0.15774229206179688
v -0.37888701777007933 -0.18163121872748023 0.15809793755383769
v -0.39538758427124854 -0.19232615695578262 0.15820665792560171
v -0.3967463017810885 -0.19162894116451065 0.1582127851926321
v -0.39734265188432627 -0.19359334538955408 0.15821953967700397
v -0.42152984925602621 -0.20927041809349772 0.15837890639292737
v -0.41645786832315962 -0.25655973019830175 0.15843604468518521
v -0.41435716903580433 -0.27614588907247284 0.15845971007613374
v -0.11583331946190546 -0.18862395382037397 0.15668250415858664
v -0.10342295615316163 -0.19882728766766519 0.15663340499789133
v -0.098470790448847184 -0.18556266035388075 0.15658277267082013
v 0.13318117614181313 0.048689610584426161 0.15490585357344908
v 0.14785658052568779 0.050263610442988001 0.15482337177012714
v 0.14923309888513944 0.051737254058903254 0.15481326099816908
v 0.1493737012660582 0.050426328142734504 0.15481484492913461
v 0.18253094523145749 0.053982584361446387 0.15462848759957468
v 0.17260917826990044 0.14648954392975011 0.15451671415446663
v 0.16190439748851668 0.16228214287003467 0.15454654725363914
v 0.16377837383130503 0.14480986640201718 0.15456765850381515
v 0.14542417721705153 0.14284130028565684 0.15467081664873897
v 0.1220779401656934 0.14033731653784368 0.15480203207929763
v 0.12416074166769539 0.13896521408207738 0.15479318260850158
v 0.13211560505320358 0.064796951211855025 0.15488279792583687
v 0.11680043291955079 0.030830144730110719 0.15502675152735387
v 0.11062571236305083 0.030167879553786577 0.15506145599086787
v 0.11155554893081109 0.021498420371525689 0.15507193101769881
v 0.073038305071645895 -0.0020215453232580007 0.15532312921889746
v 0.066332200442885098 0.060503743882282454 0.1552475817543425
v 0.060098148914281016 0.059835115184694893 0.15528261969196139
v 0.058058427417472129 0.078852739209716666 0.15525964123304428
v 0.051311149533707384 0.078129064791189015 0.15529756375481871
v 0.035834213477920415 0.22243040763049862 0.15512320865173207
v 0.049636684658000405 0.21616668216297005 0.15505949880757422
v 0.046855107395404876 0.24210110053282585 0.15502816303866365
v 0.0029813216486594572 0.23739544938069829 0.15527475174882388
v -0.0053088650555395776 0.31469014558869729 0.15518135882622119
v -0.034750212516308721 0.31258975576644787 0.15534493819805123
v -0.038138806507414851 0.34418377835113356 0.15530676407901478
v -0.0088095715537518625 0.34732946420689514 0.15514192170124172
v -0.010140768831325865 0.35974106532870731 0.15512692512165871
v 0.03373301691541955 0.36444671648083488 0.15488033641149854
v 0.028965754978090695 0.40889493898118329 0.15482663093255158
v 0.016968501682431129 0.4076081822661024 0.15489406041942294
v -0.068608452198643741 0.39842968802747003 0.15537503809544961
v -0.15080470437223423 0.38961378848912398 0.15583701485075338
v -0.14763780824693376 0.36008679661950987 0.15587269141827542
v -0.10696580123861692 0.36444904327011945 0.15564409804482551
v -0.14313971479670423 0.31814820358072859 0.15592336461273551
v -0.15895610935426335 0.31645182762842822 0.15601225923390466
v -0.14008752812822739 0.28969072108060034 0.1559577489089074
v -0.12790972692309249 0.17614931636094242 0.1560949376553015
v -0.042384566514367325 0.18532225552334383 0.15561425111798494
v -0.036768388564692868 0.13295904759041929 0.15567752003948013
v -0.12229354897341807 0.12378610842801788 0.15615820657679669
v -0.10456731364815376 -0.041486885138527996 0.15635790107105998
v -0.092381720457345759 -0.040179928141938423 0.15628941300990007
v -0.086342775762634272 -0.096484859993131764 0.15635744461594825
v -0.082573019638442116 -0.13163269953905402 0.15639991269947381
v -0.090964170955328216 -0.14435400680378802 0.15646824036915502
v -0.093395480268115227 -0.14564901091784313 0.15648375709636195
v -0.091202615737249637 -0.16609448515785652 0.15650846074629216
v -0.089961313834644577 -0.18406230258298048 0.15653389366364848
v -0.089964303878446755 -0.17764005611296768 0.15652241092182873
v -0.089970777121309284 -0.16373627505469387 0.1564975515212125
v -0.089976513141101042 -0.15141588298367328 0.15647552319357061
v -0.0068737576425347245 -0.1496753264479817 0.15602129391021391
v -0.019572002914082825 -0.19136272895707876 0.15616486549872272
v 0.01705351858980441 -0.16268292937680304 0.15591469764821608
v 0.078947335604604124 -0.21653036354309663 0.15567512799496738
v 0.095174684527032927 -0.20841312455056182 0.15557250609837689
v 0.12511165723685783 -0.19343806209766676 0.15538318434408474
v 0.12784100375077814 -0.1513005773744063 0.15529292182558627
v 0.14496526447410313 -0.13533787088759708 0.15517138391583751
v 0.12510000406429347 -0.15176601715552865 0.15530863436583264
v 0.10747042693285486 -0.1459800452916778 0.15539397461333487
v 0.10884304745262388 -0.1517474602355452 0.15539684996326003
v 0.097999019733278375 -0.14287156045648902 0.15543982323022079
v 0.087785552052130636 -0.13951953112909388 0.15548926401008573
v 0.061849564336657822 -0.13100742143328767 0.15561481341158351
v 0.028535382542059388 -0.14486786037629021 0.15582047217687192
v 0.018789506880686618 -0.13758325091291926 0.15586033341347921
v 0.015504200834635169 -0.13793561403857207 0.15587879818057881
v 0.015176784384914564 -0.13488290163457803 0.15587510969747351
v -0.00079140051033586281 -0.12294739176555225 0.1559404206151169
v 0.011585914861116943 -0.10140293585483635 0.15583465685450554
v 0.010995502225958692 -0.095898142518137747 0.15582800555673895
v 0.014994856171092696 -0.09546919471075889 0.15580552754575427
v 0.025812553311177346 -0.076639473446625098 0.15571309067380526
v 0.019419413372147479 -0.077325165060428122 0.15574902276905661
v 0.016916559610004604 -0.066829990085889177 0.15574381769383511
v 0.00073311419670011105 -0.068565733835408482 0.15583477533678478
v -0.0068869257971443274 -0.10798915602199458 0.15594672688415187
v -0.033389204775265455 -0.10415192987502737 0.15608372062254197
v -0.043999246709450074 -0.10261571861822172 0.15613856532138962
v -0.047785831626600876 -0.073769598236209072 0.15610747172609057
v -0.04889804457616486 -0.073888887823954044 0.15611372282651831
v -0.051179661521051516 0.0099512012720314614 0.15597599371190349
v -0.002423974986499849 0.015180457107184121 0.15570196674103018
v -0.0016591854649422293 0.016133213981887481 0.15569610925559244
v 0.028464746788329512 0.053660902747641841 0.15546539248270175
v 0.0466600197402985 -0.0026782738444568899 0.15546749627716108
v 0.046339663025458132 -0.0034503721409852757 0.15547061773116505
v 0.046763892993495183 -0.0038492709102654413 0.15546902906469673
v 0.047090411070985841 -0.0075301128556620172 0.15547384710727707
v 0.04796018105364213 -0.017335118088206217 0.15548668140894162
v 0.048132675056786263 -0.019279659767798288 0.15548922674167892
v 0.029722951783931632 -0.05272109086732283 0.15564903802660213
v 0.061677277417049689 -0.049293852805885663 0.15546944157434278
v 0.076062153970659019 -0.030214816460583556 0.1553571943421829
v 0.083563137458204678 -0.02026606674632455 0.15529866305443107
v 0.095365259958327661 -0.019000238633077982 0.15523233031000058
v 0.078870533231815879 -0.020031155975408169 0.15532371566356015
v 0.094629876535658033 -0.01834089900300833 0.15523514168328337
v 0.11175488707849116 0.019639863725492607 0.155074176687821
v 0.11413045786628326 -0.0025090976292614529 0.15510093862402893
v 0.13123460833000711 0.014351595096666758 0.15497790202236444
v 0.13991397844600931 0.0070327436863370889 0.15494389149942592
v 0.14332085948079618 0.0099803291127768534 0.15492012003321545
v 0.13740101097589666 0.0093454000523711337 0.15495339205449743
v 0.15461537960355476 0.14382709605284094 0.15461915828028322
v -0.10436754248610065 0.3402238202847499 0.15567336866097933
v -0.1024677077883874 0.32251045023133817 0.15569477119193056
v -0.023995990576219806 -0.13519487826165663 0.15608831273428531
v 0.098407998304328517 -0.14668472826048812 0.15544443059028301
v -0.057813935391959163 0.0092396469939960129 0.15601328106069173
v 0.042551994625274217 0.043631889671042215 0.15540687843217998
v 0.13604951785436808 0.021946231912112254 0.15493816679748579
v 0.13454125226739705 0.036008753605488629 0.15492117548207218
v -0.081319551755678052 -0.14331958012242221 0.15641403363724016
v -0.055816145067372092 -0.0093870262348798791 0.15603578715320784
v -0.13292387647551623 -0.17457274083909069 0.15675011956129661
v -0.15142356568233101 -0.17655691162094439 0.15685409543283829
v -0.093505144946486041 -0.1446265371190118 0.15648252169840007
v -0.12395971099741339 -0.14789291957510053 0.1566536888610239
v -0.13015379483530798 -0.090141526793620697 0.15658390957032448
v -0.13609943776584507 -0.089280665901740289 0.15661464336212327
v -0.15159809637786026 -0.071420810694387341 0.15666679805862405
v -0.16593475244331271 -0.10578082022474861 0.15680614392123859
v -0.15998001578474683 -0.16130062645865628 0.15687322686401745
v -0.17880640320757757 -0.16331983702497491 0.15697903887940201
v -0.16941592897043295 -0.18140618152718829 0.15696044724818328
v -0.18092258417941931 -0.2001002393503693 0.15705638114686074
v -0.41992562561931357 -0.11876494311019975 0.15820814918277812
v -0.44891338379992501 -0.086239765072878158 0.15830726969597761
v -0.45833590612030645 -0.11188762277991178 0.15840434082564459
v -0.45652697261834985 -0.12875346313941291 0.15842471930412241
v -0.44892551933080121 -0.13483927240577398 0.15839435232436797
v -0.20297419429951774 0.16536019400223501 0.1565217334134478
v -0.26464956920137428 0.13257878629202463 0.15691522509095843
v -0.27091460630845926 0.11856661724692605 0.15697432265013114
v -0.24402055568214256 0.10969210605934628 0.15684422138866355
v -0.23830640643108017 0.05641544947631251 0.15690859401378868
v -0.33455047627782497 0.0049958487637748669 0.15752310893738072
v -0.36293330315063438 0.0019516692148618588 0.15768263206696051
v -0.35861802207994842 -0.0382824474626507 0.15773124579126718
v -0.35197796862262354 -0.035582134126775453 0.15769036618478985
v -0.31691118468865487 -0.021321510346651269 0.1574744771234535
v -0.28798020556506138 -0.037597811865964753 0.15734657147784387
v -0.226794133163676 -0.018638134104682947 0.15698048353923116
v -0.19868562297979914 0.064184555331041213 0.15667960712005879
v -0.13279252205795136 0.048138672247944089 0.15635064467074983
v -0.13595941823060687 0.077665664117558195 0.15631496810322779
v -0.19865880918983594 0.11540033858383135 0.15658776038646463
v -0.16504837931440464 0.14044194373043592 0.15636047372764827
v -0.17185687777794267 0.20392191578701016 0.15628377274197428
v -0.20357802981197942 0.20051968662601155 0.1564620586438428
v -0.20171455558309784 0.18314532842175105 0.15648305160115972
v -0.2048457068549264 0.18280949906723448 0.15650064996067303
v -0.30231138947293623 0.0084536286870836898 0.15734191197989614
v -0.23100386788068264 0.020611906456120349 0.15693305889966935
v -0.35461789719496389 0.26057023779114807 0.15717443978801643
v -0.39572695994907731 0.25616111501426214 0.15740548960881673
v -0.40853937416716324 0.2443873846945297 0.1574961209282707
v -0.43351482216177989 0.22143666024384309 0.15767278994007441
v -0.36949358251776454 0.20272771561003322 0.15735875687356418
v -0.36480964667654597 0.15905639524228524 0.1574115236337976
v -0.31755045071191484 0.16412514608871434 0.15714590753145405
v -0.30151546719347166 0.18393832060887844 0.15702338837817692
v -0.34967466520603974 0.21852221992721116 0.157222892505229
v -0.3380281215405318 0.23045143915436112 0.15713831159559549
v -0.31364114173628216 0.25543032019906381 0.15696120559159643
v -0.31601063256471651 0.27752259351316311 0.15693451217811355
v -0.26425011240044805 0.28307413061883568 0.15664359674694672
v -0.26882544966703376 0.3257329173869008 0.15659205340385318
v -0.27183278591525295 0.35377223036807831 0.1565581743384715
v -0.30168937266057061 0.35056998376197634 0.15672598062007143
v -0.31271250173536114 0.31302477965007214 0.15685304249379803
v -0.35412816456877644 0.33651102420849144 0.15703581035961553
v -0.31678356591980289 0.30400106053652509 0.15689129858438736
v -0.32476830417161795 0.29548986000989513 0.15694988191531462
v -0.33694843855896617 0.28250664558329486 0.15703924653513338
v -0.34070529754137208 0.28496238966416493 0.15705524315819078
v -0.38292119115673456 0.31255762561694811 0.15723499791830761
v -0.36438729267793013 0.30044258393527579 0.15715608081204865
v -0.35838017207717454 0.30306401672297345 0.1571187782622965
v -0.36268686806018396 0.34321808896043826 0.15707026128431137
v -0.39031633521033465 0.34025471044285005 0.15722555025880203
v -0.3850779021602394 0.29141345915061001 0.15728456371544561
v -0.38085121652165771 0.29325793222199353 0.15725831719135885
v 0.061737490708029377 -0.31655371294158346 0.15594763998379543
v 0.07896117691093206 -0.31470639890002483 0.15585083579441944
v 0.012939863767025502 -0.24915210487476847 0.15609185006014231
v -0.0068291884164314049 -0.27491427577175415 0.15624529067319287
v 0.034535264690060311 -0.32931569088241275 0.15611815397852258
v 0.053467929912327759 -0.32728508158209341 0.15601174462681897
v 0.053887753495040006 -0.33119936444570247 0.15601647411549757
v 0.14889330866139841 -0.015654745625442234 0.15493576997011524
v 0.15419260599203871 -0.019953814181499718 0.15491470081855882
v 0.16991710115721292 -0.018267294799368883 0.15482632269867647
v 0.11187062830665771 -0.017229967291073019 0.15513956332615364
v 0.011555457054419408 -0.012574716568446139 0.15567577642736127
v 0.012829669185895044 -0.0059823885498188805 0.15565705603782232
v 0.010460549478812543 -0.0023661950252285846 0.1556634417685937
v 0.10934673868354287 0.16003314136897134 0.15483587667021917
v 0.083157529712734227 0.16597720188390375 0.15496739872458201
v 0.11065187194330676 0.14786455161646403 0.15485057964863064
v 0.10347508528450539 0.26141669664581785 0.15468622431731721
v 0.13133350319649978 0.26915987041384359 0.15452113432010448
v 0.11149200037787749 0.28499786573049979 0.15460048373041105
v 0.058872256195615057 0.24901945792505817 0.15495054222893218
v 0.084092619326359003 0.25602939132219155 0.15480108545229448
v 0.090719362706056322 0.27531502576711092 0.15473058233999712
v 0.088766981259568223 0.29351832283909868 0.15470858782384497
v 0.052974789570994038 0.30400529933240694 0.15488410445105033
v 0.22697748378702193 -0.36042083256843865 0.15512919901537744
v 0.22635965382207282 -0.3546604099258921 0.15512223886812038
v 0.22147454548882228 -0.35727332733251393 0.15515343546060462
v 0.20323915255237482 -0.30645405255662722 0.15516143277767774
v 0.16175036162276826 -0.31090390283564157 0.15539461684222014
v 0.14488214318848752 -0.33030160309560991 0.15552091516348057
v 0.21086048164478249 -0.36295051011245555 0.15522121750565698
v 0.19708697710893375 -0.34332442086333675 0.15526084499784767
v 0.21694537255509194 -0.33022611184147277 0.15512959381424316
v 0.21523820642825153 -0.33040921270784485 0.1551391887952398
v 0.3996312603320562 -0.25591404245444938 0.15400485176616799
v 0.42389992331553927 -0.25331112458282562 0.15386845190717988
v 0.41462660290703662 -0.24178584966108913 0.15389815511151145
v 0.39220316106230929 -0.21391704750185186 0.15396997919230573
v 0.39186184600667723 -0.21349284670451185 0.1539710724778296
v 0.3718695628383939 -0.21563710456696994 0.15408343729252319
v 0.35852650859024188 -0.25513140098720527 0.15422658240165274
v 0.3719859760817581 -0.28168750700462936 0.15420106774951867
v 0.40077146493318666 -0.26654489716007063 0.1540176967227137
v 0.2001066242436966 -0.1138831573004007 0.15483364165497818
v 0.20284226168362293 -0.11358974848496192 0.15481826623517381
v 0.20202667608130842 -0.105985523981194 0.15480907827063997
v 0.19961623073074294 -0.10531442538742818 0.15482096149392874
v 0.19784526918920969 -0.08880262205909796 0.15480101077341585
v 0.19704482450460253 -0.088888473172638691 0.15480550959575465
v 0.18978932540797175 -0.10257849017908786 0.15486940691846704
v 0.16623385163485452 -0.096020347234031106 0.15498553257474823
v 0.16050573279269417 -0.10682872471524997 0.15503597922275594
v 0.18646159418204983 -0.14305105149645675 0.1549599367087417
v 0.1882786822197714 -0.14285616107504065 0.15494972393405401
v 0.19382050875082477 -0.15332067826260018 0.15493837738529384
v 0.1632856890453375 -0.14553676643227484 0.15509019481006095
v 0.16957857578626098 -0.20420936191815986 0.15516108718068577
v 0.19428491860745031 -0.20155950100760567 0.15502222737007526
v 0.19714193654901341 -0.20871140269407595 0.15501952377683545
v 0.20095127072674737 -0.20084450619738983 0.15498475974069664
v 0.20976089903877887 -0.19989963592370488 0.15493524598673405
v 0.2061708073686658 -0.16642692256645106 0.15489480190444621
v 0.20574704252171053 -0.16647237316432939 0.15489718362556293
v 0.38902490470264567 -0.048275556478175358 0.15369065305177096
v 0.39162640722720232 -0.15232741375516184 0.15386283460644248
v 0.42482602769150363 -0.14876661249560413 0.15367623908109335
v 0.44230569249093843 -0.089225529022371936 0.15347474542726375
v 0.1739256496492296 -0.021647490660447691 0.15481061498864293
v 0.17156934312346928 -0.019660544116292009 0.15481984831929327
v 0.17325984378484152 -0.035422159798491996 0.1548388926172215
v 0.19080551050648342 -0.049656126912634782 0.15476913392595912
v 0.19170497142851914 -0.050385813620185627 0.15476555776897946
v 0.19424394211258633 -0.055225153413902037 0.154760440063784
v 0.19391740746083599 -0.052180662695102201 0.15475676152523452
v 0.19723513721020375 -0.054872178082451505 0.15474357078227671
v 0.21180323046058286 -0.053309687768655092 0.15466169209258718
v 0.21008469316036785 -0.037286668592663122 0.15464233193662438
v 0.19082298081800189 -0.023329350213145632 0.1547219013110345
v 0.17873847228487613 -0.014572738648538631 0.15477182193939482
v 0.41417090902738424 0.079927135996898394 0.15332460593319211
v 0.37341451621214783 0.075555838569270117 0.15355367361459918
v 0.37802573111570315 0.032562541947179544 0.15360562113285389
v 0.41157939964489682 0.027893334703442386 0.15343183945179731
v 0.41181978053712459 0.13248828647748251 0.15324325866162314
v 0.41631764829329221 0.12303058926874226 0.15323577642518599
v 0.41669922250982899 0.13069205373601242 0.15321998735921491
v 0.24161454328963036 0.10595538271883628 0.15421470310883126
v 0.24266697695704328 0.096142872566796711 0.15422655929239923
v 0.24433849379285763 0.09632214989352457 0.15421716467052465
v 0.23736435317248425 0.16134650933656206 0.15413859765998528
v 0.17765117963449392 0.1549420161243581 0.15447421027054015
v 0.20590075031182722 0.11600890448471718 0.15439057025795144
v 0.21104409943863667 0.10892042211931 0.15437534206492809
v 0.21690471210768267 0.10330514765620848 0.15435358252442324
v 0.23883924194149708 0.10565771976448665 0.15423030147610592
v 0.34380701246100792 0.13921474671224279 0.15360041373723601
v 0.38232503209023638 0.14334596906641203 0.15338392662925521
v 0.34304167428409965 0.15780705965394581 0.1535712789826566
v 0.32957283471170207 0.11220306453976502 0.15372604624680739
v 0.34650930258515827 0.11401957314136799 0.15363085634296966
v 0.2263314172503032 0.35022674273001386 0.15386030097039702
v 0.27710647597388299 0.30413105387588463 0.15366720871409162
v 0.31016804980810891 0.31976944855594241 0.15345973781395927
v 0.20323915255237482 -0.30645405255662722 0.16181942986002265
v 0.21523820642825153 -0.33040921270784485 0.16184714088569516
v 0.21694537255509194 -0.33022611184147277 0.16183865770603814
v 0.19708697710893375 -0.34332442086333675 0.1619752873316205
v 0.22147454349991111 -0.35727332714309379 0.1619114141126172
v 0.22635965382207282 -0.3546604099258921 0.16187991146458913
v 0.22697748378702193 -0.36042083256843865 0.16189700137317034
v 0.21086048164478249 -0.36295051011245555 0.16197986097490302
v 0.14488214318848752 -0.33030160309560991 0.16217027042682577
v 0.16175036162276826 -0.31090390283564157 0.16202559428229657
v 0.14281939706160957 -0.31293432972439433 0.16211966528154045
v 0.053887753495040006 -0.33119936444570247 0.16259177492360025
v 0.060127956441738573 -0.38938075517965481 0.16276438631985798
v -0.057951760163729882 -0.40204530971676633 0.16335114338365517
v -0.14938471594422653 -0.4212343298659707 0.16383795112655852
v 0.2574436497361075 -0.37760024797662239 0.16181635571369132
v 0.2500225783313072 -0.30840886767269737 0.16161108009793176
v 0.22329012195406056 -0.32604120735438524 0.16179500461030014
v 0.20976089903877887 -0.19989963592370488 0.16142077023363224
v 0.20095127257359346 -0.20084450600796971 0.16146454668921731
v 0.19714193654901341 -0.20871140269407595 0.16150928127907727
v 0.19428491860745031 -0.20155950100760567 0.16149767285701405
v 0.16957857578626098 -0.20420936191815986 0.16162044266045264
v 0.1633727969613126 -0.1463489289290591 0.1614487834317363
v 0.14941479524874582 -0.13486063970458462 0.16147321441141715
v 0.19080551050648342 -0.049656126912634782 0.16098809440169998
v 0.17325984378484152 -0.035422159798491996 0.16101952184994411
v 0.17645187581676477 -0.06518350961642945 0.16110781724059312
v 0.11025826325152278 -0.024665960312447527 0.16127199148628074
v 0.15419260599203871 -0.019953814181499718 0.16105367467474077
v 0.14889330866139841 -0.015654745625442234 0.16106316665855225
v 0.095365259958327661 -0.019000238633077982 0.1613208674153756
v 0.083563137458204678 -0.02026606674632455 0.16137951405997483
v 0.0760621537812389 -0.030214814661092507 0.16144842618540756
v 0.078013090425832779 -0.048404640695713673 0.16150239140668127
v 0.09445094603715283 -0.036610611832790081 0.16138600240909121
v 0.10794893916407589 -0.054156391496172976 0.1613846451192881
v 0.094511984963039961 -0.091531849048928443 0.16157574609667991
v 0.10747042693285486 -0.1459800452916778 0.16170454992509939
v 0.12510000406429347 -0.15176601715552865 0.16164350711610001
v 0.14496526447410313 -0.13533787088759708 0.16149532485267704
v 0.12784100375077814 -0.1513005773744063 0.16162929340983442
v 0.12511165723685783 -0.19343806209766676 0.16178763640476965
v 0.078947335604604124 -0.21653036354309663 0.16207980110892145
v 0.01705351858980441 -0.16268292937680304 0.16217808395903649
v -0.019572002914082825 -0.19136272895707876 0.16244572098454094
v -0.0068737576425347245 -0.1496753264479817 0.16224309758181615
v -0.023995990576219806 -0.13519487826165663 0.1622717252587593
v -0.057721084542358241 -0.14348603579127794 0.16245548241845989
v -0.066436532938582191 -0.16121212673106286 0.16255688785909955
v -0.089970777121309284 -0.16373627505469387 0.16267383332561974
v -0.08996430406786686 -0.17764005417141154 0.16272190985449253
v -0.089961313834644577 -0.18406230258298048 0.16274411671058875
v -0.098470790448847184 -0.18556266035388075 0.16278843500240045
v -0.10342295615316163 -0.19882728766766519 0.16285710021871888
v -0.11583331946190546 -0.18862395382037397 0.16287886094309939
v -0.18092258417941931 -0.2001002393503693 0.16321785304520406
v -0.16941592897043295 -0.18140618152718829 0.16310026430798794
v -0.17880640320757757 -0.16331983702497491 0.16308086461057703
v -0.19255340597574047 -0.16479426185678167 0.16314917565864351
v -0.17088310744119542 -0.059644151371483364 0.16268572081086102
v -0.16593475244331271 -0.10578082022474861 0.16282259819794814
v -0.15159809637786026 -0.071420810694387341 0.16263779359239053
v -0.13609943776584507 -0.089280665901740289 0.16262832381808701
v -0.13015379483530798 -0.090141526793620697 0.16260396387094767
v -0.13502187969908111 -0.044753267594616751 0.16246930686639796
v -0.10456731364815376 -0.041486885138527996 0.16231797326794858
v -0.12229354897341807 0.12378610842801788 0.16182764453667278
v -0.12532582176359353 0.12346088418459325 0.16184271238557243
v -0.13094199976062301 0.17582409211751779 0.16168736227574107
v -0.12790972692309249 0.17614931636094242 0.16167229442684139
v -0.14008752812822739 0.28969072108060034 0.16133544196695201
v -0.15895610935426335 0.31645182762842822 0.16132960905877367
v -0.17561422655339978 0.31466517334105015 0.16141238593127299
v -0.18011232000362931 0.35660376633247642 0.16128796334265863
v -0.14763780824693376 0.36008679661950987 0.16112659227783402
v -0.15080470437223423 0.38961378848912398 0.16103899215370127
v -0.50801491653301767 0.3513014657459812 0.16281402698529471
v -0.45833590612030645 -0.11188762277991178 0.16418820737967521
v -0.43351482216177989 0.22143666024384309 0.16292079538281812
v -0.40853937416716324 0.2443873846945297 0.16272654842151799
v -0.42007883760229059 0.25540194762365476 0.16274149788284847
v -0.40260652064572444 0.28241802240114428 0.16256768494747365
v -0.3850779021602394 0.29141345915061001 0.162455963498186
v -0.39031633521033465 0.34025471044285005 0.16231106222785524
v -0.36438729267793013 0.30044258393527579 0.16232958642551457
v -0.38292119115673456 0.31255762561694811 0.16237288918875784
v -0.38085121652165771 0.29325793222199353 0.16243014714717061
v -0.39974414348832477 0.25573025491615586 0.16264686170134932
v -0.35461789719496389 0.26057023779114807 0.16242262214914349
v -0.34070529919879805 0.28496239027978026 0.16227425562730788
v -0.33057292979648378 0.30272688676262188 0.16216620215639854
v -0.32476830578168886 0.29548985821040408 0.16216455183368422
v -0.31678356591980289 0.30400106053652509 0.16209838918851313
v -0.35412816456877644 0.33651102420849144 0.16215761953118341
v -0.31271250173536114 0.31302477965007214 0.16204844862368614
v -0.30168937266057061 0.35056998376197634 0.16186785927856162
v -0.27183278591525295 0.35377223036807831 0.16171949711338854
v -0.26882544966703376 0.3257329173869008 0.16180268360687725
v -0.24721240719670037 0.22226772592057314 0.16206128903414921
v -0.3380281215405318 0.23045143915436112 0.16245055058174804
v -0.34967466520603974 0.21852221992721116 0.16254537656219809
v -0.30151546719347166 0.18393832060887844 0.16244359569089906
v -0.31755045071191484 0.16412514608871434 0.1625858780387795
v -0.36480964667654597 0.15905639524228524 0.16282071659327865
v -0.36949358251776454 0.20272771561003322 0.16269115333228043
v -0.44891338379992501 -0.086239765072878158 0.16405614187901482
v -0.37461475713196168 -0.045041825029535708 0.16357196930133627
v -0.37988551060405779 0.0041007701233548681 0.1634261740154381
v -0.33768000194626363 0.034174411810790117 0.16312805721050327
v -0.33455047627782497 0.0049958487637748669 0.16321462357438196
v -0.30231138947293623 0.0084536286870836898 0.16305442236816092
v -0.23830640643108017 0.05641544947631251 0.16259417804918946
v -0.24402055568214256 0.10969210605934628 0.16243611790583454
v -0.27091460630845926 0.11856661724692605 0.16252907322062649
v -0.26464956920137428 0.13257878629202463 0.16245178489054429
v -0.20297419429951774 0.16536019400223501 0.1620547755868682
v -0.2048457068549264 0.18280949906723448 0.16200300730739323
v -0.20171455558309784 0.18314532842175105 0.16198744815008148
v -0.20357802981197942 0.20051968662601155 0.16193590220246143
v -0.16504837931440464 0.14044194373043592 0.16196660587646264
v -0.17680166571101102 0.13168510372517542 0.16205094645933069
v -0.17466496381676816 0.11176326949503776 0.16211005017465702
v -0.18692477275404296 0.12414283631392616 0.16212358897706822
v -0.19865880918983594 0.11540033858383135 0.16220779142532057
v -0.13595941823060687 0.077665664117558195 0.16205005523770993
v -0.13279252205795136 0.048138672247944089 0.16213765536184269
v -0.19868562297979914 0.064184555331041213 0.16238511838787875
v -0.23100386788068264 0.020611906456120349 0.16268447868848521
v -0.226794133163676 -0.018638134104682947 0.16280092493830373
v -0.28798020556506138 -0.037597811865964753 0.16314786198282089
v -0.31691118468865487 -0.021321510346651269 0.16322457348131103
v -0.35197796862262354 -0.035582134126775453 0.16343515385462534
v -0.35007286027960871 -0.053344674231358864 0.16348785142916331
v -0.41992562561931357 -0.11876494311019975 0.16403538948523849
v -0.44892551933080121 -0.13483927240577398 0.16422434921034412
v -0.45652697261834985 -0.12875346313941291 0.16423824464346867
v -0.4414348515677734 -0.26946693038183933 0.16465571060877329
v -0.4196674646189763 -0.26713228504019143 0.16454754495380342
v -0.41645786832315962 -0.25655973019830175 0.16449620661062467
v -0.42152984925602621 -0.20927041809349772 0.16435590957492432
v -0.39734265188432627 -0.19359334538955408 0.16419045347599268
v -0.3967463017810885 -0.19162894116451065 0.16418091465805884
v -0.39538758488686387 -0.19232615657694241 0.16417707951643282
v -0.37888701777007933 -0.18163121872748023 0.16406420492486634
v -0.31263119703596198 -0.18387410465820503 0.16376731650934931
v -0.30138451737726324 -0.16368864105855471 0.16364576297244143
v -0.30138355379716014 -0.20144216149990021 0.16377638357649749
v -0.33182325647819738 -0.22494371773825664 0.16399766140320771
v -0.27078536832914607 -0.25626485484501105 0.16382537448359955
v -0.24596154881273616 -0.23478035281443324 0.16363689773242115
v -0.24777957244373938 -0.21782975945712801 0.16358660906078579
v -0.22204292155000588 -0.21506939360059202 0.16345871951588556
v -0.25103444019336468 -0.28122221833340033 0.16382090942539548
v -0.21749224209368356 -0.31304935608106316 0.16377680025338598
v -0.25104419940159739 -0.33002150260566265 0.16398979705905228
v -0.276575064239728 -0.31868136737365954 0.16406795345414674
v -0.2918556765321213 -0.32032027837872118 0.16414388525210627
v -0.31705285937682021 -0.36254335546765121 0.1644058329972313
v -0.3537319450048968 -0.29588516574047091 0.16434385236926388
v -0.40012486943425091 -0.31670161836751465 0.16462919387689867
v -0.43901233508916937 -0.29205359600949393 0.16472272029332435
v -0.42202088433489476 -0.45047572474757569 0.16519272396259352
v -0.18969887710914182 -0.4255581960243332 0.16403827866283174
v -0.20097111707022133 -0.41979465443759917 0.16407016763317556
v -0.20339716855428605 -0.39717502933184518 0.16400306016049238
v -0.15588082081966731 -0.34659051057064444 0.16360955730719523
v -0.13462183091295396 -0.37899209956254881 0.16362391468861473
v -0.14189732443878814 -0.38604344531022078 0.16368176515313373
v -0.064611786693140688 -0.33994963611920487 0.16316691916131665
v 0.034535264690060311 -0.32931569088241275 0.16267424152595827
v -0.0068291884164314049 -0.27491427577175415 0.16267621225278986
v 0.012939863767025502 -0.24915210487476847 0.16249617719826423
v 0.07896117691093206 -0.31470639890002483 0.16241942090191791
v 0.061737490708029377 -0.31655371294158346 0.16250500820059949
v 0.13390704125127589 -0.22983875433718862 0.16187313898530672
v 0.21414372703680487 -0.30528449034815708 0.16176524325399458
v 0.16623385163485452 -0.096020347234031106 0.16126149410787677
v 0.1153073188578133 -0.071741524797621539 0.16141165434345051
v -0.36268686806018396 0.34321808896043826 0.16217376698000391
v -0.35838017207717454 0.30306401672297345 0.16229289527652466
v -0.28793910348466401 -0.16799985892580144 0.16359885663365745
v -0.13702364211603421 -0.35659848238779901 0.16355747776312338
v 0.2052313712264712 -0.22218891496095136 0.16151871691040581
v 0.14460309270156879 -0.089998069330728597 0.16134011704470383
v -0.20345649763218904 -0.063137786769608767 0.16284758318409773
v -0.17185687777794267 0.20392191578701016 0.16177827474199433
v 0.098407998304328517 -0.14668472826048812 0.16174865777116809
v 0.10884304745262388 -0.1517474602355452 0.16171819347683178
v 0.097999019591213307 -0.14287155913054825 0.16173734493918765
v -0.00079140051033586281 -0.12294739176555225 0.16212265338378651
v 0.015176784290204508 -0.13488290116102775 0.16209052678591385
v 0.011585914861116943 -0.10140293585483635 0.1619911990944683
v 0.028505296377619019 -0.054932973035236074 0.16175261920865291
v 0.029722951120961245 -0.052721090962032882 0.16173936737770941
v 0.017294973825544947 -0.054054044684938234 0.16180112396904089
v 0.041941117514907873 -0.021010567148341545 0.16157347082966539
v 0.04796018105364213 -0.017335118088206217 0.16153307793816246
v 0.0470904108342107 -0.0075301146077980403 0.16150315244933097
v 0.046763895124471426 -0.0038492711470405798 0.16149191827405146
v 0.046339663025458132 -0.0034503721409852757 0.16149248876006983
v 0.046660021303014415 -0.0026782759280781073 0.16148834429540307
v 0.042551994625274217 0.043631889671042215 0.16134700274985736
v 0.028464746788329512 0.053660902747641841 0.16137707707554083
v -0.0016591854649422293 0.016133213981887481 0.16164543257152511
v -0.0024239730449437144 0.01518045734395926 0.16165224558671118
v -0.0011261861126875164 0.015319650533964592 0.16164579668433285
v 0.0084534675295360583 0.016347109349203845 0.16159819384780191
v 0.010460549384102487 -0.0023661944096132247 0.16165371212456314
v 0.012829669185895044 -0.0059823885498188805 0.16165533057734385
v 0.011555457054419408 -0.012574716568446139 0.16168399855341553
v 0.013029868816238521 -0.026321597539477864 0.16172478255009201
v 0.016403945365931608 -0.057780264348825564 0.16181811348496344
v 0.016916560935945377 -0.066829989943824095 0.16184706800630758
v 0.019419413372147479 -0.077325165060428122 0.16187187242773665
v 0.025812553311177346 -0.076639473446625098 0.16184010388122821
v 0.080413298377096196 -0.070783310066558969 0.16156878400786673
v 0.046366791063384975 -0.071110605287408729 0.16172646455331985
v 0.017369358392685386 -0.066781425516101237 0.1618448179795228
v 0.13991398005608024 0.0070327445860826144 0.16102595682994428
v 0.16991710115721292 -0.018267294799368883 0.16097553712694734
v 0.1714028202578293 -0.018107945083900408 0.16096815438342332
v 0.17156934293404916 -0.019660542458866045 0.16097276060696492
v 0.1739256496492296 -0.021647490660447691 0.1609688008742611
v 0.17873847228487613 -0.014572738648538631 0.16092219291950649
v 0.19082298081800189 -0.023329350213145632 0.16089692493971156
v 0.18836591813638631 -0.00042058795222396834 0.1608289596780571
v 0.1954587346707011 0.048325167570054665 0.16062768887698772
v 0.2010426405952129 0.052657630181300437 0.16058702364672064
v 0.19585264974951411 0.1010472239470266 0.16044346233425286
v 0.21690471210768267 0.10330514765620848 0.16033885128972508
v 0.21104409943863667 0.10892042211931 0.16034637022630865
v 0.20590075031182722 0.11600890448471718 0.1603454939688766
v 0.19100872745712499 0.11934497114260979 0.16040242588792386
v 0.17260917826990044 0.14648954392975011 0.16039310954391003
v 0.18253094523145749 0.053982584361446387 0.16066755740626926
v 0.19455174103176878 0.055271866093957699 0.1606078241532051
v 0.15359353610014173 0.011082117610679476 0.16094904667711304
v 0.14332085948079618 0.0099803291127768534 0.16100009326596632
v 0.19900893077181186 0.015224425587406405 0.16072589155504091
v 0.19877157586585228 0.015927655561902683 0.16072454975033185
v 0.18675078006554102 0.014638373829391359 0.16078428305075104
v 0.14923309888513944 0.051737254058903254 0.16082843181156367
v 0.14785658052568779 0.050263610442988001 0.16083985985832649
v 0.1493737012660582 0.050426328142734504 0.1608323210799863
v 0.084092619326359003 0.25602939132219155 0.16042111298687839
v 0.06532603273221696 0.20141349501516928 0.16069637085698596
v 0.077471492868558839 0.19110519723368408 0.16067619136433439
v 0.079101017491520681 0.18972215988641314 0.16067348393533734
v 0.10347508528450539 0.26141669664581785 0.16031335131764957
v 0.11149200037787749 0.28499786573049979 0.16019489953505414
v 0.11221748574737335 0.28713182794697178 0.16018418029834552
v 0.14919493622601968 0.31155345207385021 0.15992965810568952
v 0.11220460584281719 0.32162164665298992 0.1600649067165999
v 0.078735534560741546 0.35671905120024128 0.16009736475231123
v 0.042174046430561184 0.3527976752638125 0.160279044636368
v 0.045869640366822853 0.31834129692619967 0.1603812691769213
v 0.085799083793754435 0.32118992327272927 0.16018781484407432
v 0.090719362706056322 0.27531502576711092 0.16032391556135261
v 0.088766981259568223 0.29351832283909868 0.16026991037243554
v -0.0053088650555395776 0.31469014558869729 0.16062922412698483
v -0.0088095715537518625 0.34732946420689514 0.16053239043542661
v -0.038138806507414851 0.34418377835113356 0.16067813206807841
v -0.034750212516308721 0.31258975576644787 0.16077186462093954
v 0.4333715381669121 -0.18226030479308669 0.16033156249857597
v 0.41006447234205307 -0.18476008725019988 0.16044737906859155
v 0.41184512546883945 -0.20136225173755123 0.16049663402732789
v 0.39220316106230929 -0.21391704750185186 0.16063038797149989
v 0.41462660290703662 -0.24178584966108913 0.16062370797658657
v 0.42389992331553927 -0.25331112458282562 0.16062094542633731
v 0.43654448602797385 -0.25195494113522637 0.1605581125499369
v 0.44079765965392836 -0.25149877010631505 0.16053697785902218
v 0.21016081679354445 -0.18182530368723068 0.16135639524075571
v 0.20824639025966971 -0.18577890495676483 0.16137887713485266
v 0.21664472329798734 -0.19916131629989953 0.16138656342410404
v 0.21305463167522926 -0.16568860299000071 0.161287257184486
v 0.20848267996163683 -0.1661789643488906 0.16130997594843136
v 0.39360445827147506 0.1661782224136519 0.15930883681835245
v 0.38892341762193827 0.14943071980583955 0.15938830594216899
v 0.40523407933371458 0.14580306233937548 0.15932585990898962
v 0.38232503209023638 0.14334596906641203 0.15943969864891949
v 0.34380701246100792 0.13921474671224279 0.15963110085164234
v 0.34650930258515827 0.11401957314136799 0.15970584943688049
v 0.35089376954069196 0.073140392196297352 0.15982712897759827
v 0.37341451621214783 0.075555838569270117 0.15971521976562589
v 0.41417090902738424 0.079927135996898394 0.15951269471929358
v 0.42555642472446953 0.081148281231975233 0.15945611824708403
v 0.42244659429616949 0.11014321284688836 0.15937009665544366
v 0.41631764829329221 0.12303058926874226 0.15935368837513075
v 0.41181978053712459 0.13248828647748251 0.15934164679662946
v 0.39569116746300548 0.16640203089304084 0.15929846763000838
v 0.21383131081300441 0.17227701079335211 0.16011434427632296
v 0.24513811502088861 0.17563479943921262 0.15995877571774894
v 0.23927296881826848 0.23031929693855588 0.15979653881359837
v 0.20796616461038428 0.22696150834005041 0.15995210737217239
v 0.3962575517782832 0.28478159664506641 0.15888627682536621
v 0.40112985507527626 0.23935400649105504 0.1590210505127041
v 0.42481543257232263 0.24189438598719548 0.15890335304834444
v 0.34722600937433451 0.3476145364538426 0.15889432874278625
v 0.35831463428815147 0.33099624469091254 0.15890084081677147
v 0.41316509576909821 0.36750787223890763 0.15852230660359101
v 0.38887253672832683 0.40829976995969069 0.15849286778237889
v 0.29596114258800821 0.43753133602117239 0.15881894100673963
v 0.28444886463245622 0.43629659501558615 0.15887614734817224
v 0.26337854459072413 0.42297781130828122 0.15901911231877655
v 0.26904561768787338 0.41605586009564383 0.15901700430971977
v 0.29665147172702605 0.4190167059716422 0.15887982640762705
v 0.29883467516927631 0.39866130833428859 0.15894021638021494
v 0.31012369145394381 0.42324781655871951 0.15880324082615546
v -0.16859067986439674 -0.42329425164428824 0.15106461460879206
v -0.17661992383922304 -0.41969628994741642 0.15107955530944242
v -0.18179330869736837 -0.42471029004737287 0.15108948466428948
v -0.276575064239728 -0.31868136737365954 0.15126322902958425
v -0.28788084979208439 -0.31365963632866073 0.15128426853689333
v -0.29185567515882549 -0.3203202782366561 0.15129201345166896
v -0.22204292155000588 -0.21506939360059202 0.15115646868241553
v -0.24777957244373938 -0.21782975945712801 0.15120494933909442
v -0.24596154881273616 -0.23478035281443324 0.151202232723222
v -0.27078536832914607 -0.25626485484501105 0.15124977110956031
v -0.33182325647819738 -0.22494371773825664 0.15136318578521737
v -0.33254648462294428 -0.22550209990624839 0.15136456803112006
v -0.32960981235205139 -0.25288256783326529 0.15136017978277086
v -0.33355550850475135 -0.25712485823205034 0.15136777008338115
v -0.33031639643580263 -0.28732516538427555 0.15136292992600286
v -0.30225381774011012 -0.28431533381022828 0.15131006784009876
v -0.28788087526908929 -0.29816193604034053 0.15128362862840442
v -0.26658780499077156 -0.27661795699475322 0.15124272311872694
v -0.26224121348611484 -0.31714400060682368 0.15123622804519662
v -0.25104419940159739 -0.33002150260566265 0.15121571735148154
v -0.21749224209368356 -0.31304935608106316 0.15115196256740243
v -0.25103444019336468 -0.28122221833340033 0.15121368387923831
v -0.4413505154362779 -0.2702532495825975 0.15157089057183137
v -0.43950623150087487 -0.28744868481780217 0.151568134698641
v -0.41344469424183916 -0.28465347352183479 0.1515190420255845
v -0.41435716884638418 -0.2761458906351888 0.15152040551889623
v -0.41645786832315962 -0.25655973019830175 0.15152354454161546
v -0.4196674646189763 -0.26713228504019143 0.15153001290691015
v -0.4414348515677734 -0.26946693038183933 0.15157101658356001
v -0.11583331946190546 -0.18862395382037397 0.15095577769630492
v -0.098470790448847184 -0.18556266035388075 0.15092302203424468
v -0.091202615737249637 -0.16609448515785652 0.15090855905111347
v -0.093395480268115227 -0.14564901091784313 0.15091183582960818
v -0.15142356568233101 -0.17655691162094439 0.15102216390456166
v -0.13292387647551623 -0.17457274083909069 0.15098731562382861
v -0.093505144946486041 -0.1446265371190118 0.15091199972535896
v -0.090964173228369541 -0.14435400704056317 0.15090721322122705
v -0.37461475713196168 -0.045041825029535708 0.15143617479969235
v -0.35007286027960871 -0.053344674231358864 0.15139039622089237
v -0.35197796862262354 -0.035582134126775453 0.15139324301573584
v -0.35861802207994842 -0.0382824474626507 0.15140583310752267
v -0.36293330315063438 0.0019516692148618588 0.15141228139428561
v -0.33455047627782497 0.0049958487637748669 0.151358816052684
v -0.33768000194626363 0.034174411810790117 0.15136349245637659
v -0.37988551060405779 0.0041007701233548681 0.15144405079318457
v -0.17680166571101102 0.13168510372517542 0.15105712839453259
v -0.18692477275404296 0.12414283631392616 0.15107646411530112
v -0.17466496381676816 0.11176326949503776 0.15105393552914689
v -0.31364114173628216 0.25543032019906381 0.1513091799333299
v -0.3380281215405318 0.23045143915436112 0.15135604171103284
v -0.24721240719670037 0.22226772592057314 0.15118571031729239
v -0.26882544966703376 0.3257329173869008 0.15122205511160991
v -0.26425011240044805 0.28307413061883568 0.15121521822948988
v -0.31601063256471651 0.27752259351316311 0.1513127206687489
v -0.40853937416716324 0.2443873846945297 0.15148797750627244
v -0.39572695994907731 0.25616111501426214 0.15146341308012362
v -0.39974414348832477 0.25573025491615586 0.15147098031883541
v -0.40260652064572444 0.28241802240114428 0.15147525751964472
v -0.42007883760229059 0.25540194762365476 0.15150920870673354
v -0.34070529919879805 0.28496239027978026 0.15135882192470743
v -0.33694843855896617 0.28250664558329486 0.15135186310339116
v -0.32476830578168886 0.29548985821040408 0.15132843695004244
v -0.33057292979648378 0.30272688676262188 0.1513390467019271
v 0.21016081679354445 -0.18182530368723068 0.15034285854243534
v 0.20848267996163683 -0.1661789643488906 0.15034536613321561
v 0.2061708073686658 -0.16642692256645106 0.15034972104362535
v 0.20824639025966971 -0.18577890495676483 0.15034661957344306
v 0.18646159498708534 -0.14305105144910174 0.15038579515660466
v 0.19382050875082477 -0.15332067826260018 0.1503723897059514
v 0.1882786822197714 -0.14285616107504065 0.15038237228784956
v -0.066436532938582191 -0.16121212673106286 0.15086181476123417
v -0.057721084542358241 -0.14348603579127794 0.15084470387437571
v -0.089976513141101042 -0.15141588298367328 0.15090564875317788
v -0.089970777121309284 -0.16373627505469387 0.15090614669129385
v 0.14941479524874582 -0.13486063970458462 0.15045507873487443
v 0.1633727969613126 -0.1463489289290591 0.15042932195648387
v 0.1632856890453375 -0.14553676643227484 0.15042945213545492
v 0.16050573279269417 -0.10682872471524997 0.15043307810992371
v 0.16623385163485452 -0.096020347234031106 0.15042186694918766
v 0.14460309270156879 -0.089998069330728597 0.15046226879079083
v 0.21111381697838 -0.087379513550382093 0.15033716755727491
v 0.19170497014993337 -0.050385815893226958 0.15037211485737079
v 0.19080551050648342 -0.049656126912634782 0.15037377507728591
v 0.18978932540797175 -0.10257849017908786 0.15037787015065882
v 0.19704482450460253 -0.088888473172638691 0.15036366960909098
v 0.19784526918920969 -0.08880262205909796 0.15036216182500992
v 0.078013090425832779 -0.048404640695713673 0.15058569337219702
v 0.076062153970659019 -0.030214816460583556 0.1505886086424105
v 0.061677277417049689 -0.049293852805885663 0.1506164298632324
v 0.029722951783931632 -0.05272109086732283 0.15067662293361528
v 0.028505296377619019 -0.054932973035236074 0.15067900261846581
v 0.046366791063384975 -0.071110605287408729 0.15064610366009182
v 0.048132675056786263 -0.019279659767798288 0.15064064476192199
v 0.047960182474292956 -0.017335119556212076 0.1506408886403145
v 0.041941117514907873 -0.021010567148341545 0.15065235196657292
v 0.017294973825544947 -0.054054044684938234 0.15070003379129002
v 0.11187062830665771 -0.017229967291073019 0.15052077786903467
v 0.13991397844600931 0.0070327436863370889 0.15046707428428885
v 0.13123460833000711 0.014351595096666758 0.15048308312494335
v 0.11413045786628326 -0.0025090976292614529 0.15051592307895287
v 0.11175488707849116 0.019639863725492607 0.15051947285918213
v 0.094629876535658033 -0.01834089900300833 0.15055322416069916
v 0.078870533231815879 -0.020031155975408169 0.15058291036457583
v 0.095365259958327661 -0.019000238633077982 0.15055186938071252
v 0.11149200104084787 0.28499786577785485 0.15050900933962294
v 0.13133350319649978 0.26915987041384359 0.15047237534815142
v 0.077471492963268898 0.19110519609716339 0.15057682098156758
v 0.06532603273221696 0.20141349501516928 0.15059922019378622
v 0.067595052103222419 0.20801696164663022 0.1505946833927152
v 0.084092619326359003 0.25602939132219155 0.15056169701696012
v 0.058872256195615057 0.24901945792505817 0.15060938291420961
v 0.052974789570994038 0.30400529933240694 0.15061819544808408
v 0.088766981259568223 0.29351832283909868 0.15055136448140746
v 0.085799083793754435 0.32118992327272927 0.15055579937445895
v 0.045869640366822853 0.31834129692619967 0.15063095611268057
v 0.053964939632972504 0.24286366043761562 0.15061885941292708
v 0.046855107395404876 0.24210110053282585 0.15063225236185301
v 0.049636684658000405 0.21616668216297005 0.15062809586900924
v 0.035834213477920415 0.22243040763049862 0.1506537761216751
v 0.051311149533707384 0.078129064791189015 0.15063064911003618
v 0.058058427417472129 0.078852739209716666 0.15061793911531932
v 0.060098148914281016 0.059835115184694893 0.1506148912036733
v 0.066332200442885098 0.060503743882282454 0.15060314800920135
v 0.073038305071645895 -0.0020215453232580007 0.15059312716444084
v 0.11155554893081109 0.021498420371525689 0.15051977072230618
v 0.11062571236305083 0.030167879553786577 0.15052116016617306
v 0.11680043211451532 0.030830144635400663 0.15050952872956641
v 0.13211560505320358 0.064796951211855025 0.15047934444550873
v 0.12416074166769539 0.13896521408207738 0.15049123126777958
v 0.12207794139692413 0.14033731667990876 0.15049508880833368
v 0.11157996338358728 0.13921136362171097 0.15051486407846906
v 0.11065187194330676 0.14786455161646403 0.15051625091780943
v 0.083157529712734227 0.16597720188390375 0.15056717291558488
v 0.10934673868354287 0.16003314136897134 0.15051820113991402
v 0.10175910075176706 0.23077752715349042 0.15052953925947926
v 0.15395751124683985 0.23637602988644166 0.15043121199034828
v 0.16190439748851668 0.16228214287003467 0.15041933705418933
v 0.17260917826990044 0.14648954392975011 0.15039987177006511
v 0.14315154361562415 0.42114185309706814 0.15044388992571142
v 0.06672791013518177 0.4129450916116007 0.15058785077254766
v 0.028965754978090695 0.40889493898118329 0.15065898418026336
v 0.03373301691541955 0.36444671648083488 0.15065186051609572
v 0.040842849152987186 0.36520927638562467 0.15063846756716978
v 0.042174046430561184 0.3527976752638125 0.15063647837187744
v 0.078735534560741546 0.35671905120024128 0.15056760673499339
v 0.11220460584281719 0.32162164665298992 0.15050615780927667
v 0.14919493622601968 0.31155345207385021 0.15043705792115925
v 0.11221748574737335 0.28713182794697178 0.15050755781331474
v 0.10347508528450539 0.26141669664581785 0.1505250492451756
v 0.079101017491520681 0.18972215988641314 0.15057381573680151
v 0.097999019591213307 -0.14287155913054825 0.16707198550531019
v 0.10747042693285486 -0.1459800452916778 0.16703884877734226
v 0.094511984963039961 -0.091531849048928443 0.16690030330940542
v 0.10794893916407589 -0.054156391496172976 0.16670021879913421
v 0.09445094603715283 -0.036610611832790081 0.16669939548462315
v 0.078013090425832779 -0.048404640695713673 0.16681987363620762
v 0.080413298377096196 -0.070783310066558969 0.16689057099882851
v 0.025812553311177346 -0.076639473446625098 0.16716869668941184
v 0.014994856171092696 -0.09546919471075889 0.16728852915519404
v 0.042956787674848611 -0.09247015799939938 0.16714609645510076
v 0.047465486283525087 -0.13450762947247868 0.16727889875263666
v 0.018789506880686618 -0.13758325091291926 0.16742496865034029
v 0.028535382542059388 -0.14486786037629021 0.16740584024988289
v 0.061849564336657822 -0.13100742143328767 0.16719845818778248
v -0.024992846962507018 -0.071324953179369516 0.16738805895789771
v -0.047785831626600876 -0.073769598236209072 0.16750416202583068
v -0.043999248556296153 -0.10261571719757089 0.16759203463079264
v -0.033389205959141147 -0.10415192883321678 0.16754778552467639
v -0.0068869257971443274 -0.10798915602199458 0.16743725799034637
v 0.00073311419670011105 -0.068565733835408482 0.16725701585228475
v 0.41535923869629082 0.45033729243413484 0.16340698566351569
v 0.29596114258800821 0.43753133602117239 0.16401517660729242
v 0.31012369145394381 0.42324781655871951 0.16400092515906983
v 0.29883467516927631 0.39866130833428859 0.16414406226519973
v 0.30416243429219786 0.34898721299460939 0.16430098972364776
v 0.35831463428815147 0.33099624469091254 0.16411233254981397
v 0.34722600937433451 0.3476145364538426 0.16410358072508496
v 0.26277944406012421 0.34454871030616574 0.1645117867462137
v 0.25526848144759745 0.41457820333055356 0.16429055371735965
v 0.26904561939265431 0.41605586028506397 0.16422037560261721
v 0.26337854459072413 0.42297781130828122 0.16422165854502688
v 0.28444886463245622 0.43629659501558615 0.16407381794812856
v 0.14315154361562415 0.42114185309706814 0.16479355934218803
v 0.17260917826990044 0.14648954392975011 0.16566122467799449
v 0.2263314172503032 0.35022674273001386 0.16466232473284315
v 0.19100872745712499 0.11934497114260979 0.1656741698377788
v 0.20590075031182722 0.11600890448471718 0.16561638505468318
v 0.17765117963449392 0.1549420161243581 0.16560655855495621
v 0.21383131081300441 0.17227701079335211 0.16537297552430566
v 0.20796616461038428 0.22696150834005041 0.16520021950579342
v 0.24513811502088861 0.17563479943921262 0.16521350467467641
v 0.23736435317248425 0.16134650933656206 0.16530239110342579
v 0.24433849379285763 0.09632214989352457 0.16550781224118535
v 0.30645770989507071 0.10298470144036584 0.1651913888822984
v 0.24731666147500764 -0.007555953878646807 0.16587435218353716
v 0.24064804985792027 0.054619764158962289 0.16567793034788117
v 0.20128500533161492 0.05039790934881843 0.16587843811738973
v 0.2010426405952129 0.052657630181300437 0.16587129934696829
v 0.1954587346707011 0.048325167570054665 0.16591341998665582
v 0.19900893077181186 0.015224425587406405 0.16601798987966457
v 0.18836591813638631 -0.00042058795222396834 0.16612533449316469
v 0.19082298081800189 -0.023329350213145632 0.16619770651898413
v 0.21008469316036785 -0.037286668592663122 0.16615828942518138
v 0.19723513721020375 -0.054872178082451505 0.16628311547863153
v 0.19391740746083599 -0.052180662695102201 0.16628885187726347
v 0.19424394211258633 -0.055225153413902037 0.16629846987280361
v 0.21111381697838 -0.087379513550382093 0.16633695838186877
v 0.19784526918920969 -0.08880262205909796 0.16640454579775737
v 0.19961623073074294 -0.10531442538742818 0.16645670892345307
v 0.20202667608130842 -0.105985523981194 0.16644783610662839
v 0.20284226168362293 -0.11358974848496192 0.16647185893332575
v 0.28656877580718271 -0.10460972181918084 0.16604537216673498
v 0.29220919408519663 -0.15719893768310952 0.16621150889947933
v 0.21305463167522926 -0.16568860299000071 0.16661470703172176
v 0.21664472329798734 -0.19916131629989953 0.16672045203974217
v 0.20976089903877887 -0.19989963592370488 0.16675551692237178
v 0.22329012195406056 -0.32604120735438524 0.16715401592050835
v 0.32911715096602545 -0.20109086921348818 0.16619879904682755
v 0.39191439081389601 -0.19435559672898356 0.16587892194370743
v 0.39162640722720232 -0.15232741375516184 0.16572631250610251
v 0.38902490470264567 -0.048275556478175358 0.16535736536562912
v 0.42482602769150363 -0.14876661249560413 0.16555720003077434
v 0.2500225783313072 -0.30840886767269737 0.16696375620518311
v 0.2574436497361075 -0.37760024797662239 0.16718234151972997
v 0.41091714697029991 -0.36113955909690004 0.1664005770202433
v 0.40077146493318666 -0.26654489716007063 0.16610173914030213
v 0.3719859760817581 -0.28168750700462936 0.16629252927929233
v 0.35852650859024188 -0.25513140098720527 0.16625851700421776
v 0.39220316163056962 -0.21391704574971585 0.16594922455481764
v 0.41184512546883945 -0.20136225173755123 0.16581089725149328
v 0.41006447234205307 -0.18476008725019988 0.16575844871704581
v 0.4333715381669121 -0.18226030479308669 0.16563972696343765
v 0.44079765965392836 -0.25149877010631505 0.16585846106748145
v 0.4798640688299845 -0.24730873067680198 0.16565946425484082
v 0.49114995542087325 -0.3525342473192527 0.16599188650982649
v 0.50945659622213835 -0.35057078181292278 0.16589863598379201
v 0.4836007653201938 -0.10950038499188726 0.16513706063738254
v 0.4708277056399191 -0.017007802409984493 0.16485827443887327
v 0.44142520147208247 0.22593565751213074 0.16410650996503162
v 0.44794988335458674 0.17200700165980157 0.16427339670670424
v 0.39569116746300548 0.16640203089304084 0.16453959257665157
v 0.41181978053712459 0.13248828647748251 0.16458801086675903
v 0.41669922250982899 0.13069205373601242 0.16457165330368073
v 0.41631764829329221 0.12303058926874226 0.16460151353728408
v 0.42244659429616949 0.11014321284688836 0.16461991271767037
v 0.42555642472446953 0.081148281231975233 0.16471151183182486
v 0.41417090902738424 0.079927135996898394 0.16476950743950367
v 0.41157939964489682 0.027893334703442386 0.16497230700293139
v 0.37802573111570315 0.032562541947179544 0.16511293457672485
v 0.37341451621214783 0.075555838569270117 0.1649771126858495
v 0.35089376954069196 0.073140392196297352 0.16509182900915217
v 0.34650930258515827 0.11401957314136799 0.16496268592931446
v 0.32957283471170207 0.11220306453976502 0.1650489570345956
v 0.34304167428409965 0.15780705965394581 0.16481857880279777
v 0.38232503209023638 0.14334596906641203 0.16468688745421098
v 0.40523407933371458 0.14580306233937548 0.16457019315875754
v 0.38892341762193827 0.14943071980583955 0.16463357862097583
v 0.39360445827147506 0.1661782224136519 0.16455022183880763
v 0.34018177772511454 0.16044841148164282 0.16482234674763949
v 0.33250820301455292 0.23199404087744094 0.16459632399451166
v 0.40112985507527626 0.23935400649105504 0.16424677849300531
v 0.3962575517782832 0.28478159664506641 0.16410326633505626
v 0.42481543257232263 0.24189438598719548 0.16412612872680055
v 0.43930568675364762 0.24344852770432354 0.1640523181499505
v 0.43240574629993694 0.30046052216182267 0.16387590016714845
v 0.23927296881826848 0.23031929693855588 0.16504074865616417
v 0.21180323046058286 -0.053309687768655092 0.16620890839813479
v 0.32102038080536133 -0.12559951837740535 0.16596031121918595
v 0.3718695628383939 -0.21563710456696994 0.16605111192757391
v 0.39186184600667723 -0.21349284670451185 0.16594927508263216
v 0.31016804980810891 0.31976944855594241 0.16437979232544983
v 0.27710647597388299 0.30413105387588463 0.16459250012338225
v 0.31750624342684591 -2.7821090766886117e-05 0.16551681992512887
v 0.38381762060587676 -0.11886424589290076 0.16564043411606585
v 0.38887253672832683 0.40829976995969069 0.16368549440891786
v 0.41316509576909821 0.36750787223890763 0.16372073180591326
v 0.44230569249093843 -0.089225529022371936 0.16525691109807528
v -0.17880640320757757 -0.16331983702497491 0.17022058824135625
v -0.15998001578474683 -0.16130062645865628 0.17022058824135625
v -0.16593475244331271 -0.10578082022474861 0.17022058824135625
v -0.17088310744119542 -0.059644151371483364 0.17022058824135625
v -0.20345649763218904 -0.063137786769608767 0.17022058824135625
v -0.19255340597574047 -0.16479426185678167 0.17022058824135625
v -0.14313971479670423 0.31814820358072859 0.16975961536528403
v -0.1024677077883874 0.32251045023133817 0.16975961536528403
v -0.10436754248610065 0.3402238202847499 0.16975961536528403
v -0.10696580123861692 0.36444904327011945 0.16975961536528403
v -0.14763780824693376 0.36008679661950987 0.16975961536528403
v -0.18011232000362931 0.35660376633247642 0.16975961536528403
v -0.17561422655339978 0.31466517334105015 0.16975961536528403
v -0.15895610935426335 0.31645182762842822 0.16975961536528403
v -0.12790972692309249 0.17614931636094242 0.1707586255529398
v -0.13094199976062301 0.17582409211751779 0.1707586255529398
v -0.12532582176359353 0.12346088418459325 0.1707586255529398
v -0.12229354897341807 0.12378610842801788 0.1707586255529398
v -0.036768388564692868 0.13295904759041929 0.1707586255529398
v -0.042384566514367325 0.18532225552334383 0.1707586255529398
v -0.090964173228369541 -0.14435400704056317 0.17076781673761551
v -0.081319551755678052 -0.14331958012242221 0.17076781673761551
v -0.082573019449021998 -0.13163270162267524 0.17076781673761551
v -0.086342775762634272 -0.096484859993131764 0.17076781673761551
v -0.092381720457345759 -0.040179928141938423 0.17076781673761551
v -0.10456731364815376 -0.041486885138527996 0.17076781673761551
v -0.13502187969908111 -0.044753267594616751 0.17076781673761551
v -0.13015379483530798 -0.090141526793620697 0.17076781673761551
v -0.12395971099741339 -0.14789291957510053 0.17076781673761551
v -0.093505144946486041 -0.1446265371190118 0.17076781673761551
v 0.016916559610004604 -0.066829990085889177 0.17126131219430177
v 0.017369358392685386 -0.066781425516101237 0.17126131219430177
v 0.016403945365931608 -0.057780264348825564 0.17126131219430177
v 0.013029869005658633 -0.02632159929161389 0.17126131219430177
v 0.01155545724383952 -0.012574718131162049 0.17126131219430177
v 0.010460549384102487 -0.0023661944096132247 0.17126131219430177
v 0.0084534675295360583 0.016347109349203845 0.17126131219430177
v -0.0011261838396461883 0.015319650770739728 0.17126131219430177
v -0.0024239730449437144 0.01518045734395926 0.17126131219430177
v -0.051179661521051516 0.0099512012720314614 0.17126131219430177
v -0.057813935391959163 0.0092396469939960129 0.17126131219430177
v -0.055816145067372092 -0.0093870262348798791 0.17126131219430177
v -0.04889804457616486 -0.073888887823954044 0.17126131219430177
v -0.047785831626600876 -0.073769598236209072 0.17126131219430177
v -0.024992846962507018 -0.071324953179369516 0.17126131219430177
v 0.00073311419670011105 -0.068565733835408482 0.17126131219430177
v -0.064611786693140688 -0.33994963611920487 0.17039592761869302
v -0.057951760163729882 -0.40204530971676633 0.17039592761869302
v 0.060127956441738573 -0.38938075517965481 0.17039592761869302
v 0.053887753495040006 -0.33119936444570247 0.17039592761869302
v 0.053467929912327759 -0.32728508158209341 0.17039592761869302
v 0.034535264690060311 -0.32931569088241275 0.17039592761869302
v -0.0053088650555395776 0.31469014558869729 0.1681914592592019
v 0.0029813216486594572 0.23739544938069829 0.1681914592592019
v 0.046855107395404876 0.24210110053282585 0.1681914592592019
v 0.053964939632972504 0.24286366043761562 0.1681914592592019
v 0.045869640366822853 0.31834129692619967 0.1681914592592019
v 0.042174046430561184 0.3527976752638125 0.1681914592592019
v 0.040842849152987186 0.36520927638562467 0.1681914592592019
v 0.03373301691541955 0.36444671648083488 0.1681914592592019
v -0.010140768831325865 0.35974106532870731 0.1681914592592019
v -0.0088095715537518625 0.34732946420689514 0.1681914592592019
v 0.015176784290204508 -0.13488290116102775 0.17430217760160319
v 0.015504200834635169 -0.13793561403857207 0.17430217760160319
v 0.018789506880686618 -0.13758325091291926 0.17430217760160319
v 0.047465486283525087 -0.13450762947247868 0.17430217760160319
v 0.042956787674848611 -0.09247015799939938 0.17430217760160319
v 0.014994856171092696 -0.09546919471075889 0.17430217760160319
v 0.010995502225958692 -0.095898142518137747 0.17430217760160319
v 0.011585914861116943 -0.10140293585483635 0.17430217760160319
v 0.15461537960355476 0.14382709605284094 0.17108950791713565
v 0.16377837383130503 0.14480986640201718 0.17108950791713565
v 0.16190439748851668 0.16228214287003467 0.17108950791713565
v 0.15395751124683985 0.23637602988644166 0.17108950791713565
v 0.10175910075176706 0.23077752715349042 0.17108950791713565
v 0.10934673868354287 0.16003314136897134 0.17108950791713565
v 0.11065187194330676 0.14786455161646403 0.17108950791713565
v 0.11157996338358728 0.13921136362171097 0.17108950791713565
v 0.1220779401656934 0.14033731653784368 0.17108950791713565
v 0.14542417721705153 0.14284130028565684 0.17108950791713565
v 0.13390704125127589 -0.22983875433718862 0.17159219455849761
v 0.14281939706160957 -0.31293432972439433 0.17159219455849761
v 0.16175036162276826 -0.31090390283564157 0.17159219455849761
v 0.20323915255237482 -0.30645405255662722 0.17159219455849761
v 0.21414372703680487 -0.30528449034815708 0.17159219455849761
v 0.2052313712264712 -0.22218891496095136 0.17159219455849761
v 0.11025826325152278 -0.024665960312447527 0.16966911763436313
v 0.1153073188578133 -0.071741524797621539 0.16966911763436313
v 0.17645187581676477 -0.06518350961642945 0.16966911763436313
v 0.17325984378484152 -0.035422159798491996 0.16966911763436313
v 0.17156934312346928 -0.019660544116292009 0.16966911763436313
v 0.1714028202578293 -0.018107945083900408 0.16966911763436313
v 0.16991710115721292 -0.018267294799368883 0.16966911763436313
v 0.15419260599203871 -0.019953814181499718 0.16966911763436313
v 0.20053038909065188 -0.11383770670252236 0.16929015836245428
v 0.2001066242436966 -0.1138831573004007 0.16929015836245428
v 0.20304424745090013 -0.14127249103569819 0.16929015836245428
v 0.20574704252171053 -0.16647237316432939 0.16929015836245428
v 0.2061708073686658 -0.16642692256645106 0.16929015836245428
v 0.20848267996163683 -0.1661789643488906 0.16929015836245428
v 0.21305463167522926 -0.16568860299000071 0.16929015836245428
v 0.29220919408519663 -0.15719893768310952 0.16929015836245428
v 0.28656877580718271 -0.10460972181918084 0.16929015836245428
v 0.20284226168362293 -0.11358974848496192 0.16929015836245428
v 0.13604951785436808 0.021946231912112254 0.16617647058302026
v 0.13740101097589666 0.0093454000523711337 0.16617647058302026
v 0.14332085948079618 0.0099803291127768534 0.16617647058302026
v 0.15359353610014173 0.011082117610679476 0.16617647058302026
v 0.18675078006554102 0.014638373829391359 0.16617647058302026
v 0.19877157586585228 0.015927655561902683 0.16617647058302026
v 0.19455174103176878 0.055271866093957699 0.16617647058302026
v 0.18253094523145749 0.053982584361446387 0.16617647058302026
v 0.1493737012660582 0.050426328142734504 0.16617647058302026
v 0.14785658080981795 0.050263610490343023 0.16617647058302026
v 0.13318117614181313 0.048689610584426161 0.16617647058302026
v 0.13454125226739705 0.036008753605488629 0.16617647058302026
v 0.2010426405952129 0.052657630181300437 0.16898472852059623
v 0.20128500533161492 0.05039790934881843 0.16898472852059623
v 0.24064804985792027 0.054619764158962289 0.16898472852059623
v 0.23754769777518372 0.083526323147176285 0.16898472852059623
v 0.2362681279432324 0.095456568652485904 0.16898472852059623
v 0.24266697695704328 0.096142872566796711 0.16898472852059623
v 0.24161454328963036 0.10595538271883628 0.16898472852059623
v 0.23883924194149708 0.10565771976448665 0.16898472852059623
v 0.21690471210768267 0.10330514765620848 0.16898472852059623
v 0.19585264974951411 0.1010472239470266 0.16898472852059623
v 0.25526848144759745 0.41457820333055356 0.16436085973803186
v 0.26277944406012421 0.34454871030616574 0.16436085973803186
v 0.30416243429219786 0.34898721299460939 0.16436085973803186
v 0.29883467516927631 0.39866130833428859 0.16436085973803186
v 0.29665147172702605 0.4190167059716422 0.16436085973803186
v 0.26904561939265431 0.41605586028506397 0.16436085973803186
v 0.24731666147500764 -0.007555953878646807 0.17013928169511103
v 0.31750624342684591 -2.7821090766886117e-05 0.17013928169511103
v 0.30645770989507071 0.10298470144036584 0.17013928169511103
v 0.24433849379285763 0.09632214989352457 0.17013928169511103
v 0.24266697695704328 0.096142872566796711 0.17013928169511103
v 0.2362681279432324 0.095456568652485904 0.17013928169511103
v 0.23754769777518372 0.083526323147176285 0.17013928169511103
v 0.24064804985792027 0.054619764158962289 0.17013928169511103
v 0.38381762060587676 -0.11886424589290076 0.17179298641081714
v 0.32102038080536133 -0.12559951837740535 0.17179298641081714
v 0.32911715096602545 -0.20109086921348818 0.17179298641081714
v 0.39191439081389601 -0.19435559672898356 0.17179298641081714
v 0.40112985507527626 0.23935400649105504 0.17212811083839177
v 0.33250820301455292 0.23199404087744094 0.17212811083839177
v 0.33499344402125408 0.20882255462778065 0.17212811083839177
v 0.33880142474494218 0.17331832213806087 0.17212811083839177
v 0.34018177772511454 0.16044841148164282 0.17212811083839177
v 0.39360445827147506 0.1661782224136519 0.17212811083839177
v 0.3956911664211949 0.1664020307983308 0.17212811083839177
v 0.44794988335458674 0.17200700165980157 0.17212811083839177
v 0.44142520147208247 0.22593565751213074 0.17212811083839177
v 0.43930568675364762 0.24344852770432354 0.17212811083839177
v 0.42481543257232263 0.24189438598719548 0.17212811083839177
v 0.40077146493318666 -0.26654489716007063 0.16584841630843195
v 0.41091714697029991 -0.36113955909690004 0.16584841630843195
v 0.49114995542087325 -0.3525342473192527 0.16584841630843195
v 0.4798640688299845 -0.24730873067680198 0.16584841630843195
v 0.43654448740126961 -0.25195494099316129 0.16584841630843195
v 0.42389992331553927 -0.25331112458282562 0.16584841630843195
v 0.3996312603320562 -0.25591404245444938 0.16584841630843195
v -0.18969887710914182 -0.4255581960243332 -0.16059834559971761
v -0.18179330869736837 -0.42471029004737287 -0.16059834559971761
v -0.1766199256860691 -0.41969628952122118 -0.16059834559971761
v -0.16859067986439674 -0.42329425164428824 -0.16059834559971761
v -0.14938471594422653 -0.4212343298659707 -0.16059834559971761
v -0.13655738976999207 -0.3609456503925626 0.16357037485755457
v -0.13667569361548101 -0.35984262820147905 0.16356710243572239
v -0.13667569361548101 -0.35984262820147905 -0.16059834559971761
v -0.43950623150087487 -0.28744868481780217 -0.16059834559971761
v -0.43901233508916937 -0.29205359600949393 -0.16059834559971761
v -0.33182325865652862 -0.22494371627025078 -0.16059834559971761
v -0.090964170955328216 -0.14435400680378802 -0.16059834559971761
v -0.057721086389204326 -0.14348603474946733 0.15628623037320036
v 0.095174684621742986 -0.20841312535559733 0.16197710145537556
v 0.097999019733278375 -0.14287156045648902 -0.16059834559971761
v 0.087785551815355495 -0.13951952928224781 0.16710771842531516
v 0.015176784384914564 -0.13488290163457803 -0.16059834559971761
v -0.043999246709450074 -0.10261571861822172 -0.16059834559971761
v 0.046763892993495183 -0.0038492709102654413 -0.16059834559971761
v 0.047090411070985841 -0.0075301128556620172 -0.16059834559971761
v 0.028965754978090695 0.40889493898118329 -0.16059834559971761
v 0.016968501682431129 0.4076081822661024 -0.16059834559971761
v -0.068608452198643741 0.39842968802747003 -0.16059834559971761
v -0.15080470437223423 0.38961378848912398 -0.16059834559971761
v -0.45833590612030645 -0.11188762277991178 -0.16059834559971761
v -0.45652697261834985 -0.12875346313941291 -0.16059834559971761
v -0.18692477346436837 0.1241428353668256 0.15650841031318768
v -0.17680166575836603 0.13168510410401565 0.1564399539798963
v -0.32476830417161795 0.29548986000989513 -0.16059834559971761
v -0.34070529754137208 0.28496238966416493 -0.16059834559971761
v -0.39572696113295303 0.25616111487219706 0.16262689966298483
v 0.010460549478812543 -0.0023661950252285846 -0.16059834559971761
v 0.20095127072674737 -0.20084450619738983 -0.16059834559971761
v 0.20824639040173479 -0.18577890647212572 0.15491818434910437
v 0.20824639040173479 -0.18577890647212572 -0.16059834559971761
v 0.20304424745090013 -0.14127249103569819 0.15486673538458098
v 0.20053038909065188 -0.11383770670252236 0.15483125988650645
v 0.16337279710337771 -0.14634893058648507 0.15509117610094436
v 0.19170497142851914 -0.050385813620185627 -0.16059834559971761
v 0.19424394215994137 -0.055225154029517394 0.15036754320299942
v -0.064810672174111267 -0.41216340200443297 0.16341768913100008
v -0.064810672174111267 -0.41216340200443297 -0.16059834559971761
v 0.11495978722356869 -0.3928822515123736 0.16252438090564461
v 0.11495978722356869 -0.3928822515123736 -0.16059834559971761
v 0.14750963495726566 -0.38939114117903367 0.16236263549932625
v 0.14750963495726566 -0.38939114117903367 -0.16059834559971761
v 0.22914557586110215 -0.38063533739648869 0.16195697339028403
v 0.22914557586110215 -0.38063533739648869 -0.16059834559971761
v 0.25708109538230461 -0.37763913346288447 0.16181815733571908
v 0.25708109538230461 -0.37763913346288447 -0.16059834559971761
v 0.25723176733630737 -0.3776229732755616 0.16181740860537655
v 0.25723176733630737 -0.3776229732755616 -0.16059834559971761
v 0.2574436497361075 -0.37760024797662239 -0.16059834559971761
v 0.0760621537812389 -0.030214814661092507 -0.16059834559971761
v -0.08996430406786686 -0.17764005417141154 -0.16059834559971761
v -0.18054357868900348 0.38642416706488436 0.16118676938957255
v -0.18054357868900348 0.38642416706488436 -0.16059834559971761
v -0.50801491653301767 0.3513014657459812 -0.16059834559971761
v -0.4414348515677734 -0.26946693038183933 -0.16059834559971761
v -0.39538758488686387 -0.19232615657694241 -0.16059834559971761
v -0.42202088433489476 -0.45047572474757569 -0.16059834559971761
v -0.21755435214294158 -0.42854581487026083 0.1641766969825193
v -0.21755435214294158 -0.42854581487026083 -0.16059834559971761
v 0.21694537132386124 -0.33022611198353785 -0.16059834559971761
v 0.22697748369231188 -0.36042083200017833 -0.16059834559971761
v -0.39572696113295303 0.25616111487219706 -0.16059834559971761
v -0.38085121675843286 0.29325793430561475 -0.16059834559971761
v 0.016916560935945377 -0.066829989943824095 -0.16059834559971761
v 0.029722951120961245 -0.052721090962032882 -0.16059834559971761
v 0.046660021303014415 -0.0026782759280781073 -0.16059834559971761
v 0.013029868816238521 -0.026321597539477864 -0.16059834559971761
v 0.13991398005608024 0.0070327445860826144 -0.16059834559971761
v 0.067595051203476891 0.20801696377760642 0.1606630901697339
v 0.39360445893444546 0.16617822250836198 -0.16059834559971761
v 0.29596114258800821 0.43753133602117239 -0.16059834559971761
v 0.28444886463245622 0.43629659501558615 -0.16059834559971761
v -0.29185567515882549 -0.3203202782366561 -0.16059834559971761
v -0.41435716884638418 -0.2761458906351888 -0.16059834559971761
v -0.4413505154362779 -0.2702532495825975 -0.16059834559971761
v 0.18646159498708534 -0.14305105144910174 -0.16059834559971761
v 0.047960182474292956 -0.017335119556212076 -0.16059834559971761
v 0.077471492963268898 0.19110519609716339 -0.16059834559971761
v 0.11680043211451532 0.030830144635400663 -0.16059834559971761
v 0.12207794139692413 0.14033731667990876 -0.16059834559971761
v 0.14315154361562415 0.42114185309706814 -0.16059834559971761
v 0.06672791013518177 0.4129450916116007 -0.16059834559971761
v 0.11149200104084787 0.28499786577785485 -0.16059834559971761
v -0.033389205959141147 -0.10415192883321678 -0.16059834559971761
v 0.1781121423765902 0.42489152680641551 0.1646154767828083
v 0.1781121423765902 0.42489152680641551 -0.16059834559971761
v 0.41091714697029991 -0.36113955909690004 -0.16059834559971761
v 0.39220316163056962 -0.21391704574971585 -0.16059834559971761
v 0.49114995542087325 -0.3525342473192527 -0.16059834559971761
v 0.50945659622213835 -0.35057078181292278 -0.16059834559971761
v 0.4836007653201938 -0.10950038499188726 -0.16059834559971761
v 0.4708277056399191 -0.017007802409984493 -0.16059834559971761
v 0.44142520099853216 0.22593565689651537 -0.16059834559971761
v 0.3388014246028771 0.17331832370077679 0.16478168885740169
v 0.33499344383183399 0.20882255623785159 0.16466952596454609
v 0.43930568476473647 0.24344852746754836 -0.16059834559971761
v 0.43240574629993694 0.30046052216182267 -0.16059834559971761
v 0.41535923869629082 0.45033729243413484 -0.16059834559971761
v 0.32436280345506796 0.44057753564085583 0.16387050401439029
v 0.32436280345506796 0.44057753564085583 -0.16059834559971761
v -0.082573019449021998 -0.13163270162267524 -0.16059834559971761
v 0.01155545724383952 -0.012574718131162049 -0.16059834559971761
v -0.0011261838396461883 0.015319650770739728 -0.16059834559971761
v 0.15461537747257853 0.14382709581606581 -0.16059834559971761
v 0.14785658080981795 0.050263610490343023 -0.16059834559971761
v 0.3956911664211949 0.1664020307983308 -0.16059834559971761
v 0.43654448740126961 -0.25195494099316129 -0.16059834559971761
l 1 2
l 2 3
l 3 4
l 4 5
l 5 6
l 6 7
l 7 8
l 8 9
l 9 10
l 10 11
l 11 12
l 12 13
l 1 13
l 14 15
l 15 16
l 16 17
l 17 18
l 18 19
l 19 20
l 20 21
l 21 22
l 22 23
l 23 24
l 24 25
l 25 26
l 26 27
l 28 29
l 29 30
l 31 32
l 32 33
l 33 34
l 34 35
l 35 36
l 36 37
l 37 38
l 38 39
l 39 40
l 40 41
l 41 42
l 14 42
l 27 28
l 30 31
l 43 44
l 44 45
l 43 45
l 46 47
l 47 48
l 48 49
l 49 50
l 50 51
l 51 52
l 52 53
l 54 55
l 55 56
l 56 57
l 58 59
l 59 60
l 61 62
l 62 63
l 63 64
l 64 65
l 66 67
l 67 68
l 68 69
l 69 70
l 70 71
l 72 73
l 73 74
l 74 75
l 75 76
l 76 77
l 77 78
l 78 79
l 79 80
l 80 81
l 82 83
l 83 84
l 84 85
l 85 86
l 87 88
l 88 89
l 89 90
l 90 91
l 91 92
l 93 94
l 94 95
l 45 95
l 45 96
l 96 97
l 97 98
l 98 99
l 100 101
l 101 102
l 102 103
l 103 104
l 104 105
l 106 107
l 107 108
l 108 109
l 109 110
l 111 112
l 112 113
l 111 113
l 113 114
l 114 115
l 115 116
l 118 119
l 119 120
l 120 121
l 121 122
l 122 123
l 123 124
l 124 125
l 125 126
l 126 127
l 127 128
l 126 128
l 128 129
l 129 130
l 131 132
l 132 133
l 133 134
l 135 136
l 136 137
l 135 137
l 137 138
l 135 138
l 138 139
l 139 140
l 138 140
l 140 141
l 141 142
l 142 143
l 143 144
l 144 145
l 145 146
l 146 147
l 147 148
l 148 149
l 149 150
l 151 152
l 152 153
l 53 154
l 54 154
l 57 58
l 65 66
l 81 155
l 155 156
l 82 156
l 100 157
l 105 106
l 110 158
l 111 158
l 116 117
l 117 118
l 131 159
l 135 160
l 138 160
l 150 151
l 153 161
l 161 162
l 46 162
l 71 72
l 86 87
l 93 163
l 99 1098
l 157 1098
l 60 61
l 92 163
l 130 164
l 159 164
l 134 160
l 43 165
l 165 166
l 94 166
l 94 167
l 167 168
l 168 169
l 169 170
l 170 171
l 171 172
l 172 173
l 173 174
l 174 175
l 175 176
l 43 176
l 177 178
l 178 179
l 179 180
l 180 181
l 177 181
l 182 183
l 183 184
l 184 185
l 185 186
l 187 188
l 188 189
l 189 190
l 190 191
l 191 192
l 192 193
l 194 195
l 195 196
l 196 197
l 197 1112
l 1112 1113
l 198 1113
l 198 199
l 199 200
l 200 201
l 201 202
l 182 202
l 187 203
l 193 204
l 194 204
l 186 203
l 205 206
l 206 207
l 207 208
l 208 209
l 209 210
l 210 211
l 211 212
l 212 213
l 214 215
l 215 216
l 216 217
l 217 218
l 218 219
l 219 220
l 220 221
l 221 222
l 222 223
l 225 226
l 205 226
l 213 214
l 223 224
l 224 225
l 227 228
l 228 229
l 229 230
l 230 231
l 231 232
l 232 233
l 227 233
l 234 235
l 235 236
l 236 237
l 237 238
l 238 239
l 239 240
l 234 240
l 241 242
l 242 243
l 151 243
l 151 244
l 145 244
l 145 241
l 245 246
l 246 247
l 245 247
l 248 249
l 249 250
l 248 250
l 251 252
l 252 253
l 251 253
l 254 255
l 255 256
l 256 257
l 257 258
l 254 258
l 259 260
l 260 261
l 259 261
l 262 263
l 263 264
l 264 265
l 261 265
l 261 266
l 266 267
l 267 268
l 262 268
l 269 270
l 270 271
l 271 272
l 272 273
l 273 274
l 274 275
l 275 276
l 276 277
l 269 277
l 278 1122
l 279 1122
l 279 280
l 280 281
l 281 282
l 282 283
l 283 284
l 284 285
l 285 286
l 286 287
l 287 288
l 288 289
l 287 289
l 287 290
l 290 1123
l 291 1123
l 291 292
l 292 293
l 293 294
l 294 295
l 295 1119
l 296 1119
l 296 297
l 297 1121
l 278 1121
l 298 299
l 299 300
l 300 301
l 298 301
l 302 303
l 303 304
l 304 305
l 305 306
l 306 307
l 307 308
l 306 308
l 308 309
l 306 309
l 309 310
l 310 311
l 311 312
l 312 313
l 302 313
l 314 315
l 315 316
l 316 317
l 314 317
l 318 319
l 319 320
l 318 320
l 321 322
l 322 323
l 323 324
l 324 325
l 325 326
l 326 327
l 327 328
l 328 329
l 321 329
l 330 331
l 331 332
l 332 333
l 333 334
l 330 334
l 335 336
l 336 337
l 335 337
l 338 339
l 339 340
l 340 341
l 341 342
l 342 343
l 342 344
l 342 345
l 346 347
l 347 348
l 349 350
l 350 351
l 352 1126
l 1126 1128
l 1128 1130
l 1130 1132
l 1132 1134
l 1134 1136
l 353 1136
l 353 354
l 354 355
l 356 357
l 357 358
l 358 359
l 359 360
l 360 361
l 361 362
l 363 364
l 364 365
l 366 367
l 367 368
l 368 369
l 369 370
l 370 371
l 371 372
l 372 373
l 373 374
l 374 375
l 375 376
l 376 377
l 378 379
l 379 380
l 381 382
l 382 383
l 383 384
l 384 385
l 385 386
l 386 387
l 387 388
l 388 389
l 389 390
l 390 391
l 391 392
l 392 393
l 393 394
l 394 395
l 395 396
l 396 397
l 398 399
l 399 400
l 400 401
l 401 402
l 402 403
l 403 404
l 404 405
l 405 406
l 407 408
l 408 409
l 409 410
l 410 411
l 412 413
l 413 414
l 414 1141
l 415 1141
l 415 416
l 417 418
l 418 419
l 421 422
l 423 424
l 424 425
l 421 425
l 420 426
l 426 1116
l 427 1116
l 427 428
l 428 429
l 429 430
l 430 431
l 431 432
l 432 433
l 433 434
l 435 436
l 436 437
l 437 438
l 438 439
l 439 440
l 440 441
l 442 443
l 417 443
l 416 444
l 445 446
l 447 448
l 448 449
l 449 450
l 450 451
l 451 452
l 452 453
l 453 454
l 454 455
l 455 456
l 456 457
l 458 459
l 459 460
l 460 461
l 461 462
l 462 463
l 464 465
l 465 466
l 466 467
l 468 469
l 469 470
l 470 471
l 445 471
l 444 472
l 473 474
l 474 475
l 475 476
l 476 477
l 477 478
l 478 479
l 479 480
l 480 481
l 481 482
l 482 483
l 483 484
l 485 486
l 486 487
l 487 488
l 488 489
l 489 490
l 490 491
l 491 492
l 493 494
l 494 495
l 495 496
l 496 497
l 497 498
l 498 499
l 499 500
l 500 1147
l 501 1147
l 501 502
l 502 503
l 503 504
l 505 506
l 352 506
l 351 507
l 507 508
l 508 509
l 509 510
l 511 512
l 349 512
l 348 513
l 338 514
l 345 346
l 363 515
l 365 516
l 366 516
l 377 378
l 406 407
l 419 420
l 422 517
l 423 518
l 441 442
l 446 447
l 472 473
l 484 519
l 485 519
l 520 1092
l 1091 1092
l 505 1091
l 510 511
l 514 521
l 515 522
l 398 523
l 517 518
l 457 524
l 458 524
l 467 468
l 504 520
l 343 344
l 362 522
l 434 435
l 492 493
l 355 356
l 380 1099
l 381 1099
l 513 521
l 411 412
l 463 464
l 397 523
l 525 526
l 376 526
l 376 527
l 525 527
l 528 529
l 529 530
l 528 530
l 531 532
l 532 533
l 534 535
l 535 536
l 536 537
l 537 538
l 538 539
l 539 540
l 540 541
l 541 542
l 542 543
l 541 543
l 543 544
l 544 545
l 545 546
l 546 547
l 547 548
l 548 549
l 549 550
l 551 552
l 552 553
l 372 554
l 372 555
l 531 555
l 533 534
l 550 556
l 551 556
l 553 554
l 557 558
l 558 559
l 559 560
l 560 561
l 561 562
l 562 563
l 563 564
l 565 566
l 566 567
l 567 568
l 568 569
l 569 570
l 570 571
l 571 572
l 572 573
l 573 574
l 575 576
l 557 576
l 564 577
l 574 578
l 575 579
l 565 577
l 578 579
l 580 581
l 581 582
l 580 582
l 583 1158
l 584 1158
l 584 585
l 585 586
l 586 587
l 587 588
l 588 589
l 589 590
l 590 591
l 591 592
l 592 593
l 593 594
l 594 595
l 583 596
l 595 597
l 596 597
l 598 599
l 599 600
l 600 601
l 598 601
l 602 603
l 603 604
l 604 605
l 605 606
l 606 607
l 607 608
l 608 609
l 602 609
l 610 611
l 356 611
l 356 612
l 612 613
l 613 614
l 610 614
l 615 616
l 616 617
l 618 619
l 619 620
l 620 621
l 621 622
l 622 623
l 623 624
l 624 625
l 625 626
l 626 627
l 617 618
l 627 628
l 615 628
l 629 630
l 630 631
l 631 632
l 629 632
l 633 634
l 634 635
l 633 635
l 636 637
l 637 638
l 638 639
l 636 639
l 640 641
l 641 642
l 642 643
l 643 644
l 644 645
l 645 646
l 640 646
l 647 648
l 648 649
l 647 649
l 650 651
l 651 652
l 650 652
l 653 654
l 654 655
l 655 656
l 656 657
l 657 658
l 658 659
l 659 660
l 660 661
l 661 662
l 662 663
l 663 664
l 650 665
l 650 666
l 666 667
l 667 668
l 653 668
l 664 665
l 669 670
l 670 671
l 671 672
l 672 673
l 673 674
l 674 675
l 669 675
l 676 677
l 677 678
l 678 679
l 679 680
l 680 681
l 676 681
l 679 682
l 679 683
l 682 683
l 684 685
l 685 686
l 686 687
l 687 688
l 688 689
l 689 690
l 690 691
l 684 691
l 692 693
l 693 694
l 692 694
l 695 696
l 696 697
l 697 698
l 698 699
l 699 700
l 695 700
l 701 702
l 702 703
l 703 704
l 704 705
l 701 705
l 706 707
l 707 708
l 708 709
l 706 709
l 710 711
l 711 712
l 712 713
l 710 713
l 714 715
l 715 716
l 714 716
l 717 718
l 718 719
l 719 720
l 717 720
l 721 722
l 722 723
l 714 723
l 714 724
l 724 725
l 725 726
l 721 726
l 727 1125
l 728 1125
l 728 729
l 725 729
l 725 730
l 730 731
l 731 732
l 727 732
l 733 734
l 734 735
l 735 736
l 736 737
l 737 738
l 733 738
l 739 740
l 740 741
l 741 742
l 736 742
l 736 739
l 743 744
l 744 745
l 745 746
l 746 747
l 747 748
l 748 749
l 749 750
l 743 750
l 755 756
l 756 757
l 758 759
l 759 760
l 760 761
l 761 762
l 762 763
l 763 764
l 764 765
l 765 766
l 766 767
l 767 768
l 768 769
l 769 770
l 770 771
l 771 772
l 772 773
l 773 774
l 774 775
l 775 776
l 776 777
l 777 778
l 778 779
l 779 780
l 780 781
l 782 783
l 783 784
l 784 785
l 786 787
l 787 788
l 788 789
l 789 790
l 790 791
l 791 792
l 792 793
l 793 794
l 751 794
l 751 752
l 754 755
l 757 758
l 785 786
l 752 795
l 753 754
l 781 782
l 795 796
l 753 796
l 797 798
l 798 799
l 799 800
l 800 801
l 801 802
l 802 803
l 803 804
l 804 805
l 805 806
l 807 808
l 808 809
l 809 810
l 810 1101
l 797 1101
l 806 807
l 811 812
l 812 813
l 813 814
l 814 815
l 815 816
l 811 816
l 817 1188
l 818 1188
l 818 819
l 819 820
l 820 821
l 822 823
l 825 826
l 826 827
l 827 828
l 828 1174
l 829 1174
l 829 830
l 830 832
l 832 833
l 833 834
l 835 836
l 835 837
l 834 838
l 838 839
l 839 840
l 841 842
l 842 843
l 843 844
l 844 845
l 845 846
l 846 847
l 847 848
l 848 849
l 850 851
l 851 852
l 852 853
l 853 854
l 854 855
l 855 856
l 856 857
l 857 858
l 859 860
l 860 861
l 861 862
l 862 863
l 866 867
l 866 868
l 864 865
l 863 869
l 869 870
l 870 871
l 871 872
l 872 873
l 873 874
l 875 876
l 876 877
l 878 879
l 879 880
l 880 881
l 881 882
l 882 883
l 883 884
l 884 885
l 885 886
l 886 887
l 887 888
l 888 889
l 889 890
l 890 891
l 891 892
l 892 893
l 893 894
l 895 896
l 896 897
l 897 898
l 898 899
l 900 901
l 901 902
l 902 903
l 903 904
l 904 905
l 906 907
l 907 908
l 908 909
l 909 910
l 910 911
l 836 912
l 837 912
l 849 913
l 850 913
l 864 914
l 874 915
l 875 916
l 894 895
l 899 900
l 905 1183
l 1183 1184
l 906 1184
l 824 825
l 831 917
l 831 918
l 841 919
l 858 859
l 914 920
l 915 916
l 821 824
l 823 921
l 917 918
l 840 919
l 865 920
l 877 878
l 921 922
l 868 923
l 817 911
l 822 922
l 867 923
l 924 925
l 925 926
l 926 927
l 927 928
l 928 929
l 924 929
l 930 931
l 931 932
l 932 933
l 933 934
l 934 935
l 935 936
l 936 937
l 930 937
l 938 939
l 939 940
l 940 941
l 941 942
l 942 943
l 938 943
l 944 945
l 945 946
l 946 947
l 947 948
l 948 949
l 949 950
l 950 951
l 951 952
l 952 953
l 944 953
l 954 955
l 955 956
l 956 957
l 957 958
l 958 959
l 959 960
l 960 961
l 961 962
l 962 963
l 963 964
l 964 965
l 965 966
l 966 967
l 967 968
l 968 969
l 954 969
l 970 971
l 971 972
l 972 973
l 973 974
l 974 975
l 970 975
l 976 977
l 977 978
l 978 979
l 979 980
l 980 981
l 981 982
l 982 983
l 983 984
l 984 985
l 976 985
l 986 987
l 987 988
l 988 989
l 989 990
l 990 991
l 991 992
l 992 993
l 986 993
l 994 995
l 995 996
l 996 997
l 997 998
l 998 999
l 999 1000
l 1000 1001
l 1001 1002
l 1002 1003
l 994 1003
l 1004 1005
l 1005 1006
l 1006 1007
l 1007 1008
l 1008 1009
l 1004 1009
l 1010 1011
l 1011 1012
l 1012 1013
l 1013 1014
l 1014 1015
l 1015 1016
l 1016 1017
l 1010 1017
l 1018 1019
l 1019 1020
l 1020 1021
l 1021 1022
l 1022 1023
l 1023 1024
l 1024 1025
l 1025 1026
l 1026 1027
l 1018 1027
l 1028 1029
l 1029 1030
l 1030 1031
l 1031 1032
l 1032 1033
l 1033 1034
l 1034 1035
l 1035 1036
l 1036 1037
l 1037 1038
l 1038 1039
l 1028 1039
l 1040 1041
l 1041 1042
l 1042 1043
l 1043 1044
l 1044 1045
l 1045 1046
l 1046 1047
l 1047 1048
l 1048 1049
l 1040 1049
l 1050 1051
l 1051 1052
l 1052 1053
l 1053 1054
l 1054 1055
l 1050 1055
l 1056 1057
l 1057 1058
l 1058 1059
l 1059 1060
l 1060 1061
l 1061 1062
l 1062 1063
l 1056 1063
l 1064 1065
l 1065 1066
l 1066 1067
l 1064 1067
l 1068 1069
l 1069 1070
l 1070 1071
l 1071 1072
l 1072 1073
l 1073 1074
l 1074 1075
l 1075 1076
l 1076 1077
l 1077 1078
l 1068 1078
l 1079 1080
l 1080 1081
l 1081 1082
l 879 1082
l 879 1083
l 1083 1084
l 1084 1085
l 1079 1085
l 4 502
l 3 503
l 5 501
l 1086 1087
l 6 649
l 7 648
l 8 647
l 1089 1090
l 10 506
l 9 352
l 11 505
l 1 520
l 2 504
l 15 670
l 1094 1095
l 17 498
l 16 499
l 18 497
l 19 496
l 20 495
l 20 652
l 21 651
l 22 650
l 23 665
l 24 664
l 25 663
l 26 662
l 27 661
l 28 660
l 29 659
l 30 658
l 31 657
l 32 485
l 31 486
l 33 519
l 34 484
l 35 483
l 36 482
l 37 481
l 38 480
l 39 479
l 40 478
l 41 477
l 41 673
l 14 671
l 45 677
l 43 676
l 44 392
l 43 393
l 45 391
l 163 945
l 93 683
l 94 679
l 95 678
l 96 390
l 98 388
l 98 720
l 99 719
l 718 1098
l 157 385
l 386 1098
l 100 384
l 101 383
l 102 382
l 103 381
l 105 380
l 106 379
l 107 378
l 108 377
l 109 376
l 110 526
l 158 525
l 111 527
l 113 810
l 114 809
l 115 808
l 116 987
l 117 529
l 118 528
l 119 530
l 120 992
l 121 805
l 553 804
l 122 553
l 123 552
l 124 551
l 125 816
l 126 815
l 128 813
l 129 812
l 130 966
l 159 964
l 132 543
l 134 541
l 160 540
l 135 539
l 136 538
l 137 537
l 139 535
l 139 740
l 140 739
l 141 736
l 142 735
l 143 734
l 144 370
l 143 371
l 146 749
l 147 748
l 148 747
l 149 746
l 150 745
l 151 744
l 152 576
l 151 557
l 153 1029
l 46 1038
l 47 581
l 48 580
l 49 582
l 50 573
l 51 784
l 52 783
l 53 995
l 55 776
l 56 775
l 57 774
l 58 773
l 59 772
l 60 771
l 61 770
l 62 769
l 63 768
l 64 767
l 65 766
l 66 765
l 67 764
l 68 763
l 69 977
l 70 598
l 71 601
l 72 600
l 73 599
l 74 984
l 75 788
l 76 787
l 1106 1107
l 1107 1108
l 1108 1109
l 80 413
l 79 414
l 81 933
l 156 931
l 83 410
l 84 409
l 85 408
l 86 943
l 87 942
l 88 405
l 89 404
l 90 948
l 166 680
l 167 682
l 168 952
l 169 402
l 170 401
l 171 400
l 172 399
l 173 925
l 174 396
l 175 395
l 176 394
l 165 681
l 1110 1111
l 181 473
l 180 474
l 177 472
l 178 444
l 179 416
l 185 451
l 184 452
l 186 450
l 203 449
l 187 448
l 187 689
l 188 688
l 189 687
l 190 686
l 191 469
l 190 470
l 192 468
l 193 467
l 204 466
l 194 465
l 195 464
l 196 463
l 197 462
l 461 1112
l 693 1112
l 692 1113
l 198 458
l 459 1113
l 199 524
l 200 457
l 201 456
l 202 455
l 182 454
l 183 453
l 208 417
l 207 418
l 209 443
l 210 442
l 211 441
l 212 440
l 213 439
l 214 438
l 214 696
l 215 695
l 216 700
l 217 699
l 218 698
l 219 435
l 220 434
l 221 433
l 222 432
l 223 431
l 224 430
l 224 708
l 225 707
l 226 706
l 205 427
l 206 702
l 207 701
l 230 517
l 229 518
l 231 422
l 232 421
l 233 425
l 227 424
l 228 423
l 237 509
l 236 510
l 238 508
l 239 974
l 240 349
l 234 512
l 235 511
l 243 558
l 242 367
l 244 743
l 241 368
l 247 546
l 246 547
l 245 548
l 248 780
l 249 779
l 250 778
l 251 795
l 252 752
l 253 751
l 256 596
l 257 759
l 258 758
l 254 757
l 255 756
l 261 342
l 260 343
l 259 344
l 265 345
l 264 346
l 266 341
l 267 340
l 268 339
l 262 338
l 263 347
l 270 607
l 273 916
l 605 875
l 274 915
l 275 874
l 276 873
l 872 1079
l 277 1079
l 269 1085
l 293 358
l 292 359
l 294 357
l 295 356
l 611 1119
l 713 1119
l 296 712
l 297 1021
l 278 1019
l 279 857
l 280 856
l 281 855
l 282 854
l 283 731
l 284 730
l 285 725
l 286 724
l 287 714
l 290 723
l 722 1123
l 291 360
l 361 1123
l 289 715
l 288 716
l 301 923
l 300 868
l 298 867
l 299 866
l 305 363
l 304 364
l 305 729
l 306 728
l 308 851
l 307 852
l 309 850
l 310 913
l 311 849
l 563 848
l 313 562
l 302 561
l 303 560
l 317 894
l 316 895
l 623 893
l 314 623
l 315 622
l 622 896
l 627 888
l 318 627
l 320 889
l 319 626
l 626 890
l 323 839
l 322 1045
l 324 838
l 325 834
l 570 833
l 327 569
l 328 568
l 321 1046
l 332 900
l 331 618
l 618 901
l 333 899
l 620 898
l 334 620
l 330 619
l 335 831
l 337 917
l 336 918
l 1090 1127
l 1127 1129
l 1129 1131
l 1131 1133
l 1133 1135
l 1135 1137
l 1137 1138
l 354 869
l 353 870
l 355 863
l 356 862
l 362 721
l 522 726
l 285 515
l 365 1012
l 516 1011
l 366 1010
l 372 733
l 373 801
l 372 802
l 374 800
l 375 799
l 376 798
l 387 717
l 397 929
l 523 928
l 398 927
l 403 950
l 406 940
l 407 939
l 411 936
l 412 935
l 1109 1142
l 1142 1143
l 415 1143
l 1110 1143
l 1111 1144
l 475 675
l 476 674
l 487 656
l 488 655
l 489 654
l 490 653
l 491 668
l 492 667
l 493 666
l 22 494
l 1095 1146
l 500 1146
l 1146 1148
l 1086 1148
l 348 1005
l 513 1004
l 521 1009
l 514 1008
l 350 972
l 351 971
l 507 970
l 460 694
l 471 685
l 445 684
l 446 691
l 447 690
l 437 697
l 419 705
l 420 704
l 426 703
l 429 709
l 556 955
l 554 803
l 555 738
l 531 737
l 141 532
l 533 742
l 534 741
l 545 960
l 559 1015
l 564 847
l 577 846
l 565 845
l 566 844
l 567 1049
l 571 832
l 572 830
l 574 1034
l 578 1033
l 584 754
l 586 796
l 589 794
l 590 793
l 591 792
l 592 791
l 593 790
l 594 761
l 595 760
l 604 876
l 609 879
l 602 878
l 603 877
l 612 861
l 613 860
l 614 711
l 610 710
l 617 902
l 621 897
l 624 892
l 625 891
l 628 887
l 615 904
l 616 903
l 632 836
l 631 912
l 629 835
l 630 837
l 633 908
l 635 909
l 634 907
l 639 921
l 638 922
l 636 823
l 637 822
l 643 826
l 642 827
l 644 1054
l 645 820
l 646 819
l 640 818
l 1160 1161
l 641 828
l 1087 1089
l 1144 1164
l 1094 1164
l 727 853
l 762 979
l 777 1001
l 781 998
l 782 997
l 785 829
l 1170 1171
l 1106 1171
l 789 982
l 806 990
l 807 989
l 1161 1175
l 1170 1175
l 840 1058
l 919 1057
l 841 1056
l 842 1042
l 843 1041
l 858 1026
l 859 1025
l 1138 1176
l 871 1080
l 880 1082
l 881 1081
l 1178 1179
l 882 1179
l 1179 1180
l 1180 1181
l 1181 1182
l 886 1075
l 905 1072
l 906 1069
l 910 1077
l 1185 1186
l 1186 1187
l 817 1187
l 1187 1189
l 1160 1189
l 821 1052
l 824 1051
l 825 1050
l 920 1064
l 914 1065
l 865 1067
l 864 1066
l 1044 1061
l 1182 1185
l 1176 1178
