# pointcloud_to_mesh 0.5.1; candidate requires geometry validation; coordinates preserved
v -0.122686988 6.199331021 5.145410241
v -0.929042049 7.338170660 5.146223106
v -3.027822694 6.797915497 5.146869681
v -3.658933972 6.971156847 5.147204842
v -5.497788111 6.497810361 5.147771342
v -2.204879042 -6.294466854 5.141038673
v 0.199828516 -5.675461872 5.140297850
v 0.639994880 -7.385418030 5.139397888
v 3.210981802 -6.723610441 5.138605839
v 2.770815439 -5.013654283 5.139505801
v 5.497138470 -4.311861030 5.138665898
v 2.610318208 6.902844355 5.144568279
v -3.027822694 6.797915497 -5.209386000
v -3.658933972 6.971156847 -5.209386000
v -5.497788111 6.497810361 -5.209386000
v -2.204879042 -6.294466854 -5.209386000
v 0.199828516 -5.675461872 -5.209386000
v 0.639994880 -7.385418030 -5.209386000
v 3.210981802 -6.723610441 -5.209386000
v 2.770815439 -5.013654283 -5.209386000
v 5.497138470 -4.311861030 -5.209386000
v 2.610318208 6.902844355 -5.209386000
v -0.122686988 6.199331021 -5.209386000
v -0.929042049 7.338170660 -5.209386000
g roof
f 1 2 3
g roof
f 3 4 5
g roof
f 3 5 6
g roof
f 3 6 7
g roof
f 7 8 9
g roof
f 7 9 10
g roof
f 10 11 12
g roof
f 10 12 1
g roof
f 10 1 3
g roof
f 10 3 7
g facade_completed
f 4 3 13 14
g facade_completed
f 5 4 14 15
g facade_completed
f 6 5 15 16
g facade_completed
f 7 6 16 17
g facade_completed
f 8 7 17 18
g facade_completed
f 9 8 18 19
g facade_completed
f 10 9 19 20
g facade_completed
f 11 10 20 21
g facade_completed
f 12 11 21 22
g facade_completed
f 1 12 22 23
g facade_completed
f 2 1 23 24
g facade_completed
f 3 2 24 13
g ground_assumed
f 13 15 14
g ground_assumed
f 13 16 15
g ground_assumed
f 13 17 16
g ground_assumed
f 17 19 18
g ground_assumed
f 17 20 19
g ground_assumed
f 20 22 21
g ground_assumed
f 20 23 22
g ground_assumed
f 20 24 23
g ground_assumed
f 20 13 24
g ground_assumed
f 20 17 13
