# XYZ-only planar convex-roof baseline. Provisional base; no GT.
v -9.40298701 -1.92577896 3.73510353
v 1.99388411 -9.20711328 3.59315306
v 2.02324531 -9.16115663 3.63312144
v -0.14507360 0.13925026 8.59325114
v -0.42244367 0.31426524 8.59533862
v 8.83920819 2.25226766 3.76601397
v -2.28803338 9.36133866 3.79593186
v -2.28993919 9.36255626 3.79422597
v -9.47325089 -1.88088814 3.67221000
v 9.17719582 2.03633112 3.47012897
v -9.40298701 -1.92577896 -8.32523955
v 1.99388411 -9.20711328 -8.32523955
v 2.02324531 -9.16115663 -8.32523955
v 9.17719582 2.03633112 -8.32523955
v 8.83920819 2.25226766 -8.32523955
v -2.28803338 9.36133866 -8.32523955
v -2.28993919 9.36255626 -8.32523955
v -9.47325089 -1.88088814 -8.32523955
g roof
f 1 2 3 4 5
g roof
f 6 7 5 4
g roof
f 7 8 9 1 5
g roof
f 10 6 4 3
g wall
f 2 1 11 12
g wall
f 3 2 12 13
g wall
f 7 6 15 16
g wall
f 8 7 16 17
g wall
f 9 8 17 18
g wall
f 1 9 18 11
g wall
f 6 10 14 15
g wall
f 10 3 13 14
g ground_assumed
f 18 17 16 15 14 13 12 11
