# Source coordinates; no display transform
v 2680432.07829 1250792.7104 507.466210256
v 2680439.71021 1250787.83445 507.371153054
v 2680439.72987 1250787.86523 507.397917899
v 2680438.27785 1250794.09325 510.719471196
v 2680438.09211 1250794.21045 510.720869078
v 2680444.29418 1250795.50823 507.486909448
v 2680436.84282 1250800.26883 507.506943977
v 2680436.84154 1250800.26964 507.505801627
v 2680432.03123 1250792.74046 507.424093573
v 2680444.52051 1250795.36363 507.288769912
v 2680432.07829 1250792.7104 499.389995573
v 2680439.71021 1250787.83445 499.389995573
v 2680439.72987 1250787.86523 499.389995573
v 2680444.52051 1250795.36363 499.389995573
v 2680444.29418 1250795.50823 499.389995573
v 2680436.84282 1250800.26883 499.389995573
v 2680436.84154 1250800.26964 499.389995573
v 2680432.03123 1250792.74046 499.389995573
g roof
f 1 2 3 4 5
g roof
f 6 7 5 4
g roof
f 7 8 9 1 5
g roof
f 10 6 4 3
g wall
f 2 1 11 12
g wall
f 3 2 12 13
g wall
f 7 6 15 16
g wall
f 8 7 16 17
g wall
f 9 8 17 18
g wall
f 1 9 18 11
g wall
f 6 10 14 15
g wall
f 10 3 13 14
g ground_assumed
f 18 17 16 15 14 13 12 11
