v 2680432.0782851181 1250792.7104011711 507.46621025617867
v 2680439.7102054763 1250787.8344520577 507.37115305403694
v 2680439.7298672181 1250787.8652269512 507.39791789938715
v 2680438.2778513925 1250794.0932490053 510.71947119570353
v 2680438.0921103884 1250794.2104478728 510.72086907771353
v 2680444.2941801175 1250795.5082321477 507.48690944754713
v 2680436.8428173205 1250800.2688250439 507.50694397731928
v 2680436.8415410938 1250800.2696404103 507.50580162724066
v 2680432.0312328762 1250792.7404623309 507.42409357284106
v 2680444.5205137003 1250795.3636301374 507.28876991158285
v 2680432.0782851181 1250792.7104011711 499.38999557330845
v 2680439.7102054763 1250787.8344520577 499.38999557330845
v 2680439.7298672181 1250787.8652269512 499.38999557330845
v 2680444.5205137003 1250795.3636301374 499.38999557330845
v 2680444.2941801175 1250795.5082321477 499.38999557330845
v 2680436.8428173205 1250800.2688250439 499.38999557330845
v 2680436.8415410938 1250800.2696404103 499.38999557330845
v 2680432.0312328762 1250792.7404623309 499.38999557330845
l 1 2
l 2 3
l 3 4
l 4 5
l 1 5
l 6 7
l 5 7
l 4 6
l 7 8
l 8 9
l 1 9
l 6 10
l 3 10
l 11 12
l 2 12
l 12 13
l 15 16
l 16 17
l 8 17
l 17 18
l 9 18
l 11 18
l 10 14
l 14 15
l 13 14
