# Source coordinates; no display transform
v 2686087.75 1251468.375 427.134019151
v 2686088.75 1251470.375 427.147495618
v 2686086.25 1251471.875 427.144685248
v 2686079.5 1251475.625 427.135671992
v 2686074 1251478.375 427.126876191
v 2686071.75 1251479.125 427.121496321
v 2686070.25 1251479.25 427.116128159
v 2686070 1251479.125 427.114540629
v 2686068.5 1251477.5 427.100858414
v 2686068.25 1251477.125 427.098083158
v 2686067.75 1251475.375 427.087781761
v 2686067.75 1251475.125 427.086594036
v 2686068.75 1251474.5 427.087599411
v 2686077.75 1251469.625 427.100210949
v 2686081.75 1251467.625 427.106607893
v 2686085.75 1251466.875 427.118943455
v 2686086 1251466.875 427.119937123
v 2686087.25 1251467.75 427.12906251
v 2686087.75 1251468.375 424.991351561
v 2686088.75 1251470.375 424.991351561
v 2686086.25 1251471.875 424.991351561
v 2686079.5 1251475.625 424.991351561
v 2686074 1251478.375 424.991351561
v 2686071.75 1251479.125 424.991351561
v 2686070.25 1251479.25 424.991351561
v 2686070 1251479.125 424.991351561
v 2686068.5 1251477.5 424.991351561
v 2686068.25 1251477.125 424.991351561
v 2686067.75 1251475.375 424.991351561
v 2686067.75 1251475.125 424.991351561
v 2686068.75 1251474.5 424.991351561
v 2686077.75 1251469.625 424.991351561
v 2686081.75 1251467.625 424.991351561
v 2686085.75 1251466.875 424.991351561
v 2686086 1251466.875 424.991351561
v 2686087.25 1251467.75 424.991351561
g roof
f 1 2 3 4 5 6 7 8 9 10 11 12 13 14 15 16 17 18
g wall
f 2 1 19 20
g wall
f 3 2 20 21
g wall
f 4 3 21 22
g wall
f 5 4 22 23
g wall
f 6 5 23 24
g wall
f 7 6 24 25
g wall
f 8 7 25 26
g wall
f 9 8 26 27
g wall
f 10 9 27 28
g wall
f 11 10 28 29
g wall
f 12 11 29 30
g wall
f 13 12 30 31
g wall
f 14 13 31 32
g wall
f 15 14 32 33
g wall
f 16 15 33 34
g wall
f 17 16 34 35
g wall
f 18 17 35 36
g wall
f 1 18 36 19
g ground_assumed
f 36 35 34 33 32 31 30 29 28 27 26 25 24 23 22 21 20 19
