v 2685881.2499999991 1245529.3749999967 478.72251202928101
v 2685875.2499999986 1245523.6250000014 478.7301395147814
v 2685875.7500000023 1245522.7500000005 478.72925722174591
v 2685879.4999999972 1245518.7500000002 478.72310678812642
v 2685881.2499999991 1245516.9999999984 478.72025783812364
v 2685882.4999999977 1245515.8749999991 478.71824564612115
v 2685883.2499999991 1245515.75 478.71713851467177
v 2685884.0000000009 1245516.1249999974 478.71612245996749
v 2685885.2499999995 1245517.2499999967 478.71452011665514
v 2685886.7500000028 1245518.6250000009 478.71260186485864
v 2685889.0000000014 1245522.1249999979 478.70998633030291
v 2685889.0000000014 1245522.5000000021 478.71005463953037
v 2685887.2499999995 1245524.5000000021 478.71294912456835
v 2685883.7500000028 1245528.2499999974 478.71869256628378
v 2685882.2499999991 1245529.7500000009 478.72113452438259
v 2685881.7500000023 1245529.6250000016 478.72183466392795
v 2685881.2499999991 1245529.3749999967 475.93749847555563
v 2685875.2499999986 1245523.6250000014 475.93749847555563
v 2685875.7500000023 1245522.7500000005 475.93749847555563
v 2685879.4999999972 1245518.7500000002 475.93749847555563
v 2685881.2499999991 1245516.9999999984 475.93749847555563
v 2685882.4999999977 1245515.8749999991 475.93749847555563
v 2685883.2499999991 1245515.75 475.93749847555563
v 2685884.0000000009 1245516.1249999974 475.93749847555563
v 2685885.2499999995 1245517.2499999967 475.93749847555563
v 2685886.7500000028 1245518.6250000009 475.93749847555563
v 2685889.0000000014 1245522.1249999979 475.93749847555563
v 2685889.0000000014 1245522.5000000021 475.93749847555563
v 2685887.2499999995 1245524.5000000021 475.93749847555563
v 2685883.7500000028 1245528.2499999974 475.93749847555563
v 2685882.2499999991 1245529.7500000009 475.93749847555563
v 2685881.7500000023 1245529.6250000016 475.93749847555563
l 1 2
l 2 3
l 3 4
l 4 5
l 5 6
l 6 7
l 7 8
l 8 9
l 9 10
l 10 11
l 11 12
l 12 13
l 13 14
l 14 15
l 15 16
l 1 16
l 1 17
l 17 18
l 2 18
l 18 19
l 3 19
l 19 20
l 20 21
l 21 22
l 6 22
l 22 23
l 7 23
l 23 24
l 8 24
l 24 25
l 25 26
l 10 26
l 26 27
l 11 27
l 27 28
l 12 28
l 28 29
l 29 30
l 30 31
l 15 31
l 31 32
l 16 32
l 17 32
