# Source coordinates; no display transform
v 2684356.75 1252701.25 428.46375384
v 2684358.5 1252704.375 428.464758453
v 2684359 1252705.5 428.464691266
v 2684354.75 1252708 428.446856717
v 2684354.25 1252708.125 428.445016583
v 2684353.5 1252707.375 428.443686873
v 2684353 1252706.5 428.443372593
v 2684351.75 1252704.125 428.442872996
v 2684351.5 1252703.625 428.442811221
v 2684351.5 1252703.25 428.443383416
v 2684352 1252702.875 428.445605012
v 2684356 1252700.5 428.46242413
v 2684356.75 1252701.25 428.335995482
v 2684358.5 1252704.375 428.335995482
v 2684359 1252705.5 428.335995482
v 2684354.75 1252708 428.335995482
v 2684354.25 1252708.125 428.335995482
v 2684353.5 1252707.375 428.335995482
v 2684353 1252706.5 428.335995482
v 2684351.75 1252704.125 428.335995482
v 2684351.5 1252703.625 428.335995482
v 2684351.5 1252703.25 428.335995482
v 2684352 1252702.875 428.335995482
v 2684356 1252700.5 428.335995482
g roof
f 1 2 3 4 5 6 7 8 9 10 11 12
g wall
f 2 1 13 14
g wall
f 3 2 14 15
g wall
f 4 3 15 16
g wall
f 5 4 16 17
g wall
f 6 5 17 18
g wall
f 7 6 18 19
g wall
f 8 7 19 20
g wall
f 9 8 20 21
g wall
f 10 9 21 22
g wall
f 11 10 22 23
g wall
f 12 11 23 24
g wall
f 1 12 24 13
g ground_assumed
f 24 23 22 21 20 19 18 17 16 15 14 13
