# XYZ-only planar convex-roof baseline. Provisional base; no GT.
v 5.21153149 3.13998254 6.12855114
v -0.65369383 10.48468736 5.84682088
v -9.79475965 3.18495074 5.64278216
v -2.49786406 -5.95255742 5.99328127
v 9.84158436 -2.65798255 6.04251276
v 0.70051854 -9.95771916 5.93384703
v 5.21153149 3.13998254 -6.72875172
v -0.65369383 10.48468736 -6.72875172
v -9.79475965 3.18495074 -6.72875172
v -2.49786406 -5.95255742 -6.72875172
v 0.70051854 -9.95771916 -6.72875172
v 9.84158436 -2.65798255 -6.72875172
g roof
f 1 2 3 4
g roof
f 5 1 4 6
g wall
f 2 1 7 8
g wall
f 3 2 8 9
g wall
f 4 3 9 10
g wall
f 1 5 12 7
g wall
f 6 4 10 11
g wall
f 5 6 11 12
g ground_assumed
f 12 11 10 9 8 7
