v 0.25999760597389815 0.14453449270312113 0.333877173467091
v -0.040144831939418597 0.52038665355897862 0.31946013022375441
v -0.50792256095271626 0.1468356600820708 0.30901881288157385
v -0.13451695211558978 -0.32076001203018578 0.32695497928989992
v 0.49693229820654866 -0.15216602298122822 0.32947431292578233
v 0.029154569193251025 -0.52571701594640396 0.32391353813191126
v 0.25999760597389815 0.14453449270312113 -0.32407235359221387
v -0.040144831939418597 0.52038665355897862 -0.32407235359221387
v -0.50792256095271626 0.1468356600820708 -0.32407235359221387
v -0.13451695211558978 -0.32076001203018578 -0.32407235359221387
v 0.029154569193251025 -0.52571701594640396 -0.32407235359221387
v 0.49693229820654866 -0.15216602298122822 -0.32407235359221387
l 1 2
l 2 3
l 3 4
l 1 5
l 4 6
l 5 6
l 7 8
l 2 8
l 8 9
l 3 9
l 9 10
l 5 12
l 7 12
l 10 11
l 6 11
l 11 12
