v -0.44293312453333816 -0.091119982837745223 0.034715205688283825
v -0.023157404026284738 -0.36730374250150566 0.031018910337353052
v 0.19616006141747083 0.23329047522001969 0.076696245346771857
v -0.013968618412850645 0.37154083887778677 0.078546516703941582
v -0.13159933147164046 0.44893360227903978 0.079582289259786998
v -0.14397432164626914 0.45707085431865613 0.079690958709785847
v -0.14708133277935467 0.45911345743099341 0.079718215459018221
v -0.15164601954845086 0.46210242200923368 0.079757495987612309
v -0.15474109330169 0.46303087763515283 0.07971394006172422
v -0.15574979431577482 0.46331206715570727 0.079698377578808405
v -0.15903254895665334 0.46392949050081389 0.079628702803687973
v -0.16255736516735972 0.46365493260263424 0.079493971491371107
v -0.16503435287282664 0.46323845384948836 0.079385004698359324
v -0.16874684997117242 0.46216011896218134 0.079192661453894447
v -0.17184059739993662 0.46036156736595613 0.078974857467143889
v -0.17450858180423029 0.45853847784780066 0.078769639316176726
v -0.17556171560736955 0.45736464438129432 0.078659604018520374
v -0.17675544486014386 0.45562047392682947 0.078508442091987207
v -0.17760564504418183 0.45432992022995278 0.078397693079185454
v -0.18420895549261865 0.44429662852819962 0.077536901601367281
v -0.1934835661565365 0.43020001587475198 0.076327601133811235
v -0.48426134691760037 -0.011757566927708308 0.038413564517001328
v -0.49653951264812668 -0.030420855836964467 0.036812537838302344
v -0.49722325405526818 -0.031544287135135303 0.036718003900500423
v -0.4986152743319095 -0.033889964581435568 0.036521805767021048
v -0.49963458640136582 -0.036038013706534339 0.036350629025100376
v -0.49972875819651824 -0.036273443653987457 0.036332451118557756
v -0.50032363310640715 -0.040123882633874619 0.036066579588673611
v -0.50053386196969241 -0.041583547756597693 0.035966297785241699
v -0.50053386196969241 -0.04161140148971533 0.035964517863311188
v -0.50053319880745495 -0.041685014795934269 0.035959834825750651
v -0.50053253564521749 -0.041722152800376534 0.035957483196388806
v -0.50031036940208573 -0.043316444453025502 0.03586297269675328
v -0.49970355711235054 -0.047491179877618493 0.035616324599461832
v -0.49883279843937905 -0.050169111715474252 0.035474116971636167
v -0.49863715960488991 -0.050647929557230166 0.035450018400432867
v -0.49743281975631609 -0.05284240141766771 0.035349800477493684
v -0.49497373789083282 -0.056476642614560355 0.035199276436744045
v -0.4941149161381358 -0.057205480432565688 0.035181245593206269
v -0.4934729553306707 -0.05771480511596102 0.035170035256090068
v -0.49244966428778969 -0.058513276807188555 0.035153021904717065
v -0.48879486414239154 -0.060938536019845016 0.03511952003306959
v -0.47640263129001675 -0.069095683845729283 0.035010151574225823
v -0.46459068377830626 -0.076870175571294441 0.034905948703427232
v 0.0026076345950136995 -0.38425537842495572 0.025801859431914712
v 0.061992996761034334 -0.42332678986017036 0.0137771885006992
v 0.068176512645137882 -0.42739408978528959 0.012525240221309989
v 0.071367748139813822 -0.42949173674205277 0.011879298602132556
v 0.072388386533745019 -0.43001167202124779 0.011690965581981046
v 0.20152266747238262 -0.46312902905967468 -0.0081869097907115596
v 0.20683277203456471 -0.46395999661968212 -0.0089401039997505562
v 0.20755232512167354 -0.46402498881681398 -0.0090364091276170806
v 0.2106447462259628 -0.46344868290914631 -0.0093468200672341996
v 0.21280937486657026 -0.46279213207288494 -0.0095334862201401707
v 0.21525718205487268 -0.46202283997967819 -0.0097413243904530284
v 0.21671817396164261 -0.46144255509858567 -0.0098507250193291089
v 0.21921373066933064 -0.46007374595982764 -0.0099919280230029196
v 0.22230946758480727 -0.45742300469285213 -0.010051867686774508
v 0.22291694303677995 -0.45660530037759406 -0.010027644112017085
v 0.22318354252853803 -0.45620606430219435 -0.010012130343721611
v 0.22602262784539051 -0.4519112928360437 -0.0098416967295472963
v 0.22910775370549566 -0.44723519113447685 -0.0096553876639999658
v 0.23470368992389451 -0.43873186205047832 -0.0093148389189712053
v 0.2384765366241379 -0.43299864711277558 -0.0090852161219219033
v 0.25079382984581888 -0.41427766125057164 -0.0083351221848537941
v 0.48842480816939154 -0.053098389854054379 0.0061366739299791783
v 0.49171684754116662 -0.048094675896594427 0.0063371708989189294
v 0.49481523710559316 -0.043384752001772768 0.0065259400527941823
v 0.49600830319612993 -0.041568957727801392 0.0065988924946351023
v 0.4979156166163039 -0.038619121100287722 0.0067212015787614524
v 0.49910072430041919 -0.036315887415901395 0.0068540826546485975
v 0.49998275719099972 -0.034185744130786282 0.007003282668782744
v 0.50014987913013365 -0.032572883935488073 0.0071777977409133963
v 0.5001624796722175 -0.028717139198129238 0.0076425572785499083
v 0.50016380599669241 -0.025866116501430367 0.0079871929963976889
v 0.50016380599669241 -0.025490755185723458 0.008032588588561998
v 0.50000663195069239 -0.024420378245266119 0.0081813579838350831
v 0.49990516491135595 -0.024040374793896896 0.0082397870348037781
v 0.49930697419027975 -0.022459346845569276 0.0085045215838317149
v 0.49707204805464067 -0.017728201299576595 0.0093514087141136765
v 0.4962099104907563 -0.016135236430974462 0.0096500302560330181
v 0.41485927261014233 0.089109876316959033 0.032377546852322733
v 0.41441361379940383 0.089607263160936063 0.032492478888468547
v 0.41336843794311423 0.090373902605193013 0.032713664405186763
v 0.41322850611528855 0.090474042860482759 0.032742974981196146
v 0.36679311370708934 0.1210255456961901 0.042145497829724939
v -0.44293312453333816 -0.091119982837745223 -0.097038226005172978
v -0.023157404026284738 -0.36730374250150566 -0.097038226005172978
v 0.0026076345950136995 -0.38425537842495572 -0.097038226005172978
v 0.061992996761034334 -0.42332678986017036 -0.097038226005172978
v 0.068176512645137882 -0.42739408978528959 -0.097038226005172978
v 0.071367748139813822 -0.42949173674205277 -0.097038226005172978
v 0.072388386533745019 -0.43001167202124779 -0.097038226005172978
v 0.20152266747238262 -0.46312902905967468 -0.097038226005172978
v 0.20683277203456471 -0.46395999661968212 -0.097038226005172978
v 0.20755232512167354 -0.46402498881681398 -0.097038226005172978
v 0.2106447462259628 -0.46344868290914631 -0.097038226005172978
v 0.21280937486657026 -0.46279213207288494 -0.097038226005172978
v 0.21525718205487268 -0.46202283997967819 -0.097038226005172978
v 0.21671817396164261 -0.46144255509858567 -0.097038226005172978
v 0.21921373066933064 -0.46007374595982764 -0.097038226005172978
v 0.22230946758480727 -0.45742300469285213 -0.097038226005172978
v 0.22291694303677995 -0.45660530037759406 -0.097038226005172978
v 0.22318354252853803 -0.45620606430219435 -0.097038226005172978
v 0.22602262784539051 -0.4519112928360437 -0.097038226005172978
v 0.22910775370549566 -0.44723519113447685 -0.097038226005172978
v 0.23470368992389451 -0.43873186205047832 -0.097038226005172978
v 0.2384765366241379 -0.43299864711277558 -0.097038226005172978
v 0.25079382984581888 -0.41427766125057164 -0.097038226005172978
v 0.48842480816939154 -0.053098389854054379 -0.097038226005172978
v 0.49171684754116662 -0.048094675896594427 -0.097038226005172978
v 0.49481523710559316 -0.043384752001772768 -0.097038226005172978
v 0.49600830319612993 -0.041568957727801392 -0.097038226005172978
v 0.4979156166163039 -0.038619121100287722 -0.097038226005172978
v 0.49910072430041919 -0.036315887415901395 -0.097038226005172978
v 0.49998275719099972 -0.034185744130786282 -0.097038226005172978
v 0.50014987913013365 -0.032572883935488073 -0.097038226005172978
v 0.5001624796722175 -0.028717139198129238 -0.097038226005172978
v 0.50016380599669241 -0.025866116501430367 -0.097038226005172978
v 0.50016380599669241 -0.025490755185723458 -0.097038226005172978
v 0.50000663195069239 -0.024420378245266119 -0.097038226005172978
v 0.49990516491135595 -0.024040374793896896 -0.097038226005172978
v 0.49930697419027975 -0.022459346845569276 -0.097038226005172978
v 0.49707204805464067 -0.017728201299576595 -0.097038226005172978
v 0.4962099104907563 -0.016135236430974462 -0.097038226005172978
v 0.41485927261014233 0.089109876316959033 -0.097038226005172978
v 0.41441361379940383 0.089607263160936063 -0.097038226005172978
v 0.41336843794311423 0.090373902605193013 -0.097038226005172978
v 0.41322850611528855 0.090474042860482759 -0.097038226005172978
v 0.36679311370708934 0.1210255456961901 -0.097038226005172978
v 0.19616006141747083 0.23329047522001969 -0.097038226005172978
v -0.013968618412850645 0.37154083887778677 -0.097038226005172978
v -0.13159933147164046 0.44893360227903978 -0.097038226005172978
v -0.14397432164626914 0.45707085431865613 -0.097038226005172978
v -0.14708133277935467 0.45911345743099341 -0.097038226005172978
v -0.15164601954845086 0.46210242200923368 -0.097038226005172978
v -0.15474109330169 0.46303087763515283 -0.097038226005172978
v -0.15574979431577482 0.46331206715570727 -0.097038226005172978
v -0.15903254895665334 0.46392949050081389 -0.097038226005172978
v -0.16255736516735972 0.46365493260263424 -0.097038226005172978
v -0.16503435287282664 0.46323845384948836 -0.097038226005172978
v -0.16874684997117242 0.46216011896218134 -0.097038226005172978
v -0.17184059739993662 0.46036156736595613 -0.097038226005172978
v -0.17450858180423029 0.45853847784780066 -0.097038226005172978
v -0.17556171560736955 0.45736464438129432 -0.097038226005172978
v -0.17675544486014386 0.45562047392682947 -0.097038226005172978
v -0.17760564504418183 0.45432992022995278 -0.097038226005172978
v -0.18420895549261865 0.44429662852819962 -0.097038226005172978
v -0.1934835661565365 0.43020001587475198 -0.097038226005172978
v -0.48426134691760037 -0.011757566927708308 -0.097038226005172978
v -0.49653951264812668 -0.030420855836964467 -0.097038226005172978
v -0.49722325405526818 -0.031544287135135303 -0.097038226005172978
v -0.4986152743319095 -0.033889964581435568 -0.097038226005172978
v -0.49963458640136582 -0.036038013706534339 -0.097038226005172978
v -0.49972875819651824 -0.036273443653987457 -0.097038226005172978
v -0.50032363310640715 -0.040123882633874619 -0.097038226005172978
v -0.50053386196969241 -0.041583547756597693 -0.097038226005172978
v -0.50053386196969241 -0.04161140148971533 -0.097038226005172978
v -0.50053319880745495 -0.041685014795934269 -0.097038226005172978
v -0.50053253564521749 -0.041722152800376534 -0.097038226005172978
v -0.50031036940208573 -0.043316444453025502 -0.097038226005172978
v -0.49970355711235054 -0.047491179877618493 -0.097038226005172978
v -0.49883279843937905 -0.050169111715474252 -0.097038226005172978
v -0.49863715960488991 -0.050647929557230166 -0.097038226005172978
v -0.49743281975631609 -0.05284240141766771 -0.097038226005172978
v -0.49497373789083282 -0.056476642614560355 -0.097038226005172978
v -0.4941149161381358 -0.057205480432565688 -0.097038226005172978
v -0.4934729553306707 -0.05771480511596102 -0.097038226005172978
v -0.49244966428778969 -0.058513276807188555 -0.097038226005172978
v -0.48879486414239154 -0.060938536019845016 -0.097038226005172978
v -0.47640263129001675 -0.069095683845729283 -0.097038226005172978
v -0.46459068377830626 -0.076870175571294441 -0.097038226005172978
l 1 2
l 3 4
l 4 5
l 5 6
l 6 7
l 7 8
l 8 9
l 9 10
l 10 11
l 11 12
l 12 13
l 13 14
l 14 15
l 15 16
l 16 17
l 17 18
l 18 19
l 19 20
l 20 21
l 21 22
l 22 23
l 23 24
l 24 25
l 25 26
l 26 27
l 27 28
l 28 29
l 29 30
l 30 31
l 31 32
l 32 33
l 33 34
l 34 35
l 35 36
l 36 37
l 37 38
l 38 39
l 39 40
l 40 41
l 41 42
l 42 43
l 43 44
l 1 44
l 2 45
l 45 46
l 46 47
l 47 48
l 48 49
l 49 50
l 50 51
l 51 52
l 52 53
l 53 54
l 54 55
l 55 56
l 56 57
l 57 58
l 58 59
l 59 60
l 60 61
l 61 62
l 62 63
l 63 64
l 64 65
l 65 66
l 66 67
l 67 68
l 68 69
l 69 70
l 70 71
l 71 72
l 72 73
l 73 74
l 74 75
l 75 76
l 76 77
l 77 78
l 78 79
l 79 80
l 80 81
l 81 82
l 82 83
l 83 84
l 84 85
l 85 86
l 3 86
l 87 88
l 131 132
l 132 133
l 133 134
l 134 135
l 135 136
l 8 136
l 136 137
l 137 138
l 138 139
l 11 139
l 139 140
l 140 141
l 141 142
l 14 142
l 142 143
l 143 144
l 16 144
l 144 145
l 145 146
l 146 147
l 147 148
l 148 149
l 149 150
l 150 151
l 151 152
l 152 153
l 153 154
l 154 155
l 27 155
l 155 156
l 156 157
l 157 158
l 158 159
l 159 160
l 160 161
l 161 162
l 162 163
l 163 164
l 164 165
l 165 166
l 38 166
l 166 167
l 167 168
l 168 169
l 169 170
l 170 171
l 171 172
l 87 172
l 88 89
l 89 90
l 90 91
l 91 92
l 92 93
l 49 93
l 93 94
l 94 95
l 95 96
l 52 96
l 96 97
l 97 98
l 98 99
l 99 100
l 100 101
l 57 101
l 101 102
l 58 102
l 102 103
l 103 104
l 104 105
l 105 106
l 106 107
l 107 108
l 108 109
l 109 110
l 110 111
l 111 112
l 112 113
l 113 114
l 114 115
l 115 116
l 72 116
l 116 117
l 117 118
l 118 119
l 119 120
l 120 121
l 121 122
l 122 123
l 123 124
l 124 125
l 125 126
l 126 127
l 83 127
l 127 128
l 128 129
l 129 130
l 130 131
