v 0.059484607426439517 0.2387376609113108 0.49306252760630342
v -0.059058823390134053 0.268054298394442 0.37423759196251782
v -0.38485972856060929 0.34526696817490182 0.048455243558461474
v -0.39380995457083429 0.3231945699775855 0.045209604505177421
v -0.41872398174344877 0.22766515855813205 0.044211916145831649
v -0.50332126686311218 -0.11434389123561554 0.044981362007730494
v -0.50339366521761963 -0.13093212656299916 0.048823997725129541
v -0.44911312232020917 -0.14585520341620806 0.10358688356181391
v -0.060117054231495562 -0.24208156089399982 0.49351255823372542
v 0.38638914004975422 -0.34510407243404578 0.048027737774667033
v 0.39546606331177814 -0.31437104059324922 0.046647299484478162
v 0.42568325773087773 -0.19648868754987869 0.045692788998512882
v 0.49013574657114128 0.065728506931852698 0.04617678035348767
v 0.50217194554319011 0.11941176458727198 0.047369729229550038
v 0.50217194554319011 0.12925791872330519 0.049671966205353392
v 0.17222624417013707 -0.29955656100898032 0.26079670474261429
v 0.38339366489965415 -0.3495927604263025 0.049805207183893668
v 0.059484607426439517 0.2387376609113108 -0.49157683270431507
v -0.059058823390134053 0.268054298394442 -0.49157683270431507
v -0.38485972856060929 0.34526696817490182 -0.49157683270431507
v -0.39380995457083429 0.3231945699775855 -0.49157683270431507
v -0.41872398174344877 0.22766515855813205 -0.49157683270431507
v -0.50332126686311218 -0.11434389123561554 -0.49157683270431507
v -0.50339366521761963 -0.13093212656299916 -0.49157683270431507
v -0.44911312232020917 -0.14585520341620806 -0.49157683270431507
v -0.060117054231495562 -0.24208156089399982 -0.49157683270431507
v 0.17222624417013707 -0.29955656100898032 -0.49157683270431507
v 0.38339366489965415 -0.3495927604263025 -0.49157683270431507
v 0.38638914004975422 -0.34510407243404578 -0.49157683270431507
v 0.39546606331177814 -0.31437104059324922 -0.49157683270431507
v 0.42568325773087773 -0.19648868754987869 -0.49157683270431507
v 0.49013574657114128 0.065728506931852698 -0.49157683270431507
v 0.50217194554319011 0.11941176458727198 -0.49157683270431507
v 0.50217194554319011 0.12925791872330519 -0.49157683270431507
l 1 2
l 2 3
l 3 4
l 4 5
l 5 6
l 6 7
l 7 8
l 8 9
l 1 9
l 10 11
l 11 12
l 12 13
l 13 14
l 14 15
l 1 15
l 9 16
l 16 17
l 10 17
l 18 19
l 19 20
l 3 20
l 20 21
l 21 22
l 22 23
l 6 23
l 23 24
l 7 24
l 24 25
l 25 26
l 10 29
l 29 30
l 30 31
l 31 32
l 32 33
l 14 33
l 33 34
l 15 34
l 18 34
l 26 27
l 27 28
l 17 28
l 28 29
