# pointcloud_to_mesh 0.5.1; candidate requires geometry validation; coordinates preserved
v -5.222176203 -2.843379011 1.061824368
v -7.320470199 -5.342274797 1.062120614
v -9.058647666 -7.475574075 1.062300849
v -10.015710540 -8.738235374 1.062309414
v -6.690618376 -11.509145511 1.054907624
v 9.965891390 8.478666208 1.052711799
v 6.533248247 11.339202161 1.060353002
v 6.104580773 10.824801192 1.060409513
v -4.263512869 -1.740469327 1.061649080
v -9.058647666 -7.475574075 -1.080162438
v -10.015710540 -8.738235374 -1.080162438
v -6.690618376 -11.509145511 -1.080162438
v 9.965891390 8.478666208 -1.080162438
v 6.533248247 11.339202161 -1.080162438
v 6.104580773 10.824801192 -1.080162438
v -4.263512869 -1.740469327 -1.080162438
v -5.222176203 -2.843379011 -1.080162438
v -7.320470199 -5.342274797 -1.080162438
g roof
f 1 2 3
g roof
f 1 3 4
g roof
f 1 4 5
g roof
f 1 5 6
g roof
f 6 7 8
g roof
f 6 8 9
g roof
f 6 9 1
g facade_completed
f 4 3 10 11
g facade_completed
f 5 4 11 12
g facade_completed
f 6 5 12 13
g facade_completed
f 7 6 13 14
g facade_completed
f 8 7 14 15
g facade_completed
f 9 8 15 16
g facade_completed
f 1 9 16 17
g facade_completed
f 2 1 17 18
g facade_completed
f 3 2 18 10
g ground_assumed
f 18 11 10
g ground_assumed
f 18 12 11
g ground_assumed
f 18 13 12
g ground_assumed
f 13 15 14
g ground_assumed
f 13 16 15
g ground_assumed
f 13 17 16
g ground_assumed
f 13 18 17
