v 2685527.8852930851 1251241.6372931895 434.24080113213489
v 2685525.1270228266 1251238.3524198886 434.24119055636834
v 2685522.8421365237 1251235.5481341395 434.24142748067015
v 2685521.5840487317 1251233.8883280712 434.24143873961901
v 2685525.9549818989 1251230.2458837647 434.23170886513338
v 2685547.8504625047 1251256.5204604913 434.22882238745132
v 2685543.3381503564 1251260.2807206153 434.23886697749089
v 2685542.7746541323 1251259.6045251461 434.23894126289173
v 2685529.1454847297 1251243.0871009785 434.24057071081268
v 2685522.8421365237 1251235.5481341395 431.4250953674109
v 2685521.5840487317 1251233.8883280712 431.4250953674109
v 2685525.9549818989 1251230.2458837647 431.4250953674109
v 2685547.8504625047 1251256.5204604913 431.4250953674109
v 2685543.3381503564 1251260.2807206153 431.4250953674109
v 2685542.7746541323 1251259.6045251461 431.4250953674109
v 2685529.1454847297 1251243.0871009785 431.4250953674109
v 2685527.8852930851 1251241.6372931895 431.4250953674109
v 2685525.1270228266 1251238.3524198886 431.4250953674109
l 1 2
l 2 3
l 3 4
l 4 5
l 5 6
l 6 7
l 7 8
l 8 9
l 1 9
l 10 11
l 4 11
l 11 12
l 5 12
l 12 13
l 6 13
l 13 14
l 7 14
l 14 15
l 15 16
l 16 17
l 17 18
l 10 18
