# pointcloud_to_mesh 0.5.1; candidate requires geometry validation; coordinates preserved
v -4.961868852 0.000006097 2.305134467
v -3.900179504 -0.053264332 2.307098850
v -0.551276082 4.778077640 2.308864896
v 0.551269984 5.513187613 2.310204427
v 0.737817089 5.737329483 2.310342665
v 2.937592543 8.597037573 2.311780820
v 3.221833602 9.481057205 2.311510714
v 3.761549568 10.182687960 2.311863566
v 2.413747348 9.434627731 2.310092632
v 2.282458330 9.454370165 2.309838058
v 0.895671205 7.651546902 2.308931413
v 0.617704069 6.481609506 2.309466217
v 0.226940442 6.782196911 2.308494215
v -0.047124545 6.425912428 2.308315039
v 0.272619972 6.179955107 2.309110384
v -0.460984015 5.226269923 2.308630774
v -0.780728532 5.472227244 2.307835428
v -0.812311550 5.431169321 2.307814780
v -3.628705787 4.379454841 2.303660977
v -3.859206941 3.859206941 2.303705765
v -3.491642808 3.124170133 2.305020865
v -4.594323011 3.675397437 2.302541191
v -2.756575515 5.513224195 2.304231152
v -3.186281368 6.112368669 2.302924261
v -4.532156902 4.362730475 2.302044363
v -6.064512471 3.491691585 2.300049145
v -6.162206426 3.015507481 2.300294706
v -7.340655385 1.483523835 2.299524267
v -5.742012061 0.253798201 2.303500799
v -6.132105006 -0.253322627 2.303245767
v -5.027979789 -1.102649717 2.305992213
v -5.791764459 -2.095569788 2.305492871
v -6.895889676 -1.246242698 2.302746425
v -7.016124638 -1.402548149 2.302667818
v -7.389157876 -1.850752626 2.302391383
v -8.782834733 -3.662532540 2.301480234
v -8.909233871 -5.205045891 2.302618898
v -7.630335065 -6.188814204 2.305800083
v -7.596172971 -6.511954810 2.306148127
v -6.370538496 -7.454750560 2.309196821
v -5.329378110 -7.902259967 2.311473492
v -5.370393353 -8.323131111 2.311772387
v -4.553356545 -8.951620963 2.313804718
v -3.113219728 -10.130069922 2.317449582
v -1.671741547 -8.256148287 2.318391982
v -1.286392152 -6.799659027 2.317797157
v -0.657884008 -6.533843426 2.318696550
v -0.077195479 -5.778948339 2.319076188
v 1.091010338 -4.443974434 2.320002712
v 1.384165369 -4.118145004 2.320243349
v 1.923820364 -3.416593511 2.320596161
v 2.119165594 -3.015525772 2.320593501
v 2.658881560 -2.313895017 2.320946353
v 2.756575515 -1.837710913 2.320700792
v 3.752672179 -1.020716785 2.321775537
v 3.542474395 -1.193106405 2.321548731
v 2.771964615 -0.600406575 2.319632133
v 3.111085740 -0.159549112 2.319853841
v 0.448899548 1.888286421 2.313231809
v -0.972183808 -2.164265899 2.314256851
v -1.488669794 -2.835697681 2.313919187
v -0.737262252 -3.413703482 2.315788269
v -1.286404346 -5.513163224 2.316657095
v -1.286447026 -5.880770036 2.316982776
v -2.389029674 -6.064518568 2.315154584
v -2.389011383 -6.432046118 2.315480305
v -1.373556402 -4.240885877 2.315372277
v -2.465950784 -3.400582506 2.312655010
v -1.754040305 -2.631566518 2.313259093
v -1.600673660 -2.981302707 2.313845962
v -2.021520416 -2.021459445 2.312235431
v -0.479604582 2.666106632 2.310865862
v -3.083142696 -0.681754184 2.309131182
v -3.124139647 -1.286459220 2.309593015
v 2.762581166 9.166294025 2.310960335
v 1.682722438 7.762477678 2.310254353
v 1.333888620 8.030811384 2.309386649
v 1.286434831 7.350959497 2.309903415
v -1.884451340 4.842359445 2.306400510
v -2.756581612 3.708590091 2.305830335
v -5.783874802 2.687769656 2.301268318
v -3.539517297 -6.861788553 2.313783564
v -3.545010791 -5.104650918 2.312216540
v -1.829656634 -2.573400111 2.313071002
v -5.536911459 -4.192133404 2.307810969
v -4.274663853 -1.532367764 2.307733335
v -4.914073625 -1.040514093 2.306142841
v -4.979202928 2.068791291 2.303269892
v -6.501626310 1.754692696 2.300799071
v -4.392142922 -6.205922688 2.311662708
v -4.295662292 -5.146940456 2.310898504
v -5.591907369 -6.832059057 2.310051054
v -6.833156536 -5.877252005 2.306963519
v -4.594347399 2.756569418 2.303355375
v -5.696954436 1.135714331 2.302800645
v 6.064475889 8.453597019 2.317554395
v 5.625228062 8.911587355 2.316355358
v 4.666073773 9.649398346 2.313969518
v 5.428498788 8.582361835 2.316291854
v 5.908115564 8.213425854 2.317484873
v 6.088393196 8.447786775 2.317602734
v 7.531226580 7.714036158 2.320858394
v 6.803042922 8.274177434 2.319047080
v 6.682225759 8.303527447 2.318802901
v 7.020959645 8.042962919 2.319645482
v 6.689642817 7.612251043 2.319428876
v 7.435660516 7.038391275 2.321284551
v 7.445915851 5.581517898 2.322594092
v 5.785795391 3.423361300 2.321508750
v 5.554800372 2.865896655 2.321585626
v 5.175804163 0.805245002 2.322727308
v 4.418055630 1.388128489 2.320842453
v 4.145027151 1.033191467 2.320663954
v 4.953265833 0.411469404 2.322674400
v 6.040624004 1.825035026 2.323385286
v 6.763929976 2.780585925 2.323844647
v 6.547537530 2.484022611 2.323716693
v 7.062894600 3.190260696 2.324021475
v 6.270442281 3.799839404 2.322050296
v 7.144938231 3.692487630 2.323724574
v 7.069498718 3.199310887 2.324025380
v 7.220438714 4.185743636 2.323423808
v 7.210098020 4.118504733 2.323464720
v 6.784062626 4.446224267 2.322404982
v 7.751734574 5.704197800 2.323037620
v 8.356031103 5.239354316 2.324540772
v 8.907209631 5.955886402 2.324901118
v 8.637339454 6.983413656 2.323503239
v 7.534659252 7.350947303 2.321186347
v 5.772893911 1.581461674 2.323117669
v 5.374502803 2.337435950 2.321728349
v 6.105180179 3.287316538 2.322206046
v 6.543653673 4.155014213 2.322228914
v 5.015145378 2.164345162 2.321232814
v -5.591907369 -6.832059057 3.385825285
v -4.295662292 -5.146940456 3.385825285
v -5.536911459 -4.192133404 3.385825285
v -6.833156536 -5.877252005 3.385825285
v -5.027979789 -1.102649717 3.256452836
v -6.132105006 -0.253322627 3.256452836
v -6.895889676 -1.246242698 3.256452836
v -5.791764459 -2.095569788 3.256452836
v -5.696954436 1.135714331 3.215278882
v -4.979202928 2.068791291 3.215278882
v -5.783874802 2.687769656 3.215278882
v -6.501626310 1.754692696 3.215278882
v -0.737262252 -3.413703482 3.457149503
v -1.488669794 -2.835697681 3.457149503
v -1.600673660 -2.981302707 3.457149503
v -1.754040305 -2.631566518 3.457149503
v -1.829656634 -2.573400111 3.457149503
v -2.465950784 -3.400582506 3.457149503
v -1.373556402 -4.240885877 3.457149503
v -2.756581612 3.708590091 3.107940353
v -1.884451340 4.842359445 3.107940353
v -2.756575515 5.513224195 3.107940353
v -3.628705787 4.379454841 3.107940353
v 0.272619972 6.179955107 6.121122734
v -0.047124545 6.425912428 6.121122734
v -0.780728532 5.472227244 6.121122734
v -0.460984015 5.226269923 6.121122734
v 1.286434831 7.350959497 6.138046364
v 0.895671205 7.651546902 6.138046364
v 0.226940442 6.782196911 6.138046364
v 0.617704069 6.481609506 6.138046364
v 3.184244934 -0.215825415 6.267342540
v 3.111085740 -0.159549112 6.267342540
v 2.771964615 -0.600406575 6.267342540
v 3.542474395 -1.193106405 6.267342540
v 3.752672179 -1.020716785 6.267342540
v 4.333421679 -0.265742435 6.267342540
v 4.846444507 0.272601681 6.267342540
v 4.953265833 0.411469404 6.267342540
v 4.145027151 1.033191467 6.267342540
v 1.682722438 7.762477678 6.201236292
v 2.762581166 9.166294025 6.201236292
v 2.413747348 9.434627731 6.201236292
v 1.333888620 8.030811384 6.201236292
v 5.772893911 1.581461674 6.274727560
v 5.015145378 2.164345162 6.274727560
v 4.418055630 1.388128489 6.274727560
v 5.175804163 0.805245002 6.274727560
v 5.374502803 2.337435950 6.246766780
v 6.040624004 1.825035026 6.246766780
v 6.547537530 2.484022611 6.246766780
v 6.763929976 2.780585925 6.246766780
v 6.105180179 3.287316538 6.246766780
v 6.270442281 3.799839404 6.265162030
v 7.062894600 3.190260696 6.265162030
v 7.069498718 3.199310887 6.265162030
v 7.144938231 3.692487630 6.265162030
v 6.543653673 4.155014213 6.265162030
v 7.848989538 5.002859706 6.299745101
v 8.101050063 4.907878964 6.299745101
v 8.356031103 5.239354316 6.299745101
v 7.751734574 5.704197800 6.299745101
v 6.784062626 4.446224267 6.299745101
v 7.210098020 4.118504733 6.299745101
v 7.220438714 4.185743636 6.299745101
v 6.088393215 8.447786800 6.262954600
v 5.908115564 8.213425854 6.262954600
v 6.689642817 7.612251043 6.262954600
v 7.020959645 8.042962919 6.262954600
v 6.682225759 8.303527447 6.262954600
v 2.937592543 8.597037573 -3.159760222
v 3.221833602 9.481057205 -3.159760222
v 3.761549568 10.182687960 -3.159760222
v 2.282458330 9.454370165 -3.159760222
v 0.895671205 7.651546902 -3.159760222
v 0.226940442 6.782196911 -3.159760222
v -0.047124545 6.425912428 -3.159760222
v -0.780728532 5.472227244 -3.159760222
v -0.812311550 5.431169321 -3.159760222
v -3.186281368 6.112368669 -3.159760222
v -4.532156902 4.362730475 -3.159760222
v -6.064512471 3.491691585 -3.159760222
v -6.162206426 3.015507481 -3.159760222
v -7.340655385 1.483523835 -3.159760222
v -5.742012061 0.253798201 -3.159760222
v -6.132105006 -0.253322627 -3.159760222
v -6.895889676 -1.246242698 -3.159760222
v -7.016124638 -1.402548149 -3.159760222
v -7.389157876 -1.850752626 -3.159760222
v -8.782834733 -3.662532540 -3.159760222
v -8.909233871 -5.205045891 -3.159760222
v -7.630335065 -6.188814204 -3.159760222
v -7.596172971 -6.511954810 -3.159760222
v -6.370538496 -7.454750560 -3.159760222
v -5.329378110 -7.902259967 -3.159760222
v -5.370393353 -8.323131111 -3.159760222
v -4.553356545 -8.951620963 -3.159760222
v -3.113219728 -10.130069922 -3.159760222
v -1.671741547 -8.256148287 -3.159760222
v -1.286392152 -6.799659027 -3.159760222
v -0.657884008 -6.533843426 -3.159760222
v -0.077195479 -5.778948339 -3.159760222
v 1.091010338 -4.443974434 -3.159760222
v 1.384165369 -4.118145004 -3.159760222
v 1.923820364 -3.416593511 -3.159760222
v 2.119165594 -3.015525772 -3.159760222
v 2.658881560 -2.313895017 -3.159760222
v 2.756575515 -1.837710913 -3.159760222
v 3.752672179 -1.020716785 -3.159760222
v 3.111085740 -0.159549112 -3.159760222
v 0.448899548 1.888286421 -3.159760222
v -0.479604582 2.666106632 -3.159760222
v -0.551276082 4.778077640 -3.159760222
v 0.551269984 5.513187613 -3.159760222
v 0.737817089 5.737329483 -3.159760222
v -4.392142922 -6.205922688 -3.159760222
v -3.545010791 -5.104650918 -3.159760222
v -1.286404346 -5.513163224 -3.159760222
v -1.286447026 -5.880770036 -3.159760222
v -2.389029674 -6.064518568 -3.159760222
v -2.389011383 -6.432046118 -3.159760222
v -3.539517297 -6.861788553 -3.159760222
v -4.961868852 0.000006097 -3.159760222
v -3.900179504 -0.053264332 -3.159760222
v -3.083142696 -0.681754184 -3.159760222
v -3.124139647 -1.286459220 -3.159760222
v -4.274663853 -1.532367764 -3.159760222
v -4.914073625 -1.040514093 -3.159760222
v -0.972183808 -2.164265899 -3.159760222
v -1.488669794 -2.835697681 -3.159760222
v -1.600673660 -2.981302707 -3.159760222
v -2.021520416 -2.021459445 -3.159760222
v -3.491642808 3.124170133 -3.159760222
v -4.594347399 2.756569418 -3.159760222
v -4.594323011 3.675397437 -3.159760222
v -3.859206941 3.859206941 -3.159760222
v 4.666073773 9.649398346 -3.159760222
v 5.428498788 8.582361835 -3.159760222
v 5.908115564 8.213425854 -3.159760222
v 6.088393196 8.447786775 -3.159760222
v 6.064475889 8.453597019 -3.159760222
v 5.625228062 8.911587355 -3.159760222
v 4.418055630 1.388128489 -3.159760222
v 4.145027151 1.033191467 -3.159760222
v 4.953265833 0.411469404 -3.159760222
v 6.040624004 1.825035026 -3.159760222
v 6.547537530 2.484022611 -3.159760222
v 7.062894587 3.190260706 -3.159760222
v 7.069498718 3.199310887 -3.159760222
v 7.220438714 4.185743636 -3.159760222
v 8.356031103 5.239354316 -3.159760222
v 8.907209631 5.955886402 -3.159760222
v 8.637339454 6.983413656 -3.159760222
v 7.534659252 7.350947303 -3.159760222
v 7.531226580 7.714036158 -3.159760222
v 6.803042922 8.274177434 -3.159760222
v 6.682225759 8.303527447 -3.159760222
v 6.689642817 7.612251043 -3.159760222
v 7.435660516 7.038391275 -3.159760222
v 7.445915851 5.581517898 -3.159760222
v 5.785795391 3.423361300 -3.159760222
v 5.554800372 2.865896655 -3.159760222
v 5.015145378 2.164345162 -3.159760222
v 4.333421679 -0.265742435 -3.159760222
v 4.846444507 0.272601681 -3.159760222
v 3.184244934 -0.215825415 -3.159760222
v 7.848989538 5.002859706 -3.159760222
v 8.101050063 4.907878964 -3.159760222
g roof
f 1 2 3
g roof
f 3 4 5
g roof
f 3 5 6
g roof
f 3 6 7
g roof
f 3 7 8
g roof
f 9 8 10
g roof
f 9 10 11
g roof
f 12 13 14
g roof
f 12 14 15
g roof
f 12 15 16
g roof
f 16 17 18
g roof
f 19 20 21
g roof
f 22 20 19
g roof
f 23 18 24
g roof
f 23 24 25
g roof
f 25 26 27
g roof
f 25 27 28
g roof
f 29 30 31
g roof
f 32 33 34
g roof
f 32 34 35
g roof
f 32 35 36
g roof
f 32 36 37
g roof
f 32 37 38
g roof
f 32 38 39
g roof
f 39 40 41
g roof
f 41 42 43
g roof
f 41 43 44
g roof
f 41 44 45
g roof
f 41 45 46
g roof
f 41 46 47
g roof
f 41 47 48
g roof
f 49 50 51
g roof
f 49 51 52
g roof
f 52 53 54
g roof
f 54 55 56
g roof
f 54 56 57
g roof
f 57 58 59
g roof
f 57 59 60
g roof
f 57 60 61
g roof
f 57 61 62
g roof
f 57 62 63
g roof
f 57 63 64
g roof
f 64 65 66
g roof
f 63 62 67
g roof
f 63 67 68
g roof
f 69 70 71
g roof
f 71 60 59
g roof
f 71 59 72
g roof
f 71 72 3
g roof
f 3 2 73
g roof
f 3 73 74
g roof
f 8 9 75
g roof
f 8 75 76
g roof
f 77 9 11
g roof
f 77 11 78
g roof
f 16 18 23
g roof
f 16 23 79
g roof
f 16 79 80
g roof
f 80 19 21
g roof
f 22 19 23
g roof
f 81 23 25
g roof
f 81 25 28
g roof
f 31 32 39
g roof
f 48 49 52
g roof
f 48 52 54
g roof
f 48 54 57
g roof
f 48 57 64
g roof
f 48 64 66
g roof
f 48 66 82
g roof
f 83 63 68
g roof
f 84 69 71
g roof
f 71 3 74
g roof
f 85 74 86
g roof
f 85 86 87
g roof
f 3 8 76
g roof
f 76 77 78
g roof
f 76 78 12
g roof
f 16 80 21
g roof
f 22 23 81
g roof
f 22 81 88
g roof
f 89 81 28
g roof
f 89 28 29
g roof
f 89 29 31
g roof
f 41 48 82
g roof
f 41 82 90
g roof
f 90 83 68
g roof
f 68 84 71
g roof
f 68 71 74
g roof
f 68 74 85
g roof
f 68 85 91
g roof
f 68 91 92
g roof
f 93 85 87
g roof
f 3 76 12
g roof
f 3 12 16
g roof
f 3 16 21
g roof
f 94 22 88
g roof
f 95 89 31
g roof
f 90 68 92
g roof
f 1 3 21
g roof
f 1 21 94
g roof
f 1 94 88
g roof
f 1 88 95
g roof
f 1 95 31
g roof
f 41 90 92
g roof
f 41 92 93
g roof
f 87 1 31
g roof
f 87 31 39
g roof
f 39 41 93
g roof
f 39 93 87
g roof
f 96 97 98
g roof
f 96 98 99
g roof
f 96 99 100
g roof
f 96 100 101
g roof
f 102 103 104
g roof
f 102 104 105
g roof
f 102 105 106
g roof
f 102 106 107
g roof
f 102 107 108
g roof
f 108 109 110
g roof
f 111 112 113
g roof
f 111 113 114
g roof
f 111 114 115
g roof
f 116 117 118
g roof
f 116 118 119
g roof
f 120 121 122
g roof
f 120 122 123
g roof
f 120 123 124
g roof
f 125 126 127
g roof
f 125 127 128
g roof
f 125 128 129
g roof
f 129 102 108
g roof
f 130 111 115
g roof
f 130 115 131
g roof
f 132 116 119
g roof
f 133 120 124
g roof
f 133 124 125
g roof
f 125 129 108
g roof
f 134 130 131
g roof
f 134 131 132
g roof
f 133 125 108
g roof
f 110 134 132
g roof
f 110 132 119
g roof
f 119 133 108
g roof
f 119 108 110
g roof_fixture
f 135 136 137
g roof_fixture
f 135 137 138
g roof_fixture
f 139 140 141
g roof_fixture
f 139 141 142
g roof_fixture
f 143 144 145
g roof_fixture
f 143 145 146
g roof_fixture
f 147 148 149
g roof_fixture
f 149 150 151
g roof_fixture
f 149 151 152
g roof_fixture
f 149 152 153
g roof_fixture
f 149 153 147
g roof_fixture
f 154 155 156
g roof_fixture
f 154 156 157
g roof_fixture
f 158 159 160
g roof_fixture
f 158 160 161
g roof_fixture
f 162 163 164
g roof_fixture
f 162 164 165
g roof_fixture
f 166 167 168
g roof_fixture
f 166 168 169
g roof_fixture
f 166 169 170
g roof_fixture
f 166 170 171
g roof_fixture
f 166 171 172
g roof_fixture
f 166 172 173
g roof_fixture
f 166 173 174
g roof_fixture
f 175 176 177
g roof_fixture
f 175 177 178
g roof_fixture
f 179 180 181
g roof_fixture
f 179 181 182
g roof_fixture
f 183 184 185
g roof_fixture
f 183 185 186
g roof_fixture
f 183 186 187
g roof_fixture
f 188 189 190
g roof_fixture
f 188 190 191
g roof_fixture
f 188 191 192
g roof_fixture
f 193 194 195
g roof_fixture
f 193 195 196
g roof_fixture
f 193 196 197
g roof_fixture
f 197 198 199
g roof_fixture
f 197 199 193
g roof_fixture
f 200 201 202
g roof_fixture
f 200 202 203
g roof_fixture
f 200 203 204
g facade_completed
f 7 6 205 206
g facade_completed
f 8 7 206 207
g facade_completed
f 10 8 207 208
g facade_completed
f 11 10 208 209
g roof_step_or_fixture_side
f 163 162 78 11
g roof_step_or_fixture_side
f 162 165 12 78
g roof_step_or_fixture_side
f 165 164 13 12
g facade_completed
f 14 13 210 211
g roof_step_or_fixture_side
f 159 158 15 14
g roof_step_or_fixture_side
f 158 161 16 15
g roof_step_or_fixture_side
f 161 160 17 16
g facade_completed
f 18 17 212 213
g facade_completed
f 24 18 213 214
g facade_completed
f 25 24 214 215
g facade_completed
f 26 25 215 216
g facade_completed
f 27 26 216 217
g facade_completed
f 28 27 217 218
g facade_completed
f 29 28 218 219
g facade_completed
f 30 29 219 220
g roof_step_or_fixture_side
f 140 139 31 30
g roof_step_or_fixture_side
f 139 142 32 31
g roof_step_or_fixture_side
f 142 141 33 32
g facade_completed
f 34 33 221 222
g facade_completed
f 35 34 222 223
g facade_completed
f 36 35 223 224
g facade_completed
f 37 36 224 225
g facade_completed
f 38 37 225 226
g facade_completed
f 39 38 226 227
g facade_completed
f 40 39 227 228
g facade_completed
f 41 40 228 229
g facade_completed
f 42 41 229 230
g facade_completed
f 43 42 230 231
g facade_completed
f 44 43 231 232
g facade_completed
f 45 44 232 233
g facade_completed
f 46 45 233 234
g facade_completed
f 47 46 234 235
g facade_completed
f 48 47 235 236
g facade_completed
f 49 48 236 237
g facade_completed
f 50 49 237 238
g facade_completed
f 51 50 238 239
g facade_completed
f 52 51 239 240
g facade_completed
f 53 52 240 241
g facade_completed
f 54 53 241 242
g facade_completed
f 55 54 242 243
g roof_step_or_fixture_side
f 170 169 56 55
g roof_step_or_fixture_side
f 169 168 57 56
g roof_step_or_fixture_side
f 168 167 58 57
g facade_completed
f 59 58 244 245
g facade_completed
f 72 59 245 246
g facade_completed
f 3 72 246 247
g facade_completed
f 4 3 247 248
g facade_completed
f 5 4 248 249
g facade_completed
f 6 5 249 205
g facade_completed
f 83 90 250 251
g facade_completed
f 63 83 251 252
g facade_completed
f 64 63 252 253
g facade_completed
f 65 64 253 254
g facade_completed
f 66 65 254 255
g facade_completed
f 82 66 255 256
g facade_completed
f 90 82 256 250
g facade_completed
f 2 1 257 258
g facade_completed
f 73 2 258 259
g facade_completed
f 74 73 259 260
g facade_completed
f 86 74 260 261
g facade_completed
f 87 86 261 262
g facade_completed
f 1 87 262 257
g facade_completed
f 61 60 263 264
g roof_step_or_fixture_side
f 148 147 62 61
g roof_step_or_fixture_side
f 147 153 67 62
g roof_step_or_fixture_side
f 153 152 68 67
g roof_step_or_fixture_side
f 152 151 84 68
g roof_step_or_fixture_side
f 151 150 69 84
g roof_step_or_fixture_side
f 150 149 70 69
g facade_completed
f 71 70 265 266
g facade_completed
f 60 71 266 263
g facade_completed
f 94 21 267 268
g facade_completed
f 22 94 268 269
g facade_completed
f 20 22 269 270
g facade_completed
f 21 20 270 267
g roof_step_or_fixture_side
f 138 137 85 93
g roof_step_or_fixture_side
f 137 136 91 85
g roof_step_or_fixture_side
f 136 135 92 91
g roof_step_or_fixture_side
f 135 138 93 92
g roof_step_or_fixture_side
f 146 145 81 89
g roof_step_or_fixture_side
f 145 144 88 81
g roof_step_or_fixture_side
f 144 143 95 88
g roof_step_or_fixture_side
f 143 146 89 95
g roof_step_or_fixture_side
f 157 156 23 19
g roof_step_or_fixture_side
f 156 155 79 23
g roof_step_or_fixture_side
f 155 154 80 79
g roof_step_or_fixture_side
f 154 157 19 80
g roof_step_or_fixture_side
f 178 177 9 77
g roof_step_or_fixture_side
f 177 176 75 9
g roof_step_or_fixture_side
f 176 175 76 75
g roof_step_or_fixture_side
f 175 178 77 76
g facade_completed
f 99 98 271 272
g facade_completed
f 100 99 272 273
g roof_step_or_fixture_side
f 201 200 101 100
g facade_completed
f 96 101 274 275
g facade_completed
f 97 96 275 276
g facade_completed
f 98 97 276 271
g roof_step_or_fixture_side
f 182 181 112 111
g facade_completed
f 113 112 277 278
g roof_step_or_fixture_side
f 174 173 114 113
g facade_completed
f 115 114 279 280
g roof_step_or_fixture_side
f 184 183 131 115
g roof_step_or_fixture_side
f 183 187 132 131
g roof_step_or_fixture_side
f 187 186 116 132
g roof_step_or_fixture_side
f 186 185 117 116
g facade_completed
f 118 117 281 282
g roof_step_or_fixture_side
f 189 188 119 118
g roof_step_or_fixture_side
f 188 192 133 119
g roof_step_or_fixture_side
f 192 191 120 133
g roof_step_or_fixture_side
f 191 190 121 120
g facade_completed
f 122 121 283 284
g roof_step_or_fixture_side
f 199 198 123 122
g roof_step_or_fixture_side
f 198 197 124 123
g roof_step_or_fixture_side
f 197 196 125 124
g roof_step_or_fixture_side
f 196 195 126 125
g facade_completed
f 127 126 285 286
g facade_completed
f 128 127 286 287
g facade_completed
f 129 128 287 288
g facade_completed
f 102 129 288 289
g facade_completed
f 103 102 289 290
g facade_completed
f 104 103 290 291
g roof_step_or_fixture_side
f 204 203 105 104
g roof_step_or_fixture_side
f 203 202 106 105
g facade_completed
f 107 106 292 293
g facade_completed
f 108 107 293 294
g facade_completed
f 109 108 294 295
g facade_completed
f 110 109 295 296
g facade_completed
f 134 110 296 297
g roof_step_or_fixture_side
f 180 179 130 134
g roof_step_or_fixture_side
f 179 182 111 130
g facade_completed
f 141 140 30 220 221 33
g facade_completed
f 149 148 61 264 265 70
g facade_completed
f 160 159 14 211 212 17
g facade_completed
f 164 163 11 209 210 13
g facade_completed
f 171 170 55 243 298
g facade_completed
f 172 171 298 299
g facade_completed
f 173 172 299 279 114
g facade_completed
f 166 174 113 278 300
g facade_completed
f 167 166 300 244 58
g facade_completed
f 181 180 134 297 277 112
g facade_completed
f 185 184 115 280 281 117
g facade_completed
f 190 189 118 282 283 121
g facade_completed
f 193 199 122 284 301
g facade_completed
f 194 193 301 302
g facade_completed
f 195 194 302 285 126
g facade_completed
f 200 204 104 291 274 101
g facade_completed
f 202 201 100 273 292 106
g ground_assumed
f 300 252 245 244
g ground_assumed
f 300 253 252
g ground_assumed
f 253 255 254
g ground_assumed
f 252 263 245
g ground_assumed
f 252 265 264 263
g ground_assumed
f 252 266 265
g ground_assumed
f 266 245 263
g ground_assumed
f 266 246 245
g ground_assumed
f 247 259 258
g ground_assumed
f 247 260 259
g ground_assumed
f 257 247 258
g ground_assumed
f 247 249 248
g ground_assumed
f 247 205 249
g ground_assumed
f 247 206 205
g ground_assumed
f 247 207 206
g ground_assumed
f 247 208 207
g ground_assumed
f 247 213 212 211 210 209 208
g ground_assumed
f 247 270 213
g ground_assumed
f 247 267 270
g ground_assumed
f 269 213 270
g ground_assumed
f 269 214 213
g ground_assumed
f 269 215 214
g ground_assumed
f 269 216 215
g ground_assumed
f 269 217 216
g ground_assumed
f 269 218 217
g ground_assumed
f 269 219 218
g ground_assumed
f 222 224 223
g ground_assumed
f 222 225 224
g ground_assumed
f 222 226 225
g ground_assumed
f 222 227 226
g ground_assumed
f 222 228 227
g ground_assumed
f 222 229 228
g ground_assumed
f 229 231 230
g ground_assumed
f 229 232 231
g ground_assumed
f 229 233 232
g ground_assumed
f 229 234 233
g ground_assumed
f 229 235 234
g ground_assumed
f 229 236 235
g ground_assumed
f 237 239 238
g ground_assumed
f 237 240 239
g ground_assumed
f 240 242 241
g ground_assumed
f 242 298 243
g ground_assumed
f 242 299 298
g ground_assumed
f 242 281 280 279 299
g ground_assumed
f 242 282 281
g ground_assumed
f 242 283 282
g ground_assumed
f 242 284 283
g ground_assumed
f 301 286 285 302
g ground_assumed
f 301 287 286
g ground_assumed
f 301 288 287
g ground_assumed
f 288 290 289
g ground_assumed
f 288 291 290
g ground_assumed
f 288 274 291
g ground_assumed
f 288 275 274
g ground_assumed
f 275 271 276
g ground_assumed
f 275 272 271
g ground_assumed
f 275 293 292 273 272
g ground_assumed
f 294 296 295
g ground_assumed
f 251 266 252
g ground_assumed
f 251 246 266
g ground_assumed
f 251 247 246
g ground_assumed
f 251 260 247
g ground_assumed
f 251 261 260
g ground_assumed
f 251 262 261
g ground_assumed
f 257 267 247
g ground_assumed
f 257 268 267
g ground_assumed
f 257 269 268
g ground_assumed
f 257 219 269
g ground_assumed
f 257 222 221 220 219
g ground_assumed
f 257 229 222
g ground_assumed
f 236 240 237
g ground_assumed
f 236 242 240
g ground_assumed
f 288 293 275
g ground_assumed
f 288 294 293
g ground_assumed
f 250 262 251
g ground_assumed
f 262 229 257
g ground_assumed
f 301 294 288
g ground_assumed
f 301 296 294
g ground_assumed
f 301 300 278 277 297 296
g ground_assumed
f 301 253 300
g ground_assumed
f 250 229 262
g ground_assumed
f 284 253 301
g ground_assumed
f 256 229 250
g ground_assumed
f 256 236 229
g ground_assumed
f 242 253 284
g ground_assumed
f 255 236 256
g ground_assumed
f 236 253 242
g ground_assumed
f 236 255 253
