# Source coordinates; no display transform
v 2684564.25 1248824.125 610.982930655
v 2684564.97215 1248824.08877 610.984266803
v 2684567.25003 1248827.37499 610.985468044
v 2684567.99997 1248827.875 610.986379175
v 2684568.12685 1248828.02746 610.986473203
v 2684569.62311 1248829.97259 610.987451417
v 2684569.81645 1248830.57389 610.987267694
v 2684570.18356 1248831.05113 610.9875077
v 2684569.2668 1248830.54231 610.986303134
v 2684569.1775 1248830.55574 610.986129976
v 2684568.23422 1248829.32948 610.985513288
v 2684568.04515 1248828.53371 610.985877055
v 2684567.77936 1248828.73816 610.985215912
v 2684567.59295 1248828.49582 610.985094038
v 2684567.81043 1248828.32852 610.985635022
v 2684567.31144 1248827.67984 610.985308797
v 2684567.09396 1248827.84714 610.984767813
v 2684567.07248 1248827.81921 610.984753769
v 2684565.1568 1248827.10385 610.981928407
v 2684565.00002 1248826.74998 610.981958871
v 2684565.25003 1248826.25002 610.982853385
v 2684564.5 1248826.62496 610.981166743
v 2684565.75001 1248827.87502 610.982316232
v 2684565.45773 1248828.28255 610.981427302
v 2684564.54229 1248827.09247 610.980828807
v 2684563.5 1248826.5 610.979471686
v 2684563.43355 1248826.17611 610.979638714
v 2684562.63198 1248825.13407 610.979114671
v 2684563.71936 1248824.29763 610.981819456
v 2684563.45402 1248823.95269 610.981645986
v 2684564.20503 1248823.37499 610.983514083
v 2684563.68552 1248822.69962 610.983174437
v 2684562.93451 1248823.27732 610.981306341
v 2684562.85272 1248823.17101 610.981252873
v 2684562.59899 1248822.86614 610.981064846
v 2684561.65103 1248821.63379 610.980445094
v 2684561.56506 1248820.5846 610.981219598
v 2684562.43495 1248819.91545 610.983383398
v 2684562.45818 1248819.69565 610.983620133
v 2684563.29184 1248819.05438 610.985693815
v 2684564.00003 1248818.74999 610.987242377
v 2684563.97213 1248818.46372 610.987445681
v 2684564.52787 1248818.03623 610.988828046
v 2684565.50743 1248817.23466 610.991307234
v 2684566.4879 1248818.50928 610.991948242
v 2684566.75001 1248819.49996 610.99154365
v 2684567.17752 1248819.68077 610.992155406
v 2684567.57249 1248820.19424 610.99241363
v 2684568.36709 1248821.10227 610.99304384
v 2684568.56649 1248821.32389 610.993207518
v 2684568.93356 1248821.80108 610.993447496
v 2684569.06643 1248822.07388 610.993445687
v 2684569.43354 1248822.55112 610.993685692
v 2684569.49999 1248822.87501 610.993518665
v 2684570.17752 1248823.43072 610.994249692
v 2684570.03454 1248823.31346 610.994095421
v 2684569.51045 1248823.71661 610.992791777
v 2684569.74112 1248824.01648 610.99294258
v 2684567.93034 1248825.40939 610.988438361
v 2684566.96373 1248822.65289 610.989135581
v 2684566.61243 1248822.1962 610.988905906
v 2684567.12352 1248821.80304 610.990177231
v 2684566.75 1248820.37502 610.990768195
v 2684566.74998 1248820.12498 610.990989719
v 2684566.00001 1248819.99999 610.989746207
v 2684566.00003 1248819.75001 610.989967758
v 2684566.69073 1248821.24041 610.989894279
v 2684565.94769 1248821.81197 610.98804603
v 2684566.43192 1248822.33504 610.988456919
v 2684566.53624 1248822.09716 610.988856099
v 2684566.24999 1248822.75003 610.987760637
v 2684567.29878 1248825.93845 610.986829075
v 2684565.52789 1248823.66128 610.985649168
v 2684565.5 1248823.24997 610.985963301
v 2684569.50407 1248830.35979 610.986893334
v 2684568.76957 1248829.40494 610.986413134
v 2684568.53229 1248829.58745 610.985822933
v 2684568.50002 1248829.12503 610.986174431
v 2684566.34322 1248827.41871 610.983791801
v 2684565.75001 1248826.64753 610.983403975
v 2684563.69088 1248825.95319 610.980300952
v 2684565.21747 1248819.4577 610.988813657
v 2684565.21373 1248820.65288 610.987747788
v 2684566.38049 1248822.37461 610.988328982
v 2684563.85887 1248821.27357 610.984751177
v 2684564.71743 1248823.0827 610.984698371
v 2684564.28251 1248823.41726 610.983616538
v 2684564.23821 1248825.53216 610.981662396
v 2684563.20268 1248825.31852 610.979981776
v 2684564.63752 1248819.90381 610.987371079
v 2684564.70315 1248820.62412 610.986851277
v 2684563.82146 1248819.47792 610.986274853
v 2684562.97718 1248820.12737 610.984174752
v 2684564.49999 1248825.99998 610.98172054
v 2684563.75001 1248824.8975 610.98134322
v 2684571.74998 1248829.87503 610.991378527
v 2684571.45121 1248830.18654 610.990562958
v 2684570.7988 1248830.68839 610.988940141
v 2684571.31739 1248829.96261 610.990519763
v 2684571.64362 1248829.71166 610.991331239
v 2684571.76624 1248829.87107 610.991411406
v 2684572.74764 1248829.37199 610.993625863
v 2684572.25234 1248829.75299 610.992393831
v 2684572.17016 1248829.77295 610.992227744
v 2684572.40056 1248829.59572 610.992800857
v 2684572.17521 1248829.30275 610.992653524
v 2684572.68264 1248828.91242 610.99391573
v 2684572.68961 1248827.92147 610.994806462
v 2684571.56042 1248826.45353 610.994068227
v 2684571.4033 1248826.07435 610.994120517
v 2684571.14551 1248824.67272 610.994897074
v 2684570.6301 1248825.06919 610.99361502
v 2684570.44439 1248824.82776 610.993493608
v 2684570.99415 1248824.40488 610.994861087
v 2684571.73375 1248825.36636 610.995344622
v 2684572.22574 1248826.01632 610.995657073
v 2684572.07855 1248825.8146 610.995570041
v 2684572.42909 1248826.29497 610.995777349
v 2684571.89007 1248826.7096 610.994436579
v 2684572.48489 1248826.63658 610.995575401
v 2684572.43358 1248826.30113 610.995780006
v 2684572.53625 1248826.97209 610.995370824
v 2684572.52921 1248826.92635 610.995398652
v 2684572.23943 1248827.14926 610.994677832
v 2684572.89763 1248828.00492 610.995108144
v 2684573.30866 1248827.68874 610.996130568
v 2684573.68357 1248828.17612 610.996375671
v 2684573.5 1248828.87503 610.995424852
v 2684572.74998 1248829.12502 610.993848933
v 2684571.55165 1248825.20069 610.995162592
v 2684571.28067 1248825.71489 610.994217595
v 2684571.77766 1248826.36099 610.994542518
v 2684572.07591 1248826.95119 610.994558073
v 2684571.03624 1248825.59716 610.993880539
v 2684563.82146 1248819.47792 611.718002319
v 2684564.70315 1248820.62412 611.718002319
v 2684563.85887 1248821.27357 611.718002319
v 2684562.97718 1248820.12737 611.718002319
v 2684564.20503 1248823.37499 611.630004883
v 2684563.45402 1248823.95269 611.630004883
v 2684562.93451 1248823.27732 611.630004883
v 2684563.68552 1248822.69962 611.630004883
v 2684563.75001 1248824.8975 611.601998902
v 2684564.23821 1248825.53216 611.601998902
v 2684563.69088 1248825.95319 611.601998902
v 2684563.20268 1248825.31852 611.601998902
v 2684567.12352 1248821.80304 611.766516113
v 2684566.61243 1248822.1962 611.766516113
v 2684566.53624 1248822.09716 611.766516113
v 2684566.43192 1248822.33504 611.766516113
v 2684566.38049 1248822.37461 611.766516113
v 2684565.94769 1248821.81197 611.766516113
v 2684566.69073 1248821.24041 611.766516113
v 2684565.75001 1248826.64753 611.528988648
v 2684566.34322 1248827.41871 611.528988648
v 2684565.75001 1248827.87502 611.528988648
v 2684565.1568 1248827.10385 611.528988648
v 2684567.81043 1248828.32852 613.578515625
v 2684567.59295 1248828.49582 613.578515625
v 2684567.09396 1248827.84714 613.578515625
v 2684567.31144 1248827.67984 613.578515625
v 2684568.50002 1248829.12503 613.590026856
v 2684568.23422 1248829.32948 613.590026856
v 2684567.77936 1248828.73816 613.590026856
v 2684568.04515 1248828.53371 613.590026856
v 2684569.79088 1248823.9782 613.677972412
v 2684569.74112 1248824.01648 613.677972412
v 2684569.51045 1248823.71661 613.677972412
v 2684570.03454 1248823.31346 613.677972412
v 2684570.17752 1248823.43072 613.677972412
v 2684570.57254 1248823.94425 613.677972412
v 2684570.92149 1248824.31042 613.677972412
v 2684570.99415 1248824.40488 613.677972412
v 2684570.44439 1248824.82776 613.677972412
v 2684568.76957 1248829.40494 613.633007813
v 2684569.50407 1248830.35979 613.633007813
v 2684569.2668 1248830.54231 613.633007813
v 2684568.53229 1248829.58745 613.633007813
v 2684571.55165 1248825.20069 613.682995605
v 2684571.03624 1248825.59716 613.682995605
v 2684570.6301 1248825.06919 613.682995605
v 2684571.14551 1248824.67272 613.682995605
v 2684571.28067 1248825.71489 613.663977051
v 2684571.73375 1248825.36636 613.663977051
v 2684572.07855 1248825.8146 613.663977051
v 2684572.22574 1248826.01632 613.663977051
v 2684571.77766 1248826.36099 613.663977051
v 2684571.89007 1248826.7096 613.676489258
v 2684572.42909 1248826.29497 613.676489258
v 2684572.43358 1248826.30113 613.676489258
v 2684572.48489 1248826.63658 613.676489258
v 2684572.07591 1248826.95119 613.676489258
v 2684572.96378 1248827.52788 613.700012207
v 2684573.13523 1248827.46327 613.700012207
v 2684573.30866 1248827.68874 613.700012207
v 2684572.89763 1248828.00492 613.700012207
v 2684572.23943 1248827.14926 613.700012207
v 2684572.52921 1248826.92635 613.700012207
v 2684572.53625 1248826.97209 613.700012207
v 2684571.76624 1248829.87107 613.674987793
v 2684571.64362 1248829.71166 613.674987793
v 2684572.17521 1248829.30275 613.674987793
v 2684572.40056 1248829.59572 613.674987793
v 2684572.17016 1248829.77295 613.674987793
v 2684569.62311 1248829.97259 607.26578125
v 2684569.81645 1248830.57389 607.26578125
v 2684570.18356 1248831.05113 607.26578125
v 2684569.1775 1248830.55574 607.26578125
v 2684568.23422 1248829.32948 607.26578125
v 2684567.77936 1248828.73816 607.26578125
v 2684567.59295 1248828.49582 607.26578125
v 2684567.09396 1248827.84714 607.26578125
v 2684567.07248 1248827.81921 607.26578125
v 2684565.45773 1248828.28255 607.26578125
v 2684564.54229 1248827.09247 607.26578125
v 2684563.5 1248826.5 607.26578125
v 2684563.43355 1248826.17611 607.26578125
v 2684562.63198 1248825.13407 607.26578125
v 2684563.71936 1248824.29763 607.26578125
v 2684563.45402 1248823.95269 607.26578125
v 2684562.93451 1248823.27732 607.26578125
v 2684562.85272 1248823.17101 607.26578125
v 2684562.59899 1248822.86614 607.26578125
v 2684561.65103 1248821.63379 607.26578125
v 2684561.56506 1248820.5846 607.26578125
v 2684562.43495 1248819.91545 607.26578125
v 2684562.45818 1248819.69565 607.26578125
v 2684563.29184 1248819.05438 607.26578125
v 2684564.00003 1248818.74999 607.26578125
v 2684563.97213 1248818.46372 607.26578125
v 2684564.52787 1248818.03623 607.26578125
v 2684565.50743 1248817.23466 607.26578125
v 2684566.4879 1248818.50928 607.26578125
v 2684566.75001 1248819.49996 607.26578125
v 2684567.17752 1248819.68077 607.26578125
v 2684567.57249 1248820.19424 607.26578125
v 2684568.36709 1248821.10227 607.26578125
v 2684568.56649 1248821.32389 607.26578125
v 2684568.93356 1248821.80108 607.26578125
v 2684569.06643 1248822.07388 607.26578125
v 2684569.43354 1248822.55112 607.26578125
v 2684569.49999 1248822.87501 607.26578125
v 2684570.17752 1248823.43072 607.26578125
v 2684569.74112 1248824.01648 607.26578125
v 2684567.93034 1248825.40939 607.26578125
v 2684567.29878 1248825.93845 607.26578125
v 2684567.25003 1248827.37499 607.26578125
v 2684567.99997 1248827.875 607.26578125
v 2684568.12685 1248828.02746 607.26578125
v 2684564.63752 1248819.90381 607.26578125
v 2684565.21373 1248820.65288 607.26578125
v 2684566.75 1248820.37502 607.26578125
v 2684566.74998 1248820.12498 607.26578125
v 2684566.00001 1248819.99999 607.26578125
v 2684566.00003 1248819.75001 607.26578125
v 2684565.21747 1248819.4577 607.26578125
v 2684564.25 1248824.125 607.26578125
v 2684564.97215 1248824.08877 607.26578125
v 2684565.52789 1248823.66128 607.26578125
v 2684565.5 1248823.24997 607.26578125
v 2684564.71743 1248823.0827 607.26578125
v 2684564.28251 1248823.41726 607.26578125
v 2684566.96373 1248822.65289 607.26578125
v 2684566.61243 1248822.1962 607.26578125
v 2684566.53624 1248822.09716 607.26578125
v 2684566.24999 1248822.75003 607.26578125
v 2684565.25003 1248826.25002 607.26578125
v 2684564.49999 1248825.99998 607.26578125
v 2684564.5 1248826.62496 607.26578125
v 2684565.00002 1248826.74998 607.26578125
v 2684570.7988 1248830.68839 607.26578125
v 2684571.31739 1248829.96261 607.26578125
v 2684571.64362 1248829.71166 607.26578125
v 2684571.76624 1248829.87107 607.26578125
v 2684571.74998 1248829.87503 607.26578125
v 2684571.45121 1248830.18654 607.26578125
v 2684570.6301 1248825.06919 607.26578125
v 2684570.44439 1248824.82776 607.26578125
v 2684570.99415 1248824.40488 607.26578125
v 2684571.73375 1248825.36636 607.26578125
v 2684572.07855 1248825.8146 607.26578125
v 2684572.42909 1248826.29497 607.26578125
v 2684572.43358 1248826.30113 607.26578125
v 2684572.53625 1248826.97209 607.26578125
v 2684573.30866 1248827.68874 607.26578125
v 2684573.68357 1248828.17612 607.26578125
v 2684573.5 1248828.87503 607.26578125
v 2684572.74998 1248829.12502 607.26578125
v 2684572.74764 1248829.37199 607.26578125
v 2684572.25234 1248829.75299 607.26578125
v 2684572.17016 1248829.77295 607.26578125
v 2684572.17521 1248829.30275 607.26578125
v 2684572.68264 1248828.91242 607.26578125
v 2684572.68961 1248827.92147 607.26578125
v 2684571.56042 1248826.45353 607.26578125
v 2684571.4033 1248826.07435 607.26578125
v 2684571.03624 1248825.59716 607.26578125
v 2684570.57254 1248823.94425 607.26578125
v 2684570.92149 1248824.31042 607.26578125
v 2684569.79088 1248823.9782 607.26578125
v 2684572.96378 1248827.52788 607.26578125
v 2684573.13523 1248827.46327 607.26578125
g roof
f 1 2 3
g roof
f 3 4 5
g roof
f 3 5 6
g roof
f 3 6 7
g roof
f 3 7 8
g roof
f 9 8 10
g roof
f 9 10 11
g roof
f 12 13 14
g roof
f 12 14 15
g roof
f 12 15 16
g roof
f 16 17 18
g roof
f 19 20 21
g roof
f 22 20 19
g roof
f 23 18 24
g roof
f 23 24 25
g roof
f 25 26 27
g roof
f 25 27 28
g roof
f 29 30 31
g roof
f 32 33 34
g roof
f 32 34 35
g roof
f 32 35 36
g roof
f 32 36 37
g roof
f 32 37 38
g roof
f 32 38 39
g roof
f 39 40 41
g roof
f 41 42 43
g roof
f 41 43 44
g roof
f 41 44 45
g roof
f 41 45 46
g roof
f 41 46 47
g roof
f 41 47 48
g roof
f 49 50 51
g roof
f 49 51 52
g roof
f 52 53 54
g roof
f 54 55 56
g roof
f 54 56 57
g roof
f 57 58 59
g roof
f 57 59 60
g roof
f 57 60 61
g roof
f 57 61 62
g roof
f 57 62 63
g roof
f 57 63 64
g roof
f 64 65 66
g roof
f 63 62 67
g roof
f 63 67 68
g roof
f 69 70 71
g roof
f 71 60 59
g roof
f 71 59 72
g roof
f 71 72 3
g roof
f 3 2 73
g roof
f 3 73 74
g roof
f 8 9 75
g roof
f 8 75 76
g roof
f 77 9 11
g roof
f 77 11 78
g roof
f 16 18 23
g roof
f 16 23 79
g roof
f 16 79 80
g roof
f 80 19 21
g roof
f 22 19 23
g roof
f 81 23 25
g roof
f 81 25 28
g roof
f 31 32 39
g roof
f 48 49 52
g roof
f 48 52 54
g roof
f 48 54 57
g roof
f 48 57 64
g roof
f 48 64 66
g roof
f 48 66 82
g roof
f 83 63 68
g roof
f 84 69 71
g roof
f 71 3 74
g roof
f 85 74 86
g roof
f 85 86 87
g roof
f 3 8 76
g roof
f 76 77 78
g roof
f 76 78 12
g roof
f 16 80 21
g roof
f 22 23 81
g roof
f 22 81 88
g roof
f 89 81 28
g roof
f 89 28 29
g roof
f 89 29 31
g roof
f 41 48 82
g roof
f 41 82 90
g roof
f 90 83 68
g roof
f 68 84 71
g roof
f 68 71 74
g roof
f 68 74 85
g roof
f 68 85 91
g roof
f 68 91 92
g roof
f 93 85 87
g roof
f 3 76 12
g roof
f 3 12 16
g roof
f 3 16 21
g roof
f 94 22 88
g roof
f 95 89 31
g roof
f 90 68 92
g roof
f 1 3 21
g roof
f 1 21 94
g roof
f 1 94 88
g roof
f 1 88 95
g roof
f 1 95 31
g roof
f 41 90 92
g roof
f 41 92 93
g roof
f 87 1 31
g roof
f 87 31 39
g roof
f 39 41 93
g roof
f 39 93 87
g roof
f 96 97 98
g roof
f 96 98 99
g roof
f 96 99 100
g roof
f 96 100 101
g roof
f 102 103 104
g roof
f 102 104 105
g roof
f 102 105 106
g roof
f 102 106 107
g roof
f 102 107 108
g roof
f 108 109 110
g roof
f 111 112 113
g roof
f 111 113 114
g roof
f 111 114 115
g roof
f 116 117 118
g roof
f 116 118 119
g roof
f 120 121 122
g roof
f 120 122 123
g roof
f 120 123 124
g roof
f 125 126 127
g roof
f 125 127 128
g roof
f 125 128 129
g roof
f 129 102 108
g roof
f 130 111 115
g roof
f 130 115 131
g roof
f 132 116 119
g roof
f 133 120 124
g roof
f 133 124 125
g roof
f 125 129 108
g roof
f 134 130 131
g roof
f 134 131 132
g roof
f 133 125 108
g roof
f 110 134 132
g roof
f 110 132 119
g roof
f 119 133 108
g roof
f 119 108 110
g roof_fixture
f 135 136 137
g roof_fixture
f 135 137 138
g roof_fixture
f 139 140 141
g roof_fixture
f 139 141 142
g roof_fixture
f 143 144 145
g roof_fixture
f 143 145 146
g roof_fixture
f 147 148 149
g roof_fixture
f 149 150 151
g roof_fixture
f 149 151 152
g roof_fixture
f 149 152 153
g roof_fixture
f 149 153 147
g roof_fixture
f 154 155 156
g roof_fixture
f 154 156 157
g roof_fixture
f 158 159 160
g roof_fixture
f 158 160 161
g roof_fixture
f 162 163 164
g roof_fixture
f 162 164 165
g roof_fixture
f 166 167 168
g roof_fixture
f 166 168 169
g roof_fixture
f 166 169 170
g roof_fixture
f 166 170 171
g roof_fixture
f 166 171 172
g roof_fixture
f 166 172 173
g roof_fixture
f 166 173 174
g roof_fixture
f 175 176 177
g roof_fixture
f 175 177 178
g roof_fixture
f 179 180 181
g roof_fixture
f 179 181 182
g roof_fixture
f 183 184 185
g roof_fixture
f 183 185 186
g roof_fixture
f 183 186 187
g roof_fixture
f 188 189 190
g roof_fixture
f 188 190 191
g roof_fixture
f 188 191 192
g roof_fixture
f 193 194 195
g roof_fixture
f 193 195 196
g roof_fixture
f 193 196 197
g roof_fixture
f 197 198 199
g roof_fixture
f 197 199 193
g roof_fixture
f 200 201 202
g roof_fixture
f 200 202 203
g roof_fixture
f 200 203 204
g facade_completed
f 7 6 205 206
g facade_completed
f 8 7 206 207
g facade_completed
f 10 8 207 208
g facade_completed
f 11 10 208 209
g roof_step_or_fixture_side
f 163 162 78 11
g roof_step_or_fixture_side
f 162 165 12 78
g roof_step_or_fixture_side
f 165 164 13 12
g facade_completed
f 14 13 210 211
g roof_step_or_fixture_side
f 159 158 15 14
g roof_step_or_fixture_side
f 158 161 16 15
g roof_step_or_fixture_side
f 161 160 17 16
g facade_completed
f 18 17 212 213
g facade_completed
f 24 18 213 214
g facade_completed
f 25 24 214 215
g facade_completed
f 26 25 215 216
g facade_completed
f 27 26 216 217
g facade_completed
f 28 27 217 218
g facade_completed
f 29 28 218 219
g facade_completed
f 30 29 219 220
g roof_step_or_fixture_side
f 140 139 31 30
g roof_step_or_fixture_side
f 139 142 32 31
g roof_step_or_fixture_side
f 142 141 33 32
g facade_completed
f 34 33 221 222
g facade_completed
f 35 34 222 223
g facade_completed
f 36 35 223 224
g facade_completed
f 37 36 224 225
g facade_completed
f 38 37 225 226
g facade_completed
f 39 38 226 227
g facade_completed
f 40 39 227 228
g facade_completed
f 41 40 228 229
g facade_completed
f 42 41 229 230
g facade_completed
f 43 42 230 231
g facade_completed
f 44 43 231 232
g facade_completed
f 45 44 232 233
g facade_completed
f 46 45 233 234
g facade_completed
f 47 46 234 235
g facade_completed
f 48 47 235 236
g facade_completed
f 49 48 236 237
g facade_completed
f 50 49 237 238
g facade_completed
f 51 50 238 239
g facade_completed
f 52 51 239 240
g facade_completed
f 53 52 240 241
g facade_completed
f 54 53 241 242
g facade_completed
f 55 54 242 243
g roof_step_or_fixture_side
f 170 169 56 55
g roof_step_or_fixture_side
f 169 168 57 56
g roof_step_or_fixture_side
f 168 167 58 57
g facade_completed
f 59 58 244 245
g facade_completed
f 72 59 245 246
g facade_completed
f 3 72 246 247
g facade_completed
f 4 3 247 248
g facade_completed
f 5 4 248 249
g facade_completed
f 6 5 249 205
g facade_completed
f 83 90 250 251
g facade_completed
f 63 83 251 252
g facade_completed
f 64 63 252 253
g facade_completed
f 65 64 253 254
g facade_completed
f 66 65 254 255
g facade_completed
f 82 66 255 256
g facade_completed
f 90 82 256 250
g facade_completed
f 2 1 257 258
g facade_completed
f 73 2 258 259
g facade_completed
f 74 73 259 260
g facade_completed
f 86 74 260 261
g facade_completed
f 87 86 261 262
g facade_completed
f 1 87 262 257
g facade_completed
f 61 60 263 264
g roof_step_or_fixture_side
f 148 147 62 61
g roof_step_or_fixture_side
f 147 153 67 62
g roof_step_or_fixture_side
f 153 152 68 67
g roof_step_or_fixture_side
f 152 151 84 68
g roof_step_or_fixture_side
f 151 150 69 84
g roof_step_or_fixture_side
f 150 149 70 69
g facade_completed
f 71 70 265 266
g facade_completed
f 60 71 266 263
g facade_completed
f 94 21 267 268
g facade_completed
f 22 94 268 269
g facade_completed
f 20 22 269 270
g facade_completed
f 21 20 270 267
g roof_step_or_fixture_side
f 138 137 85 93
g roof_step_or_fixture_side
f 137 136 91 85
g roof_step_or_fixture_side
f 136 135 92 91
g roof_step_or_fixture_side
f 135 138 93 92
g roof_step_or_fixture_side
f 146 145 81 89
g roof_step_or_fixture_side
f 145 144 88 81
g roof_step_or_fixture_side
f 144 143 95 88
g roof_step_or_fixture_side
f 143 146 89 95
g roof_step_or_fixture_side
f 157 156 23 19
g roof_step_or_fixture_side
f 156 155 79 23
g roof_step_or_fixture_side
f 155 154 80 79
g roof_step_or_fixture_side
f 154 157 19 80
g roof_step_or_fixture_side
f 178 177 9 77
g roof_step_or_fixture_side
f 177 176 75 9
g roof_step_or_fixture_side
f 176 175 76 75
g roof_step_or_fixture_side
f 175 178 77 76
g facade_completed
f 99 98 271 272
g facade_completed
f 100 99 272 273
g roof_step_or_fixture_side
f 201 200 101 100
g facade_completed
f 96 101 274 275
g facade_completed
f 97 96 275 276
g facade_completed
f 98 97 276 271
g roof_step_or_fixture_side
f 182 181 112 111
g facade_completed
f 113 112 277 278
g roof_step_or_fixture_side
f 174 173 114 113
g facade_completed
f 115 114 279 280
g roof_step_or_fixture_side
f 184 183 131 115
g roof_step_or_fixture_side
f 183 187 132 131
g roof_step_or_fixture_side
f 187 186 116 132
g roof_step_or_fixture_side
f 186 185 117 116
g facade_completed
f 118 117 281 282
g roof_step_or_fixture_side
f 189 188 119 118
g roof_step_or_fixture_side
f 188 192 133 119
g roof_step_or_fixture_side
f 192 191 120 133
g roof_step_or_fixture_side
f 191 190 121 120
g facade_completed
f 122 121 283 284
g roof_step_or_fixture_side
f 199 198 123 122
g roof_step_or_fixture_side
f 198 197 124 123
g roof_step_or_fixture_side
f 197 196 125 124
g roof_step_or_fixture_side
f 196 195 126 125
g facade_completed
f 127 126 285 286
g facade_completed
f 128 127 286 287
g facade_completed
f 129 128 287 288
g facade_completed
f 102 129 288 289
g facade_completed
f 103 102 289 290
g facade_completed
f 104 103 290 291
g roof_step_or_fixture_side
f 204 203 105 104
g roof_step_or_fixture_side
f 203 202 106 105
g facade_completed
f 107 106 292 293
g facade_completed
f 108 107 293 294
g facade_completed
f 109 108 294 295
g facade_completed
f 110 109 295 296
g facade_completed
f 134 110 296 297
g roof_step_or_fixture_side
f 180 179 130 134
g roof_step_or_fixture_side
f 179 182 111 130
g facade_completed
f 141 140 30 220 221 33
g facade_completed
f 149 148 61 264 265 70
g facade_completed
f 160 159 14 211 212 17
g facade_completed
f 164 163 11 209 210 13
g facade_completed
f 171 170 55 243 298
g facade_completed
f 172 171 298 299
g facade_completed
f 173 172 299 279 114
g facade_completed
f 166 174 113 278 300
g facade_completed
f 167 166 300 244 58
g facade_completed
f 181 180 134 297 277 112
g facade_completed
f 185 184 115 280 281 117
g facade_completed
f 190 189 118 282 283 121
g facade_completed
f 193 199 122 284 301
g facade_completed
f 194 193 301 302
g facade_completed
f 195 194 302 285 126
g facade_completed
f 200 204 104 291 274 101
g facade_completed
f 202 201 100 273 292 106
g ground_assumed
f 300 252 245 244
g ground_assumed
f 300 253 252
g ground_assumed
f 253 255 254
g ground_assumed
f 252 263 245
g ground_assumed
f 252 265 264 263
g ground_assumed
f 252 266 265
g ground_assumed
f 266 245 263
g ground_assumed
f 266 246 245
g ground_assumed
f 247 259 258
g ground_assumed
f 247 260 259
g ground_assumed
f 257 247 258
g ground_assumed
f 247 249 248
g ground_assumed
f 247 205 249
g ground_assumed
f 247 206 205
g ground_assumed
f 247 207 206
g ground_assumed
f 247 208 207
g ground_assumed
f 247 213 212 211 210 209 208
g ground_assumed
f 247 270 213
g ground_assumed
f 247 267 270
g ground_assumed
f 269 213 270
g ground_assumed
f 269 214 213
g ground_assumed
f 269 215 214
g ground_assumed
f 269 216 215
g ground_assumed
f 269 217 216
g ground_assumed
f 269 218 217
g ground_assumed
f 269 219 218
g ground_assumed
f 222 224 223
g ground_assumed
f 222 225 224
g ground_assumed
f 222 226 225
g ground_assumed
f 222 227 226
g ground_assumed
f 222 228 227
g ground_assumed
f 222 229 228
g ground_assumed
f 229 231 230
g ground_assumed
f 229 232 231
g ground_assumed
f 229 233 232
g ground_assumed
f 229 234 233
g ground_assumed
f 229 235 234
g ground_assumed
f 229 236 235
g ground_assumed
f 237 239 238
g ground_assumed
f 237 240 239
g ground_assumed
f 240 242 241
g ground_assumed
f 242 298 243
g ground_assumed
f 242 299 298
g ground_assumed
f 242 281 280 279 299
g ground_assumed
f 242 282 281
g ground_assumed
f 242 283 282
g ground_assumed
f 242 284 283
g ground_assumed
f 301 286 285 302
g ground_assumed
f 301 287 286
g ground_assumed
f 301 288 287
g ground_assumed
f 288 290 289
g ground_assumed
f 288 291 290
g ground_assumed
f 288 274 291
g ground_assumed
f 288 275 274
g ground_assumed
f 275 271 276
g ground_assumed
f 275 272 271
g ground_assumed
f 275 293 292 273 272
g ground_assumed
f 294 296 295
g ground_assumed
f 251 266 252
g ground_assumed
f 251 246 266
g ground_assumed
f 251 247 246
g ground_assumed
f 251 260 247
g ground_assumed
f 251 261 260
g ground_assumed
f 251 262 261
g ground_assumed
f 257 267 247
g ground_assumed
f 257 268 267
g ground_assumed
f 257 269 268
g ground_assumed
f 257 219 269
g ground_assumed
f 257 222 221 220 219
g ground_assumed
f 257 229 222
g ground_assumed
f 236 240 237
g ground_assumed
f 236 242 240
g ground_assumed
f 288 293 275
g ground_assumed
f 288 294 293
g ground_assumed
f 250 262 251
g ground_assumed
f 262 229 257
g ground_assumed
f 301 294 288
g ground_assumed
f 301 296 294
g ground_assumed
f 301 300 278 277 297 296
g ground_assumed
f 301 253 300
g ground_assumed
f 250 229 262
g ground_assumed
f 284 253 301
g ground_assumed
f 256 229 250
g ground_assumed
f 256 236 229
g ground_assumed
f 242 253 284
g ground_assumed
f 255 236 256
g ground_assumed
f 236 253 242
g ground_assumed
f 236 255 253
