v 2684564.2500021448 1248824.1250041472 610.98293065524729
v 2684564.9721492589 1248824.0887703027 610.98426680269677
v 2684567.2500292682 1248827.3749854928 610.98546804393061
v 2684567.9999665841 1248827.8749976165 610.98637917527776
v 2684568.1268534684 1248828.0274559648 610.98647320294504
v 2684569.6231117654 1248829.972591751 610.9874514170383
v 2684569.816448791 1248830.5738902637 610.98726769449388
v 2684570.1835564841 1248831.0511302643 610.98750769977789
v 2684569.2667991617 1248830.5423095471 610.9863031337909
v 2684569.1774981003 1248830.5557380905 610.9861299759084
v 2684568.2342237593 1248829.3294814469 610.98551328791814
v 2684568.0451541739 1248828.5337054359 610.98587705455657
v 2684567.7793619004 1248828.7381610305 610.98521591159556
v 2684567.5929465052 1248828.4958210168 610.98509403843968
v 2684567.8104325151 1248828.3285240859 610.98563502163563
v 2684567.3114447431 1248827.6798399817 610.9853087972291
v 2684567.0939587331 1248827.8471369129 610.98476781335307
v 2684567.07247638 1248827.8192098541 610.9847537688554
v 2684565.1568021066 1248827.1038475139 610.98192840675222
v 2684565.0000182572 1248826.7499817431 610.98195887096006
v 2684565.2500305399 1248826.2500193852 610.9828533846628
v 2684564.500001986 1248826.6249569389 610.9811667430605
v 2684565.7500136336 1248827.8750224991 610.98231623227912
v 2684565.4577333708 1248828.2825526807 610.98142730223014
v 2684564.5422865548 1248827.0924718205 610.9808288071971
v 2684563.499998475 1248826.5000026373 610.97947168618668
v 2684563.4335483331 1248826.1761084802 610.97963871354534
v 2684562.6319828695 1248825.1340733774 610.9791146710827
v 2684563.7193590072 1248824.2976301943 610.98181945578585
v 2684563.454022923 1248823.952693285 610.98164598637777
v 2684564.2050343561 1248823.3749921822 610.98351408278165
v 2684563.6855180813 1248822.6996210248 610.98317443692861
v 2684562.9345066478 1248823.2773221275 610.98130634052472
v 2684562.8527244101 1248823.1710052178 610.98125287307846
v 2684562.5989921135 1248822.8661424345 610.98106484563152
v 2684561.6510314676 1248821.6337935948 610.98044509407976
v 2684561.5650564381 1248820.5845963252 610.98121959833861
v 2684562.4349465654 1248819.9154500731 610.98338339848556
v 2684562.4581831717 1248819.6956540879 610.98362013343137
v 2684563.2918436024 1248819.0543768336 610.98569381494474
v 2684564.0000271872 1248818.7499868278 610.98724237657962
v 2684563.9721291587 1248818.4637158178 610.98744568102279
v 2684564.5278668371 1248818.0362252963 610.98882804580717
v 2684565.5074289362 1248817.2346598324 610.99130723430426
v 2684566.4879034134 1248818.5092766525 610.99194824237463
v 2684566.7500129975 1248819.4999614682 610.99154365024231
v 2684567.1775159608 1248819.6807657396 610.99215540551768
v 2684567.5724926516 1248820.1942354373 610.99241363028614
v 2684568.3670908655 1248821.1022671084 610.99304383971048
v 2684568.5664910572 1248821.3238919962 610.99320751782909
v 2684568.9335572785 1248821.8010780837 610.99344749590568
v 2684569.0664285319 1248822.0738790785 610.99344568660877
v 2684569.433536225 1248822.5511190789 610.99368569189278
v 2684569.4999863664 1248822.875013236 610.99351866453412
v 2684570.1775182006 1248823.4307218837 610.9942496919308
v 2684570.0345444358 1248823.3134647342 610.99409542147623
v 2684569.5104538295 1248823.7166113539 610.99279177675442
v 2684569.7411195533 1248824.0164767951 610.99294257961662
v 2684567.9303355613 1248825.4093875585 610.98843836064941
v 2684566.9637333755 1248822.6528948348 610.98913558072002
v 2684566.612426409 1248822.196195778 610.98890590611359
v 2684567.1235239245 1248821.8030438435 610.99017723107784
v 2684566.7500047032 1248820.3750189727 610.9907681950823
v 2684566.7499756729 1248820.1249776599 610.99098971900992
v 2684566.0000134748 1248819.999994328 610.98974620688523
v 2684566.0000259159 1248819.7500069281 610.98996775802038
v 2684566.6907250225 1248821.2404052706 610.98989427879724
v 2684565.9476927486 1248821.8119685585 610.988046029565
v 2684566.4319248819 1248822.3350431072 610.98845691886697
v 2684566.5362428543 1248822.0971571566 610.98885609943284
v 2684566.2499884325 1248822.7500299043 610.98776063745424
v 2684567.298779279 1248825.9384506238 610.98682907465502
v 2684565.5278869374 1248823.6612797815 610.98564916816133
v 2684565.5000013509 1248823.2499673788 610.98596330088651
v 2684569.5040713311 1248830.3597924935 610.98689333394555
v 2684568.7695656442 1248829.4049350999 610.9864131342855
v 2684568.5322934748 1248829.5874521532 610.98582293345066
v 2684568.5000160323 1248829.1250258521 610.98617443087915
v 2684566.343221013 1248827.41870913 610.98379180102449
v 2684565.7500094865 1248826.647534145 610.98340397549759
v 2684563.6908845222 1248825.9531855274 610.98030095160709
v 2684565.217466943 1248819.4577017827 610.98881365713487
v 2684565.2137303408 1248820.6528836638 610.98774778804477
v 2684566.3804916507 1248822.3746071311 610.9883289818456
v 2684563.8588657361 1248821.2735660609 610.98475117666339
v 2684564.7174299364 1248823.0827036253 610.9846983710388
v 2684564.2825118289 1248823.4172560156 610.98361653796371
v 2684564.2382117347 1248825.5321645942 610.98166239588511
v 2684563.2026793975 1248825.3185188659 610.97998177597674
v 2684564.6375222206 1248819.9038131076 610.98737107881129
v 2684564.7031470747 1248820.6241188771 610.98685127731358
v 2684563.8214582419 1248819.4779233944 610.98627485298277
v 2684562.9771769037 1248820.1273705782 610.98417475233259
v 2684564.4999853978 1248825.9999822194 610.98172054029601
v 2684563.7500066105 1248824.8974979329 610.98134322025476
v 2684571.7499766424 1248829.8750253748 610.99137852672663
v 2684571.4512060545 1248830.1865443706 610.99056295754815
v 2684570.7988019371 1248830.6883936911 610.98894014059704
v 2684571.3173933928 1248829.9626095071 610.99051976296357
v 2684571.6436224082 1248829.7116641111 610.99133123877766
v 2684571.7662448795 1248829.8710733235 610.99141140627785
v 2684572.747641148 1248829.3719858159 610.99362586333916
v 2684572.2523402129 1248829.7529865359 610.99239383140787
v 2684572.1701619695 1248829.7729500281 610.99222774406746
v 2684572.400564298 1248829.5957174674 610.99280085656846
v 2684572.1752069546 1248829.3027529209 610.9926535240196
v 2684572.68263837 1248828.9124210633 610.99391572971899
v 2684572.6896139137 1248827.9214749765 610.994806462263
v 2684571.5604218375 1248826.4535252773 610.99406822692652
v 2684571.403302067 1248826.0743451666 610.99412051696936
v 2684571.1455138363 1248824.6727170469 610.994897074032
v 2684570.6301032621 1248825.0691867194 610.99361502048089
v 2684570.444392886 1248824.8277632308 610.99349360781162
v 2684570.9941461948 1248824.4048760703 610.99486108670715
v 2684571.7337529045 1248825.3663647925 610.99534462200336
v 2684572.2257361021 1248826.0163179312 610.99565707330669
v 2684572.0785488095 1248825.8145994702 610.99557004068072
v 2684572.4290879024 1248826.2949733159 610.99577734938373
v 2684571.8900722698 1248826.7096007261 610.99443657938457
v 2684572.4848928996 1248826.636581463 610.99557540123317
v 2684572.4335799366 1248826.3011291367 610.99578000551332
v 2684572.536247334 1248826.9720877032 610.99537082416055
v 2684572.5292137302 1248826.9263526867 610.99539865196414
v 2684572.2394300653 1248827.1492631983 610.99467783213129
v 2684572.8976277821 1248828.0049202305 610.99510814416828
v 2684573.3086623237 1248827.6887398136 610.99613056836506
v 2684573.6835667002 1248828.1761155033 610.9963756709692
v 2684573.5000045598 1248828.8750260109 610.99542485208076
v 2684572.7499760063 1248829.1250175578 610.9938489326513
v 2684571.5516464207 1248825.2006894059 610.99516259244399
v 2684571.2806660347 1248825.7148931536 610.99421759527456
v 2684571.7776631643 1248826.3609894216 610.99454251848363
v 2684572.0759070613 1248826.9511859543 610.99455807299614
v 2684571.0362358466 1248825.597159079 610.99388053889277
v 2684563.8214582419 1248819.4779233944 611.71800231905911
v 2684564.7031470747 1248820.6241188771 611.71800231905911
v 2684563.8588657361 1248821.2735660609 611.71800231905911
v 2684562.9771769037 1248820.1273705782 611.71800231905911
v 2684564.2050343561 1248823.3749921822 611.63000488283228
v 2684563.454022923 1248823.952693285 611.63000488283228
v 2684562.9345066478 1248823.2773221275 611.63000488283228
v 2684563.6855180813 1248822.6996210248 611.63000488283228
v 2684563.7500066105 1248824.8974979329 611.60199890150227
v 2684564.2382117347 1248825.5321645942 611.60199890150227
v 2684563.6908845222 1248825.9531855274 611.60199890150227
v 2684563.2026793975 1248825.3185188659 611.60199890150227
v 2684567.1235239245 1248821.8030438435 611.76651611294176
v 2684566.612426409 1248822.196195778 611.76651611294176
v 2684566.5362428543 1248822.0971571566 611.76651611294176
v 2684566.4319248819 1248822.3350431072 611.76651611294176
v 2684566.3804916507 1248822.3746071311 611.76651611294176
v 2684565.9476927486 1248821.8119685585 611.76651611294176
v 2684566.6907250225 1248821.2404052706 611.76651611294176
v 2684565.7500094865 1248826.647534145 611.52898864751569
v 2684566.343221013 1248827.41870913 611.52898864751569
v 2684565.7500136336 1248827.8750224991 611.52898864751569
v 2684565.1568021066 1248827.1038475139 611.52898864751569
v 2684567.8104325151 1248828.3285240859 613.57851562533267
v 2684567.5929465052 1248828.4958210168 613.57851562533267
v 2684567.0939587331 1248827.8471369129 613.57851562533267
v 2684567.3114447431 1248827.6798399817 613.57851562533267
v 2684568.5000160323 1248829.1250258521 613.59002685560745
v 2684568.2342237593 1248829.3294814469 613.59002685560745
v 2684567.7793619004 1248828.7381610305 613.59002685560745
v 2684568.0451541739 1248828.5337054359 613.59002685560745
v 2684569.790881474 1248823.9781983946 613.6779724119441
v 2684569.7411195533 1248824.0164767951 613.6779724119441
v 2684569.5104538295 1248823.7166113539 613.6779724119441
v 2684570.0345444358 1248823.3134647342 613.6779724119441
v 2684570.1775182006 1248823.4307218837 613.6779724119441
v 2684570.5725363633 1248823.9442454951 613.6779724119441
v 2684570.9214877356 1248824.3104200738 613.6779724119441
v 2684570.9941461948 1248824.4048760703 613.6779724119441
v 2684570.444392886 1248824.8277632308 613.6779724119441
v 2684568.7695656442 1248829.4049350999 613.63300781254486
v 2684569.5040713311 1248830.3597924935 613.63300781254486
v 2684569.2667991617 1248830.5423095471 613.63300781254486
v 2684568.5322934748 1248829.5874521532 613.63300781254486
v 2684571.5516464207 1248825.2006894059 613.6829956053017
v 2684571.0362358466 1248825.597159079 613.6829956053017
v 2684570.6301032621 1248825.0691867194 613.6829956053017
v 2684571.1455138363 1248824.6727170469 613.6829956053017
v 2684571.2806660347 1248825.7148931536 613.6639770509347
v 2684571.7337529045 1248825.3663647925 613.6639770509347
v 2684572.0785488095 1248825.8145994702 613.6639770509347
v 2684572.2257361021 1248826.0163179312 613.6639770509347
v 2684571.7776631643 1248826.3609894216 613.6639770509347
v 2684571.8900722698 1248826.7096007261 613.67648925775518
v 2684572.4290879024 1248826.2949733159 613.67648925775518
v 2684572.4335799366 1248826.3011291367 613.67648925775518
v 2684572.4848928996 1248826.636581463 613.67648925775518
v 2684572.0759070613 1248826.9511859543 613.67648925775518
v 2684572.9637793279 1248827.527879294 613.70001220725771
v 2684573.1352275778 1248827.4632746442 613.70001220725771
v 2684573.3086623237 1248827.6887398136 613.70001220725771
v 2684572.8976277821 1248828.0049202305 613.70001220725771
v 2684572.2394300653 1248827.1492631983 613.70001220725771
v 2684572.5292137302 1248826.9263526867 613.70001220725771
v 2684572.536247334 1248826.9720877032 613.70001220725771
v 2684571.7662448925 1248829.8710733405 613.67498779293669
v 2684571.6436224082 1248829.7116641111 613.67498779293669
v 2684572.1752069546 1248829.3027529209 613.67498779293669
v 2684572.400564298 1248829.5957174674 613.67498779293669
v 2684572.1701619695 1248829.7729500281 613.67498779293669
v 2684569.6231117654 1248829.972591751 607.26578124980119
v 2684569.816448791 1248830.5738902637 607.26578124980119
v 2684570.1835564841 1248831.0511302643 607.26578124980119
v 2684569.1774981003 1248830.5557380905 607.26578124980119
v 2684568.2342237593 1248829.3294814469 607.26578124980119
v 2684567.7793619004 1248828.7381610305 607.26578124980119
v 2684567.5929465052 1248828.4958210168 607.26578124980119
v 2684567.0939587331 1248827.8471369129 607.26578124980119
v 2684567.07247638 1248827.8192098541 607.26578124980119
v 2684565.4577333708 1248828.2825526807 607.26578124980119
v 2684564.5422865548 1248827.0924718205 607.26578124980119
v 2684563.499998475 1248826.5000026373 607.26578124980119
v 2684563.4335483331 1248826.1761084802 607.26578124980119
v 2684562.6319828695 1248825.1340733774 607.26578124980119
v 2684563.7193590072 1248824.2976301943 607.26578124980119
v 2684563.454022923 1248823.952693285 607.26578124980119
v 2684562.9345066478 1248823.2773221275 607.26578124980119
v 2684562.8527244101 1248823.1710052178 607.26578124980119
v 2684562.5989921135 1248822.8661424345 607.26578124980119
v 2684561.6510314676 1248821.6337935948 607.26578124980119
v 2684561.5650564381 1248820.5845963252 607.26578124980119
v 2684562.4349465654 1248819.9154500731 607.26578124980119
v 2684562.4581831717 1248819.6956540879 607.26578124980119
v 2684563.2918436024 1248819.0543768336 607.26578124980119
v 2684564.0000271872 1248818.7499868278 607.26578124980119
v 2684563.9721291587 1248818.4637158178 607.26578124980119
v 2684564.5278668371 1248818.0362252963 607.26578124980119
v 2684565.5074289362 1248817.2346598324 607.26578124980119
v 2684566.4879034134 1248818.5092766525 607.26578124980119
v 2684566.7500129975 1248819.4999614682 607.26578124980119
v 2684567.1775159608 1248819.6807657396 607.26578124980119
v 2684567.5724926516 1248820.1942354373 607.26578124980119
v 2684568.3670908655 1248821.1022671084 607.26578124980119
v 2684568.5664910572 1248821.3238919962 607.26578124980119
v 2684568.9335572785 1248821.8010780837 607.26578124980119
v 2684569.0664285319 1248822.0738790785 607.26578124980119
v 2684569.433536225 1248822.5511190789 607.26578124980119
v 2684569.4999863664 1248822.875013236 607.26578124980119
v 2684570.1775182006 1248823.4307218837 607.26578124980119
v 2684569.7411195533 1248824.0164767951 607.26578124980119
v 2684567.9303355613 1248825.4093875585 607.26578124980119
v 2684567.298779279 1248825.9384506238 607.26578124980119
v 2684567.2500292682 1248827.3749854928 607.26578124980119
v 2684567.9999665841 1248827.8749976165 607.26578124980119
v 2684568.1268534684 1248828.0274559648 607.26578124980119
v 2684564.6375222206 1248819.9038131076 607.26578124980119
v 2684565.2137303408 1248820.6528836638 607.26578124980119
v 2684566.7500047032 1248820.3750189727 607.26578124980119
v 2684566.7499756729 1248820.1249776599 607.26578124980119
v 2684566.0000134748 1248819.999994328 607.26578124980119
v 2684566.0000259159 1248819.7500069281 607.26578124980119
v 2684565.217466943 1248819.4577017827 607.26578124980119
v 2684564.2500021448 1248824.1250041472 607.26578124980119
v 2684564.9721492589 1248824.0887703027 607.26578124980119
v 2684565.5278869374 1248823.6612797815 607.26578124980119
v 2684565.5000013509 1248823.2499673788 607.26578124980119
v 2684564.7174299364 1248823.0827036253 607.26578124980119
v 2684564.2825118289 1248823.4172560156 607.26578124980119
v 2684566.9637333755 1248822.6528948348 607.26578124980119
v 2684566.612426409 1248822.196195778 607.26578124980119
v 2684566.5362428543 1248822.0971571566 607.26578124980119
v 2684566.2499884325 1248822.7500299043 607.26578124980119
v 2684565.2500305399 1248826.2500193852 607.26578124980119
v 2684564.4999853978 1248825.9999822194 607.26578124980119
v 2684564.500001986 1248826.6249569389 607.26578124980119
v 2684565.0000182572 1248826.7499817431 607.26578124980119
v 2684570.7988019371 1248830.6883936911 607.26578124980119
v 2684571.3173933928 1248829.9626095071 607.26578124980119
v 2684571.6436224082 1248829.7116641111 607.26578124980119
v 2684571.7662448795 1248829.8710733235 607.26578124980119
v 2684571.7499766424 1248829.8750253748 607.26578124980119
v 2684571.4512060545 1248830.1865443706 607.26578124980119
v 2684570.6301032621 1248825.0691867194 607.26578124980119
v 2684570.444392886 1248824.8277632308 607.26578124980119
v 2684570.9941461948 1248824.4048760703 607.26578124980119
v 2684571.7337529045 1248825.3663647925 607.26578124980119
v 2684572.0785488095 1248825.8145994702 607.26578124980119
v 2684572.4290878936 1248826.2949733227 607.26578124980119
v 2684572.4335799366 1248826.3011291367 607.26578124980119
v 2684572.536247334 1248826.9720877032 607.26578124980119
v 2684573.3086623237 1248827.6887398136 607.26578124980119
v 2684573.6835667002 1248828.1761155033 607.26578124980119
v 2684573.5000045598 1248828.8750260109 607.26578124980119
v 2684572.7499760063 1248829.1250175578 607.26578124980119
v 2684572.747641148 1248829.3719858159 607.26578124980119
v 2684572.2523402129 1248829.7529865359 607.26578124980119
v 2684572.1701619695 1248829.7729500281 607.26578124980119
v 2684572.1752069546 1248829.3027529209 607.26578124980119
v 2684572.68263837 1248828.9124210633 607.26578124980119
v 2684572.6896139137 1248827.9214749765 607.26578124980119
v 2684571.5604218375 1248826.4535252773 607.26578124980119
v 2684571.403302067 1248826.0743451666 607.26578124980119
v 2684571.0362358466 1248825.597159079 607.26578124980119
v 2684570.5725363633 1248823.9442454951 607.26578124980119
v 2684570.9214877356 1248824.3104200738 607.26578124980119
v 2684569.790881474 1248823.9781983946 607.26578124980119
v 2684572.9637793279 1248827.527879294 607.26578124980119
v 2684573.1352275778 1248827.4632746442 607.26578124980119
l 1 2
l 3 4
l 4 5
l 5 6
l 6 7
l 7 8
l 8 10
l 10 11
l 12 13
l 13 14
l 14 15
l 15 16
l 16 17
l 17 18
l 20 21
l 20 22
l 18 24
l 24 25
l 25 26
l 26 27
l 27 28
l 29 30
l 30 31
l 32 33
l 33 34
l 34 35
l 35 36
l 36 37
l 37 38
l 38 39
l 39 40
l 40 41
l 41 42
l 42 43
l 43 44
l 44 45
l 45 46
l 46 47
l 47 48
l 49 50
l 50 51
l 51 52
l 52 53
l 53 54
l 54 55
l 55 56
l 56 57
l 57 58
l 58 59
l 60 61
l 61 62
l 63 64
l 64 65
l 65 66
l 62 67
l 67 68
l 69 70
l 70 71
l 60 71
l 59 72
l 3 72
l 2 73
l 73 74
l 9 75
l 75 76
l 9 77
l 11 78
l 23 79
l 79 80
l 19 80
l 19 23
l 31 32
l 48 49
l 66 82
l 63 83
l 69 84
l 74 86
l 86 87
l 76 77
l 12 78
l 81 88
l 81 89
l 28 29
l 82 90
l 83 90
l 68 84
l 85 91
l 91 92
l 85 93
l 22 94
l 89 95
l 21 94
l 88 95
l 92 93
l 1 87
l 96 97
l 97 98
l 98 99
l 99 100
l 100 101
l 96 101
l 102 103
l 103 104
l 104 105
l 105 106
l 106 107
l 107 108
l 108 109
l 109 110
l 111 112
l 112 113
l 113 114
l 114 115
l 116 117
l 117 118
l 118 119
l 120 121
l 121 122
l 122 123
l 123 124
l 125 126
l 126 127
l 127 128
l 128 129
l 102 129
l 111 130
l 115 131
l 116 132
l 120 133
l 124 125
l 130 134
l 131 132
l 110 134
l 119 133
l 135 136
l 136 137
l 137 138
l 135 138
l 139 140
l 140 141
l 141 142
l 139 142
l 143 144
l 144 145
l 145 146
l 143 146
l 147 148
l 148 149
l 149 150
l 150 151
l 151 152
l 152 153
l 147 153
l 154 155
l 155 156
l 156 157
l 154 157
l 158 159
l 159 160
l 160 161
l 158 161
l 162 163
l 163 164
l 164 165
l 162 165
l 166 167
l 167 168
l 168 169
l 169 170
l 170 171
l 171 172
l 172 173
l 173 174
l 166 174
l 175 176
l 176 177
l 177 178
l 175 178
l 179 180
l 180 181
l 181 182
l 179 182
l 183 184
l 184 185
l 185 186
l 186 187
l 183 187
l 188 189
l 189 190
l 190 191
l 191 192
l 188 192
l 193 194
l 194 195
l 195 196
l 196 197
l 197 198
l 198 199
l 193 199
l 200 201
l 201 202
l 202 203
l 203 204
l 200 204
l 6 205
l 205 206
l 7 206
l 206 207
l 8 207
l 207 208
l 10 208
l 208 209
l 78 162
l 11 163
l 12 165
l 13 164
l 210 211
l 15 158
l 14 159
l 16 161
l 17 160
l 212 213
l 18 213
l 213 214
l 24 214
l 214 215
l 25 215
l 215 216
l 26 216
l 216 217
l 27 217
l 217 218
l 28 218
l 218 219
l 29 219
l 219 220
l 31 139
l 30 140
l 32 142
l 33 141
l 221 222
l 222 223
l 223 224
l 36 224
l 224 225
l 37 225
l 225 226
l 38 226
l 226 227
l 39 227
l 227 228
l 40 228
l 228 229
l 41 229
l 229 230
l 42 230
l 230 231
l 231 232
l 44 232
l 232 233
l 45 233
l 233 234
l 46 234
l 234 235
l 47 235
l 235 236
l 236 237
l 237 238
l 238 239
l 51 239
l 239 240
l 52 240
l 240 241
l 53 241
l 241 242
l 54 242
l 242 243
l 55 243
l 56 169
l 55 170
l 57 168
l 58 167
l 244 245
l 245 246
l 72 246
l 246 247
l 3 247
l 247 248
l 4 248
l 248 249
l 205 249
l 90 250
l 250 251
l 83 251
l 251 252
l 63 252
l 252 253
l 64 253
l 253 254
l 65 254
l 254 255
l 66 255
l 255 256
l 82 256
l 250 256
l 1 257
l 257 258
l 2 258
l 258 259
l 73 259
l 259 260
l 74 260
l 260 261
l 86 261
l 261 262
l 87 262
l 257 262
l 60 263
l 263 264
l 62 147
l 61 148
l 67 153
l 68 152
l 84 151
l 69 150
l 70 149
l 70 265
l 265 266
l 71 266
l 263 266
l 21 267
l 267 268
l 94 268
l 268 269
l 22 269
l 269 270
l 20 270
l 267 270
l 85 137
l 93 138
l 91 136
l 92 135
l 81 145
l 89 146
l 88 144
l 95 143
l 23 156
l 19 157
l 79 155
l 80 154
l 9 177
l 77 178
l 75 176
l 76 175
l 98 271
l 271 272
l 99 272
l 272 273
l 101 200
l 100 201
l 274 275
l 96 275
l 275 276
l 271 276
l 112 181
l 111 182
l 277 278
l 114 173
l 113 174
l 279 280
l 131 183
l 115 184
l 132 187
l 116 186
l 281 282
l 119 188
l 118 189
l 133 192
l 120 191
l 121 190
l 121 283
l 283 284
l 122 284
l 123 198
l 122 199
l 124 197
l 125 196
l 126 195
l 285 286
l 127 286
l 286 287
l 128 287
l 287 288
l 129 288
l 288 289
l 102 289
l 289 290
l 103 290
l 290 291
l 105 203
l 104 204
l 106 202
l 292 293
l 107 293
l 293 294
l 108 294
l 294 295
l 109 295
l 295 296
l 110 296
l 296 297
l 130 179
l 134 180
l 220 221
l 264 265
l 211 212
l 209 210
l 243 298
l 298 299
l 279 299
l 278 300
l 166 300
l 244 300
l 277 297
l 280 281
l 282 283
l 284 301
l 193 301
l 301 302
l 194 302
l 285 302
l 274 291
l 273 292
