# pointcloud_to_mesh 0.5.1; candidate requires geometry validation; coordinates preserved
v 3.040776923 5.295084615 5.431857388
v 2.472584615 5.574623077 5.431549325
v 1.293538462 6.065892308 5.430919636
v -1.635846154 7.286469231 5.429355151
v -2.724678794 7.706431504 5.428777276
v -7.412292308 -3.245361538 5.427664358
v -4.369738462 -4.513092308 5.429289283
v -3.786353846 -4.756169231 5.429600849
v -1.318784615 -5.784323077 5.430918694
v -0.735400000 -6.027400000 5.431230260
v 0.796169231 -6.665553846 5.432048219
v 1.379646154 -6.908669231 5.432359834
v 1.792907692 -7.080861538 5.432580543
v 2.023861538 -7.177092308 5.432703888
v 5.767584615 -8.736976923 5.434703283
v 6.577930769 -6.792146154 5.434890113
v 7.398453846 -4.994230769 5.435097752
v 7.532153846 -3.509330769 5.435003148
v 8.295861538 -3.028692308 5.435324938
v 8.822592308 -1.764538462 5.435446379
v 10.356153846 1.933169231 5.435798101
v 9.928738462 2.482192308 5.435529863
v 9.244015385 2.310976923 5.435213367
v 8.559207692 2.995738462 5.434804595
v 7.950515385 3.178076923 5.434487194
v 6.771469231 3.669346154 5.433857505
v 5.820300000 3.851600000 5.433372585
v 5.094992308 4.439161538 5.432954475
v 3.806561538 4.976007692 5.432266367
v -8.244193828 0.530664095 5.848321397
v -8.877307692 0.794461538 5.976418902
v -8.990769231 0.522153846 5.975860335
v -8.364448724 0.261186968 5.849137325
v -7.908923077 0.071384615 5.756971126
v -9.013000000 -2.578400000 5.751535790
v -8.830692308 -2.654361538 5.714649597
v -8.599738462 -2.750592308 5.667920859
v -3.479469231 7.997553846 5.579776717
v -4.088161538 8.179892308 5.697687947
v -4.714284615 8.440776923 5.824371010
v -5.498161538 8.767392308 5.982972304
v -5.477938462 7.446507692 5.882308982
v -6.468538462 7.089007692 6.026060885
v -6.883846154 6.092269231 6.024016338
v -6.847369231 4.536353846 5.903268979
v -7.532123077 4.193984615 5.995629389
v -7.671876923 3.738715385 5.986122003
v -7.946184615 3.080376923 5.984771595
v -7.238047613 2.785319839 5.841494709
v -7.098061538 2.726992308 5.813171420
v -8.047369231 0.448653846 5.808498008
v -8.364448724 0.261186968 6.011989450
v -8.990769231 0.522153846 6.011989450
v -10.094846154 -2.127630769 6.011989450
v -9.534630769 -2.361053846 6.011989450
v -9.013000000 -2.578400000 6.011989450
v -7.908923077 0.071384615 6.011989450
v -8.216861538 1.797392308 6.020205987
v -8.707153846 1.202830769 6.020205987
v -8.877307692 0.794461538 6.020205987
v -8.244193828 0.530664095 6.020205987
v -8.047369231 0.448653846 6.020205987
v -7.098061538 2.726992308 6.020205987
v -7.238047613 2.785319839 6.020205987
v -7.946184615 3.080376923 6.020205987
v -8.077069231 2.766253846 6.020205987
v 1.293538462 6.065892308 -6.106916118
v -1.635846154 7.286469231 -6.106916118
v -2.724678762 7.706431492 -6.106916118
v -7.412292308 -3.245361538 -6.106916118
v -4.369738462 -4.513092308 -6.106916118
v -3.786353846 -4.756169231 -6.106916118
v -1.318784615 -5.784323077 -6.106916118
v -0.735400000 -6.027400000 -6.106916118
v 0.796169231 -6.665553846 -6.106916118
v 1.379646154 -6.908669231 -6.106916118
v 1.792907692 -7.080861538 -6.106916118
v 2.023861538 -7.177092308 -6.106916118
v 5.767584615 -8.736976923 -6.106916118
v 6.577930769 -6.792146154 -6.106916118
v 7.398453846 -4.994230769 -6.106916118
v 7.532153846 -3.509330769 -6.106916118
v 8.295861538 -3.028692308 -6.106916118
v 8.822592308 -1.764538462 -6.106916118
v 10.356153846 1.933169231 -6.106916118
v 9.928738462 2.482192308 -6.106916118
v 9.244015385 2.310976923 -6.106916118
v 8.559207692 2.995738462 -6.106916118
v 7.950515385 3.178076923 -6.106916118
v 6.771469231 3.669346154 -6.106916118
v 5.820300000 3.851600000 -6.106916118
v 5.094992308 4.439161538 -6.106916118
v 3.806561538 4.976007692 -6.106916118
v 3.040776923 5.295084615 -6.106916118
v 2.472584615 5.574623077 -6.106916118
v -8.877307692 0.794461538 -6.106916118
v -8.990769231 0.522153846 -6.106916118
v -9.013000000 -2.578400000 -6.106916118
v -8.830692308 -2.654361538 -6.106916118
v -8.599738462 -2.750592308 -6.106916118
v -3.479469231 7.997553846 -6.106916118
v -4.088161538 8.179892308 -6.106916118
v -4.714284615 8.440776923 -6.106916118
v -5.498161538 8.767392308 -6.106916118
v -5.477938462 7.446507692 -6.106916118
v -6.468538462 7.089007692 -6.106916118
v -6.883846154 6.092269231 -6.106916118
v -6.847369231 4.536353846 -6.106916118
v -7.532123077 4.193984615 -6.106916118
v -7.671876923 3.738715385 -6.106916118
v -7.946184615 3.080376923 -6.106916118
v -8.244193785 0.530664077 -6.106916118
v -10.094846154 -2.127630769 -6.106916118
v -9.534630769 -2.361053846 -6.106916118
v -8.707153846 1.202830769 -6.106916118
v -8.077069231 2.766253846 -6.106916118
v -8.216861538 1.797392308 -6.106916118
g roof
f 1 2 3
g roof
f 1 3 4
g roof
f 1 4 5
g roof
f 1 5 6
g roof
f 1 6 7
g roof
f 1 7 8
g roof
f 1 8 9
g roof
f 1 9 10
g roof
f 1 10 11
g roof
f 1 11 12
g roof
f 1 12 13
g roof
f 1 13 14
g roof
f 1 14 15
g roof
f 1 15 16
g roof
f 1 16 17
g roof
f 1 17 18
g roof
f 1 18 19
g roof
f 1 19 20
g roof
f 20 21 22
g roof
f 20 22 23
g roof
f 20 23 24
g roof
f 20 24 25
g roof
f 20 25 26
g roof
f 20 26 27
g roof
f 20 27 28
g roof
f 20 28 29
g roof
f 20 29 1
g roof
f 30 31 32
g roof
f 30 32 33
g roof
f 30 33 34
g roof
f 34 35 36
g roof
f 34 36 37
g roof
f 34 37 6
g roof
f 34 6 5
g roof
f 34 5 38
g roof
f 34 38 39
g roof
f 34 39 40
g roof
f 40 41 42
g roof
f 42 43 44
g roof
f 42 44 45
g roof
f 45 46 47
g roof
f 45 47 48
g roof
f 45 48 49
g roof
f 45 49 50
g roof
f 34 40 42
g roof
f 42 45 50
g roof
f 51 30 34
g roof
f 34 42 50
g roof
f 34 50 51
g roof_fixture
f 52 53 54
g roof_fixture
f 52 54 55
g roof_fixture
f 52 55 56
g roof_fixture
f 52 56 57
g roof_fixture
f 58 59 60
g roof_fixture
f 58 60 61
g roof_fixture
f 58 61 62
g roof_fixture
f 58 62 63
g roof_fixture
f 58 63 64
g roof_fixture
f 58 64 65
g roof_fixture
f 58 65 66
g facade_completed
f 4 3 67 68
g facade_completed
f 5 4 68 69
g facade_completed
f 7 6 70 71
g facade_completed
f 8 7 71 72
g facade_completed
f 9 8 72 73
g facade_completed
f 10 9 73 74
g facade_completed
f 11 10 74 75
g facade_completed
f 12 11 75 76
g facade_completed
f 13 12 76 77
g facade_completed
f 14 13 77 78
g facade_completed
f 15 14 78 79
g facade_completed
f 16 15 79 80
g facade_completed
f 17 16 80 81
g facade_completed
f 18 17 81 82
g facade_completed
f 19 18 82 83
g facade_completed
f 20 19 83 84
g facade_completed
f 21 20 84 85
g facade_completed
f 22 21 85 86
g facade_completed
f 23 22 86 87
g facade_completed
f 24 23 87 88
g facade_completed
f 25 24 88 89
g facade_completed
f 26 25 89 90
g facade_completed
f 27 26 90 91
g facade_completed
f 28 27 91 92
g facade_completed
f 29 28 92 93
g facade_completed
f 1 29 93 94
g facade_completed
f 2 1 94 95
g facade_completed
f 3 2 95 67
g facade_completed
f 32 31 96 97
g roof_step_or_fixture_side
f 53 52 33 32
g roof_step_or_fixture_side
f 52 57 34 33
g roof_step_or_fixture_side
f 57 56 35 34
g facade_completed
f 36 35 98 99
g facade_completed
f 37 36 99 100
g facade_completed
f 6 37 100 70
g facade_completed
f 38 5 69 101
g facade_completed
f 39 38 101 102
g facade_completed
f 40 39 102 103
g facade_completed
f 41 40 103 104
g facade_completed
f 42 41 104 105
g facade_completed
f 43 42 105 106
g facade_completed
f 44 43 106 107
g facade_completed
f 45 44 107 108
g facade_completed
f 46 45 108 109
g facade_completed
f 47 46 109 110
g facade_completed
f 48 47 110 111
g roof_step_or_fixture_side
f 65 64 49 48
g roof_step_or_fixture_side
f 64 63 50 49
g roof_step_or_fixture_side
f 63 62 51 50
g roof_step_or_fixture_side
f 62 61 30 51
g roof_step_or_fixture_side
f 61 60 31 30
g facade_completed
f 55 54 113 114
g facade_completed
f 56 55 114 98 35
g facade_completed
f 54 53 32 97 113
g facade_completed
f 60 59 115 96 31
g facade_completed
f 66 65 48 111 116
g facade_completed
f 58 66 116 117
g facade_completed
f 59 58 117 115
g ground_assumed
f 67 69 68
g ground_assumed
f 67 101 69
g ground_assumed
f 67 102 101
g ground_assumed
f 103 105 104
g ground_assumed
f 105 107 106
g ground_assumed
f 105 108 107
g ground_assumed
f 108 110 109
g ground_assumed
f 108 111 110
g ground_assumed
f 108 116 111
g ground_assumed
f 108 117 116
g ground_assumed
f 117 96 115
g ground_assumed
f 117 97 96
g ground_assumed
f 117 113 97
g ground_assumed
f 117 114 113
g ground_assumed
f 117 98 114
g ground_assumed
f 117 99 98
g ground_assumed
f 117 100 99
g ground_assumed
f 117 70 100
g ground_assumed
f 117 71 70
g ground_assumed
f 117 72 71
g ground_assumed
f 117 73 72
g ground_assumed
f 117 74 73
g ground_assumed
f 117 75 74
g ground_assumed
f 117 76 75
g ground_assumed
f 117 77 76
g ground_assumed
f 117 78 77
g ground_assumed
f 117 79 78
g ground_assumed
f 117 80 79
g ground_assumed
f 117 81 80
g ground_assumed
f 117 82 81
g ground_assumed
f 117 83 82
g ground_assumed
f 117 84 83
g ground_assumed
f 117 85 84
g ground_assumed
f 85 87 86
g ground_assumed
f 87 89 88
g ground_assumed
f 87 90 89
g ground_assumed
f 87 91 90
g ground_assumed
f 91 93 92
g ground_assumed
f 91 94 93
g ground_assumed
f 91 95 94
g ground_assumed
f 91 67 95
g ground_assumed
f 91 102 67
g ground_assumed
f 91 103 102
g ground_assumed
f 91 105 103
g ground_assumed
f 91 108 105
g ground_assumed
f 91 117 108
g ground_assumed
f 117 87 85
g ground_assumed
f 117 91 87
