# Source coordinates; no display transform
v 2685775.72039 1251578.804 435.316374962
v 2685775.30549 1251579.00812 435.316150013
v 2685774.44455 1251579.36684 435.315690211
v 2685772.3055 1251580.25812 435.314547817
v 2685771.51043 1251580.56477 435.31412585
v 2685768.08751 1251572.56772 435.313313191
v 2685770.3092 1251571.64202 435.31449972
v 2685770.73519 1251571.46452 435.314727227
v 2685772.53702 1251570.71376 435.315689524
v 2685772.96301 1251570.53626 435.315917031
v 2685774.08137 1251570.07028 435.316514308
v 2685774.50742 1251569.89276 435.316741851
v 2685774.80919 1251569.76702 435.316903014
v 2685774.97783 1251569.69675 435.316993081
v 2685777.71152 1251568.55772 435.318453049
v 2685778.30324 1251569.97784 435.318589473
v 2685778.90239 1251571.29069 435.318741092
v 2685779.00002 1251572.37497 435.318672012
v 2685779.55768 1251572.72593 435.318906984
v 2685779.9423 1251573.64903 435.318995661
v 2685781.06211 1251576.34911 435.31925249
v 2685780.75001 1251576.75001 435.319056622
v 2685780.25003 1251576.62499 435.318825515
v 2685779.74998 1251577.125 435.318527027
v 2685779.30551 1251577.25815 435.31829526
v 2685778.44456 1251577.61687 435.317835458
v 2685777.75001 1251577.74996 435.317481367
v 2685777.22039 1251578.179 435.317176061
v 2685776.27957 1251578.57101 435.316673601
v 2685767.48005 1251575.32499 435.620479021
v 2685767.01775 1251575.51762 435.714016446
v 2685766.9349 1251575.31878 435.713608578
v 2685767.39224 1251575.12822 435.621074815
v 2685767.72487 1251574.98963 435.553774606
v 2685766.91866 1251573.05474 435.549805697
v 2685767.05179 1251572.99927 435.522871218
v 2685767.22043 1251572.929 435.488749665
v 2685770.95927 1251580.77735 435.424386381
v 2685770.5148 1251580.9105 435.510485738
v 2685770.05761 1251581.101 435.602990331
v 2685769.48522 1251581.33949 435.718801772
v 2685769.49998 1251580.37498 435.645296922
v 2685768.77664 1251580.11393 435.750265265
v 2685768.47338 1251579.3861 435.748772327
v 2685768.50002 1251578.24997 435.660602014
v 2685768.00001 1251577.99997 435.728044038
v 2685767.89796 1251577.66753 435.721101698
v 2685767.69766 1251577.18681 435.720115623
v 2685768.21474 1251576.97135 435.61549414
v 2685768.31696 1251576.92876 435.594812336
v 2685767.62377 1251575.26511 435.591399787
v 2685767.39224 1251575.12822 435.739990234
v 2685766.9349 1251575.31878 435.739990234
v 2685766.12869 1251573.38389 435.739990234
v 2685766.53777 1251573.21345 435.739990234
v 2685766.91866 1251573.05474 435.739990234
v 2685767.72487 1251574.98963 435.739990234
v 2685767.50001 1251576.24996 435.74598999
v 2685767.14199 1251575.81581 435.74598999
v 2685767.01775 1251575.51762 435.74598999
v 2685767.48005 1251575.32499 435.74598999
v 2685767.62377 1251575.26511 435.74598999
v 2685768.31696 1251576.92876 435.74598999
v 2685768.21474 1251576.97135 435.74598999
v 2685767.69766 1251577.18681 435.74598999
v 2685767.60208 1251576.95743 435.74598999
v 2685774.44455 1251579.36684 426.890706055
v 2685772.3055 1251580.25812 426.890706055
v 2685771.51043 1251580.56477 426.890706055
v 2685768.08751 1251572.56772 426.890706055
v 2685770.3092 1251571.64202 426.890706055
v 2685770.73519 1251571.46452 426.890706055
v 2685772.53702 1251570.71376 426.890706055
v 2685772.96301 1251570.53626 426.890706055
v 2685774.08137 1251570.07028 426.890706055
v 2685774.50742 1251569.89276 426.890706055
v 2685774.80919 1251569.76702 426.890706055
v 2685774.97783 1251569.69675 426.890706055
v 2685777.71152 1251568.55772 426.890706055
v 2685778.30324 1251569.97784 426.890706055
v 2685778.90239 1251571.29069 426.890706055
v 2685779.00002 1251572.37497 426.890706055
v 2685779.55768 1251572.72593 426.890706055
v 2685779.9423 1251573.64903 426.890706055
v 2685781.06211 1251576.34911 426.890706055
v 2685780.75001 1251576.75001 426.890706055
v 2685780.25003 1251576.62499 426.890706055
v 2685779.74998 1251577.125 426.890706055
v 2685779.30551 1251577.25815 426.890706055
v 2685778.44456 1251577.61687 426.890706055
v 2685777.75001 1251577.74996 426.890706055
v 2685777.22039 1251578.179 426.890706055
v 2685776.27957 1251578.57101 426.890706055
v 2685775.72039 1251578.804 426.890706055
v 2685775.30549 1251579.00812 426.890706055
v 2685767.01775 1251575.51762 426.890706055
v 2685766.9349 1251575.31878 426.890706055
v 2685766.91866 1251573.05474 426.890706055
v 2685767.05179 1251572.99927 426.890706055
v 2685767.22043 1251572.929 426.890706055
v 2685770.95927 1251580.77735 426.890706055
v 2685770.5148 1251580.9105 426.890706055
v 2685770.05761 1251581.101 426.890706055
v 2685769.48522 1251581.33949 426.890706055
v 2685769.49998 1251580.37498 426.890706055
v 2685768.77664 1251580.11393 426.890706055
v 2685768.47338 1251579.3861 426.890706055
v 2685768.50002 1251578.24997 426.890706055
v 2685768.00001 1251577.99997 426.890706055
v 2685767.89796 1251577.66753 426.890706055
v 2685767.69766 1251577.18681 426.890706055
v 2685767.48005 1251575.32499 426.890706055
v 2685766.12869 1251573.38389 426.890706055
v 2685766.53777 1251573.21345 426.890706055
v 2685767.14199 1251575.81581 426.890706055
v 2685767.60208 1251576.95743 426.890706055
v 2685767.50001 1251576.24996 426.890706055
g roof
f 1 2 3
g roof
f 1 3 4
g roof
f 1 4 5
g roof
f 1 5 6
g roof
f 1 6 7
g roof
f 1 7 8
g roof
f 1 8 9
g roof
f 1 9 10
g roof
f 1 10 11
g roof
f 1 11 12
g roof
f 1 12 13
g roof
f 1 13 14
g roof
f 1 14 15
g roof
f 1 15 16
g roof
f 1 16 17
g roof
f 1 17 18
g roof
f 1 18 19
g roof
f 1 19 20
g roof
f 20 21 22
g roof
f 20 22 23
g roof
f 20 23 24
g roof
f 20 24 25
g roof
f 20 25 26
g roof
f 20 26 27
g roof
f 20 27 28
g roof
f 20 28 29
g roof
f 20 29 1
g roof
f 30 31 32
g roof
f 30 32 33
g roof
f 30 33 34
g roof
f 34 35 36
g roof
f 34 36 37
g roof
f 34 37 6
g roof
f 34 6 5
g roof
f 34 5 38
g roof
f 34 38 39
g roof
f 34 39 40
g roof
f 40 41 42
g roof
f 42 43 44
g roof
f 42 44 45
g roof
f 45 46 47
g roof
f 45 47 48
g roof
f 45 48 49
g roof
f 45 49 50
g roof
f 34 40 42
g roof
f 42 45 50
g roof
f 51 30 34
g roof
f 34 42 50
g roof
f 34 50 51
g roof_fixture
f 52 53 54
g roof_fixture
f 52 54 55
g roof_fixture
f 52 55 56
g roof_fixture
f 52 56 57
g roof_fixture
f 58 59 60
g roof_fixture
f 58 60 61
g roof_fixture
f 58 61 62
g roof_fixture
f 58 62 63
g roof_fixture
f 58 63 64
g roof_fixture
f 58 64 65
g roof_fixture
f 58 65 66
g facade_completed
f 4 3 67 68
g facade_completed
f 5 4 68 69
g facade_completed
f 7 6 70 71
g facade_completed
f 8 7 71 72
g facade_completed
f 9 8 72 73
g facade_completed
f 10 9 73 74
g facade_completed
f 11 10 74 75
g facade_completed
f 12 11 75 76
g facade_completed
f 13 12 76 77
g facade_completed
f 14 13 77 78
g facade_completed
f 15 14 78 79
g facade_completed
f 16 15 79 80
g facade_completed
f 17 16 80 81
g facade_completed
f 18 17 81 82
g facade_completed
f 19 18 82 83
g facade_completed
f 20 19 83 84
g facade_completed
f 21 20 84 85
g facade_completed
f 22 21 85 86
g facade_completed
f 23 22 86 87
g facade_completed
f 24 23 87 88
g facade_completed
f 25 24 88 89
g facade_completed
f 26 25 89 90
g facade_completed
f 27 26 90 91
g facade_completed
f 28 27 91 92
g facade_completed
f 29 28 92 93
g facade_completed
f 1 29 93 94
g facade_completed
f 2 1 94 95
g facade_completed
f 3 2 95 67
g facade_completed
f 32 31 96 97
g roof_step_or_fixture_side
f 53 52 33 32
g roof_step_or_fixture_side
f 52 57 34 33
g roof_step_or_fixture_side
f 57 56 35 34
g facade_completed
f 36 35 98 99
g facade_completed
f 37 36 99 100
g facade_completed
f 6 37 100 70
g facade_completed
f 38 5 69 101
g facade_completed
f 39 38 101 102
g facade_completed
f 40 39 102 103
g facade_completed
f 41 40 103 104
g facade_completed
f 42 41 104 105
g facade_completed
f 43 42 105 106
g facade_completed
f 44 43 106 107
g facade_completed
f 45 44 107 108
g facade_completed
f 46 45 108 109
g facade_completed
f 47 46 109 110
g facade_completed
f 48 47 110 111
g roof_step_or_fixture_side
f 65 64 49 48
g roof_step_or_fixture_side
f 64 63 50 49
g roof_step_or_fixture_side
f 63 62 51 50
g roof_step_or_fixture_side
f 62 61 30 51
g roof_step_or_fixture_side
f 61 60 31 30
g facade_completed
f 55 54 113 114
g facade_completed
f 56 55 114 98 35
g facade_completed
f 54 53 32 97 113
g facade_completed
f 60 59 115 96 31
g facade_completed
f 66 65 48 111 116
g facade_completed
f 58 66 116 117
g facade_completed
f 59 58 117 115
g ground_assumed
f 67 69 68
g ground_assumed
f 67 101 69
g ground_assumed
f 67 102 101
g ground_assumed
f 103 105 104
g ground_assumed
f 105 107 106
g ground_assumed
f 105 108 107
g ground_assumed
f 108 110 109
g ground_assumed
f 108 111 110
g ground_assumed
f 108 116 111
g ground_assumed
f 108 117 116
g ground_assumed
f 117 96 115
g ground_assumed
f 117 97 96
g ground_assumed
f 117 113 97
g ground_assumed
f 117 114 113
g ground_assumed
f 117 98 114
g ground_assumed
f 117 99 98
g ground_assumed
f 117 100 99
g ground_assumed
f 117 70 100
g ground_assumed
f 117 71 70
g ground_assumed
f 117 72 71
g ground_assumed
f 117 73 72
g ground_assumed
f 117 74 73
g ground_assumed
f 117 75 74
g ground_assumed
f 117 76 75
g ground_assumed
f 117 77 76
g ground_assumed
f 117 78 77
g ground_assumed
f 117 79 78
g ground_assumed
f 117 80 79
g ground_assumed
f 117 81 80
g ground_assumed
f 117 82 81
g ground_assumed
f 117 83 82
g ground_assumed
f 117 84 83
g ground_assumed
f 117 85 84
g ground_assumed
f 85 87 86
g ground_assumed
f 87 89 88
g ground_assumed
f 87 90 89
g ground_assumed
f 87 91 90
g ground_assumed
f 91 93 92
g ground_assumed
f 91 94 93
g ground_assumed
f 91 95 94
g ground_assumed
f 91 67 95
g ground_assumed
f 91 102 67
g ground_assumed
f 91 103 102
g ground_assumed
f 91 105 103
g ground_assumed
f 91 108 105
g ground_assumed
f 91 117 108
g ground_assumed
f 117 87 85
g ground_assumed
f 117 91 87
