# XYZ-only planar convex-roof baseline. Provisional base; no GT.
v 8.81547181 2.26743257 3.78119348
v -2.28993919 9.36255626 3.69085797
v -2.31678968 9.32052940 3.72791903
v -0.37799574 0.33118650 8.62598657
v -0.14734791 0.18754762 8.62551979
v -9.44416927 -1.83536908 3.77655890
v -9.47325089 -1.88088814 3.73697213
v 1.98939798 -9.20424714 3.59860167
v 9.17719582 2.03633112 3.46231353
v 1.99388411 -9.20711328 3.59464688
v 8.81547181 2.26743257 -8.32523955
v -2.28993919 9.36255626 -8.32523955
v -2.31678968 9.32052940 -8.32523955
v -9.44416927 -1.83536908 -8.32523955
v -9.47325089 -1.88088814 -8.32523955
v 1.98939798 -9.20424714 -8.32523955
v 1.99388411 -9.20711328 -8.32523955
v 9.17719582 2.03633112 -8.32523955
g roof
f 1 2 3 4 5
g roof
f 6 7 8 5 4
g roof
f 3 6 4
g roof
f 9 1 5 8 10
g wall
f 2 1 11 12
g wall
f 3 2 12 13
g wall
f 7 6 14 15
g wall
f 8 7 15 16
g wall
f 6 3 13 14
g wall
f 1 9 18 11
g wall
f 10 8 16 17
g wall
f 9 10 17 18
g ground_assumed
f 18 17 16 15 14 13 12 11
