v 2680444.2782850391 1250795.5183873372 507.49707441389404
v 2680436.8415410938 1250800.2696404103 507.43658119513509
v 2680436.82356065 1250800.2414971029 507.46139915221551
v 2680438.1218749667 1250794.2217792028 510.7413924925242
v 2680438.2763283993 1250794.1255913561 510.74107991306732
v 2680432.0507073975 1250792.7709441916 507.49397086511465
v 2680432.0312328762 1250792.7404623309 507.46746156508891
v 2680439.707201337 1250787.8363713699 507.37480171840673
v 2680444.5205137003 1250795.3636301374 507.28353629833799
v 2680439.7102054763 1250787.8344520577 507.37215339133559
v 2680444.2782850391 1250795.5183873372 499.38999557330845
v 2680436.8415410938 1250800.2696404103 499.38999557330845
v 2680436.82356065 1250800.2414971029 499.38999557330845
v 2680432.0507073975 1250792.7709441916 499.38999557330845
v 2680432.0312328762 1250792.7404623309 499.38999557330845
v 2680439.707201337 1250787.8363713699 499.38999557330845
v 2680439.7102054763 1250787.8344520577 499.38999557330845
v 2680444.5205137003 1250795.3636301374 499.38999557330845
l 1 2
l 2 3
l 3 4
l 4 5
l 1 5
l 6 7
l 7 8
l 5 8
l 4 6
l 3 6
l 1 9
l 8 10
l 9 10
l 11 12
l 2 12
l 12 13
l 14 15
l 7 15
l 15 16
l 13 14
l 9 18
l 11 18
l 16 17
l 10 17
l 17 18
