# Source coordinates; no display transform
v 2680631.99998 1246303.87499 460.246465627
v 2680632.19023 1246303.19654 460.246552416
v 2680633.79755 1246298.92108 460.247952812
v 2680639.62353 1246301.1113 460.261131552
v 2680638.72856 1246303.49194 460.260351791
v 2680638.028 1246304.26054 460.259239843
v 2680637.472 1246305.73949 460.258755423
v 2680636.97232 1246306.80119 460.258197545
v 2680638.49979 1246307.37543 460.261652779
v 2680638.49999 1246308.37497 460.262111096
v 2680637.74998 1246308.87499 460.260772754
v 2680637.74999 1246309.49997 460.26105909
v 2680637.24996 1246310 460.260243183
v 2680637.07296 1246310.68343 460.260186364
v 2680636.17705 1246313.06656 460.259405786
v 2680635.61031 1246313.41652 460.258381714
v 2680634.88963 1246315.33354 460.257753808
v 2680634.25001 1246316.25004 460.256836987
v 2680634.24999 1246316.75001 460.257065977
v 2680633.49998 1246317.25003 460.255727636
v 2680633.32951 1246317.93592 460.255685607
v 2680632.67044 1246319.68905 460.255111381
v 2680631.24658 1246322.79668 460.253559363
v 2680629.05693 1246321.9735 460.248606243
v 2680628.72412 1246321.81873 460.247839831
v 2680628.02581 1246321.55621 460.246260212
v 2680625.64224 1246320.41152 460.240754533
v 2680625.75004 1246319.74999 460.24067675
v 2680626.99996 1246318.74999 460.242830775
v 2680626.99996 1246317.87503 460.242429944
v 2680627.50002 1246317.5 460.243303197
v 2680627.49997 1246316.75002 460.242959516
v 2680629.00003 1246315.00002 460.245292713
v 2680628.75002 1246313.75005 460.244197608
v 2680629.24996 1246313.24999 460.24501332
v 2680629.24999 1246312.75002 460.24478433
v 2680629.74916 1246312.24966 460.24559829
v 2680630.50079 1246310.25031 460.246253163
v 2680631.47001 1246308.51972 460.247485882
v 2680631.74999 1246307.875 460.247775645
v 2680632.20141 1246307.3567 460.248481599
v 2680632.79858 1246305.76823 460.24900189
v 2680633.24997 1246305.25001 460.249707817
v 2680633.79755 1246298.92108 457.962048218
v 2680639.62353 1246301.1113 457.962048218
v 2680638.72856 1246303.49194 457.962048218
v 2680638.028 1246304.26054 457.962048218
v 2680637.472 1246305.73949 457.962048218
v 2680636.97232 1246306.80119 457.962048218
v 2680638.49979 1246307.37543 457.962048218
v 2680638.49999 1246308.37497 457.962048218
v 2680637.74998 1246308.87499 457.962048218
v 2680637.74999 1246309.49997 457.962048218
v 2680637.24996 1246310 457.962048218
v 2680637.07296 1246310.68343 457.962048218
v 2680636.17705 1246313.06656 457.962048218
v 2680635.61031 1246313.41652 457.962048218
v 2680634.88963 1246315.33354 457.962048218
v 2680634.25001 1246316.25004 457.962048218
v 2680634.24999 1246316.75001 457.962048218
v 2680633.49998 1246317.25003 457.962048218
v 2680633.32951 1246317.93592 457.962048218
v 2680632.67044 1246319.68905 457.962048218
v 2680631.24658 1246322.79668 457.962048218
v 2680629.05693 1246321.9735 457.962048218
v 2680628.72412 1246321.81873 457.962048218
v 2680628.02581 1246321.55621 457.962048218
v 2680625.64224 1246320.41152 457.962048218
v 2680625.75004 1246319.74999 457.962048218
v 2680626.99996 1246318.74999 457.962048218
v 2680626.99996 1246317.87503 457.962048218
v 2680627.50002 1246317.5 457.962048218
v 2680627.49997 1246316.75002 457.962048218
v 2680629.00003 1246315.00002 457.962048218
v 2680628.75002 1246313.75005 457.962048218
v 2680629.24996 1246313.24999 457.962048218
v 2680629.24999 1246312.75002 457.962048218
v 2680629.74916 1246312.24966 457.962048218
v 2680630.50079 1246310.25031 457.962048218
v 2680631.47001 1246308.51972 457.962048218
v 2680631.74999 1246307.875 457.962048218
v 2680632.20141 1246307.3567 457.962048218
v 2680632.79858 1246305.76823 457.962048218
v 2680633.24997 1246305.25001 457.962048218
v 2680631.99998 1246303.87499 457.962048218
v 2680632.19023 1246303.19654 457.962048218
g roof
f 1 2 3
g roof
f 1 3 4
g roof
f 1 4 5
g roof
f 1 5 6
g roof
f 1 6 7
g roof
f 1 7 8
g roof
f 8 9 10
g roof
f 8 10 11
g roof
f 8 11 12
g roof
f 8 12 13
g roof
f 8 13 14
g roof
f 8 14 15
g roof
f 8 15 16
g roof
f 8 16 17
g roof
f 8 17 18
g roof
f 18 19 20
g roof
f 20 21 22
g roof
f 20 22 23
g roof
f 20 23 24
g roof
f 20 24 25
g roof
f 20 25 26
g roof
f 20 26 27
g roof
f 20 27 28
g roof
f 20 28 29
g roof
f 20 29 30
g roof
f 20 30 31
g roof
f 20 31 32
g roof
f 20 32 33
g roof
f 20 33 34
g roof
f 20 34 35
g roof
f 20 35 36
g roof
f 20 36 37
g roof
f 20 37 38
g roof
f 20 38 39
g roof
f 20 39 40
g roof
f 20 40 41
g roof
f 20 41 42
g roof
f 20 42 43
g roof
f 43 1 8
g roof
f 43 8 18
g roof
f 43 18 20
g facade_completed
f 4 3 44 45
g facade_completed
f 5 4 45 46
g facade_completed
f 6 5 46 47
g facade_completed
f 7 6 47 48
g facade_completed
f 8 7 48 49
g facade_completed
f 9 8 49 50
g facade_completed
f 10 9 50 51
g facade_completed
f 11 10 51 52
g facade_completed
f 12 11 52 53
g facade_completed
f 13 12 53 54
g facade_completed
f 14 13 54 55
g facade_completed
f 15 14 55 56
g facade_completed
f 16 15 56 57
g facade_completed
f 17 16 57 58
g facade_completed
f 18 17 58 59
g facade_completed
f 19 18 59 60
g facade_completed
f 20 19 60 61
g facade_completed
f 21 20 61 62
g facade_completed
f 22 21 62 63
g facade_completed
f 23 22 63 64
g facade_completed
f 24 23 64 65
g facade_completed
f 25 24 65 66
g facade_completed
f 26 25 66 67
g facade_completed
f 27 26 67 68
g facade_completed
f 28 27 68 69
g facade_completed
f 29 28 69 70
g facade_completed
f 30 29 70 71
g facade_completed
f 31 30 71 72
g facade_completed
f 32 31 72 73
g facade_completed
f 33 32 73 74
g facade_completed
f 34 33 74 75
g facade_completed
f 35 34 75 76
g facade_completed
f 36 35 76 77
g facade_completed
f 37 36 77 78
g facade_completed
f 38 37 78 79
g facade_completed
f 39 38 79 80
g facade_completed
f 40 39 80 81
g facade_completed
f 41 40 81 82
g facade_completed
f 42 41 82 83
g facade_completed
f 43 42 83 84
g facade_completed
f 1 43 84 85
g facade_completed
f 2 1 85 86
g facade_completed
f 3 2 86 44
g ground_assumed
f 86 45 44
g ground_assumed
f 86 46 45
g ground_assumed
f 86 47 46
g ground_assumed
f 86 48 47
g ground_assumed
f 86 49 48
g ground_assumed
f 49 51 50
g ground_assumed
f 49 52 51
g ground_assumed
f 49 53 52
g ground_assumed
f 49 54 53
g ground_assumed
f 49 55 54
g ground_assumed
f 49 56 55
g ground_assumed
f 49 57 56
g ground_assumed
f 49 58 57
g ground_assumed
f 49 59 58
g ground_assumed
f 59 61 60
g ground_assumed
f 61 63 62
g ground_assumed
f 61 64 63
g ground_assumed
f 61 65 64
g ground_assumed
f 61 66 65
g ground_assumed
f 61 67 66
g ground_assumed
f 61 68 67
g ground_assumed
f 61 69 68
g ground_assumed
f 61 70 69
g ground_assumed
f 61 71 70
g ground_assumed
f 61 72 71
g ground_assumed
f 61 73 72
g ground_assumed
f 61 74 73
g ground_assumed
f 61 75 74
g ground_assumed
f 61 76 75
g ground_assumed
f 61 77 76
g ground_assumed
f 61 78 77
g ground_assumed
f 61 79 78
g ground_assumed
f 61 80 79
g ground_assumed
f 61 81 80
g ground_assumed
f 61 82 81
g ground_assumed
f 61 83 82
g ground_assumed
f 61 84 83
g ground_assumed
f 84 86 85
g ground_assumed
f 84 49 86
g ground_assumed
f 84 59 49
g ground_assumed
f 84 61 59
