# pointcloud_to_mesh 0.5.1; candidate requires geometry validation; coordinates preserved
v 7.490820840 6.743811678 1.515286353
v 6.988725497 7.307794192 1.513373321
v -8.079047431 -6.098120545 1.516051679
v -7.582471080 -6.655903808 1.517943682
v -7.013748861 -7.294725479 1.520110568
v 8.065859978 6.097894477 1.517477307
v -0.726814913 0.907235941 1.692588744
v -8.307453934 -5.841561158 1.692322983
v 6.756129879 7.569059035 1.692851079
v 4.754891966 5.787421817 1.692780920
v 4.406389462 5.477161339 1.692768702
v 1.646527474 3.020145706 1.692671948
v -0.224675535 1.354274346 1.692606347
v -0.554532362 -2.292723542 1.767703934
v 8.421535782 5.698378855 1.759652075
v -6.642048031 -7.712241338 1.773164656
v -1.956011357 -3.540414845 1.768961111
v -8.079047431 -6.098120545 -1.523915900
v -7.582471080 -6.655903808 -1.523915900
v -7.013748861 -7.294725479 -1.523915900
v 8.065859978 6.097894477 -1.523915900
v 7.490820840 6.743811678 -1.523915900
v 6.988725497 7.307794192 -1.523915900
v 6.756129879 7.569059035 -1.523915900
v 4.754891966 5.787421817 -1.523915900
v 4.406389462 5.477161339 -1.523915900
v 1.646527474 3.020145706 -1.523915900
v -0.224675535 1.354274346 -1.523915900
v -0.726814913 0.907235941 -1.523915900
v -8.307453934 -5.841561158 -1.523915900
v -0.554532362 -2.292723542 -1.523915900
v 8.421535782 5.698378855 -1.523915900
v -6.642048031 -7.712241338 -1.523915900
v -1.956011357 -3.540414845 -1.523915900
g roof
f 1 2 3
g roof
f 1 3 4
g roof
f 1 4 5
g roof
f 1 5 6
g roof
f 7 8 3
g roof
f 7 3 2
g roof
f 2 9 10
g roof
f 2 10 11
g roof
f 2 11 12
g roof
f 2 12 13
g roof
f 2 13 7
g roof
f 14 15 6
g roof
f 14 6 5
g roof
f 5 16 17
g roof
f 5 17 14
g facade_completed
f 4 3 18 19
g facade_completed
f 5 4 19 20
g facade_completed
f 1 6 21 22
g facade_completed
f 2 1 22 23
g facade_completed
f 9 2 23 24
g facade_completed
f 10 9 24 25
g facade_completed
f 11 10 25 26
g facade_completed
f 12 11 26 27
g facade_completed
f 13 12 27 28
g facade_completed
f 7 13 28 29
g facade_completed
f 8 7 29 30
g facade_completed
f 3 8 30 18
g facade_completed
f 15 14 31 32
g facade_completed
f 6 15 32 21
g facade_completed
f 16 5 20 33
g facade_completed
f 17 16 33 34
g facade_completed
f 14 17 34 31
g ground_assumed
f 31 21 32
g ground_assumed
f 31 22 21
g ground_assumed
f 31 23 22
g ground_assumed
f 31 24 23
g ground_assumed
f 31 25 24
g ground_assumed
f 31 26 25
g ground_assumed
f 31 27 26
g ground_assumed
f 31 28 27
g ground_assumed
f 31 29 28
g ground_assumed
f 31 30 29
g ground_assumed
f 31 18 30
g ground_assumed
f 31 19 18
g ground_assumed
f 31 20 19
g ground_assumed
f 20 34 33
g ground_assumed
f 20 31 34
