# XYZ-only planar convex-roof baseline. Provisional base; no GT.
v 4.41042087 -8.99409962 3.64557366
v 7.11009079 -5.12846334 3.65852877
v 10.70378951 0.11717265 3.67641015
v 11.08001527 0.75260309 3.67883166
v 11.08001527 0.83991415 3.67938783
v 11.07971210 0.85719446 3.67949922
v 10.98694411 1.05030954 3.68113035
v 10.51673770 1.39894742 3.68538360
v 7.11403191 3.76059017 3.71513517
v -5.61701113 9.22632277 3.80498067
v -6.91424724 7.70535209 3.80089923
v -9.86311745 3.40437319 3.78624813
v -10.70500216 2.15139894 3.78190562
v -11.08001527 1.45776112 3.77910809
v -11.08001527 1.42289733 3.77888601
v -10.70378951 1.03606086 3.77479566
v -9.86523960 0.42821828 3.76729914
v -2.79304423 -4.67765939 3.70420573
v 2.03240731 -8.04853303 3.66187567
v 2.99555737 -8.69790900 3.65357601
v 4.00205980 -9.22632277 3.64585949
v 4.41042087 -8.99409962 -4.06511778
v 7.11009079 -5.12846334 -4.06511778
v 10.70378951 0.11717265 -4.06511778
v 11.08001527 0.75260309 -4.06511778
v 11.08001527 0.83991415 -4.06511778
v 11.07971210 0.85719446 -4.06511778
v 10.98694411 1.05030954 -4.06511778
v 10.51673770 1.39894742 -4.06511778
v 7.11403191 3.76059017 -4.06511778
v -5.61701113 9.22632277 -4.06511778
v -6.91424724 7.70535209 -4.06511778
v -9.86311745 3.40437319 -4.06511778
v -10.70500216 2.15139894 -4.06511778
v -11.08001527 1.45776112 -4.06511778
v -11.08001527 1.42289733 -4.06511778
v -10.70378951 1.03606086 -4.06511778
v -9.86523960 0.42821828 -4.06511778
v -2.79304423 -4.67765939 -4.06511778
v 2.03240731 -8.04853303 -4.06511778
v 2.99555737 -8.69790900 -4.06511778
v 4.00205980 -9.22632277 -4.06511778
g roof
f 1 2 3 4 5 6 7 8 9 10 11 12 13 14 15 16 17 18 19 20 21
g wall
f 2 1 22 23
g wall
f 3 2 23 24
g wall
f 4 3 24 25
g wall
f 5 4 25 26
g wall
f 6 5 26 27
g wall
f 7 6 27 28
g wall
f 8 7 28 29
g wall
f 9 8 29 30
g wall
f 10 9 30 31
g wall
f 11 10 31 32
g wall
f 12 11 32 33
g wall
f 13 12 33 34
g wall
f 14 13 34 35
g wall
f 15 14 35 36
g wall
f 16 15 36 37
g wall
f 17 16 37 38
g wall
f 18 17 38 39
g wall
f 19 18 39 40
g wall
f 20 19 40 41
g wall
f 21 20 41 42
g wall
f 1 21 42 22
g ground_assumed
f 42 41 40 39 38 37 36 35 34 33 32 31 30 29 28 27 26 25 24 23 22
