v 0.20231746456638916 -0.41611056817527842 0.17714103228585204
v 0.32663688416305947 -0.23809856191436793 0.17773761327676482
v 0.49212620408543611 0.0034622366339986804 0.17856104830736572
v 0.50945134734610409 0.032723718902489055 0.1786725585018222
v 0.50945134734610409 0.036744380918669932 0.17869817005199165
v 0.50943738641030234 0.037540136760425037 0.17870329954580358
v 0.50516543353617105 0.046433058996253239 0.17877841285257653
v 0.48351249457916184 0.062487784268375993 0.17897427441605226
v 0.32681837218399529 0.1712411002940197 0.18034433002436517
v -0.25944436677819199 0.42293731673465762 0.18448170264559757
v -0.31918190694200665 0.35289683113293902 0.18429375290842429
v -0.45497696479600958 0.15483735853433128 0.18361907181687337
v -0.49374563712114733 0.097138070789712025 0.18341909984296895
v -0.511014938020104 0.065196146870102015 0.18329027398047082
v -0.511014938020104 0.063590674250790014 0.18328004722774838
v -0.49368979475943603 0.045776909289025822 0.18309168718632998
v -0.45507468950462765 0.017785844088083536 0.18274647349613379
v -0.12940108875840789 -0.21733910350773189 0.17984103085165867
v 0.092810275045897062 -0.37256735987861272 0.17789173755039012
v 0.13716319965962104 -0.40247103183952593 0.17750953937630753
v 0.18351249480613219 -0.4268044115266576 0.17715419471709595
v 0.20231746456638916 -0.41611056817527842 -0.1779352225585972
v 0.32663688416305947 -0.23809856191436793 -0.1779352225585972
v 0.49212620408543611 0.0034622366339986804 -0.1779352225585972
v 0.50945134734610409 0.032723718902489055 -0.1779352225585972
v 0.50945134734610409 0.036744380918669932 -0.1779352225585972
v 0.50943738641030234 0.037540136760425037 -0.1779352225585972
v 0.50516543353617105 0.046433058996253239 -0.1779352225585972
v 0.48351249457916184 0.062487784268375993 -0.1779352225585972
v 0.32681837218399529 0.1712411002940197 -0.1779352225585972
v -0.25944436677819199 0.42293731673465762 -0.1779352225585972
v -0.31918190694200665 0.35289683113293902 -0.1779352225585972
v -0.45497696479600958 0.15483735853433128 -0.1779352225585972
v -0.49374563712114733 0.097138070789712025 -0.1779352225585972
v -0.511014938020104 0.065196146870102015 -0.1779352225585972
v -0.511014938020104 0.063590674250790014 -0.1779352225585972
v -0.49368979475943603 0.045776909289025822 -0.1779352225585972
v -0.45507468950462765 0.017785844088083536 -0.1779352225585972
v -0.12940108875840789 -0.21733910350773189 -0.1779352225585972
v 0.092810275045897062 -0.37256735987861272 -0.1779352225585972
v 0.13716319965962104 -0.40247103183952593 -0.1779352225585972
v 0.18351249480613219 -0.4268044115266576 -0.1779352225585972
l 1 2
l 2 3
l 3 4
l 4 5
l 5 6
l 6 7
l 7 8
l 8 9
l 9 10
l 10 11
l 11 12
l 12 13
l 13 14
l 14 15
l 15 16
l 16 17
l 17 18
l 18 19
l 19 20
l 20 21
l 1 21
l 1 22
l 22 23
l 23 24
l 24 25
l 4 25
l 25 26
l 26 27
l 6 27
l 27 28
l 7 28
l 28 29
l 29 30
l 9 30
l 30 31
l 10 31
l 31 32
l 32 33
l 33 34
l 34 35
l 14 35
l 35 36
l 15 36
l 36 37
l 37 38
l 38 39
l 39 40
l 40 41
l 41 42
l 21 42
l 22 42
