# XYZ-only planar convex-roof baseline. Provisional base; no GT.
v 6.71403485 -6.07796839 2.84465756
v 9.82369310 -4.16976901 2.84970546
v 9.82369310 -4.09909496 2.85571905
v 8.69290828 -2.04954748 3.08732020
v 5.50624340 3.44582359 3.71613144
v -5.75658687 -3.19388826 3.72095624
v -2.19089558 -9.32897474 3.01853704
v -1.34280697 -10.60110766 2.86738715
v -1.20145887 -10.67178171 2.85422269
v 1.76685128 9.89436715 2.95562274
v 1.34280697 10.60110766 2.87154116
v 1.06011077 10.67178171 2.85075948
v -8.55156018 5.08853168 2.84756117
v -9.68234500 4.38179117 2.85157873
v -9.82369310 4.16976901 2.86297396
v -9.82369310 3.88707281 2.88787234
v -9.54099690 3.32168040 2.95222618
v -6.99673106 -1.06011077 3.46916480
v 6.71403485 -6.07796839 -3.25598735
v 9.82369310 -4.16976901 -3.25598735
v 9.82369310 -4.09909496 -3.25598735
v 8.69290828 -2.04954748 -3.25598735
v 5.50624340 3.44582359 -3.25598735
v 1.76685128 9.89436715 -3.25598735
v 1.34280697 10.60110766 -3.25598735
v 1.06011077 10.67178171 -3.25598735
v -8.55156018 5.08853168 -3.25598735
v -9.68234500 4.38179117 -3.25598735
v -9.82369310 4.16976901 -3.25598735
v -9.82369310 3.88707281 -3.25598735
v -9.54099690 3.32168040 -3.25598735
v -6.99673106 -1.06011077 -3.25598735
v -5.75658687 -3.19388826 -3.25598735
v -2.19089558 -9.32897474 -3.25598735
v -1.34280697 -10.60110766 -3.25598735
v -1.20145887 -10.67178171 -3.25598735
g roof
f 1 2 3 4 5 6 7 8 9
g roof
f 5 10 11 12 13 14 15 16 17 18 6
g wall
f 2 1 19 20
g wall
f 3 2 20 21
g wall
f 4 3 21 22
g wall
f 5 4 22 23
g wall
f 7 6 33 34
g wall
f 8 7 34 35
g wall
f 9 8 35 36
g wall
f 1 9 36 19
g wall
f 10 5 23 24
g wall
f 11 10 24 25
g wall
f 12 11 25 26
g wall
f 13 12 26 27
g wall
f 14 13 27 28
g wall
f 15 14 28 29
g wall
f 16 15 29 30
g wall
f 17 16 30 31
g wall
f 18 17 31 32
g wall
f 6 18 32 33
g ground_assumed
f 36 35 34 33 32 31 30 29 28 27 26 25 24 23 22 21 20 19
