v 2683267.9999999944 1251942.6250000058 452.09129531983388
v 2683273.4999999986 1251946.000000007 452.10022345527142
v 2683273.4999999986 1251946.1250000051 452.11085959029498
v 2683271.4999999939 1251949.7500000026 452.52048863102056
v 2683265.8637996647 1251959.4695699608 453.63265644641643
v 2683245.9434220698 1251947.7260238004 453.64118998865354
v 2683252.2500000065 1251936.8750000056 452.39883301813234
v 2683253.7500000009 1251934.6250000049 452.13149676161339
v 2683253.9999999972 1251934.5000000068 452.10821300364643
v 2683259.2500000051 1251970.8749999967 452.2875575587621
v 2683258.4999999991 1251972.1249999951 452.13884388891159
v 2683258.0000000065 1251972.2499999932 452.10208768263601
v 2683241.0000000023 1251962.3750000033 452.09643088577968
v 2683238.9999999977 1251961.1250000049 452.10353667626845
v 2683238.7500000014 1251960.749999993 452.12369122702842
v 2683238.7500000014 1251960.2500000007 452.16772857103564
v 2683239.2499999935 1251959.2499999984 452.28155012048052
v 2683243.7499999953 1251951.4999999935 453.19585072315289
v 2683267.9999999944 1251942.6250000058 441.30118774786916
v 2683273.4999999986 1251946.000000007 441.30118774786916
v 2683273.4999999986 1251946.1250000051 441.30118774786916
v 2683271.4999999939 1251949.7500000026 441.30118774786916
v 2683265.8637996647 1251959.4695699608 441.30118774786916
v 2683259.2500000051 1251970.8749999967 441.30118774786916
v 2683258.4999999991 1251972.1249999951 441.30118774786916
v 2683258.0000000065 1251972.2499999932 441.30118774786916
v 2683241.0000000023 1251962.3750000033 441.30118774786916
v 2683238.9999999977 1251961.1250000049 441.30118774786916
v 2683238.7500000014 1251960.749999993 441.30118774786916
v 2683238.7500000014 1251960.2500000007 441.30118774786916
v 2683239.2499999935 1251959.2499999984 441.30118774786916
v 2683243.7499999953 1251951.4999999935 441.30118774786916
v 2683245.9434220698 1251947.7260238004 441.30118774786916
v 2683252.2500000065 1251936.8750000056 441.30118774786916
v 2683253.7500000009 1251934.6250000049 441.30118774786916
v 2683253.9999999972 1251934.5000000068 441.30118774786916
l 1 2
l 2 3
l 3 4
l 4 5
l 5 6
l 6 7
l 7 8
l 8 9
l 1 9
l 5 10
l 10 11
l 11 12
l 12 13
l 13 14
l 14 15
l 15 16
l 16 17
l 17 18
l 6 18
l 19 20
l 2 20
l 20 21
l 3 21
l 21 22
l 22 23
l 33 34
l 34 35
l 8 35
l 35 36
l 9 36
l 19 36
l 23 24
l 24 25
l 11 25
l 25 26
l 12 26
l 26 27
l 27 28
l 14 28
l 28 29
l 15 29
l 29 30
l 16 30
l 30 31
l 31 32
l 32 33
