# XYZ-only planar convex-roof baseline. Provisional base; no GT.
v 3.50620480 -7.32925052 5.33245834
v 10.06500069 -1.02905058 5.33158248
v 9.30634622 1.74797920 5.33280795
v 5.21928741 8.38177546 5.33673981
v 4.82723615 8.89233236 5.33707664
v 4.18977490 9.54289558 5.33756672
v -6.76019668 8.93440985 5.34220665
v -7.17685613 8.51800236 5.34225710
v -8.74556510 5.75155495 5.34206269
v -10.06172520 -2.91590226 5.33986455
v -9.69705369 -3.32626268 5.33957194
v -7.42176219 -5.32632882 5.33792593
v 0.60378246 -9.58060573 5.33301801
v 0.78301069 -9.64048846 5.33291967
v 3.50620480 -7.32925052 -5.40965492
v 10.06500069 -1.02905058 -5.40965492
v 9.30634622 1.74797920 -5.40965492
v 5.21928741 8.38177546 -5.40965492
v 4.82723615 8.89233236 -5.40965492
v 4.18977490 9.54289558 -5.40965492
v -6.76019668 8.93440985 -5.40965492
v -7.17685613 8.51800236 -5.40965492
v -8.74556510 5.75155495 -5.40965492
v -10.06172520 -2.91590226 -5.40965492
v -9.69705369 -3.32626268 -5.40965492
v -7.42176219 -5.32632882 -5.40965492
v 0.60378246 -9.58060573 -5.40965492
v 0.78301069 -9.64048846 -5.40965492
g roof
f 1 2 3 4 5 6 7 8 9 10 11 12 13 14
g wall
f 2 1 15 16
g wall
f 3 2 16 17
g wall
f 4 3 17 18
g wall
f 5 4 18 19
g wall
f 6 5 19 20
g wall
f 7 6 20 21
g wall
f 8 7 21 22
g wall
f 9 8 22 23
g wall
f 10 9 23 24
g wall
f 11 10 24 25
g wall
f 12 11 25 26
g wall
f 13 12 26 27
g wall
f 14 13 27 28
g wall
f 1 14 28 15
g ground_assumed
f 28 27 26 25 24 23 22 21 20 19 18 17 16 15
