# Source coordinates; no display transform
v 0.174863342128 -0.364373043839 0.267550518386
v 0.500726058811 -0.0513582309797 0.267507002758
v 0.463033590442 0.0866138119984 0.267567888169
v 0.259974963614 0.416202795626 0.267763236005
v 0.240496557699 0.441568954482 0.267779970836
v 0.208825370153 0.47389109132 0.267804319634
v -0.335205507846 0.443659503637 0.268034846734
v -0.355906530197 0.422970999495 0.268037353257
v -0.433845190771 0.28552472373 0.268027694324
v -0.499236386498 -0.145103275761 0.267918483444
v -0.481118297303 -0.165491341425 0.267903945609
v -0.368074274914 -0.26486125579 0.267822166377
v 0.0306613811986 -0.476227832013 0.267578324646
v 0.0395660336552 -0.4792030045 0.267573438789
v 0.174863342128 -0.364373043839 -0.266153269402
v 0.500726058811 -0.0513582309797 -0.266153269402
v 0.463033590442 0.0866138119984 -0.266153269402
v 0.259974963614 0.416202795626 -0.266153269402
v 0.240496557699 0.441568954482 -0.266153269402
v 0.208825370153 0.47389109132 -0.266153269402
v -0.335205507846 0.443659503637 -0.266153269402
v -0.355906530197 0.422970999495 -0.266153269402
v -0.433845190771 0.28552472373 -0.266153269402
v -0.499236386498 -0.145103275761 -0.266153269402
v -0.481118297303 -0.165491341425 -0.266153269402
v -0.368074274914 -0.26486125579 -0.266153269402
v 0.0306613811986 -0.476227832013 -0.266153269402
v 0.0395660336552 -0.4792030045 -0.266153269402
g roof
f 1 2 3 4 5 6 7 8 9 10 11 12 13 14
g wall
f 2 1 15 16
g wall
f 3 2 16 17
g wall
f 4 3 17 18
g wall
f 5 4 18 19
g wall
f 6 5 19 20
g wall
f 7 6 20 21
g wall
f 8 7 21 22
g wall
f 9 8 22 23
g wall
f 10 9 23 24
g wall
f 11 10 24 25
g wall
f 12 11 25 26
g wall
f 13 12 26 27
g wall
f 14 13 27 28
g wall
f 1 14 28 15
g ground_assumed
f 28 27 26 25 24 23 22 21 20 19 18 17 16 15
