v 0.17486334212790708 -0.36437304383940017 0.26755051838579247
v 0.50072605881068077 -0.051358230979741605 0.26750700275825645
v 0.46303359044241599 0.086613811998373591 0.26756788816925431
v 0.25997496361436506 0.4162027956256143 0.26776323600484858
v 0.24049655769883896 0.44156895448242461 0.26777997083555549
v 0.20882537015331576 0.47389109131951002 0.26780431963415668
v -0.33520550784645126 0.44365950363695739 0.26803484673400485
v -0.35590653019653851 0.42297099949470474 0.26803735325720401
v -0.43384519077114525 0.2855247237298062 0.26802769432409906
v -0.49923638649799851 -0.14510327576146839 0.26791848344392194
v -0.48111829730321359 -0.16549134142519251 0.26790394560936698
v -0.36807427491403333 -0.2648612557900118 0.26782216637743433
v 0.030661381198585812 -0.47622783201280011 0.26757832464622572
v 0.039566033655158143 -0.47920300449986181 0.26757343878911166
v 0.17486334212790708 -0.36437304383940017 -0.2661532694016403
v 0.50072605881068077 -0.051358230979741605 -0.2661532694016403
v 0.46303359044241599 0.086613811998373591 -0.2661532694016403
v 0.25997496361436506 0.4162027956256143 -0.2661532694016403
v 0.24049655769883896 0.44156895448242461 -0.2661532694016403
v 0.20882537015331576 0.47389109131951002 -0.2661532694016403
v -0.33520550784645126 0.44365950363695739 -0.2661532694016403
v -0.35590653019653851 0.42297099949470474 -0.2661532694016403
v -0.43384519077114525 0.2855247237298062 -0.2661532694016403
v -0.49923638649799851 -0.14510327576146839 -0.2661532694016403
v -0.48111829730321359 -0.16549134142519251 -0.2661532694016403
v -0.36807427491403333 -0.2648612557900118 -0.2661532694016403
v 0.030661381198585812 -0.47622783201280011 -0.2661532694016403
v 0.039566033655158143 -0.47920300449986181 -0.2661532694016403
l 1 2
l 2 3
l 3 4
l 4 5
l 5 6
l 6 7
l 7 8
l 8 9
l 9 10
l 10 11
l 11 12
l 12 13
l 13 14
l 1 14
l 15 16
l 2 16
l 16 17
l 3 17
l 17 18
l 18 19
l 19 20
l 6 20
l 20 21
l 7 21
l 21 22
l 8 22
l 22 23
l 9 23
l 23 24
l 10 24
l 24 25
l 25 26
l 12 26
l 26 27
l 27 28
l 14 28
l 15 28
