# Source coordinates; no display transform
v -0.460519869442 -0.221393576557 0.168289157724
v -0.194188894935 -0.377286336517 0.168222568234
v -0.111894392867 -0.424986390877 0.16820229033
v 0.028878606319 -0.50602885151 0.168167952207
v 0.123380511554 -0.344393032221 0.168281666646
v 0.441140446566 0.205579749727 0.168668128012
v 0.446053347809 0.230185084585 0.168684296516
v 0.441208491965 0.239139902214 0.16868938167
v 0.0155416439036 0.485587915051 0.168794093431
v -0.0301714754316 0.499809471872 0.168797586958
v -0.093630920129 0.400476319873 0.168727055141
v -0.175081655031 0.26744692412 0.168633023325
v -0.415881872567 -0.138255307792 0.168347169001
v -0.448149156379 -0.194148067562 0.168307896416
v -0.460519869442 -0.221393576557 -0.165563854027
v -0.194188894935 -0.377286336517 -0.165563854027
v -0.111894392867 -0.424986390877 -0.165563854027
v 0.028878606319 -0.50602885151 -0.165563854027
v 0.123380511554 -0.344393032221 -0.165563854027
v 0.441140446566 0.205579749727 -0.165563854027
v 0.446053347809 0.230185084585 -0.165563854027
v 0.441208491965 0.239139902214 -0.165563854027
v 0.0155416439036 0.485587915051 -0.165563854027
v -0.0301714754316 0.499809471872 -0.165563854027
v -0.093630920129 0.400476319873 -0.165563854027
v -0.175081655031 0.26744692412 -0.165563854027
v -0.415881872567 -0.138255307792 -0.165563854027
v -0.448149156379 -0.194148067562 -0.165563854027
g roof
f 1 2 3 4 5 6 7 8 9 10 11 12 13 14
g wall
f 2 1 15 16
g wall
f 3 2 16 17
g wall
f 4 3 17 18
g wall
f 5 4 18 19
g wall
f 6 5 19 20
g wall
f 7 6 20 21
g wall
f 8 7 21 22
g wall
f 9 8 22 23
g wall
f 10 9 23 24
g wall
f 11 10 24 25
g wall
f 12 11 25 26
g wall
f 13 12 26 27
g wall
f 14 13 27 28
g wall
f 1 14 28 15
g ground_assumed
f 28 27 26 25 24 23 22 21 20 19 18 17 16 15
