# Source coordinates; no display transform
v 0.0595383759502 0.238768831001 0.493102571072
v -0.388770053925 0.349515222437 0.0437617709283
v -0.507624363012 -0.131614573817 0.0449939106774
v -0.0601656336099 -0.242151061906 0.49348305338
v 0.505992938446 0.128480403719 0.0455710743145
v 0.387138629359 -0.352649392009 0.0450998066682
v 0.0595383759502 0.238768831001 -0.491576832704
v -0.388770053925 0.349515222437 -0.491576832704
v -0.507624363012 -0.131614573817 -0.491576832704
v -0.0601656336099 -0.242151061906 -0.491576832704
v 0.387138629359 -0.352649392009 -0.491576832704
v 0.505992938446 0.128480403719 -0.491576832704
g roof
f 1 2 3 4
g roof
f 5 1 4 6
g wall
f 2 1 7 8
g wall
f 3 2 8 9
g wall
f 4 3 9 10
g wall
f 1 5 12 7
g wall
f 6 4 10 11
g wall
f 5 6 11 12
g ground_assumed
f 12 11 10 9 8 7
