# XYZ-only planar convex-roof baseline. Provisional base; no GT.
v 1.14421267 4.54723706 9.41038512
v -7.38455368 6.65411267 0.86197862
v -9.64567697 -2.49905810 0.88541925
v -1.13307560 -4.60194044 9.41762354
v 9.63771044 2.44907391 0.89639940
v 7.37658715 -6.70409685 0.88743385
v 1.14421267 4.54723706 -9.32247825
v -7.38455368 6.65411267 -9.32247825
v -9.64567697 -2.49905810 -9.32247825
v -1.13307560 -4.60194044 -9.32247825
v 7.37658715 -6.70409685 -9.32247825
v 9.63771044 2.44907391 -9.32247825
g roof
f 1 2 3 4
g roof
f 5 1 4 6
g wall
f 2 1 7 8
g wall
f 3 2 8 9
g wall
f 4 3 9 10
g wall
f 1 5 12 7
g wall
f 6 4 10 11
g wall
f 5 6 11 12
g ground_assumed
f 12 11 10 9 8 7
