# Source coordinates; no display transform
v 0.0381638177099 0.471813040636 0.441021724587
v -0.288647460706 0.498657226729 0.118678230064
v -0.296850586065 0.491845703372 0.111178355584
v -0.304728190013 0.465771484264 0.105518592158
v -0.307218424288 0.44064941384 0.105062413656
v -0.373136393317 -0.38592936215 0.105747095561
v -0.373152669158 -0.437890624878 0.109834465652
v -0.361751302026 -0.442309570538 0.121354970655
v -0.335180663902 -0.448282877628 0.147861720326
v -0.2696126303 -0.454557291602 0.212603561821
v -0.0381991803109 -0.473164969801 0.440821763963
v 0.37634277368 0.420491536635 0.105503726574
v 0.376350911345 0.441243489432 0.107143687779
v 0.340877278539 0.446948242341 0.142363713594
v 0.224080403724 -0.494254557425 0.182091989252
v 0.30251464851 -0.498055012966 0.104918341019
v 0.0381638177099 0.471813040636 -0.418122819128
v -0.288647460706 0.498657226729 -0.418122819128
v -0.296850586065 0.491845703372 -0.418122819128
v -0.304728190013 0.465771484264 -0.418122819128
v -0.307218424288 0.44064941384 -0.418122819128
v -0.373136393317 -0.38592936215 -0.418122819128
v -0.373152669158 -0.437890624878 -0.418122819128
v -0.361751302026 -0.442309570538 -0.418122819128
v -0.335180663902 -0.448282877628 -0.418122819128
v -0.2696126303 -0.454557291602 -0.418122819128
v -0.0381991803109 -0.473164969801 -0.418122819128
v 0.224080403724 -0.494254557425 -0.418122819128
v 0.30251464851 -0.498055012966 -0.418122819128
v 0.37634277368 0.420491536635 -0.418122819128
v 0.376350911345 0.441243489432 -0.418122819128
v 0.340877278539 0.446948242341 -0.418122819128
g roof
f 1 2 3 4 5 6 7 8 9 10 11
g roof
f 12 13 14 1 11 15 16
g wall
f 2 1 17 18
g wall
f 3 2 18 19
g wall
f 4 3 19 20
g wall
f 5 4 20 21
g wall
f 6 5 21 22
g wall
f 7 6 22 23
g wall
f 8 7 23 24
g wall
f 9 8 24 25
g wall
f 10 9 25 26
g wall
f 11 10 26 27
g wall
f 13 12 30 31
g wall
f 14 13 31 32
g wall
f 1 14 32 17
g wall
f 15 11 27 28
g wall
f 16 15 28 29
g wall
f 12 16 29 30
g ground_assumed
f 32 31 30 29 28 27 26 25 24 23 22 21 20 19 18 17
