# XYZ-only planar convex-roof baseline. Provisional base; no GT.
v 0.71690061 9.28683560 8.57151987
v -5.69067901 9.81315238 2.25153723
v -5.85151244 9.67960320 2.10449199
v -6.00596358 9.16838267 1.99352463
v -6.05478801 8.67583031 1.98458063
v -7.34719945 -7.53037085 1.99800475
v -7.34751856 -8.54914208 2.07814320
v -7.12397925 -8.63578152 2.30401837
v -6.60302575 -8.75289633 2.82371925
v -5.31747527 -8.87591475 4.09307111
v -0.78029983 -9.24074359 8.56759937
v 7.34735901 8.28060771 1.99323317
v 7.34751856 8.68747797 2.02538684
v 6.65200974 8.79932741 2.71592335
v 4.36204815 -9.65423364 3.49485023
v 5.89985820 -9.72874674 1.98175589
v 0.71690061 9.28683560 -8.27317746
v -5.69067901 9.81315238 -8.27317746
v -5.85151244 9.67960320 -8.27317746
v -6.00596358 9.16838267 -8.27317746
v -6.05478801 8.67583031 -8.27317746
v -7.34719945 -7.53037085 -8.27317746
v -7.34751856 -8.54914208 -8.27317746
v -7.12397925 -8.63578152 -8.27317746
v -6.60302575 -8.75289633 -8.27317746
v -5.31747527 -8.87591475 -8.27317746
v -0.78029983 -9.24074359 -8.27317746
v 4.36204815 -9.65423364 -8.27317746
v 5.89985820 -9.72874674 -8.27317746
v 7.34735901 8.28060771 -8.27317746
v 7.34751856 8.68747797 -8.27317746
v 6.65200974 8.79932741 -8.27317746
g roof
f 1 2 3 4 5 6 7 8 9 10 11
g roof
f 12 13 14 1 11 15 16
g wall
f 2 1 17 18
g wall
f 3 2 18 19
g wall
f 4 3 19 20
g wall
f 5 4 20 21
g wall
f 6 5 21 22
g wall
f 7 6 22 23
g wall
f 8 7 23 24
g wall
f 9 8 24 25
g wall
f 10 9 25 26
g wall
f 11 10 26 27
g wall
f 13 12 30 31
g wall
f 14 13 31 32
g wall
f 1 14 32 17
g wall
f 15 11 27 28
g wall
f 16 15 28 29
g wall
f 12 16 29 30
g ground_assumed
f 32 31 30 29 28 27 26 25 24 23 22 21 20 19 18 17
