v 0.038163817709939513 0.47181304063634238 0.44102172458671529
v -0.28864746070560099 0.49865722672908586 0.11867823006414195
v -0.29685058606454207 0.49184570337151162 0.11117835558434269
v -0.30472819001324458 0.46577148426386511 0.10551859215810257
v -0.30721842428772872 0.44064941384030765 0.10506241365584487
v -0.37313639331723714 -0.38592936214983992 0.10574709556055503
v -0.37315266915823175 -0.43789062487844449 0.10983446565159416
v -0.36175130202590611 -0.44230957053761788 0.1213549706547029
v -0.33518066390248147 -0.44828287762818092 0.14786172032603687
v -0.26961263029972282 -0.4545572916024328 0.2126035618212104
v -0.038199180310943402 -0.47316496980140593 0.44082176396304562
v 0.37634277367975377 0.42049153663476246 0.10550372657377029
v 0.37635091134523169 0.4412434894321689 0.10714368777934814
v 0.34087727853948224 0.4469482423411093 0.14236371359397951
v 0.22408040372353044 -0.49425455742522789 0.18209198925214887
v 0.30251464850951504 -0.49805501296599031 0.1049183410191647
v 0.038163817709939513 0.47181304063634238 -0.41812281912792704
v -0.28864746070560099 0.49865722672908586 -0.41812281912792704
v -0.29685058606454207 0.49184570337151162 -0.41812281912792704
v -0.30472819001324458 0.46577148426386511 -0.41812281912792704
v -0.30721842428772872 0.44064941384030765 -0.41812281912792704
v -0.37313639331723714 -0.38592936214983992 -0.41812281912792704
v -0.37315266915823175 -0.43789062487844449 -0.41812281912792704
v -0.36175130202590611 -0.44230957053761788 -0.41812281912792704
v -0.33518066390248147 -0.44828287762818092 -0.41812281912792704
v -0.26961263029972282 -0.4545572916024328 -0.41812281912792704
v -0.038199180310943402 -0.47316496980140593 -0.41812281912792704
v 0.22408040372353044 -0.49425455742522789 -0.41812281912792704
v 0.30251464850951504 -0.49805501296599031 -0.41812281912792704
v 0.37634277367975377 0.42049153663476246 -0.41812281912792704
v 0.37635091134523169 0.4412434894321689 -0.41812281912792704
v 0.34087727853948224 0.4469482423411093 -0.41812281912792704
l 1 2
l 2 3
l 3 4
l 4 5
l 5 6
l 6 7
l 7 8
l 8 9
l 9 10
l 10 11
l 1 11
l 12 13
l 13 14
l 1 14
l 11 15
l 15 16
l 12 16
l 17 18
l 2 18
l 18 19
l 3 19
l 19 20
l 4 20
l 20 21
l 21 22
l 22 23
l 7 23
l 23 24
l 24 25
l 25 26
l 26 27
l 30 31
l 13 31
l 31 32
l 17 32
l 27 28
l 28 29
l 16 29
l 29 30
