v 0.059538375950184241 0.23876883100144128 0.49310257107189548
v -0.38877005392465591 0.34951522243713773 0.043761770928287556
v -0.5076243630116124 -0.13161457381703937 0.044993910677382343
v -0.060165633609896046 -0.24215106190560445 0.4934830533798642
v 0.50599293844551574 0.12848040371937033 0.045571074314452814
v 0.38713862935855947 -0.35264939200916401 0.045099806668169554
v 0.059538375950184241 0.23876883100144128 -0.49157683270431507
v -0.38877005392465591 0.34951522243713773 -0.49157683270431507
v -0.5076243630116124 -0.13161457381703937 -0.49157683270431507
v -0.060165633609896046 -0.24215106190560445 -0.49157683270431507
v 0.38713862935855947 -0.35264939200916401 -0.49157683270431507
v 0.50599293844551574 0.12848040371937033 -0.49157683270431507
l 1 2
l 2 3
l 3 4
l 1 4
l 1 5
l 4 6
l 5 6
l 7 8
l 2 8
l 8 9
l 3 9
l 9 10
l 5 12
l 7 12
l 10 11
l 6 11
l 11 12
