# XYZ-only planar convex-roof baseline. Provisional base; no GT.
v 7.40286550 -8.60110871 4.01082389
v 8.89220552 -1.04120969 4.01884171
v 9.29361780 1.00006412 4.02100711
v 10.51243381 7.32566086 4.02773401
v 10.51288738 7.34185990 4.02775301
v 10.51308177 7.35093136 4.02776368
v 10.51308177 7.37497074 4.02779232
v 10.51301697 7.38177434 4.02780047
v 10.51243381 7.39952849 4.02782200
v 10.50031692 7.41177497 4.02784463
v 9.96749800 7.52160448 4.02832889
v 8.09424065 7.89547840 4.03001682
v 4.76825313 8.53138803 4.03298051
v 3.55876778 8.75733228 4.03405193
v 3.25629924 8.74599295 4.03423906
v -5.13033414 7.49853704 4.03831598
v -5.22357583 7.42739085 4.03829308
v -6.42230502 6.38203420 4.03784293
v -9.08490933 4.00887439 4.03678205
v -9.38737787 3.73783200 4.03665980
v -10.51308177 2.72331833 4.03619795
v -10.44212996 2.63389961 4.03604437
v -9.25156509 1.28685198 4.03364999
v -7.49053472 -0.68554350 4.03013226
v -7.18826057 -1.01133866 4.02954366
v -6.88598643 -1.31937966 4.02897620
v -6.81192440 -1.38009367 4.02885475
v 0.97482601 -7.53767393 4.01635450
v 1.81788901 -7.71748331 4.01558109
v 2.48541918 -7.85426803 4.01497537
v 4.96393757 -8.34607098 4.01274548
v 7.16558191 -8.74618734 4.01080846
v 7.26037871 -8.75733228 4.01073231
v 7.40286550 -8.60110871 -6.05805386
v 8.89220552 -1.04120969 -6.05805386
v 9.29361780 1.00006412 -6.05805386
v 10.51243381 7.32566086 -6.05805386
v 10.51288738 7.34185990 -6.05805386
v 10.51308177 7.35093136 -6.05805386
v 10.51308177 7.37497074 -6.05805386
v 10.51301697 7.38177434 -6.05805386
v 10.51243381 7.39952849 -6.05805386
v 10.50031692 7.41177497 -6.05805386
v 9.96749800 7.52160448 -6.05805386
v 8.09424065 7.89547840 -6.05805386
v 4.76825313 8.53138803 -6.05805386
v 3.55876778 8.75733228 -6.05805386
v 3.25629924 8.74599295 -6.05805386
v -5.13033414 7.49853704 -6.05805386
v -5.22357583 7.42739085 -6.05805386
v -6.42230502 6.38203420 -6.05805386
v -9.08490933 4.00887439 -6.05805386
v -9.38737787 3.73783200 -6.05805386
v -10.51308177 2.72331833 -6.05805386
v -10.44212996 2.63389961 -6.05805386
v -9.25156509 1.28685198 -6.05805386
v -7.49053472 -0.68554350 -6.05805386
v -7.18826057 -1.01133866 -6.05805386
v -6.88598643 -1.31937966 -6.05805386
v -6.81192440 -1.38009367 -6.05805386
v 0.97482601 -7.53767393 -6.05805386
v 1.81788901 -7.71748331 -6.05805386
v 2.48541918 -7.85426803 -6.05805386
v 4.96393757 -8.34607098 -6.05805386
v 7.16558191 -8.74618734 -6.05805386
v 7.26037871 -8.75733228 -6.05805386
g roof
f 1 2 3 4 5 6 7 8 9 10 11 12 13 14 15 16 17 18 19 20 21 22 23 24 25 26 27 28 29 30 31 32 33
g wall
f 2 1 34 35
g wall
f 3 2 35 36
g wall
f 4 3 36 37
g wall
f 5 4 37 38
g wall
f 6 5 38 39
g wall
f 7 6 39 40
g wall
f 8 7 40 41
g wall
f 9 8 41 42
g wall
f 10 9 42 43
g wall
f 11 10 43 44
g wall
f 12 11 44 45
g wall
f 13 12 45 46
g wall
f 14 13 46 47
g wall
f 15 14 47 48
g wall
f 16 15 48 49
g wall
f 17 16 49 50
g wall
f 18 17 50 51
g wall
f 19 18 51 52
g wall
f 20 19 52 53
g wall
f 21 20 53 54
g wall
f 22 21 54 55
g wall
f 23 22 55 56
g wall
f 24 23 56 57
g wall
f 25 24 57 58
g wall
f 26 25 58 59
g wall
f 27 26 59 60
g wall
f 28 27 60 61
g wall
f 29 28 61 62
g wall
f 30 29 62 63
g wall
f 31 30 63 64
g wall
f 32 31 64 65
g wall
f 33 32 65 66
g wall
f 1 33 66 34
g ground_assumed
f 66 65 64 63 62 61 60 59 58 57 56 55 54 53 52 51 50 49 48 47 46 45 44 43 42 41 40 39 38 37 36 35 34
