# Source coordinates; no display transform
v -0.265698153115 -0.28579117494 0.363355064695
v -0.128055987601 -0.454370139838 0.27234538015
v -0.0830067391925 -0.507890098266 0.243106179663
v -0.0491031622971 -0.487454639865 0.241193376164
v 0.0579263866687 -0.408978745323 0.239775902887
v 0.144499740933 -0.345111456466 0.238758485694
v 0.23730430292 -0.275500259057 0.238047417119
v 0.318164852308 -0.208833592457 0.239418257338
v 0.348315189418 -0.183701399604 0.240020176817
v 0.445163296804 0.027350959137 0.285082037042
v 0.445266977787 0.0425298081582 0.290078697541
v 0.445277345678 0.0471435979271 0.291602902031
v 0.445235873595 0.0513634005832 0.293009988833
v 0.337260080162 0.188461920003 0.366010411077
v -0.00427164322809 0.421430792931 0.196118732744
v -0.450077760241 -0.0521721100206 0.235432315295
v -0.450129600732 -0.0598237426559 0.237987067059
v -0.450088128649 -0.0599377915298 0.238036487085
v -0.450036288158 -0.0600207362123 0.238078247724
v 0.251840331813 0.296920684264 0.306669814988
v 0.206874028087 0.352431311459 0.275963665964
v 0.0925246241831 0.492078797065 0.198386840822
v 0.0792431313541 0.486562986261 0.196673116846
v 0.0759357181405 0.484240539281 0.196564897943
v 0.0440953862861 0.460850181663 0.195869607559
v -0.265698153115 -0.28579117494 -0.36376806646
v -0.128055987601 -0.454370139838 -0.36376806646
v -0.0830067391925 -0.507890098266 -0.36376806646
v -0.0491031622971 -0.487454639865 -0.36376806646
v 0.0579263866687 -0.408978745323 -0.36376806646
v 0.144499740933 -0.345111456466 -0.36376806646
v 0.23730430292 -0.275500259057 -0.36376806646
v 0.318164852308 -0.208833592457 -0.36376806646
v 0.348315189418 -0.183701399604 -0.36376806646
v 0.445163296804 0.027350959137 -0.36376806646
v 0.445266977787 0.0425298081582 -0.36376806646
v 0.445277345678 0.0471435979271 -0.36376806646
v 0.445235873595 0.0513634005832 -0.36376806646
v 0.337260080162 0.188461920003 -0.36376806646
v 0.251840331813 0.296920684264 -0.36376806646
v 0.206874028087 0.352431311459 -0.36376806646
v 0.0925246241831 0.492078797065 -0.36376806646
v 0.0792431313541 0.486562986261 -0.36376806646
v 0.0759357181405 0.484240539281 -0.36376806646
v 0.0440953862861 0.460850181663 -0.36376806646
v -0.00427164322809 0.421430792931 -0.36376806646
v -0.450077760241 -0.0521721100206 -0.36376806646
v -0.450129600732 -0.0598237426559 -0.36376806646
v -0.450088128649 -0.0599377915298 -0.36376806646
v -0.450036288158 -0.0600207362123 -0.36376806646
g roof
f 1 2 3 4 5 6 7 8 9 10 11 12 13 14
g roof
f 15 16 17 18 19 1 14 20 21 22 23 24 25
g wall
f 2 1 26 27
g wall
f 3 2 27 28
g wall
f 4 3 28 29
g wall
f 5 4 29 30
g wall
f 6 5 30 31
g wall
f 7 6 31 32
g wall
f 8 7 32 33
g wall
f 9 8 33 34
g wall
f 10 9 34 35
g wall
f 11 10 35 36
g wall
f 12 11 36 37
g wall
f 13 12 37 38
g wall
f 14 13 38 39
g wall
f 16 15 46 47
g wall
f 17 16 47 48
g wall
f 18 17 48 49
g wall
f 19 18 49 50
g wall
f 1 19 50 26
g wall
f 20 14 39 40
g wall
f 21 20 40 41
g wall
f 22 21 41 42
g wall
f 23 22 42 43
g wall
f 24 23 43 44
g wall
f 25 24 44 45
g wall
f 15 25 45 46
g ground_assumed
f 50 49 48 47 46 45 44 43 42 41 40 39 38 37 36 35 34 33 32 31 30 29 28 27 26
