# XYZ-only planar convex-roof baseline. Provisional base; no GT.
v -5.10018697 -5.47768527 6.94633267
v -2.43374044 -8.74344903 5.18326496
v -1.56103249 -9.78025419 4.61683414
v -0.90424193 -9.38437218 4.57977872
v 1.16916754 -7.86411292 4.55231899
v 2.84629329 -6.62685608 4.53260927
v 4.64413192 -5.27832647 4.51883423
v 6.21058745 -3.98683922 4.54539057
v 6.79466909 -3.49997062 4.55705114
v 8.67084053 0.58860084 5.43000341
v 8.67284907 0.88265019 5.52680026
v 8.67304992 0.97202995 5.55632762
v 8.67224651 1.05377727 5.58358614
v 6.58050610 3.70969212 6.99777286
v -0.03575190 8.22283706 3.70657881
v -8.67204565 -0.95194461 4.46817367
v -8.67304992 -1.10017440 4.51766511
v -8.67224651 -1.10238379 4.51862249
v -8.67124224 -1.10399062 4.51943149
v 4.92572836 5.81078879 5.84820851
v 4.05462724 6.88615780 5.25335951
v 1.83941528 9.59145201 3.75051730
v 1.58212210 9.48459802 3.71731851
v 1.51804987 9.43960686 3.71522206
v 0.90122913 8.98648163 3.70175268
v -5.10018697 -5.47768527 -7.13972114
v -2.43374044 -8.74344903 -7.13972114
v -1.56103249 -9.78025419 -7.13972114
v -0.90424193 -9.38437218 -7.13972114
v 1.16916754 -7.86411292 -7.13972114
v 2.84629329 -6.62685608 -7.13972114
v 4.64413192 -5.27832647 -7.13972114
v 6.21058745 -3.98683922 -7.13972114
v 6.79466909 -3.49997062 -7.13972114
v 8.67084053 0.58860084 -7.13972114
v 8.67284907 0.88265019 -7.13972114
v 8.67304992 0.97202995 -7.13972114
v 8.67224651 1.05377727 -7.13972114
v 6.58050610 3.70969212 -7.13972114
v 4.92572836 5.81078879 -7.13972114
v 4.05462724 6.88615780 -7.13972114
v 1.83941528 9.59145201 -7.13972114
v 1.58212210 9.48459802 -7.13972114
v 1.51804987 9.43960686 -7.13972114
v 0.90122913 8.98648163 -7.13972114
v -0.03575190 8.22283706 -7.13972114
v -8.67204565 -0.95194461 -7.13972114
v -8.67304992 -1.10017440 -7.13972114
v -8.67224651 -1.10238379 -7.13972114
v -8.67124224 -1.10399062 -7.13972114
g roof
f 1 2 3 4 5 6 7 8 9 10 11 12 13 14
g roof
f 15 16 17 18 19 1 14 20 21 22 23 24 25
g wall
f 2 1 26 27
g wall
f 3 2 27 28
g wall
f 4 3 28 29
g wall
f 5 4 29 30
g wall
f 6 5 30 31
g wall
f 7 6 31 32
g wall
f 8 7 32 33
g wall
f 9 8 33 34
g wall
f 10 9 34 35
g wall
f 11 10 35 36
g wall
f 12 11 36 37
g wall
f 13 12 37 38
g wall
f 14 13 38 39
g wall
f 16 15 46 47
g wall
f 17 16 47 48
g wall
f 18 17 48 49
g wall
f 19 18 49 50
g wall
f 1 19 50 26
g wall
f 20 14 39 40
g wall
f 21 20 40 41
g wall
f 22 21 41 42
g wall
f 23 22 42 43
g wall
f 24 23 43 44
g wall
f 25 24 44 45
g wall
f 15 25 45 46
g ground_assumed
f 50 49 48 47 46 45 44 43 42 41 40 39 38 37 36 35 34 33 32 31 30 29 28 27 26
