v -0.2656981531151224 -0.28579117493987694 0.36335506469538614
v -0.12805598760142944 -0.4543701398376056 0.27234538015028942
v -0.083006739192530862 -0.50789009826638798 0.24310617966330392
v -0.049103162297122006 -0.48745463986463494 0.2411933761641768
v 0.057926386668706462 -0.40897874532320405 0.23977590288687792
v 0.14449974093310886 -0.34511145646583896 0.2387584856943912
v 0.23730430291972071 -0.27550025905707798 0.23804741711892732
v 0.31816485230793573 -0.20883359245667019 0.2394182573381452
v 0.3483151894183481 -0.18370139960350246 0.24002017681707202
v 0.44516329680437677 0.027350959136982517 0.28508203704229623
v 0.44526697778654178 0.042529808158152965 0.29007869754120524
v 0.44527734567827804 0.047143597927075932 0.29160290203080458
v 0.4452358735951325 0.051363400583212766 0.29300998883314083
v 0.33726008016157727 0.18846192000260462 0.36601041107731258
v -0.0042716432280888936 0.42143079293131319 0.19611873274398348
v -0.4500777602411955 -0.052172110020630255 0.23543231529480169
v -0.45012960073227803 -0.059823742655933827 0.23798706705874992
v -0.4500881286491325 -0.059937791529835041 0.23803648708459213
v -0.45003628815804991 -0.060020736212326897 0.23807824772394778
v 0.25184033181303089 0.29692068426382129 0.30666981498767676
v 0.20687402808662414 0.35243131145900308 0.27596366596407168
v 0.092524624183058068 0.49207879706451985 0.19838684082151606
v 0.079243131354059027 0.48656298626092637 0.19667311684594685
v 0.075935718140529698 0.48424053928076016 0.19656489794313195
v 0.044095386286075233 0.46085018166271707 0.19586960755929408
v -0.2656981531151224 -0.28579117493987694 -0.36376806645954668
v -0.12805598760142944 -0.4543701398376056 -0.36376806645954668
v -0.083006739192530862 -0.50789009826638798 -0.36376806645954668
v -0.049103162297122006 -0.48745463986463494 -0.36376806645954668
v 0.057926386668706462 -0.40897874532320405 -0.36376806645954668
v 0.14449974093310886 -0.34511145646583896 -0.36376806645954668
v 0.23730430291972071 -0.27550025905707798 -0.36376806645954668
v 0.31816485230793573 -0.20883359245667019 -0.36376806645954668
v 0.3483151894183481 -0.18370139960350246 -0.36376806645954668
v 0.44516329680437677 0.027350959136982517 -0.36376806645954668
v 0.44526697778654178 0.042529808158152965 -0.36376806645954668
v 0.44527734567827804 0.047143597927075932 -0.36376806645954668
v 0.4452358735951325 0.051363400583212766 -0.36376806645954668
v 0.33726008016157727 0.18846192000260462 -0.36376806645954668
v 0.25184033181303089 0.29692068426382129 -0.36376806645954668
v 0.20687402808662414 0.35243131145900308 -0.36376806645954668
v 0.092524624183058068 0.49207879706451985 -0.36376806645954668
v 0.079243131354059027 0.48656298626092637 -0.36376806645954668
v 0.075935718140529698 0.48424053928076016 -0.36376806645954668
v 0.044095386286075233 0.46085018166271707 -0.36376806645954668
v -0.0042716432280888936 0.42143079293131319 -0.36376806645954668
v -0.4500777602411955 -0.052172110020630255 -0.36376806645954668
v -0.45012960073227803 -0.059823742655933827 -0.36376806645954668
v -0.4500881286491325 -0.059937791529835041 -0.36376806645954668
v -0.45003628815804991 -0.060020736212326897 -0.36376806645954668
l 1 2
l 2 3
l 3 4
l 4 5
l 5 6
l 6 7
l 7 8
l 8 9
l 9 10
l 10 11
l 11 12
l 12 13
l 13 14
l 1 14
l 15 16
l 16 17
l 17 18
l 18 19
l 1 19
l 14 20
l 20 21
l 21 22
l 22 23
l 23 24
l 24 25
l 15 25
l 26 27
l 27 28
l 3 28
l 28 29
l 29 30
l 30 31
l 31 32
l 32 33
l 33 34
l 9 34
l 34 35
l 10 35
l 35 36
l 36 37
l 37 38
l 13 38
l 38 39
l 46 47
l 16 47
l 47 48
l 17 48
l 48 49
l 18 49
l 49 50
l 26 50
l 39 40
l 40 41
l 41 42
l 22 42
l 42 43
l 23 43
l 43 44
l 44 45
l 45 46
