# XYZ-only planar convex-roof baseline. Provisional base; no GT.
v 10.42805222 -4.16235243 2.90263591
v 9.03000106 8.70736239 2.79596391
v 8.79619627 9.32994604 2.79113101
v 8.71079630 9.45028235 2.79027611
v 8.42025727 9.65870604 2.78907647
v -5.65311928 8.16062346 2.82954620
v -9.83323848 7.69301387 2.84175919
v -10.71291783 7.39262099 2.84604677
v -10.71381364 7.38366295 2.84612470
v -10.71381364 7.25018818 2.84725959
v -10.71321643 7.21047421 2.84759609
v -10.47642562 4.79419272 2.86767432
v -9.77053222 -1.89835759 2.92318786
v -9.07837447 -8.18212275 2.97525271
v -8.79410606 -9.46103200 2.98556669
v -8.70124106 -9.46610822 2.98542686
v -6.91590406 -9.47088584 2.98194942
v -6.00696179 -9.42042223 2.97972924
v -3.12754972 -9.12958459 2.97158237
v 0.96000309 -8.69362673 2.95982092
v 10.43014243 -7.66972297 2.93245380
v 10.71351503 -7.35858044 2.92924986
v 10.71351503 -7.02026520 2.92637328
v 10.42805222 -4.16235243 -3.84074692
v 9.03000106 8.70736239 -3.84074692
v 8.79619627 9.32994604 -3.84074692
v 8.71079630 9.45028235 -3.84074692
v 8.42025727 9.65870604 -3.84074692
v -5.65311928 8.16062346 -3.84074692
v -9.83323848 7.69301387 -3.84074692
v -10.71291783 7.39262099 -3.84074692
v -10.71381364 7.38366295 -3.84074692
v -10.71381364 7.25018818 -3.84074692
v -10.71321643 7.21047421 -3.84074692
v -10.47642562 4.79419272 -3.84074692
v -9.77053222 -1.89835759 -3.84074692
v -9.07837447 -8.18212275 -3.84074692
v -8.79410606 -9.46103200 -3.84074692
v -8.70124106 -9.46610822 -3.84074692
v -6.91590406 -9.47088584 -3.84074692
v -6.00696179 -9.42042223 -3.84074692
v -3.12754972 -9.12958459 -3.84074692
v 0.96000309 -8.69362673 -3.84074692
v 10.43014243 -7.66972297 -3.84074692
v 10.71351503 -7.35858044 -3.84074692
v 10.71351503 -7.02026520 -3.84074692
g roof
f 1 2 3 4 5 6 7 8 9 10 11 12 13 14 15 16 17 18 19 20 21 22 23
g wall
f 2 1 24 25
g wall
f 3 2 25 26
g wall
f 4 3 26 27
g wall
f 5 4 27 28
g wall
f 6 5 28 29
g wall
f 7 6 29 30
g wall
f 8 7 30 31
g wall
f 9 8 31 32
g wall
f 10 9 32 33
g wall
f 11 10 33 34
g wall
f 12 11 34 35
g wall
f 13 12 35 36
g wall
f 14 13 36 37
g wall
f 15 14 37 38
g wall
f 16 15 38 39
g wall
f 17 16 39 40
g wall
f 18 17 40 41
g wall
f 19 18 41 42
g wall
f 20 19 42 43
g wall
f 21 20 43 44
g wall
f 22 21 44 45
g wall
f 23 22 45 46
g wall
f 1 23 46 24
g ground_assumed
f 46 45 44 43 42 41 40 39 38 37 36 35 34 33 32 31 30 29 28 27 26 25 24
