# Source coordinates; no display transform
v 2682639.5 1247851.5 412.255068159
v 2682644 1247856 412.25456111
v 2682644 1247856.75 412.254942836
v 2682642 1247858.875 412.257267677
v 2682640.5 1247857.625 412.257563934
v 2682637 1247854.25 412.258021926
v 2682637 1247853.75 412.257767444
v 2682637.25 1247853.375 412.257421168
v 2682638.75 1247851.75 412.255661634
v 2682639.25 1247851.375 412.255159947
v 2682639.5 1247851.5 409.567273558
v 2682644 1247856 409.567273558
v 2682644 1247856.75 409.567273558
v 2682642 1247858.875 409.567273558
v 2682640.5 1247857.625 409.567273558
v 2682637 1247854.25 409.567273558
v 2682637 1247853.75 409.567273558
v 2682637.25 1247853.375 409.567273558
v 2682638.75 1247851.75 409.567273558
v 2682639.25 1247851.375 409.567273558
g roof
f 1 2 3 4 5 6 7 8 9 10
g wall
f 2 1 11 12
g wall
f 3 2 12 13
g wall
f 4 3 13 14
g wall
f 5 4 14 15
g wall
f 6 5 15 16
g wall
f 7 6 16 17
g wall
f 8 7 17 18
g wall
f 9 8 18 19
g wall
f 10 9 19 20
g wall
f 1 10 20 11
g ground_assumed
f 20 19 18 17 16 15 14 13 12 11
