# Source coordinates; no display transform
v 2686482.5 1251320.25 430.63653648
v 2686481.75 1251321.75 430.621642028
v 2686480 1251321.25 430.500610114
v 2686478.5 1251320.75 430.395327796
v 2686478 1251320.5 430.358436224
v 2686478 1251320.125 430.350347637
v 2686478.5 1251318.375 430.344100113
v 2686481.25 1251310.25 430.342093018
v 2686484.5 1251301.25 430.352711748
v 2686485.5 1251301.375 430.418406312
v 2686486.75 1251301.625 430.502546654
v 2686487.75 1251302 430.573633599
v 2686488 1251302.25 430.594775583
v 2686488 1251302.75 430.605560353
v 2686487.75 1251303.75 430.611380313
v 2686482.5 1251320.25 430.223350129
v 2686481.75 1251321.75 430.223350129
v 2686480 1251321.25 430.223350129
v 2686478.5 1251320.75 430.223350129
v 2686478 1251320.5 430.223350129
v 2686478 1251320.125 430.223350129
v 2686478.5 1251318.375 430.223350129
v 2686481.25 1251310.25 430.223350129
v 2686484.5 1251301.25 430.223350129
v 2686485.5 1251301.375 430.223350129
v 2686486.75 1251301.625 430.223350129
v 2686487.75 1251302 430.223350129
v 2686488 1251302.25 430.223350129
v 2686488 1251302.75 430.223350129
v 2686487.75 1251303.75 430.223350129
g roof
f 1 2 3 4 5 6 7 8 9 10 11 12 13 14 15
g wall
f 2 1 16 17
g wall
f 3 2 17 18
g wall
f 4 3 18 19
g wall
f 5 4 19 20
g wall
f 6 5 20 21
g wall
f 7 6 21 22
g wall
f 8 7 22 23
g wall
f 9 8 23 24
g wall
f 10 9 24 25
g wall
f 11 10 25 26
g wall
f 12 11 26 27
g wall
f 13 12 27 28
g wall
f 14 13 28 29
g wall
f 15 14 29 30
g wall
f 1 15 30 16
g ground_assumed
f 30 29 28 27 26 25 24 23 22 21 20 19 18 17 16
