v 2686482.4999999972 1251320.2500000023 430.63653648034534
v 2686481.75 1251321.7499999974 430.62164202797339
v 2686480.0000000005 1251321.2499999965 430.50061011429221
v 2686478.4999999981 1251320.7500000033 430.39532779586222
v 2686477.9999999972 1251320.4999999991 430.35843622418065
v 2686477.9999999972 1251320.1249999965 430.35034763697638
v 2686478.4999999981 1251318.3749999972 430.344100112918
v 2686481.2499999991 1251310.25 430.34209301767197
v 2686484.5000000009 1251301.2499999993 430.35271174793013
v 2686485.5000000028 1251301.3749999974 430.41840631180673
v 2686486.7500000009 1251301.6250000019 430.50254665380635
v 2686487.7500000028 1251301.9999999967 430.57363359886216
v 2686487.9999999995 1251302.2500000009 430.59477558301029
v 2686487.9999999995 1251302.7500000019 430.60556035308639
v 2686487.7500000028 1251303.7500000037 430.6113803134229
v 2686482.4999999972 1251320.2500000023 430.22335012888948
v 2686481.75 1251321.7499999974 430.22335012888948
v 2686480.0000000005 1251321.2499999965 430.22335012888948
v 2686478.4999999981 1251320.7500000033 430.22335012888948
v 2686477.9999999972 1251320.4999999991 430.22335012888948
v 2686477.9999999972 1251320.1249999965 430.22335012888948
v 2686478.4999999981 1251318.3749999972 430.22335012888948
v 2686481.2499999991 1251310.25 430.22335012888948
v 2686484.5000000009 1251301.2499999993 430.22335012888948
v 2686485.5000000028 1251301.3749999974 430.22335012888948
v 2686486.7500000009 1251301.6250000019 430.22335012888948
v 2686487.7500000028 1251301.9999999967 430.22335012888948
v 2686487.9999999995 1251302.2500000009 430.22335012888948
v 2686487.9999999995 1251302.7500000019 430.22335012888948
v 2686487.7500000028 1251303.7500000037 430.22335012888948
l 1 2
l 2 3
l 3 4
l 4 5
l 5 6
l 6 7
l 7 8
l 8 9
l 9 10
l 10 11
l 11 12
l 12 13
l 13 14
l 14 15
l 1 15
l 16 17
l 2 17
l 17 18
l 18 19
l 19 20
l 5 20
l 20 21
l 6 21
l 21 22
l 22 23
l 23 24
l 9 24
l 24 25
l 25 26
l 26 27
l 12 27
l 27 28
l 13 28
l 28 29
l 14 29
l 29 30
l 16 30
