# Source coordinates; no display transform
v 2685276.29653 1252428.31977 429.947857989
v 2685288.23519 1252427.89339 429.949960838
v 2685288.32819 1252430.49721 429.892319114
v 2685276.38952 1252430.92359 429.890216265
v 2685276.29653 1252428.31977 429.787318483
v 2685288.23519 1252427.89339 429.787318483
v 2685288.32819 1252430.49721 429.787318483
v 2685276.38952 1252430.92359 429.787318483
g roof
f 1 2 3 4
g wall
f 2 1 5 6
g wall
f 3 2 6 7
g wall
f 4 3 7 8
g wall
f 1 4 8 5
g ground_assumed
f 8 7 6 5
