# XYZ-only planar convex-roof baseline. Provisional base; no GT.
v 8.56517928 2.20935044 3.91647442
v 8.02657515 2.61330354 3.87439575
v 2.42663900 6.34659430 3.73085746
v 0.55999361 7.46658153 3.76140044
v -1.30665177 8.39990422 3.90952703
v -2.18109803 8.69138631 4.07072333
v -0.37799574 0.33118650 8.62598657
v -0.14734791 0.18754762 8.62551979
v -8.77323330 -1.67503462 4.13543748
v -8.77323330 -2.05330992 3.89974743
v -8.39990422 -2.42663900 3.81124340
v -7.65324607 -2.98663261 3.75053945
v -3.91995530 -5.41327161 3.67962797
v -0.55999361 -7.46658153 3.69722051
v 1.30665177 -8.58656876 3.71991683
v 1.88156887 -8.73029804 3.85228090
v -2.42663900 8.77323330 3.88198696
v -2.79996807 8.39990422 3.79834496
v -4.66661346 5.59993615 3.76135879
v -8.02657515 0.37332908 3.77102845
v -8.77323330 -1.11998723 3.90872351
v 8.77323330 1.49331631 3.50471552
v 8.77323330 2.05330992 3.72401044
v 2.05330992 -8.77323330 3.72703599
v 4.29328438 -5.59993615 3.55546476
v 6.90658792 -1.49331631 3.51367799
v 8.56517928 2.20935044 -8.32523955
v 8.02657515 2.61330354 -8.32523955
v 2.42663900 6.34659430 -8.32523955
v 0.55999361 7.46658153 -8.32523955
v -1.30665177 8.39990422 -8.32523955
v -2.18109803 8.69138631 -8.32523955
v -2.42663900 8.77323330 -8.32523955
v -2.79996807 8.39990422 -8.32523955
v -4.66661346 5.59993615 -8.32523955
v -8.02657515 0.37332908 -8.32523955
v -8.77323330 -1.11998723 -8.32523955
v -8.77323330 -1.67503462 -8.32523955
v -8.77323330 -2.05330992 -8.32523955
v -8.39990422 -2.42663900 -8.32523955
v -7.65324607 -2.98663261 -8.32523955
v -3.91995530 -5.41327161 -8.32523955
v -0.55999361 -7.46658153 -8.32523955
v 1.30665177 -8.58656876 -8.32523955
v 1.88156887 -8.73029804 -8.32523955
v 2.05330992 -8.77323330 -8.32523955
v 4.29328438 -5.59993615 -8.32523955
v 6.90658792 -1.49331631 -8.32523955
v 8.77323330 1.49331631 -8.32523955
v 8.77323330 2.05330992 -8.32523955
g roof
f 1 2 3 4 5 6 7 8
g roof
f 9 10 11 12 13 14 15 16 8 7
g roof
f 6 17 18 19 20 21 9 7
g roof
f 22 23 1 8 16 24 25 26
g wall
f 2 1 27 28
g wall
f 3 2 28 29
g wall
f 4 3 29 30
g wall
f 5 4 30 31
g wall
f 6 5 31 32
g wall
f 10 9 38 39
g wall
f 11 10 39 40
g wall
f 12 11 40 41
g wall
f 13 12 41 42
g wall
f 14 13 42 43
g wall
f 15 14 43 44
g wall
f 16 15 44 45
g wall
f 17 6 32 33
g wall
f 18 17 33 34
g wall
f 19 18 34 35
g wall
f 20 19 35 36
g wall
f 21 20 36 37
g wall
f 9 21 37 38
g wall
f 23 22 49 50
g wall
f 1 23 50 27
g wall
f 24 16 45 46
g wall
f 25 24 46 47
g wall
f 26 25 47 48
g wall
f 22 26 48 49
g ground_assumed
f 50 49 48 47 46 45 44 43 42 41 40 39 38 37 36 35 34 33 32 31 30 29 28 27
