# Source coordinates; no display transform
v 2680444.11068 1250795.47949 507.587665362
v 2680443.75 1250795.75 507.55948736
v 2680440 1250798.25 507.463366873
v 2680438.75 1250799 507.483819995
v 2680437.5 1250799.625 507.583013039
v 2680436.91443 1250799.82019 507.690958221
v 2680438.12187 1250794.22178 510.741392493
v 2680438.27633 1250794.12559 510.741079913
v 2680432.5 1250792.87831 507.734294083
v 2680432.5 1250792.625 507.576464125
v 2680432.75 1250792.375 507.517197358
v 2680433.25 1250792 507.476546928
v 2680435.75 1250790.375 507.42906102
v 2680438 1250789 507.440841873
v 2680439.25 1250788.25 507.456040475
v 2680439.63499 1250788.15375 507.54467814
v 2680436.75 1250799.875 507.564570817
v 2680436.5 1250799.625 507.508559911
v 2680435.25 1250797.75 507.483792104
v 2680433 1250794.25 507.490267397
v 2680432.5 1250793.25 507.582474961
v 2680444.25 1250795 507.311930812
v 2680444.25 1250795.375 507.458781763
v 2680439.75 1250788.125 507.460807824
v 2680441.25 1250790.25 507.345915065
v 2680443 1250793 507.317932534
v 2680444.11068 1250795.47949 499.389995573
v 2680443.75 1250795.75 499.389995573
v 2680440 1250798.25 499.389995573
v 2680438.75 1250799 499.389995573
v 2680437.5 1250799.625 499.389995573
v 2680436.91443 1250799.82019 499.389995573
v 2680436.75 1250799.875 499.389995573
v 2680436.5 1250799.625 499.389995573
v 2680435.25 1250797.75 499.389995573
v 2680433 1250794.25 499.389995573
v 2680432.5 1250793.25 499.389995573
v 2680432.5 1250792.87831 499.389995573
v 2680432.5 1250792.625 499.389995573
v 2680432.75 1250792.375 499.389995573
v 2680433.25 1250792 499.389995573
v 2680435.75 1250790.375 499.389995573
v 2680438 1250789 499.389995573
v 2680439.25 1250788.25 499.389995573
v 2680439.63499 1250788.15375 499.389995573
v 2680439.75 1250788.125 499.389995573
v 2680441.25 1250790.25 499.389995573
v 2680443 1250793 499.389995573
v 2680444.25 1250795 499.389995573
v 2680444.25 1250795.375 499.389995573
g roof
f 1 2 3 4 5 6 7 8
g roof
f 9 10 11 12 13 14 15 16 8 7
g roof
f 6 17 18 19 20 21 9 7
g roof
f 22 23 1 8 16 24 25 26
g wall
f 2 1 27 28
g wall
f 3 2 28 29
g wall
f 4 3 29 30
g wall
f 5 4 30 31
g wall
f 6 5 31 32
g wall
f 10 9 38 39
g wall
f 11 10 39 40
g wall
f 12 11 40 41
g wall
f 13 12 41 42
g wall
f 14 13 42 43
g wall
f 15 14 43 44
g wall
f 16 15 44 45
g wall
f 17 6 32 33
g wall
f 18 17 33 34
g wall
f 19 18 34 35
g wall
f 20 19 35 36
g wall
f 21 20 36 37
g wall
f 9 21 37 38
g wall
f 23 22 49 50
g wall
f 1 23 50 27
g wall
f 24 16 45 46
g wall
f 25 24 46 47
g wall
f 26 25 47 48
g wall
f 22 26 48 49
g ground_assumed
f 50 49 48 47 46 45 44 43 42 41 40 39 38 37 36 35 34 33 32 31 30 29 28 27
