v 2680444.1106765228 1250795.4794926101 507.58766536198675
v 2680443.7500000019 1250795.7500000026 507.55948735989881
v 2680440.0000000014 1250798.2499999986 507.46336687331211
v 2680438.7499999967 1250798.9999999986 507.48381999491062
v 2680437.4999999986 1250799.6249999977 507.5830130388519
v 2680436.9144266299 1250799.8201911228 507.69095822053112
v 2680438.1218749667 1250794.2217792028 510.7413924925242
v 2680438.2763283993 1250794.1255913561 510.74107991306732
v 2680432.5 1250792.8783122418 507.73429408294834
v 2680432.5 1250792.6250000009 507.57646412489572
v 2680432.7500000023 1250792.3749999986 507.51719735762072
v 2680433.2500000005 1250792.0000000019 507.47654692760841
v 2680435.7500000028 1250790.3750000005 507.42906102010465
v 2680438.0000000033 1250789.0000000014 507.44084187317947
v 2680439.2500000014 1250788.2500000012 507.45604047504469
v 2680439.6349935206 1250788.153751618 507.54467813970541
v 2680436.7499999986 1250799.875 507.56457081741377
v 2680436.5000000028 1250799.6249999977 507.50855991092266
v 2680435.2499999981 1250797.7500000007 507.48379210396757
v 2680432.9999999981 1250794.2500000023 507.49026739654857
v 2680432.5 1250793.2499999998 507.5824749612882
v 2680444.25 1250795.0000000023 507.31193081182317
v 2680444.25 1250795.3749999991 507.45878176299715
v 2680439.7499999991 1250788.125 507.46080782404465
v 2680441.2499999995 1250790.2499999993 507.34591506538163
v 2680443.0000000019 1250792.9999999977 507.31793253427242
v 2680444.1106765228 1250795.4794926101 499.38999557330845
v 2680443.7500000019 1250795.7500000026 499.38999557330845
v 2680440.0000000014 1250798.2499999986 499.38999557330845
v 2680438.7499999967 1250798.9999999986 499.38999557330845
v 2680437.4999999986 1250799.6249999977 499.38999557330845
v 2680436.9144266299 1250799.8201911228 499.38999557330845
v 2680436.7499999986 1250799.875 499.38999557330845
v 2680436.5000000028 1250799.6249999977 499.38999557330845
v 2680435.2499999981 1250797.7500000007 499.38999557330845
v 2680432.9999999981 1250794.2500000023 499.38999557330845
v 2680432.5 1250793.2499999998 499.38999557330845
v 2680432.5 1250792.8783122418 499.38999557330845
v 2680432.5 1250792.6250000009 499.38999557330845
v 2680432.7500000023 1250792.3749999986 499.38999557330845
v 2680433.2500000005 1250792.0000000019 499.38999557330845
v 2680435.7500000028 1250790.3750000005 499.38999557330845
v 2680438.0000000033 1250789.0000000014 499.38999557330845
v 2680439.2500000014 1250788.2500000012 499.38999557330845
v 2680439.6349935206 1250788.153751618 499.38999557330845
v 2680439.7499999991 1250788.125 499.38999557330845
v 2680441.2499999995 1250790.2499999993 499.38999557330845
v 2680443.0000000019 1250792.9999999977 499.38999557330845
v 2680444.25 1250795.0000000023 499.38999557330845
v 2680444.25 1250795.3749999991 499.38999557330845
l 1 2
l 2 3
l 3 4
l 4 5
l 5 6
l 6 7
l 7 8
l 1 8
l 9 10
l 10 11
l 11 12
l 12 13
l 13 14
l 14 15
l 15 16
l 8 16
l 7 9
l 6 17
l 17 18
l 18 19
l 19 20
l 20 21
l 9 21
l 22 23
l 1 23
l 16 24
l 24 25
l 25 26
l 22 26
l 27 28
l 28 29
l 29 30
l 30 31
l 31 32
l 38 39
l 10 39
l 39 40
l 40 41
l 41 42
l 42 43
l 43 44
l 15 44
l 44 45
l 32 33
l 17 33
l 33 34
l 18 34
l 34 35
l 35 36
l 36 37
l 21 37
l 37 38
l 22 49
l 49 50
l 23 50
l 27 50
l 45 46
l 24 46
l 46 47
l 47 48
l 48 49
