# Source coordinates; no display transform
v -0.0370605839972 0.730567774905 0.267995198456
v -0.715719369789 0.0785797150439 0.26808579896
v -0.0668960192902 -0.596784903561 0.267582743977
v 0.611762766502 0.055203155803 0.267492143473
v -0.0370605839972 0.730567774905 -0.266153269402
v -0.715719369789 0.0785797150439 -0.266153269402
v -0.0668960192902 -0.596784903561 -0.266153269402
v 0.611762766502 0.055203155803 -0.266153269402
g roof
f 1 2 3 4
g wall
f 2 1 5 6
g wall
f 3 2 6 7
g wall
f 4 3 7 8
g wall
f 1 4 8 5
g ground_assumed
f 8 7 6 5
