# XYZ-only planar convex-roof baseline. Provisional base; no GT.
v -6.64943013 -3.46273134 1.43328103
v -6.61331593 -3.63886499 1.46683808
v -4.10988949 -4.76921452 2.37639460
v -2.83200370 -5.22956456 2.82576786
v -1.76704462 -5.68458932 3.20939149
v 2.16053676 5.88326807 2.93053783
v -1.73503632 7.58544537 1.52243704
v -1.93984897 7.66191943 1.45006976
v -4.80851153 1.02131820 1.42251087
v 1.98691406 -7.28854213 1.90471088
v 3.03470276 -7.62681080 1.54952647
v 3.19089339 -7.45263910 1.51499709
v 4.00547248 -5.58668479 1.41343936
v 5.75764444 -1.33037307 1.21488157
v 5.81136865 -0.95634298 1.22876252
v 5.32288737 0.56382561 1.50607229
v 5.97157588 2.03034986 1.42360414
v 6.67293384 3.84341280 1.35309227
v 6.65044750 3.95568307 1.36932566
v 6.15097998 4.26093087 1.55044547
v 2.75030082 5.62556966 2.72509832
v -6.64943013 -3.46273134 -2.96732500
v -6.61331593 -3.63886499 -2.96732500
v -4.10988949 -4.76921452 -2.96732500
v -2.83200370 -5.22956456 -2.96732500
v -1.76704462 -5.68458932 -2.96732500
v 1.98691406 -7.28854213 -2.96732500
v 3.03470276 -7.62681080 -2.96732500
v 3.19089339 -7.45263910 -2.96732500
v 4.00547248 -5.58668479 -2.96732500
v 5.75764444 -1.33037307 -2.96732500
v 5.81136865 -0.95634298 -2.96732500
v 5.32288737 0.56382561 -2.96732500
v 5.97157588 2.03034986 -2.96732500
v 6.67293384 3.84341280 -2.96732500
v 6.65044750 3.95568307 -2.96732500
v 6.15097998 4.26093087 -2.96732500
v 2.75030082 5.62556966 -2.96732500
v 2.16053676 5.88326807 -2.96732500
v -1.73503632 7.58544537 -2.96732500
v -1.93984897 7.66191943 -2.96732500
v -4.80851153 1.02131820 -2.96732500
g roof
f 1 2 3 4 5 6 7 8 9
g roof
f 5 10 11 12 13 14 15 16 17 18 19 20 21 6
g wall
f 2 1 22 23
g wall
f 3 2 23 24
g wall
f 4 3 24 25
g wall
f 5 4 25 26
g wall
f 7 6 39 40
g wall
f 8 7 40 41
g wall
f 9 8 41 42
g wall
f 1 9 42 22
g wall
f 10 5 26 27
g wall
f 11 10 27 28
g wall
f 12 11 28 29
g wall
f 13 12 29 30
g wall
f 14 13 30 31
g wall
f 15 14 31 32
g wall
f 16 15 32 33
g wall
f 17 16 33 34
g wall
f 18 17 34 35
g wall
f 19 18 35 36
g wall
f 20 19 36 37
g wall
f 21 20 37 38
g wall
f 6 21 38 39
g ground_assumed
f 42 41 40 39 38 37 36 35 34 33 32 31 30 29 28 27 26 25 24 23 22
