v -6.64943013 -3.46273134 1.43328103
v -6.61331593 -3.63886499 1.46683808
v -4.10988949 -4.76921452 2.3763946
v -2.8320037 -5.22956456 2.82576786
v -1.76704462 -5.68458932 3.20939149
v 2.16053676 5.88326807 2.93053783
v -1.73503632 7.58544537 1.52243704
v -1.93984897 7.66191943 1.45006976
v -4.80851153 1.0213182 1.42251087
v 1.98691406 -7.28854213 1.90471088
v 3.03470276 -7.6268108 1.54952647
v 3.19089339 -7.4526391 1.51499709
v 4.00547248 -5.58668479 1.41343936
v 5.75764444 -1.33037307 1.21488157
v 5.81136865 -0.95634298 1.22876252
v 5.32288737 0.56382561 1.50607229
v 5.97157588 2.03034986 1.42360414
v 6.67293384 3.8434128 1.35309227
v 6.6504475 3.95568307 1.36932566
v 6.15097998 4.26093087 1.55044547
v 2.75030082 5.62556966 2.72509832
v -6.64943013 -3.46273134 -2.967325
v -6.61331593 -3.63886499 -2.967325
v -4.10988949 -4.76921452 -2.967325
v -2.8320037 -5.22956456 -2.967325
v -1.76704462 -5.68458932 -2.967325
v 1.98691406 -7.28854213 -2.967325
v 3.03470276 -7.6268108 -2.967325
v 3.19089339 -7.4526391 -2.967325
v 4.00547248 -5.58668479 -2.967325
v 5.75764444 -1.33037307 -2.967325
v 5.81136865 -0.95634298 -2.967325
v 5.32288737 0.56382561 -2.967325
v 5.97157588 2.03034986 -2.967325
v 6.67293384 3.8434128 -2.967325
v 6.6504475 3.95568307 -2.967325
v 6.15097998 4.26093087 -2.967325
v 2.75030082 5.62556966 -2.967325
v 2.16053676 5.88326807 -2.967325
v -1.73503632 7.58544537 -2.967325
v -1.93984897 7.66191943 -2.967325
v -4.80851153 1.0213182 -2.967325
l 1 2
l 2 3
l 3 4
l 4 5
l 5 6
l 6 7
l 7 8
l 8 9
l 1 9
l 5 10
l 10 11
l 11 12
l 12 13
l 13 14
l 14 15
l 15 16
l 16 17
l 17 18
l 18 19
l 19 20
l 20 21
l 6 21
l 1 22
l 22 23
l 2 23
l 23 24
l 24 25
l 25 26
l 39 40
l 40 41
l 8 41
l 41 42
l 22 42
l 26 27
l 27 28
l 11 28
l 28 29
l 12 29
l 29 30
l 30 31
l 14 31
l 31 32
l 15 32
l 32 33
l 16 33
l 33 34
l 34 35
l 18 35
l 35 36
l 19 36
l 36 37
l 37 38
l 38 39
