v -51.8920032 70.59577582 -3.84397249
v -52.74119132 54.69209064 -3.84292916
v -61.6437321 12.2443622 -3.84096345
v -63.19815091 5.06354506 -3.84063688
v -69.19975076 -11.61327842 -3.84017362
v -69.58988881 -13.10405584 -3.84011415
v -70.52181783 -17.73100089 -3.83989513
v -67.4521145 -28.39223699 -3.83874662
v -59.63748906 -40.31873965 -3.83692117
v -49.20620812 -47.31953053 -3.83512839
v -48.05512236 -47.97705914 -3.83493886
v -45.10031147 -48.8708342 -3.83450967
v -27.45861868 -50.44147286 -3.83221903
v -23.13631401 -51.45798606 -3.8316122
v -20.08467607 -52.27166528 -3.83117684
v -9.31225837 -54.3374574 -3.82969823
v 11.4440025 -58.80632258 -3.82681398
v 21.62367045 -60.85602713 -3.82540968
v 38.01031781 -66.82467987 -3.82295643
v 40.78276362 -67.55071434 -3.82256185
v 43.32261079 -68.05845971 -3.82221174
v 45.40638921 -68.1418568 -3.82194855
v 58.10194877 -61.86867964 -3.8208346
v 59.17547196 -60.759298 -3.8207822
v 62.12592274 -55.86923678 -3.8207711
v 63.90353205 -52.52142357 -3.8207934
v 63.71060018 -38.79693967 -3.82180802
v 59.88326353 -33.37795522 -3.82267159
v 49.97460729 -22.30800436 -3.82469363
v 46.90419499 -17.59694372 -3.82541267
v 40.23686016 -7.88977727 -3.82693631
v 36.17389031 -1.18177219 -3.82792201
v 29.3342376 15.43998137 -3.8299661
v 25.5928494 21.32535928 -3.83085272
v 19.83200434 29.84376323 -3.83217866
v 18.1068881 31.448661 -3.83250743
v 6.22472145 44.77032283 -3.8349356
v 0.99339854 52.93315566 -3.83617052
v -2.46238595 58.00273196 -3.836963
v -5.45618942 62.64252902 -3.83766744
v -13.06060788 78.99004284 -3.83978611
v -14.55727926 81.24700245 -3.84013376
v -16.86790955 84.38758387 -3.84064565
v -31.30589792 88.54375495 -3.84272756
v -33.29666539 88.54090279 -3.84297305
v -41.29558711 86.70728321 -3.84382786
v -42.83110411 86.28087673 -3.84398658
v -50.64009415 76.8513246 -3.84426959
v -51.8920032 70.59577582 -13.5896264
v -52.74119132 54.69209064 -13.5896264
v -61.6437321 12.2443622 -13.5896264
v -63.19815091 5.06354506 -13.5896264
v -69.19975076 -11.61327842 -13.5896264
v -69.58988881 -13.10405584 -13.5896264
v -70.52181783 -17.73100089 -13.5896264
v -67.4521145 -28.39223699 -13.5896264
v -59.63748906 -40.31873965 -13.5896264
v -49.20620812 -47.31953053 -13.5896264
v -48.05512236 -47.97705914 -13.5896264
v -45.10031147 -48.8708342 -13.5896264
v -27.45861868 -50.44147286 -13.5896264
v -23.13631401 -51.45798606 -13.5896264
v -20.08467607 -52.27166528 -13.5896264
v -9.31225837 -54.3374574 -13.5896264
v 11.4440025 -58.80632258 -13.5896264
v 21.62367045 -60.85602713 -13.5896264
v 38.01031781 -66.82467987 -13.5896264
v 40.78276362 -67.55071434 -13.5896264
v 43.32261079 -68.05845971 -13.5896264
v 45.40638921 -68.1418568 -13.5896264
v 58.10194877 -61.86867964 -13.5896264
v 59.17547196 -60.759298 -13.5896264
v 62.12592274 -55.86923678 -13.5896264
v 63.90353205 -52.52142357 -13.5896264
v 63.71060018 -38.79693967 -13.5896264
v 59.88326353 -33.37795522 -13.5896264
v 49.97460729 -22.30800436 -13.5896264
v 46.90419499 -17.59694372 -13.5896264
v 40.23686016 -7.88977727 -13.5896264
v 36.17389031 -1.18177219 -13.5896264
v 29.3342376 15.43998137 -13.5896264
v 25.5928494 21.32535928 -13.5896264
v 19.83200434 29.84376323 -13.5896264
v 18.1068881 31.448661 -13.5896264
v 6.22472145 44.77032283 -13.5896264
v 0.99339854 52.93315566 -13.5896264
v -2.46238595 58.00273196 -13.5896264
v -5.45618942 62.64252902 -13.5896264
v -13.06060788 78.99004284 -13.5896264
v -14.55727926 81.24700245 -13.5896264
v -16.86790955 84.38758387 -13.5896264
v -31.30589792 88.54375495 -13.5896264
v -33.29666539 88.54090279 -13.5896264
v -41.29558711 86.70728321 -13.5896264
v -42.83110411 86.28087673 -13.5896264
v -50.64009415 76.8513246 -13.5896264
l 1 2
l 2 3
l 3 4
l 4 5
l 5 6
l 6 7
l 7 8
l 8 9
l 9 10
l 10 11
l 11 12
l 12 13
l 13 14
l 14 15
l 15 16
l 16 17
l 17 18
l 18 19
l 19 20
l 20 21
l 21 22
l 22 23
l 23 24
l 24 25
l 25 26
l 26 27
l 27 28
l 28 29
l 29 30
l 30 31
l 31 32
l 32 33
l 33 34
l 34 35
l 35 36
l 36 37
l 37 38
l 38 39
l 39 40
l 40 41
l 41 42
l 42 43
l 43 44
l 44 45
l 45 46
l 46 47
l 47 48
l 1 48
l 49 50
l 50 51
l 51 52
l 52 53
l 53 54
l 54 55
l 7 55
l 55 56
l 8 56
l 56 57
l 9 57
l 57 58
l 58 59
l 11 59
l 59 60
l 12 60
l 60 61
l 61 62
l 62 63
l 63 64
l 64 65
l 65 66
l 66 67
l 67 68
l 68 69
l 69 70
l 22 70
l 70 71
l 23 71
l 71 72
l 24 72
l 72 73
l 73 74
l 26 74
l 74 75
l 27 75
l 75 76
l 76 77
l 77 78
l 78 79
l 79 80
l 80 81
l 33 81
l 81 82
l 82 83
l 35 83
l 83 84
l 84 85
l 85 86
l 86 87
l 87 88
l 88 89
l 89 90
l 90 91
l 43 91
l 91 92
l 44 92
l 92 93
l 45 93
l 93 94
l 94 95
l 47 95
l 95 96
l 48 96
l 49 96
