v 1.70507798 -1.89205123 3.24350686
v 2.34561956 -1.28050011 2.56861594
v 3.36787611 -0.47035529 1.57597417
v 3.51624547 0.08216346 1.21047234
v 3.13966337 0.38111525 1.27200357
v 2.98867968 0.73599202 1.17702311
v 1.87034353 1.81368758 1.26307296
v 1.63810933 2.06625476 1.26629373
v 1.42855522 2.47795041 1.17562805
v 0.33299351 3.57994051 1.2363835
v -0.07885142 3.358799 1.58271413
v -1.15981216 2.32946279 2.72026678
v -1.66946832 2.00503579 3.1746946
v -1.73143166 1.9443082 3.24077938
v -3.07937311 -0.62458667 1.19192925
v -2.75689979 -0.82412036 1.2728465
v -2.48871525 -1.12974055 1.26992688
v -1.5558181 -2.33683185 1.18739814
v -1.2057799 -2.59997384 1.25183099
v -0.93678693 -3.0241203 1.18978414
v -0.26333993 -3.50836853 1.32481573
v 0.24232338 -3.12382742 1.80228656
v 0.54990142 -2.99494531 2.03992327
v -2.73361058 0.96211581 2.18385086
v -3.69458206 0.1735049 1.24739043
v 1.70507798 -1.89205123 -3.10727335
v 2.34561956 -1.28050011 -3.10727335
v 3.36787611 -0.47035529 -3.10727335
v 3.51624547 0.08216346 -3.10727335
v 3.13966337 0.38111525 -3.10727335
v 2.98867968 0.73599202 -3.10727335
v 1.87034353 1.81368758 -3.10727335
v 1.63810933 2.06625476 -3.10727335
v 1.42855522 2.47795041 -3.10727335
v 0.33299351 3.57994051 -3.10727335
v -0.07885142 3.358799 -3.10727335
v -1.15981216 2.32946279 -3.10727335
v -1.66946832 2.00503579 -3.10727335
v -1.73143166 1.9443082 -3.10727335
v -2.73361058 0.96211581 -3.10727335
v -3.69458206 0.1735049 -3.10727335
v -3.07937311 -0.62458667 -3.10727335
v -2.75689979 -0.82412036 -3.10727335
v -2.48871525 -1.12974055 -3.10727335
v -1.5558181 -2.33683185 -3.10727335
v -1.2057799 -2.59997384 -3.10727335
v -0.93678693 -3.0241203 -3.10727335
v -0.26333993 -3.50836853 -3.10727335
v 0.24232338 -3.12382742 -3.10727335
v 0.54990142 -2.99494531 -3.10727335
l 1 2
l 2 3
l 3 4
l 4 5
l 5 6
l 6 7
l 7 8
l 8 9
l 9 10
l 10 11
l 11 12
l 12 13
l 13 14
l 1 14
l 15 16
l 16 17
l 17 18
l 18 19
l 19 20
l 20 21
l 21 22
l 22 23
l 1 23
l 14 24
l 24 25
l 15 25
l 26 27
l 27 28
l 3 28
l 28 29
l 4 29
l 29 30
l 5 30
l 30 31
l 6 31
l 31 32
l 32 33
l 8 33
l 33 34
l 9 34
l 34 35
l 10 35
l 35 36
l 11 36
l 36 37
l 12 37
l 37 38
l 13 38
l 38 39
l 15 42
l 42 43
l 16 43
l 43 44
l 44 45
l 18 45
l 45 46
l 19 46
l 46 47
l 20 47
l 47 48
l 21 48
l 48 49
l 22 49
l 49 50
l 23 50
l 26 50
l 39 40
l 40 41
l 25 41
l 41 42
