# XYZ-only planar convex-roof baseline. Provisional base; no GT.
v 1.70507798 -1.89205123 3.24350686
v 2.34561956 -1.28050011 2.56861594
v 3.36787611 -0.47035529 1.57597417
v 3.51624547 0.08216346 1.21047234
v 3.13966337 0.38111525 1.27200357
v 2.98867968 0.73599202 1.17702311
v 1.87034353 1.81368758 1.26307296
v 1.63810933 2.06625476 1.26629373
v 1.42855522 2.47795041 1.17562805
v 0.33299351 3.57994051 1.23638350
v -0.07885142 3.35879900 1.58271413
v -1.15981216 2.32946279 2.72026678
v -1.66946832 2.00503579 3.17469460
v -1.73143166 1.94430820 3.24077938
v -3.07937311 -0.62458667 1.19192925
v -2.75689979 -0.82412036 1.27284650
v -2.48871525 -1.12974055 1.26992688
v -1.55581810 -2.33683185 1.18739814
v -1.20577990 -2.59997384 1.25183099
v -0.93678693 -3.02412030 1.18978414
v -0.26333993 -3.50836853 1.32481573
v 0.24232338 -3.12382742 1.80228656
v 0.54990142 -2.99494531 2.03992327
v -2.73361058 0.96211581 2.18385086
v -3.69458206 0.17350490 1.24739043
v 1.70507798 -1.89205123 -3.10727335
v 2.34561956 -1.28050011 -3.10727335
v 3.36787611 -0.47035529 -3.10727335
v 3.51624547 0.08216346 -3.10727335
v 3.13966337 0.38111525 -3.10727335
v 2.98867968 0.73599202 -3.10727335
v 1.87034353 1.81368758 -3.10727335
v 1.63810933 2.06625476 -3.10727335
v 1.42855522 2.47795041 -3.10727335
v 0.33299351 3.57994051 -3.10727335
v -0.07885142 3.35879900 -3.10727335
v -1.15981216 2.32946279 -3.10727335
v -1.66946832 2.00503579 -3.10727335
v -1.73143166 1.94430820 -3.10727335
v -2.73361058 0.96211581 -3.10727335
v -3.69458206 0.17350490 -3.10727335
v -3.07937311 -0.62458667 -3.10727335
v -2.75689979 -0.82412036 -3.10727335
v -2.48871525 -1.12974055 -3.10727335
v -1.55581810 -2.33683185 -3.10727335
v -1.20577990 -2.59997384 -3.10727335
v -0.93678693 -3.02412030 -3.10727335
v -0.26333993 -3.50836853 -3.10727335
v 0.24232338 -3.12382742 -3.10727335
v 0.54990142 -2.99494531 -3.10727335
g roof
f 1 2 3 4 5 6 7 8 9 10 11 12 13 14
g roof
f 15 16 17 18 19 20 21 22 23 1 14 24 25
g wall
f 2 1 26 27
g wall
f 3 2 27 28
g wall
f 4 3 28 29
g wall
f 5 4 29 30
g wall
f 6 5 30 31
g wall
f 7 6 31 32
g wall
f 8 7 32 33
g wall
f 9 8 33 34
g wall
f 10 9 34 35
g wall
f 11 10 35 36
g wall
f 12 11 36 37
g wall
f 13 12 37 38
g wall
f 14 13 38 39
g wall
f 16 15 42 43
g wall
f 17 16 43 44
g wall
f 18 17 44 45
g wall
f 19 18 45 46
g wall
f 20 19 46 47
g wall
f 21 20 47 48
g wall
f 22 21 48 49
g wall
f 23 22 49 50
g wall
f 1 23 50 26
g wall
f 24 14 39 40
g wall
f 25 24 40 41
g wall
f 15 25 41 42
g ground_assumed
f 50 49 48 47 46 45 44 43 42 41 40 39 38 37 36 35 34 33 32 31 30 29 28 27 26
