v -4.87210179 -25.01910882 43.37938177
v 2.04572701 -46.32411291 43.37927212
v 2.94587687 -46.13989906 43.37927596
v 26.02356779 -38.51577967 43.37939197
v -1.41647785 44.98204393 43.37982071
v -1.88853332 46.20828301 43.37982679
v -2.60154216 46.26285117 43.37982499
v -25.98175815 38.55812628 43.37970757
v -23.47677666 31.26751955 43.37967046
v -4.87210179 -25.01910882 -43.03396
v 2.04572701 -46.32411291 -43.03396
v 2.94587687 -46.13989906 -43.03396
v 26.02356779 -38.51577967 -43.03396
v -1.41647785 44.98204393 -43.03396
v -1.88853332 46.20828301 -43.03396
v -2.60154216 46.26285117 -43.03396
v -25.98175815 38.55812628 -43.03396
v -23.47677666 31.26751955 -43.03396
l 1 2
l 2 3
l 3 4
l 4 5
l 5 6
l 6 7
l 7 8
l 8 9
l 1 9
l 10 11
l 2 11
l 11 12
l 12 13
l 4 13
l 13 14
l 14 15
l 6 15
l 15 16
l 7 16
l 16 17
l 8 17
l 17 18
l 10 18
