# XYZ-only planar convex-roof baseline. Provisional base; no GT.
v -3.78533295 -1.32037014 1.35846495
v -3.63492711 -1.56013906 1.35844166
v -2.98792106 -1.60050563 1.35847149
v -1.44547277 -1.98061098 1.35850537
v 0.36390085 -2.24875849 1.35856843
v 0.80494324 -2.42647928 1.35856906
v 2.99073823 -2.75385443 1.35864478
v 3.77099340 1.16142013 1.35920068
v 3.60258120 1.57526756 1.35924582
v 2.82291321 1.64407039 1.35921251
v 2.45761229 1.79063655 1.35921191
v 1.67904384 1.86436290 1.35917931
v 1.31264422 2.00578193 1.35917797
v -0.97311570 2.45531871 1.35911284
v -2.52027222 2.64838031 1.35905418
v -2.88746320 2.78617392 1.35905231
v -3.04103663 2.73837055 1.35903771
v -3.78533295 -1.32037014 -1.21867837
v -3.63492711 -1.56013906 -1.21867837
v -2.98792106 -1.60050563 -1.21867837
v -1.44547277 -1.98061098 -1.21867837
v 0.36390085 -2.24875849 -1.21867837
v 0.80494324 -2.42647928 -1.21867837
v 2.99073823 -2.75385443 -1.21867837
v 3.77099340 1.16142013 -1.21867837
v 3.60258120 1.57526756 -1.21867837
v 2.82291321 1.64407039 -1.21867837
v 2.45761229 1.79063655 -1.21867837
v 1.67904384 1.86436290 -1.21867837
v 1.31264422 2.00578193 -1.21867837
v -0.97311570 2.45531871 -1.21867837
v -2.52027222 2.64838031 -1.21867837
v -2.88746320 2.78617392 -1.21867837
v -3.04103663 2.73837055 -1.21867837
g roof
f 1 2 3 4 5 6 7 8 9 10 11 12 13 14 15 16 17
g wall
f 2 1 18 19
g wall
f 3 2 19 20
g wall
f 4 3 20 21
g wall
f 5 4 21 22
g wall
f 6 5 22 23
g wall
f 7 6 23 24
g wall
f 8 7 24 25
g wall
f 9 8 25 26
g wall
f 10 9 26 27
g wall
f 11 10 27 28
g wall
f 12 11 28 29
g wall
f 13 12 29 30
g wall
f 14 13 30 31
g wall
f 15 14 31 32
g wall
f 16 15 32 33
g wall
f 17 16 33 34
g wall
f 1 17 34 18
g ground_assumed
f 34 33 32 31 30 29 28 27 26 25 24 23 22 21 20 19 18
