# XYZ-only planar convex-roof baseline. Provisional base; no GT.
v -9.04096753 -4.18400785 2.40912017
v -8.97403007 -4.45800811 2.35754633
v -5.98963176 -4.89129656 2.37690949
v -0.77776197 -5.50488794 2.43888379
v 1.18887812 -6.18846438 2.37331105
v 1.52608882 -6.54475440 2.31501890
v 4.98683389 -6.99452396 2.34783900
v 10.81420364 -7.54893393 2.44303846
v 11.26748645 -3.18812404 3.31709543
v 11.58387758 -1.16443433 3.72643041
v 11.71616744 0.15999132 3.99170256
v -1.19853857 2.10966760 3.92260282
v -8.06776317 5.80793871 2.35761527
v -8.20546582 3.71696512 2.38249732
v -8.59977386 1.02414742 2.36814472
v -8.68447948 -0.56604038 2.39134803
v -8.96373398 -2.36580742 2.37839479
v -9.08254352 -4.01382166 2.39580785
v -7.28787657 9.89552307 2.41817998
v -7.40185685 9.88760623 2.39401241
v -7.56981108 9.69727598 2.36304267
v 11.76511963 0.65007830 3.88533087
v 11.48341773 0.95897132 3.82672846
v 9.63999539 1.05501796 3.85592965
v 7.99117096 1.36146367 3.83477618
v 6.44483486 1.43844138 3.86004083
v 6.07801204 1.53949377 3.84828782
v 5.01744204 3.10944319 3.54041581
v 5.51321561 6.69382445 2.75871777
v 5.57468960 8.23544129 2.42661372
v 5.02138950 8.43512879 2.39875493
v 3.95802419 8.60005730 2.39212295
v -3.54750231 9.52486932 2.39660605
v -5.36759940 9.64626292 2.41974416
v -7.03656910 9.91297838 2.40765093
v -9.04096753 -4.18400785 -3.63569286
v -8.97403007 -4.45800811 -3.63569286
v -5.98963176 -4.89129656 -3.63569286
v -0.77776197 -5.50488794 -3.63569286
v 1.18887812 -6.18846438 -3.63569286
v 1.52608882 -6.54475440 -3.63569286
v 4.98683389 -6.99452396 -3.63569286
v 10.81420364 -7.54893393 -3.63569286
v 11.26748645 -3.18812404 -3.63569286
v 11.58387758 -1.16443433 -3.63569286
v 11.71616744 0.15999132 -3.63569286
v 11.76511963 0.65007830 -3.63569286
v 11.48341773 0.95897132 -3.63569286
v 9.63999539 1.05501796 -3.63569286
v 7.99117096 1.36146367 -3.63569286
v 6.44483486 1.43844138 -3.63569286
v 6.07801204 1.53949377 -3.63569286
v 5.01744204 3.10944319 -3.63569286
v 5.51321561 6.69382445 -3.63569286
v 5.57468960 8.23544129 -3.63569286
v 5.02138950 8.43512879 -3.63569286
v 3.95802419 8.60005730 -3.63569286
v -3.54750231 9.52486932 -3.63569286
v -5.36759940 9.64626292 -3.63569286
v -7.03656910 9.91297838 -3.63569286
v -7.28787657 9.89552307 -3.63569286
v -7.40185685 9.88760623 -3.63569286
v -7.56981108 9.69727598 -3.63569286
v -8.06776317 5.80793871 -3.63569286
v -8.20546582 3.71696512 -3.63569286
v -8.59977386 1.02414742 -3.63569286
v -8.68447948 -0.56604038 -3.63569286
v -8.96373398 -2.36580742 -3.63569286
v -9.08254352 -4.01382166 -3.63569286
g roof
f 1 2 3 4 5 6 7 8 9 10 11 12
g roof
f 13 14 15 16 17 18 1 12 19 20 21
g roof
f 12 11 22 23 24 25 26 27 28 29 30 31 32 33 34 35 19
g wall
f 2 1 36 37
g wall
f 3 2 37 38
g wall
f 4 3 38 39
g wall
f 5 4 39 40
g wall
f 6 5 40 41
g wall
f 7 6 41 42
g wall
f 8 7 42 43
g wall
f 9 8 43 44
g wall
f 10 9 44 45
g wall
f 11 10 45 46
g wall
f 14 13 64 65
g wall
f 15 14 65 66
g wall
f 16 15 66 67
g wall
f 17 16 67 68
g wall
f 18 17 68 69
g wall
f 1 18 69 36
g wall
f 20 19 61 62
g wall
f 21 20 62 63
g wall
f 13 21 63 64
g wall
f 22 11 46 47
g wall
f 23 22 47 48
g wall
f 24 23 48 49
g wall
f 25 24 49 50
g wall
f 26 25 50 51
g wall
f 27 26 51 52
g wall
f 28 27 52 53
g wall
f 29 28 53 54
g wall
f 30 29 54 55
g wall
f 31 30 55 56
g wall
f 32 31 56 57
g wall
f 33 32 57 58
g wall
f 34 33 58 59
g wall
f 35 34 59 60
g wall
f 19 35 60 61
g ground_assumed
f 69 68 67 66 65 64 63 62 61 60 59 58 57 56 55 54 53 52 51 50 49 48 47 46 45 44 43 42 41 40 39 38 37 36
