v -1.54281376 -5.80300852 3.03303626
v 5.95450971 -3.29730152 0.4682012
v 7.97224142 -2.50757142 -0.23403944
v 8.06790475 -2.28048638 -0.28701577
v 5.18607644 6.24678179 -0.2861087
v 4.83419125 6.26983176 -0.18032666
v 0.26028543 4.7865845 1.37969364
v -1.56199595 4.76272268 1.94236423
v -4.72023683 3.71806318 3.02167086
v -5.30965097 -6.01803193 1.80922079
v -4.94186774 -6.76824872 1.84755885
v -4.66275898 -6.84573646 1.9284088
v -8.01978912 2.62666174 1.85464759
v -7.92828322 1.86617374 1.80380404
v -1.54281376 -5.80300852 -2.9564858
v 5.95450971 -3.29730152 -2.9564858
v 7.97224142 -2.50757142 -2.9564858
v 8.06790475 -2.28048638 -2.9564858
v 5.18607644 6.24678179 -2.9564858
v 4.83419125 6.26983176 -2.9564858
v 0.26028543 4.7865845 -2.9564858
v -1.56199595 4.76272268 -2.9564858
v -4.72023683 3.71806318 -2.9564858
v -8.01978912 2.62666174 -2.9564858
v -7.92828322 1.86617374 -2.9564858
v -5.30965097 -6.01803193 -2.9564858
v -4.94186774 -6.76824872 -2.9564858
v -4.66275898 -6.84573646 -2.9564858
l 1 2
l 2 3
l 3 4
l 4 5
l 5 6
l 6 7
l 7 8
l 8 9
l 1 9
l 10 11
l 11 12
l 1 12
l 9 13
l 13 14
l 10 14
l 15 16
l 16 17
l 3 17
l 17 18
l 4 18
l 18 19
l 5 19
l 19 20
l 6 20
l 20 21
l 7 21
l 21 22
l 8 22
l 22 23
l 26 27
l 11 27
l 27 28
l 12 28
l 15 28
l 23 24
l 13 24
l 24 25
l 14 25
l 25 26
