# XYZ-only planar convex-roof baseline. Provisional base; no GT.
v -1.54281376 -5.80300852 3.03303626
v 5.95450971 -3.29730152 0.46820120
v 7.97224142 -2.50757142 -0.23403944
v 8.06790475 -2.28048638 -0.28701577
v 5.18607644 6.24678179 -0.28610870
v 4.83419125 6.26983176 -0.18032666
v 0.26028543 4.78658450 1.37969364
v -1.56199595 4.76272268 1.94236423
v -4.72023683 3.71806318 3.02167086
v -5.30965097 -6.01803193 1.80922079
v -4.94186774 -6.76824872 1.84755885
v -4.66275898 -6.84573646 1.92840880
v -8.01978912 2.62666174 1.85464759
v -7.92828322 1.86617374 1.80380404
v -1.54281376 -5.80300852 -2.95648580
v 5.95450971 -3.29730152 -2.95648580
v 7.97224142 -2.50757142 -2.95648580
v 8.06790475 -2.28048638 -2.95648580
v 5.18607644 6.24678179 -2.95648580
v 4.83419125 6.26983176 -2.95648580
v 0.26028543 4.78658450 -2.95648580
v -1.56199595 4.76272268 -2.95648580
v -4.72023683 3.71806318 -2.95648580
v -8.01978912 2.62666174 -2.95648580
v -7.92828322 1.86617374 -2.95648580
v -5.30965097 -6.01803193 -2.95648580
v -4.94186774 -6.76824872 -2.95648580
v -4.66275898 -6.84573646 -2.95648580
g roof
f 1 2 3 4 5 6 7 8 9
g roof
f 10 11 12 1 9 13 14
g wall
f 2 1 15 16
g wall
f 3 2 16 17
g wall
f 4 3 17 18
g wall
f 5 4 18 19
g wall
f 6 5 19 20
g wall
f 7 6 20 21
g wall
f 8 7 21 22
g wall
f 9 8 22 23
g wall
f 11 10 26 27
g wall
f 12 11 27 28
g wall
f 1 12 28 15
g wall
f 13 9 23 24
g wall
f 14 13 24 25
g wall
f 10 14 25 26
g ground_assumed
f 28 27 26 25 24 23 22 21 20 19 18 17 16 15
