v -31.11879467 17.98575953 27.22897065
v -33.10909962 15.0649279 27.22922769
v -35.79423599 10.84029616 27.22960077
v -36.29605889 9.97659249 27.22967736
v -36.25781088 9.89769312 27.22968493
v -28.96402126 5.00876647 27.23018696
v -12.93699217 -5.36945916 27.23125634
v -3.83011295 -11.49028786 27.2318847
v 17.99231799 -25.75640284 27.23335328
v 23.28827645 -29.14123015 27.23370253
v 23.70697414 -29.23882408 27.23371439
v 27.6217394 -23.4721587 27.23320682
v 33.15651182 -14.98228344 27.23245801
v 36.3184525 -9.89191811 27.23200798
v 35.6677519 -9.27853169 27.23194678
v 33.89475082 -8.10721445 27.23182633
v 2.29015289 12.53355131 27.22970131
v -0.92346141 14.61294503 27.22948703
v -6.92438384 18.19129804 27.22911511
v -13.81658982 22.76229213 27.22864523
v -18.09743924 25.44101116 27.22836824
v -23.66476997 29.32154855 27.22797126
v -23.73778297 29.33911991 27.22796914
v -28.72274532 21.79466638 27.22863411
v -31.11879467 17.98575953 -36.8546872
v -33.10909962 15.0649279 -36.8546872
v -35.79423599 10.84029616 -36.8546872
v -36.29605889 9.97659249 -36.8546872
v -36.25781088 9.89769312 -36.8546872
v -28.96402126 5.00876647 -36.8546872
v -12.93699217 -5.36945916 -36.8546872
v -3.83011295 -11.49028786 -36.8546872
v 17.99231799 -25.75640284 -36.8546872
v 23.28827645 -29.14123015 -36.8546872
v 23.70697414 -29.23882408 -36.8546872
v 27.6217394 -23.4721587 -36.8546872
v 33.15651182 -14.98228344 -36.8546872
v 36.3184525 -9.89191811 -36.8546872
v 35.6677519 -9.27853169 -36.8546872
v 33.89475082 -8.10721445 -36.8546872
v 2.29015289 12.53355131 -36.8546872
v -0.92346141 14.61294503 -36.8546872
v -6.92438384 18.19129804 -36.8546872
v -13.81658982 22.76229213 -36.8546872
v -18.09743924 25.44101116 -36.8546872
v -23.66476997 29.32154855 -36.8546872
v -23.73778297 29.33911991 -36.8546872
v -28.72274532 21.79466638 -36.8546872
l 1 2
l 2 3
l 3 4
l 4 5
l 5 6
l 6 7
l 7 8
l 8 9
l 9 10
l 10 11
l 11 12
l 12 13
l 13 14
l 14 15
l 15 16
l 16 17
l 17 18
l 18 19
l 19 20
l 20 21
l 21 22
l 22 23
l 23 24
l 1 24
l 25 26
l 26 27
l 27 28
l 4 28
l 28 29
l 5 29
l 29 30
l 30 31
l 31 32
l 32 33
l 33 34
l 10 34
l 34 35
l 11 35
l 35 36
l 36 37
l 37 38
l 14 38
l 38 39
l 39 40
l 40 41
l 41 42
l 42 43
l 43 44
l 44 45
l 45 46
l 22 46
l 46 47
l 23 47
l 47 48
l 25 48
