v -16.45172543 -5.89853517 26.29063274
v -34.18723553 -33.89821557 26.29418866
v -34.34380701 -34.44328013 26.29423012
v -30.66733888 -36.99247326 26.29377536
v -21.45985951 -42.67582664 26.29261273
v -17.28902972 -45.04832205 26.29207925
v -16.31984688 -45.44166754 26.29194995
v -14.84888693 -43.39971743 26.2916645
v -9.90285288 -35.73961022 26.29067785
v 0.94699773 -18.58621187 26.28850166
v 6.4116216 -9.69562743 26.28739712
v 34.09237683 33.7785293 26.28185486
v 34.41955199 34.58782225 26.28177937
v 34.40008983 34.67463604 26.28177929
v 33.78171022 35.10080685 26.28185587
v 31.4983986 36.58058892 26.28214181
v 17.24686902 45.58249189 26.28393442
v 16.46010342 45.67976028 26.28404689
v -0.68820342 18.52268285 26.28748793
v -16.45172543 -5.89853517 -26.110876
v -34.18723553 -33.89821557 -26.110876
v -34.34380701 -34.44328013 -26.110876
v -30.66733888 -36.99247326 -26.110876
v -21.45985951 -42.67582664 -26.110876
v -17.28902972 -45.04832205 -26.110876
v -16.31984688 -45.44166754 -26.110876
v -14.84888693 -43.39971743 -26.110876
v -9.90285288 -35.73961022 -26.110876
v 0.94699773 -18.58621187 -26.110876
v 6.4116216 -9.69562743 -26.110876
v 34.09237683 33.7785293 -26.110876
v 34.41955199 34.58782225 -26.110876
v 34.40008983 34.67463604 -26.110876
v 33.78171022 35.10080685 -26.110876
v 31.4983986 36.58058892 -26.110876
v 17.24686902 45.58249189 -26.110876
v 16.46010342 45.67976028 -26.110876
v -0.68820342 18.52268285 -26.110876
l 1 2
l 2 3
l 3 4
l 4 5
l 5 6
l 6 7
l 7 8
l 8 9
l 9 10
l 10 11
l 11 12
l 12 13
l 13 14
l 14 15
l 15 16
l 16 17
l 17 18
l 18 19
l 1 19
l 20 21
l 2 21
l 21 22
l 3 22
l 22 23
l 23 24
l 24 25
l 25 26
l 7 26
l 26 27
l 27 28
l 28 29
l 29 30
l 30 31
l 12 31
l 31 32
l 13 32
l 32 33
l 14 33
l 33 34
l 34 35
l 35 36
l 17 36
l 36 37
l 18 37
l 37 38
l 20 38
