# XYZ-only planar convex-roof baseline. Provisional base; no GT.
v -16.45172543 -5.89853517 26.29063274
v -34.18723553 -33.89821557 26.29418866
v -34.34380701 -34.44328013 26.29423012
v -30.66733888 -36.99247326 26.29377536
v -21.45985951 -42.67582664 26.29261273
v -17.28902972 -45.04832205 26.29207925
v -16.31984688 -45.44166754 26.29194995
v -14.84888693 -43.39971743 26.29166450
v -9.90285288 -35.73961022 26.29067785
v 0.94699773 -18.58621187 26.28850166
v 6.41162160 -9.69562743 26.28739712
v 34.09237683 33.77852930 26.28185486
v 34.41955199 34.58782225 26.28177937
v 34.40008983 34.67463604 26.28177929
v 33.78171022 35.10080685 26.28185587
v 31.49839860 36.58058892 26.28214181
v 17.24686902 45.58249189 26.28393442
v 16.46010342 45.67976028 26.28404689
v -0.68820342 18.52268285 26.28748793
v -16.45172543 -5.89853517 -26.11087600
v -34.18723553 -33.89821557 -26.11087600
v -34.34380701 -34.44328013 -26.11087600
v -30.66733888 -36.99247326 -26.11087600
v -21.45985951 -42.67582664 -26.11087600
v -17.28902972 -45.04832205 -26.11087600
v -16.31984688 -45.44166754 -26.11087600
v -14.84888693 -43.39971743 -26.11087600
v -9.90285288 -35.73961022 -26.11087600
v 0.94699773 -18.58621187 -26.11087600
v 6.41162160 -9.69562743 -26.11087600
v 34.09237683 33.77852930 -26.11087600
v 34.41955199 34.58782225 -26.11087600
v 34.40008983 34.67463604 -26.11087600
v 33.78171022 35.10080685 -26.11087600
v 31.49839860 36.58058892 -26.11087600
v 17.24686902 45.58249189 -26.11087600
v 16.46010342 45.67976028 -26.11087600
v -0.68820342 18.52268285 -26.11087600
g roof
f 1 2 3 4 5 6 7 8 9 10 11 12 13 14 15 16 17 18 19
g wall
f 2 1 20 21
g wall
f 3 2 21 22
g wall
f 4 3 22 23
g wall
f 5 4 23 24
g wall
f 6 5 24 25
g wall
f 7 6 25 26
g wall
f 8 7 26 27
g wall
f 9 8 27 28
g wall
f 10 9 28 29
g wall
f 11 10 29 30
g wall
f 12 11 30 31
g wall
f 13 12 31 32
g wall
f 14 13 32 33
g wall
f 15 14 33 34
g wall
f 16 15 34 35
g wall
f 17 16 35 36
g wall
f 18 17 36 37
g wall
f 19 18 37 38
g wall
f 1 19 38 20
g ground_assumed
f 38 37 36 35 34 33 32 31 30 29 28 27 26 25 24 23 22 21 20
