# XYZ-only planar convex-roof baseline. Provisional base; no GT.
v -5.33308926 2.05752785 2.49161987
v -2.90458063 -3.62348027 2.44721614
v -2.07241121 -5.40072529 2.53183691
v -1.55300888 -5.56302154 3.14260002
v 1.17968199 -4.34946729 7.57406091
v -2.37236967 3.82203359 7.55781194
v -5.14526135 2.62159860 3.07940774
v -5.26902595 2.44170453 2.80509720
v 2.90480040 -3.58336352 7.57243110
v 3.77425276 -3.01691463 7.57124704
v 5.36462207 -2.48044892 7.57008599
v 5.39967366 -2.18391382 7.56948786
v 5.08468457 -1.38725113 7.56790208
v 2.24144226 5.17190266 7.55485884
v 1.83685326 5.64428239 7.55392982
v -5.33308926 2.05752785 -12.13669378
v -2.90458063 -3.62348027 -12.13669378
v -2.07241121 -5.40072529 -12.13669378
v -1.55300888 -5.56302154 -12.13669378
v 1.17968199 -4.34946729 -12.13669378
v 2.90480040 -3.58336352 -12.13669378
v 3.77425276 -3.01691463 -12.13669378
v 5.36462207 -2.48044892 -12.13669378
v 5.39967366 -2.18391382 -12.13669378
v 5.08468457 -1.38725113 -12.13669378
v 2.24144226 5.17190266 -12.13669378
v 1.83685326 5.64428239 -12.13669378
v -2.37236967 3.82203359 -12.13669378
v -5.14526135 2.62159860 -12.13669378
v -5.26902595 2.44170453 -12.13669378
g roof
f 1 2 3 4 5 6 7 8
g roof
f 5 9 10 11 12 13 14 15 6
g wall
f 2 1 16 17
g wall
f 3 2 17 18
g wall
f 4 3 18 19
g wall
f 5 4 19 20
g wall
f 7 6 28 29
g wall
f 8 7 29 30
g wall
f 1 8 30 16
g wall
f 9 5 20 21
g wall
f 10 9 21 22
g wall
f 11 10 22 23
g wall
f 12 11 23 24
g wall
f 13 12 24 25
g wall
f 14 13 25 26
g wall
f 15 14 26 27
g wall
f 6 15 27 28
g ground_assumed
f 30 29 28 27 26 25 24 23 22 21 20 19 18 17 16
