v -2.97193042 -2.91971647 2.31778252
v -2.87677511 -3.02113711 2.30818373
v -2.61301437 -3.10840813 2.27752223
v 1.77951094 -2.37469077 1.7211583
v 2.6919681 -2.2836088 1.6068679
v 3.73665767 -2.05782489 1.47347335
v 3.69706784 -1.30132503 1.46252686
v 3.00221931 2.57780551 1.46697528
v 2.85451995 3.06359363 1.47500651
v 2.2998411 3.07045907 1.5431815
v -0.77778552 2.55617893 1.93300256
v -1.37494499 2.34930151 2.01088036
v -2.47334005 2.3231582 2.14671409
v -3.52337967 2.11738397 2.28034908
v -3.79646814 1.8821772 2.31890429
v -3.06392749 -2.03701771 2.31065138
v -2.97193042 -2.91971647 -2.350269
v -2.87677511 -3.02113711 -2.350269
v -2.61301437 -3.10840813 -2.350269
v 1.77951094 -2.37469077 -2.350269
v 2.6919681 -2.2836088 -2.350269
v 3.73665767 -2.05782489 -2.350269
v 3.69706784 -1.30132503 -2.350269
v 3.00221931 2.57780551 -2.350269
v 2.85451995 3.06359363 -2.350269
v 2.2998411 3.07045907 -2.350269
v -0.77778552 2.55617893 -2.350269
v -1.37494499 2.34930151 -2.350269
v -2.47334005 2.3231582 -2.350269
v -3.52337967 2.11738397 -2.350269
v -3.79646814 1.8821772 -2.350269
v -3.06392749 -2.03701771 -2.350269
l 1 2
l 2 3
l 3 4
l 4 5
l 5 6
l 6 7
l 7 8
l 8 9
l 9 10
l 10 11
l 11 12
l 12 13
l 13 14
l 14 15
l 15 16
l 1 16
l 1 17
l 17 18
l 2 18
l 18 19
l 3 19
l 19 20
l 20 21
l 21 22
l 6 22
l 22 23
l 23 24
l 24 25
l 9 25
l 25 26
l 10 26
l 26 27
l 27 28
l 12 28
l 28 29
l 29 30
l 14 30
l 30 31
l 15 31
l 31 32
l 17 32
