v -3.74778607 -7.27155087 1.4240914
v 1.9928048 -5.11148744 1.39341574
v 8.12778371 -2.61649496 1.41783648
v 8.35759953 -2.45123898 1.44076864
v 8.35946555 -2.43149746 1.44659757
v 1.73371897 0.39617888 3.11376209
v -1.77194874 -1.12631633 3.07012159
v -4.56832218 -7.48340151 1.45819282
v 4.24173679 7.43336902 1.53475942
v -2.13420441 5.06519446 1.34686612
v -2.64502221 4.6977694 1.37991813
v -3.54848433 3.8453506 1.4932151
v -7.9318729 2.07829974 1.4016588
v -8.37149793 1.78158551 1.42482461
v 8.40176448 -1.98399726 1.38152177
v 4.60030765 7.56655067 1.4110724
v -8.37622752 1.77839339 1.42300954
v -4.67453545 -7.51082425 1.42276683
v -3.74778607 -7.27155087 -2.926196
v 1.9928048 -5.11148744 -2.926196
v 8.12778371 -2.61649496 -2.926196
v 8.35759953 -2.45123898 -2.926196
v 8.35946555 -2.43149746 -2.926196
v 8.40176448 -1.98399726 -2.926196
v 4.60030765 7.56655067 -2.926196
v 4.24173679 7.43336902 -2.926196
v -2.13420441 5.06519446 -2.926196
v -2.64502221 4.6977694 -2.926196
v -3.54848433 3.8453506 -2.926196
v -7.9318729 2.07829974 -2.926196
v -8.37149793 1.78158551 -2.926196
v -8.37622752 1.77839339 -2.926196
v -4.67453545 -7.51082425 -2.926196
v -4.56832218 -7.48340151 -2.926196
l 1 2
l 2 3
l 3 4
l 4 5
l 5 6
l 6 7
l 7 8
l 1 8
l 9 10
l 10 11
l 11 12
l 12 13
l 13 14
l 7 14
l 6 9
l 5 15
l 15 16
l 9 16
l 14 17
l 17 18
l 8 18
l 19 20
l 20 21
l 3 21
l 21 22
l 4 22
l 22 23
l 19 34
l 26 27
l 10 27
l 27 28
l 28 29
l 12 29
l 29 30
l 13 30
l 30 31
l 23 24
l 15 24
l 24 25
l 16 25
l 25 26
l 31 32
l 17 32
l 32 33
l 18 33
l 33 34
