v -0.14214321 -6.73251983 4.2476183
v 2.94077673 -8.21110053 2.82004058
v 3.91534161 -8.52028321 2.39732825
v 5.48160046 -5.13752688 2.41851375
v 6.14203669 -3.93359861 2.38727757
v 7.20644152 -1.68635288 2.39235359
v 7.56706151 -0.79395501 2.4177335
v 8.41186343 0.83911695 2.39458084
v 8.56731096 1.37747946 2.4332723
v 5.86972054 2.65952559 3.68030135
v 5.57600022 4.21258065 4.07130723
v 5.19166584 4.49149441 4.26635632
v -4.29855715 7.59938535 0.12189922
v -4.90551737 6.51985929 0.08454743
v -5.49910436 5.13688321 0.10631157
v -5.99318822 4.29692036 0.06899366
v -7.06703996 2.06736648 0.05984701
v -7.05991696 1.97286059 0.07937722
v -6.12978763 1.48091731 0.51894477
v -6.04111526 0.00016909 0.81627292
v -6.20793272 -0.49718766 0.84175204
v -7.31563505 -2.71836113 0.81830445
v -7.29779923 -2.85719913 0.84978529
v -6.98446992 -3.36280654 1.05840774
v -6.53309677 -3.66739299 1.28345255
v 5.09940237 4.55845057 4.21951909
v -1.1415722 7.3920199 1.35335016
v -3.71373402 8.64395943 0.15710125
v -4.00354227 8.38481999 0.09360874
v -0.14214321 -6.73251983 -4.16401406
v 2.94077673 -8.21110053 -4.16401406
v 3.91534161 -8.52028321 -4.16401406
v 5.48160046 -5.13752688 -4.16401406
v 6.14203669 -3.93359861 -4.16401406
v 7.20644152 -1.68635288 -4.16401406
v 7.56706151 -0.79395501 -4.16401406
v 8.41186343 0.83911695 -4.16401406
v 8.56731096 1.37747946 -4.16401406
v 5.86972054 2.65952559 -4.16401406
v 5.57600022 4.21258065 -4.16401406
v 5.19166584 4.49149441 -4.16401406
v 5.09940237 4.55845057 -4.16401406
v -1.1415722 7.3920199 -4.16401406
v -3.71373402 8.64395943 -4.16401406
v -4.00354227 8.38481999 -4.16401406
v -4.29855715 7.59938535 -4.16401406
v -4.90551737 6.51985929 -4.16401406
v -5.49910436 5.13688321 -4.16401406
v -5.99318822 4.29692036 -4.16401406
v -7.06703996 2.06736648 -4.16401406
v -7.05991696 1.97286059 -4.16401406
v -6.12978763 1.48091731 -4.16401406
v -6.04111526 0.00016909 -4.16401406
v -6.20793272 -0.49718766 -4.16401406
v -7.31563505 -2.71836113 -4.16401406
v -7.29779923 -2.85719913 -4.16401406
v -6.98446992 -3.36280654 -4.16401406
v -6.53309677 -3.66739299 -4.16401406
l 1 2
l 2 3
l 3 4
l 4 5
l 5 6
l 6 7
l 7 8
l 8 9
l 9 10
l 10 11
l 11 12
l 1 12
l 13 14
l 14 15
l 15 16
l 16 17
l 17 18
l 18 19
l 19 20
l 20 21
l 21 22
l 22 23
l 23 24
l 24 25
l 1 25
l 12 26
l 26 27
l 27 28
l 28 29
l 13 29
l 30 31
l 31 32
l 3 32
l 32 33
l 33 34
l 34 35
l 35 36
l 36 37
l 8 37
l 37 38
l 9 38
l 38 39
l 10 39
l 39 40
l 11 40
l 40 41
l 46 47
l 47 48
l 48 49
l 49 50
l 17 50
l 50 51
l 18 51
l 51 52
l 19 52
l 52 53
l 20 53
l 53 54
l 54 55
l 22 55
l 55 56
l 23 56
l 56 57
l 24 57
l 57 58
l 30 58
l 41 42
l 26 42
l 42 43
l 43 44
l 28 44
l 44 45
l 29 45
l 45 46
