v -3.60938948 1.51761437 1.50256246
v -2.49643949 0.59654825 1.50137574
v -1.3468796 -0.11659641 1.50180719
v -1.10450019 -0.49425817 1.50031694
v 0.05767978 -1.20420543 1.50082983
v 0.30495631 -1.57913439 1.49938156
v 1.46069083 -2.29192701 1.49984442
v 1.70867372 -2.66688858 1.49839924
v 2.29024576 -3.02307366 1.49864952
v 2.59182507 -3.00614649 1.50018196
v 3.59699999 -1.78338266 1.51340344
v 3.11426564 -1.40528612 1.51376923
v 2.48135373 -0.68549611 1.51580757
v 2.13615216 -0.52616285 1.51529667
v 1.5184866 0.18655262 1.51735732
v 0.78122166 0.52696175 1.51626695
v 0.15346982 1.24444661 1.51831346
v -0.19921691 1.40723998 1.51779151
v -0.93698375 1.99378096 1.51841103
v -1.1972456 2.29564946 1.51929013
v -1.87143871 2.60695629 1.51829318
v -2.42046073 3.28828778 1.5204575
v -3.56433175 1.70306065 1.50406389
v -3.60938948 1.51761437 -1.28081992
v -2.49643949 0.59654825 -1.28081992
v -1.3468796 -0.11659641 -1.28081992
v -1.10450019 -0.49425817 -1.28081992
v 0.05767978 -1.20420543 -1.28081992
v 0.30495631 -1.57913439 -1.28081992
v 1.46069083 -2.29192701 -1.28081992
v 1.70867372 -2.66688858 -1.28081992
v 2.29024576 -3.02307366 -1.28081992
v 2.59182507 -3.00614649 -1.28081992
v 3.59699999 -1.78338266 -1.28081992
v 3.11426564 -1.40528612 -1.28081992
v 2.48135373 -0.68549611 -1.28081992
v 2.13615216 -0.52616285 -1.28081992
v 1.5184866 0.18655262 -1.28081992
v 0.78122166 0.52696175 -1.28081992
v 0.15346982 1.24444661 -1.28081992
v -0.19921691 1.40723998 -1.28081992
v -0.93698375 1.99378096 -1.28081992
v -1.1972456 2.29564946 -1.28081992
v -1.87143871 2.60695629 -1.28081992
v -2.42046073 3.28828778 -1.28081992
v -3.56433175 1.70306065 -1.28081992
l 1 2
l 2 3
l 3 4
l 4 5
l 5 6
l 6 7
l 7 8
l 8 9
l 9 10
l 10 11
l 11 12
l 12 13
l 13 14
l 14 15
l 15 16
l 16 17
l 17 18
l 18 19
l 19 20
l 20 21
l 21 22
l 22 23
l 1 23
l 1 24
l 24 25
l 25 26
l 3 26
l 26 27
l 4 27
l 27 28
l 5 28
l 28 29
l 6 29
l 29 30
l 7 30
l 30 31
l 8 31
l 31 32
l 9 32
l 32 33
l 10 33
l 33 34
l 11 34
l 34 35
l 12 35
l 35 36
l 13 36
l 36 37
l 14 37
l 37 38
l 15 38
l 38 39
l 16 39
l 39 40
l 17 40
l 40 41
l 18 41
l 41 42
l 19 42
l 42 43
l 20 43
l 43 44
l 21 44
l 44 45
l 22 45
l 45 46
l 23 46
l 24 46
