# XYZ-only planar convex-roof baseline. Provisional base; no GT.
v -3.60938948 1.51761437 1.50256246
v -2.49643949 0.59654825 1.50137574
v -1.34687960 -0.11659641 1.50180719
v -1.10450019 -0.49425817 1.50031694
v 0.05767978 -1.20420543 1.50082983
v 0.30495631 -1.57913439 1.49938156
v 1.46069083 -2.29192701 1.49984442
v 1.70867372 -2.66688858 1.49839924
v 2.29024576 -3.02307366 1.49864952
v 2.59182507 -3.00614649 1.50018196
v 3.59699999 -1.78338266 1.51340344
v 3.11426564 -1.40528612 1.51376923
v 2.48135373 -0.68549611 1.51580757
v 2.13615216 -0.52616285 1.51529667
v 1.51848660 0.18655262 1.51735732
v 0.78122166 0.52696175 1.51626695
v 0.15346982 1.24444661 1.51831346
v -0.19921691 1.40723998 1.51779151
v -0.93698375 1.99378096 1.51841103
v -1.19724560 2.29564946 1.51929013
v -1.87143871 2.60695629 1.51829318
v -2.42046073 3.28828778 1.52045750
v -3.56433175 1.70306065 1.50406389
v -3.60938948 1.51761437 -1.28081992
v -2.49643949 0.59654825 -1.28081992
v -1.34687960 -0.11659641 -1.28081992
v -1.10450019 -0.49425817 -1.28081992
v 0.05767978 -1.20420543 -1.28081992
v 0.30495631 -1.57913439 -1.28081992
v 1.46069083 -2.29192701 -1.28081992
v 1.70867372 -2.66688858 -1.28081992
v 2.29024576 -3.02307366 -1.28081992
v 2.59182507 -3.00614649 -1.28081992
v 3.59699999 -1.78338266 -1.28081992
v 3.11426564 -1.40528612 -1.28081992
v 2.48135373 -0.68549611 -1.28081992
v 2.13615216 -0.52616285 -1.28081992
v 1.51848660 0.18655262 -1.28081992
v 0.78122166 0.52696175 -1.28081992
v 0.15346982 1.24444661 -1.28081992
v -0.19921691 1.40723998 -1.28081992
v -0.93698375 1.99378096 -1.28081992
v -1.19724560 2.29564946 -1.28081992
v -1.87143871 2.60695629 -1.28081992
v -2.42046073 3.28828778 -1.28081992
v -3.56433175 1.70306065 -1.28081992
g roof
f 1 2 3 4 5 6 7 8 9 10 11 12 13 14 15 16 17 18 19 20 21 22 23
g wall
f 2 1 24 25
g wall
f 3 2 25 26
g wall
f 4 3 26 27
g wall
f 5 4 27 28
g wall
f 6 5 28 29
g wall
f 7 6 29 30
g wall
f 8 7 30 31
g wall
f 9 8 31 32
g wall
f 10 9 32 33
g wall
f 11 10 33 34
g wall
f 12 11 34 35
g wall
f 13 12 35 36
g wall
f 14 13 36 37
g wall
f 15 14 37 38
g wall
f 16 15 38 39
g wall
f 17 16 39 40
g wall
f 18 17 40 41
g wall
f 19 18 41 42
g wall
f 20 19 42 43
g wall
f 21 20 43 44
g wall
f 22 21 44 45
g wall
f 23 22 45 46
g wall
f 1 23 46 24
g ground_assumed
f 46 45 44 43 42 41 40 39 38 37 36 35 34 33 32 31 30 29 28 27 26 25 24
