# XYZ-only planar convex-roof baseline. Provisional base; no GT.
v -14.44073143 -11.83291230 3.83297864
v -9.84574134 -15.60540638 1.68127566
v -6.23549366 -18.33759527 0.04381716
v -5.95902622 -18.16709135 0.00542814
v -5.61838891 -17.80866901 -0.00788231
v 5.81147776 -3.87571565 -0.01772367
v 6.64253225 -2.77601693 0.00141366
v 16.38198680 8.83795049 -0.06617342
v 16.80799068 9.60534236 -0.00969587
v 15.89018434 10.48000514 0.44784320
v 12.11024546 13.68768839 2.24178934
v 8.64120555 16.40313732 3.83585142
v -15.52425701 -7.71512843 0.47607264
v -16.74093330 -9.54737927 0.68799597
v -16.72133315 -9.80135611 0.85940806
v -15.31324859 -11.11657434 2.73289945
v 6.09410936 18.39691941 0.68450220
v 5.99433230 18.38811318 0.61464986
v 4.62012753 16.94467231 0.46794302
v -14.44073143 -11.83291230 -3.42583900
v -9.84574134 -15.60540638 -3.42583900
v -6.23549366 -18.33759527 -3.42583900
v -5.95902622 -18.16709135 -3.42583900
v -5.61838891 -17.80866901 -3.42583900
v 5.81147776 -3.87571565 -3.42583900
v 6.64253225 -2.77601693 -3.42583900
v 16.38198680 8.83795049 -3.42583900
v 16.80799068 9.60534236 -3.42583900
v 15.89018434 10.48000514 -3.42583900
v 12.11024546 13.68768839 -3.42583900
v 8.64120555 16.40313732 -3.42583900
v 6.09410936 18.39691941 -3.42583900
v 5.99433230 18.38811318 -3.42583900
v 4.62012753 16.94467231 -3.42583900
v -15.52425701 -7.71512843 -3.42583900
v -16.74093330 -9.54737927 -3.42583900
v -16.72133315 -9.80135611 -3.42583900
v -15.31324859 -11.11657434 -3.42583900
g roof
f 1 2 3 4 5 6 7 8 9 10 11 12
g roof
f 13 14 15 16 1 12 17 18 19
g wall
f 2 1 20 21
g wall
f 3 2 21 22
g wall
f 4 3 22 23
g wall
f 5 4 23 24
g wall
f 6 5 24 25
g wall
f 7 6 25 26
g wall
f 8 7 26 27
g wall
f 9 8 27 28
g wall
f 10 9 28 29
g wall
f 11 10 29 30
g wall
f 12 11 30 31
g wall
f 14 13 35 36
g wall
f 15 14 36 37
g wall
f 16 15 37 38
g wall
f 1 16 38 20
g wall
f 17 12 31 32
g wall
f 18 17 32 33
g wall
f 19 18 33 34
g wall
f 13 19 34 35
g ground_assumed
f 38 37 36 35 34 33 32 31 30 29 28 27 26 25 24 23 22 21 20
