v -14.44073143 -11.8329123 3.83297864
v -9.84574134 -15.60540638 1.68127566
v -6.23549366 -18.33759527 0.04381716
v -5.95902622 -18.16709135 0.00542814
v -5.61838891 -17.80866901 -0.00788231
v 5.81147776 -3.87571565 -0.01772367
v 6.64253225 -2.77601693 0.00141366
v 16.3819868 8.83795049 -0.06617342
v 16.80799068 9.60534236 -0.00969587
v 15.89018434 10.48000514 0.4478432
v 12.11024546 13.68768839 2.24178934
v 8.64120555 16.40313732 3.83585142
v -15.52425701 -7.71512843 0.47607264
v -16.7409333 -9.54737927 0.68799597
v -16.72133315 -9.80135611 0.85940806
v -15.31324859 -11.11657434 2.73289945
v 6.09410936 18.39691941 0.6845022
v 5.9943323 18.38811318 0.61464986
v 4.62012753 16.94467231 0.46794302
v -14.44073143 -11.8329123 -3.425839
v -9.84574134 -15.60540638 -3.425839
v -6.23549366 -18.33759527 -3.425839
v -5.95902622 -18.16709135 -3.425839
v -5.61838891 -17.80866901 -3.425839
v 5.81147776 -3.87571565 -3.425839
v 6.64253225 -2.77601693 -3.425839
v 16.3819868 8.83795049 -3.425839
v 16.80799068 9.60534236 -3.425839
v 15.89018434 10.48000514 -3.425839
v 12.11024546 13.68768839 -3.425839
v 8.64120555 16.40313732 -3.425839
v 6.09410936 18.39691941 -3.425839
v 5.9943323 18.38811318 -3.425839
v 4.62012753 16.94467231 -3.425839
v -15.52425701 -7.71512843 -3.425839
v -16.7409333 -9.54737927 -3.425839
v -16.72133315 -9.80135611 -3.425839
v -15.31324859 -11.11657434 -3.425839
l 1 2
l 2 3
l 3 4
l 4 5
l 5 6
l 6 7
l 7 8
l 8 9
l 9 10
l 10 11
l 11 12
l 1 12
l 13 14
l 14 15
l 15 16
l 1 16
l 12 17
l 17 18
l 18 19
l 13 19
l 20 21
l 21 22
l 3 22
l 22 23
l 4 23
l 23 24
l 24 25
l 25 26
l 26 27
l 8 27
l 27 28
l 9 28
l 28 29
l 29 30
l 30 31
l 35 36
l 14 36
l 36 37
l 15 37
l 37 38
l 20 38
l 31 32
l 17 32
l 32 33
l 18 33
l 33 34
l 34 35
