# XYZ-only planar convex-roof baseline. Provisional base; no GT.
v -9.04490000 10.90420000 -1.59914710
v -11.25420000 3.35160000 -1.58006664
v -12.23430000 0.30610000 -1.59614608
v -14.19180000 -6.56380000 -1.56490988
v -13.74910000 -7.07270000 -1.40600565
v -11.56970000 -7.92760000 -0.75652716
v -3.17844299 -10.39750652 1.67801586
v 5.09209914 -3.81856795 3.35226250
v 6.38125715 0.44603261 3.35259123
v 3.22565153 10.28970849 1.71970985
v -0.72380000 11.58670000 0.56303860
v -7.67970000 13.60440000 -1.45267498
v -8.40890000 12.79890000 -1.58214960
v 8.07844851 -13.55222486 1.75270085
v 8.13330000 -13.56310000 1.73702166
v 9.37610000 -9.67120000 1.71944072
v 10.09280000 -7.04990000 1.74005684
v 14.18020000 6.47030000 1.74100706
v 13.99003865 6.56571769 1.80007367
v 10.76650000 8.18320000 1.68364721
v 4.88190000 9.74580000 1.72672793
v 6.42700000 -13.22480000 1.71710063
v -9.04490000 10.90420000 -3.31015360
v -11.25420000 3.35160000 -3.31015360
v -12.23430000 0.30610000 -3.31015360
v -14.19180000 -6.56380000 -3.31015360
v -13.74910000 -7.07270000 -3.31015360
v -11.56970000 -7.92760000 -3.31015360
v -3.17844299 -10.39750652 -3.31015360
v 6.42700000 -13.22480000 -3.31015360
v 8.07844851 -13.55222486 -3.31015360
v 8.13330000 -13.56310000 -3.31015360
v 9.37610000 -9.67120000 -3.31015360
v 10.09280000 -7.04990000 -3.31015360
v 14.18020000 6.47030000 -3.31015360
v 13.99003865 6.56571769 -3.31015360
v 10.76650000 8.18320000 -3.31015360
v 4.88190000 9.74580000 -3.31015360
v 3.22565153 10.28970849 -3.31015360
v -0.72380000 11.58670000 -3.31015360
v -7.67970000 13.60440000 -3.31015360
v -8.40890000 12.79890000 -3.31015360
g roof
f 1 2 3 4 5 6 7 8 9 10 11 12 13
g roof
f 14 15 16 17 18 19 9 8
g roof
f 19 20 21 10 9
g roof
f 7 22 14 8
g wall
f 2 1 23 24
g wall
f 3 2 24 25
g wall
f 4 3 25 26
g wall
f 5 4 26 27
g wall
f 6 5 27 28
g wall
f 7 6 28 29
g wall
f 11 10 39 40
g wall
f 12 11 40 41
g wall
f 13 12 41 42
g wall
f 1 13 42 23
g wall
f 15 14 31 32
g wall
f 16 15 32 33
g wall
f 17 16 33 34
g wall
f 18 17 34 35
g wall
f 19 18 35 36
g wall
f 20 19 36 37
g wall
f 21 20 37 38
g wall
f 10 21 38 39
g wall
f 22 7 29 30
g wall
f 14 22 30 31
g ground_assumed
f 42 41 40 39 38 37 36 35 34 33 32 31 30 29 28 27 26 25 24 23
