v -9.0449 10.9042 -1.5991471
v -11.2542 3.3516 -1.58006664
v -12.2343 0.3061 -1.59614608
v -14.1918 -6.5638 -1.56490988
v -13.7491 -7.0727 -1.40600565
v -11.5697 -7.9276 -0.75652716
v -3.17844299 -10.39750652 1.67801586
v 5.09209914 -3.81856795 3.3522625
v 6.38125715 0.44603261 3.35259123
v 3.22565153 10.28970849 1.71970985
v -0.7238 11.5867 0.5630386
v -7.6797 13.6044 -1.45267498
v -8.4089 12.7989 -1.5821496
v 8.07844851 -13.55222486 1.75270085
v 8.1333 -13.5631 1.73702166
v 9.3761 -9.6712 1.71944072
v 10.0928 -7.0499 1.74005684
v 14.1802 6.4703 1.74100706
v 13.99003865 6.56571769 1.80007367
v 10.7665 8.1832 1.68364721
v 4.8819 9.7458 1.72672793
v 6.427 -13.2248 1.71710063
v -9.0449 10.9042 -3.3101536
v -11.2542 3.3516 -3.3101536
v -12.2343 0.3061 -3.3101536
v -14.1918 -6.5638 -3.3101536
v -13.7491 -7.0727 -3.3101536
v -11.5697 -7.9276 -3.3101536
v -3.17844299 -10.39750652 -3.3101536
v 6.427 -13.2248 -3.3101536
v 8.07844851 -13.55222486 -3.3101536
v 8.1333 -13.5631 -3.3101536
v 9.3761 -9.6712 -3.3101536
v 10.0928 -7.0499 -3.3101536
v 14.1802 6.4703 -3.3101536
v 13.99003865 6.56571769 -3.3101536
v 10.7665 8.1832 -3.3101536
v 4.8819 9.7458 -3.3101536
v 3.22565153 10.28970849 -3.3101536
v -0.7238 11.5867 -3.3101536
v -7.6797 13.6044 -3.3101536
v -8.4089 12.7989 -3.3101536
l 1 2
l 2 3
l 3 4
l 4 5
l 5 6
l 6 7
l 7 8
l 8 9
l 9 10
l 10 11
l 11 12
l 12 13
l 1 13
l 14 15
l 15 16
l 16 17
l 17 18
l 18 19
l 9 19
l 8 14
l 19 20
l 20 21
l 10 21
l 7 22
l 14 22
l 23 24
l 24 25
l 25 26
l 4 26
l 26 27
l 5 27
l 27 28
l 28 29
l 39 40
l 40 41
l 12 41
l 41 42
l 13 42
l 23 42
l 31 32
l 15 32
l 32 33
l 33 34
l 34 35
l 18 35
l 35 36
l 36 37
l 20 37
l 37 38
l 38 39
l 29 30
l 30 31
