# Source coordinates; no display transform
v 2684566 1248817.75 610.962141284
v 2684568.5 1248821 610.98380918
v 2684571 1248824.25 611.005477075
v 2684572.5 1248826.25 611.018755594
v 2684573.75 1248828.125 611.03097847
v 2684573.75 1248828.5 611.033061869
v 2684573.5 1248828.875 611.034784075
v 2684572.25 1248829.75 611.037839406
v 2684571.5 1248830.25 611.039533717
v 2684570.25 1248831 611.041894585
v 2684569.75 1248830.875 611.040477755
v 2684565.5 1248828.25 611.019753898
v 2684563.5 1248826.5 611.007141942
v 2684563 1248825.75 611.002252786
v 2684561.5 1248821.75 610.977862844
v 2684561.5 1248820.5 610.970918197
v 2684563.25 1248819 610.965112912
v 2684565.25 1248817.375 610.958974341
v 2684565.5 1248817.25 610.958641063
v 2684566 1248817.75 606.717758421
v 2684568.5 1248821 606.717758421
v 2684571 1248824.25 606.717758421
v 2684572.5 1248826.25 606.717758421
v 2684573.75 1248828.125 606.717758421
v 2684573.75 1248828.5 606.717758421
v 2684573.5 1248828.875 606.717758421
v 2684572.25 1248829.75 606.717758421
v 2684571.5 1248830.25 606.717758421
v 2684570.25 1248831 606.717758421
v 2684569.75 1248830.875 606.717758421
v 2684565.5 1248828.25 606.717758421
v 2684563.5 1248826.5 606.717758421
v 2684563 1248825.75 606.717758421
v 2684561.5 1248821.75 606.717758421
v 2684561.5 1248820.5 606.717758421
v 2684563.25 1248819 606.717758421
v 2684565.25 1248817.375 606.717758421
v 2684565.5 1248817.25 606.717758421
g roof
f 1 2 3 4 5 6 7 8 9 10 11 12 13 14 15 16 17 18 19
g wall
f 2 1 20 21
g wall
f 3 2 21 22
g wall
f 4 3 22 23
g wall
f 5 4 23 24
g wall
f 6 5 24 25
g wall
f 7 6 25 26
g wall
f 8 7 26 27
g wall
f 9 8 27 28
g wall
f 10 9 28 29
g wall
f 11 10 29 30
g wall
f 12 11 30 31
g wall
f 13 12 31 32
g wall
f 14 13 32 33
g wall
f 15 14 33 34
g wall
f 16 15 34 35
g wall
f 17 16 35 36
g wall
f 18 17 36 37
g wall
f 19 18 37 38
g wall
f 1 19 38 20
g ground_assumed
f 38 37 36 35 34 33 32 31 30 29 28 27 26 25 24 23 22 21 20
