# Source coordinates; no display transform
v 0.47425361228 0.3603042212 0.518602102906
v -0.496938803629 0.331086038672 0.497554707939
v -0.475840153753 -0.370218653699 0.491969919651
v 0.495352262155 -0.341000471171 0.513017315157
v 0.47425361228 0.3603042212 -0.512247250782
v -0.496938803629 0.331086038672 -0.512247250782
v -0.475840153753 -0.370218653699 -0.512247250782
v 0.495352262155 -0.341000471171 -0.512247250782
g roof
f 1 2 3 4
g wall
f 2 1 5 6
g wall
f 3 2 6 7
g wall
f 4 3 7 8
g wall
f 1 4 8 5
g ground_assumed
f 8 7 6 5
