# XYZ-only planar convex-roof baseline. Provisional base; no GT.
v 0.71785160 9.29860390 8.57152236
v -0.09884554 9.36543553 7.76601002
v -5.69067901 9.81315238 2.25153723
v -5.85151244 9.67960320 2.10449199
v -6.00596358 9.16838267 1.99352463
v -6.05478801 8.67583031 1.98458063
v -6.23157713 6.48479404 1.98437858
v -6.80279108 -0.60735360 1.98473705
v -6.97271925 -2.71765404 1.98488204
v -7.12557482 -4.64079417 1.98697566
v -7.34719945 -7.53037085 1.99800475
v -7.34751856 -8.31379556 2.05955817
v -7.34751856 -8.54914208 2.07814320
v -7.12397925 -8.63578152 2.30401837
v -6.60302575 -8.75289633 2.82371925
v -6.01330320 -8.80937950 3.40601499
v -5.31747527 -8.87591475 4.09307111
v -4.73541145 -8.92585608 4.66734589
v -0.78044226 -9.24250611 8.56759900
v 5.89985820 -9.72874674 1.98175589
v 6.05510713 -7.81677560 1.98143138
v 6.80311019 1.47837508 1.98646731
v 6.97016633 3.56298686 1.98828038
v 7.34735901 8.28060771 1.99323317
v 7.34751856 8.51403955 2.01161389
v 7.34751856 8.68747797 2.02538684
v 6.65200974 8.79932741 2.71592335
v 4.78248076 8.95936305 4.56092030
v 2.92922658 9.11764356 6.38982726
v 4.36204815 -9.65423364 3.49485023
v 5.53479186 -9.72555560 2.33980359
v 0.71785160 9.29860390 -8.27317746
v -0.09884554 9.36543553 -8.27317746
v -5.69067901 9.81315238 -8.27317746
v -5.85151244 9.67960320 -8.27317746
v -6.00596358 9.16838267 -8.27317746
v -6.05478801 8.67583031 -8.27317746
v -6.23157713 6.48479404 -8.27317746
v -6.80279108 -0.60735360 -8.27317746
v -6.97271925 -2.71765404 -8.27317746
v -7.12557482 -4.64079417 -8.27317746
v -7.34719945 -7.53037085 -8.27317746
v -7.34751856 -8.31379556 -8.27317746
v -7.34751856 -8.54914208 -8.27317746
v -7.12397925 -8.63578152 -8.27317746
v -6.60302575 -8.75289633 -8.27317746
v -6.01330320 -8.80937950 -8.27317746
v -5.31747527 -8.87591475 -8.27317746
v -4.73541145 -8.92585608 -8.27317746
v -0.78044226 -9.24250611 -8.27317746
v 4.36204815 -9.65423364 -8.27317746
v 5.53479186 -9.72555560 -8.27317746
v 5.89985820 -9.72874674 -8.27317746
v 6.05510713 -7.81677560 -8.27317746
v 6.80311019 1.47837508 -8.27317746
v 6.97016633 3.56298686 -8.27317746
v 7.34735901 8.28060771 -8.27317746
v 7.34751856 8.51403955 -8.27317746
v 7.34751856 8.68747797 -8.27317746
v 6.65200974 8.79932741 -8.27317746
v 4.78248076 8.95936305 -8.27317746
v 2.92922658 9.11764356 -8.27317746
g roof
f 1 2 3 4 5 6 7 8 9 10 11 12 13 14 15 16 17 18 19
g roof
f 20 21 22 23 24 25 26 27 28 29 1 19 30 31
g wall
f 2 1 32 33
g wall
f 3 2 33 34
g wall
f 4 3 34 35
g wall
f 5 4 35 36
g wall
f 6 5 36 37
g wall
f 7 6 37 38
g wall
f 8 7 38 39
g wall
f 9 8 39 40
g wall
f 10 9 40 41
g wall
f 11 10 41 42
g wall
f 12 11 42 43
g wall
f 13 12 43 44
g wall
f 14 13 44 45
g wall
f 15 14 45 46
g wall
f 16 15 46 47
g wall
f 17 16 47 48
g wall
f 18 17 48 49
g wall
f 19 18 49 50
g wall
f 21 20 53 54
g wall
f 22 21 54 55
g wall
f 23 22 55 56
g wall
f 24 23 56 57
g wall
f 25 24 57 58
g wall
f 26 25 58 59
g wall
f 27 26 59 60
g wall
f 28 27 60 61
g wall
f 29 28 61 62
g wall
f 1 29 62 32
g wall
f 30 19 50 51
g wall
f 31 30 51 52
g wall
f 20 31 52 53
g ground_assumed
f 62 61 60 59 58 57 56 55 54 53 52 51 50 49 48 47 46 45 44 43 42 41 40 39 38 37 36 35 34 33 32
