# Source coordinates; no display transform
v 0.0382123218685 0.472413269334 0.441021851586
v -0.00344238275177 0.475821940272 0.399937614912
v -0.288647460706 0.498657226729 0.118678230064
v -0.296850586065 0.491845703372 0.111178355584
v -0.304728190013 0.465771484264 0.105518592158
v -0.307218424288 0.44064941384 0.105062413656
v -0.316235351387 0.328898111957 0.105052108326
v -0.345369466345 -0.0328287762588 0.105070391679
v -0.354036458527 -0.140462239366 0.105077786729
v -0.361832682251 -0.238549804677 0.105184569425
v -0.373136393317 -0.38592936215 0.105747095561
v -0.373152669158 -0.425887044489 0.108886557428
v -0.373152669158 -0.437890624878 0.109834465652
v -0.361751302026 -0.442309570538 0.121354970655
v -0.335180663902 -0.448282877628 0.147861720326
v -0.305102538946 -0.451163737187 0.177561049322
v -0.2696126303 -0.454557291602 0.212603561821
v -0.239925130118 -0.457104492085 0.241893790916
v -0.0382064447904 -0.47325486512 0.440821745092
v 0.30251464851 -0.498055012966 0.104918341019
v 0.310432942826 -0.400537109231 0.104901789757
v 0.348583984373 0.0735514323009 0.105158641614
v 0.357104491946 0.179874674652 0.105251115178
v 0.37634277368 0.420491536635 0.105503726574
v 0.376350911345 0.432397460958 0.106441214199
v 0.376350911345 0.441243489432 0.107143687779
v 0.340877278539 0.446948242341 0.142363713594
v 0.245524088689 0.455110677333 0.23646567528
v 0.15100097642 0.463183593923 0.329746985408
v 0.224080403724 -0.494254557425 0.182091989252
v 0.283894856894 -0.497892252516 0.123180154919
v 0.0382123218685 0.472413269334 -0.418122819128
v -0.00344238275177 0.475821940272 -0.418122819128
v -0.288647460706 0.498657226729 -0.418122819128
v -0.296850586065 0.491845703372 -0.418122819128
v -0.304728190013 0.465771484264 -0.418122819128
v -0.307218424288 0.44064941384 -0.418122819128
v -0.316235351387 0.328898111957 -0.418122819128
v -0.345369466345 -0.0328287762588 -0.418122819128
v -0.354036458527 -0.140462239366 -0.418122819128
v -0.361832682251 -0.238549804677 -0.418122819128
v -0.373136393317 -0.38592936215 -0.418122819128
v -0.373152669158 -0.425887044489 -0.418122819128
v -0.373152669158 -0.437890624878 -0.418122819128
v -0.361751302026 -0.442309570538 -0.418122819128
v -0.335180663902 -0.448282877628 -0.418122819128
v -0.305102538946 -0.451163737187 -0.418122819128
v -0.2696126303 -0.454557291602 -0.418122819128
v -0.239925130118 -0.457104492085 -0.418122819128
v -0.0382064447904 -0.47325486512 -0.418122819128
v 0.224080403724 -0.494254557425 -0.418122819128
v 0.283894856894 -0.497892252516 -0.418122819128
v 0.30251464851 -0.498055012966 -0.418122819128
v 0.310432942826 -0.400537109231 -0.418122819128
v 0.348583984373 0.0735514323009 -0.418122819128
v 0.357104491946 0.179874674652 -0.418122819128
v 0.37634277368 0.420491536635 -0.418122819128
v 0.376350911345 0.432397460958 -0.418122819128
v 0.376350911345 0.441243489432 -0.418122819128
v 0.340877278539 0.446948242341 -0.418122819128
v 0.245524088689 0.455110677333 -0.418122819128
v 0.15100097642 0.463183593923 -0.418122819128
g roof
f 1 2 3 4 5 6 7 8 9 10 11 12 13 14 15 16 17 18 19
g roof
f 20 21 22 23 24 25 26 27 28 29 1 19 30 31
g wall
f 2 1 32 33
g wall
f 3 2 33 34
g wall
f 4 3 34 35
g wall
f 5 4 35 36
g wall
f 6 5 36 37
g wall
f 7 6 37 38
g wall
f 8 7 38 39
g wall
f 9 8 39 40
g wall
f 10 9 40 41
g wall
f 11 10 41 42
g wall
f 12 11 42 43
g wall
f 13 12 43 44
g wall
f 14 13 44 45
g wall
f 15 14 45 46
g wall
f 16 15 46 47
g wall
f 17 16 47 48
g wall
f 18 17 48 49
g wall
f 19 18 49 50
g wall
f 21 20 53 54
g wall
f 22 21 54 55
g wall
f 23 22 55 56
g wall
f 24 23 56 57
g wall
f 25 24 57 58
g wall
f 26 25 58 59
g wall
f 27 26 59 60
g wall
f 28 27 60 61
g wall
f 29 28 61 62
g wall
f 1 29 62 32
g wall
f 30 19 50 51
g wall
f 31 30 51 52
g wall
f 20 31 52 53
g ground_assumed
f 62 61 60 59 58 57 56 55 54 53 52 51 50 49 48 47 46 45 44 43 42 41 40 39 38 37 36 35 34 33 32
