v 0.038212321868466126 0.47241326933358291 0.44102185158632068
v -0.0034423827517654415 0.47582194027240682 0.39993761491242763
v -0.28864746070560099 0.49865722672908586 0.11867823006414195
v -0.29685058606454207 0.49184570337151162 0.11117835558434269
v -0.30472819001324458 0.46577148426386511 0.10551859215810257
v -0.30721842428772872 0.44064941384030765 0.10506241365584487
v -0.31623535138713144 0.32889811195737961 0.10505210832641942
v -0.34536946634461219 -0.032828776258823023 0.10507039167924861
v -0.35403645852730359 -0.14046223936626664 0.10507778672856015
v -0.36183268225095611 -0.23854980467654036 0.10518456942488134
v -0.37313639331723714 -0.38592936214983992 0.10574709556055503
v -0.37315266915823175 -0.42588704448877968 0.10888655742822491
v -0.37315266915823175 -0.43789062487844449 0.10983446565159416
v -0.36175130202590611 -0.44230957053761788 0.1213549706547029
v -0.33518066390248147 -0.44828287762818092 0.14786172032603687
v -0.30510253894646688 -0.45116373718692054 0.17756104932248612
v -0.26961263029972282 -0.4545572916024328 0.2126035618212104
v -0.23992513011792516 -0.45710449208545589 0.24189379091610899
v -0.038206444790379518 -0.47325486512048015 0.44082174509161831
v 0.30251464850951504 -0.49805501296599031 0.1049183410191647
v 0.31043294282576184 -0.40053710923106667 0.10490178975733916
v 0.34858398437260663 0.073551432300919803 0.10515864161387703
v 0.35710449194619265 0.17987467465212376 0.10525111517795219
v 0.37634277367975377 0.42049153663476246 0.10550372657377029
v 0.37635091134523169 0.43239746095838277 0.10644121419899594
v 0.37635091134523169 0.4412434894321689 0.10714368777934814
v 0.34087727853948224 0.4469482423411093 0.14236371359397951
v 0.24552408868888129 0.45511067733250615 0.23646567528014159
v 0.15100097641973648 0.46318359392333636 0.32974698540776815
v 0.22408040372353044 -0.49425455742522789 0.18209198925214887
v 0.283894856894365 -0.49789225251589025 0.12318015491930065
v 0.038212321868466126 0.47241326933358291 -0.41812281912792704
v -0.0034423827517654415 0.47582194027240682 -0.41812281912792704
v -0.28864746070560099 0.49865722672908586 -0.41812281912792704
v -0.29685058606454207 0.49184570337151162 -0.41812281912792704
v -0.30472819001324458 0.46577148426386511 -0.41812281912792704
v -0.30721842428772872 0.44064941384030765 -0.41812281912792704
v -0.31623535138713144 0.32889811195737961 -0.41812281912792704
v -0.34536946634461219 -0.032828776258823023 -0.41812281912792704
v -0.35403645852730359 -0.14046223936626664 -0.41812281912792704
v -0.36183268225095611 -0.23854980467654036 -0.41812281912792704
v -0.37313639331723714 -0.38592936214983992 -0.41812281912792704
v -0.37315266915823175 -0.42588704448877968 -0.41812281912792704
v -0.37315266915823175 -0.43789062487844449 -0.41812281912792704
v -0.36175130202590611 -0.44230957053761788 -0.41812281912792704
v -0.33518066390248147 -0.44828287762818092 -0.41812281912792704
v -0.30510253894646688 -0.45116373718692054 -0.41812281912792704
v -0.26961263029972282 -0.4545572916024328 -0.41812281912792704
v -0.23992513011792516 -0.45710449208545589 -0.41812281912792704
v -0.038206444790379518 -0.47325486512048015 -0.41812281912792704
v 0.22408040372353044 -0.49425455742522789 -0.41812281912792704
v 0.283894856894365 -0.49789225251589025 -0.41812281912792704
v 0.30251464850951504 -0.49805501296599031 -0.41812281912792704
v 0.31043294282576184 -0.40053710923106667 -0.41812281912792704
v 0.34858398437260663 0.073551432300919803 -0.41812281912792704
v 0.35710449194619265 0.17987467465212376 -0.41812281912792704
v 0.37634277367975377 0.42049153663476246 -0.41812281912792704
v 0.37635091134523169 0.43239746095838277 -0.41812281912792704
v 0.37635091134523169 0.4412434894321689 -0.41812281912792704
v 0.34087727853948224 0.4469482423411093 -0.41812281912792704
v 0.24552408868888129 0.45511067733250615 -0.41812281912792704
v 0.15100097641973648 0.46318359392333636 -0.41812281912792704
l 1 2
l 2 3
l 3 4
l 4 5
l 5 6
l 6 7
l 7 8
l 8 9
l 9 10
l 10 11
l 11 12
l 12 13
l 13 14
l 14 15
l 15 16
l 16 17
l 17 18
l 18 19
l 1 19
l 20 21
l 21 22
l 22 23
l 23 24
l 24 25
l 25 26
l 26 27
l 27 28
l 28 29
l 1 29
l 19 30
l 30 31
l 20 31
l 32 33
l 33 34
l 3 34
l 34 35
l 4 35
l 35 36
l 5 36
l 36 37
l 37 38
l 38 39
l 39 40
l 40 41
l 41 42
l 42 43
l 43 44
l 13 44
l 44 45
l 45 46
l 46 47
l 47 48
l 48 49
l 49 50
l 20 53
l 53 54
l 54 55
l 55 56
l 56 57
l 57 58
l 58 59
l 26 59
l 59 60
l 60 61
l 61 62
l 32 62
l 50 51
l 51 52
l 52 53
