# XYZ-only planar convex-roof baseline. Provisional base; no GT.
v -5.01772612 -6.11535371 1.95131906
v 5.01772612 -4.54731430 1.95469551
v 9.40823648 -3.76329459 1.98341475
v 11.91709954 -3.13607883 2.04963976
v 11.91709954 -2.03845124 2.35475063
v 10.66266801 6.11535371 4.67535052
v 10.34906012 7.05617736 4.95038962
v 8.78102071 7.05617736 5.01796715
v 2.50886306 6.11535371 5.02675369
v -12.23070742 3.76329459 5.00817350
v -12.23070742 3.13607883 4.83382443
v -11.91709954 0.94082365 4.21008719
v -10.97627589 -4.86092218 2.55681181
v -10.66266801 -6.58576553 2.06383637
v -10.34906012 -6.89937342 1.96314633
v -5.01772612 -6.11535371 -4.74140523
v 5.01772612 -4.54731430 -4.74140523
v 9.40823648 -3.76329459 -4.74140523
v 11.91709954 -3.13607883 -4.74140523
v 11.91709954 -2.03845124 -4.74140523
v 10.66266801 6.11535371 -4.74140523
v 10.34906012 7.05617736 -4.74140523
v 8.78102071 7.05617736 -4.74140523
v 2.50886306 6.11535371 -4.74140523
v -12.23070742 3.76329459 -4.74140523
v -12.23070742 3.13607883 -4.74140523
v -11.91709954 0.94082365 -4.74140523
v -10.97627589 -4.86092218 -4.74140523
v -10.66266801 -6.58576553 -4.74140523
v -10.34906012 -6.89937342 -4.74140523
g roof
f 1 2 3 4 5 6 7 8 9 10 11 12 13 14 15
g wall
f 2 1 16 17
g wall
f 3 2 17 18
g wall
f 4 3 18 19
g wall
f 5 4 19 20
g wall
f 6 5 20 21
g wall
f 7 6 21 22
g wall
f 8 7 22 23
g wall
f 9 8 23 24
g wall
f 10 9 24 25
g wall
f 11 10 25 26
g wall
f 12 11 26 27
g wall
f 13 12 27 28
g wall
f 14 13 28 29
g wall
f 15 14 29 30
g wall
f 1 15 30 16
g ground_assumed
f 30 29 28 27 26 25 24 23 22 21 20 19 18 17 16
