v 2682695.7500000005 1251836.7499999993 445.46053928762723
v 2682703.7499999995 1251837.9999999972 445.46323090523964
v 2682707.2500000033 1251838.6250000002 445.4861251320753
v 2682709.2500000033 1251839.1249999963 445.53891797760804
v 2682709.2500000033 1251839.9999999972 445.78214438150366
v 2682708.2500000033 1251846.5000000007 447.63206590716214
v 2682707.9999999972 1251847.2500000026 447.85131988268819
v 2682706.7499999995 1251847.2500000026 447.90519092178306
v 2682701.75 1251846.5000000007 447.91219532161614
v 2682689.9999999986 1251844.6249999998 447.89738368020392
v 2682689.9999999986 1251844.1250000037 447.75839716255331
v 2682690.2499999967 1251842.3750000019 447.26117015172605
v 2682690.9999999986 1251837.7499999993 445.94322226830042
v 2682691.2499999967 1251836.3750000023 445.55023514371817
v 2682691.5000000028 1251836.1249999965 445.46996767787107
v 2682695.7500000005 1251836.7499999993 440.12527456460413
v 2682703.7499999995 1251837.9999999972 440.12527456460413
v 2682707.2500000033 1251838.6250000002 440.12527456460413
v 2682709.2500000033 1251839.1249999963 440.12527456460413
v 2682709.2500000033 1251839.9999999972 440.12527456460413
v 2682708.2500000033 1251846.5000000007 440.12527456460413
v 2682707.9999999972 1251847.2500000026 440.12527456460413
v 2682706.7499999995 1251847.2500000026 440.12527456460413
v 2682701.75 1251846.5000000007 440.12527456460413
v 2682689.9999999986 1251844.6249999998 440.12527456460413
v 2682689.9999999986 1251844.1250000037 440.12527456460413
v 2682690.2499999967 1251842.3750000019 440.12527456460413
v 2682690.9999999986 1251837.7499999993 440.12527456460413
v 2682691.2499999967 1251836.3750000023 440.12527456460413
v 2682691.5000000028 1251836.1249999965 440.12527456460413
l 1 2
l 2 3
l 3 4
l 4 5
l 5 6
l 6 7
l 7 8
l 8 9
l 9 10
l 10 11
l 11 12
l 12 13
l 13 14
l 14 15
l 1 15
l 16 17
l 17 18
l 18 19
l 4 19
l 19 20
l 20 21
l 21 22
l 7 22
l 22 23
l 23 24
l 24 25
l 10 25
l 25 26
l 26 27
l 27 28
l 28 29
l 14 29
l 29 30
l 15 30
l 16 30
