v 2682641.8949557729 1247858.9953905819 412.25906000624235
v 2682636.6450591609 1247853.9204905217 412.2579867840505
v 2682639.2337047691 1247851.2425812744 412.25859185122471
v 2682644.4836013773 1247856.3174813308 412.2596650698726
v 2682641.8949557729 1247858.9953905819 409.56727355838257
v 2682636.6450591609 1247853.9204905217 409.56727355838257
v 2682639.2337047691 1247851.2425812744 409.56727355838257
v 2682644.4836013773 1247856.3174813308 409.56727355838257
l 1 2
l 2 3
l 3 4
l 1 4
l 1 5
l 5 6
l 2 6
l 6 7
l 3 7
l 7 8
l 4 8
l 5 8
