v -0.40284403557326015 0.53040081721148069 0.28584384778959132
v -0.55479156786249528 -0.24088578362711136 0.28574915439387638
v 0.35142045093341523 -0.41941433576625098 0.28629240113859539
v 0.50336798370060043 0.35187226459439092 0.28638709453431033
v -0.40284403557326015 0.53040081721148069 -0.28493653786531947
v -0.55479156786249528 -0.24088578362711136 -0.28493653786531947
v 0.35142045093341523 -0.41941433576625098 -0.28493653786531947
v 0.50336798370060043 0.35187226459439092 -0.28493653786531947
l 1 2
l 2 3
l 3 4
l 1 4
l 1 5
l 5 6
l 2 6
l 6 7
l 3 7
l 7 8
l 4 8
l 5 8
