# Source coordinates; no display transform
v 0.3564438721 -0.352483514953 0.279106788239
v 0.357891451065 -0.349213781262 0.279107101544
v 0.365663896194 -0.324534706626 0.279108782128
v 0.498786530916 0.0988294507741 0.279137565735
v 0.494775449925 0.103020016386 0.279136698011
v 0.189308986075 0.283596707085 0.279070614298
v 0.183877638493 0.285910492258 0.279069439525
v 0.179530999968 0.287541456992 0.27906849913
v 0.147415037737 0.297740840349 0.279061551562
v 0.00182605645481 0.343462483909 0.279030056978
v -0.01636427488 0.349120137118 0.279026121659
v -0.0208123610872 0.34995122721 0.279025159607
v -0.35398181756 0.367821608495 0.278953088453
v -0.356908189976 0.36637402953 0.278952455587
v -0.360907565595 0.363377423918 0.27895159075
v -0.42983339197 0.144094580486 0.27893668736
v -0.498037379678 -0.073050060282 0.278921940381
v -0.499469351159 -0.0807600764386 0.278921630927
v -0.499465449529 -0.0867415818092 0.278921631889
v -0.288356939362 -0.250267275461 0.278967303632
v -0.284384876599 -0.25224160147 0.278968162693
v -0.175118030163 -0.286702563361 0.278991800114
v -0.133762534723 -0.299726871933 0.279000746383
v -0.115552694274 -0.305431347113 0.279004686034
v 0.0847711576673 -0.368086932554 0.279048021226
v 0.0888134536264 -0.369038979442 0.279048895688
v 0.3564438721 -0.352483514953 -0.362012747182
v 0.357891451065 -0.349213781262 -0.362012747182
v 0.365663896194 -0.324534706626 -0.362012747182
v 0.498786530916 0.0988294507741 -0.362012747182
v 0.494775449925 0.103020016386 -0.362012747182
v 0.189308986075 0.283596707085 -0.362012747182
v 0.183877638493 0.285910492258 -0.362012747182
v 0.179530999968 0.287541456992 -0.362012747182
v 0.147415037737 0.297740840349 -0.362012747182
v 0.00182605645481 0.343462483909 -0.362012747182
v -0.01636427488 0.349120137118 -0.362012747182
v -0.0208123610872 0.34995122721 -0.362012747182
v -0.35398181756 0.367821608495 -0.362012747182
v -0.356908189976 0.36637402953 -0.362012747182
v -0.360907565595 0.363377423918 -0.362012747182
v -0.42983339197 0.144094580486 -0.362012747182
v -0.498037379678 -0.073050060282 -0.362012747182
v -0.499469351159 -0.0807600764386 -0.362012747182
v -0.499465449529 -0.0867415818092 -0.362012747182
v -0.288356939362 -0.250267275461 -0.362012747182
v -0.284384876599 -0.25224160147 -0.362012747182
v -0.175118030163 -0.286702563361 -0.362012747182
v -0.133762534723 -0.299726871933 -0.362012747182
v -0.115552694274 -0.305431347113 -0.362012747182
v 0.0847711576673 -0.368086932554 -0.362012747182
v 0.0888134536264 -0.369038979442 -0.362012747182
g roof
f 1 2 3 4 5 6 7 8 9 10 11 12 13 14 15 16 17 18 19 20 21 22 23 24 25 26
g wall
f 2 1 27 28
g wall
f 3 2 28 29
g wall
f 4 3 29 30
g wall
f 5 4 30 31
g wall
f 6 5 31 32
g wall
f 7 6 32 33
g wall
f 8 7 33 34
g wall
f 9 8 34 35
g wall
f 10 9 35 36
g wall
f 11 10 36 37
g wall
f 12 11 37 38
g wall
f 13 12 38 39
g wall
f 14 13 39 40
g wall
f 15 14 40 41
g wall
f 16 15 41 42
g wall
f 17 16 42 43
g wall
f 18 17 43 44
g wall
f 19 18 44 45
g wall
f 20 19 45 46
g wall
f 21 20 46 47
g wall
f 22 21 47 48
g wall
f 23 22 48 49
g wall
f 24 23 49 50
g wall
f 25 24 50 51
g wall
f 26 25 51 52
g wall
f 1 26 52 27
g ground_assumed
f 52 51 50 49 48 47 46 45 44 43 42 41 40 39 38 37 36 35 34 33 32 31 30 29 28 27
