# XYZ-only planar convex-roof baseline. Provisional base; no GT.
v 7.41346064 -7.31142883 5.75361167
v 7.44353915 -7.24348869 5.75361818
v 7.60503885 -6.73069470 5.75365310
v 10.37112664 2.06617466 5.75425118
v 10.28778242 2.15324830 5.75423315
v 3.94064951 5.90535988 5.75286003
v 3.82779429 5.95343685 5.75283562
v 3.73747769 5.98732584 5.75281608
v 3.07015638 6.19925366 5.75267172
v 0.04503669 7.14928053 5.75201731
v -0.33293099 7.26683804 5.75193554
v -0.42535552 7.28410684 5.75191555
v -7.34811488 7.65542644 5.75041802
v -7.40892049 7.62534793 5.75040487
v -7.49202149 7.56308298 5.75038690
v -8.92419632 3.00671586 5.75007723
v -10.34137243 -1.50522263 5.74977081
v -10.37112664 -1.66542515 5.74976438
v -10.37104557 -1.78971182 5.74976440
v -5.98452878 -5.18752937 5.75071339
v -5.90199530 -5.22855289 5.75073124
v -3.63159485 -5.94459976 5.75122239
v -2.77228996 -6.21522527 5.75140828
v -2.39391691 -6.33375567 5.75149014
v 1.76851093 -7.63564434 5.75239058
v 1.85250375 -7.65542644 5.75240875
v 7.41346064 -7.31142883 -7.56788638
v 7.44353915 -7.24348869 -7.56788638
v 7.60503885 -6.73069470 -7.56788638
v 10.37112664 2.06617466 -7.56788638
v 10.28778242 2.15324830 -7.56788638
v 3.94064951 5.90535988 -7.56788638
v 3.82779429 5.95343685 -7.56788638
v 3.73747769 5.98732584 -7.56788638
v 3.07015638 6.19925366 -7.56788638
v 0.04503669 7.14928053 -7.56788638
v -0.33293099 7.26683804 -7.56788638
v -0.42535552 7.28410684 -7.56788638
v -7.34811488 7.65542644 -7.56788638
v -7.40892049 7.62534793 -7.56788638
v -7.49202149 7.56308298 -7.56788638
v -8.92419632 3.00671586 -7.56788638
v -10.34137243 -1.50522263 -7.56788638
v -10.37112664 -1.66542515 -7.56788638
v -10.37104557 -1.78971182 -7.56788638
v -5.98452878 -5.18752937 -7.56788638
v -5.90199530 -5.22855289 -7.56788638
v -3.63159485 -5.94459976 -7.56788638
v -2.77228996 -6.21522527 -7.56788638
v -2.39391691 -6.33375567 -7.56788638
v 1.76851093 -7.63564434 -7.56788638
v 1.85250375 -7.65542644 -7.56788638
g roof
f 1 2 3 4 5 6 7 8 9 10 11 12 13 14 15 16 17 18 19 20 21 22 23 24 25 26
g wall
f 2 1 27 28
g wall
f 3 2 28 29
g wall
f 4 3 29 30
g wall
f 5 4 30 31
g wall
f 6 5 31 32
g wall
f 7 6 32 33
g wall
f 8 7 33 34
g wall
f 9 8 34 35
g wall
f 10 9 35 36
g wall
f 11 10 36 37
g wall
f 12 11 37 38
g wall
f 13 12 38 39
g wall
f 14 13 39 40
g wall
f 15 14 40 41
g wall
f 16 15 41 42
g wall
f 17 16 42 43
g wall
f 18 17 43 44
g wall
f 19 18 44 45
g wall
f 20 19 45 46
g wall
f 21 20 46 47
g wall
f 22 21 47 48
g wall
f 23 22 48 49
g wall
f 24 23 49 50
g wall
f 25 24 50 51
g wall
f 26 25 51 52
g wall
f 1 26 52 27
g ground_assumed
f 52 51 50 49 48 47 46 45 44 43 42 41 40 39 38 37 36 35 34 33 32 31 30 29 28 27
