v 0.35644387209989248 -0.35248351495302566 0.27910678823903484
v 0.35789145106473463 -0.34921378126168168 0.27910710154375179
v 0.36566389619410811 -0.32453470662595474 0.27910878212757895
v 0.4987865309160614 0.098829450774133715 0.27913756573512111
v 0.49477544992457689 0.10302001638580247 0.27913669801099728
v 0.18930898607470104 0.28359670708452789 0.27907061429780122
v 0.18387763849316757 0.28591049225757481 0.27906943952542945
v 0.17953099996831848 0.28754145699165723 0.27906849913001186
v 0.14741503773658274 0.29774084034864023 0.279061551561819
v 0.0018260564548069906 0.34346248390900269 0.27903005697813177
v -0.016364274880028958 0.34912013711839418 0.27902612165912977
v -0.020812361087205414 0.34995122720989358 0.27902515960670404
v -0.35398181755961289 0.36782160849518963 0.27895308845267347
v -0.35690818997567986 0.36637402953034748 0.27895245558677062
v -0.36090756559492909 0.36337742391833594 0.27895159075024784
v -0.42983339197011639 0.14409458048592336 0.27893668735981919
v -0.49803737967804396 -0.073050060282036991 0.27892194038111556
v -0.49946935115906133 -0.080760076438645093 0.27892163092653344
v -0.49946544952873861 -0.086741581809166232 0.2789216318890671
v -0.28835693936215234 -0.25026727546059302 0.27896730363151195
v -0.28438487659896305 -0.25224160146995245 0.27896816269283259
v -0.17511803016314972 -0.28670256336111788 0.27899180011398744
v -0.13376253472305083 -0.29972687193310743 0.27900074638339289
v -0.11555269427406735 -0.30543134711270647 0.27900468603379652
v 0.084771157667308999 -0.36808693255421532 0.27904802122570277
v 0.088813453626442954 -0.36903897944218966 0.27904889568756241
v 0.35644387209989248 -0.35248351495302566 -0.36201274718227677
v 0.35789145106473463 -0.34921378126168168 -0.36201274718227677
v 0.36566389619410811 -0.32453470662595474 -0.36201274718227677
v 0.4987865309160614 0.098829450774133715 -0.36201274718227677
v 0.49477544992457689 0.10302001638580247 -0.36201274718227677
v 0.18930898607470104 0.28359670708452789 -0.36201274718227677
v 0.18387763849316757 0.28591049225757481 -0.36201274718227677
v 0.17953099996831848 0.28754145699165723 -0.36201274718227677
v 0.14741503773658274 0.29774084034864023 -0.36201274718227677
v 0.0018260564548069906 0.34346248390900269 -0.36201274718227677
v -0.016364274880028958 0.34912013711839418 -0.36201274718227677
v -0.020812361087205414 0.34995122720989358 -0.36201274718227677
v -0.35398181755961289 0.36782160849518963 -0.36201274718227677
v -0.35690818997567986 0.36637402953034748 -0.36201274718227677
v -0.36090756559492909 0.36337742391833594 -0.36201274718227677
v -0.42983339197011639 0.14409458048592336 -0.36201274718227677
v -0.49803737967804396 -0.073050060282036991 -0.36201274718227677
v -0.49946935115906133 -0.080760076438645093 -0.36201274718227677
v -0.49946544952873861 -0.086741581809166232 -0.36201274718227677
v -0.28835693936215234 -0.25026727546059302 -0.36201274718227677
v -0.28438487659896305 -0.25224160146995245 -0.36201274718227677
v -0.17511803016314972 -0.28670256336111788 -0.36201274718227677
v -0.13376253472305083 -0.29972687193310743 -0.36201274718227677
v -0.11555269427406735 -0.30543134711270647 -0.36201274718227677
v 0.084771157667308999 -0.36808693255421532 -0.36201274718227677
v 0.088813453626442954 -0.36903897944218966 -0.36201274718227677
l 1 2
l 2 3
l 3 4
l 4 5
l 5 6
l 6 7
l 7 8
l 8 9
l 9 10
l 10 11
l 11 12
l 12 13
l 13 14
l 14 15
l 15 16
l 16 17
l 17 18
l 18 19
l 19 20
l 20 21
l 21 22
l 22 23
l 23 24
l 24 25
l 25 26
l 1 26
l 1 27
l 27 28
l 28 29
l 29 30
l 4 30
l 30 31
l 5 31
l 31 32
l 32 33
l 33 34
l 34 35
l 35 36
l 36 37
l 37 38
l 38 39
l 13 39
l 39 40
l 14 40
l 40 41
l 15 41
l 41 42
l 42 43
l 43 44
l 18 44
l 44 45
l 19 45
l 45 46
l 20 46
l 46 47
l 47 48
l 48 49
l 49 50
l 50 51
l 51 52
l 26 52
l 27 52
