v 0.49864071337456217 -0.34963027417601644 0.10892815220223423
v 0.49864071337456217 -0.33774467151830789 0.10893875598626379
v 0.49861896484862211 -0.29021313599174692 0.10898121444949073
v 0.49860809058565203 -0.27844715106801166 0.10899173830972762
v 0.49482383655579498 -0.14520443672294525 0.10911985909393794
v 0.36434319257684256 0.076381035230448743 0.10963642465397852
v 0.23088299255172404 0.28493910396972089 0.11014864909012249
v 0.21555023927818384 0.29384515016061186 0.11019406599563283
v 0.19388864728872465 0.29650935173934401 0.11024938083188801
v 0.11070030463034113 0.30624184443986613 0.11046136481044358
v -0.1766637670121515 0.33882122673814097 0.11119271041982855
v -0.3273488471154129 0.3523923443627186 0.11157307237631062
v -0.44749891266853736 0.36120052176622797 0.11187456174832239
v -0.48113310141946519 0.35881905186601937 0.11195463445163739
v -0.48394954310042937 0.35725315337116892 0.11196012058902687
v -0.49493257940771662 0.24905393647422475 0.11189043124833427
v -0.49833623297166818 0.15129404105346042 0.11181153258346845
v -0.50580687266465207 -0.12762070470483686 0.11158095580682864
v -0.50583949545356222 -0.13028490628356906 0.1115786586287667
v -0.50581774692762216 -0.16921487582370284 0.11154387411159068
v -0.50576337519212045 -0.25297955652275539 0.11146901033630005
v -0.49851022202049167 -0.27274902128696032 0.1114336470026045
v -0.32709873864645078 -0.29001739883763489 0.11099933396216111
v 0.47992605464235893 -0.36087429321523579 0.10896385710498058
v 0.49493257918549527 -0.36111352742122793 0.10892696975075426
v 0.49864071337456217 -0.34963027417601644 -0.11055367547055971
v 0.49864071337456217 -0.33774467151830789 -0.11055367547055971
v 0.49861896484862211 -0.29021313599174692 -0.11055367547055971
v 0.49860809058565203 -0.27844715106801166 -0.11055367547055971
v 0.49482383655579498 -0.14520443672294525 -0.11055367547055971
v 0.36434319257684256 0.076381035230448743 -0.11055367547055971
v 0.23088299255172404 0.28493910396972089 -0.11055367547055971
v 0.21555023927818384 0.29384515016061186 -0.11055367547055971
v 0.19388864728872465 0.29650935173934401 -0.11055367547055971
v 0.11070030463034113 0.30624184443986613 -0.11055367547055971
v -0.1766637670121515 0.33882122673814097 -0.11055367547055971
v -0.3273488471154129 0.3523923443627186 -0.11055367547055971
v -0.44749891266853736 0.36120052176622797 -0.11055367547055971
v -0.48113310141946519 0.35881905186601937 -0.11055367547055971
v -0.48394954310042937 0.35725315337116892 -0.11055367547055971
v -0.49493257940771662 0.24905393647422475 -0.11055367547055971
v -0.49833623297166818 0.15129404105346042 -0.11055367547055971
v -0.50580687266465207 -0.12762070470483686 -0.11055367547055971
v -0.50583949545356222 -0.13028490628356906 -0.11055367547055971
v -0.50581774692762216 -0.16921487582370284 -0.11055367547055971
v -0.50576337519212045 -0.25297955652275539 -0.11055367547055971
v -0.49851022202049167 -0.27274902128696032 -0.11055367547055971
v -0.32709873864645078 -0.29001739883763489 -0.11055367547055971
v 0.47992605464235893 -0.36087429321523579 -0.11055367547055971
v 0.49493257918549527 -0.36111352742122793 -0.11055367547055971
l 1 2
l 2 3
l 3 4
l 4 5
l 5 6
l 6 7
l 7 8
l 8 9
l 9 10
l 10 11
l 11 12
l 12 13
l 13 14
l 14 15
l 15 16
l 16 17
l 17 18
l 18 19
l 19 20
l 20 21
l 21 22
l 22 23
l 23 24
l 24 25
l 1 25
l 1 26
l 26 27
l 27 28
l 28 29
l 29 30
l 5 30
l 30 31
l 31 32
l 7 32
l 32 33
l 8 33
l 33 34
l 34 35
l 35 36
l 36 37
l 37 38
l 38 39
l 14 39
l 39 40
l 15 40
l 40 41
l 41 42
l 42 43
l 43 44
l 44 45
l 45 46
l 21 46
l 46 47
l 22 47
l 47 48
l 48 49
l 49 50
l 25 50
l 26 50
