# XYZ-only planar convex-roof baseline. Provisional base; no GT.
v 2.09214161 -5.21233969 8.14996285
v 9.52502448 -2.22252812 1.90139237
v 5.34573276 8.16748645 1.88579370
v -2.09745299 5.17353063 8.14302546
v -5.37535832 -8.21607567 1.89777944
v -9.55465003 2.17393890 1.89946818
v 2.09214161 -5.21233969 -8.14863225
v 9.52502448 -2.22252812 -8.14863225
v 5.34573276 8.16748645 -8.14863225
v -2.09745299 5.17353063 -8.14863225
v -9.55465003 2.17393890 -8.14863225
v -5.37535832 -8.21607567 -8.14863225
g roof
f 1 2 3 4
g roof
f 5 1 4 6
g wall
f 2 1 7 8
g wall
f 3 2 8 9
g wall
f 4 3 9 10
g wall
f 1 5 12 7
g wall
f 6 4 10 11
g wall
f 5 6 11 12
g ground_assumed
f 12 11 10 9 8 7
