# pointcloud_to_mesh 0.5.1; candidate requires geometry validation; coordinates preserved
v -5.736395156 5.862087253 5.992275859
v -9.466325490 2.883494868 5.780557216
v -7.033992459 -0.162384387 5.703020743
v -5.911310728 -1.434606609 5.673009199
v -4.475846883 -3.173828144 5.629771551
v -3.522900838 -4.399361960 5.598001889
v -1.670253933 -6.714043229 5.539172880
v -0.187634896 -8.588755605 5.491128141
v 0.090642814 -9.258375860 5.468376808
v 0.569631602 -9.432554219 5.471504478
v 1.548728086 -9.258809105 5.500795762
v 1.722926627 -8.756769078 5.526370129
v 2.343708977 -8.516851752 5.550550157
v 3.196467650 -7.835868392 5.598954522
v 0.302533943 -5.839807096 5.620846979
v -0.823720135 -6.739194355 5.556918444
v -1.835616603 -5.472051072 5.589175081
v -0.709362525 -4.572663813 5.653103616
v -2.277094360 -4.461688444 5.623023197
v -2.988104272 -5.029476183 5.582664788
v -3.131116009 -3.392243269 5.650247194
v -2.134699820 -1.523871179 5.753168408
v -3.336047922 -2.483225909 5.684977378
v -2.987598249 -0.455832552 5.780356599
v 2.412541522 -4.995098631 5.704297538
v 7.039550821 -4.744648811 5.818058386
v 7.851204326 -4.135266395 5.862453581
v 7.897201139 -3.685182477 5.882930243
v 9.094564022 -2.729010204 5.950895063
v 9.284604680 -2.059472006 5.984061418
v 8.753554744 -2.483549978 5.953917913
v 7.790224987 -2.005095782 5.953166536
v 7.659305946 0.154965264 6.043615475
v 7.160471439 0.779628769 6.059517026
v 6.367569189 0.146444664 6.014510237
v 5.445923288 0.608276705 6.013967754
v 5.225047320 3.266876497 6.123963123
v 4.624498996 4.018910720 6.143107047
v 4.071215169 3.154894940 6.093454060
v 3.101685103 3.686625456 6.094867438
v 2.905850021 5.603143410 6.173345864
v 0.756926880 6.777484185 6.176296256
v 0.536315235 8.703394261 6.254629426
v -0.027541233 9.409481256 6.272603709
v -0.644156159 8.917074063 6.237603357
v -1.650301104 9.511321782 6.240904271
v -2.198307754 9.073702768 6.209798268
v -5.284776024 6.766875322 6.041429382
v -4.188946351 -1.415187281 5.712165569
v 1.570488240 -5.667533038 5.656500834
v 0.858491527 -4.775938018 5.679197444
v 1.700544808 -4.103503611 5.726994148
v -3.842125921 -3.960031007 5.609888785
v -3.842125921 -3.960031007 6.406058336
v -2.988104272 -5.029476183 6.406058336
v -2.277094360 -4.461688444 6.406058336
v -3.131116009 -3.392243269 6.406058336
v -4.188946351 -1.415187281 6.300016222
v -3.336047922 -2.483225909 6.300016222
v -2.134699820 -1.523871179 6.300016222
v -2.987598249 -0.455832552 6.300016222
v -1.835616603 -5.472051072 6.405556243
v -0.823720135 -6.739194355 6.405556243
v 0.302533943 -5.839807096 6.405556243
v -0.709362525 -4.572663813 6.405556243
v 0.858491527 -4.775938018 6.389715198
v 1.570488240 -5.667533038 6.389715198
v 2.412541522 -4.995098631 6.389715198
v 1.700544808 -4.103503611 6.389715198
v 9.094564022 -2.729010204 -6.728751719
v 9.284604680 -2.059472006 -6.728751719
v 8.753554744 -2.483549978 -6.728751719
v 7.790224987 -2.005095782 -6.728751719
v 7.659305946 0.154965264 -6.728751719
v 7.160471439 0.779628769 -6.728751719
v 6.367569189 0.146444664 -6.728751719
v 5.445923288 0.608276705 -6.728751719
v 5.225047320 3.266876497 -6.728751719
v 4.624498996 4.018910720 -6.728751719
v 4.071215169 3.154894940 -6.728751719
v 3.101685103 3.686625456 -6.728751719
v 2.905850021 5.603143410 -6.728751719
v 0.756926880 6.777484185 -6.728751719
v 0.536315235 8.703394261 -6.728751719
v -0.027541233 9.409481256 -6.728751719
v -0.644156159 8.917074063 -6.728751719
v -1.650301104 9.511321782 -6.728751719
v -2.198307754 9.073702768 -6.728751719
v -5.284776024 6.766875322 -6.728751719
v -5.736395156 5.862087253 -6.728751719
v -6.687377750 5.102665693 5.938296099
v -6.687377750 5.102665693 -6.728751719
v -9.466325490 2.883494868 -6.728751719
v -7.033992459 -0.162384387 -6.728751719
v -5.911310728 -1.434606609 -6.728751719
v -4.475846883 -3.173828144 -6.728751719
v -3.522900838 -4.399361960 -6.728751719
v -1.670253933 -6.714043229 -6.728751719
v -0.187634896 -8.588755605 -6.728751719
v 0.090642814 -9.258375860 -6.728751719
v 0.569631602 -9.432554219 -6.728751719
v 1.548728086 -9.258809105 -6.728751719
v 1.722926627 -8.756769078 -6.728751719
v 2.343708977 -8.516851752 -6.728751719
v 3.196467650 -7.835868392 -6.728751719
v 7.039550821 -4.744648811 -6.728751719
v 7.851204326 -4.135266395 -6.728751719
v 7.897201139 -3.685182477 -6.728751719
g roof
f 1 91 2 3
g roof
f 1 3 4
g roof
f 1 4 5
g roof
f 5 6 7
g roof
f 8 9 10
g roof
f 8 10 11
g roof
f 8 11 12
g roof
f 8 12 13
g roof
f 8 13 14
g roof
f 8 14 15
g roof
f 8 15 16
g roof
f 8 16 17
g roof
f 18 19 20
g roof
f 21 19 18
g roof
f 18 15 14
g roof
f 18 14 22
g roof
f 18 22 23
g roof
f 24 22 14
g roof
f 25 14 26
g roof
f 25 26 27
g roof
f 25 27 28
g roof
f 25 28 29
g roof
f 29 30 31
g roof
f 29 31 32
g roof
f 32 33 34
g roof
f 32 34 35
g roof
f 32 35 36
g roof
f 36 37 38
g roof
f 36 38 39
g roof
f 36 39 40
g roof
f 40 41 42
g roof
f 42 43 44
g roof
f 42 44 45
g roof
f 42 45 46
g roof
f 42 46 47
g roof
f 42 47 48
g roof
f 42 48 1
g roof
f 7 8 17
g roof
f 17 18 20
g roof
f 21 18 23
g roof
f 21 23 49
g roof
f 14 25 50
g roof
f 14 50 51
g roof
f 52 25 29
g roof
f 52 29 32
g roof
f 52 32 36
g roof
f 52 36 40
g roof
f 52 40 42
g roof
f 52 42 1
g roof
f 7 17 20
g roof
f 7 20 53
g roof
f 53 21 49
g roof
f 24 14 51
g roof
f 24 51 52
g roof
f 24 52 1
g roof
f 5 7 53
g roof
f 5 53 49
g roof
f 49 24 1
g roof
f 49 1 5
g roof_fixture
f 54 55 56
g roof_fixture
f 54 56 57
g roof_fixture
f 58 59 60
g roof_fixture
f 58 60 61
g roof_fixture
f 62 63 64
g roof_fixture
f 62 64 65
g roof_fixture
f 66 67 68
g roof_fixture
f 66 68 69
g facade_completed
f 30 29 70 71
g facade_completed
f 31 30 71 72
g facade_completed
f 32 31 72 73
g facade_completed
f 33 32 73 74
g facade_completed
f 34 33 74 75
g facade_completed
f 35 34 75 76
g facade_completed
f 36 35 76 77
g facade_completed
f 37 36 77 78
g facade_completed
f 38 37 78 79
g facade_completed
f 39 38 79 80
g facade_completed
f 40 39 80 81
g facade_completed
f 41 40 81 82
g facade_completed
f 42 41 82 83
g facade_completed
f 43 42 83 84
g facade_completed
f 44 43 84 85
g facade_completed
f 45 44 85 86
g facade_completed
f 46 45 86 87
g facade_completed
f 47 46 87 88
g facade_completed
f 48 47 88 89
g facade_completed
f 1 48 89 90
g facade_completed
f 91 1 90 92
g facade_completed
f 2 91 92 93
g facade_completed
f 3 2 93 94
g facade_completed
f 4 3 94 95
g facade_completed
f 5 4 95 96
g facade_completed
f 6 5 96 97
g facade_completed
f 7 6 97 98
g facade_completed
f 8 7 98 99
g facade_completed
f 9 8 99 100
g facade_completed
f 10 9 100 101
g facade_completed
f 11 10 101 102
g facade_completed
f 12 11 102 103
g facade_completed
f 13 12 103 104
g facade_completed
f 14 13 104 105
g facade_completed
f 26 14 105 106
g facade_completed
f 27 26 106 107
g facade_completed
f 28 27 107 108
g facade_completed
f 29 28 108 70
g roof_step_or_fixture_side
f 56 55 20 19
g roof_step_or_fixture_side
f 55 54 53 20
g roof_step_or_fixture_side
f 54 57 21 53
g roof_step_or_fixture_side
f 57 56 19 21
g roof_step_or_fixture_side
f 60 59 23 22
g roof_step_or_fixture_side
f 59 58 49 23
g roof_step_or_fixture_side
f 58 61 24 49
g roof_step_or_fixture_side
f 61 60 22 24
g roof_step_or_fixture_side
f 64 63 16 15
g roof_step_or_fixture_side
f 63 62 17 16
g roof_step_or_fixture_side
f 62 65 18 17
g roof_step_or_fixture_side
f 65 64 15 18
g roof_step_or_fixture_side
f 68 67 50 25
g roof_step_or_fixture_side
f 67 66 51 50
g roof_step_or_fixture_side
f 66 69 52 51
g roof_step_or_fixture_side
f 69 68 25 52
g ground_assumed
f 108 71 70
g ground_assumed
f 108 72 71
g ground_assumed
f 108 73 72
g ground_assumed
f 73 75 74
g ground_assumed
f 73 76 75
g ground_assumed
f 73 77 76
g ground_assumed
f 77 79 78
g ground_assumed
f 77 80 79
g ground_assumed
f 77 81 80
g ground_assumed
f 81 83 82
g ground_assumed
f 83 85 84
g ground_assumed
f 83 86 85
g ground_assumed
f 83 87 86
g ground_assumed
f 83 88 87
g ground_assumed
f 83 89 88
g ground_assumed
f 83 90 89
g ground_assumed
f 83 92 90
g ground_assumed
f 83 93 92
g ground_assumed
f 83 94 93
g ground_assumed
f 83 95 94
g ground_assumed
f 83 96 95
g ground_assumed
f 83 97 96
g ground_assumed
f 83 98 97
g ground_assumed
f 83 99 98
g ground_assumed
f 83 100 99
g ground_assumed
f 83 101 100
g ground_assumed
f 83 102 101
g ground_assumed
f 83 103 102
g ground_assumed
f 83 104 103
g ground_assumed
f 83 105 104
g ground_assumed
f 83 106 105
g ground_assumed
f 83 107 106
g ground_assumed
f 83 108 107
g ground_assumed
f 108 77 73
g ground_assumed
f 108 81 77
g ground_assumed
f 108 83 81
