# Source coordinates; no display transform
v -0.300243001053 0.283833343172 0.326903529176
v -0.491115528981 0.13140919385 0.316069205481
v -0.366645227175 -0.0244582409561 0.312101414857
v -0.309193993273 -0.0895619425951 0.310565627655
v -0.235736692919 -0.17856350061 0.308353018186
v -0.186971379817 -0.241278006398 0.306727262434
v -0.0921654809262 -0.35972768926 0.303716792892
v -0.0162950977809 -0.455662749248 0.301258189121
v -0.00205473262191 -0.489929370707 0.300093930259
v 0.0224566637388 -0.498842637368 0.300253983189
v 0.0725601788856 -0.489951541247 0.301752912371
v 0.0814744783241 -0.46426053887 0.303061634959
v 0.113241907157 -0.4519831979 0.304299004737
v 0.156880310305 -0.417135089823 0.306776011727
v 0.00878841773643 -0.314990215428 0.307896319142
v -0.0488456246469 -0.361014753245 0.304624890459
v -0.100627620436 -0.296170957245 0.306275566288
v -0.0429935780525 -0.250146419428 0.309546994971
v -0.123219456732 -0.24446745298 0.308007683214
v -0.159604120019 -0.273522977177 0.305942413663
v -0.166922490423 -0.18974050482 0.309400822673
v -0.115932670283 -0.0941298976517 0.314667632113
v -0.177409515322 -0.143223163771 0.311178077856
v -0.159578225195 -0.0394749270745 0.316058939264
v 0.1167642898 -0.271763767308 0.312166752562
v 0.353543232719 -0.258947444754 0.317988260927
v 0.395078152256 -0.227763387198 0.320260105797
v 0.397431957069 -0.204731145972 0.32130796243
v 0.458704865638 -0.15580073641 0.324785940795
v 0.46842985714 -0.121538314071 0.326483169819
v 0.441254324446 -0.143239747424 0.324940629748
v 0.391957643414 -0.118755707855 0.324902179371
v 0.385258095146 -0.0082184389493 0.329530742398
v 0.359731129534 0.023747601064 0.33034447589
v 0.319155772006 -0.00865446544734 0.328041333788
v 0.271992187911 0.0149789650058 0.328013573189
v 0.260689254452 0.151028064481 0.333642389885
v 0.229957265787 0.189512073666 0.334622046029
v 0.201643953402 0.145297608159 0.332081143037
v 0.152029982623 0.17250796832 0.332153470134
v 0.142008471814 0.270582354151 0.336169463521
v 0.0320411653192 0.330677147431 0.336320444566
v 0.0207517581183 0.429232158343 0.340329004738
v -0.00810259030064 0.465364900138 0.341248806591
v -0.0396567586482 0.44016684085 0.339457726043
v -0.0911444305125 0.470576407299 0.339626644426
v -0.119187692783 0.448182035288 0.338034850238
v -0.277132197991 0.330134257801 0.32941887299
v -0.221055070234 -0.0885681931429 0.312569385007
v 0.0736737159306 -0.306174397973 0.309720841539
v 0.037238554864 -0.26054861408 0.310882300049
v 0.0803291286823 -0.226137983415 0.313328211072
v -0.203307153709 -0.218796028965 0.307335553122
v -0.203307153709 -0.218796028965 0.348078108947
v -0.159604120019 -0.273522977177 0.348078108947
v -0.123219456732 -0.24446745298 0.348078108947
v -0.166922490423 -0.18974050482 0.348078108947
v -0.221055070234 -0.0885681931429 0.34265159302
v -0.177409515322 -0.143223163771 0.34265159302
v -0.115932670283 -0.0941298976517 0.34265159302
v -0.159578225195 -0.0394749270745 0.34265159302
v -0.100627620436 -0.296170957245 0.348052415234
v -0.0488456246469 -0.361014753245 0.348052415234
v 0.00878841773643 -0.314990215428 0.348052415234
v -0.0429935780525 -0.250146419428 0.348052415234
v 0.037238554864 -0.26054861408 0.347241778028
v 0.0736737159306 -0.306174397973 0.347241778028
v 0.1167642898 -0.271763767308 0.347241778028
v 0.0803291286823 -0.226137983415 0.347241778028
v 0.458704865638 -0.15580073641 -0.324072353541
v 0.46842985714 -0.121538314071 -0.324072353541
v 0.441254324446 -0.143239747424 -0.324072353541
v 0.391957643414 -0.118755707855 -0.324072353541
v 0.385258095146 -0.0082184389493 -0.324072353541
v 0.359731129534 0.023747601064 -0.324072353541
v 0.319155772006 -0.00865446544734 -0.324072353541
v 0.271992187911 0.0149789650058 -0.324072353541
v 0.260689254452 0.151028064481 -0.324072353541
v 0.229957265787 0.189512073666 -0.324072353541
v 0.201643953402 0.145297608159 -0.324072353541
v 0.152029982623 0.17250796832 -0.324072353541
v 0.142008471814 0.270582354151 -0.324072353541
v 0.0320411653192 0.330677147431 -0.324072353541
v 0.0207517581183 0.429232158343 -0.324072353541
v -0.00810259030064 0.465364900138 -0.324072353541
v -0.0396567586482 0.44016684085 -0.324072353541
v -0.0911444305125 0.470576407299 -0.324072353541
v -0.119187692783 0.448182035288 -0.324072353541
v -0.277132197991 0.330134257801 -0.324072353541
v -0.300243001053 0.283833343172 -0.324072353541
v -0.348907838055 0.2449713002 0.324141211298
v -0.348907838055 0.2449713002 -0.324072353541
v -0.491115528981 0.13140919385 -0.324072353541
v -0.366645227175 -0.0244582409561 -0.324072353541
v -0.309193993273 -0.0895619425951 -0.324072353541
v -0.235736692919 -0.17856350061 -0.324072353541
v -0.186971379817 -0.241278006398 -0.324072353541
v -0.0921654809262 -0.35972768926 -0.324072353541
v -0.0162950977809 -0.455662749248 -0.324072353541
v -0.00205473262191 -0.489929370707 -0.324072353541
v 0.0224566637388 -0.498842637368 -0.324072353541
v 0.0725601788856 -0.489951541247 -0.324072353541
v 0.0814744783241 -0.46426053887 -0.324072353541
v 0.113241907157 -0.4519831979 -0.324072353541
v 0.156880310305 -0.417135089823 -0.324072353541
v 0.353543232719 -0.258947444754 -0.324072353541
v 0.395078152256 -0.227763387198 -0.324072353541
v 0.397431957069 -0.204731145972 -0.324072353541
g roof
f 1 91 2 3
g roof
f 1 3 4
g roof
f 1 4 5
g roof
f 5 6 7
g roof
f 8 9 10
g roof
f 8 10 11
g roof
f 8 11 12
g roof
f 8 12 13
g roof
f 8 13 14
g roof
f 8 14 15
g roof
f 8 15 16
g roof
f 8 16 17
g roof
f 18 19 20
g roof
f 21 19 18
g roof
f 18 15 14
g roof
f 18 14 22
g roof
f 18 22 23
g roof
f 24 22 14
g roof
f 25 14 26
g roof
f 25 26 27
g roof
f 25 27 28
g roof
f 25 28 29
g roof
f 29 30 31
g roof
f 29 31 32
g roof
f 32 33 34
g roof
f 32 34 35
g roof
f 32 35 36
g roof
f 36 37 38
g roof
f 36 38 39
g roof
f 36 39 40
g roof
f 40 41 42
g roof
f 42 43 44
g roof
f 42 44 45
g roof
f 42 45 46
g roof
f 42 46 47
g roof
f 42 47 48
g roof
f 42 48 1
g roof
f 7 8 17
g roof
f 17 18 20
g roof
f 21 18 23
g roof
f 21 23 49
g roof
f 14 25 50
g roof
f 14 50 51
g roof
f 52 25 29
g roof
f 52 29 32
g roof
f 52 32 36
g roof
f 52 36 40
g roof
f 52 40 42
g roof
f 52 42 1
g roof
f 7 17 20
g roof
f 7 20 53
g roof
f 53 21 49
g roof
f 24 14 51
g roof
f 24 51 52
g roof
f 24 52 1
g roof
f 5 7 53
g roof
f 5 53 49
g roof
f 49 24 1
g roof
f 49 1 5
g roof_fixture
f 54 55 56
g roof_fixture
f 54 56 57
g roof_fixture
f 58 59 60
g roof_fixture
f 58 60 61
g roof_fixture
f 62 63 64
g roof_fixture
f 62 64 65
g roof_fixture
f 66 67 68
g roof_fixture
f 66 68 69
g facade_completed
f 30 29 70 71
g facade_completed
f 31 30 71 72
g facade_completed
f 32 31 72 73
g facade_completed
f 33 32 73 74
g facade_completed
f 34 33 74 75
g facade_completed
f 35 34 75 76
g facade_completed
f 36 35 76 77
g facade_completed
f 37 36 77 78
g facade_completed
f 38 37 78 79
g facade_completed
f 39 38 79 80
g facade_completed
f 40 39 80 81
g facade_completed
f 41 40 81 82
g facade_completed
f 42 41 82 83
g facade_completed
f 43 42 83 84
g facade_completed
f 44 43 84 85
g facade_completed
f 45 44 85 86
g facade_completed
f 46 45 86 87
g facade_completed
f 47 46 87 88
g facade_completed
f 48 47 88 89
g facade_completed
f 1 48 89 90
g facade_completed
f 91 1 90 92
g facade_completed
f 2 91 92 93
g facade_completed
f 3 2 93 94
g facade_completed
f 4 3 94 95
g facade_completed
f 5 4 95 96
g facade_completed
f 6 5 96 97
g facade_completed
f 7 6 97 98
g facade_completed
f 8 7 98 99
g facade_completed
f 9 8 99 100
g facade_completed
f 10 9 100 101
g facade_completed
f 11 10 101 102
g facade_completed
f 12 11 102 103
g facade_completed
f 13 12 103 104
g facade_completed
f 14 13 104 105
g facade_completed
f 26 14 105 106
g facade_completed
f 27 26 106 107
g facade_completed
f 28 27 107 108
g facade_completed
f 29 28 108 70
g roof_step_or_fixture_side
f 56 55 20 19
g roof_step_or_fixture_side
f 55 54 53 20
g roof_step_or_fixture_side
f 54 57 21 53
g roof_step_or_fixture_side
f 57 56 19 21
g roof_step_or_fixture_side
f 60 59 23 22
g roof_step_or_fixture_side
f 59 58 49 23
g roof_step_or_fixture_side
f 58 61 24 49
g roof_step_or_fixture_side
f 61 60 22 24
g roof_step_or_fixture_side
f 64 63 16 15
g roof_step_or_fixture_side
f 63 62 17 16
g roof_step_or_fixture_side
f 62 65 18 17
g roof_step_or_fixture_side
f 65 64 15 18
g roof_step_or_fixture_side
f 68 67 50 25
g roof_step_or_fixture_side
f 67 66 51 50
g roof_step_or_fixture_side
f 66 69 52 51
g roof_step_or_fixture_side
f 69 68 25 52
g ground_assumed
f 108 71 70
g ground_assumed
f 108 72 71
g ground_assumed
f 108 73 72
g ground_assumed
f 73 75 74
g ground_assumed
f 73 76 75
g ground_assumed
f 73 77 76
g ground_assumed
f 77 79 78
g ground_assumed
f 77 80 79
g ground_assumed
f 77 81 80
g ground_assumed
f 81 83 82
g ground_assumed
f 83 85 84
g ground_assumed
f 83 86 85
g ground_assumed
f 83 87 86
g ground_assumed
f 83 88 87
g ground_assumed
f 83 89 88
g ground_assumed
f 83 90 89
g ground_assumed
f 83 92 90
g ground_assumed
f 83 93 92
g ground_assumed
f 83 94 93
g ground_assumed
f 83 95 94
g ground_assumed
f 83 96 95
g ground_assumed
f 83 97 96
g ground_assumed
f 83 98 97
g ground_assumed
f 83 99 98
g ground_assumed
f 83 100 99
g ground_assumed
f 83 101 100
g ground_assumed
f 83 102 101
g ground_assumed
f 83 103 102
g ground_assumed
f 83 104 103
g ground_assumed
f 83 105 104
g ground_assumed
f 83 106 105
g ground_assumed
f 83 107 106
g ground_assumed
f 83 108 107
g ground_assumed
f 108 77 73
g ground_assumed
f 108 81 77
g ground_assumed
f 108 83 81
