# Source coordinates; no display transform
v 2684955.25 1252070.87502 435.55498
v 2684954.75003 1252070.87502 435.555286078
v 2684954.75003 1252070.5 435.555427454
v 2684955.25 1252070.12497 435.55526275
v 2684953.75002 1252064.75003 435.55820725
v 2684953.75002 1252069.24997 435.556510874
v 2684953.24999 1252069.49999 435.556722736
v 2684953.99998 1252069.625 435.556216477
v 2684953.75002 1252064.24999 435.55839575
v 2684953.50001 1252063.87503 435.55869016
v 2684953.75002 1252062.87502 435.558914083
v 2684953.99998 1252063.12498 435.558666832
v 2684954.25 1252063.12498 435.558513776
v 2684954.50001 1252062.87502 435.558454949
v 2684954.75003 1252063.12498 435.558207663
v 2684954.75003 1252063.87503 435.557924913
v 2684954.25 1252064.12499 435.558136797
v 2684954.75003 1252064.50001 435.557689309
v 2684954.75003 1252066.125 435.557076725
v 2684953.99998 1252066.125 435.557535894
v 2684953.99998 1252067 435.55720604
v 2684955.25 1252063.12498 435.557901585
v 2684954.99999 1252063.5 435.557913266
v 2684954.99999 1252064.12499 435.557677662
v 2684955.50002 1252063.75002 435.557512903
v 2684955.50002 1252062.87502 435.557842758
v 2684955.74998 1252063.12498 435.557595507
v 2684956.25001 1252063.12498 435.557289394
v 2684955.99999 1252063.375 435.5573482
v 2684955.99999 1252064.75003 435.556829846
v 2684956.25001 1252064.99999 435.55658256
v 2684956.25001 1252065.37501 435.556441185
v 2684955.74998 1252066.125 435.556464568
v 2684955.74998 1252066.50002 435.556323193
v 2684955.99999 1252066.87499 435.556028783
v 2684955.99999 1252068.00001 435.555604679
v 2684956.25001 1252068.37497 435.555310268
v 2684955.74998 1252068.75 435.555475005
v 2684955.50002 1252068.37497 435.555769403
v 2684955.25 1252069.75001 435.555404105
v 2684955.74998 1252069.625 435.555145151
v 2684955.74998 1252070.00002 435.555003776
v 2684954.99999 1252069.75001 435.55555716
v 2684953.99998 1252070.5 435.555886623
v 2684953.99998 1252070.87502 435.555745247
v 2684953.50001 1252071.12498 435.555957096
v 2684952.99997 1252070.75001 435.556404563
v 2684952.99997 1252070.5 435.556498813
v 2684953.50001 1252070.37499 435.556239826
v 2684953.24999 1252069.87501 435.556581361
v 2684952.24998 1252070.37499 435.557005073
v 2684952.24998 1252070.75001 435.556863698
v 2684951.75001 1252070.75001 435.557169776
v 2684951.75001 1252070.37499 435.557311152
v 2684952.24998 1252070.00002 435.557146427
v 2684951.00002 1252070.37499 435.557770286
v 2684951.00002 1252070.75001 435.557628911
v 2684950.00001 1252070.87502 435.558193977
v 2684950.00001 1252070.5 435.558335352
v 2684950.49998 1252070.12497 435.558170649
v 2684951.00002 1252070.00002 435.55791164
v 2684950.49998 1252069.00001 435.558594732
v 2684950.25002 1252069.625 435.55851215
v 2684949.74999 1252069.75001 435.558771137
v 2684949.74999 1252070.12497 435.558629784
v 2684949.25002 1252070.5 435.558794486
v 2684949.25002 1252070.87502 435.558653111
v 2684948.74999 1252070.75001 435.559006349
v 2684948.74999 1252070.37499 435.559147725
v 2684949.25002 1252070.12497 435.558935862
v 2684949 1252069.625 435.559277397
v 2684948.50003 1252070.00002 435.559442101
v 2684947.99999 1252070.12497 435.559701109
v 2684947.99999 1252070.5 435.559559734
v 2684947.50002 1252070.87502 435.559724437
v 2684946.99999 1252070.75001 435.560077675
v 2684946.99999 1252070.37499 435.56021905
v 2684947.50002 1252070.12497 435.560007187
v 2684947.25 1252069.625 435.560348723
v 2684946.25 1252070.37499 435.560678184
v 2684945.99998 1252069.49999 435.561161095
v 2684945.50001 1252069.625 435.561420048
v 2684945.50001 1252068.87501 435.561702778
v 2684945.24999 1252068.49998 435.561997209
v 2684945.75002 1252068.00001 435.561879576
v 2684945.75002 1252066.62498 435.56239793
v 2684945.24999 1252065.50002 435.563128126
v 2684945.24999 1252064.50001 435.563505106
v 2684945.75002 1252064.87498 435.563057639
v 2684945.75002 1252065.50002 435.562822014
v 2684945.50001 1252065.87499 435.562833716
v 2684945.75002 1252066.25001 435.562539284
v 2684946.25 1252065.74998 435.562421706
v 2684945.99998 1252064.50001 435.563045971
v 2684946.99999 1252066.74998 435.561585592
v 2684946.74997 1252066.50002 435.561832877
v 2684945.99998 1252064.12499 435.563187346
v 2684945.75002 1252063.75002 435.563481722
v 2684945.24999 1252064.12499 435.563646481
v 2684945.24999 1252063.75002 435.563787835
v 2684945.50001 1252063.375 435.563776154
v 2684945.50001 1252062.75001 435.564011758
v 2684948.74999 1252063.87503 435.561598059
v 2684949.25002 1252062.87502 435.561668926
v 2684949.49998 1252062.75001 435.561563028
v 2684949.74999 1252066.50002 435.559996305
v 2684949.25002 1252066.74998 435.560208154
v 2684949.25002 1252067 435.560113904
v 2684949.74999 1252067.25002 435.559713575
v 2684949.74999 1252068.49998 435.559242367
v 2684949 1252068.49998 435.559701501
v 2684949.74999 1252069.24997 435.558959638
v 2684950.00001 1252066.87499 435.559701894
v 2684950.49998 1252063.75002 435.560573858
v 2684951.00002 1252062.99997 435.560550496
v 2684952.00002 1252062.75001 435.560032534
v 2684951.24998 1252067 435.558889556
v 2684952.75001 1252062.99997 435.55947917
v 2684952.75001 1252068.49998 435.557405794
v 2684952.00002 1252068.49998 435.557864929
v 2684952.99997 1252064.24999 435.558854919
v 2684952.99997 1252066.87499 435.557865356
v 2684953.50001 1252066.50002 435.557700597
v 2684952.99997 1252066.25001 435.55810096
v 2684952.99997 1252064.62502 435.558713543
v 2684953.24999 1252064.99999 435.558419133
v 2684954.25 1252067.37502 435.556911608
v 2684954.75003 1252067 435.556746871
v 2684954.99999 1252068.75 435.55593414
v 2684954.99999 1252069.37498 435.555698536
v 2684952.75001 1252070.00002 435.556840315
v 2684952.00002 1252069.625 435.557440824
v 2684951.00002 1252069.24997 435.558194391
v 2684946.25 1252065.99999 435.562327456
v 2684947.50002 1252063.87503 435.562363272
v 2684948.25001 1252064.24999 435.561762783
v 2684948.74999 1252064.62502 435.561315329
v 2684949 1252064.24999 435.561303648
v 2684950.00001 1252064.12499 435.560738582
v 2684950.00001 1252064.50001 435.560597207
v 2684950.75 1252064.12499 435.560279448
v 2684951.24998 1252067.62498 435.558653952
v 2684951.75001 1252067.25002 435.558489194
v 2684952.00002 1252069.24997 435.557582199
v 2684952.75001 1252069.37498 435.55707594
v 2684953.50001 1252070.00002 435.55638118
v 2684946.99999 1252064.12499 435.562575155
v 2684947.25 1252064.62502 435.562233599
v 2684947.74998 1252064.24999 435.562068896
v 2684949 1252069.24997 435.559418772
v 2684950.25002 1252064.87498 435.560302797
v 2684950.75 1252064.50001 435.560138072
v 2684946.25 1252066.74998 435.562044727
v 2684949.25002 1252069.625 435.559124341
v 2684946.50001 1252067.25002 435.561703171
v 2684946.99999 1252067 435.561491342
v 2684952.24998 1252069.625 435.557287803
v 2684946.25 1252070.625 435.560583935
v 2684945.75002 1252070.87502 435.560795763
v 2684945.75002 1252070.43749 435.5609607
v 2684946.25 1252070.43749 435.560654622
v 2684954.75003 1252070.5 426.739132019
v 2684955.25 1252070.12497 426.739132019
v 2684955.25 1252070.87502 426.739132019
v 2684954.75003 1252070.87502 426.739132019
v 2684949.25002 1252062.87502 426.739132019
v 2684949.49998 1252062.75001 426.739132019
v 2684951.00002 1252062.99997 426.739132019
v 2684952.00002 1252062.75001 426.739132019
v 2684952.75001 1252062.99997 426.739132019
v 2684953.75002 1252062.87502 426.739132019
v 2684953.99998 1252063.12498 426.739132019
v 2684954.25 1252063.12498 426.739132019
v 2684954.50001 1252062.87502 426.739132019
v 2684954.75003 1252063.12498 426.739132019
v 2684955.25 1252063.12498 426.739132019
v 2684955.50002 1252062.87502 426.739132019
v 2684955.74998 1252063.12498 426.739132019
v 2684956.25001 1252063.12498 426.739132019
v 2684955.99999 1252063.375 426.739132019
v 2684955.99999 1252064.75003 426.739132019
v 2684956.25001 1252064.99999 426.739132019
v 2684956.25001 1252065.37501 426.739132019
v 2684955.74998 1252066.125 426.739132019
v 2684955.74998 1252066.50002 426.739132019
v 2684955.99999 1252066.87499 426.739132019
v 2684955.99999 1252068.00001 426.739132019
v 2684956.25001 1252068.37497 426.739132019
v 2684955.74998 1252068.75 426.739132019
v 2684955.50002 1252068.37497 426.739132019
v 2684954.99999 1252068.75 426.739132019
v 2684954.99999 1252069.37498 426.739132019
v 2684955.25 1252069.75001 426.739132019
v 2684955.74998 1252069.625 426.739132019
v 2684955.74998 1252070.00002 426.739132019
v 2684954.99999 1252069.75001 426.739132019
v 2684953.99998 1252070.5 426.739132019
v 2684953.99998 1252070.87502 426.739132019
v 2684953.50001 1252071.12498 426.739132019
v 2684952.99997 1252070.75001 426.739132019
v 2684952.99997 1252070.5 426.739132019
v 2684953.50001 1252070.37499 426.739132019
v 2684953.24999 1252069.87501 426.739132019
v 2684952.75001 1252070.00002 426.739132019
v 2684952.24998 1252070.37499 426.739132019
v 2684952.24998 1252070.75001 426.739132019
v 2684951.75001 1252070.75001 426.739132019
v 2684951.75001 1252070.37499 426.739132019
v 2684952.24998 1252070.00002 426.739132019
v 2684952.00002 1252069.625 426.739132019
v 2684951.00002 1252070.37499 426.739132019
v 2684951.00002 1252070.75001 426.739132019
v 2684950.00001 1252070.87502 426.739132019
v 2684950.00001 1252070.5 426.739132019
v 2684950.49998 1252070.12497 426.739132019
v 2684951.00002 1252070.00002 426.739132019
v 2684951.00002 1252069.24997 426.739132019
v 2684950.49998 1252069.00001 426.739132019
v 2684950.25002 1252069.625 426.739132019
v 2684949.74999 1252069.75001 426.739132019
v 2684949.74999 1252070.12497 426.739132019
v 2684949.25002 1252070.5 426.739132019
v 2684949.25002 1252070.87502 426.739132019
v 2684948.74999 1252070.75001 426.739132019
v 2684948.74999 1252070.37499 426.739132019
v 2684949.25002 1252070.12497 426.739132019
v 2684949 1252069.625 426.739132019
v 2684948.50003 1252070.00002 426.739132019
v 2684947.99999 1252070.12497 426.739132019
v 2684947.99999 1252070.5 426.739132019
v 2684947.50002 1252070.87502 426.739132019
v 2684946.99999 1252070.75001 426.739132019
v 2684946.99999 1252070.37499 426.739132019
v 2684947.50002 1252070.12497 426.739132019
v 2684947.25 1252069.625 426.739132019
v 2684946.25 1252070.37499 426.739132019
v 2684945.99998 1252069.49999 426.739132019
v 2684945.50001 1252069.625 426.739132019
v 2684945.50001 1252068.87501 426.739132019
v 2684945.24999 1252068.49998 426.739132019
v 2684945.75002 1252068.00001 426.739132019
v 2684945.75002 1252066.62498 426.739132019
v 2684945.24999 1252065.50002 426.739132019
v 2684945.24999 1252064.50001 426.739132019
v 2684945.75002 1252064.87498 426.739132019
v 2684945.99998 1252064.50001 426.739132019
v 2684945.99998 1252064.12499 426.739132019
v 2684945.75002 1252063.75002 426.739132019
v 2684945.24999 1252064.12499 426.739132019
v 2684945.24999 1252063.75002 426.739132019
v 2684945.50001 1252063.375 426.739132019
v 2684945.50001 1252062.75001 426.739132019
v 2684946.25 1252065.99999 426.739132019
v 2684946.25 1252065.74998 426.739132019
v 2684945.75002 1252065.50002 426.739132019
v 2684945.50001 1252065.87499 426.739132019
v 2684945.75002 1252066.25001 426.739132019
v 2684953.50001 1252070.00002 426.739132019
v 2684953.99998 1252069.625 426.739132019
v 2684953.75002 1252069.24997 426.739132019
v 2684953.24999 1252069.49999 426.739132019
v 2684949.74999 1252068.49998 426.739132019
v 2684949 1252068.49998 426.739132019
v 2684949 1252069.24997 426.739132019
v 2684949.25002 1252069.625 426.739132019
v 2684949.74999 1252069.24997 426.739132019
v 2684952.00002 1252069.24997 426.739132019
v 2684952.24998 1252069.625 426.739132019
v 2684952.75001 1252069.37498 426.739132019
v 2684952.75001 1252068.49998 426.739132019
v 2684952.00002 1252068.49998 426.739132019
v 2684951.24998 1252067 426.739132019
v 2684951.24998 1252067.62498 426.739132019
v 2684951.75001 1252067.25002 426.739132019
v 2684953.99998 1252067 426.739132019
v 2684954.25 1252067.37502 426.739132019
v 2684954.75003 1252067 426.739132019
v 2684954.75003 1252066.125 426.739132019
v 2684953.99998 1252066.125 426.739132019
v 2684946.74997 1252066.50002 426.739132019
v 2684946.25 1252066.74998 426.739132019
v 2684946.50001 1252067.25002 426.739132019
v 2684946.99999 1252067 426.739132019
v 2684946.99999 1252066.74998 426.739132019
v 2684950.00001 1252066.87499 426.739132019
v 2684949.74999 1252066.50002 426.739132019
v 2684949.25002 1252066.74998 426.739132019
v 2684949.25002 1252067 426.739132019
v 2684949.74999 1252067.25002 426.739132019
v 2684952.99997 1252066.87499 426.739132019
v 2684953.50001 1252066.50002 426.739132019
v 2684952.99997 1252066.25001 426.739132019
v 2684953.24999 1252064.99999 426.739132019
v 2684953.75002 1252064.75003 426.739132019
v 2684953.75002 1252064.24999 426.739132019
v 2684953.50001 1252063.87503 426.739132019
v 2684952.99997 1252064.24999 426.739132019
v 2684952.99997 1252064.62502 426.739132019
v 2684950.25002 1252064.87498 426.739132019
v 2684950.75 1252064.50001 426.739132019
v 2684950.75 1252064.12499 426.739132019
v 2684950.49998 1252063.75002 426.739132019
v 2684950.00001 1252064.12499 426.739132019
v 2684950.00001 1252064.50001 426.739132019
v 2684947.74998 1252064.24999 426.739132019
v 2684947.50002 1252063.87503 426.739132019
v 2684946.99999 1252064.12499 426.739132019
v 2684947.25 1252064.62502 426.739132019
v 2684948.74999 1252064.62502 426.739132019
v 2684949 1252064.24999 426.739132019
v 2684948.74999 1252063.87503 426.739132019
v 2684948.25001 1252064.24999 426.739132019
v 2684954.25 1252064.12499 426.739132019
v 2684954.75003 1252064.50001 426.739132019
v 2684954.75003 1252063.87503 426.739132019
v 2684954.99999 1252063.5 426.739132019
v 2684954.99999 1252064.12499 426.739132019
v 2684955.50002 1252063.75002 426.739132019
v 2684945.75002 1252070.43749 426.739132019
v 2684946.25 1252070.43749 426.739132019
v 2684946.25 1252070.625 426.739132019
v 2684945.75002 1252070.87502 426.739132019
g roof
f 1 2 3
g roof
f 1 3 4
g roof
f 5 6 7
g roof
f 8 6 5 9
g roof
f 9 10 11
g roof
f 9 11 12
g roof
f 9 12 13
g roof
f 9 13 14
g roof
f 9 14 15
g roof
f 9 15 16
g roof
f 9 16 17
g roof
f 9 17 18
g roof
f 9 18 19
g roof
f 9 19 20
g roof
f 9 20 21
g roof
f 15 22 23
g roof
f 15 23 24
g roof
f 25 23 22
g roof
f 25 22 26
g roof
f 25 26 27
g roof
f 25 27 28
g roof
f 25 28 29
g roof
f 25 29 30
g roof
f 30 31 32
g roof
f 30 32 33
g roof
f 34 35 36
g roof
f 36 37 38
g roof
f 36 38 39
g roof
f 40 41 42
g roof
f 40 42 4
g roof
f 40 4 43
g roof
f 44 45 46
g roof
f 44 46 47
g roof
f 44 47 48
g roof
f 44 48 49
g roof
f 44 49 50
g roof
f 51 52 53
g roof
f 51 53 54
g roof
f 51 54 55
g roof
f 56 57 58
g roof
f 56 58 59
g roof
f 56 59 60
g roof
f 56 60 61
g roof
f 62 63 64
g roof
f 64 65 66
g roof
f 66 67 68
g roof
f 66 68 69
g roof
f 66 69 70
g roof
f 71 72 73
g roof
f 73 74 75
g roof
f 73 75 76
g roof
f 73 76 77
g roof
f 73 77 78
g roof
f 73 78 79
g roof
f 79 80 81
g roof
f 81 82 83
g roof
f 81 83 84
g roof
f 81 84 85
g roof
f 81 85 86
g roof
f 87 88 89
g roof
f 87 89 90
g roof
f 87 90 91
g roof
f 87 91 92
g roof
f 93 90 89
g roof
f 93 89 94
g roof
f 95 96 97
g roof
f 98 99 100
g roof
f 98 100 101
g roof
f 98 101 102
g roof
f 103 102 104
g roof
f 103 104 105
g roof
f 105 106 107
g roof
f 108 109 110
g roof
f 108 110 111
g roof
f 112 110 109 113
g roof
f 113 106 105
g roof
f 114 105 115
g roof
f 114 115 116
g roof
f 117 116 118
g roof
f 118 119 120
g roof
f 118 11 10
g roof
f 118 10 121
g roof
f 118 121 125 124 122
g roof
f 123 124 125
g roof
f 123 125 126
g roof
f 123 126 5
g roof
f 123 5 7
g roof
f 8 9 21
g roof
f 8 21 127
g roof
f 8 127 128
g roof
f 128 19 18 16 15 24
g roof
f 128 24 25
g roof
f 128 25 30
g roof
f 128 30 33
g roof
f 128 33 34
g roof
f 128 34 36
g roof
f 128 36 39
g roof
f 128 39 129
g roof
f 128 129 130
g roof
f 130 40 43
g roof
f 130 43 44
g roof
f 131 51 55
g roof
f 131 55 132
g roof
f 132 56 61
g roof
f 132 61 133
g roof
f 132 133 62
g roof
f 64 66 70
g roof
f 64 70 71
g roof
f 71 73 79
g roof
f 71 79 81
g roof
f 71 81 86
g roof
f 86 87 92
g roof
f 86 92 134
g roof
f 97 98 102
g roof
f 135 102 103
g roof
f 135 103 136
g roof
f 135 136 137
g roof
f 138 103 105
g roof
f 138 105 107
g roof
f 138 107 108
g roof
f 138 108 111
g roof
f 105 114 139
g roof
f 105 139 140
g roof
f 141 114 116
g roof
f 141 116 117
g roof
f 141 117 142
g roof
f 143 117 118
g roof
f 143 118 120
g roof
f 143 120 144
g roof
f 145 119 118 122
g roof
f 145 122 123
g roof
f 145 123 7
g roof
f 145 7 146
g roof
f 8 128 130
g roof
f 8 130 44
g roof
f 50 131 132
g roof
f 93 94 97
g roof
f 93 97 96
g roof
f 95 97 102
g roof
f 102 135 147
g roof
f 102 147 148
g roof
f 149 135 137
g roof
f 137 138 111
g roof
f 137 111 150
g roof
f 113 105 140
g roof
f 113 140 151
g roof
f 113 151 152
g roof
f 152 141 142
g roof
f 142 143 144
g roof
f 146 8 44
g roof
f 146 44 50
g roof
f 134 93 96
g roof
f 134 96 153
g roof
f 95 102 148
g roof
f 95 148 149
g roof
f 95 149 137
g roof
f 95 137 150
g roof
f 95 150 154
g roof
f 112 113 152
g roof
f 112 152 142
g roof
f 145 146 50
g roof
f 86 134 153
g roof
f 86 153 155
g roof
f 156 95 154
g roof
f 157 145 50
g roof
f 157 50 132
g roof
f 157 132 62
g roof
f 71 86 155
g roof
f 71 155 156
g roof
f 71 156 154
g roof
f 144 157 62
g roof
f 64 71 154
g roof
f 64 154 112
g roof
f 64 112 142
g roof
f 142 144 62
g roof
f 142 62 64
g roof
f 158 159 160
g roof
f 158 160 161
g facade_completed
f 4 3 162 163
g facade_completed
f 1 4 163 164
g facade_completed
f 2 1 164 165
g facade_completed
f 3 2 165 162
g facade_completed
f 105 104 166 167
g facade_completed
f 115 105 167 168
g facade_completed
f 116 115 168 169
g facade_completed
f 118 116 169 170
g facade_completed
f 11 118 170 171
g facade_completed
f 12 11 171 172
g facade_completed
f 13 12 172 173
g facade_completed
f 14 13 173 174
g facade_completed
f 15 14 174 175
g facade_completed
f 22 15 175 176
g facade_completed
f 26 22 176 177
g facade_completed
f 27 26 177 178
g facade_completed
f 28 27 178 179
g facade_completed
f 29 28 179 180
g facade_completed
f 30 29 180 181
g facade_completed
f 31 30 181 182
g facade_completed
f 32 31 182 183
g facade_completed
f 33 32 183 184
g facade_completed
f 34 33 184 185
g facade_completed
f 35 34 185 186
g facade_completed
f 36 35 186 187
g facade_completed
f 37 36 187 188
g facade_completed
f 38 37 188 189
g facade_completed
f 39 38 189 190
g facade_completed
f 129 39 190 191
g facade_completed
f 130 129 191 192
g facade_completed
f 40 130 192 193
g facade_completed
f 41 40 193 194
g facade_completed
f 42 41 194 195
g facade_completed
f 4 42 195 163
g facade_completed
f 43 4 163 196
g facade_completed
f 44 43 196 197
g facade_completed
f 45 44 197 198
g facade_completed
f 46 45 198 199
g facade_completed
f 47 46 199 200
g facade_completed
f 48 47 200 201
g facade_completed
f 49 48 201 202
g facade_completed
f 50 49 202 203
g facade_completed
f 131 50 203 204
g facade_completed
f 51 131 204 205
g facade_completed
f 52 51 205 206
g facade_completed
f 53 52 206 207
g facade_completed
f 54 53 207 208
g facade_completed
f 55 54 208 209
g facade_completed
f 132 55 209 210
g facade_completed
f 56 132 210 211
g facade_completed
f 57 56 211 212
g facade_completed
f 58 57 212 213
g facade_completed
f 59 58 213 214
g facade_completed
f 60 59 214 215
g facade_completed
f 61 60 215 216
g facade_completed
f 133 61 216 217
g facade_completed
f 62 133 217 218
g facade_completed
f 63 62 218 219
g facade_completed
f 64 63 219 220
g facade_completed
f 65 64 220 221
g facade_completed
f 66 65 221 222
g facade_completed
f 67 66 222 223
g facade_completed
f 68 67 223 224
g facade_completed
f 69 68 224 225
g facade_completed
f 70 69 225 226
g facade_completed
f 71 70 226 227
g facade_completed
f 72 71 227 228
g facade_completed
f 73 72 228 229
g facade_completed
f 74 73 229 230
g facade_completed
f 75 74 230 231
g facade_completed
f 76 75 231 232
g facade_completed
f 77 76 232 233
g facade_completed
f 78 77 233 234
g facade_completed
f 79 78 234 235
g facade_completed
f 80 79 235 236
g facade_completed
f 81 80 236 237
g facade_completed
f 82 81 237 238
g facade_completed
f 83 82 238 239
g facade_completed
f 84 83 239 240
g facade_completed
f 85 84 240 241
g facade_completed
f 86 85 241 242
g facade_completed
f 87 86 242 243
g facade_completed
f 88 87 243 244
g facade_completed
f 89 88 244 245
g facade_completed
f 94 89 245 246
g facade_completed
f 97 94 246 247
g facade_completed
f 98 97 247 248
g facade_completed
f 99 98 248 249
g facade_completed
f 100 99 249 250
g facade_completed
f 101 100 250 251
g facade_completed
f 102 101 251 252
g facade_completed
f 104 102 252 166
g facade_completed
f 93 134 253 254
g facade_completed
f 90 93 254 255
g facade_completed
f 91 90 255 256
g facade_completed
f 92 91 256 257
g facade_completed
f 134 92 257 253
g facade_completed
f 8 146 258 259
g facade_completed
f 6 8 259 260
g facade_completed
f 7 6 260 261
g facade_completed
f 146 7 261 258
g facade_completed
f 111 110 262 263
g facade_completed
f 150 111 263 264
g facade_completed
f 154 150 264 265
g facade_completed
f 112 154 265 266
g facade_completed
f 110 112 266 262
g facade_completed
f 157 144 267 268
g facade_completed
f 145 157 268 269
g facade_completed
f 119 145 269 270
g facade_completed
f 120 119 270 271
g facade_completed
f 144 120 271 267
g facade_completed
f 142 117 272 273
g facade_completed
f 143 142 273 274
g facade_completed
f 117 143 274 272
g facade_completed
f 127 21 275 276
g facade_completed
f 128 127 276 277
g facade_completed
f 19 128 277 278
g facade_completed
f 20 19 278 279
g facade_completed
f 21 20 279 275
g facade_completed
f 153 96 280 281
g facade_completed
f 155 153 281 282
g facade_completed
f 156 155 282 283
g facade_completed
f 95 156 283 284
g facade_completed
f 96 95 284 280
g facade_completed
f 106 113 285 286
g facade_completed
f 107 106 286 287
g facade_completed
f 108 107 287 288
g facade_completed
f 109 108 288 289
g facade_completed
f 113 109 289 285
g facade_completed
f 123 122 290 291
g facade_completed
f 124 123 291 292
g facade_completed
f 122 124 292 290
g facade_completed
f 5 126 293 294
g facade_completed
f 9 5 294 295
g facade_completed
f 10 9 295 296
g facade_completed
f 121 10 296 297
g facade_completed
f 125 121 297 298
g facade_completed
f 126 125 298 293
g facade_completed
f 152 151 299 300
g facade_completed
f 141 152 300 301
g facade_completed
f 114 141 301 302
g facade_completed
f 139 114 302 303
g facade_completed
f 140 139 303 304
g facade_completed
f 151 140 304 299
g facade_completed
f 135 149 305 306
g facade_completed
f 147 135 306 307
g facade_completed
f 148 147 307 308
g facade_completed
f 149 148 308 305
g facade_completed
f 138 137 309 310
g facade_completed
f 103 138 310 311
g facade_completed
f 136 103 311 312
g facade_completed
f 137 136 312 309
g facade_completed
f 18 17 313 314
g facade_completed
f 16 18 314 315
g facade_completed
f 17 16 315 313
g facade_completed
f 24 23 316 317
g facade_completed
f 25 24 317 318
g facade_completed
f 23 25 318 316
g facade_completed
f 161 160 319 320
g facade_completed
f 158 161 320 321
g facade_completed
f 159 158 321 322
g facade_completed
f 160 159 322 319
g ground_assumed
f 165 163 162
g ground_assumed
f 165 164 163
g ground_assumed
f 294 261 260
g ground_assumed
f 259 295 294 260
g ground_assumed
f 295 171 296
g ground_assumed
f 295 172 171
g ground_assumed
f 295 173 172
g ground_assumed
f 295 174 173
g ground_assumed
f 295 175 174
g ground_assumed
f 295 315 175
g ground_assumed
f 295 313 315
g ground_assumed
f 295 314 313
g ground_assumed
f 295 278 314
g ground_assumed
f 295 279 278
g ground_assumed
f 295 275 279
g ground_assumed
f 175 316 176
g ground_assumed
f 175 317 316
g ground_assumed
f 318 176 316
g ground_assumed
f 318 177 176
g ground_assumed
f 318 178 177
g ground_assumed
f 318 179 178
g ground_assumed
f 318 180 179
g ground_assumed
f 318 181 180
g ground_assumed
f 181 183 182
g ground_assumed
f 181 184 183
g ground_assumed
f 185 187 186
g ground_assumed
f 187 189 188
g ground_assumed
f 187 190 189
g ground_assumed
f 193 195 194
g ground_assumed
f 193 163 195
g ground_assumed
f 193 196 163
g ground_assumed
f 197 199 198
g ground_assumed
f 197 200 199
g ground_assumed
f 197 201 200
g ground_assumed
f 197 202 201
g ground_assumed
f 197 203 202
g ground_assumed
f 205 207 206
g ground_assumed
f 205 208 207
g ground_assumed
f 205 209 208
g ground_assumed
f 211 213 212
g ground_assumed
f 211 214 213
g ground_assumed
f 211 215 214
g ground_assumed
f 211 216 215
g ground_assumed
f 218 220 219
g ground_assumed
f 220 222 221
g ground_assumed
f 222 224 223
g ground_assumed
f 222 225 224
g ground_assumed
f 222 226 225
g ground_assumed
f 227 229 228
g ground_assumed
f 229 231 230
g ground_assumed
f 229 232 231
g ground_assumed
f 229 233 232
g ground_assumed
f 229 234 233
g ground_assumed
f 229 235 234
g ground_assumed
f 235 237 236
g ground_assumed
f 237 239 238
g ground_assumed
f 237 240 239
g ground_assumed
f 237 241 240
g ground_assumed
f 237 242 241
g ground_assumed
f 243 245 244
g ground_assumed
f 243 255 245
g ground_assumed
f 243 256 255
g ground_assumed
f 243 257 256
g ground_assumed
f 254 245 255
g ground_assumed
f 254 246 245
g ground_assumed
f 284 247 280
g ground_assumed
f 248 250 249
g ground_assumed
f 248 251 250
g ground_assumed
f 248 252 251
g ground_assumed
f 311 166 252
g ground_assumed
f 311 167 166
g ground_assumed
f 167 287 286
g ground_assumed
f 288 262 289
g ground_assumed
f 288 263 262
g ground_assumed
f 266 285 289 262
g ground_assumed
f 285 167 286
g ground_assumed
f 302 168 167
g ground_assumed
f 302 169 168
g ground_assumed
f 272 170 169
g ground_assumed
f 170 271 270
g ground_assumed
f 170 296 171
g ground_assumed
f 170 297 296
g ground_assumed
f 170 290 292 298 297
g ground_assumed
f 291 298 292
g ground_assumed
f 291 293 298
g ground_assumed
f 291 294 293
g ground_assumed
f 291 261 294
g ground_assumed
f 259 275 295
g ground_assumed
f 259 276 275
g ground_assumed
f 259 277 276
g ground_assumed
f 277 317 175 315 314 278
g ground_assumed
f 277 318 317
g ground_assumed
f 277 181 318
g ground_assumed
f 277 184 181
g ground_assumed
f 277 185 184
g ground_assumed
f 277 187 185
g ground_assumed
f 277 190 187
g ground_assumed
f 277 191 190
g ground_assumed
f 277 192 191
g ground_assumed
f 192 196 193
g ground_assumed
f 192 197 196
g ground_assumed
f 204 209 205
g ground_assumed
f 204 210 209
g ground_assumed
f 210 216 211
g ground_assumed
f 210 217 216
g ground_assumed
f 210 218 217
g ground_assumed
f 220 226 222
g ground_assumed
f 220 227 226
g ground_assumed
f 227 235 229
g ground_assumed
f 227 237 235
g ground_assumed
f 227 242 237
g ground_assumed
f 242 257 243
g ground_assumed
f 242 253 257
g ground_assumed
f 247 252 248
g ground_assumed
f 306 311 252
g ground_assumed
f 306 312 311
g ground_assumed
f 306 309 312
g ground_assumed
f 310 167 311
g ground_assumed
f 310 287 167
g ground_assumed
f 310 288 287
g ground_assumed
f 310 263 288
g ground_assumed
f 167 303 302
g ground_assumed
f 167 304 303
g ground_assumed
f 301 169 302
g ground_assumed
f 301 272 169
g ground_assumed
f 301 273 272
g ground_assumed
f 274 170 272
g ground_assumed
f 274 271 170
g ground_assumed
f 274 267 271
g ground_assumed
f 269 290 170 270
g ground_assumed
f 269 291 290
g ground_assumed
f 269 261 291
g ground_assumed
f 269 258 261
g ground_assumed
f 259 192 277
g ground_assumed
f 259 197 192
g ground_assumed
f 203 210 204
g ground_assumed
f 254 247 246
g ground_assumed
f 254 280 247
g ground_assumed
f 284 252 247
g ground_assumed
f 252 307 306
g ground_assumed
f 252 308 307
g ground_assumed
f 305 309 306
g ground_assumed
f 309 263 310
g ground_assumed
f 309 264 263
g ground_assumed
f 285 304 167
g ground_assumed
f 285 299 304
g ground_assumed
f 285 300 299
g ground_assumed
f 300 273 301
g ground_assumed
f 273 267 274
g ground_assumed
f 258 197 259
g ground_assumed
f 258 203 197
g ground_assumed
f 253 280 254
g ground_assumed
f 253 281 280
g ground_assumed
f 284 308 252
g ground_assumed
f 284 305 308
g ground_assumed
f 284 309 305
g ground_assumed
f 284 264 309
g ground_assumed
f 284 265 264
g ground_assumed
f 266 300 285
g ground_assumed
f 266 273 300
g ground_assumed
f 269 203 258
g ground_assumed
f 242 281 253
g ground_assumed
f 242 282 281
g ground_assumed
f 283 265 284
g ground_assumed
f 268 203 269
g ground_assumed
f 268 210 203
g ground_assumed
f 268 218 210
g ground_assumed
f 227 282 242
g ground_assumed
f 227 283 282
g ground_assumed
f 227 265 283
g ground_assumed
f 267 218 268
g ground_assumed
f 220 265 227
g ground_assumed
f 220 266 265
g ground_assumed
f 220 273 266
g ground_assumed
f 273 218 267
g ground_assumed
f 273 220 218
g ground_assumed
f 322 320 319
g ground_assumed
f 322 321 320
