# pointcloud_to_mesh 0.5.1; candidate requires geometry validation; coordinates preserved
v -2.016249974 -4.837020285 5.363397712
v -0.611025747 -5.286139947 5.361123869
v 4.011253486 -5.883360908 5.365115408
v 6.181556031 -5.902834031 5.370390624
v 7.522173191 -6.077130446 5.371534200
v 7.979743258 -6.466876368 5.367620000
v 10.645309443 -6.813432151 5.369893788
v 10.811896023 -5.532115906 5.387018692
v 11.062481438 -3.611695470 5.412687591
v 9.662489708 -4.538634888 5.397039387
v 9.442462885 -6.230991753 5.374420889
v 8.615699654 -4.402539544 5.396146452
v 6.136365947 -3.592324497 5.400390382
v 5.681372191 -3.955292818 5.394500365
v 4.014699168 -3.738605204 5.393078656
v 5.397812677 -3.082651350 5.405151871
v -5.313009087 -2.332072942 5.387648105
v -5.509628689 -3.591534724 5.370731538
v -7.781334539 -2.241518001 5.382540123
v -7.690718066 -2.369030494 5.381108994
v -7.294306967 -2.231722667 5.383908537
v -5.398093939 -2.733654774 5.382197179
v -5.934969904 -2.178264872 5.388068323
v -6.270297306 -1.831373850 5.391735382
v -5.896193414 -1.880011872 5.392054501
v -5.888329758 -1.819527829 5.392862875
v -6.376648023 -1.666284550 5.393616197
v -6.382959120 -1.714826942 5.392967424
v -6.437535584 -1.658368432 5.393564259
v -6.517066242 -1.648028486 5.393496417
v -6.553253909 -1.578885860 5.394305422
v 11.367624608 -2.122508035 5.432874846
v 2.292058652 -1.887662519 5.412815035
v 1.524329222 -1.780400170 5.412257224
v 1.574890502 -1.474214512 5.416376818
v 1.445727976 -0.986123475 5.422409481
v 1.059502742 -1.215508774 5.418435762
v 1.009461610 -0.683047515 5.425248309
v 0.552694136 -0.180866696 5.430630016
v -0.294000539 -0.955167134 5.418380859
v -1.293981243 -1.133833755 5.413504608
v -1.562346777 -1.611823452 5.406590868
v -3.033957692 -1.605843156 5.402919763
v -1.187323405 -0.605878562 5.420657627
v -4.783857414 -0.722360359 5.409976950
v -5.321303072 -0.652485936 5.409518496
v -5.514112454 -0.542106382 5.410465971
v -5.642989229 -0.610662852 5.409244091
v -5.821325920 -0.587476929 5.409091966
v -5.837814559 -0.714300837 5.407396953
v -5.890681564 -0.742423585 5.406895722
v -6.407109927 -1.017139479 5.401999466
v -6.594777994 -1.499575081 5.395233363
v -7.105937421 -0.782860708 5.403272704
v -6.513769077 -0.152068427 5.413002968
v -6.405882962 0.677747713 5.424093533
v -1.186970274 -0.179666965 5.426213714
v -0.730597534 -0.686435178 5.420771210
v -0.176137117 -0.604738263 5.423248571
v 0.758433139 0.235281125 5.436578171
v 0.918099101 0.378793613 5.438855456
v 1.202725855 -0.089452600 5.433477506
v 1.106788624 -0.183425796 5.432008263
v 12.162731669 3.772076888 5.511729708
v 1.656768848 0.118486638 5.437344471
v 1.563127071 0.263570448 5.438996915
v 6.325416872 3.066273817 5.487659318
v 5.561860920 2.390174128 5.476901899
v 5.048497341 2.456917591 5.476463989
v 4.705468864 2.278146353 5.473260014
v 5.760055204 3.570875565 5.492795926
v 7.870456119 4.330124526 5.508068301
v 7.540576303 4.361718624 5.507639698
v 6.205314075 4.535318833 5.506500690
v 4.025601541 4.540586601 5.501016350
v -5.910772409 5.832435167 5.492540401
v -7.397834617 6.280352845 5.494590088
v -7.670812038 6.362576313 5.494966345
v -10.277769053 6.654217479 5.492126119
v -10.914990764 1.752967154 5.426620479
v -8.035128130 1.378550246 5.429077066
v -8.361437757 -1.131290740 5.395532821
v -8.191303702 -1.021041288 5.397403229
v -8.315924543 -1.979574128 5.384592353
v -8.147481771 -2.301175003 5.380829771
v -8.487473688 -2.100707877 5.382576476
v -8.677867916 -3.565142873 5.363004174
v -8.528128149 -3.584610850 5.363131905
v -8.147826105 -2.738177796 5.375133055
v 8.395672831 -6.094896409 5.373527954
v -7.408007310 -3.106259482 5.372220276
v -7.253774665 -0.940340575 5.400843504
v 1.443339364 0.146235047 5.437162411
v -0.289884704 3.093491981 5.471161046
v 3.655859055 2.809710651 5.477514386
v -1.087307671 2.832467198 5.465727381
v -0.999428483 3.185741238 5.470555789
v -8.017343846 -4.056805636 5.358278644
v -7.864249422 -2.879265566 5.374016571
v 1.026520810 0.200426491 5.436806855
v -7.140511460 -1.502535289 5.393804478
v -7.176365883 -1.324567807 5.396032741
v 0.919283542 3.503620440 5.479587064
v 4.075929068 3.789832293 5.491359329
v 0.470542030 3.481931003 5.478161160
v -0.831843443 3.418981605 5.474022751
v 0.796962875 3.846072994 5.483738924
v 0.554652982 4.524450928 5.491963511
v 0.796962875 3.846072994 5.342972551
v 0.511110629 3.793968167 5.342176494
v 0.470542030 3.481931003 5.338660375
v 0.919283542 3.503620440 5.339238606
v 5.561860920 2.390174128 5.330275917
v 6.325416872 3.066273817 5.338400206
v 5.760055204 3.570875565 5.343613838
v 4.075929068 3.789832293 5.344799010
v 3.655859055 2.809710651 5.333535652
v 4.705468864 2.278146353 5.328383344
v 5.048497341 2.456917591 5.330637187
v 1.106788624 -0.183425796 5.298191197
v 1.443339364 0.146235047 5.302125770
v 1.026520810 0.200426491 5.302419098
v 0.918099101 0.378793613 5.304330460
v 0.758433139 0.235281125 5.302607760
v -0.730597534 -0.686435178 5.291196593
v -1.186970274 -0.179666965 5.296516018
v -1.187323405 -0.605878562 5.291754569
v -3.033957692 -1.605843156 5.279201583
v -1.562346777 -1.611823452 5.280236465
v -1.293981243 -1.133833755 5.285776965
v 1.009461610 -0.683047515 5.292537090
v 1.059502742 -1.215508774 5.286626459
v 1.445727976 -0.986123475 5.289478047
v -0.176137117 -0.604738263 5.292524308
v -0.294000539 -0.955167134 5.288521452
v 0.552694136 -0.180866696 5.297804975
v 1.524329222 -1.780400170 5.280664071
v 2.292058652 -1.887662519 5.280040592
v 1.574890502 -1.474214512 5.284122305
v -5.807493217 -1.891543968 5.273933694
v -5.888329758 -1.819527829 5.274677666
v -5.896193414 -1.880011872 5.273996115
v -6.270297306 -1.831373850 5.274259384
v -5.934969904 -2.178264872 5.270635319
v -5.398093939 -2.733654774 5.264833010
v -5.509628689 -3.591534724 5.255166185
v -5.313009087 -2.332072942 5.269382755
v 6.136365947 -3.592324497 5.263875862
v 5.397812677 -3.082651350 5.269016491
v 4.014699168 -3.738605204 5.260653433
v 5.681372191 -3.955292818 5.259480543
v -6.513769077 -0.152068427 5.292836538
v -7.253774665 -0.940340575 5.283476808
v -7.176365883 -1.324567807 5.279242578
v -7.140511460 -1.502535289 5.277281355
v -6.622145791 -1.569929084 5.276916565
v -6.553253909 -1.578885860 5.276868084
v -6.594777994 -1.499575081 5.277722974
v -5.890681570 -0.742423626 5.286708174
v -5.837814562 -0.714300860 5.287061910
v -5.821325920 -0.587476929 5.288490996
v -5.642989265 -0.610662847 5.288365495
v -5.514112454 -0.542106382 5.289227816
v -5.321303072 -0.652485936 5.288139115
v -4.783857414 -0.722360359 5.287760897
v -6.405882962 0.677747713 5.302187132
v -6.407109927 -1.017139479 5.283252727
v -6.517066242 -1.648028486 5.276122787
v -6.437535584 -1.658368432 5.276066818
v -6.376648023 -1.666284550 5.276023970
v -6.382959116 -1.714826910 5.275476981
v -7.690718066 -2.369030494 5.267189888
v -7.781334539 -2.241518001 5.268546485
v -7.864249422 -2.879265566 5.261360172
v -7.408007310 -3.106259482 5.259165991
v -7.294306967 -2.231722667 5.269020510
v -8.264258716 -1.582181593 5.595128032
v -8.191303702 -1.021041288 5.598620459
v -8.361437757 -1.131290740 5.598338572
v -8.035128130 1.378550246 5.613959328
v -10.914990764 1.752967154 5.623888865
v -11.641881205 -3.837978587 5.589091921
v -9.305643341 -4.141717713 5.581036759
v -8.525665731 -3.990717655 5.580003540
v -8.017343846 -4.056805636 5.578250887
v -7.864249422 -2.879265566 5.585579664
v -8.147826105 -2.738177796 5.587241215
v -8.528128149 -3.584610850 5.582674465
v -8.677867916 -3.565142873 5.583190756
v -9.037739185 -3.518355264 5.584431564
v -8.487473688 -2.100707877 5.592305111
v -8.147481771 -2.301175003 5.590107571
v -8.315924543 -1.979574128 5.592654739
v -8.827371944 -1.900295977 5.594502046
v 0.554652982 4.524450928 5.251077691
v -0.831843443 3.418981605 5.236657016
v 0.470542030 3.481931003 5.236077202
v 0.511110629 3.793968167 5.240549378
v 0.796962841 3.846072961 5.240976576
v -1.087307664 2.832467244 5.228456197
v -0.289884704 3.093491981 5.231322969
v -0.999428483 3.185741238 5.233471351
v 1.563127071 0.263570448 5.188220747
v 1.443339364 0.146235047 5.186658776
v 1.656768848 0.118486638 5.186012547
v -8.487473688 -2.100707877 5.165492619
v -8.827371944 -1.900295977 5.168784023
v -9.037739185 -3.518355264 5.145593686
v -8.677867916 -3.565142873 5.144504055
v 8.395672831 -6.094896409 5.660202040
v 9.442462885 -6.230991753 5.660202040
v 9.662489708 -4.538634888 5.660202040
v 8.615699654 -4.402539544 5.660202040
v 7.522173191 -6.077130446 -5.806662326
v 7.979743258 -6.466876368 -5.806662326
v 10.645309443 -6.813432151 -5.806662326
v 10.811896023 -5.532115906 -5.806662326
v 11.062481438 -3.611695470 -5.806662326
v 11.367624608 -2.122508035 -5.806662326
v 12.162731669 3.772076888 -5.806662326
v 7.870456119 4.330124526 -5.806662326
v 7.540576303 4.361718624 -5.806662326
v 6.205314075 4.535318833 -5.806662326
v 4.025601541 4.540586601 -5.806662326
v 0.509295315 4.997748859 5.498016862
v 0.509295315 4.997748859 -5.806662326
v -0.825074424 5.171233034 5.496878615
v -0.825074424 5.171233034 -5.806662326
v -2.081400987 5.334570654 5.495806940
v -2.081400987 5.334570654 -5.806662326
v -4.220002191 5.612614628 5.493982666
v -4.220002191 5.612614628 -5.806662326
v -5.910772409 5.832435167 -5.806662326
v -7.397834620 6.280352823 -5.806662326
v -7.670812038 6.362576313 -5.806662326
v -10.277769053 6.654217479 -5.806662326
v -10.914990764 1.752967154 -5.806662326
v -8.264258710 -1.582181545 5.389903540
v -7.539664073 -4.118909773 5.358686116
v -8.017343846 -4.056805636 -5.806662326
v -7.539664073 -4.118909773 -5.806662326
v -7.094014726 -4.176849568 5.359066265
v -7.094014726 -4.176849568 -5.806662326
v -4.771461689 -4.478809501 5.361047454
v -4.771461689 -4.478809501 -5.806662326
v -4.061635694 -4.571095450 5.361652952
v -4.061635694 -4.571095450 -5.806662326
v -3.051735172 -4.702394709 5.362514420
v -3.051735172 -4.702394709 -5.806662326
v -2.770204576 -4.738997085 5.362754572
v -2.770204576 -4.738997085 -5.806662326
v -2.016249974 -4.837020285 -5.806662326
v -0.611025747 -5.286139947 -5.806662326
v 4.011253486 -5.883360908 -5.806662326
v 6.181556031 -5.902834031 -5.806662326
v -5.807493228 -1.891543967 5.392130164
v -5.642989229 -0.610662852 -5.806662326
v -5.890681564 -0.742423585 -5.806662326
v -6.622145805 -1.569929082 5.394246656
v -7.105937417 -0.782860675 5.285346682
v 1.202725889 -0.089452608 5.299312787
v -5.837814562 -0.714300860 -5.806662326
v -11.641881205 -3.837978587 -5.806662326
v -9.305643341 -4.141717713 -5.806662326
v -8.525665731 -3.990717655 -5.806662326
v 0.796962841 3.846072961 -5.806662326
v -1.087307664 2.832467244 -5.806662326
g roof
f 1 2 3
g roof
f 1 3 4
g roof
f 5 6 7
g roof
f 8 9 10
g roof
f 8 10 11
g roof
f 12 10 9
g roof
f 12 9 13
g roof
f 12 13 14
g roof
f 12 14 15
g roof
f 16 17 18
g roof
f 19 20 21
g roof
f 21 22 23
g roof
f 21 23 24
g roof
f 24 25 26
g roof
f 16 27 28
g roof
f 28 29 30
g roof
f 31 29 27
g roof
f 31 27 16
g roof
f 16 13 9
g roof
f 16 9 32
g roof
f 16 32 33
g roof
f 16 33 34
g roof
f 35 33 32
g roof
f 35 32 36
g roof
f 35 36 37
g roof
f 37 38 39
g roof
f 37 39 40
g roof
f 37 40 41
g roof
f 37 41 42
g roof
f 43 44 45
g roof
f 43 45 46
g roof
f 46 47 48
g roof
f 48 49 50
g roof
f 51 52 53
g roof
f 54 55 56
g roof
f 56 45 44
g roof
f 56 44 57
g roof
f 57 58 59
g roof
f 57 59 60
g roof
f 57 60 61
g roof
f 62 63 36
g roof
f 62 36 32
g roof
f 62 32 64
g roof
f 62 64 65
g roof
f 66 65 64
g roof
f 64 67 68
g roof
f 68 69 70
g roof
f 71 67 64
g roof
f 71 64 72
g roof
f 71 72 73
g roof
f 71 73 74
g roof
f 71 74 75
g roof
f 71 75 225 227 229 231 76
g roof
f 77 78 79
g roof
f 77 79 80
g roof
f 77 80 81
g roof
f 81 82 83
g roof
f 83 238 84 85
g roof
f 85 86 87
g roof
f 85 87 88
g roof
f 85 88 89
g roof
f 7 8 11
g roof
f 7 11 90
g roof
f 90 12 15
g roof
f 15 16 18
g roof
f 18 22 21
g roof
f 18 21 91
g roof
f 19 21 24
g roof
f 26 256 17 16
g roof
f 26 16 28
g roof
f 31 16 34
g roof
f 34 35 37
g roof
f 34 37 42
g roof
f 34 42 43
g roof
f 43 46 48
g roof
f 43 48 50
g roof
f 43 50 51
g roof
f 43 51 53
g roof
f 92 54 56
g roof
f 56 57 61
g roof
f 93 62 65
g roof
f 66 64 68
g roof
f 66 68 70
g roof
f 94 70 95
g roof
f 76 77 81
g roof
f 76 81 83
g roof
f 76 83 85
g roof
f 76 85 89
g roof
f 5 7 90
g roof
f 5 90 15
g roof
f 5 15 18
g roof
f 24 26 28
g roof
f 24 28 30
g roof
f 31 34 43
g roof
f 31 43 53
g roof
f 66 70 94
g roof
f 66 94 96
g roof
f 97 94 95
g roof
f 4 5 18
g roof
f 19 24 30
g roof
f 93 66 96
g roof
f 1 4 18
g roof
f 1 18 91
g roof
f 98 239 242 244 246 248 250 1 91
g roof
f 99 98 91
g roof
f 61 100 93
g roof
f 61 93 96
g roof
f 89 99 19
g roof
f 19 30 31
g roof
f 19 31 259 101
g roof
f 19 101 102
g roof
f 19 102 92
g roof
f 56 61 96
g roof
f 56 96 97
g roof
f 76 89 19
g roof
f 76 19 92
g roof
f 76 92 56
g roof
f 76 56 97
g roof
f 103 97 104
g roof
f 97 103 105
g roof
f 97 105 106
g roof
f 107 103 104
g roof
f 76 97 106
g roof
f 76 106 108
g roof
f 108 107 104
g roof
f 108 104 71
g roof
f 108 71 76
g roof
f 104 97 95
g roof
f 109 110 111
g roof
f 109 111 112
g roof
f 113 114 115
g roof
f 113 115 116
g roof
f 113 116 117
g roof
f 117 118 119
g roof
f 117 119 113
g roof
f 120 261 121 122
g roof
f 120 122 123
g roof
f 120 123 124
g roof
f 125 126 127
g roof
f 125 127 128
g roof
f 128 129 130
g roof
f 131 132 133
g roof
f 131 133 120
g roof
f 131 120 124
g roof
f 134 125 128
g roof
f 134 128 130
g roof
f 134 130 135
g roof
f 134 135 136
g roof
f 136 131 124
g roof
f 136 124 134
g roof
f 137 138 139
g roof
f 140 141 142
g roof
f 142 143 144
g roof
f 142 144 145
g roof
f 145 146 147
g roof
f 145 147 140
g roof
f 145 140 142
g roof
f 148 149 150
g roof
f 148 150 151
g roof
f 152 260 153 154
g roof
f 152 154 155
g roof
f 152 155 156
g roof
f 156 157 158
g roof
f 159 160 161
g roof
f 161 162 163
g roof
f 163 164 165
g roof
f 163 165 166
g roof
f 163 166 152
g roof
f 152 156 158
g roof
f 152 158 167
g roof
f 152 167 159
g roof
f 152 159 161
g roof
f 152 161 163
g roof
f 168 169 157
g roof
f 170 169 171
g roof
f 172 173 174
g roof
f 172 174 175
g roof
f 172 175 176
g roof
f 177 178 179
g roof
f 179 180 181
g roof
f 179 181 182
g roof
f 182 183 184
g roof
f 184 185 186
g roof
f 184 186 187
g roof
f 184 187 188
g roof
f 184 188 189
g roof
f 184 189 190
g roof
f 191 192 193
g roof
f 191 193 177
g roof
f 191 177 179
g roof
f 182 184 190
g roof
f 182 190 194
g roof
f 194 191 179
g roof
f 194 179 182
g roof
f 195 196 197
g roof
f 195 197 198
g roof
f 195 198 199
g roof
f 200 201 202
g roof
f 203 204 205
g roof
f 206 207 208
g roof
f 206 208 209
g roof_fixture
f 210 211 212
g roof_fixture
f 210 212 213
g facade_completed
f 6 5 214 215
g facade_completed
f 7 6 215 216
g facade_completed
f 8 7 216 217
g facade_completed
f 9 8 217 218
g facade_completed
f 32 9 218 219
g facade_completed
f 64 32 219 220
g facade_completed
f 72 64 220 221
g facade_completed
f 73 72 221 222
g facade_completed
f 74 73 222 223
g facade_completed
f 75 74 223 224
g facade_completed
f 225 75 224 226
g facade_completed
f 227 225 226 228
g facade_completed
f 229 227 228 230
g facade_completed
f 231 229 230 232
g facade_completed
f 76 231 232 233
g facade_completed
f 77 76 233 234
g facade_completed
f 78 77 234 235
g facade_completed
f 79 78 235 236
g facade_completed
f 80 79 236 237
g roof_step_or_fixture_side
f 181 180 81 80
g roof_step_or_fixture_side
f 180 179 82 81
g roof_step_or_fixture_side
f 179 178 83 82
g roof_step_or_fixture_side
f 178 177 238 83
g roof_step_or_fixture_side
f 177 193 84 238
g roof_step_or_fixture_side
f 193 192 85 84
g roof_step_or_fixture_side
f 192 191 86 85
g roof_step_or_fixture_side
f 87 86 206 209
g roof_step_or_fixture_side
f 189 188 88 87
g roof_step_or_fixture_side
f 188 187 89 88
g roof_step_or_fixture_side
f 187 186 99 89
g roof_step_or_fixture_side
f 186 185 98 99
g facade_completed
f 239 98 240 241
g facade_completed
f 242 239 241 243
g facade_completed
f 244 242 243 245
g facade_completed
f 246 244 245 247
g facade_completed
f 248 246 247 249
g facade_completed
f 250 248 249 251
g facade_completed
f 1 250 251 252
g facade_completed
f 2 1 252 253
g facade_completed
f 3 2 253 254
g facade_completed
f 4 3 254 255
g facade_completed
f 5 4 255 214
g roof_step_or_fixture_side
f 99 91 175 174
g roof_step_or_fixture_side
f 19 99 174 173
g roof_step_or_fixture_side
f 20 19 173 172
g roof_step_or_fixture_side
f 21 20 172 176
g roof_step_or_fixture_side
f 91 21 176 175
g roof_step_or_fixture_side
f 23 22 145 144
g roof_step_or_fixture_side
f 24 23 144 143
g roof_step_or_fixture_side
f 25 24 143 142
g roof_step_or_fixture_side
f 26 25 142 141
g roof_step_or_fixture_side
f 256 26 141 140
g roof_step_or_fixture_side
f 17 256 140 147
g roof_step_or_fixture_side
f 18 17 147 146
g roof_step_or_fixture_side
f 22 18 146 145
g roof_step_or_fixture_side
f 46 45 165 164
g roof_step_or_fixture_side
f 47 46 164 163
g roof_step_or_fixture_side
f 48 47 163 162
g roof_step_or_fixture_side
f 49 48 162 161
g roof_step_or_fixture_side
f 50 49 161 160
g roof_step_or_fixture_side
f 51 50 160 159
g roof_step_or_fixture_side
f 52 51 159 167
g roof_step_or_fixture_side
f 53 52 167 158
g roof_step_or_fixture_side
f 31 53 158 157
g roof_step_or_fixture_side
f 259 31 157 156
g roof_step_or_fixture_side
f 101 259 156 155
g roof_step_or_fixture_side
f 102 101 155 154
g roof_step_or_fixture_side
f 92 102 154 153
g roof_step_or_fixture_side
f 54 92 153 260
g roof_step_or_fixture_side
f 55 54 260 152
g roof_step_or_fixture_side
f 56 55 152 166
g roof_step_or_fixture_side
f 45 56 166 165
g roof_step_or_fixture_side
f 31 30 168 157
g roof_step_or_fixture_side
f 29 31 157 169
g roof_step_or_fixture_side
f 30 29 169 168
g roof_step_or_fixture_side
f 29 28 171 169
g roof_step_or_fixture_side
f 27 29 169 170
g roof_step_or_fixture_side
f 28 27 170 171
g roof_step_or_fixture_side
f 103 107 109 112
g roof_step_or_fixture_side
f 105 103 112 111
g roof_step_or_fixture_side
f 106 105 111 197 196
g roof_step_or_fixture_side
f 108 106 196 195
g roof_step_or_fixture_side
f 107 108 195 199 109
g roof_step_or_fixture_side
f 69 68 113 119
g roof_step_or_fixture_side
f 70 69 119 118
g roof_step_or_fixture_side
f 95 70 118 117
g roof_step_or_fixture_side
f 104 95 117 116
g roof_step_or_fixture_side
f 71 104 116 115
g roof_step_or_fixture_side
f 67 71 115 114
g roof_step_or_fixture_side
f 68 67 114 113
g roof_step_or_fixture_side
f 96 94 201 200
g roof_step_or_fixture_side
f 97 96 200 202
g roof_step_or_fixture_side
f 94 97 202 201
g roof_step_or_fixture_side
f 34 33 138 137
g roof_step_or_fixture_side
f 35 34 137 139
g roof_step_or_fixture_side
f 33 35 139 138
g roof_step_or_fixture_side
f 62 93 121 261
g roof_step_or_fixture_side
f 63 62 261 120
g roof_step_or_fixture_side
f 36 63 120 133
g roof_step_or_fixture_side
f 37 36 133 132
g roof_step_or_fixture_side
f 38 37 132 131
g roof_step_or_fixture_side
f 39 38 131 136
g roof_step_or_fixture_side
f 40 39 136 135
g roof_step_or_fixture_side
f 41 40 135 130
g roof_step_or_fixture_side
f 42 41 130 129
g roof_step_or_fixture_side
f 43 42 129 128
g roof_step_or_fixture_side
f 44 43 128 127
g roof_step_or_fixture_side
f 57 44 127 126
g roof_step_or_fixture_side
f 58 57 126 125
g roof_step_or_fixture_side
f 59 58 125 134
g roof_step_or_fixture_side
f 60 59 134 124
g roof_step_or_fixture_side
f 61 60 124 123
g roof_step_or_fixture_side
f 100 61 123 122
g roof_step_or_fixture_side
f 93 100 122 121
g roof_step_or_fixture_side
f 93 65 205 204 121
g roof_step_or_fixture_side
f 66 93 121 204 203
g roof_step_or_fixture_side
f 65 66 203 205
g roof_step_or_fixture_side
f 15 14 151 150
g roof_step_or_fixture_side
f 16 15 150 149
g roof_step_or_fixture_side
f 13 16 149 148
g roof_step_or_fixture_side
f 14 13 148 151
g roof_step_or_fixture_side
f 213 212 10 12
g roof_step_or_fixture_side
f 212 211 11 10
g roof_step_or_fixture_side
f 211 210 90 11
g roof_step_or_fixture_side
f 210 213 12 90
g roof_step_or_fixture_side
f 110 109 199 198
g roof_step_or_fixture_side
f 111 110 198 197
g facade_completed
f 182 181 80 237 263
g facade_completed
f 183 182 263 264
g facade_completed
f 184 183 264 265
g facade_completed
f 185 184 265 240 98
g roof_step_or_fixture_side
f 190 189 87 209 208
g roof_step_or_fixture_side
f 194 190 208 207
g roof_step_or_fixture_side
f 191 194 207 206 86
g ground_assumed
f 218 220 219
g ground_assumed
f 218 221 220
g ground_assumed
f 218 222 221
g ground_assumed
f 218 223 222
g ground_assumed
f 218 224 223
g ground_assumed
f 218 226 224
g ground_assumed
f 218 228 226
g ground_assumed
f 218 230 228
g ground_assumed
f 218 232 230
g ground_assumed
f 218 233 232
g ground_assumed
f 218 234 233
g ground_assumed
f 218 235 234
g ground_assumed
f 218 236 235
g ground_assumed
f 218 237 236
g ground_assumed
f 218 263 237
g ground_assumed
f 263 265 264
g ground_assumed
f 252 254 253
g ground_assumed
f 252 255 254
g ground_assumed
f 214 216 215
g ground_assumed
f 214 217 216
g ground_assumed
f 214 218 217
g ground_assumed
f 218 265 263
g ground_assumed
f 218 240 265
g ground_assumed
f 218 241 240
g ground_assumed
f 218 243 241
g ground_assumed
f 218 245 243
g ground_assumed
f 218 247 245
g ground_assumed
f 218 249 247
g ground_assumed
f 218 251 249
g ground_assumed
f 218 252 251
g ground_assumed
f 218 255 252
g ground_assumed
f 218 214 255
