# Source coordinates; no display transform
v -0.0944949517593 -0.200565477711 0.229935392393
v -0.0359978261737 -0.219261575292 0.229840736126
v 0.156419898762 -0.244122881329 0.230006897194
v 0.246765950371 -0.24493351475 0.23022649558
v 0.302573592215 -0.25218918191 0.230274100729
v 0.32162146597 -0.268413650367 0.230111159154
v 0.4325845115 -0.282840185842 0.230205813131
v 0.439519231172 -0.229501141539 0.230918694137
v 0.449950681335 -0.149557262646 0.231987247311
v 0.391671375815 -0.188144194541 0.231335838848
v 0.382512028538 -0.25859416983 0.230394268746
v 0.348095263139 -0.182478773837 0.231298667463
v 0.244884763035 -0.148750881558 0.231475335144
v 0.225944136782 -0.163860643438 0.231230143624
v 0.15656333672 -0.154840301826 0.231170960265
v 0.214140030233 -0.12753404405 0.231673547938
v -0.231733499283 -0.0962887249389 0.230944895544
v -0.239918443244 -0.148718004634 0.230240687258
v -0.334485744211 -0.0925190747618 0.230732258828
v -0.33071353256 -0.0978272057871 0.23067268333
v -0.314211603974 -0.0921113114511 0.230789223605
v -0.235275438838 -0.11300590246 0.230717982645
v -0.257624683994 -0.0898859531861 0.230962388513
v -0.271583800817 -0.0754454622748 0.231115042024
v -0.25601048381 -0.0774701814808 0.231128326412
v -0.255683133012 -0.0749523323067 0.231161977664
v -0.276011002632 -0.0685730718552 0.231193337195
v -0.276273723005 -0.0705938101449 0.231166329864
v -0.278545649583 -0.0682435371519 0.231191175103
v -0.281856377365 -0.0678131025578 0.231188350954
v -0.283362809193 -0.0649348111088 0.231222028474
v 0.462653279251 -0.0875648896622 0.232827608848
v 0.0848527038776 -0.0777886650721 0.231992552591
v 0.052893416513 -0.0733235135471 0.231969331856
v 0.0549981977209 -0.060577518606 0.232140823638
v 0.0496213785918 -0.0402591081061 0.232391953272
v 0.0335434704662 -0.0498080330287 0.23222653402
v 0.0314603421463 -0.0276425646723 0.232510128916
v 0.0124458789905 -0.00673762020062 0.232734160344
v -0.0228005989626 -0.0389704475974 0.232224248501
v -0.064428116978 -0.0464080390976 0.232021258357
v -0.0755997236466 -0.0663059477707 0.231733450968
v -0.136860415609 -0.0660569980875 0.231580629029
v -0.0599881302312 -0.0244301507043 0.23231902653
v -0.209705803436 -0.0292790923726 0.231874407877
v -0.232078763955 -0.026370337443 0.231855323206
v -0.240105094854 -0.0217754219069 0.231894765
v -0.245470018649 -0.0246293126655 0.231843900187
v -0.252893875717 -0.0236641216138 0.231837567479
v -0.253580270079 -0.0289435880015 0.231767006933
v -0.255781034748 -0.0301142907904 0.231746141528
v -0.277279080558 -0.0415502522853 0.23154231861
v -0.285091387145 -0.06163323652 0.2312606571
v -0.306370095995 -0.0317976203381 0.23159532137
v -0.281719121921 -0.00553879660651 0.232000375926
v -0.277228004065 0.029005056269 0.232462057529
v -0.0599734299805 -0.00668767741311 0.232550317105
v -0.0409753989384 -0.0277835873961 0.2323237548
v -0.017894142565 -0.0243826819712 0.23242688318
v 0.0210104483062 0.01058591499 0.232981772051
v 0.0276570742691 0.0165600989476 0.233076571603
v 0.0395056082282 -0.00293220484322 0.232852696572
v 0.0355119023539 -0.00684415123759 0.232791534453
v 0.495752251434 0.157816785298 0.236110204378
v 0.0584066558137 0.00572395656201 0.233013671834
v 0.0545085058359 0.0117635520166 0.233082460303
v 0.252754635679 0.128435388301 0.235108194449
v 0.220969083197 0.100290493233 0.234660381155
v 0.199598619199 0.103068911554 0.234642151697
v 0.185318919552 0.0956269650237 0.234508775596
v 0.229219578526 0.149441111983 0.235322022818
v 0.317072025836 0.18104737166 0.235957786151
v 0.303339682873 0.182362580921 0.235939944127
v 0.247754957859 0.189589266195 0.235892529136
v 0.157017184206 0.189808554534 0.235664225269
v -0.256617382898 0.243586041679 0.235311385741
v -0.318521286249 0.262232102683 0.23539671077
v -0.329884878031 0.265654927626 0.235412373717
v -0.438408122203 0.277795459781 0.235294139877
v -0.464934592312 0.0737646366005 0.232567250049
v -0.345050745355 0.0581782892633 0.232669513642
v -0.358634467343 -0.0463021776522 0.231273123034
v -0.351552072242 -0.0417126780439 0.231350984979
v -0.356739828648 -0.0816147910605 0.230817689718
v -0.349727838819 -0.0950024956074 0.230661059745
v -0.363881131571 -0.0866573856811 0.230733772142
v -0.371806923663 -0.147619356182 0.229919010066
v -0.365573508535 -0.148429775383 0.229924327293
v -0.349742172865 -0.113194188273 0.230423915021
v 0.338935915862 -0.252928749126 0.230357097361
v -0.318944758382 -0.128516810953 0.230302660921
v -0.312524312284 -0.0383532428359 0.231494197852
v 0.0495219446841 0.00687907624675 0.233006092981
v -0.022629263661 0.129568434777 0.234421399082
v 0.141625425209 0.117755094399 0.234685877961
v -0.0558246431236 0.118702411249 0.23419520473
v -0.0521663800522 0.133408616484 0.234396203249
v -0.344310415467 -0.168086451639 0.229722294185
v -0.337937351599 -0.11906743529 0.230377437667
v 0.0321704880046 0.00913497508796 0.232991291782
v -0.307809355198 -0.0617564650097 0.231201175017
v -0.309301914638 -0.0543479774924 0.231293933865
v 0.0277063805596 0.146641394032 0.234772160066
v 0.159112234669 0.158555913002 0.235262219696
v 0.00902602472844 0.14573849918 0.234712802077
v -0.0451900961661 0.143118021416 0.234540527057
v 0.0226143765351 0.160897118972 0.234944995028
v 0.0125274224611 0.189136853554 0.235287370778
v 0.0226143765351 0.160897118972 0.229085127228
v 0.0107148274013 0.158728082493 0.229051988712
v 0.00902602472844 0.14573849918 0.228905618581
v 0.0277063805596 0.146641394032 0.228929689366
v 0.220969083197 0.100290493233 0.228556587669
v 0.252754635679 0.128435388301 0.228894788182
v 0.229219578526 0.149441111983 0.22911182293
v 0.159112234669 0.158555913002 0.22916115965
v 0.141625425209 0.117755094399 0.228692284965
v 0.185318919552 0.0956269650237 0.228477803032
v 0.199598619199 0.103068911554 0.228571626733
v 0.0355119023539 -0.00684415123759 0.227220954637
v 0.0495219446841 0.00687907624675 0.227384744306
v 0.0321704880046 0.00913497508796 0.227396955058
v 0.0276570742691 0.0165600989476 0.22747652185
v 0.0210104483062 0.01058591499 0.22740480874
v -0.0409753989384 -0.0277835873961 0.226929781014
v -0.0599734299805 -0.00668767741311 0.227151219747
v -0.0599881302312 -0.0244301507043 0.226953008619
v -0.136860415609 -0.0660569980875 0.226430448884
v -0.0755997236466 -0.0663059477707 0.226473529285
v -0.064428116978 -0.0464080390976 0.226704170999
v 0.0314603421463 -0.0276425646723 0.226985583654
v 0.0335434704662 -0.0498080330287 0.226739534008
v 0.0496213785918 -0.0402591081061 0.226858240829
v -0.017894142565 -0.0243826819712 0.226985051561
v -0.0228005989626 -0.0389704475974 0.226818419385
v 0.0124458789905 -0.00673762020062 0.227204876863
v 0.052893416513 -0.0733235135471 0.226491329805
v 0.0848527038776 -0.0777886650721 0.226465375421
v 0.0549981977209 -0.060577518606 0.226635290281
v -0.252318043512 -0.077950243278 0.226211155509
v -0.255683133012 -0.0749523323067 0.226242125814
v -0.25601048381 -0.0774701814808 0.22621375399
v -0.271583800817 -0.0754454622748 0.226224713437
v -0.257624683994 -0.0898859531861 0.226073849695
v -0.235275438838 -0.11300590246 0.225832309311
v -0.239918443244 -0.148718004634 0.225429895615
v -0.231733499283 -0.0962887249389 0.226021707558
v 0.244884763035 -0.148750881558 0.225792464847
v 0.214140030233 -0.12753404405 0.226006460602
v 0.15656333672 -0.154840301826 0.225658320537
v 0.225944136782 -0.163860643438 0.225609495095
v -0.281719121921 -0.00553879660651 0.226998049172
v -0.312524312284 -0.0383532428359 0.226608419324
v -0.309301914638 -0.0543479774924 0.226432155438
v -0.307809355198 -0.0617564650097 0.226350513016
v -0.286230662591 -0.0645619555599 0.226335327421
v -0.283362809193 -0.0649348111088 0.226333309238
v -0.285091387145 -0.06163323652 0.226368896874
v -0.255781034997 -0.0301142924971 0.226742935666
v -0.253580270203 -0.0289435889589 0.226757661102
v -0.252893875717 -0.0236641216138 0.226817151553
v -0.245470020147 -0.0246293124574 0.226811927157
v -0.240105094854 -0.0217754219069 0.226847824133
v -0.232078763955 -0.026370337443 0.226802503338
v -0.209705803436 -0.0292790923726 0.226786758758
v -0.277228004065 0.029005056269 0.227387298703
v -0.277279080558 -0.0415502522853 0.226599091208
v -0.281856377365 -0.0678131025578 0.226302283775
v -0.278545649583 -0.0682435371519 0.22629995388
v -0.276011002632 -0.0685730718552 0.22629817019
v -0.276273722839 -0.0705938088128 0.226275399956
v -0.33071353256 -0.0978272057871 0.225930422186
v -0.334485744211 -0.0925190747618 0.225986895042
v -0.337937351599 -0.11906743529 0.225687740895
v -0.318944758382 -0.128516810953 0.225596400824
v -0.314211603974 -0.0921113114511 0.226006627907
v -0.354589067003 -0.065072006941 0.239581936603
v -0.351552072242 -0.0417126780439 0.239727320476
v -0.358634467343 -0.0463021776522 0.239715585993
v -0.345050745355 0.0581782892633 0.240365851843
v -0.464934592312 0.0737646366005 0.240779201799
v -0.495193821122 -0.158977048939 0.239330663435
v -0.397940160744 -0.17162119886 0.238995340563
v -0.365471002207 -0.165335319933 0.238952329391
v -0.344310415467 -0.168086451639 0.238879369389
v -0.337937351599 -0.11906743529 0.239184454072
v -0.349742172865 -0.113194188273 0.239253621651
v -0.365573508535 -0.148429775383 0.239063515515
v -0.371806923663 -0.147619356182 0.239085007842
v -0.386787760467 -0.145671666562 0.239136660596
v -0.363881131571 -0.0866573856811 0.239464423141
v -0.349727838819 -0.0950024956074 0.239372943239
v -0.356739828648 -0.0816147910605 0.239478977567
v -0.378030525373 -0.0783145747205 0.239555877857
v 0.0125274224611 0.189136853554 0.225259698473
v -0.0451900961661 0.143118021416 0.224659389981
v 0.00902602472844 0.14573849918 0.224635253297
v 0.0107148274013 0.158728082493 0.224821422477
v 0.0226143751197 0.160897117598 0.224839206012
v -0.0558246428323 0.118702413164 0.224318003653
v -0.022629263661 0.129568434777 0.224437342559
v -0.0521663800522 0.133408616484 0.224526776095
v 0.0545085058359 0.0117635520166 0.222643069414
v 0.0495219446841 0.00687907624675 0.222578047183
v 0.0584066558137 0.00572395656201 0.222551145755
v -0.363881131571 -0.0866573856811 0.221696935599
v -0.378030525373 -0.0783145747205 0.221833951222
v -0.386787760467 -0.145671666562 0.220868576423
v -0.371806923663 -0.147619356182 0.220823216914
v 0.338935915862 -0.252928749126 0.242290858315
v 0.382512028538 -0.25859416983 0.242290858315
v 0.391671375815 -0.188144194541 0.242290858315
v 0.348095263139 -0.182478773837 0.242290858315
v 0.302573592215 -0.25218918191 -0.235055455535
v 0.32162146597 -0.268413650367 -0.235055455535
v 0.4325845115 -0.282840185842 -0.235055455535
v 0.439519231172 -0.229501141539 -0.235055455535
v 0.449950681335 -0.149557262646 -0.235055455535
v 0.462653279251 -0.0875648896622 -0.235055455535
v 0.495752251434 0.157816785298 -0.235055455535
v 0.317072025836 0.18104737166 -0.235055455535
v 0.303339682873 0.182362580921 -0.235055455535
v 0.247754957859 0.189589266195 -0.235055455535
v 0.157017184206 0.189808554534 -0.235055455535
v 0.0106392589269 0.208839451885 0.235539361619
v 0.0106392589269 0.208839451885 -0.235055455535
v -0.0449083132684 0.216061306858 0.235491978307
v -0.0449083132684 0.216061306858 -0.235055455535
v -0.0972070790599 0.22286077778 0.235447366276
v -0.0972070790599 0.22286077778 -0.235055455535
v -0.18623345706 0.234435281658 0.235371424812
v -0.18623345706 0.234435281658 -0.235055455535
v -0.256617382898 0.243586041679 -0.235055455535
v -0.318521286374 0.262232101768 -0.235055455535
v -0.329884878031 0.265654927626 -0.235055455535
v -0.438408122203 0.277795459781 -0.235055455535
v -0.464934592312 0.0737646366005 -0.235055455535
v -0.354589066753 -0.0650720049428 0.231038785516
v -0.32442540841 -0.170671742607 0.229739256561
v -0.344310415467 -0.168086451639 -0.235055455535
v -0.32442540841 -0.170671742607 -0.235055455535
v -0.305873774217 -0.173083679007 0.229755081525
v -0.305873774217 -0.173083679007 -0.235055455535
v -0.209189790213 -0.185653764111 0.229837555098
v -0.209189790213 -0.185653764111 -0.235055455535
v -0.179640925644 -0.189495473245 0.229862760963
v -0.179640925644 -0.189495473245 -0.235055455535
v -0.137600462258 -0.194961240982 0.229898622429
v -0.137600462258 -0.194961240982 -0.235055455535
v -0.125880816158 -0.196484936449 0.229908619554
v -0.125880816158 -0.196484936449 -0.235055455535
v -0.0944949517593 -0.200565477711 -0.235055455535
v -0.0359978261737 -0.219261575292 -0.235055455535
v 0.156419898762 -0.244122881329 -0.235055455535
v 0.246765950371 -0.24493351475 -0.235055455535
v -0.25231804397 -0.0779502432364 0.231131476136
v -0.245470018649 -0.0246293126655 -0.235055455535
v -0.255781034748 -0.0301142907904 -0.235055455535
v -0.286230663173 -0.0645619554767 0.231219582144
v -0.306370095828 -0.0317976189643 0.22668625904
v 0.0395056096436 -0.00293220517625 0.227267644546
v -0.253580270203 -0.0289435889589 -0.235055455535
v -0.495193821122 -0.158977048939 -0.235055455535
v -0.397940160744 -0.17162119886 -0.235055455535
v -0.365471002207 -0.165335319933 -0.235055455535
v 0.0226143751197 0.160897117598 -0.235055455535
v -0.0558246428323 0.118702413164 -0.235055455535
g roof
f 1 2 3
g roof
f 1 3 4
g roof
f 5 6 7
g roof
f 8 9 10
g roof
f 8 10 11
g roof
f 12 10 9
g roof
f 12 9 13
g roof
f 12 13 14
g roof
f 12 14 15
g roof
f 16 17 18
g roof
f 19 20 21
g roof
f 21 22 23
g roof
f 21 23 24
g roof
f 24 25 26
g roof
f 16 27 28
g roof
f 28 29 30
g roof
f 31 29 27
g roof
f 31 27 16
g roof
f 16 13 9
g roof
f 16 9 32
g roof
f 16 32 33
g roof
f 16 33 34
g roof
f 35 33 32
g roof
f 35 32 36
g roof
f 35 36 37
g roof
f 37 38 39
g roof
f 37 39 40
g roof
f 37 40 41
g roof
f 37 41 42
g roof
f 43 44 45
g roof
f 43 45 46
g roof
f 46 47 48
g roof
f 48 49 50
g roof
f 51 52 53
g roof
f 54 55 56
g roof
f 56 45 44
g roof
f 56 44 57
g roof
f 57 58 59
g roof
f 57 59 60
g roof
f 57 60 61
g roof
f 62 63 36
g roof
f 62 36 32
g roof
f 62 32 64
g roof
f 62 64 65
g roof
f 66 65 64
g roof
f 64 67 68
g roof
f 68 69 70
g roof
f 71 67 64
g roof
f 71 64 72
g roof
f 71 72 73
g roof
f 71 73 74
g roof
f 71 74 75
g roof
f 71 75 225 227 229 231 76
g roof
f 77 78 79
g roof
f 77 79 80
g roof
f 77 80 81
g roof
f 81 82 83
g roof
f 83 238 84 85
g roof
f 85 86 87
g roof
f 85 87 88
g roof
f 85 88 89
g roof
f 7 8 11
g roof
f 7 11 90
g roof
f 90 12 15
g roof
f 15 16 18
g roof
f 18 22 21
g roof
f 18 21 91
g roof
f 19 21 24
g roof
f 26 256 17 16
g roof
f 26 16 28
g roof
f 31 16 34
g roof
f 34 35 37
g roof
f 34 37 42
g roof
f 34 42 43
g roof
f 43 46 48
g roof
f 43 48 50
g roof
f 43 50 51
g roof
f 43 51 53
g roof
f 92 54 56
g roof
f 56 57 61
g roof
f 93 62 65
g roof
f 66 64 68
g roof
f 66 68 70
g roof
f 94 70 95
g roof
f 76 77 81
g roof
f 76 81 83
g roof
f 76 83 85
g roof
f 76 85 89
g roof
f 5 7 90
g roof
f 5 90 15
g roof
f 5 15 18
g roof
f 24 26 28
g roof
f 24 28 30
g roof
f 31 34 43
g roof
f 31 43 53
g roof
f 66 70 94
g roof
f 66 94 96
g roof
f 97 94 95
g roof
f 4 5 18
g roof
f 19 24 30
g roof
f 93 66 96
g roof
f 1 4 18
g roof
f 1 18 91
g roof
f 98 239 242 244 246 248 250 1 91
g roof
f 99 98 91
g roof
f 61 100 93
g roof
f 61 93 96
g roof
f 89 99 19
g roof
f 19 30 31
g roof
f 19 31 259 101
g roof
f 19 101 102
g roof
f 19 102 92
g roof
f 56 61 96
g roof
f 56 96 97
g roof
f 76 89 19
g roof
f 76 19 92
g roof
f 76 92 56
g roof
f 76 56 97
g roof
f 103 97 104
g roof
f 97 103 105
g roof
f 97 105 106
g roof
f 107 103 104
g roof
f 76 97 106
g roof
f 76 106 108
g roof
f 108 107 104
g roof
f 108 104 71
g roof
f 108 71 76
g roof
f 104 97 95
g roof
f 109 110 111
g roof
f 109 111 112
g roof
f 113 114 115
g roof
f 113 115 116
g roof
f 113 116 117
g roof
f 117 118 119
g roof
f 117 119 113
g roof
f 120 261 121 122
g roof
f 120 122 123
g roof
f 120 123 124
g roof
f 125 126 127
g roof
f 125 127 128
g roof
f 128 129 130
g roof
f 131 132 133
g roof
f 131 133 120
g roof
f 131 120 124
g roof
f 134 125 128
g roof
f 134 128 130
g roof
f 134 130 135
g roof
f 134 135 136
g roof
f 136 131 124
g roof
f 136 124 134
g roof
f 137 138 139
g roof
f 140 141 142
g roof
f 142 143 144
g roof
f 142 144 145
g roof
f 145 146 147
g roof
f 145 147 140
g roof
f 145 140 142
g roof
f 148 149 150
g roof
f 148 150 151
g roof
f 152 260 153 154
g roof
f 152 154 155
g roof
f 152 155 156
g roof
f 156 157 158
g roof
f 159 160 161
g roof
f 161 162 163
g roof
f 163 164 165
g roof
f 163 165 166
g roof
f 163 166 152
g roof
f 152 156 158
g roof
f 152 158 167
g roof
f 152 167 159
g roof
f 152 159 161
g roof
f 152 161 163
g roof
f 168 169 157
g roof
f 170 169 171
g roof
f 172 173 174
g roof
f 172 174 175
g roof
f 172 175 176
g roof
f 177 178 179
g roof
f 179 180 181
g roof
f 179 181 182
g roof
f 182 183 184
g roof
f 184 185 186
g roof
f 184 186 187
g roof
f 184 187 188
g roof
f 184 188 189
g roof
f 184 189 190
g roof
f 191 192 193
g roof
f 191 193 177
g roof
f 191 177 179
g roof
f 182 184 190
g roof
f 182 190 194
g roof
f 194 191 179
g roof
f 194 179 182
g roof
f 195 196 197
g roof
f 195 197 198
g roof
f 195 198 199
g roof
f 200 201 202
g roof
f 203 204 205
g roof
f 206 207 208
g roof
f 206 208 209
g roof_fixture
f 210 211 212
g roof_fixture
f 210 212 213
g facade_completed
f 6 5 214 215
g facade_completed
f 7 6 215 216
g facade_completed
f 8 7 216 217
g facade_completed
f 9 8 217 218
g facade_completed
f 32 9 218 219
g facade_completed
f 64 32 219 220
g facade_completed
f 72 64 220 221
g facade_completed
f 73 72 221 222
g facade_completed
f 74 73 222 223
g facade_completed
f 75 74 223 224
g facade_completed
f 225 75 224 226
g facade_completed
f 227 225 226 228
g facade_completed
f 229 227 228 230
g facade_completed
f 231 229 230 232
g facade_completed
f 76 231 232 233
g facade_completed
f 77 76 233 234
g facade_completed
f 78 77 234 235
g facade_completed
f 79 78 235 236
g facade_completed
f 80 79 236 237
g roof_step_or_fixture_side
f 181 180 81 80
g roof_step_or_fixture_side
f 180 179 82 81
g roof_step_or_fixture_side
f 179 178 83 82
g roof_step_or_fixture_side
f 178 177 238 83
g roof_step_or_fixture_side
f 177 193 84 238
g roof_step_or_fixture_side
f 193 192 85 84
g roof_step_or_fixture_side
f 192 191 86 85
g roof_step_or_fixture_side
f 87 86 206 209
g roof_step_or_fixture_side
f 189 188 88 87
g roof_step_or_fixture_side
f 188 187 89 88
g roof_step_or_fixture_side
f 187 186 99 89
g roof_step_or_fixture_side
f 186 185 98 99
g facade_completed
f 239 98 240 241
g facade_completed
f 242 239 241 243
g facade_completed
f 244 242 243 245
g facade_completed
f 246 244 245 247
g facade_completed
f 248 246 247 249
g facade_completed
f 250 248 249 251
g facade_completed
f 1 250 251 252
g facade_completed
f 2 1 252 253
g facade_completed
f 3 2 253 254
g facade_completed
f 4 3 254 255
g facade_completed
f 5 4 255 214
g roof_step_or_fixture_side
f 99 91 175 174
g roof_step_or_fixture_side
f 19 99 174 173
g roof_step_or_fixture_side
f 20 19 173 172
g roof_step_or_fixture_side
f 21 20 172 176
g roof_step_or_fixture_side
f 91 21 176 175
g roof_step_or_fixture_side
f 23 22 145 144
g roof_step_or_fixture_side
f 24 23 144 143
g roof_step_or_fixture_side
f 25 24 143 142
g roof_step_or_fixture_side
f 26 25 142 141
g roof_step_or_fixture_side
f 256 26 141 140
g roof_step_or_fixture_side
f 17 256 140 147
g roof_step_or_fixture_side
f 18 17 147 146
g roof_step_or_fixture_side
f 22 18 146 145
g roof_step_or_fixture_side
f 46 45 165 164
g roof_step_or_fixture_side
f 47 46 164 163
g roof_step_or_fixture_side
f 48 47 163 162
g roof_step_or_fixture_side
f 49 48 162 161
g roof_step_or_fixture_side
f 50 49 161 160
g roof_step_or_fixture_side
f 51 50 160 159
g roof_step_or_fixture_side
f 52 51 159 167
g roof_step_or_fixture_side
f 53 52 167 158
g roof_step_or_fixture_side
f 31 53 158 157
g roof_step_or_fixture_side
f 259 31 157 156
g roof_step_or_fixture_side
f 101 259 156 155
g roof_step_or_fixture_side
f 102 101 155 154
g roof_step_or_fixture_side
f 92 102 154 153
g roof_step_or_fixture_side
f 54 92 153 260
g roof_step_or_fixture_side
f 55 54 260 152
g roof_step_or_fixture_side
f 56 55 152 166
g roof_step_or_fixture_side
f 45 56 166 165
g roof_step_or_fixture_side
f 31 30 168 157
g roof_step_or_fixture_side
f 29 31 157 169
g roof_step_or_fixture_side
f 30 29 169 168
g roof_step_or_fixture_side
f 29 28 171 169
g roof_step_or_fixture_side
f 27 29 169 170
g roof_step_or_fixture_side
f 28 27 170 171
g roof_step_or_fixture_side
f 103 107 109 112
g roof_step_or_fixture_side
f 105 103 112 111
g roof_step_or_fixture_side
f 106 105 111 197 196
g roof_step_or_fixture_side
f 108 106 196 195
g roof_step_or_fixture_side
f 107 108 195 199 109
g roof_step_or_fixture_side
f 69 68 113 119
g roof_step_or_fixture_side
f 70 69 119 118
g roof_step_or_fixture_side
f 95 70 118 117
g roof_step_or_fixture_side
f 104 95 117 116
g roof_step_or_fixture_side
f 71 104 116 115
g roof_step_or_fixture_side
f 67 71 115 114
g roof_step_or_fixture_side
f 68 67 114 113
g roof_step_or_fixture_side
f 96 94 201 200
g roof_step_or_fixture_side
f 97 96 200 202
g roof_step_or_fixture_side
f 94 97 202 201
g roof_step_or_fixture_side
f 34 33 138 137
g roof_step_or_fixture_side
f 35 34 137 139
g roof_step_or_fixture_side
f 33 35 139 138
g roof_step_or_fixture_side
f 62 93 121 261
g roof_step_or_fixture_side
f 63 62 261 120
g roof_step_or_fixture_side
f 36 63 120 133
g roof_step_or_fixture_side
f 37 36 133 132
g roof_step_or_fixture_side
f 38 37 132 131
g roof_step_or_fixture_side
f 39 38 131 136
g roof_step_or_fixture_side
f 40 39 136 135
g roof_step_or_fixture_side
f 41 40 135 130
g roof_step_or_fixture_side
f 42 41 130 129
g roof_step_or_fixture_side
f 43 42 129 128
g roof_step_or_fixture_side
f 44 43 128 127
g roof_step_or_fixture_side
f 57 44 127 126
g roof_step_or_fixture_side
f 58 57 126 125
g roof_step_or_fixture_side
f 59 58 125 134
g roof_step_or_fixture_side
f 60 59 134 124
g roof_step_or_fixture_side
f 61 60 124 123
g roof_step_or_fixture_side
f 100 61 123 122
g roof_step_or_fixture_side
f 93 100 122 121
g roof_step_or_fixture_side
f 93 65 205 204 121
g roof_step_or_fixture_side
f 66 93 121 204 203
g roof_step_or_fixture_side
f 65 66 203 205
g roof_step_or_fixture_side
f 15 14 151 150
g roof_step_or_fixture_side
f 16 15 150 149
g roof_step_or_fixture_side
f 13 16 149 148
g roof_step_or_fixture_side
f 14 13 148 151
g roof_step_or_fixture_side
f 213 212 10 12
g roof_step_or_fixture_side
f 212 211 11 10
g roof_step_or_fixture_side
f 211 210 90 11
g roof_step_or_fixture_side
f 210 213 12 90
g roof_step_or_fixture_side
f 110 109 199 198
g roof_step_or_fixture_side
f 111 110 198 197
g facade_completed
f 182 181 80 237 263
g facade_completed
f 183 182 263 264
g facade_completed
f 184 183 264 265
g facade_completed
f 185 184 265 240 98
g roof_step_or_fixture_side
f 190 189 87 209 208
g roof_step_or_fixture_side
f 194 190 208 207
g roof_step_or_fixture_side
f 191 194 207 206 86
g ground_assumed
f 218 220 219
g ground_assumed
f 218 221 220
g ground_assumed
f 218 222 221
g ground_assumed
f 218 223 222
g ground_assumed
f 218 224 223
g ground_assumed
f 218 226 224
g ground_assumed
f 218 228 226
g ground_assumed
f 218 230 228
g ground_assumed
f 218 232 230
g ground_assumed
f 218 233 232
g ground_assumed
f 218 234 233
g ground_assumed
f 218 235 234
g ground_assumed
f 218 236 235
g ground_assumed
f 218 237 236
g ground_assumed
f 218 263 237
g ground_assumed
f 263 265 264
g ground_assumed
f 252 254 253
g ground_assumed
f 252 255 254
g ground_assumed
f 214 216 215
g ground_assumed
f 214 217 216
g ground_assumed
f 214 218 217
g ground_assumed
f 218 265 263
g ground_assumed
f 218 240 265
g ground_assumed
f 218 241 240
g ground_assumed
f 218 243 241
g ground_assumed
f 218 245 243
g ground_assumed
f 218 247 245
g ground_assumed
f 218 249 247
g ground_assumed
f 218 251 249
g ground_assumed
f 218 252 251
g ground_assumed
f 218 255 252
g ground_assumed
f 218 214 255
