v -0.094494951759290458 -0.2005654777113505 0.22993539239265143
v -0.035997826173688074 -0.21926157529220816 0.22984073612571748
v 0.15641989876247825 -0.24412288132914939 0.23000689719359302
v 0.24676595037066582 -0.24493351474962974 0.23022649558003838
v 0.30257359221452762 -0.25218918191040895 0.23027410072916926
v 0.32162146596963304 -0.26841365036722159 0.23011115915403291
v 0.4325845114997896 -0.28284018584181081 0.23020581313140914
v 0.43951923117220804 -0.22950114153949716 0.23091869413693239
v 0.44995068133477023 -0.1495572626457487 0.2319872473112915
v 0.3916713758153566 -0.18814419454113168 0.23133583884779574
v 0.38251202853829591 -0.25859416983006567 0.23039426874628355
v 0.34809526313949857 -0.18247877383700672 0.23129866746273764
v 0.24488476303544923 -0.14875088155828661 0.23147533514424817
v 0.22594413678235736 -0.16386064343768544 0.23123014362425426
v 0.15656333671978725 -0.15484030182568265 0.23117096026524209
v 0.21414003023285477 -0.12753404404950078 0.23167354793808964
v -0.23173349928302325 -0.096288724938860717 0.23094489554351139
v -0.23991844324413045 -0.14871800463410795 0.2302406872575577
v -0.33448574421125055 -0.09251907476183327 0.23073225882774612
v -0.33071353256035829 -0.097827205787070881 0.2306726833299475
v -0.31421160397403192 -0.092111311451080924 0.23078922360537596
v -0.23527543883775337 -0.11300590245974065 0.23071798264473464
v -0.25762468399384086 -0.089885953186143772 0.23096238851342105
v -0.27158380081675892 -0.075445462274758443 0.23111504202360911
v -0.25601048381018654 -0.077470181480776862 0.2311283264118662
v -0.25568313301181894 -0.074952332306734717 0.2311619776644489
v -0.27601100263190947 -0.068573071855219228 0.23119333719468882
v -0.27627372300542596 -0.070593810144874078 0.23116632986380997
v -0.27854564958289607 -0.068243537151860864 0.23119117510293841
v -0.28185637736536795 -0.067813102557802055 0.23118835095436641
v -0.28336280919345302 -0.064934811108845733 0.23122202847441992
v 0.46265327925053956 -0.087564889662204839 0.23282760884810094
v 0.084852703877631677 -0.077788665072057922 0.23199255259106816
v 0.052893416512973288 -0.073323513547126448 0.23196933185554913
v 0.054998197720911288 -0.060577518605967273 0.23214082363810556
v 0.049621378591834575 -0.040259108106063535 0.2323919532716161
v 0.033543470466196587 -0.049808033028700779 0.2322265340204257
v 0.031460342146313366 -0.027642564672317998 0.23251012891564582
v 0.012445878990465439 -0.006737620200617204 0.23273416034365219
v -0.022800598962647592 -0.038970447597403139 0.23222424850070272
v -0.064428116978010624 -0.046408039097590267 0.23202125835745502
v -0.075599723646620418 -0.066305947770661441 0.23173345096752007
v -0.13686041560869991 -0.066056998087451149 0.23158062902914417
v -0.059988130231201697 -0.024430150704343866 0.23231902653047637
v -0.20970580343593717 -0.029279092372601654 0.23187440787688107
v -0.23207876395525701 -0.02637033744302094 0.23185532320647906
v -0.24010509485407405 -0.021775421906868018 0.23189476500017953
v -0.24547001864871798 -0.024629312665538791 0.23184390018697948
v -0.25289387571686667 -0.023664121613826937 0.23183756747860546
v -0.2535802700785536 -0.028943588001459096 0.23176700693287539
v -0.25578103474756447 -0.030114290790351626 0.23174614152777417
v -0.27727908055828332 -0.04155025228525619 0.23154231860995933
v -0.28509138714450211 -0.061633236520027494 0.23126065710049254
v -0.30637009599463327 -0.031797620338050524 0.23159532137048344
v -0.28171912192144977 -0.0055387966065083621 0.23200037592637035
v -0.27722800406506964 0.02900505626896574 0.23246205752931665
v -0.059973429980481371 -0.0066876774131050878 0.23255031710514679
v -0.040975398938403795 -0.027783587396054951 0.23232375480009182
v -0.017894142565007608 -0.02438268197122179 0.2324268831797151
v 0.021010448306240284 0.010585914990049407 0.23298177205098836
v 0.027657074269130139 0.016560098947552622 0.23307657160260409
v 0.039505608228230717 -0.0029322048432243422 0.23285269657220081
v 0.03551190235388562 -0.0068441512375932096 0.23279153445256512
v 0.49575225143422663 0.15781678529786503 0.23611020437756824
v 0.058406655813701774 0.0057239565620119956 0.23301367183358174
v 0.054508505835941704 0.011763552016558394 0.23308246030330343
v 0.25275463567877032 0.12843538830107751 0.23510819444942288
v 0.22096908319713193 0.10029049323315344 0.23466038115519622
v 0.19959861919940489 0.10306891155395356 0.23464215169702651
v 0.18531891955222046 0.095626965023679567 0.23450877559636796
v 0.22921957852644181 0.14944111198297536 0.23532202281751291
v 0.3170720258360662 0.18104737165953522 0.23595778615065205
v 0.3033396828733318 0.1823625809214873 0.23593994412726843
v 0.24775495785917409 0.18958926619522462 0.23589252913630915
v 0.15701718420569608 0.18980855453393319 0.23566422526880537
v -0.25661738289791969 0.243586041678611 0.23531138574071903
v -0.31852128624912435 0.26223210268334879 0.23539671076966912
v -0.32988487803145616 0.26565492762563447 0.23541237371694723
v -0.43840812220316527 0.27779545978102937 0.23529413987652437
v -0.46493459231236545 0.073764636600523889 0.23256725004925038
v -0.34505074535504876 0.05817828926333915 0.23266951364212746
v -0.35863446734307702 -0.046302177652161984 0.23127312303432501
v -0.35155207224164198 -0.041712678043863631 0.23135098497946521
v -0.35673982864840681 -0.081614791060453509 0.23081768971751726
v -0.34972783881906333 -0.095002495607419454 0.23066105974519602
v -0.36388113157099555 -0.086657385681125271 0.23073377214210944
v -0.37180692366317092 -0.14761935618162614 0.22991901006635335
v -0.36557350853478388 -0.14842977538276519 0.22992432729345819
v -0.3497421728654414 -0.11319418827269258 0.23042391502133303
v 0.33893591586243788 -0.25292874912594077 0.2303570973612255
v -0.31894475838156489 -0.12851681095311002 0.23030266092131663
v -0.31252431228434241 -0.038353242835941721 0.23149419785244113
v 0.049521944684096188 0.0068790762467465941 0.23300609298141034
v -0.02262926366095085 0.12956843477659741 0.23442139908211707
v 0.14162542520930435 0.11775509439938281 0.23468587796080925
v -0.055824643123649709 0.11870241124901869 0.23419520472979388
v -0.052166380052160004 0.13340861648441499 0.23439620324926685
v -0.34431041546704289 -0.16808645163896574 0.22972229418531653
v -0.33793735159929084 -0.11906743529028943 0.23037743766668212
v 0.032170488004615527 0.0091349750879591712 0.23299129178201095
v -0.30780935519791519 -0.061756465009693659 0.23120117501664683
v -0.30930191463770507 -0.054347977492414726 0.23129393386469704
v 0.027706380559609951 0.14664139403205478 0.23477216006649382
v 0.15911223466865096 0.15855591300158076 0.23526221969605354
v 0.009026024728442588 0.14573849918033516 0.23471280207667389
v -0.045190096166080801 0.14311802141629495 0.23454052705725265
v 0.022614376535106576 0.16089711897156531 0.2349449950284645
v 0.012527422461082571 0.18913685355429358 0.2352873707784584
v 0.022614376535106576 0.16089711897156531 0.2290851272284406
v 0.010714827401309503 0.15872808249320755 0.22905198871189109
v 0.009026024728442588 0.14573849918033516 0.22890561858051633
v 0.027706380559609951 0.14664139403205478 0.22892968936635577
v 0.22096908319713193 0.10029049323315344 0.22855658766917181
v 0.25275463567877032 0.12843538830107751 0.22889478818179843
v 0.22921957852644181 0.14944111198297536 0.22911182292970639
v 0.15911223466865096 0.15855591300158076 0.22916115965048905
v 0.14162542520930435 0.11775509439938281 0.22869228496502464
v 0.18531891955222046 0.095626965023679567 0.22847780303229054
v 0.19959861919940489 0.10306891155395356 0.22857162673279902
v 0.03551190235388562 -0.0068441512375932096 0.22722095463697894
v 0.049521944684096188 0.0068790762467465941 0.22738474430590466
v 0.032170488004615527 0.0091349750879591712 0.22739695505812774
v 0.027657074269130139 0.016560098947552622 0.22747652184953743
v 0.021010448306240284 0.010585914990049407 0.22740480874047619
v -0.040975398938403795 -0.027783587396054951 0.22692978101447236
v -0.059973429980481371 -0.0066876774131050878 0.22715121974737307
v -0.059988130231201697 -0.024430150704343866 0.22695300861866441
v -0.13686041560869991 -0.066056998087451149 0.22643044888449015
v -0.075599723646620418 -0.066305947770661441 0.22647352928486836
v -0.064428116978010624 -0.046408039097590267 0.226704170998895
v 0.031460342146313366 -0.027642564672317998 0.22698558365425714
v 0.033543470466196587 -0.049808033028700779 0.22673953400804853
v 0.049621378591834575 -0.040259108106063535 0.22685824082945777
v -0.017894142565007608 -0.02438268197122179 0.22698505156105464
v -0.022800598962647592 -0.038970447597403139 0.22681841938546726
v 0.012445878990465439 -0.006737620200617204 0.22720487686347929
v 0.052893416512973288 -0.073323513547126448 0.22649132980481568
v 0.084852703877631677 -0.077788665072057922 0.22646537542069517
v 0.054998197720911288 -0.060577518605967273 0.22663529028081336
v -0.25231804351227483 -0.077950243278044201 0.22621115550875476
v -0.25568313301181894 -0.074952332306734717 0.22624212581419068
v -0.25601048381018654 -0.077470181480776862 0.22621375399019711
v -0.27158380081675892 -0.075445462274758443 0.22622471343671091
v -0.25762468399384086 -0.089885953186143772 0.22607384969456784
v -0.23527543883775337 -0.11300590245974065 0.22583230931137643
v -0.23991844324413045 -0.14871800463410795 0.22542989561456284
v -0.23173349928302325 -0.096288724938860717 0.22602170755795775
v 0.24488476303544923 -0.14875088155828661 0.22579246484692422
v 0.21414003023285477 -0.12753404404950078 0.22600646060249413
v 0.15656333671978725 -0.15484030182568265 0.2256583205372249
v 0.22594413678235736 -0.16386064343768544 0.22560949509548411
v -0.28171912192144977 -0.0055387966065083621 0.22699804917180649
v -0.31252431228434241 -0.038353242835941721 0.22660841932431497
v -0.30930191463770507 -0.054347977492414726 0.22643215543752082
v -0.30780935519791519 -0.061756465009693659 0.22635051301638404
v -0.28623066259061947 -0.064561955559925499 0.22633532742106593
v -0.28336280919345302 -0.064934811108845733 0.22633330923842221
v -0.28509138714450211 -0.061633236520027494 0.22636889687399736
v -0.2557810349973344 -0.030114292497112796 0.22674293566632159
v -0.2535802702034386 -0.028943588958910485 0.22675766110217627
v -0.25289387571686667 -0.023664121613826937 0.2268171515533145
v -0.24547002014733754 -0.02462931245739718 0.22681192715736609
v -0.24010509485407405 -0.021775421906868018 0.2268478241329967
v -0.23207876395525701 -0.02637033744302094 0.22680250333799579
v -0.20970580343593717 -0.029279092372601654 0.22678675875757964
v -0.27722800406506964 0.02900505626896574 0.22738729870295477
v -0.27727908055828332 -0.04155025228525619 0.22659909120845528
v -0.28185637736536795 -0.067813102557802055 0.22630228377546058
v -0.27854564958289607 -0.068243537151860864 0.22629995387994711
v -0.27601100263190947 -0.068573071855219228 0.2262981701896371
v -0.27627372283891272 -0.070593808812767805 0.22627539995581097
v -0.33071353256035829 -0.097827205787070881 0.22593042218596743
v -0.33448574421125055 -0.09251907476183327 0.22598689504172476
v -0.33793735159929084 -0.11906743529028943 0.2256877408953748
v -0.31894475838156489 -0.12851681095311002 0.2255964008237703
v -0.31421160397403192 -0.092111311451080924 0.22600662790671733
v -0.35458906700308901 -0.065072006941007843 0.23958193660287436
v -0.35155207224164198 -0.041712678043863631 0.23972732047606143
v -0.35863446734307702 -0.046302177652161984 0.23971558599346204
v -0.34505074535504876 0.05817828926333915 0.24036585184279546
v -0.46493459231236545 0.073764636600523889 0.24077920179914791
v -0.49519382112236732 -0.15897704893943501 0.23933066343491205
v -0.39794016074390337 -0.17162119886048754 0.23899534056325028
v -0.36547100220716544 -0.16533531993345188 0.23895232939077038
v -0.34431041546704289 -0.16808645163896574 0.23887936938860199
v -0.33793735159929084 -0.11906743529028943 0.23918445407211414
v -0.3497421728654414 -0.11319418827269258 0.23925362165095765
v -0.36557350853478388 -0.14842977538276519 0.23906351551477301
v -0.37180692366317092 -0.14761935618162614 0.23908500784239262
v -0.38678776046690699 -0.145671666562464 0.23913666059645777
v -0.36388113157099555 -0.086657385681125271 0.23946442314055111
v -0.34972783881906333 -0.095002495607419454 0.23937294323941549
v -0.35673982864840681 -0.081614791060453509 0.23947897756726205
v -0.37803052537272885 -0.078314574720501837 0.23955587785655241
v 0.012527422461082571 0.18913685355429358 0.22525969847279809
v -0.045190096166080801 0.14311802141629495 0.22465938998088925
v 0.009026024728442588 0.14573849918033516 0.22463525329741724
v 0.010714827401309503 0.15872808249320755 0.22482142247674558
v 0.022614375119743652 0.16089711759783071 0.22483920601233787
v -0.055824642832251449 0.11870241316392148 0.22431800365283544
v -0.02262926366095085 0.12956843477659741 0.22443734255867487
v -0.052166380052160004 0.13340861648441499 0.22452677609479327
v 0.054508505835941704 0.011763552016558394 0.22264306941357309
v 0.049521944684096188 0.0068790762467465941 0.22257804718296215
v 0.058406655813701774 0.0057239565620119956 0.22255114575453266
v -0.36388113157099555 -0.086657385681125271 0.22169693559919956
v -0.37803052537272885 -0.078314574720501837 0.22183395122235883
v -0.38678776046690699 -0.145671666562464 0.22086857642323687
v -0.37180692366317092 -0.14761935618162614 0.22082321691389717
v 0.33893591586243788 -0.25292874912594077 0.24229085831457958
v 0.38251202853829591 -0.25859416983006567 0.24229085831457958
v 0.3916713758153566 -0.18814419454113168 0.24229085831457958
v 0.34809526313949857 -0.18247877383700672 0.24229085831457958
v 0.30257359221452762 -0.25218918191040895 -0.2350554555352819
v 0.32162146596963304 -0.26841365036722159 -0.2350554555352819
v 0.4325845114997896 -0.28284018584181081 -0.2350554555352819
v 0.43951923117220804 -0.22950114153949716 -0.2350554555352819
v 0.44995068133477023 -0.1495572626457487 -0.2350554555352819
v 0.46265327925053956 -0.087564889662204839 -0.2350554555352819
v 0.49575225143422663 0.15781678529786503 -0.2350554555352819
v 0.3170720258360662 0.18104737165953522 -0.2350554555352819
v 0.3033396828733318 0.1823625809214873 -0.2350554555352819
v 0.24775495785917409 0.18958926619522462 -0.2350554555352819
v 0.15701718420569608 0.18980855453393319 -0.2350554555352819
v 0.010639258926901679 0.2088394518849675 0.23553936161867944
v 0.010639258926901679 0.2088394518849675 -0.2350554555352819
v -0.044908313268429173 0.21606130685807395 0.23549197830687263
v -0.044908313268429173 0.21606130685807395 -0.2350554555352819
v -0.097207079059875509 0.2228607777798014 0.23544736627566976
v -0.097207079059875509 0.2228607777798014 -0.2350554555352819
v -0.18623345706005248 0.23443528165817637 0.2353714248115033
v -0.18623345706005248 0.23443528165817637 -0.2350554555352819
v -0.25661738289791969 0.243586041678611 -0.2350554555352819
v -0.31852128637400934 0.2622321017675257 -0.2350554555352819
v -0.32988487803145616 0.26565492762563447 -0.2350554555352819
v -0.43840812220316527 0.27779545978102937 -0.2350554555352819
v -0.46493459231236545 0.073764636600523889 -0.2350554555352819
v -0.35458906675331903 -0.065072004942848427 0.23103878551630724
v -0.32442540840981471 -0.17067174260653634 0.22973925656064331
v -0.34431041546704289 -0.16808645163896574 -0.2350554555352819
v -0.32442540840981471 -0.17067174260653634 -0.2350554555352819
v -0.30587377421670403 -0.17308367900743005 0.22975508152534785
v -0.30587377421670403 -0.17308367900743005 -0.2350554555352819
v -0.20918979021319503 -0.18565376411066753 0.22983755509754722
v -0.20918979021319503 -0.18565376411066753 -0.2350554555352819
v -0.17964092564366882 -0.18949547324484933 0.22986276096282288
v -0.17964092564366882 -0.18949547324484933 -0.2350554555352819
v -0.1376004622576078 -0.19496124098172993 0.22989862242949538
v -0.1376004622576078 -0.19496124098172993 -0.2350554555352819
v -0.12588081615845076 -0.19648493644930276 0.22990861955410635
v -0.12588081615845076 -0.19648493644930276 -0.2350554555352819
v -0.094494951759290458 -0.2005654777113505 -0.2350554555352819
v -0.035997826173688074 -0.21926157529220816 -0.2350554555352819
v 0.15641989876247825 -0.24412288132914939 -0.2350554555352819
v 0.24676595037066582 -0.24493351474962974 -0.2350554555352819
v -0.25231804397018637 -0.077950243236415875 0.23113147613553886
v -0.24547001864871798 -0.024629312665538791 -0.2350554555352819
v -0.25578103474756447 -0.030114290790351626 -0.2350554555352819
v -0.28623066317341594 -0.064561955476668861 0.23121958214449179
v -0.30637009582811991 -0.031797618964315925 0.22668625903993161
v 0.039505609643593641 -0.0029322051762509125 0.22726764454583825
v -0.2535802702034386 -0.028943588958910485 -0.2350554555352819
v -0.49519382112236732 -0.15897704893943501 -0.2350554555352819
v -0.39794016074390337 -0.17162119886048754 -0.2350554555352819
v -0.36547100220716544 -0.16533531993345188 -0.2350554555352819
v 0.022614375119743652 0.16089711759783071 -0.2350554555352819
v -0.055824642832251449 0.11870241316392148 -0.2350554555352819
l 1 2
l 2 3
l 3 4
l 5 6
l 6 7
l 8 9
l 10 11
l 10 12
l 13 14
l 14 15
l 17 18
l 19 20
l 20 21
l 22 23
l 23 24
l 24 25
l 25 26
l 27 28
l 28 29
l 29 30
l 29 31
l 27 29
l 13 16
l 9 32
l 33 34
l 33 35
l 36 37
l 37 38
l 38 39
l 39 40
l 40 41
l 41 42
l 43 44
l 45 46
l 46 47
l 47 48
l 48 49
l 49 50
l 51 52
l 52 53
l 54 55
l 55 56
l 45 56
l 44 57
l 57 58
l 58 59
l 59 60
l 60 61
l 62 63
l 36 63
l 32 64
l 65 66
l 67 68
l 68 69
l 69 70
l 67 71
l 64 72
l 72 73
l 73 74
l 74 75
l 75 225
l 225 227
l 227 229
l 229 231
l 76 231
l 77 78
l 78 79
l 79 80
l 80 81
l 81 82
l 82 83
l 83 238
l 84 238
l 84 85
l 85 86
l 86 87
l 87 88
l 88 89
l 7 8
l 11 90
l 12 90
l 15 16
l 18 22
l 21 91
l 26 256
l 17 256
l 34 35
l 42 43
l 50 51
l 54 92
l 62 93
l 65 93
l 70 95
l 76 77
l 31 53
l 94 96
l 94 97
l 4 5
l 66 93
l 98 239
l 239 242
l 242 244
l 244 246
l 246 248
l 248 250
l 1 250
l 98 99
l 91 99
l 61 100
l 93 100
l 89 99
l 19 99
l 30 31
l 31 259
l 101 259
l 101 102
l 92 102
l 96 97
l 103 105
l 105 106
l 103 107
l 106 108
l 107 108
l 71 104
l 95 104
l 109 110
l 110 111
l 111 112
l 109 112
l 113 114
l 114 115
l 115 116
l 116 117
l 117 118
l 118 119
l 113 119
l 120 261
l 121 261
l 121 122
l 122 123
l 123 124
l 125 126
l 126 127
l 127 128
l 128 129
l 129 130
l 131 132
l 132 133
l 120 133
l 125 134
l 130 135
l 135 136
l 131 136
l 124 134
l 137 138
l 138 139
l 137 139
l 140 141
l 141 142
l 142 143
l 143 144
l 144 145
l 145 146
l 146 147
l 140 147
l 148 149
l 149 150
l 150 151
l 148 151
l 152 260
l 153 260
l 153 154
l 154 155
l 155 156
l 156 157
l 157 158
l 159 160
l 160 161
l 161 162
l 162 163
l 163 164
l 164 165
l 165 166
l 152 166
l 158 167
l 159 167
l 168 169
l 157 169
l 157 168
l 169 170
l 169 171
l 170 171
l 172 173
l 173 174
l 174 175
l 175 176
l 172 176
l 177 178
l 178 179
l 179 180
l 180 181
l 181 182
l 182 183
l 183 184
l 184 185
l 185 186
l 186 187
l 187 188
l 188 189
l 189 190
l 191 192
l 192 193
l 177 193
l 190 194
l 191 194
l 195 196
l 196 197
l 197 198
l 198 199
l 195 199
l 200 201
l 201 202
l 200 202
l 203 204
l 204 205
l 203 205
l 206 207
l 207 208
l 208 209
l 206 209
l 210 211
l 211 212
l 212 213
l 210 213
l 5 214
l 214 215
l 6 215
l 215 216
l 7 216
l 216 217
l 217 218
l 218 219
l 219 220
l 64 220
l 220 221
l 221 222
l 222 223
l 223 224
l 224 226
l 226 228
l 228 230
l 230 232
l 232 233
l 233 234
l 234 235
l 78 235
l 235 236
l 79 236
l 236 237
l 81 180
l 80 181
l 82 179
l 83 178
l 84 193
l 85 192
l 86 206
l 87 209
l 88 188
l 89 187
l 99 186
l 98 185
l 240 241
l 241 243
l 243 245
l 245 247
l 247 249
l 249 251
l 251 252
l 1 252
l 252 253
l 2 253
l 253 254
l 254 255
l 214 255
l 91 175
l 99 174
l 19 173
l 20 172
l 21 176
l 22 145
l 24 143
l 25 142
l 26 141
l 17 147
l 18 146
l 45 165
l 46 164
l 47 163
l 48 162
l 49 161
l 50 160
l 52 167
l 53 158
l 31 157
l 101 155
l 92 153
l 55 152
l 56 166
l 30 168
l 29 169
l 28 171
l 27 170
l 103 112
l 111 197
l 106 196
l 108 195
l 109 199
l 68 113
l 69 119
l 70 118
l 95 117
l 104 116
l 71 115
l 67 114
l 94 201
l 96 200
l 97 202
l 33 138
l 34 137
l 35 139
l 93 121
l 63 120
l 36 133
l 37 132
l 38 131
l 39 136
l 40 135
l 41 130
l 42 129
l 43 128
l 44 127
l 57 126
l 58 125
l 59 134
l 61 123
l 100 122
l 65 205
l 121 204
l 66 203
l 14 151
l 15 150
l 16 149
l 13 148
l 10 212
l 12 213
l 11 211
l 90 210
l 110 198
l 237 263
l 182 263
l 263 264
l 183 264
l 264 265
l 184 265
l 240 265
l 190 208
l 194 207
