# Source coordinates; no display transform
v 2682088.525 1251994.67499 455.390830743
v 2682087.69997 1251995.14999 455.390898164
v 2682086.54997 1251995.72499 455.390959794
v 2682086.27497 1251996.05 455.391044171
v 2682085.47498 1251996.45 455.391087044
v 2682084.99998 1251996.49998 455.39104286
v 2682084.24998 1251996.87498 455.391083054
v 2682082.92501 1251997.72498 455.391223701
v 2682082.49999 1251997.74998 455.391176839
v 2682082.50002 1251996.99998 455.390898302
v 2682081.97501 1251996.76249 455.390740748
v 2682084.10002 1251995.8875 455.390696505
v 2682084.45003 1251996.58751 455.391002717
v 2682085.14999 1251996.23753 455.390965205
v 2682084.79999 1251995.53751 455.390658992
v 2682081.77501 1251996.36249 455.390565775
v 2682084.75 1251995.06251 455.390475981
v 2682084.95 1251995.46251 455.390650953
v 2682085.3 1251994.78751 455.390446505
v 2682083.44999 1251994.71253 455.390174269
v 2682082.00003 1251995.99999 455.390460871
v 2682081.97501 1251995.38748 455.390230087
v 2682081.77501 1251994.98748 455.390055115
v 2682081.22498 1251995.0125 455.389991746
v 2682081.02498 1251994.61251 455.389816774
v 2682081.65002 1251994.29999 455.389783277
v 2682082.10003 1251995.2 455.390176976
v 2682082.25001 1251993.99999 455.389751123
v 2682081.25 1251994.25 455.38971187
v 2682081.15 1251994.17497 455.389670795
v 2682081.74999 1251993.87498 455.38963864
v 2682086.97501 1251990.63751 455.389126521
v 2682081.72497 1251993.1375 455.389361445
v 2682081.54997 1251992.78749 455.389208339
v 2682087.50002 1251988.99999 455.388587725
v 2682087.52499 1251989.7375 455.388864922
v 2682080.97497 1251993.07499 455.389239154
v 2682081.00002 1251993.875 455.389539577
v 2682080.49997 1251993.5 455.38933425
v 2682080.47501 1251992.38747 455.388917772
v 2682080.25001 1251991.93749 455.388720934
v 2682086.70001 1251988.33747 455.388235988
v 2682079.77499 1251992.175 455.388746391
v 2682079.75002 1251991.37501 455.388445989
v 2682079.55 1251990.97497 455.388270994
v 2682086.79998 1251987.34998 455.387882455
v 2682087.5 1251987.25003 455.387937809
v 2682088.00001 1251987.50001 455.388096703
v 2682087.99999 1251988.37498 455.388421651
v 2682088.75002 1251989.12498 455.388799271
v 2682088.74999 1251989.87499 455.389077808
v 2682089.22499 1251990.26251 455.389284477
v 2682089.52499 1251990.8625 455.389546935
v 2682089.49997 1251991.625 455.389826812
v 2682090.00001 1251992 455.390032139
v 2682090.25002 1251992.50002 455.390250865
v 2682090.24999 1251993.25002 455.390529402
v 2682090.74999 1251993.37498 455.390641863
v 2682089.75 1251993.87498 455.390695454
v 2682089.475 1251994.19999 455.390779832
v 2682085.5 1251995.18751 455.390621477
v 2682083.77498 1251995.36251 455.390458594
v 2682084.05004 1251994.41251 455.390142112
v 2682082.50002 1251995.00001 455.39015554
v 2682087.25001 1251991.18751 455.389367114
v 2682087.77502 1251990.92501 455.389338978
v 2682087.50002 1251990.375 455.389098385
v 2682087.72499 1251990.13749 455.389039894
v 2682087.02502 1251988.9875 455.388520335
v 2682087.3 1251988.03747 455.388203834
v 2682084.37502 1251995.06249 455.390426436
v 2682082.49999 1251994.25003 455.389877006
v 2682088.25 1251989.87499 455.389011758
v 2682088.02498 1251988.73751 455.388559591
v 2682087.62501 1251988.6875 455.388488181
v 2682088.22498 1251989.13751 455.388734563
v 2682086.76249 1251995.61873 455.390948405
v 2682087.69997 1251995.14999 448.107949585
v 2682086.76249 1251995.61873 448.107949585
v 2682086.54997 1251995.72499 448.107949585
v 2682086.27497 1251996.05 448.107949585
v 2682085.47498 1251996.45 448.107949585
v 2682084.99998 1251996.49998 448.107949585
v 2682084.24998 1251996.87498 448.107949585
v 2682082.92501 1251997.72498 448.107949585
v 2682082.49999 1251997.74998 448.107949585
v 2682082.50002 1251996.99998 448.107949585
v 2682081.97501 1251996.76249 448.107949585
v 2682081.77501 1251996.36249 448.107949585
v 2682082.00003 1251995.99999 448.107949585
v 2682081.97501 1251995.38748 448.107949585
v 2682081.77501 1251994.98748 448.107949585
v 2682081.22498 1251995.0125 448.107949585
v 2682081.02498 1251994.61251 448.107949585
v 2682081.25 1251994.25 448.107949585
v 2682081.15 1251994.17497 448.107949585
v 2682081.74999 1251993.87498 448.107949585
v 2682081.72497 1251993.1375 448.107949585
v 2682081.54997 1251992.78749 448.107949585
v 2682080.97497 1251993.07499 448.107949585
v 2682081.00002 1251993.875 448.107949585
v 2682080.49997 1251993.5 448.107949585
v 2682080.47501 1251992.38747 448.107949585
v 2682080.25001 1251991.93749 448.107949585
v 2682079.77499 1251992.175 448.107949585
v 2682079.75002 1251991.37501 448.107949585
v 2682079.55 1251990.97497 448.107949585
v 2682080.19998 1251990.64998 455.38823616
v 2682080.19998 1251990.64998 448.107949585
v 2682081.8 1251989.84997 455.388150412
v 2682081.8 1251989.84997 448.107949585
v 2682082.44998 1251989.52498 455.388115579
v 2682082.44998 1251989.52498 448.107949585
v 2682083.30001 1251989.09996 455.388070024
v 2682083.30001 1251989.09996 448.107949585
v 2682083.46249 1251989.01872 455.388061317
v 2682083.46249 1251989.01872 448.107949585
v 2682083.94999 1251988.77498 455.388035191
v 2682083.94999 1251988.77498 448.107949585
v 2682085.69997 1251987.89998 455.387941406
v 2682085.69997 1251987.89998 448.107949585
v 2682086.79998 1251987.34998 448.107949585
v 2682087.5 1251987.25003 448.107949585
v 2682088.00001 1251987.50001 448.107949585
v 2682087.99999 1251988.37498 448.107949585
v 2682088.75002 1251989.12498 448.107949585
v 2682088.74999 1251989.87499 448.107949585
v 2682089.22499 1251990.26251 448.107949585
v 2682089.52499 1251990.8625 448.107949585
v 2682089.49997 1251991.625 448.107949585
v 2682090.00001 1251992 448.107949585
v 2682090.25002 1251992.50002 448.107949585
v 2682090.24999 1251993.25002 448.107949585
v 2682090.74999 1251993.37498 448.107949585
v 2682089.75 1251993.87498 448.107949585
v 2682089.475 1251994.19999 448.107949585
v 2682088.525 1251994.67499 448.107949585
v 2682088.02498 1251988.73751 448.107949585
v 2682087.50002 1251988.99999 448.107949585
v 2682087.52499 1251989.7375 448.107949585
v 2682087.72499 1251990.13749 448.107949585
v 2682088.25 1251989.87499 448.107949585
v 2682088.22498 1251989.13751 448.107949585
v 2682087.62501 1251988.6875 448.107949585
v 2682087.3 1251988.03747 448.107949585
v 2682086.70001 1251988.33747 448.107949585
v 2682087.02502 1251988.9875 448.107949585
v 2682087.25001 1251991.18751 448.107949585
v 2682087.77502 1251990.92501 448.107949585
v 2682087.50002 1251990.375 448.107949585
v 2682086.97501 1251990.63751 448.107949585
v 2682084.75 1251995.06251 448.107949585
v 2682084.95 1251995.46251 448.107949585
v 2682085.5 1251995.18751 448.107949585
v 2682085.3 1251994.78751 448.107949585
v 2682084.45003 1251996.58751 448.107949585
v 2682085.14999 1251996.23753 448.107949585
v 2682084.79999 1251995.53751 448.107949585
v 2682084.10002 1251995.8875 448.107949585
v 2682084.05004 1251994.41251 448.107949585
v 2682083.44999 1251994.71253 448.107949585
v 2682083.77498 1251995.36251 448.107949585
v 2682084.37502 1251995.06249 448.107949585
v 2682082.25001 1251993.99999 448.107949585
v 2682081.65002 1251994.29999 448.107949585
v 2682082.10003 1251995.2 448.107949585
v 2682082.50002 1251995.00001 448.107949585
v 2682082.49999 1251994.25003 448.107949585
g roof
f 1 2 77 3
g roof
f 3 4 5
g roof
f 3 5 6
g roof
f 7 8 9
g roof
f 7 9 10
g roof
f 7 10 11
g roof
f 7 11 12
g roof
f 7 12 13
g roof
f 7 13 14
g roof
f 15 12 11
g roof
f 15 11 16
g roof
f 15 16 17
g roof
f 15 17 18
g roof
f 19 17 16
g roof
f 20 21 22
g roof
f 23 24 25
g roof
f 23 25 26
g roof
f 23 26 27
g roof
f 28 26 25 29
g roof
f 28 29 30
g roof
f 28 30 31
g roof
f 32 31 33
g roof
f 32 33 34
g roof
f 35 36 37
g roof
f 37 38 39
g roof
f 37 39 40
g roof
f 37 40 41
g roof
f 42 43 44
g roof
f 42 44 45
g roof
f 42 45 108 110 112 114 116 118 120 46
g roof
f 42 46 47
g roof
f 42 47 48
g roof
f 49 50 51
g roof
f 51 52 53
g roof
f 51 53 54
g roof
f 54 55 56
g roof
f 54 56 57
g roof
f 57 58 59
g roof
f 57 59 60
g roof
f 57 60 1
g roof
f 57 1 3
g roof
f 57 3 6
g roof
f 57 6 7
g roof
f 57 7 14
g roof
f 57 14 15
g roof
f 57 15 18
g roof
f 57 18 61
g roof
f 57 61 19
g roof
f 16 21 20
g roof
f 16 20 62
g roof
f 63 20 22
g roof
f 22 23 27
g roof
f 22 27 64
g roof
f 28 31 32
g roof
f 28 32 65
g roof
f 28 65 66
g roof
f 67 32 34
g roof
f 34 37 36
g roof
f 34 36 68
g roof
f 35 37 41
g roof
f 41 43 42
g roof
f 41 42 69
g roof
f 70 42 48
g roof
f 70 48 49
g roof
f 49 51 54
g roof
f 54 57 19
g roof
f 19 16 62
g roof
f 19 62 71
g roof
f 19 71 63
g roof
f 63 22 64
g roof
f 63 64 72
g roof
f 63 72 28
g roof
f 63 28 66
g roof
f 67 34 68
g roof
f 67 68 73
g roof
f 74 35 41
g roof
f 74 41 69
g roof
f 74 69 75
g roof
f 74 75 70
g roof
f 74 70 49
g roof
f 74 49 54
g roof
f 54 19 63
g roof
f 54 63 66
g roof
f 54 66 67
g roof
f 54 67 73
g roof
f 54 73 76
g roof
f 54 76 74
g facade_completed
f 77 2 78 79
g facade_completed
f 3 77 79 80
g facade_completed
f 4 3 80 81
g facade_completed
f 5 4 81 82
g facade_completed
f 6 5 82 83
g facade_completed
f 7 6 83 84
g facade_completed
f 8 7 84 85
g facade_completed
f 9 8 85 86
g facade_completed
f 10 9 86 87
g facade_completed
f 11 10 87 88
g facade_completed
f 16 11 88 89
g facade_completed
f 21 16 89 90
g facade_completed
f 22 21 90 91
g facade_completed
f 23 22 91 92
g facade_completed
f 24 23 92 93
g facade_completed
f 25 24 93 94
g facade_completed
f 29 25 94 95
g facade_completed
f 30 29 95 96
g facade_completed
f 31 30 96 97
g facade_completed
f 33 31 97 98
g facade_completed
f 34 33 98 99
g facade_completed
f 37 34 99 100
g facade_completed
f 38 37 100 101
g facade_completed
f 39 38 101 102
g facade_completed
f 40 39 102 103
g facade_completed
f 41 40 103 104
g facade_completed
f 43 41 104 105
g facade_completed
f 44 43 105 106
g facade_completed
f 45 44 106 107
g facade_completed
f 108 45 107 109
g facade_completed
f 110 108 109 111
g facade_completed
f 112 110 111 113
g facade_completed
f 114 112 113 115
g facade_completed
f 116 114 115 117
g facade_completed
f 118 116 117 119
g facade_completed
f 120 118 119 121
g facade_completed
f 46 120 121 122
g facade_completed
f 47 46 122 123
g facade_completed
f 48 47 123 124
g facade_completed
f 49 48 124 125
g facade_completed
f 50 49 125 126
g facade_completed
f 51 50 126 127
g facade_completed
f 52 51 127 128
g facade_completed
f 53 52 128 129
g facade_completed
f 54 53 129 130
g facade_completed
f 55 54 130 131
g facade_completed
f 56 55 131 132
g facade_completed
f 57 56 132 133
g facade_completed
f 58 57 133 134
g facade_completed
f 59 58 134 135
g facade_completed
f 60 59 135 136
g facade_completed
f 1 60 136 137
g facade_completed
f 2 1 137 78
g facade_completed
f 35 74 138 139
g facade_completed
f 36 35 139 140
g facade_completed
f 68 36 140 141
g facade_completed
f 73 68 141 142
g facade_completed
f 76 73 142 143
g facade_completed
f 74 76 143 138
g facade_completed
f 70 75 144 145
g facade_completed
f 42 70 145 146
g facade_completed
f 69 42 146 147
g facade_completed
f 75 69 147 144
g facade_completed
f 66 65 148 149
g facade_completed
f 67 66 149 150
g facade_completed
f 32 67 150 151
g facade_completed
f 65 32 151 148
g facade_completed
f 18 17 152 153
g facade_completed
f 61 18 153 154
g facade_completed
f 19 61 154 155
g facade_completed
f 17 19 155 152
g facade_completed
f 14 13 156 157
g facade_completed
f 15 14 157 158
g facade_completed
f 12 15 158 159
g facade_completed
f 13 12 159 156
g facade_completed
f 20 63 160 161
g facade_completed
f 62 20 161 162
g facade_completed
f 71 62 162 163
g facade_completed
f 63 71 163 160
g facade_completed
f 26 28 164 165
g facade_completed
f 27 26 165 166
g facade_completed
f 64 27 166 167
g facade_completed
f 72 64 167 168
g facade_completed
f 28 72 168 164
g ground_assumed
f 137 80 79 78
g ground_assumed
f 80 82 81
g ground_assumed
f 80 83 82
g ground_assumed
f 84 86 85
g ground_assumed
f 84 87 86
g ground_assumed
f 84 88 87
g ground_assumed
f 84 159 88
g ground_assumed
f 84 156 159
g ground_assumed
f 84 157 156
g ground_assumed
f 158 88 159
g ground_assumed
f 158 89 88
g ground_assumed
f 158 152 89
g ground_assumed
f 158 153 152
g ground_assumed
f 155 89 152
g ground_assumed
f 161 91 90
g ground_assumed
f 92 94 93
g ground_assumed
f 92 165 94
g ground_assumed
f 92 166 165
g ground_assumed
f 164 95 94 165
g ground_assumed
f 164 96 95
g ground_assumed
f 164 97 96
g ground_assumed
f 151 98 97
g ground_assumed
f 151 99 98
g ground_assumed
f 139 100 140
g ground_assumed
f 100 102 101
g ground_assumed
f 100 103 102
g ground_assumed
f 100 104 103
g ground_assumed
f 146 106 105
g ground_assumed
f 146 107 106
g ground_assumed
f 146 122 121 119 117 115 113 111 109 107
g ground_assumed
f 146 123 122
g ground_assumed
f 146 124 123
g ground_assumed
f 125 127 126
g ground_assumed
f 127 129 128
g ground_assumed
f 127 130 129
g ground_assumed
f 130 132 131
g ground_assumed
f 130 133 132
g ground_assumed
f 133 135 134
g ground_assumed
f 133 136 135
g ground_assumed
f 133 137 136
g ground_assumed
f 133 80 137
g ground_assumed
f 133 83 80
g ground_assumed
f 133 84 83
g ground_assumed
f 133 157 84
g ground_assumed
f 133 158 157
g ground_assumed
f 133 153 158
g ground_assumed
f 133 154 153
g ground_assumed
f 133 155 154
g ground_assumed
f 89 161 90
g ground_assumed
f 89 162 161
g ground_assumed
f 160 91 161
g ground_assumed
f 91 166 92
g ground_assumed
f 91 167 166
g ground_assumed
f 164 151 97
g ground_assumed
f 164 148 151
g ground_assumed
f 164 149 148
g ground_assumed
f 150 99 151
g ground_assumed
f 99 140 100
g ground_assumed
f 99 141 140
g ground_assumed
f 139 104 100
g ground_assumed
f 104 146 105
g ground_assumed
f 104 147 146
g ground_assumed
f 145 124 146
g ground_assumed
f 145 125 124
g ground_assumed
f 125 130 127
g ground_assumed
f 130 155 133
g ground_assumed
f 155 162 89
g ground_assumed
f 155 163 162
g ground_assumed
f 155 160 163
g ground_assumed
f 160 167 91
g ground_assumed
f 160 168 167
g ground_assumed
f 160 164 168
g ground_assumed
f 160 149 164
g ground_assumed
f 150 141 99
g ground_assumed
f 150 142 141
g ground_assumed
f 138 104 139
g ground_assumed
f 138 147 104
g ground_assumed
f 138 144 147
g ground_assumed
f 138 145 144
g ground_assumed
f 138 125 145
g ground_assumed
f 138 130 125
g ground_assumed
f 130 160 155
g ground_assumed
f 130 149 160
g ground_assumed
f 130 150 149
g ground_assumed
f 130 142 150
g ground_assumed
f 130 143 142
g ground_assumed
f 130 138 143
