# pointcloud_to_mesh 0.5.1; candidate requires geometry validation; coordinates preserved
v 5.925580140 3.681685925 6.136146781
v 4.487698988 4.509523012 6.136264282
v 2.483466539 5.511639236 6.136371692
v 2.004187728 6.078079976 6.136518747
v 0.609954623 6.775196529 6.136593466
v -0.217882464 6.862313738 6.136516462
v -1.524998361 7.515871686 6.136586512
v -3.834185761 8.997266721 6.136831635
v -4.574905639 9.040825325 6.136749962
v -4.574860918 7.733709428 6.136264523
v -5.489859934 7.319813246 6.135989935
v -1.786349986 5.794859606 6.135912827
v -1.176350642 7.014858295 6.136446500
v 0.043558604 6.404903672 6.136381123
v -0.566440740 5.184904984 6.135847450
v -5.838418211 6.622696693 6.135684990
v -0.653557948 4.357067897 6.135528494
v -0.304999672 5.054184450 6.135833439
v 0.304999672 3.877789087 6.135477123
v -2.919231466 3.747113274 6.135002666
v -5.446256609 5.990918047 6.135502161
v -5.489859934 4.923419194 6.135099946
v -5.838418211 4.226302642 6.134795002
v -6.797020553 4.269905967 6.134684562
v -7.145578829 3.572789414 6.134379618
v -6.056255953 3.028127976 6.134321239
v -5.271977471 4.596684941 6.135007384
v -5.010581124 2.505290562 6.134265200
v -6.753417227 2.941010768 6.134196789
v -6.927696365 2.810245513 6.134125202
v -5.882021536 2.287408098 6.134069162
v 3.224231138 -3.354906951 6.133176633
v -5.925624862 1.002116225 6.133586062
v -6.230624534 0.392116881 6.133319226
v 4.139230155 -6.208800510 6.132237609
v 4.182744037 -4.923463916 6.132720713
v -7.232740759 0.893174993 6.133372931
v -7.189092712 2.287452820 6.133896513
v -8.060577845 1.633894871 6.133538666
v -8.104091728 -0.305044393 6.132812822
v -8.496208609 -1.089278155 6.132469769
v 2.744952328 -7.363461293 6.131624597
v -9.324090417 -0.675337251 6.132514136
v -9.367604299 -2.069570356 6.131990589
v -9.716207297 -2.766776351 6.131685605
v 2.919186745 -9.084473372 6.131008453
v 4.139185433 -9.258663068 6.131104925
v 5.010625845 -8.822987583 6.131381848
v 5.010581124 -7.298078665 6.131948172
v 6.317741742 -5.990962768 6.132606295
v 6.317697021 -4.683846871 6.133091735
v 7.145534108 -4.008464899 6.133451921
v 7.668371522 -2.962790070 6.133909338
v 7.624768196 -1.633894871 6.134397112
v 8.496253330 -0.980336923 6.134754959
v 8.931973536 -0.108896511 6.135136159
v 8.931928815 1.198219386 6.135621598
v 9.803324506 1.416012407 6.135817597
v 8.060533124 2.287408098 6.135910996
v 7.581254314 2.853848838 6.136058051
v 0.653557948 4.574905639 6.135782068
v -2.352835447 4.879905311 6.135498192
v -1.873467194 3.224231138 6.134946622
v -4.574860918 4.248126665 6.134970025
v 3.703509948 -2.396349330 6.133595942
v 4.618508965 -2.853848838 6.133546906
v 4.139230155 -3.812406459 6.133127597
v 4.531302314 -4.226347363 6.133025658
v 3.311393068 -6.230579813 6.132120161
v 3.790627157 -7.886298707 6.131568557
v -1.307071176 4.357023176 6.135442147
v -4.574905639 2.941055489 6.134484590
v 5.446301330 -4.683846871 6.132976622
v 5.054139728 -6.666255297 6.132188577
v 4.357067897 -6.753417227 6.132064122
v 5.402698005 -5.969138745 6.132493522
v 2.853848838 5.326448086 6.136351843
v 4.487698988 4.509523012 -6.556584774
v 2.853848838 5.326448086 -6.556584774
v 2.483466539 5.511639236 -6.556584774
v 2.004187728 6.078079976 -6.556584774
v 0.609954623 6.775196529 -6.556584774
v -0.217882464 6.862313738 -6.556584774
v -1.524998361 7.515871686 -6.556584774
v -3.834185761 8.997266721 -6.556584774
v -4.574905639 9.040825325 -6.556584774
v -4.574860918 7.733709428 -6.556584774
v -5.489859934 7.319813246 -6.556584774
v -5.838418211 6.622696693 -6.556584774
v -5.446256609 5.990918047 -6.556584774
v -5.489859934 4.923419194 -6.556584774
v -5.838418211 4.226302642 -6.556584774
v -6.797020553 4.269905967 -6.556584774
v -7.145578829 3.572789414 -6.556584774
v -6.753417227 2.941010768 -6.556584774
v -6.927696365 2.810245513 -6.556584774
v -5.882021536 2.287408098 -6.556584774
v -5.925624862 1.002116225 -6.556584774
v -6.230624534 0.392116881 -6.556584774
v -7.232740759 0.893174993 -6.556584774
v -7.189092712 2.287452820 -6.556584774
v -8.060577845 1.633894871 -6.556584774
v -8.104091728 -0.305044393 -6.556584774
v -8.496208609 -1.089278155 -6.556584774
v -9.324090417 -0.675337251 -6.556584774
v -9.367604299 -2.069570356 -6.556584774
v -9.716207297 -2.766776351 -6.556584774
v -8.583415260 -3.333172370 6.131624896
v -8.583415260 -3.333172370 -6.556584774
v -5.794859606 -4.727450197 6.131475453
v -5.794859606 -4.727450197 -6.556584774
v -4.662067569 -5.293846215 6.131414745
v -4.662067569 -5.293846215 -6.556584774
v -3.180627813 -6.034566094 6.131335352
v -3.180627813 -6.034566094 -6.556584774
v -2.897452164 -6.176153918 6.131320176
v -2.897452164 -6.176153918 -6.556584774
v -2.047835775 -6.600962112 6.131274644
v -2.047835775 -6.600962112 -6.556584774
v 1.002071503 -8.125915752 6.131111194
v 1.002071503 -8.125915752 -6.556584774
v 2.919186745 -9.084473372 -6.556584774
v 4.139185433 -9.258663068 -6.556584774
v 5.010625845 -8.822987583 -6.556584774
v 5.010581124 -7.298078665 -6.556584774
v 6.317741742 -5.990962768 -6.556584774
v 6.317697021 -4.683846871 -6.556584774
v 7.145534108 -4.008464899 -6.556584774
v 7.668371522 -2.962790070 -6.556584774
v 7.624768196 -1.633894871 -6.556584774
v 8.496253330 -0.980336923 -6.556584774
v 8.931973536 -0.108896511 -6.556584774
v 8.931928815 1.198219386 -6.556584774
v 9.803324506 1.416012407 -6.556584774
v 8.060533124 2.287408098 -6.556584774
v 7.581254314 2.853848838 -6.556584774
v 5.925580140 3.681685925 -6.556584774
v 5.054139728 -6.666255297 -6.556584774
v 4.139230155 -6.208800510 -6.556584774
v 4.182744037 -4.923463916 -6.556584774
v 4.531302314 -4.226347363 -6.556584774
v 5.446301330 -4.683846871 -6.556584774
v 5.402698005 -5.969138745 -6.556584774
v 4.357067897 -6.753417227 -6.556584774
v 3.790627157 -7.886298707 -6.556584774
v 2.744952328 -7.363461293 -6.556584774
v 3.311393068 -6.230579813 -6.556584774
v 3.703509948 -2.396349330 -6.556584774
v 4.618508965 -2.853848838 -6.556584774
v 4.139230155 -3.812406459 -6.556584774
v 3.224231138 -3.354906951 -6.556584774
v -0.653557948 4.357067897 -6.556584774
v -0.304999672 5.054184450 -6.556584774
v 0.653557948 4.574905639 -6.556584774
v 0.304999672 3.877789087 -6.556584774
v -1.176350642 7.014858295 -6.556584774
v 0.043558604 6.404903672 -6.556584774
v -0.566440740 5.184904984 -6.556584774
v -1.786349986 5.794859606 -6.556584774
v -1.873467194 3.224231138 -6.556584774
v -2.919231466 3.747113274 -6.556584774
v -2.352835447 4.879905311 -6.556584774
v -1.307071176 4.357023176 -6.556584774
v -5.010581124 2.505290562 -6.556584774
v -6.056255953 3.028127976 -6.556584774
v -5.271977471 4.596684941 -6.556584774
v -4.574860918 4.248126665 -6.556584774
v -4.574905639 2.941055489 -6.556584774
g roof
f 1 2 77 3
g roof
f 3 4 5
g roof
f 3 5 6
g roof
f 7 8 9
g roof
f 7 9 10
g roof
f 7 10 11
g roof
f 7 11 12
g roof
f 7 12 13
g roof
f 7 13 14
g roof
f 15 12 11
g roof
f 15 11 16
g roof
f 15 16 17
g roof
f 15 17 18
g roof
f 19 17 16
g roof
f 20 21 22
g roof
f 23 24 25
g roof
f 23 25 26
g roof
f 23 26 27
g roof
f 28 26 25 29
g roof
f 28 29 30
g roof
f 28 30 31
g roof
f 32 31 33
g roof
f 32 33 34
g roof
f 35 36 37
g roof
f 37 38 39
g roof
f 37 39 40
g roof
f 37 40 41
g roof
f 42 43 44
g roof
f 42 44 45
g roof
f 42 45 108 110 112 114 116 118 120 46
g roof
f 42 46 47
g roof
f 42 47 48
g roof
f 49 50 51
g roof
f 51 52 53
g roof
f 51 53 54
g roof
f 54 55 56
g roof
f 54 56 57
g roof
f 57 58 59
g roof
f 57 59 60
g roof
f 57 60 1
g roof
f 57 1 3
g roof
f 57 3 6
g roof
f 57 6 7
g roof
f 57 7 14
g roof
f 57 14 15
g roof
f 57 15 18
g roof
f 57 18 61
g roof
f 57 61 19
g roof
f 16 21 20
g roof
f 16 20 62
g roof
f 63 20 22
g roof
f 22 23 27
g roof
f 22 27 64
g roof
f 28 31 32
g roof
f 28 32 65
g roof
f 28 65 66
g roof
f 67 32 34
g roof
f 34 37 36
g roof
f 34 36 68
g roof
f 35 37 41
g roof
f 41 43 42
g roof
f 41 42 69
g roof
f 70 42 48
g roof
f 70 48 49
g roof
f 49 51 54
g roof
f 54 57 19
g roof
f 19 16 62
g roof
f 19 62 71
g roof
f 19 71 63
g roof
f 63 22 64
g roof
f 63 64 72
g roof
f 63 72 28
g roof
f 63 28 66
g roof
f 67 34 68
g roof
f 67 68 73
g roof
f 74 35 41
g roof
f 74 41 69
g roof
f 74 69 75
g roof
f 74 75 70
g roof
f 74 70 49
g roof
f 74 49 54
g roof
f 54 19 63
g roof
f 54 63 66
g roof
f 54 66 67
g roof
f 54 67 73
g roof
f 54 73 76
g roof
f 54 76 74
g facade_completed
f 77 2 78 79
g facade_completed
f 3 77 79 80
g facade_completed
f 4 3 80 81
g facade_completed
f 5 4 81 82
g facade_completed
f 6 5 82 83
g facade_completed
f 7 6 83 84
g facade_completed
f 8 7 84 85
g facade_completed
f 9 8 85 86
g facade_completed
f 10 9 86 87
g facade_completed
f 11 10 87 88
g facade_completed
f 16 11 88 89
g facade_completed
f 21 16 89 90
g facade_completed
f 22 21 90 91
g facade_completed
f 23 22 91 92
g facade_completed
f 24 23 92 93
g facade_completed
f 25 24 93 94
g facade_completed
f 29 25 94 95
g facade_completed
f 30 29 95 96
g facade_completed
f 31 30 96 97
g facade_completed
f 33 31 97 98
g facade_completed
f 34 33 98 99
g facade_completed
f 37 34 99 100
g facade_completed
f 38 37 100 101
g facade_completed
f 39 38 101 102
g facade_completed
f 40 39 102 103
g facade_completed
f 41 40 103 104
g facade_completed
f 43 41 104 105
g facade_completed
f 44 43 105 106
g facade_completed
f 45 44 106 107
g facade_completed
f 108 45 107 109
g facade_completed
f 110 108 109 111
g facade_completed
f 112 110 111 113
g facade_completed
f 114 112 113 115
g facade_completed
f 116 114 115 117
g facade_completed
f 118 116 117 119
g facade_completed
f 120 118 119 121
g facade_completed
f 46 120 121 122
g facade_completed
f 47 46 122 123
g facade_completed
f 48 47 123 124
g facade_completed
f 49 48 124 125
g facade_completed
f 50 49 125 126
g facade_completed
f 51 50 126 127
g facade_completed
f 52 51 127 128
g facade_completed
f 53 52 128 129
g facade_completed
f 54 53 129 130
g facade_completed
f 55 54 130 131
g facade_completed
f 56 55 131 132
g facade_completed
f 57 56 132 133
g facade_completed
f 58 57 133 134
g facade_completed
f 59 58 134 135
g facade_completed
f 60 59 135 136
g facade_completed
f 1 60 136 137
g facade_completed
f 2 1 137 78
g facade_completed
f 35 74 138 139
g facade_completed
f 36 35 139 140
g facade_completed
f 68 36 140 141
g facade_completed
f 73 68 141 142
g facade_completed
f 76 73 142 143
g facade_completed
f 74 76 143 138
g facade_completed
f 70 75 144 145
g facade_completed
f 42 70 145 146
g facade_completed
f 69 42 146 147
g facade_completed
f 75 69 147 144
g facade_completed
f 66 65 148 149
g facade_completed
f 67 66 149 150
g facade_completed
f 32 67 150 151
g facade_completed
f 65 32 151 148
g facade_completed
f 18 17 152 153
g facade_completed
f 61 18 153 154
g facade_completed
f 19 61 154 155
g facade_completed
f 17 19 155 152
g facade_completed
f 14 13 156 157
g facade_completed
f 15 14 157 158
g facade_completed
f 12 15 158 159
g facade_completed
f 13 12 159 156
g facade_completed
f 20 63 160 161
g facade_completed
f 62 20 161 162
g facade_completed
f 71 62 162 163
g facade_completed
f 63 71 163 160
g facade_completed
f 26 28 164 165
g facade_completed
f 27 26 165 166
g facade_completed
f 64 27 166 167
g facade_completed
f 72 64 167 168
g facade_completed
f 28 72 168 164
g ground_assumed
f 137 80 79 78
g ground_assumed
f 80 82 81
g ground_assumed
f 80 83 82
g ground_assumed
f 84 86 85
g ground_assumed
f 84 87 86
g ground_assumed
f 84 88 87
g ground_assumed
f 84 159 88
g ground_assumed
f 84 156 159
g ground_assumed
f 84 157 156
g ground_assumed
f 158 88 159
g ground_assumed
f 158 89 88
g ground_assumed
f 158 152 89
g ground_assumed
f 158 153 152
g ground_assumed
f 155 89 152
g ground_assumed
f 161 91 90
g ground_assumed
f 92 94 93
g ground_assumed
f 92 165 94
g ground_assumed
f 92 166 165
g ground_assumed
f 164 95 94 165
g ground_assumed
f 164 96 95
g ground_assumed
f 164 97 96
g ground_assumed
f 151 98 97
g ground_assumed
f 151 99 98
g ground_assumed
f 139 100 140
g ground_assumed
f 100 102 101
g ground_assumed
f 100 103 102
g ground_assumed
f 100 104 103
g ground_assumed
f 146 106 105
g ground_assumed
f 146 107 106
g ground_assumed
f 146 122 121 119 117 115 113 111 109 107
g ground_assumed
f 146 123 122
g ground_assumed
f 146 124 123
g ground_assumed
f 125 127 126
g ground_assumed
f 127 129 128
g ground_assumed
f 127 130 129
g ground_assumed
f 130 132 131
g ground_assumed
f 130 133 132
g ground_assumed
f 133 135 134
g ground_assumed
f 133 136 135
g ground_assumed
f 133 137 136
g ground_assumed
f 133 80 137
g ground_assumed
f 133 83 80
g ground_assumed
f 133 84 83
g ground_assumed
f 133 157 84
g ground_assumed
f 133 158 157
g ground_assumed
f 133 153 158
g ground_assumed
f 133 154 153
g ground_assumed
f 133 155 154
g ground_assumed
f 89 161 90
g ground_assumed
f 89 162 161
g ground_assumed
f 160 91 161
g ground_assumed
f 91 166 92
g ground_assumed
f 91 167 166
g ground_assumed
f 164 151 97
g ground_assumed
f 164 148 151
g ground_assumed
f 164 149 148
g ground_assumed
f 150 99 151
g ground_assumed
f 99 140 100
g ground_assumed
f 99 141 140
g ground_assumed
f 139 104 100
g ground_assumed
f 104 146 105
g ground_assumed
f 104 147 146
g ground_assumed
f 145 124 146
g ground_assumed
f 145 125 124
g ground_assumed
f 125 130 127
g ground_assumed
f 130 155 133
g ground_assumed
f 155 162 89
g ground_assumed
f 155 163 162
g ground_assumed
f 155 160 163
g ground_assumed
f 160 167 91
g ground_assumed
f 160 168 167
g ground_assumed
f 160 164 168
g ground_assumed
f 160 149 164
g ground_assumed
f 150 141 99
g ground_assumed
f 150 142 141
g ground_assumed
f 138 104 139
g ground_assumed
f 138 147 104
g ground_assumed
f 138 144 147
g ground_assumed
f 138 145 144
g ground_assumed
f 138 125 145
g ground_assumed
f 138 130 125
g ground_assumed
f 130 160 155
g ground_assumed
f 130 149 160
g ground_assumed
f 130 150 149
g ground_assumed
f 130 142 150
g ground_assumed
f 130 143 142
g ground_assumed
f 130 138 143
