v 2682088.525000683 1251994.6749909904 455.39083074348008
v 2682087.6999680647 1251995.1499903314 455.39089816362645
v 2682086.5499723619 1251995.7249881823 455.39095979372252
v 2682086.2749700421 1251996.0500025873 455.39104417146928
v 2682085.4749819571 1251996.4499966302 455.39108704400581
v 2682084.9999826164 1251996.4999830555 455.39104286037377
v 2682084.2499809559 1251996.8749838853 455.39108305391471
v 2682082.9250071053 1251997.7249840561 455.39122370147118
v 2682082.4999941895 1251997.7499772685 455.39117683884353
v 2682082.5000198497 1251996.9999756084 455.39089830190829
v 2682081.9750084239 1251996.7624887687 455.39074074781814
v 2682084.1000216808 1251995.8874953848 455.39069650451262
v 2682084.4500292982 1251996.58751062 455.39100271732582
v 2682085.1499932124 1251996.2375286629 455.39096520507564
v 2682084.799985595 1251995.5375134284 455.39065899226244
v 2682081.7750114021 1251996.3624947257 455.3905657753794
v 2682084.7499991702 1251995.0625140874 455.39047598054168
v 2682084.9499961915 1251995.4625081301 455.39065095298048
v 2682085.3000038085 1251994.7875117681 455.39044650470458
v 2682083.4499928709 1251994.7125321301 455.39017426906082
v 2682082.0000272966 1251995.9999905021 455.39046087109824
v 2682081.9750084239 1251995.3874771714 455.39023008672905
v 2682081.7750114021 1251994.9874831291 455.39005511486408
v 2682081.2249811031 1251995.0125020016 455.38999174620369
v 2682081.0249840817 1251994.6125079589 455.38981677433867
v 2682081.6500196792 1251994.2999901602 455.38978327742615
v 2682082.100025807 1251995.2000024165 455.3901769761718
v 2682082.2500107433 1251993.9999946284 455.38975112316717
v 2682081.2499999763 1251994.2500037353 455.38971187005757
v 2682081.1500014653 1251994.174972777 455.38967079461128
v 2682081.7499925294 1251993.8749772448 455.38963863977852
v 2682086.9750109375 1251990.6375094245 455.38912652127908
v 2682081.7249736562 1251993.1374978514 455.38936144492311
v 2682081.5499698478 1251992.7874902342 455.38920833880343
v 2682087.5000223643 1251988.9999921145 455.38858772471133
v 2682087.524989916 1251989.7374971679 455.38886492186185
v 2682080.9749719962 1251993.0749891596 455.38923915385146
v 2682081.0000165296 1251993.8750029055 455.38953957661437
v 2682080.4999726559 1251993.500002075 455.38933424987579
v 2682080.4750051033 1251992.387470531 455.38891777249512
v 2682080.2500148695 1251991.9374900628 455.38872093431104
v 2682086.7000086186 1251988.3374666979 455.38823598848137
v 2682079.774989868 1251992.1750025635 455.38874639136787
v 2682079.7500223164 1251991.3750144783 455.38844598868735
v 2682079.5499996347 1251990.9749691151 455.38827099387106
v 2682086.7999814688 1251987.3499781981 455.38788245516122
v 2682087.4999967036 1251987.2500310077 455.3879378092123
v 2682088.000014917 1251987.5000144544 455.38809670308717
v 2682087.9999892567 1251988.3749821775 455.38842165050858
v 2682088.7500165771 1251989.1249838376 455.3887992706903
v 2682088.7499909173 1251989.8749854977 455.38907780819932
v 2682089.224990258 1251990.2625085947 455.38928447701772
v 2682089.5249857898 1251990.8624996585 455.38954693538903
v 2682089.4999669166 1251991.624997925 455.38982681210894
v 2682090.0000107908 1251991.9999987548 455.39003213884752
v 2682090.2500198977 1251992.5000169682 455.39025086515443
v 2682090.2499942374 1251993.2500186285 455.39052940208961
v 2682090.7499867911 1251993.3749846914 455.39064186310071
v 2682089.7500016843 1251993.8749772448 455.39069545391482
v 2682089.4749993649 1251994.1999916497 455.39077983166158
v 2682085.5000008298 1251995.1875058103 455.39062147714333
v 2682083.7749816156 1251995.362509619 455.39045859375113
v 2682084.050035256 1251994.4125109378 455.39014211193296
v 2682082.5000198497 1251995.0000053954 455.39015554019045
v 2682087.2500132569 1251991.1875140634 455.38936711390505
v 2682087.7750246837 1251990.9250083503 455.38933897785262
v 2682087.5000223643 1251990.3750037113 455.38909838522665
v 2682087.7249869378 1251990.1374912108 455.38903989430065
v 2682087.0250230231 1251988.9874955078 455.38852033497551
v 2682087.2999996822 1251988.0374711663 455.38820383364867
v 2682084.3750240002 1251995.0624884272 455.39042643604949
v 2682082.4999941895 1251994.2500293953 455.38987700555037
v 2682088.2499983637 1251989.8749854977 455.38901175824822
v 2682088.0249824696 1251988.7375120618 455.38855959095406
v 2682087.6250140872 1251988.687499976 455.38848818071654
v 2682088.224979491 1251989.1375061041 455.3887345633928
v 2682086.7624916495 1251995.6187285383 455.39094840469193
v 2682087.6999680647 1251995.1499903314 448.10794958482404
v 2682086.7624916495 1251995.6187285383 448.10794958482404
v 2682086.5499723619 1251995.7249881823 448.10794958482404
v 2682086.2749700421 1251996.0500025873 448.10794958482404
v 2682085.4749819571 1251996.4499966302 448.10794958482404
v 2682084.9999826164 1251996.4999830555 448.10794958482404
v 2682084.2499809559 1251996.8749838853 448.10794958482404
v 2682082.9250071053 1251997.7249840561 448.10794958482404
v 2682082.4999941895 1251997.7499772685 448.10794958482404
v 2682082.5000198497 1251996.9999756084 448.10794958482404
v 2682081.9750084239 1251996.7624887687 448.10794958482404
v 2682081.7750114021 1251996.3624947257 448.10794958482404
v 2682082.0000272966 1251995.9999905021 448.10794958482404
v 2682081.9750084239 1251995.3874771714 448.10794958482404
v 2682081.7750114021 1251994.9874831291 448.10794958482404
v 2682081.2249811031 1251995.0125020016 448.10794958482404
v 2682081.0249840817 1251994.6125079589 448.10794958482404
v 2682081.2499999763 1251994.2500037353 448.10794958482404
v 2682081.1500014653 1251994.174972777 448.10794958482404
v 2682081.7499925294 1251993.8749772448 448.10794958482404
v 2682081.7249736562 1251993.1374978514 448.10794958482404
v 2682081.5499698478 1251992.7874902342 448.10794958482404
v 2682080.9749719962 1251993.0749891596 448.10794958482404
v 2682081.0000165296 1251993.8750029055 448.10794958482404
v 2682080.4999726559 1251993.500002075 448.10794958482404
v 2682080.4750051033 1251992.387470531 448.10794958482404
v 2682080.2500148695 1251991.9374900628 448.10794958482404
v 2682079.774989868 1251992.1750025635 448.10794958482404
v 2682079.7500223164 1251991.3750144783 448.10794958482404
v 2682079.5499996347 1251990.9749691151 448.10794958482404
v 2682080.1999771236 1251990.6499803704 455.38823616004271
v 2682080.1999771236 1251990.6499803704 448.10794958482404
v 2682081.800004615 1251989.8499666245 455.38815041210069
v 2682081.800004615 1251989.8499666245 448.10794958482404
v 2682082.4499821039 1251989.5249778805 455.38811557884611
v 2682082.4499821039 1251989.5249778805 448.10794958482404
v 2682083.3000079351 1251989.0999649644 455.38807002444508
v 2682083.3000079351 1251989.0999649644 448.10794958482404
v 2682083.4624894774 1251989.0187241936 455.3880613167052
v 2682083.4624894774 1251989.0187241936 448.10794958482404
v 2682083.9499854245 1251988.7749762202 455.38803519119051
v 2682083.9499854245 1251988.7749762202 448.10794958482404
v 2682085.6999721909 1251987.8999828366 455.38794140626169
v 2682085.6999721909 1251987.8999828366 448.10794958482404
v 2682086.7999814688 1251987.3499781981 448.10794958482404
v 2682087.4999967036 1251987.2500310077 448.10794958482404
v 2682088.000014917 1251987.5000144544 448.10794958482404
v 2682087.9999892567 1251988.3749821775 448.10794958482404
v 2682088.7500165771 1251989.1249838376 448.10794958482404
v 2682088.7499909173 1251989.8749854977 448.10794958482404
v 2682089.224990258 1251990.2625085947 448.10794958482404
v 2682089.5249857898 1251990.8624996585 448.10794958482404
v 2682089.4999669166 1251991.624997925 448.10794958482404
v 2682090.0000107908 1251991.9999987548 448.10794958482404
v 2682090.2500198977 1251992.5000169682 448.10794958482404
v 2682090.2499942374 1251993.2500186285 448.10794958482404
v 2682090.7499867911 1251993.3749846914 448.10794958482404
v 2682089.7500016843 1251993.8749772448 448.10794958482404
v 2682089.4749993649 1251994.1999916497 448.10794958482404
v 2682088.525000683 1251994.6749909904 448.10794958482404
v 2682088.0249824696 1251988.7375120618 448.10794958482404
v 2682087.5000223643 1251988.9999921145 448.10794958482404
v 2682087.524989916 1251989.7374971679 448.10794958482404
v 2682087.7249869378 1251990.1374912108 448.10794958482404
v 2682088.2499983637 1251989.8749854977 448.10794958482404
v 2682088.224979491 1251989.1375061041 448.10794958482404
v 2682087.6250140872 1251988.687499976 448.10794958482404
v 2682087.2999996822 1251988.0374711663 448.10794958482404
v 2682086.7000086186 1251988.3374666979 448.10794958482404
v 2682087.0250230231 1251988.9874955078 448.10794958482404
v 2682087.2500132569 1251991.1875140634 448.10794958482404
v 2682087.7750246837 1251990.9250083503 448.10794958482404
v 2682087.5000223643 1251990.3750037113 448.10794958482404
v 2682086.9750109375 1251990.6375094245 448.10794958482404
v 2682084.7499991702 1251995.0625140874 448.10794958482404
v 2682084.9499961915 1251995.4625081301 448.10794958482404
v 2682085.5000008298 1251995.1875058103 448.10794958482404
v 2682085.3000038085 1251994.7875117681 448.10794958482404
v 2682084.4500292982 1251996.58751062 448.10794958482404
v 2682085.1499932124 1251996.2375286629 448.10794958482404
v 2682084.799985595 1251995.5375134284 448.10794958482404
v 2682084.1000216808 1251995.8874953848 448.10794958482404
v 2682084.050035256 1251994.4125109378 448.10794958482404
v 2682083.4499928709 1251994.7125321301 448.10794958482404
v 2682083.7749816156 1251995.362509619 448.10794958482404
v 2682084.3750240002 1251995.0624884272 448.10794958482404
v 2682082.2500107433 1251993.9999946284 448.10794958482404
v 2682081.6500196792 1251994.2999901602 448.10794958482404
v 2682082.100025807 1251995.2000024165 448.10794958482404
v 2682082.5000198497 1251995.0000053954 448.10794958482404
v 2682082.4999941895 1251994.2500293953 448.10794958482404
l 1 2
l 2 77
l 3 77
l 3 4
l 4 5
l 5 6
l 7 8
l 8 9
l 9 10
l 10 11
l 12 13
l 13 14
l 12 15
l 11 16
l 17 18
l 17 19
l 21 22
l 23 24
l 24 25
l 26 27
l 26 28
l 25 29
l 29 30
l 30 31
l 31 33
l 33 34
l 35 36
l 37 38
l 38 39
l 39 40
l 40 41
l 43 44
l 44 45
l 45 108
l 108 110
l 110 112
l 112 114
l 114 116
l 116 118
l 118 120
l 46 120
l 46 47
l 47 48
l 49 50
l 50 51
l 51 52
l 52 53
l 53 54
l 54 55
l 55 56
l 56 57
l 57 58
l 58 59
l 59 60
l 1 60
l 6 7
l 14 15
l 18 61
l 19 61
l 16 21
l 20 62
l 20 63
l 22 23
l 27 64
l 32 65
l 65 66
l 32 67
l 34 37
l 36 68
l 41 43
l 42 69
l 42 70
l 48 49
l 62 71
l 63 71
l 64 72
l 28 72
l 68 73
l 35 74
l 69 75
l 70 75
l 66 67
l 73 76
l 74 76
l 78 79
l 79 80
l 3 80
l 80 81
l 4 81
l 81 82
l 5 82
l 82 83
l 6 83
l 83 84
l 84 85
l 8 85
l 85 86
l 9 86
l 86 87
l 10 87
l 87 88
l 11 88
l 88 89
l 16 89
l 89 90
l 21 90
l 90 91
l 22 91
l 91 92
l 23 92
l 92 93
l 24 93
l 93 94
l 25 94
l 94 95
l 29 95
l 95 96
l 30 96
l 96 97
l 31 97
l 97 98
l 33 98
l 98 99
l 34 99
l 99 100
l 37 100
l 100 101
l 38 101
l 101 102
l 39 102
l 102 103
l 40 103
l 103 104
l 41 104
l 104 105
l 43 105
l 105 106
l 44 106
l 106 107
l 45 107
l 107 109
l 109 111
l 111 113
l 113 115
l 115 117
l 117 119
l 119 121
l 121 122
l 46 122
l 122 123
l 47 123
l 123 124
l 48 124
l 124 125
l 49 125
l 125 126
l 50 126
l 126 127
l 51 127
l 127 128
l 52 128
l 128 129
l 53 129
l 129 130
l 54 130
l 130 131
l 55 131
l 131 132
l 56 132
l 132 133
l 57 133
l 133 134
l 58 134
l 134 135
l 59 135
l 135 136
l 60 136
l 136 137
l 78 137
l 74 138
l 138 139
l 35 139
l 139 140
l 36 140
l 140 141
l 68 141
l 141 142
l 73 142
l 142 143
l 76 143
l 138 143
l 75 144
l 144 145
l 70 145
l 145 146
l 42 146
l 146 147
l 69 147
l 144 147
l 65 148
l 148 149
l 66 149
l 149 150
l 67 150
l 150 151
l 32 151
l 148 151
l 17 152
l 152 153
l 18 153
l 153 154
l 61 154
l 154 155
l 19 155
l 152 155
l 13 156
l 156 157
l 14 157
l 157 158
l 15 158
l 158 159
l 12 159
l 156 159
l 63 160
l 160 161
l 20 161
l 161 162
l 62 162
l 162 163
l 71 163
l 160 163
l 28 164
l 164 165
l 26 165
l 165 166
l 27 166
l 166 167
l 64 167
l 167 168
l 72 168
l 164 168
