# XYZ-only planar convex-roof baseline. Provisional base; no GT.
v 6.07527243 11.07971023 4.73656896
v 5.90043220 11.11429401 4.73663718
v 1.80181499 11.58386491 4.73827254
v -1.55670931 11.96274944 4.73961322
v -3.35034496 12.16470774 4.74032926
v -3.48708813 12.17140492 4.74038476
v -3.50317233 12.04761694 4.74040443
v -3.55982386 11.55262971 4.74047994
v -3.65967767 10.66766918 4.74061436
v -3.81711621 9.26999038 4.74082653
v -4.00101410 7.63719675 4.74107439
v -4.33142644 4.70300996 4.74151978
v -4.68033837 1.60441297 4.74199011
v -5.70088928 -7.45906283 4.74336584
v -5.95653478 -9.73055851 4.74371058
v -6.07477838 -10.79184143 4.74387115
v -6.07543712 -11.04298555 4.74389792
v -6.07543712 -11.05753270 4.74389946
v -6.07488817 -11.07125642 4.74390068
v -6.05891375 -11.08519972 4.74389558
v -5.97525394 -11.09738639 4.74386248
v -5.54663463 -11.14860332 4.74369168
v -3.32997895 -11.40057087 4.74280702
v -2.13299587 -11.53561230 4.74232920
v -0.90466780 -11.67416700 4.74183887
v 2.13914409 -12.01687580 4.74062374
v 2.93797454 -12.10673874 4.74030484
v 3.19329068 -12.13544877 4.74020291
v 3.42017126 -12.16070042 4.74011230
v 3.45047324 -12.16339027 4.74010013
v 3.50322723 -12.16558606 4.74007867
v 3.50355660 -12.16415879 4.74007839
v 3.52353834 -12.04086487 4.74005717
v 3.58672236 -11.51733230 4.73997596
v 3.60286146 -11.37647201 4.73995446
v 3.91664065 -8.59291680 4.73953181
v 4.01396929 -7.72865164 4.73940062
v 4.68840792 -1.73896034 4.73849145
v 5.79997455 8.13306230 4.73699300
v 6.05605922 10.41548206 4.73664693
v 6.07543712 10.67008456 4.73661211
v 6.07543712 10.77883134 4.73660063
v 6.07538222 10.90305847 4.73658755
v 6.07532733 11.01894159 4.73657535
v 6.07527243 11.07971023 -6.17622875
v 5.90043220 11.11429401 -6.17622875
v 1.80181499 11.58386491 -6.17622875
v -1.55670931 11.96274944 -6.17622875
v -3.35034496 12.16470774 -6.17622875
v -3.48708813 12.17140492 -6.17622875
v -3.50317233 12.04761694 -6.17622875
v -3.55982386 11.55262971 -6.17622875
v -3.65967767 10.66766918 -6.17622875
v -3.81711621 9.26999038 -6.17622875
v -4.00101410 7.63719675 -6.17622875
v -4.33142644 4.70300996 -6.17622875
v -4.68033837 1.60441297 -6.17622875
v -5.70088928 -7.45906283 -6.17622875
v -5.95653478 -9.73055851 -6.17622875
v -6.07477838 -10.79184143 -6.17622875
v -6.07543712 -11.04298555 -6.17622875
v -6.07543712 -11.05753270 -6.17622875
v -6.07488817 -11.07125642 -6.17622875
v -6.05891375 -11.08519972 -6.17622875
v -5.97525394 -11.09738639 -6.17622875
v -5.54663463 -11.14860332 -6.17622875
v -3.32997895 -11.40057087 -6.17622875
v -2.13299587 -11.53561230 -6.17622875
v -0.90466780 -11.67416700 -6.17622875
v 2.13914409 -12.01687580 -6.17622875
v 2.93797454 -12.10673874 -6.17622875
v 3.19329068 -12.13544877 -6.17622875
v 3.42017126 -12.16070042 -6.17622875
v 3.45047324 -12.16339027 -6.17622875
v 3.50322723 -12.16558606 -6.17622875
v 3.50355660 -12.16415879 -6.17622875
v 3.52353834 -12.04086487 -6.17622875
v 3.58672236 -11.51733230 -6.17622875
v 3.60286146 -11.37647201 -6.17622875
v 3.91664065 -8.59291680 -6.17622875
v 4.01396929 -7.72865164 -6.17622875
v 4.68840792 -1.73896034 -6.17622875
v 5.79997455 8.13306230 -6.17622875
v 6.05605922 10.41548206 -6.17622875
v 6.07543712 10.67008456 -6.17622875
v 6.07543712 10.77883134 -6.17622875
v 6.07538222 10.90305847 -6.17622875
v 6.07532733 11.01894159 -6.17622875
g roof
f 1 2 3 4 5 6 7 8 9 10 11 12 13 14 15 16 17 18 19 20 21 22 23 24 25 26 27 28 29 30 31 32 33 34 35 36 37 38 39 40 41 42 43 44
g wall
f 2 1 45 46
g wall
f 3 2 46 47
g wall
f 4 3 47 48
g wall
f 5 4 48 49
g wall
f 6 5 49 50
g wall
f 7 6 50 51
g wall
f 8 7 51 52
g wall
f 9 8 52 53
g wall
f 10 9 53 54
g wall
f 11 10 54 55
g wall
f 12 11 55 56
g wall
f 13 12 56 57
g wall
f 14 13 57 58
g wall
f 15 14 58 59
g wall
f 16 15 59 60
g wall
f 17 16 60 61
g wall
f 18 17 61 62
g wall
f 19 18 62 63
g wall
f 20 19 63 64
g wall
f 21 20 64 65
g wall
f 22 21 65 66
g wall
f 23 22 66 67
g wall
f 24 23 67 68
g wall
f 25 24 68 69
g wall
f 26 25 69 70
g wall
f 27 26 70 71
g wall
f 28 27 71 72
g wall
f 29 28 72 73
g wall
f 30 29 73 74
g wall
f 31 30 74 75
g wall
f 32 31 75 76
g wall
f 33 32 76 77
g wall
f 34 33 77 78
g wall
f 35 34 78 79
g wall
f 36 35 79 80
g wall
f 37 36 80 81
g wall
f 38 37 81 82
g wall
f 39 38 82 83
g wall
f 40 39 83 84
g wall
f 41 40 84 85
g wall
f 42 41 85 86
g wall
f 43 42 86 87
g wall
f 44 43 87 88
g wall
f 1 44 88 45
g ground_assumed
f 88 87 86 85 84 83 82 81 80 79 78 77 76 75 74 73 72 71 70 69 68 67 66 65 64 63 62 61 60 59 58 57 56 55 54 53 52 51 50 49 48 47 46 45
