# Source coordinates; no display transform
v 0.249247772613 0.455146047075 0.196208034275
v 0.24206383201 0.456567046243 0.196210837339
v 0.0736573812148 0.475861058007 0.196278031995
v -0.064339686648 0.491428893618 0.196333118662
v -0.138037667786 0.499727077803 0.196362539744
v -0.143656253458 0.500002255565 0.196364820162
v -0.144317130748 0.494915980538 0.196365628374
v -0.14664486291 0.474577647309 0.196368730975
v -0.150747716356 0.438215856414 0.196374254105
v -0.157216645846 0.380787188646 0.196382971873
v -0.164772753035 0.313697981233 0.196393156094
v -0.178348934129 0.193136348381 0.196411456547
v -0.192685237511 0.0658193302759 0.196430781749
v -0.234618247549 -0.306586218508 0.196487308571
v -0.245122363721 -0.399918800173 0.196501473456
v -0.249980827926 -0.443525431553 0.196508071052
v -0.250007894632 -0.453844592314 0.196509170994
v -0.250007894632 -0.454442314369 0.196509234271
v -0.249985339043 -0.455006202836 0.196509284399
v -0.24932897246 -0.455579113539 0.196509074847
v -0.245891507834 -0.456079846771 0.196507714814
v -0.228280139647 -0.458184278817 0.196500696881
v -0.13720085691 -0.468537273165 0.196464347438
v -0.0880184956799 -0.47408593672 0.196444714483
v -0.0375482126352 -0.479778955626 0.196424567509
v 0.0875177623068 -0.49386038107 0.196374639516
v 0.120340588635 -0.497552723635 0.196361536361
v 0.130831171865 -0.498732378628 0.196357348199
v 0.140153377691 -0.499769933622 0.196353625161
v 0.141398443683 -0.499880455797 0.196353125113
v 0.143566031376 -0.499970677738 0.196352243352
v 0.143579564729 -0.49991203321 0.196352231847
v 0.144400586488 -0.494846058417 0.196351359947
v 0.146996729531 -0.473334837077 0.196348023141
v 0.147659862586 -0.467547084701 0.196347139736
v 0.160552610801 -0.35317469287 0.196329773639
v 0.164551708542 -0.317663245793 0.196324383225
v 0.192263448902 -0.0715552045907 0.196287026701
v 0.237936167623 0.334072403402 0.196225457485
v 0.248458328676 0.427853840241 0.196211237953
v 0.249254539495 0.438315101001 0.196209807248
v 0.249254539495 0.44278335415 0.196209335551
v 0.24925228373 0.447887673237 0.196208798112
v 0.249250028377 0.452649148619 0.196208296831
v 0.249247772613 0.455146047075 -0.252183566215
v 0.24206383201 0.456567046243 -0.252183566215
v 0.0736573812148 0.475861058007 -0.252183566215
v -0.064339686648 0.491428893618 -0.252183566215
v -0.138037667786 0.499727077803 -0.252183566215
v -0.143656253458 0.500002255565 -0.252183566215
v -0.144317130748 0.494915980538 -0.252183566215
v -0.14664486291 0.474577647309 -0.252183566215
v -0.150747716356 0.438215856414 -0.252183566215
v -0.157216645846 0.380787188646 -0.252183566215
v -0.164772753035 0.313697981233 -0.252183566215
v -0.178348934129 0.193136348381 -0.252183566215
v -0.192685237511 0.0658193302759 -0.252183566215
v -0.234618247549 -0.306586218508 -0.252183566215
v -0.245122363721 -0.399918800173 -0.252183566215
v -0.249980827926 -0.443525431553 -0.252183566215
v -0.250007894632 -0.453844592314 -0.252183566215
v -0.250007894632 -0.454442314369 -0.252183566215
v -0.249985339043 -0.455006202836 -0.252183566215
v -0.24932897246 -0.455579113539 -0.252183566215
v -0.245891507834 -0.456079846771 -0.252183566215
v -0.228280139647 -0.458184278817 -0.252183566215
v -0.13720085691 -0.468537273165 -0.252183566215
v -0.0880184956799 -0.47408593672 -0.252183566215
v -0.0375482126352 -0.479778955626 -0.252183566215
v 0.0875177623068 -0.49386038107 -0.252183566215
v 0.120340588635 -0.497552723635 -0.252183566215
v 0.130831171865 -0.498732378628 -0.252183566215
v 0.140153377691 -0.499769933622 -0.252183566215
v 0.141398443683 -0.499880455797 -0.252183566215
v 0.143566031376 -0.499970677738 -0.252183566215
v 0.143579564729 -0.49991203321 -0.252183566215
v 0.144400586488 -0.494846058417 -0.252183566215
v 0.146996729531 -0.473334837077 -0.252183566215
v 0.147659862586 -0.467547084701 -0.252183566215
v 0.160552610801 -0.35317469287 -0.252183566215
v 0.164551708542 -0.317663245793 -0.252183566215
v 0.192263448902 -0.0715552045907 -0.252183566215
v 0.237936167623 0.334072403402 -0.252183566215
v 0.248458328676 0.427853840241 -0.252183566215
v 0.249254539495 0.438315101001 -0.252183566215
v 0.249254539495 0.44278335415 -0.252183566215
v 0.24925228373 0.447887673237 -0.252183566215
v 0.249250028377 0.452649148619 -0.252183566215
g roof
f 1 2 3 4 5 6 7 8 9 10 11 12 13 14 15 16 17 18 19 20 21 22 23 24 25 26 27 28 29 30 31 32 33 34 35 36 37 38 39 40 41 42 43 44
g wall
f 2 1 45 46
g wall
f 3 2 46 47
g wall
f 4 3 47 48
g wall
f 5 4 48 49
g wall
f 6 5 49 50
g wall
f 7 6 50 51
g wall
f 8 7 51 52
g wall
f 9 8 52 53
g wall
f 10 9 53 54
g wall
f 11 10 54 55
g wall
f 12 11 55 56
g wall
f 13 12 56 57
g wall
f 14 13 57 58
g wall
f 15 14 58 59
g wall
f 16 15 59 60
g wall
f 17 16 60 61
g wall
f 18 17 61 62
g wall
f 19 18 62 63
g wall
f 20 19 63 64
g wall
f 21 20 64 65
g wall
f 22 21 65 66
g wall
f 23 22 66 67
g wall
f 24 23 67 68
g wall
f 25 24 68 69
g wall
f 26 25 69 70
g wall
f 27 26 70 71
g wall
f 28 27 71 72
g wall
f 29 28 72 73
g wall
f 30 29 73 74
g wall
f 31 30 74 75
g wall
f 32 31 75 76
g wall
f 33 32 76 77
g wall
f 34 33 77 78
g wall
f 35 34 78 79
g wall
f 36 35 79 80
g wall
f 37 36 80 81
g wall
f 38 37 81 82
g wall
f 39 38 82 83
g wall
f 40 39 83 84
g wall
f 41 40 84 85
g wall
f 42 41 85 86
g wall
f 43 42 86 87
g wall
f 44 43 87 88
g wall
f 1 44 88 45
g ground_assumed
f 88 87 86 85 84 83 82 81 80 79 78 77 76 75 74 73 72 71 70 69 68 67 66 65 64 63 62 61 60 59 58 57 56 55 54 53 52 51 50 49 48 47 46 45
