# XYZ-only planar convex-roof baseline. Provisional base; no GT.
v 6.85482455 10.40687000 1.97925786
v 2.86656300 7.54030701 1.97358200
v -9.34748803 -1.43328150 1.95568909
v -10.59381976 -2.67961323 1.95299635
v -10.59381976 -3.55204545 1.95070895
v -6.10702551 -9.65907096 1.93262737
v -5.60849282 -10.28223683 1.93076353
v -4.86069377 -10.15760366 1.93074533
v -1.62023126 -7.78957336 1.93545908
v 5.35922647 -2.67961323 1.94563692
v 9.09822168 0.06231659 1.95110100
v 10.09528707 0.93474880 1.95292843
v 10.34455342 1.18401515 1.95346698
v 10.59381976 5.42154306 1.96446218
v 9.34748803 7.41567384 1.97026546
v 7.60262360 9.78370414 1.97727904
v 7.35335725 10.03297048 1.97804757
v 6.85482455 10.40687000 -1.99484115
v 2.86656300 7.54030701 -1.99484115
v -9.34748803 -1.43328150 -1.99484115
v -10.59381976 -2.67961323 -1.99484115
v -10.59381976 -3.55204545 -1.99484115
v -6.10702551 -9.65907096 -1.99484115
v -5.60849282 -10.28223683 -1.99484115
v -4.86069377 -10.15760366 -1.99484115
v -1.62023126 -7.78957336 -1.99484115
v 5.35922647 -2.67961323 -1.99484115
v 9.09822168 0.06231659 -1.99484115
v 10.09528707 0.93474880 -1.99484115
v 10.34455342 1.18401515 -1.99484115
v 10.59381976 5.42154306 -1.99484115
v 9.34748803 7.41567384 -1.99484115
v 7.60262360 9.78370414 -1.99484115
v 7.35335725 10.03297048 -1.99484115
g roof
f 1 2 3 4 5 6 7 8 9 10 11 12 13 14 15 16 17
g wall
f 2 1 18 19
g wall
f 3 2 19 20
g wall
f 4 3 20 21
g wall
f 5 4 21 22
g wall
f 6 5 22 23
g wall
f 7 6 23 24
g wall
f 8 7 24 25
g wall
f 9 8 25 26
g wall
f 10 9 26 27
g wall
f 11 10 27 28
g wall
f 12 11 28 29
g wall
f 13 12 29 30
g wall
f 14 13 30 31
g wall
f 15 14 31 32
g wall
f 16 15 32 33
g wall
f 17 16 33 34
g wall
f 1 17 34 18
g ground_assumed
f 34 33 32 31 30 29 28 27 26 25 24 23 22 21 20 19 18
