v 2683807.4999999963 1247398.1249999956 423.80509063024346
v 2683803.5000000047 1247395.2500000007 423.79939806478194
v 2683791.2499999981 1247386.2499999977 423.7814524915168
v 2683790.0000000051 1247385.0000000047 423.77875182611615
v 2683790.0000000051 1247384.1250000007 423.77645769373152
v 2683794.5000000014 1247378.0000000021 423.75832289516381
v 2683794.9999999967 1247377.3750000007 423.75645356942118
v 2683795.7500000047 1247377.499999997 423.75643531585405
v 2683798.9999999981 1247379.8749999965 423.76116293958762
v 2683806.0000000005 1247385.0000000047 423.77137073549119
v 2683809.7499999995 1247387.7500000033 423.77685089763173
v 2683810.75 1247388.6249999972 423.77868370621076
v 2683811.0000000023 1247388.8749999998 423.77922384129681
v 2683811.2499999949 1247393.1250000037 423.79025140289326
v 2683810.0000000019 1247395.1250000044 423.7960717633834
v 2683808.2500000042 1247397.5000000042 423.80310598608617
v 2683808.0000000014 1247397.7499999967 423.80387677806027
v 2683807.4999999963 1247398.1249999956 419.81929486271207
v 2683803.5000000047 1247395.2500000007 419.81929486271207
v 2683791.2499999981 1247386.2499999977 419.81929486271207
v 2683790.0000000051 1247385.0000000047 419.81929486271207
v 2683790.0000000051 1247384.1250000007 419.81929486271207
v 2683794.5000000014 1247378.0000000021 419.81929486271207
v 2683794.9999999967 1247377.3750000007 419.81929486271207
v 2683795.7500000047 1247377.499999997 419.81929486271207
v 2683798.9999999981 1247379.8749999965 419.81929486271207
v 2683806.0000000005 1247385.0000000047 419.81929486271207
v 2683809.7499999995 1247387.7500000033 419.81929486271207
v 2683810.75 1247388.6249999972 419.81929486271207
v 2683811.0000000023 1247388.8749999998 419.81929486271207
v 2683811.2499999949 1247393.1250000037 419.81929486271207
v 2683810.0000000019 1247395.1250000044 419.81929486271207
v 2683808.2500000042 1247397.5000000042 419.81929486271207
v 2683808.0000000014 1247397.7499999967 419.81929486271207
l 1 2
l 2 3
l 3 4
l 4 5
l 5 6
l 6 7
l 7 8
l 8 9
l 9 10
l 10 11
l 11 12
l 12 13
l 13 14
l 14 15
l 15 16
l 16 17
l 1 17
l 1 18
l 18 19
l 19 20
l 20 21
l 4 21
l 21 22
l 5 22
l 22 23
l 23 24
l 7 24
l 24 25
l 8 25
l 25 26
l 26 27
l 27 28
l 28 29
l 29 30
l 13 30
l 30 31
l 14 31
l 31 32
l 32 33
l 33 34
l 18 34
