# XYZ-only planar convex-roof baseline. Provisional base; no GT.
v -3.91376588 -8.02823769 1.19773835
v -2.91023616 -7.92788472 1.19995334
v 8.73070849 -2.40847131 1.19007893
v 9.73423820 -1.90670645 1.18901573
v 12.14270951 -0.60211783 1.18564452
v 12.14270951 -0.50176486 1.18482497
v 7.92788472 7.42611987 1.10733582
v 7.32576690 8.32929661 1.09813919
v -9.93494415 7.42611987 1.05332111
v -10.33635603 7.32576690 1.05292685
v -11.54059169 6.62329610 1.05502222
v -11.74129763 5.82047233 1.06097168
v -11.13917980 4.41553073 1.07426604
v -4.71658965 -7.72717878 1.19285209
v -4.31517776 -8.02823769 1.19652454
v -3.91376588 -8.02823769 -1.77051297
v -2.91023616 -7.92788472 -1.77051297
v 8.73070849 -2.40847131 -1.77051297
v 9.73423820 -1.90670645 -1.77051297
v 12.14270951 -0.60211783 -1.77051297
v 12.14270951 -0.50176486 -1.77051297
v 7.92788472 7.42611987 -1.77051297
v 7.32576690 8.32929661 -1.77051297
v -9.93494415 7.42611987 -1.77051297
v -10.33635603 7.32576690 -1.77051297
v -11.54059169 6.62329610 -1.77051297
v -11.74129763 5.82047233 -1.77051297
v -11.13917980 4.41553073 -1.77051297
v -4.71658965 -7.72717878 -1.77051297
v -4.31517776 -8.02823769 -1.77051297
g roof
f 1 2 3 4 5 6 7 8 9 10 11 12 13 14 15
g wall
f 2 1 16 17
g wall
f 3 2 17 18
g wall
f 4 3 18 19
g wall
f 5 4 19 20
g wall
f 6 5 20 21
g wall
f 7 6 21 22
g wall
f 8 7 22 23
g wall
f 9 8 23 24
g wall
f 10 9 24 25
g wall
f 11 10 25 26
g wall
f 12 11 26 27
g wall
f 13 12 27 28
g wall
f 14 13 28 29
g wall
f 15 14 29 30
g wall
f 1 15 30 16
g ground_assumed
f 30 29 28 27 26 25 24 23 22 21 20 19 18 17 16
