# Source coordinates; no display transform
v 2682708.09595 1251847.4926 447.914621433
v 2682689.89042 1251844.64799 447.908496132
v 2682691.23471 1251836.04449 445.459020105
v 2682709.44025 1251838.8891 445.465145406
v 2682708.09595 1251847.4926 440.125274565
v 2682689.89042 1251844.64799 440.125274565
v 2682691.23471 1251836.04449 440.125274565
v 2682709.44025 1251838.8891 440.125274565
g roof
f 1 2 3 4
g wall
f 2 1 5 6
g wall
f 3 2 6 7
g wall
f 4 3 7 8
g wall
f 1 4 8 5
g ground_assumed
f 8 7 6 5
