# Source coordinates; no display transform
v -0.426136284048 -0.46072742631 0.162794780671
v 0.508330451376 -0.360501872648 0.160101200178
v 0.420109572442 0.462037630795 0.153281262634
v -0.514357162982 0.361812077607 0.155974843127
v -0.426136284048 -0.46072742631 -0.160597568078
v 0.508330451376 -0.360501872648 -0.160597568078
v 0.420109572442 0.462037630795 -0.160597568078
v -0.514357162982 0.361812077607 -0.160597568078
g roof
f 1 2 3 4
g wall
f 2 1 5 6
g wall
f 3 2 6 7
g wall
f 4 3 7 8
g wall
f 1 4 8 5
g ground_assumed
f 8 7 6 5
