# Source coordinates; no display transform
v 0.377258987366 -0.362858210183 0.232775863284
v 0.156739222 0.498795394716 0.226198876888
v -0.115592275375 0.429098619162 0.494765399862
v 0.112127230979 -0.430712383119 0.49424218149
v -0.380522024677 0.361296145104 0.233260680278
v -0.160002259311 -0.500357459742 0.225622642073
v 0.112127230979 -0.430712383119 -0.489378075072
v 0.377258987366 -0.362858210183 -0.489378075072
v 0.156739222 0.498795394716 -0.489378075072
v -0.115592275375 0.429098619162 -0.489378075072
v -0.380522024677 0.361296145104 -0.489378075072
v -0.160002259311 -0.500357459742 -0.489378075072
g roof
f 1 2 3
g roof
f 1 3 4
g roof
f 4 3 5
g roof
f 4 5 6
g facade_completed
f 1 4 7 8
g facade_completed
f 2 1 8 9
g facade_completed
f 3 2 9 10
g facade_completed
f 6 5 11 12
g facade_completed
f 4 6 12 7
g facade_completed
f 5 3 10 11
g ground_assumed
f 10 12 11
g ground_assumed
f 10 7 12
g ground_assumed
f 10 8 7
g ground_assumed
f 10 9 8
