# pointcloud_to_mesh 0.5.1; candidate requires geometry validation; coordinates preserved
v 7.097534236 -6.776867363 4.344815842
v 2.973055380 9.339021699 4.221803552
v -2.120481251 8.035452032 9.244922199
v 2.138657550 -8.045974017 9.235136214
v -7.075579709 6.767312325 4.353883589
v -2.951100853 -9.348576736 4.211025977
v 2.138657550 -8.045974017 -9.161949162
v 7.097534236 -6.776867363 -9.161949162
v 2.973055380 9.339021699 -9.161949162
v -2.120481251 8.035452032 -9.161949162
v -7.075579709 6.767312325 -9.161949162
v -2.951100853 -9.348576736 -9.161949162
g roof
f 1 2 3
g roof
f 1 3 4
g roof
f 4 3 5
g roof
f 4 5 6
g facade_completed
f 1 4 7 8
g facade_completed
f 2 1 8 9
g facade_completed
f 3 2 9 10
g facade_completed
f 6 5 11 12
g facade_completed
f 4 6 12 7
g facade_completed
f 5 3 10 11
g ground_assumed
f 10 12 11
g ground_assumed
f 10 7 12
g ground_assumed
f 10 8 7
g ground_assumed
f 10 9 8
