v 0.37725898736573049 -0.36285821018333936 0.23277586328410346
v 0.15673922200046272 0.49879539471634465 0.22619887688777793
v -0.1155922753749032 0.42909861916227932 0.49476539986241796
v 0.11212723097880514 -0.43071238311877702 0.49424218148952498
v -0.38052202467653473 0.36129614510396174 0.23326068027811536
v -0.16000225931126696 -0.50035745974225621 0.22562264207286328
v 0.11212723097880514 -0.43071238311877702 -0.48937807507176084
v 0.37725898736573049 -0.36285821018333936 -0.48937807507176084
v 0.15673922200046272 0.49879539471634465 -0.48937807507176084
v -0.1155922753749032 0.42909861916227932 -0.48937807507176084
v -0.38052202467653473 0.36129614510396174 -0.48937807507176084
v -0.16000225931126696 -0.50035745974225621 -0.48937807507176084
l 1 2
l 2 3
l 3 4
l 1 4
l 3 5
l 5 6
l 4 6
l 7 8
l 1 8
l 8 9
l 2 9
l 9 10
l 5 11
l 11 12
l 6 12
l 7 12
l 10 11
