# Source coordinates; no display transform
v -0.0560207129601 0.501046013386 0.067024214701
v -0.471330836015 -0.177983495947 0.0677237239838
v 0.0563507303429 -0.500725723319 0.0677682219229
v 0.471660853397 0.178303786014 0.0670687126402
v -0.0560207129601 0.501046013386 -0.0712297014347
v -0.471330836015 -0.177983495947 -0.0712297014347
v 0.0563507303429 -0.500725723319 -0.0712297014347
v 0.471660853397 0.178303786014 -0.0712297014347
g roof
f 1 2 3 4
g wall
f 2 1 5 6
g wall
f 3 2 6 7
g wall
f 4 3 7 8
g wall
f 1 4 8 5
g ground_assumed
f 8 7 6 5
