# Source coordinates; no display transform
v 2685636.24603 1246513.83608 521.776846892
v 2685644.22025 1246519.57752 519.209617053
v 2685640.4233 1246524.85105 525.594658348
v 2685632.3848 1246518.86384 528.053963076
v 2685624.2808 1246512.87094 525.534269309
v 2685627.90822 1246507.83286 519.338662908
v 2685632.26298 1246518.81355 528.05384141
v 2685636.84425 1246529.82195 519.630414947
v 2685628.88629 1246524.09222 521.882519204
v 2685620.53223 1246518.07729 519.111552917
v 2685636.24603 1246513.83608 513.845052485
v 2685644.22025 1246519.57752 513.845052485
v 2685640.4233 1246524.85105 513.845052485
v 2685636.84425 1246529.82195 513.845052485
v 2685628.88629 1246524.09222 513.845052485
v 2685620.53223 1246518.07729 513.845052485
v 2685624.2808 1246512.87094 513.845052485
v 2685627.90822 1246507.83286 513.845052485
g roof
f 1 2 3 4
g roof
f 5 6 1 4 7
g roof
f 7 4 3 8 9
g roof
f 10 5 7 9
g wall
f 2 1 11 12
g wall
f 3 2 12 13
g wall
f 6 5 17 18
g wall
f 1 6 18 11
g wall
f 8 3 13 14
g wall
f 9 8 14 15
g wall
f 5 10 16 17
g wall
f 10 9 15 16
g ground_assumed
f 18 17 16 15 14 13 12 11
