# XYZ-only planar convex-roof baseline. Provisional base; no GT.
v 3.59682862 -4.71819317 1.23076603
v 11.25342704 0.79455769 -1.23421047
v 7.60771711 5.85804370 4.89651320
v -0.11060705 0.10930260 7.25786327
v -7.89182773 -5.64489102 4.83852947
v -4.40888714 -10.48230852 -1.11030454
v -0.22758048 0.06101933 7.25774645
v 4.17122134 10.63095448 -0.83017305
v -3.46977698 5.12943569 1.33222939
v -11.49109283 -0.64591172 -1.32836869
v 3.59682862 -4.71819317 -6.38510323
v 11.25342704 0.79455769 -6.38510323
v 7.60771711 5.85804370 -6.38510323
v 4.17122134 10.63095448 -6.38510323
v -3.46977698 5.12943569 -6.38510323
v -11.49109283 -0.64591172 -6.38510323
v -7.89182773 -5.64489102 -6.38510323
v -4.40888714 -10.48230852 -6.38510323
g roof
f 1 2 3 4
g roof
f 5 6 1 4 7
g roof
f 7 4 3 8 9
g roof
f 10 5 7 9
g wall
f 2 1 11 12
g wall
f 3 2 12 13
g wall
f 6 5 17 18
g wall
f 1 6 18 11
g wall
f 8 3 13 14
g wall
f 9 8 14 15
g wall
f 5 10 16 17
g wall
f 10 9 15 16
g ground_assumed
f 18 17 16 15 14 13 12 11
