v 2685636.2460339926 1246513.8360844743 521.77684689249293
v 2685644.2202471066 1246519.5775179139 519.20961705312322
v 2685640.4233040861 1246524.8510498831 525.5946583476566
v 2685632.3848046954 1246518.8638367429 528.05396307567401
v 2685624.2807996809 1246512.8709448988 525.53426930871285
v 2685627.9082212858 1246507.8328593222 519.33866290843696
v 2685632.262978917 1246518.8135505631 528.05384140969068
v 2685636.8442539475 1246529.821952841 519.6304149474829
v 2685628.8862880645 1246524.0922174056 521.8825192043364
v 2685620.5322281369 1246518.0772942598 519.1115529166068
v 2685636.2460339926 1246513.8360844743 513.845052485118
v 2685644.2202471066 1246519.5775179139 513.845052485118
v 2685640.4233040861 1246524.8510498831 513.845052485118
v 2685636.8442539475 1246529.821952841 513.845052485118
v 2685628.8862880645 1246524.0922174056 513.845052485118
v 2685620.5322281369 1246518.0772942598 513.845052485118
v 2685624.2807996809 1246512.8709448988 513.845052485118
v 2685627.9082212858 1246507.8328593222 513.845052485118
l 1 2
l 2 3
l 3 4
l 1 4
l 5 6
l 1 6
l 4 7
l 5 7
l 3 8
l 8 9
l 7 9
l 5 10
l 9 10
l 11 12
l 2 12
l 12 13
l 17 18
l 6 18
l 11 18
l 13 14
l 8 14
l 14 15
l 10 16
l 16 17
l 15 16
