# Source coordinates; no display transform
v 0.42011749912 -0.154628619619 0.17469464525
v 0.498464120744 -0.122584976857 0.108676547583
v 0.505522450682 -0.11682752809 0.101889686538
v 0.505480486961 -0.11266470813 0.100703028304
v 0.320772136158 0.345841376356 0.100215913875
v 0.283659252935 0.431246327917 0.10208300337
v -0.109360843762 0.273269707163 0.432448745473
v 0.113002873078 -0.27796279737 0.432816949054
v -0.317180025131 0.189735627317 0.258468817932
v -0.470986151994 0.124892992173 0.128831309068
v -0.488904741817 0.11628199768 0.113421915526
v -0.501619806956 0.106848510127 0.101523626003
v -0.296248426169 -0.406605119433 0.100603694536
v -0.284985312551 -0.433663449174 0.100872502694
v -0.277675199229 -0.434855224248 0.105794508708
v 0.42011749912 -0.154628619619 -0.433468250194
v 0.498464120744 -0.122584976857 -0.433468250194
v 0.505522450682 -0.11682752809 -0.433468250194
v 0.505480486961 -0.11266470813 -0.433468250194
v 0.320772136158 0.345841376356 -0.433468250194
v 0.283659252935 0.431246327917 -0.433468250194
v -0.109360843762 0.273269707163 -0.433468250194
v -0.317180025131 0.189735627317 -0.433468250194
v -0.470986151994 0.124892992173 -0.433468250194
v -0.488904741817 0.11628199768 -0.433468250194
v -0.501619806956 0.106848510127 -0.433468250194
v -0.296248426169 -0.406605119433 -0.433468250194
v -0.284985312551 -0.433663449174 -0.433468250194
v -0.277675199229 -0.434855224248 -0.433468250194
v 0.113002873078 -0.27796279737 -0.433468250194
g roof
f 1 2 3 4 5 6 7 8
g roof
f 7 9 10 11 12 13 14 15 8
g wall
f 2 1 16 17
g wall
f 3 2 17 18
g wall
f 4 3 18 19
g wall
f 5 4 19 20
g wall
f 6 5 20 21
g wall
f 7 6 21 22
g wall
f 1 8 30 16
g wall
f 9 7 22 23
g wall
f 10 9 23 24
g wall
f 11 10 24 25
g wall
f 12 11 25 26
g wall
f 13 12 26 27
g wall
f 14 13 27 28
g wall
f 15 14 28 29
g wall
f 8 15 29 30
g ground_assumed
f 30 29 28 27 26 25 24 23 22 21 20 19 18 17 16
