v 0.42011749912040064 -0.15462861961860169 0.17469464524971834
v 0.4984641207435464 -0.12258497685663337 0.10867654758318936
v 0.50552245068150703 -0.11682752808978994 0.1018896865380764
v 0.50548048696136139 -0.1126647081296111 0.10070302830431936
v 0.32077213615839945 0.3458413763555987 0.10021591387458019
v 0.28365925293533384 0.43124632791670514 0.10208300337039648
v -0.10936084376212667 0.27326970716268473 0.43244874547342427
v 0.11300287307765833 -0.27796279736959945 0.43281694905401269
v -0.31718002513079763 0.18973562731738339 0.25846881793244592
v -0.47098615199375127 0.12489299217327862 0.12883130906753518
v -0.48890474181686361 0.11628199768030827 0.11342191552614707
v -0.50161980695550712 0.1068485101267108 0.10152362600287788
v -0.29624842616938274 -0.40660511943287625 0.10060369453623215
v -0.28498531255109755 -0.43366344917403871 0.10087250269365772
v -0.27767519922924444 -0.43485522424756973 0.10579450870793933
v 0.42011749912040064 -0.15462861961860169 -0.43346825019437307
v 0.4984641207435464 -0.12258497685663337 -0.43346825019437307
v 0.50552245068150703 -0.11682752808978994 -0.43346825019437307
v 0.50548048696136139 -0.1126647081296111 -0.43346825019437307
v 0.32077213615839945 0.3458413763555987 -0.43346825019437307
v 0.28365925293533384 0.43124632791670514 -0.43346825019437307
v -0.10936084376212667 0.27326970716268473 -0.43346825019437307
v -0.31718002513079763 0.18973562731738339 -0.43346825019437307
v -0.47098615199375127 0.12489299217327862 -0.43346825019437307
v -0.48890474181686361 0.11628199768030827 -0.43346825019437307
v -0.50161980695550712 0.1068485101267108 -0.43346825019437307
v -0.29624842616938274 -0.40660511943287625 -0.43346825019437307
v -0.28498531255109755 -0.43366344917403871 -0.43346825019437307
v -0.27767519922924444 -0.43485522424756973 -0.43346825019437307
v 0.11300287307765833 -0.27796279736959945 -0.43346825019437307
l 1 2
l 2 3
l 3 4
l 4 5
l 5 6
l 6 7
l 7 8
l 1 8
l 7 9
l 9 10
l 10 11
l 11 12
l 12 13
l 13 14
l 14 15
l 8 15
l 16 17
l 2 17
l 17 18
l 3 18
l 18 19
l 4 19
l 19 20
l 20 21
l 6 21
l 21 22
l 16 30
l 22 23
l 23 24
l 24 25
l 11 25
l 25 26
l 12 26
l 26 27
l 27 28
l 14 28
l 28 29
l 15 29
l 29 30
