v 0.040886282311083016 -0.56467967236900107 0.081211726581052274
v 0.32652500906264803 0.39222962257007593 0.081459630152234924
v -0.042861628431197223 0.50249203667414544 0.081470666597479174
v -0.32850035518276222 -0.4544172586680747 0.081222763026296524
v 0.040886282311083016 -0.56467967236900107 -0.080176926990842418
v 0.32652500906264803 0.39222962257007593 -0.080176926990842418
v -0.042861628431197223 0.50249203667414544 -0.080176926990842418
v -0.32850035518276222 -0.4544172586680747 -0.080176926990842418
l 1 2
l 2 3
l 3 4
l 1 4
l 1 5
l 5 6
l 2 6
l 6 7
l 3 7
l 7 8
l 4 8
l 5 8
