# Source coordinates; no display transform
v 2685715.5 1251355.625 433.018693853
v 2685715.5 1251355.25 433.01952404
v 2685722.25 1251353.125 433.035467692
v 2685722.75 1251353.125 433.036300225
v 2685725.25 1251355.875 433.034374857
v 2685725.5 1251356.375 433.033684204
v 2685726.25 1251358.125 433.031058792
v 2685726.5 1251358.75 433.030091416
v 2685727.75 1251363.25 433.022210484
v 2685727.75 1251363.625 433.021380296
v 2685727.5 1251363.75 433.020687297
v 2685726.25 1251364.25 433.017499037
v 2685723 1251365.5 433.00932025
v 2685720.5 1251366.375 433.003220459
v 2685720.25 1251366.375 433.002804189
v 2685718.75 1251363.125 433.007501554
v 2685715.5 1251355.625 430.425274048
v 2685715.5 1251355.25 430.425274048
v 2685722.25 1251353.125 430.425274048
v 2685722.75 1251353.125 430.425274048
v 2685725.25 1251355.875 430.425274048
v 2685725.5 1251356.375 430.425274048
v 2685726.25 1251358.125 430.425274048
v 2685726.5 1251358.75 430.425274048
v 2685727.75 1251363.25 430.425274048
v 2685727.75 1251363.625 430.425274048
v 2685727.5 1251363.75 430.425274048
v 2685726.25 1251364.25 430.425274048
v 2685723 1251365.5 430.425274048
v 2685720.5 1251366.375 430.425274048
v 2685720.25 1251366.375 430.425274048
v 2685718.75 1251363.125 430.425274048
g roof
f 1 2 3 4 5 6 7 8 9 10 11 12 13 14 15 16
g wall
f 2 1 17 18
g wall
f 3 2 18 19
g wall
f 4 3 19 20
g wall
f 5 4 20 21
g wall
f 6 5 21 22
g wall
f 7 6 22 23
g wall
f 8 7 23 24
g wall
f 9 8 24 25
g wall
f 10 9 25 26
g wall
f 11 10 26 27
g wall
f 12 11 27 28
g wall
f 13 12 28 29
g wall
f 14 13 29 30
g wall
f 15 14 30 31
g wall
f 16 15 31 32
g wall
f 1 16 32 17
g ground_assumed
f 32 31 30 29 28 27 26 25 24 23 22 21 20 19 18 17
