# XYZ-only planar convex-roof baseline. Provisional base; no GT.
v -9.92136477 -6.68173546 2.32230744
v -9.92136477 -7.28916595 2.32365219
v 1.01238416 -10.73127210 2.34947795
v 1.82229149 -10.73127210 2.35082650
v 5.87182813 -6.27678179 2.34770776
v 6.27678179 -5.46687446 2.34658903
v 7.49164278 -2.63219882 2.34233635
v 7.89659645 -1.61981466 2.34076938
v 9.92136477 5.66935130 2.32800373
v 9.92136477 6.27678179 2.32665898
v 9.51641110 6.47925862 2.32553645
v 7.49164278 7.28916595 2.32037206
v 2.22724515 9.31393427 2.30712394
v -1.82229149 10.73127210 2.29724341
v -2.22724515 10.73127210 2.29656913
v -4.65696714 5.46687446 2.30417799
v -9.92136477 -6.68173546 -1.87855197
v -9.92136477 -7.28916595 -1.87855197
v 1.01238416 -10.73127210 -1.87855197
v 1.82229149 -10.73127210 -1.87855197
v 5.87182813 -6.27678179 -1.87855197
v 6.27678179 -5.46687446 -1.87855197
v 7.49164278 -2.63219882 -1.87855197
v 7.89659645 -1.61981466 -1.87855197
v 9.92136477 5.66935130 -1.87855197
v 9.92136477 6.27678179 -1.87855197
v 9.51641110 6.47925862 -1.87855197
v 7.49164278 7.28916595 -1.87855197
v 2.22724515 9.31393427 -1.87855197
v -1.82229149 10.73127210 -1.87855197
v -2.22724515 10.73127210 -1.87855197
v -4.65696714 5.46687446 -1.87855197
g roof
f 1 2 3 4 5 6 7 8 9 10 11 12 13 14 15 16
g wall
f 2 1 17 18
g wall
f 3 2 18 19
g wall
f 4 3 19 20
g wall
f 5 4 20 21
g wall
f 6 5 21 22
g wall
f 7 6 22 23
g wall
f 8 7 23 24
g wall
f 9 8 24 25
g wall
f 10 9 25 26
g wall
f 11 10 26 27
g wall
f 12 11 27 28
g wall
f 13 12 28 29
g wall
f 14 13 29 30
g wall
f 15 14 30 31
g wall
f 16 15 31 32
g wall
f 1 16 32 17
g ground_assumed
f 32 31 30 29 28 27 26 25 24 23 22 21 20 19 18 17
