# Source coordinates; no display transform
v 2684058.25 1251798.375 443.444791686
v 2684059.75 1251798.5 443.441803628
v 2684060.25 1251798.625 443.440499957
v 2684060.25 1251801 443.431731771
v 2684060 1251802.25 443.42753803
v 2684059.75 1251802.875 443.425651709
v 2684059.25 1251802.875 443.426493897
v 2684057.5 1251802.75 443.429903049
v 2684056.5 1251802.375 443.432971879
v 2684056.5 1251799.5 443.443585998
v 2684056.75 1251798.375 443.447318255
v 2684058.25 1251798.375 428.855010987
v 2684059.75 1251798.5 428.855010987
v 2684060.25 1251798.625 428.855010987
v 2684060.25 1251801 428.855010987
v 2684060 1251802.25 428.855010987
v 2684059.75 1251802.875 428.855010987
v 2684059.25 1251802.875 428.855010987
v 2684057.5 1251802.75 428.855010987
v 2684056.5 1251802.375 428.855010987
v 2684056.5 1251799.5 428.855010987
v 2684056.75 1251798.375 428.855010987
g roof
f 1 2 3 4 5 6 7 8 9 10 11
g wall
f 2 1 12 13
g wall
f 3 2 13 14
g wall
f 4 3 14 15
g wall
f 5 4 15 16
g wall
f 6 5 16 17
g wall
f 7 6 17 18
g wall
f 8 7 18 19
g wall
f 9 8 19 20
g wall
f 10 9 20 21
g wall
f 11 10 21 22
g wall
f 1 11 22 12
g ground_assumed
f 22 21 20 19 18 17 16 15 14 13 12
