v 2684058.2499999972 1251798.3749999988 443.44479168599588
v 2684059.7500000028 1251798.5000000014 443.44180362807805
v 2684060.2500000028 1251798.6249999986 443.44049995716932
v 2684060.2500000028 1251801.0000000014 443.43173177065194
v 2684060.0000000028 1251802.2500000014 443.42753802992735
v 2684059.7500000028 1251802.8749999986 443.42565170932016
v 2684059.2500000028 1251802.8749999986 443.42649389730866
v 2684057.4999999972 1251802.7500000012 443.42990304922068
v 2684056.4999999972 1251802.3749999986 443.43297187947451
v 2684056.4999999972 1251799.5000000014 443.44358599767298
v 2684056.7499999972 1251798.3749999988 443.44731825547728
v 2684058.2499999972 1251798.3749999988 428.85501098741315
v 2684059.7500000028 1251798.5000000014 428.85501098741315
v 2684060.2500000028 1251798.6249999986 428.85501098741315
v 2684060.2500000028 1251801.0000000014 428.85501098741315
v 2684060.0000000028 1251802.2500000014 428.85501098741315
v 2684059.7500000028 1251802.8749999986 428.85501098741315
v 2684059.2500000028 1251802.8749999986 428.85501098741315
v 2684057.4999999972 1251802.7500000012 428.85501098741315
v 2684056.4999999972 1251802.3749999986 428.85501098741315
v 2684056.4999999972 1251799.5000000014 428.85501098741315
v 2684056.7499999972 1251798.3749999988 428.85501098741315
l 1 2
l 2 3
l 3 4
l 4 5
l 5 6
l 6 7
l 7 8
l 8 9
l 9 10
l 10 11
l 1 11
l 12 13
l 13 14
l 3 14
l 14 15
l 4 15
l 15 16
l 5 16
l 16 17
l 6 17
l 17 18
l 18 19
l 8 19
l 19 20
l 9 20
l 20 21
l 10 21
l 21 22
l 11 22
l 12 22
