# Source coordinates; no display transform
v 0.496022073037 -0.170169277375 -0.000699719897592
v 0.183525150817 0.352671761793 0.276436798155
v -0.379953750637 0.0189862009704 0.275133071164
v -0.0660915771983 -0.506139050959 -0.00321421421183
v 0.0643357798131 0.552088428247 0.17328437267
v -0.497777869916 0.216118654662 0.173162202426
v 0.496022073037 -0.170169277375 -0.276144346498
v 0.183525150817 0.352671761793 -0.276144346498
v 0.0643357798131 0.552088428247 -0.276144346498
v -0.497777869916 0.216118654662 -0.276144346498
v -0.379953750637 0.0189862009704 -0.276144346498
v -0.0660915771983 -0.506139050959 -0.276144346498
g roof
f 1 2 3 4
g roof
f 2 5 6 3
g wall
f 2 1 7 8
g wall
f 4 3 11 12
g wall
f 1 4 12 7
g wall
f 5 2 8 9
g wall
f 6 5 9 10
g wall
f 3 6 10 11
g ground_assumed
f 12 11 10 9 8 7
