v 2685769.3969349139 1251581.542943785 435.30230315616677
v 2685765.9604556221 1251573.2953934916 435.3010262906775
v 2685777.7869171631 1251568.3677011817 435.318964511454
v 2685781.2233964475 1251576.6152514822 435.32024138424538
v 2685769.3969349139 1251581.542943785 426.89102605838349
v 2685765.9604556221 1251573.2953934916 426.89102605838349
v 2685777.7869171631 1251568.3677011817 426.89102605838349
v 2685781.2233964475 1251576.6152514822 426.89102605838349
l 1 2
l 2 3
l 3 4
l 1 4
l 1 5
l 5 6
l 2 6
l 6 7
l 3 7
l 7 8
l 4 8
l 5 8
