# Source coordinates; no display transform
v -0.0778785356443 0.501321626462 0.0673783880798
v -0.0800660421058 0.500309994188 0.0661166985626
v -0.0907001816933 0.485928971021 0.0647657634932
v -0.111456297379 0.453534604562 0.064314711648
v -0.191144955729 0.32707055712 0.0636406691925
v -0.256216726294 0.223087809021 0.0634517951012
v -0.270644921958 0.200026955765 0.0634124569382
v -0.420008086704 -0.0390794530056 0.0631954926973
v -0.48867174314 -0.149531639684 0.0633649770664
v -0.48867174314 -0.151950193083 0.0645872734559
v -0.0814339372455 -0.130553206923 0.383835726552
v 0.0798780228061 0.12886604399 0.383471297964
v 0.0829435947186 -0.499541748041 0.0652957937032
v 0.0915762517774 -0.48679830178 0.0647038674016
v 0.351870072281 -0.0713996902645 0.0625074193084
v 0.443715883669 0.0751937464526 0.0617415463601
v 0.475180268142 0.126646000576 0.062098353536
v 0.476036120928 0.128162275252 0.062166704508
v 0.484149875188 0.143938270864 0.0635186273406
v 0.486178313886 0.149686636438 0.0647630643542
v 0.486178313886 0.151843116143 0.0658464105845
v 0.485744513478 0.152202222229 0.0663782610323
v 0.0776025600607 -0.499173480998 0.0698078863857
v 0.484143136412 0.153527865545 0.0659968115394
v 0.184109441225 0.342334389243 0.0631210497184
v -0.025763191443 0.473778556758 0.0618296461924
v -0.065280679061 0.498470247077 0.0616536055518
v -0.0738729023989 0.503174068278 0.062380937058
v -0.48867174314 -0.154410674388 0.0617239133729
v -0.488665004364 -0.154558932788 0.0615562503089
v -0.488631309419 -0.1547408856 0.0613688591965
v -0.285767234989 -0.281777747646 0.0601594063967
v -0.121328930775 -0.38429813341 0.0597069393446
v -0.0568232360382 -0.424307567657 0.0597705265338
v 0.00326841445371 -0.461405755317 0.0600316151333
v 0.0375429612111 -0.481865354737 0.0609953107418
v 0.0600849111347 -0.494999662791 0.0620035202644
v 0.0661500103695 -0.498220904263 0.0626386343906
v 0.067403463724 -0.498470247499 0.063254449513
v -0.0778785356443 0.501321626462 -0.38411014234
v -0.0800660421058 0.500309994188 -0.38411014234
v -0.0907001816933 0.485928971021 -0.38411014234
v -0.111456297379 0.453534604562 -0.38411014234
v -0.191144955729 0.32707055712 -0.38411014234
v -0.256216726294 0.223087809021 -0.38411014234
v -0.270644921958 0.200026955765 -0.38411014234
v -0.420008086704 -0.0390794530056 -0.38411014234
v -0.48867174314 -0.149531639684 -0.38411014234
v -0.48867174314 -0.151950193083 -0.38411014234
v -0.48867174314 -0.154410674388 -0.38411014234
v -0.488665004364 -0.154558932788 -0.38411014234
v -0.488631309419 -0.1547408856 -0.38411014234
v -0.285767234989 -0.281777747646 -0.38411014234
v -0.121328930775 -0.38429813341 -0.38411014234
v -0.0568232360382 -0.424307567657 -0.38411014234
v 0.00326841445371 -0.461405755317 -0.38411014234
v 0.0375429612111 -0.481865354737 -0.38411014234
v 0.0600849111347 -0.494999662791 -0.38411014234
v 0.0661500103695 -0.498220904263 -0.38411014234
v 0.067403463724 -0.498470247499 -0.38411014234
v 0.0776025600607 -0.499173480998 -0.38411014234
v 0.0829435947186 -0.499541748041 -0.38411014234
v 0.0915762517774 -0.48679830178 -0.38411014234
v 0.351870072281 -0.0713996902645 -0.38411014234
v 0.443715883669 0.0751937464526 -0.38411014234
v 0.475180268142 0.126646000576 -0.38411014234
v 0.476036120928 0.128162275252 -0.38411014234
v 0.484149875188 0.143938270864 -0.38411014234
v 0.486178313886 0.149686636438 -0.38411014234
v 0.486178313886 0.151843116143 -0.38411014234
v 0.485744513478 0.152202222229 -0.38411014234
v 0.484143136412 0.153527865545 -0.38411014234
v 0.184109441225 0.342334389243 -0.38411014234
v -0.025763191443 0.473778556758 -0.38411014234
v -0.065280679061 0.498470247077 -0.38411014234
v -0.0738729023989 0.503174068278 -0.38411014234
g roof
f 1 2 3 4 5 6 7 8 9 10 11 12
g roof
f 13 14 15 16 17 18 19 20 21 22 12 11 23
g roof
f 22 24 25 26 27 28 1 12
g roof
f 11 10 29 30 31 32 33 34 35 36 37 38 39 23
g wall
f 2 1 40 41
g wall
f 3 2 41 42
g wall
f 4 3 42 43
g wall
f 5 4 43 44
g wall
f 6 5 44 45
g wall
f 7 6 45 46
g wall
f 8 7 46 47
g wall
f 9 8 47 48
g wall
f 10 9 48 49
g wall
f 14 13 62 63
g wall
f 15 14 63 64
g wall
f 16 15 64 65
g wall
f 17 16 65 66
g wall
f 18 17 66 67
g wall
f 19 18 67 68
g wall
f 20 19 68 69
g wall
f 21 20 69 70
g wall
f 22 21 70 71
g wall
f 13 23 61 62
g wall
f 24 22 71 72
g wall
f 25 24 72 73
g wall
f 26 25 73 74
g wall
f 27 26 74 75
g wall
f 28 27 75 76
g wall
f 1 28 76 40
g wall
f 29 10 49 50
g wall
f 30 29 50 51
g wall
f 31 30 51 52
g wall
f 32 31 52 53
g wall
f 33 32 53 54
g wall
f 34 33 54 55
g wall
f 35 34 55 56
g wall
f 36 35 56 57
g wall
f 37 36 57 58
g wall
f 38 37 58 59
g wall
f 39 38 59 60
g wall
f 23 39 60 61
g ground_assumed
f 76 75 74 73 72 71 70 69 68 67 66 65 64 63 62 61 60 59 58 57 56 55 54 53 52 51 50 49 48 47 46 45 44 43 42 41 40
