# XYZ-only planar convex-roof baseline. Provisional base; no GT.
v -1.43609053 9.36038739 1.29318522
v -1.47708289 9.34143010 1.26954203
v -1.67635932 9.07193966 1.24422644
v -2.06531459 8.46489161 1.23577404
v -3.55862500 6.09504272 1.22314295
v -4.77802503 4.14647785 1.21960358
v -5.04839945 3.71433339 1.21886641
v -7.84736198 -0.76635554 1.21480065
v -9.13407147 -2.83615322 1.21797667
v -9.13407147 -2.88147524 1.24088166
v -1.50271630 -2.48051050 7.22337714
v 1.52015840 2.38082706 7.21654800
v 1.57760510 -9.39510087 1.25415884
v 1.73937513 -9.15629749 1.24306655
v 6.61710152 -1.37201446 1.20190663
v 8.33822858 1.37504528 1.18755470
v 8.92784941 2.33922498 1.19424102
v 8.94388750 2.36763892 1.19552187
v 9.09593365 2.66327018 1.22085597
v 9.13394519 2.77099058 1.24417586
v 9.13394519 2.81140152 1.26447702
v 9.12581607 2.81813092 1.27444353
v 1.47751780 -9.38819980 1.33871234
v 9.09580737 2.84297256 1.26729543
v 3.47338318 6.38107639 1.21340564
v -0.45948498 8.84424929 1.18920563
v -1.20001540 9.30695451 1.18590675
v -1.36102773 9.39510087 1.19953644
v -9.13407147 -2.92758296 1.18722427
v -9.13394519 -2.93036122 1.18408238
v -9.13331377 -2.93377089 1.18057080
v -5.33178115 -5.31435393 1.15790649
v -2.25032092 -7.23551514 1.14942757
v -1.04152876 -7.98526430 1.15061915
v 0.08454726 -8.68045871 1.15551177
v 0.72682859 -9.06385747 1.17357076
v 1.14924916 -9.30998533 1.19246391
v 1.26290493 -9.37034917 1.20436551
v 1.28639378 -9.37502169 1.21590546
v -1.43609053 9.36038739 -7.16739796
v -1.47708289 9.34143010 -7.16739796
v -1.67635932 9.07193966 -7.16739796
v -2.06531459 8.46489161 -7.16739796
v -3.55862500 6.09504272 -7.16739796
v -4.77802503 4.14647785 -7.16739796
v -5.04839945 3.71433339 -7.16739796
v -7.84736198 -0.76635554 -7.16739796
v -9.13407147 -2.83615322 -7.16739796
v -9.13407147 -2.88147524 -7.16739796
v -9.13407147 -2.92758296 -7.16739796
v -9.13394519 -2.93036122 -7.16739796
v -9.13331377 -2.93377089 -7.16739796
v -5.33178115 -5.31435393 -7.16739796
v -2.25032092 -7.23551514 -7.16739796
v -1.04152876 -7.98526430 -7.16739796
v 0.08454726 -8.68045871 -7.16739796
v 0.72682859 -9.06385747 -7.16739796
v 1.14924916 -9.30998533 -7.16739796
v 1.26290493 -9.37034917 -7.16739796
v 1.28639378 -9.37502169 -7.16739796
v 1.47751780 -9.38819980 -7.16739796
v 1.57760510 -9.39510087 -7.16739796
v 1.73937513 -9.15629749 -7.16739796
v 6.61710152 -1.37201446 -7.16739796
v 8.33822858 1.37504528 -7.16739796
v 8.92784941 2.33922498 -7.16739796
v 8.94388750 2.36763892 -7.16739796
v 9.09593365 2.66327018 -7.16739796
v 9.13394519 2.77099058 -7.16739796
v 9.13394519 2.81140152 -7.16739796
v 9.12581607 2.81813092 -7.16739796
v 9.09580737 2.84297256 -7.16739796
v 3.47338318 6.38107639 -7.16739796
v -0.45948498 8.84424929 -7.16739796
v -1.20001540 9.30695451 -7.16739796
v -1.36102773 9.39510087 -7.16739796
g roof
f 1 2 3 4 5 6 7 8 9 10 11 12
g roof
f 13 14 15 16 17 18 19 20 21 22 12 11 23
g roof
f 22 24 25 26 27 28 1 12
g roof
f 11 10 29 30 31 32 33 34 35 36 37 38 39 23
g wall
f 2 1 40 41
g wall
f 3 2 41 42
g wall
f 4 3 42 43
g wall
f 5 4 43 44
g wall
f 6 5 44 45
g wall
f 7 6 45 46
g wall
f 8 7 46 47
g wall
f 9 8 47 48
g wall
f 10 9 48 49
g wall
f 14 13 62 63
g wall
f 15 14 63 64
g wall
f 16 15 64 65
g wall
f 17 16 65 66
g wall
f 18 17 66 67
g wall
f 19 18 67 68
g wall
f 20 19 68 69
g wall
f 21 20 69 70
g wall
f 22 21 70 71
g wall
f 13 23 61 62
g wall
f 24 22 71 72
g wall
f 25 24 72 73
g wall
f 26 25 73 74
g wall
f 27 26 74 75
g wall
f 28 27 75 76
g wall
f 1 28 76 40
g wall
f 29 10 49 50
g wall
f 30 29 50 51
g wall
f 31 30 51 52
g wall
f 32 31 52 53
g wall
f 33 32 53 54
g wall
f 34 33 54 55
g wall
f 35 34 55 56
g wall
f 36 35 56 57
g wall
f 37 36 57 58
g wall
f 38 37 58 59
g wall
f 39 38 59 60
g wall
f 23 39 60 61
g ground_assumed
f 76 75 74 73 72 71 70 69 68 67 66 65 64 63 62 61 60 59 58 57 56 55 54 53 52 51 50 49 48 47 46 45 44 43 42 41 40
