v -0.077878535644261421 0.50132162646236489 0.067378388079800761
v -0.080066042105822036 0.50030999418823674 0.066116698562610113
v -0.090700181693338683 0.48592897102126575 0.064765763493167428
v -0.11145629737887269 0.45353460456242378 0.06431471164800176
v -0.19114495572864193 0.32707055712047906 0.063640669192491658
v -0.25621672629399167 0.22308780902071029 0.06345179510120115
v -0.27064492195754225 0.20002695576469801 0.063412456938229597
v -0.42000808670436518 -0.039079453005574354 0.063195492697303846
v -0.48867174314001266 -0.14953163968434061 0.063364977066392283
v -0.48867174314001266 -0.1519501930830954 0.064587273455938565
v -0.081433937245473251 -0.1305532069225529 0.38383572655200898
v 0.079878022806061585 0.12886604398974788 0.38347129796392809
v 0.082943594718616398 -0.49954174804143137 0.065295793703157898
v 0.091576251777440429 -0.48679830177992034 0.064703867401561588
v 0.35187007228081668 -0.071399690264464299 0.062507419308372558
v 0.44371588366900799 0.07519374645259834 0.061741546360075214
v 0.47518026814201081 0.12664600057642983 0.062098353535950473
v 0.47603612092789804 0.12816227525172044 0.062166704507967949
v 0.4841498751879702 0.14393827086381278 0.063518627340608536
v 0.48617831388639776 0.14968663643832214 0.064763064354185773
v 0.48617831388639776 0.15184311614253382 0.065846410584487619
v 0.48574451347757036 0.15220222222919061 0.066378261032332256
v 0.077602560060690953 -0.49917348099809256 0.069807886385734999
v 0.48414313641235529 0.15352786554457337 0.065996811539356451
v 0.1841094412247701 0.34233438924307213 0.063121049718442873
v -0.02576319144302568 0.47377855675845848 0.061829646192399682
v -0.065280679061016048 0.49847024707704057 0.0616536055517556
v -0.073872902398875381 0.50317406827843147 0.062380937058018421
v -0.48867174314001266 -0.15441067438809536 0.061723913372852879
v -0.48866500436439775 -0.15455893278799951 0.06155625030889382
v -0.48863130941904798 -0.15474088559961585 0.061368859196494166
v -0.28576723498948375 -0.28177774764614438 0.06015940639670872
v -0.12132893077457418 -0.38429813341009234 0.059706939344627417
v -0.056823236038193434 -0.42430756765709965 0.059770526533788185
v 0.0032684144537146039 -0.46140575531733252 0.060031615133321378
v 0.037542961211079924 -0.48186535473669589 0.060995310741826445
v 0.06008491113470283 -0.49499966279117447 0.062003520264387102
v 0.066150010369502868 -0.49822090426262455 0.062638634390602563
v 0.067403463723972545 -0.49847024749857816 0.063254449513007974
v -0.077878535644261421 0.50132162646236489 -0.38411014233955393
v -0.080066042105822036 0.50030999418823674 -0.38411014233955393
v -0.090700181693338683 0.48592897102126575 -0.38411014233955393
v -0.11145629737887269 0.45353460456242378 -0.38411014233955393
v -0.19114495572864193 0.32707055712047906 -0.38411014233955393
v -0.25621672629399167 0.22308780902071029 -0.38411014233955393
v -0.27064492195754225 0.20002695576469801 -0.38411014233955393
v -0.42000808670436518 -0.039079453005574354 -0.38411014233955393
v -0.48867174314001266 -0.14953163968434061 -0.38411014233955393
v -0.48867174314001266 -0.1519501930830954 -0.38411014233955393
v -0.48867174314001266 -0.15441067438809536 -0.38411014233955393
v -0.48866500436439775 -0.15455893278799951 -0.38411014233955393
v -0.48863130941904798 -0.15474088559961585 -0.38411014233955393
v -0.28576723498948375 -0.28177774764614438 -0.38411014233955393
v -0.12132893077457418 -0.38429813341009234 -0.38411014233955393
v -0.056823236038193434 -0.42430756765709965 -0.38411014233955393
v 0.0032684144537146039 -0.46140575531733252 -0.38411014233955393
v 0.037542961211079924 -0.48186535473669589 -0.38411014233955393
v 0.06008491113470283 -0.49499966279117447 -0.38411014233955393
v 0.066150010369502868 -0.49822090426262455 -0.38411014233955393
v 0.067403463723972545 -0.49847024749857816 -0.38411014233955393
v 0.077602560060690953 -0.49917348099809256 -0.38411014233955393
v 0.082943594718616398 -0.49954174804143137 -0.38411014233955393
v 0.091576251777440429 -0.48679830177992034 -0.38411014233955393
v 0.35187007228081668 -0.071399690264464299 -0.38411014233955393
v 0.44371588366900799 0.07519374645259834 -0.38411014233955393
v 0.47518026814201081 0.12664600057642983 -0.38411014233955393
v 0.47603612092789804 0.12816227525172044 -0.38411014233955393
v 0.4841498751879702 0.14393827086381278 -0.38411014233955393
v 0.48617831388639776 0.14968663643832214 -0.38411014233955393
v 0.48617831388639776 0.15184311614253382 -0.38411014233955393
v 0.48574451347757036 0.15220222222919061 -0.38411014233955393
v 0.48414313641235529 0.15352786554457337 -0.38411014233955393
v 0.1841094412247701 0.34233438924307213 -0.38411014233955393
v -0.02576319144302568 0.47377855675845848 -0.38411014233955393
v -0.065280679061016048 0.49847024707704057 -0.38411014233955393
v -0.073872902398875381 0.50317406827843147 -0.38411014233955393
l 1 2
l 2 3
l 3 4
l 4 5
l 5 6
l 6 7
l 7 8
l 8 9
l 9 10
l 10 11
l 11 12
l 1 12
l 13 14
l 14 15
l 15 16
l 16 17
l 17 18
l 18 19
l 19 20
l 20 21
l 21 22
l 12 22
l 11 23
l 13 23
l 22 24
l 24 25
l 25 26
l 26 27
l 27 28
l 1 28
l 10 29
l 29 30
l 30 31
l 31 32
l 32 33
l 33 34
l 34 35
l 35 36
l 36 37
l 37 38
l 38 39
l 23 39
l 40 41
l 2 41
l 41 42
l 42 43
l 43 44
l 44 45
l 45 46
l 46 47
l 47 48
l 9 48
l 48 49
l 13 62
l 62 63
l 63 64
l 64 65
l 65 66
l 66 67
l 67 68
l 68 69
l 20 69
l 69 70
l 21 70
l 70 71
l 61 62
l 71 72
l 72 73
l 73 74
l 74 75
l 75 76
l 28 76
l 40 76
l 49 50
l 50 51
l 51 52
l 31 52
l 52 53
l 53 54
l 54 55
l 55 56
l 56 57
l 57 58
l 58 59
l 38 59
l 59 60
l 60 61
