# XYZ-only planar convex-roof baseline. Provisional base; no GT.
v 7.04690660 -10.31451259 4.82231346
v 6.78580331 -8.35776382 4.82292665
v 4.40806787 4.41323907 4.82716766
v 3.61102463 8.54748757 4.82855026
v 2.86247201 12.11748169 4.82976554
v 2.44996272 12.07475570 4.82990050
v 1.49880072 11.94556043 4.83020352
v -3.29990480 11.05916561 4.83166989
v -5.29870137 10.68700865 4.83227988
v -6.46468017 10.42641400 4.83262415
v -7.04538067 10.28568950 4.83279270
v -7.04605886 10.25500138 4.83278477
v -7.04639796 10.22804331 4.83277772
v -7.04656751 10.17395763 4.83276339
v -7.04673706 9.98626845 4.83271352
v -7.04673706 9.82401140 4.83267035
v -6.88193679 8.78654968 4.83233589
v -6.67542783 7.64956352 4.83196015
v -6.03792888 4.19672679 4.83081543
v -3.51794300 -9.40539839 4.82630285
v -3.23886767 -10.79178906 4.82583503
v -2.93452974 -12.09442322 4.82538052
v -2.88027451 -12.18530073 4.82533710
v -2.72632529 -12.18377480 4.82528290
v -2.70682732 -12.18275751 4.82527625
v -0.12546522 -11.71175430 4.82448590
v 5.03234210 -10.75855773 4.82290993
v 5.99689836 -10.57629407 4.82261627
v 6.82835976 -10.37148058 4.82237583
v 7.04690660 -10.31451259 -5.04338237
v 6.78580331 -8.35776382 -5.04338237
v 4.40806787 4.41323907 -5.04338237
v 3.61102463 8.54748757 -5.04338237
v 2.86247201 12.11748169 -5.04338237
v 2.44996272 12.07475570 -5.04338237
v 1.49880072 11.94556043 -5.04338237
v -3.29990480 11.05916561 -5.04338237
v -5.29870137 10.68700865 -5.04338237
v -6.46468017 10.42641400 -5.04338237
v -7.04538067 10.28568950 -5.04338237
v -7.04605886 10.25500138 -5.04338237
v -7.04639796 10.22804331 -5.04338237
v -7.04656751 10.17395763 -5.04338237
v -7.04673706 9.98626845 -5.04338237
v -7.04673706 9.82401140 -5.04338237
v -6.88193679 8.78654968 -5.04338237
v -6.67542783 7.64956352 -5.04338237
v -6.03792888 4.19672679 -5.04338237
v -3.51794300 -9.40539839 -5.04338237
v -3.23886767 -10.79178906 -5.04338237
v -2.93452974 -12.09442322 -5.04338237
v -2.88027451 -12.18530073 -5.04338237
v -2.72632529 -12.18377480 -5.04338237
v -2.70682732 -12.18275751 -5.04338237
v -0.12546522 -11.71175430 -5.04338237
v 5.03234210 -10.75855773 -5.04338237
v 5.99689836 -10.57629407 -5.04338237
v 6.82835976 -10.37148058 -5.04338237
g roof
f 1 2 3 4 5 6 7 8 9 10 11 12 13 14 15 16 17 18 19 20 21 22 23 24 25 26 27 28 29
g wall
f 2 1 30 31
g wall
f 3 2 31 32
g wall
f 4 3 32 33
g wall
f 5 4 33 34
g wall
f 6 5 34 35
g wall
f 7 6 35 36
g wall
f 8 7 36 37
g wall
f 9 8 37 38
g wall
f 10 9 38 39
g wall
f 11 10 39 40
g wall
f 12 11 40 41
g wall
f 13 12 41 42
g wall
f 14 13 42 43
g wall
f 15 14 43 44
g wall
f 16 15 44 45
g wall
f 17 16 45 46
g wall
f 18 17 46 47
g wall
f 19 18 47 48
g wall
f 20 19 48 49
g wall
f 21 20 49 50
g wall
f 22 21 50 51
g wall
f 23 22 51 52
g wall
f 24 23 52 53
g wall
f 25 24 53 54
g wall
f 26 25 54 55
g wall
f 27 26 55 56
g wall
f 28 27 56 57
g wall
f 29 28 57 58
g wall
f 1 29 58 30
g ground_assumed
f 58 57 56 55 54 53 52 51 50 49 48 47 46 45 44 43 42 41 40 39 38 37 36 35 34 33 32 31 30
