v 0.28786248329684772 -0.42551184419029248 0.20403703989219946
v 0.27710153030853668 -0.34486758450323413 0.20406231153378968
v 0.17910698076271941 0.1814688002771857 0.20423709795349718
v 0.14625812299730767 0.35185521613006576 0.2042940795932216
v 0.11540772830064563 0.49898679342220403 0.20434416540771916
v 0.09840682005114966 0.49722591032582852 0.20434972756748856
v 0.059206204975530217 0.49190133465011737 0.20436221605039709
v -0.13856474040577213 0.45536999493738395 0.20442265013620833
v -0.22094193267695039 0.44003214319743555 0.20444778989493501
v -0.26899587735212949 0.42929215299028289 0.20446197843038122
v -0.29292851635023887 0.42349241860622527 0.20446892494808377
v -0.29295646686249455 0.42222765699935449 0.20446859812586257
v -0.29297044232468938 0.42111662341595696 0.20446830757142886
v -0.2929774300557868 0.41888756893019835 0.20446771698348062
v -0.29298441778688422 0.41115226064513372 0.20446566167147928
v -0.29298441778688422 0.4044650967757239 0.20446388248922345
v -0.28619243918741522 0.36170777726400027 0.20445009825718077
v -0.27768150387815504 0.31484871770898581 0.20443461273619851
v -0.25140800793313034 0.17254559419091989 0.20438743493884187
v -0.14755083483551273 -0.38804416169879291 0.20420145619749397
v -0.13604919306635935 -0.44518202780267441 0.20418217574711361
v -0.12350639378838059 -0.49886800378837703 0.20416344384701876
v -0.12127035157152458 -0.5026133744913075 0.2041616543614142
v -0.11492558158028035 -0.50255048573569883 0.20415942059541317
v -0.11412200404382916 -0.50250855976124831 0.20415914652633738
v -0.0077353085567378995 -0.48309691849026487 0.20412657351971494
v 0.20483544110055749 -0.44381245187787832 0.20406162244582771
v 0.24458807910232702 -0.43630074769085908 0.20404951972029506
v 0.27885542608594882 -0.42785968845617123 0.20403961037163648
v 0.28786248329684772 -0.42551184419029248 -0.2025617778538564
v 0.27710153030853668 -0.34486758450323413 -0.2025617778538564
v 0.17910698076271941 0.1814688002771857 -0.2025617778538564
v 0.14625812299730767 0.35185521613006576 -0.2025617778538564
v 0.11540772830064563 0.49898679342220403 -0.2025617778538564
v 0.09840682005114966 0.49722591032582852 -0.2025617778538564
v 0.059206204975530217 0.49190133465011737 -0.2025617778538564
v -0.13856474040577213 0.45536999493738395 -0.2025617778538564
v -0.22094193267695039 0.44003214319743555 -0.2025617778538564
v -0.26899587735212949 0.42929215299028289 -0.2025617778538564
v -0.29292851635023887 0.42349241860622527 -0.2025617778538564
v -0.29295646686249455 0.42222765699935449 -0.2025617778538564
v -0.29297044232468938 0.42111662341595696 -0.2025617778538564
v -0.2929774300557868 0.41888756893019835 -0.2025617778538564
v -0.29298441778688422 0.41115226064513372 -0.2025617778538564
v -0.29298441778688422 0.4044650967757239 -0.2025617778538564
v -0.28619243918741522 0.36170777726400027 -0.2025617778538564
v -0.27768150387815504 0.31484871770898581 -0.2025617778538564
v -0.25140800793313034 0.17254559419091989 -0.2025617778538564
v -0.14755083483551273 -0.38804416169879291 -0.2025617778538564
v -0.13604919306635935 -0.44518202780267441 -0.2025617778538564
v -0.12350639378838059 -0.49886800378837703 -0.2025617778538564
v -0.12127035157152458 -0.5026133744913075 -0.2025617778538564
v -0.11492558158028035 -0.50255048573569883 -0.2025617778538564
v -0.11412200404382916 -0.50250855976124831 -0.2025617778538564
v -0.0077353085567378995 -0.48309691849026487 -0.2025617778538564
v 0.20483544110055749 -0.44381245187787832 -0.2025617778538564
v 0.24458807910232702 -0.43630074769085908 -0.2025617778538564
v 0.27885542608594882 -0.42785968845617123 -0.2025617778538564
l 1 2
l 2 3
l 3 4
l 4 5
l 5 6
l 6 7
l 7 8
l 8 9
l 9 10
l 10 11
l 11 12
l 12 13
l 13 14
l 14 15
l 15 16
l 16 17
l 17 18
l 18 19
l 19 20
l 20 21
l 21 22
l 22 23
l 23 24
l 24 25
l 25 26
l 26 27
l 27 28
l 28 29
l 1 29
l 1 30
l 30 31
l 31 32
l 32 33
l 33 34
l 5 34
l 34 35
l 35 36
l 36 37
l 37 38
l 38 39
l 39 40
l 11 40
l 40 41
l 41 42
l 42 43
l 43 44
l 44 45
l 45 46
l 46 47
l 47 48
l 48 49
l 49 50
l 50 51
l 22 51
l 51 52
l 23 52
l 52 53
l 53 54
l 54 55
l 55 56
l 56 57
l 57 58
l 30 58
