# pointcloud_to_mesh 0.5.1; candidate requires geometry validation; coordinates preserved
v 1.668216624 5.999476426 1.461451829
v 0.635554276 6.631076557 1.461599611
v -1.183351587 6.623629283 1.461754442
v -1.662181173 6.117807601 1.461747750
v -1.604046248 6.516637240 1.461780339
v -1.995580711 5.878528740 1.461753725
v -1.744195838 6.031169689 1.461746604
v -2.004465663 5.756228197 1.461742967
v -1.366028686 4.680352592 1.461587055
v -6.097616732 -1.161038673 1.461441534
v -6.173894355 -0.931133525 1.461469708
v -6.367169877 -1.246126879 1.461456570
v -6.370212734 -1.251085955 1.461456363
v -6.321182804 -1.417542046 1.461436494
v -5.698967904 -3.529955928 1.461184353
v -3.809379221 -4.685671987 1.460913938
v -3.092785770 -5.123957084 1.460811387
v -3.079221680 -5.132253195 1.460809446
v -2.451349323 -5.516274423 1.460719592
v -0.677951150 -6.600925684 1.460465804
v 1.681224269 -6.223457169 1.460299622
v 1.685547325 -6.328849590 1.460289327
v 1.757649023 -6.211229248 1.460294239
v 1.773048138 -6.208765333 1.460293154
v 1.782198762 -6.171180852 1.460295911
v 1.971362353 -5.862595840 1.460308797
v 1.838718572 -5.939036393 1.460312941
v 1.956694785 -5.454470955 1.460348486
v 1.303188193 -3.881737909 1.460552479
v 1.343971821 -3.877728462 1.460549369
v -0.688764935 -2.634459737 1.460840271
v -1.313139633 -2.252577758 1.460929624
v -1.331395704 -2.241411923 1.460932236
v -2.046794833 -1.803857301 1.461034616
v -3.587811987 -0.861335635 1.461255148
v 4.704737730 0.183707467 1.460644480
v 2.277734005 -3.784428767 1.460478311
v 2.283929984 -3.783881183 1.460477833
v 4.716099211 0.192700616 1.460644355
v 3.845779404 0.725008302 1.460768905
v 5.799216144 0.825536417 1.460611337
v 6.050336211 1.052708669 1.460611258
v 6.058415619 0.804666982 1.460587208
v 6.434705458 1.418513460 1.460612840
v 6.310443564 1.377547477 1.460619608
v 6.524548027 1.727606963 1.460634267
v 5.769257066 3.002255470 1.460818891
v 5.798012928 3.473597670 1.460860821
v 3.795987320 4.698082749 1.461147327
v 3.180399423 5.074590518 1.461235423
v 3.150285436 5.093008927 1.461239732
v 2.437957422 5.528685184 1.461341672
v -1.256801349 3.707660596 1.461486111
v -4.020132026 -0.505251680 1.461325650
v 2.033976877 1.817206459 1.461026688
v -0.865070175 3.590330560 1.461441565
v 1.414976629 2.195801300 1.461115272
v 1.389469315 2.211402162 1.461118922
v 0.675946979 2.647808894 1.461221033
v 0.039267411 -10.109266716 1.549693744
v 0.033588557 -10.118570517 1.549696619
v 0.205997528 -10.224019824 1.518173055
v 0.524113835 -10.418587101 1.460008101
v 1.209398977 -10.837723313 1.334709340
v 10.202226516 3.865494666 1.327729932
v 9.475396015 4.310040979 1.460624920
v 9.176388867 4.492920653 1.515295921
v 9.013107931 4.592787043 1.545150499
v 8.995862969 4.564534217 1.545159230
v -0.490798019 10.405595319 1.462056744
v -1.208415175 10.844506538 1.332645841
v -1.212276258 10.838193691 1.332647876
v -10.201242713 -3.858711442 1.337386118
v -9.513313001 -4.279465135 1.461443360
v -9.246637866 -4.442569803 1.509534003
v -9.049404050 -4.563202558 1.545102002
v -0.035111776 10.118212719 1.544930870
v -0.031239814 10.124518912 1.544930796
v -0.253810328 10.260648176 1.504793725
v 0.434801855 9.839477069 1.461912018
v -8.891924108 -4.659520926 1.517053207
v -8.579011635 -4.850905419 1.461311528
v -7.853887310 -5.294408195 1.332139155
v -6.481846249 -3.051129459 1.332801142
v -5.698967904 -3.529955928 1.193340570
v -6.321182804 -1.417542046 1.441874458
v -6.097616748 -1.161038627 1.433314068
v -4.020132026 -0.505251680 1.216397929
v -1.256801349 3.707660596 1.193472437
v -1.366028686 4.680352592 1.284953861
v -2.004465663 5.756228197 1.453177108
v -1.744195838 6.031169689 1.441329153
v -1.662181173 6.117807601 1.437595697
v -1.183351587 6.623629283 1.415798504
v 0.635554276 6.631076557 1.180823728
v -0.234509605 7.163227712 1.335815378
v 1.138940229 9.408809784 1.336478045
v 1.681224269 -6.223457169 1.451094857
v -0.677951150 -6.600925684 1.167156349
v 0.239117850 -7.161826255 1.335382048
v -1.132923211 -9.405104991 1.335700319
v -0.454548077 -9.820014883 1.460140389
v 8.553037874 4.874176511 1.460761597
v 7.860501489 5.297747751 1.333723809
v 7.859904328 5.298112989 1.333614266
v 6.791845288 3.551842996 1.333862022
v 6.486454493 3.052530917 1.333932863
v 5.798012928 3.473597670 1.207646222
v 5.769257066 3.002255470 1.242343375
v 6.524548027 1.727606963 1.447334014
v 6.310443564 1.377547477 1.447383679
v 6.050336211 1.052708669 1.439233022
v 5.799216144 0.825536417 1.424296936
v 3.845779404 0.725008302 1.171857396
v 4.716099211 0.192700616 1.331507497
v 2.283929984 -3.783881183 1.332071683
v 2.277734005 -3.784428767 1.331289686
v 1.981995918 -4.267958729 1.331358288
v 1.343971821 -3.877728462 1.214320148
v 1.303188193 -3.881737909 1.209205946
v 1.956694785 -5.454470955 1.424984587
v 1.838718536 -5.939036412 1.448857615
v 1.773048138 -6.208765333 1.462146317
v -6.370212734 -1.251085955 -1.551039321
v -5.698967904 -3.529955928 -1.551039321
v -3.809379221 -4.685671987 -1.551039321
v -3.092785770 -5.123957084 -1.551039321
v -3.079221680 -5.132253195 -1.551039321
v -2.451349323 -5.516274423 -1.551039321
v -0.677951150 -6.600925684 -1.551039321
v 1.838718572 -5.939036393 -1.551039321
v 1.343971821 -3.877728462 -1.551039321
v -0.688764935 -2.634459737 -1.551039321
v -1.313139633 -2.252577758 -1.551039321
v -1.331395704 -2.241411923 -1.551039321
v -2.046794833 -1.803857301 -1.551039321
v -3.587811987 -0.861335635 -1.551039321
v -0.865070175 3.590330560 -1.551039321
v 0.675946979 2.647808894 -1.551039321
v 1.389469315 2.211402162 -1.551039321
v 1.414976629 2.195801300 -1.551039321
v 2.033976877 1.817206459 -1.551039321
v 4.704737730 0.183707467 -1.551039321
v 2.277734005 -3.784428767 -1.551039321
v 5.798012928 3.473597670 -1.551039321
v 3.795987320 4.698082749 -1.551039321
v 3.180399423 5.074590518 -1.551039321
v 3.150285436 5.093008927 -1.551039321
v 2.437957422 5.528685184 -1.551039321
v 1.668216624 5.999476426 -1.551039321
v 0.635554276 6.631076557 -1.551039321
v 0.033588557 -10.118570517 -1.551039321
v 0.205997528 -10.224019824 -1.551039321
v 0.524113835 -10.418587101 -1.551039321
v 1.209398977 -10.837723313 -1.551039321
v 10.202226516 3.865494666 -1.551039321
v 9.475396015 4.310040979 -1.551039321
v 9.176388867 4.492920653 -1.551039321
v 9.013107931 4.592787043 -1.551039321
v -1.212276258 10.838193691 -1.551039321
v -10.201242713 -3.858711442 -1.551039321
v -9.513313001 -4.279465135 -1.551039321
v -9.246637866 -4.442569803 -1.551039321
v -9.049404050 -4.563202558 -1.551039321
v -0.031239814 10.124518912 -1.551039321
v -0.253810328 10.260648176 -1.551039321
v -0.490798019 10.405595319 -1.551039321
v -1.208415175 10.844506538 -1.551039321
v -8.891924108 -4.659520926 -1.551039321
v -8.579011635 -4.850905419 -1.551039321
v -7.853887310 -5.294408195 -1.551039321
v -6.481846249 -3.051129459 -1.551039321
v -6.173894388 -0.931133555 -1.551039321
v -6.097616748 -1.161038627 -1.551039321
v -0.234509605 7.163227712 -1.551039321
v 1.138940229 9.408809784 -1.551039321
v 0.434801855 9.839477069 -1.551039321
v 0.239117850 -7.161826255 -1.551039321
v -1.132923211 -9.405104991 -1.551039321
v -0.454548077 -9.820014883 -1.551039321
v 8.553037874 4.874176511 -1.551039321
v 7.860501489 5.297747751 -1.551039321
v 7.859904328 5.298112989 -1.551039321
v 6.791845288 3.551842996 -1.551039321
v 6.486454493 3.052530917 -1.551039321
v 6.434705417 1.418513439 -1.551039321
v 1.981995918 -4.267958729 -1.551039321
v 1.782198784 -6.171180808 -1.551039321
g roof
f 1 2 3
g roof
f 1 3 4
g roof
f 4 5 6
g roof
f 4 6 7
g roof
f 7 8 9
g roof
f 10 11 12
g roof
f 10 12 13
g roof
f 10 13 14
g roof
f 10 14 15
g roof
f 10 15 16
g roof
f 10 16 17
g roof
f 10 17 18
g roof
f 10 18 19
g roof
f 10 19 20
g roof
f 10 20 21
g roof
f 21 22 23
g roof
f 21 23 24 25
g roof
f 21 25 26
g roof
f 21 26 27
g roof
f 21 27 28
g roof
f 21 28 29
g roof
f 29 30 31
g roof
f 29 31 32
g roof
f 29 32 33
g roof
f 29 33 34
g roof
f 29 34 35
g roof
f 36 37 38
g roof
f 36 38 39
g roof
f 36 39 40
g roof
f 40 41 42
g roof
f 42 43 44
g roof
f 42 44 45
g roof
f 42 45 46
g roof
f 42 46 47
g roof
f 47 48 49
g roof
f 47 49 50
g roof
f 47 50 51
g roof
f 47 51 52
g roof
f 47 52 1
g roof
f 47 1 4
g roof
f 47 4 7
g roof
f 47 7 9
g roof
f 47 9 53
g roof
f 54 10 21
g roof
f 21 29 35
g roof
f 55 36 40
g roof
f 55 40 42
g roof
f 55 42 47
g roof
f 54 21 35
g roof
f 54 35 56
g roof
f 57 55 47
g roof
f 53 54 56
g roof
f 58 57 47
g roof
f 47 53 56
g roof
f 47 56 59
g roof
f 47 59 58
g roof
f 60 61 62
g roof
f 60 62 63
g roof
f 60 63 64
g roof
f 60 64 65
g roof
f 60 65 66
g roof
f 60 66 67
g roof
f 67 68 69
g roof
f 67 69 60
g roof
f 70 71 72
g roof
f 70 72 73
g roof
f 70 73 74
g roof
f 70 74 75
g roof
f 70 75 76
g roof
f 70 76 77
g roof
f 77 78 79
g roof
f 77 79 70
g roof
f 80 78 77
g roof
f 80 77 76
g roof
f 80 76 81
g roof
f 82 83 84
g roof
f 84 85 86
g roof
f 84 86 13
g roof
f 13 12 11
g roof
f 11 87 88
g roof
f 11 88 89
g roof
f 11 89 90
g roof
f 11 90 91
g roof
f 91 92 6
g roof
f 5 93 94
g roof
f 94 95 96
g roof
f 94 96 97
g roof
f 94 97 80
g roof
f 81 82 84
g roof
f 81 84 13
g roof
f 81 13 12 11
g roof
f 11 91 6
g roof
f 11 6 5
g roof
f 5 94 80
g roof
f 5 80 81
g roof
f 5 81 11 6
g roof
f 22 98 99
g roof
f 22 99 100
g roof
f 22 100 101
g roof
f 22 101 102
g roof
f 22 102 61
g roof
f 22 61 60
g roof
f 60 69 68 103
g roof
f 104 105 106
g roof
f 104 106 107
g roof
f 107 108 109
g roof
f 107 109 110
g roof
f 110 111 44
g roof
f 43 112 113
g roof
f 43 113 114
g roof
f 43 114 115
g roof
f 43 115 116
g roof
f 116 117 118
g roof
f 118 119 120
g roof
f 118 120 121
g roof
f 121 122 26
g roof
f 26 25 123
g roof
f 23 22 60
g roof
f 103 104 107
g roof
f 103 107 110
g roof
f 103 110 44
g roof
f 43 116 118
g roof
f 43 118 121
g roof
f 43 121 26
g roof
f 43 26 123
g roof
f 123 23 60
g roof
f 123 60 103
g roof
f 123 103 44
g roof
f 123 44 43
g roof_step_or_fixture_side
f 4 3 94 93
g roof_step_or_fixture_side
f 5 4 93
g roof_step_or_fixture_side
f 7 6 92
g roof_step_or_fixture_side
f 8 7 92 91
g roof_step_or_fixture_side
f 9 8 91 90
g roof_step_or_fixture_side
f 53 9 90 89
g roof_step_or_fixture_side
f 54 53 89 88
g roof_step_or_fixture_side
f 10 54 88 87
g roof_step_or_fixture_side
f 11 10 87
g roof_step_or_fixture_side
f 14 13 86
g roof_step_or_fixture_side
f 15 14 86 85
g facade_completed
f 16 15 85 125 126
g facade_completed
f 17 16 126 127
g facade_completed
f 18 17 127 128
g facade_completed
f 19 18 128 129
g facade_completed
f 20 19 129 130 99
g roof_step_or_fixture_side
f 21 20 99 98
g roof_step_or_fixture_side
f 22 21 98
g roof_step_or_fixture_side
f 23 123 24
g roof_step_or_fixture_side
f 123 25 24
g roof_step_or_fixture_side
f 27 26 122
g roof_step_or_fixture_side
f 28 27 122 121
g roof_step_or_fixture_side
f 29 28 121 120
g roof_step_or_fixture_side
f 30 29 120 119
g facade_completed
f 31 30 119 132 133
g facade_completed
f 32 31 133 134
g facade_completed
f 33 32 134 135
g facade_completed
f 34 33 135 136
g facade_completed
f 35 34 136 137
g facade_completed
f 56 35 137 138
g facade_completed
f 59 56 138 139
g facade_completed
f 58 59 139 140
g facade_completed
f 57 58 140 141
g facade_completed
f 55 57 141 142
g facade_completed
f 36 55 142 143
g facade_completed
f 37 36 143 144 117
g roof_step_or_fixture_side
f 38 37 117 116
g roof_step_or_fixture_side
f 39 38 116 115
g roof_step_or_fixture_side
f 40 39 115 114
g roof_step_or_fixture_side
f 41 40 114 113
g roof_step_or_fixture_side
f 42 41 113 112
g roof_step_or_fixture_side
f 43 42 112
g roof_step_or_fixture_side
f 45 44 111
g roof_step_or_fixture_side
f 46 45 111 110
g roof_step_or_fixture_side
f 47 46 110 109
g roof_step_or_fixture_side
f 48 47 109 108
g facade_completed
f 49 48 108 145 146
g facade_completed
f 50 49 146 147
g facade_completed
f 51 50 147 148
g facade_completed
f 52 51 148 149
g facade_completed
f 1 52 149 150
g facade_completed
f 2 1 150 151 95
g roof_step_or_fixture_side
f 3 2 95 94
g facade_completed
f 62 61 152 153
g facade_completed
f 63 62 153 154
g facade_completed
f 64 63 154 155
g facade_completed
f 65 64 155 156
g facade_completed
f 66 65 156 157
g facade_completed
f 67 66 157 158
g facade_completed
f 68 67 158 159
g facade_completed
f 73 72 160 161
g facade_completed
f 74 73 161 162
g facade_completed
f 75 74 162 163
g facade_completed
f 76 75 163 164
g facade_completed
f 79 78 165 166
g facade_completed
f 70 79 166 167
g facade_completed
f 71 70 167 168
g facade_completed
f 72 71 168 160
g facade_completed
f 81 76 164 169
g facade_completed
f 82 81 169 170
g facade_completed
f 83 82 170 171
g facade_completed
f 84 83 171 172
g facade_completed
f 85 84 172 125
g facade_completed
f 96 95 151 175
g facade_completed
f 97 96 175 176
g facade_completed
f 80 97 176 177
g facade_completed
f 78 80 177 165
g facade_completed
f 100 99 130 178
g facade_completed
f 101 100 178 179
g facade_completed
f 102 101 179 180
g facade_completed
f 61 102 180 152
g facade_completed
f 103 68 159 181
g facade_completed
f 104 103 181 182
g facade_completed
f 105 104 182 183
g facade_completed
f 106 105 183 184
g facade_completed
f 107 106 184 185
g facade_completed
f 108 107 185 145
g facade_completed
f 118 117 144 187
g facade_completed
f 119 118 187 132
g ground_assumed
f 185 138 151 150 149 148 147 146 145
g ground_assumed
f 185 143 142 141 140 139 138
g ground_assumed
f 185 187 144 143
g ground_assumed
f 137 151 138
g ground_assumed
f 137 175 151
g ground_assumed
f 175 168 167 166 165 177 176
g ground_assumed
f 175 161 160 168
g ground_assumed
f 161 172 171 170 169 164 163 162
g ground_assumed
f 178 155 154 153 152 180 179
g ground_assumed
f 178 156 155
g ground_assumed
f 156 185 184 183 182 181 159 158 157
g ground_assumed
f 156 187 185
g ground_assumed
f 137 161 175
g ground_assumed
f 137 172 161
g ground_assumed
f 137 178 130 129 128 127 126 125 172
g ground_assumed
f 178 187 156
g ground_assumed
f 178 137 136 135 134 133 132 187
