v 0.077105409023712268 0.27686122325638779 0.067771156937572352
v 0.029456819971969916 0.30600420028593822 0.06777797582062825
v -0.054470223710552122 0.30566057189756035 0.067785119955113021
v -0.076564138738361306 0.28232120108990205 0.067784811176199417
v -0.073881706134670738 0.30072379861577386 0.067786314881521509
v -0.091947693301931741 0.27128051568228617 0.06778508687165799
v -0.080348418349571959 0.27832359793027861 0.067784758298041176
v -0.092357658308801979 0.26563738525780795 0.067784590481408058
v -0.062899218954034594 0.21599487173659287 0.067777396467962492
v -0.28122178566970474 -0.053535679479381551 0.0677706819108366
v -0.28474134956124186 -0.042927511243996248 0.067771981901439099
v -0.29365937193261527 -0.057461776880624267 0.067771375694420738
v -0.2937997739168815 -0.057690596082619956 0.067771366143130368
v -0.29153745943400111 -0.06537112969612828 0.067770449357679924
v -0.26282753103447065 -0.16284107344449256 0.067758815193894095
v -0.17563907605935999 -0.21616754522149029 0.067746337840349252
v -0.14257437981087351 -0.23639067673674527 0.067741605983450137
v -0.14194851236105063 -0.23677347173700089 0.067741516422799936
v -0.1129775404130719 -0.25449278697644589 0.067737370424517968
v -0.031150289778784521 -0.30454022242321899 0.067725660265682719
v 0.077705601266933239 -0.28712325918635812 0.067717992379038888
v 0.077905073552516815 -0.29198622351068265 0.067717517352303164
v 0.08123195400341017 -0.28655904457757087 0.067717743999347935
v 0.081942492258064853 -0.28644535584521724 0.067717693935821138
v 0.082364715769348534 -0.28471115153985022 0.067717821147934842
v 0.091093007479187138 -0.27047257641140465 0.067718415727295367
v 0.084972624545327807 -0.27399965813742971 0.067718606937668652
v 0.090416223899952311 -0.25164108229833121 0.067720247037262787
v 0.060262449914563761 -0.17907282148966949 0.067729659580138268
v 0.062144267659129317 -0.17888781959355335 0.067729516080075297
v -0.031649254032256942 -0.12152153653584213 0.067742938734517172
v -0.060458838749785283 -0.10390092945272508 0.067747061615907961
v -0.061301201237836826 -0.10338572108440897 0.067747182137504247
v -0.094310789678545046 -0.083196294780886512 0.067751906104206977
v -0.16541563167732737 -0.039706931948421197 0.067762081781340078
v 0.21721504564109784 0.0085129236558775107 0.0677339046442193
v 0.10522945485864696 -0.17458283177801243 0.067726237357414981
v 0.10551534661960445 -0.17455756543123621 0.067726215301778303
v 0.21773928140919444 0.0089278810345521584 0.067733898876531889
v 0.17758142060633814 0.033489355778374141 0.067739645800275056
v 0.26771592066156363 0.038127873730595729 0.067732375376506587
v 0.27930297706804841 0.048609942046992649 0.067732371731328123
v 0.27967577306697189 0.03716492670925526 0.067731262028268929
v 0.29703835042595322 0.065488723570571061 0.067732444727180097
v 0.29130472032559718 0.06359849169289282 0.067732757012847644
v 0.30118382126443666 0.079750761236159012 0.067733433401086535
v 0.26633356388371088 0.13856495448440548 0.067741952229261215
v 0.26766040247129019 0.16031339029601518 0.067743886942328663
v 0.17528393919516749 0.21681296776415895 0.067757106758739416
v 0.14687979065020737 0.23418560074009209 0.067761171640265544
v 0.14549028613883294 0.23503545374686396 0.067761370463986198
v 0.1126224035488794 0.25513820947297311 0.067766074128429221
v -0.057859305855615752 0.17111340464225566 0.067772738760452811
v -0.18536352647279464 -0.023276684372749819 0.067765334849326758
v 0.093982135497192948 0.083885016321972636 0.06775154029440017
v -0.039784242147877485 0.16569962086325207 0.067770683341223104
v 0.065420535960808379 0.10135394992922248 0.067755627692977993
v 0.06424359024863667 0.1020737970929451 0.067755796109450594
v 0.031320599850904823 0.12221025803078678 0.067760507664089975
v 0.0019432499823562649 -0.46642033784612941 0.071842771200566452
v 0.0016812191442464946 -0.46684962917385797 0.071842903857377072
v 0.0096364275663635424 -0.47171521830351415 0.070388359349783297
v 0.024314790936789153 -0.48069284418737129 0.067704541163008919
v 0.055934874866122947 -0.50003241743798033 0.06192306846465364
v 0.47087742084825118 0.17839610527945748 0.061601028115007381
v 0.43734037176391577 0.19890813868866261 0.067733002116492164
v 0.42354373364093323 0.20734648104637449 0.070255604073212685
v 0.41600970643977125 0.21195446601494339 0.071633139064384038
v 0.41521399803697878 0.21065083826262759 0.071633541925814809
v -0.022514763707714963 0.48016615526275441 0.067799068622647396
v -0.055626695239786361 0.500418176985861 0.061827855526900927
v -0.055804851398493976 0.50012689276015843 0.061827949424852098
v -0.47056924117577303 -0.17801034577771829 0.062046579014981881
v -0.43882713282152191 -0.1974245520268261 0.067770766165214408
v -0.42652234225513541 -0.20495044595818193 0.069989740537601486
v -0.41742167826376175 -0.21051662214375402 0.071630901340090397
v -0.0014887172257341931 0.46690589121367609 0.071623005053024852
v -0.0013100590936552241 0.46719686841384211 0.071623001638553896
v -0.011579796319148669 0.47347807675925591 0.069771017003379038
v 0.020193802270300629 0.45404461040234134 0.067792390748013492
v -0.41015531762343921 -0.21496089605754104 0.070336687884027055
v -0.39571706695610553 -0.22379166351555344 0.067764683239073031
v -0.36225874339055314 -0.24425554656295873 0.061804476275164839
v -0.29895071167590642 -0.1407473022397368 0.061835021347890401
v -0.26282753103447065 -0.16284107344449256 0.055400101456583452
v -0.29153745943400111 -0.06537112969612828 0.066867827686438952
v -0.28122178640796874 -0.053535677356872584 0.066472838456878458
v -0.18536352647279464 -0.023276684372749819 0.056464002571732369
v -0.057859305855615752 0.17111340464225566 0.055406185997677319
v -0.062899218954034594 0.21599487173659287 0.059627276063066434
v -0.092357658308801979 0.26563738525780795 0.067389348903987678
v -0.080348418349571959 0.27832359793027861 0.066842666496139735
v -0.076564138738361306 0.28232120108990205 0.066670399238568767
v -0.054470223710552122 0.30566057189756035 0.065664644072080863
v 0.029456819971969916 0.30600420028593822 0.054822555599664514
v -0.010689232021525502 0.33055845245472659 0.061974102716303922
v 0.052683802591575103 0.43417297615447914 0.062004679165249023
v 0.077705601266933239 -0.28712325918635812 0.067293270720839293
v -0.031150289778784521 -0.30454022242321899 0.05419192224051602
v 0.011164648882165191 -0.33042101575148186 0.061954108220393642
v -0.052143382832481544 -0.43392926007470378 0.061968793721531024
v -0.020842137032739599 -0.45307382458380974 0.067710645129674008
v 0.39478138420698977 0.22493819796778144 0.06773930859819785
v 0.36282671705353581 0.24448241005993854 0.061877594586664669
v 0.36279916314964666 0.24449926268887556 0.061872540108402145
v 0.31351731765724339 0.16392374695423392 0.061883971941713349
v 0.29942612849040456 0.14088473898912302 0.061887240651668313
v 0.26766040247129019 0.16031339029601518 0.056060185688942082
v 0.26633356388371088 0.13856495448440548 0.057661164351294189
v 0.30118382126443666 0.079750761236159012 0.067119739786025812
v 0.29130472032559718 0.06359849169289282 0.067122031403590687
v 0.27930297706804841 0.048609942046992649 0.066745947868980471
v 0.26771592066156363 0.038127873730595729 0.066056774466625057
v 0.17758142060633814 0.033489355778374141 0.054408835597577747
v 0.21773928140919444 0.0089278810345521584 0.061775330627972871
v 0.10551534661960445 -0.17455756543123621 0.061801363015921172
v 0.10522945485864696 -0.17458283177801243 0.061765280501859483
v 0.091583656111647968 -0.19689362920193726 0.0617684459009974
v 0.062144267659129317 -0.17888781959355335 0.056368130641086055
v 0.060262449914563761 -0.17907282148966949 0.056132153692863285
v 0.090416223899952311 -0.25164108229833121 0.066088503714789748
v 0.084972622884233823 -0.27399965901411821 0.067190041020566249
v 0.081942492258064853 -0.28644535584521724 0.067803201655168038
v -0.2937997739168815 -0.057690596082619956 -0.071229701480827856
v -0.26282753103447065 -0.16284107344449256 -0.071229701480827856
v -0.17563907605935999 -0.21616754522149029 -0.071229701480827856
v -0.14257437981087351 -0.23639067673674527 -0.071229701480827856
v -0.14194851236105063 -0.23677347173700089 -0.071229701480827856
v -0.1129775404130719 -0.25449278697644589 -0.071229701480827856
v -0.031150289778784521 -0.30454022242321899 -0.071229701480827856
v 0.084972624545327807 -0.27399965813742971 -0.071229701480827856
v 0.062144267659129317 -0.17888781959355335 -0.071229701480827856
v -0.031649254032256942 -0.12152153653584213 -0.071229701480827856
v -0.060458838749785283 -0.10390092945272508 -0.071229701480827856
v -0.061301201237836826 -0.10338572108440897 -0.071229701480827856
v -0.094310789678545046 -0.083196294780886512 -0.071229701480827856
v -0.16541563167732737 -0.039706931948421197 -0.071229701480827856
v -0.039784242147877485 0.16569962086325207 -0.071229701480827856
v 0.031320599850904823 0.12221025803078678 -0.071229701480827856
v 0.06424359024863667 0.1020737970929451 -0.071229701480827856
v 0.065420535960808379 0.10135394992922248 -0.071229701480827856
v 0.093982135497192948 0.083885016321972636 -0.071229701480827856
v 0.21721504564109784 0.0085129236558775107 -0.071229701480827856
v 0.10522945485864696 -0.17458283177801243 -0.071229701480827856
v 0.26766040247129019 0.16031339029601518 -0.071229701480827856
v 0.17528393919516749 0.21681296776415895 -0.071229701480827856
v 0.14687979065020737 0.23418560074009209 -0.071229701480827856
v 0.14549028613883294 0.23503545374686396 -0.071229701480827856
v 0.1126224035488794 0.25513820947297311 -0.071229701480827856
v 0.077105409023712268 0.27686122325638779 -0.071229701480827856
v 0.029456819971969916 0.30600420028593822 -0.071229701480827856
v 0.0016812191442464946 -0.46684962917385797 -0.071229701480827856
v 0.0096364275663635424 -0.47171521830351415 -0.071229701480827856
v 0.024314790936789153 -0.48069284418737129 -0.071229701480827856
v 0.055934874866122947 -0.50003241743798033 -0.071229701480827856
v 0.47087742084825118 0.17839610527945748 -0.071229701480827856
v 0.43734037176391577 0.19890813868866261 -0.071229701480827856
v 0.42354373364093323 0.20734648104637449 -0.071229701480827856
v 0.41600970643977125 0.21195446601494339 -0.071229701480827856
v -0.055804851398493976 0.50012689276015843 -0.071229701480827856
v -0.47056924117577303 -0.17801034577771829 -0.071229701480827856
v -0.43882713282152191 -0.1974245520268261 -0.071229701480827856
v -0.42652234225513541 -0.20495044595818193 -0.071229701480827856
v -0.41742167826376175 -0.21051662214375402 -0.071229701480827856
v -0.0013100590936552241 0.46719686841384211 -0.071229701480827856
v -0.011579796319148669 0.47347807675925591 -0.071229701480827856
v -0.022514763707714963 0.48016615526275441 -0.071229701480827856
v -0.055626695239786361 0.500418176985861 -0.071229701480827856
v -0.41015531762343921 -0.21496089605754104 -0.071229701480827856
v -0.39571706695610553 -0.22379166351555344 -0.071229701480827856
v -0.36225874339055314 -0.24425554656295873 -0.071229701480827856
v -0.29895071167590642 -0.1407473022397368 -0.071229701480827856
v -0.28474135108391135 -0.042927512628241231 -0.071229701480827856
v -0.28122178640796874 -0.053535677356872584 -0.071229701480827856
v -0.010689232021525502 0.33055845245472659 -0.071229701480827856
v 0.052683802591575103 0.43417297615447914 -0.071229701480827856
v 0.020193802270300629 0.45404461040234134 -0.071229701480827856
v 0.011164648882165191 -0.33042101575148186 -0.071229701480827856
v -0.052143382832481544 -0.43392926007470378 -0.071229701480827856
v -0.020842137032739599 -0.45307382458380974 -0.071229701480827856
v 0.39478138420698977 0.22493819796778144 -0.071229701480827856
v 0.36282671705353581 0.24448241005993854 -0.071229701480827856
v 0.36279916314964666 0.24449926268887556 -0.071229701480827856
v 0.31351731765724339 0.16392374695423392 -0.071229701480827856
v 0.29942612849040456 0.14088473898912302 -0.071229701480827856
v 0.29703834853415173 0.065488722601599575 -0.071229701480827856
v 0.091583656111647968 -0.19689362920193726 -0.071229701480827856
v 0.082364716784461514 -0.28471114950962423 -0.071229701480827856
l 1 2
l 2 3
l 3 4
l 4 5
l 5 6
l 6 7
l 7 8
l 8 9
l 10 11
l 11 12
l 12 13
l 13 14
l 14 15
l 15 16
l 16 17
l 17 18
l 18 19
l 19 20
l 20 21
l 21 22
l 23 24
l 24 25
l 26 27
l 27 28
l 28 29
l 29 30
l 30 31
l 31 32
l 32 33
l 33 34
l 34 35
l 36 37
l 37 38
l 38 39
l 39 40
l 40 41
l 41 42
l 42 43
l 44 45
l 45 46
l 46 47
l 47 48
l 48 49
l 49 50
l 50 51
l 51 52
l 1 52
l 9 53
l 10 54
l 36 55
l 35 56
l 55 57
l 53 54
l 57 58
l 56 59
l 58 59
l 60 61
l 61 62
l 62 63
l 63 64
l 64 65
l 65 66
l 66 67
l 67 68
l 68 69
l 60 69
l 70 71
l 71 72
l 72 73
l 73 74
l 74 75
l 75 76
l 76 77
l 77 78
l 78 79
l 70 79
l 78 80
l 76 81
l 82 83
l 83 84
l 84 85
l 85 86
l 13 86
l 11 13
l 11 87
l 87 88
l 88 89
l 89 90
l 90 91
l 91 92
l 6 92
l 5 93
l 93 94
l 94 95
l 95 96
l 96 97
l 80 97
l 81 82
l 6 11
l 5 11
l 22 98
l 98 99
l 99 100
l 100 101
l 101 102
l 61 102
l 68 103
l 104 105
l 105 106
l 106 107
l 107 108
l 108 109
l 109 110
l 110 111
l 44 111
l 43 112
l 112 113
l 113 114
l 114 115
l 115 116
l 116 117
l 117 118
l 118 119
l 119 120
l 120 121
l 121 122
l 26 122
l 25 123
l 103 104
l 23 123
l 3 94
l 4 93
l 7 92
l 8 91
l 9 90
l 53 89
l 54 88
l 10 87
l 15 85
l 125 126
l 126 127
l 127 128
l 128 129
l 129 130
l 20 99
l 21 98
l 24 123
l 27 122
l 28 121
l 29 120
l 30 119
l 132 133
l 133 134
l 134 135
l 135 136
l 136 137
l 35 137
l 137 138
l 56 138
l 138 139
l 139 140
l 140 141
l 141 142
l 142 143
l 36 143
l 143 144
l 37 117
l 38 116
l 39 115
l 40 114
l 41 113
l 42 112
l 45 111
l 46 110
l 47 109
l 48 108
l 145 146
l 146 147
l 147 148
l 148 149
l 149 150
l 150 151
l 2 95
l 152 153
l 153 154
l 154 155
l 64 155
l 155 156
l 65 156
l 156 157
l 157 158
l 158 159
l 160 161
l 73 161
l 161 162
l 162 163
l 163 164
l 165 166
l 166 167
l 167 168
l 71 168
l 160 168
l 164 169
l 169 170
l 170 171
l 83 171
l 171 172
l 84 172
l 125 172
l 151 175
l 96 175
l 175 176
l 97 176
l 176 177
l 165 177
l 130 178
l 100 178
l 178 179
l 101 179
l 179 180
l 152 180
l 159 181
l 181 182
l 182 183
l 105 183
l 183 184
l 184 185
l 107 185
l 145 185
l 144 187
l 118 187
l 132 187
