# XYZ-only planar convex-roof baseline. Provisional base; no GT.
v 1.84749653 -6.53104411 3.02889295
v 4.30974514 -1.08602311 3.01113595
v 8.01562565 7.32634639 3.01540091
v 8.01419991 7.46632789 3.03583599
v 7.94291304 7.50663737 3.06459738
v 5.48338630 8.69038831 4.02737945
v 0.68694623 10.91402031 5.89283774
v 0.08165587 9.77446723 5.92559771
v -8.01549604 -7.33788190 6.09725132
v -1.96505507 -10.15500952 3.74234762
v -0.70651772 -10.70728837 3.25731948
v -0.15048011 -10.79075882 3.06593551
v 1.84749653 -6.53104411 -6.31579340
v 4.30974514 -1.08602311 -6.31579340
v 8.01562565 7.32634639 -6.31579340
v 8.01419991 7.46632789 -6.31579340
v 7.94291304 7.50663737 -6.31579340
v 5.48338630 8.69038831 -6.31579340
v 0.68694623 10.91402031 -6.31579340
v 0.08165587 9.77446723 -6.31579340
v -8.01549604 -7.33788190 -6.31579340
v -1.96505507 -10.15500952 -6.31579340
v -0.70651772 -10.70728837 -6.31579340
v -0.15048011 -10.79075882 -6.31579340
g roof
f 1 2 3 4 5 6 7 8 9 10 11 12
g wall
f 2 1 13 14
g wall
f 3 2 14 15
g wall
f 4 3 15 16
g wall
f 5 4 16 17
g wall
f 6 5 17 18
g wall
f 7 6 18 19
g wall
f 8 7 19 20
g wall
f 9 8 20 21
g wall
f 10 9 21 22
g wall
f 11 10 22 23
g wall
f 12 11 23 24
g wall
f 1 12 24 13
g ground_assumed
f 24 23 22 21 20 19 18 17 16 15 14 13
