# Source coordinates; no display transform
v 0.0824154301916 -0.298735905079 0.146749757787
v 0.195157270196 -0.0494183975335 0.145936697381
v 0.364842729997 0.335768545967 0.146131982064
v 0.364777447982 0.342178041667 0.147067666832
v 0.361513353179 0.344023738696 0.148384598037
v 0.248896142601 0.398225519353 0.192468620119
v 0.029275964214 0.500041543192 0.277884527844
v 0.00156083071935 0.44786350134 0.279384546681
v -0.36919287848 -0.335679525093 0.287244250106
v -0.0921543028359 -0.464670622952 0.179417536308
v -0.0345281898688 -0.489958456801 0.157208988911
v -0.00906824930534 -0.493780415348 0.148445868552
v 0.0824154301916 -0.298735905079 -0.281126261346
v 0.195157270196 -0.0494183975335 -0.281126261346
v 0.364842729997 0.335768545967 -0.281126261346
v 0.364777447982 0.342178041667 -0.281126261346
v 0.361513353179 0.344023738696 -0.281126261346
v 0.248896142601 0.398225519353 -0.281126261346
v 0.029275964214 0.500041543192 -0.281126261346
v 0.00156083071935 0.44786350134 -0.281126261346
v -0.36919287848 -0.335679525093 -0.281126261346
v -0.0921543028359 -0.464670622952 -0.281126261346
v -0.0345281898688 -0.489958456801 -0.281126261346
v -0.00906824930534 -0.493780415348 -0.281126261346
g roof
f 1 2 3 4 5 6 7 8 9 10 11 12
g wall
f 2 1 13 14
g wall
f 3 2 14 15
g wall
f 4 3 15 16
g wall
f 5 4 16 17
g wall
f 6 5 17 18
g wall
f 7 6 18 19
g wall
f 8 7 19 20
g wall
f 9 8 20 21
g wall
f 10 9 21 22
g wall
f 11 10 22 23
g wall
f 12 11 23 24
g wall
f 1 12 24 13
g ground_assumed
f 24 23 22 21 20 19 18 17 16 15 14 13
