# pointcloud_to_mesh 0.5.1; candidate requires geometry validation; coordinates preserved
v 2.336829715 -7.981919368 2.340977404
v 9.649161881 -4.309093386 2.249713358
v 2.299739646 10.323077282 2.266829097
v -4.812602305 6.750702051 2.355597097
v -9.668486281 4.311696760 2.205368573
v -2.319064046 -10.320473907 2.196937898
v 2.299739646 10.323077282 -2.165672000
v -4.812602305 6.750702051 -2.165672000
v 2.336829715 -7.981919368 -2.165672000
v 9.649161881 -4.309093386 -2.165672000
v -9.668486281 4.311696760 -2.165672000
v -2.319064046 -10.320473907 -2.165672000
g roof
f 1 2 3
g roof
f 1 3 4
g roof
f 5 6 1
g roof
f 5 1 4
g facade_completed
f 4 3 7 8
g facade_completed
f 2 1 9 10
g facade_completed
f 3 2 10 7
g facade_completed
f 5 4 8 11
g facade_completed
f 6 5 11 12
g facade_completed
f 1 6 12 9
g ground_assumed
f 10 8 7
g ground_assumed
f 10 11 8
g ground_assumed
f 11 9 12
g ground_assumed
f 11 10 9
