# pointcloud_to_mesh 0.5.1; candidate requires geometry validation; coordinates preserved
v -1.843715740 -4.389014847 2.202838231
v -2.009573776 -4.873849376 1.996589651
v 3.763298253 -1.889163466 1.962520491
v 0.019533953 -0.455984655 3.733883345
v -0.089964606 -0.424767866 3.780135921
v 1.119317182 0.337059076 3.843932636
v 4.020549398 -1.756159674 1.961002299
v 3.988974927 -1.587626981 2.057177506
v 4.219439354 -1.653329740 1.959828530
v 6.380135778 -0.536208117 1.947076973
v 4.528645845 3.044877052 4.314579386
v 4.228545361 2.829559331 4.285111822
v 4.228614149 2.829537307 4.285081513
v 4.281648672 2.812557228 4.261713440
v 4.282235537 2.812369329 4.261454855
v 3.790936469 2.576495732 4.273772354
v 3.829511679 2.620290596 4.285929416
v 3.545707321 2.471493900 4.286532365
v 3.557760221 2.464547401 4.279618394
v 3.257571176 2.320426078 4.287144517
v 3.256871904 2.320059489 4.287146021
v 0.079104717 0.653977722 4.293897247
v 0.079095169 0.653947288 4.293884063
v -0.167841762 -0.133169403 3.952918174
v -0.229531342 -0.329806243 3.867738358
v -0.288990173 -0.368027916 3.864205038
v -0.245423764 -0.380448268 3.845802399
v -0.245417530 -0.380443805 3.845803006
v -0.272332903 -0.466237016 3.808638820
v -0.398053349 -0.549904709 3.799687342
v -0.306734683 -0.575838586 3.761165958
v -0.306712648 -0.575823184 3.761167911
v -0.353513737 -0.725002750 3.696545789
v -0.353530455 -0.724998022 3.696552831
v -0.667811386 -0.951623156 3.665104458
v -0.612048190 -0.788616726 3.734447386
v -0.956322460 -1.028547256 3.704319293
v -0.953173944 -1.066040226 3.683986868
v -1.173784001 -1.180099870 3.685288819
v -2.885883736 -2.373291032 3.535459706
v 1.038500694 0.361678621 3.878890072
v 4.279067150 2.810848165 4.261534282
v 4.047543929 2.699693443 4.267338871
v -0.306718857 -0.575843081 3.761159283
v 0.586455734 5.343408511 2.005081594
v -0.734177128 4.660615912 2.002908292
v -0.671027518 4.637315792 2.031948689
v -0.772466459 4.584869908 2.031781756
v -0.504514817 4.344944632 2.227958219
v -1.023407006 4.511078500 2.002432321
v -5.227278009 2.337596308 1.995514213
v -6.098153676 1.288098250 2.303999738
v -4.550821417 0.846971487 2.948441596
v -4.101696528 0.718931108 3.135495719
v -3.926925695 0.809290992 3.135783331
v -3.841917442 0.644871090 3.243689993
v -1.577223025 -0.000767469 4.186902995
v -0.099928683 0.708484249 4.217540415
v -0.099896625 0.708499676 4.217541061
v -0.099904381 0.708476846 4.217550782
v 0.079064493 0.653956632 4.293898012
v 0.130984672 0.819346174 4.222329298
v 3.557760229 2.464547392 4.293396762
v 4.061069066 2.883180267 4.212296062
v 4.066486577 2.889330844 4.210572596
v 4.228078978 2.829708653 4.284883511
v 4.528645845 3.044877052 4.254466080
v 4.004070808 4.059491201 3.588587894
v 2.849745667 4.493143909 3.053746756
v 1.448669702 5.019495076 2.404576921
v 1.493069767 5.161021219 2.343326834
v 3.913089969 4.235463065 3.473099828
v 2.759410673 6.466868022 2.008657521
v 2.504646763 6.335150179 2.008238269
v 1.736890671 5.938205507 2.006974810
v 1.678884801 5.908215357 2.006879352
v 0.769178664 5.437879781 2.005382293
v 1.431350713 5.184626218 2.314513637
v 1.383266070 5.044065677 2.374273021
v 3.256866582 2.320087801 4.287156567
v -4.372636713 0.578849820 2.003707705
v -4.403852972 0.562710413 1.983382524
v -4.317652590 0.395984737 1.981775152
v -3.609738723 0.195799371 2.287999507
v -2.072963194 -0.238773231 2.952766956
v -1.857634655 -0.135393654 3.090797180
v -1.577971460 -0.214816039 3.211679370
v -0.677459653 -0.470555227 3.600918389
v -0.849811602 -0.584658568 3.481869198
v -0.986025653 -0.674837243 3.387781660
v -0.974770484 -0.808865578 3.356898394
v -0.967255738 -0.898352166 3.336278599
v -0.964841153 -0.927105080 3.329653269
v -0.956322460 -1.028547256 3.306278607
v -0.612048176 -0.788616706 3.547361360
v -0.518646502 -0.515657077 3.669564102
v -0.518677724 -0.515677148 3.669542700
v -0.569401868 -0.663953452 3.603166841
v -0.667811386 -0.951623156 3.474391554
v -0.353506923 -0.724981073 3.696563593
v -0.398053349 -0.549904709 3.721689526
v -0.288990178 -0.368027948 3.826989846
v -0.452246277 -0.321485525 3.756472561
v -0.452233124 -0.321446964 3.756489803
v -1.577223025 -0.000767469 3.270547096
v -3.841917422 0.644871051 2.292328926
v -3.710572302 0.390828049 2.289879743
v -0.569418083 -0.663948886 3.603159822
v -0.569395059 -0.663933547 3.603175751
v -0.518668737 -0.515650805 3.669554480
v -0.452277767 -0.321476520 3.756458967
v -4.101696491 0.718931128 2.180119267
v -3.926925695 0.809290992 2.293914069
v -4.581834360 0.470690611 1.867497277
v -4.419005713 0.592018299 1.983665076
v -4.550821417 0.846971487 1.986123034
v -6.098153676 1.288098250 1.317764189
v -6.212182509 1.150681346 1.222080289
v -6.182238285 1.092764306 1.221521921
v -6.079592058 0.894229669 1.219607884
v 4.219439354 -1.653329740 1.968999633
v -2.009573776 -4.873849376 1.718585276
v -1.843715740 -4.389014847 1.935622865
v -2.885883736 -2.373291032 3.240312495
v -1.173784001 -1.180099870 3.471499633
v -1.347489493 -1.269908952 3.464516449
v -1.405446109 -1.220330074 3.504116596
v -1.551322683 -1.317411710 3.486834120
v -2.436652410 -1.952622879 3.357687771
v -2.927990042 -2.064446517 3.412897636
v -3.016234073 -2.121172103 3.403498021
v -2.960743465 -2.228500039 3.334029355
v -4.027721826 -2.771383081 3.295755933
v -5.093330368 -3.456384269 3.182249014
v -3.864606806 -5.832937144 1.644010557
v -4.019861351 -2.776084364 3.291451450
v -2.419681061 -1.948760366 3.355780761
v -2.461155303 -1.970203348 3.354113443
v 0.079104717 0.653977722 4.147211139
v 0.019533953 -0.455984655 3.827498790
v 1.119317182 0.337059076 3.914398541
v -1.781090027 -0.321309737 3.181581312
v -0.849811636 -0.584658591 3.583720005
v -1.410266841 -1.216206200 3.619355215
v -0.967255741 -0.898352196 3.654921236
v -0.974770482 -0.808865631 3.620974182
v -0.986025665 -0.674837297 3.570130047
v -1.581936184 -1.069352020 3.510676563
v -1.971607721 -0.736008317 3.263987336
v -2.464948670 -0.679852174 3.080248929
v -2.890732731 -0.631385902 2.921671201
v -2.235638970 -0.316874169 3.028915199
v -3.462009472 -0.089933227 2.541473100
v -3.609738703 0.195799332 2.391945921
v -4.317652590 0.395984737 2.086259052
v -4.403852972 0.562710413 1.999009563
v -4.581834360 0.470690611 1.972181766
v -6.079592058 0.894229669 1.325429594
v -5.629004973 0.022720353 1.781500576
v -6.147807941 -1.416851712 2.114952191
v -6.125717187 -1.459578854 2.137311802
v -5.537523803 -0.828554295 2.111081511
v -5.115386905 -1.173850920 2.372764012
v -4.198995920 -1.095309324 2.649800629
v -4.224212100 -0.890759383 2.569531479
v -5.221700790 -0.581737208 2.129330964
v -5.491428437 -0.060039703 1.856320581
v -4.571650845 -0.615569721 2.357319336
v -4.250679315 -0.676062112 2.485280295
v -3.710775023 -0.777816002 2.700522658
v -3.340919523 -0.847521386 2.847972073
v -3.304673133 -0.854352618 2.862422335
v -3.533248913 -1.104819889 2.874459594
v -3.371234869 -1.155011867 2.945957813
v -2.931810623 -0.924624722 3.011070547
v -2.114801429 -1.544255162 3.500432915
v -2.117475766 -1.543426651 3.499252706
v -2.541740010 -1.976539751 3.510425095
v -2.436652410 -1.952622879 3.536954455
v -1.551322683 -1.317411710 3.608030905
v -1.405446127 -1.220330070 3.622407063
v -2.381543840 -1.028331595 3.230444100
v -2.115790058 -1.542342991 3.499432254
v -2.161841978 -1.453271025 3.452819856
v -5.662178766 -2.356138178 2.606491744
v -5.642705835 -2.393802020 2.626201672
v -4.687846737 -2.599999119 3.016094131
v -4.517183033 -2.930090712 3.188834908
v -5.186515690 -3.276148574 3.087943906
v -5.117350044 -3.409926276 3.157951336
v -4.093453714 -2.732069174 3.260104600
v -5.506234161 -1.887092908 2.493493023
v -6.083051260 -1.542101752 2.180496996
v -5.825448268 -2.040348185 2.441235161
v 2.819675071 4.653649274 2.962644312
v 2.849745667 4.493143909 3.029048332
v 4.004070808 4.059491201 3.565186333
v 0.586455734 5.343408511 1.977840403
v 1.383266070 5.044065677 2.347927033
v -3.742085971 -1.040122132 2.782297968
v -3.543321014 -1.101699519 2.870014676
v -3.608353116 -0.975916767 2.804191097
v -1.347489493 -1.269908952 3.540173739
v -1.173784033 -1.180099887 3.569295886
v -0.953173944 -1.066040226 3.606281710
v -0.956322414 -1.028547284 3.592795956
v -0.964841184 -0.927105089 3.556308379
v -0.967255741 -0.898352196 3.545966302
v -1.410266841 -1.216206200 3.501110377
v -2.436652361 -1.952622878 3.397186417
v -2.461155303 -1.970203348 3.394705425
v -2.419681061 -1.948760366 3.401658684
v -3.016234073 -2.121172103 3.256592201
v -2.117475812 -1.543426638 3.369819192
v -2.240467267 -1.505323864 3.315516189
v -3.371234869 -1.155011867 2.816261373
v -3.484936453 -1.214624835 2.797472969
v -3.729027077 -1.342599890 2.757138674
v -3.736700993 -1.327757277 2.749621659
v -3.538648604 -1.110736727 2.744859024
v -3.543320995 -1.101699556 2.740282165
v -3.742085971 -1.040122132 2.652523751
v -4.224212100 -0.890759383 2.439656148
v -4.198995920 -1.095309324 2.515954752
v -5.115386905 -1.173850920 2.231401481
v -5.537523803 -0.828554295 1.973965606
v -6.125717187 -1.459578854 1.983637809
v -6.083051260 -1.542101752 2.025431382
v -5.506234161 -1.887092908 2.335187801
v -5.161179987 -2.093467924 2.520485264
v -4.093453714 -2.732069174 3.093864706
v -4.027721830 -2.771383055 3.129163370
v -4.019861351 -2.776084364 3.133384524
v -2.960743465 -2.228500039 3.310948241
v 2.819675071 4.653649274 2.990391540
v 1.493069767 5.161021219 2.372743854
v -1.971607721 -0.736008317 3.151814606
v -1.581936184 -1.069352020 3.394288698
v -0.986025665 -0.674837297 3.465570628
v -1.781090027 -0.321309737 3.079021862
v -1.577971460 -0.214816039 3.112585802
v -1.857634630 -0.135393594 2.991499898
v -3.462009472 -0.089933227 2.432713250
v -2.235638970 -0.316874169 2.923504268
v -2.890732783 -0.631385908 2.805665632
v -2.464948670 -0.679852174 2.966018929
v 4.279067150 2.810848165 4.308353086
v 4.279113286 2.810878672 4.308358480
v 4.279123129 2.810875093 4.308362989
v 4.282235537 2.812369329 4.308914561
v 4.281648703 2.812557201 4.308654233
v 4.061069105 2.883180243 4.210800265
v 3.829511688 2.620290656 4.220272041
v 3.790936469 2.576495732 4.221849970
v -0.229531342 -0.329806243 3.834301777
v -0.167841762 -0.133169403 3.789633498
v -2.931810623 -0.924624722 3.121544945
v -3.371234869 -1.155011867 3.050137710
v -2.240467267 -1.505323864 3.547867482
v -2.117475812 -1.543426638 3.602004609
v -2.114801429 -1.544255162 3.603181791
v -2.115790048 -1.542343011 3.602212038
v -2.161841968 -1.453271046 3.557038914
v -2.381543840 -1.028331595 3.341529552
v -4.027721830 -2.771383055 3.366963406
v -4.093453714 -2.732069174 3.331721753
v -5.117350044 -3.409926276 3.212287087
v -5.093330368 -3.456384269 3.235848402
v -4.517183033 -2.930090712 3.254829859
v -4.687846737 -2.599999119 3.087422882
v -5.642705835 -2.393802020 2.696956514
v -5.186515690 -3.276148574 3.144441310
v -1.023407006 4.511078500 1.955214720
v -0.504514817 4.344944632 2.185406719
v -0.772466459 4.584869908 2.015226200
v -4.419005713 0.592018299 2.115416319
v -4.403852972 0.562710413 2.130279905
v -4.372636754 0.578849798 2.135428186
v -3.710572302 0.390828049 2.421161105
v -3.484936453 -1.214624835 3.031660997
v -3.533248913 -1.104819889 2.978824017
v -3.304673133 -0.854352618 2.972482681
v -3.340919490 -0.847521361 2.957992171
v -3.710775023 -0.777816002 2.810132040
v -4.571650845 -0.615569721 2.465972744
v -5.491428437 -0.060039703 1.971037947
v -5.221700790 -0.581737208 2.235618457
v -4.224212156 -0.890759358 2.674682850
v -3.742085971 -1.040122132 2.886900247
v -3.608353126 -0.975916749 2.910599449
v -3.538648604 -1.110736727 2.978973820
v -3.736700993 -1.327757277 2.984468351
v -3.729027097 -1.342599851 2.991995809
v -4.250679315 -0.676062112 2.594290131
v -3.543320995 -1.101699556 2.974390591
v 5.084019945 -1.206324940 1.954726125
v 4.219439354 -1.653329740 -4.059310000
v 5.084019945 -1.206324940 -4.059310000
v 5.492459435 -0.995153865 1.952315680
v 5.492459435 -0.995153865 -4.059310000
v 6.380135778 -0.536208117 -4.059310000
v 4.736969463 2.641945011 4.048195724
v 4.736969463 2.641945011 -4.059310000
v 4.721584010 2.671702999 4.067869121
v 4.721584010 2.671702999 -4.059310000
v 4.651270197 2.807701446 4.157779480
v 4.651270197 2.807701446 -4.059310000
v 4.650213882 2.809744532 4.159130190
v 4.650213882 2.809744532 -4.059310000
v 4.623989723 2.860466356 4.192663054
v 4.623989723 2.860466356 -4.059310000
v 4.622565994 2.863220080 4.194483578
v 4.622565994 2.863220080 -4.059310000
v 4.575950370 2.953382343 4.254091033
v 4.575950370 2.953382343 -4.059310000
v 4.555145564 2.993622249 4.280694163
v 4.555145564 2.993622249 -4.059310000
v 4.552252181 2.999218527 4.284393936
v 4.552252181 2.999218527 -4.059310000
v 4.528645845 3.044877052 -4.059310000
v 4.279123129 2.810875093 4.261532906
v 4.279123129 2.810875093 -4.059310000
v 4.279067139 2.810848172 -4.059310000
v 3.557760221 2.464547401 -4.059310000
v 0.079104703 0.653977718 -4.059310000
v 0.079095230 0.653947266 -4.059310000
v -0.288990173 -0.368027916 -4.059310000
v -0.245423764 -0.380448268 -4.059310000
v -0.245417518 -0.380443801 -4.059310000
v -0.272332903 -0.466237016 -4.059310000
v -0.306734623 -0.575838598 -4.059310000
v -0.306712648 -0.575823184 -4.059310000
v -0.306718909 -0.575843082 -4.059310000
v -0.353506923 -0.724981073 -4.059310000
v -0.353513742 -0.725002723 -4.059310000
v -0.353530489 -0.724997985 -4.059310000
v -0.612048190 -0.788616726 -4.059310000
v -2.818935750 -2.502779416 3.449853236
v -2.818935750 -2.502779416 3.156500342
v -2.818935750 -2.502779416 -4.059310000
v -1.680903459 -4.703920499 1.994649971
v -2.009573776 -4.873849376 -4.059310000
v -1.680903459 -4.703920499 -4.059310000
v -1.586477366 -4.655100392 1.994092707
v -1.586477366 -4.655100392 -4.059310000
v 3.763298253 -1.889163466 -4.059310000
v 3.959878634 -1.787527627 1.961360353
v 3.959878634 -1.787527627 -4.059310000
v 4.020549398 -1.756159674 -4.059310000
v 4.228545336 2.829559334 -4.059310000
v 4.004070808 4.059491201 -4.059310000
v 3.913089969 4.235463065 -4.059310000
v 2.759410673 6.466868022 -4.059310000
v 2.504646763 6.335150179 -4.059310000
v 1.736890671 5.938205507 -4.059310000
v 1.678884801 5.908215357 -4.059310000
v 0.769178664 5.437879781 -4.059310000
v 0.586455734 5.343408511 -4.059310000
v -0.734177128 4.660615912 -4.059310000
v -1.023407006 4.511078500 -4.059310000
v -5.227278009 2.337596308 -4.059310000
v -6.098153672 1.288098280 -4.059310000
v -0.099928708 0.708484215 -4.059310000
v -0.099896625 0.708499676 -4.059310000
v -0.099904412 0.708476851 -4.059310000
v 0.079064512 0.653956601 -4.059310000
v 3.257571148 2.320426077 -4.059310000
v 4.066486577 2.889330844 -4.059310000
v -0.452246277 -0.321485525 -4.059310000
v -0.452277752 -0.321476468 -4.059310000
v -0.452233112 -0.321446972 -4.059310000
v -4.317652600 0.395984756 -4.059310000
v -1.857634655 -0.135393654 -4.059310000
v -0.849811602 -0.584658568 -4.059310000
v -0.986025653 -0.674837243 -4.059310000
v -0.967255738 -0.898352166 -4.059310000
v -0.964841153 -0.927105080 -4.059310000
v -0.518677728 -0.515677180 -4.059310000
v -0.518668737 -0.515650805 -4.059310000
v -0.518646468 -0.515657078 -4.059310000
v -0.569418083 -0.663948886 -4.059310000
v -0.569395078 -0.663933503 -4.059310000
v -0.569401875 -0.663953453 -4.059310000
v -6.212182509 1.150681346 -4.059310000
v -6.182238285 1.092764306 -4.059310000
v -6.079592058 0.894229669 -4.059310000
v -1.405446109 -1.220330074 -4.059310000
v -2.541740010 -1.976539751 3.369496111
v -2.927990068 -2.064446493 3.267709307
v -4.027721826 -2.771383081 -4.059310000
v -5.009376317 -3.618765171 3.077146976
v -5.093330368 -3.456384269 -4.059310000
v -5.009376317 -3.618765171 -4.059310000
v -4.941588473 -3.749877978 2.992283406
v -4.941588473 -3.749877978 -4.059310000
v -4.920278473 -3.791095012 2.965605427
v -4.920278473 -3.791095012 -4.059310000
v -4.834808841 -3.956407298 2.858606034
v -4.834808841 -3.956407298 -4.059310000
v -3.864606806 -5.832937144 -4.059310000
v 1.038500709 0.361678620 -4.059310000
v -0.677459700 -0.470555233 -4.059310000
v -0.974770482 -0.808865631 -4.059310000
v -2.890732731 -0.631385902 -4.059310000
v -3.609738703 0.195799332 -4.059310000
v -5.629004973 0.022720353 -4.059310000
v -6.147807941 -1.416851712 -4.059310000
v -6.125717187 -1.459578854 -4.059310000
v -2.117475766 -1.543426651 -4.059310000
v -2.541740010 -1.976539751 -4.059310000
v -1.410266836 -1.216206236 -4.059310000
v -5.186515690 -3.276148574 -4.059310000
v -5.117350044 -3.409926276 -4.059310000
v -5.161180025 -2.093467918 2.680728417
v -6.083051260 -1.542101752 -4.059310000
v -5.825448268 -2.040348185 -4.059310000
v -5.662178766 -2.356138178 -4.059310000
v -5.642705835 -2.393802020 -4.059310000
v 1.431350675 5.184626197 -4.059310000
v -3.608353116 -0.975916767 -4.059310000
v -1.173784033 -1.180099887 -4.059310000
v -0.956322414 -1.028547284 -4.059310000
v -2.436652361 -1.952622878 -4.059310000
v -3.016234061 -2.121172126 -4.059310000
v 4.279113286 2.810878672 -4.059310000
v 4.281648703 2.812557201 -4.059310000
v 4.228614154 2.829537276 -4.059310000
v 4.228078978 2.829708627 -4.059310000
v 4.061069105 2.883180243 -4.059310000
v 3.829511688 2.620290656 -4.059310000
v 4.047543890 2.699693440 -4.059310000
v -0.229531348 -0.329806301 -4.059310000
v -2.115790048 -1.542343011 -4.059310000
v -2.161841968 -1.453271046 -4.059310000
v -4.372636754 0.578849798 -4.059310000
v -3.340919490 -0.847521361 -4.059310000
v -3.538648613 -1.110736709 -4.059310000
v -3.729027097 -1.342599851 -4.059310000
g roof
f 1 2 341 344 3
g roof
f 1 3 4
g roof
f 1 4 5
g roof
f 6 4 3
g roof
f 6 3 347 7
g roof
f 6 7 8
g roof
f 6 8 9
g roof
f 6 9 296 299 10
g roof
f 11 12 13
g roof
f 11 13 14
g roof
f 11 14 15
g roof
f 16 17 18
g roof
f 16 18 19
g roof
f 16 19 20 21
g roof
f 16 21 22
g roof
f 16 22 23
g roof
f 16 23 24
g roof
f 16 24 25
g roof
f 25 26 27
g roof
f 25 27 28
g roof
f 29 30 31
g roof
f 29 31 32
g roof
f 33 34 35
g roof
f 36 37 38
g roof
f 38 39 40
g roof
f 38 40 338 1
g roof
f 41 6 10
g roof
f 10 302 304 306 308 310 312 314 316 318 11 15
g roof
f 10 15 321 42
g roof
f 10 42 43
g roof
f 10 43 16
g roof
f 16 25 28
g roof
f 16 28 29
g roof
f 16 29 32 44
g roof
f 35 36 38
g roof
f 35 38 1
g roof
f 41 10 16
g roof
f 33 35 1
g roof
f 33 1 5
g roof
f 5 41 16
g roof
f 5 16 44
g roof
f 5 44 33
g roof
f 45 46 47
g roof
f 47 48 49
g roof
f 49 50 51
g roof
f 49 51 52
g roof
f 49 52 53
g roof
f 49 53 54
g roof
f 49 54 55
g roof
f 49 55 56
g roof
f 49 56 57
g roof
f 49 57 58
g roof
f 49 58 59
g roof
f 59 60 61
g roof
f 59 61 22
g roof
f 59 22 62
g roof
f 20 63 18
g roof
f 20 18 17
g roof
f 20 18 17 64
g roof
f 20 64 65
g roof
f 65 66 12
g roof
f 65 12 67
g roof
f 65 67 68
g roof
f 65 68 69
g roof
f 65 69 70
g roof
f 71 195 72 73
g roof
f 71 73 74
g roof
f 71 74 75
g roof
f 71 75 76
g roof
f 71 76 77 78
g roof
f 71 78 79
g roof
f 79 45 47
g roof
f 79 47 49
g roof
f 79 49 59
g roof
f 79 59 62 80
g roof
f 80 21 20
g roof
f 80 20 65
g roof
f 70 71 79
g roof
f 70 79 80
g roof
f 70 80 65
g roof
f 81 82 83
g roof
f 81 83 84
g roof
f 81 84 85
g roof
f 81 85 86 107
g roof
f 89 90 91
g roof
f 89 91 92
g roof
f 89 92 93
g roof
f 93 94 95
g roof
f 96 97 109 98
g roof
f 96 109 98 95 99
g roof
f 96 99 34
g roof
f 96 34 100
g roof
f 96 100 44
g roof
f 44 31 101
g roof
f 101 29 28
g roof
f 101 28 27
g roof
f 101 27 102
g roof
f 101 102 103
g roof
f 104 24 23
g roof
f 104 23 61
g roof
f 104 61 60
g roof
f 104 60 58
g roof
f 104 58 105
g roof
f 105 106 107
g roof
f 88 89 93
g roof
f 88 93 95
g roof
f 95 98 108
g roof
f 109 97 110
g roof
f 96 44 101
g roof
f 96 101 111
g roof
f 111 101 103
g roof
f 104 105 107
g roof
f 88 95 108
g roof
f 88 108 109
g roof
f 88 109 97 110
g roof
f 110 96 111
g roof
f 88 110 111
g roof
f 107 86 87 88 111
g roof
f 104 107 111
g roof
f 112 106 113
g roof
f 114 82 115
g roof
f 114 115 116
g roof
f 114 116 117
g roof
f 114 117 118
g roof
f 114 118 119
g roof
f 114 119 120
g roof
f 7 121 8
g roof
f 122 123 339 124
g roof
f 124 125 126
g roof
f 124 126 127
g roof
f 124 127 128
g roof
f 129 388 130 131
g roof
f 129 131 132
g roof
f 133 134 391 394 396 398 135
g roof
f 133 135 122
g roof
f 136 133 122
g roof
f 136 122 124
g roof
f 137 124 128
g roof
f 132 136 124
g roof
f 124 137 138
g roof
f 129 137 128
g roof
f 132 124 138
g roof
f 129 132 138
g roof
f 139 21 80
g roof
f 139 80 62
g roof
f 41 5 140
g roof
f 41 140 141
g roof
f 88 87 142
g roof
f 142 143 88
g roof
f 144 145 146
g roof
f 144 146 147
g roof
f 144 147 148
g roof
f 148 149 150
g roof
f 148 150 151
g roof
f 151 152 153
g roof
f 155 156 157
g roof
f 157 158 159
g roof
f 159 160 161
g roof
f 159 161 162
g roof
f 159 162 163
g roof
f 163 164 165
g roof
f 163 165 166
g roof
f 163 166 167
g roof
f 167 168 169
g roof
f 167 169 170
g roof
f 167 170 171
g roof
f 167 171 172
g roof
f 172 173 174
g roof
f 172 174 175
g roof
f 176 177 130
g roof
f 176 130 178
g roof
f 176 178 179
g roof
f 176 179 180
g roof
f 176 180 181
g roof
f 176 181 144
g roof
f 176 144 148
g roof
f 153 154 155
g roof
f 153 155 157
g roof
f 153 157 159
g roof
f 159 163 167
g roof
f 159 167 172
g roof
f 159 172 175 182
g roof
f 183 176 148
g roof
f 151 153 159
g roof
f 151 159 182
g roof
f 184 183 148
g roof
f 148 151 182
g roof
f 148 182 184
g roof
f 185 186 187
g roof
f 188 189 190
g roof
f 188 190 191
g roof
f 192 193 194
g roof
f 192 194 185
g roof
f 192 185 187
g roof
f 187 188 191
g roof
f 187 191 414 192
g roof
f 195 196 197
g roof
f 195 197 72
g roof
f 78 77 198
g roof
f 78 198 199
g roof
f 200 201 202
g roof
f 127 203 204
g roof
f 127 204 205
g roof
f 127 205 206
g roof
f 127 206 207
g roof
f 127 207 208
g roof
f 127 208 209
g roof
f 210 211 212
g roof
f 213 389 214 215
g roof
f 213 215 216
g roof
f 213 216 217
g roof
f 213 217 218
g roof
f 219 220 221
g roof
f 219 221 222
g roof
f 219 222 223
g roof
f 219 223 224
g roof
f 219 224 225
g roof
f 225 226 227
g roof
f 225 227 228
g roof
f 225 228 229
g roof
f 225 229 230
g roof
f 225 230 231
g roof
f 225 231 232
g roof
f 225 232 233
g roof
f 225 233 234
g roof
f 225 234 213
g roof
f 225 213 218
g roof
f 225 218 219
g roof
f 235 236 70
g roof
f 235 70 69
g roof
f 237 238 239
g roof
f 237 239 89
g roof
f 237 89 240
g roof
f 241 242 85
g roof
f 85 84 243
g roof
f 85 243 244
g roof
f 244 245 246
g roof
f 244 246 237
g roof
f 244 237 240
g roof
f 244 240 241
g roof
f 244 241 85
g roof
f 43 247 248
g roof
f 13 12 66
g roof
f 66 65 252
g roof
f 252 253 254
g roof
f 252 253 254 43
g roof
f 252 43 248
g roof
f 248 249 250
g roof
f 248 250 251
g roof
f 248 251 13
g roof
f 248 13 66
g roof
f 248 66 252
g roof
f 255 256 104
g roof
f 255 104 103
g roof
f 255 103 102
g roof
f 257 258 259
g roof
f 257 259 260
g roof
f 257 260 261
g roof
f 257 261 262
g roof
f 257 262 263
g roof
f 257 263 264
g roof
f 265 266 267
g roof
f 265 267 268
g roof
f 269 270 271
g roof
f 269 271 272
g roof
f 47 46 273
g roof
f 273 274 275
g roof
f 273 275 47
g roof
f 276 277 278
g roof
f 278 279 106
g roof
f 112 116 276
g roof
f 112 276 278
g roof
f 112 278 106
g roof
f 280 258 281
g roof
f 281 282 283
g roof
f 281 283 284
g roof
f 285 286 287
g roof
f 285 287 288
g roof
f 285 288 289
g roof
f 285 289 290
g roof
f 291 292 293
g roof
f 291 293 280
g roof
f 291 280 281
g roof
f 294 285 290
g roof
f 284 294 290
g roof
f 295 291 281
g roof
f 281 284 290
g roof
f 281 290 295
g roof_step_or_fixture_side
f 8 121 9
g facade_completed
f 296 9 297 298
g facade_completed
f 299 296 298 300
g facade_completed
f 10 299 300 301
g facade_completed
f 302 10 301 303
g facade_completed
f 304 302 303 305
g facade_completed
f 306 304 305 307
g facade_completed
f 308 306 307 309
g facade_completed
f 310 308 309 311
g facade_completed
f 312 310 311 313
g facade_completed
f 314 312 313 315
g facade_completed
f 316 314 315 317
g facade_completed
f 318 316 317 319
g facade_completed
f 11 318 319 320 67
g roof_step_or_fixture_side
f 12 11 67
g roof_step_or_fixture_side
f 13 251 14
g roof_step_or_fixture_side
f 251 250 15 14
g roof_step_or_fixture_side
f 250 249 321 15
g facade_completed
f 42 321 322 323
g roof_step_or_fixture_side
f 247 43 42
g roof_step_or_fixture_side
f 16 43 254
g roof_step_or_fixture_side
f 17 16 254 253
g roof_step_or_fixture_side
f 18 63 19
g roof_step_or_fixture_side
f 63 20 19
g roof_step_or_fixture_side
f 22 21 139
g facade_completed
f 23 22 139 325 326
g roof_step_or_fixture_side
f 25 24 256 255
g roof_step_or_fixture_side
f 26 25 255 102
g roof_step_or_fixture_side
f 27 26 102
g facade_completed
f 28 27 328 329
g roof_step_or_fixture_side
f 30 29 101
g roof_step_or_fixture_side
f 31 30 101
g facade_completed
f 32 31 331 332
g facade_completed
f 44 32 332 333
g facade_completed
f 33 100 334 335
g facade_completed
f 34 33 335 336
g roof_step_or_fixture_side
f 35 34 99
g roof_step_or_fixture_side
f 36 35 99 95
g roof_step_or_fixture_side
f 37 36 95 94 206
g roof_step_or_fixture_side
f 38 37 206 205
g roof_step_or_fixture_side
f 39 38 205 204
g roof_step_or_fixture_side
f 40 39 204 125 124
g roof_step_or_fixture_side
f 338 40 124 339
g roof_step_or_fixture_side
f 1 338 339 123
g roof_step_or_fixture_side
f 2 1 123 122
g facade_completed
f 341 2 122 342 343
g facade_completed
f 344 341 343 345
g facade_completed
f 3 344 345 346
g facade_completed
f 347 3 346 348
g facade_completed
f 7 347 348 349
g roof_step_or_fixture_side
f 41 141 6
g roof_step_or_fixture_side
f 141 140 4 6
g roof_step_or_fixture_side
f 140 5 4
g facade_completed
f 68 67 320 351 197
g roof_step_or_fixture_side
f 69 68 197 196
g roof_step_or_fixture_side
f 70 236 71
g roof_step_or_fixture_side
f 236 235 195 71
g facade_completed
f 73 72 352 353
g facade_completed
f 74 73 353 354
g facade_completed
f 75 74 354 355
g facade_completed
f 76 75 355 356
g facade_completed
f 77 76 356 357
g roof_step_or_fixture_side
f 79 78 199
g roof_step_or_fixture_side
f 45 79 199 198
g facade_completed
f 46 45 198 358 359
g roof_step_or_fixture_side
f 48 47 275
g roof_step_or_fixture_side
f 49 48 275 274
g roof_step_or_fixture_side
f 50 49 274 273
g facade_completed
f 51 50 273 360 361
g facade_completed
f 52 51 361 362 117
g roof_step_or_fixture_side
f 53 52 117 116
g roof_step_or_fixture_side
f 54 53 116 112
g roof_step_or_fixture_side
f 55 54 112 113
g roof_step_or_fixture_side
f 56 55 113 106
g roof_step_or_fixture_side
f 57 56 106 105
g roof_step_or_fixture_side
f 58 57 105
g facade_completed
f 59 58 363 364
g facade_completed
f 60 59 364 365
g facade_completed
f 22 61 366 325 139
g roof_step_or_fixture_side
f 62 22 139
g roof_step_or_fixture_side
f 64 17 253 252
g roof_step_or_fixture_side
f 65 64 252
g facade_completed
f 31 44 333 331
g facade_completed
f 27 28 329 328
g facade_completed
f 111 103 369 370
g facade_completed
f 104 111 370 371
g roof_step_or_fixture_side
f 24 104 256
g facade_completed
f 61 23 326 366
g facade_completed
f 58 60 365 363
g roof_step_or_fixture_side
f 106 279 107
g roof_step_or_fixture_side
f 279 278 81 107
g roof_step_or_fixture_side
f 278 277 156 82 81
g roof_step_or_fixture_side
f 156 155 83 82
g roof_step_or_fixture_side
f 155 154 84 83
g roof_step_or_fixture_side
f 86 85 242
g roof_step_or_fixture_side
f 87 86 242 241
g roof_step_or_fixture_side
f 88 143 89
g roof_step_or_fixture_side
f 89 239 90
g roof_step_or_fixture_side
f 147 146 91 90 239
g roof_step_or_fixture_side
f 146 145 208 92 91
g roof_step_or_fixture_side
f 208 207 93 92
g roof_step_or_fixture_side
f 207 206 94 93
g facade_completed
f 100 34 336 334
g facade_completed
f 110 97 378 379
g facade_completed
f 96 110 379 380
g facade_completed
f 97 96 380 378
g facade_completed
f 109 108 381 382
g facade_completed
f 98 109 382 383
g facade_completed
f 108 98 383 381
g roof_step_or_fixture_side
f 276 116 115
g facade_completed
f 118 117 362 384
g facade_completed
f 119 118 384 385
g facade_completed
f 120 119 385 386
g roof_step_or_fixture_side
f 158 157 114 120
g roof_step_or_fixture_side
f 157 156 82 114
g roof_step_or_fixture_side
f 277 276 115 82 156
g facade_completed
f 121 7 349 297 9
g roof_step_or_fixture_side
f 204 203 126 125
g roof_step_or_fixture_side
f 203 127 126
g roof_step_or_fixture_side
f 181 180 128 127
g roof_step_or_fixture_side
f 180 179 210 129 128
g roof_step_or_fixture_side
f 179 178 388 129 210
g roof_step_or_fixture_side
f 178 130 388
g roof_step_or_fixture_side
f 131 130 389 213
g roof_step_or_fixture_side
f 132 131 213 234
g roof_step_or_fixture_side
f 136 132 234 233
g roof_step_or_fixture_side
f 133 136 233 232
g roof_step_or_fixture_side
f 265 268 134 133
g facade_completed
f 391 134 392 393
g facade_completed
f 394 391 393 395
g facade_completed
f 396 394 395 397
g facade_completed
f 398 396 397 399
g facade_completed
f 135 398 399 400
g facade_completed
f 122 135 400 342
g roof_step_or_fixture_side
f 211 210 129 138
g roof_step_or_fixture_side
f 210 212 137 129
g roof_step_or_fixture_side
f 212 211 138 137
g roof_step_or_fixture_side
f 143 142 240 89
g roof_step_or_fixture_side
f 142 87 241 240
g roof_step_or_fixture_side
f 148 147 239 238
g roof_step_or_fixture_side
f 149 148 238 237
g roof_step_or_fixture_side
f 150 149 237 246
g roof_step_or_fixture_side
f 151 150 246 245
g roof_step_or_fixture_side
f 152 151 245 244
g roof_step_or_fixture_side
f 153 152 244 243
g roof_step_or_fixture_side
f 154 153 243 84
g facade_completed
f 159 158 120 386 406
g facade_completed
f 160 159 406 407
g facade_completed
f 161 160 407 408 227
g roof_step_or_fixture_side
f 162 161 227 226
g roof_step_or_fixture_side
f 163 162 226 225
g roof_step_or_fixture_side
f 164 163 225 224
g roof_step_or_fixture_side
f 165 164 224 223
g roof_step_or_fixture_side
f 288 287 166 165
g roof_step_or_fixture_side
f 287 286 167 166
g roof_step_or_fixture_side
f 286 285 168 167
g roof_step_or_fixture_side
f 285 294 169 168
g roof_step_or_fixture_side
f 294 284 170 169
g roof_step_or_fixture_side
f 284 283 171 170
g roof_step_or_fixture_side
f 283 282 172 171
g roof_step_or_fixture_side
f 282 281 173 172
g roof_step_or_fixture_side
f 281 258 174 173
g roof_step_or_fixture_side
f 258 257 175 174
g roof_step_or_fixture_side
f 257 264 182 175
g roof_step_or_fixture_side
f 264 263 184 182
g roof_step_or_fixture_side
f 263 262 183 184
g roof_step_or_fixture_side
f 262 261 176 183
g roof_step_or_fixture_side
f 261 260 177 176
g roof_step_or_fixture_side
f 130 177 214 389
g roof_step_or_fixture_side
f 144 181 127 209
g roof_step_or_fixture_side
f 145 144 209 208
g roof_step_or_fixture_side
f 271 270 187 186
g roof_step_or_fixture_side
f 270 269 188 187
g roof_step_or_fixture_side
f 269 272 189 188
g facade_completed
f 190 189 412 413
g roof_step_or_fixture_side
f 267 266 191 190
g roof_step_or_fixture_side
f 414 191 231 230
g roof_step_or_fixture_side
f 192 414 230 229
g roof_step_or_fixture_side
f 193 192 229 228
g facade_completed
f 194 193 228 415 416
g facade_completed
f 185 194 416 417
g facade_completed
f 186 185 417 418
g facade_completed
f 72 197 351 352
g roof_step_or_fixture_side
f 235 69 196 195
g facade_completed
f 198 77 357 358
g roof_step_or_fixture_side
f 295 290 202 201
g roof_step_or_fixture_side
f 290 289 200 202
g roof_step_or_fixture_side
f 201 200 222 221
g roof_step_or_fixture_side
f 260 259 215 214 177
g roof_step_or_fixture_side
f 259 258 174 216 215
g roof_step_or_fixture_side
f 258 280 217 216 174
g roof_step_or_fixture_side
f 280 293 218 217
g roof_step_or_fixture_side
f 293 292 219 218
g roof_step_or_fixture_side
f 292 291 220 219
g roof_step_or_fixture_side
f 291 295 201 221 220
g roof_step_or_fixture_side
f 289 288 165 223 222 200
g facade_completed
f 228 227 408 415
g roof_step_or_fixture_side
f 266 265 133 232 231 191
g facade_completed
f 248 247 42 323 425
g facade_completed
f 249 248 425 322 321
g facade_completed
f 103 104 371 369
g facade_completed
f 268 267 190 413 392 134
g facade_completed
f 272 271 186 418 412 189
g facade_completed
f 273 46 359 360
g ground_assumed
f 399 342 400
g ground_assumed
f 399 343 342
g ground_assumed
f 399 345 343
g ground_assumed
f 399 346 345
g ground_assumed
f 399 348 346
g ground_assumed
f 399 349 348
g ground_assumed
f 399 297 349
g ground_assumed
f 399 298 297
g ground_assumed
f 399 300 298
g ground_assumed
f 399 301 300
g ground_assumed
f 399 303 301
g ground_assumed
f 399 305 303
g ground_assumed
f 399 307 305
g ground_assumed
f 399 309 307
g ground_assumed
f 399 311 309
g ground_assumed
f 399 340 336 334 313 311
g ground_assumed
f 399 315 313 334 336 340
g ground_assumed
f 399 317 315
g ground_assumed
f 399 319 317
g ground_assumed
f 399 320 319
g ground_assumed
f 399 351 320
g ground_assumed
f 399 352 351
g ground_assumed
f 399 353 352
g ground_assumed
f 399 354 353
g ground_assumed
f 399 355 354
g ground_assumed
f 399 356 355
g ground_assumed
f 399 357 356
g ground_assumed
f 399 358 357
g ground_assumed
f 399 359 358
g ground_assumed
f 399 360 359
g ground_assumed
f 399 361 360
g ground_assumed
f 361 362 384
g ground_assumed
f 361 385 384 362
g ground_assumed
f 361 386 385
g ground_assumed
f 361 406 386
g ground_assumed
f 406 408 407
g ground_assumed
f 406 415 408
g ground_assumed
f 406 416 415
g ground_assumed
f 406 417 416
g ground_assumed
f 406 418 417
g ground_assumed
f 406 412 418
g ground_assumed
f 406 413 412
g ground_assumed
f 406 392 413
g ground_assumed
f 406 393 392
g ground_assumed
f 406 395 393
g ground_assumed
f 406 397 395
g ground_assumed
f 406 399 397
g ground_assumed
f 406 361 399
