# pointcloud_to_mesh 0.5.1; candidate requires geometry validation; coordinates preserved
v -7.284060698 -8.502527178 0.184588626
v -7.843895297 -10.038907424 0.175089307
v -5.113888910 -11.033682015 1.615902393
v -2.348455024 -2.782081240 1.554004288
v -3.663009276 -11.562361435 2.381631870
v -2.455679469 -8.150651559 2.385953239
v -2.455560541 -8.150495871 2.385983305
v -2.455556712 -8.150304668 2.385953679
v -0.157090781 -1.655228616 2.394180529
v -0.530396663 -0.903668731 2.096021997
v -0.547584362 -0.869065512 2.082294222
v -1.075206486 0.193172297 1.660883670
v -1.075221790 0.193203089 1.660871450
v -1.075189069 0.193220713 1.660883864
v -0.974415799 0.473353365 1.662006238
v -0.940632206 0.567266041 1.662382507
v -0.466146785 1.886255290 1.667667141
v -0.051306618 3.039440816 1.672287470
v -0.201351615 3.091722166 1.593491528
v -0.037758180 3.539262792 1.596500139
v -0.037765651 3.539278161 1.596494118
v -0.967954551 5.452707539 0.846863319
v -1.024425139 5.568869410 0.801354184
v -5.613719933 -7.025746717 0.723482655
v -6.017158203 -8.443192507 0.767618283
v -6.151506424 -8.915213470 0.782315806
v -2.348439847 -2.782039635 1.554004553
v -2.348440321 -2.782065486 1.554008579
v -0.753580763 -12.740335044 0.809934670
v 0.030861401 -11.880327595 0.584375881
v 0.123989627 -11.216706933 0.652112205
v 0.351456670 -10.592458501 0.649803725
v 1.938111186 -6.238128380 0.633701352
v 2.013295770 -6.024769969 0.634120911
v 3.105253926 -2.926017217 0.640214413
v 3.779128215 -1.013700516 0.643974865
v 4.487053355 0.939129113 0.638479906
v 3.960882815 0.250239749 0.770917976
v 2.001834954 -0.656247842 1.543152934
v -0.157087424 -1.655219130 2.394176536
v -2.531864353 -11.974534180 1.778312807
v -1.405605179 -12.384926630 1.177559610
v -1.254898604 -12.439841912 1.097171846
v 2.541340885 2.136064988 0.551704594
v 2.205132819 0.899079838 0.759016055
v 3.087409188 0.573033260 0.765007778
v 5.076933350 2.566328188 0.358395923
v 5.511611018 3.714976585 0.159751720
v 5.172219955 3.549405513 0.202252390
v 5.140922515 3.534137136 0.206171651
v 3.907936630 3.921372007 0.208332642
v 3.907852079 3.921281381 0.208350833
v 3.907878702 3.921390200 0.208332743
v 3.095941350 4.176389434 0.209755784
v 3.095937254 4.176390721 0.209755791
v 3.490616526 4.722932557 0.105824887
v 3.219804172 4.632084042 0.133383704
v 3.376912956 5.210091863 0.036512562
v 3.376843169 5.210115316 0.036512447
v 2.097070074 4.490097641 0.211506454
v 2.458336890 4.376637210 0.210873281
v 1.912677563 4.193586728 0.266401486
v 1.333497881 2.556922885 0.547428585
v 1.807250296 2.391849738 0.549105765
v 1.040171353 1.329618292 0.751100684
v 1.040157007 1.329598426 0.751104462
v 1.373901282 1.206262694 0.753370993
v 2.541357331 2.136059258 0.551704652
v 2.541361967 2.136076314 0.551701794
v 1.750805359 -0.772403642 1.642113385
v 2.886495702 -0.246899781 1.194440861
v 1.037936407 1.326523396 0.752970632
v 1.132956949 1.131062995 0.830867144
v 0.828072105 1.035908638 0.928924260
v 0.791168228 1.024390941 0.940793302
v 0.866086679 1.236097869 0.825966390
v 0.029648138 0.786752819 1.185698209
v 0.029507012 0.786677005 1.185758904
v -0.974415799 0.473353365 1.508640732
v -0.552946079 -0.858271010 2.078014539
v 4.159233419 4.947175273 0.260404763
v 4.159248373 4.947236214 0.260407857
v 4.159150104 4.947203248 0.260404995
v 3.490616526 4.722932557 0.240938639
v 3.751503478 5.084202184 0.261545936
v 1.459986023 4.765547987 0.216212577
v 1.359922118 4.802009817 0.216627291
v 1.335795138 4.729185700 0.212848267
v 2.025554548 4.512558000 0.211639288
v 3.376843169 5.210115316 0.262594552
v 3.376933081 5.210165902 0.262598141
v 3.554537908 5.863579045 0.295993241
v 4.160958919 5.651269456 0.293891595
v 3.376912933 5.210091911 0.262594359
v 4.160995678 5.651256587 0.293891467
v 4.161036454 5.651313116 0.293894691
v 4.419461832 6.009173956 0.314307547
v 5.637369375 10.979485590 0.566580580
v 1.859087889 12.356236368 0.582239618
v 1.532780186 11.460734892 0.535379566
v 4.252075508 10.469863258 0.524109483
v 2.483180313 5.615401529 0.270083849
v 1.997852408 4.434276438 0.207553785
v 1.912677563 4.193586728 0.194992223
v 5.187054282 5.292030775 0.290335502
v 4.318267048 5.596195467 0.293346419
v 0.866086715 1.236097849 0.943103131
v 1.037936407 1.326523396 0.892994151
v 1.037206231 1.328025393 0.893471684
v -0.051306618 3.039440816 1.531323575
v -0.940632206 0.567266041 1.509458426
v 0.129968205 1.089555745 1.191527270
v 0.915479311 1.375673206 0.944636297
v 0.802239042 1.417521373 0.991886170
v 0.956996523 1.493019419 0.945928570
v 0.544652303 2.341225138 1.215600342
v 0.257538600 2.931827535 1.403371765
v 0.690357517 2.781017158 1.224058762
v 1.064028294 3.908893237 1.245750945
v 0.151320625 3.602710292 1.536305411
v -0.037750701 3.539283180 1.596495021
v -0.152916947 3.224224544 1.594376782
v 5.140922515 3.534137136 -0.296552202
v 5.172219950 3.549405465 -0.305846460
v 5.511611018 3.714976585 -0.406633819
v 5.772707125 4.404930649 -0.405243849
v 6.000620742 5.007199020 -0.404030529
v 6.736674414 6.952242280 -0.400112078
v 7.942785355 10.139425564 -0.393691231
v 7.940248524 10.140349948 -0.392634569
v 7.514718550 10.295406877 -0.215389233
v 4.161036485 5.651313096 0.358532414
v 4.160958919 5.651269456 0.358554635
v 4.160995630 5.651256576 0.358539413
v 5.187054282 5.292030775 -0.066787181
v 3.490616526 4.722932557 0.473262588
v 3.095944383 4.176400593 0.540803542
v 3.095941400 4.176389460 0.540803070
v 3.554537908 5.863579045 0.609931089
v 3.376933081 5.210165902 0.583159263
v 3.376912956 5.210091863 0.583156230
v 3.219804119 4.632084038 0.559473932
v 3.751503478 5.084202184 0.428616535
v 4.160995678 5.651256587 -0.070706439
v 4.318267048 5.596195467 -0.070109035
v 1.997852408 4.434276438 0.848796628
v 2.097070055 4.490097622 0.806620741
v 2.025554548 4.512558000 0.807560194
v 1.335795138 4.729185700 0.816621231
v 1.359922118 4.802009817 0.778523815
v 0.672816642 5.052381051 0.771302323
v 0.533854657 5.103016776 0.769841829
v -0.991626610 5.658879945 0.753808991
v 0.802239042 1.417521373 0.895874708
v 0.915479311 1.375673206 0.826971197
v 1.037206231 1.328025393 0.752379813
v 1.037936407 1.326523396 0.751693112
v 1.040143597 1.329603382 0.751116515
v 1.267589736 1.644541532 0.691217860
v 1.333497881 2.556922885 0.835404552
v 1.912677563 4.193586728 0.847089299
v 0.257538600 2.931827535 1.485625947
v 0.956996523 1.493019419 0.827813827
v -4.018729409 -11.432742196 2.193893766
v -4.757041296 -11.163712091 1.804235546
v -4.757041296 -11.163712091 -2.346453209
v -4.018729409 -11.432742196 -2.346453209
v -3.663009276 -11.562361435 -2.346453209
v -2.455560541 -8.150495871 -2.346453209
v -0.157090825 -1.655228600 -2.346453209
v -1.075206509 0.193172297 -2.346453209
v -1.075221790 0.193203089 -2.346453209
v -1.075189065 0.193220753 -2.346453209
v -0.466146820 1.886255305 1.521124241
v -0.037758130 3.539262792 -2.346453209
v -0.037765612 3.539278184 -2.346453209
v -1.056607412 5.480550095 0.800808113
v -1.024425139 5.568869410 -2.346453209
v -1.056607412 5.480550095 -2.346453209
v -1.732640557 3.625280749 0.789337127
v -1.732640557 3.625280749 -2.346453209
v -2.004375342 2.879546281 0.784726309
v -2.004375342 2.879546281 -2.346453209
v -2.140807637 2.505128762 0.782411314
v -2.140807637 2.505128762 -2.346453209
v -2.175831536 2.409011040 0.781817026
v -2.175831536 2.409011040 -2.346453209
v -2.248857905 2.208601361 0.780577909
v -2.248857905 2.208601361 -2.346453209
v -2.323835754 2.002836149 0.779305678
v -2.323835754 2.002836149 -2.346453209
v -3.125824836 -0.198099961 0.765697462
v -3.125824836 -0.198099961 -2.346453209
v -3.259073139 -0.563779506 0.763436494
v -3.259073139 -0.563779506 -2.346453209
v -3.447647563 -1.081293107 0.760236748
v -3.447647563 -1.081293107 -2.346453209
v -4.366519921 -3.602997451 0.744645246
v -4.366519921 -3.602997451 -2.346453209
v -5.168337821 -5.803463778 0.731039935
v -5.168337821 -5.803463778 -2.346453209
v -5.613719933 -7.025746717 -2.346453209
v -6.017158204 -8.443192484 -2.346453209
v -6.151506424 -8.915213470 -2.346453209
v -6.314991113 -8.855642029 0.696033635
v -6.314991113 -8.855642029 -2.346453209
v -7.284060698 -8.502527178 -2.346453209
v -7.843895297 -10.038907424 -2.346453209
v -7.309939271 -10.233473228 0.456894812
v -7.309939271 -10.233473228 -2.346453209
v -5.335250936 -10.953020914 1.499074349
v -5.335250936 -10.953020914 -2.346453209
v -5.113888910 -11.033682015 -2.346453209
v -2.348439847 -2.782039635 -2.346453209
v -2.348440342 -2.782065531 -2.346453209
v -2.348455013 -2.782081258 -2.346453209
v 0.123989627 -11.216706933 -2.346453209
v 0.351456670 -10.592458501 -2.346453209
v 1.938111186 -6.238128380 -2.346453209
v 2.013295770 -6.024769969 -2.346453209
v 3.105253942 -2.926017216 -2.346453209
v 3.779128215 -1.013700516 -2.346453209
v 4.487053360 0.939129080 -2.346453209
v -0.157087367 -1.655219111 -2.346453209
v -2.455679433 -8.150651576 -2.346453209
v -2.531864353 -11.974534180 -2.346453209
v -1.405605179 -12.384926630 -2.346453209
v -1.254898604 -12.439841912 -2.346453209
v -0.753580763 -12.740335044 -2.346453209
v 0.030861401 -11.880327595 -2.346453209
v 4.654089903 1.399903798 0.559184158
v 4.654089903 1.399903798 -2.346453209
v 5.076933350 2.566328188 -2.346453209
v 5.511611010 3.714976612 -2.346453209
v 3.095941400 4.176389460 -2.346453209
v 3.095937292 4.176390744 -2.346453209
v 3.095944398 4.176400607 0.209753911
v 3.095944398 4.176400607 -2.346453209
v 3.219804172 4.632084042 -2.346453209
v 1.040171347 1.329618341 -2.346453209
v 1.040156972 1.329598461 -2.346453209
v 1.373901282 1.206262694 -2.346453209
v 2.541340846 2.136064989 -2.346453209
v 2.541362007 2.136076330 -2.346453209
v 2.541357391 2.136059280 -2.346453209
v 2.001834911 -0.656247824 -2.346453209
v 3.960882759 0.250239741 -2.346453209
v 0.791168228 1.024390941 -2.346453209
v -0.547584329 -0.869065490 -2.346453209
v -0.530396648 -0.903668714 -2.346453209
v 3.907878756 3.921390226 -2.346453209
v 3.376912933 5.210091911 -2.346453209
v 4.160958909 5.651269424 -2.346453209
v 4.161036454 5.651313116 -2.346453209
v 5.007483540 11.209006820 0.569191134
v 5.637369375 10.979485590 -2.346453209
v 5.007483540 11.209006820 -2.346453209
v 4.465165366 11.406619669 0.571438765
v 4.465165366 11.406619669 -2.346453209
v 3.646896312 11.704785001 0.574830070
v 3.646896312 11.704785001 -2.346453209
v 3.133234937 11.891955730 0.576958933
v 3.133234937 11.891955730 -2.346453209
v 3.029318807 11.929821255 0.577389612
v 3.029318807 11.929821255 -2.346453209
v 1.859087889 12.356236368 -2.346453209
v 1.532780186 11.460734892 -2.346453209
v 2.702071537 11.034662144 0.530533454
v 2.702071537 11.034662144 -2.346453209
v 2.810591546 10.995119032 0.530083694
v 2.810591546 10.995119032 -2.346453209
v 3.347084403 10.799628844 0.527860206
v 3.347084403 10.799628844 -2.346453209
v 4.147219811 10.508071148 0.524544056
v 4.147219811 10.508071148 -2.346453209
v 4.252075508 10.469863258 -2.346453209
v 2.684593409 6.168148899 0.299008168
v 2.684593409 6.168148899 -2.346453209
v 2.483180313 5.615401529 -2.346453209
v 1.459986023 4.765547987 -2.346453209
v 1.359922118 4.802009817 -2.346453209
v 0.828072076 1.035908615 -2.346453209
v 1.132956916 1.131062985 -2.346453209
v 0.866086715 1.236097849 -2.346453209
v 1.064023459 3.908891588 -2.346453209
v -0.037750701 3.539283180 -2.346453209
v -0.152916947 3.224224544 -2.346453209
v -0.051306638 3.039440871 -2.346453209
v 5.772707114 4.404930617 -2.346453209
v 6.000620766 5.007199031 -2.346453209
v 6.736674422 6.952242268 -2.346453209
v 7.942785355 10.139425564 -2.346453209
v 7.940248524 10.140349948 -2.346453209
v 7.514718550 10.295406877 -2.346453209
v 4.160995630 5.651256576 -2.346453209
v 4.318267028 5.596195521 -2.346453209
v 5.172219950 3.549405465 -2.346453209
v 0.672816642 5.052381051 -2.346453209
v 0.533854657 5.103016776 -2.346453209
v -0.991626610 5.658879945 -2.346453209
v 1.040143536 1.329603356 -2.346453209
v 1.267589736 1.644541532 -2.346453209
v 1.997852439 4.434276386 -2.346453209
g roof
f 1 2 209 211 3
g roof
f 4 3 165 164 5
g roof
f 4 5 6
g roof
f 4 6 7 8
g roof
f 4 8 7
g roof
f 4 8 9
g roof
f 4 9 10 28
g roof
f 4 28 10 11
g roof
f 11 12 13
g roof
f 13 14 15
g roof
f 13 15 16
g roof
f 13 16 17
g roof
f 13 17 18
g roof
f 13 18 19
g roof
f 19 20 21
g roof
f 19 21 22
g roof
f 19 22 23
g roof
f 19 23 177 180 182 184 186 188 190 192 194 196 198 200 24
g roof
f 19 24 25
g roof
f 19 25 26
g roof
f 26 205 1 3
g roof
f 26 3 4
g roof
f 26 4 27
g roof
f 28 4 11
g roof
f 28 11 12 13
g roof
f 28 13 19
g roof
f 19 26 27
g roof
f 19 27 28
g roof
f 29 30 31
g roof
f 29 31 32
g roof
f 29 32 33
g roof
f 29 33 34
g roof
f 34 35 36
g roof
f 39 40 9
g roof
f 39 9 8
g roof
f 39 8 7
g roof
f 6 5 41
g roof
f 6 41 42
g roof
f 6 42 43
g roof
f 6 43 29
g roof
f 6 29 34
g roof
f 6 34 35 36
g roof
f 36 37 38
g roof
f 36 38 39
g roof
f 36 39 7
g roof
f 36 7 6
g roof
f 44 45 46
g roof
f 44 46 38
g roof
f 44 38 37
g roof
f 47 48 49
g roof
f 47 49 50
g roof
f 47 50 51
g roof
f 47 51 52
g roof
f 52 53 54
g roof
f 55 237 56 57
g roof
f 55 57 58
g roof
f 55 58 59
g roof
f 55 59 60 61
g roof
f 55 61 62
g roof
f 55 62 63
g roof
f 55 63 64
g roof
f 65 66 67
g roof
f 65 67 45
g roof
f 65 45 44
g roof
f 68 44 37
g roof
f 68 37 47
g roof
f 47 52 54
g roof
f 47 54 55
g roof
f 47 54 55 64
g roof
f 64 65 44 69
g roof
f 47 64 69
g roof
f 47 69 68
g roof
f 10 9 40
g roof
f 10 40 70
g roof
f 10 70 39
g roof
f 39 71 38
g roof
f 38 46 45
g roof
f 38 45 67
g roof
f 67 66 72
g roof
f 67 72 73
g roof
f 73 74 75
g roof
f 75 76 77
g roof
f 75 77 78
g roof
f 75 78 79 14
g roof
f 75 14 12
g roof
f 75 12 80
g roof
f 75 80 11
g roof
f 11 10 39
g roof
f 11 39 38
g roof
f 11 38 67
g roof
f 11 67 73
g roof
f 11 73 74 75
g roof
f 52 51 53
g roof
f 81 82 83
g roof
f 84 83 85
g roof
f 86 87 88
g roof
f 86 88 89
g roof
f 86 89 60
g roof
f 86 60 90
g roof
f 86 90 91
g roof
f 86 91 92
g roof
f 93 91 90 94
g roof
f 93 94 85
g roof
f 85 95 93
g roof
f 96 97 98
g roof
f 98 255 258 260 262 264 99 100
g roof
f 98 100 268 270 272 274 101
g roof
f 98 101 277 102
g roof
f 102 86 92
g roof
f 93 96 98
g roof
f 98 102 92
g roof
f 98 92 93
g roof
f 60 103 104
g roof
f 60 104 61
g roof
f 82 105 106
g roof
f 107 75 74
g roof
f 107 74 73
g roof
f 107 73 108
g roof
f 107 108 109
g roof
f 110 174 111 112
g roof
f 112 77 107
g roof
f 112 107 113
g roof
f 112 113 114
g roof
f 112 114 115 116
g roof
f 112 116 117
g roof
f 117 118 119
g roof
f 117 119 120
g roof
f 117 120 121
g roof
f 117 121 20
g roof
f 117 20 122
g roof
f 110 112 117
g roof
f 122 19 110
g roof
f 110 117 122
g roof
f 124 125 126
g roof
f 124 126 127
g roof
f 124 127 128
g roof
f 124 128 129
g roof
f 124 129 130
g roof
f 124 130 131
g roof
f 124 131 98
g roof
f 132 133 134
g roof
f 132 134 106
g roof
f 135 82 81
g roof
f 81 83 136
g roof
f 81 136 137
g roof
f 81 137 138
g roof
f 138 53 51
g roof
f 51 123 124
g roof
f 97 132 106
g roof
f 97 106 135
g roof
f 135 81 138
g roof
f 135 138 51
g roof
f 135 51 124
g roof
f 135 124 98
g roof
f 135 98 97
g roof
f 133 139 140
g roof
f 141 142 136
g roof
f 141 136 143
g roof
f 144 85 83
g roof
f 144 83 82
g roof
f 144 82 145
g roof
f 146 147 148
g roof
f 146 148 149
g roof
f 149 150 151
g roof
f 149 151 152
g roof
f 149 152 153
g roof
f 149 153 23
g roof
f 149 23 22
g roof
f 149 22 21
g roof
f 149 21 121
g roof
f 149 121 120
g roof
f 149 120 119
g roof
f 119 146 149
g roof
f 155 76 156
g roof
f 156 157 66
g roof
f 156 66 158
g roof
f 156 65 159
g roof
f 159 64 160
g roof
f 161 146 119
g roof
f 161 119 118
g roof
f 118 162 116
g roof
f 118 116 163
g roof
f 163 154 155
g roof
f 163 155 156
g roof
f 163 156 159
g roof
f 163 159 160
g roof
f 163 160 161
g roof
f 163 161 118
g roof
f 16 15 78
g roof
f 16 78 77
g roof
f 16 77 112
g facade_completed
f 164 165 166 167
g facade_completed
f 5 164 167 168
g facade_completed
f 13 12 171 172
g facade_completed
f 14 13 172 173
g roof_step_or_fixture_side
f 15 14 79
g roof_step_or_fixture_side
f 17 16 111 174
g roof_step_or_fixture_side
f 18 17 174 110
g roof_step_or_fixture_side
f 19 18 110
g facade_completed
f 21 20 175 176
g facade_completed
f 177 23 178 179
g facade_completed
f 180 177 179 181
g facade_completed
f 182 180 181 183
g facade_completed
f 184 182 183 185
g facade_completed
f 186 184 185 187
g facade_completed
f 188 186 187 189
g facade_completed
f 190 188 189 191
g facade_completed
f 192 190 191 193
g facade_completed
f 194 192 193 195
g facade_completed
f 196 194 195 197
g facade_completed
f 198 196 197 199
g facade_completed
f 200 198 199 201
g facade_completed
f 24 200 201 202
g facade_completed
f 25 24 202 203
g facade_completed
f 26 25 203 204
g facade_completed
f 205 26 204 206
g facade_completed
f 1 205 206 207
g facade_completed
f 2 1 207 208
g facade_completed
f 209 2 208 210
g facade_completed
f 211 209 210 212
g facade_completed
f 3 211 212 213
g facade_completed
f 165 3 213 166
g facade_completed
f 28 27 214 215
g facade_completed
f 4 28 215 216
g facade_completed
f 27 4 216 214
g facade_completed
f 32 31 217 218
g facade_completed
f 33 32 218 219
g facade_completed
f 34 33 219 220
g facade_completed
f 35 34 220 221
g facade_completed
f 36 35 221 222
g facade_completed
f 37 36 222 223
g facade_completed
f 9 40 224 170
g facade_completed
f 41 5 168 226
g facade_completed
f 42 41 226 227
g facade_completed
f 43 42 227 228
g facade_completed
f 29 43 228 229
g facade_completed
f 30 29 229 230
g facade_completed
f 31 30 230 217
g facade_completed
f 231 37 223 232
g facade_completed
f 47 231 232 233
g facade_completed
f 48 47 233 234 125
g roof_step_or_fixture_side
f 49 48 125 124
g roof_step_or_fixture_side
f 50 49 124 123
g roof_step_or_fixture_side
f 51 50 123
g roof_step_or_fixture_side
f 53 138 54
g facade_completed
f 55 54 235 236
g facade_completed
f 237 55 236 238
g roof_step_or_fixture_side
f 137 136 84 56 237
g roof_step_or_fixture_side
f 136 142 57 56 84
g roof_step_or_fixture_side
f 142 141 94 58 57
g roof_step_or_fixture_side
f 94 90 59 58
g roof_step_or_fixture_side
f 90 60 59
g roof_step_or_fixture_side
f 62 61 104
g roof_step_or_fixture_side
f 161 160 63 62
g roof_step_or_fixture_side
f 160 64 63
g facade_completed
f 66 65 240 241
g facade_completed
f 69 44 243 244
g facade_completed
f 68 69 244 245
g facade_completed
f 44 68 245 243
g facade_completed
f 40 9 170 224
g roof_step_or_fixture_side
f 72 66 157
g roof_step_or_fixture_side
f 108 73 72
g roof_step_or_fixture_side
f 75 107 76
g roof_step_or_fixture_side
f 107 77 76
g roof_step_or_fixture_side
f 78 15 79
g facade_completed
f 12 14 173 171
g roof_step_or_fixture_side
f 143 136 84 85
g roof_step_or_fixture_side
f 136 83 84
g roof_step_or_fixture_side
f 141 143 85 94
g roof_step_or_fixture_side
f 95 85 144
g roof_step_or_fixture_side
f 134 133 93 95
g roof_step_or_fixture_side
f 133 132 96 93
g roof_step_or_fixture_side
f 132 97 96
g facade_completed
f 255 98 256 257
g facade_completed
f 258 255 257 259
g facade_completed
f 260 258 259 261
g facade_completed
f 262 260 261 263
g facade_completed
f 264 262 263 265
g facade_completed
f 99 264 265 266
g facade_completed
f 100 99 266 267
g facade_completed
f 268 100 267 269
g facade_completed
f 270 268 269 271
g facade_completed
f 272 270 271 273
g facade_completed
f 274 272 273 275
g facade_completed
f 101 274 275 276
g facade_completed
f 277 101 276 278
g facade_completed
f 102 277 278 279
g facade_completed
f 86 102 279 280
g facade_completed
f 87 86 280 281
g roof_step_or_fixture_side
f 150 149 88 87
g roof_step_or_fixture_side
f 149 148 89 88
g roof_step_or_fixture_side
f 148 147 60 89
g roof_step_or_fixture_side
f 139 133 93 92
g roof_step_or_fixture_side
f 133 140 91 93
g roof_step_or_fixture_side
f 140 139 92 91
g roof_step_or_fixture_side
f 147 146 103 60
g roof_step_or_fixture_side
f 146 161 62 104 103
g roof_step_or_fixture_side
f 82 106 145
g roof_step_or_fixture_side
f 105 82 135
g roof_step_or_fixture_side
f 106 105 135
g roof_step_or_fixture_side
f 109 108 72 157 156
g roof_step_or_fixture_side
f 107 109 156 76
g roof_step_or_fixture_side
f 16 112 111
g roof_step_or_fixture_side
f 113 107 76 155
g roof_step_or_fixture_side
f 114 113 155 154
g roof_step_or_fixture_side
f 115 114 154 163
g roof_step_or_fixture_side
f 116 115 163
g roof_step_or_fixture_side
f 116 162 117
g roof_step_or_fixture_side
f 162 118 117
g facade_completed
f 20 121 286 175
g facade_completed
f 126 125 234 289
g facade_completed
f 127 126 289 290
g facade_completed
f 128 127 290 291
g facade_completed
f 129 128 291 292
g facade_completed
f 130 129 292 293
g facade_completed
f 131 130 293 294
g facade_completed
f 98 131 294 256
g roof_step_or_fixture_side
f 106 134 95 144 145
g facade_completed
f 138 137 237 238 235 54
g facade_completed
f 151 150 87 281 298
g facade_completed
f 152 151 298 299
g facade_completed
f 153 152 299 300
g facade_completed
f 23 153 300 178
g facade_completed
f 121 21 176 286
g facade_completed
f 158 66 241 301
g facade_completed
f 65 158 301 240
g ground_assumed
f 207 210 208
g ground_assumed
f 207 212 210
g ground_assumed
f 207 213 212
g ground_assumed
f 207 166 213
g ground_assumed
f 207 167 166
g ground_assumed
f 207 168 167
g ground_assumed
f 207 226 168
g ground_assumed
f 207 227 226
g ground_assumed
f 207 228 227
g ground_assumed
f 207 229 228
g ground_assumed
f 207 230 229
g ground_assumed
f 207 217 230
g ground_assumed
f 218 220 219
g ground_assumed
f 218 221 220
g ground_assumed
f 218 222 221
g ground_assumed
f 222 223 232
g ground_assumed
f 289 290 291
g ground_assumed
f 289 290 291 292
g ground_assumed
f 289 293 292 291 290
g ground_assumed
f 289 294 293
g ground_assumed
f 289 256 294
g ground_assumed
f 289 257 256
g ground_assumed
f 289 259 257
g ground_assumed
f 265 267 266
g ground_assumed
f 265 269 267
g ground_assumed
f 265 271 269
g ground_assumed
f 265 273 271
g ground_assumed
f 265 275 273
g ground_assumed
f 265 276 275
g ground_assumed
f 299 178 300
g ground_assumed
f 299 179 178
g ground_assumed
f 299 181 179
g ground_assumed
f 299 183 181
g ground_assumed
f 299 185 183
g ground_assumed
f 299 187 185
g ground_assumed
f 299 189 187
g ground_assumed
f 299 191 189
g ground_assumed
f 299 193 191
g ground_assumed
f 299 195 193
g ground_assumed
f 299 197 195
g ground_assumed
f 299 199 197
g ground_assumed
f 299 201 199
g ground_assumed
f 299 202 201
g ground_assumed
f 299 203 202
g ground_assumed
f 299 204 203
g ground_assumed
f 206 217 207
g ground_assumed
f 217 222 218
g ground_assumed
f 234 259 289
g ground_assumed
f 263 276 265
g ground_assumed
f 298 204 299
g ground_assumed
f 204 217 206
g ground_assumed
f 204 222 217
g ground_assumed
f 204 232 223 222
g ground_assumed
f 204 233 232
g ground_assumed
f 204 234 233
g ground_assumed
f 261 276 263
g ground_assumed
f 281 204 298
g ground_assumed
f 259 276 261
g ground_assumed
f 280 204 281
g ground_assumed
f 280 234 204
g ground_assumed
f 234 276 259
g ground_assumed
f 234 278 276
g ground_assumed
f 234 279 278
g ground_assumed
f 234 280 279
