# pointcloud_to_mesh 0.5.1; candidate requires geometry validation; coordinates preserved
v -5.524362098 3.531035397 2.659323538
v -5.899518236 2.897361323 2.907881826
v -3.870227596 1.696849036 2.907180217
v 2.909432092 -2.313943996 2.904836211
v 2.918053426 -2.234775789 2.880365747
v 3.002955545 -2.283949213 2.880030363
v 2.966978635 -2.347988075 2.904816315
v 3.000832079 -2.368015505 2.904804611
v 3.375714358 -1.734804002 2.656427766
v 6.065136178 -3.326033409 2.655552723
v 8.270426628 0.398910009 1.194445827
v 5.581442225 1.990878252 1.195031062
v -3.317186697 7.259162675 1.196967775
v -5.910624162 2.878602367 2.900485450
v -8.450722616 -1.411863324 1.212675952
v 0.447906306 -6.680147746 1.208442884
v 1.201529981 -5.407206331 1.709200323
v 2.117637703 -3.859814046 2.317922915
v 2.881614867 -2.569384611 2.825559897
v 2.890996326 -2.483236605 2.852286335
v 3.002955545 -2.283949213 2.929646224
v 2.918053430 -2.234775791 2.929368456
v 2.117637703 -3.859814046 1.806374095
v 1.201529981 -5.407206331 1.187366094
v 1.236638485 -5.427991733 1.187350875
v 3.890514385 -6.999174574 1.186200489
v 5.690336652 -3.959105131 2.402328634
v 6.060406952 -3.323235293 2.655579758
v 3.000832079 -2.368015505 2.403142764
v 2.966978635 -2.347988075 2.403153011
v 2.909432154 -2.313943975 2.403170448
v 2.890996305 -2.483236543 2.349764966
v 2.881614881 -2.569384588 2.322588482
v 6.065136178 -3.326033409 -2.671740554
v 8.270426628 0.398910009 -2.671740554
v 5.581442225 1.990878252 -2.671740554
v -3.317186697 7.259162675 -2.671740554
v -5.524362098 3.531035397 -2.671740554
v -5.899518236 2.897361323 -2.671740554
v -8.450722616 -1.411863324 -2.671740554
v 0.447906306 -6.680147746 -2.671740554
v 1.201529981 -5.407206331 -2.671740554
v 2.890996326 -2.483236605 -2.671740554
v -5.910624162 2.878602367 -2.671740554
v 2.966978611 -2.347988059 -2.671740554
v 1.236638485 -5.427991733 -2.671740554
v 3.890514385 -6.999174574 -2.671740554
v 5.690336652 -3.959105131 -2.671740554
v 6.060406952 -3.323235293 -2.671740554
v 2.881614881 -2.569384588 -2.671740554
g roof
f 1 2 3
g roof
f 1 3 4
g roof
f 1 4 5
g roof
f 1 5 6
g roof
f 6 7 8
g roof
f 6 8 9
g roof
f 9 10 11
g roof
f 9 11 12
g roof
f 9 12 13
g roof
f 9 13 1
g roof
f 9 1 6
g roof
f 14 15 16
g roof
f 14 16 17
g roof
f 14 17 18
g roof
f 14 18 19
g roof
f 14 19 20
g roof
f 14 20 4
g roof
f 14 4 3
g roof
f 14 3 2
g roof
f 7 21 22
g roof
f 7 22 4
g roof
f 23 24 25
g roof
f 23 25 26
g roof
f 23 26 27
g roof
f 23 27 10
g roof
f 23 10 28
g roof
f 28 9 29
g roof
f 30 31 32
g roof
f 30 32 33
g roof
f 33 23 28
g roof
f 29 30 33
g roof
f 33 28 29
g roof_step_or_fixture_side
f 4 22 5
g roof_step_or_fixture_side
f 22 21 6 5
g roof_step_or_fixture_side
f 21 7 6
g roof_step_or_fixture_side
f 8 7 30 29
g roof_step_or_fixture_side
f 9 8 29
g facade_completed
f 11 10 34 35
g facade_completed
f 12 11 35 36
g facade_completed
f 13 12 36 37
g facade_completed
f 1 13 37 38
g facade_completed
f 2 1 38 39
g facade_completed
f 16 15 40 41
g facade_completed
f 17 16 41 42 24
g roof_step_or_fixture_side
f 18 17 24 23
g roof_step_or_fixture_side
f 19 18 23 33
g roof_step_or_fixture_side
f 20 19 33 32
g roof_step_or_fixture_side
f 4 20 32 31
g facade_completed
f 14 2 39 44
g facade_completed
f 15 14 44 40
g roof_step_or_fixture_side
f 7 4 31 30
g facade_completed
f 25 24 42 46
g facade_completed
f 26 25 46 47
g facade_completed
f 27 26 47 48
g facade_completed
f 10 27 48 34
g ground_assumed
f 34 36 35
g ground_assumed
f 34 37 36
g ground_assumed
f 34 49 38 37
g ground_assumed
f 34 39 38 49
g ground_assumed
f 34 44 39
g ground_assumed
f 34 40 44
g ground_assumed
f 40 42 41
g ground_assumed
f 46 48 47
g ground_assumed
f 46 34 48
g ground_assumed
f 34 42 40
g ground_assumed
f 34 46 42
