# Source coordinates; no display transform
v 0.437056946609 0.108443370116 0.238595407854
v -0.295321295013 0.679548650663 0.230567148645
v -0.53474594124 0.372513490581 0.473696710674
v 0.206248746942 -0.187542167188 0.472975190599
v -0.773219547784 0.0666979313366 0.232061179262
v -0.0408413061615 -0.50440734921 0.222608966916
v 0.437056946609 0.108443370116 -0.473429394465
v -0.295321295013 0.679548650663 -0.473429394465
v -0.53474594124 0.372513490581 -0.473429394465
v -0.773219547784 0.0666979313366 -0.473429394465
v -0.0408413061615 -0.50440734921 -0.473429394465
v 0.206248746942 -0.187542167188 -0.473429394465
g roof
f 1 2 3 4
g roof
f 3 5 6 4
g wall
f 2 1 7 8
g wall
f 3 2 8 9
g wall
f 1 4 12 7
g wall
f 5 3 9 10
g wall
f 6 5 10 11
g wall
f 4 6 11 12
g ground_assumed
f 12 11 10 9 8 7
