# Source coordinates; no display transform
v 0.116030535584 0.266008733693 0.187983709882
v 0.0979142982768 0.257352594357 0.188077404357
v 0.0938144549859 0.209638319393 0.188842662311
v 0.0246772360388 0.168745253844 0.189328021992
v 0.029169563017 0.203722612909 0.188770906216
v 0.0174773863778 0.183813655604 0.189064279827
v 0.00885604825301 0.169133595807 0.189280601682
v -0.0424297019804 0.156586231893 0.189351395438
v -0.0244802325644 0.11902019535 0.190008913575
v 0.00804655618185 0.134561856147 0.189840689837
v 0.0130039201064 0.132770532475 0.189882699428
v 0.0488074690951 0.119833062839 0.190186104926
v 0.0640603440387 0.154656142424 0.189659455158
v 0.0662911795981 0.159749257621 0.189582428975
v 0.0789238849416 0.18859035275 0.189146248212
v 0.140975656427 0.20295616671 0.189073854932
v 0.13910833206 0.22609317735 0.188692758925
v 0.113301366711 0.247848004251 0.188271941451
v 0.029043783573 0.1596066057 0.189487975718
v 0.0611781145636 0.160688295007 0.189553874388
v 0.048791304432 0.152933173094 0.189647802652
v 0.151036437457 0.193140436478 0.189259613368
v 0.159878002506 0.174636125929 0.189583494235
v 0.161603550851 0.175460612065 0.18957456993
v 0.190202393475 0.189125456604 0.189426660954
v 0.183077442703 0.204037104089 0.189165662486
v 0.143496408443 0.208920791809 0.188983409888
v 0.328418072779 0.23097836575 0.189105166518
v 0.321230305176 0.294201407107 0.188058384925
v 0.281469952987 0.275203469329 0.188264019524
v 0.274295982964 0.241631157729 0.188791319779
v 0.239351149213 0.204607804347 0.189302587537
v 0.289496745351 0.224184985864 0.189114515538
v 0.30142407871 0.218080335647 0.18924477543
v 0.329660857613 0.127374333663 0.190793161356
v 0.34623044252 0.146305900626 0.190528353709
v 0.327184232763 0.186167280224 0.189830660188
v 0.33136136966 0.205089356549 0.189533809896
v 0.330585803706 0.211911174038 0.189420861304
v 0.32173766164 0.207683433505 0.189466622569
v 0.329005410204 0.20396365294 0.189545994561
v 0.308871297299 0.156467322194 0.190266049521
v 0.303976822403 0.160907177649 0.190181134016
v 0.28908363084 0.132218834539 0.190608957747
v 0.296124476259 0.126397597615 0.190721913236
v 0.29173259419 0.116037156893 0.190878979812
v 0.302665242164 0.0931564664034 0.191279460444
v 0.309074421855 0.0962188435762 0.191246313084
v 0.300781288111 0.113575354663 0.190942522193
v 0.327065665954 0.126134322265 0.190806583263
v 0.307658594693 0.116861408121 0.19090695378
v 0.0470194069475 -0.148766348229 0.194549311887
v 0.0699555736317 -0.125359772396 0.194228274637
v 0.0581134807076 -0.100575725268 0.193794479588
v 0.0981647918609 -0.0814387640793 0.193587340146
v 0.0991157829009 -0.0490330765943 0.193062843066
v 0.132763108941 -0.015890833271 0.192611317242
v 0.116313934052 0.0185352710263 0.192008757293
v 0.112884786357 0.018301511393 0.19200364929
v 0.0937397118659 0.0169964175233 0.19197513107
v 0.0937343610271 0.00915122552314 0.192102692455
v 0.08094132185 0.00303856935901 0.19216885613
v 0.0788448941765 -0.0113353166545 0.192397151568
v 0.0469941247235 0.031784318715 0.19161320592
v 0.0488197610699 0.0838323053017 0.190771566313
v 0.05614648571 0.100883978243 0.190513314722
v -0.0670725298789 0.0420085644151 0.191150585188
v -0.0592524620046 0.0256421220672 0.191437046908
v -0.132207121659 -0.0092164243976 0.191814357607
v -0.132036355452 -0.0138228624593 0.191889709248
v -0.119266206962 -0.0163109910775 0.191963348502
v -0.0941724780176 -0.0688290861128 0.192882572428
v -0.129347134847 -0.0676590691127 0.192772158288
v -0.127668304373 -0.0705830005816 0.192824067869
v -0.162821806101 -0.0873797340216 0.193005876538
v -0.152315882829 -0.109367342138 0.193390725518
v -0.232486023394 -0.0902287036308 0.192871209649
v -0.179834572162 -0.0650712555766 0.192598904163
v -0.187722220862 -0.0485633748566 0.192309966795
v -0.180625758706 -0.032351386793 0.192064771604
v -0.249935762814 -0.0654684763415 0.192423232658
v -0.249421911606 -0.0714573512342 0.192521956312
v -0.303168500074 -0.0971380679954 0.192799925654
v -0.303118497523 -0.0908797774983 0.192698285828
v -0.421807550577 -0.147590724925 0.193312128028
v -0.404620779179 -0.183560528277 0.193941707264
v -0.391336819073 -0.149873282273 0.19342841249
v -0.27434332413 -0.380774686715 0.197487198228
v -0.276773685384 -0.375688238916 0.197398170156
v -0.281010954668 -0.383950627226 0.197521520755
v -0.281018934997 -0.366853629335 0.197243475723
v -0.32136133222 -0.350997541717 0.19688081638
v -0.305413757947 -0.314106714584 0.196322346648
v -0.281019169816 -0.366350562437 0.197235294435
v -0.281036650276 -0.328900655752 0.19662625412
v -0.256720532306 -0.336585947636 0.196814405257
v -0.276713689105 -0.375571250177 0.197396423596
v -0.274294830992 -0.380751516154 0.19748694742
v -0.233221122311 -0.361126042099 0.197274520289
v -0.168212845046 -0.33190093188 0.196968172598
v -0.137623858585 -0.315389043663 0.196779136827
v -0.0465089541286 -0.256177987361 0.196052998135
v -0.00367900223349 -0.251045296255 0.196080809571
v -0.0593358750393 -0.242983174819 0.19580510372
v 0.0215466789692 -0.204336592427 0.195386791139
v 0.0446341370341 -0.231297256673 0.195885198216
v 0.0600064695556 -0.223952185481 0.195805694774
v 0.0316003432088 -0.164501649214 0.194765132351
v -0.113002018508 -0.251421293305 0.195802890077
v -0.14584769307 -0.240698545892 0.195543184342
v -0.210139938056 -0.136996317788 0.193689782959
v -0.351160729869 -0.163700151848 0.193757641419
v -0.350045922402 -0.203016013806 0.194399876122
v -0.372518462169 -0.213753642823 0.194516100749
v -0.303689769668 -0.394796744228 0.197638973666
v -0.0741786375898 -0.285074212616 0.196451007554
v -0.0934228856203 -0.292398015665 0.19652010545
v -0.133064910119 -0.295281867505 0.196464006895
v -0.393350226987 -0.207148410716 0.194354565862
v 0.409790713513 0.0784193961424 0.191797432863
v 0.393483105312 0.0785147484543 0.19175351324
v 0.39862168712 0.073082711344 0.191855197406
v 0.169177864055 -0.0491360210663 0.193246546449
v 0.163758129803 -0.0635044743255 0.193466119214
v 0.218944096011 -0.0696432339283 0.193709324652
v 0.18325901951 -0.0456541440081 0.193226510083
v 0.218977277455 -0.0149969716936 0.192820775934
v 0.2092466365 0.00330077389598 0.192497944248
v 0.169191421756 -0.0159422900106 0.192706798943
v 0.134290643556 -0.0151609602819 0.192603417036
v 0.235474071598 -0.094971990605 0.194164157191
v 0.251419091757 -0.128342961024 0.194748249125
v 0.251980729542 -0.128048111681 0.194744913612
v 0.257648060823 -0.115879146073 0.194561751301
v 0.259074143629 -0.117582747886 0.194593159716
v 0.279342180047 -0.0882174113214 0.194168291436
v 0.289025460258 -0.0324298462945 0.193286255376
v 0.237766111297 -0.0921280879746 0.194123865809
v -0.309640615684 0.0944852417197 0.189667011354
v -0.303641949499 0.0819307696138 0.189886752205
v -0.27141498759 0.0748818555453 0.190085108063
v -0.2072576762 0.098761489992 0.189863475409
v -0.232683125619 0.105633254092 0.189685671371
v -0.229961274317 0.132502315102 0.189255809517
v -0.182514755866 0.155172788475 0.189010423175
v -0.134587540691 0.183309196189 0.188677400966
v -0.137631735456 0.18179552602 0.188694106477
v -0.184528664723 0.159387652519 0.188936650411
v -0.20861445576 0.144588265474 0.189114734278
v -0.253640357177 0.123074389836 0.18934760153
v -0.338112045616 0.0848025940356 0.189750494481
v -0.410878066313 0.0603239174366 0.189959502123
v -0.464897629295 0.0270076662671 0.190360928165
v -0.49135095544 0.0173710077241 0.190448906743
v -0.480168427553 -0.0254485718124 0.191174274562
v -0.429627618451 -0.131224282577 0.193025666262
v -0.302957263068 -0.0706997802993 0.192370545977
v -0.302902284143 -0.0638186503841 0.192258790736
v -0.273052587588 -0.0564109942681 0.192215883434
v -0.169498901613 -0.00693189328531 0.191680319169
v -0.167213088025 -0.00170991340139 0.191601340272
v -0.165352367503 -0.00495063326575 0.191658873893
v -0.0783109631097 0.0655292258924 0.190738903144
v -0.150078376603 0.0672824841419 0.190523932379
v -0.167310826051 0.059048628473 0.190613056072
v -0.161355117957 0.0675615845347 0.190490095523
v -0.161354986642 0.0675579686552 0.190490154641
v -0.130977324028 0.0764091791693 0.19042514459
v -0.0912948430631 0.0693601566267 0.190642872533
v -0.107688853609 0.0977521407128 0.190138580307
v -0.0950402235712 0.100541514931 0.190126083253
v -0.14617072267 0.0892658198012 0.190176601033
v -0.162016388305 0.0857714104411 0.190192256781
v -0.205489709985 0.0950613537275 0.189928238907
v -0.286677682355 0.0464266404826 0.190508180787
v -0.285274828826 0.0434906402125 0.190559569585
v -0.289278592778 0.0415775973525 0.190580276457
v -0.301457347259 0.0188719688165 0.19091786421
v -0.302894111946 0.0350719510943 0.190650693913
v -0.353116763245 0.0110750106825 0.190910437986
v -0.377482550057 0.0620696121897 0.190017879755
v -0.394670722259 0.022238186728 0.19062094508
v -0.413090314903 -0.0079415259768 0.191063858855
v -0.4667773701 -0.0466284555115 0.191553484543
v -0.457934093874 -0.0079897546925 0.190948133826
v -0.131330024935 -0.0328762137298 0.192201382115
v -0.13900584665 -0.0124649307081 0.191849519577
v -0.143365113339 -0.0145478366897 0.191872065091
v -0.156294773686 -0.0207257719854 0.19193893537
v -0.172433581114 -0.0284370733896 0.192022402866
v -0.181113208641 -0.049555162969 0.19234326585
v -0.16129503806 -0.066671361993 0.192673092282
v -0.143720920224 -0.0468509162323 0.192396439947
v -0.142248201509 -0.0451899546112 0.192373256398
v -0.2072576762 0.098761489992 0.1967096049
v -0.205489709985 0.0950613537275 0.196748521008
v -0.182514755866 0.155172788475 0.195998089123
v -0.229961274317 0.132502315102 0.196369786888
v -0.232683125619 0.105633254092 0.19668796189
v 0.00885604825301 0.169133595807 0.195398410054
v 0.0174773863778 0.183813655604 0.195208260028
v 0.00867563331114 0.202234644529 0.19501451777
v -0.0423803601731 0.177839523969 0.195414492264
v -0.0681698649022 0.165517012223 0.195616528181
v -0.0701427531093 0.160047142807 0.195684544919
v -0.0950402235712 0.100541514931 0.196432339431
v -0.107688853609 0.0977521407128 0.196493646851
v -0.0912948430631 0.0693601566267 0.196785792267
v -0.130977324028 0.0764091791693 0.196794691715
v -0.150078376603 0.0672824841419 0.196944330097
v -0.0783109631097 0.0655292258924 0.196800580267
v -0.0759354068276 0.0654711916872 0.19679582205
v -0.0763079052958 0.0983613321396 0.196414817632
v -0.000961677509904 0.117024415874 0.196025849681
v 0.0130039201064 0.132770532475 0.195811102403
v 0.00804655618185 0.134561856147 0.195801640654
v -0.0244802325644 0.11902019535 0.196056456722
v -0.0424297019804 0.156586231893 0.195661356891
v -0.0913085981849 0.101364441986 0.196414252375
v -0.14617072267 0.0892658198012 0.196680167113
v -0.162016388305 0.0857714104411 0.196756970481
v -0.161355117957 0.0675615845347 0.196966875386
v -0.167310826051 0.059048628473 0.197079329709
v -0.161354986642 0.0675579686552 0.196966917083
v 0.32173766164 0.207683433505 0.194235401326
v 0.30142407871 0.218080335647 0.194161142353
v 0.155470675187 0.148342178803 0.195304546642
v 0.163290743061 0.131975736456 0.195476680286
v -0.13900584665 -0.0124649307081 0.197844882809
v -0.132036355452 -0.0138228624593 0.197844711857
v -0.13220712345 -0.00921642524855 0.197791621377
v -0.132811741585 0.00709327168522 0.197603647507
v -0.163773438805 -0.00770057104118 0.197846202548
v -0.156294773686 -0.0207257719854 0.197980324872
v -0.143365113339 -0.0145478366897 0.197879033444
v 0.209233146562 0.0619403638572 0.196184741373
v 0.188763724131 0.0343054419704 0.196552390079
v 0.204110366016 0.00218680399082 0.196890197064
v 0.234265030912 0.016595037702 0.196653964292
v 0.23928806684 0.0505344068648 0.196248440732
v -0.249935764336 -0.0654684770581 0.198713911824
v -0.251178660779 -0.0509826467567 0.198548572639
v -0.273052587588 -0.0564109942681 0.198661613536
v -0.302902284143 -0.0638186503841 0.198815871877
v -0.302957263068 -0.0706997802993 0.198895887862
v -0.429627618451 -0.131224282577 0.199888228064
v -0.421807550577 -0.147590724925 0.200060361663
v -0.303118497523 -0.0908797774983 0.199130547311
v -0.303168500074 -0.0971380679954 0.199203320698
v -0.249421911606 -0.0714573512342 0.198782267958
v -0.142248201464 -0.0451899542081 0.19823223601
v -0.143720919732 -0.0468509137243 0.1982548874
v -0.141030010254 -0.0488827956536 0.198272324552
v -0.14101478361 -0.0672709673419 0.198485777305
v -0.129347134847 -0.0676590691127 0.198463603658
v -0.27671368794 -0.37557124749 0.202375451537
v -0.256720532306 -0.336585947636 0.201877113386
v -0.281036650276 -0.328900655752 0.20184348864
v -0.281019169816 -0.366350562437 0.202278243968
v -0.132207121659 -0.0092164243976 0.188084402149
v -0.0592524620046 0.0256421220672 0.187793469162
v -0.0670725298789 0.0420085644151 0.187674849818
v -0.165352367503 -0.00495063326575 0.188066776086
v -0.167213088025 -0.00170991340139 0.188043421674
v -0.169498901613 -0.00693189328531 0.188083311899
v -0.273052587588 -0.0564109942681 0.188496269521
v -0.251178660779 -0.0509826467567 0.188446472051
v -0.249935762814 -0.0654684763415 0.188553887565
v -0.180625758706 -0.032351386793 0.188277488949
v -0.187722220862 -0.0485633748566 0.188401330728
v -0.179834572162 -0.0650712555766 0.188520975202
v -0.174661968168 -0.0625997279813 0.188500347558
v -0.162821806101 -0.0873797340216 0.188679946032
v -0.127668304373 -0.0705830005816 0.188539758786
v -0.129347134847 -0.0676590691127 0.188518687347
v -0.14101478361 -0.0672709673419 0.188520780513
v -0.141030010254 -0.0488827956536 0.188383760693
v -0.143720920224 -0.0468509162323 0.188369769141
v -0.16129503806 -0.066671361993 0.188524977549
v -0.172433581114 -0.0284370733896 0.18824481969
v -0.156294773686 -0.0207257719854 0.188180460349
v -0.163773438805 -0.00770057104118 0.188086593622
v -0.132811741585 0.00709327168522 0.187963122725
v -0.181113208641 -0.049555162969 0.18840589757
v 0.330585803706 0.211911174038 0.18623884857
v 0.328418072779 0.23097836575 0.186097688504
v 0.30142407871 0.218080335647 0.186205336777
v 0.32173766164 0.207683433505 0.186274133749
v 0.112757330983 -0.173894026131 0.189206892156
v 0.138070761812 -0.161798987803 0.189105945723
v 0.130831461421 -0.0729630938329 0.188447045056
v 0.0677418569675 -0.103108007342 0.188698637579
v 0.0634256437207 -0.111693430537 0.18876445926
v 0.0699555736317 -0.125359772396 0.188863509053
v 0.0470194069475 -0.148766348229 0.189047731877
v 0.100666154414 -0.148588677477 0.189023486114
v 0.00564159323972 -0.249928327053 0.189819257728
v 0.0446341370341 -0.231297256673 0.189663760892
v 0.0215466789692 -0.204336592427 0.189472718082
v -0.0593358750393 -0.242983174819 0.189795266445
v -0.00367900223349 -0.251045296255 0.189831563677
v -0.27141498759 0.0748818555453 0.187517192187
v -0.303641949499 0.0819307696138 0.187478434267
v -0.286677682355 0.0464266404826 0.18773575814
v -0.289278592778 0.0415775973525 0.187773003915
v -0.302894111946 0.0350719510943 0.187827300689
v -0.301457347259 0.0188719688165 0.187947407007
v -0.393350226987 -0.207148410716 0.189670945535
v -0.372518462169 -0.213753642823 0.189711266029
v -0.350045922402 -0.203016013806 0.189621648694
v -0.351160729869 -0.163700151848 0.189329148206
v -0.391336819073 -0.149873282273 0.189243278245
v -0.404620779179 -0.183560528277 0.189499987237
v -0.281019169816 -0.366350562437 0.19080930376
v -0.305413757947 -0.314106714584 0.190430412394
v -0.32136133222 -0.350997541717 0.19071213211
v -0.281018934997 -0.366853629335 0.190813052478
v -0.281010954668 -0.383950627226 0.190940453705
v -0.276773685384 -0.375688238916 0.19087707296
v -0.27434332413 -0.380774686715 0.190913938091
v -0.274294830992 -0.380751516154 0.190913744745
v -0.276713689105 -0.375571250177 0.190876175563
v -0.113002018508 -0.251421293305 0.189881076302
v -0.14584769307 -0.240698545892 0.189815205803
v -0.133064910119 -0.295281867505 0.190216492064
v -0.0934228856203 -0.292398015665 0.190178064
v 0.0581134807076 -0.100575725268 0.204181345992
v 0.0634256437207 -0.111693430537 0.204359607798
v 0.0677418569675 -0.103108007342 0.204256635021
v 0.130831461421 -0.0729630938329 0.204092583865
v 0.112757330983 -0.173894026131 0.205437740031
v 0.100666154414 -0.148588677477 0.205031992939
v 0.0470194069475 -0.148766348229 0.204813452201
v 0.0316003432088 -0.164501649214 0.204971243476
v 0.0600064695556 -0.223952185481 0.205924476017
v 0.142323612946 -0.184620140363 0.205710427775
v 0.182197270948 -0.164664671657 0.205594038286
v 0.237518200446 -0.135640669413 0.205413744001
v 0.251419091757 -0.128342961024 0.205368374936
v 0.235474071598 -0.094971990605 0.204833303328
v 0.237766110133 -0.0921280902139 0.204802746761
v 0.257648060823 -0.115879146073 0.205218732389
v 0.251980729542 -0.128048111681 0.205366541893
v 0.331912711404 -0.0892771459006 0.205150557867
v 0.356851315109 -0.0842408829347 0.205182475242
v 0.497719911158 -0.0169323036168 0.204816176371
v 0.473052906916 0.0346927090008 0.203988418633
v 0.469258590237 0.0433580987806 0.203850903424
v 0.410987077011 0.0155153227406 0.20400242613
v 0.386294971306 0.0671928696286 0.203173826038
v 0.218977277455 -0.0149969716936 0.203640456999
v 0.18325901951 -0.0456541440081 0.20392449086
v 0.163758129803 -0.0635044743255 0.204095212459
v 0.169177864055 -0.0491360210663 0.203915446302
v 0.134290643556 -0.0151609602819 0.203293830734
v 0.169191421756 -0.0159422900106 0.203448621458
v 0.2092466365 0.00330077389598 0.203343000201
v 0.39862168712 0.073082711344 0.203141773048
v 0.393483105312 0.0785147484543 0.20304419724
v 0.409790713513 0.0784193961424 0.203112730327
v 0.446272931171 0.0958510048384 0.203017866104
v 0.453198411247 0.0800360332661 0.203268843791
v 0.400512487943 0.200359167582 0.201359378562
v 0.410574663999 0.177377887835 0.20172407679
v 0.388768905218 0.16695885419 0.201780778044
v 0.369199426709 0.207915371023 0.20112407942
v 0.392358521735 0.218981043771 0.201063859116
v 0.313720365062 0.398573402283 0.198213822322
v 0.321230305176 0.294201407107 0.199712791736
v 0.328418072779 0.23097836575 0.200631660187
v 0.330585803706 0.211911174038 0.200908778127
v 0.33136136966 0.205089356549 0.201007924795
v 0.327184232763 0.186167280224 0.20125685903
v 0.34623044252 0.146305900626 0.201895998143
v 0.329660859539 0.127374334559 0.202094005469
v 0.377816717879 0.1503837384 0.2019687864
v 0.330760145887 0.0508332845307 0.203175109813
v 0.309074421855 0.0962188435762 0.202447395737
v 0.23928806684 0.0505344068648 0.202802422836
v 0.234265030912 0.016595037702 0.203259094867
v 0.204110366016 0.00218680399082 0.203337505685
v 0.302665242164 0.0931564664034 0.202464061432
v 0.29173259419 0.116037156893 0.202097191438
v 0.296124476259 0.126397597615 0.201969564216
v 0.28908363084 0.132218834539 0.201858676364
v 0.303976822403 0.160907177649 0.201516529562
v 0.308871296001 0.156467322508 0.201599144179
v 0.329005410204 0.20396365294 0.201014050942
v 0.32173766164 0.207683433505 0.200931785843
v 0.163290743061 0.131975736456 0.201343793443
v 0.155470675187 0.148342178803 0.201081373167
v 0.30142407871 0.218080335647 0.200701852319
v 0.289496745351 0.224184985864 0.200566844422
v 0.239351149213 0.204607804347 0.200635589889
v 0.274295982964 0.241631157729 0.200258826891
v 0.281469952987 0.275203469329 0.199816180092
v 0.183077442703 0.204037104089 0.200411753445
v 0.190202393475 0.189125456604 0.200650847436
v 0.143496408443 0.208920791809 0.200179977742
v 0.165739438506 0.327866472432 0.198598615273
v 0.0832780224872 0.290321913501 0.198786927509
v 0.0463906193214 0.277714996564 0.198812261417
v -0.0696507140729 0.219851840395 0.199148002646
v -0.114373124851 0.193360444527 0.199336343904
v -0.134587540691 0.183309196189 0.199394428898
v -0.0950402235712 0.100541514931 0.200721529583
v -0.0913085981849 0.101364441986 0.200725330209
v -0.0701427531093 0.160047142807 0.19998714802
v -0.0681698649022 0.165517012223 0.199918341373
v 0.00867563331114 0.202234644529 0.199718520935
v 0.0174773863778 0.183813655604 0.200013883896
v 0.029169563017 0.203722612909 0.199782032951
v 0.0246772360388 0.168745253844 0.200255491333
v 0.029043783573 0.1596066057 0.200402020824
v 0.048791304432 0.152933173094 0.200577250192
v 0.0938144549859 0.209638319393 0.199965181826
v 0.0979142982768 0.257352594357 0.199310957416
v 0.116030535584 0.266008733693 0.199263849988
v 0.113301366711 0.247848004251 0.199508041636
v 0.13910833206 0.22609317735 0.199920362387
v 0.140975656427 0.20295616671 0.20025348595
v 0.0789238849416 0.18859035275 0.200199875
v 0.0662911816135 0.15974925668 0.200553484187
v 0.0611781145636 0.160688295007 0.200519209044
v 0.0640603440387 0.154656142424 0.200615928838
v 0.0488074690951 0.119833062839 0.2010428807
v 0.0130039201064 0.132770532475 0.200713390215
v -0.000961677509904 0.117024415874 0.200877322327
v -0.0763079052958 0.0983613321396 0.200829377024
v -0.0759354068276 0.0654711916872 0.201293522395
v -0.0783109631097 0.0655292258924 0.201282918174
v -0.0670725298789 0.0420085644151 0.2016600495
v 0.05614648571 0.100883978243 0.201339644643
v 0.0488197610699 0.0838323053017 0.201549293815
v 0.0485860229344 0.0771685475862 0.201642058691
v 0.0469941247235 0.031784318715 0.202273843688
v 0.0788448941765 -0.0113353166545 0.203011569677
v 0.08094132185 0.00303856935901 0.202818034111
v 0.0937343610271 0.00915122552314 0.202784768512
v 0.0937397118659 0.0169964175233 0.20267444538
v 0.112884784879 0.0183015106764 0.202734971938
v 0.116313934052 0.0185352710263 0.202745813082
v 0.132763108941 -0.015890833271 0.20329780276
v 0.0991157829009 -0.0490330765943 0.203625322795
v 0.0981647918609 -0.0814387640793 0.204077201049
v 0.138070761812 -0.161798987803 0.205371917812
v 0.259074143629 -0.117582747886 0.20524856999
v 0.276347838333 -0.115255834466 0.205287013684
v 0.407795575656 0.0876416682677 0.202974795553
v 0.209233146562 0.0619403638572 0.202518159576
v 0.159878002506 0.174636125929 0.200729699585
v 0.279342180047 -0.0882174113214 0.204919046944
v 0.188763724131 0.0343054419704 0.202822514022
v 0.289025460258 -0.0324298462945 0.204174274391
v 0.218944096011 -0.0696432339283 0.204408937871
v -0.394670722259 0.022238186728 0.200588329379
v -0.457934093874 -0.0079897546925 0.200752832346
v -0.4667773701 -0.0466284555115 0.201259861551
v -0.413090314903 -0.0079415259768 0.200936923003
v -0.142248201464 -0.0451899542081 0.202576780312
v -0.129347134847 -0.0676590691127 0.202945971796
v -0.0941724780176 -0.0688290861128 0.20310735799
v -0.119266206962 -0.0163109910775 0.202265280501
v -0.132036355452 -0.0138228624593 0.202177667564
v -0.131330024935 -0.0328762137298 0.20244856947
v 0.453198413217 0.0800360321465 0.206475003757
v 0.446272931171 0.0958510048384 0.206475003757
v 0.419406488499 0.0830139202317 0.206475003757
v 0.415021577215 0.0809187609264 0.206475003757
v 0.409790713513 0.0784193961424 0.206475003757
v 0.39862168712 0.073082711344 0.206475003757
v 0.386294971306 0.0671928696286 0.206475003757
v 0.410987077011 0.0155153227406 0.206475003757
v 0.469258590237 0.0433580987806 0.206475003757
v 0.410574663999 0.177377887835 0.20336586097
v 0.400512487943 0.200359167582 0.20336586097
v 0.392358521735 0.218981043771 0.20336586097
v 0.369199426709 0.207915371023 0.20336586097
v 0.388768905218 0.16695885419 0.20336586097
v -0.162821806101 -0.0873797340216 0.207176099702
v -0.174661968168 -0.0625997279813 0.207176099702
v -0.179834572162 -0.0650712555766 0.207176099702
v -0.232486023394 -0.0902287036308 0.207176099702
v -0.210139938056 -0.136996317788 0.207176099702
v -0.152315882829 -0.109367342138 0.207176099702
v -0.309640615684 0.0944852417197 0.205311514777
v -0.377482550057 0.0620696121897 0.205311514777
v -0.353116763245 0.0110750106825 0.205311514777
v -0.302894111946 0.0350719510943 0.205311514777
v -0.289278592778 0.0415775973525 0.205311514777
v -0.285274828826 0.0434906402125 0.205311514777
v -0.286677681459 0.0464266385568 0.205311514777
v -0.303641949499 0.0819307696138 0.205311514777
v 0.389818739046 0.125264981085 0.201361657415
v 0.377816717879 0.1503837384 0.201361657415
v 0.329660859539 0.127374334559 0.201361657415
v 0.327065665954 0.126134322265 0.201361657415
v 0.307658594693 0.116861408121 0.201361657415
v 0.300781288111 0.113575354663 0.201361657415
v 0.309074421855 0.0962188435762 0.201361657415
v 0.330760145887 0.0508332845307 0.201361657415
v 0.404235374711 0.0859405647187 0.201361657415
v 0.407795575656 0.0876416682677 0.201361657415
v 0.397356076674 0.109490258481 0.201361657415
v 0.396124850339 0.112067064042 0.201361657415
v 0.0662911795981 0.159749257621 -0.190377510874
v 0.161603550851 0.175460612065 0.200725212688
v 0.151036436785 0.193140437821 0.200433000628
v 0.329660857613 0.127374333663 -0.190377510874
v 0.0485860226209 0.077168547407 0.190879322298
v -0.421807550577 -0.147590724925 -0.190377510874
v -0.404620779179 -0.183560528277 -0.190377510874
v -0.393350226987 -0.207148410716 -0.190377510874
v -0.303689769668 -0.394796744228 -0.190377510874
v -0.27434332413 -0.380774686715 -0.190377510874
v -0.274294830992 -0.380751516154 -0.190377510874
v -0.233221122311 -0.361126042099 -0.190377510874
v -0.168212845046 -0.33190093188 -0.190377510874
v -0.137623858585 -0.315389043663 -0.190377510874
v -0.0741786375898 -0.285074212616 -0.190377510874
v -0.0465089541286 -0.256177987361 -0.190377510874
v -0.00367900263657 -0.251045296076 -0.190377510874
v 0.0446341370341 -0.231297256673 -0.190377510874
v 0.0600064695556 -0.223952185481 -0.190377510874
v 0.0634256431833 -0.111693429328 0.19398907271
v 0.112884786357 0.018301511393 -0.190377510874
v 0.251419091533 -0.128342960487 -0.190377510874
v 0.251980730931 -0.128048111681 -0.190377510874
v -0.338112045616 0.0848025940356 -0.190377510874
v -0.410878066313 0.0603239174366 -0.190377510874
v -0.464897629295 0.0270076662671 -0.190377510874
v -0.49135095544 0.0173710077241 -0.190377510874
v -0.480168427553 -0.0254485718124 -0.190377510874
v -0.429627618451 -0.131224282577 -0.190377510874
v -0.134587541631 0.183309198159 -0.190377510874
v -0.137631735456 0.18179552602 -0.190377510874
v -0.184528664723 0.159387652519 -0.190377510874
v -0.20861445576 0.144588265474 -0.190377510874
v -0.253640357177 0.123074389836 -0.190377510874
v -0.142248201509 -0.0451899546112 -0.190377510874
v -0.132036355317 -0.0138228648778 -0.190377510874
v -0.0423803605314 0.17783952379 0.199851281242
v -0.13220712345 -0.00921642524855 -0.190377510874
v -0.139005848665 -0.0124649316486 -0.190377510874
v -0.249935764336 -0.0654684770581 -0.190377510874
v -0.143720919732 -0.0468509137243 -0.190377510874
v -0.27671368794 -0.37557124749 -0.190377510874
v 0.00564159323972 -0.249928327053 -0.190377510874
v 0.0937343596387 0.00915122485133 -0.190377510874
v 0.0634256431833 -0.111693429328 -0.190377510874
v 0.142323612946 -0.184620140363 -0.190377510874
v 0.182197270948 -0.164664671657 -0.190377510874
v 0.237518200446 -0.135640669413 -0.190377510874
v 0.237766110133 -0.0921280902139 -0.190377510874
v 0.276347838333 -0.115255834466 -0.190377510874
v 0.331912711404 -0.0892771459006 -0.190377510874
v 0.356851315109 -0.0842408829347 -0.190377510874
v 0.497719911158 -0.0169323036168 -0.190377510874
v 0.473052906916 0.0346927090008 -0.190377510874
v 0.469258590774 0.0433580990493 -0.190377510874
v 0.415021577215 0.0809187609264 0.203099128601
v 0.419406486573 0.0830139192912 0.203087726589
v 0.419406486573 0.0830139192912 -0.190377510874
v 0.453198411247 0.0800360332661 -0.190377510874
v 0.400512490003 0.200359167 -0.190377510874
v 0.392358520526 0.218981043188 -0.190377510874
v 0.313720365062 0.398573402283 -0.190377510874
v 0.165739438506 0.327866472432 -0.190377510874
v 0.0832780224872 0.290321913501 -0.190377510874
v 0.0463906193214 0.277714996564 -0.190377510874
v -0.0696507140729 0.219851840395 -0.190377510874
v -0.114373124851 0.193360444527 -0.190377510874
v 0.396124850339 0.112067064042 0.202583157669
v 0.389818739897 0.125264979293 0.202371541675
v 0.397356076585 0.109490258616 0.20262447427
v 0.404235373367 0.0859405640917 0.202984053074
v 0.308871296001 0.156467322508 -0.190377510874
v 0.415021577215 0.0809187609264 -0.190377510874
v -0.286677681459 0.0464266385568 -0.190377510874
v 0.389818739897 0.125264979293 -0.190377510874
v 0.396124850339 0.112067064042 -0.190377510874
g roof
f 1 2 3
g roof
f 4 5 6
g roof
f 4 6 7
g roof
f 4 7 8
g roof
f 4 8 9
g roof
f 4 9 10
g roof
f 4 10 11
g roof
f 11 12 13
g roof
f 15 16 17
g roof
f 18 1 3
g roof
f 19 4 11
g roof
f 20 14 15
g roof
f 17 18 3
g roof
f 21 19 11
g roof
f 21 11 13
g roof
f 21 13 20
g roof
f 21 20 15
g roof
f 15 17 3
g roof
f 15 3 21
g roof
f 22 23 24
g roof
f 22 24 25
g roof
f 22 25 26
g roof
f 22 26 27
g roof
f 28 29 30
g roof
f 28 30 31
g roof
f 31 32 33
g roof
f 31 33 34
g roof
f 31 34 28
g roof
f 35 36 37
g roof
f 37 38 39
g roof
f 39 40 41
g roof
f 42 43 44
g roof
f 42 44 45
g roof
f 45 46 47
g roof
f 47 48 49
g roof
f 50 35 37
g roof
f 37 39 41
g roof
f 37 41 42
g roof
f 37 42 45
g roof
f 45 47 49
g roof
f 45 49 51
g roof
f 45 51 50
g roof
f 45 50 37
g roof
f 52 53 525 54
g roof
f 54 55 56
g roof
f 56 57 58
g roof
f 56 58 59
g roof
f 56 59 60
g roof
f 56 60 61
g roof
f 56 61 62
g roof
f 56 62 63
g roof
f 56 63 64
g roof
f 65 66 67
g roof
f 65 67 68
g roof
f 68 69 70
g roof
f 68 70 71
g roof
f 68 71 72
g roof
f 72 73 74
g roof
f 72 74 75
g roof
f 72 75 76
g roof
f 77 78 79
g roof
f 77 79 80
g roof
f 77 80 81
g roof
f 77 81 82
g roof
f 77 82 83
g roof
f 83 84 85
g roof
f 85 86 87
g roof
f 88 89 90
g roof
f 90 91 92
g roof
f 93 94 95
g roof
f 93 95 96
g roof
f 96 97 98
g roof
f 96 98 99
g roof
f 96 99 100
g roof
f 96 100 101
g roof
f 102 103 104
g roof
f 105 106 107
g roof
f 105 107 108
g roof
f 105 108 109
g roof
f 110 109 108
g roof
f 110 108 52
g roof
f 110 52 54
g roof
f 110 54 56
g roof
f 110 56 64
g roof
f 110 64 510 65
g roof
f 110 65 68
g roof
f 110 68 72
g roof
f 110 72 76
g roof
f 110 76 111
g roof
f 111 77 83
g roof
f 111 83 85
g roof
f 111 85 87
g roof
f 111 87 112
g roof
f 111 112 113
g roof
f 111 113 114
g roof
f 115 88 90
g roof
f 115 90 92
g roof
f 93 96 101
g roof
f 116 102 104
g roof
f 104 105 109
g roof
f 104 109 117
g roof
f 118 110 111
g roof
f 118 111 114
g roof
f 118 114 119
g roof
f 119 115 92
g roof
f 119 92 93
g roof
f 119 93 101
g roof
f 116 104 117
g roof
f 118 119 101
g roof
f 101 116 117
g roof
f 101 117 118
g roof
f 120 121 122
g roof
f 123 124 125
g roof
f 123 125 126
g roof
f 123 126 127
g roof
f 123 127 128
g roof
f 123 128 129
g roof
f 123 129 130
g roof
f 131 132 133
g roof
f 131 133 134
g roof
f 134 135 136
g roof
f 134 136 137
g roof
f 134 137 125 138
g roof
f 134 138 131
g roof
f 139 140 141
g roof
f 139 141 142
g roof
f 139 142 143
g roof
f 139 143 144
g roof
f 139 144 145
g roof
f 145 146 147
g roof
f 145 147 148
g roof
f 145 148 149
g roof
f 145 149 150
g roof
f 145 150 151
g roof
f 151 152 153
g roof
f 153 154 155
g roof
f 156 157 158
g roof
f 158 159 160
g roof
f 158 160 161
g roof
f 161 162 67
g roof
f 161 67 163
g roof
f 161 163 164
g roof
f 161 164 165
g roof
f 166 167 164
g roof
f 166 164 168
g roof
f 168 169 170
g roof
f 170 171 146
g roof
f 170 146 172
g roof
f 173 172 146
g roof
f 173 146 145
g roof
f 173 145 174
g roof
f 174 142 141
g roof
f 174 141 175
g roof
f 174 175 176
g roof
f 176 177 178
g roof
f 178 179 180
g roof
f 139 145 151
g roof
f 139 151 153
g roof
f 158 161 165
g roof
f 166 168 170
g roof
f 166 170 172
g roof
f 166 173 174
g roof
f 166 174 176
g roof
f 166 176 178
g roof
f 181 139 153
g roof
f 181 153 155
g roof
f 156 158 165
g roof
f 180 181 182
g roof
f 180 182 183
g roof
f 180 183 184
g roof
f 185 182 181
g roof
f 185 181 155
g roof
f 178 180 184
g roof
f 184 185 155
g roof
f 184 155 156
g roof
f 184 156 165
g roof
f 166 178 184
g roof
f 166 184 165
g roof
f 186 70 187
g roof
f 186 187 188
g roof
f 186 188 189
g roof
f 186 189 190
g roof
f 186 190 191
g roof
f 191 192 193
g roof
f 191 193 194
g roof
f 191 194 186
g roof
f 195 196 197
g roof
f 195 197 198
g roof
f 195 198 199
g roof
f 200 201 202
g roof
f 200 202 203
g roof
f 200 203 204
g roof
f 200 204 205
g roof
f 206 207 208
g roof
f 208 209 210
g roof
f 208 210 211
g roof
f 208 211 212
g roof
f 208 212 213
g roof
f 213 214 215
g roof
f 215 216 217
g roof
f 218 200 205
g roof
f 218 205 219
g roof
f 219 206 208
g roof
f 219 208 213
g roof
f 213 215 217
g roof
f 213 217 218
g roof
f 213 218 219
g roof
f 220 221 222
g roof
f 223 210 224
g roof
f 223 224 222
g roof
f 225 226 227
g roof
f 225 227 228
g roof
f 229 230 231
g roof
f 231 232 233
g roof
f 233 234 235
g roof
f 233 235 229
g roof
f 233 229 231
g roof
f 236 237 238
g roof
f 236 238 239
g roof
f 236 239 240
g roof
f 241 242 243
g roof
f 241 243 244
g roof
f 241 244 245
g roof
f 241 245 246
g roof
f 246 247 248
g roof
f 248 249 250
g roof
f 248 250 241
g roof
f 248 241 246
g roof
f 251 252 253
g roof
f 253 254 255
g roof
f 253 255 251
g roof
f 256 257 258
g roof
f 256 258 259
g roof
f 260 261 262
g roof
f 263 264 265
g roof
f 265 266 267
g roof
f 265 267 268
g roof
f 265 268 269
g roof
f 270 271 272
g roof
f 273 274 275
g roof
f 273 275 276
g roof
f 273 276 277
g roof
f 273 277 278
g roof
f 273 278 279
g roof
f 280 281 282
g roof
f 283 260 262
g roof
f 283 262 263
g roof
f 283 263 265
g roof
f 272 273 279
g roof
f 272 279 284
g roof
f 282 283 265
g roof
f 282 265 269
g roof
f 282 269 270
g roof
f 270 272 284
g roof
f 270 284 280
g roof
f 270 280 282
g roof
f 285 286 287
g roof
f 285 287 288
g roof
f 289 290 291
g roof
f 291 292 293
g roof
f 291 293 294
g roof
f 291 294 295
g roof
f 291 295 296
g roof
f 291 296 289
g roof
f 297 298 299
g roof
f 297 299 300
g roof
f 297 300 301
g roof
f 302 303 304
g roof
f 305 306 307
g roof
f 308 309 310
g roof
f 308 310 311
g roof
f 308 311 312
g roof
f 308 312 313
g roof
f 314 315 316
g roof
f 314 316 317
g roof
f 317 318 319
g roof
f 319 320 321
g roof
f 319 321 322
g roof
f 319 322 314
g roof
f 319 314 317
g roof
f 323 324 325
g roof
f 323 325 326
g roof
f 327 328 329
g roof
f 327 329 330
g roof
f 331 332 333
g roof
f 331 333 334
g roof
f 331 334 335
g roof
f 331 335 336
g roof
f 331 336 337
g roof
f 331 337 338
g roof
f 331 338 339
g roof
f 344 345 346
g roof
f 344 346 347
g roof
f 344 347 348
g roof
f 344 348 349
g roof
f 350 351 352
g roof
f 353 354 355
g roof
f 355 356 357
g roof
f 357 351 350
g roof
f 357 350 358
g roof
f 359 360 561 562 361
g roof
f 361 362 363
g roof
f 361 363 364
g roof
f 361 364 365
g roof
f 366 367 368
g roof
f 366 368 369
g roof
f 366 369 370
g roof
f 366 370 371
g roof
f 366 371 372
g roof
f 366 372 373
g roof
f 366 373 374
g roof
f 374 375 376
g roof
f 377 378 379
g roof
f 377 379 380
g roof
f 377 380 381
g roof
f 379 378 382
g roof
f 379 382 383
g roof
f 379 383 384
g roof
f 379 384 385
g roof
f 379 385 386
g roof
f 386 387 388
g roof
f 386 388 389
g roof
f 386 389 390
g roof
f 391 392 393
g roof
f 391 393 394
g roof
f 391 394 395
g roof
f 396 397 398
g roof
f 399 397 396
g roof
f 396 369 368
g roof
f 396 368 400
g roof
f 396 400 401
g roof
f 396 401 402
g roof
f 402 403 404
g roof
f 404 405 406
g roof
f 404 406 407
g roof
f 404 407 408
g roof
f 404 408 409
g roof
f 404 409 542 410
g roof
f 410 411 412
g roof
f 412 413 414
g roof
f 412 414 415
g roof
f 412 415 416
g roof
f 412 416 417
g roof
f 418 419 420
g roof
f 421 422 423
g roof
f 423 424 425
g roof
f 426 427 428
g roof
f 426 428 429
g roof
f 426 429 430
g roof
f 430 431 432
g roof
f 430 432 433
g roof
f 433 434 435
g roof
f 433 435 436
g roof
f 433 436 437
g roof
f 433 437 438
g roof
f 433 438 439
g roof
f 433 439 440
g roof
f 433 440 441
g roof
f 433 441 442
g roof
f 443 444 445
g roof
f 445 327 330
g roof
f 446 331 339
g roof
f 446 339 340
g roof
f 446 340 341
g roof
f 447 342 343
g roof
f 447 343 448
g roof
f 447 448 344
g roof
f 447 344 349
g roof
f 349 350 352
g roof
f 365 366 374
g roof
f 365 374 376
g roof
f 365 376 574 573 575 449
g roof
f 450 379 386
g roof
f 450 386 390
g roof
f 391 395 396
g roof
f 391 396 398
g roof
f 391 398 507 451
g roof
f 391 451 508 399
g roof
f 402 404 410
g roof
f 402 410 412
g roof
f 402 412 417
g roof
f 402 417 418
g roof
f 421 423 425
g roof
f 421 425 426
g roof
f 426 430 433
g roof
f 426 433 442
g roof
f 443 445 330
g roof
f 443 330 446
g roof
f 452 447 349
g roof
f 361 365 449
g roof
f 453 450 390
g roof
f 453 390 391
g roof
f 396 402 418
g roof
f 396 418 420
g roof
f 421 426 442
g roof
f 421 442 443
g roof
f 454 452 349
g roof
f 454 349 352
g roof
f 359 361 449
g roof
f 359 449 576 377
g roof
f 399 396 420
g roof
f 399 420 421
g roof
f 399 421 443
g roof
f 455 454 352
g roof
f 358 359 377
g roof
f 358 377 381
g roof
f 391 399 443
g roof
f 357 358 381
g roof
f 453 391 443
g roof
f 355 357 381
g roof
f 355 381 453
g roof
f 355 453 443
g roof
f 355 443 446
g roof
f 353 355 446
g roof
f 353 446 341
g roof
f 455 353 341
g roof
f 456 457 458
g roof
f 456 458 459
g roof
f 460 461 462
g roof
f 462 463 464
g roof
f 462 464 465
g roof
f 462 465 460
g roof_fixture
f 466 467 468
g roof_fixture
f 466 468 469
g roof_fixture
f 466 469 470
g roof_fixture
f 466 470 471
g roof_fixture
f 466 471 472
g roof_fixture
f 466 472 473
g roof_fixture
f 466 473 474
g roof_fixture
f 475 476 477
g roof_fixture
f 475 477 478
g roof_fixture
f 475 478 479
g roof_fixture
f 480 481 482
g roof_fixture
f 480 482 483
g roof_fixture
f 480 483 484
g roof_fixture
f 480 484 485
g roof_fixture
f 486 487 488
g roof_fixture
f 486 488 489
g roof_fixture
f 486 489 490
g roof_fixture
f 490 491 492
g roof_fixture
f 490 492 493
g roof_fixture
f 490 493 486
g roof_fixture
f 494 495 496
g roof_fixture
f 494 496 497
g roof_fixture
f 494 497 498
g roof_fixture
f 494 498 499
g roof_fixture
f 494 499 500
g roof_fixture
f 494 500 501
g roof_fixture
f 494 501 502
g roof_fixture
f 502 503 504
g roof_fixture
f 502 504 505
g roof_fixture
f 502 505 494
g roof_step_or_fixture_side
f 416 415 21 3
g roof_step_or_fixture_side
f 415 414 19 21
g roof_step_or_fixture_side
f 414 413 4 19
g roof_step_or_fixture_side
f 413 412 5 4
g roof_step_or_fixture_side
f 412 411 201 6 5
g roof_step_or_fixture_side
f 201 200 7 6
g roof_step_or_fixture_side
f 200 218 8 7
g roof_step_or_fixture_side
f 218 217 9 8
g roof_step_or_fixture_side
f 217 216 10 9
g roof_step_or_fixture_side
f 216 215 11 10
g roof_step_or_fixture_side
f 427 426 12 11 215
g roof_step_or_fixture_side
f 426 425 13 12
g roof_step_or_fixture_side
f 425 424 20 13
g roof_step_or_fixture_side
f 424 423 14 20
g roof_step_or_fixture_side
f 423 422 15 14
g roof_step_or_fixture_side
f 422 421 16 15
g roof_step_or_fixture_side
f 421 420 17 16
g roof_step_or_fixture_side
f 420 419 18 17
g roof_step_or_fixture_side
f 419 418 1 18
g roof_step_or_fixture_side
f 418 417 2 1
g roof_step_or_fixture_side
f 417 416 3 2
g roof_step_or_fixture_side
f 451 507 24 23
g roof_step_or_fixture_side
f 507 398 25 24
g roof_step_or_fixture_side
f 398 397 26 25
g roof_step_or_fixture_side
f 397 399 27 26
g roof_step_or_fixture_side
f 399 508 22 27
g roof_step_or_fixture_side
f 508 451 23 22
g roof_step_or_fixture_side
f 396 395 31 30
g roof_step_or_fixture_side
f 395 394 32 31
g roof_step_or_fixture_side
f 394 393 33 32
g roof_step_or_fixture_side
f 393 392 226 34 33
g roof_step_or_fixture_side
f 28 34 287 286
g roof_step_or_fixture_side
f 370 369 29 28
g roof_step_or_fixture_side
f 369 396 30 29
g roof_step_or_fixture_side
f 497 496 35 50
g roof_step_or_fixture_side
f 375 374 36 35 496
g roof_step_or_fixture_side
f 374 373 37 36
g roof_step_or_fixture_side
f 373 372 38 37
g roof_step_or_fixture_side
f 372 371 39 38
g roof_step_or_fixture_side
f 40 39 285 288
g roof_step_or_fixture_side
f 389 388 41 40 225
g roof_step_or_fixture_side
f 388 387 42 41
g roof_step_or_fixture_side
f 387 386 43 42
g roof_step_or_fixture_side
f 386 385 44 43
g roof_step_or_fixture_side
f 385 384 45 44
g roof_step_or_fixture_side
f 384 383 46 45
g roof_step_or_fixture_side
f 383 382 47 46
g roof_step_or_fixture_side
f 382 378 500 48 47
g roof_step_or_fixture_side
f 500 499 49 48
g roof_step_or_fixture_side
f 499 498 51 49
g roof_step_or_fixture_side
f 498 497 50 51
g roof_step_or_fixture_side
f 441 440 60 59
g roof_step_or_fixture_side
f 440 439 61 60
g roof_step_or_fixture_side
f 439 438 62 61
g roof_step_or_fixture_side
f 438 437 63 62
g roof_step_or_fixture_side
f 437 436 64 63
g roof_step_or_fixture_side
f 436 435 510 64
g roof_step_or_fixture_side
f 435 434 65 510
g roof_step_or_fixture_side
f 434 433 66 65
g roof_step_or_fixture_side
f 433 432 67 66
g roof_step_or_fixture_side
f 68 67 262 261
g roof_step_or_fixture_side
f 69 68 261 260
g roof_step_or_fixture_side
f 231 230 70 69
g roof_step_or_fixture_side
f 464 463 71 70 230
g roof_step_or_fixture_side
f 463 462 72 71
g roof_step_or_fixture_side
f 462 461 255 73 72
g roof_step_or_fixture_side
f 74 73 275 274
g roof_step_or_fixture_side
f 75 74 274 273
g roof_step_or_fixture_side
f 480 485 76 75
g roof_step_or_fixture_side
f 485 484 111 76
g roof_step_or_fixture_side
f 484 483 77 111
g roof_step_or_fixture_side
f 483 482 78 77
g roof_step_or_fixture_side
f 79 78 271 270
g roof_step_or_fixture_side
f 80 79 270 269
g roof_step_or_fixture_side
f 81 80 269 268
g roof_step_or_fixture_side
f 241 250 82 81
g roof_step_or_fixture_side
f 250 249 83 82
g roof_step_or_fixture_side
f 249 248 84 83
g roof_step_or_fixture_side
f 248 247 85 84
g facade_completed
f 86 85 511 512 313
g roof_step_or_fixture_side
f 87 86 313 312
g roof_step_or_fixture_side
f 112 87 312 311
g roof_step_or_fixture_side
f 113 112 311 310
g roof_step_or_fixture_side
f 114 113 310 309
g roof_step_or_fixture_side
f 119 114 309 308
g facade_completed
f 115 119 308 513 514
g facade_completed
f 88 115 514 515 320
g roof_step_or_fixture_side
f 89 88 320 319
g roof_step_or_fixture_side
f 90 89 319 318
g roof_step_or_fixture_side
f 91 90 318 317
g roof_step_or_fixture_side
f 92 91 317 316
g roof_step_or_fixture_side
f 93 92 316 315
g roof_step_or_fixture_side
f 94 93 315 314
g roof_step_or_fixture_side
f 259 258 95 94
g roof_step_or_fixture_side
f 258 257 96 95
g roof_step_or_fixture_side
f 257 256 97 96
g roof_step_or_fixture_side
f 98 97 322 321
g facade_completed
f 99 98 321 516 517
g facade_completed
f 100 99 517 518
g facade_completed
f 101 100 518 519
g facade_completed
f 116 101 519 520
g facade_completed
f 102 116 520 521
g facade_completed
f 103 102 521 522 301
g roof_step_or_fixture_side
f 104 103 301 300
g roof_step_or_fixture_side
f 105 104 300 299
g roof_step_or_fixture_side
f 106 105 299 298
g facade_completed
f 107 106 298 523 524
g roof_step_or_fixture_side
f 335 334 108 107
g roof_step_or_fixture_side
f 334 333 52 108
g roof_step_or_fixture_side
f 53 52 295 294
g roof_step_or_fixture_side
f 525 53 294 293
g roof_step_or_fixture_side
f 328 327 54 525
g roof_step_or_fixture_side
f 327 445 55 54
g roof_step_or_fixture_side
f 445 444 56 55
g roof_step_or_fixture_side
f 444 443 57 56
g roof_step_or_fixture_side
f 443 442 58 57
g roof_step_or_fixture_side
f 442 441 59 58
g roof_step_or_fixture_side
f 110 118 325 324
g roof_step_or_fixture_side
f 109 110 324 323
g roof_step_or_fixture_side
f 117 109 323 326
g roof_step_or_fixture_side
f 118 117 326 325
g roof_step_or_fixture_side
f 471 470 360 120 122 358
g roof_step_or_fixture_side
f 360 359 121 120
g roof_step_or_fixture_side
f 359 358 122 121
g roof_step_or_fixture_side
f 353 455 125 124
g roof_step_or_fixture_side
f 455 352 126 125
g roof_step_or_fixture_side
f 352 351 127 126
g roof_step_or_fixture_side
f 351 357 128 127
g roof_step_or_fixture_side
f 357 356 129 128
g roof_step_or_fixture_side
f 356 355 130 129
g roof_step_or_fixture_side
f 355 354 123 130
g roof_step_or_fixture_side
f 354 353 124 123
g roof_step_or_fixture_side
f 343 342 134 133
g roof_step_or_fixture_side
f 342 447 135 134
g roof_step_or_fixture_side
f 447 452 136 135
g roof_step_or_fixture_side
f 452 454 137 136
g roof_step_or_fixture_side
f 454 455 125 137
g roof_step_or_fixture_side
f 455 341 138 125
g roof_step_or_fixture_side
f 341 340 131 138
g roof_step_or_fixture_side
f 340 339 132 131
g facade_completed
f 133 132 527 528
g facade_completed
f 152 151 529 530
g facade_completed
f 153 152 530 531
g facade_completed
f 154 153 531 532
g facade_completed
f 155 154 532 533
g facade_completed
f 156 155 533 534
g roof_step_or_fixture_side
f 246 245 157 156
g roof_step_or_fixture_side
f 245 244 158 157
g roof_step_or_fixture_side
f 244 243 159 158
g roof_step_or_fixture_side
f 160 159 266 265
g roof_step_or_fixture_side
f 161 160 265 264
g roof_step_or_fixture_side
f 162 161 264 263
g roof_step_or_fixture_side
f 67 162 263 262
g roof_step_or_fixture_side
f 432 431 211 163 67
g roof_step_or_fixture_side
f 211 210 164 163
g roof_step_or_fixture_side
f 210 209 168 164
g roof_step_or_fixture_side
f 209 208 169 168
g roof_step_or_fixture_side
f 208 207 170 169
g roof_step_or_fixture_side
f 207 206 171 170
g roof_step_or_fixture_side
f 406 405 146 171 206
g facade_completed
f 147 146 535 536
g facade_completed
f 148 147 536 537
g facade_completed
f 149 148 537 538
g facade_completed
f 150 149 538 539
g facade_completed
f 151 150 539 529
g roof_step_or_fixture_side
f 224 210 164 167
g roof_step_or_fixture_side
f 210 223 165 164
g roof_step_or_fixture_side
f 223 222 166 165
g roof_step_or_fixture_side
f 222 224 167 166
g roof_step_or_fixture_side
f 220 222 166 172
g roof_step_or_fixture_side
f 222 221 173 166
g roof_step_or_fixture_side
f 221 220 172 173
g roof_step_or_fixture_side
f 199 198 144 143
g roof_step_or_fixture_side
f 198 197 145 144
g roof_step_or_fixture_side
f 197 196 174 145
g roof_step_or_fixture_side
f 196 195 142 174
g roof_step_or_fixture_side
f 195 199 143 142
g roof_step_or_fixture_side
f 458 457 185 184
g roof_step_or_fixture_side
f 457 456 182 185
g roof_step_or_fixture_side
f 456 459 183 182
g roof_step_or_fixture_side
f 459 458 184 183
g roof_step_or_fixture_side
f 488 487 181 180
g roof_step_or_fixture_side
f 487 486 139 181
g roof_step_or_fixture_side
f 486 493 140 139
g roof_step_or_fixture_side
f 141 140 303 302
g roof_step_or_fixture_side
f 175 141 302 304
g roof_step_or_fixture_side
f 492 491 176 175
g roof_step_or_fixture_side
f 491 490 177 176
g roof_step_or_fixture_side
f 178 177 305 307
g roof_step_or_fixture_side
f 179 178 307 306
g roof_step_or_fixture_side
f 489 488 180 179
g roof_step_or_fixture_side
f 230 229 187 70
g roof_step_or_fixture_side
f 229 235 188 187
g roof_step_or_fixture_side
f 235 234 189 188
g roof_step_or_fixture_side
f 190 189 281 280
g roof_step_or_fixture_side
f 191 190 280 284
g roof_step_or_fixture_side
f 192 191 284 279
g roof_step_or_fixture_side
f 193 192 279 278
g roof_step_or_fixture_side
f 252 251 194 193
g roof_step_or_fixture_side
f 460 465 186 194 251
g roof_step_or_fixture_side
f 465 464 230 70 186
g roof_step_or_fixture_side
f 410 542 203 202
g roof_step_or_fixture_side
f 542 409 204 203
g roof_step_or_fixture_side
f 409 408 205 204
g roof_step_or_fixture_side
f 408 407 219 205
g roof_step_or_fixture_side
f 407 406 206 219
g roof_step_or_fixture_side
f 431 430 212 211
g roof_step_or_fixture_side
f 430 429 213 212
g roof_step_or_fixture_side
f 429 428 214 213
g roof_step_or_fixture_side
f 428 427 215 214
g roof_step_or_fixture_side
f 411 410 202 201
g roof_step_or_fixture_side
f 391 390 228 227
g roof_step_or_fixture_side
f 390 389 225 228
g roof_step_or_fixture_side
f 226 225 40 288 287 34
g roof_step_or_fixture_side
f 392 391 227 226
g roof_step_or_fixture_side
f 232 231 69 260 283
g roof_step_or_fixture_side
f 233 232 283 282
g roof_step_or_fixture_side
f 234 233 282 281 189
g roof_step_or_fixture_side
f 381 380 239 238
g roof_step_or_fixture_side
f 380 379 240 239
g roof_step_or_fixture_side
f 379 450 236 240
g roof_step_or_fixture_side
f 450 453 237 236
g roof_step_or_fixture_side
f 453 381 238 237
g roof_step_or_fixture_side
f 243 242 267 266 159
g facade_completed
f 247 246 156 534 511 85
g roof_step_or_fixture_side
f 242 241 81 268 267
g roof_step_or_fixture_side
f 253 252 193 278 277
g roof_step_or_fixture_side
f 254 253 277 276
g roof_step_or_fixture_side
f 255 254 276 275 73
g roof_step_or_fixture_side
f 461 460 251 255
g roof_step_or_fixture_side
f 256 259 94 314 322 97
g roof_step_or_fixture_side
f 482 481 272 271 78
g roof_step_or_fixture_side
f 481 480 75 273 272
g roof_step_or_fixture_side
f 371 370 28 286 285 39
g roof_step_or_fixture_side
f 330 329 292 291
g roof_step_or_fixture_side
f 329 328 525 293 292
g roof_step_or_fixture_side
f 333 332 296 295 52
g roof_step_or_fixture_side
f 332 331 289 296
g roof_step_or_fixture_side
f 331 446 290 289
g roof_step_or_fixture_side
f 446 330 291 290
g facade_completed
f 297 301 522 548
g facade_completed
f 298 297 548 523
g roof_step_or_fixture_side
f 493 492 175 304 303 140
g roof_step_or_fixture_side
f 490 489 179 306 305 177
g facade_completed
f 308 313 512 513
g facade_completed
f 321 320 515 516
g facade_completed
f 336 335 107 524 551
g facade_completed
f 337 336 551 552
g facade_completed
f 338 337 552 553
g facade_completed
f 339 338 553 527 132
g facade_completed
f 448 343 133 528 555
g facade_completed
f 344 448 555 556
g facade_completed
f 345 344 556 557
g facade_completed
f 346 345 557 558
g facade_completed
f 347 346 558 559
g facade_completed
f 348 347 559 560
g roof_step_or_fixture_side
f 474 473 349 348
g roof_step_or_fixture_side
f 473 472 350 349
g roof_step_or_fixture_side
f 472 471 358 350
g roof_step_or_fixture_side
f 470 469 561 360
g roof_step_or_fixture_side
f 469 468 562 561
g roof_step_or_fixture_side
f 468 467 361 562
g roof_step_or_fixture_side
f 467 466 362 361
g facade_completed
f 363 362 564 565
g roof_step_or_fixture_side
f 476 475 364 363
g roof_step_or_fixture_side
f 475 479 365 364
g roof_step_or_fixture_side
f 479 478 366 365
g roof_step_or_fixture_side
f 478 477 367 366
g facade_completed
f 368 367 566 567
g facade_completed
f 400 368 567 568
g facade_completed
f 401 400 568 569
g facade_completed
f 402 401 569 570
g facade_completed
f 403 402 570 571
g facade_completed
f 404 403 571 572
g facade_completed
f 405 404 572 535 146
g roof_step_or_fixture_side
f 573 574 494 505
g roof_step_or_fixture_side
f 575 573 505 504
g roof_step_or_fixture_side
f 449 575 504 503
g roof_step_or_fixture_side
f 576 449 503 502
g roof_step_or_fixture_side
f 377 576 502 501
g roof_step_or_fixture_side
f 378 377 501 500
g roof_step_or_fixture_side
f 376 375 496 495
g roof_step_or_fixture_side
f 574 376 495 494
g facade_completed
f 466 474 348 560 564 362
g facade_completed
f 477 476 363 565 566 367
g ground_assumed
f 557 559 558
g ground_assumed
f 557 560 559
g ground_assumed
f 557 564 560
g ground_assumed
f 557 565 564
g ground_assumed
f 557 566 565
g ground_assumed
f 557 567 566
g ground_assumed
f 557 568 567
g ground_assumed
f 557 569 568
g ground_assumed
f 557 570 569
g ground_assumed
f 557 571 570
g ground_assumed
f 557 572 571
g ground_assumed
f 557 535 572
g ground_assumed
f 557 536 535
g ground_assumed
f 557 537 536
g ground_assumed
f 557 538 537
g ground_assumed
f 557 539 538
g ground_assumed
f 557 529 539
g ground_assumed
f 557 530 529
g ground_assumed
f 557 531 530
g ground_assumed
f 557 532 531
g ground_assumed
f 557 533 532
g ground_assumed
f 557 534 533
g ground_assumed
f 557 511 534
g ground_assumed
f 557 512 511
g ground_assumed
f 557 513 512
g ground_assumed
f 513 515 514
g ground_assumed
f 513 516 515
g ground_assumed
f 513 517 516
g ground_assumed
f 513 518 517
g ground_assumed
f 513 519 518
g ground_assumed
f 513 520 519
g ground_assumed
f 513 521 520
g ground_assumed
f 513 522 521
g ground_assumed
f 513 548 522
g ground_assumed
f 513 523 548
g ground_assumed
f 513 524 523
g ground_assumed
f 513 551 524
g ground_assumed
f 513 552 551
g ground_assumed
f 513 553 552
g ground_assumed
f 513 527 553
g ground_assumed
f 513 528 527
g ground_assumed
f 513 555 528
g ground_assumed
f 513 556 555
g ground_assumed
f 513 557 556
