v 0.11603053558397466 0.26600873369292566 0.18798370988157539
v 0.097914298276800094 0.25735259435719615 0.18807740435736883
v 0.093814454985911219 0.2096383193926904 0.18884266231129443
v 0.024677236038767338 0.16874525384355676 0.18932802199177529
v 0.029169563017004518 0.20372261290857999 0.18877090621633047
v 0.017477386377802117 0.18381365560444768 0.18906427982707136
v 0.0088560482530097451 0.16913359580709927 0.18928060168165484
v -0.042429701980425345 0.15658623189277909 0.18935139543807242
v -0.024480232564418877 0.11902019535015172 0.19000891357459512
v 0.008046556181849138 0.13456185614680158 0.1898406898367854
v 0.013003920106441344 0.13277053247454529 0.18988269942787622
v 0.048807469095074163 0.11983306283932725 0.19018610492642568
v 0.064060344038650532 0.15465614242386203 0.18965945515821642
v 0.06629117959807751 0.15974925762085013 0.18958242897544342
v 0.07892388494156144 0.18859035274979455 0.18914624821193188
v 0.14097565642682233 0.20295616671041491 0.18907385493213527
v 0.13910833206002765 0.22609317735027176 0.18869275892505033
v 0.11330136671088933 0.24784800425053463 0.1882719414505771
v 0.029043783573032906 0.15960660569986618 0.18948797571807727
v 0.061178114563633083 0.1606882950071758 0.18955387438834487
v 0.048791304432013863 0.15293317309379117 0.18964780265234568
v 0.15103643745711204 0.19314043647764853 0.1892596133677302
v 0.15987800250571751 0.1746361259290089 0.18958349423454546
v 0.16160355085113975 0.17546061206507341 0.18957456992956614
v 0.19020239347512746 0.18912545660413466 0.18942666095379393
v 0.18307744270339604 0.20403710408856476 0.18916566248628786
v 0.14349640844267669 0.20892079180937556 0.18898340988848944
v 0.32841807277910673 0.23097836574952413 0.18910516651817452
v 0.32123030517625295 0.2942014071068173 0.18805838492531871
v 0.28146995298675614 0.27520346932947481 0.1882640195237337
v 0.27429598296375646 0.24163115772934879 0.18879131977851848
v 0.2393511492128223 0.20460780434725614 0.18930258753671805
v 0.28949674535144387 0.22418498586429855 0.18911451553839728
v 0.30142407870999977 0.21808033564744814 0.18924477543035331
v 0.32966085761282538 0.12737433366326953 0.19079316135635532
v 0.34623044252011959 0.14630590062565432 0.19052835370861429
v 0.32718423276281927 0.18616728022378129 0.18983066018832748
v 0.33136136965973517 0.20508935654940852 0.18953380989613547
v 0.33058580370606638 0.2119111740380549 0.18942086130434421
v 0.3217376616398282 0.20768343350450205 0.18946662256914543
v 0.32900541020384455 0.20396365293952323 0.18954599456129359
v 0.30887129729948948 0.15646732219435661 0.19026604952053386
v 0.30397682240268442 0.16090717764879642 0.19018113401586287
v 0.28908363084010802 0.13221883453926514 0.19060895774670056
v 0.29612447625944482 0.12639759761499361 0.19072191323569182
v 0.2917325941899479 0.11603715689276613 0.19087897981199362
v 0.30266524216427715 0.093156466403407856 0.19127946044443195
v 0.30907442185455303 0.096218843576190982 0.19124631308352058
v 0.30078128811086713 0.11357535466297843 0.19094252219272503
v 0.32706566595376763 0.12613432226532525 0.19080658326274505
v 0.30765859469309265 0.1168614081209479 0.19090695378025682
v 0.047019406947458986 -0.1487663482287174 0.19454931188697236
v 0.069955573631736684 -0.12535977239588619 0.19422827463718076
v 0.058113480707630498 -0.10057572526817232 0.19379447958827287
v 0.098164791860854236 -0.081438764079270781 0.19358734014622409
v 0.099115782900925445 -0.049033076594327936 0.19306284306579027
v 0.13276310894077858 -0.015890833270978587 0.19261131724155472
v 0.1163139340520523 0.018535271026257231 0.19200875729336012
v 0.11288478635655941 0.018301511392984467 0.19200364928975081
v 0.093739711865908307 0.016996417523295837 0.19197513106970673
v 0.093734361027114979 0.009151225523137449 0.19210269245456096
v 0.080941321849950496 0.0030385693590073634 0.19216885612958393
v 0.078844894176467187 -0.011335316654523659 0.1923971515681337
v 0.046994124723458645 0.031784318714992391 0.19161320591956257
v 0.048819761069915195 0.083832305301740129 0.19077156631276679
v 0.05614648570997479 0.10088397824300917 0.19051331472233646
v -0.067072529878911255 0.042008564415100078 0.19115058518776698
v -0.059252462004597641 0.025642122067248571 0.19143704690837957
v -0.13220712165857179 -0.0092164243975961686 0.19181435760670745
v -0.13203635545161324 -0.013822862459331672 0.19188970924785478
v -0.11926620696153377 -0.016310991077538674 0.19196334850235053
v -0.094172478017642336 -0.068829086112835239 0.19288257242767418
v -0.12934713484734958 -0.0676590691127021 0.19277215828815644
v -0.12766830437253729 -0.070583000581605701 0.19282406786930287
v -0.16282180610148378 -0.087379734021623107 0.19300587653822929
v -0.1523158828294825 -0.10936734213807475 0.19339072551784797
v -0.23248602339415841 -0.090228703630752749 0.19287120964898999
v -0.17983457216155532 -0.065071255576576961 0.19259890416263076
v -0.18772222086155443 -0.048563374856643325 0.19230996679509263
v -0.18062575870565156 -0.032351386792991654 0.19206477160423968
v -0.24993576281350896 -0.065468476341493692 0.19242323265808331
v -0.24942191160604374 -0.071457351234233121 0.1925219563123434
v -0.30316850007360063 -0.097138067995439628 0.19279992565392912
v -0.30311849752346398 -0.090879777498348968 0.1926982858276845
v -0.42180755057706376 -0.14759072492466929 0.19331212802751407
v -0.40462077917889905 -0.1835605282765802 0.1939417072640047
v -0.39133681907307372 -0.14987328227329755 0.19342841249038786
v -0.27434332413009876 -0.38077468671467074 0.19748719822771932
v -0.27677368538416691 -0.37568823891550751 0.19739817015558789
v -0.28101095466822545 -0.38395062722578432 0.19752152075506244
v -0.28101893499733366 -0.36685362933479382 0.19724347572342485
v -0.32136133221982688 -0.35099754171709674 0.19688081637977811
v -0.30541375794692471 -0.3141067145841745 0.19632234664814607
v -0.28101916981564234 -0.36635056243695407 0.19723529443498969
v -0.28103665027635494 -0.32890065575243199 0.19662625411953619
v -0.25672053230592862 -0.33658594763634286 0.19681440525650878
v -0.27671368910475658 -0.37557125017685578 0.19739642359644546
v -0.27429483099187113 -0.38075151615354219 0.19748694742044703
v -0.23322112231103498 -0.36112604209930288 0.19727452028929313
v -0.16821284504578929 -0.33190093188013314 0.19696817259750463
v -0.13762385858471848 -0.3153890436630713 0.19677913682745304
v -0.046508954128620029 -0.25617798736131281 0.19605299813474017
v -0.0036790022334902053 -0.25104529625472838 0.19608080957093352
v -0.059335875039346578 -0.24298317481936937 0.19580510372019319
v 0.021546678969214066 -0.204336592426659 0.19538679113856497
v 0.044634137034052924 -0.23129725667256396 0.1958851982164336
v 0.060006469555580692 -0.22395218548053614 0.19580569477440257
v 0.031600343208791432 -0.16450164921385502 0.19476513235094636
v -0.11300201850750007 -0.25142129330518059 0.19580289007729315
v -0.14584769306982057 -0.24069854589224601 0.1955431843421277
v -0.21013993805575149 -0.13699631778753046 0.19368978295882316
v -0.35116072986870006 -0.16370015184843381 0.19375764141920165
v -0.35004592240161148 -0.20301601380555304 0.19439987612193008
v -0.37251846216906159 -0.21375364282320208 0.1945161007493546
v -0.30368976966752315 -0.39479674422788691 0.197638973666316
v -0.074178637589849342 -0.28507421261592791 0.19645100755416722
v -0.093422885620305179 -0.29239801566477441 0.19652010545034096
v -0.13306491011861235 -0.29528186750454755 0.19646400689509014
v -0.39335022698656841 -0.20714841071592313 0.19435456586234887
v 0.40979071351342578 0.078419396142438785 0.1917974328632511
v 0.39348310531157349 0.078514748454302091 0.1917535132404207
v 0.39862168711960488 0.073082711344018322 0.19185519740580811
v 0.16917786405523519 -0.049136021066258598 0.1932465464492979
v 0.16375812980303656 -0.06350447432554969 0.19346611921400042
v 0.21894409601098705 -0.069643233928348813 0.19370932465223084
v 0.18325901950995668 -0.045654144008135021 0.19322651008333261
v 0.21897727745481524 -0.014996971693621354 0.19282077593427999
v 0.20924663650032996 0.0033007738959840733 0.19249794424802916
v 0.16919142175584803 -0.015942290010637454 0.19270679894309831
v 0.13429064355632844 -0.015160960281916346 0.19260341703641254
v 0.23547407159757328 -0.094971990604996503 0.19416415719120353
v 0.25141909175670329 -0.12834296102412604 0.19474824912505093
v 0.25198072954248052 -0.12804811168130983 0.19474491361226451
v 0.25764806082346037 -0.115879146073139 0.19456175130065989
v 0.25907414362864578 -0.11758274788649536 0.19459315971622101
v 0.27934218004739986 -0.088217411321386816 0.19416829143557821
v 0.28902546025849185 -0.032429846294538781 0.19328625537632257
v 0.23776611129736172 -0.092128087974572379 0.19412386580907601
v -0.30964061568366619 0.094485241719681423 0.18966701135431241
v -0.30364194949895151 0.081930769613755394 0.18988675220467438
v -0.27141498758975346 0.074881855545320772 0.19008510806253839
v -0.20725767619972374 0.098761489992028176 0.18986347540875109
v -0.23268312561874407 0.10563325409183218 0.18968567137058395
v -0.22996127431654995 0.13250231510193744 0.18925580951714976
v -0.18251475586628921 0.15517278847529384 0.18901042317532574
v -0.13458754069060966 0.18330919618880254 0.18867740096566657
v -0.13763173545582691 0.18179552602011695 0.18869410647669474
v -0.18452866472252333 0.15938765251870024 0.18893665041074451
v -0.2086144557602812 0.14458826547360798 0.18911473427816833
v -0.25364035717729849 0.12307438983642879 0.18934760153020885
v -0.33811204561568253 0.084802594035572679 0.18975049448073653
v -0.41087806631253943 0.060323917436599664 0.18995950212345478
v -0.46489762929485445 0.027007666267084379 0.19036092816494865
v -0.49135095543985952 0.017371007724098535 0.19044890674300657
v -0.48016842755312694 -0.025448571812350568 0.1911742745616532
v -0.42962761845137742 -0.13122428257681781 0.19302566626211445
v -0.30295726306774085 -0.070699780299268239 0.19237054597747591
v -0.30290228414302567 -0.063818650384111636 0.19225879073564364
v -0.27305258758835149 -0.056410994268114391 0.19221588343366608
v -0.16949890161340961 -0.0069318932853090157 0.19168031916883327
v -0.16721308802500778 -0.0017099134013910341 0.19160134027229744
v -0.1653523675032666 -0.004950633265745576 0.19165887389301589
v -0.078310963109720869 0.065529225892406284 0.19073890314425199
v -0.15007837660277876 0.067282484141863594 0.19052393237948692
v -0.16731082605147476 0.059048628473048988 0.19061305607189089
v -0.1613551179572103 0.067561584534673355 0.19049009552251181
v -0.16135498664168846 0.067557968655186124 0.19049015464136884
v -0.13097732402849552 0.076409179169252814 0.19042514459022436
v -0.091294843063131209 0.069360156626672914 0.19064287253307816
v -0.10768885360890897 0.097752140712756813 0.1901385803073522
v -0.095040223571179888 0.10054151493102871 0.19012608325277905
v -0.14617072266988149 0.089265819801218754 0.19017660103271228
v -0.16201638830488754 0.085771410441142865 0.1901922567809449
v -0.20548970998480098 0.09506135372750367 0.1899282389073895
v -0.28667768235463231 0.046426640482606217 0.19050818078704668
v -0.28527482882634947 0.043490640212546901 0.19055956958480696
v -0.28927859277779444 0.041577597352548339 0.19058027645714248
v -0.30145734725944173 0.018871968816491842 0.19091786421011062
v -0.30289411194635418 0.035071951094314976 0.1906506939130776
v -0.35311676324494612 0.011075010682543364 0.19091043798592611
v -0.37748255005747589 0.062069612189677881 0.19001787975543155
v -0.39467072225904332 0.02223818672801588 0.19062094508027977
v -0.41309031490331294 -0.0079415259767980605 0.19106385885459004
v -0.46677737009959896 -0.046628455511467104 0.19155348454283752
v -0.4579340938735913 -0.0079897546925014815 0.19094813382629452
v -0.13133002493503487 -0.032876213729775519 0.19220138211547821
v -0.13900584664985305 -0.012464930708080073 0.19184951957703353
v -0.14336511333857799 -0.014547836689708897 0.19187206509061003
v -0.15629477368629008 -0.020725771985357008 0.19193893537033568
v -0.17243358111445822 -0.028437073389570831 0.19202240286609232
v -0.1811132086408119 -0.049555162969004862 0.1923432658496167
v -0.1612950380604469 -0.066671361992956868 0.19267309228196972
v -0.14372092022446259 -0.046850916232336073 0.19239643994728561
v -0.14224820150890086 -0.045189954611212294 0.19237325639792319
v -0.20725767619972374 0.098761489992028176 0.19670960490033718
v -0.20548970998480098 0.09506135372750367 0.19674852100765933
v -0.18251475586628921 0.15517278847529384 0.1959980891225522
v -0.22996127431654995 0.13250231510193744 0.19636978688848719
v -0.23268312561874407 0.10563325409183218 0.19668796188985782
v 0.0088560482530097451 0.16913359580709927 0.19539841005417602
v 0.017477386377802117 0.18381365560444768 0.19520826002803024
v 0.0086756333111380288 0.20223464452863169 0.19501451776994008
v -0.04238036017309009 0.17783952396933983 0.19541449226434557
v -0.068169864902162577 0.16551701222322993 0.19561652818148628
v -0.07014275310933793 0.16004714280654939 0.1956845449191684
v -0.095040223571179888 0.10054151493102871 0.19643233943144633
v -0.10768885360890897 0.097752140712756813 0.19649364685065956
v -0.091294843063131209 0.069360156626672914 0.1967857922671454
v -0.13097732402849552 0.076409179169252814 0.19679469171533259
v -0.15007837660277876 0.067282484141863594 0.19694433009682127
v -0.078310963109720869 0.065529225892406284 0.19680058026700289
v -0.075935406827609672 0.065471191687244537 0.1967958220499644
v -0.076307905295761452 0.098361332139591862 0.19641481763232085
v -0.00096167750990382812 0.11702441587366019 0.19602584968069892
v 0.013003920106441344 0.13277053247454529 0.19581110240312827
v 0.008046556181849138 0.13456185614680158 0.19580164065399402
v -0.024480232564418877 0.11902019535015172 0.19605645672223806
v -0.042429701980425345 0.15658623189277909 0.19566135689110467
v -0.091308598184896991 0.10136444198638681 0.19641425237543092
v -0.14617072266988149 0.089265819801218754 0.19668016711334405
v -0.16201638830488754 0.085771410441142865 0.19675697048072782
v -0.1613551179572103 0.067561584534673355 0.19696687538646271
v -0.16731082605147476 0.059048628473048988 0.19707932970877948
v -0.16135498664168846 0.067557968655186124 0.19696691708317171
v 0.3217376616398282 0.20768343350450205 0.19423540132582293
v 0.30142407870999977 0.21808033564744814 0.19416114235342954
v 0.1554706751869486 0.14834217880335618 0.19530454664176986
v 0.16329074306126223 0.13197573645550467 0.19547668028580659
v -0.13900584664985305 -0.012464930708080073 0.19784488280912013
v -0.13203635545161324 -0.013822862459331672 0.19784471185709188
v -0.13220712345005231 -0.009216425248549414 0.19779162137677608
v -0.13281174158542516 0.0070932716852238203 0.19760364750680062
v -0.16377343880508896 -0.0077005710411793236 0.19784620254802954
v -0.15629477368629008 -0.020725771985357008 0.19798032487197889
v -0.14336511333857799 -0.014547836689708897 0.19787903344390773
v 0.20923314656246761 0.06194036385719541 0.19618474137256378
v 0.1887637241309171 0.034305441970396755 0.19655239007902264
v 0.20411036601567381 0.0021868039908239214 0.19689019706441899
v 0.23426503091171297 0.016595037701999306 0.19665396429229337
v 0.23928806683950046 0.050534406864800818 0.19624844073177547
v -0.24993576433626744 -0.065468477058085894 0.19871391182408665
v -0.25117866077922224 -0.050982646756741107 0.19854857263863035
v -0.27305258758835149 -0.056410994268114391 0.19866161353645523
v -0.30290228414302567 -0.063818650384111636 0.19881587187747354
v -0.30295726306774085 -0.070699780299268239 0.19889588786208037
v -0.42962761845137742 -0.13122428257681781 0.19988822806394999
v -0.42180755057706376 -0.14759072492466929 0.20006036166319971
v -0.30311849752346398 -0.090879777498348968 0.19913054731122948
v -0.30316850007360063 -0.097138067995439628 0.19920332069840466
v -0.24942191160604374 -0.071457351234233121 0.19878226795775261
v -0.14224820146411385 -0.045189954208129178 0.19823223600977866
v -0.14372091973180545 -0.046850913724263352 0.19825488739985367
v -0.141030010254072 -0.048882795653565028 0.19827232455152477
v -0.14101478361021008 -0.067270967341909835 0.19848577730527428
v -0.12934713484734958 -0.0676590691127021 0.19846360365826593
v -0.27671368794029427 -0.375571247489635 0.20237545153662612
v -0.25672053230592862 -0.33658594763634286 0.20187711338597039
v -0.28103665027635494 -0.32890065575243199 0.20184348864028837
v -0.28101916981564234 -0.36635056243695407 0.20227824396754002
v -0.13220712165857179 -0.0092164243975961686 0.18808440214898789
v -0.059252462004597641 0.025642122067248571 0.18779346916172848
v -0.067072529878911255 0.042008564415100078 0.1876748498175107
v -0.1653523675032666 -0.004950633265745576 0.18806677608569633
v -0.16721308802500778 -0.0017099134013910341 0.18804342167387966
v -0.16949890161340961 -0.0069318932853090157 0.18808331189873259
v -0.27305258758835149 -0.056410994268114391 0.18849626952116233
v -0.25117866077922224 -0.050982646756741107 0.18844647205075774
v -0.24993576281350896 -0.065468476341493692 0.18855388756540012
v -0.18062575870565156 -0.032351386792991654 0.18827748894914415
v -0.18772222086155443 -0.048563374856643325 0.18840133072778922
v -0.17983457216155532 -0.065071255576576961 0.1885209752019455
v -0.17466196816788943 -0.062599727981297038 0.18850034755783579
v -0.16282180610148378 -0.087379734021623107 0.18867994603246216
v -0.12766830437253729 -0.070583000581605701 0.18853975878558565
v -0.12934713484734958 -0.0676590691127021 0.18851868734696503
v -0.14101478361021008 -0.067270967341909835 0.18852078051280036
v -0.141030010254072 -0.048882795653565028 0.18838376069305082
v -0.14372092022446259 -0.046850916232336073 0.18836976914064393
v -0.1612950380604469 -0.066671361992956868 0.18852497754856712
v -0.17243358111445822 -0.028437073389570831 0.18824481968959556
v -0.15629477368629008 -0.020725771985357008 0.18818046034896166
v -0.16377343880508896 -0.0077005710411793236 0.18808659362231653
v -0.13281174158542516 0.0070932716852238203 0.18796312272492535
v -0.1811132086408119 -0.049555162969004862 0.18840589756992154
v 0.33058580370606638 0.2119111740380549 0.18623884857002038
v 0.32841807277910673 0.23097836574952413 0.1860976885044365
v 0.30142407870999977 0.21808033564744814 0.18620533677718498
v 0.3217376616398282 0.20768343350450205 0.18627413374941898
v 0.11275733098256474 -0.17389402613147725 0.18920689215633588
v 0.13807076181211692 -0.16179898780308219 0.1891059457226251
v 0.13083146142125643 -0.072963093832911649 0.18844704505580087
v 0.067741856967467054 -0.10310800734220407 0.18869863757879082
v 0.063425643720742816 -0.11169343053740936 0.1887644592601832
v 0.069955573631736684 -0.12535977239588619 0.1888635090534713
v 0.047019406947458986 -0.1487663482287174 0.18904773187675458
v 0.10066615441435778 -0.14858867747670065 0.18902348611380698
v 0.0056415932397187712 -0.24992832705288773 0.18981925772834982
v 0.044634137034052924 -0.23129725667256396 0.18966376089206349
v 0.021546678969214066 -0.204336592426659 0.1894727180816024
v -0.059335875039346578 -0.24298317481936937 0.18979526644520958
v -0.0036790022334902053 -0.25104529625472838 0.1898315636767389
v -0.27141498758975346 0.074881855545320772 0.18751719218699953
v -0.30364194949895151 0.081930769613755394 0.18747843426740698
v -0.28667768235463231 0.046426640482606217 0.18773575813965188
v -0.28927859277779444 0.041577597352548339 0.18777300391532761
v -0.30289411194635418 0.035071951094314976 0.18782730068904907
v -0.30145734725944173 0.018871968816491842 0.18794740700688248
v -0.39335022698656841 -0.20714841071592313 0.18967094553510039
v -0.37251846216906159 -0.21375364282320208 0.18971126602878635
v -0.35004592240161148 -0.20301601380555304 0.18962164869392611
v -0.35116072986870006 -0.16370015184843381 0.18932914820600188
v -0.39133681907307372 -0.14987328227329755 0.18924327824529874
v -0.40462077917889905 -0.1835605282765802 0.18949998723664344
v -0.28101916981564234 -0.36635056243695407 0.19080930376027022
v -0.30541375794692471 -0.3141067145841745 0.19043041239389574
v -0.32136133221982688 -0.35099754171709674 0.19071213211036853
v -0.28101893499733366 -0.36685362933479382 0.19081305247803773
v -0.28101095466822545 -0.38395062722578432 0.19094045370453383
v -0.27677368538416691 -0.37568823891550751 0.19087707296013195
v -0.27434332413009876 -0.38077468671467074 0.19091393809098495
v -0.27429483099187113 -0.38075151615354219 0.19091374474545025
v -0.27671368910475658 -0.37557125017685578 0.19087617556275432
v -0.11300201850750007 -0.25142129330518059 0.18988107630174136
v -0.14584769306982057 -0.24069854589224601 0.18981520580250488
v -0.13306491011861235 -0.29528186750454755 0.19021649206373145
v -0.093422885620305179 -0.29239801566477441 0.19017806400048898
v 0.058113480707630498 -0.10057572526817232 0.20418134599172727
v 0.063425643720742816 -0.11169343053740936 0.20435960779795337
v 0.067741856967467054 -0.10310800734220407 0.20425663502063054
v 0.13083146142125643 -0.072963093832911649 0.20409258386487852
v 0.11275733098256474 -0.17389402613147725 0.20543774003112367
v 0.10066615441435778 -0.14858867747670065 0.20503199293862434
v 0.047019406947458986 -0.1487663482287174 0.20481345220106023
v 0.031600343208791432 -0.16450164921385502 0.20497124347601794
v 0.060006469555580692 -0.22395218548053614 0.20592447601651123
v 0.1423236129458367 -0.18462014036332028 0.20571042777463805
v 0.18219727094833976 -0.16466467165670753 0.205594038286219
v 0.23751820044598099 -0.13564066941255803 0.20541374400056006
v 0.25141909175670329 -0.12834296102412604 0.2053683749356309
v 0.23547407159757328 -0.094971990604996503 0.20483330332794014
v 0.23776611013289939 -0.092128090213923028 0.20480274676136453
v 0.25764806082346037 -0.115879146073139 0.20521873238895003
v 0.25198072954248052 -0.12804811168130983 0.20536654189276657
v 0.33191271140390166 -0.089277145900607202 0.20515055786662145
v 0.35685131510935286 -0.084240882934723177 0.20518247524179728
v 0.49771991115758851 -0.0169323036167605 0.20481617637112046
v 0.47305290691602508 0.034692709000842419 0.20398841863333697
v 0.46925859023661698 0.043358098780579217 0.20385090342443765
v 0.41098707701134696 0.015515322740579783 0.20400242612992051
v 0.38629497130616719 0.067192869628585158 0.20317382603799819
v 0.21897727745481524 -0.014996971693621354 0.20364045699892966
v 0.18325901950995668 -0.045654144008135021 0.20392449086035949
v 0.16375812980303656 -0.06350447432554969 0.20409521245945317
v 0.16917786405523519 -0.049136021066258598 0.20391544630225045
v 0.13429064355632844 -0.015160960281916346 0.20329383073409929
v 0.16919142175584803 -0.015942290010637454 0.20344862145834008
v 0.20924663650032996 0.0033007738959840733 0.20334300020100887
v 0.39862168711960488 0.073082711344018322 0.20314177304774725
v 0.39348310531157349 0.078514748454302091 0.20304419723984105
v 0.40979071351342578 0.078419396142438785 0.20311273032699501
v 0.4462729311710667 0.095851004838436338 0.20301786610399838
v 0.45319841124660865 0.080036033266135495 0.20326884379087506
v 0.40051248794282646 0.20035916758187711 0.20135937856225469
v 0.41057466399899423 0.17737788783523606 0.20172407678987717
v 0.38876890521807672 0.16695885418986078 0.20178077804396072
v 0.36919942670895856 0.20791537102294155 0.20112407942020022
v 0.39235852173530705 0.21898104377068178 0.20106385911615132
v 0.31372036506240442 0.3985734022825772 0.1982138223220781
v 0.32123030517625295 0.2942014071068173 0.19971279173600731
v 0.32841807277910673 0.23097836574952413 0.20063166018680953
v 0.33058580370606638 0.2119111740380549 0.20090877812727986
v 0.33136136965973517 0.20508935654940852 0.20100792479487684
v 0.32718423276281927 0.18616728022378129 0.20125685902950255
v 0.34623044252011959 0.14630590062565432 0.2018959981434727
v 0.32966085953866697 0.12737433455900979 0.20209400546880221
v 0.37781671787926452 0.15038373839998134 0.20196878639993615
v 0.33076014588728375 0.05083328453070618 0.20317510981293624
v 0.30907442185455303 0.096218843576190982 0.20244739573704426
v 0.23928806683950046 0.050534406864800818 0.20280242283624711
v 0.23426503091171297 0.016595037701999306 0.20325909486741403
v 0.20411036601567381 0.0021868039908239214 0.20333750568547815
v 0.30266524216427715 0.093156466403407856 0.20246406143241796
v 0.2917325941899479 0.11603715689276613 0.20209719143775254
v 0.29612447625944482 0.12639759761499361 0.20196956421598936
v 0.28908363084010802 0.13221883453926514 0.2018586763642361
v 0.30397682240268442 0.16090717764879642 0.20151652956207586
v 0.3088712960006661 0.15646732250786571 0.20159914417874567
v 0.32900541020384455 0.20396365293952323 0.20101405094165065
v 0.3217376616398282 0.20768343350450205 0.20093178584282959
v 0.16329074306126223 0.13197573645550467 0.20134379344314149
v 0.1554706751869486 0.14834217880335618 0.20108137316712357
v 0.30142407870999977 0.21808033564744814 0.20070185231928267
v 0.28949674535144387 0.22418498586429855 0.20056684442172704
v 0.2393511492128223 0.20460780434725614 0.20063558988889621
v 0.27429598296375646 0.24163115772934879 0.2002588268909492
v 0.28146995298675614 0.27520346932947481 0.19981618009202295
v 0.18307744270339604 0.20403710408856476 0.20041175344535173
v 0.19020239347512746 0.18912545660413466 0.20065084743579703
v 0.14349640844267669 0.20892079180937556 0.20017997774238977
v 0.16573943850608305 0.32786647243153055 0.19859861527314362
v 0.083278022487206962 0.29032191350094394 0.19878692750900165
v 0.046390619321421543 0.27771499656428023 0.19881226141721489
v -0.069650714072899841 0.21985184039468678 0.19914800264642779
v -0.1143731248512561 0.19336044452732953 0.19933634390427019
v -0.13458754069060966 0.18330919618880254 0.19939442889790457
v -0.095040223571179888 0.10054151493102871 0.20072152958297845
v -0.091308598184896991 0.10136444198638681 0.20072533020889394
v -0.07014275310933793 0.16004714280654939 0.19998714801968764
v -0.068169864902162577 0.16551701222322993 0.19991834137345885
v 0.0086756333111380288 0.20223464452863169 0.19971852093548573
v 0.017477386377802117 0.18381365560444768 0.20001388389576599
v 0.029169563017004518 0.20372261290857999 0.19978203295062238
v 0.024677236038767338 0.16874525384355676 0.20025549133337578
v 0.029043783573032906 0.15960660569986618 0.2004020208243634
v 0.048791304432013863 0.15293317309379117 0.2005772501915194
v 0.093814454985911219 0.2096383193926904 0.19996518182612313
v 0.097914298276800094 0.25735259435719615 0.19931095741610377
v 0.11603053558397466 0.26600873369292566 0.19926384998805557
v 0.11330136671088933 0.24784800425053463 0.19950804163631025
v 0.13910833206002765 0.22609317735027176 0.19992036238741639
v 0.14097565642682233 0.20295616671041491 0.20025348595008577
v 0.07892388494156144 0.18859035274979455 0.20019987499989297
v 0.06629118161349308 0.15974925668032286 0.20055348418705413
v 0.061178114563633083 0.1606882950071758 0.20051920904437065
v 0.064060344038650532 0.15465614242386203 0.20061592883809912
v 0.048807469095074163 0.11983306283932725 0.20104288070015655
v 0.013003920106441344 0.13277053247454529 0.20071339021518736
v -0.00096167750990382812 0.11702441587366019 0.20087732232705907
v -0.076307905295761452 0.098361332139591862 0.20082937702357331
v -0.075935406827609672 0.065471191687244537 0.20129352239486237
v -0.078310963109720869 0.065529225892406284 0.20128291817381583
v -0.067072529878911255 0.042008564415100078 0.20166004950015695
v 0.05614648570997479 0.10088397824300917 0.20133964464298762
v 0.048819761069915195 0.083832305301740129 0.20154929381487879
v 0.048586022934408619 0.077168547586193792 0.20164205869143229
v 0.046994124723458645 0.031784318714992391 0.2022738436883087
v 0.078844894176467187 -0.011335316654523659 0.20301156967700151
v 0.080941321849950496 0.0030385693590073634 0.20281803411097588
v 0.093734361027114979 0.009151225523137449 0.20278476851235044
v 0.093739711865908307 0.016996417523295837 0.20267444538004295
v 0.11288478487858798 0.018301510676392262 0.20273497193768608
v 0.1163139340520523 0.018535271026257231 0.20274581308203096
v 0.13276310894077858 -0.015890833270978587 0.20329780275991316
v 0.099115782900925445 -0.049033076594327936 0.20362532279546242
v 0.098164791860854236 -0.081438764079270781 0.20407720104870258
v 0.13807076181211692 -0.16179898780308219 0.20537191781228711
v 0.25907414362864578 -0.11758274788649536 0.20524856998960739
v 0.27634783833327026 -0.11525583446559595 0.20528701368351737
v 0.40779557565568114 0.087641668267709069 0.20297479555335873
v 0.20923314656246761 0.06194036385719541 0.20251815957573721
v 0.15987800250571751 0.1746361259290089 0.20072969958508635
v 0.27934218004739986 -0.088217411321386816 0.20491904694447982
v 0.1887637241309171 0.034305441970396755 0.20282251402151619
v 0.28902546025849185 -0.032429846294538781 0.20417427439111097
v 0.21894409601098705 -0.069643233928348813 0.20440893787109124
v -0.39467072225904332 0.02223818672801588 0.20058832937883786
v -0.4579340938735913 -0.0079897546925014815 0.20075283234597613
v -0.46677737009959896 -0.046628455511467104 0.20125986155084799
v -0.41309031490331294 -0.0079415259767980605 0.20093692300278435
v -0.14224820146411385 -0.045189954208129178 0.20257678031162002
v -0.12934713484734958 -0.0676590691127021 0.2029459717963126
v -0.094172478017642336 -0.068829086112835239 0.20310735799043547
v -0.11926620696153377 -0.016310991077538674 0.20226528050101447
v -0.13203635545161324 -0.013822862459331672 0.20217766756412994
v -0.13133002493503487 -0.032876213729775519 0.20244856947029158
v 0.45319841321723719 0.08003603214646017 0.2064750037567181
v 0.4462729311710667 0.095851004838436338 0.2064750037567181
v 0.41940648849931006 0.083013920231722202 0.2064750037567181
v 0.41502157721486332 0.080918760926444497 0.2064750037567181
v 0.40979071351342578 0.078419396142438785 0.2064750037567181
v 0.39862168711960488 0.073082711344018322 0.2064750037567181
v 0.38629497130616719 0.067192869628585158 0.2064750037567181
v 0.41098707701134696 0.015515322740579783 0.2064750037567181
v 0.46925859023661698 0.043358098780579217 0.2064750037567181
v 0.41057466399899423 0.17737788783523606 0.20336586097036927
v 0.40051248794282646 0.20035916758187711 0.20336586097036927
v 0.39235852173530705 0.21898104377068178 0.20336586097036927
v 0.36919942670895856 0.20791537102294155 0.20336586097036927
v 0.38876890521807672 0.16695885418986078 0.20336586097036927
v -0.16282180610148378 -0.087379734021623107 0.20717609970158865
v -0.17466196816788943 -0.062599727981297038 0.20717609970158865
v -0.17983457216155532 -0.065071255576576961 0.20717609970158865
v -0.23248602339415841 -0.090228703630752749 0.20717609970158865
v -0.21013993805575149 -0.13699631778753046 0.20717609970158865
v -0.1523158828294825 -0.10936734213807475 0.20717609970158865
v -0.30964061568366619 0.094485241719681423 0.20531151477722559
v -0.37748255005747589 0.062069612189677881 0.20531151477722559
v -0.35311676324494612 0.011075010682543364 0.20531151477722559
v -0.30289411194635418 0.035071951094314976 0.20531151477722559
v -0.28927859277779444 0.041577597352548339 0.20531151477722559
v -0.28527482882634947 0.043490640212546901 0.20531151477722559
v -0.28667768145889205 0.046426638556764661 0.20531151477722559
v -0.30364194949895151 0.081930769613755394 0.20531151477722559
v 0.38981873904586239 0.12526498108487874 0.20136165741504555
v 0.37781671787926452 0.15038373839998134 0.20136165741504555
v 0.32966085953866697 0.12737433455900979 0.20136165741504555
v 0.32706566595376763 0.12613432226532525 0.20136165741504555
v 0.30765859469309265 0.1168614081209479 0.20136165741504555
v 0.30078128811086713 0.11357535466297843 0.20136165741504555
v 0.30907442185455303 0.096218843576190982 0.20136165741504555
v 0.33076014588728375 0.05083328453070618 0.20136165741504555
v 0.4042353747110855 0.085940564718719817 0.20136165741504555
v 0.40779557565568114 0.087641668267709069 0.20136165741504555
v 0.39735607667433093 0.10949025848140426 0.20136165741504555
v 0.39612485033854283 0.11206706404156147 0.20136165741504555
v 0.06629117959807751 0.15974925762085013 -0.19037751087438873
v 0.16160355085113975 0.17546061206507341 0.20072521268777205
v 0.15103643678530684 0.19314043782125892 0.20043300062821101
v 0.32966085761282538 0.12737433366326953 -0.19037751087438873
v 0.048586022620899533 0.077168547407045734 0.19087932229828133
v -0.42180755057706376 -0.14759072492466929 -0.19037751087438873
v -0.40462077917889905 -0.1835605282765802 -0.19037751087438873
v -0.39335022698656841 -0.20714841071592313 -0.19037751087438873
v -0.30368976966752315 -0.39479674422788691 -0.19037751087438873
v -0.27434332413009876 -0.38077468671467074 -0.19037751087438873
v -0.27429483099187113 -0.38075151615354219 -0.19037751087438873
v -0.23322112231103498 -0.36112604209930288 -0.19037751087438873
v -0.16821284504578929 -0.33190093188013314 -0.19037751087438873
v -0.13762385858471848 -0.3153890436630713 -0.19037751087438873
v -0.074178637589849342 -0.28507421261592791 -0.19037751087438873
v -0.046508954128620029 -0.25617798736131281 -0.19037751087438873
v -0.0036790026365733216 -0.25104529607558035 -0.19037751087438873
v 0.044634137034052924 -0.23129725667256396 -0.19037751087438873
v 0.060006469555580692 -0.22395218548053614 -0.19037751087438873
v 0.063425643183298658 -0.11169342932816001 0.19398907271003429
v 0.11288478635655941 0.018301511392984467 -0.19037751087438873
v 0.2514190915327682 -0.1283429604866819 -0.19037751087438873
v 0.25198073093087792 -0.12804811168130983 -0.19037751087438873
v -0.33811204561568253 0.084802594035572679 -0.19037751087438873
v -0.41087806631253943 0.060323917436599664 -0.19037751087438873
v -0.46489762929485445 0.027007666267084379 -0.19037751087438873
v -0.49135095543985952 0.017371007724098535 -0.19037751087438873
v -0.48016842755312694 -0.025448571812350568 -0.19037751087438873
v -0.42962761845137742 -0.13122428257681781 -0.19037751087438873
v -0.13458754163113693 0.18330919815943111 -0.19037751087438873
v -0.13763173545582691 0.18179552602011695 -0.19037751087438873
v -0.18452866472252333 0.15938765251870024 -0.19037751087438873
v -0.2086144557602812 0.14458826547360798 -0.19037751087438873
v -0.25364035717729849 0.12307438983642879 -0.19037751087438873
v -0.14224820150890086 -0.045189954611212294 -0.19037751087438873
v -0.13203635531725219 -0.013822864877830368 -0.19037751087438873
v -0.042380360531386191 0.17783952379019177 0.19985128124158547
v -0.13220712345005231 -0.009216425248549414 -0.19037751087438873
v -0.13900584866526863 -0.012464931648607343 -0.19037751087438873
v -0.24993576433626744 -0.065468477058085894 -0.19037751087438873
v -0.14372091973180545 -0.046850913724263352 -0.19037751087438873
v -0.27671368794029427 -0.375571247489635 -0.19037751087438873
v 0.0056415932397187712 -0.24992832705288773 -0.19037751087438873
v 0.093734359638717582 0.0091512248513322542 -0.19037751087438873
v 0.063425643183298658 -0.11169342932816001 -0.19037751087438873
v 0.1423236129458367 -0.18462014036332028 -0.19037751087438873
v 0.18219727094833976 -0.16466467165670753 -0.19037751087438873
v 0.23751820044598099 -0.13564066941255803 -0.19037751087438873
v 0.23776611013289939 -0.092128090213923028 -0.19037751087438873
v 0.27634783833327026 -0.11525583446559595 -0.19037751087438873
v 0.33191271140390166 -0.089277145900607202 -0.19037751087438873
v 0.35685131510935286 -0.084240882934723177 -0.19037751087438873
v 0.49771991115758851 -0.0169323036167605 -0.19037751087438873
v 0.47305290691602508 0.034692709000842419 -0.19037751087438873
v 0.46925859077406118 0.043358099049301296 -0.19037751087438873
v 0.41502157721486332 0.080918760926444497 0.20309912860074844
v 0.41940648657346857 0.083013919291194935 0.20308772658864094
v 0.41940648657346857 0.083013919291194935 -0.19037751087438873
v 0.45319841124660865 0.080036033266135495 -0.19037751087438873
v 0.40051249000302891 0.20035916699964593 -0.19037751087438873
v 0.39235852052605769 0.21898104318845063 -0.19037751087438873
v 0.31372036506240442 0.3985734022825772 -0.19037751087438873
v 0.16573943850608305 0.32786647243153055 -0.19037751087438873
v 0.083278022487206962 0.29032191350094394 -0.19037751087438873
v 0.046390619321421543 0.27771499656428023 -0.19037751087438873
v -0.069650714072899841 0.21985184039468678 -0.19037751087438873
v -0.1143731248512561 0.19336044452732953 -0.19037751087438873
v 0.39612485033854283 0.11206706404156147 0.20258315766874921
v 0.38981873989681559 0.12526497929339825 0.20237154167518612
v 0.39735607658475691 0.10949025861576531 0.20262447427038929
v 0.40423537336747517 0.085940564091701629 0.20298405307371412
v 0.3088712960006661 0.15646732250786571 -0.19037751087438873
v 0.41502157721486332 0.080918760926444497 -0.19037751087438873
v -0.28667768145889205 0.046426638556764661 -0.19037751087438873
v 0.38981873989681559 0.12526497929339825 -0.19037751087438873
v 0.39612485033854283 0.11206706404156147 -0.19037751087438873
l 1 2
l 2 3
l 4 5
l 5 6
l 6 7
l 7 8
l 8 9
l 9 10
l 10 11
l 11 12
l 12 13
l 15 16
l 16 17
l 1 18
l 4 19
l 14 20
l 14 15
l 17 18
l 19 21
l 13 20
l 3 21
l 22 23
l 23 24
l 24 25
l 25 26
l 26 27
l 22 27
l 28 29
l 29 30
l 30 31
l 31 32
l 32 33
l 33 34
l 28 34
l 35 36
l 36 37
l 37 38
l 38 39
l 39 40
l 40 41
l 42 43
l 43 44
l 44 45
l 45 46
l 46 47
l 47 48
l 48 49
l 35 50
l 41 42
l 49 51
l 50 51
l 52 53
l 53 525
l 54 525
l 54 55
l 55 56
l 56 57
l 57 58
l 58 59
l 59 60
l 60 61
l 61 62
l 62 63
l 63 64
l 65 66
l 66 67
l 67 68
l 68 69
l 69 70
l 70 71
l 71 72
l 72 73
l 73 74
l 74 75
l 75 76
l 77 78
l 78 79
l 79 80
l 80 81
l 81 82
l 82 83
l 83 84
l 84 85
l 85 86
l 86 87
l 88 89
l 89 90
l 90 91
l 91 92
l 93 94
l 94 95
l 95 96
l 96 97
l 97 98
l 98 99
l 99 100
l 100 101
l 102 103
l 103 104
l 105 106
l 106 107
l 107 108
l 109 110
l 52 108
l 64 510
l 65 510
l 76 111
l 77 111
l 87 112
l 112 113
l 113 114
l 88 115
l 102 116
l 104 105
l 109 117
l 110 118
l 114 119
l 115 119
l 92 93
l 101 116
l 117 118
l 120 121
l 121 122
l 120 122
l 123 124
l 124 125
l 125 126
l 126 127
l 127 128
l 128 129
l 129 130
l 123 130
l 131 132
l 132 133
l 133 134
l 134 135
l 135 136
l 136 137
l 125 137
l 125 138
l 131 138
l 139 140
l 140 141
l 142 143
l 143 144
l 144 145
l 146 147
l 147 148
l 148 149
l 149 150
l 150 151
l 151 152
l 152 153
l 153 154
l 154 155
l 156 157
l 157 158
l 158 159
l 159 160
l 160 161
l 161 162
l 67 162
l 67 163
l 163 164
l 164 165
l 166 167
l 164 167
l 164 168
l 168 169
l 169 170
l 170 171
l 146 171
l 172 173
l 145 174
l 142 174
l 141 175
l 175 176
l 176 177
l 177 178
l 178 179
l 179 180
l 166 172
l 166 173
l 139 181
l 180 181
l 182 183
l 183 184
l 182 185
l 184 185
l 155 156
l 165 166
l 70 186
l 70 187
l 187 188
l 188 189
l 189 190
l 190 191
l 191 192
l 192 193
l 193 194
l 186 194
l 195 196
l 196 197
l 197 198
l 198 199
l 195 199
l 200 201
l 201 202
l 202 203
l 203 204
l 204 205
l 206 207
l 207 208
l 208 209
l 209 210
l 210 211
l 211 212
l 212 213
l 213 214
l 214 215
l 215 216
l 216 217
l 200 218
l 205 219
l 206 219
l 217 218
l 220 221
l 221 222
l 220 222
l 210 223
l 210 224
l 222 224
l 222 223
l 225 226
l 226 227
l 227 228
l 225 228
l 229 230
l 230 231
l 231 232
l 232 233
l 233 234
l 234 235
l 229 235
l 236 237
l 237 238
l 238 239
l 239 240
l 236 240
l 241 242
l 242 243
l 243 244
l 244 245
l 245 246
l 246 247
l 247 248
l 248 249
l 249 250
l 241 250
l 251 252
l 252 253
l 253 254
l 254 255
l 251 255
l 256 257
l 257 258
l 258 259
l 256 259
l 260 261
l 261 262
l 263 264
l 264 265
l 265 266
l 266 267
l 267 268
l 268 269
l 270 271
l 271 272
l 273 274
l 274 275
l 275 276
l 276 277
l 277 278
l 278 279
l 280 281
l 281 282
l 260 283
l 262 263
l 272 273
l 279 284
l 282 283
l 269 270
l 280 284
l 285 286
l 286 287
l 287 288
l 285 288
l 289 290
l 290 291
l 291 292
l 292 293
l 293 294
l 294 295
l 295 296
l 289 296
l 297 298
l 298 299
l 299 300
l 300 301
l 297 301
l 302 303
l 303 304
l 302 304
l 305 306
l 306 307
l 305 307
l 308 309
l 309 310
l 310 311
l 311 312
l 312 313
l 308 313
l 314 315
l 315 316
l 316 317
l 317 318
l 318 319
l 319 320
l 320 321
l 321 322
l 314 322
l 323 324
l 324 325
l 325 326
l 323 326
l 327 328
l 328 329
l 329 330
l 331 332
l 332 333
l 333 334
l 334 335
l 335 336
l 336 337
l 337 338
l 338 339
l 344 345
l 345 346
l 346 347
l 347 348
l 348 349
l 351 352
l 353 354
l 354 355
l 355 356
l 356 357
l 351 357
l 350 358
l 359 360
l 360 561
l 561 562
l 361 562
l 361 362
l 362 363
l 363 364
l 364 365
l 366 367
l 367 368
l 369 370
l 370 371
l 371 372
l 372 373
l 373 374
l 374 375
l 375 376
l 377 378
l 379 380
l 380 381
l 378 382
l 382 383
l 383 384
l 384 385
l 385 386
l 386 387
l 387 388
l 388 389
l 389 390
l 391 392
l 392 393
l 393 394
l 394 395
l 397 398
l 397 399
l 369 396
l 368 400
l 400 401
l 401 402
l 402 403
l 403 404
l 404 405
l 405 406
l 406 407
l 407 408
l 408 409
l 409 542
l 410 542
l 410 411
l 411 412
l 412 413
l 413 414
l 414 415
l 415 416
l 416 417
l 418 419
l 419 420
l 421 422
l 422 423
l 423 424
l 424 425
l 426 427
l 427 428
l 428 429
l 429 430
l 430 431
l 431 432
l 432 433
l 433 434
l 434 435
l 435 436
l 436 437
l 437 438
l 438 439
l 439 440
l 440 441
l 441 442
l 443 444
l 444 445
l 327 445
l 331 446
l 339 340
l 340 341
l 342 447
l 342 343
l 343 448
l 344 448
l 349 350
l 365 366
l 376 574
l 573 574
l 573 575
l 449 575
l 379 450
l 395 396
l 398 507
l 451 507
l 451 508
l 399 508
l 417 418
l 425 426
l 330 446
l 447 452
l 450 453
l 390 391
l 442 443
l 452 454
l 449 576
l 377 576
l 420 421
l 454 455
l 352 455
l 358 359
l 381 453
l 353 455
l 341 455
l 456 457
l 457 458
l 458 459
l 456 459
l 460 461
l 461 462
l 462 463
l 463 464
l 464 465
l 460 465
l 466 467
l 467 468
l 468 469
l 469 470
l 470 471
l 471 472
l 472 473
l 473 474
l 466 474
l 475 476
l 476 477
l 477 478
l 478 479
l 475 479
l 480 481
l 481 482
l 482 483
l 483 484
l 484 485
l 480 485
l 486 487
l 487 488
l 488 489
l 489 490
l 490 491
l 491 492
l 492 493
l 486 493
l 494 495
l 495 496
l 496 497
l 497 498
l 498 499
l 499 500
l 500 501
l 501 502
l 502 503
l 503 504
l 504 505
l 494 505
l 21 415
l 3 416
l 19 414
l 4 413
l 5 412
l 201 411
l 7 200
l 8 218
l 9 217
l 10 216
l 12 426
l 215 427
l 13 425
l 20 424
l 14 423
l 15 422
l 16 421
l 17 420
l 18 419
l 1 418
l 2 417
l 23 451
l 25 398
l 26 397
l 27 399
l 31 395
l 30 396
l 32 394
l 33 393
l 226 392
l 34 287
l 28 286
l 29 369
l 35 496
l 36 374
l 375 496
l 37 373
l 38 372
l 39 285
l 40 288
l 41 388
l 225 389
l 42 387
l 43 386
l 44 385
l 45 384
l 46 383
l 47 382
l 378 500
l 48 500
l 49 499
l 60 440
l 61 439
l 62 438
l 63 437
l 64 436
l 65 434
l 66 433
l 67 432
l 67 262
l 68 261
l 69 260
l 70 230
l 71 463
l 230 464
l 72 462
l 255 461
l 73 275
l 74 274
l 75 273
l 76 485
l 111 484
l 77 483
l 78 271
l 79 270
l 80 269
l 81 268
l 82 250
l 83 249
l 84 248
l 85 247
l 511 512
l 86 313
l 87 312
l 112 311
l 113 310
l 114 309
l 119 308
l 513 514
l 115 514
l 514 515
l 88 320
l 89 319
l 90 318
l 91 317
l 92 316
l 93 315
l 95 258
l 94 259
l 96 257
l 97 256
l 98 321
l 516 517
l 517 518
l 518 519
l 519 520
l 116 520
l 520 521
l 102 521
l 521 522
l 103 301
l 104 300
l 105 299
l 106 298
l 523 524
l 108 334
l 107 335
l 52 333
l 52 295
l 53 294
l 293 525
l 54 327
l 328 525
l 55 445
l 56 444
l 57 443
l 58 442
l 118 325
l 110 324
l 109 323
l 117 326
l 120 360
l 122 358
l 121 359
l 125 455
l 124 353
l 126 352
l 127 351
l 128 357
l 129 356
l 130 355
l 123 354
l 134 342
l 133 343
l 135 447
l 136 452
l 137 454
l 138 341
l 131 340
l 132 339
l 527 528
l 529 530
l 152 530
l 530 531
l 153 531
l 531 532
l 154 532
l 532 533
l 155 533
l 533 534
l 157 245
l 156 246
l 158 244
l 159 266
l 160 265
l 161 264
l 162 263
l 211 431
l 163 211
l 164 210
l 168 209
l 169 208
l 170 207
l 171 206
l 146 405
l 206 406
l 535 536
l 536 537
l 537 538
l 538 539
l 529 539
l 167 224
l 165 223
l 166 222
l 172 220
l 173 221
l 144 198
l 143 199
l 145 197
l 174 196
l 142 195
l 185 457
l 184 458
l 182 456
l 183 459
l 181 487
l 180 488
l 139 486
l 140 303
l 141 302
l 175 304
l 176 491
l 177 305
l 178 307
l 179 306
l 187 229
l 189 234
l 189 281
l 190 280
l 191 284
l 192 279
l 193 278
l 193 252
l 186 465
l 251 460
l 202 410
l 204 409
l 219 407
l 212 430
l 213 429
l 214 428
l 228 390
l 227 391
l 232 283
l 233 282
l 239 380
l 238 381
l 240 379
l 236 450
l 237 453
l 242 267
l 511 534
l 253 277
l 254 276
l 272 481
l 292 329
l 291 330
l 296 332
l 289 331
l 290 446
l 522 548
l 297 548
l 523 548
l 512 513
l 515 516
l 524 551
l 551 552
l 552 553
l 527 553
l 528 555
l 555 556
l 344 556
l 556 557
l 345 557
l 557 558
l 346 558
l 558 559
l 559 560
l 349 473
l 348 474
l 350 472
l 361 467
l 564 565
l 364 475
l 365 479
l 366 478
l 367 477
l 566 567
l 368 567
l 567 568
l 568 569
l 569 570
l 570 571
l 571 572
l 535 572
l 449 503
l 377 501
l 376 495
l 560 564
l 565 566
