v 2685636.1808019355 1246513.7891173949 521.74218992782983
v 2685644.2202471066 1246519.5775179139 519.26414860713032
v 2685640.4384701541 1246524.8299858894 525.61681472096689
v 2685632.328362802 1246518.8649346947 528.03483608328406
v 2685632.2552060108 1246518.776360536 528.03403620390952
v 2685624.2845218247 1246512.8657752401 525.51993418763016
v 2685627.9082212858 1246507.8328593222 519.30275317574274
v 2685636.8442539475 1246529.821952841 519.62568597130269
v 2685628.8595681442 1246524.0729790682 521.89177354687183
v 2685620.5322281369 1246518.0772942598 519.14877201149022
v 2685636.1808019355 1246513.7891173949 513.845052485118
v 2685644.2202471066 1246519.5775179139 513.845052485118
v 2685640.4384701541 1246524.8299858894 513.845052485118
v 2685636.8442539475 1246529.821952841 513.845052485118
v 2685628.8595681442 1246524.0729790682 513.845052485118
v 2685620.5322281369 1246518.0772942598 513.845052485118
v 2685624.2845218247 1246512.8657752401 513.845052485118
v 2685627.9082212858 1246507.8328593222 513.845052485118
l 1 2
l 2 3
l 3 4
l 4 5
l 1 5
l 6 7
l 1 7
l 5 6
l 3 8
l 8 9
l 4 9
l 6 10
l 9 10
l 11 12
l 2 12
l 12 13
l 17 18
l 7 18
l 11 18
l 13 14
l 8 14
l 14 15
l 10 16
l 16 17
l 15 16
