# XYZ-only planar convex-roof baseline. Provisional base; no GT.
v 4.81448022 4.72061309 1.62396319
v -3.61208445 10.26471420 1.69909526
v -11.05445906 -1.04706561 0.80361401
v -0.87278847 -7.74590593 0.71283324
v 4.12964199 -11.03716178 -0.35904033
v 11.57201660 0.27461803 0.17602209
v 4.81448022 4.72061309 -2.09703967
v -3.61208445 10.26471420 -2.09703967
v -11.05445906 -1.04706561 -2.09703967
v -0.87278847 -7.74590593 -2.09703967
v 4.12964199 -11.03716178 -2.09703967
v 11.57201660 0.27461803 -2.09703967
g roof
f 1 2 3 4
g roof
f 5 6 1 4
g wall
f 2 1 7 8
g wall
f 3 2 8 9
g wall
f 4 3 9 10
g wall
f 6 5 11 12
g wall
f 1 6 12 7
g wall
f 5 4 10 11
g ground_assumed
f 12 11 10 9 8 7
