# Source coordinates; no display transform
v 0.221074949488 0.216898358881 0.0739686057537
v -0.16618627579 0.471689661507 0.0774214644957
v -0.508216892455 -0.0481679413069 0.0362676634309
v -0.0402959326716 -0.356027812068 0.0320956344252
v 0.189601709508 -0.50728467926 -0.0171646618305
v 0.531632326174 0.0125729235534 0.00742530293978
v 0.221074949488 0.216898358881 -0.0970382260052
v -0.16618627579 0.471689661507 -0.0970382260052
v -0.508216892455 -0.0481679413069 -0.0970382260052
v -0.0402959326716 -0.356027812068 -0.0970382260052
v 0.189601709508 -0.50728467926 -0.0970382260052
v 0.531632326174 0.0125729235534 -0.0970382260052
g roof
f 1 2 3 4
g roof
f 5 6 1 4
g wall
f 2 1 7 8
g wall
f 3 2 8 9
g wall
f 4 3 9 10
g wall
f 6 5 11 12
g wall
f 1 6 12 7
g wall
f 5 4 10 11
g ground_assumed
f 12 11 10 9 8 7
