v 0.2210749494884954 0.21689835888137798 0.07396860575370659
v -0.16618627578989861 0.47168966150671043 0.077421464495714215
v -0.50821689245511315 -0.048167941306892531 0.036267663430917071
v -0.040295932671582636 -0.35602781206814182 0.032095634425185128
v 0.18960170950833077 -0.50728467926022403 -0.017164661830480647
v 0.53163232617354528 0.012572923553378912 0.0074253029397799604
v 0.2210749494884954 0.21689835888137798 -0.097038226005172978
v -0.16618627578989861 0.47168966150671043 -0.097038226005172978
v -0.50821689245511315 -0.048167941306892531 -0.097038226005172978
v -0.040295932671582636 -0.35602781206814182 -0.097038226005172978
v 0.18960170950833077 -0.50728467926022403 -0.097038226005172978
v 0.53163232617354528 0.012572923553378912 -0.097038226005172978
l 1 2
l 2 3
l 3 4
l 5 6
l 1 6
l 4 5
l 7 8
l 2 8
l 8 9
l 3 9
l 9 10
l 5 11
l 11 12
l 6 12
l 7 12
l 10 11
