# XYZ-only planar convex-roof baseline. Provisional base; no GT.
v 10.84988374 -1.49036865 5.01220840
v 11.08834273 -0.89422119 5.01399038
v 11.56526069 0.29807373 5.01755433
v 11.56526069 0.53653271 5.01830460
v 10.84988374 1.01345068 5.02008616
v 6.55762204 3.27881102 5.02889992
v 5.60378611 3.75572899 5.03077516
v 3.93457323 4.59033543 5.03405685
v 2.74227831 5.18648289 5.03640091
v 1.54998339 5.78263035 5.03874497
v -7.51145798 7.21338425 5.04680642
v -7.98837594 6.49800730 5.04474299
v -8.70375289 5.18648289 5.04089758
v -11.08834273 0.65576220 5.02757939
v -11.56526069 -0.29807373 5.02476570
v -10.84988374 -0.77499170 5.02298413
v -8.70375289 -1.96728661 5.01838969
v -3.69611424 -4.47110594 5.00854463
v -1.78844238 -5.42494187 5.00479414
v -1.54998339 -5.54417136 5.00432532
v 7.74991696 -7.21338425 4.99541994
v 10.84988374 -1.49036865 -6.11703251
v 11.08834273 -0.89422119 -6.11703251
v 11.56526069 0.29807373 -6.11703251
v 11.56526069 0.53653271 -6.11703251
v 10.84988374 1.01345068 -6.11703251
v 6.55762204 3.27881102 -6.11703251
v 5.60378611 3.75572899 -6.11703251
v 3.93457323 4.59033543 -6.11703251
v 2.74227831 5.18648289 -6.11703251
v 1.54998339 5.78263035 -6.11703251
v -7.51145798 7.21338425 -6.11703251
v -7.98837594 6.49800730 -6.11703251
v -8.70375289 5.18648289 -6.11703251
v -11.08834273 0.65576220 -6.11703251
v -11.56526069 -0.29807373 -6.11703251
v -10.84988374 -0.77499170 -6.11703251
v -8.70375289 -1.96728661 -6.11703251
v -3.69611424 -4.47110594 -6.11703251
v -1.78844238 -5.42494187 -6.11703251
v -1.54998339 -5.54417136 -6.11703251
v 7.74991696 -7.21338425 -6.11703251
g roof
f 1 2 3 4 5 6 7 8 9 10 11 12 13 14 15 16 17 18 19 20 21
g wall
f 2 1 22 23
g wall
f 3 2 23 24
g wall
f 4 3 24 25
g wall
f 5 4 25 26
g wall
f 6 5 26 27
g wall
f 7 6 27 28
g wall
f 8 7 28 29
g wall
f 9 8 29 30
g wall
f 10 9 30 31
g wall
f 11 10 31 32
g wall
f 12 11 32 33
g wall
f 13 12 33 34
g wall
f 14 13 34 35
g wall
f 15 14 35 36
g wall
f 16 15 36 37
g wall
f 17 16 37 38
g wall
f 18 17 38 39
g wall
f 19 18 39 40
g wall
f 20 19 40 41
g wall
f 21 20 41 42
g wall
f 1 21 42 22
g ground_assumed
f 42 41 40 39 38 37 36 35 34 33 32 31 30 29 28 27 26 25 24 23 22
