v 2678469.9999999977 1248934.1249999958 425.43978847665318
v 2678470.2500000047 1248934.7499999974 425.44165670150994
v 2678470.7499999977 1248936.0000000009 425.4453931407395
v 2678470.7499999977 1248936.2499999974 425.44617972255486
v 2678469.9999999977 1248936.7500000009 425.44804750708431
v 2678465.4999999981 1248939.1249999991 425.45728783835267
v 2678464.5000000014 1248939.6250000026 425.45925383683772
v 2678462.7500000051 1248940.5000000007 425.4626943551545
v 2678461.5000000019 1248941.1250000023 425.46515186374484
v 2678460.2499999981 1248941.7500000042 425.46760937233512
v 2678450.7499999949 1248943.250000004 425.4760609830555
v 2678450.2500000019 1248942.5000000042 425.47389768648867
v 2678449.5000000023 1248941.1250000023 425.46986616506507
v 2678446.9999999953 1248936.3749999956 425.45590339690546
v 2678446.5000000023 1248935.3749999991 425.45295352900723
v 2678447.2500000023 1248934.8749999956 425.45108573399381
v 2678449.5000000023 1248933.6250000028 425.44626893076878
v 2678454.7500000019 1248930.9999999977 425.4359473863023
v 2678456.7499999949 1248930.0000000012 425.43201537884823
v 2678457.0000000019 1248929.8750000028 425.431523868743
v 2678466.7500000014 1248928.124999996 425.4221874832196
v 2678469.9999999977 1248934.1249999958 413.771910888251
v 2678470.2500000047 1248934.7499999974 413.771910888251
v 2678470.7499999977 1248936.0000000009 413.771910888251
v 2678470.7499999977 1248936.2499999974 413.771910888251
v 2678469.9999999977 1248936.7500000009 413.771910888251
v 2678465.4999999981 1248939.1249999991 413.771910888251
v 2678464.5000000014 1248939.6250000026 413.771910888251
v 2678462.7500000051 1248940.5000000007 413.771910888251
v 2678461.5000000019 1248941.1250000023 413.771910888251
v 2678460.2499999981 1248941.7500000042 413.771910888251
v 2678450.7499999949 1248943.250000004 413.771910888251
v 2678450.2500000019 1248942.5000000042 413.771910888251
v 2678449.5000000023 1248941.1250000023 413.771910888251
v 2678446.9999999953 1248936.3749999956 413.771910888251
v 2678446.5000000023 1248935.3749999991 413.771910888251
v 2678447.2500000023 1248934.8749999956 413.771910888251
v 2678449.5000000023 1248933.6250000028 413.771910888251
v 2678454.7500000019 1248930.9999999977 413.771910888251
v 2678456.7499999949 1248930.0000000012 413.771910888251
v 2678457.0000000019 1248929.8750000028 413.771910888251
v 2678466.7500000014 1248928.124999996 413.771910888251
l 1 2
l 2 3
l 3 4
l 4 5
l 5 6
l 6 7
l 7 8
l 8 9
l 9 10
l 10 11
l 11 12
l 12 13
l 13 14
l 14 15
l 15 16
l 16 17
l 17 18
l 18 19
l 19 20
l 20 21
l 1 21
l 22 23
l 23 24
l 3 24
l 24 25
l 4 25
l 25 26
l 26 27
l 27 28
l 28 29
l 29 30
l 30 31
l 10 31
l 31 32
l 11 32
l 32 33
l 33 34
l 34 35
l 35 36
l 15 36
l 36 37
l 37 38
l 38 39
l 39 40
l 40 41
l 20 41
l 41 42
l 21 42
l 22 42
