# Source coordinates; no display transform
v 0.434710927168 -0.0391764009253 0.119999116949
v 0.45961851266 -0.0274804079508 0.119904201592
v 0.49169747165 -0.00787372485844 0.11978704308
v 0.486041697303 0.0170560401797 0.119839469924
v 0.417078219719 0.125380748372 0.120259754784
v 0.353578293752 0.216959928982 0.120637605709
v 0.331332249036 0.243043028435 0.120763263494
v -0.0758095520681 0.281768445792 0.122572082467
v -0.0949652522418 0.274049978011 0.122646508238
v -0.151648676658 0.237963921493 0.122851914147
v -0.393560550089 0.0763344671281 0.123720008539
v -0.462546207219 0.0285819903629 0.123965702558
v -0.498942776985 3.69656521111e-05 0.124091579441
v -0.498935383803 -0.00470944849716 0.1240862351
v -0.489974863031 -0.0303785301559 0.124018650446
v -0.474323525194 -0.0546281236361 0.123923640854
v -0.333816353858 -0.251663462961 0.12309383599
v -0.317558775497 -0.267543989438 0.123005565034
v -0.280452461838 -0.259995564055 0.122853110547
v 0.434710927168 -0.0391764009253 -0.122283749798
v 0.45961851266 -0.0274804079508 -0.122283749798
v 0.49169747165 -0.00787372485844 -0.122283749798
v 0.486041697303 0.0170560401797 -0.122283749798
v 0.417078219719 0.125380748372 -0.122283749798
v 0.353578293752 0.216959928982 -0.122283749798
v 0.331332249036 0.243043028435 -0.122283749798
v -0.0758095520681 0.281768445792 -0.122283749798
v -0.0949652522418 0.274049978011 -0.122283749798
v -0.151648676658 0.237963921493 -0.122283749798
v -0.393560550089 0.0763344671281 -0.122283749798
v -0.462546207219 0.0285819903629 -0.122283749798
v -0.498942776985 3.69656521111e-05 -0.122283749798
v -0.498935383803 -0.00470944849716 -0.122283749798
v -0.489974863031 -0.0303785301559 -0.122283749798
v -0.474323525194 -0.0546281236361 -0.122283749798
v -0.333816353858 -0.251663462961 -0.122283749798
v -0.317558775497 -0.267543989438 -0.122283749798
v -0.280452461838 -0.259995564055 -0.122283749798
g roof
f 1 2 3 4 5 6 7 8 9 10 11 12 13 14 15 16 17 18 19
g wall
f 2 1 20 21
g wall
f 3 2 21 22
g wall
f 4 3 22 23
g wall
f 5 4 23 24
g wall
f 6 5 24 25
g wall
f 7 6 25 26
g wall
f 8 7 26 27
g wall
f 9 8 27 28
g wall
f 10 9 28 29
g wall
f 11 10 29 30
g wall
f 12 11 30 31
g wall
f 13 12 31 32
g wall
f 14 13 32 33
g wall
f 15 14 33 34
g wall
f 16 15 34 35
g wall
f 17 16 35 36
g wall
f 18 17 36 37
g wall
f 19 18 37 38
g wall
f 1 19 38 20
g ground_assumed
f 38 37 36 35 34 33 32 31 30 29 28 27 26 25 24 23 22 21 20
