v 0.43471092716757931 -0.039176400925325913 0.119999116948798
v 0.45961851265999876 -0.027480407950831655 0.11990420159180701
v 0.49169747164970723 -0.007873724858437476 0.11978704307999441
v 0.48604169730320052 0.017056040179718152 0.11983946992380341
v 0.4170782197192176 0.12538074837202792 0.12025975478374047
v 0.35357829375202782 0.21695992898217939 0.12063760570866146
v 0.33133224903616482 0.24304302843537254 0.12076326349370518
v -0.075809552068111893 0.28176844579191118 0.12257208246652761
v -0.094965252241816622 0.27404997801107606 0.12264650823768201
v -0.15164867665819881 0.23796392149270898 0.12285191414667733
v -0.39356055008907054 0.076334467128096897 0.123720008538708
v -0.46254620721878958 0.02858199036288378 0.12396570255770746
v -0.49894277698481437 3.6965652111118491e-05 0.12409157944071213
v -0.49893538380290237 -0.0047094484971585675 0.12408623509958912
v -0.48997486303143639 -0.03037853015592519 0.12401865044630893
v -0.47432352519431648 -0.054628123636117604 0.1239236408536358
v -0.33381635385817821 -0.25166346296113357 0.12309383598985073
v -0.31755877549691836 -0.26754398943752722 0.12300556503374749
v -0.28045246183793077 -0.25999556405537205 0.12285311054719175
v 0.43471092716757931 -0.039176400925325913 -0.12228374979787608
v 0.45961851265999876 -0.027480407950831655 -0.12228374979787608
v 0.49169747164970723 -0.007873724858437476 -0.12228374979787608
v 0.48604169730320052 0.017056040179718152 -0.12228374979787608
v 0.4170782197192176 0.12538074837202792 -0.12228374979787608
v 0.35357829375202782 0.21695992898217939 -0.12228374979787608
v 0.33133224903616482 0.24304302843537254 -0.12228374979787608
v -0.075809552068111893 0.28176844579191118 -0.12228374979787608
v -0.094965252241816622 0.27404997801107606 -0.12228374979787608
v -0.15164867665819881 0.23796392149270898 -0.12228374979787608
v -0.39356055008907054 0.076334467128096897 -0.12228374979787608
v -0.46254620721878958 0.02858199036288378 -0.12228374979787608
v -0.49894277698481437 3.6965652111118491e-05 -0.12228374979787608
v -0.49893538380290237 -0.0047094484971585675 -0.12228374979787608
v -0.48997486303143639 -0.03037853015592519 -0.12228374979787608
v -0.47432352519431648 -0.054628123636117604 -0.12228374979787608
v -0.33381635385817821 -0.25166346296113357 -0.12228374979787608
v -0.31755877549691836 -0.26754398943752722 -0.12228374979787608
v -0.28045246183793077 -0.25999556405537205 -0.12228374979787608
l 1 2
l 2 3
l 3 4
l 4 5
l 5 6
l 6 7
l 7 8
l 8 9
l 9 10
l 10 11
l 11 12
l 12 13
l 13 14
l 14 15
l 15 16
l 16 17
l 17 18
l 18 19
l 1 19
l 20 21
l 21 22
l 3 22
l 22 23
l 4 23
l 23 24
l 24 25
l 25 26
l 7 26
l 26 27
l 8 27
l 27 28
l 9 28
l 28 29
l 29 30
l 30 31
l 31 32
l 13 32
l 32 33
l 14 33
l 33 34
l 15 34
l 34 35
l 35 36
l 17 36
l 36 37
l 18 37
l 37 38
l 20 38
