# Source coordinates; no display transform
v 0.362518811822 0.417121346235 0.120822864029
v -0.542880823822 0.13755598162 0.124436022246
v -0.407966269293 -0.299377930942 0.123361966739
v 0.497433366351 -0.019812566327 0.11974880813
v 0.362518811822 0.417121346235 -0.122283749798
v -0.542880823822 0.13755598162 -0.122283749798
v -0.407966269293 -0.299377930942 -0.122283749798
v 0.497433366351 -0.019812566327 -0.122283749798
g roof
f 1 2 3 4
g wall
f 2 1 5 6
g wall
f 3 2 6 7
g wall
f 4 3 7 8
g wall
f 1 4 8 5
g ground_assumed
f 8 7 6 5
