v 2680406.4212640007 1247031.6310480027 439.39835818889014
v 2680417.0921439989 1247033.5712080018 439.30126284480485
v 2680415.5593119999 1247042.0017840003 439.28994301331261
v 2680404.8884320017 1247040.0616240012 439.38703836295645
v 2680406.4212640007 1247031.6310480027 433.89622876020189
v 2680417.0921439989 1247033.5712080018 433.89622876020189
v 2680415.5593119999 1247042.0017840003 433.89622876020189
v 2680404.8884320017 1247040.0616240012 433.89622876020189
l 1 2
l 2 3
l 3 4
l 1 4
l 1 5
l 5 6
l 2 6
l 6 7
l 3 7
l 7 8
l 4 8
l 5 8
