# pointcloud_to_mesh 0.5.1; candidate requires geometry validation; coordinates preserved
v 4.687225332 5.298540793 4.204698642
v 3.977815178 4.872107862 4.201371305
v 3.761170795 3.658899318 4.196506102
v 4.762727411 3.480049922 4.198428274
v 4.279633641 2.445462246 4.193517443
v 5.839395850 2.050520450 4.196097165
v 5.980450258 2.840425137 4.199264837
v 6.317486618 3.464394008 4.202343258
v 6.816742579 1.410139765 4.196317157
v 1.951458909 7.606605076 4.205915101
v -0.467771857 8.038610570 4.201272152
v -0.739825449 6.515110454 4.195162619
v 0.279352419 6.333114406 4.197118609
v 0.037517238 4.978837390 4.191687694
v -1.094574474 5.180996624 4.189515002
v -0.961061484 5.928669368 4.192513316
v -1.786208678 6.076017081 4.190929706
v -1.886971872 5.511743195 4.188666858
v -0.842589141 4.655720133 4.188291624
v -1.195260320 2.680761531 4.180371655
v 2.241685738 2.241741991 4.187588771
v 2.649298523 1.222718818 4.185007993
v -1.426569158 2.037912745 4.177496145
v -2.435632033 2.683855447 4.177214923
v -2.025020260 4.983281377 4.186436070
v -3.308713818 5.212512370 4.183972426
v -2.712959345 8.548737423 4.197351339
v -5.093502108 8.973834345 4.192782640
v -5.479689530 8.686142418 4.190773874
v -6.234351709 8.820903522 4.189325538
v -6.445950901 7.635948049 4.184573635
v -5.303325814 7.431907855 4.186766543
v -5.774391988 4.793937281 4.176187766
v -6.747793974 4.967759064 4.174319629
v -7.540215983 4.279542230 4.169849873
v -8.106500914 4.715478403 4.169953047
v -7.789093337 6.492960833 4.177081098
v -8.586609759 6.082261165 4.173584670
v -8.939280937 4.107302563 4.165664701
v -8.932566144 4.058993288 4.165510151
v -8.692481428 4.878425777 4.169035678
v -8.302528571 4.270204231 4.167869850
v -8.408336956 3.677677274 4.165493701
v -8.872227481 3.329725729 4.163072321
v -9.170600323 1.658837813 4.156371734
v -9.595032756 -0.440949722 4.147824836
v -8.478797360 0.633356091 4.154493782
v -8.231916987 2.015886178 4.160037997
v -7.947842831 2.649312586 4.163014774
v -7.238478384 1.853012636 4.161996217
v -6.902190892 3.736222588 4.169548257
v -4.210530341 3.524862472 4.175671158
v -3.963667548 4.907294116 4.181214979
v -5.717235420 3.524623396 4.171822404
v -6.015745503 1.852966931 4.165118735
v -6.012537205 1.667846602 4.164468984
v -5.998032838 0.830937737 4.161531526
v -6.317447944 0.203822214 4.158486924
v -7.097434523 0.808858433 4.158645342
v -7.167961727 0.413906090 4.157061506
v -7.947874474 -0.000038674 4.153598501
v -9.979451724 -0.372303477 4.147087066
v -1.707180238 -2.671901683 4.160040119
v -1.553521641 -1.811413539 4.163490844
v -0.891989826 -3.487099127 4.159224662
v 0.523181067 -3.652447801 4.162251127
v 0.699516656 -2.664968500 4.166211112
v 0.891961700 -1.811406508 4.169736276
v 1.018959889 -4.279566841 4.161288399
v -9.578118181 -2.241664643 4.141468023
v -9.836299641 -2.817140311 4.138763339
v -9.704794002 -2.840623460 4.139015722
v -9.460143769 -2.434706055 4.141083214
v -9.366564695 -2.279442051 4.141874033
v -9.474130987 -2.881813285 4.139458407
v -9.378149298 -2.898952872 4.139642613
v -9.629143172 -4.304518564 4.134006021
v -9.725124860 -4.287378977 4.133821814
v -9.869114972 -5.093723604 4.130588215
v -9.781500918 -5.109368971 4.130756362
v -9.772939914 -5.061427348 4.130948618
v -7.659535637 -6.445497361 4.131426750
v -8.370541969 -5.994587342 4.131213546
v -7.540194888 -6.521256094 4.131462271
v -6.720050696 -6.289317926 4.134381142
v -4.690952093 -6.542456445 4.138663471
v -3.463152926 -6.310479603 4.142623571
v 0.373260797 -6.399976398 4.152103125
v -0.173410433 -7.458360830 4.146945349
v 0.837498244 -7.638880237 4.148885469
v 2.341636031 -6.832770897 4.155591850
v 3.865752162 -7.167884379 4.158293176
v 4.256967196 -6.852037823 4.160414848
v 5.135076594 -7.008843073 4.162100101
v 5.077135999 -7.333310401 4.160798924
v 5.909873833 -7.132673514 4.163638708
v 6.317469039 -7.540272236 4.163230980
v 7.381550868 -7.308112571 4.166773619
v 7.698958445 -5.530630141 4.173901671
v 8.376571588 -5.098519173 4.177167982
v 8.782339502 -3.381018494 4.184308509
v 10.245141695 -0.381135199 4.198706327
v 10.534355970 1.197506924 4.205055668
v 10.510032719 1.702977291 4.206790068
v 9.932793373 -1.213285892 4.194951046
v 9.454713153 -0.793100560 4.195223501
v 9.876420831 1.649809205 4.204982948
v 9.578118181 2.241664643 4.206324670
v 10.891386756 4.072921430 4.216187127
v 11.081803176 5.139253379 4.220463326
v 9.702817028 5.385500906 4.217816798
v 9.347632043 3.396464989 4.209840375
v 8.233260028 3.595459992 4.207701691
v 8.355350142 2.853036357 4.205374806
v 7.947790094 2.649309070 4.203609880
v 7.044475835 3.480141333 4.204255850
v 7.220811424 4.467620634 4.208215835
v 6.317469039 4.075818459 4.204516307
v 5.986300788 4.324202682 4.204553346
v 1.288956730 3.896592872 4.191037228
v -9.218541946 1.667398817 4.156279725
v -0.738331229 -2.626610983 4.162675387
v -7.372117943 -5.490145557 4.135556237
v -7.546326466 -6.465713284 4.131644020
v -1.216844739 -6.050353564 4.149284840
v 9.807563638 -2.831572320 4.188879595
v 2.241671675 3.056837476 4.190485706
v 3.056844507 2.853064484 4.191843298
v -3.314799690 3.364910570 4.177390230
v 1.922270632 -2.461244729 4.170057912
v -2.242954946 -6.528372099 4.144965355
v -2.645508477 -6.907714234 4.142589054
v -1.428260264 -7.234280503 4.144537062
v 2.649291491 3.668202158 4.193699589
v -3.183800507 4.098505999 4.180332091
v 3.464474872 1.834139753 4.189262915
v 1.745935042 -3.448724030 4.166097927
v 4.616627811 2.661892164 4.195147302
v 7.040945959 2.665678695 4.201352113
v -1.834076468 8.151654498 4.198184585
v -2.649249301 8.355427490 4.196826993
v -1.834157332 7.540247625 4.196011347
v -3.463152926 -6.310479603 4.322167084
v -4.690952093 -6.542456445 4.322545423
v -2.645508477 -6.907714234 4.320459239
v -2.242954946 -6.528372099 4.320922583
v -1.302935274 -6.532460562 4.320281028
v -1.428260264 -7.234280503 4.319006253
v -1.058115495 -7.300377783 4.318628736
v -0.173410433 -7.458360830 4.317726410
v 0.373260797 -6.399976398 4.319407746
v -1.216844739 -6.050353564 4.321156720
v -9.979008732 -4.242042571 4.330565270
v -10.102455950 -4.219998425 4.330691176
v -10.109153573 -4.257505116 4.330623049
v -10.695134088 -4.706080635 4.330149260
v -10.846278879 -5.552491465 4.328611852
v -9.891088802 -5.723061121 4.327637637
v -9.888557417 -5.708885364 4.327663386
v -9.781500918 -5.109368971 4.328752338
v -9.869114972 -5.093723604 4.328841697
v -9.725124860 -4.287378977 4.330306329
v -9.419113897 -2.573717585 4.333418998
v -9.366564695 -2.279442051 4.333953516
v -9.460143769 -2.434706055 4.333715886
v -9.704794002 -2.840623460 4.333094635
v -9.474130987 -2.881813285 4.332859378
v -8.872227481 3.329725729 4.344483878
v -8.408336956 3.677677274 4.344845081
v -8.302528571 4.270204231 4.345921338
v -8.692481428 4.878425777 4.347362168
v -8.932566144 4.058993288 4.345936962
v -8.870810484 3.614695004 4.345034838
v -8.875750201 3.587032589 4.344984593
v -8.827808578 3.578471585 4.344935696
v 3.902218172 -8.186151652 4.313569606
v 5.913663879 -8.741797734 4.311137604
v 7.105814428 -8.885464322 4.310055766
v 8.670989265 -9.074084231 4.308635421
v 8.868736154 -7.966701651 4.310646854
v 8.862926181 -7.710626397 4.311146726
v 8.853150556 -7.279764573 4.311987788
v 9.487948131 -3.724898155 4.318444794
v 9.726225310 -3.287066959 4.319132150
v 9.807563638 -2.831572320 4.319959504
v 8.782339502 -3.381018494 4.319586433
v 8.376571588 -5.098519173 4.316533571
v 7.698958445 -5.530630141 4.316153436
v 7.381550868 -7.308112571 4.312924844
v 6.317469039 -7.540272236 4.313192472
v 5.909873833 -7.132673514 4.314256637
v 5.077135999 -7.333310401 4.314429375
v 5.135076594 -7.008843073 4.315018732
v 4.256967196 -6.852037823 4.315914331
v 3.865752162 -7.167884379 4.315566320
v 2.341636031 -6.832770897 4.317242711
v 0.837498244 -7.638880237 4.316695366
v 1.066771426 -7.679821876 4.316461527
v 2.216484392 -7.885127763 4.315288915
v 9.233157179 -5.151727483 4.315853123
v 9.876420831 1.649809205 4.328592424
v 9.454713153 -0.793100560 4.324145368
v 9.932793373 -1.213285892 4.323009314
v 10.510032719 1.702977291 4.328268300
v 10.501149118 1.887590655 4.328631839
v 10.891386756 4.072921430 4.332601240
v 9.578118181 2.241664643 4.329939779
v 2.649242270 5.706146546 4.341320164
v 1.834069437 5.909919538 4.342264304
v 2.649259849 5.094722095 4.340135973
v -6.725067761 7.132677030 4.320439955
v -7.540258173 7.947874474 4.306954178
v -7.540240594 7.336450022 4.300289507
v -9.888557417 -5.708885364 4.403512177
v -9.891088802 -5.723061121 4.403512177
v -8.411592599 -5.987256872 4.403512177
v -8.370541969 -5.994587342 4.403512177
v -7.659535637 -6.445497361 4.403512177
v -7.546326466 -6.465713284 4.403512177
v -7.372117943 -5.490145557 4.403512177
v -8.624315740 -5.266538807 4.403512177
v -9.772939914 -5.061427348 4.403512177
v -9.781500918 -5.109368971 4.403512177
v -9.836299628 -2.817140313 4.352141699
v -9.862290780 -2.875073471 4.352141699
v -10.102455950 -4.219998425 4.352141699
v -9.979008732 -4.242042571 4.352141699
v -9.725124860 -4.287378977 4.352141699
v -9.629143172 -4.304518564 4.352141699
v -9.378149298 -2.898952872 4.352141699
v -9.474130987 -2.881813285 4.352141699
v -9.704794002 -2.840623460 4.352141699
v -8.827808578 3.578471585 4.384779988
v -8.875750201 3.587032589 4.384779988
v -8.929348766 3.286880621 4.384779988
v -9.218541946 1.667398817 4.384779988
v -9.170600323 1.658837813 4.384779988
v -8.872227481 3.329725729 4.384779988
v -8.624315725 -5.266538810 4.133153039
v -8.370541969 -5.994587342 -4.900477691
v -7.540194888 -6.521256094 -4.900477691
v -6.720050696 -6.289317926 -4.900477691
v -4.709849587 -6.648282410 4.138239088
v -4.709849587 -6.648282410 -4.900477691
v -3.419068150 -6.878779095 4.140716335
v -3.419068150 -6.878779095 -4.900477691
v -2.664405970 -7.013540198 4.142164671
v -2.664405970 -7.013540198 -4.900477691
v -2.198870170 -7.096671591 4.143058120
v -2.198870170 -7.096671591 -4.900477691
v -1.428260264 -7.234280503 -4.900477691
v -1.302935268 -6.532460526 4.147351497
v 0.206283283 -7.526163279 4.147674052
v -0.173410433 -7.458360830 -4.900477691
v 0.206283283 -7.526163279 -4.900477691
v 0.837498244 -7.638880237 -4.900477691
v 9.807563638 -2.831572320 -4.900477691
v 10.245141695 -0.381135199 -4.900477691
v 10.534355970 1.197506924 -4.900477691
v 10.510032761 1.702977316 -4.900477691
v 10.891386756 4.072921430 -4.900477691
v 11.081803176 5.139253379 -4.900477691
v 9.702817028 5.385500906 -4.900477691
v 9.347632043 3.396464989 -4.900477691
v 8.233260028 3.595459992 -4.900477691
v 8.355350142 2.853036357 -4.900477691
v 7.947790094 2.649309070 -4.900477691
v 7.044475835 3.480141333 -4.900477691
v 7.157843218 4.114998677 4.206801752
v 7.157843218 4.114998677 -4.900477691
v 7.220811424 4.467620634 -4.900477691
v 6.317469039 4.075818459 -4.900477691
v 5.986300768 4.324202686 -4.900477691
v 4.687225332 5.298540793 -4.900477691
v 3.977815178 4.872107862 -4.900477691
v 3.945065382 4.688709005 4.200635840
v 3.945065382 4.688709005 -4.900477691
v 3.761170795 3.658899318 -4.900477691
v 4.762727411 3.480049922 -4.900477691
v 4.616627811 2.661892164 -4.900477691
v 4.279633641 2.445462246 -4.900477691
v 2.649291491 3.668202158 -4.900477691
v 2.241671675 3.056837476 -4.900477691
v 1.288956730 3.896592872 -4.900477691
v 1.951458909 7.606605076 -4.900477691
v 1.244443025 7.732857912 4.204558208
v 1.244443025 7.732857912 -4.900477691
v -0.467771857 8.038610570 -4.900477691
v -0.739825449 6.515110454 -4.900477691
v 0.279352419 6.333114406 -4.900477691
v 0.037517238 4.978837390 -4.900477691
v -1.094574474 5.180996624 -4.900477691
v -0.961061484 5.928669368 -4.900477691
v -1.786208678 6.076017081 -4.900477691
v -1.886971872 5.511743195 -4.900477691
v -0.842589141 4.655720133 -4.900477691
v -1.195260320 2.680761531 -4.900477691
v -1.426569158 2.037912745 -4.900477691
v -2.435632033 2.683855447 -4.900477691
v -2.025020260 4.983281377 -4.900477691
v -3.308713818 5.212512370 -4.900477691
v -2.712959345 8.548737423 -4.900477691
v -5.093502108 8.973834345 -4.900477691
v -5.479689530 8.686142418 -4.900477691
v -6.195466820 8.813959791 4.189400165
v -6.195466820 8.813959791 -4.900477691
v -6.234351709 8.820903522 -4.900477691
v -6.340142515 8.228475007 4.186949784
v -6.340142515 8.228475007 -4.900477691
v -6.445950901 7.635948049 -4.900477691
v -5.782151387 7.517412421 4.185847589
v -5.782151387 7.517412421 -4.900477691
v -5.303325814 7.431907855 -4.900477691
v -5.465457520 6.523970302 4.183125536
v -5.465457520 6.523970302 -4.900477691
v -5.774391988 4.793937281 -4.900477691
v -6.747793974 4.967759064 -4.900477691
v -7.540215983 4.279542230 -4.900477691
v -8.106500914 4.715478403 -4.900477691
v -7.789093337 6.492960833 -4.900477691
v -8.586609759 6.082261165 -4.900477691
v -8.939280937 4.107302563 -4.900477691
v -8.932566192 4.058993281 -4.900477691
v -9.218541946 1.667398817 -4.900477691
v -9.595032756 -0.440949722 -4.900477691
v -9.979451724 -0.372303477 -4.900477691
v -9.578118181 -2.241664643 -4.900477691
v -9.836299628 -2.817140313 -4.900477691
v -9.419113896 -2.573717577 4.140693931
v -3.183800507 4.098505999 -4.900477691
v -3.314799690 3.364910570 -4.900477691
v -4.058436281 3.497702818 4.175963054
v -4.058436281 3.497702818 -4.900477691
v -4.210530341 3.524862472 -4.900477691
v -4.151587740 3.854941038 4.176994837
v -4.151587740 3.854941038 -4.900477691
v -3.963667548 4.907294116 -4.900477691
v -7.947842831 2.649312586 -4.900477691
v -7.238478384 1.853012636 -4.900477691
v -6.902190892 3.736222588 -4.900477691
v -5.717235420 3.524623396 -4.900477691
v -6.015745503 1.852966931 -4.900477691
v -6.012537169 1.667846562 -4.900477691
v -5.998032838 0.830937737 -4.900477691
v -6.317447944 0.203822214 -4.900477691
v -7.097434523 0.808858433 -4.900477691
v -7.167961727 0.413906090 -4.900477691
v -7.947874474 -0.000038674 -4.900477691
v -8.478797360 0.633356091 -4.900477691
v -8.231916987 2.015886178 -4.900477691
v -1.553539220 -1.811511982 4.163490450
v -1.553539220 -1.811511982 -4.900477691
v -1.553521641 -1.811413539 -4.900477691
v -0.738331229 -2.626610983 -4.900477691
v -0.891989826 -3.487099127 -4.900477691
v -1.707180238 -2.671901683 -4.900477691
v 1.745935042 -3.448724030 -4.900477691
v 1.018959889 -4.279566841 -4.900477691
v 0.555829713 -3.693745635 4.162187729
v 0.555829713 -3.693745635 -4.900477691
v 0.523181067 -3.652447801 -4.900477691
v 0.699516656 -2.664968500 -4.900477691
v 0.891961700 -1.811406508 -4.900477691
v 1.922270632 -2.461244729 -4.900477691
v 2.241685738 2.241741991 -4.900477691
v 3.056844507 2.853064484 -4.900477691
v 3.464474872 1.834139753 -4.900477691
v 2.649298523 1.222718818 -4.900477691
v 6.816742579 1.410139765 -4.900477691
v 5.839395850 2.050520450 -4.900477691
v 5.980450258 2.840425137 -4.900477691
v 6.317486618 3.464394008 -4.900477691
v 7.040945959 2.665678695 -4.900477691
v -1.834157332 7.540247625 -4.900477691
v -1.834076468 8.151654498 -4.900477691
v -2.649249301 8.355427490 -4.900477691
v -1.058115495 -7.300377783 -4.900477691
v -10.102455950 -4.219998425 -4.900477691
v -10.109153573 -4.257505116 -4.900477691
v -10.695134088 -4.706080635 -4.900477691
v -10.846278879 -5.552491465 -4.900477691
v -9.891088802 -5.723061121 -4.900477691
v -8.870810484 3.614695004 -4.900477691
v -8.875750201 3.587032589 -4.900477691
v 5.913663879 -8.741797734 -4.900477691
v 7.105814420 -8.885464275 -4.900477691
v 8.670989265 -9.074084231 -4.900477691
v 8.868736154 -7.966701651 -4.900477691
v 8.862926210 -7.710626405 -4.900477691
v 8.853150556 -7.279764573 -4.900477691
v 9.233157179 -5.151727483 -4.900477691
v 9.487948131 -3.724898155 -4.900477691
v 9.726225310 -3.287066959 -4.900477691
v 1.066771426 -7.679821876 -4.900477691
v 2.216484392 -7.885127763 -4.900477691
v 3.902218172 -8.186151652 -4.900477691
v 10.501149118 1.887590655 -4.900477691
v 2.649259849 5.094722095 -4.900477691
v 2.649242270 5.706146546 -4.900477691
v 1.834069437 5.909919538 -4.900477691
v -7.540240594 7.336450022 -4.900477691
v -6.725067761 7.132677030 -4.900477691
v -7.540258173 7.947874474 -4.900477691
v -8.411592599 -5.987256872 -4.900477691
v -9.862290780 -2.875073471 -4.900477691
v -8.929348766 3.286880621 -4.900477691
g roof
f 1 2 276 3
g roof
f 1 3 4
g roof
f 5 6 7
g roof
f 5 7 8
g roof
f 9 6 5
g roof
f 10 286 11 12
g roof
f 10 12 13
g roof
f 10 13 14
g roof
f 15 16 17
g roof
f 15 17 18
g roof
f 15 18 19
g roof
f 19 20 21
g roof
f 22 21 20
g roof
f 22 20 23
g roof
f 24 25 26
g roof
f 26 27 28
g roof
f 26 28 29
g roof
f 26 29 305 30
g roof
f 30 308 31 311 32
g roof
f 33 34 35
g roof
f 36 37 38
g roof
f 38 39 40
g roof
f 38 40 41
g roof
f 38 41 42
g roof
f 43 44 45
g roof
f 46 47 48
g roof
f 46 48 49
g roof
f 49 50 51
g roof
f 51 52 335 53
g roof
f 54 55 56
g roof
f 54 56 57
g roof
f 58 59 60
g roof
f 58 60 61
g roof
f 61 47 46
g roof
f 46 62 63
g roof
f 46 63 351 64
g roof
f 65 66 67
g roof
f 65 67 68
g roof
f 69 359 66 65
g roof
f 65 63 62
g roof
f 65 62 70
g roof
f 70 71 72
g roof
f 70 72 73
g roof
f 70 73 74
g roof
f 74 329 75 76
g roof
f 77 78 79
g roof
f 79 80 81
g roof
f 82 83 84
g roof
f 85 86 87
g roof
f 88 89 253 90
g roof
f 88 90 91
g roof
f 91 92 93
g roof
f 94 95 96
g roof
f 96 97 98
g roof
f 96 98 99
g roof
f 99 100 101
g roof
f 102 103 104
g roof
f 102 104 105
g roof
f 106 107 108
g roof
f 108 109 110
g roof
f 108 110 111
g roof
f 108 111 112
g roof
f 108 112 113
g roof
f 108 113 114
g roof
f 108 114 115
g roof
f 116 269 117 118
g roof
f 116 118 119
g roof
f 116 119 1
g roof
f 116 1 4
g roof
f 120 10 14
g roof
f 120 14 15
g roof
f 120 15 19
g roof
f 120 19 21
g roof
f 26 30 32
g roof
f 26 32 314 33
g roof
f 26 33 35
g roof
f 36 38 42
g roof
f 36 42 43
g roof
f 45 121 46
g roof
f 45 46 49
g roof
f 45 49 51
g roof
f 58 61 46
g roof
f 58 46 64
g roof
f 122 65 68
g roof
f 65 70 74
g roof
f 65 74 76
g roof
f 65 76 77
g roof
f 77 79 81
g roof
f 77 81 239 123
g roof
f 124 82 84
g roof
f 124 84 85
g roof
f 125 88 91 93
g roof
f 93 94 96
g roof
f 93 96 99
g roof
f 93 99 101
g roof
f 126 102 105
g roof
f 126 105 106
g roof
f 106 108 115
g roof
f 106 115 116
g roof
f 127 120 21
g roof
f 127 21 128
g roof
f 35 36 43
g roof
f 35 43 45
g roof
f 35 45 51
g roof
f 35 51 53
g roof
f 129 332 52 51
g roof
f 129 51 54
g roof
f 129 54 57
g roof
f 129 57 58
g roof
f 129 58 64
g roof
f 129 64 122
g roof
f 129 122 68
g roof
f 129 68 130
g roof
f 69 65 77
g roof
f 69 77 123
g roof
f 69 123 124
g roof
f 69 124 85
g roof
f 69 85 87
g roof
f 69 87 131
g roof
f 69 131 132
g roof
f 132 86 85
g roof
f 132 85 243 245 247 249 133
g roof
f 132 133 252 125
g roof
f 125 93 101
g roof
f 125 101 126
g roof
f 125 126 106
g roof
f 134 127 128
g roof
f 26 35 53
g roof
f 26 53 135
g roof
f 69 132 125
g roof
f 69 125 106
g roof
f 5 134 128
g roof
f 5 128 136
g roof
f 5 136 22
g roof
f 24 26 135
g roof
f 24 135 129
g roof
f 24 129 130
g roof
f 137 69 106
g roof
f 138 5 8
g roof
f 9 5 22
g roof
f 23 24 130
g roof
f 130 137 106
g roof
f 4 138 8
g roof
f 22 23 130
g roof
f 22 130 106
g roof
f 116 4 8
g roof
f 116 8 139
g roof
f 9 22 106
g roof
f 106 116 139
g roof
f 106 139 9
g roof
f 140 141 142
g roof
f 143 144 145
g roof
f 143 145 146
g roof
f 147 148 149
g roof
f 147 149 150
g roof
f 147 150 151
g roof
f 147 151 152
g roof
f 153 154 155
g roof
f 153 155 156
g roof
f 153 156 157
g roof
f 153 157 158
g roof
f 153 158 159
g roof
f 159 160 161
g roof
f 161 162 153
g roof
f 161 153 159
g roof
f 163 164 165
g roof
f 163 165 166
g roof
f 163 166 167
g roof
f 168 169 170
g roof
f 170 171 172
g roof
f 170 172 173
g roof
f 170 173 174
g roof
f 170 174 175
g roof
f 170 175 168
g roof
f 176 177 178
g roof
f 176 178 179
g roof
f 176 179 180
g roof
f 176 180 181
g roof
f 176 181 182
g roof
f 183 184 185
g roof
f 183 185 186
g roof
f 183 186 187
g roof
f 187 188 189
g roof
f 190 191 192
g roof
f 192 193 194
g roof
f 192 194 195
g roof
f 195 196 197
g roof
f 195 197 198
g roof
f 195 198 199
g roof
f 195 199 176
g roof
f 200 183 187
g roof
f 200 187 189
g roof
f 190 192 195
g roof
f 190 195 176
g roof
f 190 176 182
g roof
f 182 200 189
g roof
f 182 189 190
g roof
f 201 202 203
g roof
f 201 203 204
g roof
f 201 204 205
g roof
f 201 205 206
g roof
f 201 206 207
g roof
f 208 209 210
g roof
f 211 212 213
g roof_fixture
f 214 215 216
g roof_fixture
f 214 216 217
g roof_fixture
f 217 218 219
g roof_fixture
f 217 219 220
g roof_fixture
f 217 220 221
g roof_fixture
f 217 221 222
g roof_fixture
f 217 222 223
g roof_fixture
f 217 223 214
g roof_fixture
f 224 225 226
g roof_fixture
f 224 226 227
g roof_fixture
f 224 227 228
g roof_fixture
f 224 228 229
g roof_fixture
f 229 230 231
g roof_fixture
f 229 231 232
g roof_fixture
f 229 232 224
g roof_fixture
f 233 234 235
g roof_fixture
f 233 235 236
g roof_fixture
f 236 237 238
g roof_fixture
f 236 238 233
g roof_step_or_fixture_side
f 231 230 76 75 167
g roof_step_or_fixture_side
f 230 229 77 76
g roof_step_or_fixture_side
f 229 228 162 78 77
g roof_step_or_fixture_side
f 162 161 79 78
g roof_step_or_fixture_side
f 161 160 80 79
g roof_step_or_fixture_side
f 223 222 81 80 160
g roof_step_or_fixture_side
f 222 221 239 81
g roof_step_or_fixture_side
f 221 220 123 239
g roof_step_or_fixture_side
f 220 219 124 123
g roof_step_or_fixture_side
f 219 218 82 124
g roof_step_or_fixture_side
f 218 217 83 82
g facade_completed
f 84 83 240 241
g facade_completed
f 85 84 241 242
g facade_completed
f 243 85 242 244
g facade_completed
f 245 243 244 246
g facade_completed
f 247 245 246 248
g facade_completed
f 249 247 248 250
g facade_completed
f 133 249 250 251
g roof_step_or_fixture_side
f 148 147 252 133
g roof_step_or_fixture_side
f 147 152 125 252
g roof_step_or_fixture_side
f 152 151 88 125
g roof_step_or_fixture_side
f 151 150 89 88
g facade_completed
f 253 89 254 255
g facade_completed
f 90 253 255 256
g roof_step_or_fixture_side
f 197 196 91 90
g roof_step_or_fixture_side
f 196 195 92 91
g roof_step_or_fixture_side
f 195 194 93 92
g roof_step_or_fixture_side
f 194 193 94 93
g roof_step_or_fixture_side
f 193 192 95 94
g roof_step_or_fixture_side
f 192 191 96 95
g roof_step_or_fixture_side
f 191 190 97 96
g roof_step_or_fixture_side
f 190 189 98 97
g roof_step_or_fixture_side
f 189 188 99 98
g roof_step_or_fixture_side
f 188 187 100 99
g roof_step_or_fixture_side
f 187 186 101 100
g roof_step_or_fixture_side
f 186 185 126 101
g facade_completed
f 102 126 257 258
g facade_completed
f 103 102 258 259
g facade_completed
f 104 103 259 260
g roof_step_or_fixture_side
f 204 203 105 104
g roof_step_or_fixture_side
f 203 202 106 105
g roof_step_or_fixture_side
f 202 201 107 106
g roof_step_or_fixture_side
f 201 207 108 107
g roof_step_or_fixture_side
f 207 206 109 108
g facade_completed
f 110 109 261 262
g facade_completed
f 111 110 262 263
g facade_completed
f 112 111 263 264
g facade_completed
f 113 112 264 265
g facade_completed
f 114 113 265 266
g facade_completed
f 115 114 266 267
g facade_completed
f 116 115 267 268
g facade_completed
f 269 116 268 270
g facade_completed
f 117 269 270 271
g facade_completed
f 118 117 271 272
g facade_completed
f 119 118 272 273
g facade_completed
f 1 119 273 274
g facade_completed
f 2 1 274 275
g facade_completed
f 276 2 275 277
g facade_completed
f 3 276 277 278
g facade_completed
f 4 3 278 279
g facade_completed
f 138 4 279 280
g facade_completed
f 5 138 280 281
g facade_completed
f 134 5 281 282
g facade_completed
f 127 134 282 283
g facade_completed
f 120 127 283 284
g facade_completed
f 10 120 284 285
g facade_completed
f 286 10 285 287
g facade_completed
f 11 286 287 288
g facade_completed
f 12 11 288 289
g facade_completed
f 13 12 289 290
g facade_completed
f 14 13 290 291
g facade_completed
f 15 14 291 292
g facade_completed
f 16 15 292 293
g facade_completed
f 17 16 293 294
g facade_completed
f 18 17 294 295
g facade_completed
f 19 18 295 296
g facade_completed
f 20 19 296 297
g facade_completed
f 23 20 297 298
g facade_completed
f 24 23 298 299
g facade_completed
f 25 24 299 300
g facade_completed
f 26 25 300 301
g facade_completed
f 27 26 301 302
g facade_completed
f 28 27 302 303
g facade_completed
f 29 28 303 304
g facade_completed
f 305 29 304 306
g facade_completed
f 30 305 306 307
g facade_completed
f 308 30 307 309
g facade_completed
f 31 308 309 310
g facade_completed
f 311 31 310 312
g facade_completed
f 32 311 312 313
g facade_completed
f 314 32 313 315
g facade_completed
f 33 314 315 316
g facade_completed
f 34 33 316 317
g facade_completed
f 35 34 317 318
g facade_completed
f 36 35 318 319
g facade_completed
f 37 36 319 320
g facade_completed
f 38 37 320 321
g facade_completed
f 39 38 321 322
g facade_completed
f 40 39 322 323
g roof_step_or_fixture_side
f 172 171 41 40
g roof_step_or_fixture_side
f 171 170 42 41
g roof_step_or_fixture_side
f 170 169 43 42
g roof_step_or_fixture_side
f 169 168 44 43
g roof_step_or_fixture_side
f 238 237 45 44 168
g roof_step_or_fixture_side
f 237 236 121 45
g facade_completed
f 46 121 324 325
g facade_completed
f 62 46 325 326
g facade_completed
f 70 62 326 327
g facade_completed
f 71 70 327 328
g roof_step_or_fixture_side
f 224 232 166 72 71
g roof_step_or_fixture_side
f 166 165 73 72
g roof_step_or_fixture_side
f 165 164 74 73
g roof_step_or_fixture_side
f 164 163 329 74
g roof_step_or_fixture_side
f 163 167 75 329
g facade_completed
f 129 135 330 331
g facade_completed
f 332 129 331 333
g facade_completed
f 52 332 333 334
g facade_completed
f 335 52 334 336
g facade_completed
f 53 335 336 337
g facade_completed
f 135 53 337 330
g facade_completed
f 50 49 338 339
g facade_completed
f 51 50 339 340
g facade_completed
f 54 51 340 341
g facade_completed
f 55 54 341 342
g facade_completed
f 56 55 342 343
g facade_completed
f 57 56 343 344
g facade_completed
f 58 57 344 345
g facade_completed
f 59 58 345 346
g facade_completed
f 60 59 346 347
g facade_completed
f 61 60 347 348
g facade_completed
f 47 61 348 349
g facade_completed
f 48 47 349 350
g facade_completed
f 49 48 350 338
g roof_step_or_fixture_side
f 145 144 86 132
g roof_step_or_fixture_side
f 144 143 87 86
g roof_step_or_fixture_side
f 143 146 131 87
g roof_step_or_fixture_side
f 146 145 132 131
g facade_completed
f 64 351 352 353
g facade_completed
f 122 64 353 354
g facade_completed
f 65 122 354 355
g facade_completed
f 63 65 355 356
g facade_completed
f 351 63 356 352
g facade_completed
f 69 137 357 358
g facade_completed
f 359 69 358 360
g facade_completed
f 66 359 360 361
g facade_completed
f 67 66 361 362
g facade_completed
f 68 67 362 363
g facade_completed
f 130 68 363 364
g facade_completed
f 137 130 364 357
g facade_completed
f 128 21 365 366
g facade_completed
f 136 128 366 367
g facade_completed
f 22 136 367 368
g facade_completed
f 21 22 368 365
g facade_completed
f 6 9 369 370
g facade_completed
f 7 6 370 371
g facade_completed
f 8 7 371 372
g facade_completed
f 139 8 372 373
g facade_completed
f 9 139 373 369
g facade_completed
f 140 142 374 375
g facade_completed
f 141 140 375 376
g facade_completed
f 142 141 376 374
g facade_completed
f 149 148 133 251 377
g facade_completed
f 150 149 377 254 89
g facade_completed
f 155 154 378 379
g facade_completed
f 156 155 379 380
g facade_completed
f 157 156 380 381
g facade_completed
f 158 157 381 382
g roof_step_or_fixture_side
f 215 214 159 158
g roof_step_or_fixture_side
f 214 223 160 159
g roof_step_or_fixture_side
f 228 227 153 162
g roof_step_or_fixture_side
f 227 226 154 153
g roof_step_or_fixture_side
f 232 231 167 166
g facade_completed
f 173 172 40 323 383
g facade_completed
f 174 173 383 384
g roof_step_or_fixture_side
f 234 233 175 174
g roof_step_or_fixture_side
f 233 238 168 175
g facade_completed
f 178 177 385 386
g facade_completed
f 179 178 386 387
g facade_completed
f 180 179 387 388
g facade_completed
f 181 180 388 389
g facade_completed
f 182 181 389 390
g facade_completed
f 200 182 390 391
g facade_completed
f 183 200 391 392
g facade_completed
f 184 183 392 393
g facade_completed
f 185 184 393 257 126
g facade_completed
f 198 197 90 256 394
g facade_completed
f 199 198 394 395
g facade_completed
f 176 199 395 396
g facade_completed
f 177 176 396 385
g facade_completed
f 205 204 104 260 397
g facade_completed
f 206 205 397 261 109
g facade_completed
f 208 210 398 399
g facade_completed
f 209 208 399 400
g facade_completed
f 210 209 400 398
g facade_completed
f 211 213 401 402
g facade_completed
f 212 211 402 403
g facade_completed
f 213 212 403 401
g facade_completed
f 216 215 158 382 404
g facade_completed
f 217 216 404 240 83
g facade_completed
f 226 225 405 378 154
g facade_completed
f 225 224 71 328 405
g facade_completed
f 236 235 406 324 121
g facade_completed
f 235 234 174 384 406
g ground_assumed
f 274 278 277 275
g ground_assumed
f 274 279 278
g ground_assumed
f 281 371 370
g ground_assumed
f 281 372 371
g ground_assumed
f 369 281 370
g ground_assumed
f 285 289 288 287
g ground_assumed
f 285 290 289
g ground_assumed
f 285 291 290
g ground_assumed
f 292 294 293
g ground_assumed
f 292 295 294
g ground_assumed
f 292 296 295
g ground_assumed
f 296 365 297
g ground_assumed
f 368 297 365
g ground_assumed
f 368 298 297
g ground_assumed
f 299 301 300
g ground_assumed
f 301 303 302
g ground_assumed
f 301 304 303
g ground_assumed
f 301 307 306 304
g ground_assumed
f 307 313 312 310 309
g ground_assumed
f 316 318 317
g ground_assumed
f 319 321 320
g ground_assumed
f 319 322 321
g ground_assumed
f 331 322 334 333
g ground_assumed
f 331 323 322
g ground_assumed
f 325 350 349
g ground_assumed
f 325 338 350
g ground_assumed
f 338 340 339
g ground_assumed
f 341 343 342
g ground_assumed
f 341 344 343
g ground_assumed
f 345 347 346
g ground_assumed
f 345 348 347
g ground_assumed
f 348 325 349
g ground_assumed
f 325 356 326
g ground_assumed
f 325 353 352 356
g ground_assumed
f 355 362 361
g ground_assumed
f 355 363 362
g ground_assumed
f 360 355 361
g ground_assumed
f 355 326 356
g ground_assumed
f 355 327 326
g ground_assumed
f 355 328 327
g ground_assumed
f 355 405 328
g ground_assumed
f 355 379 378 405
g ground_assumed
f 355 380 379
g ground_assumed
f 355 381 380
g ground_assumed
f 355 240 404 382 381
g ground_assumed
f 355 241 240
g ground_assumed
f 355 242 241
g ground_assumed
f 355 396 395 394 256 255 254 377 251 250 248 246 244 242
g ground_assumed
f 355 385 396
g ground_assumed
f 355 386 385
g ground_assumed
f 355 387 386
g ground_assumed
f 355 388 387
g ground_assumed
f 355 389 388
g ground_assumed
f 392 258 257 393
g ground_assumed
f 392 259 258
g ground_assumed
f 392 260 259
g ground_assumed
f 392 397 260
g ground_assumed
f 392 262 261 397
g ground_assumed
f 392 263 262
g ground_assumed
f 392 264 263
g ground_assumed
f 392 265 264
g ground_assumed
f 392 266 265
g ground_assumed
f 392 267 266
g ground_assumed
f 392 268 267
g ground_assumed
f 268 272 271 270
g ground_assumed
f 268 273 272
g ground_assumed
f 268 274 273
g ground_assumed
f 268 279 274
g ground_assumed
f 284 291 285
g ground_assumed
f 284 292 291
g ground_assumed
f 284 296 292
g ground_assumed
f 284 365 296
g ground_assumed
f 301 313 307
g ground_assumed
f 301 316 315 313
g ground_assumed
f 301 318 316
g ground_assumed
f 318 322 319
g ground_assumed
f 318 334 322
g ground_assumed
f 318 337 336 334
g ground_assumed
f 383 338 325 324 406 384
g ground_assumed
f 383 340 338
g ground_assumed
f 345 325 348
g ground_assumed
f 345 353 325
g ground_assumed
f 354 363 355
g ground_assumed
f 358 355 360
g ground_assumed
f 358 389 355
g ground_assumed
f 358 390 389
g ground_assumed
f 358 392 391 390
g ground_assumed
f 283 365 284
g ground_assumed
f 283 366 365
g ground_assumed
f 301 337 318
g ground_assumed
f 301 330 337
g ground_assumed
f 323 340 383
g ground_assumed
f 344 353 345
g ground_assumed
f 353 363 354
g ground_assumed
f 357 392 358
g ground_assumed
f 282 366 283
g ground_assumed
f 299 330 301
g ground_assumed
f 299 331 330
g ground_assumed
f 331 340 323
g ground_assumed
f 331 341 340
g ground_assumed
f 331 344 341
g ground_assumed
f 331 353 344
g ground_assumed
f 331 363 353
g ground_assumed
f 331 364 363
g ground_assumed
f 364 392 357
g ground_assumed
f 281 366 282
g ground_assumed
f 281 367 366
g ground_assumed
f 281 368 367
g ground_assumed
f 299 364 331
g ground_assumed
f 280 372 281
g ground_assumed
f 369 368 281
g ground_assumed
f 298 364 299
g ground_assumed
f 298 392 364
g ground_assumed
f 279 372 280
g ground_assumed
f 368 392 298
g ground_assumed
f 268 372 279
g ground_assumed
f 268 373 372
g ground_assumed
f 369 392 368
g ground_assumed
f 392 373 268
g ground_assumed
f 392 369 373
g ground_assumed
f 399 398 400
g ground_assumed
f 401 403 402
g ground_assumed
f 376 375 374
