v 2679275.5000298168 1250860.6249958263 452.02905664994171
v 2679275.0648949128 1250860.3634322563 452.02701574249477
v 2679274.9320105268 1250859.6192796945 452.02403154551268
v 2679275.5463409526 1250859.5095778327 452.02521055898478
v 2679275.2500230041 1250858.8749869594 452.02219837489923
v 2679276.2067431407 1250858.6327392841 452.02378071352041
v 2679276.2932624775 1250859.1172475736 452.02572368634657
v 2679276.4999923692 1250859.4999748764 452.02761191478379
v 2679276.8062238116 1250858.2399453744 452.02391565125322
v 2679273.8219773485 1250862.0407062226 452.02980279625393
v 2679272.3380801398 1250862.3056878671 452.02695492446037
v 2679272.171209095 1250861.3712100151 452.02320748577375
v 2679272.7963479673 1250861.2595780736 452.02440724238306
v 2679272.6480121599 1250860.4288975482 452.02107605144352
v 2679271.9536146866 1250860.5528970968 452.01974337510723
v 2679272.0355083016 1250861.0115013414 452.02158246786246
v 2679271.5293831169 1250861.1018808384 452.02061112007232
v 2679271.467577429 1250860.755768985 452.01922314424223
v 2679272.1081763501 1250860.2307052955 452.01899298484898
v 2679271.8918564417 1250859.0193138078 452.01413506883034
v 2679273.9999954142 1250858.7500299185 452.01856187194346
v 2679274.2500151652 1250858.1249859321 452.01697888559755
v 2679271.7499772361 1250858.6250060252 452.01237130105665
v 2679271.1310426537 1250859.0212115403 452.01219880633369
v 2679271.3829019112 1250860.4316233816 452.01785483323499
v 2679270.595515559 1250860.5722280876 452.01634369403081
v 2679270.9609368378 1250862.6185872497 452.02454999329473
v 2679269.5007699076 1250862.8793313445 452.02174766464213
v 2679269.2638919521 1250862.7028681259 452.02051553652024
v 2679268.8010005583 1250862.7855273036 452.0196271625058
v 2679268.6712107696 1250862.0587044873 452.01671246098329
v 2679269.3720691586 1250861.9335512037 452.0180575373214
v 2679269.0831286446 1250860.3154843263 452.01156877325604
v 2679268.4860675829 1250860.4221023731 452.01042290353638
v 2679268.0000152295 1250859.999966935 452.00768126410929
v 2679267.6526698503 1250860.2673595622 452.00774454852711
v 2679267.8473599241 1250861.3576239774 452.01211672133923
v 2679267.3581827823 1250861.1057108075 452.00997209759271
v 2679267.1418628744 1250859.8943193199 452.00511418157402
v 2679267.1459815647 1250859.8646875876 452.00501938436958
v 2679267.2932436797 1250860.3673075114 452.00718185673372
v 2679267.5324312611 1250859.9942392339 452.00646676624331
v 2679267.467530976 1250859.6307976351 452.00500929434037
v 2679267.1829918302 1250859.4173726351 452.00352407884401
v 2679266.9999771989 1250858.3924906978 451.99941410203456
v 2679266.7396406853 1250857.1045321841 451.99417164304208
v 2679267.424312281 1250857.7634851949 451.99826221203307
v 2679267.5757426866 1250858.6114954655 452.00166289843219
v 2679267.7499868525 1250859.0000237911 452.00348878091631
v 2679268.1850937209 1250858.5115928033 452.00286402286918
v 2679268.391364275 1250859.6667079043 452.0074962602036
v 2679270.0423632762 1250859.5370647588 452.01125189849569
v 2679270.1937828986 1250860.3850146472 452.01465234322478
v 2679269.1181870908 1250859.5369181156 452.00889116656498
v 2679268.9350882792 1250858.5115647689 452.0047792993318
v 2679268.9370561708 1250858.3980164696 452.00438075789924
v 2679268.9459527959 1250857.8846769624 452.00257899273169
v 2679268.7500313525 1250857.5000195801 452.00071150804507
v 2679268.2716065887 1250857.8711340553 452.00080867778649
v 2679268.2283469201 1250857.628879911 451.99983719137344
v 2679267.7499674433 1250857.3749762783 451.99771306848078
v 2679266.5038474565 1250857.1466381182 451.9937191128995
v 2679271.5778572364 1250855.7361206072 452.00166420001528
v 2679271.672107676 1250856.2639230692 452.00378079065513
v 2679272.0778751737 1250855.2360983568 452.00116401855968
v 2679272.9459065194 1250855.1346775088 452.00302037845239
v 2679273.0540664736 1250855.7403732527 452.00544933676844
v 2679273.1721075745 1250856.263927382 452.00761158647725
v 2679273.2500051693 1250854.7500179692 452.00242986455356
v 2679266.7500156737 1250856.0000175249 451.99027252882837
v 2679266.5916534564 1250855.6470347715 451.98861354156099
v 2679266.6723158113 1250855.6326307799 451.988768347144
v 2679266.8223783034 1250855.8816106261 451.99003649636342
v 2679266.8797774278 1250855.9768457834 451.99052156547015
v 2679266.8137988849 1250855.6073659449 451.98903987933721
v 2679266.8726717145 1250855.5968529398 451.98915286680955
v 2679266.7187181874 1250854.7347131902 451.98569551860936
v 2679266.6598453587 1250854.7452261953 451.98558253052369
v 2679266.5715253321 1250854.2506340472 451.98359911968203
v 2679266.6252656579 1250854.2410375604 451.98370225695504
v 2679266.6305167694 1250854.2704437838 451.98382018210123
v 2679267.926827461 1250853.42148896 451.98411345662055
v 2679267.4907135 1250853.6980661794 451.98398268248155
v 2679268.0000281688 1250853.375020399 451.98413524433653
v 2679268.5030846335 1250853.5172856201 451.98592560869116
v 2679269.747684279 1250853.3620166201 451.98855228496302
v 2679270.5007863729 1250853.5043055632 451.99098131381726
v 2679272.8539490784 1250853.4494104097 451.99679584127642
v 2679272.5186342653 1250852.8002231859 451.99363218714456
v 2679273.1387010175 1250852.68949698 451.99482220948255
v 2679274.0613024887 1250853.1839448088 451.99893574019046
v 2679274.9961581891 1250852.9783943638 452.00059266774241
v 2679275.236119959 1250853.1721269458 452.0018940496538
v 2679275.7747308691 1250853.0759464258 452.0029277427837
v 2679275.73919152 1250852.8769260724 452.00212963251437
v 2679276.2499726182 1250852.9999918505 452.00387148683012
v 2679276.4999815868 1250852.7499807253 452.00362139640902
v 2679277.1526634549 1250852.8923818073 452.00579436485702
v 2679277.3473535292 1250853.9826462225 452.01016653828253
v 2679277.7629849212 1250854.2476925622 452.01217001386794
v 2679278.0118730734 1250855.3011656324 452.01654983915455
v 2679278.909120298 1250857.1412209552 452.02538110992037
v 2679279.0865172879 1250858.1095215706 452.02927564099133
v 2679279.0715979985 1250858.4195647782 452.03033947969357
v 2679278.7175334478 1250856.630799995 452.02307771205045
v 2679278.4242906887 1250856.8885314399 452.02324482930919
v 2679278.6829559039 1250858.3869527697 452.02923103631514
v 2679278.4999843263 1250858.7499824751 452.03005401589957
v 2679279.305511273 1250859.8732307705 452.03610340672969
v 2679279.4223080659 1250860.5272928074 452.03872632300897
v 2679278.5764715606 1250860.6783350408 452.03710300721502
v 2679278.3586097448 1250859.4583088711 452.03221046368822
v 2679277.6750811022 1250859.5803675575 452.03089864703054
v 2679277.7499682033 1250859.1249829887 452.02947139246493
v 2679277.4999807999 1250859.0000216344 452.02838882985805
v 2679276.9459098424 1250859.5096339018 452.02878505211731
v 2679277.0540697961 1250860.1153296456 452.0312140104333
v 2679276.4999815868 1250859.8750077377 452.0289448100952
v 2679276.2968510501 1250860.0273605683 452.02896752891536
v 2679273.4156146534 1250859.7650751292 452.02067707144738
v 2679266.9705709754 1250858.397741809 451.9993576659557
v 2679272.1721256133 1250855.763900819 452.00328060919952
v 2679268.1031224714 1250854.00747848 451.98664638333355
v 2679267.9962672079 1250853.4090890053 451.98424672474488
v 2679271.8786170851 1250853.6638605376 451.99506717392347
v 2679278.6407205793 1250855.6381825288 452.01935363193479
v 2679273.9999867883 1250859.2499896295 452.02033878129009
v 2679274.4999939422 1250859.125000241 452.02117149514589
v 2679270.5917826337 1250859.4389541594 452.01230633537619
v 2679273.8040739708 1250855.8653324503 452.00780887016316
v 2679271.2492260844 1250853.3706556149 451.99241770706647
v 2679271.0023095566 1250853.1379763917 451.99096014193043
v 2679271.7489399528 1250852.937668599 451.99215500257543
v 2679274.2500108518 1250859.6249858299 452.02231009881774
v 2679270.6721343407 1250859.8889237219 452.01411080123671
v 2679274.7500244766 1250858.5000166367 452.0195887510834
v 2679273.6959140161 1250855.2596367064 452.00537991184711
v 2679275.4567270176 1250859.0077397977 452.02319809069917
v 2679276.9437447023 1250859.0100623637 452.02700397058953
v 2679271.5000221808 1250862.3750262582 452.02506108608952
v 2679271.0000150264 1250862.5000156467 452.02422837223372
v 2679271.4999725809 1250862.0000041788 452.02372807485017
v 2679270.5007863729 1250853.5043055632 452.10110893020681
v 2679269.747684279 1250853.3620166201 452.10134099413136
v 2679271.0023095566 1250853.1379763917 452.10006137969458
v 2679271.2492260844 1250853.3706556149 452.10034558361502
v 2679271.8258112483 1250853.3681478512 452.0999520694092
v 2679271.7489399528 1250852.937668599 452.09917015348339
v 2679271.9759777356 1250852.8971261377 452.09893859375359
v 2679272.5186342653 1250852.8002231859 452.09838512896994
v 2679272.8539490784 1250853.4494104097 452.09941641950746
v 2679271.8786170851 1250853.6638605376 452.10048919754621
v 2679266.5041191773 1250854.7730344422 452.10626017288172
v 2679266.4283996616 1250854.7865557843 452.10633740055454
v 2679266.4242915027 1250854.7635500939 452.10629561311259
v 2679266.0648653316 1250854.4884047997 452.10600500248364
v 2679265.9721567994 1250853.9692370188 452.10506199387459
v 2679266.55804712 1250853.8646137477 452.1044644341298
v 2679266.5595998098 1250853.8733088118 452.10448022793906
v 2679266.6252656579 1250854.2410375604 452.10514816456407
v 2679266.5715253321 1250854.2506340472 452.10520297519753
v 2679266.6598453587 1250854.7452261953 452.10610134478134
v 2679266.8475450273 1250855.7963443405 452.10801058010736
v 2679266.8797774278 1250855.9768457834 452.10833844042531
v 2679266.8223783034 1250855.8816106261 452.10819268397302
v 2679266.6723158113 1250855.6326307799 452.1078116237461
v 2679266.8137988849 1250855.6073659449 452.10766732283417
v 2679267.1829918302 1250859.4173726351 452.11479750790926
v 2679267.467530976 1250859.6307976351 452.11501906102893
v 2679267.5324312611 1250859.9942392339 452.11567921085032
v 2679267.2932436797 1250860.3673075114 452.11656298086723
v 2679267.1459815647 1250859.8646875876 452.11568879423123
v 2679267.1838609818 1250859.5921658452 452.11513545334941
v 2679267.1808310798 1250859.575198394 452.11510463429062
v 2679267.2102373033 1250859.5699472826 452.11507464206215
v 2679275.0185255511 1250852.353814028 452.0958354466747
v 2679276.25229734 1250852.0129942594 452.09434371590237
v 2679276.9835334406 1250851.9248726745 452.0936801428316
v 2679277.9435735508 1250851.809177818 452.09280893781454
v 2679278.0648666746 1250852.4884193118 452.0940427018092
v 2679278.061302979 1250852.6454896335 452.09434931111491
v 2679278.0553068486 1250852.9097697786 452.09486519805364
v 2679278.4446762148 1250855.090238227 452.09882576821246
v 2679278.5908296308 1250855.3587932151 452.0992473756358
v 2679278.6407205793 1250855.6381825288 452.09975485442135
v 2679278.0118730734 1250855.3011656324 452.09952602175963
v 2679277.7629849212 1250854.2476925622 452.09765347059022
v 2679277.3473535292 1250853.9826462225 452.09742030504299
v 2679277.1526634549 1250852.8923818073 452.0954399653732
v 2679276.4999815868 1250852.7499807253 452.09560412186778
v 2679276.2499726182 1250852.9999918505 452.09625685475095
v 2679275.73919152 1250852.8769260724 452.09636280803147
v 2679275.7747308691 1250853.0759464258 452.09672430525586
v 2679275.236119959 1250853.1721269458 452.09727364386168
v 2679274.9961581891 1250852.9783943638 452.09706018239336
v 2679274.0613024887 1250853.1839448088 452.0980884397884
v 2679273.1387010175 1250852.68949698 452.09775271170116
v 2679273.2793316012 1250852.664384376 452.09760928055596
v 2679273.9845375228 1250852.5384547473 452.0968900289252
v 2679278.2883936525 1250854.2150558811 452.09723610036576
v 2679278.6829559039 1250858.3869527697 452.1050500772127
v 2679278.4242906887 1250856.8885314399 452.10232236141252
v 2679278.7175334478 1250856.630799995 452.10162553356832
v 2679279.0715979985 1250858.4195647782 452.10485126744823
v 2679279.066149014 1250858.5328021175 452.10507425341336
v 2679279.305511273 1250859.8732307705 452.1075089872744
v 2679278.4999843263 1250858.7499824751 452.10587651194209
v 2679274.2499806611 1250860.8750112641 452.11285696282391
v 2679273.7499735067 1250861.0000006524 452.11343607529642
v 2679274.2499914435 1250860.4999784029 452.11213060891674
v 2679268.5000072881 1250861.7500103062 452.10004955135878
v 2679267.9999893513 1250862.2500325565 452.09177770432098
v 2679268.0000001336 1250861.8749996948 452.08768975751082
v 2679266.5595998098 1250853.8733088118 452.15100402832195
v 2679266.55804712 1250853.8646137477 452.15100402832195
v 2679267.465534044 1250853.7025625112 452.15100402832195
v 2679267.4907135 1250853.6980661794 452.15100402832195
v 2679267.926827461 1250853.42148896 452.15100402832195
v 2679267.9962672079 1250853.4090890053 452.15100402832195
v 2679268.1031224714 1250854.00747848 452.15100402832195
v 2679267.3350548521 1250854.1446334124 452.15100402832195
v 2679266.6305167694 1250854.2704437838 452.15100402832195
v 2679266.6252656579 1250854.2410375604 452.15100402832195
v 2679266.5916534644 1250855.6470347701 452.11949462873184
v 2679266.575711125 1250855.6114999827 452.11949462873184
v 2679266.4283996616 1250854.7865557843 452.11949462873184
v 2679266.5041191773 1250854.7730344422 452.11949462873184
v 2679266.6598453587 1250854.7452261953 452.11949462873184
v 2679266.7187181874 1250854.7347131902 452.11949462873184
v 2679266.8726717145 1250855.5968529398 452.11949462873184
v 2679266.8137988849 1250855.6073659449 452.11949462873184
v 2679266.6723158113 1250855.6326307799 452.11949462873184
v 2679267.2102373033 1250859.5699472826 452.13951415998946
v 2679267.1808310798 1250859.575198394 452.13951415998946
v 2679267.147955026 1250859.3910924897 452.13951415998946
v 2679266.9705709754 1250858.397741809 452.13951415998946
v 2679266.9999771989 1250858.3924906978 452.13951415998946
v 2679267.1829918302 1250859.4173726351 452.13951415998946
v 2679267.3350548614 1250854.1446334105 451.98517232023306
v 2679267.4907135 1250853.6980661794 446.44416333018165
v 2679268.0000281688 1250853.375020399 446.44416333018165
v 2679268.5030846335 1250853.5172856201 446.44416333018165
v 2679269.7360930163 1250853.2971055517 451.98829197877069
v 2679269.7360930163 1250853.2971055517 446.44416333018165
v 2679270.5278269006 1250853.155724501 451.98981146172366
v 2679270.5278269006 1250853.155724501 446.44416333018165
v 2679270.9907182949 1250853.0730653238 451.9906998357381
v 2679270.9907182949 1250853.0730653238 446.44416333018165
v 2679271.2762666121 1250853.0220745527 451.99124785558627
v 2679271.2762666121 1250853.0220745527 446.44416333018165
v 2679271.7489399528 1250852.937668599 446.44416333018165
v 2679271.825811252 1250853.3681478733 451.99388130843215
v 2679272.7515291399 1250852.7586348157 451.99407915581025
v 2679272.5186342653 1250852.8002231859 446.44416333018165
v 2679272.7515291399 1250852.7586348157 446.44416333018165
v 2679273.1387010175 1250852.68949698 446.44416333018165
v 2679278.6407205793 1250855.6381825288 446.44416333018165
v 2679278.909120298 1250857.1412209552 446.44416333018165
v 2679279.0865172879 1250858.1095215706 446.44416333018165
v 2679279.0715980241 1250858.4195647936 446.44416333018165
v 2679279.305511273 1250859.8732307705 446.44416333018165
v 2679279.4223080659 1250860.5272928074 446.44416333018165
v 2679278.5764715606 1250860.6783350408 446.44416333018165
v 2679278.3586097448 1250859.4583088711 446.44416333018165
v 2679277.6750811022 1250859.5803675575 446.44416333018165
v 2679277.7499682033 1250859.1249829887 446.44416333018165
v 2679277.4999807999 1250859.0000216344 446.44416333018165
v 2679276.9459098424 1250859.5096339018 446.44416333018165
v 2679277.0154466326 1250859.8990399286 452.03034664637454
v 2679277.0154466326 1250859.8990399286 446.44416333018165
v 2679277.0540697961 1250860.1153296456 446.44416333018165
v 2679276.4999815868 1250859.8750077377 446.44416333018165
v 2679276.296851038 1250860.0273605706 446.44416333018165
v 2679275.5000298168 1250860.6249958263 446.44416333018165
v 2679275.0648949128 1250860.3634322563 446.44416333018165
v 2679275.0448069857 1250860.2509398656 452.02656462618296
v 2679275.0448069857 1250860.2509398656 446.44416333018165
v 2679274.9320105268 1250859.6192796945 446.44416333018165
v 2679275.5463409526 1250859.5095778327 446.44416333018165
v 2679275.4567270176 1250859.0077397977 446.44416333018165
v 2679275.2500230041 1250858.8749869594 446.44416333018165
v 2679274.2500108518 1250859.6249858299 446.44416333018165
v 2679273.9999867883 1250859.2499896295 446.44416333018165
v 2679273.4156146534 1250859.7650751292 446.44416333018165
v 2679273.8219773485 1250862.0407062226 446.44416333018165
v 2679273.3883110313 1250862.1181466361 452.02897051114769
v 2679273.3883110313 1250862.1181466361 446.44416333018165
v 2679272.3380801398 1250862.3056878671 446.44416333018165
v 2679272.171209095 1250861.3712100151 446.44416333018165
v 2679272.7963479673 1250861.2595780736 446.44416333018165
v 2679272.6480121599 1250860.4288975482 446.44416333018165
v 2679271.9536146866 1250860.5528970968 446.44416333018165
v 2679272.0355083016 1250861.0115013414 446.44416333018165
v 2679271.5293831169 1250861.1018808384 446.44416333018165
v 2679271.467577429 1250860.755768985 446.44416333018165
v 2679272.1081763501 1250860.2307052955 446.44416333018165
v 2679271.8918564417 1250859.0193138078 446.44416333018165
v 2679271.7499772361 1250858.6250060252 446.44416333018165
v 2679271.1310426537 1250859.0212115403 446.44416333018165
v 2679271.3829019112 1250860.4316233816 446.44416333018165
v 2679270.595515559 1250860.5722280876 446.44416333018165
v 2679270.9609368378 1250862.6185872497 446.44416333018165
v 2679269.5007699076 1250862.8793313445 446.44416333018165
v 2679269.2638919521 1250862.7028681259 446.44416333018165
v 2679268.8248516019 1250862.7812681883 452.01967293688938
v 2679268.8248516019 1250862.7812681883 446.44416333018165
v 2679268.8010005583 1250862.7855273036 446.44416333018165
v 2679268.7361110556 1250862.4221460868 452.01816993288622
v 2679268.7361110556 1250862.4221460868 446.44416333018165
v 2679268.6712107696 1250862.0587044873 446.44416333018165
v 2679269.0783692184 1250861.9859976212 452.01749387332762
v 2679269.0783692184 1250861.9859976212 446.44416333018165
v 2679269.3720691586 1250861.9335512037 446.44416333018165
v 2679269.2726215203 1250861.37664443 452.01582423233884
v 2679269.2726215203 1250861.37664443 446.44416333018165
v 2679269.0831286446 1250860.3154843263 446.44416333018165
v 2679268.4860675829 1250860.4221023731 446.44416333018165
v 2679268.0000152295 1250859.999966935 446.44416333018165
v 2679267.6526698503 1250860.2673595622 446.44416333018165
v 2679267.8473599241 1250861.3576239774 446.44416333018165
v 2679267.3581827823 1250861.1057108075 446.44416333018165
v 2679267.1418628744 1250859.8943193199 446.44416333018165
v 2679267.1459815353 1250859.8646875834 446.44416333018165
v 2679266.9705709754 1250858.397741809 446.44416333018165
v 2679266.7396406853 1250857.1045321841 446.44416333018165
v 2679266.5038474565 1250857.1466381182 446.44416333018165
v 2679266.7500156737 1250856.0000175249 446.44416333018165
v 2679266.5916534644 1250855.6470347701 446.44416333018165
v 2679266.8475450282 1250855.7963443457 451.98979771965588
v 2679270.6721343407 1250859.8889237219 446.44416333018165
v 2679270.5917826337 1250859.4389541594 446.44416333018165
v 2679270.1356540672 1250859.5204056888 452.0114309403902
v 2679270.1356540672 1250859.5204056888 446.44416333018165
v 2679270.0423632762 1250859.5370647588 446.44416333018165
v 2679270.0785172316 1250859.7395269091 452.01206381094357
v 2679270.0785172316 1250859.7395269091 446.44416333018165
v 2679270.1937828986 1250860.3850146472 446.44416333018165
v 2679267.7499868525 1250859.0000237911 446.44416333018165
v 2679268.1850937209 1250858.5115928033 446.44416333018165
v 2679268.391364275 1250859.6667079043 446.44416333018165
v 2679269.1181870908 1250859.5369181156 446.44416333018165
v 2679268.9350882792 1250858.5115647689 446.44416333018165
v 2679268.9370561927 1250858.3980164449 446.44416333018165
v 2679268.9459527959 1250857.8846769624 446.44416333018165
v 2679268.7500313525 1250857.5000195801 446.44416333018165
v 2679268.2716065887 1250857.8711340553 446.44416333018165
v 2679268.2283469201 1250857.628879911 446.44416333018165
v 2679267.7499674433 1250857.3749762783 446.44416333018165
v 2679267.424312281 1250857.7634851949 446.44416333018165
v 2679267.5757426866 1250858.6114954655 446.44416333018165
v 2679271.6720968937 1250856.2638626867 452.00378054898516
v 2679271.6720968937 1250856.2638626867 446.44416333018165
v 2679271.672107676 1250856.2639230692 446.44416333018165
v 2679272.1721256133 1250855.763900819 446.44416333018165
v 2679272.0778751737 1250855.2360983568 446.44416333018165
v 2679271.5778572364 1250855.7361206072 446.44416333018165
v 2679273.6959140161 1250855.2596367064 446.44416333018165
v 2679273.2500051693 1250854.7500179692 446.44416333018165
v 2679272.9659324032 1250855.1093464238 452.00298149166389
v 2679272.9659324032 1250855.1093464238 446.44416333018165
v 2679272.9459065194 1250855.1346775088 446.44416333018165
v 2679273.0540664736 1250855.7403732527 446.44416333018165
v 2679273.1721075745 1250856.263927382 446.44416333018165
v 2679273.8040739708 1250855.8653324503 446.44416333018165
v 2679273.9999954142 1250858.7500299185 446.44416333018165
v 2679274.4999939422 1250859.125000241 446.44416333018165
v 2679274.7500244766 1250858.5000166367 446.44416333018165
v 2679274.2500151652 1250858.1249859321 446.44416333018165
v 2679276.8062238116 1250858.2399453744 446.44416333018165
v 2679276.2067431407 1250858.6327392841 446.44416333018165
v 2679276.2932624775 1250859.1172475736 446.44416333018165
v 2679276.4999923692 1250859.4999748764 446.44416333018165
v 2679276.9437447023 1250859.0100623637 446.44416333018165
v 2679271.4999725809 1250862.0000041788 446.44416333018165
v 2679271.5000221808 1250862.3750262582 446.44416333018165
v 2679271.0000150264 1250862.5000156467 446.44416333018165
v 2679271.9759777356 1250852.8971261377 446.44416333018165
v 2679266.4283996616 1250854.7865557843 446.44416333018165
v 2679266.4242915027 1250854.7635500939 446.44416333018165
v 2679266.0648653316 1250854.4884047997 446.44416333018165
v 2679265.9721567994 1250853.9692370188 446.44416333018165
v 2679266.55804712 1250853.8646137477 446.44416333018165
v 2679267.1838609818 1250859.5921658452 446.44416333018165
v 2679267.1808310798 1250859.575198394 446.44416333018165
v 2679276.25229734 1250852.0129942594 446.44416333018165
v 2679276.983533436 1250851.9248727034 446.44416333018165
v 2679277.9435735508 1250851.809177818 446.44416333018165
v 2679278.0648666746 1250852.4884193118 446.44416333018165
v 2679278.0613029967 1250852.6454896287 446.44416333018165
v 2679278.0553068486 1250852.9097697786 446.44416333018165
v 2679278.2883936525 1250854.2150558811 446.44416333018165
v 2679278.4446762148 1250855.090238227 446.44416333018165
v 2679278.5908296308 1250855.3587932151 446.44416333018165
v 2679273.2793316012 1250852.664384376 446.44416333018165
v 2679273.9845375228 1250852.5384547473 446.44416333018165
v 2679275.0185255511 1250852.353814028 446.44416333018165
v 2679279.066149014 1250858.5328021175 446.44416333018165
v 2679274.2499914435 1250860.4999784029 446.44416333018165
v 2679274.2499806611 1250860.8750112641 446.44416333018165
v 2679273.7499735067 1250861.0000006524 446.44416333018165
v 2679268.0000001336 1250861.8749996948 446.44416333018165
v 2679268.5000072881 1250861.7500103062 446.44416333018165
v 2679267.9999893513 1250862.2500325565 446.44416333018165
v 2679267.465534044 1250853.7025625112 446.44416333018165
v 2679266.575711125 1250855.6114999827 446.44416333018165
v 2679267.147955026 1250859.3910924897 446.44416333018165
l 1 2
l 2 276
l 3 276
l 3 4
l 6 7
l 7 8
l 6 9
l 10 286
l 11 286
l 11 12
l 12 13
l 13 14
l 15 16
l 16 17
l 17 18
l 18 19
l 19 20
l 21 22
l 20 23
l 24 25
l 25 26
l 26 27
l 27 28
l 28 29
l 29 305
l 30 305
l 30 308
l 31 308
l 31 311
l 32 311
l 33 34
l 34 35
l 36 37
l 37 38
l 38 39
l 39 40
l 40 41
l 41 42
l 43 44
l 44 45
l 47 48
l 48 49
l 49 50
l 50 51
l 52 335
l 53 335
l 54 55
l 55 56
l 56 57
l 58 59
l 59 60
l 60 61
l 47 61
l 46 62
l 63 351
l 64 351
l 66 67
l 67 68
l 69 359
l 66 359
l 63 65
l 62 70
l 70 71
l 71 72
l 72 73
l 73 74
l 74 329
l 75 329
l 75 76
l 77 78
l 78 79
l 79 80
l 80 81
l 82 83
l 83 84
l 86 87
l 88 89
l 89 253
l 90 253
l 90 91
l 91 92
l 92 93
l 94 95
l 95 96
l 96 97
l 97 98
l 98 99
l 99 100
l 100 101
l 102 103
l 103 104
l 104 105
l 106 107
l 107 108
l 108 109
l 109 110
l 110 111
l 111 112
l 112 113
l 113 114
l 114 115
l 116 269
l 117 269
l 117 118
l 118 119
l 1 119
l 10 120
l 14 15
l 32 314
l 33 314
l 42 43
l 45 121
l 46 121
l 65 122
l 76 77
l 81 239
l 123 239
l 82 124
l 84 85
l 88 125
l 93 94
l 102 126
l 105 106
l 115 116
l 120 127
l 21 128
l 35 36
l 129 332
l 52 332
l 51 54
l 57 58
l 64 122
l 68 130
l 123 124
l 87 131
l 131 132
l 86 132
l 85 243
l 243 245
l 245 247
l 247 249
l 133 249
l 133 252
l 125 252
l 101 126
l 127 134
l 53 135
l 5 134
l 128 136
l 22 136
l 129 135
l 69 137
l 5 138
l 23 24
l 130 137
l 4 138
l 8 139
l 9 139
l 140 141
l 141 142
l 140 142
l 143 144
l 144 145
l 145 146
l 143 146
l 147 148
l 148 149
l 149 150
l 150 151
l 151 152
l 147 152
l 153 154
l 154 155
l 155 156
l 156 157
l 157 158
l 158 159
l 159 160
l 160 161
l 161 162
l 153 162
l 163 164
l 164 165
l 165 166
l 166 167
l 163 167
l 168 169
l 169 170
l 170 171
l 171 172
l 172 173
l 173 174
l 174 175
l 168 175
l 176 177
l 177 178
l 178 179
l 179 180
l 180 181
l 181 182
l 183 184
l 184 185
l 185 186
l 186 187
l 187 188
l 188 189
l 190 191
l 191 192
l 192 193
l 193 194
l 194 195
l 195 196
l 196 197
l 197 198
l 198 199
l 176 199
l 183 200
l 182 200
l 189 190
l 201 202
l 202 203
l 203 204
l 204 205
l 205 206
l 206 207
l 201 207
l 208 209
l 209 210
l 208 210
l 211 212
l 212 213
l 211 213
l 214 215
l 215 216
l 216 217
l 217 218
l 218 219
l 219 220
l 220 221
l 221 222
l 222 223
l 214 223
l 224 225
l 225 226
l 226 227
l 227 228
l 228 229
l 229 230
l 230 231
l 231 232
l 224 232
l 233 234
l 234 235
l 235 236
l 236 237
l 237 238
l 233 238
l 76 230
l 75 167
l 77 229
l 78 162
l 79 161
l 80 160
l 81 222
l 123 220
l 124 219
l 82 218
l 83 217
l 83 240
l 240 241
l 84 241
l 241 242
l 85 242
l 242 244
l 244 246
l 246 248
l 248 250
l 250 251
l 133 148
l 125 152
l 88 151
l 89 150
l 254 255
l 255 256
l 91 196
l 90 197
l 92 195
l 93 194
l 94 193
l 95 192
l 96 191
l 97 190
l 98 189
l 99 188
l 100 187
l 101 186
l 126 185
l 257 258
l 258 259
l 103 259
l 259 260
l 105 203
l 104 204
l 106 202
l 107 201
l 108 207
l 109 206
l 261 262
l 110 262
l 262 263
l 111 263
l 263 264
l 112 264
l 264 265
l 113 265
l 265 266
l 114 266
l 266 267
l 115 267
l 267 268
l 116 268
l 268 270
l 270 271
l 117 271
l 271 272
l 118 272
l 272 273
l 273 274
l 1 274
l 274 275
l 2 275
l 275 277
l 277 278
l 3 278
l 278 279
l 4 279
l 279 280
l 138 280
l 280 281
l 5 281
l 281 282
l 134 282
l 282 283
l 127 283
l 283 284
l 120 284
l 284 285
l 10 285
l 285 287
l 287 288
l 11 288
l 288 289
l 12 289
l 289 290
l 13 290
l 290 291
l 14 291
l 291 292
l 15 292
l 292 293
l 16 293
l 293 294
l 17 294
l 294 295
l 18 295
l 295 296
l 19 296
l 296 297
l 297 298
l 23 298
l 298 299
l 24 299
l 299 300
l 25 300
l 300 301
l 26 301
l 301 302
l 27 302
l 302 303
l 28 303
l 303 304
l 29 304
l 304 306
l 306 307
l 30 307
l 307 309
l 309 310
l 31 310
l 310 312
l 312 313
l 32 313
l 313 315
l 315 316
l 33 316
l 316 317
l 34 317
l 317 318
l 35 318
l 318 319
l 36 319
l 319 320
l 37 320
l 320 321
l 38 321
l 321 322
l 39 322
l 322 323
l 41 171
l 40 172
l 42 170
l 43 169
l 44 168
l 45 237
l 121 236
l 324 325
l 46 325
l 325 326
l 62 326
l 326 327
l 70 327
l 327 328
l 72 166
l 71 224
l 74 164
l 135 330
l 330 331
l 129 331
l 331 333
l 333 334
l 52 334
l 334 336
l 336 337
l 53 337
l 330 337
l 49 338
l 338 339
l 50 339
l 339 340
l 51 340
l 340 341
l 54 341
l 341 342
l 55 342
l 342 343
l 343 344
l 57 344
l 344 345
l 58 345
l 345 346
l 59 346
l 346 347
l 60 347
l 347 348
l 61 348
l 348 349
l 47 349
l 349 350
l 48 350
l 338 350
l 86 144
l 132 145
l 87 143
l 131 146
l 352 353
l 64 353
l 353 354
l 122 354
l 354 355
l 65 355
l 355 356
l 63 356
l 352 356
l 137 357
l 357 358
l 69 358
l 358 360
l 360 361
l 66 361
l 361 362
l 362 363
l 68 363
l 363 364
l 130 364
l 357 364
l 21 365
l 365 366
l 128 366
l 366 367
l 136 367
l 367 368
l 22 368
l 365 368
l 9 369
l 369 370
l 6 370
l 370 371
l 7 371
l 371 372
l 8 372
l 372 373
l 139 373
l 369 373
l 142 374
l 374 375
l 140 375
l 375 376
l 141 376
l 374 376
l 251 377
l 254 377
l 378 379
l 155 379
l 379 380
l 156 380
l 380 381
l 157 381
l 381 382
l 158 215
l 154 226
l 323 383
l 173 383
l 383 384
l 175 233
l 174 234
l 385 386
l 386 387
l 179 387
l 387 388
l 180 388
l 388 389
l 389 390
l 182 390
l 390 391
l 391 392
l 183 392
l 392 393
l 184 393
l 257 393
l 256 394
l 394 395
l 395 396
l 385 396
l 260 397
l 205 397
l 261 397
l 210 398
l 398 399
l 208 399
l 399 400
l 209 400
l 398 400
l 213 401
l 401 402
l 211 402
l 402 403
l 212 403
l 401 403
l 382 404
l 240 404
l 225 405
l 378 405
l 328 405
l 324 406
l 384 406
