# XYZ-only planar convex-roof baseline. Provisional base; no GT.
v 9.41912984 -3.99418797 5.00465161
v 11.56526069 0.29807373 5.01722610
v 11.56526069 0.53653271 5.01797427
v 10.84988374 1.01345068 5.01976813
v 1.54998339 5.66340085 5.03822521
v -7.51145798 7.21338425 5.04685691
v -7.98837594 6.49800730 5.04481074
v -8.70375289 5.18648289 5.04099333
v -11.08834273 0.41730322 5.02702167
v -11.32680171 -0.29807373 5.02487633
v -10.84988374 -0.77499170 5.02318165
v -8.70375289 -1.96728661 5.01854824
v -1.54998339 -5.54417136 5.00435048
v 7.74991696 -7.21338425 4.99524553
v 9.41912984 -3.99418797 -6.11703251
v 11.56526069 0.29807373 -6.11703251
v 11.56526069 0.53653271 -6.11703251
v 10.84988374 1.01345068 -6.11703251
v 1.54998339 5.66340085 -6.11703251
v -7.51145798 7.21338425 -6.11703251
v -7.98837594 6.49800730 -6.11703251
v -8.70375289 5.18648289 -6.11703251
v -11.08834273 0.41730322 -6.11703251
v -11.32680171 -0.29807373 -6.11703251
v -10.84988374 -0.77499170 -6.11703251
v -8.70375289 -1.96728661 -6.11703251
v -1.54998339 -5.54417136 -6.11703251
v 7.74991696 -7.21338425 -6.11703251
g roof
f 1 2 3 4 5 6 7 8 9 10 11 12 13 14
g wall
f 2 1 15 16
g wall
f 3 2 16 17
g wall
f 4 3 17 18
g wall
f 5 4 18 19
g wall
f 6 5 19 20
g wall
f 7 6 20 21
g wall
f 8 7 21 22
g wall
f 9 8 22 23
g wall
f 10 9 23 24
g wall
f 11 10 24 25
g wall
f 12 11 25 26
g wall
f 13 12 26 27
g wall
f 14 13 27 28
g wall
f 1 14 28 15
g ground_assumed
f 28 27 26 25 24 23 22 21 20 19 18 17 16 15
