# XYZ-only planar convex-roof baseline. Provisional base; no GT.
v 13.97497891 -3.18994084 0.02426876
v 14.58258669 -2.27852917 0.00373960
v 14.58258669 1.97472528 -0.09032298
v 13.97497891 2.27852917 -0.09666885
v 12.15215557 2.58233306 -0.10226894
v -2.43043111 3.18994084 -0.10675713
v -12.75976335 3.18994084 -0.10041802
v -13.97497891 2.88613695 -0.09295349
v -13.36737113 -2.27852917 0.02089247
v -9.72172446 -2.88613695 0.03209265
v 0.00000000 -3.18994084 0.03284519
v 12.75976335 -3.49374473 0.03173329
v 13.97497891 -3.18994084 -0.35892382
v 14.58258669 -2.27852917 -0.35892382
v 14.58258669 1.97472528 -0.35892382
v 13.97497891 2.27852917 -0.35892382
v 12.15215557 2.58233306 -0.35892382
v -2.43043111 3.18994084 -0.35892382
v -12.75976335 3.18994084 -0.35892382
v -13.97497891 2.88613695 -0.35892382
v -13.36737113 -2.27852917 -0.35892382
v -9.72172446 -2.88613695 -0.35892382
v 0.00000000 -3.18994084 -0.35892382
v 12.75976335 -3.49374473 -0.35892382
g roof
f 1 2 3 4 5 6 7 8 9 10 11 12
g wall
f 2 1 13 14
g wall
f 3 2 14 15
g wall
f 4 3 15 16
g wall
f 5 4 16 17
g wall
f 6 5 17 18
g wall
f 7 6 18 19
g wall
f 8 7 19 20
g wall
f 9 8 20 21
g wall
f 10 9 21 22
g wall
f 11 10 22 23
g wall
f 12 11 23 24
g wall
f 1 12 24 13
g ground_assumed
f 24 23 22 21 20 19 18 17 16 15 14 13
