# Source coordinates; no display transform
v 0.103644521453 0.305248651694 0.276442793603
v -0.374826736145 0.0214811838113 0.275206542882
v -0.0638796117706 -0.498766876702 -0.000541141453131
v 0.490247167126 -0.167570777182 0.0018950955095
v 0.337777730604 0.0875270269358 0.137104881158
v 0.331364716201 0.105977473155 0.145822030471
v 0.251335905714 0.0581450440205 0.145470181128
v -0.012915555879 0.500266226704 0.175021086387
v -0.49041355457 0.214870391799 0.174630002639
v -0.0638796117706 -0.498766876702 -0.276148553758
v 0.490247167126 -0.167570777182 -0.276148553758
v 0.337777730604 0.0875270269358 -0.276148553758
v 0.331364716201 0.105977473155 -0.276148553758
v 0.251335905714 0.0581450440205 -0.276148553758
v 0.103644521453 0.305248651694 -0.276148553758
v -0.374826736145 0.0214811838113 -0.276148553758
v -0.012915555879 0.500266226704 -0.276148553758
v -0.49041355457 0.214870391799 -0.276148553758
g roof
f 1 2 3
g roof
f 3 4 5
g roof
f 3 5 6
g roof
f 3 6 7
g roof
f 3 7 1
g roof
f 8 9 2
g roof
f 8 2 1
g facade_completed
f 4 3 10 11
g facade_completed
f 5 4 11 12
g facade_completed
f 6 5 12 13
g facade_completed
f 7 6 13 14
g facade_completed
f 1 7 14 15
g facade_completed
f 3 2 16 10
g facade_completed
f 8 1 15 17
g facade_completed
f 9 8 17 18
g facade_completed
f 2 9 18 16
g ground_assumed
f 16 11 10
g ground_assumed
f 12 14 13
g ground_assumed
f 15 18 17
g ground_assumed
f 15 16 18
g ground_assumed
f 11 14 12
g ground_assumed
f 14 16 15
g ground_assumed
f 14 11 16
