# pointcloud_to_mesh 0.5.1; candidate requires geometry validation; coordinates preserved
v 2.077030091 6.026556301 5.460367705
v -7.381149284 0.417183597 5.435930122
v -1.234502789 -9.866818624 -0.014911531
v 9.719196912 -3.319900564 0.033246777
v 6.705257711 1.722744634 2.706005873
v 6.578488465 2.087463783 2.878322100
v 4.996519156 1.141936361 2.871366919
v -0.227070943 9.881565722 3.455514364
v -9.666011425 4.240004277 3.447783617
v -1.234502789 -9.866818624 -5.462980357
v 9.719196912 -3.319900564 -5.462980357
v 6.705257711 1.722744634 -5.462980357
v 6.578488465 2.087463783 -5.462980357
v 4.996519156 1.141936361 -5.462980357
v 2.077030091 6.026556301 -5.462980357
v -7.381149284 0.417183597 -5.462980357
v -0.227070943 9.881565722 -5.462980357
v -9.666011425 4.240004277 -5.462980357
g roof
f 1 2 3
g roof
f 3 4 5
g roof
f 3 5 6
g roof
f 3 6 7
g roof
f 3 7 1
g roof
f 8 9 2
g roof
f 8 2 1
g facade_completed
f 4 3 10 11
g facade_completed
f 5 4 11 12
g facade_completed
f 6 5 12 13
g facade_completed
f 7 6 13 14
g facade_completed
f 1 7 14 15
g facade_completed
f 3 2 16 10
g facade_completed
f 8 1 15 17
g facade_completed
f 9 8 17 18
g facade_completed
f 2 9 18 16
g ground_assumed
f 16 11 10
g ground_assumed
f 12 14 13
g ground_assumed
f 15 18 17
g ground_assumed
f 15 16 18
g ground_assumed
f 11 14 12
g ground_assumed
f 14 16 15
g ground_assumed
f 14 11 16
