# XYZ-only planar convex-roof baseline. Provisional base; no GT.
v 13.00299863 -5.89198375 -0.00572874
v 13.61251419 -3.96185114 -0.04355886
v 13.20617048 -3.75867929 -0.04463007
v 11.17445194 -2.84440595 -0.04819357
v 7.92370229 -1.52378890 -0.05138554
v -11.58079565 6.09515561 -0.06515959
v -12.39348306 6.29832746 -0.06371685
v -12.59665492 5.89198375 -0.05528952
v -13.00299863 4.97771041 -0.03664226
v -13.40934233 3.86026522 -0.01440983
v -13.40934233 3.55550744 -0.00903207
v -12.59665492 2.94599188 -0.00330446
v -8.93956155 1.52378890 -0.00083386
v 0.60951556 -2.13330446 0.00462126
v 6.50149931 -4.36819485 0.00760579
v 10.97128009 -5.99356968 0.00863364
v 11.58079565 -6.19674153 0.00844788
v 12.19031121 -6.29832746 0.00646953
v 12.79982677 -6.19674153 0.00090600
v 13.00299863 -5.89198375 -0.16800546
v 13.61251419 -3.96185114 -0.16800546
v 13.20617048 -3.75867929 -0.16800546
v 11.17445194 -2.84440595 -0.16800546
v 7.92370229 -1.52378890 -0.16800546
v -11.58079565 6.09515561 -0.16800546
v -12.39348306 6.29832746 -0.16800546
v -12.59665492 5.89198375 -0.16800546
v -13.00299863 4.97771041 -0.16800546
v -13.40934233 3.86026522 -0.16800546
v -13.40934233 3.55550744 -0.16800546
v -12.59665492 2.94599188 -0.16800546
v -8.93956155 1.52378890 -0.16800546
v 0.60951556 -2.13330446 -0.16800546
v 6.50149931 -4.36819485 -0.16800546
v 10.97128009 -5.99356968 -0.16800546
v 11.58079565 -6.19674153 -0.16800546
v 12.19031121 -6.29832746 -0.16800546
v 12.79982677 -6.19674153 -0.16800546
g roof
f 1 2 3 4 5 6 7 8 9 10 11 12 13 14 15 16 17 18 19
g wall
f 2 1 20 21
g wall
f 3 2 21 22
g wall
f 4 3 22 23
g wall
f 5 4 23 24
g wall
f 6 5 24 25
g wall
f 7 6 25 26
g wall
f 8 7 26 27
g wall
f 9 8 27 28
g wall
f 10 9 28 29
g wall
f 11 10 29 30
g wall
f 12 11 30 31
g wall
f 13 12 31 32
g wall
f 14 13 32 33
g wall
f 15 14 33 34
g wall
f 16 15 34 35
g wall
f 17 16 35 36
g wall
f 18 17 36 37
g wall
f 19 18 37 38
g wall
f 1 19 38 20
g ground_assumed
f 38 37 36 35 34 33 32 31 30 29 28 27 26 25 24 23 22 21 20
