# Source coordinates; no display transform
v 2679284 1249561.25 401.637939883
v 2679284.75 1249563.625 401.591390472
v 2679284.25 1249563.875 401.590072364
v 2679281.75 1249565 401.585687529
v 2679277.75 1249566.625 401.581759857
v 2679253.75 1249576 401.564811089
v 2679252.75 1249576.25 401.56658636
v 2679252.5 1249575.75 401.576956066
v 2679252 1249574.625 401.599901248
v 2679251.5 1249573.25 401.627257928
v 2679251.5 1249572.875 401.633875183
v 2679252.5 1249572.125 401.640922924
v 2679257 1249570.375 401.643962961
v 2679268.75 1249565.875 401.650675407
v 2679276 1249563.125 401.654347827
v 2679281.5 1249561.125 401.655612582
v 2679282.25 1249560.875 401.655384007
v 2679283 1249560.75 401.652949676
v 2679283.75 1249560.875 401.646103833
v 2679284 1249561.25 401.438260748
v 2679284.75 1249563.625 401.438260748
v 2679284.25 1249563.875 401.438260748
v 2679281.75 1249565 401.438260748
v 2679277.75 1249566.625 401.438260748
v 2679253.75 1249576 401.438260748
v 2679252.75 1249576.25 401.438260748
v 2679252.5 1249575.75 401.438260748
v 2679252 1249574.625 401.438260748
v 2679251.5 1249573.25 401.438260748
v 2679251.5 1249572.875 401.438260748
v 2679252.5 1249572.125 401.438260748
v 2679257 1249570.375 401.438260748
v 2679268.75 1249565.875 401.438260748
v 2679276 1249563.125 401.438260748
v 2679281.5 1249561.125 401.438260748
v 2679282.25 1249560.875 401.438260748
v 2679283 1249560.75 401.438260748
v 2679283.75 1249560.875 401.438260748
g roof
f 1 2 3 4 5 6 7 8 9 10 11 12 13 14 15 16 17 18 19
g wall
f 2 1 20 21
g wall
f 3 2 21 22
g wall
f 4 3 22 23
g wall
f 5 4 23 24
g wall
f 6 5 24 25
g wall
f 7 6 25 26
g wall
f 8 7 26 27
g wall
f 9 8 27 28
g wall
f 10 9 28 29
g wall
f 11 10 29 30
g wall
f 12 11 30 31
g wall
f 13 12 31 32
g wall
f 14 13 32 33
g wall
f 15 14 33 34
g wall
f 16 15 34 35
g wall
f 17 16 35 36
g wall
f 18 17 36 37
g wall
f 19 18 37 38
g wall
f 1 19 38 20
g ground_assumed
f 38 37 36 35 34 33 32 31 30 29 28 27 26 25 24 23 22 21 20
