v 2679284.0000000061 1249561.2500000026 401.6379398827255
v 2679284.7500000051 1249563.6250000044 401.59139047228194
v 2679284.2500000014 1249563.875 401.59007236401368
v 2679281.7499999958 1249564.9999999991 401.58568752928102
v 2679277.7500000033 1249566.6250000016 401.58175985679009
v 2679253.7500000005 1249576.0000000056 401.5648110893286
v 2679252.7500000056 1249576.2500000012 401.56658635983854
v 2679252.4999999977 1249575.7499999974 401.57695606638754
v 2679251.9999999939 1249574.6249999986 401.59990124761845
v 2679251.5000000028 1249573.250000004 401.62725792820072
v 2679251.5000000028 1249572.8750000042 401.6338751833801
v 2679252.4999999977 1249572.1250000049 401.64092292387761
v 2679257.0000000061 1249570.3749999984 401.64396296111363
v 2679268.7499999995 1249565.8750000023 401.65067540664376
v 2679275.9999999967 1249563.1250000007 401.65434782724276
v 2679281.5 1249561.1249999986 401.65561258166395
v 2679282.2499999995 1249560.8750000028 401.65538400669556
v 2679282.9999999986 1249560.7499999988 401.65294967589904
v 2679283.7499999981 1249560.8750000028 401.64610383344643
v 2679284.0000000061 1249561.2500000026 401.43826074756237
v 2679284.7500000051 1249563.6250000044 401.43826074756237
v 2679284.2500000014 1249563.875 401.43826074756237
v 2679281.7499999958 1249564.9999999991 401.43826074756237
v 2679277.7500000033 1249566.6250000016 401.43826074756237
v 2679253.7500000005 1249576.0000000056 401.43826074756237
v 2679252.7500000056 1249576.2500000012 401.43826074756237
v 2679252.4999999977 1249575.7499999974 401.43826074756237
v 2679251.9999999939 1249574.6249999986 401.43826074756237
v 2679251.5000000028 1249573.250000004 401.43826074756237
v 2679251.5000000028 1249572.8750000042 401.43826074756237
v 2679252.4999999977 1249572.1250000049 401.43826074756237
v 2679257.0000000061 1249570.3749999984 401.43826074756237
v 2679268.7499999995 1249565.8750000023 401.43826074756237
v 2679275.9999999967 1249563.1250000007 401.43826074756237
v 2679281.5 1249561.1249999986 401.43826074756237
v 2679282.2499999995 1249560.8750000028 401.43826074756237
v 2679282.9999999986 1249560.7499999988 401.43826074756237
v 2679283.7499999981 1249560.8750000028 401.43826074756237
l 1 2
l 2 3
l 3 4
l 4 5
l 5 6
l 6 7
l 7 8
l 8 9
l 9 10
l 10 11
l 11 12
l 12 13
l 13 14
l 14 15
l 15 16
l 16 17
l 17 18
l 18 19
l 1 19
l 1 20
l 20 21
l 2 21
l 21 22
l 22 23
l 23 24
l 24 25
l 25 26
l 7 26
l 26 27
l 27 28
l 28 29
l 10 29
l 29 30
l 11 30
l 30 31
l 12 31
l 31 32
l 32 33
l 33 34
l 34 35
l 35 36
l 36 37
l 18 37
l 37 38
l 19 38
l 20 38
