# XYZ-only planar convex-roof baseline. Provisional base; no GT.
v 7.44353915 -7.32229276 5.75361818
v 7.63527951 -6.82384890 5.75365964
v 7.82134468 -6.24254726 5.75369987
v 8.77193907 -3.25172193 5.75390541
v 10.08817786 0.90584146 5.75419001
v 10.28753919 1.57170344 5.75423311
v 10.37104557 1.95940001 5.75425116
v 10.37112664 2.06617466 5.75425118
v 10.28778242 2.15324830 5.75423315
v 3.94105488 5.93235757 5.75286012
v 3.73699125 6.03751074 5.75281597
v 3.45015091 6.14801480 5.75275392
v -0.33284992 7.33510248 5.75193556
v -7.34811488 7.65542644 5.75041802
v -7.49202149 7.64804869 5.75038689
v -7.52128926 7.62405074 5.75038056
v -7.61395701 7.35123623 5.75036052
v -7.90014875 6.44969171 5.75029864
v -8.74753575 3.75332769 5.75011542
v -10.34145350 -1.42349989 5.74977079
v -10.37112664 -1.55759653 5.74976438
v -10.37112664 -1.66542515 5.74976438
v -10.37104557 -1.78971182 5.74976440
v -5.98452878 -5.21574317 5.75071339
v -5.79943650 -5.28814239 5.75075343
v -2.87614594 -6.22503524 5.75138582
v 1.66343883 -7.65104843 5.75236785
v 1.85250375 -7.65542644 5.75240875
v 7.44353915 -7.32229276 -7.56788638
v 7.63527951 -6.82384890 -7.56788638
v 7.82134468 -6.24254726 -7.56788638
v 8.77193907 -3.25172193 -7.56788638
v 10.08817786 0.90584146 -7.56788638
v 10.28753919 1.57170344 -7.56788638
v 10.37104557 1.95940001 -7.56788638
v 10.37112664 2.06617466 -7.56788638
v 10.28778242 2.15324830 -7.56788638
v 3.94105488 5.93235757 -7.56788638
v 3.73699125 6.03751074 -7.56788638
v 3.45015091 6.14801480 -7.56788638
v -0.33284992 7.33510248 -7.56788638
v -7.34811488 7.65542644 -7.56788638
v -7.49202149 7.64804869 -7.56788638
v -7.52128926 7.62405074 -7.56788638
v -7.61395701 7.35123623 -7.56788638
v -7.90014875 6.44969171 -7.56788638
v -8.74753575 3.75332769 -7.56788638
v -10.34145350 -1.42349989 -7.56788638
v -10.37112664 -1.55759653 -7.56788638
v -10.37112664 -1.66542515 -7.56788638
v -10.37104557 -1.78971182 -7.56788638
v -5.98452878 -5.21574317 -7.56788638
v -5.79943650 -5.28814239 -7.56788638
v -2.87614594 -6.22503524 -7.56788638
v 1.66343883 -7.65104843 -7.56788638
v 1.85250375 -7.65542644 -7.56788638
g roof
f 1 2 3 4 5 6 7 8 9 10 11 12 13 14 15 16 17 18 19 20 21 22 23 24 25 26 27 28
g wall
f 2 1 29 30
g wall
f 3 2 30 31
g wall
f 4 3 31 32
g wall
f 5 4 32 33
g wall
f 6 5 33 34
g wall
f 7 6 34 35
g wall
f 8 7 35 36
g wall
f 9 8 36 37
g wall
f 10 9 37 38
g wall
f 11 10 38 39
g wall
f 12 11 39 40
g wall
f 13 12 40 41
g wall
f 14 13 41 42
g wall
f 15 14 42 43
g wall
f 16 15 43 44
g wall
f 17 16 44 45
g wall
f 18 17 45 46
g wall
f 19 18 46 47
g wall
f 20 19 47 48
g wall
f 21 20 48 49
g wall
f 22 21 49 50
g wall
f 23 22 50 51
g wall
f 24 23 51 52
g wall
f 25 24 52 53
g wall
f 26 25 53 54
g wall
f 27 26 54 55
g wall
f 28 27 55 56
g wall
f 1 28 56 29
g ground_assumed
f 56 55 54 53 52 51 50 49 48 47 46 45 44 43 42 41 40 39 38 37 36 35 34 33 32 31 30 29
