# XYZ-only planar convex-roof baseline. Provisional base; no GT.
v -7.11599528 -10.82207019 4.72737619
v -6.86523670 -10.94925091 4.72541034
v -5.95155314 -11.01410226 4.71855218
v -2.44597701 -11.21694290 4.69227428
v -0.39054928 -11.24756715 4.67693426
v 3.22239187 -11.29008082 4.64997889
v 5.03895043 -11.23639830 4.63648333
v 5.81824757 -11.10453388 4.63077700
v 5.96056027 -10.87467185 4.62989227
v 6.33273501 -5.78852403 4.63100784
v 7.10878958 4.84637793 4.63335642
v 7.48997144 10.67039007 4.63496905
v 7.48925087 10.70425689 4.63500031
v 6.59466243 10.95933889 4.64186163
v 5.95011200 11.11858500 4.64678645
v 5.04939871 11.15137097 4.65352344
v 2.96154530 11.20036977 4.66911914
v 1.28009373 11.23964087 4.68167899
v -0.40099756 11.25657428 4.69421907
v -3.49224557 11.24900829 4.71724860
v -5.81896814 11.15353268 4.73451384
v -6.33813928 10.59581101 4.73795615
v -6.72292400 4.66587499 4.73628938
v -6.86019271 1.92338316 4.73521533
v -7.11887757 -3.72517003 4.73282404
v -7.11671585 -9.11756036 4.72868485
v -7.11635557 -9.97792169 4.72802432
v -7.11599528 -10.82207019 -6.16073480
v -6.86523670 -10.94925091 -6.16073480
v -5.95155314 -11.01410226 -6.16073480
v -2.44597701 -11.21694290 -6.16073480
v -0.39054928 -11.24756715 -6.16073480
v 3.22239187 -11.29008082 -6.16073480
v 5.03895043 -11.23639830 -6.16073480
v 5.81824757 -11.10453388 -6.16073480
v 5.96056027 -10.87467185 -6.16073480
v 6.33273501 -5.78852403 -6.16073480
v 7.10878958 4.84637793 -6.16073480
v 7.48997144 10.67039007 -6.16073480
v 7.48925087 10.70425689 -6.16073480
v 6.59466243 10.95933889 -6.16073480
v 5.95011200 11.11858500 -6.16073480
v 5.04939871 11.15137097 -6.16073480
v 2.96154530 11.20036977 -6.16073480
v 1.28009373 11.23964087 -6.16073480
v -0.40099756 11.25657428 -6.16073480
v -3.49224557 11.24900829 -6.16073480
v -5.81896814 11.15353268 -6.16073480
v -6.33813928 10.59581101 -6.16073480
v -6.72292400 4.66587499 -6.16073480
v -6.86019271 1.92338316 -6.16073480
v -7.11887757 -3.72517003 -6.16073480
v -7.11671585 -9.11756036 -6.16073480
v -7.11635557 -9.97792169 -6.16073480
g roof
f 1 2 3 4 5 6 7 8 9 10 11 12 13 14 15 16 17 18 19 20 21 22 23 24 25 26 27
g wall
f 2 1 28 29
g wall
f 3 2 29 30
g wall
f 4 3 30 31
g wall
f 5 4 31 32
g wall
f 6 5 32 33
g wall
f 7 6 33 34
g wall
f 8 7 34 35
g wall
f 9 8 35 36
g wall
f 10 9 36 37
g wall
f 11 10 37 38
g wall
f 12 11 38 39
g wall
f 13 12 39 40
g wall
f 14 13 40 41
g wall
f 15 14 41 42
g wall
f 16 15 42 43
g wall
f 17 16 43 44
g wall
f 18 17 44 45
g wall
f 19 18 45 46
g wall
f 20 19 46 47
g wall
f 21 20 47 48
g wall
f 22 21 48 49
g wall
f 23 22 49 50
g wall
f 24 23 50 51
g wall
f 25 24 51 52
g wall
f 26 25 52 53
g wall
f 27 26 53 54
g wall
f 1 27 54 28
g ground_assumed
f 54 53 52 51 50 49 48 47 46 45 44 43 42 41 40 39 38 37 36 35 34 33 32 31 30 29 28
