v -0.32190679343456452 -0.4907614046877582 0.25006073810858626
v -0.31048572353743242 -0.49655398770799852 0.24997120135073223
v -0.26887102065220936 -0.49950771236728381 0.24965883905897848
v -0.1092057760554038 -0.50874630802139453 0.24846198377031861
v -0.015589103904710289 -0.51014112250709331 0.24776330601961749
v 0.1489661962903005 -0.5120774534460133 0.24653559462935096
v 0.23170331454162227 -0.50963242519144991 0.24592092479806965
v 0.26719724303082926 -0.50362651800468572 0.24566102384558341
v 0.27367902839565938 -0.49315720400822483 0.24562072786380648
v 0.2906301282124113 -0.26150311759823724 0.24567153770227795
v 0.32597637035478877 0.22287495885404829 0.24577850631064627
v 0.34333770916352979 0.48813587129295893 0.24585195528275405
v 0.34330489002595233 0.48967837212548715 0.24585337905315896
v 0.30255989496972602 0.5012963568480846 0.24616588527051989
v 0.27320315067305423 0.50854939262917886 0.24639019150742228
v 0.23217919271968823 0.51004266498307116 0.24669703498087903
v 0.13708565801162167 0.51227436816018912 0.24740735795285754
v 0.060502133293893513 0.51406301275227939 0.24797940986329461
v -0.016064982082776246 0.51483426316854364 0.24855056132776546
v -0.15685920572042938 0.51448966199624868 0.24959946610234224
v -0.26283229387240692 0.51014112239580367 0.2503858300737396
v -0.2864785032205126 0.48473908759318524 0.25054261379423121
v -0.30400393817260229 0.21465375783122453 0.250466698957449
v -0.31025598957438949 0.089744010444939418 0.25041778019214489
v -0.32203807044033561 -0.1675254349341905 0.25030886631077609
v -0.3219396125721421 -0.4131276666566262 0.25012034243929981
v -0.3219232032310837 -0.45231375108380506 0.25009025788825812
v -0.32190679343456452 -0.4907614046877582 -0.24585001662818717
v -0.31048572353743242 -0.49655398770799852 -0.24585001662818717
v -0.26887102065220936 -0.49950771236728381 -0.24585001662818717
v -0.1092057760554038 -0.50874630802139453 -0.24585001662818717
v -0.015589103904710289 -0.51014112250709331 -0.24585001662818717
v 0.1489661962903005 -0.5120774534460133 -0.24585001662818717
v 0.23170331454162227 -0.50963242519144991 -0.24585001662818717
v 0.26719724303082926 -0.50362651800468572 -0.24585001662818717
v 0.27367902839565938 -0.49315720400822483 -0.24585001662818717
v 0.2906301282124113 -0.26150311759823724 -0.24585001662818717
v 0.32597637035478877 0.22287495885404829 -0.24585001662818717
v 0.34333770916352979 0.48813587129295893 -0.24585001662818717
v 0.34330489002595233 0.48967837212548715 -0.24585001662818717
v 0.30255989496972602 0.5012963568480846 -0.24585001662818717
v 0.27320315067305423 0.50854939262917886 -0.24585001662818717
v 0.23217919271968823 0.51004266498307116 -0.24585001662818717
v 0.13708565801162167 0.51227436816018912 -0.24585001662818717
v 0.060502133293893513 0.51406301275227939 -0.24585001662818717
v -0.016064982082776246 0.51483426316854364 -0.24585001662818717
v -0.15685920572042938 0.51448966199624868 -0.24585001662818717
v -0.26283229387240692 0.51014112239580367 -0.24585001662818717
v -0.2864785032205126 0.48473908759318524 -0.24585001662818717
v -0.30400393817260229 0.21465375783122453 -0.24585001662818717
v -0.31025598957438949 0.089744010444939418 -0.24585001662818717
v -0.32203807044033561 -0.1675254349341905 -0.24585001662818717
v -0.3219396125721421 -0.4131276666566262 -0.24585001662818717
v -0.3219232032310837 -0.45231375108380506 -0.24585001662818717
l 1 2
l 2 3
l 3 4
l 4 5
l 5 6
l 6 7
l 7 8
l 8 9
l 9 10
l 10 11
l 11 12
l 12 13
l 13 14
l 14 15
l 15 16
l 16 17
l 17 18
l 18 19
l 19 20
l 20 21
l 21 22
l 22 23
l 23 24
l 24 25
l 25 26
l 26 27
l 1 27
l 1 28
l 28 29
l 2 29
l 29 30
l 30 31
l 31 32
l 32 33
l 33 34
l 34 35
l 8 35
l 35 36
l 9 36
l 36 37
l 37 38
l 38 39
l 39 40
l 13 40
l 40 41
l 41 42
l 15 42
l 42 43
l 43 44
l 44 45
l 45 46
l 46 47
l 47 48
l 21 48
l 48 49
l 22 49
l 49 50
l 50 51
l 51 52
l 52 53
l 53 54
l 28 54
