# XYZ-only planar convex-roof baseline. Provisional base; no GT.
v -10.34442484 4.08658675 -2.58670230
v -0.34987600 -11.12250930 -2.62794877
v 10.32728167 -4.10609140 2.64528215
v 0.33273284 11.10300465 2.68652862
v -10.34442484 4.08658675 -2.71633574
v -0.34987600 -11.12250930 -2.71633574
v 10.32728167 -4.10609140 -2.71633574
v 0.33273284 11.10300465 -2.71633574
g roof
f 1 2 3 4
g wall
f 2 1 5 6
g wall
f 3 2 6 7
g wall
f 4 3 7 8
g wall
f 1 4 8 5
g ground_assumed
f 8 7 6 5
