# Source coordinates; no display transform
v -0.287811086129 -0.444739819176 0.16238626921
v -0.151456447877 -0.430967194686 0.162000473955
v 0.490568439043 -0.361835407275 0.16014753944
v 0.503987556358 -0.347101244157 0.159995816773
v 0.503987556358 -0.331080316605 0.159859596248
v 0.490469457091 -0.1957437783 0.158735512434
v 0.424264705723 0.413701923121 0.153684056923
v 0.413192873423 0.443184389094 0.153455194809
v 0.409148755481 0.448882918384 0.153414710996
v 0.395390271676 0.458752827991 0.153357902011
v -0.469004524661 0.365667420888 0.155852693674
v -0.510661764622 0.351442307743 0.156055732144
v -0.499462669473 0.228393665116 0.157079905372
v -0.433257918579 -0.386100113036 0.162174283008
v -0.419796380158 -0.446662895958 0.162662701816
v -0.330854072476 -0.447129524824 0.162491405895
v -0.287811086129 -0.444739819176 -0.160597568078
v -0.151456447877 -0.430967194686 -0.160597568078
v 0.490568439043 -0.361835407275 -0.160597568078
v 0.503987556358 -0.347101244157 -0.160597568078
v 0.503987556358 -0.331080316605 -0.160597568078
v 0.490469457091 -0.1957437783 -0.160597568078
v 0.424264705723 0.413701923121 -0.160597568078
v 0.413192873423 0.443184389094 -0.160597568078
v 0.409148755481 0.448882918384 -0.160597568078
v 0.395390271676 0.458752827991 -0.160597568078
v -0.469004524661 0.365667420888 -0.160597568078
v -0.510661764622 0.351442307743 -0.160597568078
v -0.499462669473 0.228393665116 -0.160597568078
v -0.433257918579 -0.386100113036 -0.160597568078
v -0.419796380158 -0.446662895958 -0.160597568078
v -0.330854072476 -0.447129524824 -0.160597568078
g roof
f 1 2 3 4 5 6 7 8 9 10 11 12 13 14 15 16
g wall
f 2 1 17 18
g wall
f 3 2 18 19
g wall
f 4 3 19 20
g wall
f 5 4 20 21
g wall
f 6 5 21 22
g wall
f 7 6 22 23
g wall
f 8 7 23 24
g wall
f 9 8 24 25
g wall
f 10 9 25 26
g wall
f 11 10 26 27
g wall
f 12 11 27 28
g wall
f 13 12 28 29
g wall
f 14 13 29 30
g wall
f 15 14 30 31
g wall
f 16 15 31 32
g wall
f 1 16 32 17
g ground_assumed
f 32 31 30 29 28 27 26 25 24 23 22 21 20 19 18 17
