v -0.28781108612854411 -0.4447398191761503 0.16238626920976124
v -0.15145644787702522 -0.43096719468613576 0.1620004739554779
v 0.4905684390432784 -0.36183540727497288 0.16014753944039503
v 0.50398755635752668 -0.34710124415714855 0.15999581677303829
v 0.50398755635752668 -0.33108031660537379 0.15985959624753998
v 0.49046945709088985 -0.19574377830026546 0.15873551243434944
v 0.42426470572339409 0.41370192312075815 0.15368405692261161
v 0.41319287342329458 0.44318438909411922 0.15345519480937964
v 0.40914875548082846 0.44888291838401445 0.15341471099622359
v 0.39539027167562685 0.45875282799128947 0.15335790201082813
v -0.46900452466100434 0.36566742088795912 0.15585269367422006
v -0.51066176462200141 0.35144230774334001 0.15605573214376237
v -0.49946266947343793 0.22839366511596848 0.15707990537247174
v -0.43325791857949236 -0.38610011303556863 0.16217428300774045
v -0.41979638015790605 -0.44666289595821967 0.16266270181604026
v -0.33085407247588006 -0.44712952482408685 0.16249140589509617
v -0.28781108612854411 -0.4447398191761503 -0.16059756807751827
v -0.15145644787702522 -0.43096719468613576 -0.16059756807751827
v 0.4905684390432784 -0.36183540727497288 -0.16059756807751827
v 0.50398755635752668 -0.34710124415714855 -0.16059756807751827
v 0.50398755635752668 -0.33108031660537379 -0.16059756807751827
v 0.49046945709088985 -0.19574377830026546 -0.16059756807751827
v 0.42426470572339409 0.41370192312075815 -0.16059756807751827
v 0.41319287342329458 0.44318438909411922 -0.16059756807751827
v 0.40914875548082846 0.44888291838401445 -0.16059756807751827
v 0.39539027167562685 0.45875282799128947 -0.16059756807751827
v -0.46900452466100434 0.36566742088795912 -0.16059756807751827
v -0.51066176462200141 0.35144230774334001 -0.16059756807751827
v -0.49946266947343793 0.22839366511596848 -0.16059756807751827
v -0.43325791857949236 -0.38610011303556863 -0.16059756807751827
v -0.41979638015790605 -0.44666289595821967 -0.16059756807751827
v -0.33085407247588006 -0.44712952482408685 -0.16059756807751827
l 1 2
l 2 3
l 3 4
l 4 5
l 5 6
l 6 7
l 7 8
l 8 9
l 9 10
l 10 11
l 11 12
l 12 13
l 13 14
l 14 15
l 15 16
l 1 16
l 17 18
l 18 19
l 3 19
l 19 20
l 4 20
l 20 21
l 21 22
l 22 23
l 7 23
l 23 24
l 8 24
l 24 25
l 9 25
l 25 26
l 10 26
l 26 27
l 11 27
l 27 28
l 12 28
l 28 29
l 29 30
l 30 31
l 15 31
l 31 32
l 17 32
