# Source coordinates; no display transform
v 2686122 1251438 427.408433687
v 2686123.5 1251437.625 427.393233518
v 2686123.75 1251437.875 427.396596215
v 2686124.5 1251439.375 427.420834851
v 2686125.25 1251441.5 427.456865604
v 2686125.75 1251443.25 427.487175237
v 2686124.75 1251443.75 427.50202553
v 2686121 1251445.125 427.54828044
v 2686119.25 1251445.75 427.569551606
v 2686118.5 1251446 427.578330903
v 2686115.5 1251446.875 427.61108967
v 2686114.75 1251447 427.617510543
v 2686114.5 1251446.5 427.609430999
v 2686113.25 1251442.875 427.54780746
v 2686113 1251442 427.532652646
v 2686113 1251441.5 427.523218953
v 2686115 1251440.5 427.493518362
v 2686122 1251438 425.149075804
v 2686123.5 1251437.625 425.149075804
v 2686123.75 1251437.875 425.149075804
v 2686124.5 1251439.375 425.149075804
v 2686125.25 1251441.5 425.149075804
v 2686125.75 1251443.25 425.149075804
v 2686124.75 1251443.75 425.149075804
v 2686121 1251445.125 425.149075804
v 2686119.25 1251445.75 425.149075804
v 2686118.5 1251446 425.149075804
v 2686115.5 1251446.875 425.149075804
v 2686114.75 1251447 425.149075804
v 2686114.5 1251446.5 425.149075804
v 2686113.25 1251442.875 425.149075804
v 2686113 1251442 425.149075804
v 2686113 1251441.5 425.149075804
v 2686115 1251440.5 425.149075804
g roof
f 1 2 3 4 5 6 7 8 9 10 11 12 13 14 15 16 17
g wall
f 2 1 18 19
g wall
f 3 2 19 20
g wall
f 4 3 20 21
g wall
f 5 4 21 22
g wall
f 6 5 22 23
g wall
f 7 6 23 24
g wall
f 8 7 24 25
g wall
f 9 8 25 26
g wall
f 10 9 26 27
g wall
f 11 10 27 28
g wall
f 12 11 28 29
g wall
f 13 12 29 30
g wall
f 14 13 30 31
g wall
f 15 14 31 32
g wall
f 16 15 32 33
g wall
f 17 16 33 34
g wall
f 1 17 34 18
g ground_assumed
f 34 33 32 31 30 29 28 27 26 25 24 23 22 21 20 19 18
