v 2686122.0000000014 1251437.9999999979 427.40843368749751
v 2686123.5000000009 1251437.6250000007 427.39323351825493
v 2686123.7500000009 1251437.8750000005 427.39659621512698
v 2686124.5000000005 1251439.375 427.42083485135004
v 2686125.25 1251441.5000000016 427.45686560439805
v 2686125.75 1251443.2500000009 427.48717523720904
v 2686124.7500000005 1251443.7500000007 427.50202553010075
v 2686121.0000000019 1251445.1249999974 427.54828044040153
v 2686119.2499999972 1251445.7499999998 427.56955160623204
v 2686118.4999999977 1251445.9999999995 427.57833090253581
v 2686115.4999999991 1251446.8750000019 427.61108966980288
v 2686114.7499999995 1251446.9999999993 427.61751054274163
v 2686114.4999999995 1251446.4999999995 427.60943099913959
v 2686113.25 1251442.8749999984 427.54780746001057
v 2686113 1251442.0000000014 427.53265264631352
v 2686113 1251441.5000000016 427.52321895285354
v 2686114.9999999991 1251440.5000000021 427.49351836165323
v 2686122.0000000014 1251437.9999999979 425.14907580429411
v 2686123.5000000009 1251437.6250000007 425.14907580429411
v 2686123.7500000009 1251437.8750000005 425.14907580429411
v 2686124.5000000005 1251439.375 425.14907580429411
v 2686125.25 1251441.5000000016 425.14907580429411
v 2686125.75 1251443.2500000009 425.14907580429411
v 2686124.7500000005 1251443.7500000007 425.14907580429411
v 2686121.0000000019 1251445.1249999974 425.14907580429411
v 2686119.2499999972 1251445.7499999998 425.14907580429411
v 2686118.4999999977 1251445.9999999995 425.14907580429411
v 2686115.4999999991 1251446.8750000019 425.14907580429411
v 2686114.7499999995 1251446.9999999993 425.14907580429411
v 2686114.4999999995 1251446.4999999995 425.14907580429411
v 2686113.25 1251442.8749999984 425.14907580429411
v 2686113 1251442.0000000014 425.14907580429411
v 2686113 1251441.5000000016 425.14907580429411
v 2686114.9999999991 1251440.5000000021 425.14907580429411
l 1 2
l 2 3
l 3 4
l 4 5
l 5 6
l 6 7
l 7 8
l 8 9
l 9 10
l 10 11
l 11 12
l 12 13
l 13 14
l 14 15
l 15 16
l 16 17
l 1 17
l 18 19
l 2 19
l 19 20
l 3 20
l 20 21
l 21 22
l 22 23
l 6 23
l 23 24
l 24 25
l 25 26
l 26 27
l 27 28
l 28 29
l 12 29
l 29 30
l 30 31
l 31 32
l 15 32
l 32 33
l 16 33
l 33 34
l 18 34
