# XYZ-only planar convex-roof baseline. Provisional base; no GT.
v -9.31139094 -6.70027307 1.82090000
v 10.66191424 -4.70782652 1.82141951
v 12.48862440 -4.48964056 1.82147744
v 11.81633560 2.52044595 1.82351037
v 11.59284098 4.68032766 1.82413678
v 11.49346286 5.26438651 1.82430628
v -4.26253606 6.86409834 1.82481531
v -12.19049001 6.08308817 1.82461196
v -12.48841205 5.98891253 1.82458553
v -11.29353869 -5.96566060 1.82111856
v -11.19416056 -6.73297442 1.82089597
v -11.11113311 -6.83245872 1.82086691
v -9.31139094 -6.70027307 -4.55766383
v 10.66191424 -4.70782652 -4.55766383
v 12.48862440 -4.48964056 -4.55766383
v 11.81633560 2.52044595 -4.55766383
v 11.59284098 4.68032766 -4.55766383
v 11.49346286 5.26438651 -4.55766383
v -4.26253606 6.86409834 -4.55766383
v -12.19049001 6.08308817 -4.55766383
v -12.48841205 5.98891253 -4.55766383
v -11.29353869 -5.96566060 -4.55766383
v -11.19416056 -6.73297442 -4.55766383
v -11.11113311 -6.83245872 -4.55766383
g roof
f 1 2 3 4 5 6 7 8 9 10 11 12
g wall
f 2 1 13 14
g wall
f 3 2 14 15
g wall
f 4 3 15 16
g wall
f 5 4 16 17
g wall
f 6 5 17 18
g wall
f 7 6 18 19
g wall
f 8 7 19 20
g wall
f 9 8 20 21
g wall
f 10 9 21 22
g wall
f 11 10 22 23
g wall
f 12 11 23 24
g wall
f 1 12 24 13
g ground_assumed
f 24 23 22 21 20 19 18 17 16 15 14 13
