v -0.37525513458867127 -0.26997736879499962 0.075068434082473212
v 0.42802425396061172 -0.18984585165362242 0.075089327553603022
v 0.50149024304742973 -0.18107092517253418 0.075091657362042805
v 0.47445236767699328 0.10085827756497573 0.075173417028389797
v 0.46546393936832142 0.18772364329747787 0.075198609766258986
v 0.46146718496291067 0.21121311745694682 0.075205426657861674
v -0.17220205827852078 0.27554976725410646 0.075225898648023953
v -0.49104573207266805 0.24413937392388391 0.075217720388983222
v -0.50302745627754275 0.24035185103602519 0.075216657436505005
v -0.45497245820062321 -0.24043298190438292 0.075077224051963945
v -0.450975703393036 -0.27129254022987259 0.075068272005345438
v -0.44763653450397356 -0.27529356494531498 0.075067103280448827
v -0.37525513458867127 -0.26997736879499962 -0.18146241081322234
v 0.42802425396061172 -0.18984585165362242 -0.18146241081322234
v 0.50149024304742973 -0.18107092517253418 -0.18146241081322234
v 0.47445236767699328 0.10085827756497573 -0.18146241081322234
v 0.46546393936832142 0.18772364329747787 -0.18146241081322234
v 0.46146718496291067 0.21121311745694682 -0.18146241081322234
v -0.17220205827852078 0.27554976725410646 -0.18146241081322234
v -0.49104573207266805 0.24413937392388391 -0.18146241081322234
v -0.50302745627754275 0.24035185103602519 -0.18146241081322234
v -0.45497245820062321 -0.24043298190438292 -0.18146241081322234
v -0.450975703393036 -0.27129254022987259 -0.18146241081322234
v -0.44763653450397356 -0.27529356494531498 -0.18146241081322234
l 1 2
l 2 3
l 3 4
l 4 5
l 5 6
l 6 7
l 7 8
l 8 9
l 9 10
l 10 11
l 11 12
l 1 12
l 13 14
l 14 15
l 3 15
l 15 16
l 16 17
l 17 18
l 6 18
l 18 19
l 7 19
l 19 20
l 8 20
l 20 21
l 9 21
l 21 22
l 22 23
l 11 23
l 23 24
l 12 24
l 13 24
