# Source coordinates; no display transform
v 2684035 1251580.75 438.044929405
v 2684037 1251582.25 439.075135682
v 2684036.25 1251583.625 439.131644467
v 2684033.5 1251587.875 439.157899557
v 2684028.25 1251595.75 439.153480053
v 2684027.75 1251596.375 439.124489076
v 2684027.25 1251596.25 438.924077649
v 2684026.25 1251595.75 438.466114665
v 2684019 1251591 434.88875233
v 2684018.5 1251590.625 434.631200763
v 2684017.75 1251589.875 434.202018308
v 2684019.25 1251587.375 434.146140877
v 2684026.75 1251576 434.123884386
v 2684027.25 1251575.875 434.267155662
v 2684029.25 1251577 435.21165171
v 2684031.75 1251578.625 436.442269404
v 2684035 1251580.75 434.02959839
v 2684037 1251582.25 434.02959839
v 2684036.25 1251583.625 434.02959839
v 2684033.5 1251587.875 434.02959839
v 2684028.25 1251595.75 434.02959839
v 2684027.75 1251596.375 434.02959839
v 2684027.25 1251596.25 434.02959839
v 2684026.25 1251595.75 434.02959839
v 2684019 1251591 434.02959839
v 2684018.5 1251590.625 434.02959839
v 2684017.75 1251589.875 434.02959839
v 2684019.25 1251587.375 434.02959839
v 2684026.75 1251576 434.02959839
v 2684027.25 1251575.875 434.02959839
v 2684029.25 1251577 434.02959839
v 2684031.75 1251578.625 434.02959839
g roof
f 1 2 3 4 5 6 7 8 9 10 11 12 13 14 15 16
g wall
f 2 1 17 18
g wall
f 3 2 18 19
g wall
f 4 3 19 20
g wall
f 5 4 20 21
g wall
f 6 5 21 22
g wall
f 7 6 22 23
g wall
f 8 7 23 24
g wall
f 9 8 24 25
g wall
f 10 9 25 26
g wall
f 11 10 26 27
g wall
f 12 11 27 28
g wall
f 13 12 28 29
g wall
f 14 13 29 30
g wall
f 15 14 30 31
g wall
f 16 15 31 32
g wall
f 1 16 32 17
g ground_assumed
f 32 31 30 29 28 27 26 25 24 23 22 21 20 19 18 17
