# Source coordinates; no display transform
v 0.240690345257 -0.150915457491 0.441753993378
v 0.410320160283 0.0592546274032 0.273163197508
v 0.427328664318 0.0820460230403 0.255403759533
v 0.43368184073 0.0921910956025 0.24795786292
v 0.440740370258 0.106243121608 0.238301268115
v 0.433761880944 0.114442221304 0.236852342888
v 0.429039519844 0.11951975979 0.236106194548
v 0.42864932483 0.1199049526 0.236061639719
v 0.405697848765 0.137728864291 0.23584665513
v 0.381950975509 0.15376188079 0.236823079825
v 0.358599299472 0.168904452173 0.238093657967
v -0.15510255133 0.489504752413 0.272273004092
v -0.161760880337 0.492216108145 0.27343480539
v -0.173046523067 0.494647323402 0.276481353816
v -0.189323425845 0.49515962442 0.282365608888
v -0.282171760653 0.181613878595 0.473450774599
v 0.209094475102 -0.18969301385 0.472972419699
v -0.432615368702 0.227675762871 0.439935958949
v -0.423011505977 0.0688244124023 0.364492443515
v -0.404932466481 -0.223951975753 0.225585621565
v -0.404927463728 -0.224032015966 0.225547669077
v -0.399924962702 -0.228109054796 0.225395471426
v -0.0696348174163 -0.485667833867 0.221132684201
v -0.0498549273526 -0.500975487882 0.220935430514
v -0.0445622808948 -0.501005502757 0.222905918681
v -0.434662331051 0.502881440726 0.26944514941
v -0.441905953129 0.502871435768 0.269211050937
v -0.443656828487 0.496953476956 0.272817703737
v -0.443651825734 0.481595798149 0.282328211895
v -0.443646823529 0.474912456472 0.286467080763
v -0.4349724864 0.266663331775 0.415714460237
v 0.240690345257 -0.150915457491 -0.473429394465
v 0.410320160283 0.0592546274032 -0.473429394465
v 0.427328664318 0.0820460230403 -0.473429394465
v 0.43368184073 0.0921910956025 -0.473429394465
v 0.440740370258 0.106243121608 -0.473429394465
v 0.433761880944 0.114442221304 -0.473429394465
v 0.429039519844 0.11951975979 -0.473429394465
v 0.42864932483 0.1199049526 -0.473429394465
v 0.405697848765 0.137728864291 -0.473429394465
v 0.381950975509 0.15376188079 -0.473429394465
v 0.358599299472 0.168904452173 -0.473429394465
v -0.15510255133 0.489504752413 -0.473429394465
v -0.161760880337 0.492216108145 -0.473429394465
v -0.173046523067 0.494647323402 -0.473429394465
v -0.189323425845 0.49515962442 -0.473429394465
v -0.434662331051 0.502881440726 -0.473429394465
v -0.441905953129 0.502871435768 -0.473429394465
v -0.443656828487 0.496953476956 -0.473429394465
v -0.443651825734 0.481595798149 -0.473429394465
v -0.443646823529 0.474912456472 -0.473429394465
v -0.4349724864 0.266663331775 -0.473429394465
v -0.432615368702 0.227675762871 -0.473429394465
v -0.423011505977 0.0688244124023 -0.473429394465
v -0.404932466481 -0.223951975753 -0.473429394465
v -0.404927463728 -0.224032015966 -0.473429394465
v -0.399924962702 -0.228109054796 -0.473429394465
v -0.0696348174163 -0.485667833867 -0.473429394465
v -0.0498549273526 -0.500975487882 -0.473429394465
v -0.0445622808948 -0.501005502757 -0.473429394465
v 0.209094475102 -0.18969301385 -0.473429394465
g roof
f 1 2 3 4 5 6 7 8 9 10 11 12 13 14 15 16 17
g roof
f 18 19 20 21 22 23 24 25 17 16
g roof
f 15 26 27 28 29 30 31 18 16
g wall
f 2 1 32 33
g wall
f 3 2 33 34
g wall
f 4 3 34 35
g wall
f 5 4 35 36
g wall
f 6 5 36 37
g wall
f 7 6 37 38
g wall
f 8 7 38 39
g wall
f 9 8 39 40
g wall
f 10 9 40 41
g wall
f 11 10 41 42
g wall
f 12 11 42 43
g wall
f 13 12 43 44
g wall
f 14 13 44 45
g wall
f 15 14 45 46
g wall
f 1 17 61 32
g wall
f 19 18 53 54
g wall
f 20 19 54 55
g wall
f 21 20 55 56
g wall
f 22 21 56 57
g wall
f 23 22 57 58
g wall
f 24 23 58 59
g wall
f 25 24 59 60
g wall
f 17 25 60 61
g wall
f 26 15 46 47
g wall
f 27 26 47 48
g wall
f 28 27 48 49
g wall
f 29 28 49 50
g wall
f 30 29 50 51
g wall
f 31 30 51 52
g wall
f 18 31 52 53
g ground_assumed
f 61 60 59 58 57 56 55 54 53 52 51 50 49 48 47 46 45 44 43 42 41 40 39 38 37 36 35 34 33 32
