# XYZ-only planar convex-roof baseline. Provisional base; no GT.
v 7.41051165 -11.82865027 0.32151883
v -1.21478336 13.65517588 0.32886954
v -6.63946015 11.81913143 -0.05890723
v 1.98583485 -13.66469473 -0.06625794
v 7.41051165 -11.82865027 -0.20944477
v -1.21478336 13.65517588 -0.20944477
v -6.63946015 11.81913143 -0.20944477
v 1.98583485 -13.66469473 -0.20944477
g roof
f 1 2 3 4
g wall
f 2 1 5 6
g wall
f 3 2 6 7
g wall
f 4 3 7 8
g wall
f 1 4 8 5
g ground_assumed
f 8 7 6 5
