v 2686509.5550807416 1245156.047609071 524.52407509739714
v 2686534.2698300295 1245144.4171388103 524.52578718081952
v 2686543.134611892 1245163.2548002836 524.53317125428316
v 2686518.4198626042 1245174.8852705446 524.53145917086067
v 2686509.5550807416 1245156.047609071 521.7068488718968
v 2686534.2698300295 1245144.4171388103 521.7068488718968
v 2686543.134611892 1245163.2548002836 521.7068488718968
v 2686518.4198626042 1245174.8852705446 521.7068488718968
l 1 2
l 2 3
l 3 4
l 1 4
l 1 5
l 5 6
l 2 6
l 6 7
l 3 7
l 7 8
l 4 8
l 5 8
