# XYZ-only planar convex-roof baseline. Provisional base; no GT.
v 10.88869711 -1.50565830 2.64900054
v 12.58405725 -0.38062756 2.64290818
v 12.64562797 -0.27763311 2.64275646
v 12.64562797 -0.24656531 2.64279124
v 12.58311580 0.22302911 2.64358789
v 12.44020394 0.47138317 2.64448556
v 10.68364967 3.01310535 2.65494723
v 9.06642975 5.34544941 2.66457036
v 8.92728369 5.51076774 2.66535876
v 8.49986615 6.00973535 2.66777062
v -1.80296768 7.20255037 2.71378152
v -1.86905735 7.17939074 2.71404218
v -9.96174710 1.76399172 2.74307318
v -11.71867795 0.54782878 2.74933053
v -12.64562797 -0.17915762 2.75253637
v -12.64562797 -0.31924513 2.75237958
v -12.64487481 -0.52561060 2.75214535
v -12.59177712 -0.67417114 2.75174883
v -12.41723260 -0.95378129 2.75067901
v -12.01862339 -1.57137139 2.74825930
v -10.40799360 -3.85099435 2.73872376
v -8.90450064 -5.96473412 2.72983844
v -8.44017833 -6.58947922 2.72712578
v -7.96003968 -7.19125299 2.72437025
v -7.56124217 -7.20255037 2.72262831
v 10.88869711 -1.50565830 -3.52216528
v 12.58405725 -0.38062756 -3.52216528
v 12.64562797 -0.27763311 -3.52216528
v 12.64562797 -0.24656531 -3.52216528
v 12.58311580 0.22302911 -3.52216528
v 12.44020394 0.47138317 -3.52216528
v 10.68364967 3.01310535 -3.52216528
v 9.06642975 5.34544941 -3.52216528
v 8.92728369 5.51076774 -3.52216528
v 8.49986615 6.00973535 -3.52216528
v -1.80296768 7.20255037 -3.52216528
v -1.86905735 7.17939074 -3.52216528
v -9.96174710 1.76399172 -3.52216528
v -11.71867795 0.54782878 -3.52216528
v -12.64562797 -0.17915762 -3.52216528
v -12.64562797 -0.31924513 -3.52216528
v -12.64487481 -0.52561060 -3.52216528
v -12.59177712 -0.67417114 -3.52216528
v -12.41723260 -0.95378129 -3.52216528
v -12.01862339 -1.57137139 -3.52216528
v -10.40799360 -3.85099435 -3.52216528
v -8.90450064 -5.96473412 -3.52216528
v -8.44017833 -6.58947922 -3.52216528
v -7.96003968 -7.19125299 -3.52216528
v -7.56124217 -7.20255037 -3.52216528
g roof
f 1 2 3 4 5 6 7 8 9 10 11 12 13 14 15 16 17 18 19 20 21 22 23 24 25
g wall
f 2 1 26 27
g wall
f 3 2 27 28
g wall
f 4 3 28 29
g wall
f 5 4 29 30
g wall
f 6 5 30 31
g wall
f 7 6 31 32
g wall
f 8 7 32 33
g wall
f 9 8 33 34
g wall
f 10 9 34 35
g wall
f 11 10 35 36
g wall
f 12 11 36 37
g wall
f 13 12 37 38
g wall
f 14 13 38 39
g wall
f 15 14 39 40
g wall
f 16 15 40 41
g wall
f 17 16 41 42
g wall
f 18 17 42 43
g wall
f 19 18 43 44
g wall
f 20 19 44 45
g wall
f 21 20 45 46
g wall
f 22 21 46 47
g wall
f 23 22 47 48
g wall
f 24 23 48 49
g wall
f 25 24 49 50
g wall
f 1 25 50 26
g ground_assumed
f 50 49 48 47 46 45 44 43 42 41 40 39 38 37 36 35 34 33 32 31 30 29 28 27 26
