v 0.42512938029344666 -0.052047907860593844 0.12002625878849585
v 0.49169747164970723 -0.007873724858437476 0.11978704307999441
v 0.49411503781581434 -0.003829661420218497 0.11978108581428887
v 0.49411503781581434 -0.0026097883679724806 0.11978245144638246
v 0.49166050574014691 0.015828774338208756 0.11981373180312067
v 0.48604909048511258 0.025580363611021447 0.11984897869677937
v 0.4170782197192176 0.12538074837202792 0.12025975478374047
v 0.35357829375202782 0.21695992898217939 0.12063760570866146
v 0.34811474213523469 0.22345113131415381 0.12066856213024237
v 0.33133224903616482 0.24304302843537254 0.12076326349370518
v -0.073207156746851965 0.28987875221408532 0.1225698753883223
v -0.075802158886199844 0.28896939240949698 0.12258011016869937
v -0.39356055008907054 0.076334467128096897 0.123720008538708
v -0.46254620721878958 0.02858199036288378 0.12396570255770746
v -0.49894277698481437 3.6965652111118491e-05 0.12409157944071213
v -0.49894277698481437 -0.0054635518742423474 0.12408542310212807
v -0.49891320425716612 -0.013566464721855749 0.12407622609220051
v -0.49682833049180419 -0.019399674648954427 0.12406065678691733
v -0.48997486303143639 -0.03037853015592519 0.12401865044630893
v -0.47432352519431648 -0.054628123636117604 0.1239236408536358
v -0.41108235980875135 -0.14413721723737991 0.12354922913846401
v -0.35204790786347057 -0.22713292935358034 0.12320034822547428
v -0.33381635385817821 -0.25166346296113357 0.12309383598985073
v -0.31496377335757048 -0.27529203033865923 0.12298564046935505
v -0.29930504194588986 -0.27573562046808531 0.12291724342596513
v 0.42512938029344666 -0.052047907860593844 -0.12228374979787608
v 0.49169747164970723 -0.007873724858437476 -0.12228374979787608
v 0.49411503781581434 -0.003829661420218497 -0.12228374979787608
v 0.49411503781581434 -0.0026097883679724806 -0.12228374979787608
v 0.49166050574014691 0.015828774338208756 -0.12228374979787608
v 0.48604909048511258 0.025580363611021447 -0.12228374979787608
v 0.4170782197192176 0.12538074837202792 -0.12228374979787608
v 0.35357829375202782 0.21695992898217939 -0.12228374979787608
v 0.34811474213523469 0.22345113131415381 -0.12228374979787608
v 0.33133224903616482 0.24304302843537254 -0.12228374979787608
v -0.073207156746851965 0.28987875221408532 -0.12228374979787608
v -0.075802158886199844 0.28896939240949698 -0.12228374979787608
v -0.39356055008907054 0.076334467128096897 -0.12228374979787608
v -0.46254620721878958 0.02858199036288378 -0.12228374979787608
v -0.49894277698481437 3.6965652111118491e-05 -0.12228374979787608
v -0.49894277698481437 -0.0054635518742423474 -0.12228374979787608
v -0.49891320425716612 -0.013566464721855749 -0.12228374979787608
v -0.49682833049180419 -0.019399674648954427 -0.12228374979787608
v -0.48997486303143639 -0.03037853015592519 -0.12228374979787608
v -0.47432352519431648 -0.054628123636117604 -0.12228374979787608
v -0.41108235980875135 -0.14413721723737991 -0.12228374979787608
v -0.35204790786347057 -0.22713292935358034 -0.12228374979787608
v -0.33381635385817821 -0.25166346296113357 -0.12228374979787608
v -0.31496377335757048 -0.27529203033865923 -0.12228374979787608
v -0.29930504194588986 -0.27573562046808531 -0.12228374979787608
l 1 2
l 2 3
l 3 4
l 4 5
l 5 6
l 6 7
l 7 8
l 8 9
l 9 10
l 10 11
l 11 12
l 12 13
l 13 14
l 14 15
l 15 16
l 16 17
l 17 18
l 18 19
l 19 20
l 20 21
l 21 22
l 22 23
l 23 24
l 24 25
l 1 25
l 1 26
l 26 27
l 2 27
l 27 28
l 3 28
l 28 29
l 29 30
l 5 30
l 30 31
l 31 32
l 32 33
l 33 34
l 34 35
l 10 35
l 35 36
l 11 36
l 36 37
l 12 37
l 37 38
l 38 39
l 39 40
l 15 40
l 40 41
l 41 42
l 17 42
l 42 43
l 18 43
l 43 44
l 44 45
l 45 46
l 46 47
l 47 48
l 48 49
l 24 49
l 49 50
l 25 50
l 26 50
