# Source coordinates; no display transform
v -0.287450199244 -0.364541832578 0.496052730121
v 0.409780876735 -0.34250996016 0.511172003313
v 0.480557769021 -0.335239043866 0.512750116253
v 0.486533864413 -0.311274900255 0.513084355259
v 0.486414342484 -0.044003984064 0.515382364244
v 0.480358565805 0.138764940438 0.516825899536
v 0.460697211114 0.356175298755 0.518276282741
v 0.367729083837 0.357051792904 0.516293124339
v -0.0971314739459 0.341752988097 0.506207497618
v -0.493944222959 0.321812748904 0.497539008882
v -0.494023904245 0.23420318705 0.496783192517
v -0.476314741067 -0.343247012057 0.492191919097
v -0.473446215301 -0.366015936374 0.492057355984
v -0.287450199244 -0.364541832578 -0.512247250782
v 0.409780876735 -0.34250996016 -0.512247250782
v 0.480557769021 -0.335239043866 -0.512247250782
v 0.486533864413 -0.311274900255 -0.512247250782
v 0.486414342484 -0.044003984064 -0.512247250782
v 0.480358565805 0.138764940438 -0.512247250782
v 0.460697211114 0.356175298755 -0.512247250782
v 0.367729083837 0.357051792904 -0.512247250782
v -0.0971314739459 0.341752988097 -0.512247250782
v -0.493944222959 0.321812748904 -0.512247250782
v -0.494023904245 0.23420318705 -0.512247250782
v -0.476314741067 -0.343247012057 -0.512247250782
v -0.473446215301 -0.366015936374 -0.512247250782
g roof
f 1 2 3 4 5 6 7 8 9 10 11 12 13
g wall
f 2 1 14 15
g wall
f 3 2 15 16
g wall
f 4 3 16 17
g wall
f 5 4 17 18
g wall
f 6 5 18 19
g wall
f 7 6 19 20
g wall
f 8 7 20 21
g wall
f 9 8 21 22
g wall
f 10 9 22 23
g wall
f 11 10 23 24
g wall
f 12 11 24 25
g wall
f 13 12 25 26
g wall
f 1 13 26 14
g ground_assumed
f 26 25 24 23 22 21 20 19 18 17 16 15 14
