# XYZ-only planar convex-roof baseline. Provisional base; no GT.
v -5.26926906 -6.65591881 9.02750507
v 7.68179912 -6.24667675 9.30834559
v 8.99647999 -6.11161947 9.33765904
v 9.10748597 -5.66648547 9.34386753
v 9.10526585 -0.70192784 9.38655305
v 8.99277979 2.69300518 9.41336672
v 8.62757010 6.73140288 9.44030759
v 6.90068701 6.74768376 9.40347042
v -1.73409848 6.46350844 9.21612989
v -9.10489583 6.09311847 9.05511270
v -9.10637591 4.46577074 9.04107341
v -8.77742818 -6.26036749 8.95579050
v -8.72414531 -6.68330029 8.95329099
v -5.26926906 -6.65591881 -9.70166844
v 7.68179912 -6.24667675 -9.70166844
v 8.99647999 -6.11161947 -9.70166844
v 9.10748597 -5.66648547 -9.70166844
v 9.10526585 -0.70192784 -9.70166844
v 8.99277979 2.69300518 -9.70166844
v 8.62757010 6.73140288 -9.70166844
v 6.90068701 6.74768376 -9.70166844
v -1.73409848 6.46350844 -9.70166844
v -9.10489583 6.09311847 -9.70166844
v -9.10637591 4.46577074 -9.70166844
v -8.77742818 -6.26036749 -9.70166844
v -8.72414531 -6.68330029 -9.70166844
g roof
f 1 2 3 4 5 6 7 8 9 10 11 12 13
g wall
f 2 1 14 15
g wall
f 3 2 15 16
g wall
f 4 3 16 17
g wall
f 5 4 17 18
g wall
f 6 5 18 19
g wall
f 7 6 19 20
g wall
f 8 7 20 21
g wall
f 9 8 21 22
g wall
f 10 9 22 23
g wall
f 11 10 23 24
g wall
f 12 11 24 25
g wall
f 13 12 25 26
g wall
f 1 13 26 14
g ground_assumed
f 26 25 24 23 22 21 20 19 18 17 16 15 14
