v -0.28745019924368032 -0.36454183257844941 0.49605273012093853
v 0.40978087673515873 -0.34250996015959867 0.51117200331266199
v 0.48055776902072578 -0.3352390438657139 0.51275011625285283
v 0.48653386441299695 -0.31127490025522409 0.51308435525945373
v 0.48641434248361715 -0.044003984063981011 0.51538236424409301
v 0.48035856580509295 0.13876494043802015 0.51682589953594738
v 0.46069721111391582 0.35617529875500253 0.51827628274116544
v 0.36772908383699165 0.3570517929037873 0.51629312433923691
v -0.097131473945908306 0.34175298809661259 0.50620749761787831
v -0.49394422295905382 0.32181274890354938 0.49753900888208746
v -0.49402390424530707 0.23420318705043425 0.49678319251724151
v -0.47631474106733218 -0.34324701205744046 0.49219191909674243
v -0.47344621530057651 -0.36601593637413288 0.49205735598407097
v -0.28745019924368032 -0.36454183257844941 -0.51224725078238731
v 0.40978087673515873 -0.34250996015959867 -0.51224725078238731
v 0.48055776902072578 -0.3352390438657139 -0.51224725078238731
v 0.48653386441299695 -0.31127490025522409 -0.51224725078238731
v 0.48641434248361715 -0.044003984063981011 -0.51224725078238731
v 0.48035856580509295 0.13876494043802015 -0.51224725078238731
v 0.46069721111391582 0.35617529875500253 -0.51224725078238731
v 0.36772908383699165 0.3570517929037873 -0.51224725078238731
v -0.097131473945908306 0.34175298809661259 -0.51224725078238731
v -0.49394422295905382 0.32181274890354938 -0.51224725078238731
v -0.49402390424530707 0.23420318705043425 -0.51224725078238731
v -0.47631474106733218 -0.34324701205744046 -0.51224725078238731
v -0.47344621530057651 -0.36601593637413288 -0.51224725078238731
l 1 2
l 2 3
l 3 4
l 4 5
l 5 6
l 6 7
l 7 8
l 8 9
l 9 10
l 10 11
l 11 12
l 12 13
l 1 13
l 14 15
l 15 16
l 3 16
l 16 17
l 4 17
l 17 18
l 18 19
l 19 20
l 7 20
l 20 21
l 21 22
l 22 23
l 10 23
l 23 24
l 24 25
l 25 26
l 13 26
l 14 26
