v -0.35841548061396084 -0.33770881205049397 0.28354077800034372
v -0.018174967426469336 -0.49622158706703112 0.15077425221251381
v 0.37249552207281428 0.34233497578681071 0.14437048809220857
v 0.032255008885322844 0.50084775084913613 0.27713701388003847
v 0.37249552207281428 0.34233497578681071 -0.2811306231261631
v 0.032255008885322844 0.50084775084913613 -0.2811306231261631
v -0.35841548061396084 -0.33770881205049397 -0.2811306231261631
v -0.018174967426469336 -0.49622158706703112 -0.2811306231261631
l 1 2
l 2 3
l 3 4
l 1 4
l 3 5
l 5 6
l 4 6
l 6 7
l 1 7
l 7 8
l 2 8
l 5 8
