# pointcloud_to_mesh 0.5.1; candidate requires geometry validation; coordinates preserved
v -7.464049132 4.302802012 -0.052148654
v -12.552312424 6.303535239 -0.058795206
v -13.645039223 3.479256741 -0.048551754
v -9.595287046 1.912388339 -0.043353277
v -8.886812017 1.660042417 -0.042521910
v -1.881187479 -1.050467077 -0.033529120
v 0.655871457 -2.013410311 -0.030339333
v 1.576341242 -2.361609889 -0.029186228
v 2.884691166 -2.841868535 -0.027599828
v 4.225328906 -3.357565393 -0.025889683
v 10.996293043 -5.928818482 -0.017371944
v 12.862304771 -6.433766243 -0.015755015
v 13.799582406 -4.011264048 -0.024541255
v 13.198410158 -3.778667643 -0.025312951
v 8.753890269 -2.088119395 -0.030913952
v 5.216737846 -0.576219998 -0.035968607
v 4.316891917 -0.276423277 -0.036950253
v 1.575151030 0.784369328 -0.040469696
v -0.600769775 1.749550870 -0.043705087
v -0.958473835 1.773647656 -0.043754296
v -2.292318932 2.289718676 -0.045466490
v -7.464049132 4.302802012 -0.168005464
v -12.552312424 6.303535239 -0.168005464
v -13.645039223 3.479256741 -0.168005464
v -9.595287046 1.912388339 -0.168005464
v -8.886812017 1.660042417 -0.168005464
v -1.881187479 -1.050467077 -0.168005464
v 0.655871457 -2.013410311 -0.168005464
v 1.576341242 -2.361609889 -0.168005464
v 2.884691166 -2.841868535 -0.168005464
v 4.225328906 -3.357565393 -0.168005464
v 10.996293043 -5.928818482 -0.168005464
v 12.862304771 -6.433766243 -0.168005464
v 13.799582406 -4.011264048 -0.168005464
v 13.198410158 -3.778667643 -0.168005464
v 8.753890269 -2.088119395 -0.168005464
v 5.216737846 -0.576219998 -0.168005464
v 4.316891917 -0.276423277 -0.168005464
v 1.575151030 0.784369328 -0.168005464
v -0.600769775 1.749550870 -0.168005464
v -0.958473835 1.773647656 -0.168005464
v -2.292318932 2.289718676 -0.168005464
g roof
f 1 2 3
g roof
f 1 3 4
g roof
f 1 4 5
g roof
f 1 5 6
g roof
f 1 6 7
g roof
f 1 7 8
g roof
f 1 8 9
g roof
f 1 9 10
g roof
f 1 10 11
g roof
f 1 11 12
g roof
f 12 13 14
g roof
f 12 14 15
g roof
f 12 15 16
g roof
f 12 16 17
g roof
f 12 17 18
g roof
f 12 18 19
g roof
f 12 19 20
g roof
f 12 20 21
g roof
f 12 21 1
g facade_completed
f 2 1 22 23
g facade_completed
f 3 2 23 24
g facade_completed
f 4 3 24 25
g facade_completed
f 5 4 25 26
g facade_completed
f 6 5 26 27
g facade_completed
f 7 6 27 28
g facade_completed
f 8 7 28 29
g facade_completed
f 9 8 29 30
g facade_completed
f 10 9 30 31
g facade_completed
f 11 10 31 32
g facade_completed
f 12 11 32 33
g facade_completed
f 13 12 33 34
g facade_completed
f 14 13 34 35
g facade_completed
f 15 14 35 36
g facade_completed
f 16 15 36 37
g facade_completed
f 17 16 37 38
g facade_completed
f 18 17 38 39
g facade_completed
f 19 18 39 40
g facade_completed
f 20 19 40 41
g facade_completed
f 21 20 41 42
g facade_completed
f 1 21 42 22
g ground_assumed
f 22 24 23
g ground_assumed
f 22 25 24
g ground_assumed
f 22 26 25
g ground_assumed
f 22 27 26
g ground_assumed
f 22 28 27
g ground_assumed
f 22 29 28
g ground_assumed
f 22 30 29
g ground_assumed
f 22 31 30
g ground_assumed
f 22 32 31
g ground_assumed
f 22 33 32
g ground_assumed
f 33 35 34
g ground_assumed
f 33 36 35
g ground_assumed
f 33 37 36
g ground_assumed
f 33 38 37
g ground_assumed
f 33 39 38
g ground_assumed
f 33 40 39
g ground_assumed
f 33 41 40
g ground_assumed
f 33 42 41
g ground_assumed
f 33 22 42
