# Source coordinates; no display transform
v 2679258.8156 1249573.79454 401.580820856
v 2679252.55456 1249576.25641 401.572642371
v 2679251.20998 1249572.78117 401.585246789
v 2679256.19314 1249570.85317 401.591643439
v 2679257.06491 1249570.54266 401.592666424
v 2679265.68523 1249567.20742 401.603731921
v 2679268.80704 1249566.02253 401.607656907
v 2679269.93966 1249565.59407 401.609075786
v 2679271.54957 1249565.00312 401.611027828
v 2679273.19921 1249564.36856 401.613132137
v 2679281.53078 1249561.20468 401.62361309
v 2679283.82688 1249560.58334 401.625602698
v 2679284.98018 1249563.5642 401.614791358
v 2679284.24045 1249563.8504 401.613841797
v 2679278.77153 1249565.9306 401.606949847
v 2679274.41912 1249567.79097 401.600730168
v 2679273.31187 1249568.15987 401.599522267
v 2679269.9382 1249569.46516 401.595191643
v 2679267.26076 1249570.6528 401.591210542
v 2679266.82061 1249570.68245 401.591149991
v 2679265.17934 1249571.31747 401.589043161
v 2679258.8156 1249573.79454 401.438260743
v 2679252.55456 1249576.25641 401.438260743
v 2679251.20998 1249572.78117 401.438260743
v 2679256.19314 1249570.85317 401.438260743
v 2679257.06491 1249570.54266 401.438260743
v 2679265.68523 1249567.20742 401.438260743
v 2679268.80704 1249566.02253 401.438260743
v 2679269.93966 1249565.59407 401.438260743
v 2679271.54957 1249565.00312 401.438260743
v 2679273.19921 1249564.36856 401.438260743
v 2679281.53078 1249561.20468 401.438260743
v 2679283.82688 1249560.58334 401.438260743
v 2679284.98018 1249563.5642 401.438260743
v 2679284.24045 1249563.8504 401.438260743
v 2679278.77153 1249565.9306 401.438260743
v 2679274.41912 1249567.79097 401.438260743
v 2679273.31187 1249568.15987 401.438260743
v 2679269.9382 1249569.46516 401.438260743
v 2679267.26076 1249570.6528 401.438260743
v 2679266.82061 1249570.68245 401.438260743
v 2679265.17934 1249571.31747 401.438260743
g roof
f 1 2 3
g roof
f 1 3 4
g roof
f 1 4 5
g roof
f 1 5 6
g roof
f 1 6 7
g roof
f 1 7 8
g roof
f 1 8 9
g roof
f 1 9 10
g roof
f 1 10 11
g roof
f 1 11 12
g roof
f 12 13 14
g roof
f 12 14 15
g roof
f 12 15 16
g roof
f 12 16 17
g roof
f 12 17 18
g roof
f 12 18 19
g roof
f 12 19 20
g roof
f 12 20 21
g roof
f 12 21 1
g facade_completed
f 2 1 22 23
g facade_completed
f 3 2 23 24
g facade_completed
f 4 3 24 25
g facade_completed
f 5 4 25 26
g facade_completed
f 6 5 26 27
g facade_completed
f 7 6 27 28
g facade_completed
f 8 7 28 29
g facade_completed
f 9 8 29 30
g facade_completed
f 10 9 30 31
g facade_completed
f 11 10 31 32
g facade_completed
f 12 11 32 33
g facade_completed
f 13 12 33 34
g facade_completed
f 14 13 34 35
g facade_completed
f 15 14 35 36
g facade_completed
f 16 15 36 37
g facade_completed
f 17 16 37 38
g facade_completed
f 18 17 38 39
g facade_completed
f 19 18 39 40
g facade_completed
f 20 19 40 41
g facade_completed
f 21 20 41 42
g facade_completed
f 1 21 42 22
g ground_assumed
f 22 24 23
g ground_assumed
f 22 25 24
g ground_assumed
f 22 26 25
g ground_assumed
f 22 27 26
g ground_assumed
f 22 28 27
g ground_assumed
f 22 29 28
g ground_assumed
f 22 30 29
g ground_assumed
f 22 31 30
g ground_assumed
f 22 32 31
g ground_assumed
f 22 33 32
g ground_assumed
f 33 35 34
g ground_assumed
f 33 36 35
g ground_assumed
f 33 37 36
g ground_assumed
f 33 38 37
g ground_assumed
f 33 39 38
g ground_assumed
f 33 40 39
g ground_assumed
f 33 41 40
g ground_assumed
f 33 42 41
g ground_assumed
f 33 22 42
