# Source coordinates; no display transform
v -0.387687538921 -0.405964042096 0.297883902992
v -0.0709733416015 -0.495548667041 0.298269909275
v -0.0405455670953 -0.501872287636 0.297902124849
v -0.0263360196675 -0.499863607986 0.296850474742
v 0.30176069425 -0.20685678842 0.228832327574
v 0.359714817258 -0.0117792934769 0.191401773931
v 0.391655300745 0.0985740853933 0.170268972473
v 0.449411035201 0.305579665335 0.130732854391
v 0.449411035201 0.317482950994 0.128621978484
v 0.417743335441 0.329869807891 0.127975219621
v 0.391531308314 0.339566025822 0.127538596541
v 0.289125852492 0.369311841486 0.127275503426
v 0.128468692017 0.414978301162 0.127040051662
v -0.129311841334 0.488133911991 0.12668317978
v -0.187179169262 0.502318661028 0.126999845458
v -0.200409175256 0.496602603627 0.128661004466
v -0.213676379548 0.469869807912 0.134050999921
v -0.218685678768 0.455610663228 0.136824817467
v -0.244984500975 0.363781773204 0.154396455417
v -0.298065716153 0.177371357501 0.190051539229
v -0.405468071762 -0.200037197628 0.262235957385
v -0.450526968245 -0.359752014967 0.29276433556
v -0.450539367677 -0.372523248588 0.295029736553
v -0.450539367677 -0.385021698483 0.297246156469
v -0.418202108034 -0.396466212244 0.297693034676
v -0.387687538921 -0.405964042096 -0.211886720615
v -0.0709733416015 -0.495548667041 -0.211886720615
v -0.0405455670953 -0.501872287636 -0.211886720615
v -0.0263360196675 -0.499863607986 -0.211886720615
v 0.30176069425 -0.20685678842 -0.211886720615
v 0.359714817258 -0.0117792934769 -0.211886720615
v 0.391655300745 0.0985740853933 -0.211886720615
v 0.449411035201 0.305579665335 -0.211886720615
v 0.449411035201 0.317482950994 -0.211886720615
v 0.417743335441 0.329869807891 -0.211886720615
v 0.391531308314 0.339566025822 -0.211886720615
v 0.289125852492 0.369311841486 -0.211886720615
v 0.128468692017 0.414978301162 -0.211886720615
v -0.129311841334 0.488133911991 -0.211886720615
v -0.187179169262 0.502318661028 -0.211886720615
v -0.200409175256 0.496602603627 -0.211886720615
v -0.213676379548 0.469869807912 -0.211886720615
v -0.218685678768 0.455610663228 -0.211886720615
v -0.244984500975 0.363781773204 -0.211886720615
v -0.298065716153 0.177371357501 -0.211886720615
v -0.405468071762 -0.200037197628 -0.211886720615
v -0.450526968245 -0.359752014967 -0.211886720615
v -0.450539367677 -0.372523248588 -0.211886720615
v -0.450539367677 -0.385021698483 -0.211886720615
v -0.418202108034 -0.396466212244 -0.211886720615
g roof
f 1 2 3 4 5 6 7 8 9 10 11 12 13 14 15 16 17 18 19 20 21 22 23 24 25
g wall
f 2 1 26 27
g wall
f 3 2 27 28
g wall
f 4 3 28 29
g wall
f 5 4 29 30
g wall
f 6 5 30 31
g wall
f 7 6 31 32
g wall
f 8 7 32 33
g wall
f 9 8 33 34
g wall
f 10 9 34 35
g wall
f 11 10 35 36
g wall
f 12 11 36 37
g wall
f 13 12 37 38
g wall
f 14 13 38 39
g wall
f 15 14 39 40
g wall
f 16 15 40 41
g wall
f 17 16 41 42
g wall
f 18 17 42 43
g wall
f 19 18 43 44
g wall
f 20 19 44 45
g wall
f 21 20 45 46
g wall
f 22 21 46 47
g wall
f 23 22 47 48
g wall
f 24 23 48 49
g wall
f 25 24 49 50
g wall
f 1 25 50 26
g ground_assumed
f 50 49 48 47 46 45 44 43 42 41 40 39 38 37 36 35 34 33 32 31 30 29 28 27 26
