v -0.38768753892110741 -0.40596404209633602 0.29788390299169581
v -0.07097334160151543 -0.49554866704077405 0.29826990927455937
v -0.040545567095336375 -0.50187228763623992 0.29790212484906864
v -0.026336019667523976 -0.49986360798568563 0.29685047474203596
v 0.30176069424992202 -0.20685678841975685 0.2288323275744289
v 0.3597148172583633 -0.011779293476938133 0.19140177393060248
v 0.39165530074479959 0.098574085393274655 0.17026897247257194
v 0.44941103520073133 0.30557966533485237 0.13073285439106491
v 0.44941103520073133 0.317482950994323 0.12862197848387746
v 0.41774333544076303 0.3298698078914386 0.12797521962129682
v 0.39153130831421756 0.33956602582182999 0.12753859654130384
v 0.28912585249164235 0.36931184148582341 0.12727550342647842
v 0.12846869201682279 0.41497830116242712 0.12704005166157517
v -0.12931184133435475 0.48813391199130585 0.12668317977958385
v -0.18717916926220102 0.50231866102779876 0.1269998454584354
v -0.20040917525605584 0.49660260362657549 0.12866100446579004
v -0.21367637954786656 0.46986980791239791 0.13405099992084929
v -0.21868567876761574 0.45561066322796201 0.13682481746697839
v -0.24498450097475624 0.3637817732044577 0.15439645541688768
v -0.29806571615269783 0.17737135750144922 0.19005153922871587
v -0.40546807176237032 -0.20003719762797842 0.26223595738536232
v -0.45052696824473137 -0.35975201496679632 0.29276433556049447
v -0.45053936767738334 -0.37252324858831004 0.29502973655320058
v -0.45053936767738334 -0.38502169848335571 0.2972461564690404
v -0.4182021080338969 -0.39646621224446971 0.29769303467613045
v -0.38768753892110741 -0.40596404209633602 -0.21188672061516606
v -0.07097334160151543 -0.49554866704077405 -0.21188672061516606
v -0.040545567095336375 -0.50187228763623992 -0.21188672061516606
v -0.026336019667523976 -0.49986360798568563 -0.21188672061516606
v 0.30176069424992202 -0.20685678841975685 -0.21188672061516606
v 0.3597148172583633 -0.011779293476938133 -0.21188672061516606
v 0.39165530074479959 0.098574085393274655 -0.21188672061516606
v 0.44941103520073133 0.30557966533485237 -0.21188672061516606
v 0.44941103520073133 0.317482950994323 -0.21188672061516606
v 0.41774333544076303 0.3298698078914386 -0.21188672061516606
v 0.39153130831421756 0.33956602582182999 -0.21188672061516606
v 0.28912585249164235 0.36931184148582341 -0.21188672061516606
v 0.12846869201682279 0.41497830116242712 -0.21188672061516606
v -0.12931184133435475 0.48813391199130585 -0.21188672061516606
v -0.18717916926220102 0.50231866102779876 -0.21188672061516606
v -0.20040917525605584 0.49660260362657549 -0.21188672061516606
v -0.21367637954786656 0.46986980791239791 -0.21188672061516606
v -0.21868567876761574 0.45561066322796201 -0.21188672061516606
v -0.24498450097475624 0.3637817732044577 -0.21188672061516606
v -0.29806571615269783 0.17737135750144922 -0.21188672061516606
v -0.40546807176237032 -0.20003719762797842 -0.21188672061516606
v -0.45052696824473137 -0.35975201496679632 -0.21188672061516606
v -0.45053936767738334 -0.37252324858831004 -0.21188672061516606
v -0.45053936767738334 -0.38502169848335571 -0.21188672061516606
v -0.4182021080338969 -0.39646621224446971 -0.21188672061516606
l 1 2
l 2 3
l 3 4
l 4 5
l 5 6
l 6 7
l 7 8
l 8 9
l 9 10
l 10 11
l 11 12
l 12 13
l 13 14
l 14 15
l 15 16
l 16 17
l 17 18
l 18 19
l 19 20
l 20 21
l 21 22
l 22 23
l 23 24
l 24 25
l 1 25
l 26 27
l 27 28
l 3 28
l 28 29
l 4 29
l 29 30
l 5 30
l 30 31
l 31 32
l 32 33
l 8 33
l 33 34
l 9 34
l 34 35
l 35 36
l 36 37
l 37 38
l 38 39
l 39 40
l 15 40
l 40 41
l 16 41
l 41 42
l 42 43
l 43 44
l 44 45
l 45 46
l 46 47
l 22 47
l 47 48
l 48 49
l 24 49
l 49 50
l 26 50
