# Source coordinates; no display transform
v 2684353.13037 1252640.67604 429.463496302
v 2684354.13837 1252642.40452 429.46313747
v 2684353.21083 1252642.93096 429.461373982
v 2684352.31816 1252643.37009 429.459743543
v 2684349.21304 1252645.05983 429.453911689
v 2684348.54644 1252645.33179 429.452749529
v 2684347.95362 1252645.66825 429.451622422
v 2684347.50003 1252645.62501 429.451057396
v 2684347.5 1252644.875 429.451799126
v 2684346.73335 1252644.25942 429.45138067
v 2684345.51657 1252642.11558 429.451870541
v 2684345.50001 1252641.37496 429.452580826
v 2684344.75003 1252640.75002 429.452193957
v 2684344.67974 1252640.28983 429.452554913
v 2684343.5703 1252638.33511 429.453001569
v 2684343.50001 1252637.50002 429.453733289
v 2684342.67976 1252637.1649 429.452965646
v 2684341.57028 1252635.21009 429.453412323
v 2684340.6043 1252633.33267 429.453974757
v 2684338.39052 1252629.42022 429.454877865
v 2684336.30938 1252625.96465 429.455506854
v 2684341.31894 1252623.12138 429.465031383
v 2684342.79191 1252622.30894 429.467808583
v 2684345.12906 1252626.42679 429.466867649
v 2684345.62733 1252627.31966 429.466652241
v 2684345.87264 1252627.80537 429.46650057
v 2684346.37734 1252628.6946 429.466297381
v 2684347.13291 1252630.04961 429.465969693
v 2684347.76661 1252630.74054 429.466135475
v 2684348.98339 1252632.88438 429.465645604
v 2684348.99995 1252633.74997 429.464811731
v 2684349.74998 1252634.25002 429.465322168
v 2684349.84833 1252634.81914 429.464891083
v 2684351.40162 1252637.55589 429.464265732
v 2684353.21083 1252642.93096 426.175873016
v 2684352.31816 1252643.37009 426.175873016
v 2684349.21304 1252645.05983 426.175873016
v 2684348.54644 1252645.33179 426.175873016
v 2684347.95362 1252645.66825 426.175873016
v 2684347.50003 1252645.62501 426.175873016
v 2684347.5 1252644.875 426.175873016
v 2684346.73335 1252644.25942 426.175873016
v 2684345.51657 1252642.11558 426.175873016
v 2684345.50001 1252641.37496 426.175873016
v 2684344.75003 1252640.75002 426.175873016
v 2684344.67974 1252640.28983 426.175873016
v 2684343.5703 1252638.33511 426.175873016
v 2684343.50001 1252637.50002 426.175873016
v 2684342.67976 1252637.1649 426.175873016
v 2684341.57028 1252635.21009 426.175873016
v 2684340.6043 1252633.33267 426.175873016
v 2684338.39052 1252629.42022 426.175873016
v 2684336.30938 1252625.96465 426.175873016
v 2684341.31894 1252623.12138 426.175873016
v 2684342.79191 1252622.30894 426.175873016
v 2684345.12906 1252626.42679 426.175873016
v 2684345.62733 1252627.31966 426.175873016
v 2684345.87264 1252627.80537 426.175873016
v 2684346.37734 1252628.6946 426.175873016
v 2684347.13291 1252630.04961 426.175873016
v 2684347.76661 1252630.74054 426.175873016
v 2684348.98339 1252632.88438 426.175873016
v 2684348.99995 1252633.74997 426.175873016
v 2684349.74998 1252634.25002 426.175873016
v 2684349.84833 1252634.81914 426.175873016
v 2684351.40162 1252637.55589 426.175873016
v 2684353.13037 1252640.67604 426.175873016
v 2684354.13837 1252642.40452 426.175873016
g roof
f 1 2 3
g roof
f 1 3 4
g roof
f 1 4 5
g roof
f 1 5 6
g roof
f 1 6 7
g roof
f 1 7 8
g roof
f 1 8 9
g roof
f 1 9 10
g roof
f 1 10 11
g roof
f 1 11 12
g roof
f 1 12 13
g roof
f 1 13 14
g roof
f 1 14 15
g roof
f 1 15 16
g roof
f 1 16 17
g roof
f 1 17 18
g roof
f 1 18 19
g roof
f 1 19 20
g roof
f 1 20 21
g roof
f 1 21 22
g roof
f 22 23 24
g roof
f 22 24 25
g roof
f 22 25 26
g roof
f 22 26 27
g roof
f 22 27 28
g roof
f 28 29 30
g roof
f 28 30 31
g roof
f 31 32 33
g roof
f 31 33 34
g roof
f 31 34 1
g roof
f 31 1 22
g roof
f 31 22 28
g facade_completed
f 4 3 35 36
g facade_completed
f 5 4 36 37
g facade_completed
f 6 5 37 38
g facade_completed
f 7 6 38 39
g facade_completed
f 8 7 39 40
g facade_completed
f 9 8 40 41
g facade_completed
f 10 9 41 42
g facade_completed
f 11 10 42 43
g facade_completed
f 12 11 43 44
g facade_completed
f 13 12 44 45
g facade_completed
f 14 13 45 46
g facade_completed
f 15 14 46 47
g facade_completed
f 16 15 47 48
g facade_completed
f 17 16 48 49
g facade_completed
f 18 17 49 50
g facade_completed
f 19 18 50 51
g facade_completed
f 20 19 51 52
g facade_completed
f 21 20 52 53
g facade_completed
f 22 21 53 54
g facade_completed
f 23 22 54 55
g facade_completed
f 24 23 55 56
g facade_completed
f 25 24 56 57
g facade_completed
f 26 25 57 58
g facade_completed
f 27 26 58 59
g facade_completed
f 28 27 59 60
g facade_completed
f 29 28 60 61
g facade_completed
f 30 29 61 62
g facade_completed
f 31 30 62 63
g facade_completed
f 32 31 63 64
g facade_completed
f 33 32 64 65
g facade_completed
f 34 33 65 66
g facade_completed
f 1 34 66 67
g facade_completed
f 2 1 67 68
g facade_completed
f 3 2 68 35
g ground_assumed
f 68 36 35
g ground_assumed
f 36 38 37
g ground_assumed
f 38 40 39
g ground_assumed
f 38 41 40
g ground_assumed
f 38 42 41
g ground_assumed
f 38 43 42
g ground_assumed
f 38 44 43
g ground_assumed
f 44 46 45
g ground_assumed
f 44 47 46
g ground_assumed
f 44 48 47
g ground_assumed
f 48 50 49
g ground_assumed
f 48 51 50
g ground_assumed
f 48 52 51
g ground_assumed
f 48 53 52
g ground_assumed
f 48 54 53
g ground_assumed
f 48 55 54
g ground_assumed
f 48 56 55
g ground_assumed
f 48 57 56
g ground_assumed
f 48 58 57
g ground_assumed
f 48 59 58
g ground_assumed
f 48 60 59
g ground_assumed
f 48 61 60
g ground_assumed
f 48 62 61
g ground_assumed
f 48 63 62
g ground_assumed
f 48 64 63
g ground_assumed
f 48 65 64
g ground_assumed
f 48 66 65
g ground_assumed
f 48 67 66
g ground_assumed
f 48 68 67
g ground_assumed
f 48 36 68
g ground_assumed
f 48 38 36
g ground_assumed
f 48 44 38
