v 2684353.1303673405 1252640.6760369008 429.46349630169169
v 2684354.1383653171 1252642.4045244234 429.46313747012397
v 2684353.2108344976 1252642.9309608338 429.46137398239949
v 2684352.3181571853 1252643.3700909347 429.45974354268907
v 2684349.2130360398 1252645.0598340684 429.45391168947998
v 2684348.5464421655 1252645.3317859157 429.45274952892152
v 2684347.9536245191 1252645.668249985 429.45162242217441
v 2684347.5000286722 1252645.6250079202 429.45105739623727
v 2684347.5000031958 1252644.8750009346 429.45179912585979
v 2684346.733348791 1252644.2594193092 429.45138066950886
v 2684345.5165725411 1252642.1155754407 429.45187054100461
v 2684345.5000084988 1252641.3749552087 429.45258082604983
v 2684344.7500269879 1252640.7500238856 429.45219395714787
v 2684344.679738658 1252640.2898274346 429.4525549130696
v 2684343.5703021307 1252638.3351059342 429.4530015693328
v 2684343.5000068527 1252637.5000159999 429.45373328907033
v 2684342.6797624882 1252637.164895212 429.45296564646759
v 2684341.5702773253 1252635.2100880202 429.45341232342258
v 2684340.6043031975 1252633.3326700192 429.4539747569778
v 2684338.3905230309 1252629.4202231662 429.45487786458909
v 2684336.3093825877 1252625.9646469858 429.45550685368164
v 2684341.3189402083 1252623.1213845524 429.46503138293554
v 2684342.7919055987 1252622.3089427976 429.46780858262338
v 2684345.1290614824 1252626.4267888779 429.46686764949027
v 2684345.6273306822 1252627.3196630506 429.46665224137598
v 2684345.8726415639 1252627.8053748908 429.46650056979303
v 2684346.3773376686 1252628.6946013602 429.46629738065542
v 2684347.1329146386 1252630.0496104765 429.4659696931418
v 2684347.7666120278 1252630.7405408954 429.4661354745341
v 2684348.9833882763 1252632.8843847637 429.46564560402368
v 2684348.9999546362 1252633.7499694899 429.46481173103984
v 2684349.749982466 1252634.2500220113 429.46532216817394
v 2684349.8483314705 1252634.8191446469 429.46489108295248
v 2684351.4016204262 1252637.5558918531 429.46426573166832
v 2684353.2108344976 1252642.9309608338 426.17587301607483
v 2684352.3181571853 1252643.3700909347 426.17587301607483
v 2684349.2130360398 1252645.0598340684 426.17587301607483
v 2684348.5464421655 1252645.3317859157 426.17587301607483
v 2684347.9536245191 1252645.668249985 426.17587301607483
v 2684347.5000286722 1252645.6250079202 426.17587301607483
v 2684347.5000031958 1252644.8750009346 426.17587301607483
v 2684346.733348791 1252644.2594193092 426.17587301607483
v 2684345.5165725411 1252642.1155754407 426.17587301607483
v 2684345.5000084988 1252641.3749552087 426.17587301607483
v 2684344.7500269879 1252640.7500238856 426.17587301607483
v 2684344.679738658 1252640.2898274346 426.17587301607483
v 2684343.5703021307 1252638.3351059342 426.17587301607483
v 2684343.5000068527 1252637.5000159999 426.17587301607483
v 2684342.6797624882 1252637.164895212 426.17587301607483
v 2684341.5702773253 1252635.2100880202 426.17587301607483
v 2684340.6043031975 1252633.3326700192 426.17587301607483
v 2684338.3905230309 1252629.4202231662 426.17587301607483
v 2684336.3093825877 1252625.9646469858 426.17587301607483
v 2684341.3189402083 1252623.1213845524 426.17587301607483
v 2684342.7919055987 1252622.3089427976 426.17587301607483
v 2684345.1290614824 1252626.4267888779 426.17587301607483
v 2684345.6273306822 1252627.3196630506 426.17587301607483
v 2684345.8726415639 1252627.8053748908 426.17587301607483
v 2684346.3773376686 1252628.6946013602 426.17587301607483
v 2684347.1329146386 1252630.0496104765 426.17587301607483
v 2684347.7666120278 1252630.7405408954 426.17587301607483
v 2684348.9833882763 1252632.8843847637 426.17587301607483
v 2684348.9999546362 1252633.7499694899 426.17587301607483
v 2684349.749982466 1252634.2500220113 426.17587301607483
v 2684349.8483314705 1252634.8191446469 426.17587301607483
v 2684351.4016204262 1252637.5558918531 426.17587301607483
v 2684353.1303673405 1252640.6760369008 426.17587301607483
v 2684354.1383653171 1252642.4045244234 426.17587301607483
l 1 2
l 2 3
l 3 4
l 4 5
l 5 6
l 6 7
l 7 8
l 8 9
l 9 10
l 10 11
l 11 12
l 12 13
l 13 14
l 14 15
l 15 16
l 16 17
l 17 18
l 18 19
l 19 20
l 20 21
l 21 22
l 22 23
l 23 24
l 24 25
l 25 26
l 26 27
l 27 28
l 28 29
l 29 30
l 30 31
l 31 32
l 32 33
l 33 34
l 1 34
l 35 36
l 36 37
l 37 38
l 38 39
l 7 39
l 39 40
l 8 40
l 40 41
l 9 41
l 41 42
l 10 42
l 42 43
l 11 43
l 43 44
l 12 44
l 44 45
l 13 45
l 45 46
l 14 46
l 46 47
l 15 47
l 47 48
l 16 48
l 48 49
l 17 49
l 49 50
l 50 51
l 51 52
l 52 53
l 21 53
l 53 54
l 54 55
l 23 55
l 55 56
l 56 57
l 57 58
l 58 59
l 59 60
l 28 60
l 60 61
l 29 61
l 61 62
l 30 62
l 62 63
l 31 63
l 63 64
l 32 64
l 64 65
l 33 65
l 65 66
l 66 67
l 67 68
l 2 68
l 35 68
