# Source coordinates; no display transform
v -0.419870153878 0.0460508074964 0.174790704484
v -0.428550402668 0.0824791726993 0.174782066451
v -0.467777898337 0.0641608379571 0.174610318344
v -0.449378625994 0.035807756025 0.174664074371
v -0.427059461989 0.0480976850542 0.17476314811
v -0.412088158614 0.0377068749194 0.174816087028
v -0.412263918125 0.0388154834654 0.174816181246
v -0.1660625933 -0.096628313523 0.175712458865
v -0.148787610355 -0.0654617840855 0.175804850079
v -0.170244887927 -0.0505693934538 0.175728976535
v -0.192864896629 -0.0831607897589 0.175613960473
v -0.185200477938 -0.119809015594 0.175618335532
v -0.167876730771 -0.122364964674 0.175686460726
v -0.306132765489 0.343841280964 0.175466170449
v -0.382316114512 0.234074668687 0.175078800554
v -0.337415925543 0.232177710913 0.175258798954
v -0.302060765939 0.213564455788 0.17538811382
v -0.319138747126 0.213679632426 0.175319210797
v -0.337384807811 0.202890164148 0.175237678877
v -0.341037413197 0.20542524928 0.175224763181
v -0.482960055635 0.0890647078441 0.174567055699
v -0.467964062905 0.0955683440973 0.174632349978
v -0.445674044685 0.0800979910774 0.174711168088
v -0.422411210756 0.0865942498208 0.17480985091
v -0.419947782889 0.0872821739308 0.174820300959
v -0.418988836799 0.0812335338177 0.174819786858
v -0.345656070902 0.186892964406 0.175192662376
v -0.300898228771 0.155828852664 0.175350927315
v -0.267767727364 0.203563993547 0.175519386173
v -0.248742523415 0.19035957989 0.175586659814
v -0.232156267459 0.214257415174 0.175670996032
v -0.211716184535 0.20007100692 0.17574327276
v -0.200201874205 0.203833267105 0.175792514059
v -0.207121069038 0.21530121674 0.17577288305
v -0.222447383855 0.21073649613 0.175707660976
v -0.198360919552 0.24544079338 0.17583013357
v -0.208922088332 0.249948850513 0.175790741922
v -0.214150068609 0.24946852672 0.175769275043
v -0.250481687157 0.228881990739 0.17560757939
v -0.276560764692 0.266926254203 0.175529830926
v -0.275686423844 0.27284974512 0.175537659862
v -0.317537148083 0.301896176158 0.175389674588
v -0.298422387427 0.329437135576 0.175486867513
v -0.254026983937 0.330463415723 0.175666947421
v -0.250537721086 0.364275197122 0.175705570082
v -0.272505324533 0.395603757041 0.175639558208
v -0.280505692097 0.384076654981 0.175598878683
v -0.259512614097 0.213277504242 0.175559779129
v -0.302071161234 0.231794412516 0.175401296237
v -0.254368740296 0.231277100831 0.175593615092
v -0.076911272287 -0.00346306528551 0.176140170003
v -0.108888435493 0.00652200944102 0.176018241488
v -0.120464177395 -0.0143622775161 0.175956331321
v -0.113888163887 -0.018926349606 0.175979584289
v -0.0958503487234 -0.0314454675869 0.176043366476
v -0.103887475449 -0.0430255330639 0.176002500081
v -0.0888231759502 -0.0534808870497 0.176055767841
v -0.05972567898 -0.0115565859122 0.176203720052
v -0.0222503020753 -0.0375663138332 0.176336234002
v -0.0293553216289 -0.0478033792374 0.176300107058
v -0.00857344440097 -0.0470587159446 0.176384595748
v 0.0212093050045 -0.0459915303521 0.176505677452
v 0.0661599064116 -0.044380845073 0.176688424015
v 0.0924503959031 0.0508093661009 0.176863677484
v 0.115028394147 0.0833402328595 0.176978479967
v 0.0877079210408 0.0890957781446 0.176872294011
v 0.0732960929704 0.0921318869882 0.176816279791
v 0.0753180633106 0.0982552772128 0.176828889624
v 0.0739301058196 0.100349172137 0.176824801917
v 0.0723022329831 0.102805006107 0.17682000762
v 0.0736870708264 0.131214896112 0.176846210772
v 0.073829762716 0.131115861009 0.176846715341
v 0.0737012159617 0.131505075708 0.176846478414
v 0.0659138007218 0.188947821391 0.17685669126
v 0.0537814027808 0.197368293577 0.176813790797
v 0.0717719352845 0.171883000103 0.176867976054
v 0.0587435779753 0.141586404403 0.176793370171
v 0.0531826734718 0.133574133273 0.176765094636
v 0.0531984405752 0.131320900816 0.176763523783
v 0.0518587378566 0.13166657832 0.176758362791
v -0.011698367858 0.148065846244 0.176513519973
v -0.0480855986097 0.12160983781 0.176347341872
v -0.0373192751746 0.0930110414273 0.176370086312
v -0.00743993508435 0.0722733312179 0.176475740484
v -0.0160431456372 0.0700548431958 0.176439378456
v -0.0159602379313 0.0698500374603 0.176439564774
v -0.00301921514696 0.0378819949816 0.176468649819
v -0.0241084675866 0.00749614526057 0.17636141715
v -0.0723240620771 0.0409601047044 0.176190925513
v -0.0826455076775 0.0260887432474 0.176138444008
v -0.0882480283596 0.0180165106417 0.176109956829
v -0.0801046747857 0.00258742483468 0.176131659344
v 0.0752897547584 0.164093882768 0.17687653594
v 0.0673714768246 0.154017667127 0.17683724049
v 0.0666223619841 0.152938326352 0.176833431476
v -0.239334247397 0.134838322926 0.175584388312
v -0.236880981766 0.135125565277 0.175594506664
v -0.23297282766 0.158355046536 0.175627144824
v -0.24167395495 0.164394050624 0.175596377393
v -0.25475758853 0.145542869185 0.175529850958
v -0.264208415953 0.131925913168 0.175481796318
v -0.0682544488303 0.14385851988 0.176282009371
v -0.0585103086247 0.114030359788 0.176299732903
v -0.0585238400075 0.149337143371 0.176325290483
v -0.0585352546623 0.231772912619 0.176385044964
v -0.127006600523 0.222894167017 0.176102013873
v -0.129205217801 0.214744484396 0.176087220586
v -0.163655965033 0.203856463801 0.175940158242
v -0.143765052007 0.190051206133 0.176010493047
v -0.167976107196 0.140637908316 0.175876847008
v -0.106590533245 0.151654887351 0.176132806216
v -0.106604398996 0.200796103996 0.176168398244
v -0.0811373152015 0.20082266118 0.176271291911
v -0.0811530927121 0.151735650976 0.176235619434
v -0.0710609466752 0.152449592335 0.176276904653
v -0.0395589613745 0.154678122588 0.176405773664
v -0.0603962696468 0.169140224487 0.176332092369
v 0.0489749157591 -0.289417746712 0.176441250383
v 0.0489846183263 -0.258203727989 0.176463932886
v 0.00321146853263 -0.224237187796 0.176303672054
v -0.0118376663795 -0.236184986634 0.176234213854
v -0.002467622612 -0.220022947 0.176283788462
v -0.0291492209714 -0.200223532143 0.176190370935
v -0.0291499072064 -0.218889137438 0.176176827717
v -0.0763621796147 -0.234731820332 0.175974620944
v -0.0758892922755 -0.235060027072 0.175976293106
v -0.0161647029439 -0.241393768356 0.176212956226
v 0.0269105918589 -0.29601005662 0.176347339248
v 0.0512998239006 -0.290367181111 0.176449953116
v -0.000357381691329 -0.103303052725 0.176376983798
v -0.0110778985026 -0.103000377224 0.176333897754
v -0.033073001544 -0.134691396045 0.176222059132
v -0.0178271133129 -0.145272781404 0.176275969011
v -0.0347310733716 -0.169628371629 0.176190017364
v -0.0166327286152 -0.182189500067 0.17625401359
v -0.0161215781718 -0.159388232258 0.176272618884
v 0.0238309882787 -0.142666190603 0.176446137977
v 0.0297517944433 -0.170458915837 0.176449893665
v 0.0360030898557 -0.199802983278 0.176453859019
v 0.0955321100405 -0.213130013434 0.176684659071
v 0.118455876968 -0.218262060527 0.176773536819
v 0.133828565558 -0.286436416156 0.176786179808
v 0.13250428549 -0.313651485832 0.176761087976
v 0.137754130701 -0.315726833209 0.176780789257
v 0.15419347812 -0.322225569066 0.176842481747
v 0.166256481226 -0.310401513937 0.176899787711
v 0.166264717335 -0.310421434645 0.176899806546
v 0.166257846972 -0.332028210414 0.176884104787
v 0.175459726463 -0.332661498853 0.176920816425
v 0.18355384583 -0.352238821272 0.176939310878
v 0.14062738956 -0.336005315066 0.176777685358
v 0.138627522231 -0.336607753553 0.176769169865
v 0.140650771698 -0.384979368236 0.176742253031
v 0.212925361934 -0.371284379304 0.177044141218
v 0.229151903283 -0.3479048286 0.177126648382
v 0.292787252175 -0.256217645593 0.177450215415
v 0.138377544715 -0.149049824745 0.176904218444
v 0.16290620477 -0.103892869682 0.177036059882
v 0.154098316178 -0.0608399849974 0.177031711808
v 0.11419998785 -0.0772577393148 0.176858632584
v 0.11430012267 -0.0934036107048 0.176847324534
v 0.146865037313 -0.116005239849 0.176962474924
v 0.13880953103 -0.127611786988 0.176921515048
v 0.128627245064 -0.142282644227 0.176869741145
v 0.114178775305 -0.132254705969 0.176818650945
v 0.114167633127 -0.163116364893 0.176796218262
v 0.0731522648466 -0.138629276992 0.176648299944
v 0.066892783335 -0.108805910322 0.176644649203
v 0.0562179972574 -0.104900362132 0.176604361563
v 0.0533579382227 -0.104819613566 0.17659286692
v 0.0131685272616 -0.103684933708 0.176431344736
v 0.0258748795492 -0.112503758082 0.176476274709
v 0.00572561124835 -0.14153525842 0.176373821647
v -0.0162882408089 -0.126256578131 0.17629598007
v 0.136008218077 -0.241642721355 0.176827478795
v 0.112303554538 -0.165802169603 0.176786739958
v 0.00386102753796 -0.0972250777924 0.176398433132
v 0.155320705729 0.004083211801 0.177083746261
v 0.114239491308 0.00414492372381 0.176917843308
v 0.114212976582 -0.0456521293975 0.176881612384
v 0.143244881376 -0.0201286355385 0.177017402183
v 0.186642139985 -0.0206293446829 0.177192342328
v 0.216264767722 0.0220515761788 0.177342964694
v 0.214974853696 0.0241521192755 0.177339277851
v 0.179380673265 -0.0115872578814 0.177169568923
v 0.179379542787 0.00404707076634 0.177180905846
v 0.190152939435 0.0399232249847 0.177250450297
v 0.154068143067 0.00489901692254 0.177079278366
v 0.11859480336 0.113903375874 0.177015057646
v 0.118580723938 0.0808747438001 0.176991041125
v 0.140459005947 0.0971814609472 0.177091247737
v 0.202109675214 0.051528533705 0.177307168343
v 0.19963711787 0.0491286486564 0.17729543949
v 0.244547973552 0.0538458745191 0.177480279066
v 0.219196643676 0.0539295631385 0.177377932977
v 0.196497474391 0.0934677258933 0.177314921389
v 0.20209350605 0.11282952659 0.177351572012
v 0.183721676015 0.0805520485831 0.177253944192
v 0.351010068566 -0.10387318369 0.177795920503
v 0.379101899608 -0.102568525559 0.177910343996
v 0.353300738913 -0.0669425056101 0.177831963958
v 0.299245621325 -0.146231582574 0.177556090166
v 0.311654357793 -0.154843847128 0.177599967807
v 0.319748849428 -0.148915022393 0.177636966428
v 0.447613530714 0.069591512676 0.17831198548
v 0.353259896694 0.0461978110803 0.177913873303
v 0.356128087213 0.0206315852085 0.177906913097
v 0.349787423852 0.0207208617481 0.177881364728
v 0.356496787805 0.0173450942549 0.177906018349
v 0.357464822893 0.00871630765631 0.177903669253
v 0.399975481677 -0.0207881499247 0.178053988105
v 0.398879124143 -0.0223678055194 0.178048413447
v 0.403395678719 -0.0214410654582 0.17806733036
v 0.411209261284 -0.010183087202 0.178107060153
v 0.42468185523 0.00922851669392 0.178175564292
v 0.447233702911 0.0117196568603 0.178268469698
v 0.468068032126 -0.00366931767736 0.1783414666
v 0.495734547682 0.0361931945895 0.178482142703
v 0.458663962347 0.0619219775234 0.178351060075
v -0.418988836799 0.0812335338177 0.182688036225
v -0.419947782889 0.0872821739308 0.182728449581
v -0.42241121048 0.0865942511101 0.182715724854
v -0.445674044685 0.0800979910774 0.18259556143
v -0.467964062905 0.0955683440973 0.182636243534
v -0.482960055635 0.0890647078441 0.182542148429
v -0.495056443323 0.0716359715571 0.182378747642
v -0.467777898337 0.0641608379571 0.182411252441
v -0.428550402668 0.0824791726993 0.182666770538
v -0.412088158614 0.0377068749194 0.182397217549
v -0.427059461989 0.0480976850542 0.182424542108
v -0.449378625994 0.035807756025 0.182265748379
v -0.502445033534 0.0609903314944 0.182278940835
v -0.4284703192 0.00964829436212 0.182143927575
v -0.409832262312 0.0365024087102 0.182395694773
v -0.412263916605 0.0388154845706 0.182404624623
v -0.419870153878 0.0460508074964 0.182432557224
v 0.403395678719 -0.0214410654582 0.184549133408
v 0.398879124143 -0.0223678055194 0.184528206004
v 0.373508889972 -0.0589217860346 0.184185498992
v 0.349070103953 0.0145426494884 0.184635924637
v 0.357464822893 0.00871630765631 0.184620603204
v 0.356496787805 0.0173450942549 0.184679519302
v 0.349787423852 0.0207208617481 0.184682565224
v 0.356128084911 0.020631585715 0.184701958984
v 0.353259896694 0.0461978110803 0.184876521474
v 0.447613530714 0.069591512676 0.185342678212
v 0.318473669377 0.159220835556 0.185578374884
v 0.259794814324 0.188730339741 0.185604910793
v 0.250799323901 0.175769443173 0.185483397602
v 0.248888648012 0.131091781584 0.185156470219
v 0.205598462831 0.112678326667 0.184887431791
v 0.140442576555 0.128785066729 0.184797238629
v 0.13136808129 0.153160717746 0.184943639559
v 0.116067167529 0.141218438076 0.184809518791
v 0.0101213583471 0.213651300297 0.184994992381
v 0.0101063209959 0.245943407791 0.185226877736
v -0.0550465243779 0.263645584873 0.185148153154
v -0.0617005873313 0.280500480602 0.185248185467
v -0.117081370996 0.318937428576 0.185349262421
v -0.141911127319 0.344494546339 0.185454366159
v -0.18888730256 0.352591349215 0.185364086515
v -0.209045250707 0.392221178681 0.185585027016
v -0.253458830859 0.423046355894 0.185666087432
v -0.272505324533 0.395603757041 0.185408802955
v -0.250537721086 0.364275197122 0.185253203059
v -0.254026983937 0.330463415723 0.184999330186
v -0.298422387427 0.329437135576 0.184851680062
v -0.317537148083 0.301896176158 0.184593473436
v -0.275686423844 0.27284974512 0.184517090581
v -0.276560764692 0.266926254203 0.184471783322
v -0.250481687157 0.228881990739 0.184280940272
v -0.214150068609 0.24946852672 0.18454359909
v -0.208922090082 0.24994885079 0.184563568105
v -0.194299695024 0.251292293263 0.184619420506
v -0.193575693152 0.252335450776 0.184629200483
v -0.193349387934 0.251379603382 0.18462305034
v -0.188845345336 0.251793415337 0.184640254153
v -0.179483647092 0.232765795244 0.184533172113
v -0.123691215816 0.235183405851 0.184726827105
v -0.127006600523 0.222894167017 0.1846280858
v -0.0585352546623 0.231772912619 0.184908209257
v -0.0590939496513 0.212969963895 0.184771394757
v -0.0159854418941 0.200128033178 0.184815372373
v -0.0159994040272 0.167446856317 0.184580600981
v 0.0101515314582 0.147912298423 0.184522927953
v 0.0534540110308 0.165140080124 0.184783489338
v 0.0662157037366 0.154169599796 0.184745019562
v 0.066622361892 0.152938326168 0.184737461077
v 0.0673714768246 0.154017667127 0.184747580303
v 0.0717719352845 0.171883000103 0.184889799583
v 0.0537814027808 0.197368293577 0.185015997748
v 0.0752897547584 0.164093882768 0.184844970966
v 0.11859480336 0.113903375874 0.18462131951
v 0.140459005947 0.0971814609472 0.184570302759
v 0.20209350605 0.11282952659 0.184877442932
v 0.196497474391 0.0934677258933 0.184720697777
v 0.219196643676 0.0539295631385 0.184508445318
v 0.244547973552 0.0538458745191 0.184587948466
v 0.214974853696 0.0241521192755 0.184281233794
v 0.216264767722 0.0220515761788 0.184270222812
v 0.186642139985 -0.0206293446829 0.183870073436
v 0.143244881376 -0.0201286355385 0.183736544639
v 0.261771589951 -0.0985185639053 0.183548038021
v 0.310277920826 -0.0286295962933 0.18420327281
v 0.29746134424 -0.123288983188 0.183482899666
v 0.283751394078 -0.113773613295 0.183507922101
v 0.263055989736 -0.1435919982 0.183228363767
v 0.295897070588 -0.166385300028 0.183168424626
v 0.311654357793 -0.154843847128 0.183301108545
v 0.299245621325 -0.146231582574 0.18332375605
v 0.379101899608 -0.102568525559 0.183889685933
v 0.351010068566 -0.10387318369 0.183791551841
v 0.319748849428 -0.148915022393 0.183369268047
v 0.332472838489 -0.139595314069 0.183476410136
v 0.336020793313 -0.184670244846 0.183163877432
v 0.244447475398 -0.131943614488 0.183253227882
v 0.265736277534 -0.101270249247 0.183540801976
v 0.114239491308 0.00414492372381 0.183819235358
v 0.155320705729 0.004083211801 0.183948599083
v 0.154068143067 0.00489901692254 0.183950500666
v 0.190152939435 0.0399232249847 0.184316075808
v 0.195124156289 0.0564777201683 0.184450683691
v 0.19963711787 0.0491286486564 0.184412160036
v 0.202109675214 0.051528533705 0.184437209548
v 0.183721676015 0.0805520485831 0.184587564502
v 0.118580723938 0.0808747438001 0.184384052169
v 0.0737012156393 0.131505076169 0.184605887741
v 0.073829762716 0.131115861009 0.184603498444
v 0.0736870708264 0.131214896112 0.184603758856
v 0.0723022327528 0.102805007535 0.184395333648
v 0.073930105267 0.100349174578 0.18438283871
v 0.083378928831 0.102203032678 0.184426009808
v 0.0877079210408 0.0890957781446 0.184345547672
v 0.115028394147 0.0833402328595 0.184390535621
v 0.0924503959031 0.0508093661009 0.184085546805
v 0.0661599064116 -0.044380845073 0.183318786718
v -0.0293553216289 -0.0478033792374 0.182992399361
v -0.0222503020753 -0.0375663138332 0.183088375603
v -0.05972567898 -0.0115565859122 0.183156772952
v -0.0888231759502 -0.0534808870497 0.182763717188
v -0.103887475449 -0.0430255330639 0.182791211441
v -0.128993978393 -0.0791995240023 0.182452066984
v -0.148787610355 -0.0654617840855 0.182488192868
v -0.1660625933 -0.096628313523 0.18220975944
v -0.167876730771 -0.122364964674 0.182019177862
v -0.192864896629 -0.0831607897589 0.182221798808
v -0.170244887927 -0.0505693934538 0.182527355142
v -0.194918258422 -0.0334448784696 0.182572387161
v -0.161774628752 0.0143091779458 0.183020099042
v -0.120464177395 -0.0143622775161 0.182944702207
v -0.108888435493 0.00652200944102 0.183131276849
v -0.0984812302267 0.00327229270767 0.18314082059
v -0.076911272287 -0.00346306528551 0.183160600939
v -0.0801046747857 0.00258742483468 0.183193967193
v -0.0882480283596 0.0180165106417 0.183279053057
v -0.0723240620771 0.0409601047044 0.18349415766
v -0.0241084675866 0.00749614526057 0.183406158083
v -0.00301921514696 0.0378819949816 0.183691036603
v -0.0159602379313 0.0698500374603 0.18387975132
v -0.054979529385 0.0793654221815 0.183824802326
v -0.0811671168744 0.136588301937 0.18415304982
v -0.0682544488303 0.14385851988 0.184246067957
v -0.0710609466752 0.152449592335 0.184298904092
v -0.0811530927121 0.151735650976 0.184261887511
v -0.0811373152015 0.20082266118 0.184614496901
v -0.106604398996 0.200796103996 0.184533836198
v -0.106590533245 0.151654887351 0.184180931122
v -0.167976107196 0.140637908316 0.183907839524
v -0.143765052007 0.190051206133 0.184339243814
v -0.163655965033 0.203856463801 0.184375547267
v -0.194360859414 0.194152305004 0.184208828495
v -0.200201874205 0.203833267105 0.18425990419
v -0.211716184535 0.20007100692 0.184196499889
v -0.232156267459 0.214257415174 0.184233805616
v -0.248742523415 0.19035957989 0.184009754631
v -0.231809373087 0.178607152876 0.183978849466
v -0.24167395495 0.164394050624 0.183845596416
v -0.23297282766 0.158355046536 0.183829715754
v -0.236880981766 0.135125565277 0.183650524884
v -0.23933424643 0.134838322281 0.183640710093
v -0.264208415953 0.131925913168 0.183541195657
v -0.287903433705 0.0977856205936 0.183221117868
v -0.137350639428 0.0394769459449 0.183278036507
v -0.105517211095 0.0853432360456 0.183708049861
v -0.102776899331 0.0154810945948 0.183214935029
v -0.295037745574 0.0875063502172 0.18312474592
v -0.310656368917 0.0983464318039 0.183153251888
v -0.315579736928 0.0957712832018 0.183119199629
v -0.319551084012 0.0695755450716 0.182918504442
v -0.289203065263 0.0485125492025 0.182863115441
v -0.298148921674 0.01835898326 0.182618275523
v -0.287490427714 0.0109614718553 0.182598822405
v -0.302668728475 -0.0109077512251 0.182393790427
v -0.275546993943 -0.00236713150272 0.182540830298
v -0.228574045001 0.065312506391 0.183175351814
v -0.236664304285 -0.0293536026784 0.182469864472
v -0.33393824589 -0.0559615462682 0.181971394502
v -0.0763621796147 -0.234731820332 0.181501285397
v -0.0291499072064 -0.218889137438 0.181764252565
v -0.0291492209714 -0.200223532143 0.181898317428
v -0.002467622612 -0.220022947 0.181840418894
v -0.0118376663795 -0.236184986634 0.181694730494
v 0.00321146853263 -0.224237187796 0.181828095353
v 0.0489846183263 -0.258203727989 0.181728768523
v 0.0489749157591 -0.289417746712 0.181504548213
v 0.0512998230256 -0.290367180052 0.181505075208
v 0.0269105918589 -0.29601005662 0.181387481919
v -0.0161647029439 -0.241393768356 0.181643646878
v -0.0758892922755 -0.235060027072 0.18150042233
v 0.182840619118 -0.414631125593 0.181028207319
v 0.212925361934 -0.371284379304 0.18143459903
v 0.140650771698 -0.384979368236 0.181107866345
v 0.180579008672 -0.351113826528 0.181477263902
v 0.18355384583 -0.352238821272 0.181478583599
v 0.182151808456 -0.34884770269 0.181498509649
v 0.175459728351 -0.332661498991 0.181593619048
v 0.166257846972 -0.332028210414 0.181569091788
v 0.166264717335 -0.310421434645 0.181724300674
v 0.166256481226 -0.310401513937 0.181724417733
v 0.15419347812 -0.322225569066 0.181601377114
v 0.137754130701 -0.315726833209 0.18159610878
v 0.13250428549 -0.313651485832 0.181594426348
v 0.1314113968 -0.336111268102 0.181429659353
v 0.11389186617 -0.323951864727 0.181461634718
v 0.114130495988 -0.257979017846 0.181936228066
v 0.0877911746733 -0.224283319992 0.182095015901
v 0.0955321100405 -0.213130013434 0.182199582283
v 0.0360030898557 -0.199802983278 0.182107203871
v 0.0238309882787 -0.142666190603 0.182479118697
v -0.0161215781718 -0.159388232258 0.182232774653
v -0.0166327286152 -0.182189500067 0.182067393123
v -0.0347310733716 -0.169628371629 0.182100424872
v -0.0623109423416 -0.209366041622 0.18172786963
v -0.115347834686 -0.077588674187 0.182506755244
v -0.033073001544 -0.134691396045 0.182356593192
v -0.0110778985026 -0.103000377224 0.182653708173
v -0.000357381691329 -0.103303052725 0.182685408528
v 0.00386102753796 -0.0972250777924 0.182742391821
v 0.0131685272616 -0.103684933708 0.182725404442
v 0.0533579363807 -0.104819613197 0.18284424384
v 0.0562179966587 -0.104900361717 0.182852700989
v 0.0668927818154 -0.108805909631 0.182858379811
v 0.0731522648466 -0.138629276992 0.182663956754
v 0.112303554538 -0.165802169603 0.18259250068
v 0.114167633127 -0.163116364893 0.182617681112
v 0.114178775305 -0.132254705969 0.182839375173
v 0.128627245064 -0.142282644227 0.182813004905
v 0.146865037313 -0.116005239849 0.183059365205
v 0.11430012267 -0.0934036107048 0.18311880033
v 0.11419998785 -0.0772577393148 0.183234449072
v 0.146952514869 -0.133263412431 0.182935687578
v 0.138377544715 -0.149049824745 0.182795209351
v 0.292787252175 -0.256217645593 0.182513391996
v 0.450000907378 -0.0297008206426 0.184637070588
v 0.411209261284 -0.010183087202 0.184654681113
v 0.322603512248 -0.0235909866215 0.18427840776
v 0.345967675069 -0.0534000155765 0.184138134455
v 0.353300738913 -0.0669425056101 0.184064038482
v 0.28818768688 -0.200922853317 0.182896004388
v -0.00857344440097 -0.0470587159446 0.183063413586
v -0.0709434709517 0.0613473846955 0.183644948384
v 0.14062738956 -0.336005315066 0.181459540693
v 0.16290620477 -0.103892869682 0.183197046685
v -0.189691355343 0.0383260352154 0.183104385942
v 0.13862752154 -0.33660775277 0.181448894656
v 0.154098316178 -0.0608399849974 0.183478436238
v 0.0752762840694 0.195241395225 0.185068640428
v 0.0659138007218 0.188947821391 0.184993854581
v 0.0778313877664 0.167755922434 0.184879303945
v 0.114212976582 -0.0456521293975 0.183461492284
v -0.185200477938 -0.119809015594 0.181982796585
v -0.159831663714 -0.141681934405 0.181905857355
v 0.0518587378566 0.13166657832 0.184538030603
v 0.0531984405752 0.131320900816 0.184539781004
v 0.0531826734718 0.133574133273 0.184555914665
v 0.0587435779753 0.141586404403 0.184631032622
v 0.0530991945174 0.145503880105 0.184641334344
v -0.315579736928 0.0957712832018 0.170233340753
v -0.310656368917 0.0983464318039 0.170244571531
v -0.33099609985 0.112463190889 0.170194631656
v -0.300898228771 0.155828852664 0.170259335577
v -0.345656070902 0.186892964406 0.170149442193
v -0.418988836799 0.0812335338177 0.169991792572
v -0.412263916605 0.0388154845706 0.170013706411
v -0.409832262312 0.0365024087102 0.170019766296
v -0.382022501024 0.0765713124856 0.170079551262
v -0.298148921674 0.01835898326 0.170285485035
v -0.289203065263 0.0485125492025 0.170302246171
v -0.319551084012 0.0695755450716 0.170227733032
v -0.302071161234 0.231794412516 0.170245701365
v -0.337415925543 0.232177710913 0.170162375388
v -0.341037413197 0.20542524928 0.170157671579
v -0.337384807811 0.202890164148 0.170166639789
v -0.319138747126 0.213679632426 0.170208082912
v -0.302060765939 0.213564455788 0.170248334588
v -0.259512614097 0.213277504242 0.170348617734
v -0.254368740296 0.231277100831 0.170358160785
v -0.208922088332 0.249948850513 0.170462559684
v -0.198360919552 0.24544079338 0.170488086548
v -0.222447383855 0.21073649613 0.170436305876
v -0.207121069038 0.21530121674 0.170471760952
v -0.200201874205 0.203833267105 0.170489703451
v -0.194360859414 0.194152305004 0.170504850032
v -0.163655965033 0.203856463801 0.170575801123
v -0.129205217801 0.214744484396 0.170655407883
v -0.127006602365 0.222894166602 0.170659421542
v -0.123691215816 0.235183405851 0.170665473829
v -0.179483647092 0.232765795244 0.170534374623
v -0.182359249612 0.238610447652 0.17052676341
v -0.188845345336 0.251793415337 0.170509595885
v -0.193349386691 0.25137960375 0.170499043698
v -0.193575693152 0.252335450776 0.170498373764
v -0.194299695024 0.251292293263 0.170496817325
v 0.0955321100405 -0.213130013434 0.17124611153
v 0.0877911746733 -0.224283319992 0.17122947017
v 0.114130495988 -0.257979017846 0.171296346677
v 0.11389186617 -0.323951864727 0.17130522532
v 0.1314113968 -0.336111268102 0.171348240815
v 0.13250428549 -0.313651485832 0.171347601597
v 0.133828565558 -0.286436416156 0.171346827039
v 0.136008218077 -0.241642721355 0.171345552148
v 0.118455876968 -0.218262060527 0.171300853576
v 0.0131685272616 -0.103684933708 0.171036403741
v -0.000357381691329 -0.103303052725 0.171004482485
v -0.0162882408089 -0.126256578131 0.17097023456
v 0.00572561124835 -0.14153525842 0.171024284938
v 0.0258748795492 -0.112503758082 0.171067601507
v 0.263055989736 -0.1435919982 0.171630841387
v 0.283751394078 -0.113773613295 0.171675332044
v 0.265736277534 -0.101270249247 0.171631099773
v 0.244447475398 -0.131943614488 0.171585333443
v 0.28818768688 -0.200922853317 0.171698255019
v 0.336020793313 -0.184670244846 0.171808622533
v 0.332472838489 -0.139595314069 0.171793813358
v 0.319748849428 -0.148915022393 0.171765169701
v 0.311654357793 -0.154843847128 0.171746947772
v 0.295897070588 -0.166385300028 0.171711475704
v -0.0585103086247 0.114030359788 0.170836375218
v -0.0682544488303 0.14385851988 0.17080914985
v -0.0811671168744 0.136588301937 0.170779768428
v -0.054979529385 0.0793654221815 0.170849654247
v -0.0159602379313 0.0698500374603 0.170942944124
v -0.0160431456372 0.0700548431958 0.170942719493
v -0.00743993508435 0.0722733312179 0.170962670917
v -0.0373192751746 0.0930110414273 0.170889308518
v -0.0480855986097 0.12160983781 0.170859850883
v -0.0159994040272 0.167446856317 0.170928885563
v -0.0159854418941 0.200128033178 0.170924241711
v -0.0590939496513 0.212969963895 0.170820841725
v -0.0603962696468 0.169140224487 0.170824045644
v -0.0395589613745 0.154678122588 0.170875207222
v -0.0585238400075 0.149337143371 0.170831290853
v -0.011698367858 0.148065846244 0.170941792095
v 0.0518587367975 0.131666576755 0.171093877373
v 0.0531826734718 0.133574133273 0.171096723576
v 0.0530991945174 0.145503880105 0.171094819737
v 0.0587435779753 0.141586404403 0.171108678304
v 0.066622361892 0.152938326168 0.171125615995
v 0.0662157037366 0.154169599796 0.171124481741
v 0.0534540110308 0.165140080124 0.171092845672
v 0.0101515314582 0.147912298423 0.170993291771
v -0.071060945616 0.152449594361 0.170801308434
v 0.19963711787 0.0491286486564 0.171453849859
v 0.195124156289 0.0564777201683 0.171442165812
v 0.190152939435 0.0399232249847 0.171432822756
v 0.179379542787 0.00404707076634 0.171412574955
v 0.155320705729 0.004083211801 0.171355887901
v 0.179380673265 -0.0115872578814 0.171414814913
v 0.214974853696 0.0241521192755 0.171493559297
v 0.0732960929704 0.0921318869882 0.17115004061
v 0.0877079210408 0.0890957781446 0.171184428895
v 0.0833789302125 0.102203033322 0.171172354253
v 0.0739301058196 0.100349172137 0.1711503584
v 0.0753180633106 0.0982552772128 0.171153928047
v 0.411209261284 -0.010183087202 0.171960794707
v 0.450000907378 -0.0297008206426 0.172054979609
v 0.468068032126 -0.00366931767736 0.17209382004
v 0.447233702911 0.0117196568603 0.172042532838
v 0.42468185523 0.00922851669392 0.171989757904
v 0.349070103953 0.0145426494884 0.18914700545
v 0.322603512248 -0.0235909866215 0.18914700545
v 0.373508889972 -0.0589217860346 0.18914700545
v 0.398879123222 -0.0223678068088 0.18914700545
v 0.399975481677 -0.0207881499247 0.18914700545
v 0.357464822893 0.00871630765631 0.18914700545
v -0.115347834686 -0.077588674187 0.190618455941
v -0.159831663714 -0.141681934405 0.190618455941
v -0.0623109423416 -0.209366041622 0.190618455941
v -0.0347310733716 -0.169628371629 0.190618455941
v -0.0178271133129 -0.145272781404 0.190618455941
v -0.033073001544 -0.134691396045 0.190618455941
v -0.120464177395 -0.0143622775161 0.187942202985
v -0.161774628752 0.0143091779458 0.187942202985
v -0.183605928668 -0.0171458297753 0.187942202985
v -0.194918258422 -0.0334448784696 0.187942202985
v -0.170244887927 -0.0505693934538 0.187942202985
v -0.148787610355 -0.0654617840855 0.187942202985
v -0.128993978393 -0.0791995240023 0.187942202985
v -0.103887475449 -0.0430255330639 0.187942202985
v -0.0958503487234 -0.0314454675869 0.187942202985
v -0.113888163887 -0.018926349606 0.187942202985
v -0.300898228771 0.155828852664 0.189989529529
v -0.33099609985 0.112463190889 0.189989529529
v -0.310656368917 0.0983464318039 0.189989529529
v -0.295037745574 0.0875063502172 0.189989529529
v -0.287903433705 0.0977856205936 0.189989529529
v -0.264939874495 0.130872011946 0.189989529529
v -0.264208417197 0.131925911418 0.189989529529
v -0.25475758853 0.145542869185 0.189989529529
v -0.24167395495 0.164394050624 0.189989529529
v -0.231809373087 0.178607152876 0.189989529529
v -0.248742523415 0.19035957989 0.189989529529
v -0.267767727364 0.203563993547 0.189989529529
v -0.290715942806 0.170499709857 0.189989529529
v -0.300880587807 0.15585427016 0.189989529529
v -0.425415878414 0.0140491984925 0.188410582181
v -0.4284703192 0.00964829436212 0.188410582181
v -0.33393824589 -0.0559615462682 0.188410582181
v -0.302668728475 -0.0109077512251 0.188410582181
v -0.287490427714 0.0109614718553 0.188410582181
v -0.298148921674 0.01835898326 0.188410582181
v -0.382022501024 0.0765713124856 0.188410582181
v -0.409832262312 0.0365024087102 0.188410582181
v -0.410001469388 0.0362586114538 0.188410582181
v -0.411513226399 0.0340804393465 0.188410582181
v -0.253106794468 0.0299651918406 0.189269859014
v -0.275546993943 -0.00236713150272 0.189269859014
v -0.236664304285 -0.0293536026784 0.189269859014
v -0.195514372559 0.0299361063812 0.189269859014
v -0.189691355343 0.0383260352154 0.189269859014
v -0.228574045001 0.065312506391 0.189269859014
v 0.271223944112 -0.084899408178 0.188804969983
v 0.261771589951 -0.0985185639053 0.188804969983
v 0.265736277534 -0.101270249247 0.188804969983
v 0.283751394078 -0.113773613295 0.188804969983
v 0.29746134424 -0.123288983188 0.188804969983
v 0.345967675069 -0.0534000155765 0.188804969983
v 0.310277920826 -0.0286295962933 0.188804969983
v 0.287568639913 -0.0613496180059 0.188804969983
v -0.136019432908 0.0413949770559 0.189457629479
v -0.137350639428 0.0394769459449 0.189457629479
v -0.102776899331 0.0154810945948 0.189457629479
v -0.101445692765 0.0173991257059 0.189457629479
v -0.0912634067999 0.0320699829447 0.189457629479
v -0.0709434709517 0.0613473846955 0.189457629479
v -0.105517211095 0.0853432360456 0.189457629479
v -0.125837146897 0.0560658342487 0.189457629479
v -0.412263918125 0.0388154834654 -0.177935222651
v -0.300880586978 0.155854271311 0.17535101702
v -0.290715942806 0.170499709857 0.175402701264
v -0.272505324533 0.395603757041 -0.177935222651
v -0.280505692097 0.384076654981 -0.177935222651
v -0.306132765489 0.343841280964 -0.177935222651
v -0.322648128746 0.32004558938 0.175382194709
v -0.322648128746 0.32004558938 -0.177935222651
v -0.382316114512 0.234074668687 -0.177935222651
v -0.387824736492 0.22613772739 0.175050790819
v -0.387824736492 0.22613772739 -0.177935222651
v -0.392498400477 0.219403811495 0.175027026605
v -0.392498400477 0.219403811495 -0.177935222651
v -0.404279709733 0.202429047061 0.174967122139
v -0.404279709733 0.202429047061 -0.177935222651
v -0.406942122818 0.198592984885 0.17495358454
v -0.406942122818 0.198592984885 -0.177935222651
v -0.482960055635 0.0890647078441 -0.177935222651
v 0.0212093052348 -0.0459915304903 0.183165184926
v 0.0723022329831 0.102805006107 -0.177935222651
v 0.0737012159617 0.131505075708 -0.177935222651
v 0.0666223619841 0.152938326352 -0.177935222651
v -0.0826455076775 0.0260887432474 0.183354733192
v -0.0984812309635 0.00327229169458 0.176057923987
v -0.0590939483158 0.212969962422 0.176369148092
v -0.0763621796147 -0.234731820332 -0.177935222651
v -0.0758892922755 -0.235060027072 -0.177935222651
v 0.0297517926013 -0.170458916758 0.18229821026
v 0.175459726463 -0.332661498853 -0.177935222651
v 0.182151808456 -0.34884770269 0.176936107327
v 0.180579007613 -0.351113828048 0.176928110078
v 0.138627522231 -0.336607753553 -0.177935222651
v 0.212925361934 -0.371284379304 -0.177935222651
v 0.229151903283 -0.3479048286 -0.177935222651
v 0.292787252175 -0.256217645593 -0.177935222651
v 0.146952515053 -0.133263412569 0.176950308874
v 0.13880953103 -0.127611786988 0.182950549572
v 0.0533579382227 -0.104819613566 -0.177935222651
v 0.468068032126 -0.00366931767736 -0.177935222651
v 0.495734547682 0.0361931945895 -0.177935222651
v 0.458663962347 0.0619219775234 -0.177935222651
v 0.447613530714 0.069591512676 -0.177935222651
v -0.495056443323 0.0716359715571 -0.177935222651
v -0.502445033534 0.0609903314944 -0.177935222651
v -0.4284703192 0.00964829436212 -0.177935222651
v -0.425415877585 0.0140491996898 0.18218518765
v -0.411513226399 0.0340804393465 0.182372987909
v -0.410001469388 0.0362586114538 0.182393409088
v -0.42241121048 0.0865942511101 -0.177935222651
v -0.23933424643 0.134838322281 -0.177935222651
v -0.264939874495 0.130872011946 0.183531314969
v -0.33393824589 -0.0559615462682 -0.177935222651
v 0.0512998230256 -0.290367180052 -0.177935222651
v 0.182840619118 -0.414631125593 -0.177935222651
v 0.182151808456 -0.34884770269 -0.177935222651
v 0.0562179966587 -0.104900361717 -0.177935222651
v 0.0668927818154 -0.108805909631 -0.177935222651
v 0.114167632298 -0.163116366136 -0.177935222651
v 0.302969538141 -0.241546788354 0.182650936662
v 0.302969538141 -0.241546788354 -0.177935222651
v 0.450000907378 -0.0297008206426 -0.177935222651
v 0.356128084911 0.020631585715 -0.177935222651
v 0.318473669377 0.159220835556 -0.177935222651
v 0.259794814324 0.188730339741 -0.177935222651
v 0.250799323901 0.175769443173 -0.177935222651
v 0.248888648012 0.131091781584 -0.177935222651
v 0.205598462831 0.112678326667 -0.177935222651
v 0.140442576555 0.128785066729 -0.177935222651
v 0.13136808129 0.153160717746 -0.177935222651
v 0.116067167529 0.141218438076 -0.177935222651
v 0.0778313877664 0.167755922434 -0.177935222651
v 0.0752762840694 0.195241395225 -0.177935222651
v 0.0101213583471 0.213651300297 -0.177935222651
v 0.0101063209959 0.245943407791 -0.177935222651
v -0.0550465243779 0.263645584873 -0.177935222651
v -0.0617005873313 0.280500480602 -0.177935222651
v -0.117081370996 0.318937428576 -0.177935222651
v -0.141911127319 0.344494546339 -0.177935222651
v -0.18888730256 0.352591349215 -0.177935222651
v -0.209045250707 0.392221178681 -0.177935222651
v -0.253458830859 0.423046355894 -0.177935222651
v -0.182359250349 0.238610447974 0.184566064146
v 0.0736870717935 0.131214895422 -0.177935222651
v 0.073930105267 0.100349174578 -0.177935222651
v 0.083378928831 0.102203032678 -0.177935222651
v -0.183605927747 -0.0171458284399 0.182725196757
v -0.125837146897 0.0560658342487 0.183433563413
v -0.136019432908 0.0413949770559 0.183296018746
v -0.0912634067999 0.0320699829447 0.183370461936
v -0.101445692765 0.0173991257059 0.183232917269
v -0.195514373112 0.0299361056444 0.183025727302
v -0.253106795297 0.0299651906433 0.182843957732
v 0.271223944112 -0.084899408178 0.18367572263
v 0.287568639913 -0.0613496180059 0.183896510568
v -0.127006602365 0.222894166602 -0.177935222651
v -0.193349386691 0.25137960375 -0.177935222651
v 0.0131685287813 -0.103684934813 -0.177935222651
v -0.264208417197 0.131925911418 -0.177935222651
v -0.411513226399 0.0340804393465 -0.177935222651
g roof
f 1 2 3
g roof
f 3 4 5
g roof
f 5 6 7
g roof
f 5 7 1
g roof
f 5 1 3
g roof
f 8 9 10
g roof
f 8 10 11
g roof
f 8 11 12
g roof
f 8 12 13
g roof
f 14 654 15 16
g roof
f 17 18 19
g roof
f 20 16 15
g roof
f 20 15 657 659 661 663 21
g roof
f 20 21 22
g roof
f 20 22 23
g roof
f 20 23 24
g roof
f 20 24 25
g roof
f 20 25 26
g roof
f 20 26 27
g roof
f 20 27 28
g roof
f 29 30 31
g roof
f 32 33 34
g roof
f 32 34 35
g roof
f 35 36 37
g roof
f 35 37 38
g roof
f 35 38 39
g roof
f 40 41 42
g roof
f 43 44 45
g roof
f 43 45 46
g roof
f 43 46 47
g roof
f 43 47 14
g roof
f 48 17 19
g roof
f 19 20 28
g roof
f 19 28 649 650 29
g roof
f 19 29 31
g roof
f 31 32 35
g roof
f 31 35 39
g roof
f 39 40 42
g roof
f 42 43 14
g roof
f 42 14 16
g roof
f 42 16 49
g roof
f 42 49 50
g roof
f 48 19 31
g roof
f 48 31 39
g roof
f 39 42 50
g roof
f 39 50 48
g roof
f 51 671 52 53
g roof
f 51 53 54
g roof
f 51 54 55
g roof
f 55 56 57
g roof
f 55 57 58
g roof
f 59 60 61
g roof
f 59 61 62
g roof
f 59 62 63
g roof
f 59 63 64
g roof
f 59 64 65
g roof
f 59 65 66
g roof
f 59 66 67
g roof
f 59 67 68
g roof
f 59 68 69
g roof
f 59 69 70
g roof
f 59 70 71
g roof
f 74 75 76
g roof
f 77 78 79
g roof
f 79 80 81 82
g roof
f 79 82 83
g roof
f 79 83 84
g roof
f 84 85 86
g roof
f 84 86 87
g roof
f 88 89 90
g roof
f 88 90 91
g roof
f 88 91 92
g roof
f 88 92 51
g roof
f 51 55 58
g roof
f 71 72 73
g roof
f 93 74 76
g roof
f 93 76 94
g roof
f 93 94 95
g roof
f 93 95 77
g roof
f 93 77 79
g roof
f 79 84 87
g roof
f 88 51 58
g roof
f 88 58 59
g roof
f 88 59 71
g roof
f 88 71 73
g roof
f 73 93 79
g roof
f 73 79 87
g roof
f 73 87 88
g roof
f 96 97 98
g roof
f 96 98 99
g roof
f 96 99 100
g roof
f 96 100 101
g roof
f 102 103 82
g roof
f 102 82 104
g roof
f 105 106 107
g roof
f 105 107 108
g roof
f 105 108 109
g roof
f 109 110 111
g roof
f 109 111 112
g roof
f 113 114 115
g roof
f 115 116 117
g roof
f 115 117 672 105
g roof
f 105 109 112
g roof
f 105 112 113
g roof
f 105 113 115
g roof
f 118 119 120
g roof
f 118 120 121
g roof
f 121 122 123
g roof
f 121 123 124
g roof
f 121 124 125
g roof
f 121 125 126
g roof
f 121 126 127
g roof
f 121 127 128
g roof
f 128 129 118
g roof
f 128 118 121
g roof
f 130 131 132
g roof
f 133 134 135
g roof
f 133 135 136
g roof
f 133 136 137
g roof
f 138 139 140
g roof
f 138 140 141
g roof
f 142 143 144
g roof
f 142 144 145
g roof
f 142 145 146
g roof
f 147 148 149
g roof
f 150 678 151 152
g roof
f 152 153 154
g roof
f 155 156 157
g roof
f 158 159 160
g roof
f 158 160 161
g roof
f 158 161 162
g roof
f 158 162 163
g roof
f 158 163 164
g roof
f 164 165 166
g roof
f 167 168 169
g roof
f 167 169 170
g roof
f 167 170 171
g roof
f 167 171 172
g roof
f 167 172 173
g roof
f 174 130 132
g roof
f 174 132 133
g roof
f 137 138 141
g roof
f 175 142 146
g roof
f 150 152 154
g roof
f 150 154 155
g roof
f 150 155 157
g roof
f 157 683 158 164
g roof
f 157 164 166
g roof
f 157 166 176
g roof
f 173 174 133
g roof
f 173 133 137
g roof
f 149 677 150 157
g roof
f 149 157 176
g roof
f 167 173 137
g roof
f 167 137 141
g roof
f 167 141 175
g roof
f 146 147 149 176
g roof
f 176 167 175
g roof
f 176 175 146
g roof
f 177 130 171
g roof
f 178 179 180
g roof
f 178 180 181
g roof
f 178 181 182
g roof
f 182 183 184
g roof
f 182 184 185
g roof
f 182 185 178
g roof
f 178 186 187
g roof
f 178 187 188
g roof
f 189 190 191
g roof
f 192 193 184
g roof
f 192 184 194
g roof
f 192 194 195
g roof
f 192 195 196
g roof
f 196 197 191
g roof
f 196 191 198
g roof
f 196 198 192
g roof
f 199 200 201
g roof
f 199 201 202
g roof
f 199 202 203
g roof
f 199 203 204
g roof
f 205 206 207
g roof
f 207 208 209
g roof
f 209 210 211
g roof
f 212 213 214
g roof
f 212 214 215
g roof
f 216 217 218
g roof
f 216 218 219
g roof
f 216 219 205
g roof
f 216 205 207
g roof
f 216 207 209
g roof
f 211 212 215
g roof
f 215 216 209
g roof
f 215 209 211
g roof
f 220 221 222
g roof
f 223 224 225
g roof
f 223 225 226
g roof
f 223 226 227
g roof
f 223 227 228
g roof
f 229 230 231
g roof
f 231 227 226
g roof
f 231 226 232
g roof
f 231 232 233
g roof
f 231 233 693 694 695 234
g roof
f 235 220 222
g roof
f 222 223 228
g roof
f 222 228 236
g roof
f 229 231 234
g roof
f 235 222 236
g roof
f 235 229 234
g roof
f 237 238 239
g roof
f 240 241 242
g roof
f 240 242 243
g roof
f 245 246 247
g roof
f 245 247 248
g roof
f 245 248 249
g roof
f 245 249 250
g roof
f 245 250 251
g roof
f 252 253 254
g roof
f 255 256 257
g roof
f 257 258 259
g roof
f 259 260 261
g roof
f 261 262 263
g roof
f 261 263 264
g roof
f 261 264 265
g roof
f 261 265 266
g roof
f 266 267 268
g roof
f 266 268 269
g roof
f 266 269 270
g roof
f 266 270 271
g roof
f 266 271 272
g roof
f 266 272 273
g roof
f 266 273 274
g roof
f 266 274 275
g roof
f 275 276 277
g roof
f 277 729 278 279
g roof
f 279 280 281
g roof
f 281 282 283
g roof
f 283 284 285
g roof
f 283 285 286
g roof
f 287 288 289
g roof
f 287 289 290
g roof
f 287 290 291
g roof
f 292 293 294
g roof
f 295 296 297
g roof
f 295 297 298
g roof
f 298 299 300
g roof
f 298 300 301
g roof
f 301 302 303
g roof
f 301 303 740 741 304
g roof
f 305 306 307
g roof
f 305 307 308
g roof
f 308 309 310
g roof
f 311 312 313
g roof
f 311 313 314
g roof
f 311 314 315
g roof
f 316 317 303
g roof
f 316 303 302
g roof
f 318 319 320
g roof
f 318 320 321
g roof
f 318 321 322
g roof
f 322 323 324
g roof
f 322 324 325
g roof
f 322 325 294
g roof
f 322 294 326
g roof
f 326 293 292
g roof
f 326 292 327
g roof
f 326 327 328
g roof
f 326 328 329
g roof
f 329 330 331
g roof
f 329 331 332
g roof
f 332 333 334
g roof
f 334 335 336
g roof
f 337 338 339
g roof
f 337 339 340
g roof
f 340 341 342
g roof
f 342 343 344
g roof
f 342 344 345
g roof
f 346 347 348
g roof
f 349 350 351
g roof
f 352 353 354
g roof
f 352 354 355
g roof
f 356 357 358
g roof
f 356 358 359
g roof
f 356 359 360
g roof
f 361 362 363
g roof
f 361 363 364
g roof
f 361 364 365
g roof
f 361 365 366
g roof
f 361 366 367
g roof
f 361 367 368
g roof
f 368 369 370
g roof
f 368 370 371
g roof
f 368 371 372
g roof
f 368 372 373
g roof
f 368 373 374
g roof
f 368 374 375
g roof
f 368 375 376
g roof
f 368 376 377
g roof
f 368 377 378
g roof
f 368 378 379
g roof
f 368 379 380
g roof
f 380 381 698 382
g roof
f 380 382 383
g roof
f 380 383 735 734 384
g roof
f 385 383 382
g roof
f 386 387 388
g roof
f 386 388 389
g roof
f 386 389 390
g roof
f 390 391 392
g roof
f 392 393 394
g roof
f 392 394 739 395
g roof
f 396 394 393
g roof
f 396 393 397
g roof
f 398 399 400
g roof
f 401 402 403
g roof
f 404 405 406
g roof
f 407 408 409
g roof
f 410 411 412
g roof
f 413 414 415
g roof
f 415 416 417
g roof
f 417 418 419
g roof
f 417 419 420
g roof
f 417 420 421
g roof
f 417 421 422
g roof
f 417 422 423
g roof
f 424 425 426
g roof
f 426 427 428
g roof
f 428 675 429 430
g roof
f 428 430 431
g roof
f 431 432 433
g roof
f 434 435 436
g roof
f 434 436 437
g roof
f 434 437 438
g roof
f 438 439 440
g roof
f 438 440 441
g roof
f 442 443 444
g roof
f 442 444 445
g roof
f 442 445 446
g roof
f 446 447 684 448
g roof
f 446 448 449
g roof
f 446 449 450
g roof
f 451 452 453
g roof
f 454 455 237
g roof
f 454 237 239
g roof
f 456 240 243
g roof
f 243 244 245
g roof
f 243 245 251
g roof
f 257 259 261
g roof
f 257 261 266
g roof
f 257 266 275
g roof
f 257 275 277
g roof
f 257 277 279
g roof
f 257 279 281
g roof
f 257 281 283
g roof
f 257 283 286
g roof
f 257 286 287
g roof
f 298 301 304
g roof
f 298 304 457
g roof
f 305 308 310
g roof
f 305 310 458
g roof
f 459 316 302
g roof
f 318 322 326
g roof
f 329 332 334
g roof
f 460 337 340
g roof
f 460 340 342
g roof
f 351 352 355
g roof
f 351 355 670 356
g roof
f 351 356 360
g roof
f 360 361 368
g roof
f 360 368 380
g roof
f 360 380 384
g roof
f 360 384 461
g roof
f 360 461 736 737 385
g roof
f 382 386 390
g roof
f 382 390 392
g roof
f 382 392 395
g roof
f 409 410 412
g roof
f 462 413 415
g roof
f 462 415 417
g roof
f 462 417 423
g roof
f 424 426 428
g roof
f 424 428 431
g roof
f 434 438 441
g roof
f 442 446 450
g roof
f 463 451 453
g roof
f 456 243 251
g roof
f 255 257 287
g roof
f 255 287 291
g roof
f 295 298 457
g roof
f 457 305 458
g roof
f 457 458 311
g roof
f 326 329 334
g roof
f 326 334 336
g roof
f 336 666 460 342
g roof
f 351 360 385
g roof
f 351 385 382
g roof
f 351 382 395
g roof
f 351 395 464
g roof
f 407 409 412
g roof
f 465 462 423
g roof
f 466 463 453
g roof
f 467 255 291
g roof
f 467 291 468
g roof
f 467 468 292
g roof
f 318 326 336
g roof
f 349 351 464
g roof
f 349 464 738 396
g roof
f 406 407 412
g roof
f 412 465 423
g roof
f 412 423 424
g roof
f 441 442 450
g roof
f 469 467 292
g roof
f 469 292 294
g roof
f 470 318 336
g roof
f 470 336 342
g roof
f 348 733 349 396
g roof
f 348 396 397
g roof
f 404 406 412
g roof
f 404 412 424
g roof
f 404 424 431
g roof
f 434 441 450
g roof
f 434 450 466
g roof
f 254 469 294
g roof
f 346 348 397
g roof
f 403 404 431
g roof
f 252 254 294
g roof
f 252 294 295
g roof
f 471 346 397
g roof
f 471 397 398
g roof
f 400 401 403 431
g roof
f 400 431 433
g roof
f 251 252 295
g roof
f 251 295 457
g roof
f 398 400 433
g roof
f 398 433 472
g roof
f 456 251 457
g roof
f 471 398 472
g roof
f 239 456 457
g roof
f 239 457 311
g roof
f 345 471 472
g roof
f 345 472 434
g roof
f 454 239 311
g roof
f 454 311 315
g roof
f 342 345 434
g roof
f 453 706 454 315
g roof
f 453 315 459
g roof
f 453 459 302
g roof
f 470 342 434
g roof
f 470 434 466
g roof
f 466 453 302
g roof
f 466 302 470
g roof
f 473 474 475
g roof
f 475 476 477
g roof
f 478 479 480
g roof
f 480 481 482
g roof
f 480 482 483
g roof
f 483 484 485
g roof
f 483 485 486
g roof
f 486 487 488
g roof
f 486 488 489
g roof
f 486 489 478
g roof
f 486 478 480
g roof
f 486 480 483
g roof
f 490 491 492
g roof
f 490 492 493
g roof
f 490 493 494
g roof
f 490 494 495
g roof
f 490 495 496
g roof
f 490 496 497
g roof
f 499 500 501
g roof
f 499 501 502
g roof
f 499 502 503
g roof
f 499 503 504
g roof
f 504 505 506
g roof
f 506 507 508
g roof
f 509 510 511
g roof
f 511 512 513
g roof
f 511 513 498
g roof
f 511 513 498 499
g roof
f 511 499 504
g roof
f 504 506 508
g roof
f 508 509 511
g roof
f 508 511 504
g roof
f 514 515 516
g roof
f 516 517 518
g roof
f 516 518 519
g roof
f 516 519 520
g roof
f 516 520 521
g roof
f 516 521 522
g roof
f 516 522 514
g roof
f 523 524 525
g roof
f 523 525 526
g roof
f 526 527 523
g roof
f 528 529 530
g roof
f 528 530 531
g roof
f 528 531 532
g roof
f 532 533 534
g roof
f 532 534 535
g roof
f 532 535 536
g roof
f 532 536 537
g roof
f 532 537 528
g roof
f 538 539 540
g roof
f 538 540 541
g roof
f 538 541 542
g roof
f 538 542 543
g roof
f 543 544 545
g roof
f 545 546 538
g roof
f 545 538 543
g roof
f 547 548 549
g roof
f 547 549 550
g roof
f 547 550 551
g roof
f 552 546 553
g roof
f 553 554 555
g roof
f 553 555 556
g roof
f 556 557 558
g roof
f 556 558 559
g roof
f 556 559 560
g roof
f 556 560 561
g roof
f 561 547 551
g roof
f 561 551 562
g roof
f 562 539 552
g roof
f 562 552 553
g roof
f 562 553 556
g roof
f 562 556 561
g roof
f 563 564 565
g roof
f 563 565 566
g roof
f 566 567 568
g roof
f 566 568 569
g roof
f 566 569 563
g roof
f 570 571 572
g roof
f 572 573 574
g roof
f 572 574 570
g roof
f 575 576 577
g roof
f 575 577 578
g roof
f 575 578 579
g roof_fixture
f 580 581 582
g roof_fixture
f 580 582 583
g roof_fixture
f 583 584 585
g roof_fixture
f 583 585 580
g roof_fixture
f 586 587 588
g roof_fixture
f 586 588 589
g roof_fixture
f 589 590 591
g roof_fixture
f 589 591 586
g roof_fixture
f 592 593 594
g roof_fixture
f 592 594 595
g roof_fixture
f 592 595 596
g roof_fixture
f 592 596 597
g roof_fixture
f 592 597 598
g roof_fixture
f 592 598 599
g roof_fixture
f 599 600 601
g roof_fixture
f 599 601 592
g roof_fixture
f 602 603 604
g roof_fixture
f 602 604 605
g roof_fixture
f 602 605 606
g roof_fixture
f 602 606 607
g roof_fixture
f 602 607 608
g roof_fixture
f 602 608 609
g roof_fixture
f 602 609 610
g roof_fixture
f 602 610 611
g roof_fixture
f 602 611 612
g roof_fixture
f 612 613 614
g roof_fixture
f 612 614 615
g roof_fixture
f 612 615 602
g roof_fixture
f 616 617 618
g roof_fixture
f 616 618 619
g roof_fixture
f 616 619 620
g roof_fixture
f 616 620 621
g roof_fixture
f 621 622 623
g roof_fixture
f 621 623 624
g roof_fixture
f 621 624 625
g roof_fixture
f 621 625 616
g roof_fixture
f 626 627 628
g roof_fixture
f 626 628 629
g roof_fixture
f 626 629 630
g roof_fixture
f 626 630 631
g roof_fixture
f 632 633 634
g roof_fixture
f 632 634 635
g roof_fixture
f 632 635 636
g roof_fixture
f 632 636 637
g roof_fixture
f 637 638 639
g roof_fixture
f 637 639 632
g roof_fixture
f 640 641 642
g roof_fixture
f 640 642 643
g roof_fixture
f 640 643 644
g roof_fixture
f 640 644 645
g roof_fixture
f 645 646 647
g roof_fixture
f 645 647 640
g roof_step_or_fixture_side
f 227 231 4 3
g roof_step_or_fixture_side
f 231 230 5 4
g roof_step_or_fixture_side
f 230 229 6 5
g roof_step_or_fixture_side
f 229 235 7 6
g roof_step_or_fixture_side
f 235 236 1 7
g roof_step_or_fixture_side
f 236 228 2 1
g roof_step_or_fixture_side
f 228 227 3 2
g roof_step_or_fixture_side
f 597 596 347 10 9 343
g roof_step_or_fixture_side
f 347 346 11 10
g roof_step_or_fixture_side
f 346 471 12 11
g roof_step_or_fixture_side
f 471 345 13 12
g roof_step_or_fixture_side
f 345 344 8 13
g roof_step_or_fixture_side
f 344 343 9 8
g roof_step_or_fixture_side
f 222 221 25 24
g roof_step_or_fixture_side
f 221 220 26 25
g roof_step_or_fixture_side
f 27 26 483 482
g roof_step_or_fixture_side
f 28 27 482 481
g roof_step_or_fixture_side
f 602 615 649 28
g roof_step_or_fixture_side
f 615 614 650 649
g roof_step_or_fixture_side
f 614 613 29 650
g roof_step_or_fixture_side
f 613 612 375 30 29
g roof_step_or_fixture_side
f 375 374 31 30
g roof_step_or_fixture_side
f 374 373 32 31
g roof_step_or_fixture_side
f 373 372 33 32
g roof_step_or_fixture_side
f 34 33 502 501
g roof_step_or_fixture_side
f 35 34 501 500
g roof_step_or_fixture_side
f 36 35 500 499
g roof_step_or_fixture_side
f 37 36 499 498
g roof_step_or_fixture_side
f 273 272 38 37
g roof_step_or_fixture_side
f 272 271 39 38
g roof_step_or_fixture_side
f 271 270 40 39
g roof_step_or_fixture_side
f 270 269 41 40
g roof_step_or_fixture_side
f 269 268 42 41
g roof_step_or_fixture_side
f 268 267 43 42
g roof_step_or_fixture_side
f 267 266 44 43
g roof_step_or_fixture_side
f 266 265 45 44
g roof_step_or_fixture_side
f 265 264 46 45
g facade_completed
f 47 46 651 652
g facade_completed
f 14 47 652 653
g facade_completed
f 654 14 653 655
g facade_completed
f 15 654 655 656
g facade_completed
f 657 15 656 658
g facade_completed
f 659 657 658 660
g facade_completed
f 661 659 660 662
g facade_completed
f 663 661 662 664
g facade_completed
f 21 663 664 665
g roof_step_or_fixture_side
f 225 224 22 21
g roof_step_or_fixture_side
f 224 223 23 22
g roof_step_or_fixture_side
f 223 222 24 23
g roof_step_or_fixture_side
f 16 20 492 491
g roof_step_or_fixture_side
f 49 16 491 490
g roof_step_or_fixture_side
f 50 49 490 497
g roof_step_or_fixture_side
f 48 50 497 496
g roof_step_or_fixture_side
f 17 48 496 495
g roof_step_or_fixture_side
f 18 17 495 494
g roof_step_or_fixture_side
f 19 18 494 493
g roof_step_or_fixture_side
f 20 19 493 492
g roof_step_or_fixture_side
f 351 350 53 52
g roof_step_or_fixture_side
f 592 601 54 53 350
g roof_step_or_fixture_side
f 601 600 55 54
g roof_step_or_fixture_side
f 600 599 341 56 55
g roof_step_or_fixture_side
f 341 340 57 56
g roof_step_or_fixture_side
f 340 339 58 57
g roof_step_or_fixture_side
f 339 338 59 58
g roof_step_or_fixture_side
f 338 337 60 59
g roof_step_or_fixture_side
f 337 460 61 60
g roof_step_or_fixture_side
f 460 666 62 61
g roof_step_or_fixture_side
f 666 336 63 62
g roof_step_or_fixture_side
f 336 335 64 63
g roof_step_or_fixture_side
f 335 334 65 64
g roof_step_or_fixture_side
f 334 333 66 65
g roof_step_or_fixture_side
f 67 66 571 570
g roof_step_or_fixture_side
f 68 67 570 574
g roof_step_or_fixture_side
f 69 68 574 573
g roof_step_or_fixture_side
f 331 330 70 69
g roof_step_or_fixture_side
f 330 329 71 70
g roof_step_or_fixture_side
f 329 328 72 71
g roof_step_or_fixture_side
f 328 327 73 72
g roof_step_or_fixture_side
f 327 292 93 73
g roof_step_or_fixture_side
f 292 468 74 93
g roof_step_or_fixture_side
f 468 291 75 74
g roof_step_or_fixture_side
f 291 290 76 75
g roof_step_or_fixture_side
f 290 289 94 76
g roof_step_or_fixture_side
f 289 288 95 94
g roof_step_or_fixture_side
f 77 95 558 557
g roof_step_or_fixture_side
f 476 475 78 77
g roof_step_or_fixture_side
f 475 474 79 78
g roof_step_or_fixture_side
f 474 473 80 79
g roof_step_or_fixture_side
f 81 80 554 553
g roof_step_or_fixture_side
f 82 81 553 546
g roof_step_or_fixture_side
f 83 82 546 545
g roof_step_or_fixture_side
f 84 83 545 544
g roof_step_or_fixture_side
f 85 84 544 543
g roof_step_or_fixture_side
f 86 85 543 542
g roof_step_or_fixture_side
f 359 358 87 86
g roof_step_or_fixture_side
f 358 357 88 87
g roof_step_or_fixture_side
f 357 356 89 88
g roof_step_or_fixture_side
f 356 670 90 89
g roof_step_or_fixture_side
f 670 355 91 90
g roof_step_or_fixture_side
f 355 354 92 91
g roof_step_or_fixture_side
f 354 353 51 92
g roof_step_or_fixture_side
f 353 352 671 51
g roof_step_or_fixture_side
f 352 351 52 671
g roof_step_or_fixture_side
f 378 377 99 98
g roof_step_or_fixture_side
f 610 609 100 99 377
g roof_step_or_fixture_side
f 609 608 381 101 100
g roof_step_or_fixture_side
f 381 380 96 101
g roof_step_or_fixture_side
f 380 379 97 96
g roof_step_or_fixture_side
f 379 378 98 97
g roof_step_or_fixture_side
f 104 82 546 552
g roof_step_or_fixture_side
f 102 104 552 539
g roof_step_or_fixture_side
f 103 102 539 538
g roof_step_or_fixture_side
f 82 103 538 546
g roof_step_or_fixture_side
f 282 281 105 672
g roof_step_or_fixture_side
f 281 280 106 105
g roof_step_or_fixture_side
f 107 106 506 505
g roof_step_or_fixture_side
f 108 107 505 504
g roof_step_or_fixture_side
f 370 369 109 108
g roof_step_or_fixture_side
f 369 368 110 109
g roof_step_or_fixture_side
f 368 367 111 110
g roof_step_or_fixture_side
f 367 366 112 111
g roof_step_or_fixture_side
f 366 365 113 112
g roof_step_or_fixture_side
f 365 364 114 113
g roof_step_or_fixture_side
f 364 363 115 114
g roof_step_or_fixture_side
f 116 115 562 551
g roof_step_or_fixture_side
f 117 116 551 550
g roof_step_or_fixture_side
f 672 117 550 549
g roof_step_or_fixture_side
f 403 402 121 120
g roof_step_or_fixture_side
f 402 401 122 121
g roof_step_or_fixture_side
f 401 400 123 122
g roof_step_or_fixture_side
f 400 399 124 123
g roof_step_or_fixture_side
f 399 398 125 124
g facade_completed
f 126 125 673 674
g roof_step_or_fixture_side
f 409 408 127 126
g roof_step_or_fixture_side
f 408 407 128 127
g roof_step_or_fixture_side
f 407 406 129 128
g roof_step_or_fixture_side
f 406 405 118 129
g roof_step_or_fixture_side
f 405 404 119 118
g roof_step_or_fixture_side
f 404 403 120 119
g roof_step_or_fixture_side
f 591 590 133 132 435
g roof_step_or_fixture_side
f 590 589 432 134 133
g roof_step_or_fixture_side
f 432 431 135 134
g roof_step_or_fixture_side
f 431 430 136 135
g roof_step_or_fixture_side
f 430 429 137 136
g roof_step_or_fixture_side
f 429 675 138 137
g roof_step_or_fixture_side
f 675 428 139 138
g roof_step_or_fixture_side
f 428 427 140 139
g roof_step_or_fixture_side
f 141 140 514 522
g roof_step_or_fixture_side
f 175 141 522 521
g roof_step_or_fixture_side
f 142 175 521 520
g roof_step_or_fixture_side
f 143 142 520 519
g roof_step_or_fixture_side
f 422 421 144 143
g roof_step_or_fixture_side
f 421 420 145 144
g roof_step_or_fixture_side
f 420 419 146 145
g roof_step_or_fixture_side
f 419 418 147 146
g roof_step_or_fixture_side
f 418 417 148 147
g roof_step_or_fixture_side
f 417 416 149 148
g roof_step_or_fixture_side
f 416 415 677 149
g roof_step_or_fixture_side
f 415 414 150 677
g roof_step_or_fixture_side
f 414 413 678 150
g roof_step_or_fixture_side
f 413 462 151 678
g roof_step_or_fixture_side
f 462 465 152 151
g roof_step_or_fixture_side
f 465 412 153 152
g roof_step_or_fixture_side
f 412 411 154 153
g facade_completed
f 155 154 680 681
g facade_completed
f 156 155 681 682
g roof_step_or_fixture_side
f 453 452 157 156
g roof_step_or_fixture_side
f 452 451 683 157
g roof_step_or_fixture_side
f 451 463 158 683
g roof_step_or_fixture_side
f 463 466 159 158
g roof_step_or_fixture_side
f 466 450 160 159
g roof_step_or_fixture_side
f 450 449 161 160
g roof_step_or_fixture_side
f 449 448 162 161
g roof_step_or_fixture_side
f 448 684 163 162
g roof_step_or_fixture_side
f 684 447 164 163
g roof_step_or_fixture_side
f 447 446 165 164
g roof_step_or_fixture_side
f 446 445 166 165
g roof_step_or_fixture_side
f 445 444 176 166
g roof_step_or_fixture_side
f 444 443 167 176
g roof_step_or_fixture_side
f 443 442 168 167
g roof_step_or_fixture_side
f 442 441 169 168
g roof_step_or_fixture_side
f 441 440 170 169
g roof_step_or_fixture_side
f 440 439 171 170
g roof_step_or_fixture_side
f 172 171 523 527
g roof_step_or_fixture_side
f 173 172 527 526
g roof_step_or_fixture_side
f 174 173 526 525
g roof_step_or_fixture_side
f 130 174 525 524
g roof_step_or_fixture_side
f 437 436 131 130
g roof_step_or_fixture_side
f 436 435 132 131
g roof_step_or_fixture_side
f 439 438 177 171
g roof_step_or_fixture_side
f 438 437 130 177
g roof_step_or_fixture_side
f 171 130 524 523
g roof_step_or_fixture_side
f 470 302 181 180
g roof_step_or_fixture_side
f 302 301 182 181
g roof_step_or_fixture_side
f 301 300 183 182
g roof_step_or_fixture_side
f 300 299 184 183
g roof_step_or_fixture_side
f 185 184 569 568
g roof_step_or_fixture_side
f 178 185 568 567
g roof_step_or_fixture_side
f 319 318 179 178
g roof_step_or_fixture_side
f 318 470 180 179
g roof_step_or_fixture_side
f 321 320 188 187
g roof_step_or_fixture_side
f 320 319 178 188
g roof_step_or_fixture_side
f 186 178 567 566
g roof_step_or_fixture_side
f 187 186 566 565
g roof_step_or_fixture_side
f 294 293 189 191
g roof_step_or_fixture_side
f 293 326 190 189
g roof_step_or_fixture_side
f 326 294 191 190
g roof_step_or_fixture_side
f 184 193 563 569
g roof_step_or_fixture_side
f 299 298 194 184
g roof_step_or_fixture_side
f 298 297 195 194
g roof_step_or_fixture_side
f 297 296 196 195
g roof_step_or_fixture_side
f 296 295 197 196
g roof_step_or_fixture_side
f 295 294 191 197
g roof_step_or_fixture_side
f 294 325 198 191
g roof_step_or_fixture_side
f 325 324 192 198
g roof_step_or_fixture_side
f 324 323 193 192
g roof_step_or_fixture_side
f 311 458 201 200
g roof_step_or_fixture_side
f 458 310 202 201
g roof_step_or_fixture_side
f 310 309 203 202
g roof_step_or_fixture_side
f 204 203 536 535
g roof_step_or_fixture_side
f 313 312 199 204
g roof_step_or_fixture_side
f 312 311 200 199
g roof_step_or_fixture_side
f 244 243 208 207
g roof_step_or_fixture_side
f 243 242 209 208
g roof_step_or_fixture_side
f 242 241 210 209
g roof_step_or_fixture_side
f 585 584 211 210 241
g roof_step_or_fixture_side
f 584 583 238 212 211
g roof_step_or_fixture_side
f 238 237 213 212
g roof_step_or_fixture_side
f 237 455 214 213
g roof_step_or_fixture_side
f 215 214 575 579
g roof_step_or_fixture_side
f 216 215 579 578
g roof_step_or_fixture_side
f 217 216 578 577
g facade_completed
f 218 217 577 686 687
g facade_completed
f 219 218 687 688
g facade_completed
f 205 219 688 689
g roof_step_or_fixture_side
f 246 245 206 205
g roof_step_or_fixture_side
f 245 244 207 206
g facade_completed
f 226 225 21 665 690
g facade_completed
f 232 226 690 691
g facade_completed
f 233 232 691 692
g roof_step_or_fixture_side
f 617 616 693 233
g roof_step_or_fixture_side
f 616 625 694 693
g roof_step_or_fixture_side
f 625 624 695 694
g roof_step_or_fixture_side
f 624 623 234 695
g roof_step_or_fixture_side
f 235 234 485 484 7
g roof_step_or_fixture_side
f 220 235 7 484 483 26
g roof_step_or_fixture_side
f 360 359 86 542 541
g roof_step_or_fixture_side
f 361 360 541 540
g roof_step_or_fixture_side
f 362 361 540 539 102
g roof_step_or_fixture_side
f 363 362 102 539 562 115
g roof_step_or_fixture_side
f 371 370 108 504 503
g roof_step_or_fixture_side
f 372 371 503 502 33
g roof_step_or_fixture_side
f 612 611 376 375
g roof_step_or_fixture_side
f 611 610 377 376
g roof_step_or_fixture_side
f 608 607 698 381
g roof_step_or_fixture_side
f 607 606 382 698
g roof_step_or_fixture_side
f 606 605 386 382
g roof_step_or_fixture_side
f 605 604 387 386
g roof_step_or_fixture_side
f 388 387 479 478
g roof_step_or_fixture_side
f 389 388 478 489
g roof_step_or_fixture_side
f 390 389 489 488
g roof_step_or_fixture_side
f 391 390 488 487
g roof_step_or_fixture_side
f 621 620 392 391
g roof_step_or_fixture_side
f 620 619 393 392
g roof_step_or_fixture_side
f 619 618 397 393
g facade_completed
f 398 397 699 673 125
g facade_completed
f 410 409 126 674 701
g facade_completed
f 411 410 701 680 154
g roof_step_or_fixture_side
f 423 422 143 519 518
g roof_step_or_fixture_side
f 424 423 518 517
g roof_step_or_fixture_side
f 425 424 517 516
g roof_step_or_fixture_side
f 426 425 516 515
g roof_step_or_fixture_side
f 427 426 515 514 140
g roof_step_or_fixture_side
f 589 588 433 432
g roof_step_or_fixture_side
f 588 587 472 433
g roof_step_or_fixture_side
f 587 586 434 472
g roof_step_or_fixture_side
f 586 591 435 434
g facade_completed
f 706 453 156 682 707
g facade_completed
f 454 706 707 708 576
g roof_step_or_fixture_side
f 455 454 576 575 214
g roof_step_or_fixture_side
f 583 582 239 238
g roof_step_or_fixture_side
f 582 581 456 239
g roof_step_or_fixture_side
f 581 580 240 456
g roof_step_or_fixture_side
f 580 585 241 240
g facade_completed
f 247 246 205 689 710
g facade_completed
f 248 247 710 711
g facade_completed
f 249 248 711 712
g facade_completed
f 250 249 712 713
g facade_completed
f 251 250 713 714
g facade_completed
f 252 251 714 715
g facade_completed
f 253 252 715 716
g facade_completed
f 254 253 716 717
g facade_completed
f 469 254 717 718
g facade_completed
f 467 469 718 719
g facade_completed
f 255 467 719 720
g facade_completed
f 256 255 720 721
g facade_completed
f 257 256 721 722
g facade_completed
f 258 257 722 723
g facade_completed
f 259 258 723 724
g facade_completed
f 260 259 724 725
g facade_completed
f 261 260 725 726
g facade_completed
f 262 261 726 727
g facade_completed
f 263 262 727 728
g facade_completed
f 264 263 728 651 46
g roof_step_or_fixture_side
f 274 273 37 498 513
g roof_step_or_fixture_side
f 275 274 513 512
g roof_step_or_fixture_side
f 276 275 512 511
g roof_step_or_fixture_side
f 277 276 511 510
g roof_step_or_fixture_side
f 729 277 510 509
g roof_step_or_fixture_side
f 278 729 509 508
g roof_step_or_fixture_side
f 279 278 508 507
g roof_step_or_fixture_side
f 280 279 507 506 106
g roof_step_or_fixture_side
f 283 282 672 549 548
g roof_step_or_fixture_side
f 284 283 548 547
g roof_step_or_fixture_side
f 285 284 547 561
g roof_step_or_fixture_side
f 286 285 561 560
g roof_step_or_fixture_side
f 287 286 560 559
g roof_step_or_fixture_side
f 288 287 559 558 95
g roof_step_or_fixture_side
f 332 331 69 573 572
g roof_step_or_fixture_side
f 333 332 572 571 66
g roof_step_or_fixture_side
f 599 598 342 341
g roof_step_or_fixture_side
f 598 597 343 342
g roof_step_or_fixture_side
f 596 595 348 347
g roof_step_or_fixture_side
f 595 594 733 348
g roof_step_or_fixture_side
f 594 593 349 733
g roof_step_or_fixture_side
f 593 592 350 349
g roof_step_or_fixture_side
f 640 647 734 735
g roof_step_or_fixture_side
f 647 646 384 734
g roof_step_or_fixture_side
f 646 645 461 384
g roof_step_or_fixture_side
f 645 644 736 461
g roof_step_or_fixture_side
f 644 643 737 736
g roof_step_or_fixture_side
f 643 642 385 737
g roof_step_or_fixture_side
f 642 641 383 385
g roof_step_or_fixture_side
f 641 640 735 383
g roof_step_or_fixture_side
f 631 630 464 395
g roof_step_or_fixture_side
f 630 629 738 464
g roof_step_or_fixture_side
f 629 628 396 738
g roof_step_or_fixture_side
f 628 627 394 396
g roof_step_or_fixture_side
f 627 626 739 394
g roof_step_or_fixture_side
f 626 631 395 739
g roof_step_or_fixture_side
f 314 313 204 535 534
g roof_step_or_fixture_side
f 315 314 534 533
g roof_step_or_fixture_side
f 459 315 533 532
g roof_step_or_fixture_side
f 316 459 532 531
g roof_step_or_fixture_side
f 317 316 531 530
g roof_step_or_fixture_side
f 634 633 303 317
g roof_step_or_fixture_side
f 633 632 740 303
g roof_step_or_fixture_side
f 632 639 741 740
g roof_step_or_fixture_side
f 639 638 304 741
g roof_step_or_fixture_side
f 638 637 457 304
g roof_step_or_fixture_side
f 637 636 305 457
g roof_step_or_fixture_side
f 636 635 306 305
g roof_step_or_fixture_side
f 307 306 529 528
g roof_step_or_fixture_side
f 308 307 528 537
g roof_step_or_fixture_side
f 309 308 537 536 203
g roof_step_or_fixture_side
f 322 321 187 565 564
g roof_step_or_fixture_side
f 323 322 564 563 193
g roof_step_or_fixture_side
f 473 475 78 555 554 80
g roof_step_or_fixture_side
f 475 477 556 555 78
g roof_step_or_fixture_side
f 477 476 77 557 556
g roof_step_or_fixture_side
f 604 603 480 479 387
g roof_step_or_fixture_side
f 603 602 28 481 480
g roof_step_or_fixture_side
f 623 622 486 485 234
g roof_step_or_fixture_side
f 622 621 391 487 486
g roof_step_or_fixture_side
f 635 634 317 530 529 306
g facade_completed
f 577 576 708 686
g facade_completed
f 618 617 233 692 699 397
g ground_assumed
f 690 692 691
g ground_assumed
f 690 699 692
g ground_assumed
f 690 673 699
g ground_assumed
f 690 674 673
g ground_assumed
f 690 701 674
g ground_assumed
f 690 680 701
g ground_assumed
f 690 681 680
g ground_assumed
f 690 682 681
g ground_assumed
f 690 707 682
g ground_assumed
f 690 708 707
g ground_assumed
f 690 686 708
g ground_assumed
f 690 687 686
g ground_assumed
f 690 688 687
g ground_assumed
f 690 689 688
g ground_assumed
f 689 711 710
g ground_assumed
f 689 712 711
g ground_assumed
f 689 713 712
g ground_assumed
f 689 714 713
g ground_assumed
f 715 717 716
g ground_assumed
f 718 720 719
g ground_assumed
f 720 722 721
g ground_assumed
f 722 724 723
g ground_assumed
f 724 726 725
g ground_assumed
f 726 728 727
g ground_assumed
f 726 651 728
g ground_assumed
f 726 652 651
g ground_assumed
f 726 653 652
g ground_assumed
f 726 655 653
g ground_assumed
f 726 656 655
g ground_assumed
f 726 658 656
g ground_assumed
f 726 660 658
g ground_assumed
f 726 662 660
g ground_assumed
f 726 664 662
g ground_assumed
f 726 665 664
g ground_assumed
f 726 690 665
g ground_assumed
f 690 714 689
g ground_assumed
f 690 715 714
g ground_assumed
f 690 717 715
g ground_assumed
f 690 718 717
g ground_assumed
f 690 720 718
g ground_assumed
f 690 722 720
g ground_assumed
f 690 724 722
g ground_assumed
f 690 726 724
