v -0.41987015387801069 0.04605080749643374 0.17479070448401002
v -0.42855040266778077 0.082479172699332262 0.17478206645142863
v -0.46777789833670025 0.064160837957147596 0.17461031834410418
v -0.44937862599365569 0.035807756024999658 0.17466407437089637
v -0.42705946198863348 0.048097685054249967 0.1747631481101386
v -0.41208815861441617 0.037706874919371955 0.17481608702822987
v -0.4122639181249721 0.038815483465396296 0.17481618124624174
v -0.16606259330022155 -0.096628313523005091 0.17571245886506034
v -0.14878761035519286 -0.065461784085473512 0.17580485007899047
v -0.17024488792746417 -0.050569393453758861 0.17572897653509262
v -0.19286489662943093 -0.08316078975891826 0.17561396047275848
v -0.18520047793848943 -0.11980901559359358 0.17561833553172779
v -0.16787673077140158 -0.12236496467396211 0.17568646072632324
v -0.3061327654893366 0.34384128096439315 0.17546617044936047
v -0.38231611451178144 0.23407466868737128 0.17507880055374511
v -0.33741592554331434 0.23217771091288944 0.17525879895383681
v -0.30206076593891679 0.21356445578814121 0.17538811381978936
v -0.31913874712595691 0.2136796324263342 0.17531921079702284
v -0.33738480781148505 0.20289016414781488 0.1752376788766806
v -0.34103741319693276 0.20542524928034389 0.17522476318058205
v -0.48296005563494065 0.089064707844138308 0.17456705569871891
v -0.46796406290503334 0.095568344097274466 0.17463234997822247
v -0.44567404468477151 0.080097991077403771 0.17471116808826465
v -0.42241121075627563 0.086594249820753352 0.17480985091025247
v -0.41994778288858964 0.087282173930801746 0.17482030095874199
v -0.41898883679928661 0.081233533817652401 0.17481978685811431
v -0.34565607090174966 0.18689296440580569 0.17519266237635936
v -0.30089822877122813 0.15582885266408913 0.17535092731517085
v -0.26776772736352128 0.20356399354722063 0.17551938617315516
v -0.24874252341503003 0.19035957989003613 0.17558665981375501
v -0.23215626745934426 0.21425741517398969 0.17567099603237055
v -0.21171618453532812 0.2000710069203939 0.17574327275991894
v -0.20020187420492053 0.2038332671054226 0.17579251405851903
v -0.20712106903815961 0.21530121674012009 0.17577288304960864
v -0.22244738385480764 0.21073649613014162 0.17570766097628426
v -0.19836091955220833 0.24544079338004088 0.17583013356996327
v -0.20892208833201034 0.24994885051326932 0.17579074192178895
v -0.21415006860932112 0.24946852672049474 0.17576927504314341
v -0.25048168715656022 0.22888199073864166 0.17560757938982444
v -0.27656076469183816 0.26692625420291632 0.17552983092591085
v -0.27568642384442793 0.2728497451203728 0.17553765986246678
v -0.31753714808264799 0.30189617615832726 0.17538967458766591
v -0.29842238742720756 0.32943713557617604 0.17548686751251044
v -0.25402698393670126 0.33046341572349408 0.17566694742085287
v -0.25053772108568567 0.36427519712151973 0.17570557008242907
v -0.27250532453262299 0.39560375704089623 0.17563955820797023
v -0.28050569209654624 0.38407665498061083 0.17559887868338472
v -0.25951261409701393 0.21327750424160571 0.17555977912946708
v -0.30207116123412375 0.23179441251557178 0.17540129623667219
v -0.25436874029557138 0.23127710083122124 0.17559361509238294
v -0.076911272287007476 -0.0034630652855124275 0.17614017000299581
v -0.10888843549294142 0.0065220094410194246 0.17601824148840278
v -0.12046417739461633 -0.014362277516140132 0.17595633132094923
v -0.11388816388708925 -0.018926349605952065 0.17597958428943219
v -0.095850348723411652 -0.031445467586949383 0.17604336647576035
v -0.10388747544926047 -0.04302553306385104 0.17600250008084639
v -0.088823175950163036 -0.05348088704972772 0.17605576784098192
v -0.05972567898003895 -0.011556585912235767 0.17620372005198393
v -0.022250302075327896 -0.037566313833213003 0.17633623400165238
v -0.029355321628939411 -0.047803379237404915 0.17630010705824328
v -0.0085734444009692677 -0.047058715944638022 0.17638459574794249
v 0.021209305004524271 -0.045991530352125443 0.17650567745167542
v 0.066159906411609598 -0.044380845072955886 0.17668842401526214
v 0.092450395903103805 0.050809366100926838 0.17686367748391577
v 0.11502839414745562 0.083340232859460212 0.17697847996700311
v 0.087707921040820078 0.089095778144612697 0.17687229401121293
v 0.073296092970399726 0.092131886988157455 0.17681627979142719
v 0.075318063310642364 0.098255277212840567 0.17682888962436119
v 0.073930105819580663 0.10034917213735857 0.17682480191651306
v 0.072302232983077655 0.10280500610696981 0.17682000761962599
v 0.073687070826430487 0.13121489611242557 0.17684621077233606
v 0.073829762715970679 0.13111586100901518 0.17684671534064292
v 0.073701215961668926 0.1315050757080384 0.17684647841411752
v 0.065913800721750848 0.18894782139111757 0.17685669125978248
v 0.053781402780756424 0.19736829357724012 0.17681379079653955
v 0.071771935284493618 0.17188300010257912 0.17686797605406898
v 0.058743577975257207 0.14158640440278647 0.17679337017069413
v 0.053182673471814074 0.13357413327261913 0.17676509463617221
v 0.053198440575191866 0.13132090081597009 0.17676352378337651
v 0.051858737856597462 0.13166657832034775 0.17675836279146093
v -0.011698367857982835 0.14806584624411898 0.17651351997293982
v -0.048085598609737226 0.12160983780974899 0.17634734187238002
v -0.037319275174631565 0.093011041427345745 0.17637008631226825
v -0.007439935084351609 0.072273331217944908 0.17647574048428483
v -0.016043145637185927 0.070054843195833244 0.17643937845634472
v -0.015960237931251401 0.069850037460312445 0.17643956477407488
v -0.0030192151469605106 0.037881994981583601 0.17646864981907098
v -0.024108467586602289 0.0074961452605660332 0.17636141714998207
v -0.07232406207706131 0.040960104704372606 0.17619092551306481
v -0.08264550767748427 0.026088743247392191 0.17613844400822459
v -0.088248028359648206 0.018016510641661432 0.17610995682854996
v -0.080104674785734284 0.0025874248346788361 0.17613165934432484
v 0.075289754758371422 0.16409388276776676 0.17687653594003938
v 0.06737147682463468 0.15401766712703088 0.17683724049002086
v 0.066622361984082432 0.15293832635184379 0.17683343147592037
v -0.23933424739671322 0.13483832292561321 0.17558438831235218
v -0.23688098176589695 0.13512556527700931 0.17559450666370616
v -0.23297282766042116 0.15835504653586119 0.17562714482373537
v -0.2416739549497863 0.1643940506238814 0.17559637739318468
v -0.25475758852981539 0.14554286918525858 0.17552985095759957
v -0.26420841595344269 0.13192591316769633 0.17548179631782021
v -0.068254448830343206 0.14385851988048357 0.17628200937149335
v -0.058510308624735628 0.11403035978787436 0.17629973290313761
v -0.058523840007451158 0.14933714337052548 0.1763252904828721
v -0.058535254662340504 0.23177291261917721 0.17638504496431862
v -0.12700660052312646 0.2228941670166911 0.17610201387254276
v -0.12920521780076091 0.21474448439618393 0.17608722058553666
v -0.16365596503266924 0.20385646380097769 0.17594015824201309
v -0.14376505200656833 0.19005120613321844 0.17601049304700064
v -0.16797610719636807 0.14063790831592315 0.17587684700759459
v -0.10659053324536075 0.15165488735117208 0.17613280621606725
v -0.10660439899610363 0.20079610399640221 0.17616839824431238
v -0.081137315201450053 0.20082266118042952 0.1762712919114717
v -0.081153092712096003 0.15173565097566408 0.17623561943412264
v -0.071060946675181758 0.15244959233514113 0.17627690465250564
v -0.03955896137446057 0.15467812258818955 0.17640577366372182
v -0.060396269646800053 0.1691402244871521 0.17633209236941919
v 0.048974915759147919 -0.28941774671198595 0.17644125038311959
v 0.048984618326323524 -0.25820372798879587 0.17646393288594728
v 0.0032114685326255863 -0.22423718779613561 0.17630367205414005
v -0.011837666379451321 -0.23618498663375914 0.17623421385427146
v -0.0024676226120047434 -0.22002294700009736 0.17628378846175219
v -0.029149220971379019 -0.20022353214300784 0.17619037093461096
v -0.029149907206380232 -0.21888913743839797 0.17617682771708162
v -0.076362179614706094 -0.23473182033173251 0.17597462094351213
v -0.075889292275537854 -0.23506002707214285 0.17597629310599799
v -0.016164702943864261 -0.2413937683563869 0.17621295622618594
v 0.026910591858921095 -0.29601005661997204 0.17634733924753801
v 0.051299823900583581 -0.29036718111077958 0.17644995311575309
v -0.00035738169132943997 -0.10330305272493887 0.17637698379832292
v -0.011077898502630388 -0.10300037722374362 0.17633389775414759
v -0.033073001543962734 -0.13469139604507344 0.17622205913209557
v -0.017827113312887468 -0.14527278140379493 0.17627596901146722
v -0.034731073371554962 -0.16962837162874775 0.17619001736379233
v -0.016632728615201476 -0.18218950006736001 0.17625401358986584
v -0.016121578171757349 -0.15938823225830728 0.17627261888421328
v 0.023830988278700921 -0.14266619060255936 0.17644613797702136
v 0.029751794443318446 -0.17045891583660588 0.17644989366538494
v 0.036003089855665485 -0.19980298327781726 0.17645385901875726
v 0.095532110040469034 -0.21313001343449067 0.17668465907087685
v 0.11845587696791963 -0.21826206052690408 0.17677353681870259
v 0.13382856555843786 -0.28643641615605692 0.17678617980753519
v 0.13250428549027471 -0.31365148583215902 0.1767610879760762
v 0.13775413070121365 -0.31572683320885297 0.17678078925707169
v 0.15419347811990547 -0.32222556906622651 0.17684248174684095
v 0.16625648122563752 -0.31040151393654442 0.17689978771122603
v 0.16626471733504816 -0.31042143464511879 0.1768998065456184
v 0.16625784697236051 -0.33202821041426384 0.17688410478699079
v 0.17545972646277183 -0.3326614988531103 0.17692081642546167
v 0.18355384582976397 -0.35223882127199879 0.1769393108777981
v 0.14062738955961987 -0.33600531506596082 0.17677768535841465
v 0.13862752223077723 -0.33660775355290901 0.1767691698645085
v 0.14065077169795778 -0.3849793682357448 0.17674225303108113
v 0.21292536193422612 -0.37128437930428893 0.17704414121783432
v 0.22915190328326548 -0.34790482860006045 0.17712664838209385
v 0.29278725217539631 -0.25621764559319338 0.17745021541499431
v 0.13837754471481012 -0.14904982474486075 0.17690421844447504
v 0.16290620477014506 -0.10389286968228882 0.1770360598820003
v 0.15409831617804939 -0.0608399849974142 0.17703171180824848
v 0.11419998785035888 -0.077257739314796528 0.17685863258369514
v 0.11430012267045589 -0.093403610704757389 0.17684732453422974
v 0.14686503731335698 -0.11600523984878633 0.17696247492400302
v 0.13880953102957033 -0.12761178698794629 0.17692151504787498
v 0.12862724506424064 -0.14228264422675013 0.17686974114517062
v 0.11417877530508548 -0.13225470596896238 0.17681865094472524
v 0.1141676331272128 -0.16311636489271197 0.17679621826238351
v 0.073152264846634618 -0.13862927699243249 0.17664829994407785
v 0.066892783335023992 -0.10880591032176304 0.1766446492033433
v 0.056217997257359868 -0.10490036213176729 0.17660436156305931
v 0.053357938222683213 -0.10481961356557923 0.17659286691956458
v 0.013168527261641751 -0.10368493370759158 0.17643134473606509
v 0.025874879549200428 -0.11250375808209115 0.17647627470870098
v 0.005725611248354987 -0.1415352584202598 0.17637382164659407
v -0.016288240808935248 -0.12625657813052596 0.17629598006986527
v 0.13600821807652427 -0.24164272135508741 0.17682747879482608
v 0.11230355453772299 -0.16580216960252916 0.17678673995802199
v 0.0038610275379600571 -0.097225077792357339 0.17639843313197215
v 0.15532070572918516 0.0040832118010041508 0.17708374626105597
v 0.11423949130759126 0.0041449237238139992 0.17691784330840465
v 0.11421297658153406 -0.045652129397501552 0.17688161238441355
v 0.1432448813756157 -0.020128635538472869 0.17701740218291315
v 0.18664213998545481 -0.020629344682900733 0.17719234232832506
v 0.21626476772181552 0.02205157617884048 0.17734296469436062
v 0.21497485369649708 0.024152119275475673 0.17733927785053649
v 0.17938067326517237 -0.011587257881428415 0.17716956892307539
v 0.17937954278717982 0.0040470707663381273 0.17718090584580248
v 0.19015293943460274 0.039923224984672351 0.17725045029705724
v 0.15406814306698102 0.004899016922540406 0.17707927836557061
v 0.11859480336047626 0.11390337587369281 0.17701505764643369
v 0.11858072393838684 0.080874743800078142 0.17699104112523598
v 0.14045900594710539 0.09718146094715728 0.17709124773706342
v 0.20210967521444348 0.051528533704969917 0.17730716834289043
v 0.19963711787007907 0.049128648656444111 0.17729543948981202
v 0.24454797355162303 0.053845874519099543 0.17748027906554745
v 0.21919664367619685 0.053929563138545716 0.1773779329772634
v 0.19649747439138535 0.093467725893318976 0.17731492138927846
v 0.20209350604974535 0.11282952659026052 0.17735157201168594
v 0.18372167601507106 0.08055204858311131 0.17725394419197149
v 0.35101006856560213 -0.10387318368984658 0.17779592050323759
v 0.37910189960786156 -0.10256852555877159 0.17791034399598404
v 0.35330073891305092 -0.066942505610125061 0.17783196395825207
v 0.2992456213248777 -0.14623158257419114 0.17755609016583626
v 0.31165435779346651 -0.15484384712798463 0.17759996780709061
v 0.31974884942752013 -0.14891502239349116 0.17763696642828378
v 0.44761353071433874 0.069591512676036346 0.17831198547975108
v 0.35325989669431296 0.046197811080337013 0.17791387330323999
v 0.35612808721312028 0.020631585208450196 0.1779069130972771
v 0.34978742385219674 0.020720861748056239 0.17788136472751442
v 0.35649678780508393 0.01734509425487572 0.17790601834851363
v 0.35746482289323911 0.0087163076563133452 0.17790366925309811
v 0.39997548167661096 -0.020788149924709738 0.17805398810451195
v 0.39887912414301807 -0.022367805519380689 0.17804841344671152
v 0.40339567871860788 -0.021441065458228579 0.17806733036045591
v 0.41120926128444557 -0.010183087202003246 0.17810706015274605
v 0.42468185523012575 0.0092285166939198599 0.17817556429163253
v 0.44723370291070663 0.011719656860300409 0.17826846969829005
v 0.46806803212555731 -0.0036693176773587577 0.17834146659958583
v 0.49573454768170433 0.036193194589521818 0.17848214270259113
v 0.45866396234742601 0.061921977523393054 0.17835106007464507
v -0.41898883679928661 0.081233533817652401 0.18268803622485871
v -0.41994778288858964 0.087282173930801746 0.18272844958125828
v -0.42241121047997654 0.086594251110149414 0.18271572485392565
v -0.44567404468477151 0.080097991077403771 0.18259556143043423
v -0.46796406290503334 0.095568344097274466 0.18263624353381183
v -0.48296005563494065 0.089064707844138308 0.18254214842904293
v -0.49505644332286908 0.071635971557099873 0.18237874764153897
v -0.46777789833670025 0.064160837957147596 0.18241125244117609
v -0.42855040266778077 0.082479172699332262 0.18266677053804786
v -0.41208815861441617 0.037706874919371955 0.18239721754930049
v -0.42705946198863348 0.048097685054249967 0.18242454210818088
v -0.44937862599365569 0.035807756024999658 0.18226574837883666
v -0.50244503353445624 0.060990331494445382 0.18227894083458876
v -0.42847031919970857 0.0096482943621190812 0.1821439275748642
v -0.40983226231156417 0.036502408710219321 0.18239569477255776
v -0.41226391660532674 0.038815484570592911 0.18240462462309662
v -0.41987015387801069 0.04605080749643374 0.18243255722431739
v 0.40339567871860788 -0.021441065458228579 0.18454913340831688
v 0.39887912414301807 -0.022367805519380689 0.1845282060037714
v 0.37350888997150888 -0.058921786034646512 0.18418549899160877
v 0.34907010395270266 0.014542649488391207 0.18463592463702402
v 0.35746482289323911 0.0087163076563133452 0.18462060320418316
v 0.35649678780508393 0.01734509425487572 0.1846795193018938
v 0.34978742385219674 0.020720861748056239 0.18468256522377813
v 0.35612808491062731 0.020631585714998645 0.18470195898381414
v 0.35325989669431296 0.046197811080337013 0.18487652147433106
v 0.44761353071433874 0.069591512676036346 0.18534267821213424
v 0.31847366937698918 0.15922083555602637 0.18557837488392798
v 0.25979481432403501 0.18873033974111489 0.18560491079292041
v 0.25079932390145204 0.17576944317305612 0.18548339760200713
v 0.24888864801207572 0.13109178158370985 0.18515647021878398
v 0.20559846283091249 0.11267832666689136 0.18488743179116288
v 0.14044257655465317 0.12878506672853171 0.18479723862911024
v 0.13136808128984911 0.15316071774573051 0.18494363955850668
v 0.11606716752946429 0.1412184380758271 0.18480951879110252
v 0.010121358347123178 0.21365130029653537 0.18499499238129888
v 0.010106320995863513 0.24594340779134166 0.18522687773649918
v -0.055046524377946125 0.26364558487253698 0.18514815315372093
v -0.061700587331266273 0.28050048060221311 0.18524818546683147
v -0.11708137099626365 0.31893742857634888 0.18534926242099703
v -0.14191112731892377 0.34449454633869203 0.18545436615904709
v -0.1888873025598308 0.35259134921517687 0.18536408651535893
v -0.20904525070652971 0.39222117868144607 0.18558502701633306
v -0.25345883085929438 0.42304635589367157 0.18566608743216736
v -0.27250532453262299 0.39560375704089623 0.18540880295479789
v -0.25053772108568567 0.36427519712151973 0.18525320305948562
v -0.25402698393670126 0.33046341572349408 0.18499933018593212
v -0.29842238742720756 0.32943713557617604 0.1848516800620062
v -0.31753714808264799 0.30189617615832726 0.18459347343620705
v -0.27568642384442793 0.2728497451203728 0.18451709058086688
v -0.27656076469183816 0.26692625420291632 0.18447178332173489
v -0.25048168715656022 0.22888199073864166 0.18428094027191053
v -0.21415006860932112 0.24946852672049474 0.18454359909019308
v -0.20892209008190496 0.24994885078956847 0.18456356810506971
v -0.19429969502413411 0.25129229326327518 0.18461942050565036
v -0.19357569315192619 0.25233545077607539 0.1846292004826392
v -0.19334938793445955 0.25137960338179532 0.18462305033974885
v -0.18884534533585304 0.25179341533679017 0.18464025415268259
v -0.17948364709228243 0.23276579524428845 0.18453317211268302
v -0.12369121581567083 0.23518340585065228 0.18472682710505731
v -0.12700660052312646 0.2228941670166911 0.18462808579974835
v -0.058535254662340504 0.23177291261917721 0.18490820925736695
v -0.059093949651274083 0.21296996389513911 0.18477139475740131
v -0.015985441894117436 0.20012803317793437 0.18481537237289988
v -0.015999404027215558 0.16744685631746042 0.18458060098092624
v 0.010151531458191537 0.14791229842263065 0.18452292795311381
v 0.053454011030753507 0.16514008012386988 0.18478348933846117
v 0.06621570373655869 0.154169599795759 0.18474501956241737
v 0.066622361891982715 0.15293832616764436 0.18473746107668429
v 0.06737147682463468 0.15401766712703088 0.18474758030298558
v 0.071771935284493618 0.17188300010257912 0.1848897995828212
v 0.053781402780756424 0.19736829357724012 0.18501599774825592
v 0.075289754758371422 0.16409388276776676 0.18484497096592534
v 0.11859480336047626 0.11390337587369281 0.18462131950974242
v 0.14045900594710539 0.09718146094715728 0.18457030275882241
v 0.20209350604974535 0.11282952659026052 0.18487744293201286
v 0.19649747439138535 0.093467725893318976 0.18472069777670327
v 0.21919664367619685 0.053929563138545716 0.18450844531845761
v 0.24454797355162303 0.053845874519099543 0.18458794846620463
v 0.21497485369649708 0.024152119275475673 0.18428123379371281
v 0.21626476772181552 0.02205157617884048 0.18427022281188887
v 0.18664213998545481 -0.020629344682900733 0.18387007343565837
v 0.1432448813756157 -0.020128635538472869 0.1837365446391937
v 0.26177158995100147 -0.098518563905250919 0.18354803802107358
v 0.31027792082592043 -0.028629596293278645 0.1842032728096992
v 0.29746134424017245 -0.12328898318843783 0.18348289966639317
v 0.28375139407787409 -0.11377361329530762 0.18350792210071437
v 0.26305598973593469 -0.14359199820011331 0.18322836376696744
v 0.29589707058785725 -0.16638530002822924 0.18316842462558569
v 0.31165435779346651 -0.15484384712798463 0.18330110854528431
v 0.2992456213248777 -0.14623158257419114 0.18332375605021903
v 0.37910189960786156 -0.10256852555877159 0.18388968593252536
v 0.35101006856560213 -0.10387318368984658 0.18379155184065935
v 0.31974884942752013 -0.14891502239349116 0.18336926804702486
v 0.33247283848878839 -0.13959531406929832 0.1834764101360408
v 0.33602079331285006 -0.18467024484643388 0.18316387743224286
v 0.24444747539813722 -0.13194361448760661 0.18325322788187287
v 0.26573627753447487 -0.10127024924742839 0.18354080197645434
v 0.11423949130759126 0.0041449237238139992 0.18381923535819186
v 0.15532070572918516 0.0040832118010041508 0.18394859908304501
v 0.15406814306698102 0.004899016922540406 0.18395050066592919
v 0.19015293943460274 0.039923224984672351 0.1843160758079018
v 0.19512415628870045 0.056477720168295512 0.18445068369071616
v 0.19963711787007907 0.049128648656444111 0.18441216003633715
v 0.20210967521444348 0.051528533704969917 0.18443720954797554
v 0.18372167601507106 0.08055204858311131 0.18458756450247898
v 0.11858072393838684 0.080874743800078142 0.18438405216935244
v 0.073701215639319903 0.13150507616853699 0.18460588774143905
v 0.073829762715970679 0.13111586100901518 0.1846034984444965
v 0.073687070826430487 0.13121489611242557 0.18460375885645006
v 0.072302232752828363 0.10280500753451545 0.18439533364804908
v 0.073930105266982363 0.1003491745780011 0.18438283870951366
v 0.083378928830988297 0.10220303267754932 0.1844260098077789
v 0.087707921040820078 0.089095778144612697 0.18434554767171482
v 0.11502839414745562 0.083340232859460212 0.1843905356211234
v 0.092450395903103805 0.050809366100926838 0.18408554680525319
v 0.066159906411609598 -0.044380845072955886 0.18331878671781729
v -0.029355321628939411 -0.047803379237404915 0.18299239936129252
v -0.022250302075327896 -0.037566313833213003 0.18308837560280813
v -0.05972567898003895 -0.011556585912235767 0.18315677295207125
v -0.088823175950163036 -0.05348088704972772 0.18276371718824558
v -0.10388747544926047 -0.04302553306385104 0.18279121144085697
v -0.1289939783933669 -0.079199524002329477 0.18245206698394861
v -0.14878761035519286 -0.065461784085473512 0.18248819286821097
v -0.16606259330022155 -0.096628313523005091 0.18220975944042359
v -0.16787673077140158 -0.12236496467396211 0.18201917786169955
v -0.19286489662943093 -0.08316078975891826 0.18222179880770231
v -0.17024488792746417 -0.050569393453758861 0.18252735514203683
v -0.19491825842186575 -0.033444878469587998 0.18257238716116059
v -0.16177462875191048 0.014309177945792107 0.18302009904232563
v -0.12046417739461633 -0.014362277516140132 0.1829447022065698
v -0.10888843549294142 0.0065220094410194246 0.18313127684889871
v -0.098481230226706379 0.0032722927076744334 0.18314082059011005
v -0.076911272287007476 -0.0034630652855124275 0.1831606009387137
v -0.080104674785734284 0.0025874248346788361 0.18319396719306613
v -0.088248028359648206 0.018016510641661432 0.18327905305733899
v -0.07232406207706131 0.040960104704372606 0.18349415765966165
v -0.024108467586602289 0.0074961452605660332 0.18340615808265012
v -0.0030192151469605106 0.037881994981583601 0.1836910366026758
v -0.015960237931251401 0.069850037460312445 0.18387975132010945
v -0.054979529385044051 0.079365422181497308 0.18382480232566581
v -0.08116711687435442 0.13658830193706589 0.18415304982020153
v -0.068254448830343206 0.14385851988048357 0.18424606795691426
v -0.071060946675181758 0.15244959233514113 0.18429890409171987
v -0.081153092712096003 0.15173565097566408 0.18426188751108163
v -0.081137315201450053 0.20082266118042952 0.18461449690075873
v -0.10660439899610363 0.20079610399640221 0.18453383619770197
v -0.10659053324536075 0.15165488735117208 0.18418093112187917
v -0.16797610719636807 0.14063790831592315 0.1839078395238043
v -0.14376505200656833 0.19005120613321844 0.18433924381439459
v -0.16365596503266924 0.20385646380097769 0.18437554726691388
v -0.19436085941411851 0.1941523050040907 0.18420882849495765
v -0.20020187420492053 0.2038332671054226 0.18425990418969743
v -0.21171618453532812 0.2000710069203939 0.18419649988851355
v -0.23215626745934426 0.21425741517398969 0.18423380561621747
v -0.24874252341503003 0.19035957989003613 0.18400975463145647
v -0.23180937308743826 0.17860715287563611 0.18397884946577706
v -0.2416739549497863 0.1643940506238814 0.18384559641586903
v -0.23297282766042116 0.15835504653586119 0.18382971575353857
v -0.23688098176589695 0.13512556527700931 0.18365052488377712
v -0.23933424642966619 0.13483832228091516 0.18364071009309471
v -0.26420841595344269 0.13192591316769633 0.18354119565670032
v -0.28790343370454474 0.097785620593641445 0.18322111786767833
v -0.1373506394277999 0.039476945944875101 0.18327803650669799
v -0.10551721109466626 0.085343236045562099 0.18370804986129233
v -0.10277689933090378 0.015481094594844525 0.18321493502938796
v -0.29503774557356843 0.087506350217229509 0.18312474591972294
v -0.31065636891686821 0.098346431803852774 0.18315325188774009
v -0.31557973692800712 0.095771283201754168 0.18311919962863574
v -0.31955108401186311 0.069575545071571779 0.18291850444169322
v -0.28920306526324302 0.048512549202476725 0.1828631154408453
v -0.29814892167402701 0.018358983260040925 0.18261827552346532
v -0.28749042771418498 0.01096147185528841 0.18259882240516087
v -0.3026687284748702 -0.010907751225136037 0.18239379042668202
v -0.27554699394271126 -0.0023671315027235097 0.1825408302978743
v -0.22857404500098694 0.065312506391027286 0.18317535181379954
v -0.23666430428458479 -0.02935360267837276 0.18246986447166666
v -0.33393824588967269 -0.055961546268163263 0.18197139450164049
v -0.076362179614706094 -0.23473182033173251 0.18150128539652527
v -0.029149907206380232 -0.21888913743839797 0.18176425256466475
v -0.029149220971379019 -0.20022353214300784 0.1818983174275399
v -0.0024676226120047434 -0.22002294700009736 0.18184041889356714
v -0.011837666379451321 -0.23618498663375914 0.18169473049364152
v 0.0032114685326255863 -0.22423718779613561 0.18182809535260755
v 0.048984618326323524 -0.25820372798879587 0.18172876852333938
v 0.048974915759147919 -0.28941774671198595 0.18150454821324624
v 0.051299823025636258 -0.29036718005163281 0.18150507520783449
v 0.026910591858921095 -0.29601005661997204 0.18138748191908258
v -0.016164702943864261 -0.2413937683563869 0.18164364687832596
v -0.075889292275537854 -0.23506002707214285 0.18150042233006486
v 0.18284061911805122 -0.41463112559336529 0.18102820731884037
v 0.21292536193422612 -0.37128437930428893 0.18143459902977929
v 0.14065077169795778 -0.3849793682357448 0.18110786634536069
v 0.18057900867237547 -0.3511138265282901 0.18147726390194277
v 0.18355384582976397 -0.35223882127199879 0.18147858359880661
v 0.18215180845611428 -0.34884770268986814 0.18149850964916464
v 0.17545972835081605 -0.33266149899125985 0.18159361904813143
v 0.16625784697236051 -0.33202821041426384 0.18156909178794575
v 0.16626471733504816 -0.31042143464511879 0.18172430067390388
v 0.16625648122563752 -0.31040151393654442 0.18172441773264586
v 0.15419347811990547 -0.32222556906622651 0.1816013771139541
v 0.13775413070121365 -0.31572683320885297 0.1815961087798168
v 0.13250428549027471 -0.31365148583215902 0.18159442634821235
v 0.13141139680047267 -0.33611126810156333 0.18142965935348682
v 0.11389186617047026 -0.32395186472721255 0.18146163471789317
v 0.11413049598804326 -0.25797901784635091 0.18193622806619375
v 0.087791174673296613 -0.22428331999244461 0.18209501590115598
v 0.095532110040469034 -0.21313001343449067 0.18219958228339947
v 0.036003089855665485 -0.19980298327781726 0.18210720387133023
v 0.023830988278700921 -0.14266619060255936 0.18247911869741346
v -0.016121578171757349 -0.15938823225830728 0.1822327746534837
v -0.016632728615201476 -0.18218950006736001 0.18206739312338766
v -0.034731073371554962 -0.16962837162874775 0.18210042487156317
v -0.062310942341602497 -0.20936604162224678 0.18172786963008855
v -0.11534783468567249 -0.077588674187013151 0.18250675524408969
v -0.033073001543962734 -0.13469139604507344 0.18235659319244629
v -0.011077898502630388 -0.10300037722374362 0.18265370817314788
v -0.00035738169132943997 -0.10330305272493887 0.1826854085277953
v 0.0038610275379600571 -0.097225077792357339 0.18274239182081722
v 0.013168527261641751 -0.10368493370759158 0.18272540444222152
v 0.05335793638068885 -0.10481961319718036 0.18284424384016235
v 0.056217996658711702 -0.10490036171731855 0.18285270098889692
v 0.066892781815378638 -0.10880590963101515 0.18285837981147879
v 0.073152264846634618 -0.13862927699243249 0.18266395675350353
v 0.11230355453772299 -0.16580216960252916 0.18259250068049526
v 0.1141676331272128 -0.16311636489271197 0.18261768111188328
v 0.11417877530508548 -0.13225470596896238 0.1828393751727527
v 0.12862724506424064 -0.14228264422675013 0.18281300490510369
v 0.14686503731335698 -0.11600523984878633 0.18305936520463373
v 0.11430012267045589 -0.093403610704757389 0.18311880033030697
v 0.11419998785035888 -0.077257739314796528 0.18323444907165609
v 0.14695251486916505 -0.13326341243087791 0.18293568757824022
v 0.13837754471481012 -0.14904982474486075 0.18279520935147975
v 0.29278725217539631 -0.25621764559319338 0.18251339199584179
v 0.45000090737777038 -0.029700820642639056 0.18463707058776924
v 0.41120926128444557 -0.010183087202003246 0.18465468111305908
v 0.32260351224760064 -0.02359098662154557 0.18427840775990598
v 0.34596767506904152 -0.053400015576465558 0.18413813445501878
v 0.35330073891305092 -0.066942505610125061 0.18406403848173439
v 0.28818768688033702 -0.20092285331689938 0.18289600438840753
v -0.0085734444009692677 -0.047058715944638022 0.18306341358590214
v -0.070943470951720281 0.06134738469553154 0.18364494838398229
v 0.14062738955961987 -0.33600531506596082 0.18145954069264755
v 0.16290620477014506 -0.10389286968228882 0.18319704668529779
v -0.18969135534286047 0.038326035215378036 0.18310438594154202
v 0.13862752154002936 -0.33660775277006139 0.18144889465595745
v 0.15409831617804939 -0.0608399849974142 0.18347843623774415
v 0.075276284069370272 0.19524139522521 0.18506864042760321
v 0.065913800721750848 0.18894782139111757 0.18499385458137871
v 0.077831387766424343 0.16775592243391058 0.18487930394497115
v 0.11421297658153406 -0.045652129397501552 0.18346149228416564
v -0.18520047793848943 -0.11980901559359358 0.18198279658491828
v -0.15983166371438753 -0.14168193440546498 0.18190585735517972
v 0.051858737856597462 0.13166657832034775 0.18453803060307378
v 0.053198440575191866 0.13132090081597009 0.18453978100427035
v 0.053182673471814074 0.13357413327261913 0.18455591466452703
v 0.058743577975257207 0.14158640440278647 0.18463103262233579
v 0.053099194517376658 0.14550388010495302 0.18464133434422894
v -0.31557973692800712 0.095771283201754168 0.1702333407534812
v -0.31065636891686821 0.098346431803852774 0.17024457153128292
v -0.33099609984965145 0.11246319088881403 0.17019463165631935
v -0.30089822877122813 0.15582885266408913 0.17025933557662845
v -0.34565607090174966 0.18689296440580569 0.1701494421927271
v -0.41898883679928661 0.081233533817652401 0.16999179257213373
v -0.41226391660532674 0.038815484570592911 0.17001370641071231
v -0.40983226231156417 0.036502408710219321 0.1700197662958787
v -0.38202250102422086 0.076571312485570753 0.17007955126233198
v -0.29814892167402701 0.018358983260040925 0.17028548503520277
v -0.28920306526324302 0.048512549202476725 0.17030224617084042
v -0.31955108401186311 0.069575545071571779 0.17022773303188188
v -0.30207116123412375 0.23179441251557178 0.17024570136457742
v -0.33741592554331434 0.23217771091288944 0.17016237538777212
v -0.34103741319693276 0.20542524928034389 0.17015767157885828
v -0.33738480781148505 0.20289016414781488 0.17016663978892987
v -0.31913874712595691 0.2136796324263342 0.17020808291227993
v -0.30206076593891679 0.21356445578814121 0.17024833458762395
v -0.25951261409701393 0.21327750424160571 0.17034861773431734
v -0.25436874029557138 0.23127710083122124 0.17035816078478078
v -0.20892208833201034 0.24994885051326932 0.17046255968368651
v -0.19836091955220833 0.24544079338004088 0.170488086548165
v -0.22244738385480764 0.21073649613014162 0.17043630587613132
v -0.20712106903815961 0.21530121674012009 0.17047176095209529
v -0.20020187420492053 0.2038332671054226 0.17048970345081985
v -0.19436085941411851 0.1941523050040907 0.17050485003234545
v -0.16365596503266924 0.20385646380097769 0.17057580112259815
v -0.12920521780076091 0.21474448439618393 0.17065540788252831
v -0.12700660236512082 0.22289416660224237 0.17065942154220293
v -0.12369121581567083 0.23518340585065228 0.17066547382914254
v -0.17948364709228243 0.23276579524428845 0.17053437462324722
v -0.1823592496122208 0.23861044765161513 0.17052676341042541
v -0.18884534533585304 0.25179341533679017 0.17050959588478068
v -0.19334938669111337 0.25137960375019419 0.17049904369770358
v -0.19357569315192619 0.25233545077607539 0.17049837376435248
v -0.19429969502413411 0.25129229326327518 0.17049681732516273
v 0.095532110040469034 -0.21313001343449067 0.17124611152991639
v 0.087791174673296613 -0.22428331999244461 0.17122947016996246
v 0.11413049598804326 -0.25797901784635091 0.17129634667657689
v 0.11389186617047026 -0.32395186472721255 0.17130522531967238
v 0.13141139680047267 -0.33611126810156333 0.17134824081546352
v 0.13250428549027471 -0.31365148583215902 0.1713476015973685
v 0.13382856555843786 -0.28643641615605692 0.17134682703873741
v 0.13600821807652427 -0.24164272135508741 0.17134555214838654
v 0.11845587696791963 -0.21826206052690408 0.17130085357629296
v 0.013168527261641751 -0.10368493370759158 0.17103640374083809
v -0.00035738169132943997 -0.10330305272493887 0.17100448248501626
v -0.016288240808935248 -0.12625657813052596 0.17097023456006033
v 0.005725611248354987 -0.1415352584202598 0.17102428493755231
v 0.025874879549200428 -0.11250375808209115 0.17106760150732261
v 0.26305598973593469 -0.14359199820011331 0.17163084138710608
v 0.28375139407787409 -0.11377361329530762 0.17167533204408555
v 0.26573627753447487 -0.10127024924742839 0.17163109977286581
v 0.24444747539813722 -0.13194361448760661 0.17158533344268787
v 0.28818768688033702 -0.20092285331689938 0.17169825501927777
v 0.33602079331285006 -0.18467024484643388 0.17180862253252907
v 0.33247283848878839 -0.13959531406929832 0.17179381335832153
v 0.31974884942752013 -0.14891502239349116 0.17176516970122546
v 0.31165435779346651 -0.15484384712798463 0.17174694777195554
v 0.29589707058785725 -0.16638530002822924 0.17171147570359355
v -0.058510308624735628 0.11403035978787436 0.17083637521770662
v -0.068254448830343206 0.14385851988048357 0.17080914985022286
v -0.08116711687435442 0.13658830193706589 0.1707797684283332
v -0.054979529385044051 0.079365422181497308 0.17084965424719395
v -0.015960237931251401 0.069850037460312445 0.17094294412412558
v -0.016043145637185927 0.070054843195833244 0.17094271949291259
v -0.007439935084351609 0.072273331217944908 0.17096267091674303
v -0.037319275174631565 0.093011041427345745 0.17088930851771508
v -0.048085598609737226 0.12160983780974899 0.17085985088330849
v -0.015999404027215558 0.16744685631746042 0.1709288855626224
v -0.015985441894117436 0.20012803317793437 0.17092424171062517
v -0.059093949651274083 0.21296996389513911 0.17082084172526435
v -0.060396269646800053 0.1691402244871521 0.17082404564421547
v -0.03955896137446057 0.15467812258818955 0.17087520722194258
v -0.058523840007451158 0.14933714337052548 0.17083129085275667
v -0.011698367857982835 0.14806584624411898 0.17094179209479896
v 0.051858736797450705 0.13166657675465251 0.17109387737276033
v 0.053182673471814074 0.13357413327261913 0.17109672357640551
v 0.053099194517376658 0.14550388010495302 0.17109481973707821
v 0.058743577975257207 0.14158640440278647 0.17110867830404308
v 0.066622361891982715 0.15293832616764436 0.17112561599484075
v 0.06621570373655869 0.154169599795759 0.17112448174075975
v 0.053454011030753507 0.16514008012386988 0.1710928456717157
v 0.010151531458191537 0.14791229842263065 0.170993291770592
v -0.071060945616034987 0.15244959436133493 0.17080130843415511
v 0.19963711787007907 0.049128648656444111 0.17145384985861814
v 0.19512415628870045 0.056477720168295512 0.17144216581205268
v 0.19015293943460274 0.039923224984672351 0.17143282275612756
v 0.17937954278717982 0.0040470707663381273 0.17141257495540357
v 0.15532070572918516 0.0040832118010041508 0.17135588790112563
v 0.17938067326517237 -0.011587257881428415 0.17141481491265287
v 0.21497485369649708 0.024152119275475673 0.17149355929687052
v 0.073296092970399726 0.092131886988157455 0.17115004060989034
v 0.087707921040820078 0.089095778144612697 0.17118442889481697
v 0.083378930212484076 0.10220303332224734 0.17117235425334615
v 0.073930105819580663 0.10034917213735857 0.17115035839996839
v 0.075318063310642364 0.098255277212840567 0.17115392804690097
v 0.41120926128444557 -0.010183087202003246 0.17196079470657469
v 0.45000090737777038 -0.029700820642639056 0.17205497960856894
v 0.46806803212555731 -0.0036693176773587577 0.17209382003992912
v 0.44723370291070663 0.011719656860300409 0.17204253283818624
v 0.42468185523012575 0.0092285166939198599 0.17198975790364346
v 0.34907010395270266 0.014542649488391207 0.18914700545005483
v 0.32260351224760064 -0.02359098662154557 0.18914700545005483
v 0.37350888997150888 -0.058921786034646512 0.18914700545005483
v 0.3988791232220209 -0.022367806808776747 0.18914700545005483
v 0.39997548167661096 -0.020788149924709738 0.18914700545005483
v 0.35746482289323911 0.0087163076563133452 0.18914700545005483
v -0.11534783468567249 -0.077588674187013151 0.19061845594076096
v -0.15983166371438753 -0.14168193440546498 0.19061845594076096
v -0.062310942341602497 -0.20936604162224678 0.19061845594076096
v -0.034731073371554962 -0.16962837162874775 0.19061845594076096
v -0.017827113312887468 -0.14527278140379493 0.19061845594076096
v -0.033073001543962734 -0.13469139604507344 0.19061845594076096
v -0.12046417739461633 -0.014362277516140132 0.18794220298483061
v -0.16177462875191048 0.014309177945792107 0.18794220298483061
v -0.18360592866811937 -0.017145829775305613 0.18794220298483061
v -0.19491825842186575 -0.033444878469587998 0.18794220298483061
v -0.17024488792746417 -0.050569393453758861 0.18794220298483061
v -0.14878761035519286 -0.065461784085473512 0.18794220298483061
v -0.1289939783933669 -0.079199524002329477 0.18794220298483061
v -0.10388747544926047 -0.04302553306385104 0.18794220298483061
v -0.095850348723411652 -0.031445467586949383 0.18794220298483061
v -0.11388816388708925 -0.018926349605952065 0.18794220298483061
v -0.30089822877122813 0.15582885266408913 0.18998952952877365
v -0.33099609984965145 0.11246319088881403 0.18998952952877365
v -0.31065636891686821 0.098346431803852774 0.18998952952877365
v -0.29503774557356843 0.087506350217229509 0.18998952952877365
v -0.28790343370454474 0.097785620593641445 0.18998952952877365
v -0.26493987449514511 0.13087201194645476 0.18998952952877365
v -0.26420841719678889 0.13192591141780169 0.18998952952877365
v -0.25475758852981539 0.14554286918525858 0.18998952952877365
v -0.2416739549497863 0.1643940506238814 0.18998952952877365
v -0.23180937308743826 0.17860715287563611 0.18998952952877365
v -0.24874252341503003 0.19035957989003613 0.18998952952877365
v -0.26776772736352128 0.20356399354722063 0.18998952952877365
v -0.29071594280589841 0.1704997098568431 0.18998952952877365
v -0.30088058780698135 0.1558542701601521 0.18998952952877365
v -0.42541587841378037 0.014049198492514972 0.18841058218093659
v -0.42847031919970857 0.0096482943621190812 0.18841058218093659
v -0.33393824588967269 -0.055961546268163263 0.18841058218093659
v -0.3026687284748702 -0.010907751225136037 0.18841058218093659
v -0.28749042771418498 0.01096147185528841 0.18841058218093659
v -0.29814892167402701 0.018358983260040925 0.18841058218093659
v -0.38202250102422086 0.076571312485570753 0.18841058218093659
v -0.40983226231156417 0.036502408710219321 0.18841058218093659
v -0.41000146938766019 0.03625861145375045 0.18841058218093659
v -0.4115132263990926 0.034080439346536338 0.18841058218093659
v -0.25310679446801476 0.029965191840636347 0.18926985901421867
v -0.27554699394271126 -0.0023671315027235097 0.18926985901421867
v -0.23666430428458479 -0.02935360267837276 0.18926985901421867
v -0.19551437255930634 0.029936106381191506 0.18926985901421867
v -0.18969135534286047 0.038326035215378036 0.18926985901421867
v -0.22857404500098694 0.065312506391027286 0.18926985901421867
v 0.2712239441116594 -0.084899408178016278 0.18880496998298835
v 0.26177158995100147 -0.098518563905250919 0.18880496998298835
v 0.26573627753447487 -0.10127024924742839 0.18880496998298835
v 0.28375139407787409 -0.11377361329530762 0.18880496998298835
v 0.29746134424017245 -0.12328898318843783 0.18880496998298835
v 0.34596767506904152 -0.053400015576465558 0.18880496998298835
v 0.31027792082592043 -0.028629596293278645 0.18880496998298835
v 0.28756863991303439 -0.061349618005899262 0.18880496998298835
v -0.13601943290822069 0.041394977055906147 0.18945762947929023
v -0.1373506394277999 0.039476945944875101 0.18945762947929023
v -0.10277689933090378 0.015481094594844525 0.18945762947929023
v -0.10144569276527468 0.017399125705875575 0.18945762947929023
v -0.091263406799944977 0.032069982944679401 0.18945762947929023
v -0.070943470951720281 0.06134738469553154 0.18945762947929023
v -0.10551721109466626 0.085343236045562099 0.18945762947929023
v -0.12583714689684111 0.056065834248660122 0.18945762947929023
v -0.4122639181249721 0.038815483465396296 -0.17793522265069694
v -0.3008805869780839 0.15585427131139856 0.17535101702029648
v -0.29071594280589841 0.1704997098568431 0.17540270126392504
v -0.27250532453262299 0.39560375704089623 -0.17793522265069694
v -0.28050569209654624 0.38407665498061083 -0.17793522265069694
v -0.3061327654893366 0.34384128096439315 -0.17793522265069694
v -0.32264812874599108 0.3200455893795926 0.17538219470904243
v -0.32264812874599108 0.3200455893795926 -0.17793522265069694
v -0.38231611451178144 0.23407466868737128 -0.17793522265069694
v -0.38782473649182581 0.22613772739041471 0.17505079081901026
v -0.38782473649182581 0.22613772739041471 -0.17793522265069694
v -0.3924984004771111 0.21940381149461732 0.17502702660499089
v -0.3924984004771111 0.21940381149461732 -0.17793522265069694
v -0.40427970973292748 0.20242904706054843 0.17496712213915311
v -0.40427970973292748 0.20242904706054843 -0.17793522265069694
v -0.40694212281813585 0.19859298488453617 0.17495358453970658
v -0.40694212281813585 0.19859298488453617 -0.17793522265069694
v -0.48296005563494065 0.089064707844138308 -0.17793522265069694
v 0.021209305234773566 -0.045991530490275025 0.18316518492589401
v 0.072302232983077655 0.10280500610696981 -0.17793522265069694
v 0.073701215961668926 0.1315050757080384 -0.17793522265069694
v 0.066622361984082432 0.15293832635184379 -0.17793522265069694
v -0.08264550767748427 0.026088743247392191 0.18335473319182835
v -0.098481230963504127 0.0032722916945775319 0.17605792398748757
v -0.059093948315828156 0.21296996242154362 0.1763691480924377
v -0.076362179614706094 -0.23473182033173251 -0.17793522265069694
v -0.075889292275537854 -0.23506002707214285 -0.17793522265069694
v 0.029751792601324083 -0.17045891675760311 0.18229821026000503
v 0.17545972646277183 -0.3326614988531103 -0.17793522265069694
v 0.18215180845611428 -0.34884770268986814 0.17693610732724588
v 0.1805790076132287 -0.35111382804793545 0.17692811007845471
v 0.13862752223077723 -0.33660775355290901 -0.17793522265069694
v 0.21292536193422612 -0.37128437930428893 -0.17793522265069694
v 0.22915190328326548 -0.34790482860006045 -0.17793522265069694
v 0.29278725217539631 -0.25621764559319338 -0.17793522265069694
v 0.14695251505336451 -0.13326341256902749 0.17695030887356175
v 0.13880953102957033 -0.12761178698794629 0.18295054957163617
v 0.053357938222683213 -0.10481961356557923 -0.17793522265069694
v 0.46806803212555731 -0.0036693176773587577 -0.17793522265069694
v 0.49573454768170433 0.036193194589521818 -0.17793522265069694
v 0.45866396234742601 0.061921977523393054 -0.17793522265069694
v 0.44761353071433874 0.069591512676036346 -0.17793522265069694
v -0.49505644332286908 0.071635971557099873 -0.17793522265069694
v -0.50244503353445624 0.060990331494445382 -0.17793522265069694
v -0.42847031919970857 0.0096482943621190812 -0.17793522265069694
v -0.42541587758488286 0.014049199689811311 0.18218518765002412
v -0.4115132263990926 0.034080439346536338 0.18237298790935458
v -0.41000146938766019 0.03625861145375045 0.1823934090877983
v -0.42241121047997654 0.086594251110149414 -0.17793522265069694
v -0.23933424642966619 0.13483832228091516 -0.17793522265069694
v -0.26493987449514511 0.13087201194645476 0.18353131496866948
v -0.33393824588967269 -0.055961546268163263 -0.17793522265069694
v 0.051299823025636258 -0.29036718005163281 -0.17793522265069694
v 0.18284061911805122 -0.41463112559336529 -0.17793522265069694
v 0.18215180845611428 -0.34884770268986814 -0.17793522265069694
v 0.056217996658711702 -0.10490036171731855 -0.17793522265069694
v 0.066892781815378638 -0.10880590963101515 -0.17793522265069694
v 0.11416763229831532 -0.16311636613605815 -0.17793522265069694
v 0.30296953814072602 -0.24154678835438953 0.18265093666237428
v 0.30296953814072602 -0.24154678835438953 -0.17793522265069694
v 0.45000090737777038 -0.029700820642639056 -0.17793522265069694
v 0.35612808491062731 0.020631585714998645 -0.17793522265069694
v 0.31847366937698918 0.15922083555602637 -0.17793522265069694
v 0.25979481432403501 0.18873033974111489 -0.17793522265069694
v 0.25079932390145204 0.17576944317305612 -0.17793522265069694
v 0.24888864801207572 0.13109178158370985 -0.17793522265069694
v 0.20559846283091249 0.11267832666689136 -0.17793522265069694
v 0.14044257655465317 0.12878506672853171 -0.17793522265069694
v 0.13136808128984911 0.15316071774573051 -0.17793522265069694
v 0.11606716752946429 0.1412184380758271 -0.17793522265069694
v 0.077831387766424343 0.16775592243391058 -0.17793522265069694
v 0.075276284069370272 0.19524139522521 -0.17793522265069694
v 0.010121358347123178 0.21365130029653537 -0.17793522265069694
v 0.010106320995863513 0.24594340779134166 -0.17793522265069694
v -0.055046524377946125 0.26364558487253698 -0.17793522265069694
v -0.061700587331266273 0.28050048060221311 -0.17793522265069694
v -0.11708137099626365 0.31893742857634888 -0.17793522265069694
v -0.14191112731892377 0.34449454633869203 -0.17793522265069694
v -0.1888873025598308 0.35259134921517687 -0.17793522265069694
v -0.20904525070652971 0.39222117868144607 -0.17793522265069694
v -0.25345883085929438 0.42304635589367157 -0.17793522265069694
v -0.18235925034901854 0.23861044797396416 0.1845660641455858
v 0.073687071793477527 0.13121489542167766 -0.17793522265069694
v 0.073930105266982363 0.1003491745780011 -0.17793522265069694
v 0.083378928830988297 0.10220303267754932 -0.17793522265069694
v -0.1836059277471222 -0.017145828439859699 0.18272519675735671
v -0.12583714689684111 0.056065834248660122 0.1834335634129835
v -0.13601943290822069 0.041394977055906147 0.18329601874645099
v -0.091263406799944977 0.032069982944679401 0.18337046193567344
v -0.10144569276527468 0.017399125705875575 0.18323291726914095
v -0.19551437311190464 0.029936105644393765 0.18302572730216213
v -0.25310679529691221 0.029965190643340009 0.18284395773238737
v 0.2712239441116594 -0.084899408178016278 0.18367572262991214
v 0.28756863991303439 -0.061349618005899262 0.18389651056770284
v -0.12700660236512082 0.22289416660224237 -0.17793522265069694
v -0.19334938669111337 0.25137960375019419 -0.17793522265069694
v 0.013168528781287103 -0.10368493481278819 -0.17793522265069694
v -0.26420841719678889 0.13192591141780169 -0.17793522265069694
v -0.4115132263990926 0.034080439346536338 -0.17793522265069694
l 1 2
l 2 3
l 3 4
l 4 5
l 5 6
l 6 7
l 1 7
l 8 9
l 9 10
l 10 11
l 11 12
l 12 13
l 8 13
l 14 654
l 15 654
l 17 18
l 18 19
l 16 20
l 15 657
l 657 659
l 659 661
l 661 663
l 21 663
l 21 22
l 22 23
l 23 24
l 24 25
l 25 26
l 26 27
l 27 28
l 29 30
l 30 31
l 32 33
l 33 34
l 34 35
l 35 36
l 36 37
l 37 38
l 38 39
l 40 41
l 41 42
l 43 44
l 44 45
l 45 46
l 46 47
l 14 47
l 17 48
l 19 20
l 28 649
l 649 650
l 29 650
l 31 32
l 39 40
l 42 43
l 16 49
l 49 50
l 48 50
l 51 671
l 52 671
l 52 53
l 53 54
l 54 55
l 55 56
l 56 57
l 57 58
l 59 60
l 60 61
l 61 62
l 62 63
l 63 64
l 64 65
l 65 66
l 66 67
l 67 68
l 68 69
l 69 70
l 70 71
l 74 75
l 75 76
l 77 78
l 78 79
l 79 80
l 80 81
l 81 82
l 82 83
l 83 84
l 84 85
l 85 86
l 86 87
l 88 89
l 89 90
l 90 91
l 91 92
l 51 92
l 71 72
l 72 73
l 74 93
l 76 94
l 94 95
l 77 95
l 58 59
l 73 93
l 87 88
l 96 97
l 97 98
l 98 99
l 99 100
l 100 101
l 96 101
l 102 103
l 82 103
l 82 104
l 102 104
l 105 106
l 106 107
l 107 108
l 108 109
l 109 110
l 110 111
l 111 112
l 113 114
l 114 115
l 115 116
l 116 117
l 117 672
l 105 672
l 112 113
l 118 119
l 119 120
l 120 121
l 121 122
l 122 123
l 123 124
l 124 125
l 125 126
l 126 127
l 127 128
l 128 129
l 118 129
l 130 131
l 131 132
l 133 134
l 134 135
l 135 136
l 136 137
l 138 139
l 139 140
l 140 141
l 142 143
l 143 144
l 144 145
l 145 146
l 147 148
l 148 149
l 150 678
l 151 678
l 151 152
l 152 153
l 153 154
l 155 156
l 156 157
l 158 159
l 159 160
l 160 161
l 161 162
l 162 163
l 163 164
l 164 165
l 165 166
l 167 168
l 168 169
l 169 170
l 170 171
l 171 172
l 172 173
l 130 174
l 132 133
l 137 138
l 142 175
l 154 155
l 157 683
l 158 683
l 166 176
l 173 174
l 149 677
l 150 677
l 141 175
l 146 147
l 167 176
l 130 177
l 130 171
l 171 177
l 178 179
l 179 180
l 180 181
l 181 182
l 182 183
l 183 184
l 184 185
l 178 185
l 178 186
l 186 187
l 187 188
l 178 188
l 189 190
l 190 191
l 189 191
l 192 193
l 184 193
l 184 194
l 194 195
l 195 196
l 196 197
l 191 197
l 191 198
l 192 198
l 199 200
l 200 201
l 201 202
l 202 203
l 203 204
l 199 204
l 205 206
l 206 207
l 207 208
l 208 209
l 209 210
l 210 211
l 212 213
l 213 214
l 214 215
l 216 217
l 217 218
l 218 219
l 205 219
l 211 212
l 215 216
l 220 221
l 221 222
l 223 224
l 224 225
l 225 226
l 227 228
l 229 230
l 230 231
l 227 231
l 226 232
l 232 233
l 233 693
l 693 694
l 694 695
l 234 695
l 220 235
l 222 223
l 228 236
l 235 236
l 229 235
l 234 235
l 237 238
l 238 239
l 240 241
l 241 242
l 242 243
l 245 246
l 246 247
l 247 248
l 248 249
l 249 250
l 250 251
l 252 253
l 253 254
l 255 256
l 256 257
l 257 258
l 258 259
l 259 260
l 260 261
l 261 262
l 262 263
l 263 264
l 264 265
l 265 266
l 266 267
l 267 268
l 268 269
l 269 270
l 270 271
l 271 272
l 272 273
l 273 274
l 274 275
l 275 276
l 276 277
l 277 729
l 278 729
l 278 279
l 279 280
l 280 281
l 281 282
l 282 283
l 283 284
l 284 285
l 285 286
l 287 288
l 288 289
l 289 290
l 290 291
l 293 294
l 295 296
l 296 297
l 297 298
l 298 299
l 299 300
l 300 301
l 301 302
l 303 740
l 740 741
l 304 741
l 305 306
l 306 307
l 307 308
l 308 309
l 309 310
l 311 312
l 312 313
l 313 314
l 314 315
l 316 317
l 303 317
l 318 319
l 319 320
l 320 321
l 321 322
l 322 323
l 323 324
l 324 325
l 294 325
l 294 326
l 293 326
l 292 327
l 327 328
l 328 329
l 329 330
l 330 331
l 331 332
l 332 333
l 333 334
l 334 335
l 335 336
l 337 338
l 338 339
l 339 340
l 340 341
l 341 342
l 342 343
l 343 344
l 344 345
l 346 347
l 347 348
l 349 350
l 350 351
l 352 353
l 353 354
l 354 355
l 356 357
l 357 358
l 358 359
l 359 360
l 361 362
l 362 363
l 363 364
l 364 365
l 365 366
l 366 367
l 367 368
l 368 369
l 369 370
l 370 371
l 371 372
l 372 373
l 373 374
l 374 375
l 375 376
l 376 377
l 377 378
l 378 379
l 379 380
l 380 381
l 381 698
l 382 698
l 383 735
l 734 735
l 384 734
l 383 385
l 386 387
l 387 388
l 388 389
l 389 390
l 390 391
l 391 392
l 392 393
l 394 739
l 395 739
l 394 396
l 393 397
l 398 399
l 399 400
l 401 402
l 402 403
l 404 405
l 405 406
l 407 408
l 408 409
l 410 411
l 411 412
l 413 414
l 414 415
l 415 416
l 416 417
l 417 418
l 418 419
l 419 420
l 420 421
l 421 422
l 422 423
l 424 425
l 425 426
l 426 427
l 427 428
l 428 675
l 429 675
l 429 430
l 430 431
l 431 432
l 432 433
l 434 435
l 435 436
l 436 437
l 437 438
l 438 439
l 439 440
l 440 441
l 442 443
l 443 444
l 444 445
l 445 446
l 446 447
l 447 684
l 448 684
l 448 449
l 449 450
l 451 452
l 452 453
l 454 455
l 237 455
l 240 456
l 243 244
l 244 245
l 286 287
l 304 457
l 310 458
l 316 459
l 337 460
l 351 352
l 355 670
l 356 670
l 360 361
l 384 461
l 461 736
l 736 737
l 385 737
l 382 386
l 409 410
l 413 462
l 451 463
l 305 457
l 311 458
l 336 666
l 460 666
l 395 464
l 462 465
l 463 466
l 255 467
l 291 468
l 292 468
l 464 738
l 396 738
l 406 407
l 412 465
l 423 424
l 441 442
l 467 469
l 318 470
l 348 733
l 349 733
l 450 466
l 254 469
l 403 404
l 294 295
l 346 471
l 397 398
l 400 401
l 251 252
l 433 472
l 239 456
l 345 471
l 434 472
l 453 706
l 454 706
l 315 459
l 302 470
l 473 474
l 474 475
l 473 475
l 475 476
l 476 477
l 475 477
l 478 479
l 479 480
l 480 481
l 481 482
l 482 483
l 483 484
l 484 485
l 485 486
l 486 487
l 487 488
l 488 489
l 478 489
l 490 491
l 491 492
l 492 493
l 493 494
l 494 495
l 495 496
l 496 497
l 490 497
l 499 500
l 500 501
l 501 502
l 502 503
l 503 504
l 504 505
l 505 506
l 506 507
l 507 508
l 509 510
l 510 511
l 511 512
l 512 513
l 511 513
l 498 513
l 498 511
l 498 499
l 508 509
l 514 515
l 515 516
l 516 517
l 517 518
l 518 519
l 519 520
l 520 521
l 521 522
l 514 522
l 523 524
l 524 525
l 525 526
l 526 527
l 523 527
l 528 529
l 529 530
l 530 531
l 531 532
l 532 533
l 533 534
l 534 535
l 535 536
l 536 537
l 528 537
l 538 539
l 539 540
l 540 541
l 541 542
l 542 543
l 543 544
l 544 545
l 545 546
l 538 546
l 547 548
l 548 549
l 549 550
l 550 551
l 546 552
l 546 553
l 553 554
l 554 555
l 555 556
l 556 557
l 557 558
l 558 559
l 559 560
l 560 561
l 547 561
l 551 562
l 539 562
l 539 552
l 563 564
l 564 565
l 565 566
l 566 567
l 567 568
l 568 569
l 563 569
l 570 571
l 571 572
l 572 573
l 573 574
l 570 574
l 575 576
l 576 577
l 577 578
l 578 579
l 575 579
l 580 581
l 581 582
l 582 583
l 583 584
l 584 585
l 580 585
l 586 587
l 587 588
l 588 589
l 589 590
l 590 591
l 586 591
l 592 593
l 593 594
l 594 595
l 595 596
l 596 597
l 597 598
l 598 599
l 599 600
l 600 601
l 592 601
l 602 603
l 603 604
l 604 605
l 605 606
l 606 607
l 607 608
l 608 609
l 609 610
l 610 611
l 611 612
l 612 613
l 613 614
l 614 615
l 602 615
l 616 617
l 617 618
l 618 619
l 619 620
l 620 621
l 621 622
l 622 623
l 623 624
l 624 625
l 616 625
l 626 627
l 627 628
l 628 629
l 629 630
l 630 631
l 626 631
l 632 633
l 633 634
l 634 635
l 635 636
l 636 637
l 637 638
l 638 639
l 632 639
l 640 641
l 641 642
l 642 643
l 643 644
l 644 645
l 645 646
l 646 647
l 640 647
l 4 231
l 3 227
l 5 230
l 6 229
l 7 235
l 1 236
l 2 228
l 10 347
l 9 343
l 11 346
l 12 471
l 13 345
l 8 344
l 25 221
l 26 483
l 27 482
l 28 481
l 29 613
l 30 375
l 31 374
l 32 373
l 33 372
l 34 501
l 35 500
l 36 499
l 37 498
l 38 272
l 39 271
l 40 270
l 41 269
l 42 268
l 43 267
l 44 266
l 45 265
l 46 264
l 651 652
l 652 653
l 653 655
l 655 656
l 656 658
l 658 660
l 660 662
l 662 664
l 664 665
l 22 224
l 21 225
l 23 223
l 20 492
l 16 491
l 50 497
l 48 496
l 18 494
l 19 493
l 53 350
l 52 351
l 55 600
l 56 341
l 57 340
l 58 339
l 59 338
l 60 337
l 63 336
l 64 335
l 65 334
l 66 333
l 66 571
l 67 570
l 68 574
l 69 573
l 70 330
l 69 331
l 71 329
l 72 328
l 73 327
l 93 292
l 74 468
l 75 291
l 76 290
l 94 289
l 95 288
l 95 558
l 77 557
l 78 475
l 77 476
l 79 474
l 80 473
l 80 554
l 81 553
l 82 546
l 83 545
l 84 544
l 85 543
l 86 542
l 87 358
l 86 359
l 88 357
l 89 356
l 91 355
l 51 353
l 99 377
l 98 378
l 101 381
l 97 379
l 104 552
l 102 539
l 103 538
l 105 281
l 282 672
l 106 280
l 107 505
l 109 369
l 108 370
l 110 368
l 111 367
l 112 366
l 113 365
l 114 364
l 115 363
l 115 562
l 116 551
l 117 550
l 549 672
l 121 402
l 120 403
l 122 401
l 123 400
l 124 399
l 125 398
l 673 674
l 127 408
l 126 409
l 128 407
l 129 406
l 118 405
l 119 404
l 133 590
l 132 435
l 134 432
l 135 431
l 136 430
l 137 429
l 139 428
l 140 427
l 140 514
l 141 522
l 175 521
l 143 422
l 145 420
l 146 419
l 147 418
l 148 417
l 149 416
l 150 414
l 151 462
l 152 465
l 153 412
l 154 411
l 680 681
l 681 682
l 157 452
l 156 453
l 158 463
l 159 466
l 160 450
l 161 449
l 162 448
l 164 447
l 165 446
l 166 445
l 176 444
l 167 443
l 168 442
l 169 441
l 171 439
l 171 523
l 172 527
l 173 526
l 174 525
l 130 524
l 131 436
l 130 437
l 177 438
l 181 302
l 180 470
l 182 301
l 183 300
l 184 299
l 184 569
l 185 568
l 178 567
l 179 318
l 178 319
l 188 320
l 187 321
l 186 566
l 189 293
l 191 294
l 190 326
l 194 298
l 195 297
l 196 296
l 197 295
l 198 325
l 192 324
l 193 323
l 201 458
l 200 311
l 202 310
l 203 309
l 199 312
l 204 313
l 208 243
l 207 244
l 209 242
l 210 241
l 211 584
l 212 238
l 213 237
l 214 455
l 214 575
l 215 579
l 216 578
l 217 577
l 686 687
l 218 687
l 687 688
l 688 689
l 206 245
l 205 246
l 665 690
l 690 691
l 232 691
l 691 692
l 233 617
l 234 485
l 7 484
l 360 541
l 361 540
l 102 362
l 371 503
l 376 611
l 386 605
l 387 479
l 388 478
l 389 489
l 390 488
l 391 487
l 392 620
l 397 618
l 673 699
l 674 701
l 410 701
l 680 701
l 423 518
l 424 517
l 425 516
l 426 515
l 433 588
l 472 587
l 434 586
l 682 707
l 707 708
l 454 576
l 239 582
l 456 581
l 240 580
l 689 710
l 710 711
l 248 711
l 711 712
l 249 712
l 712 713
l 250 713
l 713 714
l 251 714
l 714 715
l 252 715
l 715 716
l 253 716
l 716 717
l 254 717
l 717 718
l 469 718
l 718 719
l 467 719
l 719 720
l 255 720
l 720 721
l 256 721
l 721 722
l 257 722
l 722 723
l 258 723
l 723 724
l 259 724
l 724 725
l 260 725
l 725 726
l 261 726
l 726 727
l 262 727
l 727 728
l 263 728
l 651 728
l 274 513
l 275 512
l 276 511
l 277 510
l 278 508
l 279 507
l 283 548
l 284 547
l 285 561
l 286 560
l 287 559
l 332 572
l 342 598
l 348 595
l 349 593
l 384 646
l 461 645
l 385 642
l 383 641
l 464 630
l 395 631
l 396 628
l 394 627
l 314 534
l 315 533
l 459 532
l 316 531
l 317 530
l 303 633
l 304 638
l 457 637
l 305 636
l 306 529
l 307 528
l 308 537
l 322 564
l 78 555
l 477 556
l 480 603
l 486 622
l 686 708
l 692 699
