# XYZ-only planar convex-roof baseline. Provisional base; no GT.
v 5.04348106 -8.92781425 2.27537967
v 8.66014001 4.55742673 2.26106170
v 9.24486003 6.97276307 2.30185987
v 9.19161925 7.03219465 2.34936898
v 8.81707651 7.18928592 2.63573150
v 8.09476620 7.37593821 3.16665989
v 1.99029406 8.14284331 7.50507690
v -2.09970076 -7.23583806 7.49769941
v 1.64288064 -8.23413634 4.74102820
v 4.70747598 -8.99993694 2.49321181
v -3.75780894 8.86497774 3.41042582
v -5.05988665 8.99993694 2.48812671
v -5.25443219 8.98059073 2.35754947
v -5.41136869 8.81545143 2.27955888
v -5.92381126 7.06485106 2.24641049
v -8.67592652 -3.18895282 2.22419294
v -9.01719377 -4.53266358 2.23464428
v -9.01688423 -5.30775036 2.37659097
v -8.80670694 -5.40510052 2.53928359
v -7.57226361 -5.77608355 3.45811684
v 5.04348106 -8.92781425 -7.51516906
v 8.66014001 4.55742673 -7.51516906
v 9.24486003 6.97276307 -7.51516906
v 9.19161925 7.03219465 -7.51516906
v 8.81707651 7.18928592 -7.51516906
v 8.09476620 7.37593821 -7.51516906
v 1.99029406 8.14284331 -7.51516906
v -3.75780894 8.86497774 -7.51516906
v -5.05988665 8.99993694 -7.51516906
v -5.25443219 8.98059073 -7.51516906
v -5.41136869 8.81545143 -7.51516906
v -5.92381126 7.06485106 -7.51516906
v -8.67592652 -3.18895282 -7.51516906
v -9.01719377 -4.53266358 -7.51516906
v -9.01688423 -5.30775036 -7.51516906
v -8.80670694 -5.40510052 -7.51516906
v -7.57226361 -5.77608355 -7.51516906
v -2.09970076 -7.23583806 -7.51516906
v 1.64288064 -8.23413634 -7.51516906
v 4.70747598 -8.99993694 -7.51516906
g roof
f 1 2 3 4 5 6 7 8 9 10
g roof
f 7 11 12 13 14 15 16 17 18 19 20 8
g wall
f 2 1 21 22
g wall
f 3 2 22 23
g wall
f 4 3 23 24
g wall
f 5 4 24 25
g wall
f 6 5 25 26
g wall
f 7 6 26 27
g wall
f 9 8 38 39
g wall
f 10 9 39 40
g wall
f 1 10 40 21
g wall
f 11 7 27 28
g wall
f 12 11 28 29
g wall
f 13 12 29 30
g wall
f 14 13 30 31
g wall
f 15 14 31 32
g wall
f 16 15 32 33
g wall
f 17 16 33 34
g wall
f 18 17 34 35
g wall
f 19 18 35 36
g wall
f 20 19 36 37
g wall
f 8 20 37 38
g ground_assumed
f 40 39 38 37 36 35 34 33 32 31 30 29 28 27 26 25 24 23 22 21
