v 0.27368642660472303 -0.47884809695145292 0.12434077368327651
v 0.47045301447908877 0.25482485672812177 0.12356179558743267
v 0.50226507217870431 0.38623273807970981 0.12578144549454331
v 0.49936847430724346 0.38946615028977805 0.12836620828165871
v 0.47899124272921045 0.39801279889836483 0.14394593994408292
v 0.43969349941139629 0.40816773325352063 0.17283143043411947
v 0.10757588191751347 0.44989168395958579 0.40886571612030731
v -0.11494283944415404 -0.3867950761182416 0.40846433917145863
v 0.088674637929560443 -0.44110811722941634 0.25848592113920288
v 0.25540586047612707 -0.48277197692349738 0.13619206724170593
v -0.20515325005120746 0.48917985841620693 0.18609366802666921
v -0.27599360068586382 0.49652239794049735 0.1359154092018319
v -0.2865779722346315 0.49546985530857435 0.12881127294678021
v -0.29511620048475312 0.48648534860385417 0.12456814621219867
v -0.32299595839791517 0.39124284266159437 0.12276468736136377
v -0.47272650712636893 -0.16662175836763266 0.12155592768430654
v -0.49129336489872483 -0.23972718107697352 0.12212453936125629
v -0.49127652418179446 -0.28189626119085298 0.129847237640938
v -0.47984169751615569 -0.28719265741649758 0.138698631192918
v -0.41268103754616609 -0.30737622074983129 0.18868832774089198
v 0.27368642660472303 -0.47884809695145292 -0.40832014172313902
v 0.47045301447908877 0.25482485672812177 -0.40832014172313902
v 0.50226507217870431 0.38623273807970981 -0.40832014172313902
v 0.49936847430724346 0.38946615028977805 -0.40832014172313902
v 0.47899124272921045 0.39801279889836483 -0.40832014172313902
v 0.43969349941139629 0.40816773325352063 -0.40832014172313902
v 0.10757588191751347 0.44989168395958579 -0.40832014172313902
v -0.20515325005120746 0.48917985841620693 -0.40832014172313902
v -0.27599360068586382 0.49652239794049735 -0.40832014172313902
v -0.2865779722346315 0.49546985530857435 -0.40832014172313902
v -0.29511620048475312 0.48648534860385417 -0.40832014172313902
v -0.32299595839791517 0.39124284266159437 -0.40832014172313902
v -0.47272650712636893 -0.16662175836763266 -0.40832014172313902
v -0.49129336489872483 -0.23972718107697352 -0.40832014172313902
v -0.49127652418179446 -0.28189626119085298 -0.40832014172313902
v -0.47984169751615569 -0.28719265741649758 -0.40832014172313902
v -0.41268103754616609 -0.30737622074983129 -0.40832014172313902
v -0.11494283944415404 -0.3867950761182416 -0.40832014172313902
v 0.088674637929560443 -0.44110811722941634 -0.40832014172313902
v 0.25540586047612707 -0.48277197692349738 -0.40832014172313902
l 1 2
l 2 3
l 3 4
l 4 5
l 5 6
l 6 7
l 7 8
l 8 9
l 9 10
l 1 10
l 7 11
l 11 12
l 12 13
l 13 14
l 14 15
l 15 16
l 16 17
l 17 18
l 18 19
l 19 20
l 8 20
l 1 21
l 21 22
l 22 23
l 3 23
l 23 24
l 4 24
l 24 25
l 25 26
l 26 27
l 38 39
l 39 40
l 10 40
l 21 40
l 27 28
l 28 29
l 12 29
l 29 30
l 13 30
l 30 31
l 14 31
l 31 32
l 32 33
l 33 34
l 17 34
l 34 35
l 18 35
l 35 36
l 36 37
l 37 38
