v 0.32932826612590782 -0.12659923237904949 0.21325060375756144
v 0.39165530074479959 0.085678859341178887 0.17255575490285191
v 0.44942343463338341 0.29315561061376527 0.13293547472425071
v 0.44941103520073133 0.317482950994323 0.12862197848387746
v 0.41774333544076303 0.3298698078914386 0.12797521962129682
v 0.39153130831421756 0.33956602582182999 0.12753859654130384
v 0.11554866709942309 0.42156230605170897 0.12650480190168073
v -0.0088654679027161312 0.45671419709250166 0.12636016128743591
v -0.12461252319106064 0.48835709846115044 0.12641360824558842
v -0.18247985111890691 0.50357098571423997 0.12654777096005476
v -0.18717916926220102 0.50231866102779876 0.1269998454584354
v -0.20040917525605584 0.49660260362657549 0.12866100446579004
v -0.21367637954786656 0.46986980791239791 0.13405099992084929
v -0.21868567876761574 0.45561066322796201 0.13682481746697839
v -0.24023558604882311 0.38549287026623413 0.15031388581207794
v -0.33226377230501769 0.061782954281043141 0.21222318657842504
v -0.026336019667523976 -0.49986360798568563 0.12732329148453791
v 0.30174829529125458 -0.22053316782728519 0.19489501878799748
v -0.34752634818658101 0.008096714095474012 0.20175878872039615
v -0.41363918175383685 -0.22481091142220971 0.15636630152320741
v -0.45052696824473137 -0.35810291364932062 0.13043843469738492
v -0.45053936767738334 -0.37252324858831004 0.12784338369639042
v -0.45053936767738334 -0.38502169848335571 0.12559475796058103
v -0.44554246741630166 -0.39088654670648054 0.12480334189430058
v -0.21412275248755563 -0.45916924970485967 0.12473307796862163
v -0.084203347595370237 -0.49300681936993568 0.12550259832422328
v -0.040545567095336375 -0.50187228763623992 0.1262119065419231
v 0.32932826612590782 -0.12659923237904949 -0.21188672061516606
v 0.39165530074479959 0.085678859341178887 -0.21188672061516606
v 0.44942343463338341 0.29315561061376527 -0.21188672061516606
v 0.44941103520073133 0.317482950994323 -0.21188672061516606
v 0.41774333544076303 0.3298698078914386 -0.21188672061516606
v 0.39153130831421756 0.33956602582182999 -0.21188672061516606
v 0.11554866709942309 0.42156230605170897 -0.21188672061516606
v -0.0088654679027161312 0.45671419709250166 -0.21188672061516606
v -0.12461252319106064 0.48835709846115044 -0.21188672061516606
v -0.18247985111890691 0.50357098571423997 -0.21188672061516606
v -0.18717916926220102 0.50231866102779876 -0.21188672061516606
v -0.20040917525605584 0.49660260362657549 -0.21188672061516606
v -0.21367637954786656 0.46986980791239791 -0.21188672061516606
v -0.21868567876761574 0.45561066322796201 -0.21188672061516606
v -0.24023558604882311 0.38549287026623413 -0.21188672061516606
v -0.33226377230501769 0.061782954281043141 -0.21188672061516606
v -0.34752634818658101 0.008096714095474012 -0.21188672061516606
v -0.41363918175383685 -0.22481091142220971 -0.21188672061516606
v -0.45052696824473137 -0.35810291364932062 -0.21188672061516606
v -0.45053936767738334 -0.37252324858831004 -0.21188672061516606
v -0.45053936767738334 -0.38502169848335571 -0.21188672061516606
v -0.44554246741630166 -0.39088654670648054 -0.21188672061516606
v -0.21412275248755563 -0.45916924970485967 -0.21188672061516606
v -0.084203347595370237 -0.49300681936993568 -0.21188672061516606
v -0.040545567095336375 -0.50187228763623992 -0.21188672061516606
v -0.026336019667523976 -0.49986360798568563 -0.21188672061516606
v 0.30174829529125458 -0.22053316782728519 -0.21188672061516606
l 1 2
l 2 3
l 3 4
l 4 5
l 5 6
l 6 7
l 7 8
l 8 9
l 9 10
l 10 11
l 11 12
l 12 13
l 13 14
l 14 15
l 15 16
l 1 16
l 17 18
l 1 18
l 16 19
l 19 20
l 20 21
l 21 22
l 22 23
l 23 24
l 24 25
l 25 26
l 26 27
l 17 27
l 28 29
l 29 30
l 3 30
l 30 31
l 4 31
l 31 32
l 32 33
l 33 34
l 34 35
l 35 36
l 36 37
l 10 37
l 37 38
l 38 39
l 12 39
l 39 40
l 40 41
l 41 42
l 42 43
l 17 53
l 53 54
l 18 54
l 28 54
l 43 44
l 44 45
l 45 46
l 21 46
l 46 47
l 47 48
l 23 48
l 48 49
l 24 49
l 49 50
l 50 51
l 51 52
l 27 52
l 52 53
