# XYZ-only planar convex-roof baseline. Provisional base; no GT.
v -1.78495419 10.06621563 1.97658683
v -7.46868970 -8.97478836 1.97165393
v -7.86232336 -10.29974287 1.97131076
v -8.10260971 -11.13821045 1.97109398
v -8.10277869 -11.14995441 1.97109108
v -8.10286318 -11.23723141 1.97106960
v -8.07185576 -11.29544425 1.97105663
v -7.99133787 -11.32755002 1.97105224
v -7.20254974 -11.56335847 1.97102859
v -6.02029693 -11.91593054 1.97099334
v -5.60739981 -12.03556678 1.97098190
v -5.31228017 -12.10324237 1.97097810
v 1.09586294 -12.44331009 1.97117364
v 1.20721927 -12.41002147 1.97118668
v 1.27624668 -12.35493472 1.97120324
v 1.39056013 -12.02441425 1.97128955
v 1.47107802 -11.76680767 1.97135645
v 6.91816019 5.79361329 1.97591471
v 7.39755006 7.39873291 1.97633056
v 7.98719791 9.37594153 1.97684276
v 8.07194025 9.67013179 1.97691884
v 8.07202474 9.70857422 1.97692831
v 7.98745138 9.75284639 1.97693552
v 4.55475293 10.77744296 1.97703806
v -0.86191324 12.39396858 1.97719981
v -0.96456723 12.42446907 1.97720285
v -1.07955658 12.38475930 1.97718806
v -1.14114897 12.22237168 1.97714542
v -1.16936826 12.12808210 1.97712099
v -1.78495419 10.06621563 -2.03247651
v -7.46868970 -8.97478836 -2.03247651
v -7.86232336 -10.29974287 -2.03247651
v -8.10260971 -11.13821045 -2.03247651
v -8.10277869 -11.14995441 -2.03247651
v -8.10286318 -11.23723141 -2.03247651
v -8.07185576 -11.29544425 -2.03247651
v -7.99133787 -11.32755002 -2.03247651
v -7.20254974 -11.56335847 -2.03247651
v -6.02029693 -11.91593054 -2.03247651
v -5.60739981 -12.03556678 -2.03247651
v -5.31228017 -12.10324237 -2.03247651
v 1.09586294 -12.44331009 -2.03247651
v 1.20721927 -12.41002147 -2.03247651
v 1.27624668 -12.35493472 -2.03247651
v 1.39056013 -12.02441425 -2.03247651
v 1.47107802 -11.76680767 -2.03247651
v 6.91816019 5.79361329 -2.03247651
v 7.39755006 7.39873291 -2.03247651
v 7.98719791 9.37594153 -2.03247651
v 8.07194025 9.67013179 -2.03247651
v 8.07202474 9.70857422 -2.03247651
v 7.98745138 9.75284639 -2.03247651
v 4.55475293 10.77744296 -2.03247651
v -0.86191324 12.39396858 -2.03247651
v -0.96456723 12.42446907 -2.03247651
v -1.07955658 12.38475930 -2.03247651
v -1.14114897 12.22237168 -2.03247651
v -1.16936826 12.12808210 -2.03247651
g roof
f 1 2 3 4 5 6 7 8 9 10 11 12 13 14 15 16 17 18 19 20 21 22 23 24 25 26 27 28 29
g wall
f 2 1 30 31
g wall
f 3 2 31 32
g wall
f 4 3 32 33
g wall
f 5 4 33 34
g wall
f 6 5 34 35
g wall
f 7 6 35 36
g wall
f 8 7 36 37
g wall
f 9 8 37 38
g wall
f 10 9 38 39
g wall
f 11 10 39 40
g wall
f 12 11 40 41
g wall
f 13 12 41 42
g wall
f 14 13 42 43
g wall
f 15 14 43 44
g wall
f 16 15 44 45
g wall
f 17 16 45 46
g wall
f 18 17 46 47
g wall
f 19 18 47 48
g wall
f 20 19 48 49
g wall
f 21 20 49 50
g wall
f 22 21 50 51
g wall
f 23 22 51 52
g wall
f 24 23 52 53
g wall
f 25 24 53 54
g wall
f 26 25 54 55
g wall
f 27 26 55 56
g wall
f 28 27 56 57
g wall
f 29 28 57 58
g wall
f 1 29 58 30
g ground_assumed
f 58 57 56 55 54 53 52 51 50 49 48 47 46 45 44 43 42 41 40 39 38 37 36 35 34 33 32 31 30
