# pointcloud_to_mesh 0.5.1; candidate requires geometry validation; coordinates preserved
v -2.930601504 1.179377765 2.717463676
v -5.608433488 0.619895511 2.714287755
v -5.566310383 0.483475738 2.713723884
v -5.566157403 0.155218469 2.712336429
v -5.479133439 0.201144721 2.712556911
v -7.323435366 0.255740957 2.712229080
v -7.144032502 1.441658468 2.717296140
v -11.103725766 0.068711831 2.710293559
v -11.048106346 -0.111417073 2.709549023
v -11.614281694 -1.364933147 2.704079087
v -11.426948410 -1.971630216 2.701571395
v -11.950009399 -0.124781173 2.709219366
v -6.764490300 1.814005917 2.718984961
v -6.439396009 1.776973995 2.718926896
v -6.439776899 1.195896457 2.716470640
v -1.167257635 1.947929499 2.721246328
v -1.269113959 1.997830823 2.721426404
v -1.715605218 3.443836213 2.727403251
v -3.381784473 2.929360625 2.724723976
v -3.640379411 3.766845495 2.728185595
v -4.315574684 3.460039203 2.726684261
v -3.859817935 3.966386304 2.728962565
v -4.113660922 4.511561751 2.731190068
v -3.788114176 4.793037392 2.732478432
v -13.324740236 1.848359444 2.717143202
v -12.596337448 -0.510643860 2.707392614
v -9.504808190 -6.918159951 2.681245222
v -7.960071875 -7.191271223 2.680558684
v -7.561302194 -7.202522505 2.680631906
v -7.963087598 -6.974407843 2.681474425
v -8.586515304 -5.893605795 2.685854014
v -8.326557795 -5.447819801 2.687817030
v -8.347218539 -5.380907972 2.688093600
v -8.274432676 -5.358433469 2.688210643
v -8.249646276 -5.315928716 2.688397812
v -8.221120097 -5.341971843 2.688296371
v -7.493526412 -5.117308627 2.689466367
v -7.080135772 -4.777520665 2.691027815
v -6.853799236 -4.919776450 2.690495071
v -6.835923822 -4.914256957 2.690523815
v -7.012677076 -4.341824344 2.692889880
v -4.503943654 -3.029975910 2.699194741
v -0.585011315 -1.819905015 2.705496522
v -0.534077713 -1.728614444 2.705897822
v -0.853634598 -1.616712713 2.706274029
v -0.266565708 -1.435440132 2.707218057
v -0.185904149 -1.696670439 2.706138300
v 7.607243710 0.709663888 2.718669956
v 8.525624717 2.216278067 2.725316381
v 9.275859822 -0.213431319 2.715273540
v 10.888685372 -1.505615530 2.710300134
v 11.639366055 -0.588309734 2.714404835
v 9.684724656 5.741986628 2.740570170
v 3.616518538 3.868272316 2.730812281
v 2.347632786 2.070173585 2.722827627
v -1.296489195 5.562390524 2.736485052
v -2.357558161 5.234758261 2.734778816
v -2.356549361 5.233185899 2.734772475
v -1.166181955 4.955312743 2.733958479
v -1.174645872 4.451593880 2.731826760
v -0.295713310 3.643851959 2.728678749
v 0.533662209 3.538242781 2.728483553
v 1.221286904 2.713188432 2.725204421
v 1.413354082 1.167868336 2.718730723
v 2.291952967 1.373641993 2.719866612
v 2.587939807 1.094648713 2.718776992
v 2.521067334 0.504866615 2.716263804
v -0.048506953 0.487906841 2.715413845
v -0.534885468 -0.117016651 2.712709596
v -2.178090379 -0.695728473 2.709765761
v -2.751799721 -1.196108748 2.707476953
v -3.167502211 -2.335407129 2.702535376
v -2.205751061 -0.606146663 2.710136034
v -1.156452530 0.282798338 2.714211303
v -1.172722768 0.293263958 2.714250612
v -0.927087473 0.895228975 2.716869439
v -4.695603088 -0.321354153 2.710585690
v -4.502888640 -0.945478645 2.708005965
v -4.645326844 -1.729470244 2.704648991
v -4.617703214 -1.818932058 2.704279213
v -6.182669425 -0.947140537 2.707490169
v -5.216671475 -0.648863888 2.709043527
v -5.313288061 -0.335961673 2.710336862
v -7.163788498 -1.069340805 2.706676482
v -6.914280524 -1.877396658 2.703336504
v -7.356575728 -2.013966649 2.702625278
v -7.181209120 -2.581908471 2.700277775
v -7.711881928 -0.863272947 2.707381499
v -7.606083702 -1.205910796 2.705965256
v -1.101967576 1.661753737 2.720056474
v -6.747834172 -0.369886876 2.709758969
v -5.604377862 1.853608823 2.719503732
v -5.616361053 2.008814868 2.720156139
v -4.991633954 2.454465923 2.722229066
v -3.736660544 1.924455079 2.720368884
v -3.809576323 1.695423101 2.719378710
v -5.134557549 -2.593602727 2.700848235
v -2.943578576 -0.833969837 2.708949582
v -5.800692395 -2.184210316 2.702376925
v -8.418947741 -2.964092023 2.698287448
v 1.709794647 2.332675981 2.723744003
v -11.581409330 -1.819153202 2.702169113
v -8.949620548 -1.245456499 2.705391171
v -2.053014034 3.930869057 2.729359683
v -2.981518205 4.400223353 2.731062358
v -3.172587816 3.725937757 2.728154368
v -2.293828296 3.524115740 2.727567450
v -7.080929571 -6.382914828 2.684241778
v -6.301028080 -5.965446166 2.686242582
v -6.259514364 -5.820852895 2.686866333
v -6.372240783 -5.855660069 2.686685065
v -6.403219798 -5.865225635 2.686635249
v -7.333381974 -6.152437069 2.685139516
v -4.991633954 2.454465923 2.825310951
v -5.616361053 2.008814868 2.823323357
v -5.604377862 1.853608823 2.822733737
v -2.930601504 1.179377765 2.821344084
v -3.809576323 1.695423101 2.822929485
v -3.736660544 1.924455079 2.823840058
v -5.313288072 -0.335961638 2.814470201
v -5.479133439 0.201144721 2.816455056
v -5.566157403 0.155218469 2.816240106
v -5.566310383 0.483475738 2.817498399
v -5.608433483 0.619895497 2.818002533
v -6.439776899 1.195896457 2.819839059
v -6.439396009 1.776973995 2.822066767
v -6.764490300 1.814005917 2.822063434
v -7.144032502 1.441658468 2.820466426
v -7.323435366 0.255740957 2.815840079
v -6.747834172 -0.369886876 2.813699011
v -11.614281694 -1.364933147 2.807709589
v -11.048106346 -0.111417073 2.812767933
v -11.103725766 0.068711831 2.813433592
v -11.950009399 -0.124781173 2.812313616
v -11.581409330 -1.819153202 2.805983046
v -11.426948410 -1.971630216 2.805467564
v -4.999680244 -0.581862279 2.813667711
v -4.645326844 -1.729470244 2.809426772
v -4.502888640 -0.945478645 2.812495833
v -4.695603088 -0.321354153 2.814802259
v -5.216671475 -0.648863888 2.813313884
v -2.751799721 -1.196108748 2.812317663
v -2.178090379 -0.695728473 2.814492258
v -2.205751061 -0.606146663 2.814823304
v -2.943578576 -0.833969837 2.813620197
v -3.167502211 -2.335407129 2.807764419
v -0.185904149 -1.696670439 2.811545550
v -0.266565708 -1.435440132 2.812510916
v -0.853634598 -1.616712713 2.811553638
v -0.534077713 -1.728614444 2.811267486
v -0.585011315 -1.819905015 2.810894763
v -6.318449599 -4.885582702 2.796580175
v -6.014101598 -4.653067501 2.797607535
v -5.922776292 -4.647987348 2.797667825
v -5.551062500 -3.353300717 2.802797084
v -4.503943654 -3.029975910 2.804504524
v -5.134557549 -2.593602727 2.805895504
v -7.012677076 -4.341824344 2.798354381
v -6.835923822 -4.914256957 2.796238980
v -6.355409114 -4.765885714 2.797022510
v -7.493526412 -5.117308627 2.795166688
v -6.853799236 -4.919776450 2.796209832
v -7.080135772 -4.777520665 2.796654008
v -8.586515304 -5.893605795 2.791702296
v -7.963087598 -6.974407843 2.787837712
v -7.561302194 -7.202522505 2.787142813
v -7.560613615 -7.202090106 2.787144778
v -7.055413637 -6.884828205 2.788586777
v -6.517283028 -6.718666574 2.789464257
v -6.301028080 -5.965446166 2.792448348
v -7.080929571 -6.382914828 2.790499438
v -7.333381974 -6.152437069 2.791270137
v -8.041477598 -6.371079758 2.790115512
v -8.326557795 -5.447819801 2.793527382
v -0.295713310 3.643851959 2.618973083
v -2.053014034 3.930869057 2.623523711
v -2.293828296 3.524115740 2.621704577
v -2.981518205 4.400223353 2.627667847
v -1.174645872 4.451593880 2.624886177
v -1.166181955 4.955312743 2.627630164
v -2.356549361 5.233185899 2.631169666
v -2.357558161 5.234758261 2.631179986
v -3.788114176 4.793037392 2.631186197
v -4.113660922 4.511561751 2.630196714
v -3.859817935 3.966386304 2.626781056
v -4.315574684 3.460039203 2.624780919
v -3.640379411 3.766845495 2.625316395
v -1.715605218 3.443836213 2.620284780
v -1.269113972 1.997830869 2.611609659
v -1.167257635 1.947929499 2.611163737
v -0.927087473 0.895228975 2.604992081
v -1.172722768 0.293263958 2.602112153
v -1.156452554 0.282798330 2.602027263
v -0.534885468 -0.117016651 2.598784232
v -0.048506953 0.487906841 2.601272259
v 2.521067334 0.504866615 2.597009242
v 2.587939807 1.094648713 2.600125492
v 2.291952967 1.373641993 2.602154993
v 1.413354082 1.167868336 2.602517571
v 1.221286904 2.713188432 2.611305239
v 0.533662209 3.538242781 2.616988834
v -3.172587816 3.725937757 2.624299397
v -3.381784473 2.929360625 2.620292014
v -7.163788498 -1.069340805 2.604806538
v -7.606083702 -1.205910796 2.604808458
v -7.356575728 -2.013966649 2.599960632
v -6.914280524 -1.877396658 2.599958712
v -8.221120097 -5.341971843 2.583202233
v -8.249646276 -5.315928716 2.583393201
v -8.274432647 -5.358433460 2.583202464
v -6.148766791 -5.435116984 2.579179167
v -5.922776260 -4.647987342 2.583106347
v -6.014101598 -4.653067501 2.583233341
v -6.318449589 -4.885582735 2.582476026
v -5.216671475 -0.648863888 2.917830775
v -6.182669425 -0.947140537 2.917830775
v -6.113077971 -1.172519233 2.917830775
v -5.800692395 -2.184210316 2.917830775
v -4.834694445 -1.885933667 2.917830775
v -4.824948471 -1.882924348 2.917830775
v -4.664188352 -1.833285537 2.917830775
v -4.617703214 -1.818932058 2.917830775
v -4.645326844 -1.729470244 2.917830775
v -4.999680244 -0.581862279 2.917830775
v -6.318449589 -4.885582735 2.940237245
v -6.355409114 -4.765885714 2.940237245
v -6.835923822 -4.914256957 2.940237245
v -6.853799236 -4.919776450 2.940237245
v -7.493526412 -5.117308627 2.940237245
v -8.221120097 -5.341971843 2.940237245
v -8.274432647 -5.358433460 2.940237245
v -8.347218539 -5.380907972 2.940237245
v -8.326557795 -5.447819801 2.940237245
v -8.041477598 -6.371079758 2.940237245
v -7.333381974 -6.152437069 2.940237245
v -6.403219798 -5.865225635 2.940237245
v -6.372240783 -5.855660069 2.940237245
v -6.259514364 -5.820852895 2.940237245
v -6.171124508 -5.512989370 2.940237245
v -6.148766791 -5.435116984 2.940237245
v -7.606083702 -1.205910796 2.897985045
v -7.711881928 -0.863272947 2.897985045
v -8.878627821 -1.223535673 2.897985045
v -8.949620548 -1.245456499 2.897985045
v -8.773186309 -1.816855949 2.897985045
v -8.418947741 -2.964092023 2.897985045
v -7.181209120 -2.581908471 2.897985045
v -7.356575728 -2.013966649 2.897985045
v -4.983333599 4.423982733 2.730556477
v -3.788114176 4.793037392 -3.522185051
v -4.983333599 4.423982733 -3.522185051
v -5.898499610 4.141401749 2.729084858
v -5.898499610 4.141401749 -3.522185051
v -6.626390054 3.916646901 2.727914384
v -6.626390054 3.916646901 -3.522185051
v -13.324740236 1.848359444 -3.522185051
v -12.596337448 -0.510643860 -3.522185051
v -9.504808190 -6.918159951 -3.522185051
v -7.960071875 -7.191271223 -3.522185051
v -7.561302194 -7.202522505 -3.522185051
v -4.483400670 -3.023632737 2.699227775
v -4.503943654 -3.029975910 -3.522185051
v -4.483400670 -3.023632737 -3.522185051
v -4.340077532 -2.979378041 2.699458243
v -4.340077532 -2.979378041 -3.522185051
v -3.604160993 -2.752144931 2.700641623
v -3.604160993 -2.752144931 -3.522185051
v -2.654597428 -2.458942820 2.702168555
v -2.654597428 -2.458942820 -3.522185051
v -1.974863559 -2.249057550 2.703261590
v -1.974863559 -2.249057550 -3.522185051
v -0.585011315 -1.819905015 -3.522185051
v -0.185904149 -1.696670439 -3.522185051
v 7.607243710 0.709663888 -3.522185051
v 8.525624717 2.216278067 -3.522185051
v 9.275859822 -0.213431319 -3.522185051
v 10.888685372 -1.505615530 -3.522185051
v 11.639366055 -0.588309734 -3.522185051
v 9.684724656 5.741986628 -3.522185051
v 3.616518538 3.868272316 -3.522185051
v 2.347632786 2.070173585 -3.522185051
v 1.709794647 2.332675981 -3.522185051
v -1.296489195 5.562390524 -3.522185051
v -2.357558161 5.234758261 -3.522185051
v -1.101967607 1.661753727 2.609485978
v -1.269113959 1.997830823 -3.522185051
v -4.664188354 -1.833285537 2.704204464
v -4.824948471 -1.882924348 2.703945956
v -4.834694445 -1.885933667 2.703930284
v -6.113077972 -1.172519229 2.706558599
v -5.313288061 -0.335961673 -3.522185051
v -5.566310389 0.483475757 -3.522185051
v -8.773186311 -1.816855944 2.703029377
v -8.878627821 -1.223535673 2.705505330
v -6.301028106 -5.965446143 -3.522185051
v -6.259514364 -5.820852895 -3.522185051
v -6.403219792 -5.865225633 -3.522185051
v -5.608433483 0.619895497 -3.522185051
v -5.922776292 -4.647987348 -3.522185051
v -5.551062500 -3.353300717 -3.522185051
v -6.318449599 -4.885582702 -3.522185051
v -7.560613615 -7.202090106 -3.522185051
v -7.055413637 -6.884828205 -3.522185051
v -6.517283028 -6.718666574 -3.522185051
v -1.156452554 0.282798330 -3.522185051
v -6.148766799 -5.435116960 -3.522185051
v -6.171124495 -5.512989369 -3.522185051
g roof
f 1 2 3
g roof
f 3 4 5
g roof
f 6 7 8
g roof
f 6 8 9
g roof
f 6 9 10
g roof
f 6 10 11
g roof
f 12 8 7
g roof
f 12 7 13
g roof
f 14 15 2
g roof
f 1 16 17
g roof
f 1 17 18
g roof
f 1 18 19
g roof
f 1 19 20
g roof
f 1 20 21
g roof
f 21 22 23
g roof
f 23 24 249 252 254 25
g roof
f 25 26 27
g roof
f 27 28 29
g roof
f 27 29 30
g roof
f 27 30 31
g roof
f 27 31 32
g roof
f 27 32 33
g roof
f 33 34 35
g roof
f 35 36 37
g roof
f 35 37 38
g roof
f 38 39 40
g roof
f 38 40 41
g roof
f 42 261 264 266 268 270 43 44
g roof
f 42 44 45
g roof
f 46 47 48
g roof
f 46 48 49
g roof
f 49 50 51
g roof
f 49 51 52
g roof
f 49 52 53
g roof
f 49 53 54
g roof
f 49 54 55
g roof
f 56 57 58
g roof
f 56 58 59
g roof
f 59 60 61
g roof
f 59 61 62
g roof
f 63 64 65
g roof
f 63 65 66
g roof
f 67 68 69
g roof
f 70 71 72
g roof
f 73 69 74
g roof
f 73 74 75
g roof
f 73 75 76
g roof
f 73 76 77
g roof
f 73 77 78
g roof
f 78 79 80
g roof
f 81 82 83
g roof
f 81 83 84
g roof
f 81 84 85
g roof
f 85 86 87
g roof
f 88 89 84
g roof
f 88 84 83
g roof
f 83 77 76
g roof
f 83 76 90
g roof
f 83 90 16
g roof
f 83 16 1
g roof
f 1 3 5
g roof
f 91 6 11
g roof
f 14 2 1
g roof
f 14 1 92
g roof
f 14 92 93
g roof
f 14 93 94
g roof
f 95 96 1
g roof
f 95 1 21
g roof
f 21 23 25
g roof
f 35 38 41
g roof
f 35 41 97
g roof
f 45 46 49
g roof
f 56 59 62
g roof
f 62 63 66
g roof
f 67 69 73
g roof
f 67 73 70
g roof
f 67 70 72
g roof
f 98 73 78
g roof
f 98 78 80
g roof
f 99 290 81 85
g roof
f 99 85 87
g roof
f 99 87 100
g roof
f 83 1 5
g roof
f 13 14 94
g roof
f 94 95 21
g roof
f 94 21 25
g roof
f 33 35 97
g roof
f 42 45 49
g roof
f 101 56 62
g roof
f 101 62 66
g roof
f 72 98 80
g roof
f 72 80 287 288 289 99
g roof
f 72 99 100
g roof
f 13 94 25
g roof
f 55 101 66
g roof
f 12 13 25
g roof
f 49 55 66
g roof
f 49 66 67
g roof
f 49 67 72
g roof
f 102 12 25
g roof
f 102 25 27
g roof
f 102 27 33
g roof
f 42 49 72
g roof
f 11 102 33
g roof
f 97 42 72
g roof
f 97 72 100
g roof
f 33 97 100
g roof
f 33 100 293 103
g roof
f 11 33 103
g roof
f 11 103 294 88
g roof
f 91 11 88
g roof
f 91 88 83
g roof
f 104 105 106
g roof
f 104 106 107
g roof
f 108 109 110
g roof
f 108 110 111
g roof
f 108 111 112
g roof
f 108 112 113
g roof
f 114 115 116
g roof
f 116 117 118
g roof
f 116 118 119
g roof
f 116 119 114
g roof
f 120 121 122
g roof
f 122 123 124
g roof
f 122 124 125
g roof
f 125 126 127
g roof
f 125 127 128
g roof
f 125 128 129
g roof
f 125 129 130
g roof
f 125 130 120
g roof
f 125 120 122
g roof
f 131 132 133
g roof
f 131 133 134
g roof
f 131 134 135
g roof
f 131 135 136
g roof
f 137 138 139
g roof
f 137 139 140
g roof
f 137 140 120
g roof
f 137 120 141
g roof
f 142 143 144
g roof
f 142 144 145
g roof
f 142 145 146
g roof
f 147 148 149
g roof
f 147 149 150
g roof
f 147 150 151
g roof
f 153 154 155
g roof
f 155 156 157
g roof
f 155 157 158
g roof
f 155 158 159
g roof
f 155 159 160
g roof
f 155 160 152
g roof
f 155 152 153
g roof
f 161 162 163
g roof
f 164 165 166
g roof
f 164 166 167
g roof
f 168 169 170
g roof
f 168 170 171
g roof
f 168 171 172
g roof
f 168 172 173
g roof
f 173 174 164
g roof
f 173 164 167
g roof
f 173 167 168
g roof
f 175 176 177
g roof
f 178 176 175
g roof
f 178 175 179
g roof
f 178 179 180
g roof
f 178 180 181
g roof
f 178 181 182
g roof
f 178 182 183
g roof
f 178 183 184
g roof
f 178 184 185
g roof
f 178 185 186
g roof
f 178 186 187
g roof
f 188 189 190
g roof
f 191 192 193
g roof
f 191 193 194
g roof
f 191 194 195
g roof
f 191 195 196
g roof
f 191 196 197
g roof
f 197 198 199
g roof
f 199 200 201
g roof
f 199 201 175
g roof
f 202 178 187
g roof
f 202 187 203
g roof
f 191 197 199
g roof
f 191 199 175
g roof
f 177 202 203
g roof
f 177 203 188
g roof
f 190 285 191 175
g roof
f 175 177 188
g roof
f 175 188 190
g roof
f 204 205 206
g roof
f 204 206 207
g roof
f 208 209 210
g roof
f 211 212 213
g roof
f 211 213 214
g roof_fixture
f 215 216 217
g roof_fixture
f 215 217 218
g roof_fixture
f 215 218 219
g roof_fixture
f 215 219 220
g roof_fixture
f 215 220 221
g roof_fixture
f 215 221 222
g roof_fixture
f 215 222 223
g roof_fixture
f 215 223 224
g roof_fixture
f 225 226 227
g roof_fixture
f 225 227 228
g roof_fixture
f 225 228 229
g roof_fixture
f 225 229 230
g roof_fixture
f 225 230 231
g roof_fixture
f 225 231 232
g roof_fixture
f 225 232 233
g roof_fixture
f 225 233 234
g roof_fixture
f 225 234 235
g roof_fixture
f 225 235 236
g roof_fixture
f 225 236 237
g roof_fixture
f 225 237 238
g roof_fixture
f 225 238 239
g roof_fixture
f 225 239 240
g roof_fixture
f 241 242 243
g roof_fixture
f 241 243 244
g roof_fixture
f 241 244 245
g roof_fixture
f 241 245 246
g roof_fixture
f 246 247 248
g roof_fixture
f 246 248 241
g roof_step_or_fixture_side
f 21 20 187 186
g roof_step_or_fixture_side
f 22 21 186 185
g roof_step_or_fixture_side
f 23 22 185 184
g roof_step_or_fixture_side
f 24 23 184 183
g facade_completed
f 249 24 183 250 251
g facade_completed
f 252 249 251 253
g facade_completed
f 254 252 253 255
g facade_completed
f 25 254 255 256
g facade_completed
f 26 25 256 257
g facade_completed
f 27 26 257 258
g facade_completed
f 28 27 258 259
g facade_completed
f 29 28 259 260
g roof_step_or_fixture_side
f 166 165 30 29
g roof_step_or_fixture_side
f 165 164 31 30
g roof_step_or_fixture_side
f 164 174 32 31
g roof_step_or_fixture_side
f 233 232 33 32 174
g roof_step_or_fixture_side
f 232 231 34 33
g roof_step_or_fixture_side
f 35 34 210 209
g roof_step_or_fixture_side
f 36 35 209 208
g roof_step_or_fixture_side
f 230 229 161 37 36
g roof_step_or_fixture_side
f 161 163 38 37
g roof_step_or_fixture_side
f 163 162 39 38
g roof_step_or_fixture_side
f 228 227 159 40 39 162
g roof_step_or_fixture_side
f 159 158 41 40
g roof_step_or_fixture_side
f 158 157 97 41
g roof_step_or_fixture_side
f 157 156 42 97
g facade_completed
f 261 42 262 263
g facade_completed
f 264 261 263 265
g facade_completed
f 266 264 265 267
g facade_completed
f 268 266 267 269
g facade_completed
f 270 268 269 271
g facade_completed
f 43 270 271 272
g roof_step_or_fixture_side
f 151 150 44 43
g roof_step_or_fixture_side
f 150 149 45 44
g roof_step_or_fixture_side
f 149 148 46 45
g roof_step_or_fixture_side
f 148 147 47 46
g facade_completed
f 48 47 273 274
g facade_completed
f 49 48 274 275
g facade_completed
f 50 49 275 276
g facade_completed
f 51 50 276 277
g facade_completed
f 52 51 277 278
g facade_completed
f 53 52 278 279
g facade_completed
f 54 53 279 280
g facade_completed
f 55 54 280 281
g facade_completed
f 101 55 281 282
g facade_completed
f 56 101 282 283
g facade_completed
f 57 56 283 284 182
g roof_step_or_fixture_side
f 58 57 182 181
g roof_step_or_fixture_side
f 59 58 181 180
g roof_step_or_fixture_side
f 60 59 180 179
g roof_step_or_fixture_side
f 61 60 179 175
g roof_step_or_fixture_side
f 62 61 175 201
g roof_step_or_fixture_side
f 63 62 201 200
g roof_step_or_fixture_side
f 64 63 200 199
g roof_step_or_fixture_side
f 65 64 199 198
g roof_step_or_fixture_side
f 66 65 198 197
g roof_step_or_fixture_side
f 67 66 197 196
g roof_step_or_fixture_side
f 68 67 196 195
g roof_step_or_fixture_side
f 69 68 195 194
g roof_step_or_fixture_side
f 74 69 194 193
g roof_step_or_fixture_side
f 75 74 193 192
g roof_step_or_fixture_side
f 76 75 192 191
g roof_step_or_fixture_side
f 90 76 191 285
g roof_step_or_fixture_side
f 16 90 285 190
g roof_step_or_fixture_side
f 17 16 190 189
g roof_step_or_fixture_side
f 18 17 189 188
g roof_step_or_fixture_side
f 19 18 188 203
g roof_step_or_fixture_side
f 20 19 203 187
g roof_step_or_fixture_side
f 222 221 287 80
g roof_step_or_fixture_side
f 221 220 288 287
g roof_step_or_fixture_side
f 220 219 289 288
g roof_step_or_fixture_side
f 219 218 99 289
g roof_step_or_fixture_side
f 218 217 290 99
g roof_step_or_fixture_side
f 217 216 81 290
g roof_step_or_fixture_side
f 216 215 141 82 81
g roof_step_or_fixture_side
f 141 120 83 82
g roof_step_or_fixture_side
f 120 140 77 83
g roof_step_or_fixture_side
f 140 139 78 77
g roof_step_or_fixture_side
f 139 138 79 78
g roof_step_or_fixture_side
f 223 222 80 79 138
g roof_step_or_fixture_side
f 121 120 83 5
g roof_step_or_fixture_side
f 120 130 91 83
g roof_step_or_fixture_side
f 130 129 6 91
g roof_step_or_fixture_side
f 129 128 7 6
g roof_step_or_fixture_side
f 128 127 13 7
g roof_step_or_fixture_side
f 127 126 14 13
g roof_step_or_fixture_side
f 126 125 15 14
g roof_step_or_fixture_side
f 125 124 2 15
g roof_step_or_fixture_side
f 124 123 3 2
g roof_step_or_fixture_side
f 123 122 4 3
g roof_step_or_fixture_side
f 122 121 5 4
g roof_step_or_fixture_side
f 145 144 73 98
g roof_step_or_fixture_side
f 144 143 70 73
g roof_step_or_fixture_side
f 143 142 71 70
g roof_step_or_fixture_side
f 142 146 72 71
g roof_step_or_fixture_side
f 146 145 98 72
g roof_step_or_fixture_side
f 119 118 96 95
g roof_step_or_fixture_side
f 118 117 1 96
g roof_step_or_fixture_side
f 117 116 92 1
g roof_step_or_fixture_side
f 116 115 93 92
g roof_step_or_fixture_side
f 115 114 94 93
g roof_step_or_fixture_side
f 114 119 95 94
g roof_step_or_fixture_side
f 247 246 100 87
g roof_step_or_fixture_side
f 246 245 293 100
g roof_step_or_fixture_side
f 245 244 103 293
g roof_step_or_fixture_side
f 244 243 294 103
g roof_step_or_fixture_side
f 243 242 88 294
g roof_step_or_fixture_side
f 242 241 89 88
g roof_step_or_fixture_side
f 84 89 205 204
g roof_step_or_fixture_side
f 85 84 204 207
g roof_step_or_fixture_side
f 86 85 207 206
g roof_step_or_fixture_side
f 248 247 87 86
g roof_step_or_fixture_side
f 135 134 12 102
g roof_step_or_fixture_side
f 134 133 8 12
g roof_step_or_fixture_side
f 133 132 9 8
g roof_step_or_fixture_side
f 132 131 10 9
g roof_step_or_fixture_side
f 131 136 11 10
g roof_step_or_fixture_side
f 136 135 102 11
g roof_step_or_fixture_side
f 107 106 202 177
g roof_step_or_fixture_side
f 104 107 177 176
g roof_step_or_fixture_side
f 105 104 176 178
g roof_step_or_fixture_side
f 106 105 178 202
g roof_step_or_fixture_side
f 236 235 172 113 112
g roof_step_or_fixture_side
f 172 171 108 113
g roof_step_or_fixture_side
f 171 170 109 108
g facade_completed
f 110 109 295 296
g roof_step_or_fixture_side
f 238 237 111 110
g roof_step_or_fixture_side
f 237 236 112 111
g roof_step_or_fixture_side
f 215 224 137 141
g roof_step_or_fixture_side
f 224 223 138 137
g facade_completed
f 147 151 43 272 273 47
g roof_step_or_fixture_side
f 154 153 213 212
g facade_completed
f 155 154 212 299 300
g facade_completed
f 156 155 300 262 42
g roof_step_or_fixture_side
f 227 226 160 159
g roof_step_or_fixture_side
f 226 225 152 160
g roof_step_or_fixture_side
f 153 152 214 213
g roof_step_or_fixture_side
f 229 228 162 161
g facade_completed
f 167 166 29 260 302
g facade_completed
f 168 167 302 303
g facade_completed
f 169 168 303 304
g facade_completed
f 170 169 304 295 109
g roof_step_or_fixture_side
f 235 234 173 172
g roof_step_or_fixture_side
f 234 233 174 173
g facade_completed
f 183 182 284 250
g roof_step_or_fixture_side
f 241 248 86 206 205 89
g roof_step_or_fixture_side
f 231 230 36 208 210 34
g roof_step_or_fixture_side
f 225 240 211 214 152
g facade_completed
f 212 211 306 299
g facade_completed
f 239 238 110 296 307
g facade_completed
f 240 239 307 306 211
g ground_assumed
f 277 279 278
g ground_assumed
f 279 281 280
g ground_assumed
f 282 284 283
g ground_assumed
f 282 250 284
g ground_assumed
f 282 251 250
g ground_assumed
f 282 253 251
g ground_assumed
f 282 255 253
g ground_assumed
f 282 256 255
g ground_assumed
f 282 257 256
g ground_assumed
f 257 259 258
g ground_assumed
f 257 260 259
g ground_assumed
f 257 302 260
g ground_assumed
f 257 303 302
g ground_assumed
f 257 304 303
g ground_assumed
f 257 295 304
g ground_assumed
f 257 296 295
g ground_assumed
f 257 307 296
g ground_assumed
f 257 306 307
g ground_assumed
f 257 299 306
g ground_assumed
f 257 300 299
g ground_assumed
f 257 262 300
g ground_assumed
f 257 263 262
g ground_assumed
f 257 265 263
g ground_assumed
f 257 267 265
g ground_assumed
f 257 269 267
g ground_assumed
f 257 271 269
g ground_assumed
f 257 272 271
g ground_assumed
f 257 273 272
g ground_assumed
f 257 274 273
g ground_assumed
f 257 275 274
g ground_assumed
f 275 277 276
g ground_assumed
f 275 279 277
g ground_assumed
f 275 281 279
g ground_assumed
f 281 257 282
g ground_assumed
f 281 275 257
