# Source coordinates; no display transform
v -0.117483549498 0.0533796776138 0.122714454756
v -0.222628267686 0.0314116810108 0.122589752639
v -0.220974309547 0.0260551766919 0.122567612318
v -0.220968302807 0.0131661985005 0.122513134082
v -0.217551318387 0.0149694867026 0.122521791278
v -0.289967589283 0.0171132006782 0.122508919037
v -0.282923359589 0.0636780946795 0.122707876477
v -0.438400191161 0.00976952681672 0.122432921062
v -0.436216302001 0.00269678925821 0.122403686954
v -0.458447102054 -0.0465223533663 0.122188910642
v -0.451091485469 -0.070344233427 0.122090446447
v -0.471629405925 0.00217204964171 0.122390743016
v -0.268020685296 0.0782982679492 0.12277418781
v -0.255255901016 0.0768442144365 0.122771907895
v -0.255270856612 0.0540282818674 0.122675463329
v -0.0482460860261 0.083556759659 0.122862980086
v -0.0522454610977 0.0855161285367 0.122870050746
v -0.0697768812471 0.14229333866 0.123104730852
v -0.135199189019 0.122092522836 0.122999529474
v -0.14535288501 0.154976255337 0.123135449485
v -0.171864337978 0.142929546916 0.123076499805
v -0.153969109591 0.162811198774 0.12316595711
v -0.163936220856 0.184217440495 0.12325341972
v -0.151153670991 0.195269544259 0.123304007162
v -0.525608030165 0.0796471546369 0.122701871387
v -0.497007391167 -0.012978797658 0.12231901584
v -0.375618904307 -0.264569068332 0.121292341957
v -0.31496503749 -0.275292746255 0.121265385133
v -0.29930739878 -0.275734526353 0.121268260185
v -0.315083449454 -0.266777634362 0.121301341582
v -0.339562255761 -0.224340085093 0.121473305564
v -0.3293550586 -0.20683635708 0.121550383127
v -0.330166299977 -0.204209072977 0.121561242612
v -0.327308372706 -0.203326614593 0.12156583829
v -0.326335137993 -0.201657671096 0.121573187456
v -0.325215061352 -0.202680251029 0.121569204388
v -0.296646191677 -0.193858879608 0.121615144126
v -0.280414462948 -0.180517150283 0.121676454175
v -0.271527388839 -0.18610280484 0.121655536052
v -0.270825513076 -0.185886082678 0.121656664682
v -0.277765706184 -0.163409591944 0.121749567911
v -0.179260620637 -0.11190003693 0.121997127443
v -0.0253842613865 -0.0643867635049 0.122244566039
v -0.0233843602499 -0.0608022513255 0.122260323031
v -0.0359317190159 -0.0564084446785 0.122275094749
v -0.012880536804 -0.0492908007941 0.122312161883
v -0.00971337137303 -0.0595479742 0.122269765367
v 0.296283547152 0.0349364244444 0.12276181918
v 0.332343655758 0.0940934306403 0.123022790178
v 0.361801537791 -0.00130878659977 0.122628459356
v 0.425128919402 -0.0520462285022 0.122433179228
v 0.454604296997 -0.0160283379142 0.122594349769
v 0.377855561346 0.232529910328 0.123621728183
v 0.139588251823 0.15895876603 0.123238585963
v 0.0897656208271 0.0883566575053 0.122925069582
v -0.0533203461135 0.225478093091 0.123461326565
v -0.094983078531 0.212613655677 0.123394331435
v -0.0949434681326 0.212551917091 0.123394082456
v -0.0482038495934 0.201641264424 0.123362121011
v -0.0485361841734 0.181862809983 0.123278419347
v -0.0140250135361 0.150146930436 0.123154813112
v 0.0185403063714 0.146000200049 0.123147148767
v 0.0455397989485 0.113604550309 0.123018394083
v 0.0530812912545 0.0529277614085 0.122764205189
v 0.0875793601086 0.0610074367971 0.12280880572
v 0.0992012441794 0.0500528026089 0.122766021935
v 0.0965755053839 0.0268950866443 0.122667341941
v -0.00431848866957 0.0262291633644 0.122633968413
v -0.023416076643 0.00247692256968 0.122527786434
v -0.0879362998402 -0.0202461204741 0.122412197143
v -0.110462921169 -0.0398934856994 0.1223223274
v -0.126785424382 -0.0846278857358 0.122128297034
v -0.0890223928554 -0.016728702569 0.122426735863
v -0.0478218250094 0.0181756051595 0.122586750761
v -0.0484606737495 0.0185865363427 0.122588294224
v -0.0388158364244 0.0422226130084 0.122691122119
v -0.186786102929 -0.00554636238301 0.122444391547
v -0.179219195652 -0.0300525278996 0.122343098986
v -0.184812012867 -0.0608358541991 0.122211287847
v -0.183727374694 -0.0643485604771 0.122196768562
v -0.245175565698 -0.0301177818689 0.122322846325
v -0.207245784132 -0.018405988751 0.122383838721
v -0.211039421585 -0.00611992472113 0.122434621348
v -0.283699076155 -0.0349159592072 0.122290897012
v -0.273902178602 -0.0666441652528 0.122159753218
v -0.291268841208 -0.0720065678615 0.122131827024
v -0.284383094571 -0.0943067282817 0.122039652629
v -0.305219892092 -0.0268247320553 0.122318579411
v -0.301065738761 -0.0402783618159 0.122262970818
v -0.0456824805068 0.0723201062664 0.122816260626
v -0.267366684636 -0.00745199332372 0.122411930456
v -0.222469024068 0.0798532708081 0.122794557285
v -0.222939542475 0.0859474156089 0.122820173959
v -0.198409715675 0.103445845259 0.122901567163
v -0.149133350945 0.0826350396668 0.122828527363
v -0.15199637935 0.0736421293846 0.122789648312
v -0.204021591703 -0.0947659016947 0.122062051666
v -0.117993092511 -0.0256741493222 0.122380149983
v -0.230177288205 -0.0786911628985 0.122122075476
v -0.332982737593 -0.109313114833 0.121961502703
v 0.0647209907773 0.0986637793173 0.122961050964
v -0.457156373035 -0.064357243667 0.122113915765
v -0.353819535075 -0.0418311186066 0.122240429446
v -0.0830251937194 0.161416618775 0.123181549895
v -0.119482787019 0.179845753044 0.123248405204
v -0.126985109988 0.153370018422 0.123134223361
v -0.0924807338224 0.145445503655 0.123111178104
v -0.280445631361 -0.243552739468 0.121410001331
v -0.24982290261 -0.227160887745 0.121488562635
v -0.24819287205 -0.22148345211 0.121513054136
v -0.252619059962 -0.222850151187 0.121505936672
v -0.253835446883 -0.223225741869 0.121503980653
v -0.290358141529 -0.234503060786 0.121445250895
v -0.198409715675 0.103445845259 0.126949063725
v -0.222939542475 0.0859474156089 0.12687102111
v -0.222469024068 0.0798532708081 0.126847869759
v -0.117483549498 0.0533796776138 0.126793305218
v -0.15199637935 0.0736421293846 0.126855555778
v -0.149133350945 0.0826350396668 0.126891309306
v -0.211039422017 -0.00611992334686 0.126523403112
v -0.217551318387 0.0149694867026 0.126601338181
v -0.220968302807 0.0131661985005 0.126592898198
v -0.220974309547 0.0260551766919 0.126642304906
v -0.222628267489 0.0314116804611 0.12666209966
v -0.255270856612 0.0540282818674 0.12673421061
v -0.255255901016 0.0768442144365 0.12682168127
v -0.268020685296 0.0782982679492 0.1268215504
v -0.282923359589 0.0636780946795 0.126758844093
v -0.289967589283 0.0171132006782 0.12657719119
v -0.267366684636 -0.00745199332372 0.126493122439
v -0.458447102054 -0.0465223533663 0.126257948577
v -0.436216302001 0.00269678925821 0.126456563785
v -0.438400191161 0.00976952681672 0.126482700797
v -0.471629405925 0.00217204964171 0.126438725088
v -0.457156373035 -0.064357243667 0.126190156095
v -0.451091485469 -0.070344233427 0.126169915763
v -0.198725652186 -0.0157751794476 0.126491893449
v -0.184812012867 -0.0608358541991 0.12632537354
v -0.179219195652 -0.0300525278996 0.126445879814
v -0.186786102929 -0.00554636238301 0.126536441326
v -0.207245784132 -0.018405988751 0.126478000478
v -0.110462921169 -0.0398934856994 0.126438883993
v -0.0879362998402 -0.0202461204741 0.126524269177
v -0.0890223928554 -0.016728702569 0.126537267655
v -0.117993092511 -0.0256741493222 0.126490027818
v -0.126785424382 -0.0846278857358 0.12626010147
v -0.00971337137303 -0.0595479742 0.126408567078
v -0.012880536804 -0.0492908007941 0.126446472046
v -0.0359317190159 -0.0564084446785 0.126408884652
v -0.0233843602499 -0.0608022513255 0.126397648932
v -0.0253842613865 -0.0643867635049 0.126383014013
v -0.250506956246 -0.184760191853 0.125820953611
v -0.238556772296 -0.175630513281 0.125861292765
v -0.234970896252 -0.175431041747 0.125863660044
v -0.22037560344 -0.124595342654 0.126065059719
v -0.179260620637 -0.11190003693 0.126132102125
v -0.204021591703 -0.0947659016947 0.12618671877
v -0.277765706184 -0.163409591944 0.125890617574
v -0.270825513076 -0.185886082678 0.125807556634
v -0.251958166708 -0.180060305473 0.125838321836
v -0.296646191677 -0.193858879608 0.125765453231
v -0.271527388839 -0.18610280484 0.125806412142
v -0.280414462948 -0.180517150283 0.125823852654
v -0.339562255761 -0.224340085093 0.125629424338
v -0.315083449454 -0.266777634362 0.125477681959
v -0.29930739878 -0.275734526353 0.125450396842
v -0.299280361817 -0.275717548263 0.125450473997
v -0.279443751592 -0.26326030174 0.125507093897
v -0.258314124502 -0.256735987306 0.125541548033
v -0.24982290261 -0.227160887745 0.125658717971
v -0.280445631361 -0.243552739468 0.125582194278
v -0.290358141529 -0.234503060786 0.125612455672
v -0.318161422422 -0.243088037011 0.125567119474
v -0.3293550586 -0.20683635708 0.125701086098
v -0.0140250135361 0.150146930436 0.118847234666
v -0.0830251937194 0.161416618775 0.119025914472
v -0.0924807338224 0.145445503655 0.118954486416
v -0.119482787019 0.179845753044 0.119188633423
v -0.0485361841734 0.181862809983 0.119079411519
v -0.0482038495934 0.201641264424 0.119187153805
v -0.0949434681326 0.212551917091 0.119326131882
v -0.094983078531 0.212613655677 0.119326537096
v -0.151153670991 0.195269544259 0.11932678097
v -0.163936220856 0.184217440495 0.119287929051
v -0.153969109591 0.162811198774 0.119153813692
v -0.171864337978 0.142929546916 0.119075278578
v -0.14535288501 0.154976255337 0.119096303972
v -0.0697768812471 0.14229333866 0.118898738275
v -0.0522454616081 0.0855161303429 0.118558110798
v -0.0482460860261 0.083556759659 0.11854060173
v -0.0388158364244 0.0422226130084 0.118298272475
v -0.0484606737495 0.0185865363427 0.118185192483
v -0.0478218259517 0.0181756048454 0.118181859288
v -0.023416076643 0.00247692256968 0.118054522106
v -0.00431848866957 0.0262291633644 0.118152214156
v 0.0965755053839 0.0268950866443 0.117984827358
v 0.0992012441794 0.0500528026089 0.118107186502
v 0.0875793601086 0.0610074367971 0.11818687459
v 0.0530812912545 0.0529277614085 0.118201111167
v 0.0455397989485 0.113604550309 0.118546157787
v 0.0185403063714 0.146000200049 0.118769323392
v -0.126985109988 0.153370018422 0.11905637168
v -0.135199189019 0.122092522836 0.118899022317
v -0.283699076155 -0.0349159592072 0.118290987153
v -0.301065738761 -0.0402783618159 0.118291062542
v -0.291268841208 -0.0720065678615 0.118100713296
v -0.273902178602 -0.0666441652528 0.118100637907
v -0.325215061352 -0.202680251029 0.117442696979
v -0.326335137993 -0.201657671096 0.117450195312
v -0.327308371567 -0.20332661424 0.117442706049
v -0.243844383264 -0.206337582653 0.117284731825
v -0.234970894995 -0.175431041511 0.117438932028
v -0.238556772296 -0.175630513281 0.11744391843
v -0.250506955854 -0.184760193149 0.117414182557
v -0.207245784132 -0.018405988751 0.130581842361
v -0.245175565698 -0.0301177818689 0.130581842361
v -0.242443066473 -0.0389672465172 0.130581842361
v -0.230177288205 -0.0786911628985 0.130581842361
v -0.19224750664 -0.0669793697805 0.130581842361
v -0.191864832261 -0.0668612092686 0.130581842361
v -0.18555260748 -0.064912147929 0.130581842361
v -0.183727374694 -0.0643485604771 0.130581842361
v -0.184812012867 -0.0608358541991 0.130581842361
v -0.198725652186 -0.0157751794476 0.130581842361
v -0.250506955854 -0.184760193149 0.131461629438
v -0.251958166708 -0.180060305473 0.131461629438
v -0.270825513076 -0.185886082678 0.131461629438
v -0.271527388839 -0.18610280484 0.131461629438
v -0.296646191677 -0.193858879608 0.131461629438
v -0.325215061352 -0.202680251029 0.131461629438
v -0.327308371567 -0.20332661424 0.131461629438
v -0.330166299977 -0.204209072977 0.131461629438
v -0.3293550586 -0.20683635708 0.131461629438
v -0.318161422422 -0.243088037011 0.131461629438
v -0.290358141529 -0.234503060786 0.131461629438
v -0.253835446883 -0.223225741869 0.131461629438
v -0.252619059962 -0.222850151187 0.131461629438
v -0.24819287205 -0.22148345211 0.131461629438
v -0.244722256061 -0.209395231576 0.131461629438
v -0.243844383264 -0.206337582653 0.131461629438
v -0.301065738761 -0.0402783618159 0.129802602401
v -0.305219892092 -0.0268247320553 0.129802602401
v -0.351032015052 -0.040970400277 0.129802602401
v -0.353819535075 -0.0418311186066 0.129802602401
v -0.346891868049 -0.0642670423322 0.129802602401
v -0.332982737593 -0.109313114833 0.129802602401
v -0.284383094571 -0.0943067282817 0.129802602401
v -0.291268841208 -0.0720065678615 0.129802602401
v -0.198083803335 0.180778661953 0.123228541853
v -0.151153670991 0.195269544259 -0.122284526104
v -0.198083803335 0.180778661953 -0.122284526104
v -0.234017675548 0.169683157042 0.123170758928
v -0.234017675548 0.169683157042 -0.122284526104
v -0.262598197427 0.160858187703 0.123124800421
v -0.262598197427 0.160858187703 -0.122284526104
v -0.525608030165 0.0796471546369 -0.122284526104
v -0.497007391167 -0.012978797658 -0.122284526104
v -0.375618904307 -0.264569068332 -0.122284526104
v -0.31496503749 -0.275292746255 -0.122284526104
v -0.29930739878 -0.275734526353 -0.122284526104
v -0.178454003091 -0.111650973082 0.121998424518
v -0.179260620637 -0.11190003693 -0.122284526104
v -0.178454003091 -0.111650973082 -0.122284526104
v -0.17282643906 -0.109913318305 0.122007473814
v -0.17282643906 -0.109913318305 -0.122284526104
v -0.143930773624 -0.100991040337 0.122053939073
v -0.143930773624 -0.100991040337 -0.122284526104
v -0.106646286009 -0.0894784982813 0.122113893856
v -0.106646286009 -0.0894784982813 -0.122284526104
v -0.0799566256692 -0.0812373809528 0.12215681173
v -0.0799566256692 -0.0812373809528 -0.122284526104
v -0.0253842613865 -0.0643867635049 -0.122284526104
v -0.00971337137303 -0.0595479742 -0.122284526104
v 0.296283547152 0.0349364244444 -0.122284526104
v 0.332343655758 0.0940934306403 -0.122284526104
v 0.361801537791 -0.00130878659977 -0.122284526104
v 0.425128919402 -0.0520462285022 -0.122284526104
v 0.454604296997 -0.0160283379142 -0.122284526104
v 0.377855561346 0.232529910328 -0.122284526104
v 0.139588251823 0.15895876603 -0.122284526104
v 0.0897656208271 0.0883566575053 -0.122284526104
v 0.0647209907773 0.0986637793173 -0.122284526104
v -0.0533203461135 0.225478093091 -0.122284526104
v -0.094983078531 0.212613655677 -0.122284526104
v -0.045682481724 0.0723201058738 0.118474724745
v -0.0522454610977 0.0855161285367 -0.122284526104
v -0.185552607559 -0.064912147929 0.122193833553
v -0.191864832261 -0.0668612092686 0.122183683271
v -0.19224750664 -0.0669793697805 0.122183067912
v -0.242443066513 -0.0389672463602 0.122286268352
v -0.211039421585 -0.00611992472113 -0.122284526104
v -0.220974309782 0.026055177438 -0.122284526104
v -0.346891868127 -0.0642670421359 0.122147693917
v -0.351032015052 -0.040970400277 0.122244911884
v -0.249822903631 -0.227160886842 -0.122284526104
v -0.24819287205 -0.22148345211 -0.122284526104
v -0.253835446647 -0.223225741791 -0.122284526104
v -0.222628267489 0.0314116804611 -0.122284526104
v -0.234970896252 -0.175431041747 -0.122284526104
v -0.22037560344 -0.124595342654 -0.122284526104
v -0.250506956246 -0.184760191853 -0.122284526104
v -0.299280361817 -0.275717548263 -0.122284526104
v -0.279443751592 -0.26326030174 -0.122284526104
v -0.258314124502 -0.256735987306 -0.122284526104
v -0.0478218259517 0.0181756048454 -0.122284526104
v -0.243844383578 -0.206337581711 -0.122284526104
v -0.24472225555 -0.209395231537 -0.122284526104
g roof
f 1 2 3
g roof
f 3 4 5
g roof
f 6 7 8
g roof
f 6 8 9
g roof
f 6 9 10
g roof
f 6 10 11
g roof
f 12 8 7
g roof
f 12 7 13
g roof
f 14 15 2
g roof
f 1 16 17
g roof
f 1 17 18
g roof
f 1 18 19
g roof
f 1 19 20
g roof
f 1 20 21
g roof
f 21 22 23
g roof
f 23 24 249 252 254 25
g roof
f 25 26 27
g roof
f 27 28 29
g roof
f 27 29 30
g roof
f 27 30 31
g roof
f 27 31 32
g roof
f 27 32 33
g roof
f 33 34 35
g roof
f 35 36 37
g roof
f 35 37 38
g roof
f 38 39 40
g roof
f 38 40 41
g roof
f 42 261 264 266 268 270 43 44
g roof
f 42 44 45
g roof
f 46 47 48
g roof
f 46 48 49
g roof
f 49 50 51
g roof
f 49 51 52
g roof
f 49 52 53
g roof
f 49 53 54
g roof
f 49 54 55
g roof
f 56 57 58
g roof
f 56 58 59
g roof
f 59 60 61
g roof
f 59 61 62
g roof
f 63 64 65
g roof
f 63 65 66
g roof
f 67 68 69
g roof
f 70 71 72
g roof
f 73 69 74
g roof
f 73 74 75
g roof
f 73 75 76
g roof
f 73 76 77
g roof
f 73 77 78
g roof
f 78 79 80
g roof
f 81 82 83
g roof
f 81 83 84
g roof
f 81 84 85
g roof
f 85 86 87
g roof
f 88 89 84
g roof
f 88 84 83
g roof
f 83 77 76
g roof
f 83 76 90
g roof
f 83 90 16
g roof
f 83 16 1
g roof
f 1 3 5
g roof
f 91 6 11
g roof
f 14 2 1
g roof
f 14 1 92
g roof
f 14 92 93
g roof
f 14 93 94
g roof
f 95 96 1
g roof
f 95 1 21
g roof
f 21 23 25
g roof
f 35 38 41
g roof
f 35 41 97
g roof
f 45 46 49
g roof
f 56 59 62
g roof
f 62 63 66
g roof
f 67 69 73
g roof
f 67 73 70
g roof
f 67 70 72
g roof
f 98 73 78
g roof
f 98 78 80
g roof
f 99 290 81 85
g roof
f 99 85 87
g roof
f 99 87 100
g roof
f 83 1 5
g roof
f 13 14 94
g roof
f 94 95 21
g roof
f 94 21 25
g roof
f 33 35 97
g roof
f 42 45 49
g roof
f 101 56 62
g roof
f 101 62 66
g roof
f 72 98 80
g roof
f 72 80 287 288 289 99
g roof
f 72 99 100
g roof
f 13 94 25
g roof
f 55 101 66
g roof
f 12 13 25
g roof
f 49 55 66
g roof
f 49 66 67
g roof
f 49 67 72
g roof
f 102 12 25
g roof
f 102 25 27
g roof
f 102 27 33
g roof
f 42 49 72
g roof
f 11 102 33
g roof
f 97 42 72
g roof
f 97 72 100
g roof
f 33 97 100
g roof
f 33 100 293 103
g roof
f 11 33 103
g roof
f 11 103 294 88
g roof
f 91 11 88
g roof
f 91 88 83
g roof
f 104 105 106
g roof
f 104 106 107
g roof
f 108 109 110
g roof
f 108 110 111
g roof
f 108 111 112
g roof
f 108 112 113
g roof
f 114 115 116
g roof
f 116 117 118
g roof
f 116 118 119
g roof
f 116 119 114
g roof
f 120 121 122
g roof
f 122 123 124
g roof
f 122 124 125
g roof
f 125 126 127
g roof
f 125 127 128
g roof
f 125 128 129
g roof
f 125 129 130
g roof
f 125 130 120
g roof
f 125 120 122
g roof
f 131 132 133
g roof
f 131 133 134
g roof
f 131 134 135
g roof
f 131 135 136
g roof
f 137 138 139
g roof
f 137 139 140
g roof
f 137 140 120
g roof
f 137 120 141
g roof
f 142 143 144
g roof
f 142 144 145
g roof
f 142 145 146
g roof
f 147 148 149
g roof
f 147 149 150
g roof
f 147 150 151
g roof
f 153 154 155
g roof
f 155 156 157
g roof
f 155 157 158
g roof
f 155 158 159
g roof
f 155 159 160
g roof
f 155 160 152
g roof
f 155 152 153
g roof
f 161 162 163
g roof
f 164 165 166
g roof
f 164 166 167
g roof
f 168 169 170
g roof
f 168 170 171
g roof
f 168 171 172
g roof
f 168 172 173
g roof
f 173 174 164
g roof
f 173 164 167
g roof
f 173 167 168
g roof
f 175 176 177
g roof
f 178 176 175
g roof
f 178 175 179
g roof
f 178 179 180
g roof
f 178 180 181
g roof
f 178 181 182
g roof
f 178 182 183
g roof
f 178 183 184
g roof
f 178 184 185
g roof
f 178 185 186
g roof
f 178 186 187
g roof
f 188 189 190
g roof
f 191 192 193
g roof
f 191 193 194
g roof
f 191 194 195
g roof
f 191 195 196
g roof
f 191 196 197
g roof
f 197 198 199
g roof
f 199 200 201
g roof
f 199 201 175
g roof
f 202 178 187
g roof
f 202 187 203
g roof
f 191 197 199
g roof
f 191 199 175
g roof
f 177 202 203
g roof
f 177 203 188
g roof
f 190 285 191 175
g roof
f 175 177 188
g roof
f 175 188 190
g roof
f 204 205 206
g roof
f 204 206 207
g roof
f 208 209 210
g roof
f 211 212 213
g roof
f 211 213 214
g roof_fixture
f 215 216 217
g roof_fixture
f 215 217 218
g roof_fixture
f 215 218 219
g roof_fixture
f 215 219 220
g roof_fixture
f 215 220 221
g roof_fixture
f 215 221 222
g roof_fixture
f 215 222 223
g roof_fixture
f 215 223 224
g roof_fixture
f 225 226 227
g roof_fixture
f 225 227 228
g roof_fixture
f 225 228 229
g roof_fixture
f 225 229 230
g roof_fixture
f 225 230 231
g roof_fixture
f 225 231 232
g roof_fixture
f 225 232 233
g roof_fixture
f 225 233 234
g roof_fixture
f 225 234 235
g roof_fixture
f 225 235 236
g roof_fixture
f 225 236 237
g roof_fixture
f 225 237 238
g roof_fixture
f 225 238 239
g roof_fixture
f 225 239 240
g roof_fixture
f 241 242 243
g roof_fixture
f 241 243 244
g roof_fixture
f 241 244 245
g roof_fixture
f 241 245 246
g roof_fixture
f 246 247 248
g roof_fixture
f 246 248 241
g roof_step_or_fixture_side
f 21 20 187 186
g roof_step_or_fixture_side
f 22 21 186 185
g roof_step_or_fixture_side
f 23 22 185 184
g roof_step_or_fixture_side
f 24 23 184 183
g facade_completed
f 249 24 183 250 251
g facade_completed
f 252 249 251 253
g facade_completed
f 254 252 253 255
g facade_completed
f 25 254 255 256
g facade_completed
f 26 25 256 257
g facade_completed
f 27 26 257 258
g facade_completed
f 28 27 258 259
g facade_completed
f 29 28 259 260
g roof_step_or_fixture_side
f 166 165 30 29
g roof_step_or_fixture_side
f 165 164 31 30
g roof_step_or_fixture_side
f 164 174 32 31
g roof_step_or_fixture_side
f 233 232 33 32 174
g roof_step_or_fixture_side
f 232 231 34 33
g roof_step_or_fixture_side
f 35 34 210 209
g roof_step_or_fixture_side
f 36 35 209 208
g roof_step_or_fixture_side
f 230 229 161 37 36
g roof_step_or_fixture_side
f 161 163 38 37
g roof_step_or_fixture_side
f 163 162 39 38
g roof_step_or_fixture_side
f 228 227 159 40 39 162
g roof_step_or_fixture_side
f 159 158 41 40
g roof_step_or_fixture_side
f 158 157 97 41
g roof_step_or_fixture_side
f 157 156 42 97
g facade_completed
f 261 42 262 263
g facade_completed
f 264 261 263 265
g facade_completed
f 266 264 265 267
g facade_completed
f 268 266 267 269
g facade_completed
f 270 268 269 271
g facade_completed
f 43 270 271 272
g roof_step_or_fixture_side
f 151 150 44 43
g roof_step_or_fixture_side
f 150 149 45 44
g roof_step_or_fixture_side
f 149 148 46 45
g roof_step_or_fixture_side
f 148 147 47 46
g facade_completed
f 48 47 273 274
g facade_completed
f 49 48 274 275
g facade_completed
f 50 49 275 276
g facade_completed
f 51 50 276 277
g facade_completed
f 52 51 277 278
g facade_completed
f 53 52 278 279
g facade_completed
f 54 53 279 280
g facade_completed
f 55 54 280 281
g facade_completed
f 101 55 281 282
g facade_completed
f 56 101 282 283
g facade_completed
f 57 56 283 284 182
g roof_step_or_fixture_side
f 58 57 182 181
g roof_step_or_fixture_side
f 59 58 181 180
g roof_step_or_fixture_side
f 60 59 180 179
g roof_step_or_fixture_side
f 61 60 179 175
g roof_step_or_fixture_side
f 62 61 175 201
g roof_step_or_fixture_side
f 63 62 201 200
g roof_step_or_fixture_side
f 64 63 200 199
g roof_step_or_fixture_side
f 65 64 199 198
g roof_step_or_fixture_side
f 66 65 198 197
g roof_step_or_fixture_side
f 67 66 197 196
g roof_step_or_fixture_side
f 68 67 196 195
g roof_step_or_fixture_side
f 69 68 195 194
g roof_step_or_fixture_side
f 74 69 194 193
g roof_step_or_fixture_side
f 75 74 193 192
g roof_step_or_fixture_side
f 76 75 192 191
g roof_step_or_fixture_side
f 90 76 191 285
g roof_step_or_fixture_side
f 16 90 285 190
g roof_step_or_fixture_side
f 17 16 190 189
g roof_step_or_fixture_side
f 18 17 189 188
g roof_step_or_fixture_side
f 19 18 188 203
g roof_step_or_fixture_side
f 20 19 203 187
g roof_step_or_fixture_side
f 222 221 287 80
g roof_step_or_fixture_side
f 221 220 288 287
g roof_step_or_fixture_side
f 220 219 289 288
g roof_step_or_fixture_side
f 219 218 99 289
g roof_step_or_fixture_side
f 218 217 290 99
g roof_step_or_fixture_side
f 217 216 81 290
g roof_step_or_fixture_side
f 216 215 141 82 81
g roof_step_or_fixture_side
f 141 120 83 82
g roof_step_or_fixture_side
f 120 140 77 83
g roof_step_or_fixture_side
f 140 139 78 77
g roof_step_or_fixture_side
f 139 138 79 78
g roof_step_or_fixture_side
f 223 222 80 79 138
g roof_step_or_fixture_side
f 121 120 83 5
g roof_step_or_fixture_side
f 120 130 91 83
g roof_step_or_fixture_side
f 130 129 6 91
g roof_step_or_fixture_side
f 129 128 7 6
g roof_step_or_fixture_side
f 128 127 13 7
g roof_step_or_fixture_side
f 127 126 14 13
g roof_step_or_fixture_side
f 126 125 15 14
g roof_step_or_fixture_side
f 125 124 2 15
g roof_step_or_fixture_side
f 124 123 3 2
g roof_step_or_fixture_side
f 123 122 4 3
g roof_step_or_fixture_side
f 122 121 5 4
g roof_step_or_fixture_side
f 145 144 73 98
g roof_step_or_fixture_side
f 144 143 70 73
g roof_step_or_fixture_side
f 143 142 71 70
g roof_step_or_fixture_side
f 142 146 72 71
g roof_step_or_fixture_side
f 146 145 98 72
g roof_step_or_fixture_side
f 119 118 96 95
g roof_step_or_fixture_side
f 118 117 1 96
g roof_step_or_fixture_side
f 117 116 92 1
g roof_step_or_fixture_side
f 116 115 93 92
g roof_step_or_fixture_side
f 115 114 94 93
g roof_step_or_fixture_side
f 114 119 95 94
g roof_step_or_fixture_side
f 247 246 100 87
g roof_step_or_fixture_side
f 246 245 293 100
g roof_step_or_fixture_side
f 245 244 103 293
g roof_step_or_fixture_side
f 244 243 294 103
g roof_step_or_fixture_side
f 243 242 88 294
g roof_step_or_fixture_side
f 242 241 89 88
g roof_step_or_fixture_side
f 84 89 205 204
g roof_step_or_fixture_side
f 85 84 204 207
g roof_step_or_fixture_side
f 86 85 207 206
g roof_step_or_fixture_side
f 248 247 87 86
g roof_step_or_fixture_side
f 135 134 12 102
g roof_step_or_fixture_side
f 134 133 8 12
g roof_step_or_fixture_side
f 133 132 9 8
g roof_step_or_fixture_side
f 132 131 10 9
g roof_step_or_fixture_side
f 131 136 11 10
g roof_step_or_fixture_side
f 136 135 102 11
g roof_step_or_fixture_side
f 107 106 202 177
g roof_step_or_fixture_side
f 104 107 177 176
g roof_step_or_fixture_side
f 105 104 176 178
g roof_step_or_fixture_side
f 106 105 178 202
g roof_step_or_fixture_side
f 236 235 172 113 112
g roof_step_or_fixture_side
f 172 171 108 113
g roof_step_or_fixture_side
f 171 170 109 108
g facade_completed
f 110 109 295 296
g roof_step_or_fixture_side
f 238 237 111 110
g roof_step_or_fixture_side
f 237 236 112 111
g roof_step_or_fixture_side
f 215 224 137 141
g roof_step_or_fixture_side
f 224 223 138 137
g facade_completed
f 147 151 43 272 273 47
g roof_step_or_fixture_side
f 154 153 213 212
g facade_completed
f 155 154 212 299 300
g facade_completed
f 156 155 300 262 42
g roof_step_or_fixture_side
f 227 226 160 159
g roof_step_or_fixture_side
f 226 225 152 160
g roof_step_or_fixture_side
f 153 152 214 213
g roof_step_or_fixture_side
f 229 228 162 161
g facade_completed
f 167 166 29 260 302
g facade_completed
f 168 167 302 303
g facade_completed
f 169 168 303 304
g facade_completed
f 170 169 304 295 109
g roof_step_or_fixture_side
f 235 234 173 172
g roof_step_or_fixture_side
f 234 233 174 173
g facade_completed
f 183 182 284 250
g roof_step_or_fixture_side
f 241 248 86 206 205 89
g roof_step_or_fixture_side
f 231 230 36 208 210 34
g roof_step_or_fixture_side
f 225 240 211 214 152
g facade_completed
f 212 211 306 299
g facade_completed
f 239 238 110 296 307
g facade_completed
f 240 239 307 306 211
g ground_assumed
f 277 279 278
g ground_assumed
f 279 281 280
g ground_assumed
f 282 284 283
g ground_assumed
f 282 250 284
g ground_assumed
f 282 251 250
g ground_assumed
f 282 253 251
g ground_assumed
f 282 255 253
g ground_assumed
f 282 256 255
g ground_assumed
f 282 257 256
g ground_assumed
f 257 259 258
g ground_assumed
f 257 260 259
g ground_assumed
f 257 302 260
g ground_assumed
f 257 303 302
g ground_assumed
f 257 304 303
g ground_assumed
f 257 295 304
g ground_assumed
f 257 296 295
g ground_assumed
f 257 307 296
g ground_assumed
f 257 306 307
g ground_assumed
f 257 299 306
g ground_assumed
f 257 300 299
g ground_assumed
f 257 262 300
g ground_assumed
f 257 263 262
g ground_assumed
f 257 265 263
g ground_assumed
f 257 267 265
g ground_assumed
f 257 269 267
g ground_assumed
f 257 271 269
g ground_assumed
f 257 272 271
g ground_assumed
f 257 273 272
g ground_assumed
f 257 274 273
g ground_assumed
f 257 275 274
g ground_assumed
f 275 277 276
g ground_assumed
f 275 279 277
g ground_assumed
f 275 281 279
g ground_assumed
f 281 257 282
g ground_assumed
f 281 275 257
