v -0.11748354949750461 0.053379677613826011 0.12271445475598161
v -0.22262826768559918 0.031411681010768806 0.12258975263854935
v -0.22097430954674063 0.026055176691949369 0.12256761231841587
v -0.22096830280730195 0.013166198500478734 0.12251313408160142
v -0.21755131838667263 0.014969486702587015 0.12252179127812983
v -0.28996758928299288 0.017113200678165068 0.12250891903733419
v -0.28292335958892517 0.063678094679528785 0.12270787647713081
v -0.43840019116096018 0.0097695268167225235 0.12243292106161797
v -0.43621630200113709 0.0026967892582146942 0.12240368695418755
v -0.45844710205364192 -0.046522353366297578 0.12218891064160955
v -0.45109148546861333 -0.070344233426995209 0.12209044644735915
v -0.47162940592523567 0.0021720496417139776 0.12239074301574375
v -0.26802068529560819 0.078298267949205039 0.12277418781002104
v -0.25525590101638906 0.076844214436543171 0.12277190789548643
v -0.25527085661179233 0.0540282818673989 0.1226754633289636
v -0.048246086026118531 0.083556759659015822 0.1228629800857708
v -0.052245461097685852 0.085516128536728353 0.12287005074606075
v -0.069776881247084796 0.14229333865986196 0.12310473085191627
v -0.13519918901866315 0.122092522836417 0.12299952947389604
v -0.14535288500979962 0.15497625533684373 0.12313544948545922
v -0.17186433797835846 0.14292954691621779 0.12307649980479241
v -0.15396910959127114 0.16281119877417977 0.12316595710960394
v -0.16393622085576157 0.18421744049523747 0.12325341971987881
v -0.15115367099089252 0.1952695442592495 0.12330400716170231
v -0.52560803016473479 0.079647154636930131 0.12270187138681658
v -0.49700739116673459 -0.012978797658015611 0.12231901584040669
v -0.37561890430688871 -0.26456906833194904 0.12129234195660052
v -0.31496503748998139 -0.2752927462549894 0.12126538513295859
v -0.29930739878029999 -0.27573452635255086 0.12126826018509075
v -0.315083449454161 -0.26677763436161461 0.1213013415820389
v -0.33956225576078564 -0.22434008509299874 0.12147330556407214
v -0.32935505859979891 -0.20683635708041642 0.12155038312732182
v -0.33016629997656055 -0.20420907297682389 0.12156124261174168
v -0.32730837270594049 -0.20332661459314941 0.12156583828963501
v -0.32633513799275865 -0.20165767109611796 0.12157318745563052
v -0.32521506135245432 -0.20268025102850842 0.1215692043882008
v -0.29664619167658812 -0.19385887960763776 0.12161514412618148
v -0.28041446294823485 -0.18051715028269705 0.12167645417509654
v -0.27152738883918592 -0.18610280483974975 0.12165553605249546
v -0.27082551307597313 -0.18588608267813034 0.12165666468184849
v -0.27776570618431667 -0.16340959194413976 0.12174956791070159
v -0.17926062063700626 -0.11190003693001788 0.12199712744282348
v -0.02538426138654282 -0.064386763504872935 0.12224456603915332
v -0.023384360249879655 -0.060802251325476522 0.12226032303050341
v -0.035931719015906832 -0.05640844467851143 0.12227509474853192
v -0.012880536804003175 -0.04929080079407213 0.12231216188292077
v -0.0097133713730343865 -0.059547974199953904 0.12226976536732347
v 0.29628354715234662 0.03493642444436118 0.12276181918041666
v 0.33234365575784358 0.094093430640289286 0.12302279017776035
v 0.3618015377912821 -0.0013087865997667494 0.12262845935601271
v 0.42512891940243119 -0.05204622850220849 0.12243317922812215
v 0.45460429699702543 -0.016028337914220894 0.12259434976924276
v 0.37785556134646275 0.2325299103278429 0.12362172818256748
v 0.13958825182269194 0.15895876603000128 0.12323858596335956
v 0.089765620827136391 0.088356657505269651 0.12292506958157172
v -0.053320346113531029 0.22547809309076869 0.1234613265653482
v -0.094983078530951767 0.21261365567710958 0.12339433143478948
v -0.094943468132561604 0.21255191709143004 0.12339408245626432
v -0.048203849593386257 0.20164126442381425 0.12336212101113347
v -0.048536184173393421 0.18186280998282703 0.12327841934693257
v -0.014025013536098528 0.15014693043560032 0.12315481311195378
v 0.018540306371350776 0.14600020004876724 0.12314714876686637
v 0.045539798948533119 0.11360455030905346 0.12301839408318882
v 0.053081291254494227 0.052927761408499634 0.12276420518862344
v 0.087579360108577753 0.061007436797050313 0.12280880571976638
v 0.099201244179398781 0.050052802608928616 0.12276602193478035
v 0.09657550538393371 0.026895086644253975 0.12266734194081787
v -0.0043184886695740816 0.026229163364369895 0.12263396841325512
v -0.023416076642972086 0.0024769225696770559 0.12252778643443256
v -0.087936299840212076 -0.02024612047405288 0.12241219714305182
v -0.11046292116929213 -0.039893485699397158 0.12232232740007147
v -0.12678542438170398 -0.084627885735750349 0.12212829703365033
v -0.089022392855441557 -0.016728702569005768 0.12242673586335626
v -0.047821825009368435 0.018175605159533342 0.12258675076089498
v -0.04846067374953765 0.018586536342721303 0.12258829422357373
v -0.038815836424364945 0.042222613008372385 0.12269112211887993
v -0.18678610292881076 -0.0055463623830092068 0.12244439154664187
v -0.17921919565202687 -0.03005252789963845 0.12234309898618682
v -0.18481201286695426 -0.060835854199130679 0.122211287846689
v -0.1837273746935974 -0.06434856047713057 0.12219676856249399
v -0.2451755656976097 -0.03011778186891028 0.12232284632456109
v -0.20724578413181186 -0.018405988750976487 0.12238383872069762
v -0.21103942158478275 -0.0061199247211259963 0.12243462134817773
v -0.28369907615529549 -0.03491595920719754 0.12229089701227432
v -0.2739021786021022 -0.066644165252825752 0.12215975321846546
v -0.29126884120766983 -0.072006567861519655 0.12213182702377332
v -0.28438309457086292 -0.094306728281675051 0.12203965262939177
v -0.30521989209237793 -0.02682473205534712 0.1223185794114038
v -0.30106573876086318 -0.040278361815891457 0.12226297081758215
v -0.045682480506781718 0.07232010626644314 0.12281626062605022
v -0.2673666846356979 -0.0074519933237201814 0.12241193045607139
v -0.22246902406785382 0.079853270808114649 0.12279455728462778
v -0.22293954247536313 0.085947415608878863 0.12282017395907517
v -0.19840971567469076 0.10344584525949806 0.12290156716318273
v -0.14913335094515437 0.082635039666769675 0.12282852736332328
v -0.1519963793503078 0.073642129384586766 0.12278964831235623
v -0.20402159170294584 -0.094765901694677121 0.12206205166573758
v -0.117993092510845 -0.025674149322227918 0.1223801499827151
v -0.23017728820535185 -0.078691162898466102 0.12212207547612125
v -0.33298273759296437 -0.10931311483291022 0.1219615027033443
v 0.064720990777346943 0.098663779317255437 0.12296105096384292
v -0.45715637303494011 -0.06435724366700131 0.12211391576546478
v -0.35381953507521452 -0.041831118606582292 0.12224042944609147
v -0.083025193719439894 0.16141661877478281 0.12318154989527794
v -0.11948278701864122 0.17984575304390713 0.12324840520364327
v -0.12698510998846943 0.15337001842227171 0.12313422336144007
v -0.092480733822386099 0.14544550365494871 0.12311117810390403
v -0.28044563136083567 -0.24355273946753625 0.12141000133106368
v -0.24982290261025183 -0.22716088774546389 0.12148856263512853
v -0.24819287204976817 -0.2214834521102079 0.12151305413553125
v -0.25261905996182799 -0.22285015118730503 0.12150593667151915
v -0.25383544688280812 -0.22322574186939004 0.12150398065287701
v -0.29035814152874106 -0.23450306078587385 0.12144525089473336
v -0.19840971567469076 0.10344584525949806 0.12694906372509646
v -0.22293954247536313 0.085947415608878863 0.12687102110993198
v -0.22246902406785382 0.079853270808114649 0.12684786975872381
v -0.11748354949750461 0.053379677613826011 0.1267933052177305
v -0.1519963793503078 0.073642129384586766 0.1268555557780181
v -0.14913335094515437 0.082635039666769675 0.12689130930626288
v -0.21103942201669629 -0.0061199233468556321 0.12652340311214233
v -0.21755131838667263 0.014969486702587015 0.12660133818083452
v -0.22096830280730195 0.013166198500478734 0.12659289819755343
v -0.22097430954674063 0.026055176691949369 0.12664230490554468
v -0.22262826748927481 0.031411680461060666 0.12666209966028497
v -0.25527085661179233 0.0540282818673989 0.12673421061043749
v -0.25525590101638906 0.076844214436543171 0.1268216812700102
v -0.26802068529560819 0.078298267949205039 0.12682155040020665
v -0.28292335958892517 0.063678094679528785 0.1267588440926013
v -0.28996758928299288 0.017113200678165068 0.12657719119037975
v -0.2673666846356979 -0.0074519933237201814 0.12649312243893207
v -0.45844710205364192 -0.046522353366297578 0.12625794857736705
v -0.43621630200113709 0.0026967892582146942 0.12645656378457806
v -0.43840019116096018 0.0097695268167225235 0.12648270079705032
v -0.47162940592523567 0.0021720496417139776 0.12643872508774479
v -0.45715637303494011 -0.06435724366700131 0.12619015609514289
v -0.45109148546861333 -0.070344233426995209 0.12616991576268555
v -0.19872565218585528 -0.015775179447574759 0.12649189344857759
v -0.18481201286695426 -0.060835854199130679 0.12632537354043089
v -0.17921919565202687 -0.03005252789963845 0.12644587981411615
v -0.18678610292881076 -0.0055463623830092068 0.1265364413255331
v -0.20724578413181186 -0.018405988750976487 0.12647800047828495
v -0.11046292116929213 -0.039893485699397158 0.12643888399266379
v -0.087936299840212076 -0.02024612047405288 0.12652426917732601
v -0.089022392855441557 -0.016728702569005768 0.12653726765467083
v -0.117993092510845 -0.025674149322227918 0.12649002781766053
v -0.12678542438170398 -0.084627885735750349 0.12626010147005512
v -0.0097133713730343865 -0.059547974199953904 0.12640856707798076
v -0.012880536804003175 -0.04929080079407213 0.12644647204611351
v -0.035931719015906832 -0.05640844467851143 0.12640888465222955
v -0.023384360249879655 -0.060802251325476522 0.12639764893184877
v -0.02538426138654282 -0.064386763504872935 0.12638301401261881
v -0.2505069562464054 -0.18476019185329784 0.12582095361068485
v -0.23855677229630776 -0.17563051328135307 0.12586129276501684
v -0.23497089625173681 -0.17543104174664553 0.12586366004388178
v -0.22037560344024126 -0.12459534265433514 0.12606505971917548
v -0.17926062063700626 -0.11190003693001788 0.12613210212463474
v -0.20402159170294584 -0.094765901694677121 0.12618671877010734
v -0.27776570618431667 -0.16340959194413976 0.12589061757429132
v -0.27082551307597313 -0.18588608267813034 0.12580755663419918
v -0.25195816670780219 -0.18006030547266536 0.12583832183587507
v -0.29664619167658812 -0.19385887960763776 0.12576545323083818
v -0.27152738883918592 -0.18610280483974975 0.12580641214183969
v -0.28041446294823485 -0.18051715028269705 0.12582385265365109
v -0.33956225576078564 -0.22434008509299874 0.12562942433779728
v -0.315083449454161 -0.26677763436161461 0.12547768195887948
v -0.29930739878029999 -0.27573452635255086 0.12545039684167994
v -0.29928036181706341 -0.27571754826308464 0.12545047399714471
v -0.27944375159176649 -0.26326030173985981 0.12550709389689507
v -0.25831412450172991 -0.25673598730581088 0.12554154803287784
v -0.24982290261025183 -0.22716088774546389 0.12565871797076691
v -0.28044563136083567 -0.24355273946753625 0.12558219427773898
v -0.29035814152874106 -0.23450306078587385 0.12561245567189927
v -0.31816142242184992 -0.24308803701147413 0.1255671194741978
v -0.32935505859979891 -0.20683635708041642 0.12570108609786496
v -0.014025013536098528 0.15014693043560032 0.11884723466635731
v -0.083025193719439894 0.16141661877478281 0.11902591447207242
v -0.092480733822386099 0.14544550365494871 0.11895448641649642
v -0.11948278701864122 0.17984575304390713 0.11918863342324511
v -0.048536184173393421 0.18186280998282703 0.11907941151911153
v -0.048203849593386257 0.20164126442381425 0.11918715380524102
v -0.094943468132561604 0.21255191709143004 0.11932613188248403
v -0.094983078530951767 0.21261365567710958 0.1193265370959172
v -0.15115367099089252 0.1952695442592495 0.11932678097000959
v -0.16393622085576157 0.18421744049523747 0.11928792905106601
v -0.15396910959127114 0.16281119877417977 0.11915381369208056
v -0.17186433797835846 0.14292954691621779 0.11907527857768235
v -0.14535288500979962 0.15497625533684373 0.1190963039719016
v -0.069776881247084796 0.14229333865986196 0.11889873827533548
v -0.05224546160812913 0.085516130342912264 0.11855811079824108
v -0.048246086026118531 0.083556759659015822 0.11854060172997091
v -0.038815836424364945 0.042222613008372385 0.11829827247453176
v -0.04846067374953765 0.018586536342721303 0.11818519248304191
v -0.047821825951725253 0.018175604845414403 0.11818185928843511
v -0.023416076642972086 0.0024769225696770559 0.11805452210574116
v -0.0043184886695740816 0.026229163364369895 0.1181522141563711
v 0.09657550538393371 0.026895086644253975 0.11798482735847854
v 0.099201244179398781 0.050052802608928616 0.11810718650199889
v 0.087579360108577753 0.061007436797050313 0.11818687458996799
v 0.053081291254494227 0.052927761408499634 0.11820111116711658
v 0.045539798948533119 0.11360455030905346 0.11854615778725978
v 0.018540306371350776 0.14600020004876724 0.11876932339217483
v -0.12698510998846943 0.15337001842227171 0.11905637168012723
v -0.13519918901866315 0.122092522836417 0.11889902231738737
v -0.28369907615529549 -0.03491595920719754 0.11829098715321089
v -0.30106573876086318 -0.040278361815891457 0.11829106254175659
v -0.29126884120766983 -0.072006567861519655 0.11810071329593366
v -0.2739021786021022 -0.066644165252825752 0.11810063790738795
v -0.32521506135245432 -0.20268025102850842 0.11744269697875361
v -0.32633513799275865 -0.20165767109611796 0.11745019531198096
v -0.32730837156725928 -0.20332661423976556 0.11744270604893801
v -0.24384438326381136 -0.20633758265332758 0.11728473182509588
v -0.23497089499526105 -0.17543104151105635 0.11743893202766317
v -0.23855677229630776 -0.17563051328135307 0.11744391843025354
v -0.25050695585375671 -0.18476019314903847 0.11741418255708061
v -0.20724578413181186 -0.018405988750976487 0.13058184236073025
v -0.2451755656976097 -0.03011778186891028 0.13058184236073025
v -0.24244306647329325 -0.038967246517219681 0.13058184236073025
v -0.23017728820535185 -0.078691162898466102 0.13058184236073025
v -0.19224750663955403 -0.066979369780532302 0.13058184236073025
v -0.19186483226124301 -0.066861209268564537 0.13058184236073025
v -0.18555260748047442 -0.064912147929028649 0.13058184236073025
v -0.1837273746935974 -0.06434856047713057 0.13058184236073025
v -0.18481201286695426 -0.060835854199130679 0.13058184236073025
v -0.19872565218585528 -0.015775179447574759 0.13058184236073025
v -0.25050695585375671 -0.18476019314903847 0.13146162943767031
v -0.25195816670780219 -0.18006030547266536 0.13146162943767031
v -0.27082551307597313 -0.18588608267813034 0.13146162943767031
v -0.27152738883918592 -0.18610280483974975 0.13146162943767031
v -0.29664619167658812 -0.19385887960763776 0.13146162943767031
v -0.32521506135245432 -0.20268025102850842 0.13146162943767031
v -0.32730837156725928 -0.20332661423976556 0.13146162943767031
v -0.33016629997656055 -0.20420907297682389 0.13146162943767031
v -0.32935505859979891 -0.20683635708041642 0.13146162943767031
v -0.31816142242184992 -0.24308803701147413 0.13146162943767031
v -0.29035814152874106 -0.23450306078587385 0.13146162943767031
v -0.25383544688280812 -0.22322574186939004 0.13146162943767031
v -0.25261905996182799 -0.22285015118730503 0.13146162943767031
v -0.24819287204976817 -0.2214834521102079 0.13146162943767031
v -0.2447222560606635 -0.20939523157586148 0.13146162943767031
v -0.24384438326381136 -0.20633758265332758 0.13146162943767031
v -0.30106573876086318 -0.040278361815891457 0.12980260240073468
v -0.30521989209237793 -0.02682473205534712 0.12980260240073468
v -0.35103201505214376 -0.040970400276981421 0.12980260240073468
v -0.35381953507521452 -0.041831118606582292 0.12980260240073468
v -0.34689186804859423 -0.064267042332214447 0.12980260240073468
v -0.33298273759296437 -0.10931311483291022 0.12980260240073468
v -0.28438309457086292 -0.094306728281675051 0.12980260240073468
v -0.29126884120766983 -0.072006567861519655 0.12980260240073468
v -0.19808380333495071 0.18077866195281192 0.12322854185317934
v -0.15115367099089252 0.1952695442592495 -0.12228452610357253
v -0.19808380333495071 0.18077866195281192 -0.12228452610357253
v -0.23401767554831571 0.16968315704230127 0.12317075892805193
v -0.23401767554831571 0.16968315704230127 -0.12228452610357253
v -0.26259819742701285 0.16085818770308674 0.12312480042146459
v -0.26259819742701285 0.16085818770308674 -0.12228452610357253
v -0.52560803016473479 0.079647154636930131 -0.12228452610357253
v -0.49700739116673459 -0.012978797658015611 -0.12228452610357253
v -0.37561890430688871 -0.26456906833194904 -0.12228452610357253
v -0.31496503748998139 -0.2752927462549894 -0.12228452610357253
v -0.29930739878029999 -0.27573452635255086 -0.12228452610357253
v -0.178454003091048 -0.11165097308229018 0.12199842451845833
v -0.17926062063700626 -0.11190003693001788 -0.12228452610357253
v -0.178454003091048 -0.11165097308229018 -0.12228452610357253
v -0.17282643905981512 -0.10991331830513378 0.12200747381395415
v -0.17282643905981512 -0.10991331830513378 -0.12228452610357253
v -0.14393077362395373 -0.100991040336721 0.12205393907292218
v -0.14393077362395373 -0.100991040336721 -0.12228452610357253
v -0.1066462860085398 -0.089478498281263405 0.12211389385566869
v -0.1066462860085398 -0.089478498281263405 -0.12228452610357253
v -0.079956625669152279 -0.081237380952827565 0.12215681173017739
v -0.079956625669152279 -0.081237380952827565 -0.12228452610357253
v -0.02538426138654282 -0.064386763504872935 -0.12228452610357253
v -0.0097133713730343865 -0.059547974199953904 -0.12228452610357253
v 0.29628354715234662 0.03493642444436118 -0.12228452610357253
v 0.33234365575784358 0.094093430640289286 -0.12228452610357253
v 0.3618015377912821 -0.0013087865997667494 -0.12228452610357253
v 0.42512891940243119 -0.05204622850220849 -0.12228452610357253
v 0.45460429699702543 -0.016028337914220894 -0.12228452610357253
v 0.37785556134646275 0.2325299103278429 -0.12228452610357253
v 0.13958825182269194 0.15895876603000128 -0.12228452610357253
v 0.089765620827136391 0.088356657505269651 -0.12228452610357253
v 0.064720990777346943 0.098663779317255437 -0.12228452610357253
v -0.053320346113531029 0.22547809309076869 -0.12228452610357253
v -0.094983078530951767 0.21261365567710958 -0.12228452610357253
v -0.045682481723992606 0.072320105873794477 0.11847472474504558
v -0.052245461097685852 0.085516128536728353 -0.12228452610357253
v -0.18555260755900418 -0.064912147929028649 0.12219383355290908
v -0.19186483226124301 -0.066861209268564537 0.122183683270527
v -0.19224750663955403 -0.066979369780532302 0.12218306791152267
v -0.24244306651255812 -0.038967246360160211 0.12228626835189224
v -0.21103942158478275 -0.0061199247211259963 -0.12228452610357253
v -0.22097430978232982 0.026055177437981854 -0.12228452610357253
v -0.34689186812712397 -0.064267042135890101 0.12214769391748768
v -0.35103201505214376 -0.040970400276981421 0.12224491188410674
v -0.2498229036311384 -0.22716088684237193 -0.12228452610357253
v -0.24819287204976817 -0.2214834521102079 -0.12228452610357253
v -0.25383544664721891 -0.2232257417908603 -0.12228452610357253
v -0.22262826748927481 0.031411680461060666 -0.12228452610357253
v -0.23497089625173681 -0.17543104174664553 -0.12228452610357253
v -0.22037560344024126 -0.12459534265433514 -0.12228452610357253
v -0.2505069562464054 -0.18476019185329784 -0.12228452610357253
v -0.29928036181706341 -0.27571754826308464 -0.12228452610357253
v -0.27944375159176649 -0.26326030173985981 -0.12228452610357253
v -0.25831412450172991 -0.25673598730581088 -0.12228452610357253
v -0.047821825951725253 0.018175604845414403 -0.12228452610357253
v -0.24384438357793028 -0.20633758171097075 -0.12228452610357253
v -0.24472225555022023 -0.20939523153659662 -0.12228452610357253
l 2 3
l 3 4
l 4 5
l 6 7
l 8 9
l 9 10
l 10 11
l 8 12
l 7 13
l 14 15
l 2 15
l 16 17
l 17 18
l 18 19
l 19 20
l 20 21
l 21 22
l 22 23
l 23 24
l 24 249
l 249 252
l 252 254
l 25 254
l 25 26
l 26 27
l 27 28
l 28 29
l 29 30
l 30 31
l 31 32
l 32 33
l 33 34
l 34 35
l 35 36
l 36 37
l 37 38
l 38 39
l 39 40
l 40 41
l 42 261
l 261 264
l 264 266
l 266 268
l 268 270
l 43 270
l 43 44
l 44 45
l 46 47
l 47 48
l 48 49
l 49 50
l 50 51
l 51 52
l 52 53
l 53 54
l 54 55
l 56 57
l 57 58
l 58 59
l 59 60
l 60 61
l 61 62
l 63 64
l 64 65
l 65 66
l 67 68
l 68 69
l 70 71
l 71 72
l 69 74
l 74 75
l 75 76
l 77 78
l 78 79
l 79 80
l 81 82
l 82 83
l 84 85
l 85 86
l 86 87
l 88 89
l 84 89
l 77 83
l 76 90
l 16 90
l 6 91
l 1 92
l 92 93
l 93 94
l 95 96
l 1 96
l 41 97
l 45 46
l 62 63
l 70 73
l 73 98
l 99 290
l 81 290
l 87 100
l 5 83
l 13 14
l 94 95
l 56 101
l 72 98
l 80 287
l 287 288
l 288 289
l 99 289
l 55 101
l 66 67
l 12 102
l 11 102
l 42 97
l 100 293
l 103 293
l 103 294
l 88 294
l 83 91
l 104 105
l 105 106
l 106 107
l 104 107
l 108 109
l 109 110
l 110 111
l 111 112
l 112 113
l 108 113
l 114 115
l 115 116
l 116 117
l 117 118
l 118 119
l 114 119
l 120 121
l 121 122
l 122 123
l 123 124
l 124 125
l 125 126
l 126 127
l 127 128
l 128 129
l 129 130
l 120 130
l 131 132
l 132 133
l 133 134
l 134 135
l 135 136
l 131 136
l 137 138
l 138 139
l 139 140
l 120 140
l 120 141
l 137 141
l 142 143
l 143 144
l 144 145
l 145 146
l 142 146
l 147 148
l 148 149
l 149 150
l 150 151
l 147 151
l 153 154
l 154 155
l 155 156
l 156 157
l 157 158
l 158 159
l 159 160
l 152 160
l 152 153
l 161 162
l 162 163
l 161 163
l 164 165
l 165 166
l 166 167
l 168 169
l 169 170
l 170 171
l 171 172
l 172 173
l 173 174
l 164 174
l 167 168
l 176 177
l 176 178
l 175 179
l 179 180
l 180 181
l 181 182
l 182 183
l 183 184
l 184 185
l 185 186
l 186 187
l 188 189
l 189 190
l 191 192
l 192 193
l 193 194
l 194 195
l 195 196
l 196 197
l 197 198
l 198 199
l 199 200
l 200 201
l 175 201
l 178 202
l 187 203
l 177 202
l 188 203
l 190 285
l 191 285
l 204 205
l 205 206
l 206 207
l 204 207
l 208 209
l 209 210
l 208 210
l 211 212
l 212 213
l 213 214
l 211 214
l 215 216
l 216 217
l 217 218
l 218 219
l 219 220
l 220 221
l 221 222
l 222 223
l 223 224
l 215 224
l 225 226
l 226 227
l 227 228
l 228 229
l 229 230
l 230 231
l 231 232
l 232 233
l 233 234
l 234 235
l 235 236
l 236 237
l 237 238
l 238 239
l 239 240
l 225 240
l 241 242
l 242 243
l 243 244
l 244 245
l 245 246
l 246 247
l 247 248
l 241 248
l 20 187
l 21 186
l 22 185
l 23 184
l 24 183
l 250 251
l 251 253
l 253 255
l 255 256
l 25 256
l 256 257
l 257 258
l 27 258
l 258 259
l 259 260
l 29 260
l 30 165
l 29 166
l 31 164
l 32 174
l 33 232
l 34 210
l 35 209
l 36 208
l 37 161
l 38 163
l 39 162
l 40 159
l 41 158
l 97 157
l 42 156
l 262 263
l 263 265
l 265 267
l 267 269
l 269 271
l 271 272
l 44 150
l 43 151
l 45 149
l 46 148
l 47 147
l 273 274
l 48 274
l 274 275
l 49 275
l 275 276
l 50 276
l 276 277
l 51 277
l 277 278
l 52 278
l 278 279
l 53 279
l 279 280
l 54 280
l 280 281
l 55 281
l 281 282
l 101 282
l 282 283
l 56 283
l 283 284
l 57 182
l 58 181
l 59 180
l 60 179
l 61 175
l 62 201
l 63 200
l 64 199
l 65 198
l 66 197
l 67 196
l 68 195
l 69 194
l 75 192
l 76 191
l 16 190
l 17 189
l 18 188
l 19 203
l 80 222
l 99 218
l 81 216
l 82 141
l 83 120
l 77 140
l 78 139
l 79 138
l 5 121
l 91 130
l 6 129
l 7 128
l 13 127
l 14 126
l 15 125
l 2 124
l 3 123
l 4 122
l 73 144
l 98 145
l 70 143
l 71 142
l 72 146
l 96 118
l 95 119
l 1 117
l 92 116
l 93 115
l 94 114
l 100 246
l 87 247
l 103 244
l 88 242
l 89 205
l 84 204
l 85 207
l 86 206
l 12 134
l 102 135
l 8 133
l 9 132
l 10 131
l 11 136
l 106 202
l 107 177
l 104 176
l 105 178
l 113 172
l 108 171
l 109 170
l 295 296
l 110 238
l 137 224
l 272 273
l 153 213
l 154 212
l 299 300
l 155 300
l 262 300
l 160 226
l 152 214
l 260 302
l 302 303
l 168 303
l 303 304
l 169 304
l 295 304
l 173 234
l 250 284
l 211 240
l 299 306
l 296 307
l 306 307
