# Source coordinates; no display transform
v 2678470 1248934.125 425.439788477
v 2678470.25 1248934.75 425.441656702
v 2678470.75 1248936 425.445393141
v 2678470.75 1248936.25 425.446179723
v 2678470 1248936.75 425.448047507
v 2678465.5 1248939.125 425.457287838
v 2678464.5 1248939.625 425.459253837
v 2678462.75 1248940.5 425.462694355
v 2678461.5 1248941.125 425.465151864
v 2678460.25 1248941.75 425.467609372
v 2678450.75 1248943.25 425.476060983
v 2678450.25 1248942.5 425.473897686
v 2678449.5 1248941.125 425.469866165
v 2678447 1248936.375 425.455903397
v 2678446.5 1248935.375 425.452953529
v 2678447.25 1248934.875 425.451085734
v 2678449.5 1248933.625 425.446268931
v 2678454.75 1248931 425.435947386
v 2678456.75 1248930 425.432015379
v 2678457 1248929.875 425.431523869
v 2678466.75 1248928.125 425.422187483
v 2678470 1248934.125 413.771910888
v 2678470.25 1248934.75 413.771910888
v 2678470.75 1248936 413.771910888
v 2678470.75 1248936.25 413.771910888
v 2678470 1248936.75 413.771910888
v 2678465.5 1248939.125 413.771910888
v 2678464.5 1248939.625 413.771910888
v 2678462.75 1248940.5 413.771910888
v 2678461.5 1248941.125 413.771910888
v 2678460.25 1248941.75 413.771910888
v 2678450.75 1248943.25 413.771910888
v 2678450.25 1248942.5 413.771910888
v 2678449.5 1248941.125 413.771910888
v 2678447 1248936.375 413.771910888
v 2678446.5 1248935.375 413.771910888
v 2678447.25 1248934.875 413.771910888
v 2678449.5 1248933.625 413.771910888
v 2678454.75 1248931 413.771910888
v 2678456.75 1248930 413.771910888
v 2678457 1248929.875 413.771910888
v 2678466.75 1248928.125 413.771910888
g roof
f 1 2 3 4 5 6 7 8 9 10 11 12 13 14 15 16 17 18 19 20 21
g wall
f 2 1 22 23
g wall
f 3 2 23 24
g wall
f 4 3 24 25
g wall
f 5 4 25 26
g wall
f 6 5 26 27
g wall
f 7 6 27 28
g wall
f 8 7 28 29
g wall
f 9 8 29 30
g wall
f 10 9 30 31
g wall
f 11 10 31 32
g wall
f 12 11 32 33
g wall
f 13 12 33 34
g wall
f 14 13 34 35
g wall
f 15 14 35 36
g wall
f 16 15 36 37
g wall
f 17 16 37 38
g wall
f 18 17 38 39
g wall
f 19 18 39 40
g wall
f 20 19 40 41
g wall
f 21 20 41 42
g wall
f 1 21 42 22
g ground_assumed
f 42 41 40 39 38 37 36 35 34 33 32 31 30 29 28 27 26 25 24 23 22
