# Source coordinates; no display transform
v -0.450979996176 -0.0967746709187 0.28077716538
v -0.384414579064 -0.392332486987 0.119569203617
v 0.513813927925 -0.190033810645 0.120743788753
v 0.448910294651 0.0981455016778 0.277927246128
v -0.515496508214 0.189685782065 0.117025527405
v 0.382731998774 0.391984458406 0.109957775964
v -0.450979996176 -0.0967746709187 -0.291942704971
v -0.384414579064 -0.392332486987 -0.291942704971
v 0.513813927925 -0.190033810645 -0.291942704971
v 0.448910294651 0.0981455016778 -0.291942704971
v 0.382731998774 0.391984458406 -0.291942704971
v -0.515496508214 0.189685782065 -0.291942704971
g roof
f 1 2 3 4
g roof
f 5 1 4 6
g wall
f 2 1 7 8
g wall
f 3 2 8 9
g wall
f 4 3 9 10
g wall
f 1 5 12 7
g wall
f 6 4 10 11
g wall
f 5 6 11 12
g ground_assumed
f 12 11 10 9 8 7
