# Source coordinates; no display transform
v 2685636.16474 1246513.81106 521.783857975
v 2685636.25 1246513.875 521.759107748
v 2685637.5 1246515 521.517699119
v 2685638.5 1246516 521.38935718
v 2685642 1246520.25 521.426047619
v 2685642.75 1246521.25 521.491753572
v 2685642.75 1246521.375 521.572734781
v 2685642 1246522.625 522.964690479
v 2685640.42536 1246524.8295 525.615100378
v 2685632.2771 1246518.82153 528.047445905
v 2685628.75 1246510.25 521.319140286
v 2685632 1246511.625 521.346973624
v 2685635.25 1246513.125 521.493076098
v 2685632.26853 1246518.81798 528.047445832
v 2685624.29545 1246512.88637 525.558534976
v 2685626 1246510.5 522.632940076
v 2685626.75 1246509.625 521.511257487
v 2685639.5 1246526.125 524.065121201
v 2685639 1246526.75 523.296869212
v 2685638 1246527.875 521.87578476
v 2685637 1246527.625 521.724315058
v 2685634 1246526.5 521.616164486
v 2685631 1246525.25 521.623433451
v 2685630 1246524.75 521.702802789
v 2685628.91885 1246524.05497 521.931225559
v 2685628.25 1246523.625 521.678073319
v 2685627.5 1246522.875 521.569932392
v 2685625.5 1246520.5 521.527573216
v 2685622.25 1246516.5 521.550995793
v 2685622.25 1246516.125 521.79701243
v 2685622.5 1246515.5 522.407098235
v 2685623.5 1246514 524.191397077
v 2685636.16474 1246513.81106 513.845052485
v 2685636.25 1246513.875 513.845052485
v 2685637.5 1246515 513.845052485
v 2685638.5 1246516 513.845052485
v 2685642 1246520.25 513.845052485
v 2685642.75 1246521.25 513.845052485
v 2685642.75 1246521.375 513.845052485
v 2685642 1246522.625 513.845052485
v 2685640.42536 1246524.8295 513.845052485
v 2685639.5 1246526.125 513.845052485
v 2685639 1246526.75 513.845052485
v 2685638 1246527.875 513.845052485
v 2685637 1246527.625 513.845052485
v 2685634 1246526.5 513.845052485
v 2685631 1246525.25 513.845052485
v 2685630 1246524.75 513.845052485
v 2685628.91885 1246524.05497 513.845052485
v 2685628.25 1246523.625 513.845052485
v 2685627.5 1246522.875 513.845052485
v 2685625.5 1246520.5 513.845052485
v 2685622.25 1246516.5 513.845052485
v 2685622.25 1246516.125 513.845052485
v 2685622.5 1246515.5 513.845052485
v 2685623.5 1246514 513.845052485
v 2685624.29545 1246512.88637 513.845052485
v 2685626 1246510.5 513.845052485
v 2685626.75 1246509.625 513.845052485
v 2685628.75 1246510.25 513.845052485
v 2685632 1246511.625 513.845052485
v 2685635.25 1246513.125 513.845052485
g roof
f 1 2 3 4 5 6 7 8 9 10
g roof
f 11 12 13 1 10 14 15 16 17
g roof
f 9 18 19 20 21 22 23 24 25 14 10
g roof
f 25 26 27 28 29 30 31 32 15 14
g wall
f 2 1 33 34
g wall
f 3 2 34 35
g wall
f 4 3 35 36
g wall
f 5 4 36 37
g wall
f 6 5 37 38
g wall
f 7 6 38 39
g wall
f 8 7 39 40
g wall
f 9 8 40 41
g wall
f 12 11 60 61
g wall
f 13 12 61 62
g wall
f 1 13 62 33
g wall
f 16 15 57 58
g wall
f 17 16 58 59
g wall
f 11 17 59 60
g wall
f 18 9 41 42
g wall
f 19 18 42 43
g wall
f 20 19 43 44
g wall
f 21 20 44 45
g wall
f 22 21 45 46
g wall
f 23 22 46 47
g wall
f 24 23 47 48
g wall
f 25 24 48 49
g wall
f 26 25 49 50
g wall
f 27 26 50 51
g wall
f 28 27 51 52
g wall
f 29 28 52 53
g wall
f 30 29 53 54
g wall
f 31 30 54 55
g wall
f 32 31 55 56
g wall
f 15 32 56 57
g ground_assumed
f 62 61 60 59 58 57 56 55 54 53 52 51 50 49 48 47 46 45 44 43 42 41 40 39 38 37 36 35 34 33
