v 2685636.1647438379 1246513.8110578794 521.78385797549902
v 2685636.2499999995 1246513.8749999984 521.75910774841202
v 2685637.4999999995 1246515.0000000002 521.51769911863028
v 2685638.5000000037 1246516.0000000044 521.38935718049538
v 2685641.9999999972 1246520.2499999958 521.42604761887185
v 2685642.7499999949 1246521.2499999998 521.49175357168565
v 2685642.7499999949 1246521.3749999977 521.57273478140235
v 2685641.9999999972 1246522.6249999977 522.96469047851235
v 2685640.4253566083 1246524.829500746 525.61510037831522
v 2685632.2771039298 1246518.8215332972 528.04744590531948
v 2685628.7500000005 1246510.2499999965 521.31914028585868
v 2685631.9999999981 1246511.6250000047 521.34697362394729
v 2685635.2499999958 1246513.1250000005 521.49307609821335
v 2685632.2685278943 1246518.8179825293 528.04744583241563
v 2685624.2954514232 1246512.8863680151 525.55853497566113
v 2685626.0000000047 1246510.5000000028 522.63294007568027
v 2685626.7500000023 1246509.6249999965 521.51125748699997
v 2685639.4999999972 1246526.1250000014 524.06512120058676
v 2685638.9999999953 1246526.7500000014 523.29686921184418
v 2685638.0000000019 1246527.8750000035 521.87578475990676
v 2685636.9999999977 1246527.6249999972 521.72431505775205
v 2685633.9999999958 1246526.4999999953 521.6161644862724
v 2685631.0000000042 1246525.2499999953 521.62343345075544
v 2685630 1246524.7500000037 521.70280278928169
v 2685628.9188488061 1246524.0549742316 521.93122555936372
v 2685628.2499999981 1246523.6250000016 521.67807331894051
v 2685627.5000000005 1246522.875000004 521.56993239158851
v 2685625.5000000028 1246520.5000000019 521.52757321614536
v 2685622.2500000051 1246516.499999996 521.55099579261093
v 2685622.2500000051 1246516.1250000023 521.79701243038267
v 2685622.5000000009 1246515.5000000023 522.40709823457735
v 2685623.5000000047 1246513.9999999963 524.19139707702152
v 2685636.1647438379 1246513.8110578794 513.845052485118
v 2685636.2499999995 1246513.8749999984 513.845052485118
v 2685637.4999999995 1246515.0000000002 513.845052485118
v 2685638.5000000037 1246516.0000000044 513.845052485118
v 2685641.9999999972 1246520.2499999958 513.845052485118
v 2685642.7499999949 1246521.2499999998 513.845052485118
v 2685642.7499999949 1246521.3749999977 513.845052485118
v 2685641.9999999972 1246522.6249999977 513.845052485118
v 2685640.4253566083 1246524.829500746 513.845052485118
v 2685639.4999999972 1246526.1250000014 513.845052485118
v 2685638.9999999953 1246526.7500000014 513.845052485118
v 2685638.0000000019 1246527.8750000035 513.845052485118
v 2685636.9999999977 1246527.6249999972 513.845052485118
v 2685633.9999999958 1246526.4999999953 513.845052485118
v 2685631.0000000042 1246525.2499999953 513.845052485118
v 2685630 1246524.7500000037 513.845052485118
v 2685628.9188488061 1246524.0549742316 513.845052485118
v 2685628.2499999981 1246523.6250000016 513.845052485118
v 2685627.5000000005 1246522.875000004 513.845052485118
v 2685625.5000000028 1246520.5000000019 513.845052485118
v 2685622.2500000051 1246516.499999996 513.845052485118
v 2685622.2500000051 1246516.1250000023 513.845052485118
v 2685622.5000000009 1246515.5000000023 513.845052485118
v 2685623.5000000047 1246513.9999999963 513.845052485118
v 2685624.2954514232 1246512.8863680151 513.845052485118
v 2685626.0000000047 1246510.5000000028 513.845052485118
v 2685626.7500000023 1246509.6249999965 513.845052485118
v 2685628.7500000005 1246510.2499999965 513.845052485118
v 2685631.9999999981 1246511.6250000047 513.845052485118
v 2685635.2499999958 1246513.1250000005 513.845052485118
l 1 2
l 2 3
l 3 4
l 4 5
l 5 6
l 6 7
l 7 8
l 8 9
l 9 10
l 1 10
l 11 12
l 12 13
l 1 13
l 10 14
l 14 15
l 15 16
l 16 17
l 11 17
l 9 18
l 18 19
l 19 20
l 20 21
l 21 22
l 22 23
l 23 24
l 24 25
l 14 25
l 25 26
l 26 27
l 27 28
l 28 29
l 29 30
l 30 31
l 31 32
l 15 32
l 33 34
l 34 35
l 35 36
l 36 37
l 37 38
l 6 38
l 38 39
l 7 39
l 39 40
l 40 41
l 60 61
l 61 62
l 13 62
l 33 62
l 57 58
l 58 59
l 17 59
l 59 60
l 41 42
l 42 43
l 43 44
l 20 44
l 44 45
l 45 46
l 46 47
l 47 48
l 48 49
l 49 50
l 26 50
l 50 51
l 51 52
l 52 53
l 29 53
l 53 54
l 30 54
l 54 55
l 31 55
l 55 56
l 56 57
