v 0.45079048849733355 0.3381150958284036 0.075242224198515228
v -0.50331077312955008 0.24292154247280262 0.075217403071728084
v -0.45137428684395586 -0.27762491532977934 0.075066438482701392
v 0.50272697478292794 -0.18243136197417839 0.075091259609488523
v 0.45079048849733355 0.3381150958284036 -0.18146241081322234
v -0.50331077312955008 0.24292154247280262 -0.18146241081322234
v -0.45137428684395586 -0.27762491532977934 -0.18146241081322234
v 0.50272697478292794 -0.18243136197417839 -0.18146241081322234
l 1 2
l 2 3
l 3 4
l 1 4
l 1 5
l 5 6
l 2 6
l 6 7
l 3 7
l 7 8
l 4 8
l 5 8
