# pointcloud_to_mesh 0.5.1; candidate requires geometry validation; coordinates preserved
v 11.699189431 -0.925915477 2.673051108
v 11.507854725 0.298626637 3.021745792
v 11.308980253 0.786979373 3.166095917
v 10.311196163 7.172797550 4.984490586
v 8.799735354 6.936631799 4.984056722
v 5.002724832 6.367842534 4.989776331
v 2.526850039 6.000521272 4.994496380
v 2.180317168 5.897388254 4.980777833
v 0.955775054 5.706053548 4.980426329
v 0.297181670 5.593330638 4.977507838
v -7.814770720 4.384643029 4.991527826
v -8.176262710 4.377248376 5.005071273
v -10.013075882 4.090246318 5.004544018
v -10.681376484 3.882890380 4.975735243
v -12.293318117 3.631024500 4.975272536
v -10.894941460 -5.318586104 2.426824748
v -10.349095687 -5.958592512 2.225340342
v -10.691861762 -6.869629145 1.986851870
v -9.065495153 -6.615509363 1.987318717
v -7.235412813 -6.285429980 2.000112463
v 1.273130694 -4.980463686 1.995745296
v 4.055205854 -4.565399830 1.991085003
v 8.498762188 -3.807430961 2.010059691
v 9.408255053 -3.920076683 1.939495945
v 10.037698994 -3.464038116 2.039118382
v 12.089701187 -3.143412774 2.039707407
v 11.821378732 -1.426149058 2.528707109
v 11.308980253 0.786979373 -4.743337063
v 10.311196163 7.172797550 -4.743337063
v 8.799735354 6.936631799 -4.743337063
v 5.002724832 6.367842534 -4.743337063
v 2.526850039 6.000521272 -4.743337063
v 2.180317168 5.897388254 -4.743337063
v 0.955775054 5.706053548 -4.743337063
v 0.297181670 5.593330638 -4.743337063
v -7.814770720 4.384643029 -4.743337063
v -8.176262710 4.377248376 -4.743337063
v -10.013075882 4.090246318 -4.743337063
v -10.681376484 3.882890380 -4.743337063
v -12.293318117 3.631024500 -4.743337063
v -10.894941460 -5.318586104 -4.743337063
v -10.349095687 -5.958592512 -4.743337063
v -10.691861762 -6.869629145 -4.743337063
v -9.065495153 -6.615509363 -4.743337063
v -7.235412813 -6.285429980 -4.743337063
v 1.273130694 -4.980463686 -4.743337063
v 4.055205854 -4.565399830 -4.743337063
v 8.498762188 -3.807430961 -4.743337063
v 9.408255053 -3.920076683 -4.743337063
v 10.037698994 -3.464038116 -4.743337063
v 12.089701187 -3.143412774 -4.743337063
v 11.821378732 -1.426149058 -4.743337063
v 11.699189431 -0.925915477 -4.743337063
v 11.507854725 0.298626637 -4.743337063
g roof
f 1 2 3
g roof
f 3 4 5
g roof
f 3 5 6
g roof
f 3 6 7
g roof
f 3 7 8
g roof
f 3 8 9
g roof
f 3 9 10
g roof
f 3 10 11
g roof
f 3 11 12
g roof
f 3 12 13
g roof
f 3 13 14
g roof
f 3 14 15
g roof
f 3 15 16
g roof
f 3 16 17
g roof
f 3 17 18
g roof
f 3 18 19
g roof
f 3 19 20
g roof
f 3 20 21
g roof
f 3 21 22
g roof
f 3 22 23
g roof
f 3 23 24
g roof
f 3 24 25
g roof
f 3 25 26
g roof
f 26 27 1
g roof
f 26 1 3
g facade_completed
f 4 3 28 29
g facade_completed
f 5 4 29 30
g facade_completed
f 6 5 30 31
g facade_completed
f 7 6 31 32
g facade_completed
f 8 7 32 33
g facade_completed
f 9 8 33 34
g facade_completed
f 10 9 34 35
g facade_completed
f 11 10 35 36
g facade_completed
f 12 11 36 37
g facade_completed
f 13 12 37 38
g facade_completed
f 14 13 38 39
g facade_completed
f 15 14 39 40
g facade_completed
f 16 15 40 41
g facade_completed
f 17 16 41 42
g facade_completed
f 18 17 42 43
g facade_completed
f 19 18 43 44
g facade_completed
f 20 19 44 45
g facade_completed
f 21 20 45 46
g facade_completed
f 22 21 46 47
g facade_completed
f 23 22 47 48
g facade_completed
f 24 23 48 49
g facade_completed
f 25 24 49 50
g facade_completed
f 26 25 50 51
g facade_completed
f 27 26 51 52
g facade_completed
f 1 27 52 53
g facade_completed
f 2 1 53 54
g facade_completed
f 3 2 54 28
g ground_assumed
f 28 30 29
g ground_assumed
f 28 31 30
g ground_assumed
f 28 32 31
g ground_assumed
f 28 33 32
g ground_assumed
f 28 34 33
g ground_assumed
f 28 35 34
g ground_assumed
f 28 36 35
g ground_assumed
f 28 37 36
g ground_assumed
f 28 38 37
g ground_assumed
f 28 39 38
g ground_assumed
f 28 40 39
g ground_assumed
f 28 41 40
g ground_assumed
f 28 42 41
g ground_assumed
f 28 43 42
g ground_assumed
f 28 44 43
g ground_assumed
f 28 45 44
g ground_assumed
f 28 46 45
g ground_assumed
f 28 47 46
g ground_assumed
f 28 48 47
g ground_assumed
f 28 49 48
g ground_assumed
f 28 50 49
g ground_assumed
f 28 51 50
g ground_assumed
f 51 53 52
g ground_assumed
f 53 28 54
g ground_assumed
f 53 51 28
