# Source coordinates; no display transform
v 2682709.07629 1251840.88688 446.035885196
v 2682708.92376 1251841.86306 446.313855476
v 2682708.76522 1251842.25236 446.42892762
v 2682707.96982 1251847.34297 447.878504281
v 2682706.76492 1251847.1547 447.878158416
v 2682703.73804 1251846.70128 447.882717938
v 2682701.76434 1251846.40846 447.886480638
v 2682701.48809 1251846.32624 447.875544571
v 2682700.51192 1251846.17372 447.875264361
v 2682699.98691 1251846.08386 447.872937817
v 2682693.52027 1251845.12032 447.884114184
v 2682693.2321 1251845.11443 447.894910666
v 2682691.76784 1251844.88564 447.894490352
v 2682691.23509 1251844.72034 447.87152475
v 2682689.95009 1251844.51956 447.871155892
v 2682691.06484 1251837.38516 445.839599983
v 2682691.49997 1251836.87497 445.678981885
v 2682691.22673 1251836.14871 445.488865114
v 2682692.52322 1251836.35129 445.489237272
v 2682693.98212 1251836.61442 445.499436112
v 2682700.76491 1251837.6547 445.495954721
v 2682702.9827 1251837.98558 445.492239657
v 2682706.52499 1251838.58982 445.507365782
v 2682707.25001 1251838.50002 445.45111421
v 2682707.75179 1251838.86356 445.53053061
v 2682709.38759 1251839.11915 445.531000166
v 2682709.17369 1251840.48811 445.920817936
v 2682708.76522 1251842.25236 440.123734558
v 2682707.96982 1251847.34297 440.123734558
v 2682706.76492 1251847.1547 440.123734558
v 2682703.73804 1251846.70128 440.123734558
v 2682701.76434 1251846.40846 440.123734558
v 2682701.48809 1251846.32624 440.123734558
v 2682700.51192 1251846.17372 440.123734558
v 2682699.98691 1251846.08386 440.123734558
v 2682693.52027 1251845.12032 440.123734558
v 2682693.2321 1251845.11443 440.123734558
v 2682691.76784 1251844.88564 440.123734558
v 2682691.23509 1251844.72034 440.123734558
v 2682689.95009 1251844.51956 440.123734558
v 2682691.06484 1251837.38516 440.123734558
v 2682691.49997 1251836.87497 440.123734558
v 2682691.22673 1251836.14871 440.123734558
v 2682692.52322 1251836.35129 440.123734558
v 2682693.98212 1251836.61442 440.123734558
v 2682700.76491 1251837.6547 440.123734558
v 2682702.9827 1251837.98558 440.123734558
v 2682706.52499 1251838.58982 440.123734558
v 2682707.25001 1251838.50002 440.123734558
v 2682707.75179 1251838.86356 440.123734558
v 2682709.38759 1251839.11915 440.123734558
v 2682709.17369 1251840.48811 440.123734558
v 2682709.07629 1251840.88688 440.123734558
v 2682708.92376 1251841.86306 440.123734558
g roof
f 1 2 3
g roof
f 3 4 5
g roof
f 3 5 6
g roof
f 3 6 7
g roof
f 3 7 8
g roof
f 3 8 9
g roof
f 3 9 10
g roof
f 3 10 11
g roof
f 3 11 12
g roof
f 3 12 13
g roof
f 3 13 14
g roof
f 3 14 15
g roof
f 3 15 16
g roof
f 3 16 17
g roof
f 3 17 18
g roof
f 3 18 19
g roof
f 3 19 20
g roof
f 3 20 21
g roof
f 3 21 22
g roof
f 3 22 23
g roof
f 3 23 24
g roof
f 3 24 25
g roof
f 3 25 26
g roof
f 26 27 1
g roof
f 26 1 3
g facade_completed
f 4 3 28 29
g facade_completed
f 5 4 29 30
g facade_completed
f 6 5 30 31
g facade_completed
f 7 6 31 32
g facade_completed
f 8 7 32 33
g facade_completed
f 9 8 33 34
g facade_completed
f 10 9 34 35
g facade_completed
f 11 10 35 36
g facade_completed
f 12 11 36 37
g facade_completed
f 13 12 37 38
g facade_completed
f 14 13 38 39
g facade_completed
f 15 14 39 40
g facade_completed
f 16 15 40 41
g facade_completed
f 17 16 41 42
g facade_completed
f 18 17 42 43
g facade_completed
f 19 18 43 44
g facade_completed
f 20 19 44 45
g facade_completed
f 21 20 45 46
g facade_completed
f 22 21 46 47
g facade_completed
f 23 22 47 48
g facade_completed
f 24 23 48 49
g facade_completed
f 25 24 49 50
g facade_completed
f 26 25 50 51
g facade_completed
f 27 26 51 52
g facade_completed
f 1 27 52 53
g facade_completed
f 2 1 53 54
g facade_completed
f 3 2 54 28
g ground_assumed
f 28 30 29
g ground_assumed
f 28 31 30
g ground_assumed
f 28 32 31
g ground_assumed
f 28 33 32
g ground_assumed
f 28 34 33
g ground_assumed
f 28 35 34
g ground_assumed
f 28 36 35
g ground_assumed
f 28 37 36
g ground_assumed
f 28 38 37
g ground_assumed
f 28 39 38
g ground_assumed
f 28 40 39
g ground_assumed
f 28 41 40
g ground_assumed
f 28 42 41
g ground_assumed
f 28 43 42
g ground_assumed
f 28 44 43
g ground_assumed
f 28 45 44
g ground_assumed
f 28 46 45
g ground_assumed
f 28 47 46
g ground_assumed
f 28 48 47
g ground_assumed
f 28 49 48
g ground_assumed
f 28 50 49
g ground_assumed
f 28 51 50
g ground_assumed
f 51 53 52
g ground_assumed
f 53 28 54
g ground_assumed
f 53 51 28
