v 2682709.0762877651 1251840.8868844036 446.03588519585821
v 2682708.9237607424 1251841.8630573431 446.31385547612666
v 2682708.7652232158 1251842.2523593688 446.42892761959251
v 2682707.9698158414 1251847.3429665673 447.87850428070567
v 2682706.7649188242 1251847.1547014087 447.8781584156747
v 2682703.7380413655 1251846.701277486 447.88271793834514
v 2682701.764338749 1251846.4084585849 447.88648063793198
v 2682701.4880918097 1251846.3262436411 447.8755445711393
v 2682700.5119188703 1251846.1737166187 447.87526436134578
v 2682699.9869054533 1251846.0838568637 447.87293781666801
v 2682693.5202692156 1251845.1203227208 447.88411418434021
v 2682693.2320972579 1251845.1144278969 447.89491066599345
v 2682691.767837848 1251844.8856373644 447.89449035210038
v 2682691.2350860909 1251844.7203386349 447.87152475030496
v 2682689.9500883892 1251844.5195577443 447.87115589238891
v 2682691.0648376788 1251837.3851622916 445.83959998292192
v 2682691.4999716496 1251836.8749659257 445.67898188526965
v 2682691.2267275015 1251836.1487113545 445.48886511422461
v 2682692.5232244167 1251836.3512889969 445.48923727244033
v 2682693.9821181833 1251836.6144196461 445.49943611206851
v 2682700.7649064842 1251837.6547046378 445.49595472078073
v 2682702.9827040229 1251837.9855826858 445.49223965711388
v 2682706.5249908897 1251838.5898156399 445.50736578201168
v 2682707.2500148094 1251838.5000174171 445.45111420964065
v 2682707.751791053 1251838.8635594328 445.53053061030454
v 2682709.3875935208 1251839.1191535678 445.53100016562576
v 2682709.173693879 1251840.488111279 445.92081793587926
v 2682708.7652232158 1251842.2523593688 440.12373455787304
v 2682707.9698158414 1251847.3429665673 440.12373455787304
v 2682706.7649188242 1251847.1547014087 440.12373455787304
v 2682703.7380413655 1251846.701277486 440.12373455787304
v 2682701.764338749 1251846.4084585849 440.12373455787304
v 2682701.4880918097 1251846.3262436411 440.12373455787304
v 2682700.5119188703 1251846.1737166187 440.12373455787304
v 2682699.9869054533 1251846.0838568637 440.12373455787304
v 2682693.5202692156 1251845.1203227208 440.12373455787304
v 2682693.2320972579 1251845.1144278969 440.12373455787304
v 2682691.767837848 1251844.8856373644 440.12373455787304
v 2682691.2350860909 1251844.7203386349 440.12373455787304
v 2682689.9500883892 1251844.5195577443 440.12373455787304
v 2682691.0648376788 1251837.3851622916 440.12373455787304
v 2682691.4999716496 1251836.8749659257 440.12373455787304
v 2682691.2267275015 1251836.1487113545 440.12373455787304
v 2682692.5232244167 1251836.3512889969 440.12373455787304
v 2682693.9821181833 1251836.6144196461 440.12373455787304
v 2682700.7649064842 1251837.6547046378 440.12373455787304
v 2682702.9827040229 1251837.9855826858 440.12373455787304
v 2682706.5249908897 1251838.5898156399 440.12373455787304
v 2682707.2500148094 1251838.5000174171 440.12373455787304
v 2682707.751791053 1251838.8635594328 440.12373455787304
v 2682709.3875935208 1251839.1191535678 440.12373455787304
v 2682709.173693879 1251840.488111279 440.12373455787304
v 2682709.0762877651 1251840.8868844036 440.12373455787304
v 2682708.9237607424 1251841.8630573431 440.12373455787304
l 1 2
l 2 3
l 3 4
l 4 5
l 5 6
l 6 7
l 7 8
l 8 9
l 9 10
l 10 11
l 11 12
l 12 13
l 13 14
l 14 15
l 15 16
l 16 17
l 17 18
l 18 19
l 19 20
l 20 21
l 21 22
l 22 23
l 23 24
l 24 25
l 25 26
l 26 27
l 1 27
l 3 28
l 28 29
l 4 29
l 29 30
l 30 31
l 31 32
l 32 33
l 33 34
l 34 35
l 35 36
l 36 37
l 37 38
l 38 39
l 39 40
l 15 40
l 40 41
l 16 41
l 41 42
l 17 42
l 42 43
l 18 43
l 43 44
l 44 45
l 45 46
l 46 47
l 47 48
l 23 48
l 48 49
l 24 49
l 49 50
l 25 50
l 50 51
l 26 51
l 51 52
l 52 53
l 53 54
l 2 54
l 28 54
