v -0.037060583997240097 0.73056777490493197 0.26799519845564274
v -0.71571936978898298 0.07857971504392712 0.26808579896000362
v -0.06689601929021044 -0.59678490356122182 0.26758274397701981
v 0.61176276650153238 0.05520315580295005 0.26749214347265898
v -0.037060583997240097 0.73056777490493197 -0.2661532694016403
v -0.71571936978898298 0.07857971504392712 -0.2661532694016403
v -0.06689601929021044 -0.59678490356122182 -0.2661532694016403
v 0.61176276650153238 0.05520315580295005 -0.2661532694016403
l 1 2
l 2 3
l 3 4
l 1 4
l 1 5
l 5 6
l 2 6
l 6 7
l 3 7
l 7 8
l 4 8
l 5 8
