# pointcloud_to_mesh 0.5.1; candidate requires geometry validation; coordinates preserved
v 0.876555445 8.740038710 5.260536683
v -8.019140672 -4.915669120 5.259112119
v -7.552683170 -5.081209595 5.259183868
v -1.925954401 -8.746612362 5.260043760
v 1.284118152 -3.818857151 5.260557823
v 2.656462592 -3.116103398 5.260772893
v 3.104318463 -3.407848782 5.260841336
v 6.010801151 1.053868196 5.261306782
v 6.231871560 2.013572773 5.261344261
v 6.913510637 2.474419351 5.261451459
v 8.208434397 4.462245857 5.261658830
v 7.453237959 4.954201170 5.261543418
v 7.160018837 4.504082978 5.261496462
v 5.518327524 5.573524945 5.261245574
v 5.811546645 6.023643137 5.261292531
v 5.572243303 6.179531784 5.261255960
v 4.563217830 6.338447473 5.261100089
v 7.160018837 4.504082978 6.139145000
v 7.453237959 4.954201170 6.139145000
v 5.811546645 6.023643137 6.139145000
v 5.518327524 5.573524945 6.139145000
v -7.552683170 -5.081209595 -6.089859500
v -1.925954401 -8.746612362 -6.089859500
v 1.284118152 -3.818857151 -6.089859500
v 2.656462592 -3.116103398 -6.089859500
v 3.104318463 -3.407848782 -6.089859500
v 6.010801151 1.053868196 -6.089859500
v 6.231871560 2.013572773 -6.089859500
v 6.913510637 2.474419351 -6.089859500
v 8.208434397 4.462245857 -6.089859500
v 7.453237959 4.954201170 -6.089859500
v 5.811546645 6.023643137 -6.089859500
v 5.572243303 6.179531784 -6.089859500
v 4.563217830 6.338447473 -6.089859500
v 0.876555445 8.740038710 -6.089859500
v -8.019140672 -4.915669120 -6.089859500
g roof
f 1 2 3
g roof
f 1 3 4
g roof
f 1 4 5
g roof
f 1 5 6
g roof
f 1 6 7
g roof
f 1 7 8
g roof
f 1 8 9
g roof
f 1 9 10
g roof
f 10 11 12
g roof
f 10 12 13
g roof
f 10 13 14
g roof
f 14 15 16
g roof
f 14 16 17
g roof
f 14 17 1
g roof
f 14 1 10
g roof_fixture
f 18 19 20
g roof_fixture
f 18 20 21
g facade_completed
f 4 3 22 23
g facade_completed
f 5 4 23 24
g facade_completed
f 6 5 24 25
g facade_completed
f 7 6 25 26
g facade_completed
f 8 7 26 27
g facade_completed
f 9 8 27 28
g facade_completed
f 10 9 28 29
g facade_completed
f 11 10 29 30
g facade_completed
f 12 11 30 31
g roof_step_or_fixture_side
f 19 18 13 12
g roof_step_or_fixture_side
f 18 21 14 13
g roof_step_or_fixture_side
f 21 20 15 14
g facade_completed
f 16 15 32 33
g facade_completed
f 17 16 33 34
g facade_completed
f 1 17 34 35
g facade_completed
f 2 1 35 36
g facade_completed
f 3 2 36 22
g facade_completed
f 20 19 12 31 32 15
g ground_assumed
f 22 24 23
g ground_assumed
f 22 25 24
g ground_assumed
f 25 27 26
g ground_assumed
f 25 28 27
g ground_assumed
f 28 30 29
g ground_assumed
f 28 31 30
g ground_assumed
f 28 32 31
g ground_assumed
f 28 33 32
g ground_assumed
f 28 34 33
g ground_assumed
f 28 35 34
g ground_assumed
f 28 36 35
g ground_assumed
f 28 22 36
g ground_assumed
f 28 25 22
