v 2680847.1538620694 1250256.8846551739 500.07247301959273
v 2680849.3965517231 1250262.4913793101 500.05478096355063
v 2680841.034482759 1250265.8362068965 500.07004080679411
v 2680838.7917931057 1250260.2294827604 500.08773286283622
v 2680847.1538620694 1250256.8846551739 497.50923492282482
v 2680849.3965517231 1250262.4913793101 497.50923492282482
v 2680841.034482759 1250265.8362068965 497.50923492282482
v 2680838.7917931057 1250260.2294827604 497.50923492282482
l 1 2
l 2 3
l 3 4
l 1 4
l 1 5
l 5 6
l 2 6
l 6 7
l 3 7
l 7 8
l 4 8
l 5 8
