# XYZ-only planar convex-roof baseline. Provisional base; no GT.
v 4.82723615 8.89233236 5.33707664
v 4.18977490 9.54289558 5.33756672
v -6.56643870 8.94524417 5.34212457
v -6.76019668 8.93440985 5.34220665
v -6.78564474 8.91937618 5.34221307
v -7.15258389 8.55361284 5.34225780
v -7.17685613 8.51800236 5.34225710
v -8.72146084 5.82109617 5.34207435
v -8.74556510 5.75155495 5.34206269
v -10.06172520 -2.91590226 5.33986455
v -9.98092972 -3.01399906 5.33979742
v -9.77390179 -3.24849073 5.33963081
v -9.69705369 -3.32626268 5.33957194
v -7.44578247 -5.30869156 5.33794219
v -7.42176219 -5.32632882 5.33792593
v 0.60378246 -9.58060573 5.33301801
v 0.78301069 -9.64048846 5.33291967
v 3.23929416 -7.56785756 5.33249969
v 3.50620480 -7.32925052 5.33245834
v 3.81527692 -7.03538005 5.33241610
v 9.89921038 -1.18971768 5.33160416
v 10.06500069 -1.02905058 5.33158248
v 10.06508468 -1.02846267 5.33158263
v 10.06508468 -1.01964403 5.33158545
v 10.06491670 -1.01695645 5.33158639
v 9.30634622 1.74797920 5.33280795
v 8.49881133 3.09336676 5.33359593
v 7.65247445 4.47713638 5.33441336
v 6.68385251 6.04357771 5.33534335
v 5.75680413 7.53737028 5.33623170
v 5.36508882 8.15736223 5.33660347
v 5.21928741 8.38177546 5.33673981
v 5.11531152 8.53731936 5.33683560
v 4.90845156 8.79809896 5.33701056
v 4.82723615 8.89233236 -5.40965492
v 4.18977490 9.54289558 -5.40965492
v -6.56643870 8.94524417 -5.40965492
v -6.76019668 8.93440985 -5.40965492
v -6.78564474 8.91937618 -5.40965492
v -7.15258389 8.55361284 -5.40965492
v -7.17685613 8.51800236 -5.40965492
v -8.72146084 5.82109617 -5.40965492
v -8.74556510 5.75155495 -5.40965492
v -10.06172520 -2.91590226 -5.40965492
v -9.98092972 -3.01399906 -5.40965492
v -9.77390179 -3.24849073 -5.40965492
v -9.69705369 -3.32626268 -5.40965492
v -7.44578247 -5.30869156 -5.40965492
v -7.42176219 -5.32632882 -5.40965492
v 0.60378246 -9.58060573 -5.40965492
v 0.78301069 -9.64048846 -5.40965492
v 3.23929416 -7.56785756 -5.40965492
v 3.50620480 -7.32925052 -5.40965492
v 3.81527692 -7.03538005 -5.40965492
v 9.89921038 -1.18971768 -5.40965492
v 10.06500069 -1.02905058 -5.40965492
v 10.06508468 -1.02846267 -5.40965492
v 10.06508468 -1.01964403 -5.40965492
v 10.06491670 -1.01695645 -5.40965492
v 9.30634622 1.74797920 -5.40965492
v 8.49881133 3.09336676 -5.40965492
v 7.65247445 4.47713638 -5.40965492
v 6.68385251 6.04357771 -5.40965492
v 5.75680413 7.53737028 -5.40965492
v 5.36508882 8.15736223 -5.40965492
v 5.21928741 8.38177546 -5.40965492
v 5.11531152 8.53731936 -5.40965492
v 4.90845156 8.79809896 -5.40965492
g roof
f 1 2 3 4 5 6 7 8 9 10 11 12 13 14 15 16 17 18 19 20 21 22 23 24 25 26 27 28 29 30 31 32 33 34
g wall
f 2 1 35 36
g wall
f 3 2 36 37
g wall
f 4 3 37 38
g wall
f 5 4 38 39
g wall
f 6 5 39 40
g wall
f 7 6 40 41
g wall
f 8 7 41 42
g wall
f 9 8 42 43
g wall
f 10 9 43 44
g wall
f 11 10 44 45
g wall
f 12 11 45 46
g wall
f 13 12 46 47
g wall
f 14 13 47 48
g wall
f 15 14 48 49
g wall
f 16 15 49 50
g wall
f 17 16 50 51
g wall
f 18 17 51 52
g wall
f 19 18 52 53
g wall
f 20 19 53 54
g wall
f 21 20 54 55
g wall
f 22 21 55 56
g wall
f 23 22 56 57
g wall
f 24 23 57 58
g wall
f 25 24 58 59
g wall
f 26 25 59 60
g wall
f 27 26 60 61
g wall
f 28 27 61 62
g wall
f 29 28 62 63
g wall
f 30 29 63 64
g wall
f 31 30 64 65
g wall
f 32 31 65 66
g wall
f 33 32 66 67
g wall
f 34 33 67 68
g wall
f 1 34 68 35
g ground_assumed
f 68 67 66 65 64 63 62 61 60 59 58 57 56 55 54 53 52 51 50 49 48 47 46 45 44 43 42 41 40 39 38 37 36 35
