v 0.24049655769883896 0.44156895448242461 0.26777997083555549
v 0.20882537015331576 0.47389109131951002 0.26780431963415668
v -0.32557896925603225 0.44419778856117553 0.26803076872757897
v -0.33520550784645126 0.44365950363695739 0.26803484673400485
v -0.33646985180607192 0.44291258108744164 0.26803516570088171
v -0.35470060487136784 0.42474024615976252 0.26803738803552385
v -0.35590653019653851 0.42297099949470474 0.26803735325720401
v -0.43264761124908641 0.2889797620098028 0.26802827363154214
v -0.43384519077114525 0.2855247237298062 0.26802769432409906
v -0.49923638649799851 -0.14510327576146839 0.26791848344392194
v -0.49522219928283756 -0.14997704989348923 0.26791514820304269
v -0.48493636559774456 -0.16162737320087919 0.26790687046607131
v -0.48111829730321359 -0.16549134142519251 0.26790394560936698
v -0.36926768203136945 -0.26398497826059464 0.26782297422812251
v -0.36807427491403333 -0.2648612557900118 0.26782216637743433
v 0.030661381198585812 -0.47622783201280011 0.26757832464622572
v 0.039566033655158143 -0.47920300449986181 0.26757343878911166
v 0.16160233694941878 -0.37622783236736501 0.26755257279083278
v 0.17486334212790708 -0.36437304383940017 0.26755051838579247
v 0.19021906936248401 -0.34977258495745073 0.26754841976260252
v 0.492489046755061 -0.059340704983448227 0.26750807989250741
v 0.50072605881068077 -0.051358230979741605 0.26750700275825645
v 0.50073023171223663 -0.051329021662516607 0.26750701021075363
v 0.50073023171223663 -0.050890882400974904 0.26750715031769956
v 0.50072188590912481 -0.050757354519517642 0.26750719702001485
v 0.46303359044241599 0.086613811998373591 0.26756788816925431
v 0.42291258081125266 0.15345712480236573 0.26760703762714233
v 0.38086375972107189 0.22220738555126204 0.26764765025863219
v 0.33273941157842241 0.30003338225535786 0.26769385524396339
v 0.28668057567780342 0.37424994779338716 0.26773799141609317
v 0.26721886087166774 0.40505320261893879 0.26775646218179666
v 0.25997496361436506 0.4162027956256143 0.26776323600484858
v 0.25480909680692748 0.42393073207424092 0.2677679951695115
v 0.24453160842811317 0.43688712686631109 0.26777668776215613
v 0.24049655769883896 0.44156895448242461 -0.2661532694016403
v 0.20882537015331576 0.47389109131951002 -0.2661532694016403
v -0.32557896925603225 0.44419778856117553 -0.2661532694016403
v -0.33520550784645126 0.44365950363695739 -0.2661532694016403
v -0.33646985180607192 0.44291258108744164 -0.2661532694016403
v -0.35470060487136784 0.42474024615976252 -0.2661532694016403
v -0.35590653019653851 0.42297099949470474 -0.2661532694016403
v -0.43264761124908641 0.2889797620098028 -0.2661532694016403
v -0.43384519077114525 0.2855247237298062 -0.2661532694016403
v -0.49923638649799851 -0.14510327576146839 -0.2661532694016403
v -0.49522219928283756 -0.14997704989348923 -0.2661532694016403
v -0.48493636559774456 -0.16162737320087919 -0.2661532694016403
v -0.48111829730321359 -0.16549134142519251 -0.2661532694016403
v -0.36926768203136945 -0.26398497826059464 -0.2661532694016403
v -0.36807427491403333 -0.2648612557900118 -0.2661532694016403
v 0.030661381198585812 -0.47622783201280011 -0.2661532694016403
v 0.039566033655158143 -0.47920300449986181 -0.2661532694016403
v 0.16160233694941878 -0.37622783236736501 -0.2661532694016403
v 0.17486334212790708 -0.36437304383940017 -0.2661532694016403
v 0.19021906936248401 -0.34977258495745073 -0.2661532694016403
v 0.492489046755061 -0.059340704983448227 -0.2661532694016403
v 0.50072605881068077 -0.051358230979741605 -0.2661532694016403
v 0.50073023171223663 -0.051329021662516607 -0.2661532694016403
v 0.50073023171223663 -0.050890882400974904 -0.2661532694016403
v 0.50072188590912481 -0.050757354519517642 -0.2661532694016403
v 0.46303359044241599 0.086613811998373591 -0.2661532694016403
v 0.42291258081125266 0.15345712480236573 -0.2661532694016403
v 0.38086375972107189 0.22220738555126204 -0.2661532694016403
v 0.33273941157842241 0.30003338225535786 -0.2661532694016403
v 0.28668057567780342 0.37424994779338716 -0.2661532694016403
v 0.26721886087166774 0.40505320261893879 -0.2661532694016403
v 0.25997496361436506 0.4162027956256143 -0.2661532694016403
v 0.25480909680692748 0.42393073207424092 -0.2661532694016403
v 0.24453160842811317 0.43688712686631109 -0.2661532694016403
l 1 2
l 2 3
l 3 4
l 4 5
l 5 6
l 6 7
l 7 8
l 8 9
l 9 10
l 10 11
l 11 12
l 12 13
l 13 14
l 14 15
l 15 16
l 16 17
l 17 18
l 18 19
l 19 20
l 20 21
l 21 22
l 22 23
l 23 24
l 24 25
l 25 26
l 26 27
l 27 28
l 28 29
l 29 30
l 30 31
l 31 32
l 32 33
l 33 34
l 1 34
l 35 36
l 2 36
l 36 37
l 37 38
l 4 38
l 38 39
l 5 39
l 39 40
l 6 40
l 40 41
l 41 42
l 8 42
l 42 43
l 9 43
l 43 44
l 10 44
l 44 45
l 45 46
l 46 47
l 47 48
l 48 49
l 49 50
l 50 51
l 17 51
l 51 52
l 52 53
l 53 54
l 54 55
l 55 56
l 22 56
l 56 57
l 57 58
l 58 59
l 25 59
l 59 60
l 26 60
l 60 61
l 61 62
l 62 63
l 63 64
l 64 65
l 65 66
l 66 67
l 67 68
l 35 68
