# pointcloud_to_mesh 0.4.1; candidate requires geometry validation; coordinates preserved
v -4.129588425 -2.683635618 4.590516772
v -2.346646383 -4.341904500 4.599409806
v 4.142456892 2.635067186 4.585297206
v 2.350435019 4.301780988 4.576358882
v 0.523199646 2.337169095 4.580332782
v 4.142456892 2.635067186 -4.350731500
v 2.350435019 4.301780988 -4.350731500
v 0.523199646 2.337169095 -4.350731500
v -4.129588425 -2.683635618 -4.350731500
v -2.346646383 -4.341904500 -4.350731500
g roof
f 1 2 3
g roof
f 1 3 4
g roof
f 1 4 5
g facade_completed
f 4 3 6 7
g facade_completed
f 5 4 7 8
g facade_completed
f 1 5 8 9
g facade_completed
f 2 1 9 10
g facade_completed
f 3 2 10 6
g ground_assumed
f 10 7 6
g ground_assumed
f 10 8 7
g ground_assumed
f 10 9 8
