# XYZ-only planar convex-roof baseline. Provisional base; no GT.
v -2.91023616 -7.92788472 1.19797208
v 9.33282632 -2.20776537 1.18900457
v 12.34341546 -0.60211783 1.18531642
v 12.34341546 -0.50176486 1.18456878
v 7.52647284 8.22894364 1.10628540
v 7.32576690 8.32929661 1.10498615
v -10.33635603 7.62682581 1.06167818
v -12.34341546 6.62329610 1.06363852
v -12.34341546 6.32223718 1.06588144
v -4.51588370 -8.32929661 1.19654979
v -2.91023616 -7.92788472 -1.77051297
v 9.33282632 -2.20776537 -1.77051297
v 12.34341546 -0.60211783 -1.77051297
v 12.34341546 -0.50176486 -1.77051297
v 7.52647284 8.22894364 -1.77051297
v 7.32576690 8.32929661 -1.77051297
v -10.33635603 7.62682581 -1.77051297
v -12.34341546 6.62329610 -1.77051297
v -12.34341546 6.32223718 -1.77051297
v -4.51588370 -8.32929661 -1.77051297
g roof
f 1 2 3 4 5 6 7 8 9 10
g wall
f 2 1 11 12
g wall
f 3 2 12 13
g wall
f 4 3 13 14
g wall
f 5 4 14 15
g wall
f 6 5 15 16
g wall
f 7 6 16 17
g wall
f 8 7 17 18
g wall
f 9 8 18 19
g wall
f 10 9 19 20
g wall
f 1 10 20 11
g ground_assumed
f 20 19 18 17 16 15 14 13 12 11
