v 2679905.7500000056 1246943.1250000044 451.14219196728038
v 2679921 1246950.2499999951 451.13102200652315
v 2679924.7500000056 1246952.2499999965 451.12642803442088
v 2679924.7500000056 1246952.3749999949 451.12549677151065
v 2679918.7500000014 1246963.2500000035 451.02798672886303
v 2679918.5000000042 1246963.3750000021 451.02636837867288
v 2679896.5000000023 1246962.5 450.97242382490322
v 2679893.9999999944 1246961.2500000023 450.97486563103121
v 2679893.9999999944 1246960.8749999942 450.97765941976201
v 2679903.7500000042 1246942.6249999979 451.14042035805045
v 2679905.7500000056 1246943.1250000044 447.44463695848754
v 2679921 1246950.2499999951 447.44463695848754
v 2679924.7500000056 1246952.2499999965 447.44463695848754
v 2679924.7500000056 1246952.3749999949 447.44463695848754
v 2679918.7500000014 1246963.2500000035 447.44463695848754
v 2679918.5000000042 1246963.3750000021 447.44463695848754
v 2679896.5000000023 1246962.5 447.44463695848754
v 2679893.9999999944 1246961.2500000023 447.44463695848754
v 2679893.9999999944 1246960.8749999942 447.44463695848754
v 2679903.7500000042 1246942.6249999979 447.44463695848754
l 1 2
l 2 3
l 3 4
l 4 5
l 5 6
l 6 7
l 7 8
l 8 9
l 9 10
l 1 10
l 1 11
l 11 12
l 12 13
l 3 13
l 13 14
l 4 14
l 14 15
l 5 15
l 15 16
l 6 16
l 16 17
l 7 17
l 17 18
l 8 18
l 18 19
l 9 19
l 19 20
l 10 20
l 11 20
