# pointcloud_to_mesh 0.4.1; candidate requires geometry validation; coordinates preserved
v 3.545621786 -3.197411805 5.613727635
v 4.858190204 -2.951945007 5.614191519
v 5.785643589 -1.198972544 5.614210210
v 5.452948348 0.483308193 5.613751263
v 6.379972741 1.200091163 5.613972552
v 6.725581975 1.017238060 5.614143124
v 8.261922163 3.921062756 5.614174088
v 6.870204160 4.657385546 5.613487217
v 8.666466994 8.052488023 5.613523419
v 6.140602678 9.388858935 5.612276799
v 4.344339844 5.993756458 5.612240597
v -8.790373977 -4.419944236 5.609155685
v 0.342372135 -9.251849172 5.613663077
v -4.947564532 -0.098592196 5.609808813
v -5.709849452 0.304713471 5.609432593
v -5.045124642 1.561104687 5.609445990
v -4.282839723 1.157799020 5.609822210
v 2.628823937 -4.212621278 5.613568732
v 1.725731982 -3.734818170 5.613123019
v 3.118271655 -3.287519937 5.613578597
v -1.613132477 9.145704357 5.609300335
v 2.215179699 -2.809716829 5.613132883
v 2.215179699 -2.809716829 6.808300000
v 1.725731982 -3.734818170 6.808300000
v 2.628823937 -4.212621278 6.808300000
v 3.118271655 -3.287519937 6.808300000
v -5.045124642 1.561104687 6.237280000
v -5.709849452 0.304713471 6.237280000
v -4.947564532 -0.098592196 6.237280000
v -4.282839723 1.157799020 6.237280000
v -8.790373977 -4.419944236 -6.652108000
v 0.342372135 -9.251849172 -6.652108000
v 3.545621786 -3.197411805 -6.652108000
v 4.858190204 -2.951945007 -6.652108000
v 5.486531454 -1.764322073 5.614204182
v 5.486531454 -1.764322073 -6.652108000
v 5.785643589 -1.198972544 -6.652108000
v 5.452948348 0.483308193 -6.652108000
v 6.379972741 1.200091163 -6.652108000
v 6.725581975 1.017238060 -6.652108000
v 8.261922163 3.921062756 -6.652108000
v 6.870204160 4.657385546 -6.652108000
v 8.666466994 8.052488023 -6.652108000
v 6.140602678 9.388858935 -6.652108000
v 4.344339844 5.993756458 -6.652108000
v -1.613132477 9.145704357 -6.652108000
g roof
f 1 2 35 3
g roof
f 1 3 4
g roof
f 5 6 7
g roof
f 5 7 8
g roof
f 8 9 10
g roof
f 8 10 11
g roof
f 12 13 14
g roof
f 12 14 15
g roof
f 12 15 16
g roof
f 17 14 13
g roof
f 13 18 19
g roof
f 20 18 13
g roof
f 20 13 1
g roof
f 20 1 4
g roof
f 4 5 8
g roof
f 4 8 11
g roof
f 4 11 21
g roof
f 21 12 16
g roof
f 21 16 17
g roof
f 21 17 13
g roof
f 21 13 19
g roof
f 21 19 22
g roof
f 21 22 20
g roof
f 21 20 4
g roof_fixture
f 23 24 25
g roof_fixture
f 23 25 26
g roof_fixture
f 27 28 29
g roof_fixture
f 27 29 30
g facade_completed
f 13 12 31 32
g facade_completed
f 1 13 32 33
g facade_completed
f 2 1 33 34
g facade_completed
f 35 2 34 36
g facade_completed
f 3 35 36 37
g facade_completed
f 4 3 37 38
g facade_completed
f 5 4 38 39
g facade_completed
f 6 5 39 40
g facade_completed
f 7 6 40 41
g facade_completed
f 8 7 41 42
g facade_completed
f 9 8 42 43
g facade_completed
f 10 9 43 44
g facade_completed
f 11 10 44 45
g facade_completed
f 21 11 45 46
g facade_completed
f 12 21 46 31
g roof_step_or_fixture_side
f 25 24 19 18
g roof_step_or_fixture_side
f 24 23 22 19
g roof_step_or_fixture_side
f 23 26 20 22
g roof_step_or_fixture_side
f 26 25 18 20
g roof_step_or_fixture_side
f 29 28 15 14
g roof_step_or_fixture_side
f 28 27 16 15
g roof_step_or_fixture_side
f 27 30 17 16
g roof_step_or_fixture_side
f 30 29 14 17
g ground_assumed
f 46 32 31
g ground_assumed
f 46 33 32
g ground_assumed
f 46 34 33
g ground_assumed
f 46 36 34
g ground_assumed
f 46 37 36
g ground_assumed
f 46 38 37
g ground_assumed
f 46 39 38
g ground_assumed
f 46 40 39
g ground_assumed
f 40 42 41
g ground_assumed
f 42 44 43
g ground_assumed
f 42 45 44
g ground_assumed
f 45 40 46
g ground_assumed
f 45 42 40
