# XYZ-only planar convex-roof baseline. Provisional base; no GT.
v 11.85064833 -7.51749168 2.51909638
v 11.84883876 -3.45292766 2.52313005
v 8.74696865 1.81474524 2.53487504
v 5.57426661 6.77272230 2.54646192
v 5.20976650 6.98444258 2.54743826
v 2.71720616 7.27914480 2.55297154
v -6.16315403 8.12421633 2.57248207
v -9.78256259 8.42357174 2.58038938
v -11.31578966 8.48587283 2.58367505
v -11.76146213 3.55633195 2.57972470
v -11.93957602 -3.09825095 2.57350144
v -11.93776644 -6.01502739 2.57060576
v -11.76533980 -6.48499987 2.56977724
v 5.90748693 -8.03709822 2.53107785
v 10.64469583 -8.42641536 2.52073096
v 11.49467907 -8.43158558 2.51893858
v 11.85064833 -7.51749168 -2.70221667
v 11.84883876 -3.45292766 -2.70221667
v 8.74696865 1.81474524 -2.70221667
v 5.57426661 6.77272230 -2.70221667
v 5.20976650 6.98444258 -2.70221667
v 2.71720616 7.27914480 -2.70221667
v -6.16315403 8.12421633 -2.70221667
v -9.78256259 8.42357174 -2.70221667
v -11.31578966 8.48587283 -2.70221667
v -11.76146213 3.55633195 -2.70221667
v -11.93957602 -3.09825095 -2.70221667
v -11.93776644 -6.01502739 -2.70221667
v -11.76533980 -6.48499987 -2.70221667
v 5.90748693 -8.03709822 -2.70221667
v 10.64469583 -8.42641536 -2.70221667
v 11.49467907 -8.43158558 -2.70221667
g roof
f 1 2 3 4 5 6 7 8 9 10 11 12 13 14 15 16
g wall
f 2 1 17 18
g wall
f 3 2 18 19
g wall
f 4 3 19 20
g wall
f 5 4 20 21
g wall
f 6 5 21 22
g wall
f 7 6 22 23
g wall
f 8 7 23 24
g wall
f 9 8 24 25
g wall
f 10 9 25 26
g wall
f 11 10 26 27
g wall
f 12 11 27 28
g wall
f 13 12 28 29
g wall
f 14 13 29 30
g wall
f 15 14 30 31
g wall
f 16 15 31 32
g wall
f 1 16 32 17
g ground_assumed
f 32 31 30 29 28 27 26 25 24 23 22 21 20 19 18 17
