# Source coordinates; no display transform
v 0.494899956397 -0.316180948316 0.109081662251
v 0.494823836556 -0.145204436723 0.109251339201
v 0.364343192577 0.0763810352304 0.109745394015
v 0.230882992552 0.28493910397 0.110232797907
v 0.215550239278 0.293845150161 0.110273867799
v 0.11070030463 0.30624184444 0.110506626075
v -0.262853414663 0.341789908521 0.111327339525
v -0.415104393261 0.354382339955 0.111659961738
v -0.479599826134 0.357003044902 0.111798173953
v -0.498347107235 0.149641148455 0.111632001871
v -0.505839495454 -0.130284906284 0.111370219481
v -0.505763375192 -0.252979556523 0.111248412256
v -0.49851022202 -0.272749021287 0.111213560434
v 0.244899956641 -0.33803827746 0.109585664633
v 0.444171378723 -0.354414962923 0.109150421111
v 0.479926054642 -0.354632449024 0.10907502437
v 0.494899956397 -0.316180948316 -0.110553675471
v 0.494823836556 -0.145204436723 -0.110553675471
v 0.364343192577 0.0763810352304 -0.110553675471
v 0.230882992552 0.28493910397 -0.110553675471
v 0.215550239278 0.293845150161 -0.110553675471
v 0.11070030463 0.30624184444 -0.110553675471
v -0.262853414663 0.341789908521 -0.110553675471
v -0.415104393261 0.354382339955 -0.110553675471
v -0.479599826134 0.357003044902 -0.110553675471
v -0.498347107235 0.149641148455 -0.110553675471
v -0.505839495454 -0.130284906284 -0.110553675471
v -0.505763375192 -0.252979556523 -0.110553675471
v -0.49851022202 -0.272749021287 -0.110553675471
v 0.244899956641 -0.33803827746 -0.110553675471
v 0.444171378723 -0.354414962923 -0.110553675471
v 0.479926054642 -0.354632449024 -0.110553675471
g roof
f 1 2 3 4 5 6 7 8 9 10 11 12 13 14 15 16
g wall
f 2 1 17 18
g wall
f 3 2 18 19
g wall
f 4 3 19 20
g wall
f 5 4 20 21
g wall
f 6 5 21 22
g wall
f 7 6 22 23
g wall
f 8 7 23 24
g wall
f 9 8 24 25
g wall
f 10 9 25 26
g wall
f 11 10 26 27
g wall
f 12 11 27 28
g wall
f 13 12 28 29
g wall
f 14 13 29 30
g wall
f 15 14 30 31
g wall
f 16 15 31 32
g wall
f 1 16 32 17
g ground_assumed
f 32 31 30 29 28 27 26 25 24 23 22 21 20 19 18 17
