v 0.49489995639658524 -0.31618094831623045 0.10908166225146648
v 0.49482383655579498 -0.14520443672294525 0.10925133920134963
v 0.36434319257684256 0.076381035230448743 0.10974539401485903
v 0.23088299255172404 0.28493910396972089 0.11023279790686366
v 0.21555023927818384 0.29384515016061186 0.11027386779935583
v 0.11070030463034113 0.30624184443986613 0.11050662607488398
v -0.26285341466329259 0.34178990852133684 0.11132733952467141
v -0.41510439326140458 0.35438233995470314 0.11165996173783728
v -0.4795998261341764 0.3570030449022068 0.11179817395250101
v -0.49834710723463815 0.14964114845484974 0.11163200187125216
v -0.50583949545356222 -0.13028490628356906 0.1113702194807418
v -0.50576337519212045 -0.25297955652275539 0.11124841225550083
v -0.49851022202049167 -0.27274902128696032 0.11121356043407837
v 0.24489995664067898 -0.33803827745980164 0.10958566463260244
v 0.4441713787231546 -0.35441496292302499 0.10915042111095176
v 0.47992605464235893 -0.35463244902372859 0.10907502437015948
v 0.49489995639658524 -0.31618094831623045 -0.11055367547055971
v 0.49482383655579498 -0.14520443672294525 -0.11055367547055971
v 0.36434319257684256 0.076381035230448743 -0.11055367547055971
v 0.23088299255172404 0.28493910396972089 -0.11055367547055971
v 0.21555023927818384 0.29384515016061186 -0.11055367547055971
v 0.11070030463034113 0.30624184443986613 -0.11055367547055971
v -0.26285341466329259 0.34178990852133684 -0.11055367547055971
v -0.41510439326140458 0.35438233995470314 -0.11055367547055971
v -0.4795998261341764 0.3570030449022068 -0.11055367547055971
v -0.49834710723463815 0.14964114845484974 -0.11055367547055971
v -0.50583949545356222 -0.13028490628356906 -0.11055367547055971
v -0.50576337519212045 -0.25297955652275539 -0.11055367547055971
v -0.49851022202049167 -0.27274902128696032 -0.11055367547055971
v 0.24489995664067898 -0.33803827745980164 -0.11055367547055971
v 0.4441713787231546 -0.35441496292302499 -0.11055367547055971
v 0.47992605464235893 -0.35463244902372859 -0.11055367547055971
l 1 2
l 2 3
l 3 4
l 4 5
l 5 6
l 6 7
l 7 8
l 8 9
l 9 10
l 10 11
l 11 12
l 12 13
l 13 14
l 14 15
l 15 16
l 1 16
l 1 17
l 17 18
l 2 18
l 18 19
l 19 20
l 4 20
l 20 21
l 5 21
l 21 22
l 22 23
l 23 24
l 24 25
l 9 25
l 25 26
l 26 27
l 27 28
l 12 28
l 28 29
l 13 29
l 29 30
l 30 31
l 31 32
l 16 32
l 17 32
