# XYZ-only planar convex-roof baseline. Provisional base; no GT.
v 7.40280070 -8.46024183 5.89362407
v 10.51275779 7.37004623 5.89556239
v 3.52889674 8.74327151 5.89137577
v 3.31558774 8.74690010 5.89124772
v -5.13033414 7.49853704 5.88617154
v -9.97028423 3.21175187 5.88324656
v -10.13966143 2.34439031 5.88314097
v -9.25156509 1.28685198 5.88366939
v -6.88598643 -1.31937966 5.88507785
v 0.97463163 -7.51344016 5.88976914
v 7.26031392 -8.75098226 5.89353722
v 7.40280070 -8.46024183 -6.05805386
v 10.51275779 7.37004623 -6.05805386
v 3.52889674 8.74327151 -6.05805386
v 3.31558774 8.74690010 -6.05805386
v -5.13033414 7.49853704 -6.05805386
v -9.97028423 3.21175187 -6.05805386
v -10.13966143 2.34439031 -6.05805386
v -9.25156509 1.28685198 -6.05805386
v -6.88598643 -1.31937966 -6.05805386
v 0.97463163 -7.51344016 -6.05805386
v 7.26031392 -8.75098226 -6.05805386
g roof
f 1 2 3 4 5 6 7 8 9 10 11
g wall
f 2 1 12 13
g wall
f 3 2 13 14
g wall
f 4 3 14 15
g wall
f 5 4 15 16
g wall
f 6 5 16 17
g wall
f 7 6 17 18
g wall
f 8 7 18 19
g wall
f 9 8 19 20
g wall
f 10 9 20 21
g wall
f 11 10 21 22
g wall
f 1 11 22 12
g ground_assumed
f 22 21 20 19 18 17 16 15 14 13 12
