v 0.35412201923457726 -0.40465469167432933 0.28629408925852873
v 0.50276246530865909 0.35195416517636446 0.28638673129219561
v 0.16896872097394056 0.41758748816842084 0.28618663172608139
v 0.15877361409816809 0.41776091668225923 0.286180511574398
v -0.24489934968219298 0.35809538538040919 0.28593789547465226
v -0.47622483731260018 0.15320842345369062 0.28579809601138773
v -0.48432022314404227 0.11175286459711764 0.2857930493357434
v -0.44187364516429289 0.061207804146897894 0.28581830517762208
v -0.32881077739150039 -0.063357076438636362 0.28588562254458855
v 0.046887581474403778 -0.3594022915608327 0.28610984282097279
v 0.34731186143305609 -0.41855063491609623 0.28628993826146731
v 0.35412201923457726 -0.40465469167432933 -0.28493653786531947
v 0.50276246530865909 0.35195416517636446 -0.28493653786531947
v 0.16896872097394056 0.41758748816842084 -0.28493653786531947
v 0.15877361409816809 0.41776091668225923 -0.28493653786531947
v -0.24489934968219298 0.35809538538040919 -0.28493653786531947
v -0.47622483731260018 0.15320842345369062 -0.28493653786531947
v -0.48432022314404227 0.11175286459711764 -0.28493653786531947
v -0.44187364516429289 0.061207804146897894 -0.28493653786531947
v -0.32881077739150039 -0.063357076438636362 -0.28493653786531947
v 0.046887581474403778 -0.3594022915608327 -0.28493653786531947
v 0.34731186143305609 -0.41855063491609623 -0.28493653786531947
l 1 2
l 2 3
l 3 4
l 4 5
l 5 6
l 6 7
l 7 8
l 8 9
l 9 10
l 10 11
l 1 11
l 1 12
l 12 13
l 2 13
l 13 14
l 3 14
l 14 15
l 15 16
l 5 16
l 16 17
l 6 17
l 17 18
l 7 18
l 18 19
l 19 20
l 20 21
l 10 21
l 21 22
l 11 22
l 12 22
