# pointcloud_to_mesh 0.5.1; candidate requires geometry validation; coordinates preserved
v 8.440603555 3.603545810 4.452791300
v 7.969308328 3.721369616 4.453896499
v 7.941586506 3.610482329 4.453404497
v 8.412881733 3.492658522 4.452299298
v 1.898811408 2.293756420 4.454207692
v -3.063030916 3.298581515 4.464729316
v -3.534229128 2.591759943 4.461935706
v -4.005427340 4.005451594 4.469167299
v 2.120561730 2.827407556 4.456472732
v 7.165448253 3.922334635 4.455781571
v -1.593895621 4.934096249 4.470752839
v -1.898811408 3.714433097 4.465341252
v -2.841207833 5.245924302 4.473677817
v 8.551418082 6.049808631 4.464227671
v 7.304105869 5.890365711 4.464924609
v 5.918087533 7.414944650 4.473744469
v 5.031086245 7.636694972 4.475824509
v 4.670726813 6.195257245 4.469428919
v 3.645092162 6.451665908 4.471834058
v 3.201591518 4.677663332 4.463962894
v 2.425404757 6.874405502 4.475251265
v 0.845479189 6.680401256 4.476171668
v 0.485119757 5.238963529 4.469776078
v -0.457325175 7.006102347 4.479226776
v 3.340152121 6.645718662 4.473106160
v 3.825247625 8.586100676 4.481715541
v 2.134386261 9.008816017 4.485680653
v 1.760202299 9.161322418 4.486836873
v 0.706797318 9.895841558 4.491534686
v -0.235574853 9.660266706 4.491517020
v -0.706870079 10.131440665 4.494292761
v -1.399842867 10.304683862 4.495917800
v -1.898787155 8.308906710 4.487062633
v -2.896675730 7.262486756 4.483276084
v -3.229313340 5.931936317 4.477372496
v -4.005451594 5.419167499 4.475850988
v -4.476674060 3.534277635 4.467487822
v -5.280534135 3.263971681 4.467144854
v -5.557728101 2.155195818 4.462225269
v -6.250773650 0.914747363 4.457166847
v -6.472523972 0.027746076 4.453231265
v -7.220867643 -0.727606875 4.450530557
v -7.387198574 -1.392930602 4.447578548
v -7.664416794 -1.912611685 4.445444069
v -7.886191369 -2.799709988 4.441508057
v -8.107917438 -3.333264109 4.439243448
v -8.385111404 -4.442039973 4.434323863
v -9.133624850 -4.961818071 4.432737086
v -9.272209706 -5.516157495 4.430277508
v -8.107941691 -5.807224499 4.427547271
v -8.357413835 -6.805113074 4.423119687
v -8.717797521 -7.304105869 4.421179746
v -8.232726270 -7.013063119 4.421991533
v -5.904287256 -7.595172873 4.416531286
v -4.934047741 -8.191082904 4.412585508
v -3.548102166 -8.537569298 4.409335431
v -3.090752738 -8.357413835 4.409655216
v -0.207877284 -9.078132699 4.402894801
v 0.706894333 -8.953372373 4.402420669
v 1.649290757 -9.188971479 4.400210726
v 2.120585984 -8.482174161 4.403004109
v 3.118474560 -9.202917278 4.398435996
v 3.035333347 -9.535482127 4.396960421
v 4.920223211 -10.006704593 4.392540308
v 5.419118992 -10.367064024 4.390256365
v 6.223051828 -10.096879338 4.390598675
v 6.500270047 -8.988006460 4.395518690
v -3.062958155 -6.832834896 4.416830679
v -3.506507306 -7.193218582 4.415642773
v -4.005475847 -6.126037578 4.421268458
v 7.054560965 -7.241701453 4.403130048
v 4.393508594 -6.812073847 4.408256262
v 4.088592806 -8.031736998 4.402844676
v 2.979816943 -7.754543032 4.405444783
v 3.284732731 -6.534879881 4.410856369
v 7.636694972 -4.559815272 4.415132193
v -2.952119374 -1.912611685 4.439963226
v 7.692187123 -3.749067185 4.418900644
v 3.922286128 -1.392882095 4.434424788
v 7.858493801 -3.083840472 4.421852223
v 7.719884691 -2.224463992 4.426076334
v 8.773216911 1.988864886 4.444770672
v 9.105806013 2.612520992 4.447332314
v 9.272136945 3.277844719 4.450284324
v 7.913937445 1.496881371 4.443444131
v 3.229337594 2.078942617 4.451644585
v 2.702671484 -0.027721822 4.442297416
v 1.399867121 0.297979269 4.445352525
v -4.559863779 2.848168605 4.464340844
v 1.954182292 4.989515639 4.466888100
v 1.538427723 8.274224116 4.482900860
v 0.651426435 8.495974438 4.484980900
v 0.762313723 8.939523589 4.486948907
v 3.603497303 -2.668037397 4.428766985
v 3.076806939 -2.536364806 4.430002087
v 6.638782143 1.815670196 4.446434402
v -0.817684606 5.564664620 4.472831187
v -4.504395882 -6.943746438 4.417982846
v 2.591735689 -1.884865610 4.433646380
v 3.063030916 -1.178068291 4.436439763
v -3.146123621 4.026261151 4.468266230
v -3.173893950 -2.799709988 4.436027214
v -4.005500101 -2.120537477 4.440205391
v -4.393532848 3.513492332 4.467292854
v 3.645092162 6.451665908 4.569542434
v 3.672813984 6.562553196 4.569466169
v 3.340152121 6.645718662 4.572187359
v 3.312430299 6.534831374 4.572263625
v 7.941586506 3.610482329 -4.561076731
v 8.412881733 3.492658522 -4.561076731
v 8.440603555 3.603545810 -4.561076731
v 7.969308328 3.721369616 -4.561076731
v 6.638782143 1.815670196 -4.561076731
v 7.165448253 3.922334635 -4.561076731
v 8.551418082 6.049808631 -4.561076731
v 7.304105869 5.890365711 -4.561076731
v 5.918087533 7.414944650 -4.561076731
v 5.031086245 7.636694972 -4.561076731
v 4.670726813 6.195257245 -4.561076731
v 3.645092162 6.451665908 -4.561076731
v 3.201591518 4.677663332 -4.561076731
v 1.954182292 4.989515639 -4.561076731
v 2.425404757 6.874405502 -4.561076731
v 3.340152121 6.645718662 -4.561076731
v 3.825247625 8.586100676 -4.561076731
v 2.134386261 9.008816017 -4.561076731
v 0.706797318 9.895841558 -4.561076731
v -0.235574853 9.660266706 -4.561076731
v -0.706870079 10.131440665 -4.561076731
v -1.399842867 10.304683862 -4.561076731
v -1.898787155 8.308906710 -4.561076731
v -2.896675730 7.262486756 -4.561076731
v -3.229313340 5.931936317 -4.561076731
v -4.005451594 5.419167499 -4.561076731
v -4.476674060 3.534277635 -4.561076731
v -5.280534135 3.263971681 -4.561076731
v -5.557728101 2.155195818 -4.561076731
v -6.250773650 0.914747363 -4.561076731
v -6.472523972 0.027746076 -4.561076731
v -7.220867643 -0.727606875 -4.561076731
v -7.387198574 -1.392930602 -4.561076731
v -7.664416794 -1.912611685 -4.561076731
v -7.886191369 -2.799709988 -4.561076731
v -8.107917438 -3.333264109 -4.561076731
v -8.385111404 -4.442039973 -4.561076731
v -9.133624850 -4.961818071 -4.561076731
v -9.272209706 -5.516157495 -4.561076731
v -8.107941691 -5.807224499 -4.561076731
v -8.357413835 -6.805113074 -4.561076731
v -8.717797521 -7.304105869 -4.561076731
v -8.232726270 -7.013063119 -4.561076731
v -5.904287256 -7.595172873 -4.561076731
v -4.934047741 -8.191082904 -4.561076731
v -3.548102166 -8.537569298 -4.561076731
v -3.090752738 -8.357413835 -4.561076731
v -0.207877284 -9.078132699 -4.561076731
v 0.706894333 -8.953372373 -4.561076731
v 1.649290757 -9.188971479 -4.561076731
v 2.120585984 -8.482174161 -4.561076731
v 3.118474560 -9.202917278 -4.561076731
v 3.035333347 -9.535482127 -4.561076731
v 4.920223211 -10.006704593 -4.561076731
v 5.419118992 -10.367064024 -4.561076731
v 6.223051828 -10.096879338 -4.561076731
v 6.500270047 -8.988006460 -4.561076731
v 7.054560965 -7.241701453 -4.561076731
v 7.636694972 -4.559815272 -4.561076731
v 7.692187123 -3.749067185 -4.561076731
v 7.858493801 -3.083840472 -4.561076731
v 7.719884691 -2.224463992 -4.561076731
v 8.773216911 1.988864886 -4.561076731
v 9.105806013 2.612520992 -4.561076731
v 9.272136945 3.277844719 -4.561076731
v 7.913937445 1.496881371 -4.561076731
v -4.559863779 2.848168605 -4.561076731
v -4.393532848 3.513492332 -4.561076731
v -4.005427340 4.005451594 -4.561076731
v -3.063030916 3.298581515 -4.561076731
v -3.534229128 2.591759943 -4.561076731
v 1.538427723 8.274224116 -4.561076731
v 0.651426435 8.495974438 -4.561076731
v 0.762313723 8.939523589 -4.561076731
v 1.760202299 9.161322418 -4.561076731
v -2.841207833 5.245924302 -4.561076731
v -1.593895621 4.934096249 -4.561076731
v -1.898811408 3.714433097 -4.561076731
v -3.146123621 4.026261151 -4.561076731
v -4.005500101 -2.120537477 -4.561076731
v -2.952119374 -1.912611685 -4.561076731
v -3.173893950 -2.799709988 -4.561076731
v -3.506507306 -7.193218582 -4.561076731
v -4.504395882 -6.943746438 -4.561076731
v -4.005475847 -6.126037578 -4.561076731
v -3.062958155 -6.832834896 -4.561076731
v 0.485119757 5.238963529 -4.561076731
v -0.817684606 5.564664620 -4.561076731
v -0.457325175 7.006102347 -4.561076731
v 0.845479189 6.680401256 -4.561076731
v 2.120561730 2.827407556 -4.561076731
v 3.229337594 2.078942617 -4.561076731
v 2.702671484 -0.027721822 -4.561076731
v 1.399867121 0.297979269 -4.561076731
v 1.898811408 2.293756420 -4.561076731
v 3.063030916 -1.178068291 -4.561076731
v 3.922286128 -1.392882095 -4.561076731
v 3.603497303 -2.668037397 -4.561076731
v 3.076806939 -2.536364806 -4.561076731
v 2.591735689 -1.884865610 -4.561076731
v 4.088592806 -8.031736998 -4.561076731
v 2.979816943 -7.754543032 -4.561076731
v 3.284732731 -6.534879881 -4.561076731
v 4.393508594 -6.812073847 -4.561076731
v 3.312430299 6.534831374 -4.561076731
v 3.672813984 6.562553196 -4.561076731
g roof
f 1 2 3
g roof
f 1 3 4
g roof
f 5 6 7
g roof
f 8 6 5
g roof
f 8 5 9
g roof
f 10 11 12
g roof
f 13 11 10
g roof
f 10 2 14
g roof
f 10 14 15
g roof
f 10 15 16
g roof
f 10 16 17
g roof
f 10 17 18
g roof
f 10 18 19
g roof
f 10 19 20
g roof
f 21 22 23
g roof
f 24 22 21
g roof
f 21 25 26
g roof
f 21 26 27
g roof
f 28 27 29
g roof
f 28 29 30
g roof
f 30 31 32
g roof
f 30 32 33
g roof
f 30 33 34
g roof
f 30 34 35
g roof
f 35 36 37
g roof
f 37 38 39
g roof
f 37 39 40
g roof
f 37 40 41
g roof
f 41 42 43
g roof
f 41 43 44
g roof
f 41 44 45
g roof
f 41 45 46
g roof
f 41 46 47
g roof
f 47 48 49
g roof
f 47 49 50
g roof
f 51 52 53
g roof
f 51 53 54
g roof
f 54 55 56
g roof
f 54 56 57
g roof
f 54 57 58
g roof
f 54 58 59
g roof
f 59 60 61
g roof
f 62 63 64
g roof
f 64 65 66
g roof
f 64 66 67
g roof
f 67 68 69
g roof
f 70 68 67
g roof
f 67 71 72
g roof
f 67 72 73
g roof
f 67 73 74
g roof
f 75 72 71
g roof
f 75 71 76
g roof
f 77 76 78
g roof
f 79 80 81
g roof
f 79 81 82
g roof
f 82 83 84
g roof
f 82 84 4
g roof
f 82 4 85
g roof
f 85 86 87
g roof
f 88 5 7
g roof
f 88 7 89
g roof
f 13 10 20
g roof
f 13 20 90
g roof
f 90 21 23
g roof
f 21 27 28
g roof
f 21 28 91
g roof
f 21 91 92
g roof
f 93 28 30
g roof
f 93 30 35
g roof
f 37 41 47
g roof
f 37 47 50
g roof
f 37 50 51
g roof
f 37 51 54
g roof
f 54 59 61
g roof
f 61 62 64
g roof
f 61 64 67
g roof
f 61 67 69
g roof
f 70 67 74
g roof
f 70 74 75
g roof
f 70 75 76
g roof
f 78 80 79
g roof
f 78 79 94
g roof
f 78 94 95
g roof
f 79 82 85
g roof
f 79 85 87
g roof
f 79 87 88
g roof
f 79 88 89
g roof
f 9 86 85
g roof
f 9 85 96
g roof
f 9 96 10
g roof
f 9 10 12
g roof
f 13 90 23
g roof
f 13 23 97
g roof
f 13 97 24
g roof
f 24 21 92
g roof
f 24 92 93
g roof
f 24 93 35
g roof
f 54 61 69
g roof
f 54 69 98
g roof
f 54 98 70
g roof
f 77 78 95
g roof
f 77 95 99
g roof
f 77 99 100
g roof
f 100 79 89
g roof
f 8 9 12
g roof
f 8 12 101
g roof
f 8 101 13
g roof
f 13 24 35
g roof
f 13 35 37
g roof
f 77 100 89
g roof
f 8 13 37
g roof
f 76 77 102
g roof
f 103 77 89
g roof
f 104 8 37
g roof
f 70 76 102
g roof
f 70 102 103
g roof
f 70 103 89
g roof
f 89 104 37
g roof
f 89 37 54
g roof
f 89 54 70
g roof
f 105 106 107
g roof
f 105 107 108
g facade_completed
f 4 3 109 110
g facade_completed
f 1 4 110 111
g facade_completed
f 2 1 111 112
g facade_completed
f 3 2 112 109
g facade_completed
f 10 96 113 114
g facade_completed
f 2 10 114 112
g facade_completed
f 14 2 112 115
g facade_completed
f 15 14 115 116
g facade_completed
f 16 15 116 117
g facade_completed
f 17 16 117 118
g facade_completed
f 18 17 118 119
g facade_completed
f 19 18 119 120
g facade_completed
f 20 19 120 121
g facade_completed
f 90 20 121 122
g facade_completed
f 21 90 122 123
g facade_completed
f 25 21 123 124
g facade_completed
f 26 25 124 125
g facade_completed
f 27 26 125 126
g facade_completed
f 29 27 126 127
g facade_completed
f 30 29 127 128
g facade_completed
f 31 30 128 129
g facade_completed
f 32 31 129 130
g facade_completed
f 33 32 130 131
g facade_completed
f 34 33 131 132
g facade_completed
f 35 34 132 133
g facade_completed
f 36 35 133 134
g facade_completed
f 37 36 134 135
g facade_completed
f 38 37 135 136
g facade_completed
f 39 38 136 137
g facade_completed
f 40 39 137 138
g facade_completed
f 41 40 138 139
g facade_completed
f 42 41 139 140
g facade_completed
f 43 42 140 141
g facade_completed
f 44 43 141 142
g facade_completed
f 45 44 142 143
g facade_completed
f 46 45 143 144
g facade_completed
f 47 46 144 145
g facade_completed
f 48 47 145 146
g facade_completed
f 49 48 146 147
g facade_completed
f 50 49 147 148
g facade_completed
f 51 50 148 149
g facade_completed
f 52 51 149 150
g facade_completed
f 53 52 150 151
g facade_completed
f 54 53 151 152
g facade_completed
f 55 54 152 153
g facade_completed
f 56 55 153 154
g facade_completed
f 57 56 154 155
g facade_completed
f 58 57 155 156
g facade_completed
f 59 58 156 157
g facade_completed
f 60 59 157 158
g facade_completed
f 61 60 158 159
g facade_completed
f 62 61 159 160
g facade_completed
f 63 62 160 161
g facade_completed
f 64 63 161 162
g facade_completed
f 65 64 162 163
g facade_completed
f 66 65 163 164
g facade_completed
f 67 66 164 165
g facade_completed
f 71 67 165 166
g facade_completed
f 76 71 166 167
g facade_completed
f 78 76 167 168
g facade_completed
f 80 78 168 169
g facade_completed
f 81 80 169 170
g facade_completed
f 82 81 170 171
g facade_completed
f 83 82 171 172
g facade_completed
f 84 83 172 173
g facade_completed
f 4 84 173 110
g facade_completed
f 85 4 110 174
g facade_completed
f 96 85 174 113
g facade_completed
f 104 89 175 176
g facade_completed
f 8 104 176 177
g facade_completed
f 6 8 177 178
g facade_completed
f 7 6 178 179
g facade_completed
f 89 7 179 175
g facade_completed
f 92 91 180 181
g facade_completed
f 93 92 181 182
g facade_completed
f 28 93 182 183
g facade_completed
f 91 28 183 180
g facade_completed
f 11 13 184 185
g facade_completed
f 12 11 185 186
g facade_completed
f 101 12 186 187
g facade_completed
f 13 101 187 184
g facade_completed
f 77 103 188 189
g facade_completed
f 102 77 189 190
g facade_completed
f 103 102 190 188
g facade_completed
f 98 69 191 192
g facade_completed
f 70 98 192 193
g facade_completed
f 68 70 193 194
g facade_completed
f 69 68 194 191
g facade_completed
f 97 23 195 196
g facade_completed
f 24 97 196 197
g facade_completed
f 22 24 197 198
g facade_completed
f 23 22 198 195
g facade_completed
f 86 9 199 200
g facade_completed
f 87 86 200 201
g facade_completed
f 88 87 201 202
g facade_completed
f 5 88 202 203
g facade_completed
f 9 5 203 199
g facade_completed
f 79 100 204 205
g facade_completed
f 94 79 205 206
g facade_completed
f 95 94 206 207
g facade_completed
f 99 95 207 208
g facade_completed
f 100 99 208 204
g facade_completed
f 74 73 209 210
g facade_completed
f 75 74 210 211
g facade_completed
f 72 75 211 212
g facade_completed
f 73 72 212 209
g facade_completed
f 108 107 25 124 213
g facade_completed
f 105 108 213 120 19
g facade_completed
f 106 105 19 120 214
g facade_completed
f 107 106 214 124 25
g ground_assumed
f 120 124 214
g ground_assumed
f 120 213 124
g ground_assumed
f 111 109 112
g ground_assumed
f 111 110 109
g ground_assumed
f 203 179 178
g ground_assumed
f 177 203 178
g ground_assumed
f 177 199 203
g ground_assumed
f 114 186 185
g ground_assumed
f 184 114 185
g ground_assumed
f 114 115 112
g ground_assumed
f 114 116 115
g ground_assumed
f 114 117 116
g ground_assumed
f 114 118 117
g ground_assumed
f 114 119 118
g ground_assumed
f 114 120 119
g ground_assumed
f 114 121 120
g ground_assumed
f 123 195 198
g ground_assumed
f 197 123 198
g ground_assumed
f 123 125 124
g ground_assumed
f 123 126 125
g ground_assumed
f 183 127 126
g ground_assumed
f 183 128 127
g ground_assumed
f 128 130 129
g ground_assumed
f 128 131 130
g ground_assumed
f 128 132 131
g ground_assumed
f 128 133 132
g ground_assumed
f 133 135 134
g ground_assumed
f 135 137 136
g ground_assumed
f 135 138 137
g ground_assumed
f 135 139 138
g ground_assumed
f 139 141 140
g ground_assumed
f 139 142 141
g ground_assumed
f 139 143 142
g ground_assumed
f 139 144 143
g ground_assumed
f 139 145 144
g ground_assumed
f 145 147 146
g ground_assumed
f 145 148 147
g ground_assumed
f 149 151 150
g ground_assumed
f 149 152 151
g ground_assumed
f 152 154 153
g ground_assumed
f 152 155 154
g ground_assumed
f 152 156 155
g ground_assumed
f 152 157 156
g ground_assumed
f 157 159 158
g ground_assumed
f 160 162 161
g ground_assumed
f 162 164 163
g ground_assumed
f 162 165 164
g ground_assumed
f 165 191 194
g ground_assumed
f 193 165 194
g ground_assumed
f 165 212 166
g ground_assumed
f 165 209 212
g ground_assumed
f 165 210 209
g ground_assumed
f 211 166 212
g ground_assumed
f 211 167 166
g ground_assumed
f 189 168 167
g ground_assumed
f 205 170 169
g ground_assumed
f 205 171 170
g ground_assumed
f 171 173 172
g ground_assumed
f 171 110 173
g ground_assumed
f 171 174 110
g ground_assumed
f 174 201 200
g ground_assumed
f 202 179 203
g ground_assumed
f 202 175 179
g ground_assumed
f 184 121 114
g ground_assumed
f 184 122 121
g ground_assumed
f 122 195 123
g ground_assumed
f 123 183 126
g ground_assumed
f 123 180 183
g ground_assumed
f 123 181 180
g ground_assumed
f 182 128 183
g ground_assumed
f 182 133 128
g ground_assumed
f 135 145 139
g ground_assumed
f 135 148 145
g ground_assumed
f 135 149 148
g ground_assumed
f 135 152 149
g ground_assumed
f 152 159 157
g ground_assumed
f 159 162 160
g ground_assumed
f 159 165 162
g ground_assumed
f 159 191 165
g ground_assumed
f 193 210 165
g ground_assumed
f 193 211 210
g ground_assumed
f 193 167 211
g ground_assumed
f 168 205 169
g ground_assumed
f 168 206 205
g ground_assumed
f 168 207 206
g ground_assumed
f 205 174 171
g ground_assumed
f 205 201 174
g ground_assumed
f 205 202 201
g ground_assumed
f 205 175 202
g ground_assumed
f 199 174 200
g ground_assumed
f 199 113 174
g ground_assumed
f 199 114 113
g ground_assumed
f 199 186 114
g ground_assumed
f 184 195 122
g ground_assumed
f 184 196 195
g ground_assumed
f 184 197 196
g ground_assumed
f 197 181 123
g ground_assumed
f 197 182 181
g ground_assumed
f 197 133 182
g ground_assumed
f 152 191 159
g ground_assumed
f 152 192 191
g ground_assumed
f 152 193 192
g ground_assumed
f 189 207 168
g ground_assumed
f 189 208 207
g ground_assumed
f 189 204 208
g ground_assumed
f 204 175 205
g ground_assumed
f 177 186 199
g ground_assumed
f 177 187 186
g ground_assumed
f 177 184 187
g ground_assumed
f 184 133 197
g ground_assumed
f 184 135 133
g ground_assumed
f 189 175 204
g ground_assumed
f 177 135 184
g ground_assumed
f 167 190 189
g ground_assumed
f 188 175 189
g ground_assumed
f 176 135 177
g ground_assumed
f 193 190 167
g ground_assumed
f 193 188 190
g ground_assumed
f 193 175 188
g ground_assumed
f 175 135 176
g ground_assumed
f 175 152 135
g ground_assumed
f 175 193 152
