# Source coordinates; no display transform
v 2680954.60295 1250337.28677 524.212323829
v 2680954.35292 1250337.34928 524.212910165
v 2680954.33821 1250337.29045 524.212649146
v 2680954.58825 1250337.22794 524.21206281
v 2680951.13237 1250336.5919 524.213075261
v 2680948.49999 1250337.12498 524.218657247
v 2680948.25 1250336.74999 524.217175167
v 2680948.00002 1250337.49999 524.221011709
v 2680951.25001 1250336.87501 524.214276922
v 2680953.92645 1250337.4559 524.213910243
v 2680949.2794 1250337.99266 524.221852877
v 2680949.11763 1250337.3456 524.218981894
v 2680948.61767 1250338.15809 524.223404652
v 2680954.66174 1250338.58458 524.218391112
v 2680954.00001 1250338.49999 524.218760855
v 2680953.26469 1250339.30881 524.223440012
v 2680952.79412 1250339.42646 524.224543526
v 2680952.60294 1250338.66174 524.221150505
v 2680952.05881 1250338.79777 524.222426491
v 2680951.82352 1250337.85662 524.218250641
v 2680951.41174 1250339.02204 524.224239406
v 2680950.57355 1250338.91912 524.224727702
v 2680950.38237 1250338.1544 524.221334681
v 2680949.88238 1250339.09191 524.226348514
v 2680951.89703 1250338.90072 524.223101373
v 2680952.15439 1250339.93014 524.227668866
v 2680951.25735 1250340.1544 524.229772458
v 2680951.05883 1250340.23531 524.230385862
v 2680950.49997 1250340.62499 524.23287817
v 2680950.00002 1250340.50001 524.232868797
v 2680949.74999 1250340.74998 524.234341398
v 2680949.38235 1250340.84189 524.235203522
v 2680949.11765 1250339.78308 524.230505633
v 2680948.58824 1250339.22793 524.228496774
v 2680948.41177 1250338.52204 524.225364772
v 2680948.00001 1250338.25 524.224557574
v 2680947.75001 1250337.25002 524.220120704
v 2680947.32354 1250337.10662 524.219938751
v 2680947.17649 1250336.51839 524.217328787
v 2680946.80881 1250335.8603 524.214645167
v 2680946.69116 1250335.38972 524.212557242
v 2680946.29415 1250334.98899 524.211124448
v 2680946.20591 1250334.63602 524.209558333
v 2680946.05883 1250334.36031 524.208425939
v 2680945.94118 1250333.88968 524.206337785
v 2680945.82355 1250333.60662 524.205136353
v 2680945.67649 1250333.01839 524.20252639
v 2680945.27938 1250332.74263 524.201684565
v 2680945.20586 1250332.44854 524.200379697
v 2680945.82353 1250332.29412 524.198931237
v 2680945.69118 1250331.76472 524.196582293
v 2680945.49999 1250331.49999 524.195553105
v 2680945.75733 1250331.65439 524.195983779
v 2680946.99263 1250331.34557 524.19308698
v 2680947.50736 1250331.02942 524.190993646
v 2680948.24264 1250330.8456 524.189269398
v 2680948.48528 1250330.94118 524.189439052
v 2680950.01472 1250330.55882 524.185852482
v 2680950.50003 1250330.62501 524.185600943
v 2680950.99999 1250330.50002 524.184428513
v 2680951.25002 1250330.87499 524.185910473
v 2680951.77943 1250330.49262 524.183486974
v 2680951.73532 1250330.31619 524.182704145
v 2680952.7353 1250330.06619 524.180359164
v 2680952.99998 1250329.87501 524.179147474
v 2680953.42649 1250330.01835 524.179329078
v 2680953.57356 1250330.60664 524.18193927
v 2680948.50002 1250331.75001 524.193245816
v 2680948.26471 1250331.55882 524.192615602
v 2680947.99999 1250332.12498 524.195600169
v 2680953.86762 1250331.5331 524.185977287
v 2680952.45587 1250331.76102 524.188696872
v 2680952.2941 1250331.11396 524.18582589
v 2680951.70587 1250331.26102 524.187205312
v 2680951.86763 1250331.90808 524.190076294
v 2680954.17646 1250332.9559 524.192344726
v 2680948.55883 1250334.36031 524.205518214
v 2680954.2059 1250333.38603 524.194343984
v 2680952.20587 1250334.63604 524.202579933
v 2680954.29413 1250333.73895 524.195909871
v 2680954.22059 1250334.19487 524.198150868
v 2680954.77941 1250336.43014 524.208068685
v 2680954.95586 1250336.76101 524.2094277
v 2680955.0441 1250337.11398 524.210993816
v 2680954.32354 1250336.16913 524.207364921
v 2680951.83824 1250336.47793 524.211715468
v 2680951.55884 1250335.36029 524.20675656
v 2680950.86766 1250335.53309 524.208377372
v 2680947.70588 1250336.88603 524.218451153
v 2680951.16174 1250338.02206 524.219802536
v 2680950.94117 1250339.76468 524.228297708
v 2680950.4706 1250339.88233 524.229401221
v 2680950.52943 1250340.11764 524.230445299
v 2680952.03675 1250333.95954 524.199578326
v 2680951.75732 1250334.02939 524.200233579
v 2680953.64704 1250336.33826 524.208951335
v 2680949.6912 1250338.32719 524.222955493
v 2680947.7353 1250331.69117 524.19385707
v 2680951.49998 1250334.37503 524.202166968
v 2680951.75001 1250334.75001 524.203648928
v 2680948.4559 1250337.51103 524.220533669
v 2680948.44117 1250333.88968 524.20343006
v 2680947.99998 1250334.25 524.205646688
v 2680947.79412 1250337.239 524.220017268
v 2680952.05881 1250338.79777 524.274263241
v 2680952.07352 1250338.8566 524.274222781
v 2680951.89703 1250338.90072 524.27566644
v 2680951.88233 1250338.84189 524.275706901
v 2680954.33821 1250337.29045 519.430240234
v 2680954.58825 1250337.22794 519.430240234
v 2680954.60295 1250337.28677 519.430240234
v 2680954.35292 1250337.34928 519.430240234
v 2680953.64704 1250336.33826 519.430240234
v 2680953.92645 1250337.4559 519.430240234
v 2680954.66174 1250338.58458 519.430240234
v 2680954.00001 1250338.49999 519.430240234
v 2680953.26469 1250339.30881 519.430240234
v 2680952.79412 1250339.42646 519.430240234
v 2680952.60294 1250338.66174 519.430240234
v 2680952.05881 1250338.79777 519.430240234
v 2680951.82352 1250337.85662 519.430240234
v 2680951.16174 1250338.02206 519.430240234
v 2680951.41174 1250339.02204 519.430240234
v 2680951.89703 1250338.90072 519.430240234
v 2680952.15439 1250339.93014 519.430240234
v 2680951.25735 1250340.1544 519.430240234
v 2680950.49997 1250340.62499 519.430240234
v 2680950.00002 1250340.50001 519.430240234
v 2680949.74999 1250340.74998 519.430240234
v 2680949.38235 1250340.84189 519.430240234
v 2680949.11765 1250339.78308 519.430240234
v 2680948.58824 1250339.22793 519.430240234
v 2680948.41177 1250338.52204 519.430240234
v 2680948.00001 1250338.25 519.430240234
v 2680947.75001 1250337.25002 519.430240234
v 2680947.32354 1250337.10662 519.430240234
v 2680947.17649 1250336.51839 519.430240234
v 2680946.80881 1250335.8603 519.430240234
v 2680946.69116 1250335.38972 519.430240234
v 2680946.29415 1250334.98899 519.430240234
v 2680946.20591 1250334.63602 519.430240234
v 2680946.05883 1250334.36031 519.430240234
v 2680945.94118 1250333.88968 519.430240234
v 2680945.82355 1250333.60662 519.430240234
v 2680945.67649 1250333.01839 519.430240234
v 2680945.27938 1250332.74263 519.430240234
v 2680945.20586 1250332.44854 519.430240234
v 2680945.82353 1250332.29412 519.430240234
v 2680945.69118 1250331.76472 519.430240234
v 2680945.49999 1250331.49999 519.430240234
v 2680945.75733 1250331.65439 519.430240234
v 2680946.99263 1250331.34557 519.430240234
v 2680947.50736 1250331.02942 519.430240234
v 2680948.24264 1250330.8456 519.430240234
v 2680948.48528 1250330.94118 519.430240234
v 2680950.01472 1250330.55882 519.430240234
v 2680950.50003 1250330.62501 519.430240234
v 2680950.99999 1250330.50002 519.430240234
v 2680951.25002 1250330.87499 519.430240234
v 2680951.77943 1250330.49262 519.430240234
v 2680951.73532 1250330.31619 519.430240234
v 2680952.7353 1250330.06619 519.430240234
v 2680952.99998 1250329.87501 519.430240234
v 2680953.42649 1250330.01835 519.430240234
v 2680953.57356 1250330.60664 519.430240234
v 2680953.86762 1250331.5331 519.430240234
v 2680954.17646 1250332.9559 519.430240234
v 2680954.2059 1250333.38603 519.430240234
v 2680954.29413 1250333.73895 519.430240234
v 2680954.22059 1250334.19487 519.430240234
v 2680954.77941 1250336.43014 519.430240234
v 2680954.95586 1250336.76101 519.430240234
v 2680955.0441 1250337.11398 519.430240234
v 2680954.32354 1250336.16913 519.430240234
v 2680947.70588 1250336.88603 519.430240234
v 2680947.79412 1250337.239 519.430240234
v 2680948.00002 1250337.49999 519.430240234
v 2680948.49999 1250337.12498 519.430240234
v 2680948.25 1250336.74999 519.430240234
v 2680950.94117 1250339.76468 519.430240234
v 2680950.4706 1250339.88233 519.430240234
v 2680950.52943 1250340.11764 519.430240234
v 2680951.05883 1250340.23531 519.430240234
v 2680948.61767 1250338.15809 519.430240234
v 2680949.2794 1250337.99266 519.430240234
v 2680949.11763 1250337.3456 519.430240234
v 2680948.4559 1250337.51103 519.430240234
v 2680947.99998 1250334.25 519.430240234
v 2680948.55883 1250334.36031 519.430240234
v 2680948.44117 1250333.88968 519.430240234
v 2680948.26471 1250331.55882 519.430240234
v 2680947.7353 1250331.69117 519.430240234
v 2680947.99999 1250332.12498 519.430240234
v 2680948.50002 1250331.75001 519.430240234
v 2680950.38237 1250338.1544 519.430240234
v 2680949.6912 1250338.32719 519.430240234
v 2680949.88238 1250339.09191 519.430240234
v 2680950.57355 1250338.91912 519.430240234
v 2680951.25001 1250336.87501 519.430240234
v 2680951.83824 1250336.47793 519.430240234
v 2680951.55884 1250335.36029 519.430240234
v 2680950.86766 1250335.53309 519.430240234
v 2680951.13237 1250336.5919 519.430240234
v 2680951.75001 1250334.75001 519.430240234
v 2680952.20587 1250334.63604 519.430240234
v 2680952.03675 1250333.95954 519.430240234
v 2680951.75732 1250334.02939 519.430240234
v 2680951.49998 1250334.37503 519.430240234
v 2680952.2941 1250331.11396 519.430240234
v 2680951.70587 1250331.26102 519.430240234
v 2680951.86763 1250331.90808 519.430240234
v 2680952.45587 1250331.76102 519.430240234
v 2680951.88233 1250338.84189 519.430240234
v 2680952.07352 1250338.8566 519.430240234
g roof
f 1 2 3
g roof
f 1 3 4
g roof
f 5 6 7
g roof
f 8 6 5
g roof
f 8 5 9
g roof
f 10 11 12
g roof
f 13 11 10
g roof
f 10 2 14
g roof
f 10 14 15
g roof
f 10 15 16
g roof
f 10 16 17
g roof
f 10 17 18
g roof
f 10 18 19
g roof
f 10 19 20
g roof
f 21 22 23
g roof
f 24 22 21
g roof
f 21 25 26
g roof
f 21 26 27
g roof
f 28 27 29
g roof
f 28 29 30
g roof
f 30 31 32
g roof
f 30 32 33
g roof
f 30 33 34
g roof
f 30 34 35
g roof
f 35 36 37
g roof
f 37 38 39
g roof
f 37 39 40
g roof
f 37 40 41
g roof
f 41 42 43
g roof
f 41 43 44
g roof
f 41 44 45
g roof
f 41 45 46
g roof
f 41 46 47
g roof
f 47 48 49
g roof
f 47 49 50
g roof
f 51 52 53
g roof
f 51 53 54
g roof
f 54 55 56
g roof
f 54 56 57
g roof
f 54 57 58
g roof
f 54 58 59
g roof
f 59 60 61
g roof
f 62 63 64
g roof
f 64 65 66
g roof
f 64 66 67
g roof
f 67 68 69
g roof
f 70 68 67
g roof
f 67 71 72
g roof
f 67 72 73
g roof
f 67 73 74
g roof
f 75 72 71
g roof
f 75 71 76
g roof
f 77 76 78
g roof
f 79 80 81
g roof
f 79 81 82
g roof
f 82 83 84
g roof
f 82 84 4
g roof
f 82 4 85
g roof
f 85 86 87
g roof
f 88 5 7
g roof
f 88 7 89
g roof
f 13 10 20
g roof
f 13 20 90
g roof
f 90 21 23
g roof
f 21 27 28
g roof
f 21 28 91
g roof
f 21 91 92
g roof
f 93 28 30
g roof
f 93 30 35
g roof
f 37 41 47
g roof
f 37 47 50
g roof
f 37 50 51
g roof
f 37 51 54
g roof
f 54 59 61
g roof
f 61 62 64
g roof
f 61 64 67
g roof
f 61 67 69
g roof
f 70 67 74
g roof
f 70 74 75
g roof
f 70 75 76
g roof
f 78 80 79
g roof
f 78 79 94
g roof
f 78 94 95
g roof
f 79 82 85
g roof
f 79 85 87
g roof
f 79 87 88
g roof
f 79 88 89
g roof
f 9 86 85
g roof
f 9 85 96
g roof
f 9 96 10
g roof
f 9 10 12
g roof
f 13 90 23
g roof
f 13 23 97
g roof
f 13 97 24
g roof
f 24 21 92
g roof
f 24 92 93
g roof
f 24 93 35
g roof
f 54 61 69
g roof
f 54 69 98
g roof
f 54 98 70
g roof
f 77 78 95
g roof
f 77 95 99
g roof
f 77 99 100
g roof
f 100 79 89
g roof
f 8 9 12
g roof
f 8 12 101
g roof
f 8 101 13
g roof
f 13 24 35
g roof
f 13 35 37
g roof
f 77 100 89
g roof
f 8 13 37
g roof
f 76 77 102
g roof
f 103 77 89
g roof
f 104 8 37
g roof
f 70 76 102
g roof
f 70 102 103
g roof
f 70 103 89
g roof
f 89 104 37
g roof
f 89 37 54
g roof
f 89 54 70
g roof
f 105 106 107
g roof
f 105 107 108
g facade_completed
f 4 3 109 110
g facade_completed
f 1 4 110 111
g facade_completed
f 2 1 111 112
g facade_completed
f 3 2 112 109
g facade_completed
f 10 96 113 114
g facade_completed
f 2 10 114 112
g facade_completed
f 14 2 112 115
g facade_completed
f 15 14 115 116
g facade_completed
f 16 15 116 117
g facade_completed
f 17 16 117 118
g facade_completed
f 18 17 118 119
g facade_completed
f 19 18 119 120
g facade_completed
f 20 19 120 121
g facade_completed
f 90 20 121 122
g facade_completed
f 21 90 122 123
g facade_completed
f 25 21 123 124
g facade_completed
f 26 25 124 125
g facade_completed
f 27 26 125 126
g facade_completed
f 29 27 126 127
g facade_completed
f 30 29 127 128
g facade_completed
f 31 30 128 129
g facade_completed
f 32 31 129 130
g facade_completed
f 33 32 130 131
g facade_completed
f 34 33 131 132
g facade_completed
f 35 34 132 133
g facade_completed
f 36 35 133 134
g facade_completed
f 37 36 134 135
g facade_completed
f 38 37 135 136
g facade_completed
f 39 38 136 137
g facade_completed
f 40 39 137 138
g facade_completed
f 41 40 138 139
g facade_completed
f 42 41 139 140
g facade_completed
f 43 42 140 141
g facade_completed
f 44 43 141 142
g facade_completed
f 45 44 142 143
g facade_completed
f 46 45 143 144
g facade_completed
f 47 46 144 145
g facade_completed
f 48 47 145 146
g facade_completed
f 49 48 146 147
g facade_completed
f 50 49 147 148
g facade_completed
f 51 50 148 149
g facade_completed
f 52 51 149 150
g facade_completed
f 53 52 150 151
g facade_completed
f 54 53 151 152
g facade_completed
f 55 54 152 153
g facade_completed
f 56 55 153 154
g facade_completed
f 57 56 154 155
g facade_completed
f 58 57 155 156
g facade_completed
f 59 58 156 157
g facade_completed
f 60 59 157 158
g facade_completed
f 61 60 158 159
g facade_completed
f 62 61 159 160
g facade_completed
f 63 62 160 161
g facade_completed
f 64 63 161 162
g facade_completed
f 65 64 162 163
g facade_completed
f 66 65 163 164
g facade_completed
f 67 66 164 165
g facade_completed
f 71 67 165 166
g facade_completed
f 76 71 166 167
g facade_completed
f 78 76 167 168
g facade_completed
f 80 78 168 169
g facade_completed
f 81 80 169 170
g facade_completed
f 82 81 170 171
g facade_completed
f 83 82 171 172
g facade_completed
f 84 83 172 173
g facade_completed
f 4 84 173 110
g facade_completed
f 85 4 110 174
g facade_completed
f 96 85 174 113
g facade_completed
f 104 89 175 176
g facade_completed
f 8 104 176 177
g facade_completed
f 6 8 177 178
g facade_completed
f 7 6 178 179
g facade_completed
f 89 7 179 175
g facade_completed
f 92 91 180 181
g facade_completed
f 93 92 181 182
g facade_completed
f 28 93 182 183
g facade_completed
f 91 28 183 180
g facade_completed
f 11 13 184 185
g facade_completed
f 12 11 185 186
g facade_completed
f 101 12 186 187
g facade_completed
f 13 101 187 184
g facade_completed
f 77 103 188 189
g facade_completed
f 102 77 189 190
g facade_completed
f 103 102 190 188
g facade_completed
f 98 69 191 192
g facade_completed
f 70 98 192 193
g facade_completed
f 68 70 193 194
g facade_completed
f 69 68 194 191
g facade_completed
f 97 23 195 196
g facade_completed
f 24 97 196 197
g facade_completed
f 22 24 197 198
g facade_completed
f 23 22 198 195
g facade_completed
f 86 9 199 200
g facade_completed
f 87 86 200 201
g facade_completed
f 88 87 201 202
g facade_completed
f 5 88 202 203
g facade_completed
f 9 5 203 199
g facade_completed
f 79 100 204 205
g facade_completed
f 94 79 205 206
g facade_completed
f 95 94 206 207
g facade_completed
f 99 95 207 208
g facade_completed
f 100 99 208 204
g facade_completed
f 74 73 209 210
g facade_completed
f 75 74 210 211
g facade_completed
f 72 75 211 212
g facade_completed
f 73 72 212 209
g facade_completed
f 108 107 25 124 213
g facade_completed
f 105 108 213 120 19
g facade_completed
f 106 105 19 120 214
g facade_completed
f 107 106 214 124 25
g ground_assumed
f 120 124 214
g ground_assumed
f 120 213 124
g ground_assumed
f 111 109 112
g ground_assumed
f 111 110 109
g ground_assumed
f 203 179 178
g ground_assumed
f 177 203 178
g ground_assumed
f 177 199 203
g ground_assumed
f 114 186 185
g ground_assumed
f 184 114 185
g ground_assumed
f 114 115 112
g ground_assumed
f 114 116 115
g ground_assumed
f 114 117 116
g ground_assumed
f 114 118 117
g ground_assumed
f 114 119 118
g ground_assumed
f 114 120 119
g ground_assumed
f 114 121 120
g ground_assumed
f 123 195 198
g ground_assumed
f 197 123 198
g ground_assumed
f 123 125 124
g ground_assumed
f 123 126 125
g ground_assumed
f 183 127 126
g ground_assumed
f 183 128 127
g ground_assumed
f 128 130 129
g ground_assumed
f 128 131 130
g ground_assumed
f 128 132 131
g ground_assumed
f 128 133 132
g ground_assumed
f 133 135 134
g ground_assumed
f 135 137 136
g ground_assumed
f 135 138 137
g ground_assumed
f 135 139 138
g ground_assumed
f 139 141 140
g ground_assumed
f 139 142 141
g ground_assumed
f 139 143 142
g ground_assumed
f 139 144 143
g ground_assumed
f 139 145 144
g ground_assumed
f 145 147 146
g ground_assumed
f 145 148 147
g ground_assumed
f 149 151 150
g ground_assumed
f 149 152 151
g ground_assumed
f 152 154 153
g ground_assumed
f 152 155 154
g ground_assumed
f 152 156 155
g ground_assumed
f 152 157 156
g ground_assumed
f 157 159 158
g ground_assumed
f 160 162 161
g ground_assumed
f 162 164 163
g ground_assumed
f 162 165 164
g ground_assumed
f 165 191 194
g ground_assumed
f 193 165 194
g ground_assumed
f 165 212 166
g ground_assumed
f 165 209 212
g ground_assumed
f 165 210 209
g ground_assumed
f 211 166 212
g ground_assumed
f 211 167 166
g ground_assumed
f 189 168 167
g ground_assumed
f 205 170 169
g ground_assumed
f 205 171 170
g ground_assumed
f 171 173 172
g ground_assumed
f 171 110 173
g ground_assumed
f 171 174 110
g ground_assumed
f 174 201 200
g ground_assumed
f 202 179 203
g ground_assumed
f 202 175 179
g ground_assumed
f 184 121 114
g ground_assumed
f 184 122 121
g ground_assumed
f 122 195 123
g ground_assumed
f 123 183 126
g ground_assumed
f 123 180 183
g ground_assumed
f 123 181 180
g ground_assumed
f 182 128 183
g ground_assumed
f 182 133 128
g ground_assumed
f 135 145 139
g ground_assumed
f 135 148 145
g ground_assumed
f 135 149 148
g ground_assumed
f 135 152 149
g ground_assumed
f 152 159 157
g ground_assumed
f 159 162 160
g ground_assumed
f 159 165 162
g ground_assumed
f 159 191 165
g ground_assumed
f 193 210 165
g ground_assumed
f 193 211 210
g ground_assumed
f 193 167 211
g ground_assumed
f 168 205 169
g ground_assumed
f 168 206 205
g ground_assumed
f 168 207 206
g ground_assumed
f 205 174 171
g ground_assumed
f 205 201 174
g ground_assumed
f 205 202 201
g ground_assumed
f 205 175 202
g ground_assumed
f 199 174 200
g ground_assumed
f 199 113 174
g ground_assumed
f 199 114 113
g ground_assumed
f 199 186 114
g ground_assumed
f 184 195 122
g ground_assumed
f 184 196 195
g ground_assumed
f 184 197 196
g ground_assumed
f 197 181 123
g ground_assumed
f 197 182 181
g ground_assumed
f 197 133 182
g ground_assumed
f 152 191 159
g ground_assumed
f 152 192 191
g ground_assumed
f 152 193 192
g ground_assumed
f 189 207 168
g ground_assumed
f 189 208 207
g ground_assumed
f 189 204 208
g ground_assumed
f 204 175 205
g ground_assumed
f 177 186 199
g ground_assumed
f 177 187 186
g ground_assumed
f 177 184 187
g ground_assumed
f 184 133 197
g ground_assumed
f 184 135 133
g ground_assumed
f 189 175 204
g ground_assumed
f 177 135 184
g ground_assumed
f 167 190 189
g ground_assumed
f 188 175 189
g ground_assumed
f 176 135 177
g ground_assumed
f 193 190 167
g ground_assumed
f 193 188 190
g ground_assumed
f 193 175 188
g ground_assumed
f 175 135 176
g ground_assumed
f 175 152 135
g ground_assumed
f 175 193 152
