v 2680954.6029523793 1250337.2867716439 524.21232382944493
v 2680954.352918413 1250337.349280135 524.21291016529869
v 2680954.3382112896 1250337.2904516414 524.21264914586891
v 2680954.5882452554 1250337.2279431499 524.21206281001525
v 2680951.1323671872 1250336.5918954448 524.21307526100838
v 2680948.4999850956 1250337.1249804187 524.21865724704958
v 2680948.2500025984 1250336.7499938055 524.21717516671447
v 2680948.0000201012 1250337.499992766 524.22101170860003
v 2680951.2500113077 1250336.8750107882 524.2142769216706
v 2680953.9264504346 1250337.4558971296 524.21391024338459
v 2680949.279398303 1250337.9926621013 524.22185287742991
v 2680949.1176328128 1250337.3456001373 524.21898189448143
v 2680948.617667818 1250338.1580947225 524.22340465179161
v 2680954.6617422714 1250338.5845755683 524.21839111176598
v 2680954.0000117854 1250338.4999870909 524.21876085489566
v 2680953.2646942143 1250339.3088145454 524.22344001235319
v 2680952.7941177324 1250339.4264586659 524.22454352586453
v 2680952.6029379945 1250338.6617397147 524.22115050458706
v 2680952.058813028 1250338.7977709563 524.22242649129078
v 2680951.8235247871 1250337.856617992 524.21825064091104
v 2680951.4117381973 1250339.0220449385 524.22423940551141
v 2680950.5735479649 1250338.9191208088 524.22472770244144
v 2680950.382368227 1250338.1544018574 524.22133468116408
v 2680949.8823774979 1250339.0919134256 524.22634851403961
v 2680951.8970346702 1250338.9007208208 524.22310137338184
v 2680952.1543900301 1250339.9301422595 524.22766886643853
v 2680951.2573455689 1250340.1544033748 524.22977245803577
v 2680951.0588315702 1250340.2353118544 524.23038586181269
v 2680950.4999737456 1250340.6249927238 524.23287816971015
v 2680950.0000216183 1250340.5000143426 524.23286879745308
v 2680949.7499876525 1250340.7499839729 524.23434139783456
v 2680949.3823481677 1250340.8418938441 524.23520352187677
v 2680949.1176456795 1250339.783083892 524.23050563316815
v 2680948.588240704 1250339.2279317998 524.22849677373142
v 2680948.4117680895 1250338.5220413425 524.22536477188373
v 2680948.000007234 1250338.2500045937 524.22455757363969
v 2680947.7500118697 1250337.2500231357 524.22012070383028
v 2680947.3235438908 1250337.1066190316 524.21993875068415
v 2680947.1764855236 1250336.5183855621 524.21732878716546
v 2680946.8088074368 1250335.8602964724 524.21464516712786
v 2680946.6911633164 1250335.3897199908 524.21255724193793
v 2680946.2941481858 1250334.9889862612 524.21112444844937
v 2680946.2059054454 1250334.6360152978 524.20955833346261
v 2680946.0588342105 1250334.3603114188 524.20842593869315
v 2680945.9411772233 1250333.8896834678 524.20633778537751
v 2680945.8235459696 1250333.6066195932 524.2051363533717
v 2680945.6764876018 1250333.0183861232 524.20252638985289
v 2680945.2793824016 1250332.7426307753 524.20168456476358
v 2680945.2058596518 1250332.4485397751 524.20037969680175
v 2680945.8235331029 1250332.2941214121 524.19893123743623
v 2680945.6911818585 1250331.7647164366 524.19658229281674
v 2680945.4999892535 1250331.4999882143 524.1955531053469
v 2680945.7573317466 1250331.65439371 524.19598377875843
v 2680946.9926271793 1250331.3455698513 524.19308698045666
v 2680947.5073636337 1250331.0294245991 524.19099364603244
v 2680948.2426426033 1250330.8456048565 524.18926939847836
v 2680948.4852779722 1250330.9411818588 524.1894390524601
v 2680950.014715875 1250330.5588223827 524.18585248234865
v 2680950.5000252146 1250330.6250108723 524.18560094340319
v 2680950.999990209 1250330.5000196237 524.18442851308464
v 2680951.2500241753 1250330.8749933694 524.1859104729906
v 2680951.7794291512 1250330.4926210267 524.18348697420367
v 2680951.7353206477 1250330.3161870136 524.18270414457083
v 2680952.7353021055 1250330.0661916491 524.18035916350459
v 2680952.9999788594 1250329.8750119116 524.17914747432576
v 2680953.4264854398 1250330.0183516799 524.17932907838633
v 2680953.5735566742 1250330.6066366183 524.18193927003085
v 2680948.5000236975 1250331.750009313 524.1932458159697
v 2680948.2647097223 1250331.5588167077 524.19261560197322
v 2680947.9999943674 1250332.1249830588 524.19560016929313
v 2680953.8676219406 1250331.5330953258 524.18597728679617
v 2680952.4558667601 1250331.7610235715 524.18869687219399
v 2680952.294101269 1250331.1139616081 524.18582588977608
v 2680951.7058677995 1250331.2610199756 524.18720531190513
v 2680951.8676332906 1250331.908081939 524.19007629432315
v 2680954.1764586661 1250332.9559033664 524.19234472644746
v 2680948.5588264572 1250334.3603114188 524.20551821369565
v 2680954.2058986472 1250333.3860256085 524.19434398444025
v 2680952.2058713953 1250334.6360410322 524.20257993310258
v 2680954.2941285204 1250333.7389451033 524.19590987130118
v 2680954.220592903 1250334.1948659301 524.198150868379
v 2680954.7794121262 1250336.4301428213 524.20806868465581
v 2680954.9558590059 1250336.761008064 524.20942770013539
v 2680955.0441017468 1250337.1139790271 524.21099381565261
v 2680954.3235427677 1250336.1691331982 524.20736492130663
v 2680951.8382447776 1250336.4779313221 524.21171546830954
v 2680951.558835166 1250335.3602928766 524.20675656017113
v 2680950.8676646999 1250335.5330854934 524.20837737229976
v 2680947.7058776324 1250336.8860250467 524.21845115288761
v 2680951.1617428334 1250338.0220634807 524.21980253623246
v 2680950.9411745826 1250339.7646839041 524.22829770796648
v 2680950.4705981002 1250339.8823280246 524.22940122147781
v 2680950.5294265943 1250340.1176419999 524.23044529866615
v 2680952.0367459096 1250333.9595390875 524.19957832637635
v 2680951.7573234309 1250334.0293947072 524.20023357903733
v 2680953.647040823 1250336.3382586841 524.20895133524618
v 2680949.6911977604 1250338.3271944742 524.22295549329272
v 2680947.7353047458 1250331.6911679518 524.19385706952824
v 2680951.4999809382 1250334.3750314091 524.20216696808984
v 2680951.7500149044 1250334.7500051556 524.2036489279958
v 2680948.4559023269 1250337.5110327592 524.22053366884313
v 2680948.4411694692 1250333.8896834678 524.2034300603799
v 2680947.9999814997 1250334.250001559 524.20564668831605
v 2680947.7941203727 1250337.2389960098 524.22001726840483
v 2680952.058813028 1250338.7977709563 524.27426324110581
v 2680952.0735201514 1250338.8565994503 524.27422278060601
v 2680951.8970346702 1250338.9007208208 524.2756664403106
v 2680951.8823275468 1250338.8418923267 524.27570690134087
v 2680954.3382112896 1250337.2904516414 519.43024023419093
v 2680954.5882452554 1250337.2279431499 519.43024023419093
v 2680954.6029523793 1250337.2867716439 519.43024023419093
v 2680954.352918413 1250337.349280135 519.43024023419093
v 2680953.647040823 1250336.3382586841 519.43024023419093
v 2680953.9264504346 1250337.4558971296 519.43024023419093
v 2680954.6617422714 1250338.5845755683 519.43024023419093
v 2680954.0000117854 1250338.4999870909 519.43024023419093
v 2680953.2646942143 1250339.3088145454 519.43024023419093
v 2680952.7941177324 1250339.4264586659 519.43024023419093
v 2680952.6029379945 1250338.6617397147 519.43024023419093
v 2680952.058813028 1250338.7977709563 519.43024023419093
v 2680951.8235247871 1250337.856617992 519.43024023419093
v 2680951.1617428334 1250338.0220634807 519.43024023419093
v 2680951.4117381973 1250339.0220449385 519.43024023419093
v 2680951.8970346702 1250338.9007208208 519.43024023419093
v 2680952.1543900301 1250339.9301422595 519.43024023419093
v 2680951.2573455689 1250340.1544033748 519.43024023419093
v 2680950.4999737456 1250340.6249927238 519.43024023419093
v 2680950.0000216183 1250340.5000143426 519.43024023419093
v 2680949.7499876525 1250340.7499839729 519.43024023419093
v 2680949.3823481677 1250340.8418938441 519.43024023419093
v 2680949.1176456795 1250339.783083892 519.43024023419093
v 2680948.588240704 1250339.2279317998 519.43024023419093
v 2680948.4117680895 1250338.5220413425 519.43024023419093
v 2680948.000007234 1250338.2500045937 519.43024023419093
v 2680947.7500118697 1250337.2500231357 519.43024023419093
v 2680947.3235438908 1250337.1066190316 519.43024023419093
v 2680947.1764855236 1250336.5183855621 519.43024023419093
v 2680946.8088074368 1250335.8602964724 519.43024023419093
v 2680946.6911633164 1250335.3897199908 519.43024023419093
v 2680946.2941481858 1250334.9889862612 519.43024023419093
v 2680946.2059054454 1250334.6360152978 519.43024023419093
v 2680946.0588342105 1250334.3603114188 519.43024023419093
v 2680945.9411772233 1250333.8896834678 519.43024023419093
v 2680945.8235459696 1250333.6066195932 519.43024023419093
v 2680945.6764876018 1250333.0183861232 519.43024023419093
v 2680945.2793824016 1250332.7426307753 519.43024023419093
v 2680945.2058596518 1250332.4485397751 519.43024023419093
v 2680945.8235331029 1250332.2941214121 519.43024023419093
v 2680945.6911818585 1250331.7647164366 519.43024023419093
v 2680945.4999892535 1250331.4999882143 519.43024023419093
v 2680945.7573317466 1250331.65439371 519.43024023419093
v 2680946.9926271793 1250331.3455698513 519.43024023419093
v 2680947.5073636337 1250331.0294245991 519.43024023419093
v 2680948.2426426033 1250330.8456048565 519.43024023419093
v 2680948.4852779722 1250330.9411818588 519.43024023419093
v 2680950.014715875 1250330.5588223827 519.43024023419093
v 2680950.5000252146 1250330.6250108723 519.43024023419093
v 2680950.999990209 1250330.5000196237 519.43024023419093
v 2680951.2500241753 1250330.8749933694 519.43024023419093
v 2680951.7794291512 1250330.4926210267 519.43024023419093
v 2680951.7353206477 1250330.3161870136 519.43024023419093
v 2680952.7353021055 1250330.0661916491 519.43024023419093
v 2680952.9999788594 1250329.8750119116 519.43024023419093
v 2680953.4264854398 1250330.0183516799 519.43024023419093
v 2680953.5735566742 1250330.6066366183 519.43024023419093
v 2680953.8676219406 1250331.5330953258 519.43024023419093
v 2680954.1764586661 1250332.9559033664 519.43024023419093
v 2680954.2058986472 1250333.3860256085 519.43024023419093
v 2680954.2941285204 1250333.7389451033 519.43024023419093
v 2680954.220592903 1250334.1948659301 519.43024023419093
v 2680954.7794121262 1250336.4301428213 519.43024023419093
v 2680954.9558590059 1250336.761008064 519.43024023419093
v 2680955.0441017468 1250337.1139790271 519.43024023419093
v 2680954.3235427677 1250336.1691331982 519.43024023419093
v 2680947.7058776324 1250336.8860250467 519.43024023419093
v 2680947.7941203727 1250337.2389960098 519.43024023419093
v 2680948.0000201012 1250337.499992766 519.43024023419093
v 2680948.4999850956 1250337.1249804187 519.43024023419093
v 2680948.2500025984 1250336.7499938055 519.43024023419093
v 2680950.9411745826 1250339.7646839041 519.43024023419093
v 2680950.4705981002 1250339.8823280246 519.43024023419093
v 2680950.5294265943 1250340.1176419999 519.43024023419093
v 2680951.0588315702 1250340.2353118544 519.43024023419093
v 2680948.617667818 1250338.1580947225 519.43024023419093
v 2680949.279398303 1250337.9926621013 519.43024023419093
v 2680949.1176328128 1250337.3456001373 519.43024023419093
v 2680948.4559023269 1250337.5110327592 519.43024023419093
v 2680947.9999814997 1250334.250001559 519.43024023419093
v 2680948.5588264572 1250334.3603114188 519.43024023419093
v 2680948.4411694692 1250333.8896834678 519.43024023419093
v 2680948.2647097223 1250331.5588167077 519.43024023419093
v 2680947.7353047458 1250331.6911679518 519.43024023419093
v 2680947.9999943674 1250332.1249830588 519.43024023419093
v 2680948.5000236975 1250331.750009313 519.43024023419093
v 2680950.382368227 1250338.1544018574 519.43024023419093
v 2680949.6911977604 1250338.3271944742 519.43024023419093
v 2680949.8823774979 1250339.0919134256 519.43024023419093
v 2680950.5735479649 1250338.9191208088 519.43024023419093
v 2680951.2500113077 1250336.8750107882 519.43024023419093
v 2680951.8382447776 1250336.4779313221 519.43024023419093
v 2680951.558835166 1250335.3602928766 519.43024023419093
v 2680950.8676646999 1250335.5330854934 519.43024023419093
v 2680951.1323671872 1250336.5918954448 519.43024023419093
v 2680951.7500149044 1250334.7500051556 519.43024023419093
v 2680952.2058713953 1250334.6360410322 519.43024023419093
v 2680952.0367459096 1250333.9595390875 519.43024023419093
v 2680951.7573234309 1250334.0293947072 519.43024023419093
v 2680951.4999809382 1250334.3750314091 519.43024023419093
v 2680952.294101269 1250331.1139616081 519.43024023419093
v 2680951.7058677995 1250331.2610199756 519.43024023419093
v 2680951.8676332906 1250331.908081939 519.43024023419093
v 2680952.4558667601 1250331.7610235715 519.43024023419093
v 2680951.8823275468 1250338.8418923267 519.43024023419093
v 2680952.0735201514 1250338.8565994503 519.43024023419093
l 1 2
l 2 3
l 3 4
l 1 4
l 6 7
l 6 8
l 5 9
l 11 12
l 11 13
l 2 10
l 2 14
l 14 15
l 15 16
l 16 17
l 17 18
l 18 19
l 19 20
l 22 23
l 22 24
l 21 25
l 25 26
l 26 27
l 27 29
l 29 30
l 30 31
l 31 32
l 32 33
l 33 34
l 34 35
l 35 36
l 36 37
l 37 38
l 38 39
l 39 40
l 40 41
l 41 42
l 42 43
l 43 44
l 44 45
l 45 46
l 46 47
l 47 48
l 48 49
l 49 50
l 51 52
l 52 53
l 53 54
l 54 55
l 55 56
l 56 57
l 57 58
l 58 59
l 59 60
l 60 61
l 62 63
l 63 64
l 64 65
l 65 66
l 66 67
l 68 69
l 68 70
l 67 71
l 72 73
l 73 74
l 72 75
l 71 76
l 76 78
l 80 81
l 81 82
l 82 83
l 83 84
l 4 84
l 4 85
l 86 87
l 5 88
l 7 89
l 20 90
l 21 90
l 28 91
l 91 92
l 28 93
l 50 51
l 61 62
l 74 75
l 78 80
l 79 94
l 94 95
l 87 88
l 9 86
l 85 96
l 10 96
l 23 97
l 24 97
l 92 93
l 69 98
l 70 98
l 95 99
l 99 100
l 79 100
l 12 101
l 13 101
l 77 102
l 77 103
l 8 104
l 102 103
l 89 104
l 105 106
l 106 107
l 107 108
l 105 108
l 3 109
l 109 110
l 4 110
l 110 111
l 1 111
l 111 112
l 2 112
l 109 112
l 96 113
l 113 114
l 10 114
l 112 114
l 112 115
l 14 115
l 115 116
l 15 116
l 116 117
l 16 117
l 117 118
l 17 118
l 118 119
l 18 119
l 119 120
l 19 120
l 120 121
l 20 121
l 121 122
l 90 122
l 122 123
l 21 123
l 123 124
l 25 124
l 124 125
l 26 125
l 125 126
l 27 126
l 126 127
l 29 127
l 127 128
l 30 128
l 128 129
l 31 129
l 129 130
l 32 130
l 130 131
l 33 131
l 131 132
l 34 132
l 132 133
l 35 133
l 133 134
l 36 134
l 134 135
l 37 135
l 135 136
l 38 136
l 136 137
l 39 137
l 137 138
l 40 138
l 138 139
l 41 139
l 139 140
l 42 140
l 140 141
l 43 141
l 141 142
l 44 142
l 142 143
l 143 144
l 144 145
l 47 145
l 145 146
l 48 146
l 146 147
l 49 147
l 147 148
l 50 148
l 148 149
l 51 149
l 149 150
l 52 150
l 150 151
l 53 151
l 151 152
l 54 152
l 152 153
l 55 153
l 153 154
l 56 154
l 154 155
l 57 155
l 155 156
l 58 156
l 156 157
l 59 157
l 157 158
l 60 158
l 158 159
l 61 159
l 159 160
l 62 160
l 160 161
l 63 161
l 161 162
l 64 162
l 162 163
l 65 163
l 163 164
l 66 164
l 164 165
l 165 166
l 166 167
l 167 168
l 78 168
l 168 169
l 80 169
l 169 170
l 81 170
l 170 171
l 82 171
l 171 172
l 83 172
l 172 173
l 84 173
l 110 173
l 110 174
l 85 174
l 113 174
l 89 175
l 175 176
l 104 176
l 176 177
l 8 177
l 177 178
l 6 178
l 178 179
l 7 179
l 175 179
l 91 180
l 180 181
l 92 181
l 181 182
l 93 182
l 182 183
l 28 183
l 180 183
l 13 184
l 184 185
l 11 185
l 185 186
l 12 186
l 186 187
l 101 187
l 184 187
l 103 188
l 188 189
l 77 189
l 189 190
l 102 190
l 188 190
l 69 191
l 191 192
l 98 192
l 192 193
l 70 193
l 193 194
l 68 194
l 191 194
l 23 195
l 195 196
l 97 196
l 196 197
l 24 197
l 197 198
l 22 198
l 195 198
l 9 199
l 199 200
l 86 200
l 200 201
l 87 201
l 201 202
l 88 202
l 202 203
l 199 203
l 100 204
l 204 205
l 79 205
l 205 206
l 94 206
l 206 207
l 95 207
l 207 208
l 99 208
l 204 208
l 73 209
l 209 210
l 74 210
l 210 211
l 75 211
l 211 212
l 72 212
l 209 212
l 25 107
l 124 213
l 108 213
l 120 213
l 19 105
l 120 214
l 106 214
l 124 214
