# XYZ-only planar convex-roof baseline. Provisional base; no GT.
v 8.49986615 6.00973535 2.66777062
v -1.86924564 6.99599660 2.71383773
v -2.04379016 6.92651772 2.71451684
v -2.35710416 6.79942220 2.71573321
v -3.80072101 5.88038035 2.72096450
v -9.96174710 1.76399172 2.74307318
v -11.71867795 0.54782878 2.74933053
v -12.64562797 -0.17915762 2.75253637
v -12.64543968 -0.30003958 2.75240026
v -12.59177712 -0.45519026 2.75199392
v -12.41723260 -0.95378129 2.75067901
v -12.01862339 -1.57137139 2.74825930
v -10.40799360 -3.85099435 2.73872376
v -8.90450064 -5.96473412 2.72983844
v -8.44017833 -6.58947922 2.72712578
v -8.24887603 -6.79490324 2.72606633
v -8.02612935 -6.99392542 2.72487769
v -7.95985139 -6.99806779 2.72458565
v -7.08110353 -6.80168167 2.72099497
v 11.13272052 -1.17784599 2.64830929
v 11.37373129 -1.08181826 2.64737168
v 11.76706840 -0.87997174 2.64589198
v 11.95818240 -0.77019887 2.64518612
v 12.58405725 -0.38062756 2.64290818
v 12.44001565 0.25428519 2.64424339
v 10.68364967 3.01310535 2.65494723
v 9.06642975 5.34544941 2.66457036
v 8.92728369 5.51076774 2.66535876
v 8.49986615 6.00973535 -3.52216528
v -1.86924564 6.99599660 -3.52216528
v -2.04379016 6.92651772 -3.52216528
v -2.35710416 6.79942220 -3.52216528
v -3.80072101 5.88038035 -3.52216528
v -9.96174710 1.76399172 -3.52216528
v -11.71867795 0.54782878 -3.52216528
v -12.64562797 -0.17915762 -3.52216528
v -12.64543968 -0.30003958 -3.52216528
v -12.59177712 -0.45519026 -3.52216528
v -12.41723260 -0.95378129 -3.52216528
v -12.01862339 -1.57137139 -3.52216528
v -10.40799360 -3.85099435 -3.52216528
v -8.90450064 -5.96473412 -3.52216528
v -8.44017833 -6.58947922 -3.52216528
v -8.24887603 -6.79490324 -3.52216528
v -8.02612935 -6.99392542 -3.52216528
v -7.95985139 -6.99806779 -3.52216528
v -7.08110353 -6.80168167 -3.52216528
v 11.13272052 -1.17784599 -3.52216528
v 11.37373129 -1.08181826 -3.52216528
v 11.76706840 -0.87997174 -3.52216528
v 11.95818240 -0.77019887 -3.52216528
v 12.58405725 -0.38062756 -3.52216528
v 12.44001565 0.25428519 -3.52216528
v 10.68364967 3.01310535 -3.52216528
v 9.06642975 5.34544941 -3.52216528
v 8.92728369 5.51076774 -3.52216528
g roof
f 1 2 3 4 5 6 7 8 9 10 11 12 13 14 15 16 17 18 19 20 21 22 23 24 25 26 27 28
g wall
f 2 1 29 30
g wall
f 3 2 30 31
g wall
f 4 3 31 32
g wall
f 5 4 32 33
g wall
f 6 5 33 34
g wall
f 7 6 34 35
g wall
f 8 7 35 36
g wall
f 9 8 36 37
g wall
f 10 9 37 38
g wall
f 11 10 38 39
g wall
f 12 11 39 40
g wall
f 13 12 40 41
g wall
f 14 13 41 42
g wall
f 15 14 42 43
g wall
f 16 15 43 44
g wall
f 17 16 44 45
g wall
f 18 17 45 46
g wall
f 19 18 46 47
g wall
f 20 19 47 48
g wall
f 21 20 48 49
g wall
f 22 21 49 50
g wall
f 23 22 50 51
g wall
f 24 23 51 52
g wall
f 25 24 52 53
g wall
f 26 25 53 54
g wall
f 27 26 54 55
g wall
f 28 27 55 56
g wall
f 1 28 56 29
g ground_assumed
f 56 55 54 53 52 51 50 49 48 47 46 45 44 43 42 41 40 39 38 37 36 35 34 33 32 31 30 29
