# Source coordinates; no display transform
v 0.331332249036 0.243043028435 0.120763263494
v -0.0758095520681 0.281768445792 0.122572082467
v -0.0826630195285 0.279040366771 0.122598747631
v -0.0949652522418 0.274049978011 0.122646508238
v -0.151648676658 0.237963921493 0.122851914147
v -0.393560550089 0.0763344671281 0.123720008539
v -0.462546207219 0.0285819903629 0.123965702558
v -0.498942776985 3.69656521111e-05 0.124091579441
v -0.498935383803 -0.00470944849716 0.1240862351
v -0.496828330492 -0.0108014193985 0.124070280213
v -0.489974863031 -0.0303785301559 0.124018650446
v -0.474323525194 -0.0546281236361 0.123923640854
v -0.411082359809 -0.144137217237 0.123549229138
v -0.352047907863 -0.227132929354 0.123200348225
v -0.333816353858 -0.251663462961 0.12309383599
v -0.326304894386 -0.259729409899 0.123052236826
v -0.317558775497 -0.267543989438 0.123005565034
v -0.314956380176 -0.267706639047 0.122994098122
v -0.280452461838 -0.259995564055 0.122853110547
v 0.434710927168 -0.0391764009253 0.119999116949
v 0.444174183131 -0.0354058848252 0.119962301816
v 0.45961851266 -0.0274804079508 0.119904201592
v 0.467122578558 -0.0231701907491 0.119876486092
v 0.49169747165 -0.00787372485844 0.11978704308
v 0.486041697303 0.0170560401797 0.119839469924
v 0.417078219719 0.125380748372 0.120259754784
v 0.353578293752 0.216959928982 0.120637605709
v 0.348114742135 0.223451131314 0.12066856213
v 0.331332249036 0.243043028435 -0.122283749798
v -0.0758095520681 0.281768445792 -0.122283749798
v -0.0826630195285 0.279040366771 -0.122283749798
v -0.0949652522418 0.274049978011 -0.122283749798
v -0.151648676658 0.237963921493 -0.122283749798
v -0.393560550089 0.0763344671281 -0.122283749798
v -0.462546207219 0.0285819903629 -0.122283749798
v -0.498942776985 3.69656521111e-05 -0.122283749798
v -0.498935383803 -0.00470944849716 -0.122283749798
v -0.496828330492 -0.0108014193985 -0.122283749798
v -0.489974863031 -0.0303785301559 -0.122283749798
v -0.474323525194 -0.0546281236361 -0.122283749798
v -0.411082359809 -0.144137217237 -0.122283749798
v -0.352047907863 -0.227132929354 -0.122283749798
v -0.333816353858 -0.251663462961 -0.122283749798
v -0.326304894386 -0.259729409899 -0.122283749798
v -0.317558775497 -0.267543989438 -0.122283749798
v -0.314956380176 -0.267706639047 -0.122283749798
v -0.280452461838 -0.259995564055 -0.122283749798
v 0.434710927168 -0.0391764009253 -0.122283749798
v 0.444174183131 -0.0354058848252 -0.122283749798
v 0.45961851266 -0.0274804079508 -0.122283749798
v 0.467122578558 -0.0231701907491 -0.122283749798
v 0.49169747165 -0.00787372485844 -0.122283749798
v 0.486041697303 0.0170560401797 -0.122283749798
v 0.417078219719 0.125380748372 -0.122283749798
v 0.353578293752 0.216959928982 -0.122283749798
v 0.348114742135 0.223451131314 -0.122283749798
g roof
f 1 2 3 4 5 6 7 8 9 10 11 12 13 14 15 16 17 18 19 20 21 22 23 24 25 26 27 28
g wall
f 2 1 29 30
g wall
f 3 2 30 31
g wall
f 4 3 31 32
g wall
f 5 4 32 33
g wall
f 6 5 33 34
g wall
f 7 6 34 35
g wall
f 8 7 35 36
g wall
f 9 8 36 37
g wall
f 10 9 37 38
g wall
f 11 10 38 39
g wall
f 12 11 39 40
g wall
f 13 12 40 41
g wall
f 14 13 41 42
g wall
f 15 14 42 43
g wall
f 16 15 43 44
g wall
f 17 16 44 45
g wall
f 18 17 45 46
g wall
f 19 18 46 47
g wall
f 20 19 47 48
g wall
f 21 20 48 49
g wall
f 22 21 49 50
g wall
f 23 22 50 51
g wall
f 24 23 51 52
g wall
f 25 24 52 53
g wall
f 26 25 53 54
g wall
f 27 26 54 55
g wall
f 28 27 55 56
g wall
f 1 28 56 29
g ground_assumed
f 56 55 54 53 52 51 50 49 48 47 46 45 44 43 42 41 40 39 38 37 36 35 34 33 32 31 30 29
