# pointcloud_to_mesh 0.5.1; candidate requires geometry validation; coordinates preserved
v -5.273403919 -5.712767925 2.876439813
v -5.348828346 -5.712844250 2.876460851
v -5.264833622 -5.737526560 2.876441164
v 2.596690886 4.674148269 2.872677127
v 1.558067596 4.674101020 2.872966668
v -4.674104655 2.337019616 2.875056968
v -5.712804270 2.596738135 2.875307297
v -5.700475836 3.340064180 2.875191594
v -6.244504319 3.151746629 2.875371693
v -7.286278774 3.420348016 2.875621538
v -8.294106421 3.071484600 2.875955177
v -8.368204233 2.766148696 2.876021948
v -10.847564194 1.907908709 2.876842734
v -11.969669734 1.629330450 2.877197615
v -11.944969252 0.779031981 2.877319152
v -10.931002829 1.369706430 2.876947280
v -9.842851366 1.746374244 2.876587051
v -9.867562752 0.778970193 2.876740049
v -10.906226021 0.259642193 2.877108029
v -11.425608540 -0.259725788 2.877331258
v -11.425561291 -1.298349077 2.877488111
v -10.906287809 -1.817764307 2.877421803
v -10.906284174 -2.596716328 2.877539449
v -7.270868232 -0.779035615 2.876251486
v -7.255370460 -0.044559728 2.876136236
v -6.247637311 0.304270977 2.875802628
v -6.232117732 -0.779050154 2.875961919
v -7.295572348 -1.227064416 2.876326040
v -6.207420885 -0.850396602 2.875965810
v -6.232164982 -1.817706154 2.876118803
v -7.295525099 -2.265687706 2.876482892
v -6.207468134 -1.889052603 2.876122694
v -6.232179520 -2.856456653 2.876275692
v -9.852101326 -3.160709458 2.877330759
v -8.844273678 -2.811846042 2.876997120
v -8.828881309 -3.895105385 2.877156437
v -9.867580924 -3.635386866 2.877406766
v -9.867602732 -5.193512615 2.877642100
v -8.828841329 -5.453103924 2.877391734
v -8.828844963 -4.674151904 2.877274088
v -8.309556943 -4.154816635 2.877050891
v -1.038666904 -1.817655270 2.874671019
v -0.000003635 -1.298327270 2.874303039
v -0.000018173 -2.337077769 2.874459928
v -7.270846424 -4.674111924 2.876839764
v -7.790152617 -7.530524963 2.877415941
v -6.232106829 -6.491828982 2.876824732
v -6.232143174 -5.712782463 2.876707081
v -6.232186789 -5.453111193 2.876667874
v 2.612185023 -1.342905171 2.873581579
v 2.596756308 0.519400692 2.873304611
v -5.641468725 -4.649469595 2.876381825
v -5.193487173 -5.712829712 2.876417545
v -5.193483539 -6.491781732 2.876535191
v -8.828895847 -7.011135175 2.877627063
v -8.828910386 -8.049885674 2.877783953
v -7.320218312 -8.426495335 2.877420259
v -5.144104382 -7.673225129 2.876699862
v -6.256810945 -6.939857783 2.876899286
v -5.168753980 -6.563222680 2.876539087
v -5.150286772 -7.655364892 2.876698888
v -3.678659959 -7.145955611 2.876211710
v -1.057217708 -6.438324597 2.875374063
v -1.088140560 -6.089446643 2.875329991
v 1.088067869 -5.336143725 2.874609562
v 1.561073379 -5.462044946 2.874496719
v 3.113024007 -4.924831267 2.873982950
v 5.814702845 -3.670053317 2.873040298
v 6.232132270 -3.635401405 2.872918699
v 6.837970111 -3.365793243 2.872709092
v 9.781129237 -2.347007392 2.871734766
v 11.994399292 -1.700771397 2.871020177
v 11.944918368 -1.038735961 2.870933982
v 10.906269636 -0.519313462 2.871145073
v 10.906287809 1.817764307 2.870792093
v 9.867620905 2.077388327 2.871042427
v 9.867595463 4.674137366 2.870650240
v 8.828884944 5.193432655 2.870861368
v 8.828866771 8.309556943 2.870390736
v 7.270824617 8.569188232 2.870785854
v 6.751485713 7.790148983 2.871048289
v 5.174940004 7.843689713 2.871479692
v 2.615256227 6.957645328 2.872327069
v 2.516428857 6.723750371 2.872389945
v 1.558031250 5.453147539 2.872849017
v -7.270857328 -6.491814443 2.877114299
v -4.074471011 4.442285033 2.874571846
v -4.686502145 4.450113879 2.874741277
v 4.130079807 6.303471450 2.872003588
v 2.596687251 5.453100290 2.872559481
v -1.038681443 -2.856405770 2.874827909
v 0.000029076 -3.375701059 2.874616781
v 4.154791193 7.270875501 2.871850589
v 5.218136772 6.680106553 2.871643389
v 3.635412308 0.519353442 2.873015075
v 3.620012670 -0.994041754 2.873247940
v -5.264833622 -5.737526560 -2.822593416
v -5.273403919 -5.712767925 -2.822593416
v -5.348828346 -5.712844250 -2.822593416
v -9.852101326 -3.160709458 -2.822593416
v -8.844273678 -2.811846042 -2.822593416
v -8.828881309 -3.895105385 -2.822593416
v -9.867580924 -3.635386866 -2.822593416
v -9.867602732 -5.193512615 -2.822593416
v -8.828841329 -5.453103924 -2.822593416
v -8.828844963 -4.674151904 -2.822593416
v -8.309556943 -4.154816635 -2.822593416
v -7.270846424 -4.674111924 -2.822593416
v -7.270857328 -6.491814443 -2.822593416
v -7.790152617 -7.530524963 -2.822593416
v -8.828895847 -7.011135175 -2.822593416
v -8.828910386 -8.049885674 -2.822593416
v -7.320218312 -8.426495335 -2.822593416
v -5.144104382 -7.673225129 -2.822593416
v -6.256810945 -6.939857783 -2.822593416
v -5.168753980 -6.563222680 -2.822593416
v -5.150286772 -7.655364892 -2.822593416
v -3.678659959 -7.145955611 -2.822593416
v -1.057217708 -6.438324597 -2.822593416
v -1.088140560 -6.089446643 -2.822593416
v 1.088067869 -5.336143725 -2.822593416
v 1.561073379 -5.462044946 -2.822593416
v 3.113024007 -4.924831267 -2.822593416
v 5.814702845 -3.670053317 -2.822593416
v 6.232132270 -3.635401405 -2.822593416
v 6.837970111 -3.365793243 -2.822593416
v 9.781129237 -2.347007392 -2.822593416
v 11.994399292 -1.700771397 -2.822593416
v 11.944918368 -1.038735961 -2.822593416
v 10.906269636 -0.519313462 -2.822593416
v 10.906287809 1.817764307 -2.822593416
v 9.867620905 2.077388327 -2.822593416
v 9.867595463 4.674137366 -2.822593416
v 8.828884944 5.193432655 -2.822593416
v 8.828866771 8.309556943 -2.822593416
v 7.270824617 8.569188232 -2.822593416
v 6.751485713 7.790148983 -2.822593416
v 5.174940004 7.843689713 -2.822593416
v 2.615256227 6.957645328 -2.822593416
v 2.516428857 6.723750371 -2.822593416
v -4.074471011 4.442285033 -2.822593416
v -4.686502145 4.450113879 -2.822593416
v -4.674104655 2.337019616 -2.822593416
v -5.712804270 2.596738135 -2.822593416
v -5.700475836 3.340064180 -2.822593416
v -6.244504319 3.151746629 -2.822593416
v -7.286278774 3.420348016 -2.822593416
v -8.294106421 3.071484600 -2.822593416
v -8.368204233 2.766148696 -2.822593416
v -10.847564194 1.907908709 -2.822593416
v -11.969669734 1.629330450 -2.822593416
v -11.944969252 0.779031981 -2.822593416
v -10.906226021 0.259642193 -2.822593416
v -11.425608540 -0.259725788 -2.822593416
v -11.425561291 -1.298349077 -2.822593416
v -10.906287809 -1.817764307 -2.822593416
v -10.906284174 -2.596716328 -2.822593416
v 4.154791193 7.270875501 -2.822593416
v 5.218136772 6.680106553 -2.822593416
v 4.130079807 6.303471450 -2.822593416
v 2.596690886 4.674148269 -2.822593416
v 1.558067596 4.674101020 -2.822593416
v 1.558031250 5.453147539 -2.822593416
v 2.596687251 5.453100290 -2.822593416
v 3.635412308 0.519353442 -2.822593416
v 3.620012670 -0.994041754 -2.822593416
v 2.612185023 -1.342905171 -2.822593416
v 2.596756308 0.519400692 -2.822593416
v -0.000018173 -2.337077769 -2.822593416
v -1.038666904 -1.817655270 -2.822593416
v -0.000003635 -1.298327270 -2.822593416
v -1.038681443 -2.856405770 -2.822593416
v 0.000029076 -3.375701059 -2.822593416
v -7.295572348 -1.227064416 -2.822593416
v -6.207420885 -0.850396602 -2.822593416
v -6.232164982 -1.817706154 -2.822593416
v -6.247637311 0.304270977 -2.822593416
v -6.232117732 -0.779050154 -2.822593416
v -7.270868232 -0.779035615 -2.822593416
v -7.255370460 -0.044559728 -2.822593416
v -7.295525099 -2.265687706 -2.822593416
v -6.207468134 -1.889052603 -2.822593416
v -6.232179520 -2.856456653 -2.822593416
v -10.931002829 1.369706430 -2.822593416
v -9.842851366 1.746374244 -2.822593416
v -9.867562752 0.778970193 -2.822593416
v -6.232106829 -6.491828982 -2.822593416
v -6.232143174 -5.712782463 -2.822593416
v -6.232186789 -5.453111193 -2.822593416
v -5.641468725 -4.649469595 -2.822593416
v -5.193487173 -5.712829712 -2.822593416
v -5.193483539 -6.491781732 -2.822593416
g roof
f 1 2 3
g roof
f 4 5 6
g roof
f 7 8 9
g roof
f 7 9 10
g roof
f 7 10 11
g roof
f 7 11 12
g roof
f 7 12 13
g roof
f 7 13 14
g roof
f 14 15 16
g roof
f 14 16 17
g roof
f 18 16 15
g roof
f 18 15 19
g roof
f 18 19 20
g roof
f 18 20 21
g roof
f 18 21 22
g roof
f 18 22 23
g roof
f 18 23 24
g roof
f 18 24 25
g roof
f 18 25 26
g roof
f 27 24 23
g roof
f 27 23 28
g roof
f 27 28 29
g roof
f 30 28 23
g roof
f 30 23 31
g roof
f 30 31 32
g roof
f 33 31 23
g roof
f 23 34 35
g roof
f 36 37 38
g roof
f 36 38 39
g roof
f 36 39 40
g roof
f 36 40 41
g roof
f 36 41 42
g roof
f 36 42 43
g roof
f 44 42 41
g roof
f 44 41 45
g roof
f 46 47 48
g roof
f 48 2 49
g roof
f 44 50 51
g roof
f 52 1 53
g roof
f 54 47 46
g roof
f 46 55 56
g roof
f 46 56 57
g roof
f 46 57 58
g roof
f 46 58 59
g roof
f 60 61 62
g roof
f 60 62 63
g roof
f 60 63 64
g roof
f 60 64 65
g roof
f 65 66 67
g roof
f 65 67 68
g roof
f 68 69 70
g roof
f 68 70 71
g roof
f 71 72 73
g roof
f 71 73 74
g roof
f 71 74 75
g roof
f 71 75 76
g roof
f 71 76 77
g roof
f 71 77 78
g roof
f 78 79 80
g roof
f 78 80 81
g roof
f 78 81 82
g roof
f 82 83 84
g roof
f 6 5 85
g roof
f 6 7 14
g roof
f 6 14 17
g roof
f 6 17 18
g roof
f 6 18 26
g roof
f 6 26 27
g roof
f 6 27 29
g roof
f 6 29 30
g roof
f 6 30 32
g roof
f 6 32 33
g roof
f 33 23 35
g roof
f 33 35 36
g roof
f 33 36 43
g roof
f 86 46 48
g roof
f 86 48 49
g roof
f 86 49 52
g roof
f 54 46 59
g roof
f 54 59 60
g roof
f 54 60 65
g roof
f 54 65 68
g roof
f 54 68 71
g roof
f 71 78 82
g roof
f 87 88 6
g roof
f 87 6 85
g roof
f 89 85 90
g roof
f 89 90 4
g roof
f 4 6 33
g roof
f 4 33 43
g roof
f 4 43 44
g roof
f 45 86 52
g roof
f 45 52 91
g roof
f 92 91 52
g roof
f 92 52 53
g roof
f 92 53 54
g roof
f 92 54 71
g roof
f 84 87 85
g roof
f 84 85 89
g roof
f 84 89 93
g roof
f 94 89 4
g roof
f 94 4 44
g roof
f 44 45 91
g roof
f 44 92 71
g roof
f 82 84 93
g roof
f 82 93 94
g roof
f 71 82 94
g roof
f 94 44 51
g roof
f 94 51 95
g roof
f 94 95 96
g roof
f 96 50 44
g roof
f 96 44 71
g roof
f 96 71 94
g facade_completed
f 1 3 97 98
g facade_completed
f 2 1 98 99
g facade_completed
f 3 2 99 97
g facade_completed
f 35 34 100 101
g facade_completed
f 36 35 101 102
g facade_completed
f 37 36 102 103
g facade_completed
f 38 37 103 104
g facade_completed
f 39 38 104 105
g facade_completed
f 40 39 105 106
g facade_completed
f 41 40 106 107
g facade_completed
f 45 41 107 108
g facade_completed
f 86 45 108 109
g facade_completed
f 46 86 109 110
g facade_completed
f 55 46 110 111
g facade_completed
f 56 55 111 112
g facade_completed
f 57 56 112 113
g facade_completed
f 58 57 113 114
g facade_completed
f 59 58 114 115
g facade_completed
f 60 59 115 116
g facade_completed
f 61 60 116 117
g facade_completed
f 62 61 117 118
g facade_completed
f 63 62 118 119
g facade_completed
f 64 63 119 120
g facade_completed
f 65 64 120 121
g facade_completed
f 66 65 121 122
g facade_completed
f 67 66 122 123
g facade_completed
f 68 67 123 124
g facade_completed
f 69 68 124 125
g facade_completed
f 70 69 125 126
g facade_completed
f 71 70 126 127
g facade_completed
f 72 71 127 128
g facade_completed
f 73 72 128 129
g facade_completed
f 74 73 129 130
g facade_completed
f 75 74 130 131
g facade_completed
f 76 75 131 132
g facade_completed
f 77 76 132 133
g facade_completed
f 78 77 133 134
g facade_completed
f 79 78 134 135
g facade_completed
f 80 79 135 136
g facade_completed
f 81 80 136 137
g facade_completed
f 82 81 137 138
g facade_completed
f 83 82 138 139
g facade_completed
f 84 83 139 140
g facade_completed
f 87 84 140 141
g facade_completed
f 88 87 141 142
g facade_completed
f 6 88 142 143
g facade_completed
f 7 6 143 144
g facade_completed
f 8 7 144 145
g facade_completed
f 9 8 145 146
g facade_completed
f 10 9 146 147
g facade_completed
f 11 10 147 148
g facade_completed
f 12 11 148 149
g facade_completed
f 13 12 149 150
g facade_completed
f 14 13 150 151
g facade_completed
f 15 14 151 152
g facade_completed
f 19 15 152 153
g facade_completed
f 20 19 153 154
g facade_completed
f 21 20 154 155
g facade_completed
f 22 21 155 156
g facade_completed
f 23 22 156 157
g facade_completed
f 34 23 157 100
g facade_completed
f 94 93 158 159
g facade_completed
f 89 94 159 160
g facade_completed
f 93 89 160 158
g facade_completed
f 5 4 161 162
g facade_completed
f 85 5 162 163
g facade_completed
f 90 85 163 164
g facade_completed
f 4 90 164 161
g facade_completed
f 96 95 165 166
g facade_completed
f 50 96 166 167
g facade_completed
f 51 50 167 168
g facade_completed
f 95 51 168 165
g facade_completed
f 42 44 169 170
g facade_completed
f 43 42 170 171
g facade_completed
f 44 43 171 169
g facade_completed
f 44 91 172 169
g facade_completed
f 92 44 169 173
g facade_completed
f 91 92 173 172
g facade_completed
f 29 28 174 175
g facade_completed
f 30 29 175 176
g facade_completed
f 28 30 176 174
g facade_completed
f 27 26 177 178
g facade_completed
f 24 27 178 179
g facade_completed
f 25 24 179 180
g facade_completed
f 26 25 180 177
g facade_completed
f 32 31 181 182
g facade_completed
f 33 32 182 183
g facade_completed
f 31 33 183 181
g facade_completed
f 17 16 184 185
g facade_completed
f 18 17 185 186
g facade_completed
f 16 18 186 184
g facade_completed
f 48 47 187 188
g facade_completed
f 2 48 188 99
g facade_completed
f 49 2 99 189
g facade_completed
f 52 49 189 190
g facade_completed
f 1 52 190 98
g facade_completed
f 53 1 98 191
g facade_completed
f 54 53 191 192
g facade_completed
f 47 54 192 187
g ground_assumed
f 99 98 97
g ground_assumed
f 161 143 162
g ground_assumed
f 144 146 145
g ground_assumed
f 144 147 146
g ground_assumed
f 144 148 147
g ground_assumed
f 144 149 148
g ground_assumed
f 144 150 149
g ground_assumed
f 144 151 150
g ground_assumed
f 151 184 152
g ground_assumed
f 151 185 184
g ground_assumed
f 186 152 184
g ground_assumed
f 186 153 152
g ground_assumed
f 186 154 153
g ground_assumed
f 186 155 154
g ground_assumed
f 186 156 155
g ground_assumed
f 186 157 156
g ground_assumed
f 186 179 157
g ground_assumed
f 186 180 179
g ground_assumed
f 186 177 180
g ground_assumed
f 178 157 179
g ground_assumed
f 178 174 157
g ground_assumed
f 178 175 174
g ground_assumed
f 176 157 174
g ground_assumed
f 176 181 157
g ground_assumed
f 176 182 181
g ground_assumed
f 183 157 181
g ground_assumed
f 157 101 100
g ground_assumed
f 102 104 103
g ground_assumed
f 102 105 104
g ground_assumed
f 102 106 105
g ground_assumed
f 102 107 106
g ground_assumed
f 102 170 107
g ground_assumed
f 102 171 170
g ground_assumed
f 169 107 170
g ground_assumed
f 169 108 107
g ground_assumed
f 110 188 187
g ground_assumed
f 188 189 99
g ground_assumed
f 169 168 167
g ground_assumed
f 190 191 98
g ground_assumed
f 192 110 187
g ground_assumed
f 110 112 111
g ground_assumed
f 110 113 112
g ground_assumed
f 110 114 113
g ground_assumed
f 110 115 114
g ground_assumed
f 116 118 117
g ground_assumed
f 116 119 118
g ground_assumed
f 116 120 119
g ground_assumed
f 116 121 120
g ground_assumed
f 121 123 122
g ground_assumed
f 121 124 123
g ground_assumed
f 124 126 125
g ground_assumed
f 124 127 126
g ground_assumed
f 127 129 128
g ground_assumed
f 127 130 129
g ground_assumed
f 127 131 130
g ground_assumed
f 127 132 131
g ground_assumed
f 127 133 132
g ground_assumed
f 127 134 133
g ground_assumed
f 134 136 135
g ground_assumed
f 134 137 136
g ground_assumed
f 134 138 137
g ground_assumed
f 138 140 139
g ground_assumed
f 143 163 162
g ground_assumed
f 143 151 144
g ground_assumed
f 143 185 151
g ground_assumed
f 143 186 185
g ground_assumed
f 143 177 186
g ground_assumed
f 143 178 177
g ground_assumed
f 143 175 178
g ground_assumed
f 143 176 175
g ground_assumed
f 143 182 176
g ground_assumed
f 143 183 182
g ground_assumed
f 183 101 157
g ground_assumed
f 183 102 101
g ground_assumed
f 183 171 102
g ground_assumed
f 109 188 110
g ground_assumed
f 109 189 188
g ground_assumed
f 109 190 189
g ground_assumed
f 192 115 110
g ground_assumed
f 192 116 115
g ground_assumed
f 192 121 116
g ground_assumed
f 192 124 121
g ground_assumed
f 192 127 124
g ground_assumed
f 127 138 134
g ground_assumed
f 141 143 142
g ground_assumed
f 141 163 143
g ground_assumed
f 160 164 163
g ground_assumed
f 160 161 164
g ground_assumed
f 161 183 143
g ground_assumed
f 161 171 183
g ground_assumed
f 161 169 171
g ground_assumed
f 108 190 109
g ground_assumed
f 108 172 190
g ground_assumed
f 173 190 172
g ground_assumed
f 173 191 190
g ground_assumed
f 173 192 191
g ground_assumed
f 173 127 192
g ground_assumed
f 140 163 141
g ground_assumed
f 140 160 163
g ground_assumed
f 140 158 160
g ground_assumed
f 159 161 160
g ground_assumed
f 159 169 161
g ground_assumed
f 169 172 108
g ground_assumed
f 169 127 173
g ground_assumed
f 138 158 140
g ground_assumed
f 138 159 158
g ground_assumed
f 127 159 138
g ground_assumed
f 159 168 169
g ground_assumed
f 159 165 168
g ground_assumed
f 159 166 165
g ground_assumed
f 166 169 167
g ground_assumed
f 166 127 169
g ground_assumed
f 166 159 127
