# Source coordinates; no display transform
v 2684448.46152 1252469.62502 427.929643871
v 2684448.42521 1252469.62498 427.929653998
v 2684448.46564 1252469.6131 427.929644522
v 2684452.24998 1252474.62502 427.927832609
v 2684451.75001 1252474.62499 427.927971987
v 2684448.75 1252473.49998 427.928978205
v 2684448.25 1252473.625 427.929098707
v 2684448.25593 1252473.98282 427.92904301
v 2684447.99405 1252473.89217 427.929129705
v 2684447.49257 1252474.02147 427.929249974
v 2684447.00743 1252473.85354 427.92941058
v 2684446.97176 1252473.70655 427.929442722
v 2684445.77826 1252473.29342 427.929837827
v 2684445.2381 1252473.15932 427.930008658
v 2684445.24999 1252472.75001 427.930067163
v 2684445.73809 1252473.03434 427.929888153
v 2684446.2619 1252473.21566 427.929714748
v 2684446.25 1252472.74998 427.929788397
v 2684445.75002 1252472.49999 427.929965534
v 2684445.5 1252472.24997 427.93007299
v 2684445.50002 1252471.75001 427.930148496
v 2684445.74999 1252471.49997 427.930116577
v 2684445.74999 1252471.12501 427.930173208
v 2684447.49999 1252471.99999 427.929553215
v 2684447.50745 1252472.35355 427.929497737
v 2684447.99254 1252472.52147 427.929337146
v 2684448.00002 1252471.99998 427.929413825
v 2684447.4881 1252471.78432 427.929589104
v 2684448.0119 1252471.96564 427.929415698
v 2684447.99999 1252471.5 427.929489345
v 2684447.48812 1252471.28435 427.929664608
v 2684448.01188 1252471.46566 427.929491218
v 2684447.99999 1252470.99997 427.929564868
v 2684446.25745 1252470.85351 427.93007275
v 2684446.74259 1252471.02145 427.929912145
v 2684446.75 1252470.49999 427.929988836
v 2684446.24999 1252470.62502 427.930109338
v 2684446.24998 1252469.87497 427.930222622
v 2684446.75002 1252469.75001 427.930102102
v 2684446.75002 1252470.12498 427.93004547
v 2684446.99999 1252470.37498 427.929938029
v 2684450.50001 1252471.50003 427.928792418
v 2684451 1252471.75002 427.928615282
v 2684450.99999 1252471.24999 427.928690805
v 2684447.5 1252470.125 427.929836398
v 2684447.25002 1252468.74999 427.930113755
v 2684448.00002 1252469.25 427.929829162
v 2684448 1252469.62501 427.929772527
v 2684447.99998 1252469.75001 427.929753654
v 2684452.25744 1252471.72856 427.928267989
v 2684452.25001 1252472.62503 427.928134664
v 2684448.28434 1252470.13686 427.929615957
v 2684448.49999 1252469.62499 427.929633152
v 2684448.49999 1252469.25002 427.929689784
v 2684446.74999 1252469.00002 427.930215384
v 2684446.74998 1252468.49999 427.930290906
v 2684447.47623 1252468.3187 427.930115833
v 2684448.52376 1252468.6813 427.929769052
v 2684447.98813 1252469.03433 427.92986505
v 2684448.51189 1252469.21563 427.929691659
v 2684448.52078 1252468.6899 427.929768583
v 2684449.22919 1252468.93512 427.929534068
v 2684450.49108 1252469.27575 427.929130846
v 2684450.4762 1252469.44369 427.929109631
v 2684451.52377 1252469.80631 427.928762835
v 2684451.75146 1252469.74571 427.928708515
v 2684452.49853 1252470.00431 427.928461199
v 2684453.79905 1252470.60833 427.92800743
v 2684453.99999 1252470.62501 427.927948896
v 2684454.29163 1252470.75479 427.927847996
v 2684455.70839 1252471.24521 427.92737898
v 2684456.7738 1252471.55629 427.927034995
v 2684456.74998 1252471.87498 427.926993503
v 2684456.25 1252472.12502 427.927095117
v 2684456.25001 1252473.25003 427.926925201
v 2684455.75002 1252473.375 427.927045706
v 2684455.75001 1252474.62501 427.926856917
v 2684455.25 1252474.87499 427.926958548
v 2684455.24999 1252476.37501 427.926731998
v 2684454.49999 1252476.49999 427.926922198
v 2684454.25 1252476.12498 427.927048527
v 2684453.49109 1252476.15075 427.927256194
v 2684452.25892 1252475.72424 427.9276641
v 2684452.21135 1252475.61164 427.927694367
v 2684451.75 1252475.00001 427.927915353
v 2684447.49999 1252469.25 427.929968552
v 2684449.03865 1252474.5134 427.928744679
v 2684448.74404 1252474.51717 427.928826239
v 2684452.98812 1252475.40933 427.927508384
v 2684452.24998 1252474.99999 427.927775977
v 2684450.5 1252471 427.928867941
v 2684451.00001 1252470.75002 427.92876631
v 2684453.00001 1252475.87502 427.927434734
v 2684453.51188 1252475.59064 427.927334994
v 2684452.75 1252472.625 427.927995289
v 2684452.74258 1252471.89649 427.928107384
v 2684448.46564 1252469.6131 425.186272766
v 2684448.46152 1252469.62502 425.186272766
v 2684448.42521 1252469.62498 425.186272766
v 2684446.25745 1252470.85351 425.186272766
v 2684446.74259 1252471.02145 425.186272766
v 2684446.75 1252470.49999 425.186272766
v 2684446.24999 1252470.62502 425.186272766
v 2684446.24998 1252469.87497 425.186272766
v 2684446.75002 1252469.75001 425.186272766
v 2684446.75002 1252470.12498 425.186272766
v 2684446.99999 1252470.37498 425.186272766
v 2684447.5 1252470.125 425.186272766
v 2684447.49999 1252469.25 425.186272766
v 2684447.25002 1252468.74999 425.186272766
v 2684446.74999 1252469.00002 425.186272766
v 2684446.74998 1252468.49999 425.186272766
v 2684447.47623 1252468.3187 425.186272766
v 2684448.52376 1252468.6813 425.186272766
v 2684447.98813 1252469.03433 425.186272766
v 2684448.51189 1252469.21563 425.186272766
v 2684448.52078 1252468.6899 425.186272766
v 2684449.22919 1252468.93512 425.186272766
v 2684450.49108 1252469.27575 425.186272766
v 2684450.4762 1252469.44369 425.186272766
v 2684451.52377 1252469.80631 425.186272766
v 2684451.75146 1252469.74571 425.186272766
v 2684452.49853 1252470.00431 425.186272766
v 2684453.79905 1252470.60833 425.186272766
v 2684453.99999 1252470.62501 425.186272766
v 2684454.29163 1252470.75479 425.186272766
v 2684455.70839 1252471.24521 425.186272766
v 2684456.7738 1252471.55629 425.186272766
v 2684456.74998 1252471.87498 425.186272766
v 2684456.25 1252472.12502 425.186272766
v 2684456.25001 1252473.25003 425.186272766
v 2684455.75002 1252473.375 425.186272766
v 2684455.75001 1252474.62501 425.186272766
v 2684455.25 1252474.87499 425.186272766
v 2684455.24999 1252476.37501 425.186272766
v 2684454.49999 1252476.49999 425.186272766
v 2684454.25 1252476.12498 425.186272766
v 2684453.49109 1252476.15075 425.186272766
v 2684452.25892 1252475.72424 425.186272766
v 2684452.21135 1252475.61164 425.186272766
v 2684449.03865 1252474.5134 425.186272766
v 2684448.74404 1252474.51717 425.186272766
v 2684448.75 1252473.49998 425.186272766
v 2684448.25 1252473.625 425.186272766
v 2684448.25593 1252473.98282 425.186272766
v 2684447.99405 1252473.89217 425.186272766
v 2684447.49257 1252474.02147 425.186272766
v 2684447.00743 1252473.85354 425.186272766
v 2684446.97176 1252473.70655 425.186272766
v 2684445.77826 1252473.29342 425.186272766
v 2684445.2381 1252473.15932 425.186272766
v 2684445.24999 1252472.75001 425.186272766
v 2684445.75002 1252472.49999 425.186272766
v 2684445.5 1252472.24997 425.186272766
v 2684445.50002 1252471.75001 425.186272766
v 2684445.74999 1252471.49997 425.186272766
v 2684445.74999 1252471.12501 425.186272766
v 2684453.00001 1252475.87502 425.186272766
v 2684453.51188 1252475.59064 425.186272766
v 2684452.98812 1252475.40933 425.186272766
v 2684452.24998 1252474.62502 425.186272766
v 2684451.75001 1252474.62499 425.186272766
v 2684451.75 1252475.00001 425.186272766
v 2684452.24998 1252474.99999 425.186272766
v 2684452.75 1252472.625 425.186272766
v 2684452.74258 1252471.89649 425.186272766
v 2684452.25744 1252471.72856 425.186272766
v 2684452.25001 1252472.62503 425.186272766
v 2684450.99999 1252471.24999 425.186272766
v 2684450.50001 1252471.50003 425.186272766
v 2684451 1252471.75002 425.186272766
v 2684450.5 1252471 425.186272766
v 2684451.00001 1252470.75002 425.186272766
v 2684447.4881 1252471.78432 425.186272766
v 2684448.0119 1252471.96564 425.186272766
v 2684447.99999 1252471.5 425.186272766
v 2684447.99254 1252472.52147 425.186272766
v 2684448.00002 1252471.99998 425.186272766
v 2684447.49999 1252471.99999 425.186272766
v 2684447.50745 1252472.35355 425.186272766
v 2684447.48812 1252471.28435 425.186272766
v 2684448.01188 1252471.46566 425.186272766
v 2684447.99999 1252470.99997 425.186272766
v 2684445.73809 1252473.03434 425.186272766
v 2684446.2619 1252473.21566 425.186272766
v 2684446.25 1252472.74998 425.186272766
v 2684448.00002 1252469.25 425.186272766
v 2684448 1252469.62501 425.186272766
v 2684447.99998 1252469.75001 425.186272766
v 2684448.28434 1252470.13686 425.186272766
v 2684448.49999 1252469.62499 425.186272766
v 2684448.49999 1252469.25002 425.186272766
g roof
f 1 2 3
g roof
f 4 5 6
g roof
f 7 8 9
g roof
f 7 9 10
g roof
f 7 10 11
g roof
f 7 11 12
g roof
f 7 12 13
g roof
f 7 13 14
g roof
f 14 15 16
g roof
f 14 16 17
g roof
f 18 16 15
g roof
f 18 15 19
g roof
f 18 19 20
g roof
f 18 20 21
g roof
f 18 21 22
g roof
f 18 22 23
g roof
f 18 23 24
g roof
f 18 24 25
g roof
f 18 25 26
g roof
f 27 24 23
g roof
f 27 23 28
g roof
f 27 28 29
g roof
f 30 28 23
g roof
f 30 23 31
g roof
f 30 31 32
g roof
f 33 31 23
g roof
f 23 34 35
g roof
f 36 37 38
g roof
f 36 38 39
g roof
f 36 39 40
g roof
f 36 40 41
g roof
f 36 41 42
g roof
f 36 42 43
g roof
f 44 42 41
g roof
f 44 41 45
g roof
f 46 47 48
g roof
f 48 2 49
g roof
f 44 50 51
g roof
f 52 1 53
g roof
f 54 47 46
g roof
f 46 55 56
g roof
f 46 56 57
g roof
f 46 57 58
g roof
f 46 58 59
g roof
f 60 61 62
g roof
f 60 62 63
g roof
f 60 63 64
g roof
f 60 64 65
g roof
f 65 66 67
g roof
f 65 67 68
g roof
f 68 69 70
g roof
f 68 70 71
g roof
f 71 72 73
g roof
f 71 73 74
g roof
f 71 74 75
g roof
f 71 75 76
g roof
f 71 76 77
g roof
f 71 77 78
g roof
f 78 79 80
g roof
f 78 80 81
g roof
f 78 81 82
g roof
f 82 83 84
g roof
f 6 5 85
g roof
f 6 7 14
g roof
f 6 14 17
g roof
f 6 17 18
g roof
f 6 18 26
g roof
f 6 26 27
g roof
f 6 27 29
g roof
f 6 29 30
g roof
f 6 30 32
g roof
f 6 32 33
g roof
f 33 23 35
g roof
f 33 35 36
g roof
f 33 36 43
g roof
f 86 46 48
g roof
f 86 48 49
g roof
f 86 49 52
g roof
f 54 46 59
g roof
f 54 59 60
g roof
f 54 60 65
g roof
f 54 65 68
g roof
f 54 68 71
g roof
f 71 78 82
g roof
f 87 88 6
g roof
f 87 6 85
g roof
f 89 85 90
g roof
f 89 90 4
g roof
f 4 6 33
g roof
f 4 33 43
g roof
f 4 43 44
g roof
f 45 86 52
g roof
f 45 52 91
g roof
f 92 91 52
g roof
f 92 52 53
g roof
f 92 53 54
g roof
f 92 54 71
g roof
f 84 87 85
g roof
f 84 85 89
g roof
f 84 89 93
g roof
f 94 89 4
g roof
f 94 4 44
g roof
f 44 45 91
g roof
f 44 92 71
g roof
f 82 84 93
g roof
f 82 93 94
g roof
f 71 82 94
g roof
f 94 44 51
g roof
f 94 51 95
g roof
f 94 95 96
g roof
f 96 50 44
g roof
f 96 44 71
g roof
f 96 71 94
g facade_completed
f 1 3 97 98
g facade_completed
f 2 1 98 99
g facade_completed
f 3 2 99 97
g facade_completed
f 35 34 100 101
g facade_completed
f 36 35 101 102
g facade_completed
f 37 36 102 103
g facade_completed
f 38 37 103 104
g facade_completed
f 39 38 104 105
g facade_completed
f 40 39 105 106
g facade_completed
f 41 40 106 107
g facade_completed
f 45 41 107 108
g facade_completed
f 86 45 108 109
g facade_completed
f 46 86 109 110
g facade_completed
f 55 46 110 111
g facade_completed
f 56 55 111 112
g facade_completed
f 57 56 112 113
g facade_completed
f 58 57 113 114
g facade_completed
f 59 58 114 115
g facade_completed
f 60 59 115 116
g facade_completed
f 61 60 116 117
g facade_completed
f 62 61 117 118
g facade_completed
f 63 62 118 119
g facade_completed
f 64 63 119 120
g facade_completed
f 65 64 120 121
g facade_completed
f 66 65 121 122
g facade_completed
f 67 66 122 123
g facade_completed
f 68 67 123 124
g facade_completed
f 69 68 124 125
g facade_completed
f 70 69 125 126
g facade_completed
f 71 70 126 127
g facade_completed
f 72 71 127 128
g facade_completed
f 73 72 128 129
g facade_completed
f 74 73 129 130
g facade_completed
f 75 74 130 131
g facade_completed
f 76 75 131 132
g facade_completed
f 77 76 132 133
g facade_completed
f 78 77 133 134
g facade_completed
f 79 78 134 135
g facade_completed
f 80 79 135 136
g facade_completed
f 81 80 136 137
g facade_completed
f 82 81 137 138
g facade_completed
f 83 82 138 139
g facade_completed
f 84 83 139 140
g facade_completed
f 87 84 140 141
g facade_completed
f 88 87 141 142
g facade_completed
f 6 88 142 143
g facade_completed
f 7 6 143 144
g facade_completed
f 8 7 144 145
g facade_completed
f 9 8 145 146
g facade_completed
f 10 9 146 147
g facade_completed
f 11 10 147 148
g facade_completed
f 12 11 148 149
g facade_completed
f 13 12 149 150
g facade_completed
f 14 13 150 151
g facade_completed
f 15 14 151 152
g facade_completed
f 19 15 152 153
g facade_completed
f 20 19 153 154
g facade_completed
f 21 20 154 155
g facade_completed
f 22 21 155 156
g facade_completed
f 23 22 156 157
g facade_completed
f 34 23 157 100
g facade_completed
f 94 93 158 159
g facade_completed
f 89 94 159 160
g facade_completed
f 93 89 160 158
g facade_completed
f 5 4 161 162
g facade_completed
f 85 5 162 163
g facade_completed
f 90 85 163 164
g facade_completed
f 4 90 164 161
g facade_completed
f 96 95 165 166
g facade_completed
f 50 96 166 167
g facade_completed
f 51 50 167 168
g facade_completed
f 95 51 168 165
g facade_completed
f 42 44 169 170
g facade_completed
f 43 42 170 171
g facade_completed
f 44 43 171 169
g facade_completed
f 44 91 172 169
g facade_completed
f 92 44 169 173
g facade_completed
f 91 92 173 172
g facade_completed
f 29 28 174 175
g facade_completed
f 30 29 175 176
g facade_completed
f 28 30 176 174
g facade_completed
f 27 26 177 178
g facade_completed
f 24 27 178 179
g facade_completed
f 25 24 179 180
g facade_completed
f 26 25 180 177
g facade_completed
f 32 31 181 182
g facade_completed
f 33 32 182 183
g facade_completed
f 31 33 183 181
g facade_completed
f 17 16 184 185
g facade_completed
f 18 17 185 186
g facade_completed
f 16 18 186 184
g facade_completed
f 48 47 187 188
g facade_completed
f 2 48 188 99
g facade_completed
f 49 2 99 189
g facade_completed
f 52 49 189 190
g facade_completed
f 1 52 190 98
g facade_completed
f 53 1 98 191
g facade_completed
f 54 53 191 192
g facade_completed
f 47 54 192 187
g ground_assumed
f 99 98 97
g ground_assumed
f 161 143 162
g ground_assumed
f 144 146 145
g ground_assumed
f 144 147 146
g ground_assumed
f 144 148 147
g ground_assumed
f 144 149 148
g ground_assumed
f 144 150 149
g ground_assumed
f 144 151 150
g ground_assumed
f 151 184 152
g ground_assumed
f 151 185 184
g ground_assumed
f 186 152 184
g ground_assumed
f 186 153 152
g ground_assumed
f 186 154 153
g ground_assumed
f 186 155 154
g ground_assumed
f 186 156 155
g ground_assumed
f 186 157 156
g ground_assumed
f 186 179 157
g ground_assumed
f 186 180 179
g ground_assumed
f 186 177 180
g ground_assumed
f 178 157 179
g ground_assumed
f 178 174 157
g ground_assumed
f 178 175 174
g ground_assumed
f 176 157 174
g ground_assumed
f 176 181 157
g ground_assumed
f 176 182 181
g ground_assumed
f 183 157 181
g ground_assumed
f 157 101 100
g ground_assumed
f 102 104 103
g ground_assumed
f 102 105 104
g ground_assumed
f 102 106 105
g ground_assumed
f 102 107 106
g ground_assumed
f 102 170 107
g ground_assumed
f 102 171 170
g ground_assumed
f 169 107 170
g ground_assumed
f 169 108 107
g ground_assumed
f 110 188 187
g ground_assumed
f 188 189 99
g ground_assumed
f 169 168 167
g ground_assumed
f 190 191 98
g ground_assumed
f 192 110 187
g ground_assumed
f 110 112 111
g ground_assumed
f 110 113 112
g ground_assumed
f 110 114 113
g ground_assumed
f 110 115 114
g ground_assumed
f 116 118 117
g ground_assumed
f 116 119 118
g ground_assumed
f 116 120 119
g ground_assumed
f 116 121 120
g ground_assumed
f 121 123 122
g ground_assumed
f 121 124 123
g ground_assumed
f 124 126 125
g ground_assumed
f 124 127 126
g ground_assumed
f 127 129 128
g ground_assumed
f 127 130 129
g ground_assumed
f 127 131 130
g ground_assumed
f 127 132 131
g ground_assumed
f 127 133 132
g ground_assumed
f 127 134 133
g ground_assumed
f 134 136 135
g ground_assumed
f 134 137 136
g ground_assumed
f 134 138 137
g ground_assumed
f 138 140 139
g ground_assumed
f 143 163 162
g ground_assumed
f 143 151 144
g ground_assumed
f 143 185 151
g ground_assumed
f 143 186 185
g ground_assumed
f 143 177 186
g ground_assumed
f 143 178 177
g ground_assumed
f 143 175 178
g ground_assumed
f 143 176 175
g ground_assumed
f 143 182 176
g ground_assumed
f 143 183 182
g ground_assumed
f 183 101 157
g ground_assumed
f 183 102 101
g ground_assumed
f 183 171 102
g ground_assumed
f 109 188 110
g ground_assumed
f 109 189 188
g ground_assumed
f 109 190 189
g ground_assumed
f 192 115 110
g ground_assumed
f 192 116 115
g ground_assumed
f 192 121 116
g ground_assumed
f 192 124 121
g ground_assumed
f 192 127 124
g ground_assumed
f 127 138 134
g ground_assumed
f 141 143 142
g ground_assumed
f 141 163 143
g ground_assumed
f 160 164 163
g ground_assumed
f 160 161 164
g ground_assumed
f 161 183 143
g ground_assumed
f 161 171 183
g ground_assumed
f 161 169 171
g ground_assumed
f 108 190 109
g ground_assumed
f 108 172 190
g ground_assumed
f 173 190 172
g ground_assumed
f 173 191 190
g ground_assumed
f 173 192 191
g ground_assumed
f 173 127 192
g ground_assumed
f 140 163 141
g ground_assumed
f 140 160 163
g ground_assumed
f 140 158 160
g ground_assumed
f 159 161 160
g ground_assumed
f 159 169 161
g ground_assumed
f 169 172 108
g ground_assumed
f 169 127 173
g ground_assumed
f 138 158 140
g ground_assumed
f 138 159 158
g ground_assumed
f 127 159 138
g ground_assumed
f 159 168 169
g ground_assumed
f 159 165 168
g ground_assumed
f 159 166 165
g ground_assumed
f 166 169 167
g ground_assumed
f 166 127 169
g ground_assumed
f 166 159 127
