# XYZ-only planar convex-roof baseline. Provisional base; no GT.
v 8.40760798 -5.38464781 0.50502608
v 12.56417822 3.40083020 0.50847447
v 12.56417822 4.15657024 0.50869683
v 10.86376312 5.00677779 0.50859375
v 4.43997276 8.02973796 0.50814874
v 4.06210273 8.02973796 0.50807025
v -8.21867297 6.51825787 0.50507440
v -12.56417822 -1.32254508 0.50186471
v -9.35228304 -2.92849267 0.50205941
v -8.59654299 -3.21189518 0.50213302
v 7.08506291 -8.02973796 0.50397308
v 8.40760798 -5.38464781 -1.62723452
v 12.56417822 3.40083020 -1.62723452
v 12.56417822 4.15657024 -1.62723452
v 10.86376312 5.00677779 -1.62723452
v 4.43997276 8.02973796 -1.62723452
v 4.06210273 8.02973796 -1.62723452
v -8.21867297 6.51825787 -1.62723452
v -12.56417822 -1.32254508 -1.62723452
v -9.35228304 -2.92849267 -1.62723452
v -8.59654299 -3.21189518 -1.62723452
v 7.08506291 -8.02973796 -1.62723452
g roof
f 1 2 3 4 5 6 7 8 9 10 11
g wall
f 2 1 12 13
g wall
f 3 2 13 14
g wall
f 4 3 14 15
g wall
f 5 4 15 16
g wall
f 6 5 16 17
g wall
f 7 6 17 18
g wall
f 8 7 18 19
g wall
f 9 8 19 20
g wall
f 10 9 20 21
g wall
f 11 10 21 22
g wall
f 1 11 22 12
g ground_assumed
f 22 21 20 19 18 17 16 15 14 13 12
