v 0.051776286633988818 -0.49780646463541617 0.081228655768849634
v 0.056384754385317051 -0.48448176026205636 0.08123213529686335
v 0.27922613148267583 0.23383970856220279 0.08141859542648705
v 0.32574338354772914 0.3916686533942853 0.081459458010135322
v -0.038560577846636593 0.50115807771157661 0.081470525900540602
v -0.043196294039448517 0.499557205771681 0.081469929651909828
v -0.045679348684743819 0.49301066107387903 0.081468210649772138
v -0.31663885019019467 -0.41495282524724592 0.081232990363358182
v -0.32633604683136241 -0.45274702797518213 0.081223268164588858
v -0.32183998101765554 -0.45638816033125917 0.081222568308183807
v -0.21383562094981043 -0.48765966145319206 0.081219579405311215
v 0.044504240792891558 -0.50136925661358422 0.081227462465301908
v 0.051776286633988818 -0.49780646463541617 -0.080176926990842418
v 0.056384754385317051 -0.48448176026205636 -0.080176926990842418
v 0.27922613148267583 0.23383970856220279 -0.080176926990842418
v 0.32574338354772914 0.3916686533942853 -0.080176926990842418
v -0.038560577846636593 0.50115807771157661 -0.080176926990842418
v -0.043196294039448517 0.499557205771681 -0.080176926990842418
v -0.045679348684743819 0.49301066107387903 -0.080176926990842418
v -0.31663885019019467 -0.41495282524724592 -0.080176926990842418
v -0.32633604683136241 -0.45274702797518213 -0.080176926990842418
v -0.32183998101765554 -0.45638816033125917 -0.080176926990842418
v -0.21383562094981043 -0.48765966145319206 -0.080176926990842418
v 0.044504240792891558 -0.50136925661358422 -0.080176926990842418
l 1 2
l 2 3
l 3 4
l 4 5
l 5 6
l 6 7
l 7 8
l 8 9
l 9 10
l 10 11
l 11 12
l 1 12
l 1 13
l 13 14
l 14 15
l 15 16
l 4 16
l 16 17
l 5 17
l 17 18
l 6 18
l 18 19
l 19 20
l 20 21
l 9 21
l 21 22
l 10 22
l 22 23
l 11 23
l 23 24
l 12 24
l 13 24
