# Source coordinates; no display transform
v -0.302482660517 0.499911563069 0.105022857104
v -0.378637281257 -0.44598761529 0.105099817845
v -0.0382177599962 -0.473394890601 0.440821715509
v 0.0382178491565 0.472481664997 0.441021865867
v 0.302372021832 -0.500815873709 0.10483888313
v 0.378526642063 0.44508330414 0.105316221602
v -0.302482660517 0.499911563069 -0.418122819128
v -0.378637281257 -0.44598761529 -0.418122819128
v -0.0382177599962 -0.473394890601 -0.418122819128
v 0.302372021832 -0.500815873709 -0.418122819128
v 0.378526642063 0.44508330414 -0.418122819128
v 0.0382178491565 0.472481664997 -0.418122819128
g roof
f 1 2 3 4
g roof
f 3 5 6 4
g wall
f 2 1 7 8
g wall
f 3 2 8 9
g wall
f 1 4 12 7
g wall
f 5 3 9 10
g wall
f 6 5 10 11
g wall
f 4 6 11 12
g ground_assumed
f 12 11 10 9 8 7
