# XYZ-only planar convex-roof baseline. Provisional base; no GT.
v -5.96193692 9.83774535 1.98380507
v -7.45505184 -8.70789459 1.98531399
v -0.78066411 -9.24525150 8.56759842
v 0.71795997 9.29994489 8.57152264
v 5.89706181 -9.78287717 1.98019801
v 7.39017672 8.76276276 1.98955688
v -5.96193692 9.83774535 -8.27317746
v -7.45505184 -8.70789459 -8.27317746
v -0.78066411 -9.24525150 -8.27317746
v 5.89706181 -9.78287717 -8.27317746
v 7.39017672 8.76276276 -8.27317746
v 0.71795997 9.29994489 -8.27317746
g roof
f 1 2 3 4
g roof
f 3 5 6 4
g wall
f 2 1 7 8
g wall
f 3 2 8 9
g wall
f 1 4 12 7
g wall
f 5 3 9 10
g wall
f 6 5 10 11
g wall
f 4 6 11 12
g ground_assumed
f 12 11 10 9 8 7
