# Source coordinates; no display transform
v -0.479599826134 0.357003044902 0.111949266938
v -0.498347107235 0.149641148455 0.111810084701
v -0.505806872665 -0.127620704705 0.111580955807
v -0.505839495454 -0.130284906284 0.111578658629
v -0.505817746928 -0.169214875824 0.111543874112
v -0.505763375192 -0.252979556523 0.111469010336
v -0.49851022202 -0.272749021287 0.111433647003
v -0.0632992604816 -0.311450630884 0.110335521434
v 0.244899956641 -0.33803827746 0.109558602857
v 0.444171378723 -0.354414962923 0.109056999452
v 0.479926054642 -0.354632449024 0.10896942569
v 0.494899956397 -0.316180948316 0.108967136084
v 0.494878207871 -0.253849499664 0.109022798378
v 0.494845585082 -0.179915180452 0.109088838567
v 0.494834710819 -0.155709003777 0.109110460897
v 0.494823836556 -0.145204436723 0.109119859094
v 0.364343192577 0.0763810352304 0.109636424654
v 0.230882992552 0.28493910397 0.11014864909
v 0.215550239278 0.293845150161 0.110194065996
v 0.193888647289 0.296509351739 0.110249380832
v 0.11070030463 0.30624184444 0.11046136481
v -0.193779904461 0.335602435645 0.111231668642
v -0.262853414663 0.341789908521 0.111405995053
v -0.415104393261 0.354382339955 0.111789310825
v -0.444138756156 0.356230970128 0.111861916122
v -0.479599826134 0.357003044902 -0.110553675471
v -0.498347107235 0.149641148455 -0.110553675471
v -0.505806872665 -0.127620704705 -0.110553675471
v -0.505839495454 -0.130284906284 -0.110553675471
v -0.505817746928 -0.169214875824 -0.110553675471
v -0.505763375192 -0.252979556523 -0.110553675471
v -0.49851022202 -0.272749021287 -0.110553675471
v -0.0632992604816 -0.311450630884 -0.110553675471
v 0.244899956641 -0.33803827746 -0.110553675471
v 0.444171378723 -0.354414962923 -0.110553675471
v 0.479926054642 -0.354632449024 -0.110553675471
v 0.494899956397 -0.316180948316 -0.110553675471
v 0.494878207871 -0.253849499664 -0.110553675471
v 0.494845585082 -0.179915180452 -0.110553675471
v 0.494834710819 -0.155709003777 -0.110553675471
v 0.494823836556 -0.145204436723 -0.110553675471
v 0.364343192577 0.0763810352304 -0.110553675471
v 0.230882992552 0.28493910397 -0.110553675471
v 0.215550239278 0.293845150161 -0.110553675471
v 0.193888647289 0.296509351739 -0.110553675471
v 0.11070030463 0.30624184444 -0.110553675471
v -0.193779904461 0.335602435645 -0.110553675471
v -0.262853414663 0.341789908521 -0.110553675471
v -0.415104393261 0.354382339955 -0.110553675471
v -0.444138756156 0.356230970128 -0.110553675471
g roof
f 1 2 3 4 5 6 7 8 9 10 11 12 13 14 15 16 17 18 19 20 21 22 23 24 25
g wall
f 2 1 26 27
g wall
f 3 2 27 28
g wall
f 4 3 28 29
g wall
f 5 4 29 30
g wall
f 6 5 30 31
g wall
f 7 6 31 32
g wall
f 8 7 32 33
g wall
f 9 8 33 34
g wall
f 10 9 34 35
g wall
f 11 10 35 36
g wall
f 12 11 36 37
g wall
f 13 12 37 38
g wall
f 14 13 38 39
g wall
f 15 14 39 40
g wall
f 16 15 40 41
g wall
f 17 16 41 42
g wall
f 18 17 42 43
g wall
f 19 18 43 44
g wall
f 20 19 44 45
g wall
f 21 20 45 46
g wall
f 22 21 46 47
g wall
f 23 22 47 48
g wall
f 24 23 48 49
g wall
f 25 24 49 50
g wall
f 1 25 50 26
g ground_assumed
f 50 49 48 47 46 45 44 43 42 41 40 39 38 37 36 35 34 33 32 31 30 29 28 27 26
