v -0.4795998261341764 0.3570030449022068 0.11194926693798232
v -0.49834710723463815 0.14964114845484974 0.11181008470086649
v -0.50580687266465207 -0.12762070470483686 0.11158095580682864
v -0.50583949545356222 -0.13028490628356906 0.1115786586287667
v -0.50581774692762216 -0.16921487582370284 0.11154387411159068
v -0.50576337519212045 -0.25297955652275539 0.11146901033630005
v -0.49851022202049167 -0.27274902128696032 0.1114336470026045
v -0.063299260481641723 -0.31145063088407199 0.11033552143367278
v 0.24489995664067898 -0.33803827745980164 0.10955860285705603
v 0.4441713787231546 -0.35441496292302499 0.10905699945165477
v 0.47992605464235893 -0.35463244902372859 0.10896942569007194
v 0.49489995639658524 -0.31618094831623045 0.10896713608373772
v 0.49487820787064518 -0.25384949966361503 0.10902279837816523
v 0.49484558508173504 -0.17991518045246641 0.10908883856674513
v 0.49483471081876507 -0.15570900377694527 0.10911046089722308
v 0.49482383655579498 -0.14520443672294525 0.10911985909393794
v 0.36434319257684256 0.076381035230448743 0.10963642465397852
v 0.23088299255172404 0.28493910396972089 0.11014864909012249
v 0.21555023927818384 0.29384515016061186 0.11019406599563283
v 0.19388864728872465 0.29650935173934401 0.11024938083188801
v 0.11070030463034113 0.30624184443986613 0.11046136481044358
v -0.1937799044605942 0.33560243564467973 0.11123166864158808
v -0.26285341466329259 0.34178990852133684 0.11140599505294692
v -0.41510439326140458 0.35438233995470314 0.11178931082454546
v -0.44413875615646592 0.35623097012807736 0.11186191612171588
v -0.4795998261341764 0.3570030449022068 -0.11055367547055971
v -0.49834710723463815 0.14964114845484974 -0.11055367547055971
v -0.50580687266465207 -0.12762070470483686 -0.11055367547055971
v -0.50583949545356222 -0.13028490628356906 -0.11055367547055971
v -0.50581774692762216 -0.16921487582370284 -0.11055367547055971
v -0.50576337519212045 -0.25297955652275539 -0.11055367547055971
v -0.49851022202049167 -0.27274902128696032 -0.11055367547055971
v -0.063299260481641723 -0.31145063088407199 -0.11055367547055971
v 0.24489995664067898 -0.33803827745980164 -0.11055367547055971
v 0.4441713787231546 -0.35441496292302499 -0.11055367547055971
v 0.47992605464235893 -0.35463244902372859 -0.11055367547055971
v 0.49489995639658524 -0.31618094831623045 -0.11055367547055971
v 0.49487820787064518 -0.25384949966361503 -0.11055367547055971
v 0.49484558508173504 -0.17991518045246641 -0.11055367547055971
v 0.49483471081876507 -0.15570900377694527 -0.11055367547055971
v 0.49482383655579498 -0.14520443672294525 -0.11055367547055971
v 0.36434319257684256 0.076381035230448743 -0.11055367547055971
v 0.23088299255172404 0.28493910396972089 -0.11055367547055971
v 0.21555023927818384 0.29384515016061186 -0.11055367547055971
v 0.19388864728872465 0.29650935173934401 -0.11055367547055971
v 0.11070030463034113 0.30624184443986613 -0.11055367547055971
v -0.1937799044605942 0.33560243564467973 -0.11055367547055971
v -0.26285341466329259 0.34178990852133684 -0.11055367547055971
v -0.41510439326140458 0.35438233995470314 -0.11055367547055971
v -0.44413875615646592 0.35623097012807736 -0.11055367547055971
l 1 2
l 2 3
l 3 4
l 4 5
l 5 6
l 6 7
l 7 8
l 8 9
l 9 10
l 10 11
l 11 12
l 12 13
l 13 14
l 14 15
l 15 16
l 16 17
l 17 18
l 18 19
l 19 20
l 20 21
l 21 22
l 22 23
l 23 24
l 24 25
l 1 25
l 1 26
l 26 27
l 27 28
l 28 29
l 29 30
l 30 31
l 6 31
l 31 32
l 7 32
l 32 33
l 33 34
l 34 35
l 35 36
l 11 36
l 36 37
l 12 37
l 37 38
l 38 39
l 39 40
l 40 41
l 16 41
l 41 42
l 42 43
l 18 43
l 43 44
l 19 44
l 44 45
l 45 46
l 46 47
l 47 48
l 48 49
l 49 50
l 26 50
