v 0.24889614260124565 0.39822551935318273 0.19246967233144402
v 0.029275964214029247 0.50004154319177996 0.27786470981106431
v 0.027376854377181403 0.49678931759617806 0.27801373517061428
v 0.001560830719353392 0.44786350134014863 0.27936696311036702
v -0.3684094956718173 -0.33310385760611294 0.28737750052797462
v -0.36913353106817476 -0.33515726988826378 0.28731829322841024
v -0.36919287847951709 -0.33567952509339694 0.28726296052317496
v -0.3691513353373656 -0.33576261137769992 0.28723770423050193
v -0.24805341250887461 -0.39224925798485744 0.24010184203657453
v -0.18081899105433591 -0.42356676556577444 0.21393799363736518
v -0.092154302835910085 -0.46467062295234596 0.17946261521199375
v -0.03452818986876223 -0.48995845680127115 0.15725943693533864
v -0.014623145578123154 -0.49294955479430647 0.15040926359518536
v -0.0090682493053431939 -0.49378041534792738 0.14849813848655896
v 0.010919881269598792 -0.45170919877374105 0.14804802070025982
v 0.056629080010526391 -0.35391691413090609 0.14724446958052817
v 0.082415430191624062 -0.29873590507869985 0.14679294472398874
v 0.19515727019586615 -0.049418397533538438 0.14596802014778243
v 0.36146587543311209 0.32785756666784516 0.14610617448174013
v 0.36484272999728684 0.33576854596749406 0.1461447043049032
v 0.36484272999728684 0.34166172106549209 0.146985199603723
v 0.36477744798217476 0.3421780416668555 0.14707990509219698
v 0.36151335317903333 0.34402373869613079 0.14839650158601292
v 0.24889614260124565 0.39822551935318273 -0.28112626134578267
v 0.029275964214029247 0.50004154319177996 -0.28112626134578267
v 0.027376854377181403 0.49678931759617806 -0.28112626134578267
v 0.001560830719353392 0.44786350134014863 -0.28112626134578267
v -0.3684094956718173 -0.33310385760611294 -0.28112626134578267
v -0.36913353106817476 -0.33515726988826378 -0.28112626134578267
v -0.36919287847951709 -0.33567952509339694 -0.28112626134578267
v -0.3691513353373656 -0.33576261137769992 -0.28112626134578267
v -0.24805341250887461 -0.39224925798485744 -0.28112626134578267
v -0.18081899105433591 -0.42356676556577444 -0.28112626134578267
v -0.092154302835910085 -0.46467062295234596 -0.28112626134578267
v -0.03452818986876223 -0.48995845680127115 -0.28112626134578267
v -0.014623145578123154 -0.49294955479430647 -0.28112626134578267
v -0.0090682493053431939 -0.49378041534792738 -0.28112626134578267
v 0.010919881269598792 -0.45170919877374105 -0.28112626134578267
v 0.056629080010526391 -0.35391691413090609 -0.28112626134578267
v 0.082415430191624062 -0.29873590507869985 -0.28112626134578267
v 0.19515727019586615 -0.049418397533538438 -0.28112626134578267
v 0.36146587543311209 0.32785756666784516 -0.28112626134578267
v 0.36484272999728684 0.33576854596749406 -0.28112626134578267
v 0.36484272999728684 0.34166172106549209 -0.28112626134578267
v 0.36477744798217476 0.3421780416668555 -0.28112626134578267
v 0.36151335317903333 0.34402373869613079 -0.28112626134578267
l 1 2
l 2 3
l 3 4
l 4 5
l 5 6
l 6 7
l 7 8
l 8 9
l 9 10
l 10 11
l 11 12
l 12 13
l 13 14
l 14 15
l 15 16
l 16 17
l 17 18
l 18 19
l 19 20
l 20 21
l 21 22
l 22 23
l 1 23
l 24 25
l 2 25
l 25 26
l 26 27
l 27 28
l 28 29
l 6 29
l 29 30
l 7 30
l 30 31
l 8 31
l 31 32
l 32 33
l 33 34
l 34 35
l 12 35
l 35 36
l 36 37
l 14 37
l 37 38
l 38 39
l 39 40
l 40 41
l 41 42
l 42 43
l 20 43
l 43 44
l 44 45
l 22 45
l 45 46
l 24 46
