# XYZ-only planar convex-roof baseline. Provisional base; no GT.
v 4.58427656 -0.72215614 1.70230602
v 4.57871658 14.01721396 1.70433603
v -4.40706995 14.06083844 1.70102308
v -4.53751569 2.94329773 1.69944217
v -4.58242323 -13.98299869 1.69709202
v -4.35147013 -14.05157180 1.69716787
v 4.49175276 -14.06924969 1.70043173
v 4.58427656 -0.72215614 -1.82851432
v 4.57871658 14.01721396 -1.82851432
v -4.40706995 14.06083844 -1.82851432
v -4.53751569 2.94329773 -1.82851432
v -4.58242323 -13.98299869 -1.82851432
v -4.35147013 -14.05157180 -1.82851432
v 4.49175276 -14.06924969 -1.82851432
g roof
f 1 2 3 4 5 6 7
g wall
f 2 1 8 9
g wall
f 3 2 9 10
g wall
f 4 3 10 11
g wall
f 5 4 11 12
g wall
f 6 5 12 13
g wall
f 7 6 13 14
g wall
f 1 7 14 8
g ground_assumed
f 14 13 12 11 10 9 8
