# Source coordinates; no display transform
v -0.346558117249 -0.382766403533 0.120158902594
v 0.185136224236 -0.263582137479 0.120561390274
v 0.313815895499 -0.234096404947 0.120991715378
v 0.486039013383 -0.191778171735 0.123050465788
v 0.501870062904 -0.167838142939 0.133653422868
v 0.501853941792 -0.150008060545 0.142915975118
v 0.501805577987 -0.140609382477 0.147803107025
v 0.448785855632 0.0981185472761 0.277927640559
v -0.449832426341 -0.0965261025224 0.280773531174
v -0.421908753856 -0.216459777302 0.215251832156
v -0.384265677777 -0.372303724111 0.129954631086
v -0.363324197822 -0.385684346345 0.120582667106
v 0.443462840506 0.122086087456 0.264235509012
v 0.389327744631 0.357133645205 0.129735635707
v 0.373512816222 0.382701918488 0.113962946167
v 0.293148476321 0.371320328658 0.110929072725
v -0.28781234869 0.24083507974 0.115304732913
v -0.454118974921 0.203111397632 0.116759670996
v -0.513541834398 0.183266161722 0.12075376338
v -0.513574077091 0.182508463839 0.121163551797
v -0.459390617411 -0.0554731583031 0.257270191325
v -0.346558117249 -0.382766403533 -0.291942704971
v 0.185136224236 -0.263582137479 -0.291942704971
v 0.313815895499 -0.234096404947 -0.291942704971
v 0.486039013383 -0.191778171735 -0.291942704971
v 0.501870062904 -0.167838142939 -0.291942704971
v 0.501853941792 -0.150008060545 -0.291942704971
v 0.501805577987 -0.140609382477 -0.291942704971
v 0.448785855632 0.0981185472761 -0.291942704971
v 0.443462840506 0.122086087456 -0.291942704971
v 0.389327744631 0.357133645205 -0.291942704971
v 0.373512816222 0.382701918488 -0.291942704971
v 0.293148476321 0.371320328658 -0.291942704971
v -0.28781234869 0.24083507974 -0.291942704971
v -0.454118974921 0.203111397632 -0.291942704971
v -0.513541834398 0.183266161722 -0.291942704971
v -0.513574077091 0.182508463839 -0.291942704971
v -0.459390617411 -0.0554731583031 -0.291942704971
v -0.449832426341 -0.0965261025224 -0.291942704971
v -0.421908753856 -0.216459777302 -0.291942704971
v -0.384265677777 -0.372303724111 -0.291942704971
v -0.363324197822 -0.385684346345 -0.291942704971
g roof
f 1 2 3 4 5 6 7 8 9 10 11 12
g roof
f 8 13 14 15 16 17 18 19 20 21 9
g wall
f 2 1 22 23
g wall
f 3 2 23 24
g wall
f 4 3 24 25
g wall
f 5 4 25 26
g wall
f 6 5 26 27
g wall
f 7 6 27 28
g wall
f 8 7 28 29
g wall
f 10 9 39 40
g wall
f 11 10 40 41
g wall
f 12 11 41 42
g wall
f 1 12 42 22
g wall
f 13 8 29 30
g wall
f 14 13 30 31
g wall
f 15 14 31 32
g wall
f 16 15 32 33
g wall
f 17 16 33 34
g wall
f 18 17 34 35
g wall
f 19 18 35 36
g wall
f 20 19 36 37
g wall
f 21 20 37 38
g wall
f 9 21 38 39
g ground_assumed
f 42 41 40 39 38 37 36 35 34 33 32 31 30 29 28 27 26 25 24 23 22
