v -0.34655811724935409 -0.38276640353251362 0.12015890259386267
v 0.18513622423578052 -0.26358213747854919 0.12056139027414464
v 0.31381589549875399 -0.23409640494666509 0.12099171537750975
v 0.48603901338273897 -0.19177817173478676 0.12305046578831412
v 0.5018700629035191 -0.16783814293902938 0.13365342286829079
v 0.50185394179156306 -0.15000806054542795 0.14291597511846016
v 0.50180557798724879 -0.14060938247660101 0.14780310702513225
v 0.44878585563150719 0.098118547276064214 0.27792764055941138
v -0.4498324263407002 -0.096526102522410062 0.28077353117370701
v -0.42190875385642179 -0.21645977730187416 0.21525183215634525
v -0.38426567777679982 -0.37230372411100582 0.12995463108643435
v -0.36332419782182829 -0.38568434634507331 0.1205826671063943
v 0.44346284050577989 0.12208608745625991 0.26423550901189818
v 0.38932774463072034 0.35713364520515956 0.12973563570689034
v 0.3735128162218963 0.38270191848807333 0.1139629461666327
v 0.29314847632081903 0.37132032865838094 0.11092907272509214
v -0.28781234868986194 0.24083507973984286 0.11530473291310969
v -0.45411897492050141 0.20311139763199476 0.11675967099649939
v -0.51354183439816081 0.18326616172206228 0.12075376338038216
v -0.51357407709051905 0.18250846383877631 0.12116355179669695
v -0.45939061741114529 -0.055473158303085315 0.2572701913246902
v -0.34655811724935409 -0.38276640353251362 -0.29194270497119329
v 0.18513622423578052 -0.26358213747854919 -0.29194270497119329
v 0.31381589549875399 -0.23409640494666509 -0.29194270497119329
v 0.48603901338273897 -0.19177817173478676 -0.29194270497119329
v 0.5018700629035191 -0.16783814293902938 -0.29194270497119329
v 0.50185394179156306 -0.15000806054542795 -0.29194270497119329
v 0.50180557798724879 -0.14060938247660101 -0.29194270497119329
v 0.44878585563150719 0.098118547276064214 -0.29194270497119329
v 0.44346284050577989 0.12208608745625991 -0.29194270497119329
v 0.38932774463072034 0.35713364520515956 -0.29194270497119329
v 0.3735128162218963 0.38270191848807333 -0.29194270497119329
v 0.29314847632081903 0.37132032865838094 -0.29194270497119329
v -0.28781234868986194 0.24083507973984286 -0.29194270497119329
v -0.45411897492050141 0.20311139763199476 -0.29194270497119329
v -0.51354183439816081 0.18326616172206228 -0.29194270497119329
v -0.51357407709051905 0.18250846383877631 -0.29194270497119329
v -0.45939061741114529 -0.055473158303085315 -0.29194270497119329
v -0.4498324263407002 -0.096526102522410062 -0.29194270497119329
v -0.42190875385642179 -0.21645977730187416 -0.29194270497119329
v -0.38426567777679982 -0.37230372411100582 -0.29194270497119329
v -0.36332419782182829 -0.38568434634507331 -0.29194270497119329
l 1 2
l 2 3
l 3 4
l 4 5
l 5 6
l 6 7
l 7 8
l 8 9
l 9 10
l 10 11
l 11 12
l 1 12
l 8 13
l 13 14
l 14 15
l 15 16
l 16 17
l 17 18
l 18 19
l 19 20
l 20 21
l 9 21
l 22 23
l 23 24
l 24 25
l 4 25
l 25 26
l 5 26
l 26 27
l 27 28
l 7 28
l 28 29
l 39 40
l 40 41
l 11 41
l 41 42
l 12 42
l 22 42
l 29 30
l 30 31
l 14 31
l 31 32
l 15 32
l 32 33
l 33 34
l 34 35
l 35 36
l 19 36
l 36 37
l 20 37
l 37 38
l 38 39
