# Source coordinates; no display transform
v 2680434.63973 1250791.32743 507.60096512
v 2680435.85989 1250790.54788 507.578652833
v 2680435.97141 1250790.61818 507.665151448
v 2680435.96886 1250790.61406 507.661604982
v 2680435.97145 1250790.61821 507.66518408
v 2680436.0077 1250790.64106 507.693302816
v 2680435.92013 1250790.50138 507.572536007
v 2680436.69011 1250789.90629 507.49393116
v 2680437.26258 1250789.64472 507.548628299
v 2680437.25 1250789.37503 507.37513313
v 2680437.45904 1250789.43593 507.492943002
v 2680438.04096 1250789.06415 507.482301789
v 2680439.16478 1250788.36732 507.474995222
v 2680438.47008 1250791.94269 509.446521727
v 2680435.97899 1250793.53422 509.492074852
v 2680435.93539 1250793.52372 509.468881484
v 2680435.97863 1250793.53445 509.492081431
v 2680437.21958 1250792.74162 509.469388819
v 2680437.98351 1250793.96266 510.524490982
v 2680438.0086 1250793.96896 510.538002336
v 2680438.0485 1250793.97898 510.559481832
v 2680438.04851 1250793.97898 510.559488522
v 2680438.0485 1250793.97897 510.559474882
v 2680438.05372 1250793.95392 510.545801713
v 2680438.61922 1250791.84741 509.443794399
v 2680438.53921 1250792.23675 509.656827318
v 2680438.42672 1250792.16585 509.569573295
v 2680438.42672 1250792.16584 509.569570618
v 2680438.06044 1250794.051 510.609084065
v 2680438.06043 1250794.05098 510.609073651
v 2680438.09367 1250793.87989 510.514727064
v 2680438.16399 1250793.99342 510.612555829
v 2680438.28419 1250793.4778 510.335872932
v 2680438.17467 1250794.01067 510.627422035
v 2680438.1747 1250794.01067 510.627434046
v 2680438.14564 1250794.07214 510.654798574
v 2680438.14564 1250794.07212 510.654790477
v 2680438.22455 1250794.02319 510.654275722
v 2680438.22457 1250794.0232 510.654285771
v 2680438.22457 1250794.02318 510.654275595
v 2680438.22714 1250794.02158 510.654258807
v 2680438.24575 1250794.01005 510.654137455
v 2680438.24174 1250794.02751 510.66353148
v 2680438.24937 1250794.02943 510.667640917
v 2680438.23749 1250794.07808 510.693541262
v 2680438.24639 1250794.08022 510.698275278
v 2680438.23529 1250794.08709 510.698341583
v 2680438.22688 1250794.0923 510.698391769
v 2680438.23361 1250794.09396 510.701999684
v 2680438.23153 1250794.10247 510.706526054
v 2680438.18874 1250794.17021 510.732585338
v 2680438.21202 1250794.15695 510.733167386
v 2680438.21201 1250794.15697 510.733175517
v 2680438.21203 1250794.15697 510.733183702
v 2680438.25962 1250794.14781 510.745601016
v 2680438.23556 1250794.16275 510.745774061
v 2680438.22123 1250794.17165 510.745877122
v 2680438.21345 1250794.17649 510.745933066
v 2680438.21341 1250794.17652 510.745933397
v 2680438.20784 1250794.17515 510.742957967
v 2680438.18894 1250794.17053 510.732859444
v 2680438.18868 1250794.17047 510.732718647
v 2680438.16297 1250794.16418 510.71898271
v 2680438.1441 1250794.15957 510.708901303
v 2680438.1404 1250794.17756 510.718748795
v 2680438.13875 1250794.18563 510.723159777
v 2680438.12023 1250794.18119 510.713323694
v 2680438.12022 1250794.18117 510.713304509
v 2680438.10993 1250794.16472 510.699090364
v 2680438.09363 1250794.17481 510.699187712
v 2680438.09011 1250794.17698 510.699208685
v 2680438.03797 1250794.16657 510.672808633
v 2680438.01051 1250794.16108 510.658904753
v 2680438.0042 1250794.15982 510.655713107
v 2680438.0117 1250794.15517 510.655664179
v 2680438.01175 1250794.15515 510.655663907
v 2680438.01729 1250794.12855 510.641144912
v 2680438.02115 1250794.11009 510.631061714
v 2680438.0348 1250794.04464 510.595328855
v 2680435.87051 1250793.60353 509.494058531
v 2680434.55916 1250793.28282 508.793367251
v 2680434.54162 1250793.25538 508.769514443
v 2680432.51454 1250792.75744 507.685023148
v 2680432.50806 1250792.69841 507.645628166
v 2680432.50523 1250792.67262 507.628417376
v 2680432.50001 1250792.62502 507.596649303
v 2680432.7689 1250792.27959 507.483122832
v 2680434.23109 1250791.34542 507.456384617
v 2680437.34073 1250792.66422 509.467173372
v 2680438.42666 1250792.16612 509.569721056
v 2680438.07534 1250793.85029 510.489221419
v 2680438.06043 1250794.05099 510.609078958
v 2680438.22686 1250794.09229 510.698381056
v 2680438.22686 1250794.09231 510.698391916
v 2680438.18892 1250794.17051 510.732837367
v 2680438.04409 1250794.13509 510.655452946
v 2680438.14562 1250794.07213 510.654790597
v 2680438.04408 1250794.13511 510.655459415
v 2680438.17469 1250794.0107 510.627446535
v 2680438.04407 1250794.1351 510.655453039
v 2680438.64125 1250792.30107 509.735968578
v 2680438.57998 1250792.55431 509.8710069
v 2680438.63851 1250792.29935 509.733847086
v 2680438.66742 1250792.31756 509.75626414
v 2680438.66776 1250792.31622 509.755556278
v 2680438.66743 1250792.31757 509.756276912
v 2680441.60658 1250794.99081 508.872864907
v 2680443.7397 1250795.51479 507.746719132
v 2680443.77406 1250795.53645 507.720602111
v 2680443.77377 1250795.53638 507.720755129
v 2680443.93017 1250795.63485 507.601935411
v 2680443.87177 1250795.67217 507.601590142
v 2680443.8707 1250795.67285 507.601583804
v 2680440.5272 1250797.80897 507.58181874
v 2680439.58631 1250796.28984 508.855911501
v 2680441.46197 1250795.0838 508.871651373
v 2680441.47603 1250795.07476 508.87176934
v 2680441.57704 1250795.00981 508.872616989
v 2680441.58906 1250795.00208 508.872717867
v 2680442.64005 1250795.13823 508.391505768
v 2680443.22879 1250795.28 508.082407924
v 2680443.45889 1250795.33779 507.960162839
v 2680443.59674 1250795.42468 507.855379202
v 2680441.67384 1250794.94756 508.873429308
v 2680441.67385 1250794.94756 508.873429368
v 2680437.39398 1250797.71993 508.825188686
v 2680437.38473 1250797.70545 508.837436598
v 2680437.39948 1250797.69597 508.837560368
v 2680437.42008 1250797.68272 508.837733279
v 2680437.5703 1250796.95194 509.221752549
v 2680437.75421 1250796.05697 509.692071409
v 2680438.11455 1250794.58147 510.445775759
v 2680438.18646 1250794.28704 510.59617561
v 2680438.23068 1250794.35773 510.53671773
v 2680438.25784 1250794.40113 510.500211547
v 2680438.26469 1250794.37429 510.513812902
v 2680438.23714 1250794.33067 510.55059932
v 2680438.24513 1250794.29713 510.567806428
v 2680438.24514 1250794.29712 510.56781234
v 2680438.2511 1250794.27212 510.580636306
v 2680438.25144 1250794.27066 510.581382199
v 2680438.22895 1250794.23463 510.61166695
v 2680438.25182 1250794.22045 510.6115458
v 2680438.24613 1250794.21137 510.619188075
v 2680438.24382 1250794.20769 510.622284454
v 2680438.20762 1250794.20046 510.640395994
v 2680438.20761 1250794.20044 510.640412774
v 2680438.21344 1250794.17653 510.652626255
v 2680438.22625 1250794.17966 510.645874152
v 2680438.22123 1250794.17165 510.652608701
v 2680438.23556 1250794.16275 510.652540047
v 2680438.25962 1250794.14781 510.652424778
v 2680438.23153 1250794.10247 510.690456202
v 2680438.23361 1250794.09396 510.694799184
v 2680438.29412 1250794.09171 510.673183951
v 2680438.3056 1250794.04355 510.697889335
v 2680438.30561 1250794.04355 510.6978893
v 2680438.3465 1250794.05382 510.676161738
v 2680438.39238 1250794.06534 510.651788562
v 2680438.33436 1250794.10138 510.652066591
v 2680438.33434 1250794.1014 510.652066704
v 2680438.33436 1250794.1014 510.652056895
v 2680438.47031 1250794.08492 510.610388157
v 2680438.27487 1250794.17241 510.631786102
v 2680438.27485 1250794.1724 510.631799701
v 2680438.27487 1250794.17244 510.631773059
v 2680438.41315 1250794.12038 510.610691033
v 2680441.36357 1250794.83085 509.061676697
v 2680440.54224 1250794.66679 509.472533681
v 2680438.39226 1250794.13333 510.610801685
v 2680438.31383 1250794.18198 510.611217235
v 2680438.31378 1250794.18202 510.611217526
v 2680438.3092 1250794.19994 510.602135638
v 2680438.30415 1250794.21972 510.592117561
v 2680438.30415 1250794.21974 510.592108325
v 2680438.30282 1250794.22495 510.589465086
v 2680438.26453 1250794.21578 510.609538929
v 2680438.26022 1250794.23385 510.600269938
v 2680438.28888 1250794.27955 510.561806896
v 2680438.28887 1250794.27957 510.561795198
v 2680438.28072 1250794.27796 510.565859757
v 2680438.28877 1250794.27997 510.561593267
v 2680438.28209 1250794.30615 510.548329689
v 2680437.42015 1250797.68268 508.837733801
v 2680437.44104 1250797.66924 508.837909187
v 2680437.68917 1250796.62869 509.371712792
v 2680438.37118 1250794.32794 510.501352489
v 2680439.55989 1250796.30683 508.85568983
v 2680439.5332 1250796.32399 508.855465859
v 2680439.50788 1250796.34027 508.855253308
v 2680439.55502 1250796.41655 508.791320947
v 2680439.50713 1250796.34075 508.855247046
v 2680439.48161 1250796.35716 508.855032906
v 2680440.42913 1250797.87163 507.581238955
v 2680438.72479 1250798.96052 507.571163774
v 2680438.3292 1250799.18375 507.586634315
v 2680436.952 1250799.9609 507.640492151
v 2680437.30985 1250798.21942 508.555670629
v 2680437.40799 1250797.74186 508.80663646
v 2680437.40584 1250797.7385 508.809474333
v 2680437.24559 1250798.36624 508.491457375
v 2680437.42036 1250797.68164 508.838282976
v 2680436.79976 1250799.96518 507.695709148
v 2680436.78046 1250800.0577 507.64720065
v 2680436.76988 1250800.06367 507.647614244
v 2680436.76491 1250800.05588 507.654203336
v 2680436.88047 1250799.57827 507.898579172
v 2680437.87665 1250795.46112 510.005203801
v 2680437.36078 1250797.66796 508.869157466
v 2680437.34545 1250797.73071 508.837106993
v 2680437.34545 1250797.73071 508.837106957
v 2680437.35837 1250797.6642 508.87234325
v 2680437.34765 1250797.64742 508.886537396
v 2680437.41862 1250797.35412 509.036610108
v 2680437.60937 1250796.37242 509.556678682
v 2680438.08726 1250794.32253 510.612417717
v 2680438.11403 1250794.30593 510.612275908
v 2680437.95996 1250795.05567 510.218271047
v 2680437.57788 1250796.53448 509.470826292
v 2680437.51347 1250796.78378 509.344821848
v 2680437.42036 1250797.68164 508.904849373
v 2680437.68917 1250796.62869 509.503661486
v 2680437.44104 1250797.66924 508.923083153
v 2680437.42015 1250797.68268 508.904288299
v 2680434.55916 1250793.28282 508.862581377
v 2680435.87051 1250793.60353 509.569764299
v 2680435.71538 1250793.70264 509.430506504
v 2680436.25001 1250793.80943 509.7285387
v 2680436.25 1250793.87722 509.701032885
v 2680435.63277 1250793.75542 509.356343665
v 2680436.63596 1250795.00825 509.488610676
v 2680436.67175 1250795.05524 509.492394541
v 2680436.71253 1250795.10879 509.496706478
v 2680437.96042 1250794.40121 510.58054469
v 2680438.08726 1250794.32253 510.693457652
v 2680436.22932 1250796.55735 508.600495925
v 2680436.01704 1250796.50428 508.486485342
v 2680436.02049 1250796.65708 508.426697585
v 2680435.73325 1250796.84059 508.168848304
v 2680435.99633 1250797.25236 508.169765841
v 2680437.51347 1250796.78378 509.328558953
v 2680437.34765 1250797.64742 508.872306719
v 2680437.32419 1250797.74438 508.817993566
v 2680437.3014 1250797.83859 508.765218121
v 2680437.30303 1250797.84115 508.765223824
v 2680437.29969 1250797.84566 508.761254694
v 2680437.25041 1250797.91215 508.702813038
v 2680437.21926 1250797.95418 508.665873927
v 2680437.20668 1250797.97115 508.650961633
v 2680436.99998 1250798.25003 508.405841916
v 2680436.74999 1250798.25003 508.246219069
v 2680436.49998 1250798.87503 507.833028671
v 2680436.51184 1250798.26672 508.08738987
v 2680435.88099 1250798.67236 507.52002886
v 2680435.82154 1250798.5793 507.519821511
v 2680435.74999 1250798.00002 507.709154704
v 2680435.24999 1250797.75001 507.491336032
v 2680435.15384 1250797.43645 507.55715531
v 2680434.59617 1250796.56357 507.555210337
v 2680434.56039 1250796.5103 507.553979207
v 2680434.52973 1250796.46465 507.552924153
v 2680434.49033 1250796.40598 507.55156835
v 2680435.49736 1250795.78242 508.447532929
v 2680435.49316 1250795.71688 508.47143636
v 2680435.45907 1250795.18591 508.665086241
v 2680436.17907 1250794.72591 509.311431816
v 2680435.20125 1250794.28784 508.864820798
v 2680435.49653 1250794.75002 508.865850638
v 2680434.00003 1250794.75 507.910346047
v 2680434.00004 1250794.40973 508.0483977
v 2680434.541 1250794.06411 508.534015644
v 2680433.99999 1250793.75004 508.31600347
v 2680434.01258 1250793.51973 508.417474375
v 2680433.59713 1250793.78516 508.044530091
v 2680433.28172 1250793.29147 508.043430033
v 2680434.74977 1250793.58117 508.863246172
v 2680435.52779 1250793.82249 509.262109899
v 2680435.97534 1250794.14073 509.418758692
v 2680436.74693 1250795.15396 509.500343265
v 2680435.73796 1250794.03547 509.309893366
v 2680437.39948 1250797.69597 508.885700876
v 2680437.38473 1250797.70545 508.872436026
v 2680437.36078 1250797.66796 508.87235249
v 2680437.75421 1250796.05697 509.777137729
v 2680437.5703 1250796.95194 509.29662798
v 2680437.42008 1250797.68272 508.904232311
v 2680438.16124 1250794.27664 510.759313341
v 2680438.16129 1250794.27661 510.759349766
v 2680438.16314 1250794.27706 510.760350178
v 2680438.1833 1250794.28199 510.771222206
v 2680438.18331 1250794.282 510.771222169
v 2680438.11455 1250794.58147 510.605827748
v 2680437.87665 1250795.46112 510.097055086
v 2680437.95996 1250795.05567 510.314739082
v 2680438.11403 1250794.30593 510.717281261
v 2680437.91356 1250794.21603 510.625757501
v 2680437.69075 1250794.16154 510.505595627
v 2680437.92643 1250794.20805 510.637212191
v 2680437.39398 1250797.71993 508.872468281
v 2680437.24559 1250798.36624 508.515513485
v 2680437.14669 1250798.75362 508.295209835
v 2680437.34543 1250797.73081 508.837053298
v 2680433.95908 1250794.43589 508.011630224
v 2680433.98407 1250794.24601 508.104620774
v 2680434.00004 1250794.25 508.113200087
v 2680439.92747 1250793.11182 509.320933836
v 2680442.06636 1250791.78324 507.466587438
v 2680442.40382 1250792.31143 507.457967996
v 2680442.49997 1250792.625 507.51826659
v 2680442.99997 1250793 507.348633099
v 2680442.99996 1250793.375 507.492954396
v 2680443.50002 1250793.74997 507.323271596
v 2680443.50001 1250794.24997 507.515699992
v 2680443.89025 1250794.5701 507.393865598
v 2680444.3849 1250795.34434 507.381231118
v 2680444.27757 1250795.41291 507.475017023
v 2680443.25358 1250795.20837 508.039279345
v 2680443.3712 1250795.28251 507.993955829
v 2680442.75323 1250795.16056 508.335054885
v 2680442.64005 1250795.13823 508.397529259
v 2680441.67385 1250794.94756 508.93084222
v 2680441.72136 1250794.91701 508.889247335
v 2680441.73895 1250794.90583 508.873900916
v 2680441.7388 1250794.90579 508.873980835
v 2680439.9828 1250793.1467 509.299612848
v 2680438.29412 1250794.09171 510.723654835
v 2680438.24639 1250794.08022 510.749201839
v 2680438.23749 1250794.07808 510.753964903
v 2680438.24937 1250794.02943 510.727781753
v 2680438.24174 1250794.02751 510.731836342
v 2680438.24575 1250794.01005 510.722598505
v 2680438.25559 1250794.00394 510.714065924
v 2680438.32536 1250793.96068 510.65360719
v 2680438.37873 1250793.92759 510.607359827
v 2680439.83014 1250788.24226 507.508005001
v 2680439.99631 1250788.50235 507.503760662
v 2680440.18862 1250789.00448 507.57625075
v 2680441.06136 1250790.37051 507.553958995
v 2680441.31411 1250790.58403 507.477424839
v 2680441.68589 1250791.16595 507.467928719
v 2680441.84615 1250791.43856 507.472212177
v 2680442.00125 1250791.68132 507.468250549
v 2680439.81185 1250793.03894 509.365487988
v 2680439.86942 1250793.07523 509.343301189
v 2680439.92747 1250793.11182 509.320933842
v 2680441.73879 1250794.9058 508.873988869
v 2680442.25103 1250794.57643 508.425593136
v 2680440.0803 1250794.63309 509.810430879
v 2680438.77337 1250794.31346 510.508065251
v 2680439.17869 1250794.39442 510.284716858
v 2680440.54224 1250794.66679 509.533341007
v 2680441.67369 1250794.94753 508.930928917
v 2680440.43629 1250794.70334 509.613936076
v 2680438.22714 1250794.02158 510.738718869
v 2680438.37038 1250793.46719 510.435419588
v 2680436.25001 1250793.77158 509.645295631
v 2680435.78786 1250793.65633 509.398726912
v 2680435.97863 1250793.53445 509.5675446
v 2680438.0348 1250794.04464 510.665576288
v 2680438.01729 1250794.12855 510.621310867
v 2680437.92643 1250794.20805 510.532421403
v 2680437.69075 1250794.16154 510.401825118
v 2680437.91356 1250794.21603 510.521128559
v 2680437.26213 1250794.61997 509.949501524
v 2680436.73814 1250794.94489 509.489710841
v 2680437.26261 1250794.64474 509.940011262
v 2680438.01175 1250794.15515 510.607283354
v 2680438.0117 1250794.15517 510.607246745
v 2680438.0042 1250794.15982 510.600665191
v 2680438.01051 1250794.16108 510.604152213
v 2680438.03797 1250794.16657 510.619343016
v 2680438.09011 1250794.17698 510.648186597
v 2680437.99492 1250794.23593 510.564691771
v 2680437.9949 1250794.23592 510.564677245
v 2680438.09363 1250794.17481 510.651266483
v 2680438.10993 1250794.16472 510.6655652
v 2680438.12022 1250794.18117 510.665563656
v 2680438.12021 1250794.18118 510.665553964
v 2680438.12023 1250794.18119 510.665563645
v 2680438.12023 1250794.18119 510.665563654
v 2680438.13875 1250794.18563 510.675511878
v 2680438.1441 1250794.15957 510.689206468
v 2680438.16297 1250794.16418 510.69930857
v 2680438.18868 1250794.17047 510.71307275
v 2680438.18874 1250794.17021 510.713214144
v 2680438.18892 1250794.17051 510.713213857
v 2680438.18892 1250794.17053 510.713202644
v 2680438.18224 1250794.19537 510.699155725
v 2680438.10571 1250794.24341 510.631762913
v 2680438.10569 1250794.24342 510.631750346
v 2680438.18226 1250794.19539 510.699155612
v 2680438.21341 1250794.17652 510.726314661
v 2680438.21345 1250794.17649 510.726356136
v 2680438.22123 1250794.17165 510.73318539
v 2680438.22625 1250794.17966 510.733191291
v 2680438.21344 1250794.17653 510.726334904
v 2680438.18272 1250794.19614 510.699151932
v 2680438.18274 1250794.19617 510.699151801
v 2680438.20761 1250794.20044 510.713184451
v 2680438.2076 1250794.20045 510.713175293
v 2680438.20762 1250794.20046 510.713184413
v 2680438.24382 1250794.20769 510.733211949
v 2680438.16671 1250794.25547 510.665563223
v 2680438.1667 1250794.25546 510.665556624
v 2680438.16671 1250794.25548 510.665556623
v 2680438.24613 1250794.21137 510.733214672
v 2680438.19397 1250794.25633 510.682453969
v 2680438.25182 1250794.22045 510.733221356
v 2680438.22895 1250794.23463 510.71315085
v 2680438.1929 1250794.26063 510.680075223
v 2680438.19288 1250794.26063 510.68006455
v 2680438.25144 1250794.27066 510.713115449
v 2680438.2511 1250794.27212 510.712321072
v 2680438.24514 1250794.29712 510.698663293
v 2680438.24513 1250794.29711 510.69865705
v 2680438.24513 1250794.29713 510.698656957
v 2680438.23714 1250794.33067 510.680331109
v 2680438.26469 1250794.37429 510.68049709
v 2680438.25784 1250794.40113 510.665542837
v 2680438.23068 1250794.35773 510.665546934
v 2680438.18646 1250794.28704 510.665553635
v 2680438.11455 1250794.58147 510.503615868
v 2680438.18331 1250794.282 510.665554112
v 2680438.18331 1250794.282 510.665558104
v 2680438.1833 1250794.28199 510.665554113
v 2680438.16314 1250794.27706 510.654759725
v 2680438.16129 1250794.27661 510.653766469
v 2680438.08726 1250794.32253 510.588805519
v 2680437.99676 1250794.37867 510.509381247
v 2680437.96042 1250794.40121 510.47748814
v 2680436.74693 1250795.15396 509.412551363
v 2680436.71253 1250795.10879 509.408676201
v 2680436.67175 1250795.05524 509.404081669
v 2680436.63596 1250795.00825 509.40004983
v 2680435.97534 1250794.14073 509.325619712
v 2680435.52779 1250793.82249 509.168588422
v 2680435.63277 1250793.75542 509.261482047
v 2680436.25 1250793.87722 509.603499269
v 2680436.25001 1250793.80943 509.630321016
v 2680436.25001 1250793.8092 509.630409606
v 2680436.73741 1250794.98028 509.475242189
v 2680438.20784 1250794.17515 510.723333109
v 2680437.99489 1250794.23595 510.564663052
v 2680438.1057 1250794.24343 510.631756824
v 2680438.18224 1250794.19539 510.69914494
v 2680438.18271 1250794.19617 510.69913821
v 2680438.19396 1250794.25633 510.682443849
v 2680438.19395 1250794.25635 510.682433106
v 2680438.1929 1250794.26065 510.680064637
v 2680436.88567 1250799.99833 507.58377472
v 2680436.98924 1250799.56397 507.821091296
v 2680436.9072 1250799.98618 507.602199462
v 2680435.99633 1250797.25236 508.107890783
v 2680435.73325 1250796.84059 508.104481082
v 2680436.02049 1250796.65708 508.358663373
v 2680436.01704 1250796.50428 508.41693121
v 2680436.22932 1250796.55735 508.530135653
v 2680439.22717 1250788.32864 507.539690713
v 2680439.69858 1250788.03634 507.537140396
v 2680439.83014 1250788.24226 507.717542442
v 2680438.96641 1250791.62559 509.516266408
v 2680438.64125 1250792.30107 509.81655106
v 2680438.63851 1250792.29935 509.814411318
v 2680438.57998 1250792.55431 509.952483934
v 2680438.66776 1250792.31622 509.836308798
v 2680438.66742 1250792.31756 509.837021317
v 2680438.66743 1250792.31757 509.837034209
v 2680438.37873 1250793.92759 510.740103972
v 2680438.32536 1250793.96068 510.74039386
v 2680438.25559 1250794.00394 510.740772835
v 2680438.24575 1250794.01005 510.74082633
v 2680438.37038 1250793.46719 510.446848045
v 2680438.22714 1250794.02158 510.740927388
v 2680438.22457 1250794.02318 510.740941364
v 2680438.22455 1250794.02319 510.74094147
v 2680438.1747 1250794.01067 510.713851394
v 2680438.28419 1250793.4778 510.420332901
v 2680438.16399 1250793.99342 510.69885475
v 2680438.09367 1250793.87989 510.600247414
v 2680438.07534 1250793.85029 510.574538753
v 2680438.42666 1250792.16612 509.648872222
v 2680438.42672 1250792.16584 509.648720749
v 2680438.42672 1250792.16585 509.648723447
v 2680438.53921 1250792.23675 509.73672855
v 2680438.61922 1250791.84741 509.522265445
v 2680438.47008 1250791.94269 509.524842526
v 2680439.16478 1250788.36732 507.540028259
v 2680438.05372 1250793.95392 510.631498456
v 2680438.0485 1250793.97897 510.645263337
v 2680438.0485 1250793.97898 510.645270334
v 2680438.0086 1250793.96896 510.623592051
v 2680437.98351 1250793.96266 510.60995569
v 2680437.21958 1250792.74162 509.546449888
v 2680437.22925 1250792.73544 509.546282744
v 2680437.2656 1250792.71222 509.545654697
v 2680437.2749 1250792.70628 509.545494044
v 2680437.29461 1250792.69369 509.545153452
v 2680437.34073 1250792.66422 509.54435649
v 2680438.06146 1250793.91682 510.611106122
v 2680436.25001 1250793.8092 509.845518778
v 2680436.25001 1250793.80943 509.845659884
v 2680435.71538 1250793.70264 509.572441032
v 2680435.74275 1250793.68515 509.57196815
v 2680435.78786 1250793.65633 509.571188703
v 2680436.25001 1250793.77158 509.821814481
v 2680435.93539 1250793.52372 509.544479073
v 2680435.97899 1250793.53422 509.567886165
v 2680434.64463 1250793.41661 508.979784138
v 2680432.53013 1250792.8995 507.839489668
v 2680432.52386 1250792.84241 507.80110913
v 2680432.51454 1250792.75744 507.743988229
v 2680434.54162 1250793.25538 508.838530414
v 2680434.59292 1250793.33567 508.908873356
v 2680434.61017 1250793.36266 508.932520855
v 2680435.92013 1250790.50138 507.634573264
v 2680435.96886 1250790.61406 507.724333708
v 2680435.96886 1250790.61406 507.724335308
v 2680436.0077 1250790.64106 507.756302102
v 2680435.97145 1250790.61821 507.727941331
v 2680435.97141 1250790.61818 507.727908405
v 2680435.85989 1250790.54788 507.640665215
v 2680435.86028 1250790.54763 507.640658389
v 2680441.36357 1250794.83085 509.022042611
v 2680441.73879 1250794.9058 508.816233462
v 2680441.72136 1250794.91701 508.831581297
v 2680441.58906 1250795.00208 508.948076228
v 2680440.0803 1250794.63309 509.748978794
v 2680440.43629 1250794.70334 509.553384206
v 2680441.67369 1250794.94753 508.873506153
v 2680441.7388 1250794.90579 508.816225376
v 2680438.47031 1250794.08492 510.542780365
v 2680439.9828 1250793.1467 509.224546464
v 2680442.25103 1250794.57643 508.365211085
v 2680438.30819 1250794.22624 510.700135178
v 2680439.65689 1250794.54954 509.981616369
v 2680438.34851 1250794.29134 510.700493605
v 2680438.3511 1250794.29551 510.70051657
v 2680438.37118 1250794.32794 510.700695113
v 2680438.30981 1250794.31293 510.733274662
v 2680438.28209 1250794.30615 510.747989826
v 2680438.28877 1250794.27997 510.733483521
v 2680438.28072 1250794.27796 510.737740059
v 2680438.28887 1250794.27957 510.733262678
v 2680438.2889 1250794.27958 510.733249896
v 2680438.28888 1250794.27955 510.733249875
v 2680438.26022 1250794.23385 510.733215916
v 2680438.26453 1250794.21578 510.723395569
v 2680438.30282 1250794.22495 510.703000248
v 2680438.30415 1250794.21974 510.700109357
v 2680438.30417 1250794.21974 510.700099373
v 2680438.77337 1250794.31346 510.442745877
v 2680438.30415 1250794.21972 510.700099252
v 2680438.3092 1250794.19994 510.689142532
v 2680438.31378 1250794.18202 510.679209674
v 2680438.31383 1250794.18198 510.679159676
v 2680439.17869 1250794.39442 510.22043134
v 2680442.03507 1250791.73425 507.380950856
v 2680442.06636 1250791.78324 507.380620694
v 2680439.92747 1250793.11182 509.24550924
v 2680439.86942 1250793.07523 509.267500802
v 2680439.81185 1250793.03894 509.289314855
v 2680442.00125 1250791.68132 507.381307643
v 2680443.99834 1250795.5913 507.473419437
v 2680443.93017 1250795.63485 507.473033359
v 2680443.77406 1250795.53645 507.603681381
v 2680443.7397 1250795.51479 507.632439141
v 2680443.59674 1250795.42468 507.752073058
v 2680442.64005 1250795.13823 508.342555117
v 2680442.75323 1250795.16056 508.280366608
v 2680443.3712 1250795.28251 507.940828246
v 2680444.21961 1250795.44994 507.474672597
v 2680444.14157 1250795.4998 507.474230587
v 2680444.13096 1250795.50658 507.474170502
v 2680444.07385 1250795.54306 507.473847065
v 2680444.01302 1250795.58193 507.473502534
v 2680443.99959 1250795.59051 507.473426469
v 2680443.45889 1250795.33779 507.867439052
v 2680443.22879 1250795.28 508.002088053
v 2680441.36357 1250794.83085 509.080739266
v 2680441.72136 1250794.91701 508.873826625
v 2680438.41315 1250794.12038 510.786957454
v 2680438.47031 1250794.08492 510.786576396
v 2680438.30417 1250794.21974 510.766599875
v 2680438.37118 1250794.32794 510.666732333
v 2680438.3511 1250794.29551 510.696662585
v 2680438.30819 1250794.22624 510.760597649
v 2680437.40799 1250797.74186 508.803539694
v 2680436.952 1250799.9609 507.521292231
v 2680436.9072 1250799.98618 507.523256637
v 2680436.98924 1250799.56397 507.769201007
v 2680437.09189 1250799.03566 508.076948822
v 2680437.24559 1250798.36624 508.457013716
v 2680437.40584 1250797.7385 508.806662837
v 2680440.44718 1250797.8601 507.453307208
v 2680440.42913 1250797.87163 507.453204936
v 2680439.55502 1250796.41655 508.784891585
v 2680440.5272 1250797.80897 507.453760404
v 2680440.50898 1250797.82062 507.453657172
v 2680440.47929 1250797.83958 507.453489062
v 2680440.46135 1250797.85105 507.453387428
v 2680436.86867 1250800.00792 507.524946593
v 2680436.78046 1250800.0577 507.528814665
v 2680436.79976 1250799.96518 507.582152467
v 2680437.14669 1250798.75362 508.241243963
v 2680437.95996 1250795.05567 510.355718832
v 2680437.87665 1250795.46112 510.121438277
v 2680437.41862 1250797.35412 509.056476358
v 2680437.57788 1250796.53448 509.533932613
v 2680438.39226 1250794.13333 510.787096668
v 2680438.31383 1250794.18198 510.787619485
v 2680437.25041 1250797.91215 508.786311164
v 2680437.29969 1250797.84566 508.843497277
v 2680437.30303 1250797.84115 508.847381148
v 2680437.3014 1250797.83859 508.847355772
v 2680437.32419 1250797.74438 508.898733786
v 2680437.34545 1250797.73071 508.917499814
v 2680437.34543 1250797.73081 508.917446731
v 2680436.76491 1250800.05588 507.638138339
v 2680436.75445 1250800.03951 507.637976074
v 2680436.69594 1250799.94793 507.637067946
v 2680435.88099 1250798.67236 507.624420185
v 2680436.51184 1250798.26672 508.18144293
v 2680436.49998 1250798.87503 507.935006861
v 2680436.74999 1250798.25003 508.338125335
v 2680436.99998 1250798.25003 508.495720115
v 2680437.21926 1250797.95418 508.750165661
v 2680437.14669 1250798.75362 508.390379053
v 2680437.24559 1250798.36624 508.60489484
v 2680437.09189 1250799.03566 508.245037821
v 2680437.26213 1250794.61997 510.086969889
v 2680437.26261 1250794.64474 510.077547601
v 2680436.73741 1250794.98028 509.614652708
v 2680436.73814 1250794.94489 509.629021638
v 2680432.53013 1250792.8995 507.779842495
v 2680434.64463 1250793.41661 508.909658724
v 2680434.74977 1250793.58117 508.911290424
v 2680433.28172 1250793.29147 508.099655271
v 2680433.59713 1250793.78516 508.104550405
v 2680434.01258 1250793.51973 508.470708372
v 2680433.99999 1250793.75004 508.372303616
v 2680434.541 1250794.06411 508.589969069
v 2680434.00004 1250794.25 508.175934397
v 2680433.98407 1250794.24601 508.167433289
v 2680433.95908 1250794.43589 508.077089286
v 2680434.00004 1250794.40973 508.113187718
v 2680435.50003 1250794.75002 508.925084123
v 2680435.49653 1250794.75002 508.92288
v 2680435.20125 1250794.28784 508.91829733
v 2680435.73796 1250794.03547 509.355767891
v 2680436.17907 1250794.72591 509.362613819
v 2680435.45907 1250795.18591 508.728029534
v 2680435.49736 1250795.78242 508.517842706
v 2680434.49033 1250796.40598 507.638072845
v 2680434.16865 1250795.92699 507.623447959
v 2680434.00002 1250795.75 507.58667753
v 2680433.90014 1250795.43881 507.645958658
v 2680433.09987 1250794.18621 507.633538629
v 2680432.93589 1250793.79098 507.685424163
v 2680432.5641 1250793.20906 507.679654224
v 2680432.54886 1250793.07013 507.724618497
v 2680435.50003 1250795.12502 508.777769906
v 2680434.00003 1250795.125 507.832201225
v 2680434.00003 1250794.75 507.979515441
v 2680436.98924 1250799.56397 507.972793305
v 2680436.88567 1250799.99833 507.73686992
v 2680436.86867 1250800.00792 507.722385297
v 2680438.23749 1250794.07808 499.389835602
v 2680438.23556 1250794.16275 499.389835602
v 2680438.21341 1250794.17652 499.389835602
v 2680438.18894 1250794.17053 510.71321384
v 2680438.18894 1250794.17053 499.389835602
v 2680438.18892 1250794.17051 499.389835602
v 2680438.16297 1250794.16418 499.389835602
v 2680438.1404 1250794.17756 510.6797484
v 2680438.12023 1250794.18119 510.713323691
v 2680438.12023 1250794.18119 499.389835602
v 2680438.12022 1250794.18117 499.389835602
v 2680438.01051 1250794.16108 499.389835602
v 2680438.02115 1250794.11009 499.389835602
v 2680438.0348 1250794.04464 499.389835602
v 2680435.89507 1250793.58784 509.493602768
v 2680435.89507 1250793.58784 499.389835602
v 2680435.87051 1250793.60353 509.471867535
v 2680435.87051 1250793.60353 499.389835602
v 2680434.54162 1250793.25538 499.389835602
v 2680432.51454 1250792.75744 499.389835602
v 2680432.50806 1250792.69841 499.389835602
v 2680432.50523 1250792.67262 499.389835602
v 2680432.50001 1250792.62502 499.389835602
v 2680432.7689 1250792.27959 499.389835602
v 2680433.58507 1250791.75816 507.468198097
v 2680433.58507 1250791.75816 499.389835602
v 2680434.23109 1250791.34542 499.389835602
v 2680434.63973 1250791.32743 499.389835602
v 2680435.85074 1250790.55372 507.578820004
v 2680435.85074 1250790.55372 499.389835602
v 2680435.8508 1250790.55369 507.578818972
v 2680435.8508 1250790.55369 499.389835602
v 2680435.85989 1250790.54788 499.389835602
v 2680435.97145 1250790.61821 499.389835602
v 2680435.92013 1250790.50138 499.389835602
v 2680436.69011 1250789.90629 499.389835602
v 2680437.26258 1250789.64472 499.389835602
v 2680437.25 1250789.37503 499.389835602
v 2680437.45904 1250789.43593 499.389835602
v 2680438.04096 1250789.06415 499.389835602
v 2680439.16478 1250788.36732 499.389835602
v 2680438.47376 1250791.94034 509.524778833
v 2680438.47376 1250791.94034 509.44645432
v 2680438.47376 1250791.94034 499.389835602
v 2680438.61922 1250791.84741 499.389835602
v 2680438.42672 1250792.16584 499.389835602
v 2680438.42666 1250792.16612 499.389835602
v 2680438.22455 1250794.02319 499.389835602
v 2680438.22457 1250794.0232 499.389835602
v 2680438.22457 1250794.02318 499.389835602
v 2680438.24174 1250794.02751 499.389835602
v 2680438.17469 1250794.0107 499.389835602
v 2680438.1747 1250794.01067 499.389835602
v 2680438.17467 1250794.01067 499.389835602
v 2680438.06146 1250793.91682 510.52554522
v 2680437.29461 1250792.69369 509.468016799
v 2680437.29461 1250792.69369 499.389835602
v 2680437.2749 1250792.70628 509.468377248
v 2680437.2656 1250792.71222 509.468547267
v 2680437.22925 1250792.73544 509.469211929
v 2680437.21958 1250792.74162 499.389835602
v 2680438.0485 1250793.97898 499.389835602
v 2680438.04851 1250793.97898 499.389835602
v 2680438.0485 1250793.97897 499.389835602
v 2680435.93539 1250793.52372 509.544477564
v 2680438.14564 1250794.07212 499.389835602
v 2680438.14562 1250794.07213 499.389835602
v 2680438.14564 1250794.07214 499.389835602
v 2680438.22686 1250794.09231 499.389835602
v 2680438.22688 1250794.0923 499.389835602
v 2680438.22686 1250794.09229 499.389835602
v 2680438.21201 1250794.15697 499.389835602
v 2680438.21203 1250794.15697 499.389835602
v 2680438.21202 1250794.15695 499.389835602
v 2680438.06043 1250794.05099 499.389835602
v 2680438.06044 1250794.051 499.389835602
v 2680438.06043 1250794.05098 499.389835602
v 2680438.04408 1250794.13511 499.389835602
v 2680438.04409 1250794.13509 499.389835602
v 2680438.04407 1250794.1351 499.389835602
v 2680438.64125 1250792.30107 499.389835602
v 2680438.66742 1250792.31756 499.389835602
v 2680443.77406 1250795.53645 499.389835602
v 2680443.77377 1250795.53638 499.389835602
v 2680443.93017 1250795.63485 499.389835602
v 2680443.87177 1250795.67217 499.389835602
v 2680443.8707 1250795.67285 499.389835602
v 2680440.5272 1250797.80897 499.389835602
v 2680441.57704 1250795.00981 499.389835602
v 2680441.60658 1250794.99081 508.932647942
v 2680441.60658 1250794.99081 499.389835602
v 2680441.67385 1250794.94756 499.389835602
v 2680438.3092 1250794.19994 499.389835602
v 2680438.30415 1250794.21972 499.389835602
v 2680438.30415 1250794.21974 499.389835602
v 2680438.28888 1250794.27955 499.389835602
v 2680438.28887 1250794.27957 499.389835602
v 2680438.30981 1250794.31293 510.533713335
v 2680440.42913 1250797.87163 499.389835602
v 2680438.72479 1250798.96052 499.389835602
v 2680438.3292 1250799.18375 499.389835602
v 2680436.952 1250799.9609 499.389835602
v 2680437.30985 1250798.21942 508.527587306
v 2680437.40584 1250797.7385 499.389835602
v 2680437.38473 1250797.70545 499.389835602
v 2680438.24513 1250794.29713 499.389835602
v 2680438.24514 1250794.29712 499.389835602
v 2680438.2511 1250794.27212 499.389835602
v 2680438.25144 1250794.27066 499.389835602
v 2680438.22895 1250794.23463 499.389835602
v 2680438.24613 1250794.21137 499.389835602
v 2680438.20762 1250794.20046 499.389835602
v 2680438.20761 1250794.20044 499.389835602
v 2680438.25962 1250794.14781 499.389835602
v 2680438.23153 1250794.10247 499.389835602
v 2680438.23361 1250794.09396 499.389835602
v 2680438.23529 1250794.08709 499.389835602
v 2680438.3056 1250794.04355 499.389835602
v 2680438.30561 1250794.04355 499.389835602
v 2680438.3465 1250794.05382 499.389835602
v 2680438.39238 1250794.06534 499.389835602
v 2680437.44104 1250797.66924 499.389835602
v 2680438.27487 1250794.17241 499.389835602
v 2680438.27485 1250794.1724 499.389835602
v 2680438.27487 1250794.17244 499.389835602
v 2680438.33434 1250794.1014 499.389835602
v 2680438.33436 1250794.1014 499.389835602
v 2680438.33436 1250794.10138 499.389835602
v 2680436.76988 1250800.06367 499.389835602
v 2680436.76491 1250800.05588 499.389835602
v 2680436.78046 1250800.0577 499.389835602
v 2680437.34545 1250797.73071 499.389835602
v 2680437.34545 1250797.73071 499.389835602
v 2680437.35837 1250797.6642 499.389835602
v 2680437.34765 1250797.64742 499.389835602
v 2680438.11403 1250794.30593 499.389835602
v 2680437.25041 1250797.91215 499.389835602
v 2680437.20668 1250797.97115 508.735573739
v 2680437.20668 1250797.97115 499.389835602
v 2680435.88099 1250798.67236 499.389835602
v 2680435.82154 1250798.5793 499.389835602
v 2680435.74999 1250798.00002 499.389835602
v 2680435.24999 1250797.75001 499.389835602
v 2680435.15384 1250797.43645 499.389835602
v 2680434.59617 1250796.56357 499.389835602
v 2680434.56039 1250796.5103 499.389835602
v 2680434.52973 1250796.46465 499.389835602
v 2680434.49033 1250796.40598 499.389835602
v 2680435.49316 1250795.71688 508.540936738
v 2680435.68344 1250795.04256 508.925780699
v 2680435.68344 1250795.04256 508.866502497
v 2680435.49653 1250794.75002 499.389835602
v 2680434.00003 1250794.75 499.389835602
v 2680434.69747 1250793.49931 508.910478785
v 2680434.69747 1250793.49931 508.863063777
v 2680434.64463 1250793.41661 508.862879489
v 2680434.61017 1250793.36266 508.86275928
v 2680434.61017 1250793.36266 499.389835602
v 2680434.59292 1250793.33567 508.862699135
v 2680434.59292 1250793.33567 499.389835602
v 2680435.82682 1250793.63144 509.530544211
v 2680435.82682 1250793.63144 509.43320521
v 2680435.82682 1250793.63144 499.389835602
v 2680435.78786 1250793.65633 509.495568502
v 2680435.74275 1250793.68515 509.455074058
v 2680435.74275 1250793.68515 499.389835602
v 2680436.67175 1250795.05524 499.389835602
v 2680436.71253 1250795.10879 499.389835602
v 2680437.99676 1250794.37867 510.612894948
v 2680437.42008 1250797.68272 499.389835602
v 2680437.39948 1250797.69597 499.389835602
v 2680438.16124 1250794.27664 510.653730558
v 2680438.16129 1250794.27661 499.389835602
v 2680438.1833 1250794.28199 499.389835602
v 2680438.18331 1250794.282 499.389835602
v 2680438.16124 1250794.27664 499.389835602
v 2680437.91356 1250794.21603 499.389835602
v 2680437.34543 1250797.73081 499.389835602
v 2680437.39398 1250797.71993 499.389835602
v 2680441.72136 1250794.91701 499.389835602
v 2680441.73879 1250794.9058 499.389835602
v 2680441.7388 1250794.90579 499.389835602
v 2680438.37873 1250793.92759 499.389835602
v 2680438.7728 1250792.38399 509.919461249
v 2680438.7728 1250792.38399 509.765867269
v 2680438.96641 1250791.62559 509.352428572
v 2680439.83014 1250788.24226 499.389835602
v 2680439.99631 1250788.50235 499.389835602
v 2680440.18862 1250789.00448 499.389835602
v 2680441.02354 1250790.31132 507.554924999
v 2680441.02354 1250790.31132 499.389835602
v 2680441.06136 1250790.37051 499.389835602
v 2680441.31411 1250790.58403 499.389835602
v 2680441.68589 1250791.16595 499.389835602
v 2680441.84615 1250791.43856 499.389835602
v 2680442.00125 1250791.68132 499.389835602
v 2680439.92747 1250793.11182 509.245509246
v 2680439.92747 1250793.11182 499.389835602
v 2680442.09885 1250791.83408 507.465757725
v 2680442.06636 1250791.78324 499.389835602
v 2680442.09885 1250791.83408 499.389835602
v 2680442.40382 1250792.31143 499.389835602
v 2680442.49997 1250792.625 499.389835602
v 2680442.99997 1250793 499.389835602
v 2680442.99996 1250793.375 499.389835602
v 2680443.50002 1250793.74997 499.389835602
v 2680443.50001 1250794.24997 499.389835602
v 2680443.89025 1250794.5701 499.389835602
v 2680444.3849 1250795.34434 499.389835602
v 2680444.27757 1250795.41291 499.389835602
v 2680438.22714 1250794.02158 499.389835602
v 2680438.24513 1250794.29711 499.389835602
v 2680438.23714 1250794.33067 499.389835602
v 2680438.23068 1250794.35773 499.389835602
v 2680438.18331 1250794.282 499.389835602
v 2680438.16314 1250794.27706 499.389835602
v 2680438.08726 1250794.32253 499.389835602
v 2680437.99676 1250794.37867 499.389835602
v 2680436.63596 1250795.00825 499.389835602
v 2680436.25001 1250793.80943 499.389835602
v 2680438.01729 1250794.12855 499.389835602
v 2680438.01175 1250794.15515 499.389835602
v 2680438.0117 1250794.15517 499.389835602
v 2680438.0042 1250794.15982 499.389835602
v 2680438.03797 1250794.16657 499.389835602
v 2680438.09363 1250794.17481 499.389835602
v 2680438.12021 1250794.18118 499.389835602
v 2680438.13875 1250794.18563 499.389835602
v 2680438.18892 1250794.17053 499.389835602
v 2680438.21345 1250794.17649 499.389835602
v 2680438.2076 1250794.20045 499.389835602
v 2680438.24382 1250794.20769 499.389835602
v 2680438.16671 1250794.25547 499.389835602
v 2680438.1667 1250794.25546 499.389835602
v 2680438.16671 1250794.25548 499.389835602
v 2680438.18224 1250794.19539 499.389835602
v 2680438.18226 1250794.19539 499.389835602
v 2680438.18224 1250794.19537 499.389835602
v 2680438.18274 1250794.19617 499.389835602
v 2680438.18272 1250794.19614 499.389835602
v 2680438.18271 1250794.19617 499.389835602
v 2680438.19395 1250794.25635 499.389835602
v 2680438.19397 1250794.25633 499.389835602
v 2680438.19396 1250794.25633 499.389835602
v 2680438.1929 1250794.26065 499.389835602
v 2680438.1929 1250794.26063 499.389835602
v 2680438.19288 1250794.26063 499.389835602
v 2680438.1057 1250794.24343 499.389835602
v 2680438.10571 1250794.24341 499.389835602
v 2680438.10569 1250794.24342 499.389835602
v 2680437.92643 1250794.20805 499.389835602
v 2680437.99489 1250794.23595 499.389835602
v 2680437.99492 1250794.23593 499.389835602
v 2680437.9949 1250794.23592 499.389835602
v 2680436.9072 1250799.98618 499.389835602
v 2680436.88567 1250799.99833 499.389835602
v 2680438.32536 1250793.96068 499.389835602
v 2680438.25559 1250794.00394 499.389835602
v 2680438.24575 1250794.01005 499.389835602
v 2680438.09367 1250793.87989 499.389835602
v 2680439.22717 1250788.32864 499.389835602
v 2680439.69858 1250788.03634 499.389835602
v 2680439.709 1250788.05265 507.551428199
v 2680439.709 1250788.05265 499.389835602
v 2680439.72731 1250788.08132 507.57654309
v 2680439.72731 1250788.08132 499.389835602
v 2680439.75197 1250788.11992 507.610359204
v 2680439.75197 1250788.11992 499.389835602
v 2680438.63851 1250792.29935 499.389835602
v 2680438.0086 1250793.96896 499.389835602
v 2680437.98351 1250793.96266 499.389835602
v 2680437.22925 1250792.73544 499.389835602
v 2680437.2749 1250792.70628 499.389835602
v 2680437.34073 1250792.66422 499.389835602
v 2680438.05372 1250793.95392 499.389835602
v 2680435.78786 1250793.65633 499.389835602
v 2680436.25001 1250793.8092 499.389835602
v 2680434.64463 1250793.41661 499.389835602
v 2680432.53013 1250792.8995 499.389835602
v 2680432.52386 1250792.84241 499.389835602
v 2680434.55916 1250793.28282 499.389835602
v 2680435.97141 1250790.61818 499.389835602
v 2680435.86028 1250790.54763 499.389835602
v 2680438.30981 1250794.31293 499.389835602
v 2680438.28877 1250794.27997 499.389835602
v 2680438.2889 1250794.27958 499.389835602
v 2680438.30417 1250794.21974 499.389835602
v 2680438.30819 1250794.22624 499.389835602
v 2680438.31383 1250794.18198 499.389835602
v 2680439.81185 1250793.03894 499.389835602
v 2680442.03507 1250791.73425 499.389835602
v 2680444.07385 1250795.54306 499.389835602
v 2680444.01302 1250795.58193 499.389835602
v 2680443.99959 1250795.59051 499.389835602
v 2680443.99834 1250795.5913 499.389835602
v 2680442.75323 1250795.16056 499.389835602
v 2680444.21961 1250795.44994 499.389835602
v 2680444.14157 1250795.4998 499.389835602
v 2680444.13096 1250795.50658 499.389835602
v 2680441.67369 1250794.94753 499.389835602
v 2680441.47603 1250795.07476 499.389835602
v 2680438.3511 1250794.29551 499.389835602
v 2680437.40799 1250797.74186 499.389835602
v 2680439.5332 1250796.32399 499.389835602
v 2680439.55989 1250796.30683 499.389835602
v 2680439.58631 1250796.28984 499.389835602
v 2680440.50898 1250797.82062 499.389835602
v 2680440.47929 1250797.83958 499.389835602
v 2680440.46135 1250797.85105 499.389835602
v 2680440.44718 1250797.8601 499.389835602
v 2680436.86867 1250800.00792 499.389835602
v 2680437.29969 1250797.84566 499.389835602
v 2680437.32419 1250797.74438 499.389835602
v 2680436.75445 1250800.03951 499.389835602
v 2680436.69594 1250799.94793 499.389835602
v 2680437.14669 1250798.75362 499.389835602
v 2680433.63861 1250795.02946 507.641899781
v 2680433.63861 1250795.02946 499.389835602
v 2680433.09987 1250794.18621 499.389835602
v 2680432.93589 1250793.79098 499.389835602
v 2680432.5641 1250793.20906 499.389835602
v 2680432.54886 1250793.07013 499.389835602
v 2680434.00003 1250795.125 499.389835602
v 2680435.50003 1250795.12502 499.389835602
v 2680435.50003 1250794.75002 499.389835602
v 2680434.16865 1250795.92699 499.389835602
v 2680434.00002 1250795.75 499.389835602
v 2680433.90014 1250795.43881 499.389835602
g roof
f 1 695 697 2 3
g roof
f 3 4 5
g roof
f 6 7 8
g roof
f 6 8 9
g roof
f 9 10 11
g roof
f 9 11 12
g roof
f 9 12 13
g roof
f 9 13 14
g roof
f 9 14 89 722 724 725 726 18 15
g roof
f 9 15 16
g roof
f 17 15 18 19
g roof
f 17 19 20
g roof
f 17 20 21
g roof
f 17 21 22
g roof
f 25 26 27
g roof
f 25 27 28
g roof
f 29 30 31
g roof
f 29 31 32
g roof
f 32 33 34
g roof
f 34 33 35
g roof
f 36 37 38
g roof
f 36 38 39
g roof
f 40 41 42
g roof
f 40 41 42 43
g roof
f 43 44 45
g roof
f 45 46 47
g roof
f 48 47 49
g roof
f 48 49 50
g roof
f 48 50 51
g roof
f 51 50 52
g roof
f 51 52 53
g roof
f 51 53 54
g roof
f 54 52 50
g roof
f 54 50 55
g roof
f 57 58 59
g roof
f 59 60 61
g roof
f 51 62 63
g roof
f 51 63 64
g roof
f 65 66 67
g roof
f 65 67 675 68
g roof
f 65 68 69
g roof
f 70 71 72
g roof
f 70 72 73
g roof
f 70 73 74
g roof
f 70 74 75
g roof
f 70 75 76
g roof
f 70 76 77
g roof
f 17 80 81
g roof
f 17 81 82
g roof
f 17 82 83
g roof
f 17 83 84
g roof
f 17 84 85 16
g roof
f 85 86 87
g roof
f 85 87 691 88
g roof
f 85 88 1
g roof
f 85 1 3
g roof
f 85 3 5
g roof
f 85 5 6
g roof
f 6 9 16
g roof
f 22 23 24
g roof
f 89 14 709 25 28
g roof
f 89 28 90
g roof
f 91 31 30
g roof
f 91 30 92
g roof
f 29 32 34
g roof
f 39 40 43
g roof
f 39 43 45
g roof
f 39 45 47
g roof
f 39 47 48
g roof
f 39 48 93
g roof
f 39 93 94
g roof
f 94 48 51
g roof
f 51 54 55
g roof
f 51 55 56
g roof
f 51 56 57
g roof
f 51 57 58 59
g roof
f 59 60 61 95
g roof
f 64 65 69
g roof
f 69 70 77
g roof
f 77 78 79
g roof
f 85 6 16
g roof
f 91 89 90
g roof
f 96 97 37 38
g roof
f 96 97 37
g roof
f 96 97 36
g roof
f 36 39 94
g roof
f 36 94 51
g roof
f 51 59 95
g roof
f 64 69 77 100 98
g roof
f 98 96 36
g roof
f 98 36 51
g roof
f 29 34 99
g roof
f 99 35 38
g roof
f 99 38 37 97 96 100
g roof
f 98 51 64
g roof
f 22 24 721 91
g roof
f 22 91 30 92
g roof
f 29 99 100
g roof
f 92 29 100
g roof
f 17 21 22 92 79
g roof
f 79 17 16 92
g roof
f 79 92 100
g roof
f 77 78 79 100
g roof
f 101 102 103
g roof
f 104 105 106
g roof
f 107 108 109
g roof
f 107 109 110
g roof
f 110 109 111
g roof
f 110 111 112
g roof
f 110 112 113
g roof
f 110 113 114
g roof
f 110 114 115
g roof
f 110 115 116
g roof
f 110 116 117
g roof
f 110 117 118
g roof
f 110 118 119
g roof
f 119 107 110
g roof
f 120 121 122
g roof
f 120 122 123
g roof
f 120 123 124
g roof
f 120 124 125
g roof
f 126 127 128
g roof
f 126 128 129
g roof
f 130 131 132
g roof
f 130 132 133
g roof
f 130 133 134
g roof
f 130 134 135
g roof
f 136 137 138
g roof
f 136 138 139
g roof
f 136 139 140
g roof
f 136 140 141
g roof
f 141 142 143
g roof
f 145 146 147
g roof
f 145 147 148
g roof
f 145 148 149
g roof
f 145 149 150
g roof
f 150 151 152
g roof
f 153 154 47
g roof
f 155 156 157
g roof
f 155 157 158
g roof
f 155 158 159
g roof
f 155 159 160
g roof
f 155 160 161
g roof
f 155 161 162
g roof
f 162 160 159
g roof
f 162 159 163
g roof
f 162 163 164
g roof
f 162 164 165
g roof
f 166 164 163
g roof
f 166 163 167
g roof
f 167 168 169
g roof
f 167 169 170
g roof
f 178 179 180
g roof
f 178 180 181
g roof
f 181 182 183
g roof
f 186 187 115
g roof
f 186 115 188
g roof
f 186 188 189
g roof
f 190 191 192
g roof
f 193 194 195
g roof
f 193 195 196
g roof
f 193 196 197
g roof
f 193 197 198
g roof
f 193 198 199
g roof
f 193 199 200
g roof
f 200 201 126
g roof
f 200 126 129
g roof
f 202 130 135 186
g roof
f 136 141 143
g roof
f 144 145 149 150
g roof
f 144 145 149 150 151 152
g roof
f 152 153 47
g roof
f 152 47 46
g roof
f 152 46 155
g roof
f 152 155 161 162
g roof
f 152 162 165
g roof
f 152 165 166
g roof
f 166 167 170
g roof
f 166 170 171
g roof
f 166 171 172
g roof
f 166 172 173
g roof
f 166 173 174
g roof
f 166 174 175
g roof
f 166 175 176
g roof
f 166 176 177
g roof
f 178 181 183
g roof
f 186 189 190
g roof
f 186 190 192 193
g roof
f 143 144 152
g roof
f 143 152 165 166
g roof
f 143 166 177 178
g roof
f 143 178 183
g roof
f 136 143 183
g roof
f 136 183 764 187
g roof
f 135 136 187
g roof
f 135 187 186
g roof
f 185 186 193
g roof
f 185 193 200
g roof
f 184 185 200
g roof
f 184 200 129
g roof
f 184 129 202
g roof
f 203 204 205
g roof
f 203 205 206
g roof
f 203 206 207
g roof
f 208 131 209
g roof
f 209 127 210
g roof
f 209 210 211
g roof
f 209 211 212
g roof
f 213 214 208
g roof
f 208 209 212
g roof
f 208 212 213 214
g roof
f 215 216 217
g roof
f 215 217 218
g roof
f 215 218 219
g roof
f 215 219 220
g roof
f 221 222 223
g roof
f 221 223 224
g roof
f 225 226 827 830 831 227
g roof
f 227 228 229
g roof
f 227 229 230
g roof
f 234 835 235 236
g roof
f 234 236 237
g roof
f 237 238 239
g roof
f 240 236 235
g roof
f 240 235 215
g roof
f 240 215 241
g roof
f 241 219 214
g roof
f 241 214 242
g roof
f 242 212 211
g roof
f 242 211 243
g roof
f 244 245 246
g roof
f 244 246 247
g roof
f 244 247 248
g roof
f 244 248 249
g roof
f 244 249 250
g roof
f 244 250 251
g roof
f 251 252 253
g roof
f 253 254 255
g roof
f 253 255 256
g roof
f 253 256 257
g roof
f 253 257 258
g roof
f 253 258 259
g roof
f 253 259 260
g roof
f 253 260 261
g roof
f 261 262 263
g roof
f 264 265 817 266
g roof
f 267 268 269
g roof
f 267 269 270
g roof
f 267 270 271
g roof
f 267 271 272
g roof
f 267 272 273
g roof
f 273 274 275
g roof
f 273 275 276
g roof
f 276 821 822 823 825 225 227
g roof
f 276 227 230
g roof
f 276 230 277
g roof
f 276 277 278
g roof
f 279 234 237
g roof
f 279 237 239
g roof
f 240 241 242
g roof
f 240 242 243 244
g roof
f 240 244 251
g roof
f 240 251 253
g roof
f 240 253 261
g roof
f 263 264 266
g roof
f 280 267 273
g roof
f 280 273 276
g roof
f 280 276 278
g roof
f 280 278 231 232
g roof
f 280 232 233 279
g roof
f 239 240 261
g roof
f 239 261 263
g roof
f 239 263 266
g roof
f 266 280 279
g roof
f 266 279 239
g roof
f 281 282 283
g roof
f 281 283 284
g roof
f 281 284 285
g roof
f 281 285 221
g roof
f 281 221 286
g roof
f 287 288 289
g roof
f 287 289 290
g roof
f 290 291 292
g roof
f 290 292 284
g roof
f 290 284 293
g roof
f 290 293 294
g roof
f 290 294 295
g roof
f 290 295 287
g roof
f 296 297 298
g roof
f 299 300 301
g roof
f 299 301 302
g roof
f 299 302 210
g roof
f 299 210 282
g roof
f 270 303 304
g roof
f 270 304 305
g roof
f 345 306 307 865 308
g roof
f 345 306 308 309
g roof
f 345 306 309 310
g roof
f 345 306 310 311
g roof
f 345 306 311 312
g roof
f 345 306 312 313
g roof
f 345 306 313 314
g roof
f 345 306 314 315
g roof
f 345 306 315 316
g roof
f 317 318 319
g roof
f 317 319 320
g roof
f 317 320 321
g roof
f 325 163 159 158
g roof
f 325 158 157
g roof
f 325 157 156
g roof
f 156 326 327
g roof
f 156 327 328
g roof
f 156 328 329
g roof
f 329 330 331
g roof
f 329 331 332
g roof
f 329 332 333
g roof
f 329 333 334
g roof
f 334 851 852 335 336
g roof
f 334 336 337
g roof
f 334 337 856 338
g roof
f 334 338 339
g roof
f 334 339 340
g roof
f 334 340 341
g roof
f 341 342 343
g roof
f 344 345 306
g roof
f 317 321 322 346 323
g roof
f 325 156 329
g roof
f 325 329 334
g roof
f 334 341 343
g roof
f 334 343 344
g roof
f 334 344 345 306
g roof
f 325 334 306
g roof
f 325 345 306 316
g roof
f 347 325 316
g roof
f 347 316 317
g roof
f 323 324 347
g roof
f 323 347 317
g roof
f 348 349 350
g roof
f 348 350 351
g roof
f 351 352 353
g roof
f 351 353 348
g roof
f 331 354 355
g roof
f 356 357 828 683 681 358
g roof
f 356 358 359
g roof
f 356 359 78
g roof
f 356 78 360
g roof
f 356 360 361
g roof
f 356 361 362
g roof
f 362 363 364
g roof
f 362 364 365
g roof
f 366 364 363
g roof
f 366 363 361
g roof
f 360 367 368
g roof
f 369 370 371
g roof
f 372 373 374
g roof
f 372 375 376
g roof
f 376 377 378
g roof
f 379 380 381
g roof
f 381 674 382 383
g roof
f 381 383 384
g roof
f 384 385 386
g roof
f 384 386 387
g roof
f 388 389 390
g roof
f 393 394 395
g roof
f 393 395 396
g roof
f 393 396 397 392
g roof
f 397 396 398
g roof
f 398 396 399
g roof
f 398 399 400
g roof
f 398 400 401
g roof
f 398 400 401 402
g roof
f 398 402 403
g roof
f 398 403 404
g roof
f 405 403 402
g roof
f 405 402 406
g roof
f 407 406 408 409
g roof
f 409 410 411
g roof
f 409 412 413
g roof
f 409 413 414
g roof
f 409 414 415
g roof
f 417 418 419
g roof
f 421 422 423
g roof
f 421 423 424
g roof
f 427 838 217 428
g roof
f 428 429 430
g roof
f 428 429 430 431
g roof
f 428 429 430 431 432
g roof
f 428 432 433
g roof
f 435 436 437
g roof
f 435 437 438
g roof
f 439 440 356
g roof
f 439 440 356 362
g roof
f 439 362 365
g roof
f 439 365 441
g roof
f 360 368 369
g roof
f 371 372 374
g roof
f 373 372 375 376
g roof
f 373 372 375 376 378
g roof
f 373 378 380 379
g roof
f 373 379 380 381
g roof
f 373 381 384
g roof
f 373 384 387 670 442
g roof
f 392 393 397
g roof
f 407 409 408
g roof
f 407 409 411
g roof
f 410 409 415
g roof
f 410 415 416
g roof
f 410 416 417
g roof
f 410 417 419
g roof
f 410 419 420 421 449
g roof
f 427 838 428 433
g roof
f 434 435 438
g roof
f 434 438 439
g roof
f 434 439 441
g roof
f 361 360 369
g roof
f 361 369 370 371
g roof
f 361 371 374
g roof
f 361 374 443
g roof
f 443 373 442
g roof
f 443 442 392
g roof
f 443 392 388
g roof
f 443 388 389 390
g roof
f 443 390 444
g roof
f 444 389 388
g roof
f 444 388 445
g roof
f 391 388 392
g roof
f 391 392 397
g roof
f 391 397 446
g roof
f 406 407 447
g roof
f 448 407 411
g roof
f 449 410 421
g roof
f 449 421 424
g roof
f 449 424 425
g roof
f 433 434 441
g roof
f 433 441 366
g roof
f 433 366 361
g roof
f 433 361 443
g roof
f 433 443 444
g roof
f 405 406 447
g roof
f 405 447 448
g roof
f 405 448 411
g roof
f 405 411 449
g roof
f 449 425 426 427
g roof
f 427 433 444
g roof
f 405 449 427
g roof
f 405 427 444
g roof
f 404 405 444
g roof
f 404 444 445
g roof
f 446 398 404
g roof
f 446 404 445
g roof
f 446 445 391
g roof
f 450 451 452
g roof
f 453 454 455
g roof
f 455 456 457
g roof
f 455 457 453
g roof
f 458 459 929 931 933 460
g roof
f 458 460 461
g roof
f 458 461 462
g roof
f 458 462 463
g roof
f 458 463 464
g roof
f 462 461 465
g roof
f 462 465 466
g roof
f 467 465 461
g roof
f 467 461 850 468
g roof
f 467 468 469
g roof
f 467 469 470
g roof
f 472 473 474
g roof
f 472 474 475
g roof
f 475 476 477
g roof
f 477 478 479
g roof
f 477 479 480
g roof
f 477 480 481
g roof
f 477 481 482
g roof
f 477 482 483
g roof
f 477 483 484
g roof
f 485 708 486 487
g roof
f 485 487 458
g roof
f 485 458 464
g roof
f 464 462 466
g roof
f 464 466 467
g roof
f 464 467 470
g roof
f 464 470 471 472
g roof
f 464 472 471
g roof
f 464 472 475
g roof
f 464 475 477
g roof
f 464 477 484 485
g roof
f 489 490 491
g roof
f 491 492 493
g roof
f 491 493 494
g roof
f 491 494 495
g roof
f 491 495 496
g roof
f 491 496 497
g roof
f 491 497 498
g roof
f 491 498 480
g roof
f 491 480 499
g roof
f 491 499 488
g roof
f 491 488 489
g roof
f 500 501 502
g roof
f 500 502 503
g roof
f 500 503 504
g roof
f 500 504 505
g roof
f 506 507 358
g roof
f 508 509 510
g roof
f 508 510 511
g roof
f 511 512 225
g roof
f 511 225 513
g roof
f 511 513 514
g roof
f 511 514 508
g roof
f 517 516 515
g roof
f 517 516 515 518
g roof
f 517 518 519
g roof
f 517 520 521 516
g roof
f 517 516 521 522
g roof
f 522 515 516
g roof
f 517 516 522
g roof
f 523 524 525
g roof
f 526 527 528
g roof
f 526 528 529
g roof
f 526 529 124 756
g roof
f 530 531 532
g roof
f 530 532 533
g roof
f 534 535 536
g roof
f 537 538 539
g roof
f 541 542 543
g roof
f 541 543 544
g roof
f 545 546 547
g roof
f 545 547 548
g roof
f 545 548 549
g roof
f 545 548 549 550
g roof
f 550 534 536 537 539
g roof
f 539 540 541
g roof
f 544 545 550
g roof
f 544 550 539
g roof
f 544 539 541
g roof
f 551 550 552
g roof
f 551 552 553
g roof
f 551 553 554
g roof
f 551 554 555
g roof
f 551 555 556
g roof
f 557 558 863 559
g roof
f 557 559 863 560
g roof
f 557 560 561
g roof
f 557 561 562
g roof
f 563 564 565
g roof
f 563 565 566
g roof
f 566 107 124
g roof
f 566 124 567
g roof
f 570 317 316
g roof
f 570 316 571
g roof
f 570 571 572
g roof
f 570 572 573
g roof
f 570 573 574
g roof
f 570 574 575
g roof
f 570 575 576
g roof
f 570 576 563
g roof
f 563 566 567
g roof
f 563 567 577
g roof
f 578 568 569
g roof
f 578 569 570
g roof
f 570 563 577
g roof
f 570 577 578
g roof
f 529 351 579
g roof
f 529 579 580
g roof
f 529 580 125
g roof
f 529 125 124
g roof
f 324 323 346
g roof
f 324 346 579
g roof
f 579 581 582
g roof
f 579 582 324
g roof
f 583 349 527
g roof
f 583 527 119
g roof
f 583 119 118
g roof
f 118 117 116 115 584
g roof
f 118 584 585
g roof
f 118 585 536
g roof
f 118 536 535
g roof
f 118 586 583
g roof
f 587 769 588 589
g roof
f 587 589 590
g roof
f 587 590 591
g roof
f 587 591 592
g roof
f 592 593 587
g roof
f 594 595 193
g roof
f 594 193 192
g roof
f 594 192 596
g roof
f 594 596 190
g roof
f 190 189 188
g roof
f 115 597 598
g roof
f 115 598 599
g roof
f 115 599 600
g roof
f 115 600 594
g roof
f 115 594 596 190 189 188
g roof
f 115 188 189 190
g roof
f 601 602 603
g roof
f 601 603 302
g roof
f 601 302 604
g roof
f 601 604 591
g roof
f 605 606 607
g roof
f 605 607 608
g roof
f 609 351 350
g roof
f 609 350 610
g roof
f 613 614 615
g roof
f 613 615 616
g roof
f 613 616 617
g roof
f 613 617 203
g roof
f 613 203 207
g roof
f 207 618 619
g roof
f 207 619 620
g roof
f 207 620 621
g roof
f 621 622 623
g roof
f 623 624 625
g roof
f 612 613 207
g roof
f 207 621 623
g roof
f 207 623 625
g roof
f 207 625 804 626
g roof
f 207 626 611 612
g roof
f 627 628 629
g roof
f 630 631 632
g roof
f 630 632 633
g roof
f 634 635 820 636
g roof
f 634 636 637
g roof
f 634 637 638
g roof
f 638 639 640
g roof
f 638 640 641
g roof
f 638 641 642
g roof
f 638 642 643
g roof
f 638 643 644
g roof
f 645 642 641
g roof
f 646 647 648
g roof
f 646 648 649
g roof
f 646 649 650
g roof
f 651 815 652 653
g roof
f 651 653 654
g roof
f 651 654 655
g roof
f 651 655 656
g roof
f 656 983 657 658
g roof
f 658 659 660
g roof
f 658 660 634
g roof
f 658 634 638
g roof
f 658 638 644
g roof
f 661 646 650
g roof
f 661 650 816 651
g roof
f 661 651 656
g roof
f 656 658 644
g roof
f 662 661 656
g roof
f 662 656 644
g roof
f 663 662 644
g roof
f 645 663 644
g roof
f 664 665 666
g roof
f 664 666 629
g roof_step_or_fixture_side
f 329 328 45 44
g roof_step_or_fixture_side
f 328 327 46 45
g roof_step_or_fixture_side
f 49 47 154
g roof_step_or_fixture_side
f 50 49 154 153
g roof_step_or_fixture_side
f 55 50 153 152
g roof_step_or_fixture_side
f 56 55 152 151
g roof_step_or_fixture_side
f 57 56 151 150 394
g roof_step_or_fixture_side
f 58 57 394 393
g roof_step_or_fixture_side
f 59 58 393 392
g roof_step_or_fixture_side
f 60 59 392 442
g roof_step_or_fixture_side
f 61 60 442 670
g facade_completed
f 95 61 670 671 672 386
g roof_step_or_fixture_side
f 51 95 386 385
g roof_step_or_fixture_side
f 62 51 385 384
g roof_step_or_fixture_side
f 63 62 384 383
g roof_step_or_fixture_side
f 64 63 383 382
g roof_step_or_fixture_side
f 65 64 382 674
g roof_step_or_fixture_side
f 66 65 674 381
g roof_step_or_fixture_side
f 675 67 66 381 380 379
g facade_completed
f 68 67 675 380 379 676 677 377
g roof_step_or_fixture_side
f 69 68 377 376
g roof_step_or_fixture_side
f 70 69 376 375
g roof_step_or_fixture_side
f 71 70 375 372
g roof_step_or_fixture_side
f 72 71 372 371
g roof_step_or_fixture_side
f 73 72 371 370
g roof_step_or_fixture_side
f 74 73 370 369
g roof_step_or_fixture_side
f 75 74 369 368
g roof_step_or_fixture_side
f 76 75 368 367
g roof_step_or_fixture_side
f 77 76 367 360
g roof_step_or_fixture_side
f 78 77 360
g facade_completed
f 79 78 679 680
g roof_step_or_fixture_side
f 359 358 17 79
g roof_step_or_fixture_side
f 358 681 17
g roof_step_or_fixture_side
f 80 681 683
g roof_step_or_fixture_side
f 226 225 81 80
g roof_step_or_fixture_side
f 225 512 82 81
g roof_step_or_fixture_side
f 512 511 83 82
g facade_completed
f 84 83 686 687
g facade_completed
f 85 84 687 688
g facade_completed
f 86 85 688 689
g facade_completed
f 87 86 689 690
g facade_completed
f 691 87 690 692
g facade_completed
f 88 691 692 693
g facade_completed
f 1 88 693 694
g facade_completed
f 695 1 694 696
g facade_completed
f 697 695 696 698
g facade_completed
f 2 697 698 699
g roof_step_or_fixture_side
f 521 520 3 2
g roof_step_or_fixture_side
f 520 517 516 4 3
g roof_step_or_fixture_side
f 516 517 519 5 4
g roof_step_or_fixture_side
f 519 518 6 5
g roof_step_or_fixture_side
f 518 515 7 6
g facade_completed
f 8 7 701 702
g facade_completed
f 9 8 702 703
g facade_completed
f 10 9 703 704
g facade_completed
f 11 10 704 705
g facade_completed
f 12 11 705 706
g facade_completed
f 13 12 706 707
g roof_step_or_fixture_side
f 487 486 14 13
g roof_step_or_fixture_side
f 486 708 709 14
g roof_step_or_fixture_side
f 708 485 25 709
g roof_step_or_fixture_side
f 485 484 26 25
g roof_step_or_fixture_side
f 484 483 27 26
g roof_step_or_fixture_side
f 483 482 28 27
g roof_step_or_fixture_side
f 482 481 90 28
g roof_step_or_fixture_side
f 481 480 91 90
g roof_step_or_fixture_side
f 480 479 31 91
g roof_step_or_fixture_side
f 479 478 32 31
g roof_step_or_fixture_side
f 478 477 33 32
g roof_step_or_fixture_side
f 477 476 35 33
g roof_step_or_fixture_side
f 476 475 38 35
g facade_completed
f 39 38 714 715
g facade_completed
f 40 39 715 716
g roof_step_or_fixture_side
f 474 473 354 41 40
g roof_step_or_fixture_side
f 354 331 42 41
g roof_step_or_fixture_side
f 331 330 43 42
g roof_step_or_fixture_side
f 330 329 44 43
g facade_completed
f 35 99 718 719
g facade_completed
f 34 35 719 720
g facade_completed
f 99 34 720 718
g roof_step_or_fixture_side
f 499 480 91 721
g roof_step_or_fixture_side
f 480 498 89 91
g roof_step_or_fixture_side
f 498 497 722 89
g roof_step_or_fixture_side
f 497 496 724 722
g roof_step_or_fixture_side
f 496 495 725 724
g roof_step_or_fixture_side
f 495 494 726 725
g roof_step_or_fixture_side
f 494 493 18 726
g roof_step_or_fixture_side
f 493 492 19 18
g roof_step_or_fixture_side
f 492 491 20 19
g roof_step_or_fixture_side
f 491 490 21 20
g facade_completed
f 22 21 728 729
g facade_completed
f 23 22 729 730
g roof_step_or_fixture_side
f 489 488 24 23
g roof_step_or_fixture_side
f 488 499 721 24
g roof_step_or_fixture_side
f 731 506 358 17 16
g roof_step_or_fixture_side
f 358 507 15 17
g roof_step_or_fixture_side
f 507 506 731 16 15
g facade_completed
f 97 37 732 733
g facade_completed
f 36 97 733 734
g facade_completed
f 37 36 734 732
g facade_completed
f 48 94 735 736
g facade_completed
f 93 48 736 737
g facade_completed
f 94 93 737 735
g facade_completed
f 54 53 738 739
g facade_completed
f 52 54 739 740
g facade_completed
f 53 52 740 738
g facade_completed
f 29 92 741 742
g facade_completed
f 30 29 742 743
g facade_completed
f 92 30 743 741
g facade_completed
f 96 98 744 745
g facade_completed
f 100 96 745 746
g facade_completed
f 98 100 746 744
g roof_step_or_fixture_side
f 464 463 103 102
g roof_step_or_fixture_side
f 463 462 101 103
g roof_step_or_fixture_side
f 462 464 102 101
g roof_step_or_fixture_side
f 465 467 106 105
g roof_step_or_fixture_side
f 467 466 104 106
g roof_step_or_fixture_side
f 466 465 105 104
g facade_completed
f 110 109 749 750
g facade_completed
f 109 110 750 749
g roof_step_or_fixture_side
f 111 109 565 564
g facade_completed
f 112 111 564 751 752
g facade_completed
f 113 112 752 753
g facade_completed
f 114 113 753 754 597
g roof_step_or_fixture_side
f 115 114 597
g roof_step_or_fixture_side
f 526 756 107 119
g roof_step_or_fixture_side
f 108 107 566
g roof_step_or_fixture_side
f 109 108 566 565
g roof_step_or_fixture_side
f 123 122 577 567
g roof_step_or_fixture_side
f 124 123 567
g roof_step_or_fixture_side
f 321 320 120 125
g roof_step_or_fixture_side
f 121 120 568 578
g roof_step_or_fixture_side
f 122 121 578 577
g roof_step_or_fixture_side
f 582 581 167 163
g roof_step_or_fixture_side
f 581 579 168 167
g roof_step_or_fixture_side
f 579 351 169 168
g roof_step_or_fixture_side
f 351 609 170 169
g roof_step_or_fixture_side
f 609 610 555 171 170
g roof_step_or_fixture_side
f 555 554 172 171
g roof_step_or_fixture_side
f 554 553 173 172
g roof_step_or_fixture_side
f 553 552 174 173
g facade_completed
f 175 174 760 761
g roof_step_or_fixture_side
f 549 548 176 175
g roof_step_or_fixture_side
f 548 547 177 176
g roof_step_or_fixture_side
f 547 546 178 177
g roof_step_or_fixture_side
f 546 545 179 178
g facade_completed
f 180 179 762 763
g roof_step_or_fixture_side
f 543 542 181 180
g roof_step_or_fixture_side
f 542 541 182 181
g roof_step_or_fixture_side
f 541 540 183 182
g roof_step_or_fixture_side
f 540 539 764 183
g roof_step_or_fixture_side
f 539 538 584 187 764
g roof_step_or_fixture_side
f 584 115 187
g roof_step_or_fixture_side
f 191 190 596
g roof_step_or_fixture_side
f 192 191 596
g roof_step_or_fixture_side
f 194 193 595
g facade_completed
f 195 194 595 765 766
g facade_completed
f 196 195 766 767
g facade_completed
f 197 196 767 768 588
g roof_step_or_fixture_side
f 198 197 588 769
g roof_step_or_fixture_side
f 199 198 769 587
g roof_step_or_fixture_side
f 200 199 587 593
g roof_step_or_fixture_side
f 201 200 593 592
g roof_step_or_fixture_side
f 300 299 126 201
g roof_step_or_fixture_side
f 299 282 127 126
g roof_step_or_fixture_side
f 282 281 128 127
g roof_step_or_fixture_side
f 281 286 129 128
g roof_step_or_fixture_side
f 286 221 202 129
g roof_step_or_fixture_side
f 221 285 130 202
g roof_step_or_fixture_side
f 285 284 131 130
g roof_step_or_fixture_side
f 284 292 422 132 131
g roof_step_or_fixture_side
f 422 421 133 132
g roof_step_or_fixture_side
f 421 420 134 133
g roof_step_or_fixture_side
f 420 419 135 134
g roof_step_or_fixture_side
f 419 418 136 135
g roof_step_or_fixture_side
f 418 417 137 136
g roof_step_or_fixture_side
f 417 416 138 137
g facade_completed
f 139 138 772 773
g roof_step_or_fixture_side
f 414 413 140 139
g roof_step_or_fixture_side
f 413 412 141 140
g roof_step_or_fixture_side
f 412 409 142 141
g roof_step_or_fixture_side
f 409 408 143 142
g roof_step_or_fixture_side
f 408 406 144 143
g roof_step_or_fixture_side
f 406 402 145 144
g roof_step_or_fixture_side
f 402 401 146 145
g facade_completed
f 147 146 778 779
g roof_step_or_fixture_side
f 399 396 148 147
g roof_step_or_fixture_side
f 396 395 149 148
g roof_step_or_fixture_side
f 395 394 150 149
g roof_step_or_fixture_side
f 327 326 155 46
g roof_step_or_fixture_side
f 326 156 155
g facade_completed
f 157 156 784 785
g roof_step_or_fixture_side
f 222 221 202 186
g roof_step_or_fixture_side
f 221 224 184 202
g roof_step_or_fixture_side
f 224 223 185 184
g roof_step_or_fixture_side
f 223 222 186 185
g facade_completed
f 165 164 789 790
g facade_completed
f 166 165 790 791
g facade_completed
f 164 166 791 789
g facade_completed
f 162 161 792 793
g facade_completed
f 160 162 793 794
g facade_completed
f 161 160 794 792
g facade_completed
f 206 205 795 796 618
g roof_step_or_fixture_side
f 207 206 618
g roof_step_or_fixture_side
f 204 203 603 602
g facade_completed
f 205 204 602 797 795
g roof_step_or_fixture_side
f 283 282 127 209
g roof_step_or_fixture_side
f 282 210 127
g facade_completed
f 211 210 798 799
g roof_step_or_fixture_side
f 213 212 242
g roof_step_or_fixture_side
f 214 213 242
g roof_step_or_fixture_side
f 607 606 293 208 214
g roof_step_or_fixture_side
f 293 284 131 208
g roof_step_or_fixture_side
f 284 283 209 131
g roof_step_or_fixture_side
f 217 216 428
g roof_step_or_fixture_side
f 295 294 218 217
g roof_step_or_fixture_side
f 605 608 219 218 294
g roof_step_or_fixture_side
f 220 219 241
g roof_step_or_fixture_side
f 215 220 241
g roof_step_or_fixture_side
f 215 235 216
g roof_step_or_fixture_side
f 612 611 247 246
g roof_step_or_fixture_side
f 611 626 248 247
g roof_step_or_fixture_side
f 626 804 249 248
g roof_step_or_fixture_side
f 804 625 250 249
g roof_step_or_fixture_side
f 625 624 251 250
g roof_step_or_fixture_side
f 624 623 252 251
g roof_step_or_fixture_side
f 623 622 253 252
g roof_step_or_fixture_side
f 622 621 254 253
g facade_completed
f 255 254 806 807
g facade_completed
f 256 255 807 808
g facade_completed
f 257 256 808 809
g facade_completed
f 258 257 809 810
g facade_completed
f 259 258 810 811
g facade_completed
f 260 259 811 812
g facade_completed
f 261 260 812 813
g facade_completed
f 262 261 813 814
g roof_step_or_fixture_side
f 653 652 263 262
g roof_step_or_fixture_side
f 652 815 264 263
g roof_step_or_fixture_side
f 815 651 265 264
g roof_step_or_fixture_side
f 651 816 817 265
g roof_step_or_fixture_side
f 816 650 266 817
g roof_step_or_fixture_side
f 650 649 280 266
g roof_step_or_fixture_side
f 649 648 267 280
g roof_step_or_fixture_side
f 648 647 268 267
g facade_completed
f 269 268 818 819
g roof_step_or_fixture_side
f 663 645 270 269
g roof_step_or_fixture_side
f 645 641 271 270
g roof_step_or_fixture_side
f 641 640 272 271
g roof_step_or_fixture_side
f 640 639 273 272
g roof_step_or_fixture_side
f 639 638 274 273
g roof_step_or_fixture_side
f 638 637 275 274
g roof_step_or_fixture_side
f 637 636 276 275
g roof_step_or_fixture_side
f 636 820 821 276
g roof_step_or_fixture_side
f 820 635 822 821
g roof_step_or_fixture_side
f 508 514 823 822 635
g roof_step_or_fixture_side
f 514 513 825 823
g roof_step_or_fixture_side
f 513 225 825
g roof_step_or_fixture_side
f 827 226 80 683 828
g roof_step_or_fixture_side
f 830 827 828 357
g roof_step_or_fixture_side
f 504 503 831 830
g roof_step_or_fixture_side
f 503 502 227 831
g roof_step_or_fixture_side
f 502 501 228 227
g roof_step_or_fixture_side
f 229 228 439 438
g roof_step_or_fixture_side
f 230 229 438 437
g roof_step_or_fixture_side
f 277 230 437 436
g roof_step_or_fixture_side
f 278 277 436 435
g roof_step_or_fixture_side
f 231 278 435 434
g roof_step_or_fixture_side
f 232 231 434 433
g roof_step_or_fixture_side
f 233 232 433 432
g roof_step_or_fixture_side
f 279 233 432 431
g roof_step_or_fixture_side
f 234 279 431 430
g roof_step_or_fixture_side
f 835 234 430 429
g roof_step_or_fixture_side
f 235 835 429 428 216
g roof_step_or_fixture_side
f 608 607 214 219
g roof_step_or_fixture_side
f 616 615 243 211
g roof_step_or_fixture_side
f 615 614 244 243
g roof_step_or_fixture_side
f 614 613 245 244
g roof_step_or_fixture_side
f 613 612 246 245
g roof_step_or_fixture_side
f 238 237 456 455
g roof_step_or_fixture_side
f 239 238 455 454
g roof_step_or_fixture_side
f 240 239 454 453
g roof_step_or_fixture_side
f 236 240 453 457
g roof_step_or_fixture_side
f 237 236 457 456
g roof_step_or_fixture_side
f 288 287 838 427
g roof_step_or_fixture_side
f 289 288 427 426
g roof_step_or_fixture_side
f 290 289 426 425
g facade_completed
f 291 290 425 840 841 423
g roof_step_or_fixture_side
f 292 291 423 422
g roof_step_or_fixture_side
f 606 605 294 293
g roof_step_or_fixture_side
f 287 295 217 838
g roof_step_or_fixture_side
f 298 297 362 361
g roof_step_or_fixture_side
f 296 298 361 363
g roof_step_or_fixture_side
f 297 296 363 362
g roof_step_or_fixture_side
f 628 627 301 300
g roof_step_or_fixture_side
f 302 301 604
g facade_completed
f 210 302 844 798
g roof_step_or_fixture_side
f 643 642 305 304
g roof_step_or_fixture_side
f 642 645 270 305
g roof_step_or_fixture_side
f 645 644 303 270
g roof_step_or_fixture_side
f 644 643 304 303
g roof_step_or_fixture_side
f 318 317 570
g roof_step_or_fixture_side
f 319 318 570 569
g roof_step_or_fixture_side
f 320 319 569 568 120
g roof_step_or_fixture_side
f 322 321 125 580
g roof_step_or_fixture_side
f 346 322 580 525 524
g roof_step_or_fixture_side
f 347 324 530 533
g roof_step_or_fixture_side
f 325 347 533 532
g roof_step_or_fixture_side
f 163 325 532 531
g facade_completed
f 156 157 785 784
g roof_step_or_fixture_side
f 471 470 332 331
g roof_step_or_fixture_side
f 470 469 333 332
g roof_step_or_fixture_side
f 469 468 334 333
g roof_step_or_fixture_side
f 468 850 851 334
g roof_step_or_fixture_side
f 850 461 852 851
g roof_step_or_fixture_side
f 461 460 335 852
g facade_completed
f 336 335 853 854
g facade_completed
f 337 336 854 855
g facade_completed
f 856 337 855 857
g facade_completed
f 338 856 857 858
g facade_completed
f 339 338 858 859
g facade_completed
f 340 339 859 860
g facade_completed
f 341 340 860 861
g facade_completed
f 342 341 861 862 562
g roof_step_or_fixture_side
f 343 342 562 561
g roof_step_or_fixture_side
f 344 343 561 560
g roof_step_or_fixture_side
f 345 344 560 559 863
g roof_step_or_fixture_side
f 307 345 306 863 559 558
g facade_completed
f 865 307 558 866 867
g facade_completed
f 308 865 867 868
g facade_completed
f 309 308 868 869
g facade_completed
f 310 309 869 870
g facade_completed
f 311 310 870 871
g facade_completed
f 312 311 871 872
g facade_completed
f 313 312 872 873
g facade_completed
f 314 313 873 874
g facade_completed
f 315 314 874 875
g facade_completed
f 316 315 875 876
g roof_step_or_fixture_side
f 352 351 529
g roof_step_or_fixture_side
f 353 352 529 528
g roof_step_or_fixture_side
f 348 353 528 527
g roof_step_or_fixture_side
f 349 348 527
g roof_step_or_fixture_side
f 350 349 551 556
g roof_step_or_fixture_side
f 473 472 355 354
g roof_step_or_fixture_side
f 472 471 331 355
g facade_completed
f 415 414 139 773 878
g facade_completed
f 416 415 878 772 138
g facade_completed
f 424 423 841 881
g facade_completed
f 425 424 881 840
g roof_step_or_fixture_side
f 501 500 440 439 228
g roof_step_or_fixture_side
f 500 505 356 440
g roof_step_or_fixture_side
f 505 504 830 357 356
g facade_completed
f 78 359 79 680 679
g facade_completed
f 378 377 677 893
g facade_completed
f 379 378 893 676
g facade_completed
f 387 386 672 895
g facade_completed
f 670 387 895 671
g facade_completed
f 400 399 147 779 897
g facade_completed
f 401 400 897 778 146
g facade_completed
f 404 403 899 900
g facade_completed
f 405 404 900 901
g facade_completed
f 403 405 901 899
g facade_completed
f 391 445 902 903
g facade_completed
f 388 391 903 904
g facade_completed
f 445 388 904 902
g facade_completed
f 397 398 905 906
g facade_completed
f 446 397 906 907
g facade_completed
f 398 446 907 905
g facade_completed
f 407 448 908 909
g facade_completed
f 447 407 909 910
g facade_completed
f 448 447 910 908
g facade_completed
f 410 449 911 912
g facade_completed
f 411 410 912 913
g facade_completed
f 449 411 913 911
g facade_completed
f 389 444 914 915
g facade_completed
f 390 389 915 916
g facade_completed
f 444 390 916 914
g roof_step_or_fixture_side
f 633 632 441 365
g roof_step_or_fixture_side
f 632 631 366 441
g roof_step_or_fixture_side
f 631 630 364 366
g roof_step_or_fixture_side
f 630 633 365 364
g facade_completed
f 373 443 918 919
g facade_completed
f 374 373 919 920
g facade_completed
f 443 374 920 918
g facade_completed
f 450 452 589 921 922
g roof_step_or_fixture_side
f 665 664 451 450
g roof_step_or_fixture_side
f 452 451 590 589
g facade_completed
f 475 474 40 716 714 38
g facade_completed
f 458 487 13 707 927
g facade_completed
f 459 458 927 928
g facade_completed
f 929 459 928 930
g facade_completed
f 931 929 930 932
g facade_completed
f 933 931 932 934
g facade_completed
f 460 933 934 853 335
g facade_completed
f 490 489 23 730 728 21
g roof_step_or_fixture_side
f 509 508 635 634
g facade_completed
f 510 509 634 945 946
g facade_completed
f 511 510 946 686 83
g facade_completed
f 522 521 2 699 949
g facade_completed
f 515 522 949 701 7
g roof_step_or_fixture_side
f 580 579 168 523 525
g roof_step_or_fixture_side
f 579 346 524 523 168
g roof_step_or_fixture_side
f 756 124 107
g roof_step_or_fixture_side
f 527 526 119
g roof_step_or_fixture_side
f 324 582 163 531 530
g roof_step_or_fixture_side
f 537 536 585
g roof_step_or_fixture_side
f 538 537 585 584
g facade_completed
f 544 543 180 763 952
g facade_completed
f 545 544 952 762 179
g facade_completed
f 550 549 175 761 953
g roof_step_or_fixture_side
f 583 586 534 550
g roof_step_or_fixture_side
f 586 535 534
g roof_step_or_fixture_side
f 610 350 556 555
g roof_step_or_fixture_side
f 349 583 550 551
g facade_completed
f 552 550 953 760 174
g facade_completed
f 557 562 862 957
g facade_completed
f 558 557 957 866
g facade_completed
f 575 574 958 959
g facade_completed
f 576 575 959 960
g facade_completed
f 563 576 960 961
g facade_completed
f 564 563 961 751
g facade_completed
f 571 316 876 963
g facade_completed
f 572 571 963 964
g facade_completed
f 573 572 964 965
g facade_completed
f 574 573 965 958
g facade_completed
f 589 588 768 921
g roof_step_or_fixture_side
f 664 629 591 590 451
g roof_step_or_fixture_side
f 629 628 300 201 592 591
g facade_completed
f 598 597 754 973
g facade_completed
f 599 598 973 974
g facade_completed
f 600 599 974 975
g facade_completed
f 594 600 975 976
g facade_completed
f 595 594 976 765
g roof_step_or_fixture_side
f 203 617 302 603
g roof_step_or_fixture_side
f 627 629 591 604 301
g roof_step_or_fixture_side
f 629 666 601 591
g facade_completed
f 602 601 977 797
g facade_completed
f 617 616 211 799 844 302
g facade_completed
f 619 618 796 980
g facade_completed
f 620 619 980 981
g facade_completed
f 621 620 981 806 254
g facade_completed
f 657 983 984 985
g facade_completed
f 658 657 985 986
g facade_completed
f 659 658 986 987
g facade_completed
f 660 659 987 988
g facade_completed
f 634 660 988 945
g facade_completed
f 662 663 269 819 989
g facade_completed
f 661 662 989 990
g facade_completed
f 646 661 990 991
g facade_completed
f 647 646 991 818 268
g facade_completed
f 654 653 262 814 992
g facade_completed
f 655 654 992 993
g facade_completed
f 656 655 993 994
g facade_completed
f 983 656 994 984
g facade_completed
f 666 665 450 922 977 601
g ground_assumed
f 858 860 859
g ground_assumed
f 858 991 860
g ground_assumed
f 858 818 991
g ground_assumed
f 858 819 818
g ground_assumed
f 990 860 991
g ground_assumed
f 990 861 860
g ground_assumed
f 990 868 867 866 957 862 861
g ground_assumed
f 990 869 868
g ground_assumed
f 990 870 869
g ground_assumed
f 990 871 870
g ground_assumed
f 990 872 871
g ground_assumed
f 990 873 872
g ground_assumed
f 990 874 873
g ground_assumed
f 990 875 874
g ground_assumed
f 990 766 765 976 975 974 973 754 753 752 751 961 960 959 958 965 964 963 876 875
g ground_assumed
f 990 767 766
g ground_assumed
f 990 768 767
g ground_assumed
f 990 921 768
g ground_assumed
f 990 922 921
g ground_assumed
f 990 977 922
g ground_assumed
f 990 797 977
g ground_assumed
f 990 795 797
g ground_assumed
f 990 807 806 981 980 796 795
g ground_assumed
f 990 808 807
g ground_assumed
f 990 809 808
g ground_assumed
f 990 810 809
g ground_assumed
f 990 811 810
g ground_assumed
f 990 812 811
g ground_assumed
f 990 813 812
g ground_assumed
f 990 814 813
g ground_assumed
f 990 992 814
g ground_assumed
f 990 993 992
g ground_assumed
f 990 994 993
g ground_assumed
f 994 986 985 984
g ground_assumed
f 986 988 987
g ground_assumed
f 986 945 988
g ground_assumed
f 986 946 945
g ground_assumed
f 986 686 946
g ground_assumed
f 986 687 686
g ground_assumed
f 986 688 687
g ground_assumed
f 986 689 688
g ground_assumed
f 986 690 689
g ground_assumed
f 986 693 692 690
g ground_assumed
f 986 694 693
g ground_assumed
f 986 949 699 698 696 694
g ground_assumed
f 986 701 949
g ground_assumed
f 986 702 701
g ground_assumed
f 986 703 702
g ground_assumed
f 703 705 704
g ground_assumed
f 703 706 705
g ground_assumed
f 703 707 706
g ground_assumed
f 703 927 707
g ground_assumed
f 703 928 927
g ground_assumed
f 703 854 853 934 932 930 928
g ground_assumed
f 703 855 854
g ground_assumed
f 703 858 857 855
g ground_assumed
f 703 819 858
g ground_assumed
f 989 994 990
g ground_assumed
f 989 986 994
g ground_assumed
f 986 819 703
g ground_assumed
f 986 989 819
