# pointcloud_to_mesh 0.5.1; candidate requires geometry validation; coordinates preserved
v -5.577939971 -3.990995442 3.936335165
v -3.755862118 -5.155100736 3.903015863
v -3.589327297 -5.050128345 4.032185656
v -3.593127947 -5.056277861 4.026889661
v -3.589264457 -5.050088753 4.032234385
v -3.535127779 -5.015964604 4.074224553
v -3.665901098 -5.224548807 3.893881508
v -2.516070994 -6.113204249 3.776499608
v -1.661190751 -6.503805670 3.858179738
v -1.679975855 -6.906544257 3.599096573
v -1.367810730 -6.815605627 3.775023975
v -0.498822347 -7.370792649 3.759133278
v 1.179390911 -8.411366537 3.748222263
v 0.141977790 -3.072209339 6.692334941
v -3.578005716 -0.695553210 6.760360166
v -3.643112160 -0.711231088 6.725725131
v -3.578542975 -0.695209962 6.760369990
v -1.725406841 -1.879158047 6.726482743
v -0.584617015 -0.055764111 8.302084007
v -0.547144873 -0.046353056 8.322260733
v -0.487574035 -0.031391957 8.354336414
v -0.487555484 -0.031387294 8.354346405
v -0.487570030 -0.031410990 8.354326036
v -0.479768614 -0.068809590 8.333907669
v 0.364698293 -3.214502994 6.688262178
v 0.245224069 -2.633084114 7.006387710
v 0.077234869 -2.738973249 6.876089854
v 0.077229741 -2.738976515 6.876085856
v -0.469743260 0.076154552 8.428408238
v -0.469754600 0.076136605 8.428392687
v -0.420109623 -0.179366558 8.287503390
v -0.315106380 -0.009832293 8.433592679
v -0.135601806 -0.779802749 8.020417598
v -0.299149929 0.015930389 8.455792627
v -0.299116618 0.015938755 8.455810563
v -0.342512359 0.107723457 8.496674459
v -0.342507107 0.107700925 8.496662368
v -0.224674347 0.034634732 8.495893676
v -0.224646578 0.034641792 8.495908682
v -0.224639642 0.034613271 8.495893487
v -0.220797464 0.032230790 8.495868416
v -0.193017541 0.015004920 8.495687199
v -0.199004646 0.041081667 8.509715450
v -0.187607623 0.043944020 8.515852139
v -0.205349842 0.116593437 8.554529547
v -0.192060964 0.119793489 8.561598930
v -0.208638138 0.130058134 8.561697945
v -0.221185416 0.137827454 8.561772889
v -0.211144003 0.140318959 8.567160647
v -0.214244649 0.153015242 8.573919949
v -0.278144177 0.254184122 8.612834703
v -0.243385537 0.234382896 8.613703885
v -0.243390719 0.234405464 8.613716026
v -0.243367869 0.234411077 8.613728250
v -0.172304042 0.220730960 8.632271227
v -0.208225155 0.243043550 8.632529637
v -0.229622659 0.256334682 8.632683540
v -0.241239168 0.263550299 8.632767082
v -0.241309688 0.263594084 8.632767577
v -0.249625349 0.261560418 8.628324318
v -0.277848279 0.254658107 8.613244029
v -0.278241778 0.254561877 8.613033775
v -0.316630411 0.245173413 8.592521677
v -0.344805507 0.238282802 8.577466947
v -0.350328228 0.265159012 8.592172367
v -0.352802018 0.277197661 8.598759359
v -0.380448694 0.270570565 8.584070975
v -0.380469426 0.270537405 8.584042326
v -0.395837973 0.245972991 8.562816111
v -0.420181264 0.261046398 8.562961483
v -0.425424746 0.264293181 8.562992802
v -0.503291814 0.248739451 8.523569174
v -0.544301419 0.240547938 8.502806284
v -0.553715142 0.238667531 8.498040146
v -0.542514604 0.231722264 8.497967082
v -0.542452330 0.231683648 8.497966675
v -0.534168274 0.191971535 8.476285223
v -0.528415115 0.164392128 8.461227820
v -0.508026233 0.066655661 8.407867359
v -3.739997947 -0.592058174 6.763322425
v -5.698261015 -1.070978323 5.716968712
v -5.724443995 -1.111960379 5.681348924
v -8.751521652 -1.855531688 4.061860390
v -8.761196116 -1.943682608 4.003031221
v -8.765422673 -1.982193783 3.977330067
v -8.773224150 -2.053278594 3.929890285
v -8.371677042 -2.569109361 3.760359355
v -6.188166763 -3.964129817 3.720430743
v -1.544487882 -1.994745160 6.723174380
v 0.077150540 -2.738569083 6.876310508
v -0.447485779 -0.223567064 8.249415394
v -0.469757420 0.076150994 8.428400612
v -0.221215232 0.137820056 8.561756891
v -0.221222153 0.137850202 8.561773108
v -0.277872086 0.254619916 8.613211062
v -0.494159288 0.201737932 8.497651644
v -0.342534560 0.107717948 8.496662547
v -0.494162691 0.201755450 8.497661304
v -0.299123654 0.015972858 8.455829213
v -0.494180510 0.201751092 8.497651783
v 0.397593847 -2.537040409 7.124570643
v 0.306093566 -2.158875174 7.326225572
v 0.393509369 -2.539614997 7.121402585
v 0.436668671 -2.512410261 7.154878338
v 0.437186928 -2.514416124 7.153821275
v 0.436693280 -2.512394774 7.154897410
v 4.825770333 1.479594107 5.835683858
v 8.011190333 2.262060627 4.153992008
v 8.062499925 2.294402782 4.114991035
v 8.062064156 2.294298313 4.115219540
v 8.295633068 2.441354267 3.937784117
v 8.208414005 2.497077557 3.937268521
v 8.206812882 2.498100497 3.937259056
v 3.213921812 5.688003125 3.907743564
v 1.808868283 3.419456848 5.810367060
v 4.609818864 1.618450524 5.833871668
v 4.630811365 1.604952382 5.834047829
v 4.781652993 1.507961483 5.835313638
v 4.799604180 1.496418898 5.835464280
v 6.369062198 1.699733656 5.116862406
v 7.248238713 1.911442269 4.655281555
v 7.591857886 1.997741552 4.472730977
v 7.797716281 2.127500890 4.316255863
v 4.926206922 1.415013556 5.836526687
v 4.926220294 1.415004995 5.836526776
v -1.464977481 5.555030687 5.764488180
v -1.478788061 5.533414127 5.782778186
v -1.456762883 5.519251976 5.782963014
v -1.425992996 5.499466992 5.783221224
v -1.201665428 4.408174160 6.356683463
v -0.927038850 3.071709509 7.059018286
v -0.388933622 0.868318063 8.184537282
v -0.281556046 0.428636715 8.409131831
v -0.215509728 0.534202571 8.320342410
v -0.174958349 0.599018312 8.265827131
v -0.164723168 0.558925914 8.286138256
v -0.205874190 0.493794026 8.341072015
v -0.193930397 0.443705122 8.366767669
v -0.193926228 0.443687870 8.366776498
v -0.185024802 0.406358003 8.385926736
v -0.184507069 0.404186757 8.387040589
v -0.218093416 0.350382897 8.432265302
v -0.183940886 0.329197498 8.432084387
v -0.192442755 0.315636877 8.443496720
v -0.195887448 0.310142617 8.448120594
v -0.249954430 0.299342888 8.475166852
v -0.249973039 0.299313077 8.475191909
v -0.241253230 0.263607972 8.493430500
v -0.222130617 0.268284616 8.483347474
v -0.229622659 0.256334682 8.493404286
v -0.208225184 0.243043526 8.493301764
v -0.172304084 0.220730980 8.493129631
v -0.214244597 0.153015268 8.549922577
v -0.211144013 0.140318972 8.556408023
v -0.120785314 0.136956901 8.524129642
v -0.103636724 0.065040882 8.561022596
v -0.103627837 0.065035379 8.561022543
v -0.042553755 0.080374019 8.528576421
v 0.025956920 0.097580322 8.492179559
v -0.060685625 0.151398718 8.492594744
v -0.060720879 0.151420616 8.492594913
v -0.060692979 0.151427335 8.492580265
v 0.142329430 0.126807091 8.430355659
v -0.149520513 0.257463752 8.462309559
v -0.149558969 0.257454294 8.462329868
v -0.149529588 0.257501731 8.462290082
v 0.056965216 0.179759817 8.430807949
v 4.462874388 1.240717324 6.117639583
v 3.236374757 0.995727437 6.731179016
v 0.025779123 0.199105021 8.430973187
v -0.091339328 0.271755365 8.431593735
v -0.091424993 0.271808535 8.431594170
v -0.098259294 0.298579052 8.418032038
v -0.105798001 0.328109098 8.403071880
v -0.105804940 0.328136314 8.403058088
v -0.107794014 0.335927730 8.399110897
v -0.164962793 0.322224046 8.429087493
v -0.171396645 0.349205587 8.415245958
v -0.128607117 0.417455127 8.357808471
v -0.128615934 0.417489618 8.357791002
v -0.140784923 0.415088219 8.363860673
v -0.128767876 0.418084838 8.357489455
v -0.138748860 0.457181569 8.337682738
v -1.425900014 5.499407205 5.783222004
v -1.394692771 5.479340960 5.783483911
v -1.024167069 3.925467951 6.580621539
v -0.005703418 0.489718024 8.267530919
v 1.769421294 3.444821193 5.810036035
v 1.729565220 3.470448579 5.809701576
v 1.691742358 3.494768632 5.809384169
v 1.762137502 3.608669768 5.713912932
v 1.690626755 3.495485944 5.809374818
v 1.652520061 3.519988481 5.809055040
v 3.067461202 5.781575181 3.906877762
v 0.522349958 7.407618476 3.891832329
v -0.068400292 7.740977592 3.914934741
v -2.124988240 8.901505822 3.995361525
v -1.590601136 6.300921860 5.362012470
v -1.444058241 5.587773846 5.736783837
v -1.447258188 5.582765232 5.741021679
v -1.686569727 6.520176453 5.266121770
v -1.425579342 5.497846663 5.784042096
v -2.352336410 8.907907127 4.077817967
v -2.381155587 9.046060514 4.005379437
v -2.396948856 9.054972622 4.005997063
v -2.404378628 9.043343414 4.015836662
v -2.231810165 8.330128335 4.380767082
v -0.744195923 2.181908126 7.526623992
v -1.514556084 5.477429395 5.830147476
v -1.537438383 5.571126233 5.782285982
v -1.537447484 5.571132048 5.782285928
v -1.518148330 5.471806749 5.834904858
v -1.534153459 5.446755243 5.856101209
v -1.428178134 5.008765476 6.080207237
v -1.143332609 3.542777622 6.856834118
v -0.429683036 0.481635077 8.433386435
v -0.389716976 0.456843538 8.433174669
v -0.619782607 1.576453259 7.844800785
v -1.190354618 3.784781402 6.728629344
v -1.286541805 4.157061971 6.540464854
v -1.425579342 5.497846663 5.883446782
v -1.024167069 3.925467951 6.777662675
v -1.394692723 5.479340971 5.910675583
v -1.425900014 5.499407205 5.882608921
v -5.698261015 -1.070978323 5.820327295
v -3.739997947 -0.592058174 6.876375083
v -3.971653351 -0.444056110 6.668419148
v -3.173288580 -0.284584970 7.113475486
v -3.173289850 -0.183342672 7.072400603
v -4.095023268 -0.365236441 6.557670570
v -2.596929925 1.505631199 6.755187055
v -2.543490540 1.575807081 6.760837563
v -2.482593219 1.655776624 6.767276648
v -0.619103829 0.599135655 8.385789924
v -0.429683036 0.481635077 8.554404691
v -3.204177244 3.818938329 5.428950815
v -3.521184053 3.739682403 5.258696953
v -3.516035444 3.967854066 5.169414920
v -3.944967840 4.241894208 4.784364384
v -3.552105184 4.856809669 4.785734557
v -1.286541805 4.157061971 6.516179207
v -1.534153480 5.446755210 5.834850307
v -1.569185237 5.591539352 5.753743589
v -1.603225177 5.732224379 5.674933157
v -1.600783474 5.736046175 5.674941673
v -1.605781571 5.742789801 5.669014507
v -1.679373779 5.842083286 5.581742629
v -1.725889083 5.904843524 5.526580852
v -1.744667264 5.930179812 5.504312080
v -2.053332433 6.346642817 5.138270809
v -2.426660921 6.346638136 4.899903409
v -2.800001113 7.279954674 4.282879450
v -2.782291875 6.371564799 4.662721176
v -3.724347618 6.977304994 3.815471728
v -3.813128010 6.838344381 3.815162091
v -3.919970192 5.973290921 4.097896435
v -4.666622486 5.599953070 3.772624260
v -4.810210906 5.131701870 3.870913262
v -5.642991440 3.828219296 3.868008802
v -5.696416678 3.748669489 3.866170335
v -5.742201631 3.680495966 3.864594806
v -5.801036510 3.592891290 3.862570163
v -4.297220333 2.661722912 5.200528679
v -4.303503787 2.563849403 5.236224063
v -4.354408204 1.770942576 5.525404588
v -3.279212046 1.084011697 6.490602974
v -4.739406438 0.429837537 5.823671459
v -4.298459196 1.120015829 5.825209335
v -6.533208747 1.119987805 4.398338748
v -6.533202374 0.611852844 4.604493533
v -5.725376704 0.095741999 5.329674727
v -6.533274290 -0.373272308 5.004113594
v -6.514479822 -0.717190697 5.155641751
v -7.134872809 -0.320828511 4.598717970
v -7.605885517 -1.058065794 4.597075235
v -5.413615238 -0.625445802 5.821320044
v -4.251781180 -0.265085553 6.416949752
v -3.583448804 0.210147380 6.650875949
v -2.431230678 1.723225305 6.772707522
v -3.937931326 0.052972823 6.488305582
v -1.456762883 5.519251976 5.854852019
v -1.478788061 5.533414127 5.835043403
v -1.514556084 5.477429395 5.834918657
v -0.927038850 3.071709509 7.186049208
v -1.201665428 4.408174160 6.468496165
v -1.425992991 5.499466957 5.882525313
v -0.319204668 0.413103733 8.652748066
v -0.319143594 0.413065781 8.652802459
v -0.316373371 0.413743248 8.654296391
v -0.286267847 0.421105630 8.670531768
v -0.286259217 0.421119350 8.670531713
v -0.388933622 0.868318063 8.423545526
v -0.744195923 2.181908126 7.663787014
v -0.619782607 1.576453259 7.988858075
v -0.389716970 0.456843522 8.589980875
v -0.689071058 0.322599472 8.453306952
v -1.021808679 0.241228046 8.273867265
v -0.669852833 0.310682591 8.470412427
v -1.464977490 5.555030674 5.835091570
v -1.686569727 6.520176453 5.302045152
v -1.834249754 7.098656350 4.973062119
v -1.537477417 5.571285887 5.782205798
v -6.594365087 0.650929022 4.549588062
v -6.557052386 0.367369653 4.688452366
v -6.533199383 0.373330829 4.701263995
v 2.318330286 -1.326336872 6.504792496
v 5.512371179 -3.310328605 3.735666782
v 6.016303542 -2.521564906 3.722795229
v 6.159891963 -2.053313707 3.812840102
v 6.906541916 -1.493311611 3.559523644
v 6.906534894 -0.933318879 3.775040990
v 7.653269117 -0.373370623 3.521650898
v 7.653259754 0.373286353 3.809007359
v 8.236007626 0.851340919 3.627070073
v 8.974677714 2.007520187 3.608202797
v 8.814396885 2.109921828 3.748254819
v 7.285255826 1.804480159 4.590876945
v 7.460902643 1.915196142 4.523194599
v 6.538082365 1.733087893 5.032563382
v 6.369062198 1.699733656 5.125857384
v 4.926220289 1.415004961 5.922262324
v 4.997177814 1.369379341 5.860148004
v 5.023445905 1.352689912 5.837230946
v 5.023221288 1.352633536 5.837350291
v 2.400957675 -1.274254103 6.472953516
v -0.120785314 0.136956901 8.599498637
v -0.192060955 0.119793529 8.637648394
v -0.205349843 0.116593483 8.644761155
v -0.187607623 0.043944020 8.605661431
v -0.199004625 0.041081686 8.611716215
v -0.193017541 0.015004920 8.597921202
v -0.178313506 0.005887191 8.585179359
v -0.074126127 -0.058717678 8.494895346
v 0.005571067 -0.108136594 8.425833405
v 2.172978916 -8.598125913 3.797516304
v 2.421122534 -8.209727206 3.791178164
v 2.708301715 -7.459889052 3.899428794
v 4.011580639 -5.419974216 3.866140153
v 4.389017271 -5.101126041 3.751850450
v 4.944204293 -4.232137658 3.737669739
v 5.183523009 -3.825047481 3.744066296
v 5.415138076 -3.462519550 3.738150332
v 2.145665068 -1.435173455 6.571325937
v 2.231647817 -1.380975692 6.538194029
v 2.318330252 -1.326336905 6.504792505
v 5.023207561 1.352642315 5.837362289
v 5.788134842 0.860795411 5.167765628
v 2.546553049 0.945404277 7.235766412
v 0.594889041 0.468098019 8.277555196
v 1.200159294 0.588999067 7.944025398
v 3.236374757 0.995727437 6.821983588
v 4.925985734 1.414958674 5.922391791
v 3.078156362 1.050310238 6.942337518
v -0.220797445 0.032230803 8.621994005
v -0.006895583 -0.795649889 8.169072242
v -3.173287871 -0.341108736 6.989167254
v -3.863422676 -0.513203486 6.620962165
v -3.578542975 -0.695209962 6.873060371
v -0.508027000 0.066655478 8.512768996
v -0.534168268 0.191971503 8.446666721
v -0.669852833 0.310682591 8.313926635
v -1.021808679 0.241228046 8.118905073
v -0.689071066 0.322599500 8.297062847
v -1.661869552 0.925815739 7.443442874
v -2.444344228 1.411015334 6.756829950
v -1.661146276 0.962794522 7.429270911
v -0.542452309 0.231683604 8.425719206
v -0.542514617 0.231722225 8.425664538
v -0.553715148 0.238667487 8.415836196
v -0.544301436 0.240547893 8.421043423
v -0.503291823 0.248739470 8.443728097
v -0.425424746 0.264293181 8.486800687
v -0.567573155 0.352311986 8.362116501
v -0.567613666 0.352302079 8.362094810
v -0.420181316 0.261046388 8.491399930
v -0.395837973 0.245972991 8.512752438
v -0.380469457 0.270537379 8.512750132
v -0.380475660 0.270564053 8.512735659
v -0.380448712 0.270570570 8.512750116
v -0.380448694 0.270570565 8.512750129
v -0.352802032 0.277197659 8.527605974
v -0.344805507 0.238282802 8.548056329
v -0.316630463 0.245173396 8.563141962
v -0.278241778 0.254561877 8.583696237
v -0.278144177 0.254184122 8.583907382
v -0.277872129 0.254619930 8.583906954
v -0.277879532 0.254650424 8.583890210
v -0.287848463 0.291743360 8.562913716
v -0.402140841 0.363495039 8.462274931
v -0.402162203 0.363508340 8.462256164
v -0.287827099 0.291777928 8.562913547
v -0.241309716 0.263594120 8.603470599
v -0.241239152 0.263550325 8.603532534
v -0.229622708 0.256334687 8.613730770
v -0.222130617 0.268284616 8.613739582
v -0.241253230 0.263607972 8.603500828
v -0.287134121 0.292899183 8.562908052
v -0.287105436 0.292945513 8.562907857
v -0.249973039 0.299313077 8.583863042
v -0.249979106 0.299337949 8.583849366
v -0.249954485 0.299342867 8.583862985
v -0.195887477 0.310142610 8.613770431
v -0.311036795 0.381490919 8.512749486
v -0.311054580 0.381487409 8.512739631
v -0.311041351 0.381508553 8.512739629
v -0.192442796 0.315636858 8.613774498
v -0.270328118 0.382784815 8.537972711
v -0.183940886 0.329197498 8.613784479
v -0.218093429 0.350382848 8.583812864
v -0.271927082 0.389208783 8.534420492
v -0.271955848 0.389203106 8.534404553
v -0.184507069 0.404186757 8.583760000
v -0.185024803 0.406357974 8.582573743
v -0.193926228 0.443687870 8.562178359
v -0.193943638 0.443683612 8.562169037
v -0.193930397 0.443705122 8.562168898
v -0.205874186 0.493793997 8.534802611
v -0.164723168 0.558925914 8.535050472
v -0.174958349 0.599018312 8.512719042
v -0.215509737 0.534202598 8.512725160
v -0.281556046 0.428636715 8.512735168
v -0.388933622 0.868318063 8.270910860
v -0.286259217 0.421119350 8.512735880
v -0.286256686 0.421108326 8.512741841
v -0.286267817 0.421105604 8.512735881
v -0.316373361 0.413743292 8.496616446
v -0.319143588 0.413065788 8.495133200
v -0.429683016 0.481635018 8.398125955
v -0.564833582 0.565471056 8.279520394
v -0.619103829 0.599135655 8.231893897
v -2.431230678 1.723225305 6.641606443
v -2.482593233 1.655776662 6.635819600
v -2.543490530 1.575807121 6.628958511
v -2.596929878 1.505631222 6.622937700
v -3.583448804 0.210147380 6.511789990
v -4.251781180 -0.265085553 6.277292605
v -4.095023268 -0.365236441 6.416012169
v -3.173289850 -0.183342672 6.926752064
v -3.173288543 -0.284584952 6.966805417
v -3.173288576 -0.284919405 6.966937709
v -2.445443685 1.463873422 6.735223675
v -0.249625349 0.261560418 8.599018198
v -0.567622048 0.352342261 8.362073614
v -0.402144745 0.363511785 8.462265839
v -0.287855908 0.291772173 8.562897611
v -0.287143159 0.292936536 8.562887561
v -0.270356480 0.382777693 8.537957599
v -0.270363619 0.382806836 8.537941556
v -0.271934101 0.389237525 8.534404684
v -2.224047386 8.957404689 3.910664461
v -2.069376877 8.308763148 4.265053174
v -2.191883093 8.939254446 3.938178429
v -3.552105184 4.856809669 4.693335524
v -3.944967840 4.241894208 4.688243762
v -3.516035444 3.967854066 5.067818322
v -3.521184053 3.739682403 5.154830633
v -3.204177244 3.818938329 5.323880674
v 1.272562940 -8.469137729 3.844833095
v 1.976520669 -8.905625778 3.841024664
v 2.172978916 -8.598125913 4.110421982
v 0.883156247 -3.545740020 6.796485811
v 0.397593865 -2.537040405 7.244905778
v 0.393509425 -2.539614992 7.241710466
v 0.306093566 -2.158875174 7.447896555
v 0.437186928 -2.514416124 7.274410330
v 0.436668669 -2.512410267 7.275474347
v 0.436693276 -2.512394756 7.275493598
v 0.005571101 -0.108136610 8.624062401
v -0.074126103 -0.058717718 8.624495296
v -0.178313503 0.005887149 8.625061226
v -0.193017509 0.015004881 8.625141111
v -0.006895583 -0.795649889 8.186138543
v -0.220797464 0.032230790 8.625292022
v -0.224639642 0.034613261 8.625312892
v -0.224674347 0.034634732 8.625313050
v -0.299116618 0.015938755 8.584858999
v -0.135601806 -0.779802749 8.146543046
v -0.315106380 -0.009832293 8.562464265
v -0.420109619 -0.179366508 8.415212322
v -0.447485779 -0.223567064 8.376821160
v 0.077150549 -2.738569032 6.994508235
v 0.077229720 -2.738976495 6.994282038
v 0.077234869 -2.738973249 6.994286067
v 0.245224069 -2.633084114 7.125705522
v 0.364698293 -3.214502994 6.805444270
v 0.141977790 -3.072209339 6.809292668
v 1.179390911 -8.411366537 3.845337158
v -0.479768659 -0.068809607 8.461880014
v -0.487570030 -0.031410990 8.482435335
v -0.487574035 -0.031391957 8.482445783
v -0.547144842 -0.046353100 8.450073250
v -0.584617017 -0.055764063 8.429709849
v -1.725406841 -1.879158047 6.841559294
v -1.710961553 -1.888386981 6.841309694
v -1.656683572 -1.923064580 6.840371822
v -1.642799392 -1.931935029 6.840131916
v -1.613364207 -1.950740841 6.839623304
v -1.544487918 -1.994745137 6.838433188
v -0.468210921 -0.124214864 8.431427809
v -3.173288630 -0.284919419 7.288163743
v -3.173288580 -0.284584970 7.288374459
v -3.971653351 -0.444056110 6.880372292
v -3.930785249 -0.470166287 6.879666130
v -3.863422688 -0.513203478 6.878502170
v -3.173287871 -0.341108736 7.252765730
v -3.643108001 -0.711230056 6.838616243
v -3.578005716 -0.695553210 6.873570436
v -5.570618363 -0.871189824 5.995348088
v -8.728239396 -1.643390481 4.292527762
v -8.737596203 -1.728646686 4.235213480
v -8.751521637 -1.855531663 4.149913906
v -5.724443995 -1.111960379 5.784411600
v -5.647840370 -0.992059051 5.889455861
v -5.622088188 -0.951751289 5.924769057
v -3.665901098 -5.224548807 3.986522755
v -3.593127948 -5.056277890 4.120563490
v -3.593126247 -5.056275137 4.120565879
v -3.535127779 -5.015964604 4.168302413
v -3.589264450 -5.050088730 4.125950812
v -3.589327266 -5.050128369 4.125901643
v -3.755862118 -5.155100736 3.995619964
v -3.755272230 -5.155477609 3.995609772
v 4.462874631 1.240717372 6.058453356
v 5.023207561 1.352642315 5.751115198
v 4.997177859 1.369379368 5.774034370
v 4.799604180 1.496418898 5.947998150
v 2.546553049 0.945404277 7.143999011
v 3.078156362 1.050310238 6.851914423
v 4.925985734 1.414958674 5.836641440
v 5.023221276 1.352633496 5.751103122
v 0.142329476 0.126807077 8.329395842
v 2.400957675 -1.274254103 6.360855661
v 5.788134842 0.860795411 5.077596127
v -0.099763106 0.337852810 8.564376349
v 1.914271211 0.820630536 7.491400496
v -0.039553398 0.435065127 8.564911594
v -0.035695653 0.441293696 8.564945888
v -0.005703418 0.489718024 8.565212509
v -0.097353440 0.467304849 8.613864081
v -0.138748860 0.457181569 8.635838476
v -0.128767867 0.418084850 8.614175974
v -0.140784923 0.415088219 8.620532331
v -0.128615934 0.417489618 8.613846185
v -0.128581184 0.417496491 8.613827098
v -0.128607107 0.417455142 8.613827067
v -0.171396645 0.349205587 8.613776355
v -0.164962793 0.322224046 8.599111470
v -0.107794014 0.335927730 8.568654805
v -0.105804942 0.328136347 8.564337790
v -0.105777761 0.328141776 8.564322881
v 0.594889041 0.468098019 8.180012709
v -0.105797990 0.328109115 8.564322701
v -0.098259271 0.298579073 8.547960852
v -0.091424993 0.271808535 8.533127953
v -0.091339349 0.271755361 8.533053290
v 1.200159294 0.588999067 7.848026786
v 5.465638990 -3.383474640 3.607784277
v 5.512371179 -3.310328605 3.607291241
v 2.318330286 -1.326336872 6.392159717
v 2.231647817 -1.380975692 6.425000074
v 2.145665066 -1.435173409 6.457575355
v 5.415138076 -3.462519550 3.608317074
v 8.397430776 2.376316842 3.745869118
v 8.295633068 2.441354267 3.745292580
v 8.062505508 2.294406277 3.940391403
v 8.011190333 2.262060627 3.983335835
v 7.797716281 2.127500890 4.161987114
v 6.369062198 1.699733656 5.043763601
v 6.538082338 1.733087883 4.950896486
v 7.460902643 1.915196142 4.443858314
v 8.727851979 2.165214407 3.747740481
v 8.611307087 2.239673644 3.747080421
v 8.595464397 2.249795362 3.746990695
v 8.510183535 2.304280357 3.746507701
v 8.419340879 2.362318721 3.745993207
v 8.399284708 2.375132386 3.745879618
v 7.591857886 1.997741552 4.334265034
v 7.248238713 1.911442269 4.535338582
v 4.462874388 1.240717324 6.146106027
v 4.997177859 1.369379368 5.837120007
v 0.056965216 0.179759817 8.694029470
v 0.142329430 0.126807091 8.693460430
v -0.105777761 0.328141776 8.663629165
v -0.005703418 0.489718024 8.514495337
v -0.035695659 0.441293711 8.559190670
v -0.099763106 0.337852810 8.654665944
v -1.444058241 5.587773846 5.732159386
v -2.124988240 8.901505822 3.817358341
v -2.191883085 8.939254402 3.820291820
v -2.069376877 8.308763148 4.187564559
v -1.916086043 7.519835534 4.647129389
v -1.686569727 6.520176453 5.214686493
v -1.447258188 5.582765232 5.736823227
v 3.094427482 5.764346724 3.715835198
v 3.067461202 5.781575181 3.715682473
v 1.762140103 3.608673978 5.704311861
v 3.213921812 5.688003125 3.716511962
v 3.186702723 5.705393098 3.716357805
v 3.142376900 5.733712374 3.716106763
v 3.115579159 5.750833153 3.715954992
v -2.249433111 8.971729800 3.822815460
v -2.381155587 9.046060514 3.828591715
v -2.352336410 8.907907127 3.908241924
v -1.834249754 7.098656350 4.892474002
v -0.619782607 1.576453259 8.050053804
v -0.744195923 2.181908126 7.700198831
v -1.428178134 5.008765476 6.109873832
v -1.190354618 3.784781402 6.822867042
v 0.025779123 0.199105021 8.694237361
v -0.091339328 0.271755365 8.695018091
v -1.679373808 5.842083307 5.706431742
v -1.605781597 5.742789809 5.791828697
v -1.600783474 5.736046175 5.797628545
v -1.603225177 5.732224379 5.797590651
v -1.569185267 5.591539379 5.874314277
v -1.537447529 5.571132062 5.902337892
v -1.537477417 5.571285887 5.902258623
v -2.404378628 9.043343414 3.991846539
v -2.419991917 9.018905223 3.991604226
v -2.507372496 8.882135620 3.990248104
v -3.724347618 6.977304994 3.971360997
v -2.782291875 6.371564799 4.803172145
v -2.800001113 7.279954674 4.435165144
v -2.426660921 6.346638136 5.037148535
v -2.053332433 6.346642817 5.272487390
v -1.725889083 5.904843524 5.652455073
v -1.834249758 7.098656404 5.115179864
v -1.686569727 6.520176453 5.435519787
v -1.916086043 7.519835534 4.898139433
v -1.661869552 0.925815739 7.648726625
v -1.661146276 0.962794522 7.634656169
v -2.445443685 1.463873422 6.943407677
v -2.444344228 1.411015334 6.964865034
v -8.728239396 -1.643390481 4.203455667
v -5.570618340 -0.871189788 5.890628664
v -5.413615238 -0.625445802 5.893065308
v -7.605885517 -1.058065794 4.681037300
v -7.134872809 -0.320828511 4.688347283
v -6.514479822 -0.717190697 5.235136946
v -6.533274290 -0.373272308 5.088187520
v -5.725376704 0.095741999 5.413230889
v -6.533199383 0.373330829 4.794946162
v -6.557052386 0.367369653 4.782251319
v -6.594365087 0.650929022 4.647339146
v -6.533202374 0.611852844 4.701245524
v -4.293237818 1.120015895 5.913663664
v -4.298459196 1.120015829 5.910372211
v -4.739406438 0.429837537 5.903528836
v -3.937931326 0.052972823 6.556810758
v -3.279212046 1.084011697 6.567033894
v -4.354408204 1.770942576 5.619398833
v -4.297220333 2.661722912 5.305523415
v -5.801036510 3.592891290 3.991748737
v -6.281418127 2.877606416 3.969909156
v -6.533227473 2.613301757 3.914999275
v -6.682377689 2.148603927 4.003524749
v -7.877440367 0.278071039 3.984977718
v -8.122318537 -0.312130013 4.062459231
v -8.677505559 -1.181118396 4.053842887
v -8.700274792 -1.388585079 4.120988769
v -4.293244841 1.680008627 5.693676942
v -6.533215769 1.679980537 4.281643811
v -6.533208747 1.119987805 4.501630533
v -2.069376877 8.308763148 4.491592257
v -2.224047386 8.957404689 4.139284019
v -2.249433111 8.971729800 4.117653896
v -0.205349842 0.116593437 -8.325478438
v -0.208225155 0.243043550 -8.325478438
v -0.241309688 0.263594084 -8.325478438
v -0.277848279 0.254658107 8.583906928
v -0.277848279 0.254658107 -8.325478438
v -0.277872086 0.254619916 -8.325478438
v -0.316630411 0.245173413 -8.325478438
v -0.350328290 0.265158997 8.533932442
v -0.380448712 0.270570570 8.584070971
v -0.380448712 0.270570570 -8.325478438
v -0.380469426 0.270537405 -8.325478438
v -0.544301419 0.240547938 -8.325478438
v -0.528415115 0.164392128 -8.325478438
v -0.508026233 0.066655661 -8.325478438
v -3.703319753 -0.615491465 6.762641827
v -3.703319753 -0.615491465 -8.325478438
v -3.739997939 -0.592058179 6.730184250
v -3.739997939 -0.592058179 -8.325478438
v -5.724443986 -1.111960365 -8.325478438
v -8.751521637 -1.855531663 -8.325478438
v -8.761196092 -1.943682615 -8.325478438
v -8.765422672 -1.982193827 -8.325478438
v -8.773224150 -2.053278594 -8.325478438
v -8.371677042 -2.569109361 -8.325478438
v -7.152885441 -3.347781772 3.738072005
v -7.152885441 -3.347781772 -8.325478438
v -6.188166763 -3.964129817 -8.325478438
v -5.577939971 -3.990995442 -8.325478438
v -3.769513797 -5.146378830 3.903265503
v -3.769513797 -5.146378830 -8.325478438
v -3.769429527 -5.146432669 3.903263962
v -3.769429527 -5.146432669 -8.325478438
v -3.755862118 -5.155100736 -8.325478438
v -3.589264457 -5.050088753 -8.325478438
v -3.665901118 -5.224548817 -8.325478438
v -2.516070994 -6.113204249 -8.325478438
v -1.661190751 -6.503805670 -8.325478438
v -1.679975855 -6.906544257 -8.325478438
v -1.367810730 -6.815605627 -8.325478438
v -0.498822347 -7.370792649 -8.325478438
v 1.179390946 -8.411366559 -8.325478438
v 0.147482435 -3.075726196 6.809197553
v 0.147482435 -3.075726196 6.692234281
v 0.147482435 -3.075726196 -8.325478438
v 0.364698267 -3.214502978 -8.325478438
v 0.077229741 -2.738976515 -8.325478438
v 0.077150540 -2.738569083 -8.325478438
v -0.224674347 0.034634732 -8.325478438
v -0.224646578 0.034641792 -8.325478438
v -0.224639642 0.034613271 -8.325478438
v -0.199004646 0.041081667 -8.325478438
v -0.299123654 0.015972858 -8.325478438
v -0.299116636 0.015938708 -8.325478438
v -0.299149930 0.015930431 -8.325478438
v -0.468210865 -0.124214852 8.303658318
v -1.613364180 -1.950740858 6.724433882
v -1.613364180 -1.950740858 -8.325478438
v -1.642799392 -1.931935029 6.724972147
v -1.656683572 -1.923064581 6.725226039
v -1.710961553 -1.888386981 6.726218590
v -1.725406800 -1.879158074 -8.325478438
v -0.487574007 -0.031391955 -8.325478438
v -0.487555484 -0.031387294 -8.325478438
v -0.487570030 -0.031410990 -8.325478438
v -3.643112160 -0.711231088 6.838613990
v -0.342507130 0.107700924 -8.325478438
v -0.342534564 0.107717977 -8.325478438
v -0.342512312 0.107723459 -8.325478438
v -0.221222202 0.137850216 -8.325478438
v -0.221185390 0.137827409 -8.325478438
v -0.221215261 0.137820031 -8.325478438
v -0.243390663 0.234405482 -8.325478438
v -0.243367859 0.234411086 -8.325478438
v -0.243385535 0.234382863 -8.325478438
v -0.469757420 0.076150994 -8.325478438
v -0.469743287 0.076154543 -8.325478438
v -0.469754616 0.076136624 -8.325478438
v -0.494162656 0.201755464 -8.325478438
v -0.494159289 0.201737887 -8.325478438
v -0.494180518 0.201751094 -8.325478438
v 0.397593847 -2.537040409 -8.325478438
v 0.436668671 -2.512410261 -8.325478438
v 8.062499972 2.294402812 -8.325478438
v 8.062064156 2.294298313 -8.325478438
v 8.295633068 2.441354267 -8.325478438
v 8.208414005 2.497077557 -8.325478438
v 8.206812882 2.498100497 -8.325478438
v 3.213921812 5.688003125 -8.325478438
v 4.781652993 1.507961483 -8.325478438
v 4.825770314 1.479594094 5.924958838
v 4.825770314 1.479594094 -8.325478438
v 4.926220294 1.415004995 -8.325478438
v -0.098259294 0.298579052 -8.325478438
v -0.105798001 0.328109098 -8.325478438
v -0.105804940 0.328136314 -8.325478438
v -0.128607107 0.417455142 -8.325478438
v -0.128615934 0.417489618 -8.325478438
v -0.097353440 0.467304849 8.315855898
v 3.067461202 5.781575181 -8.325478438
v 0.522349958 7.407618476 -8.325478438
v -0.068400281 7.740977609 -8.325478438
v -2.124988207 8.901505824 -8.325478438
v -1.590601136 6.300921873 5.320075186
v -1.447258183 5.582765240 -8.325478438
v -1.478788036 5.533414166 -8.325478438
v -0.193930397 0.443705122 -8.325478438
v -0.193926233 0.443687865 -8.325478438
v -0.185024802 0.406358003 -8.325478438
v -0.184507063 0.404186705 -8.325478438
v -0.218093416 0.350382897 -8.325478438
v -0.192442755 0.315636877 -8.325478438
v -0.249954485 0.299342867 -8.325478438
v -0.249973046 0.299313073 -8.325478438
v -0.172304084 0.220730980 -8.325478438
v -0.214244597 0.153015268 -8.325478438
v -0.211144013 0.140318972 -8.325478438
v -0.208638134 0.130058171 -8.325478438
v -0.103636734 0.065040880 -8.325478438
v -0.103627778 0.065035395 -8.325478438
v -0.042553755 0.080374019 -8.325478438
v 0.025956920 0.097580322 -8.325478438
v -1.394692771 5.479340960 -8.325478438
v -0.149520513 0.257463752 -8.325478438
v -0.149558970 0.257454264 -8.325478438
v -0.149529602 0.257501718 -8.325478438
v -0.060720893 0.151420605 -8.325478438
v -0.060692979 0.151427335 -8.325478438
v -0.060685652 0.151398684 -8.325478438
v -2.396948856 9.054972622 -8.325478438
v -2.404378628 9.043343414 -8.325478438
v -2.381155611 9.046060499 -8.325478438
v -1.537438383 5.571126233 -8.325478438
v -1.537447484 5.571132048 -8.325478438
v -1.518148330 5.471806749 -8.325478438
v -1.534153459 5.446755243 -8.325478438
v -0.389716976 0.456843538 -8.325478438
v -1.679373779 5.842083286 -8.325478438
v -1.744667264 5.930179812 5.630664718
v -1.744667264 5.930179812 -8.325478438
v -3.724347618 6.977304994 -8.325478438
v -3.813128010 6.838344381 -8.325478438
v -3.919970192 5.973290921 -8.325478438
v -4.666622486 5.599953070 -8.325478438
v -4.810210906 5.131701870 -8.325478438
v -5.642991440 3.828219296 -8.325478438
v -5.696416691 3.748669497 -8.325478438
v -5.742201631 3.680495966 -8.325478438
v -5.801036497 3.592891283 -8.325478438
v -4.303503816 2.563849410 5.340010110
v -4.019352171 1.556878999 5.914703873
v -4.019352171 1.556878999 5.826182767
v -4.298459202 1.120015820 -8.325478438
v -6.533208747 1.119987805 -8.325478438
v -5.491711546 -0.747683502 5.891853275
v -5.491711546 -0.747683502 5.821047670
v -5.570618363 -0.871189824 5.820772470
v -5.622088163 -0.951751249 5.820592960
v -5.622088163 -0.951751249 -8.325478438
v -5.647840345 -0.992059013 5.820503145
v -5.647840345 -0.992059013 -8.325478438
v -3.805240579 -0.550375381 6.817807087
v -3.805240579 -0.550375381 6.672449169
v -3.805240579 -0.550375381 -8.325478438
v -3.863422688 -0.513203478 6.765577290
v -3.930785215 -0.470166308 6.705106276
v -3.930785215 -0.470166308 -8.325478438
v -2.543490540 1.575807081 -8.325478438
v -2.482593219 1.655776624 -8.325478438
v -0.564833582 0.565471056 8.434099092
v -1.425992991 5.499466957 -8.325478438
v -1.456762861 5.519251984 -8.325478438
v -0.319204668 0.413103733 8.495079574
v -0.319143594 0.413065781 -8.325478438
v -0.286267847 0.421105630 -8.325478438
v -0.286259210 0.421119336 -8.325478438
v -0.319204668 0.413103733 -8.325478438
v -0.689071058 0.322599472 -8.325478438
v -1.537477472 5.571285893 -8.325478438
v -1.464977490 5.555030674 -8.325478438
v 4.997177814 1.369379341 -8.325478438
v 5.023207552 1.352642312 -8.325478438
v 5.023221288 1.352633536 -8.325478438
v 0.005571067 -0.108136594 -8.325478438
v 0.594034712 -2.413217212 7.398583241
v 0.594034712 -2.413217212 7.169218846
v 0.883156270 -3.545740035 6.551824099
v 2.172978916 -8.598125913 -8.325478438
v 2.421122534 -8.209727206 -8.325478438
v 2.708301715 -7.459889052 -8.325478438
v 3.955103603 -5.508373054 3.867582702
v 3.955103603 -5.508373054 -8.325478438
v 4.011580639 -5.419974216 -8.325478438
v 4.389017271 -5.101126041 -8.325478438
v 4.944204293 -4.232137658 -8.325478438
v 5.183523009 -3.825047481 -8.325478438
v 5.415138076 -3.462519550 -8.325478438
v 2.318330252 -1.326336905 6.392159726
v 2.318330252 -1.326336905 -8.325478438
v 5.560880053 -3.234401672 3.734427758
v 5.512371179 -3.310328605 -8.325478438
v 5.560880053 -3.234401672 -8.325478438
v 6.016303542 -2.521564906 -8.325478438
v 6.159891963 -2.053313707 -8.325478438
v 6.906541916 -1.493311611 -8.325478438
v 6.906534894 -0.933318879 -8.325478438
v 7.653269117 -0.373370623 -8.325478438
v 7.653259754 0.373286353 -8.325478438
v 8.236007626 0.851340919 -8.325478438
v 8.974677714 2.007520187 -8.325478438
v 8.814396885 2.109921828 -8.325478438
v -0.220797445 0.032230803 -8.325478438
v -0.193943681 0.443683586 -8.325478438
v -0.205874186 0.493793997 -8.325478438
v -0.215509737 0.534202598 -8.325478438
v -0.286256637 0.421108317 -8.325478438
v -0.316373361 0.413743292 -8.325478438
v -0.429683016 0.481635018 -8.325478438
v -0.564833582 0.565471056 -8.325478438
v -2.596929878 1.505631222 -8.325478438
v -3.173288543 -0.284584952 -8.325478438
v -0.534168268 0.191971503 -8.325478438
v -0.542452309 0.231683604 -8.325478438
v -0.542514617 0.231722225 -8.325478438
v -0.553715148 0.238667487 -8.325478438
v -0.503291823 0.248739470 -8.325478438
v -0.420181316 0.261046388 -8.325478438
v -0.380475660 0.270564053 -8.325478438
v -0.352802032 0.277197659 -8.325478438
v -0.277879532 0.254650424 -8.325478438
v -0.241239152 0.263550325 -8.325478438
v -0.249979106 0.299337949 -8.325478438
v -0.195887477 0.310142610 -8.325478438
v -0.311036823 0.381490942 -8.325478438
v -0.311054592 0.381487462 -8.325478438
v -0.311041355 0.381508552 -8.325478438
v -0.287855894 0.291772182 -8.325478438
v -0.287827100 0.291777875 -8.325478438
v -0.287848453 0.291743339 -8.325478438
v -0.287105436 0.292945513 -8.325478438
v -0.287134104 0.292899155 -8.325478438
v -0.287143210 0.292936538 -8.325478438
v -0.270363622 0.382806820 -8.325478438
v -0.270328074 0.382784820 -8.325478438
v -0.270356480 0.382777693 -8.325478438
v -0.271934136 0.389237545 -8.325478438
v -0.271927086 0.389208832 -8.325478438
v -0.271955880 0.389203139 -8.325478438
v -0.402144730 0.363511772 -8.325478438
v -0.402140826 0.363495037 -8.325478438
v -0.402162223 0.363508352 -8.325478438
v -0.669852859 0.310682638 -8.325478438
v -0.567622062 0.352342292 -8.325478438
v -0.567573176 0.352312008 -8.325478438
v -0.567613705 0.352302065 -8.325478438
v -2.191883091 8.939254405 -8.325478438
v -2.224047326 8.957404692 -8.325478438
v -0.074126103 -0.058717718 -8.325478438
v -0.178313503 0.005887149 -8.325478438
v -0.193017509 0.015004881 -8.325478438
v -0.420109619 -0.179366508 -8.325478438
v 1.272562991 -8.469137706 -8.325478438
v 1.976520669 -8.905625778 -8.325478438
v 1.992080119 -8.881271856 3.862360873
v 1.992080119 -8.881271856 -8.325478438
v 2.019430295 -8.838462886 3.899865350
v 2.019430295 -8.838462886 -8.325478438
v 2.056256121 -8.780822462 3.950363504
v 2.056256121 -8.780822462 -8.325478438
v 0.393509425 -2.539614992 -8.325478438
v -0.547144842 -0.046353100 -8.325478438
v -0.584617017 -0.055764063 -8.325478438
v -1.710961553 -1.888386981 -8.325478438
v -1.642799392 -1.931935029 -8.325478438
v -1.544487918 -1.994745137 -8.325478438
v -0.479768659 -0.068809607 -8.325478438
v -3.863422688 -0.513203478 -8.325478438
v -3.173288630 -0.284919419 -8.325478438
v -5.570618363 -0.871189824 -8.325478438
v -8.728239407 -1.643390462 -8.325478438
v -8.737596203 -1.728646686 -8.325478438
v -5.698261039 -1.070978360 -8.325478438
v -3.589327266 -5.050128369 -8.325478438
v -3.755272230 -5.155477609 -8.325478438
v -0.097353440 0.467304849 -8.325478438
v -0.128767867 0.418084850 -8.325478438
v -0.128581170 0.417496481 -8.325478438
v -0.105777749 0.328141726 -8.325478438
v -0.099763091 0.337852785 -8.325478438
v -0.091339349 0.271755361 -8.325478438
v 2.145665066 -1.435173409 -8.325478438
v 5.465638990 -3.383474640 -8.325478438
v 8.510183535 2.304280357 -8.325478438
v 8.419340879 2.362318721 -8.325478438
v 8.399284708 2.375132386 -8.325478438
v 8.397430776 2.376316842 -8.325478438
v 6.538082338 1.733087883 -8.325478438
v 8.727851979 2.165214407 -8.325478438
v 8.611307087 2.239673644 -8.325478438
v 8.595464397 2.249795362 -8.325478438
v 4.925985764 1.414958677 -8.325478438
v 4.630811420 1.604952403 -8.325478438
v -0.035695659 0.441293711 -8.325478438
v -1.444058267 5.587773805 -8.325478438
v 1.729565183 3.470448596 -8.325478438
v 1.769421289 3.444821212 -8.325478438
v 1.808868261 3.419456881 -8.325478438
v 3.186702723 5.705393098 -8.325478438
v 3.142376900 5.733712374 -8.325478438
v 3.115579159 5.750833153 -8.325478438
v 3.094427482 5.764346724 -8.325478438
v -2.249433108 8.971729822 -8.325478438
v -1.605781597 5.742789809 -8.325478438
v -1.569185267 5.591539379 -8.325478438
v -2.419991917 9.018905223 -8.325478438
v -2.507372496 8.882135620 -8.325478438
v -1.834249758 7.098656404 -8.325478438
v -7.072925270 1.537312060 3.997463562
v -7.072925270 1.537312060 -8.325478438
v -7.877440367 0.278071039 -8.325478438
v -8.122318537 -0.312130013 -8.325478438
v -8.677505559 -1.181118396 -8.325478438
v -8.700274779 -1.388585077 -8.325478438
v -6.533215769 1.679980537 -8.325478438
v -4.293244841 1.680008627 -8.325478438
v -4.293237818 1.120015895 -8.325478438
v -6.281418127 2.877606416 -8.325478438
v -6.533227473 2.613301757 -8.325478438
v -6.682377689 2.148603927 -8.325478438
g roof
f 1 695 697 2 3
g roof
f 3 4 5
g roof
f 6 7 8
g roof
f 6 8 9
g roof
f 9 10 11
g roof
f 9 11 12
g roof
f 9 12 13
g roof
f 9 13 14
g roof
f 9 14 89 722 724 725 726 18 15
g roof
f 9 15 16
g roof
f 17 15 18 19
g roof
f 17 19 20
g roof
f 17 20 21
g roof
f 17 21 22
g roof
f 25 26 27
g roof
f 25 27 28
g roof
f 29 30 31
g roof
f 29 31 32
g roof
f 32 33 34
g roof
f 34 33 35
g roof
f 36 37 38
g roof
f 36 38 39
g roof
f 40 41 42
g roof
f 40 41 42 43
g roof
f 43 44 45
g roof
f 45 46 47
g roof
f 48 47 49
g roof
f 48 49 50
g roof
f 48 50 51
g roof
f 51 50 52
g roof
f 51 52 53
g roof
f 51 53 54
g roof
f 54 52 50
g roof
f 54 50 55
g roof
f 57 58 59
g roof
f 59 60 61
g roof
f 51 62 63
g roof
f 51 63 64
g roof
f 65 66 67
g roof
f 65 67 675 68
g roof
f 65 68 69
g roof
f 70 71 72
g roof
f 70 72 73
g roof
f 70 73 74
g roof
f 70 74 75
g roof
f 70 75 76
g roof
f 70 76 77
g roof
f 17 80 81
g roof
f 17 81 82
g roof
f 17 82 83
g roof
f 17 83 84
g roof
f 17 84 85 16
g roof
f 85 86 87
g roof
f 85 87 691 88
g roof
f 85 88 1
g roof
f 85 1 3
g roof
f 85 3 5
g roof
f 85 5 6
g roof
f 6 9 16
g roof
f 22 23 24
g roof
f 89 14 709 25 28
g roof
f 89 28 90
g roof
f 91 31 30
g roof
f 91 30 92
g roof
f 29 32 34
g roof
f 39 40 43
g roof
f 39 43 45
g roof
f 39 45 47
g roof
f 39 47 48
g roof
f 39 48 93
g roof
f 39 93 94
g roof
f 94 48 51
g roof
f 51 54 55
g roof
f 51 55 56
g roof
f 51 56 57
g roof
f 51 57 58 59
g roof
f 59 60 61 95
g roof
f 64 65 69
g roof
f 69 70 77
g roof
f 77 78 79
g roof
f 85 6 16
g roof
f 91 89 90
g roof
f 96 97 37 38
g roof
f 96 97 37
g roof
f 96 97 36
g roof
f 36 39 94
g roof
f 36 94 51
g roof
f 51 59 95
g roof
f 64 69 77 100 98
g roof
f 98 96 36
g roof
f 98 36 51
g roof
f 29 34 99
g roof
f 99 35 38
g roof
f 99 38 37 97 96 100
g roof
f 98 51 64
g roof
f 22 24 721 91
g roof
f 22 91 30 92
g roof
f 29 99 100
g roof
f 92 29 100
g roof
f 17 21 22 92 79
g roof
f 79 17 16 92
g roof
f 79 92 100
g roof
f 77 78 79 100
g roof
f 101 102 103
g roof
f 104 105 106
g roof
f 107 108 109
g roof
f 107 109 110
g roof
f 110 109 111
g roof
f 110 111 112
g roof
f 110 112 113
g roof
f 110 113 114
g roof
f 110 114 115
g roof
f 110 115 116
g roof
f 110 116 117
g roof
f 110 117 118
g roof
f 110 118 119
g roof
f 119 107 110
g roof
f 120 121 122
g roof
f 120 122 123
g roof
f 120 123 124
g roof
f 120 124 125
g roof
f 126 127 128
g roof
f 126 128 129
g roof
f 130 131 132
g roof
f 130 132 133
g roof
f 130 133 134
g roof
f 130 134 135
g roof
f 136 137 138
g roof
f 136 138 139
g roof
f 136 139 140
g roof
f 136 140 141
g roof
f 141 142 143
g roof
f 145 146 147
g roof
f 145 147 148
g roof
f 145 148 149
g roof
f 145 149 150
g roof
f 150 151 152
g roof
f 153 154 47
g roof
f 155 156 157
g roof
f 155 157 158
g roof
f 155 158 159
g roof
f 155 159 160
g roof
f 155 160 161
g roof
f 155 161 162
g roof
f 162 160 159
g roof
f 162 159 163
g roof
f 162 163 164
g roof
f 162 164 165
g roof
f 166 164 163
g roof
f 166 163 167
g roof
f 167 168 169
g roof
f 167 169 170
g roof
f 178 179 180
g roof
f 178 180 181
g roof
f 181 182 183
g roof
f 186 187 115
g roof
f 186 115 188
g roof
f 186 188 189
g roof
f 190 191 192
g roof
f 193 194 195
g roof
f 193 195 196
g roof
f 193 196 197
g roof
f 193 197 198
g roof
f 193 198 199
g roof
f 193 199 200
g roof
f 200 201 126
g roof
f 200 126 129
g roof
f 202 130 135 186
g roof
f 136 141 143
g roof
f 144 145 149 150
g roof
f 144 145 149 150 151 152
g roof
f 152 153 47
g roof
f 152 47 46
g roof
f 152 46 155
g roof
f 152 155 161 162
g roof
f 152 162 165
g roof
f 152 165 166
g roof
f 166 167 170
g roof
f 166 170 171
g roof
f 166 171 172
g roof
f 166 172 173
g roof
f 166 173 174
g roof
f 166 174 175
g roof
f 166 175 176
g roof
f 166 176 177
g roof
f 178 181 183
g roof
f 186 189 190
g roof
f 186 190 192 193
g roof
f 143 144 152
g roof
f 143 152 165 166
g roof
f 143 166 177 178
g roof
f 143 178 183
g roof
f 136 143 183
g roof
f 136 183 764 187
g roof
f 135 136 187
g roof
f 135 187 186
g roof
f 185 186 193
g roof
f 185 193 200
g roof
f 184 185 200
g roof
f 184 200 129
g roof
f 184 129 202
g roof
f 203 204 205
g roof
f 203 205 206
g roof
f 203 206 207
g roof
f 208 131 209
g roof
f 209 127 210
g roof
f 209 210 211
g roof
f 209 211 212
g roof
f 213 214 208
g roof
f 208 209 212
g roof
f 208 212 213 214
g roof
f 215 216 217
g roof
f 215 217 218
g roof
f 215 218 219
g roof
f 215 219 220
g roof
f 221 222 223
g roof
f 221 223 224
g roof
f 225 226 827 830 831 227
g roof
f 227 228 229
g roof
f 227 229 230
g roof
f 234 835 235 236
g roof
f 234 236 237
g roof
f 237 238 239
g roof
f 240 236 235
g roof
f 240 235 215
g roof
f 240 215 241
g roof
f 241 219 214
g roof
f 241 214 242
g roof
f 242 212 211
g roof
f 242 211 243
g roof
f 244 245 246
g roof
f 244 246 247
g roof
f 244 247 248
g roof
f 244 248 249
g roof
f 244 249 250
g roof
f 244 250 251
g roof
f 251 252 253
g roof
f 253 254 255
g roof
f 253 255 256
g roof
f 253 256 257
g roof
f 253 257 258
g roof
f 253 258 259
g roof
f 253 259 260
g roof
f 253 260 261
g roof
f 261 262 263
g roof
f 264 265 817 266
g roof
f 267 268 269
g roof
f 267 269 270
g roof
f 267 270 271
g roof
f 267 271 272
g roof
f 267 272 273
g roof
f 273 274 275
g roof
f 273 275 276
g roof
f 276 821 822 823 825 225 227
g roof
f 276 227 230
g roof
f 276 230 277
g roof
f 276 277 278
g roof
f 279 234 237
g roof
f 279 237 239
g roof
f 240 241 242
g roof
f 240 242 243 244
g roof
f 240 244 251
g roof
f 240 251 253
g roof
f 240 253 261
g roof
f 263 264 266
g roof
f 280 267 273
g roof
f 280 273 276
g roof
f 280 276 278
g roof
f 280 278 231 232
g roof
f 280 232 233 279
g roof
f 239 240 261
g roof
f 239 261 263
g roof
f 239 263 266
g roof
f 266 280 279
g roof
f 266 279 239
g roof
f 281 282 283
g roof
f 281 283 284
g roof
f 281 284 285
g roof
f 281 285 221
g roof
f 281 221 286
g roof
f 287 288 289
g roof
f 287 289 290
g roof
f 290 291 292
g roof
f 290 292 284
g roof
f 290 284 293
g roof
f 290 293 294
g roof
f 290 294 295
g roof
f 290 295 287
g roof
f 296 297 298
g roof
f 299 300 301
g roof
f 299 301 302
g roof
f 299 302 210
g roof
f 299 210 282
g roof
f 270 303 304
g roof
f 270 304 305
g roof
f 345 306 307 865 308
g roof
f 345 306 308 309
g roof
f 345 306 309 310
g roof
f 345 306 310 311
g roof
f 345 306 311 312
g roof
f 345 306 312 313
g roof
f 345 306 313 314
g roof
f 345 306 314 315
g roof
f 345 306 315 316
g roof
f 317 318 319
g roof
f 317 319 320
g roof
f 317 320 321
g roof
f 325 163 159 158
g roof
f 325 158 157
g roof
f 325 157 156
g roof
f 156 326 327
g roof
f 156 327 328
g roof
f 156 328 329
g roof
f 329 330 331
g roof
f 329 331 332
g roof
f 329 332 333
g roof
f 329 333 334
g roof
f 334 851 852 335 336
g roof
f 334 336 337
g roof
f 334 337 856 338
g roof
f 334 338 339
g roof
f 334 339 340
g roof
f 334 340 341
g roof
f 341 342 343
g roof
f 344 345 306
g roof
f 317 321 322 346 323
g roof
f 325 156 329
g roof
f 325 329 334
g roof
f 334 341 343
g roof
f 334 343 344
g roof
f 334 344 345 306
g roof
f 325 334 306
g roof
f 325 345 306 316
g roof
f 347 325 316
g roof
f 347 316 317
g roof
f 323 324 347
g roof
f 323 347 317
g roof
f 348 349 350
g roof
f 348 350 351
g roof
f 351 352 353
g roof
f 351 353 348
g roof
f 331 354 355
g roof
f 356 357 828 683 681 358
g roof
f 356 358 359
g roof
f 356 359 78
g roof
f 356 78 360
g roof
f 356 360 361
g roof
f 356 361 362
g roof
f 362 363 364
g roof
f 362 364 365
g roof
f 366 364 363
g roof
f 366 363 361
g roof
f 360 367 368
g roof
f 369 370 371
g roof
f 372 373 374
g roof
f 372 375 376
g roof
f 376 377 378
g roof
f 379 380 381
g roof
f 381 674 382 383
g roof
f 381 383 384
g roof
f 384 385 386
g roof
f 384 386 387
g roof
f 388 389 390
g roof
f 393 394 395
g roof
f 393 395 396
g roof
f 393 396 397 392
g roof
f 397 396 398
g roof
f 398 396 399
g roof
f 398 399 400
g roof
f 398 400 401
g roof
f 398 400 401 402
g roof
f 398 402 403
g roof
f 398 403 404
g roof
f 405 403 402
g roof
f 405 402 406
g roof
f 407 406 408 409
g roof
f 409 410 411
g roof
f 409 412 413
g roof
f 409 413 414
g roof
f 409 414 415
g roof
f 417 418 419
g roof
f 421 422 423
g roof
f 421 423 424
g roof
f 427 838 217 428
g roof
f 428 429 430
g roof
f 428 429 430 431
g roof
f 428 429 430 431 432
g roof
f 428 432 433
g roof
f 435 436 437
g roof
f 435 437 438
g roof
f 439 440 356
g roof
f 439 440 356 362
g roof
f 439 362 365
g roof
f 439 365 441
g roof
f 360 368 369
g roof
f 371 372 374
g roof
f 373 372 375 376
g roof
f 373 372 375 376 378
g roof
f 373 378 380 379
g roof
f 373 379 380 381
g roof
f 373 381 384
g roof
f 373 384 387 670 442
g roof
f 392 393 397
g roof
f 407 409 408
g roof
f 407 409 411
g roof
f 410 409 415
g roof
f 410 415 416
g roof
f 410 416 417
g roof
f 410 417 419
g roof
f 410 419 420 421 449
g roof
f 427 838 428 433
g roof
f 434 435 438
g roof
f 434 438 439
g roof
f 434 439 441
g roof
f 361 360 369
g roof
f 361 369 370 371
g roof
f 361 371 374
g roof
f 361 374 443
g roof
f 443 373 442
g roof
f 443 442 392
g roof
f 443 392 388
g roof
f 443 388 389 390
g roof
f 443 390 444
g roof
f 444 389 388
g roof
f 444 388 445
g roof
f 391 388 392
g roof
f 391 392 397
g roof
f 391 397 446
g roof
f 406 407 447
g roof
f 448 407 411
g roof
f 449 410 421
g roof
f 449 421 424
g roof
f 449 424 425
g roof
f 433 434 441
g roof
f 433 441 366
g roof
f 433 366 361
g roof
f 433 361 443
g roof
f 433 443 444
g roof
f 405 406 447
g roof
f 405 447 448
g roof
f 405 448 411
g roof
f 405 411 449
g roof
f 449 425 426 427
g roof
f 427 433 444
g roof
f 405 449 427
g roof
f 405 427 444
g roof
f 404 405 444
g roof
f 404 444 445
g roof
f 446 398 404
g roof
f 446 404 445
g roof
f 446 445 391
g roof
f 450 451 452
g roof
f 453 454 455
g roof
f 455 456 457
g roof
f 455 457 453
g roof
f 458 459 929 931 933 460
g roof
f 458 460 461
g roof
f 458 461 462
g roof
f 458 462 463
g roof
f 458 463 464
g roof
f 462 461 465
g roof
f 462 465 466
g roof
f 467 465 461
g roof
f 467 461 850 468
g roof
f 467 468 469
g roof
f 467 469 470
g roof
f 472 473 474
g roof
f 472 474 475
g roof
f 475 476 477
g roof
f 477 478 479
g roof
f 477 479 480
g roof
f 477 480 481
g roof
f 477 481 482
g roof
f 477 482 483
g roof
f 477 483 484
g roof
f 485 708 486 487
g roof
f 485 487 458
g roof
f 485 458 464
g roof
f 464 462 466
g roof
f 464 466 467
g roof
f 464 467 470
g roof
f 464 470 471 472
g roof
f 464 472 471
g roof
f 464 472 475
g roof
f 464 475 477
g roof
f 464 477 484 485
g roof
f 489 490 491
g roof
f 491 492 493
g roof
f 491 493 494
g roof
f 491 494 495
g roof
f 491 495 496
g roof
f 491 496 497
g roof
f 491 497 498
g roof
f 491 498 480
g roof
f 491 480 499
g roof
f 491 499 488
g roof
f 491 488 489
g roof
f 500 501 502
g roof
f 500 502 503
g roof
f 500 503 504
g roof
f 500 504 505
g roof
f 506 507 358
g roof
f 508 509 510
g roof
f 508 510 511
g roof
f 511 512 225
g roof
f 511 225 513
g roof
f 511 513 514
g roof
f 511 514 508
g roof
f 517 516 515
g roof
f 517 516 515 518
g roof
f 517 518 519
g roof
f 517 520 521 516
g roof
f 517 516 521 522
g roof
f 522 515 516
g roof
f 517 516 522
g roof
f 523 524 525
g roof
f 526 527 528
g roof
f 526 528 529
g roof
f 526 529 124 756
g roof
f 530 531 532
g roof
f 530 532 533
g roof
f 534 535 536
g roof
f 537 538 539
g roof
f 541 542 543
g roof
f 541 543 544
g roof
f 545 546 547
g roof
f 545 547 548
g roof
f 545 548 549
g roof
f 545 548 549 550
g roof
f 550 534 536 537 539
g roof
f 539 540 541
g roof
f 544 545 550
g roof
f 544 550 539
g roof
f 544 539 541
g roof
f 551 550 552
g roof
f 551 552 553
g roof
f 551 553 554
g roof
f 551 554 555
g roof
f 551 555 556
g roof
f 557 558 863 559
g roof
f 557 559 863 560
g roof
f 557 560 561
g roof
f 557 561 562
g roof
f 563 564 565
g roof
f 563 565 566
g roof
f 566 107 124
g roof
f 566 124 567
g roof
f 570 317 316
g roof
f 570 316 571
g roof
f 570 571 572
g roof
f 570 572 573
g roof
f 570 573 574
g roof
f 570 574 575
g roof
f 570 575 576
g roof
f 570 576 563
g roof
f 563 566 567
g roof
f 563 567 577
g roof
f 578 568 569
g roof
f 578 569 570
g roof
f 570 563 577
g roof
f 570 577 578
g roof
f 529 351 579
g roof
f 529 579 580
g roof
f 529 580 125
g roof
f 529 125 124
g roof
f 324 323 346
g roof
f 324 346 579
g roof
f 579 581 582
g roof
f 579 582 324
g roof
f 583 349 527
g roof
f 583 527 119
g roof
f 583 119 118
g roof
f 118 117 116 115 584
g roof
f 118 584 585
g roof
f 118 585 536
g roof
f 118 536 535
g roof
f 118 586 583
g roof
f 587 769 588 589
g roof
f 587 589 590
g roof
f 587 590 591
g roof
f 587 591 592
g roof
f 592 593 587
g roof
f 594 595 193
g roof
f 594 193 192
g roof
f 594 192 596
g roof
f 594 596 190
g roof
f 190 189 188
g roof
f 115 597 598
g roof
f 115 598 599
g roof
f 115 599 600
g roof
f 115 600 594
g roof
f 115 594 596 190 189 188
g roof
f 115 188 189 190
g roof
f 601 602 603
g roof
f 601 603 302
g roof
f 601 302 604
g roof
f 601 604 591
g roof
f 605 606 607
g roof
f 605 607 608
g roof
f 609 351 350
g roof
f 609 350 610
g roof
f 613 614 615
g roof
f 613 615 616
g roof
f 613 616 617
g roof
f 613 617 203
g roof
f 613 203 207
g roof
f 207 618 619
g roof
f 207 619 620
g roof
f 207 620 621
g roof
f 621 622 623
g roof
f 623 624 625
g roof
f 612 613 207
g roof
f 207 621 623
g roof
f 207 623 625
g roof
f 207 625 804 626
g roof
f 207 626 611 612
g roof
f 627 628 629
g roof
f 630 631 632
g roof
f 630 632 633
g roof
f 634 635 820 636
g roof
f 634 636 637
g roof
f 634 637 638
g roof
f 638 639 640
g roof
f 638 640 641
g roof
f 638 641 642
g roof
f 638 642 643
g roof
f 638 643 644
g roof
f 645 642 641
g roof
f 646 647 648
g roof
f 646 648 649
g roof
f 646 649 650
g roof
f 651 815 652 653
g roof
f 651 653 654
g roof
f 651 654 655
g roof
f 651 655 656
g roof
f 656 983 657 658
g roof
f 658 659 660
g roof
f 658 660 634
g roof
f 658 634 638
g roof
f 658 638 644
g roof
f 661 646 650
g roof
f 661 650 816 651
g roof
f 661 651 656
g roof
f 656 658 644
g roof
f 662 661 656
g roof
f 662 656 644
g roof
f 663 662 644
g roof
f 645 663 644
g roof
f 664 665 666
g roof
f 664 666 629
g roof_step_or_fixture_side
f 329 328 45 44
g roof_step_or_fixture_side
f 328 327 46 45
g roof_step_or_fixture_side
f 49 47 154
g roof_step_or_fixture_side
f 50 49 154 153
g roof_step_or_fixture_side
f 55 50 153 152
g roof_step_or_fixture_side
f 56 55 152 151
g roof_step_or_fixture_side
f 57 56 151 150 394
g roof_step_or_fixture_side
f 58 57 394 393
g roof_step_or_fixture_side
f 59 58 393 392
g roof_step_or_fixture_side
f 60 59 392 442
g roof_step_or_fixture_side
f 61 60 442 670
g facade_completed
f 95 61 670 671 672 386
g roof_step_or_fixture_side
f 51 95 386 385
g roof_step_or_fixture_side
f 62 51 385 384
g roof_step_or_fixture_side
f 63 62 384 383
g roof_step_or_fixture_side
f 64 63 383 382
g roof_step_or_fixture_side
f 65 64 382 674
g roof_step_or_fixture_side
f 66 65 674 381
g roof_step_or_fixture_side
f 675 67 66 381 380 379
g facade_completed
f 68 67 675 380 379 676 677 377
g roof_step_or_fixture_side
f 69 68 377 376
g roof_step_or_fixture_side
f 70 69 376 375
g roof_step_or_fixture_side
f 71 70 375 372
g roof_step_or_fixture_side
f 72 71 372 371
g roof_step_or_fixture_side
f 73 72 371 370
g roof_step_or_fixture_side
f 74 73 370 369
g roof_step_or_fixture_side
f 75 74 369 368
g roof_step_or_fixture_side
f 76 75 368 367
g roof_step_or_fixture_side
f 77 76 367 360
g roof_step_or_fixture_side
f 78 77 360
g facade_completed
f 79 78 679 680
g roof_step_or_fixture_side
f 359 358 17 79
g roof_step_or_fixture_side
f 358 681 17
g roof_step_or_fixture_side
f 80 681 683
g roof_step_or_fixture_side
f 226 225 81 80
g roof_step_or_fixture_side
f 225 512 82 81
g roof_step_or_fixture_side
f 512 511 83 82
g facade_completed
f 84 83 686 687
g facade_completed
f 85 84 687 688
g facade_completed
f 86 85 688 689
g facade_completed
f 87 86 689 690
g facade_completed
f 691 87 690 692
g facade_completed
f 88 691 692 693
g facade_completed
f 1 88 693 694
g facade_completed
f 695 1 694 696
g facade_completed
f 697 695 696 698
g facade_completed
f 2 697 698 699
g roof_step_or_fixture_side
f 521 520 3 2
g roof_step_or_fixture_side
f 520 517 516 4 3
g roof_step_or_fixture_side
f 516 517 519 5 4
g roof_step_or_fixture_side
f 519 518 6 5
g roof_step_or_fixture_side
f 518 515 7 6
g facade_completed
f 8 7 701 702
g facade_completed
f 9 8 702 703
g facade_completed
f 10 9 703 704
g facade_completed
f 11 10 704 705
g facade_completed
f 12 11 705 706
g facade_completed
f 13 12 706 707
g roof_step_or_fixture_side
f 487 486 14 13
g roof_step_or_fixture_side
f 486 708 709 14
g roof_step_or_fixture_side
f 708 485 25 709
g roof_step_or_fixture_side
f 485 484 26 25
g roof_step_or_fixture_side
f 484 483 27 26
g roof_step_or_fixture_side
f 483 482 28 27
g roof_step_or_fixture_side
f 482 481 90 28
g roof_step_or_fixture_side
f 481 480 91 90
g roof_step_or_fixture_side
f 480 479 31 91
g roof_step_or_fixture_side
f 479 478 32 31
g roof_step_or_fixture_side
f 478 477 33 32
g roof_step_or_fixture_side
f 477 476 35 33
g roof_step_or_fixture_side
f 476 475 38 35
g facade_completed
f 39 38 714 715
g facade_completed
f 40 39 715 716
g roof_step_or_fixture_side
f 474 473 354 41 40
g roof_step_or_fixture_side
f 354 331 42 41
g roof_step_or_fixture_side
f 331 330 43 42
g roof_step_or_fixture_side
f 330 329 44 43
g facade_completed
f 35 99 718 719
g facade_completed
f 34 35 719 720
g facade_completed
f 99 34 720 718
g roof_step_or_fixture_side
f 499 480 91 721
g roof_step_or_fixture_side
f 480 498 89 91
g roof_step_or_fixture_side
f 498 497 722 89
g roof_step_or_fixture_side
f 497 496 724 722
g roof_step_or_fixture_side
f 496 495 725 724
g roof_step_or_fixture_side
f 495 494 726 725
g roof_step_or_fixture_side
f 494 493 18 726
g roof_step_or_fixture_side
f 493 492 19 18
g roof_step_or_fixture_side
f 492 491 20 19
g roof_step_or_fixture_side
f 491 490 21 20
g facade_completed
f 22 21 728 729
g facade_completed
f 23 22 729 730
g roof_step_or_fixture_side
f 489 488 24 23
g roof_step_or_fixture_side
f 488 499 721 24
g roof_step_or_fixture_side
f 731 506 358 17 16
g roof_step_or_fixture_side
f 358 507 15 17
g roof_step_or_fixture_side
f 507 506 731 16 15
g facade_completed
f 97 37 732 733
g facade_completed
f 36 97 733 734
g facade_completed
f 37 36 734 732
g facade_completed
f 48 94 735 736
g facade_completed
f 93 48 736 737
g facade_completed
f 94 93 737 735
g facade_completed
f 54 53 738 739
g facade_completed
f 52 54 739 740
g facade_completed
f 53 52 740 738
g facade_completed
f 29 92 741 742
g facade_completed
f 30 29 742 743
g facade_completed
f 92 30 743 741
g facade_completed
f 96 98 744 745
g facade_completed
f 100 96 745 746
g facade_completed
f 98 100 746 744
g roof_step_or_fixture_side
f 464 463 103 102
g roof_step_or_fixture_side
f 463 462 101 103
g roof_step_or_fixture_side
f 462 464 102 101
g roof_step_or_fixture_side
f 465 467 106 105
g roof_step_or_fixture_side
f 467 466 104 106
g roof_step_or_fixture_side
f 466 465 105 104
g facade_completed
f 110 109 749 750
g facade_completed
f 109 110 750 749
g roof_step_or_fixture_side
f 111 109 565 564
g facade_completed
f 112 111 564 751 752
g facade_completed
f 113 112 752 753
g facade_completed
f 114 113 753 754 597
g roof_step_or_fixture_side
f 115 114 597
g roof_step_or_fixture_side
f 526 756 107 119
g roof_step_or_fixture_side
f 108 107 566
g roof_step_or_fixture_side
f 109 108 566 565
g roof_step_or_fixture_side
f 123 122 577 567
g roof_step_or_fixture_side
f 124 123 567
g roof_step_or_fixture_side
f 321 320 120 125
g roof_step_or_fixture_side
f 121 120 568 578
g roof_step_or_fixture_side
f 122 121 578 577
g roof_step_or_fixture_side
f 582 581 167 163
g roof_step_or_fixture_side
f 581 579 168 167
g roof_step_or_fixture_side
f 579 351 169 168
g roof_step_or_fixture_side
f 351 609 170 169
g roof_step_or_fixture_side
f 609 610 555 171 170
g roof_step_or_fixture_side
f 555 554 172 171
g roof_step_or_fixture_side
f 554 553 173 172
g roof_step_or_fixture_side
f 553 552 174 173
g facade_completed
f 175 174 760 761
g roof_step_or_fixture_side
f 549 548 176 175
g roof_step_or_fixture_side
f 548 547 177 176
g roof_step_or_fixture_side
f 547 546 178 177
g roof_step_or_fixture_side
f 546 545 179 178
g facade_completed
f 180 179 762 763
g roof_step_or_fixture_side
f 543 542 181 180
g roof_step_or_fixture_side
f 542 541 182 181
g roof_step_or_fixture_side
f 541 540 183 182
g roof_step_or_fixture_side
f 540 539 764 183
g roof_step_or_fixture_side
f 539 538 584 187 764
g roof_step_or_fixture_side
f 584 115 187
g roof_step_or_fixture_side
f 191 190 596
g roof_step_or_fixture_side
f 192 191 596
g roof_step_or_fixture_side
f 194 193 595
g facade_completed
f 195 194 595 765 766
g facade_completed
f 196 195 766 767
g facade_completed
f 197 196 767 768 588
g roof_step_or_fixture_side
f 198 197 588 769
g roof_step_or_fixture_side
f 199 198 769 587
g roof_step_or_fixture_side
f 200 199 587 593
g roof_step_or_fixture_side
f 201 200 593 592
g roof_step_or_fixture_side
f 300 299 126 201
g roof_step_or_fixture_side
f 299 282 127 126
g roof_step_or_fixture_side
f 282 281 128 127
g roof_step_or_fixture_side
f 281 286 129 128
g roof_step_or_fixture_side
f 286 221 202 129
g roof_step_or_fixture_side
f 221 285 130 202
g roof_step_or_fixture_side
f 285 284 131 130
g roof_step_or_fixture_side
f 284 292 422 132 131
g roof_step_or_fixture_side
f 422 421 133 132
g roof_step_or_fixture_side
f 421 420 134 133
g roof_step_or_fixture_side
f 420 419 135 134
g roof_step_or_fixture_side
f 419 418 136 135
g roof_step_or_fixture_side
f 418 417 137 136
g roof_step_or_fixture_side
f 417 416 138 137
g facade_completed
f 139 138 772 773
g roof_step_or_fixture_side
f 414 413 140 139
g roof_step_or_fixture_side
f 413 412 141 140
g roof_step_or_fixture_side
f 412 409 142 141
g roof_step_or_fixture_side
f 409 408 143 142
g roof_step_or_fixture_side
f 408 406 144 143
g roof_step_or_fixture_side
f 406 402 145 144
g roof_step_or_fixture_side
f 402 401 146 145
g facade_completed
f 147 146 778 779
g roof_step_or_fixture_side
f 399 396 148 147
g roof_step_or_fixture_side
f 396 395 149 148
g roof_step_or_fixture_side
f 395 394 150 149
g roof_step_or_fixture_side
f 327 326 155 46
g roof_step_or_fixture_side
f 326 156 155
g facade_completed
f 157 156 784 785
g roof_step_or_fixture_side
f 222 221 202 186
g roof_step_or_fixture_side
f 221 224 184 202
g roof_step_or_fixture_side
f 224 223 185 184
g roof_step_or_fixture_side
f 223 222 186 185
g facade_completed
f 165 164 789 790
g facade_completed
f 166 165 790 791
g facade_completed
f 164 166 791 789
g facade_completed
f 162 161 792 793
g facade_completed
f 160 162 793 794
g facade_completed
f 161 160 794 792
g facade_completed
f 206 205 795 796 618
g roof_step_or_fixture_side
f 207 206 618
g roof_step_or_fixture_side
f 204 203 603 602
g facade_completed
f 205 204 602 797 795
g roof_step_or_fixture_side
f 283 282 127 209
g roof_step_or_fixture_side
f 282 210 127
g facade_completed
f 211 210 798 799
g roof_step_or_fixture_side
f 213 212 242
g roof_step_or_fixture_side
f 214 213 242
g roof_step_or_fixture_side
f 607 606 293 208 214
g roof_step_or_fixture_side
f 293 284 131 208
g roof_step_or_fixture_side
f 284 283 209 131
g roof_step_or_fixture_side
f 217 216 428
g roof_step_or_fixture_side
f 295 294 218 217
g roof_step_or_fixture_side
f 605 608 219 218 294
g roof_step_or_fixture_side
f 220 219 241
g roof_step_or_fixture_side
f 215 220 241
g roof_step_or_fixture_side
f 215 235 216
g roof_step_or_fixture_side
f 612 611 247 246
g roof_step_or_fixture_side
f 611 626 248 247
g roof_step_or_fixture_side
f 626 804 249 248
g roof_step_or_fixture_side
f 804 625 250 249
g roof_step_or_fixture_side
f 625 624 251 250
g roof_step_or_fixture_side
f 624 623 252 251
g roof_step_or_fixture_side
f 623 622 253 252
g roof_step_or_fixture_side
f 622 621 254 253
g facade_completed
f 255 254 806 807
g facade_completed
f 256 255 807 808
g facade_completed
f 257 256 808 809
g facade_completed
f 258 257 809 810
g facade_completed
f 259 258 810 811
g facade_completed
f 260 259 811 812
g facade_completed
f 261 260 812 813
g facade_completed
f 262 261 813 814
g roof_step_or_fixture_side
f 653 652 263 262
g roof_step_or_fixture_side
f 652 815 264 263
g roof_step_or_fixture_side
f 815 651 265 264
g roof_step_or_fixture_side
f 651 816 817 265
g roof_step_or_fixture_side
f 816 650 266 817
g roof_step_or_fixture_side
f 650 649 280 266
g roof_step_or_fixture_side
f 649 648 267 280
g roof_step_or_fixture_side
f 648 647 268 267
g facade_completed
f 269 268 818 819
g roof_step_or_fixture_side
f 663 645 270 269
g roof_step_or_fixture_side
f 645 641 271 270
g roof_step_or_fixture_side
f 641 640 272 271
g roof_step_or_fixture_side
f 640 639 273 272
g roof_step_or_fixture_side
f 639 638 274 273
g roof_step_or_fixture_side
f 638 637 275 274
g roof_step_or_fixture_side
f 637 636 276 275
g roof_step_or_fixture_side
f 636 820 821 276
g roof_step_or_fixture_side
f 820 635 822 821
g roof_step_or_fixture_side
f 508 514 823 822 635
g roof_step_or_fixture_side
f 514 513 825 823
g roof_step_or_fixture_side
f 513 225 825
g roof_step_or_fixture_side
f 827 226 80 683 828
g roof_step_or_fixture_side
f 830 827 828 357
g roof_step_or_fixture_side
f 504 503 831 830
g roof_step_or_fixture_side
f 503 502 227 831
g roof_step_or_fixture_side
f 502 501 228 227
g roof_step_or_fixture_side
f 229 228 439 438
g roof_step_or_fixture_side
f 230 229 438 437
g roof_step_or_fixture_side
f 277 230 437 436
g roof_step_or_fixture_side
f 278 277 436 435
g roof_step_or_fixture_side
f 231 278 435 434
g roof_step_or_fixture_side
f 232 231 434 433
g roof_step_or_fixture_side
f 233 232 433 432
g roof_step_or_fixture_side
f 279 233 432 431
g roof_step_or_fixture_side
f 234 279 431 430
g roof_step_or_fixture_side
f 835 234 430 429
g roof_step_or_fixture_side
f 235 835 429 428 216
g roof_step_or_fixture_side
f 608 607 214 219
g roof_step_or_fixture_side
f 616 615 243 211
g roof_step_or_fixture_side
f 615 614 244 243
g roof_step_or_fixture_side
f 614 613 245 244
g roof_step_or_fixture_side
f 613 612 246 245
g roof_step_or_fixture_side
f 238 237 456 455
g roof_step_or_fixture_side
f 239 238 455 454
g roof_step_or_fixture_side
f 240 239 454 453
g roof_step_or_fixture_side
f 236 240 453 457
g roof_step_or_fixture_side
f 237 236 457 456
g roof_step_or_fixture_side
f 288 287 838 427
g roof_step_or_fixture_side
f 289 288 427 426
g roof_step_or_fixture_side
f 290 289 426 425
g facade_completed
f 291 290 425 840 841 423
g roof_step_or_fixture_side
f 292 291 423 422
g roof_step_or_fixture_side
f 606 605 294 293
g roof_step_or_fixture_side
f 287 295 217 838
g roof_step_or_fixture_side
f 298 297 362 361
g roof_step_or_fixture_side
f 296 298 361 363
g roof_step_or_fixture_side
f 297 296 363 362
g roof_step_or_fixture_side
f 628 627 301 300
g roof_step_or_fixture_side
f 302 301 604
g facade_completed
f 210 302 844 798
g roof_step_or_fixture_side
f 643 642 305 304
g roof_step_or_fixture_side
f 642 645 270 305
g roof_step_or_fixture_side
f 645 644 303 270
g roof_step_or_fixture_side
f 644 643 304 303
g roof_step_or_fixture_side
f 318 317 570
g roof_step_or_fixture_side
f 319 318 570 569
g roof_step_or_fixture_side
f 320 319 569 568 120
g roof_step_or_fixture_side
f 322 321 125 580
g roof_step_or_fixture_side
f 346 322 580 525 524
g roof_step_or_fixture_side
f 347 324 530 533
g roof_step_or_fixture_side
f 325 347 533 532
g roof_step_or_fixture_side
f 163 325 532 531
g facade_completed
f 156 157 785 784
g roof_step_or_fixture_side
f 471 470 332 331
g roof_step_or_fixture_side
f 470 469 333 332
g roof_step_or_fixture_side
f 469 468 334 333
g roof_step_or_fixture_side
f 468 850 851 334
g roof_step_or_fixture_side
f 850 461 852 851
g roof_step_or_fixture_side
f 461 460 335 852
g facade_completed
f 336 335 853 854
g facade_completed
f 337 336 854 855
g facade_completed
f 856 337 855 857
g facade_completed
f 338 856 857 858
g facade_completed
f 339 338 858 859
g facade_completed
f 340 339 859 860
g facade_completed
f 341 340 860 861
g facade_completed
f 342 341 861 862 562
g roof_step_or_fixture_side
f 343 342 562 561
g roof_step_or_fixture_side
f 344 343 561 560
g roof_step_or_fixture_side
f 345 344 560 559 863
g roof_step_or_fixture_side
f 307 345 306 863 559 558
g facade_completed
f 865 307 558 866 867
g facade_completed
f 308 865 867 868
g facade_completed
f 309 308 868 869
g facade_completed
f 310 309 869 870
g facade_completed
f 311 310 870 871
g facade_completed
f 312 311 871 872
g facade_completed
f 313 312 872 873
g facade_completed
f 314 313 873 874
g facade_completed
f 315 314 874 875
g facade_completed
f 316 315 875 876
g roof_step_or_fixture_side
f 352 351 529
g roof_step_or_fixture_side
f 353 352 529 528
g roof_step_or_fixture_side
f 348 353 528 527
g roof_step_or_fixture_side
f 349 348 527
g roof_step_or_fixture_side
f 350 349 551 556
g roof_step_or_fixture_side
f 473 472 355 354
g roof_step_or_fixture_side
f 472 471 331 355
g facade_completed
f 415 414 139 773 878
g facade_completed
f 416 415 878 772 138
g facade_completed
f 424 423 841 881
g facade_completed
f 425 424 881 840
g roof_step_or_fixture_side
f 501 500 440 439 228
g roof_step_or_fixture_side
f 500 505 356 440
g roof_step_or_fixture_side
f 505 504 830 357 356
g facade_completed
f 78 359 79 680 679
g facade_completed
f 378 377 677 893
g facade_completed
f 379 378 893 676
g facade_completed
f 387 386 672 895
g facade_completed
f 670 387 895 671
g facade_completed
f 400 399 147 779 897
g facade_completed
f 401 400 897 778 146
g facade_completed
f 404 403 899 900
g facade_completed
f 405 404 900 901
g facade_completed
f 403 405 901 899
g facade_completed
f 391 445 902 903
g facade_completed
f 388 391 903 904
g facade_completed
f 445 388 904 902
g facade_completed
f 397 398 905 906
g facade_completed
f 446 397 906 907
g facade_completed
f 398 446 907 905
g facade_completed
f 407 448 908 909
g facade_completed
f 447 407 909 910
g facade_completed
f 448 447 910 908
g facade_completed
f 410 449 911 912
g facade_completed
f 411 410 912 913
g facade_completed
f 449 411 913 911
g facade_completed
f 389 444 914 915
g facade_completed
f 390 389 915 916
g facade_completed
f 444 390 916 914
g roof_step_or_fixture_side
f 633 632 441 365
g roof_step_or_fixture_side
f 632 631 366 441
g roof_step_or_fixture_side
f 631 630 364 366
g roof_step_or_fixture_side
f 630 633 365 364
g facade_completed
f 373 443 918 919
g facade_completed
f 374 373 919 920
g facade_completed
f 443 374 920 918
g facade_completed
f 450 452 589 921 922
g roof_step_or_fixture_side
f 665 664 451 450
g roof_step_or_fixture_side
f 452 451 590 589
g facade_completed
f 475 474 40 716 714 38
g facade_completed
f 458 487 13 707 927
g facade_completed
f 459 458 927 928
g facade_completed
f 929 459 928 930
g facade_completed
f 931 929 930 932
g facade_completed
f 933 931 932 934
g facade_completed
f 460 933 934 853 335
g facade_completed
f 490 489 23 730 728 21
g roof_step_or_fixture_side
f 509 508 635 634
g facade_completed
f 510 509 634 945 946
g facade_completed
f 511 510 946 686 83
g facade_completed
f 522 521 2 699 949
g facade_completed
f 515 522 949 701 7
g roof_step_or_fixture_side
f 580 579 168 523 525
g roof_step_or_fixture_side
f 579 346 524 523 168
g roof_step_or_fixture_side
f 756 124 107
g roof_step_or_fixture_side
f 527 526 119
g roof_step_or_fixture_side
f 324 582 163 531 530
g roof_step_or_fixture_side
f 537 536 585
g roof_step_or_fixture_side
f 538 537 585 584
g facade_completed
f 544 543 180 763 952
g facade_completed
f 545 544 952 762 179
g facade_completed
f 550 549 175 761 953
g roof_step_or_fixture_side
f 583 586 534 550
g roof_step_or_fixture_side
f 586 535 534
g roof_step_or_fixture_side
f 610 350 556 555
g roof_step_or_fixture_side
f 349 583 550 551
g facade_completed
f 552 550 953 760 174
g facade_completed
f 557 562 862 957
g facade_completed
f 558 557 957 866
g facade_completed
f 575 574 958 959
g facade_completed
f 576 575 959 960
g facade_completed
f 563 576 960 961
g facade_completed
f 564 563 961 751
g facade_completed
f 571 316 876 963
g facade_completed
f 572 571 963 964
g facade_completed
f 573 572 964 965
g facade_completed
f 574 573 965 958
g facade_completed
f 589 588 768 921
g roof_step_or_fixture_side
f 664 629 591 590 451
g roof_step_or_fixture_side
f 629 628 300 201 592 591
g facade_completed
f 598 597 754 973
g facade_completed
f 599 598 973 974
g facade_completed
f 600 599 974 975
g facade_completed
f 594 600 975 976
g facade_completed
f 595 594 976 765
g roof_step_or_fixture_side
f 203 617 302 603
g roof_step_or_fixture_side
f 627 629 591 604 301
g roof_step_or_fixture_side
f 629 666 601 591
g facade_completed
f 602 601 977 797
g facade_completed
f 617 616 211 799 844 302
g facade_completed
f 619 618 796 980
g facade_completed
f 620 619 980 981
g facade_completed
f 621 620 981 806 254
g facade_completed
f 657 983 984 985
g facade_completed
f 658 657 985 986
g facade_completed
f 659 658 986 987
g facade_completed
f 660 659 987 988
g facade_completed
f 634 660 988 945
g facade_completed
f 662 663 269 819 989
g facade_completed
f 661 662 989 990
g facade_completed
f 646 661 990 991
g facade_completed
f 647 646 991 818 268
g facade_completed
f 654 653 262 814 992
g facade_completed
f 655 654 992 993
g facade_completed
f 656 655 993 994
g facade_completed
f 983 656 994 984
g facade_completed
f 666 665 450 922 977 601
g ground_assumed
f 858 860 859
g ground_assumed
f 858 991 860
g ground_assumed
f 858 818 991
g ground_assumed
f 858 819 818
g ground_assumed
f 990 860 991
g ground_assumed
f 990 861 860
g ground_assumed
f 990 868 867 866 957 862 861
g ground_assumed
f 990 869 868
g ground_assumed
f 990 870 869
g ground_assumed
f 990 871 870
g ground_assumed
f 990 872 871
g ground_assumed
f 990 873 872
g ground_assumed
f 990 874 873
g ground_assumed
f 990 875 874
g ground_assumed
f 990 766 765 976 975 974 973 754 753 752 751 961 960 959 958 965 964 963 876 875
g ground_assumed
f 990 767 766
g ground_assumed
f 990 768 767
g ground_assumed
f 990 921 768
g ground_assumed
f 990 922 921
g ground_assumed
f 990 977 922
g ground_assumed
f 990 797 977
g ground_assumed
f 990 795 797
g ground_assumed
f 990 807 806 981 980 796 795
g ground_assumed
f 990 808 807
g ground_assumed
f 990 809 808
g ground_assumed
f 990 810 809
g ground_assumed
f 990 811 810
g ground_assumed
f 990 812 811
g ground_assumed
f 990 813 812
g ground_assumed
f 990 814 813
g ground_assumed
f 990 992 814
g ground_assumed
f 990 993 992
g ground_assumed
f 990 994 993
g ground_assumed
f 994 986 985 984
g ground_assumed
f 986 988 987
g ground_assumed
f 986 945 988
g ground_assumed
f 986 946 945
g ground_assumed
f 986 686 946
g ground_assumed
f 986 687 686
g ground_assumed
f 986 688 687
g ground_assumed
f 986 689 688
g ground_assumed
f 986 690 689
g ground_assumed
f 986 693 692 690
g ground_assumed
f 986 694 693
g ground_assumed
f 986 949 699 698 696 694
g ground_assumed
f 986 701 949
g ground_assumed
f 986 702 701
g ground_assumed
f 986 703 702
g ground_assumed
f 703 705 704
g ground_assumed
f 703 706 705
g ground_assumed
f 703 707 706
g ground_assumed
f 703 927 707
g ground_assumed
f 703 928 927
g ground_assumed
f 703 854 853 934 932 930 928
g ground_assumed
f 703 855 854
g ground_assumed
f 703 858 857 855
g ground_assumed
f 703 819 858
g ground_assumed
f 989 994 990
g ground_assumed
f 989 986 994
g ground_assumed
f 986 819 703
g ground_assumed
f 986 989 819
