# pointcloud_to_mesh 0.5.1; candidate requires geometry validation; coordinates preserved
v 10.843365008 -2.576953139 0.931730078
v 9.923321185 -2.098530351 0.930663273
v 9.446144050 -3.016178689 0.925118318
v 8.053213672 -2.291854892 0.923503193
v 8.135579331 -1.532400859 0.927033933
v 6.286175909 -0.570711080 0.924889521
v 5.708594222 0.225338872 0.926342335
v 5.784852281 0.822620320 0.929158001
v 1.612892716 2.992039294 0.924320548
v 1.248885407 2.292025238 0.920090663
v 0.066402854 2.906916165 0.918719556
v -1.173489723 2.683326885 0.913563835
v -1.831006095 3.025235398 0.912801434
v -1.743647179 3.944285538 0.917032443
v -2.462647675 4.318165796 0.916198751
v -2.354403677 5.127169112 0.920029277
v -5.457355717 6.740704174 0.916431355
v -5.408097440 6.234373094 0.914430129
v -5.997209101 6.038014911 0.911594590
v -6.309463575 5.933936643 0.910091633
v -6.582878951 6.737055938 0.912604643
v -7.538411446 7.233932835 0.911496688
v -9.013604566 6.985497936 0.905437840
v -9.541076247 7.554299725 0.906087295
v -10.288836763 6.116298733 0.897398072
v -10.882487720 5.367420324 0.892181371
v -11.350977229 5.298597143 0.890300349
v -11.783864502 4.466121618 0.885270056
v -12.309089750 3.976065644 0.881393280
v -12.952261600 2.739196701 0.873919412
v -12.380248086 2.680022889 0.875602913
v -11.962908401 3.482599208 0.880452538
v -11.144362180 3.056955173 0.881401655
v -10.936937990 3.455847847 0.883811992
v -9.590231607 2.755560528 0.885373520
v -11.580017569 2.219156347 0.876339196
v -11.561701866 2.254378854 0.876552031
v -5.506702716 -1.028798858 0.882996658
v -11.093364958 1.772570447 0.876074832
v -10.608117699 1.550223270 0.876765859
v -1.848292627 -3.071047724 0.886639720
v -1.787156291 -3.051667361 0.886929715
v -1.201745804 -1.925877962 0.893732377
v 1.201845172 -4.684057553 0.890061059
v 1.380839387 -4.641992830 0.890847258
v 1.802700330 -3.830721787 0.895749421
v 1.802710976 -4.861366057 0.891336425
v -1.201770646 -3.356067896 0.887608479
v -2.368379116 -2.800602750 0.886036672
v -2.912310443 -2.451596503 0.885689269
v -1.209145192 -3.544519843 0.886776591
v -0.312754569 -4.154914355 0.887198226
v 4.218616522 -6.511227322 0.892452422
v 4.506820027 -6.534855680 0.893327125
v 4.569461082 -6.536207799 0.893533442
v 3.905893892 -5.783698899 0.894508669
v 3.997280772 -5.887350663 0.894374293
v 3.834238715 -6.200893081 0.892479691
v 4.386985428 -5.137918631 0.898902789
v 4.128266628 -5.635454786 0.895896392
v 4.807288418 -5.182786959 0.900133843
v 4.994175314 -5.874862200 0.897803312
v 4.649406414 -6.537879315 0.893796985
v 5.133677735 -6.548383962 0.895391778
v 5.382116184 -6.070617715 0.898278715
v 6.309477771 -5.783698899 0.902647352
v 6.683727111 -6.092485834 0.902592414
v 9.654217683 -7.637140932 0.906036745
v 10.101868243 -6.776274470 0.911238591
v 11.116727151 -6.835231800 0.914422521
v 11.225496382 -6.441169135 0.916478126
v 11.909267273 -5.126225114 0.924423768
v 12.044074543 -4.294966851 0.928439531
v 12.292512991 -3.817200603 0.931326468
v 12.919473616 -3.680537276 0.934034563
v 12.914579728 -3.239317263 0.935907216
v 11.722603956 -2.619489861 0.934525101
v -10.233311187 1.518869028 0.877900723
v -4.919539088 0.100361965 0.889819693
v -4.164084628 -1.800673927 0.884237817
v -0.816743396 -3.535317630 0.888144690
v 2.545300792 -4.180242621 0.896767327
v -4.013690734 -0.370679180 0.890870038
v -4.600854362 -1.499840002 0.884047004
v -3.574798778 -0.667431906 0.891085512
v -1.231925371 -1.885726078 0.893802111
v -0.616360158 -2.230278497 0.894411141
v -0.600901293 -3.530335020 0.888896879
v 1.992554079 -5.243217070 0.890344228
v -0.486791017 -3.777563305 0.888224677
v -0.288356107 -2.519188227 0.894284724
v 1.155056907 -3.269762995 0.895958384
v 0.677943651 -4.411628762 0.889453587
v 0.597742801 -4.341520891 0.889482211
v 1.201855819 -3.404105363 0.895541618
v 1.725757340 -3.676534154 0.896149091
v 2.224571919 -4.050095013 0.896238587
v 4.649406414 -6.537879315 1.589157824
v 4.569461082 -6.536207799 1.592611733
v 4.620295056 -6.593862695 1.594944043
v -11.144362180 3.056955173 1.583980806
v -11.962908401 3.482599208 1.583980806
v -12.380248086 2.680022889 1.583980806
v -11.561701866 2.254378854 1.583980806
v -9.590231607 2.755560528 1.596006973
v -10.936937990 3.455847847 1.596006973
v -11.144362180 3.056955173 1.596006973
v -11.561701866 2.254378854 1.596006973
v -11.580017569 2.219156347 1.596006973
v -10.233311187 1.518869028 1.596006973
v -4.013690734 -0.370679180 1.608025805
v -4.919539088 0.100361965 1.608025805
v -5.506702716 -1.028798858 1.608025805
v -4.600854362 -1.499840002 1.608025805
v -3.574798778 -0.667431906 1.588785405
v -4.164084628 -1.800673927 1.588785405
v -2.912310443 -2.451596503 1.588785405
v -2.368379116 -2.800602750 1.588785405
v -1.848292627 -3.071047724 1.588785405
v -1.231925371 -1.885726078 1.588785405
v -0.616360158 -2.230278497 1.581574839
v -1.201745804 -1.925877962 1.581574839
v -1.787156291 -3.051667361 1.581574839
v -1.201770646 -3.356067896 1.581574839
v 0.597742801 -4.341520891 1.586379438
v 1.155056907 -3.269762995 1.586379438
v -0.288356107 -2.519188227 1.586379438
v -0.816743396 -3.535317630 1.586379438
v -0.600901293 -3.530335020 1.586379438
v -0.486791017 -3.777563305 1.586379438
v 1.725757340 -3.676534154 1.574386280
v 1.201855819 -3.404105363 1.574386280
v 0.677943651 -4.411628762 1.574386280
v 1.201845172 -4.684057553 1.574386280
v 2.224571919 -4.050095013 1.538333452
v 1.802700330 -3.830721787 1.538333452
v 1.380839387 -4.641992830 1.538333452
v 1.802710976 -4.861366057 1.538333452
v 3.905893892 -5.783698899 1.602012722
v 4.128266611 -5.635454819 1.602012722
v 4.386985428 -5.137918631 1.602012722
v 2.545300792 -4.180242621 1.602012722
v 1.992554079 -5.243217070 1.602012722
v 3.834238715 -6.200893081 1.602012722
v 3.997280772 -5.887350663 1.602012722
v -1.209145192 -3.544519843 -1.644855878
v -0.600901293 -3.530335020 -1.644855878
v -0.312754569 -4.154914355 -1.644855878
v 4.218616522 -6.511227322 -1.644855878
v 4.506820027 -6.534855680 -1.644855878
v 4.569461082 -6.536207799 -1.644855878
v 3.905893892 -5.783698899 -1.644855878
v 4.128266611 -5.635454819 -1.644855878
v 4.807288418 -5.182786959 -1.644855878
v 4.994175314 -5.874862200 -1.644855878
v 4.649406414 -6.537879315 -1.644855878
v 5.133677735 -6.548383962 -1.644855878
v 5.382116184 -6.070617715 -1.644855878
v 6.309477771 -5.783698899 -1.644855878
v 6.683727111 -6.092485834 -1.644855878
v 9.654217683 -7.637140932 -1.644855878
v 10.101868243 -6.776274470 -1.644855878
v 11.116727151 -6.835231800 -1.644855878
v 11.225496382 -6.441169135 -1.644855878
v 11.909267273 -5.126225114 -1.644855878
v 12.044074543 -4.294966851 -1.644855878
v 12.175052585 -4.043086001 0.929961539
v 12.175052585 -4.043086001 -1.644855878
v 12.292512991 -3.817200603 -1.644855878
v 12.919473616 -3.680537276 -1.644855878
v 12.914579728 -3.239317263 -1.644855878
v 11.722603956 -2.619489861 -1.644855878
v 10.843365008 -2.576953139 -1.644855878
v 9.923321185 -2.098530351 -1.644855878
v 9.642680316 -2.638224331 0.927402134
v 9.642680316 -2.638224331 -1.644855878
v 9.446144050 -3.016178689 -1.644855878
v 8.053213672 -2.291854892 -1.644855878
v 8.135579331 -1.532400859 -1.644855878
v 6.286175909 -0.570711080 -1.644855878
v 5.708594222 0.225338872 -1.644855878
v 5.784852281 0.822620320 -1.644855878
v 1.612892716 2.992039294 -1.644855878
v 1.248885407 2.292025238 -1.644855878
v 0.066402854 2.906916165 -1.644855878
v -1.173489723 2.683326885 -1.644855878
v -1.831006095 3.025235398 -1.644855878
v -1.743647179 3.944285538 -1.644855878
v -2.462647675 4.318165796 -1.644855878
v -2.354403677 5.127169112 -1.644855878
v -5.457355717 6.740704174 -1.644855878
v -5.408097440 6.234373094 -1.644855878
v -5.997209141 6.038014882 -1.644855878
v -6.309463575 5.933936643 -1.644855878
v -6.582878951 6.737055938 -1.644855878
v -7.538411446 7.233932835 -1.644855878
v -9.013604566 6.985497936 -1.644855878
v -9.541076247 7.554299725 -1.644855878
v -10.288836763 6.116298733 -1.644855878
v -10.882487720 5.367420324 -1.644855878
v -11.350977229 5.298597143 -1.644855878
v -11.783864502 4.466121618 -1.644855878
v -12.309089750 3.976065644 -1.644855878
v -12.952261600 2.739196701 -1.644855878
v -11.093364958 1.772570447 -1.644855878
v -10.608117699 1.550223270 -1.644855878
v -4.164084628 -1.800673927 -1.644855878
v -2.912310443 -2.451596503 -1.644855878
v 4.620295056 -6.593862695 -1.644855878
g roof
f 1 2 175 3
g roof
f 4 5 6
g roof
f 7 8 9
g roof
f 7 9 10
g roof
f 10 11 12
g roof
f 13 14 15
g roof
f 15 16 17
g roof
f 15 17 18
g roof
f 15 18 19
g roof
f 15 19 20
g roof
f 20 21 22
g roof
f 20 22 23
g roof
f 23 24 25
g roof
f 23 25 26
g roof
f 26 27 28
g roof
f 28 29 30
g roof
f 28 30 31
g roof
f 28 31 32
g roof
f 28 32 33
g roof
f 28 33 34
g roof
f 28 34 35
g roof
f 36 37 31
g roof
f 36 31 30
g roof
f 36 30 38
g roof
f 30 39 40
g roof
f 41 42 43
g roof
f 44 45 46
g roof
f 47 45 44
g roof
f 48 42 41
g roof
f 49 50 51
g roof
f 52 53 54
g roof
f 55 56 57
g roof
f 55 57 58
g roof
f 59 60 61
g roof
f 62 63 64
g roof
f 62 64 65
g roof
f 62 65 66
g roof
f 66 67 68
g roof
f 66 68 69
g roof
f 66 69 70
g roof
f 66 70 71
g roof
f 66 71 72
g roof
f 66 72 73
g roof
f 66 73 167 74
g roof
f 74 75 76
g roof
f 74 76 77
g roof
f 74 77 1
g roof
f 74 1 3
g roof
f 6 7 10
g roof
f 6 10 12
g roof
f 13 15 20
g roof
f 13 20 23
g roof
f 13 23 26
g roof
f 13 26 28
g roof
f 13 28 35
g roof
f 13 35 78
g roof
f 78 36 38
g roof
f 78 38 79
g roof
f 38 30 40
g roof
f 38 40 80
g roof
f 81 48 41
g roof
f 41 49 51
g roof
f 54 55 58
g roof
f 82 59 61
g roof
f 61 62 66
g roof
f 61 66 74
g roof
f 61 74 3
g roof
f 61 3 4
g roof
f 61 4 6
g roof
f 61 6 12
g roof
f 61 12 13
g roof
f 13 78 79
g roof
f 13 79 83
g roof
f 13 83 84
g roof
f 84 38 80
g roof
f 84 80 85
g roof
f 86 41 43
g roof
f 86 43 87
g roof
f 81 41 51
g roof
f 81 51 88
g roof
f 52 54 58
g roof
f 52 58 89
g roof
f 82 61 13
g roof
f 13 84 85
g roof
f 13 85 86
g roof
f 13 86 87
g roof
f 90 88 52
g roof
f 90 52 89
g roof
f 87 48 81
g roof
f 87 81 91
g roof
f 87 91 92
g roof
f 93 90 89
g roof
f 13 87 92
g roof
f 94 90 93
g roof
f 94 93 95
g roof
f 44 93 89
g roof
f 82 13 92
g roof
f 92 94 95
g roof
f 92 95 96
g roof
f 96 44 46
g roof
f 96 46 97
g roof
f 47 44 89
g roof
f 47 89 82
g roof
f 82 92 96
g roof
f 82 96 97
g roof
f 82 97 47
g roof
f 98 99 100
g roof_fixture
f 101 102 103
g roof_fixture
f 101 103 104
g roof_fixture
f 105 106 107
g roof_fixture
f 105 107 108
g roof_fixture
f 105 108 109
g roof_fixture
f 105 109 110
g roof_fixture
f 111 112 113
g roof_fixture
f 111 113 114
g roof_fixture
f 115 116 117
g roof_fixture
f 115 117 118
g roof_fixture
f 115 118 119
g roof_fixture
f 115 119 120
g roof_fixture
f 121 122 123
g roof_fixture
f 121 123 124
g roof_fixture
f 125 126 127
g roof_fixture
f 127 128 129
g roof_fixture
f 127 129 130
g roof_fixture
f 127 130 125
g roof_fixture
f 131 132 133
g roof_fixture
f 131 133 134
g roof_fixture
f 135 136 137
g roof_fixture
f 135 137 138
g roof_fixture
f 139 140 141
g roof_fixture
f 139 141 142
g roof_fixture
f 139 142 143
g roof_fixture
f 139 143 144
g roof_fixture
f 139 144 145
g facade_completed
f 88 51 146 147
g facade_completed
f 52 88 147 148
g facade_completed
f 53 52 148 149
g facade_completed
f 54 53 149 150
g facade_completed
f 55 54 150 151
g facade_completed
f 56 55 151 152
g roof_step_or_fixture_side
f 139 145 57 56
g roof_step_or_fixture_side
f 145 144 58 57
g roof_step_or_fixture_side
f 144 143 89 58
g roof_step_or_fixture_side
f 143 142 82 89
g roof_step_or_fixture_side
f 142 141 59 82
g roof_step_or_fixture_side
f 141 140 60 59
g facade_completed
f 61 60 153 154
g facade_completed
f 62 61 154 155
g facade_completed
f 63 62 155 156
g facade_completed
f 64 63 156 157
g facade_completed
f 65 64 157 158
g facade_completed
f 66 65 158 159
g facade_completed
f 67 66 159 160
g facade_completed
f 68 67 160 161
g facade_completed
f 69 68 161 162
g facade_completed
f 70 69 162 163
g facade_completed
f 71 70 163 164
g facade_completed
f 72 71 164 165
g facade_completed
f 73 72 165 166
g facade_completed
f 167 73 166 168
g facade_completed
f 74 167 168 169
g facade_completed
f 75 74 169 170
g facade_completed
f 76 75 170 171
g facade_completed
f 77 76 171 172
g facade_completed
f 1 77 172 173
g facade_completed
f 2 1 173 174
g facade_completed
f 175 2 174 176
g facade_completed
f 3 175 176 177
g facade_completed
f 4 3 177 178
g facade_completed
f 5 4 178 179
g facade_completed
f 6 5 179 180
g facade_completed
f 7 6 180 181
g facade_completed
f 8 7 181 182
g facade_completed
f 9 8 182 183
g facade_completed
f 10 9 183 184
g facade_completed
f 11 10 184 185
g facade_completed
f 12 11 185 186
g facade_completed
f 13 12 186 187
g facade_completed
f 14 13 187 188
g facade_completed
f 15 14 188 189
g facade_completed
f 16 15 189 190
g facade_completed
f 17 16 190 191
g facade_completed
f 18 17 191 192
g facade_completed
f 19 18 192 193
g facade_completed
f 20 19 193 194
g facade_completed
f 21 20 194 195
g facade_completed
f 22 21 195 196
g facade_completed
f 23 22 196 197
g facade_completed
f 24 23 197 198
g facade_completed
f 25 24 198 199
g facade_completed
f 26 25 199 200
g facade_completed
f 27 26 200 201
g facade_completed
f 28 27 201 202
g facade_completed
f 29 28 202 203
g facade_completed
f 30 29 203 204
g facade_completed
f 39 30 204 205
g facade_completed
f 40 39 205 206
g facade_completed
f 80 40 206 207
g roof_step_or_fixture_side
f 116 115 85 80
g roof_step_or_fixture_side
f 115 120 86 85
g roof_step_or_fixture_side
f 120 119 41 86
g roof_step_or_fixture_side
f 119 118 49 41
g roof_step_or_fixture_side
f 118 117 50 49
g facade_completed
f 51 50 208 146
g roof_step_or_fixture_side
f 130 129 88 90
g roof_step_or_fixture_side
f 129 128 81 88
g roof_step_or_fixture_side
f 128 127 91 81
g roof_step_or_fixture_side
f 127 126 92 91
g roof_step_or_fixture_side
f 126 125 94 92
g roof_step_or_fixture_side
f 125 130 90 94
g roof_step_or_fixture_side
f 102 101 33 32
g roof_step_or_fixture_side
f 107 106 34 33 101
g roof_step_or_fixture_side
f 106 105 35 34
g roof_step_or_fixture_side
f 105 110 78 35
g roof_step_or_fixture_side
f 110 109 36 78
g roof_step_or_fixture_side
f 109 108 104 37 36
g roof_step_or_fixture_side
f 104 103 31 37
g roof_step_or_fixture_side
f 103 102 32 31
g roof_step_or_fixture_side
f 114 113 38 84
g roof_step_or_fixture_side
f 113 112 79 38
g roof_step_or_fixture_side
f 112 111 83 79
g roof_step_or_fixture_side
f 111 114 84 83
g roof_step_or_fixture_side
f 124 123 42 48
g roof_step_or_fixture_side
f 123 122 43 42
g roof_step_or_fixture_side
f 122 121 87 43
g roof_step_or_fixture_side
f 121 124 48 87
g roof_step_or_fixture_side
f 134 133 93 44
g roof_step_or_fixture_side
f 133 132 95 93
g roof_step_or_fixture_side
f 132 131 96 95
g roof_step_or_fixture_side
f 131 134 44 96
g roof_step_or_fixture_side
f 138 137 45 47
g roof_step_or_fixture_side
f 137 136 46 45
g roof_step_or_fixture_side
f 136 135 97 46
g roof_step_or_fixture_side
f 135 138 47 97
g facade_completed
f 98 100 209 156 63
g facade_completed
f 99 98 63 156 151 55
g facade_completed
f 100 99 55 151 209
g roof_step_or_fixture_side
f 108 107 101 104
g facade_completed
f 117 116 80 207 208 50
g facade_completed
f 140 139 56 152 153 60
g ground_assumed
f 156 209 151
g ground_assumed
f 208 147 146
g ground_assumed
f 147 149 148
g ground_assumed
f 147 150 149
g ground_assumed
f 147 151 150
g ground_assumed
f 147 152 151
g ground_assumed
f 147 153 152
g ground_assumed
f 147 154 153
g ground_assumed
f 155 157 156
g ground_assumed
f 155 158 157
g ground_assumed
f 155 159 158
g ground_assumed
f 159 161 160
g ground_assumed
f 159 162 161
g ground_assumed
f 159 163 162
g ground_assumed
f 159 164 163
g ground_assumed
f 159 165 164
g ground_assumed
f 159 166 165
g ground_assumed
f 159 168 166
g ground_assumed
f 159 169 168
g ground_assumed
f 169 171 170
g ground_assumed
f 169 172 171
g ground_assumed
f 169 173 172
g ground_assumed
f 169 174 173
g ground_assumed
f 169 176 174
g ground_assumed
f 169 177 176
g ground_assumed
f 178 180 179
g ground_assumed
f 181 183 182
g ground_assumed
f 181 184 183
g ground_assumed
f 184 186 185
g ground_assumed
f 187 189 188
g ground_assumed
f 189 191 190
g ground_assumed
f 189 192 191
g ground_assumed
f 189 193 192
g ground_assumed
f 189 194 193
g ground_assumed
f 194 196 195
g ground_assumed
f 194 197 196
g ground_assumed
f 197 199 198
g ground_assumed
f 197 200 199
g ground_assumed
f 200 202 201
g ground_assumed
f 202 204 203
g ground_assumed
f 202 205 204
g ground_assumed
f 202 206 205
g ground_assumed
f 202 207 206
g ground_assumed
f 202 208 207
g ground_assumed
f 202 147 208
g ground_assumed
f 202 154 147
g ground_assumed
f 154 159 155
g ground_assumed
f 154 169 159
g ground_assumed
f 154 177 169
g ground_assumed
f 154 178 177
g ground_assumed
f 154 180 178
g ground_assumed
f 154 181 180
g ground_assumed
f 154 184 181
g ground_assumed
f 154 186 184
g ground_assumed
f 154 187 186
g ground_assumed
f 187 194 189
g ground_assumed
f 187 197 194
g ground_assumed
f 187 200 197
g ground_assumed
f 187 202 200
g ground_assumed
f 187 154 202
