# Source coordinates; no display transform
v 0.166939286262 -0.377755059685 0.267549726434
v 0.177245983958 -0.369171708724 0.267547927898
v 0.500667640176 -0.0584602545525 0.26750475111
v 0.501915293026 -0.0545962863282 0.267505439224
v 0.501919465928 -0.0541790110776 0.267505570885
v 0.50192363883 -0.0524264550251 0.267506131313
v 0.463033590442 0.0866138119984 0.267567888169
v 0.422912580811 0.153457124802 0.267607037627
v 0.380863759721 0.222207385551 0.267647650259
v 0.332739411578 0.300033382255 0.267693855244
v 0.24776131847 0.437258502187 0.267775380594
v 0.224990611473 0.472597538043 0.267796767274
v 0.221005633079 0.476958063666 0.267799924648
v 0.219645315861 0.477563113028 0.267800719581
v 0.215843939173 0.478739829036 0.267802775477
v -0.35589818489 0.444335489344 0.268044200612
v -0.432647611249 0.28897976201 0.268028273632
v -0.433845190771 0.28552472373 0.268027694324
v -0.500596703716 -0.152272063275 0.267916785268
v -0.500596703716 -0.156265386976 0.267915504929
v -0.500592530814 -0.156478197503 0.267915434876
v -0.500584185508 -0.156870435841 0.267915305202
v -0.500559148595 -0.15775505967 0.26791501058
v -0.369267682031 -0.263984978261 0.267822974228
v -0.368074274914 -0.26486125579 0.267822166377
v 0.0306613811986 -0.476227832013 0.267578324646
v 0.0395660336552 -0.4792030045 0.267573438789
v 0.166939286262 -0.377755059685 -0.266153269402
v 0.177245983958 -0.369171708724 -0.266153269402
v 0.500667640176 -0.0584602545525 -0.266153269402
v 0.501915293026 -0.0545962863282 -0.266153269402
v 0.501919465928 -0.0541790110776 -0.266153269402
v 0.50192363883 -0.0524264550251 -0.266153269402
v 0.463033590442 0.0866138119984 -0.266153269402
v 0.422912580811 0.153457124802 -0.266153269402
v 0.380863759721 0.222207385551 -0.266153269402
v 0.332739411578 0.300033382255 -0.266153269402
v 0.24776131847 0.437258502187 -0.266153269402
v 0.224990611473 0.472597538043 -0.266153269402
v 0.221005633079 0.476958063666 -0.266153269402
v 0.219645315861 0.477563113028 -0.266153269402
v 0.215843939173 0.478739829036 -0.266153269402
v -0.35589818489 0.444335489344 -0.266153269402
v -0.432647611249 0.28897976201 -0.266153269402
v -0.433845190771 0.28552472373 -0.266153269402
v -0.500596703716 -0.152272063275 -0.266153269402
v -0.500596703716 -0.156265386976 -0.266153269402
v -0.500592530814 -0.156478197503 -0.266153269402
v -0.500584185508 -0.156870435841 -0.266153269402
v -0.500559148595 -0.15775505967 -0.266153269402
v -0.369267682031 -0.263984978261 -0.266153269402
v -0.368074274914 -0.26486125579 -0.266153269402
v 0.0306613811986 -0.476227832013 -0.266153269402
v 0.0395660336552 -0.4792030045 -0.266153269402
g roof
f 1 2 3 4 5 6 7 8 9 10 11 12 13 14 15 16 17 18 19 20 21 22 23 24 25 26 27
g wall
f 2 1 28 29
g wall
f 3 2 29 30
g wall
f 4 3 30 31
g wall
f 5 4 31 32
g wall
f 6 5 32 33
g wall
f 7 6 33 34
g wall
f 8 7 34 35
g wall
f 9 8 35 36
g wall
f 10 9 36 37
g wall
f 11 10 37 38
g wall
f 12 11 38 39
g wall
f 13 12 39 40
g wall
f 14 13 40 41
g wall
f 15 14 41 42
g wall
f 16 15 42 43
g wall
f 17 16 43 44
g wall
f 18 17 44 45
g wall
f 19 18 45 46
g wall
f 20 19 46 47
g wall
f 21 20 47 48
g wall
f 22 21 48 49
g wall
f 23 22 49 50
g wall
f 24 23 50 51
g wall
f 25 24 51 52
g wall
f 26 25 52 53
g wall
f 27 26 53 54
g wall
f 1 27 54 28
g ground_assumed
f 54 53 52 51 50 49 48 47 46 45 44 43 42 41 40 39 38 37 36 35 34 33 32 31 30 29 28
