v 0.16693928626181728 -0.37775505968517747 0.26754972643376485
v 0.17724598395785657 -0.36917170872441374 0.26754792789779241
v 0.50066764017623078 -0.058460254552475208 0.26750475111045896
v 0.50191529302646098 -0.05459628632816188 0.26750543922436004
v 0.50191946592801684 -0.054179011077566508 0.26750557088514254
v 0.5019236388295728 -0.052426455025065974 0.26750613131292622
v 0.46303359044241599 0.086613811998373591 0.26756788816925431
v 0.42291258081125266 0.15345712480236573 0.26760703762714233
v 0.38086375972107189 0.22220738555126204 0.26764765025863219
v 0.33273941157842241 0.30003338225535786 0.26769385524396339
v 0.24776131847025484 0.43725850218712414 0.26777538059416067
v 0.22499061147341434 0.47259753804266436 0.26779676727357193
v 0.22100563307864513 0.4769580636661363 0.26779992464818653
v 0.21964531586107089 0.4775631130279161 0.26780071958121299
v 0.21584393917276343 0.47873982903586182 0.26780277547675269
v -0.35589818489025987 0.44433548934418865 0.26804420061156087
v -0.43264761124908641 0.2889797620098028 0.26802827363154214
v -0.43384519077114525 0.2855247237298062 0.26802769432409906
v -0.50059670371557285 -0.15227206327493059 0.26791678526824408
v -0.50059670371557285 -0.15626538697597842 0.26791550492923832
v -0.50059253081401689 -0.15647819750283201 0.26791543487576536
v -0.50058418550773831 -0.15687043584092514 0.26791530520231543
v -0.50055914859523598 -0.15775505967028722 0.26791501058026246
v -0.36926768203136945 -0.26398497826059464 0.26782297422812251
v -0.36807427491403333 -0.2648612557900118 0.26782216637743433
v 0.030661381198585812 -0.47622783201280011 0.26757832464622572
v 0.039566033655158143 -0.47920300449986181 0.26757343878911166
v 0.16693928626181728 -0.37775505968517747 -0.2661532694016403
v 0.17724598395785657 -0.36917170872441374 -0.2661532694016403
v 0.50066764017623078 -0.058460254552475208 -0.2661532694016403
v 0.50191529302646098 -0.05459628632816188 -0.2661532694016403
v 0.50191946592801684 -0.054179011077566508 -0.2661532694016403
v 0.5019236388295728 -0.052426455025065974 -0.2661532694016403
v 0.46303359044241599 0.086613811998373591 -0.2661532694016403
v 0.42291258081125266 0.15345712480236573 -0.2661532694016403
v 0.38086375972107189 0.22220738555126204 -0.2661532694016403
v 0.33273941157842241 0.30003338225535786 -0.2661532694016403
v 0.24776131847025484 0.43725850218712414 -0.2661532694016403
v 0.22499061147341434 0.47259753804266436 -0.2661532694016403
v 0.22100563307864513 0.4769580636661363 -0.2661532694016403
v 0.21964531586107089 0.4775631130279161 -0.2661532694016403
v 0.21584393917276343 0.47873982903586182 -0.2661532694016403
v -0.35589818489025987 0.44433548934418865 -0.2661532694016403
v -0.43264761124908641 0.2889797620098028 -0.2661532694016403
v -0.43384519077114525 0.2855247237298062 -0.2661532694016403
v -0.50059670371557285 -0.15227206327493059 -0.2661532694016403
v -0.50059670371557285 -0.15626538697597842 -0.2661532694016403
v -0.50059253081401689 -0.15647819750283201 -0.2661532694016403
v -0.50058418550773831 -0.15687043584092514 -0.2661532694016403
v -0.50055914859523598 -0.15775505967028722 -0.2661532694016403
v -0.36926768203136945 -0.26398497826059464 -0.2661532694016403
v -0.36807427491403333 -0.2648612557900118 -0.2661532694016403
v 0.030661381198585812 -0.47622783201280011 -0.2661532694016403
v 0.039566033655158143 -0.47920300449986181 -0.2661532694016403
l 1 2
l 2 3
l 3 4
l 4 5
l 5 6
l 6 7
l 7 8
l 8 9
l 9 10
l 10 11
l 11 12
l 12 13
l 13 14
l 14 15
l 15 16
l 16 17
l 17 18
l 18 19
l 19 20
l 20 21
l 21 22
l 22 23
l 23 24
l 24 25
l 25 26
l 26 27
l 1 27
l 28 29
l 29 30
l 3 30
l 30 31
l 4 31
l 31 32
l 32 33
l 6 33
l 33 34
l 7 34
l 34 35
l 35 36
l 36 37
l 37 38
l 38 39
l 39 40
l 13 40
l 40 41
l 41 42
l 15 42
l 42 43
l 16 43
l 43 44
l 44 45
l 18 45
l 45 46
l 46 47
l 47 48
l 48 49
l 49 50
l 23 50
l 50 51
l 51 52
l 52 53
l 53 54
l 27 54
l 28 54
