# Source coordinates; no display transform
v 0.0930858887747 -0.499173927583 0.142817870781
v 0.124114518352 -0.478895552937 0.143321876752
v 0.441054656336 -0.231718909029 0.148800856543
v 0.4410772887 -0.221975783467 0.148881598733
v 0.267771868467 0.0791671381725 0.149490342604
v -0.0129455697733 0.439255403248 0.149421339409
v -0.0657576098446 0.503994568276 0.149383530129
v -0.270883784102 0.342548376368 0.145825333092
v -0.418682810745 0.208939685272 0.143118769696
v -0.446780581673 0.1788955527 0.142565861561
v -0.446791897625 0.176654973548 0.142547227327
v -0.379257666749 0.0845196335045 0.142518335212
v -0.0769265586708 -0.304628267601 0.142581622702
v 0.0433970803736 -0.457779789577 0.142621053495
v 0.0815887745882 -0.502002942209 0.142669825882
v 0.0930858887747 -0.499173927583 -0.145313296445
v 0.124114518352 -0.478895552937 -0.145313296445
v 0.441054656336 -0.231718909029 -0.145313296445
v 0.4410772887 -0.221975783467 -0.145313296445
v 0.267771868467 0.0791671381725 -0.145313296445
v -0.0129455697733 0.439255403248 -0.145313296445
v -0.0657576098446 0.503994568276 -0.145313296445
v -0.270883784102 0.342548376368 -0.145313296445
v -0.418682810745 0.208939685272 -0.145313296445
v -0.446780581673 0.1788955527 -0.145313296445
v -0.446791897625 0.176654973548 -0.145313296445
v -0.379257666749 0.0845196335045 -0.145313296445
v -0.0769265586708 -0.304628267601 -0.145313296445
v 0.0433970803736 -0.457779789577 -0.145313296445
v 0.0815887745882 -0.502002942209 -0.145313296445
g roof
f 1 2 3 4 5 6 7 8 9 10 11 12 13 14 15
g wall
f 2 1 16 17
g wall
f 3 2 17 18
g wall
f 4 3 18 19
g wall
f 5 4 19 20
g wall
f 6 5 20 21
g wall
f 7 6 21 22
g wall
f 8 7 22 23
g wall
f 9 8 23 24
g wall
f 10 9 24 25
g wall
f 11 10 25 26
g wall
f 12 11 26 27
g wall
f 13 12 27 28
g wall
f 14 13 28 29
g wall
f 15 14 29 30
g wall
f 1 15 30 16
g ground_assumed
f 30 29 28 27 26 25 24 23 22 21 20 19 18 17 16
