v 0.093085888774679298 -0.4991739275830242 0.14281787078095545
v 0.12411451835225493 -0.47889555293668451 0.14332187675170005
v 0.44105465633562541 -0.23171890902899783 0.1488008565433189
v 0.44107728870017643 -0.22197578346709199 0.14888159873349796
v 0.26777186846682777 0.079167138172549223 0.14949034260434868
v -0.012945569773324631 0.43925540324849888 0.14942133940901012
v -0.065757609844637896 0.50399456827624034 0.1493835301285551
v -0.27088378410176595 0.34254837636750474 0.14582533309181672
v -0.41868281074538705 0.20893968527249232 0.14311876969563961
v -0.44678058167317641 0.17889555269969576 0.14256586156077197
v -0.44679189762453303 0.17665497354839058 0.14254722732661418
v -0.37925766674879779 0.084519633504535105 0.14251833521164739
v -0.076926558670769918 -0.30462826760126993 0.14258162270157462
v 0.043397080373565412 -0.45777978957687687 0.14262105349477197
v 0.081588774588179494 -0.5020029422087634 0.14266982588245503
v 0.093085888774679298 -0.4991739275830242 -0.14531329644455737
v 0.12411451835225493 -0.47889555293668451 -0.14531329644455737
v 0.44105465633562541 -0.23171890902899783 -0.14531329644455737
v 0.44107728870017643 -0.22197578346709199 -0.14531329644455737
v 0.26777186846682777 0.079167138172549223 -0.14531329644455737
v -0.012945569773324631 0.43925540324849888 -0.14531329644455737
v -0.065757609844637896 0.50399456827624034 -0.14531329644455737
v -0.27088378410176595 0.34254837636750474 -0.14531329644455737
v -0.41868281074538705 0.20893968527249232 -0.14531329644455737
v -0.44678058167317641 0.17889555269969576 -0.14531329644455737
v -0.44679189762453303 0.17665497354839058 -0.14531329644455737
v -0.37925766674879779 0.084519633504535105 -0.14531329644455737
v -0.076926558670769918 -0.30462826760126993 -0.14531329644455737
v 0.043397080373565412 -0.45777978957687687 -0.14531329644455737
v 0.081588774588179494 -0.5020029422087634 -0.14531329644455737
l 1 2
l 2 3
l 3 4
l 4 5
l 5 6
l 6 7
l 7 8
l 8 9
l 9 10
l 10 11
l 11 12
l 12 13
l 13 14
l 14 15
l 1 15
l 1 16
l 16 17
l 17 18
l 3 18
l 18 19
l 4 19
l 19 20
l 20 21
l 21 22
l 7 22
l 22 23
l 23 24
l 24 25
l 10 25
l 25 26
l 11 26
l 26 27
l 27 28
l 28 29
l 29 30
l 15 30
l 16 30
