# Source coordinates; no display transform
v 2685632.3848 1246518.86384 528.053963076
v 2685636.22852 1246513.85889 521.805319284
v 2685636.25 1246513.875 521.798819392
v 2685637.5 1246515 521.541459104
v 2685638.5 1246516 521.400044884
v 2685639.75 1246517.5 521.384462161
v 2685642 1246520.25 521.388650264
v 2685642.75 1246521.25 521.44377464
v 2685642.75 1246521.375 521.524367169
v 2685642.25 1246522.25 522.481592008
v 2685642 1246522.625 522.919908159
v 2685640.4146 1246524.84456 525.597322272
v 2685624.29756 1246512.88342 525.539558717
v 2685626 1246510.5 522.613856732
v 2685626.75 1246509.625 521.490956921
v 2685628 1246510 521.358491785
v 2685628.75 1246510.25 521.302726803
v 2685632 1246511.625 521.337743163
v 2685635 1246513 521.47039487
v 2685635.25 1246513.125 521.491330053
v 2685632.26298 1246518.81355 528.05384141
v 2685639.5 1246526.125 524.063815213
v 2685639 1246526.75 523.294792871
v 2685638 1246527.875 521.87229671
v 2685637 1246527.625 521.720834267
v 2685634 1246526.5 521.613092488
v 2685631 1246525.25 521.620899232
v 2685630 1246524.75 521.700533826
v 2685628.91266 1246524.05099 521.930713327
v 2685628.25 1246523.625 521.677423705
v 2685627.5 1246522.875 521.566241711
v 2685625.5 1246520.5 521.515446069
v 2685623.25 1246517.75 521.509486331
v 2685622.25 1246516.5 521.52503679
v 2685622.25 1246516.125 521.770726496
v 2685622.5 1246515.5 522.38106312
v 2685623.5 1246514 524.1672371
v 2685636.22852 1246513.85889 513.845052485
v 2685636.25 1246513.875 513.845052485
v 2685637.5 1246515 513.845052485
v 2685638.5 1246516 513.845052485
v 2685639.75 1246517.5 513.845052485
v 2685642 1246520.25 513.845052485
v 2685642.75 1246521.25 513.845052485
v 2685642.75 1246521.375 513.845052485
v 2685642.25 1246522.25 513.845052485
v 2685642 1246522.625 513.845052485
v 2685640.4146 1246524.84456 513.845052485
v 2685639.5 1246526.125 513.845052485
v 2685639 1246526.75 513.845052485
v 2685638 1246527.875 513.845052485
v 2685637 1246527.625 513.845052485
v 2685634 1246526.5 513.845052485
v 2685631 1246525.25 513.845052485
v 2685630 1246524.75 513.845052485
v 2685628.91266 1246524.05099 513.845052485
v 2685628.25 1246523.625 513.845052485
v 2685627.5 1246522.875 513.845052485
v 2685625.5 1246520.5 513.845052485
v 2685623.25 1246517.75 513.845052485
v 2685622.25 1246516.5 513.845052485
v 2685622.25 1246516.125 513.845052485
v 2685622.5 1246515.5 513.845052485
v 2685623.5 1246514 513.845052485
v 2685624.29756 1246512.88342 513.845052485
v 2685626 1246510.5 513.845052485
v 2685626.75 1246509.625 513.845052485
v 2685628 1246510 513.845052485
v 2685628.75 1246510.25 513.845052485
v 2685632 1246511.625 513.845052485
v 2685635 1246513 513.845052485
v 2685635.25 1246513.125 513.845052485
g roof
f 1 2 3 4 5 6 7 8 9 10 11 12
g roof
f 13 14 15 16 17 18 19 20 2 1 21
g roof
f 22 23 24 25 26 27 28 29 21 1 12
g roof
f 29 30 31 32 33 34 35 36 37 13 21
g wall
f 3 2 38 39
g wall
f 4 3 39 40
g wall
f 5 4 40 41
g wall
f 6 5 41 42
g wall
f 7 6 42 43
g wall
f 8 7 43 44
g wall
f 9 8 44 45
g wall
f 10 9 45 46
g wall
f 11 10 46 47
g wall
f 12 11 47 48
g wall
f 14 13 65 66
g wall
f 15 14 66 67
g wall
f 16 15 67 68
g wall
f 17 16 68 69
g wall
f 18 17 69 70
g wall
f 19 18 70 71
g wall
f 20 19 71 72
g wall
f 2 20 72 38
g wall
f 23 22 49 50
g wall
f 24 23 50 51
g wall
f 25 24 51 52
g wall
f 26 25 52 53
g wall
f 27 26 53 54
g wall
f 28 27 54 55
g wall
f 29 28 55 56
g wall
f 22 12 48 49
g wall
f 30 29 56 57
g wall
f 31 30 57 58
g wall
f 32 31 58 59
g wall
f 33 32 59 60
g wall
f 34 33 60 61
g wall
f 35 34 61 62
g wall
f 36 35 62 63
g wall
f 37 36 63 64
g wall
f 13 37 64 65
g ground_assumed
f 72 71 70 69 68 67 66 65 64 63 62 61 60 59 58 57 56 55 54 53 52 51 50 49 48 47 46 45 44 43 42 41 40 39 38
