# XYZ-only planar convex-roof baseline. Provisional base; no GT.
v -0.11060705 0.10930260 7.25786327
v 3.58001205 -4.69629612 1.25810436
v 3.60063666 -4.68082766 1.25186336
v 4.80084888 -3.60063666 1.00475379
v 5.76101866 -2.64046688 0.86897213
v 6.96123088 -1.20021222 0.85401007
v 9.12161287 1.44025466 0.85803136
v 9.84174020 2.40042444 0.91096012
v 9.84174020 2.52044566 0.98834263
v 9.36165532 3.36059422 1.90744099
v 9.12161287 3.72065788 2.32829891
v 7.59935661 5.85181665 4.89907102
v -7.87573797 -5.63291245 4.84360820
v -6.24110354 -7.92140065 2.03443758
v -5.52097621 -8.76154921 0.95626312
v -4.32076399 -8.40148554 0.82907410
v -3.60063666 -8.16144310 0.77553025
v -0.48008489 -6.84120965 0.80915190
v 2.40042444 -5.52097621 0.93652006
v 2.64046688 -5.40095499 0.95662139
v -0.22758048 0.06101933 7.25774645
v 6.72118843 7.08125210 3.42664389
v 6.24110354 7.68135821 2.68825188
v 5.28093377 8.76154921 1.32241406
v 4.32076399 8.52150676 1.17698440
v 1.44025466 7.44131576 1.07353400
v -1.44025466 6.24110354 1.08102980
v -2.40042444 5.76101866 1.15749253
v -3.44445747 5.08985456 1.37850393
v -4.08072155 4.68082766 1.13530289
v -4.80084888 3.96070033 1.02854930
v -6.72118843 1.68029711 0.97977686
v -8.88157043 -0.96016978 0.97405450
v -9.84174020 -2.16038200 0.98898558
v -9.84174020 -2.52044566 1.22488941
v -9.60169776 -3.12055177 1.81091619
v -8.64152798 -4.56080644 3.52594646
v 3.58001205 -4.69629612 -6.38510323
v 3.60063666 -4.68082766 -6.38510323
v 4.80084888 -3.60063666 -6.38510323
v 5.76101866 -2.64046688 -6.38510323
v 6.96123088 -1.20021222 -6.38510323
v 9.12161287 1.44025466 -6.38510323
v 9.84174020 2.40042444 -6.38510323
v 9.84174020 2.52044566 -6.38510323
v 9.36165532 3.36059422 -6.38510323
v 9.12161287 3.72065788 -6.38510323
v 7.59935661 5.85181665 -6.38510323
v 6.72118843 7.08125210 -6.38510323
v 6.24110354 7.68135821 -6.38510323
v 5.28093377 8.76154921 -6.38510323
v 4.32076399 8.52150676 -6.38510323
v 1.44025466 7.44131576 -6.38510323
v -1.44025466 6.24110354 -6.38510323
v -2.40042444 5.76101866 -6.38510323
v -3.44445747 5.08985456 -6.38510323
v -4.08072155 4.68082766 -6.38510323
v -4.80084888 3.96070033 -6.38510323
v -6.72118843 1.68029711 -6.38510323
v -8.88157043 -0.96016978 -6.38510323
v -9.84174020 -2.16038200 -6.38510323
v -9.84174020 -2.52044566 -6.38510323
v -9.60169776 -3.12055177 -6.38510323
v -8.64152798 -4.56080644 -6.38510323
v -7.87573797 -5.63291245 -6.38510323
v -6.24110354 -7.92140065 -6.38510323
v -5.52097621 -8.76154921 -6.38510323
v -4.32076399 -8.40148554 -6.38510323
v -3.60063666 -8.16144310 -6.38510323
v -0.48008489 -6.84120965 -6.38510323
v 2.40042444 -5.52097621 -6.38510323
v 2.64046688 -5.40095499 -6.38510323
g roof
f 1 2 3 4 5 6 7 8 9 10 11 12
g roof
f 13 14 15 16 17 18 19 20 2 1 21
g roof
f 22 23 24 25 26 27 28 29 21 1 12
g roof
f 29 30 31 32 33 34 35 36 37 13 21
g wall
f 3 2 38 39
g wall
f 4 3 39 40
g wall
f 5 4 40 41
g wall
f 6 5 41 42
g wall
f 7 6 42 43
g wall
f 8 7 43 44
g wall
f 9 8 44 45
g wall
f 10 9 45 46
g wall
f 11 10 46 47
g wall
f 12 11 47 48
g wall
f 14 13 65 66
g wall
f 15 14 66 67
g wall
f 16 15 67 68
g wall
f 17 16 68 69
g wall
f 18 17 69 70
g wall
f 19 18 70 71
g wall
f 20 19 71 72
g wall
f 2 20 72 38
g wall
f 23 22 49 50
g wall
f 24 23 50 51
g wall
f 25 24 51 52
g wall
f 26 25 52 53
g wall
f 27 26 53 54
g wall
f 28 27 54 55
g wall
f 29 28 55 56
g wall
f 22 12 48 49
g wall
f 30 29 56 57
g wall
f 31 30 57 58
g wall
f 32 31 58 59
g wall
f 33 32 59 60
g wall
f 34 33 60 61
g wall
f 35 34 61 62
g wall
f 36 35 62 63
g wall
f 37 36 63 64
g wall
f 13 37 64 65
g ground_assumed
f 72 71 70 69 68 67 66 65 64 63 62 61 60 59 58 57 56 55 54 53 52 51 50 49 48 47 46 45 44 43 42 41 40 39 38
