v 2685632.3848046954 1246518.8638367429 528.05396307567401
v 2685636.2285198299 1246513.8588898683 521.80531928423159
v 2685636.2499999995 1246513.8749999984 521.79881939207132
v 2685637.4999999995 1246515.0000000002 521.54145910417503
v 2685638.5000000037 1246516.0000000044 521.4000448841241
v 2685639.7500000037 1246517.5 521.38446216076329
v 2685641.9999999972 1246520.2499999958 521.38865026384701
v 2685642.7499999949 1246521.2499999998 521.44377464009676
v 2685642.7499999949 1246521.3749999977 521.52436716855175
v 2685642.2500000033 1246522.250000004 522.48159200826444
v 2685641.9999999972 1246522.6249999977 522.91990815868576
v 2685640.4145967718 1246524.8445645196 525.59732227237464
v 2685624.2975568841 1246512.8834203696 525.53955871703056
v 2685626.0000000047 1246510.5000000028 522.6138567318211
v 2685626.7500000023 1246509.6249999965 521.49095692090668
v 2685628.0000000023 1246510.0000000007 521.35849178487626
v 2685628.7500000005 1246510.2499999965 521.30272680316773
v 2685631.9999999981 1246511.6250000047 521.33774316260508
v 2685635 1246513.0000000026 521.47039486980702
v 2685635.2499999958 1246513.1250000005 521.491330052835
v 2685632.262978917 1246518.8135505631 528.05384140969068
v 2685639.4999999972 1246526.1250000014 524.06381521280082
v 2685638.9999999953 1246526.7500000014 523.29479287071194
v 2685638.0000000019 1246527.8750000035 521.87229671010198
v 2685636.9999999977 1246527.6249999972 521.72083426708014
v 2685633.9999999958 1246526.4999999953 521.61309248788882
v 2685631.0000000042 1246525.2499999953 521.62089923226551
v 2685630 1246524.7500000037 521.70053382596473
v 2685628.9126578905 1246524.050994352 521.93071332703539
v 2685628.2499999981 1246523.6250000016 521.67742370465817
v 2685627.5000000005 1246522.875000004 521.56624171095234
v 2685625.5000000028 1246520.5000000019 521.51544606916559
v 2685623.2499999986 1246517.7499999958 521.50948633147902
v 2685622.2500000051 1246516.499999996 521.52503678971254
v 2685622.2500000051 1246516.1250000023 521.77072649571892
v 2685622.5000000009 1246515.5000000023 522.3810631201394
v 2685623.5000000047 1246513.9999999963 524.16723709971541
v 2685636.2285198299 1246513.8588898683 513.845052485118
v 2685636.2499999995 1246513.8749999984 513.845052485118
v 2685637.4999999995 1246515.0000000002 513.845052485118
v 2685638.5000000037 1246516.0000000044 513.845052485118
v 2685639.7500000037 1246517.5 513.845052485118
v 2685641.9999999972 1246520.2499999958 513.845052485118
v 2685642.7499999949 1246521.2499999998 513.845052485118
v 2685642.7499999949 1246521.3749999977 513.845052485118
v 2685642.2500000033 1246522.250000004 513.845052485118
v 2685641.9999999972 1246522.6249999977 513.845052485118
v 2685640.4145967718 1246524.8445645196 513.845052485118
v 2685639.4999999972 1246526.1250000014 513.845052485118
v 2685638.9999999953 1246526.7500000014 513.845052485118
v 2685638.0000000019 1246527.8750000035 513.845052485118
v 2685636.9999999977 1246527.6249999972 513.845052485118
v 2685633.9999999958 1246526.4999999953 513.845052485118
v 2685631.0000000042 1246525.2499999953 513.845052485118
v 2685630 1246524.7500000037 513.845052485118
v 2685628.9126578905 1246524.050994352 513.845052485118
v 2685628.2499999981 1246523.6250000016 513.845052485118
v 2685627.5000000005 1246522.875000004 513.845052485118
v 2685625.5000000028 1246520.5000000019 513.845052485118
v 2685623.2499999986 1246517.7499999958 513.845052485118
v 2685622.2500000051 1246516.499999996 513.845052485118
v 2685622.2500000051 1246516.1250000023 513.845052485118
v 2685622.5000000009 1246515.5000000023 513.845052485118
v 2685623.5000000047 1246513.9999999963 513.845052485118
v 2685624.2975568841 1246512.8834203696 513.845052485118
v 2685626.0000000047 1246510.5000000028 513.845052485118
v 2685626.7500000023 1246509.6249999965 513.845052485118
v 2685628.0000000023 1246510.0000000007 513.845052485118
v 2685628.7500000005 1246510.2499999965 513.845052485118
v 2685631.9999999981 1246511.6250000047 513.845052485118
v 2685635 1246513.0000000026 513.845052485118
v 2685635.2499999958 1246513.1250000005 513.845052485118
l 1 2
l 2 3
l 3 4
l 4 5
l 5 6
l 6 7
l 7 8
l 8 9
l 9 10
l 10 11
l 11 12
l 1 12
l 13 14
l 14 15
l 15 16
l 16 17
l 17 18
l 18 19
l 19 20
l 2 20
l 1 21
l 13 21
l 22 23
l 23 24
l 24 25
l 25 26
l 26 27
l 27 28
l 28 29
l 21 29
l 12 22
l 29 30
l 30 31
l 31 32
l 32 33
l 33 34
l 34 35
l 35 36
l 36 37
l 13 37
l 38 39
l 39 40
l 40 41
l 41 42
l 42 43
l 43 44
l 8 44
l 44 45
l 9 45
l 45 46
l 46 47
l 47 48
l 65 66
l 66 67
l 15 67
l 67 68
l 68 69
l 69 70
l 70 71
l 71 72
l 20 72
l 38 72
l 49 50
l 50 51
l 24 51
l 51 52
l 52 53
l 53 54
l 54 55
l 55 56
l 48 49
l 56 57
l 30 57
l 57 58
l 58 59
l 59 60
l 60 61
l 34 61
l 61 62
l 35 62
l 62 63
l 36 63
l 63 64
l 64 65
