# Source coordinates; no display transform
v 2683795.18955 1247377.05195 423.745912656
v 2683813.43762 1247390.45869 423.78532974
v 2683807.6653 1247398.31545 423.808618593
v 2683789.41723 1247384.90871 423.76920151
v 2683795.18955 1247377.05195 419.819294863
v 2683813.43762 1247390.45869 419.819294863
v 2683807.6653 1247398.31545 419.819294863
v 2683789.41723 1247384.90871 419.819294863
g roof
f 1 2 3 4
g wall
f 2 1 5 6
g wall
f 3 2 6 7
g wall
f 4 3 7 8
g wall
f 1 4 8 5
g ground_assumed
f 8 7 6 5
