# pointcloud_to_mesh 0.5.1; candidate requires geometry validation; coordinates preserved
v 14.002218958 -3.552745629 1.182734442
v 14.373232491 1.940439371 0.894644753
v -14.051108972 3.860239152 0.894717697
v -14.422122505 -1.632945848 1.182807386
v -2.702123914 -2.424522700 1.182777309
v -2.153306784 -3.416260250 1.232615980
v 6.887795077 -4.026902554 1.232592778
v 6.951981355 -3.076567681 1.182752534
v -14.051108972 3.860239152 -1.263006322
v -14.422122505 -1.632945848 -1.263006322
v -2.702123914 -2.424522700 -1.263006322
v -2.153306784 -3.416260250 -1.263006322
v 6.887795077 -4.026902554 -1.263006322
v 6.951981355 -3.076567681 -1.263006322
v 14.002218958 -3.552745629 -1.263006322
v 14.373232491 1.940439371 -1.263006322
g roof
f 1 2 3
g roof
f 3 4 5
g roof
f 5 6 7
g roof
f 5 7 8
g roof
f 8 1 3
g roof
f 8 3 5
g facade_completed
f 4 3 9 10
g facade_completed
f 5 4 10 11
g facade_completed
f 6 5 11 12
g facade_completed
f 7 6 12 13
g facade_completed
f 8 7 13 14
g facade_completed
f 1 8 14 15
g facade_completed
f 2 1 15 16
g facade_completed
f 3 2 16 9
g ground_assumed
f 16 10 9
g ground_assumed
f 16 11 10
g ground_assumed
f 16 12 11
g ground_assumed
f 12 14 13
g ground_assumed
f 14 16 15
g ground_assumed
f 14 12 16
