# Source coordinates; no display transform
v 0.487847854432 -0.121558559008 0.0411507834021
v 0.500771644037 0.0697896288283 0.0311155415662
v -0.489354526731 0.136663438668 0.0311180824786
v -0.502278316336 -0.0546847491683 0.0411533243145
v -0.0940269117634 -0.0822583328293 0.0411522766201
v -0.0749095575729 -0.116804262559 0.0428883440163
v 0.240025850053 -0.138075218896 0.0428875358039
v 0.242261698287 -0.104971499326 0.0411514136141
v -0.489354526731 0.136663438668 -0.0440435188301
v -0.502278316336 -0.0546847491683 -0.0440435188301
v -0.0940269117634 -0.0822583328293 -0.0440435188301
v -0.0749095575729 -0.116804262559 -0.0440435188301
v 0.240025850053 -0.138075218896 -0.0440435188301
v 0.242261698287 -0.104971499326 -0.0440435188301
v 0.487847854432 -0.121558559008 -0.0440435188301
v 0.500771644037 0.0697896288283 -0.0440435188301
g roof
f 1 2 3
g roof
f 3 4 5
g roof
f 5 6 7
g roof
f 5 7 8
g roof
f 8 1 3
g roof
f 8 3 5
g facade_completed
f 4 3 9 10
g facade_completed
f 5 4 10 11
g facade_completed
f 6 5 11 12
g facade_completed
f 7 6 12 13
g facade_completed
f 8 7 13 14
g facade_completed
f 1 8 14 15
g facade_completed
f 2 1 15 16
g facade_completed
f 3 2 16 9
g ground_assumed
f 16 10 9
g ground_assumed
f 16 11 10
g ground_assumed
f 16 12 11
g ground_assumed
f 12 14 13
g ground_assumed
f 14 16 15
g ground_assumed
f 14 12 16
