v 0.48784785443235307 -0.12155855900753697 0.041150783402083918
v 0.50077164403749186 0.069789628828254457 0.031115541566186029
v -0.48935452673061414 0.13666343866751879 0.031118082478646378
v -0.50227831633575293 -0.054684749168272644 0.041153324314544264
v -0.094026911763382168 -0.082258332829292694 0.04115227662009277
v -0.074909557572918908 -0.11680426255880438 0.042888344016329058
v 0.24002585005328547 -0.13807521889584246 0.042887535803852288
v 0.2422616982869103 -0.10497149932591954 0.041151413614140188
v -0.48935452673061414 0.13666343866751879 -0.044043518830140932
v -0.50227831633575293 -0.054684749168272644 -0.044043518830140932
v -0.094026911763382168 -0.082258332829292694 -0.044043518830140932
v -0.074909557572918908 -0.11680426255880438 -0.044043518830140932
v 0.24002585005328547 -0.13807521889584246 -0.044043518830140932
v 0.2422616982869103 -0.10497149932591954 -0.044043518830140932
v 0.48784785443235307 -0.12155855900753697 -0.044043518830140932
v 0.50077164403749186 0.069789628828254457 -0.044043518830140932
l 1 2
l 2 3
l 3 4
l 4 5
l 5 6
l 6 7
l 7 8
l 1 8
l 3 9
l 9 10
l 4 10
l 10 11
l 5 11
l 11 12
l 6 12
l 12 13
l 7 13
l 13 14
l 8 14
l 14 15
l 1 15
l 15 16
l 2 16
l 9 16
