v -0.037030020216156617 0.51642275803047677 0.16880727711008961
v -0.46433487220363345 -0.22074263620107898 0.16828910998896884
v 0.029240481487703585 -0.5068482304372065 0.16816747719941405
v 0.4565453330071928 0.23031716379434924 0.16868564478852241
v -0.037030020216156617 0.51642275803047677 -0.16556385402742452
v -0.46433487220363345 -0.22074263620107898 -0.16556385402742452
v 0.029240481487703585 -0.5068482304372065 -0.16556385402742452
v 0.4565453330071928 0.23031716379434924 -0.16556385402742452
l 1 2
l 2 3
l 3 4
l 1 4
l 1 5
l 5 6
l 2 6
l 6 7
l 3 7
l 7 8
l 4 8
l 5 8
