v 2684342.908839758 1252622.131215137 429.46659448771908
v 2684354.2641157247 1252642.3183724063 429.46336386359195
v 2684347.5896231425 1252646.0727744824 429.45046735987478
v 2684336.2343471763 1252625.8856172133 429.45369798400191
v 2684342.908839758 1252622.131215137 426.17674297745799
v 2684354.2641157247 1252642.3183724063 426.17674297745799
v 2684347.5896231425 1252646.0727744824 426.17674297745799
v 2684336.2343471763 1252625.8856172133 426.17674297745799
l 1 2
l 2 3
l 3 4
l 1 4
l 1 5
l 5 6
l 2 6
l 6 7
l 3 7
l 7 8
l 4 8
l 5 8
