# XYZ-only planar convex-roof baseline. Provisional base; no GT.
v 7.39858755 0.70171736 2.14096291
v 6.50735733 2.15024743 2.91462772
v 2.81765346 6.46749199 5.45830934
v -7.48204708 0.36813079 5.43447881
v -1.58915451 -9.48730301 0.20996729
v -1.40287279 -9.79678917 0.04562112
v -1.27053690 -9.86773356 -0.01267973
v -1.07512372 -9.86351905 -0.05599556
v -0.94250686 -9.80170611 -0.06225201
v -0.89347796 -9.77529512 -0.06316828
v 1.72823363 -8.21423740 -0.05376170
v 3.03908942 -7.43202273 -0.04839671
v 8.89347733 -3.93228642 -0.02196245
v 9.59336840 -3.50100067 -0.01374161
v 9.78821965 -3.36641704 -0.00575648
v 9.78807916 -3.32666008 0.00988100
v 9.78793868 -3.31359507 0.01504152
v 9.78751723 -3.30362071 0.01905358
v -0.10058651 9.88206293 3.49204919
v -0.24711128 9.89358261 3.45425918
v -0.46415899 9.84609904 3.42287504
v -2.43149631 8.67277703 3.42148115
v -9.42310184 4.49548660 3.41938125
v -9.78723626 4.27562921 3.42014716
v -9.78765771 4.27071227 3.42192457
v -9.78793868 4.24205354 3.43278024
v -9.78779819 4.22491450 3.43934268
v -7.91360173 1.08987453 5.06110181
v 7.39858755 0.70171736 -5.46289719
v 6.50735733 2.15024743 -5.46289719
v 2.81765346 6.46749199 -5.46289719
v -0.10058651 9.88206293 -5.46289719
v -0.24711128 9.89358261 -5.46289719
v -0.46415899 9.84609904 -5.46289719
v -2.43149631 8.67277703 -5.46289719
v -9.42310184 4.49548660 -5.46289719
v -9.78723626 4.27562921 -5.46289719
v -9.78765771 4.27071227 -5.46289719
v -9.78793868 4.24205354 -5.46289719
v -9.78779819 4.22491450 -5.46289719
v -7.91360173 1.08987453 -5.46289719
v -7.48204708 0.36813079 -5.46289719
v -1.58915451 -9.48730301 -5.46289719
v -1.40287279 -9.79678917 -5.46289719
v -1.27053690 -9.86773356 -5.46289719
v -1.07512372 -9.86351905 -5.46289719
v -0.94250686 -9.80170611 -5.46289719
v -0.89347796 -9.77529512 -5.46289719
v 1.72823363 -8.21423740 -5.46289719
v 3.03908942 -7.43202273 -5.46289719
v 8.89347733 -3.93228642 -5.46289719
v 9.59336840 -3.50100067 -5.46289719
v 9.78821965 -3.36641704 -5.46289719
v 9.78807916 -3.32666008 -5.46289719
v 9.78793868 -3.31359507 -5.46289719
v 9.78751723 -3.30362071 -5.46289719
g roof
f 1 2 3 4 5 6 7 8 9 10 11 12 13 14 15 16 17 18
g roof
f 3 19 20 21 22 23 24 25 26 27 28 4
g wall
f 2 1 29 30
g wall
f 3 2 30 31
g wall
f 5 4 42 43
g wall
f 6 5 43 44
g wall
f 7 6 44 45
g wall
f 8 7 45 46
g wall
f 9 8 46 47
g wall
f 10 9 47 48
g wall
f 11 10 48 49
g wall
f 12 11 49 50
g wall
f 13 12 50 51
g wall
f 14 13 51 52
g wall
f 15 14 52 53
g wall
f 16 15 53 54
g wall
f 17 16 54 55
g wall
f 18 17 55 56
g wall
f 1 18 56 29
g wall
f 19 3 31 32
g wall
f 20 19 32 33
g wall
f 21 20 33 34
g wall
f 22 21 34 35
g wall
f 23 22 35 36
g wall
f 24 23 36 37
g wall
f 25 24 37 38
g wall
f 26 25 38 39
g wall
f 27 26 39 40
g wall
f 28 27 40 41
g wall
f 4 28 41 42
g ground_assumed
f 56 55 54 53 52 51 50 49 48 47 46 45 44 43 42 41 40 39 38 37 36 35 34 33 32 31 30 29
