v 0.37285196496204887 0.035875204268491091 0.10852043521103234
v 0.32776632773038189 0.10915357812702242 0.14765866255095192
v 0.14111124530387079 0.32755474732497397 0.27633866484281644
v -0.37993096323035525 0.018999695850053407 0.27513312377552812
v -0.081820766006336615 -0.47956790553526413 0.010835049251770555
v -0.072397129035396648 -0.49522422017188145 0.0025210899236927159
v -0.065702508728120959 -0.49881316156927014 -0.0004282388966404077
v -0.05581692860970168 -0.49859995754554531 -0.0026195041319783162
v -0.049108094565942756 -0.49547295878975489 -0.0029360060062729996
v -0.046627816014271031 -0.49413687717206778 -0.0029823583582233846
v 0.085999573654805442 -0.41516594409305585 -0.0025064974146047389
v 0.1523132682364032 -0.37559519564053134 -0.0022350928016737263
v 0.44847558814036342 -0.19855020980157193 -0.00089783399906314581
v 0.48388174266203482 -0.17673228618169354 -0.00048195738080891184
v 0.49373889581336861 -0.16992395699431379 -7.8004881949862053e-05
v 0.49373178869218654 -0.16791272820542252 0.0007130654101879508
v 0.4937246820768853 -0.16725179426482062 0.00097412627574832409
v 0.49370336172510099 -0.16674721041377252 0.0011770887400504005
v -0.0065169496224307781 0.5002913795081062 0.17686931356118793
v -0.013929358310360409 0.50087413815099069 0.17495758902177425
v -0.02490938804389441 0.4984720348970364 0.17336992522950759
v -0.12443323130163299 0.43911591196530919 0.17329941099259039
v -0.47812522189918755 0.2277947553080607 0.17319318105615175
v -0.4965460877936177 0.2166725892214561 0.17323192698244239
v -0.49656740814540207 0.21642385060358263 0.17332184276477744
v -0.49658162188188532 0.21497406010579151 0.17387101040804551
v -0.49657451476070325 0.21410702875676585 0.17420299173290968
v -0.40176248998843467 0.055511335273441167 0.25624469338472733
v 0.37285196496204887 0.035875204268491091 -0.27614434649817265
v 0.32776632773038189 0.10915357812702242 -0.27614434649817265
v 0.14111124530387079 0.32755474732497397 -0.27614434649817265
v -0.0065169496224307781 0.5002913795081062 -0.27614434649817265
v -0.013929358310360409 0.50087413815099069 -0.27614434649817265
v -0.02490938804389441 0.4984720348970364 -0.27614434649817265
v -0.12443323130163299 0.43911591196530919 -0.27614434649817265
v -0.47812522189918755 0.2277947553080607 -0.27614434649817265
v -0.4965460877936177 0.2166725892214561 -0.27614434649817265
v -0.49656740814540207 0.21642385060358263 -0.27614434649817265
v -0.49658162188188532 0.21497406010579151 -0.27614434649817265
v -0.49657451476070325 0.21410702875676585 -0.27614434649817265
v -0.40176248998843467 0.055511335273441167 -0.27614434649817265
v -0.37993096323035525 0.018999695850053407 -0.27614434649817265
v -0.081820766006336615 -0.47956790553526413 -0.27614434649817265
v -0.072397129035396648 -0.49522422017188145 -0.27614434649817265
v -0.065702508728120959 -0.49881316156927014 -0.27614434649817265
v -0.05581692860970168 -0.49859995754554531 -0.27614434649817265
v -0.049108094565942756 -0.49547295878975489 -0.27614434649817265
v -0.046627816014271031 -0.49413687717206778 -0.27614434649817265
v 0.085999573654805442 -0.41516594409305585 -0.27614434649817265
v 0.1523132682364032 -0.37559519564053134 -0.27614434649817265
v 0.44847558814036342 -0.19855020980157193 -0.27614434649817265
v 0.48388174266203482 -0.17673228618169354 -0.27614434649817265
v 0.49373889581336861 -0.16992395699431379 -0.27614434649817265
v 0.49373178869218654 -0.16791272820542252 -0.27614434649817265
v 0.4937246820768853 -0.16725179426482062 -0.27614434649817265
v 0.49370336172510099 -0.16674721041377252 -0.27614434649817265
l 1 2
l 2 3
l 3 4
l 4 5
l 5 6
l 6 7
l 7 8
l 8 9
l 9 10
l 10 11
l 11 12
l 12 13
l 13 14
l 14 15
l 15 16
l 16 17
l 17 18
l 1 18
l 3 19
l 19 20
l 20 21
l 21 22
l 22 23
l 23 24
l 24 25
l 25 26
l 26 27
l 27 28
l 4 28
l 29 30
l 30 31
l 42 43
l 43 44
l 6 44
l 44 45
l 7 45
l 45 46
l 8 46
l 46 47
l 47 48
l 48 49
l 49 50
l 50 51
l 51 52
l 52 53
l 15 53
l 53 54
l 54 55
l 55 56
l 18 56
l 29 56
l 31 32
l 19 32
l 32 33
l 20 33
l 33 34
l 21 34
l 34 35
l 35 36
l 36 37
l 24 37
l 37 38
l 38 39
l 39 40
l 27 40
l 40 41
l 41 42
