v 2680949.7499999977 1250340.7499999974 524.24171144193247
v 2680949.2500000009 1250340.8750000019 524.24306879580729
v 2680947.25 1250337.1249999977 524.22548270443917
v 2680946.2500000023 1250334.9999999974 524.21533580634605
v 2680945.2499999991 1250332.7499999981 524.20451197939599
v 2680945.0000000009 1250331.7500000002 524.19943677961646
v 2680947.25 1250331.1249999995 524.19299020948802
v 2680948.2499999981 1250330.8750000014 524.19027550173826
v 2680950.0000000009 1250330.4999999988 524.18586321434168
v 2680953 1250329.8749999981 524.17839600933917
v 2680953.5000000014 1250330.0000000026 524.17839250256804
v 2680953.7499999995 1250330.8750000014 524.18279077879561
v 2680953.9999999977 1250331.8749999993 524.18786597857513
v 2680955.2499999991 1250337.5000000002 524.216626621758
v 2680955.2499999991 1250338.25 524.2206881789848
v 2680951.5000000005 1250340.1250000021 524.23594530212699
v 2680949.7499999977 1250340.7499999974 519.43049023408298
v 2680949.2500000009 1250340.8750000019 519.43049023408298
v 2680947.25 1250337.1249999977 519.43049023408298
v 2680946.2500000023 1250334.9999999974 519.43049023408298
v 2680945.2499999991 1250332.7499999981 519.43049023408298
v 2680945.0000000009 1250331.7500000002 519.43049023408298
v 2680947.25 1250331.1249999995 519.43049023408298
v 2680948.2499999981 1250330.8750000014 519.43049023408298
v 2680950.0000000009 1250330.4999999988 519.43049023408298
v 2680953 1250329.8749999981 519.43049023408298
v 2680953.5000000014 1250330.0000000026 519.43049023408298
v 2680953.7499999995 1250330.8750000014 519.43049023408298
v 2680953.9999999977 1250331.8749999993 519.43049023408298
v 2680955.2499999991 1250337.5000000002 519.43049023408298
v 2680955.2499999991 1250338.25 519.43049023408298
v 2680951.5000000005 1250340.1250000021 519.43049023408298
l 1 2
l 2 3
l 3 4
l 4 5
l 5 6
l 6 7
l 7 8
l 8 9
l 9 10
l 10 11
l 11 12
l 12 13
l 13 14
l 14 15
l 15 16
l 1 16
l 17 18
l 2 18
l 18 19
l 19 20
l 20 21
l 21 22
l 6 22
l 22 23
l 23 24
l 24 25
l 25 26
l 10 26
l 26 27
l 11 27
l 27 28
l 28 29
l 29 30
l 14 30
l 30 31
l 15 31
l 31 32
l 17 32
