# Source coordinates; no display transform
v 2680405.75 1247036.125 439.390156631
v 2680405.75 1247035.375 439.392063833
v 2680406.25 1247032.75 439.394729807
v 2680406.5 1247031.875 439.394950254
v 2680406.75 1247031.75 439.393263503
v 2680407.75 1247031.875 439.384927156
v 2680413.25 1247032.875 439.338282576
v 2680415 1247033.25 439.323296631
v 2680416.75 1247033.75 439.307992819
v 2680416.75 1247035.25 439.304178414
v 2680416.5 1247036.75 439.302368631
v 2680416.25 1247038.125 439.300876714
v 2680415.5 1247041.75 439.297672428
v 2680415 1247041.875 439.301363799
v 2680413.5 1247041.625 439.314027257
v 2680410.25 1247041 439.341676654
v 2680409.25 1247040.75 439.350330867
v 2680405.75 1247036.125 433.89622876
v 2680405.75 1247035.375 433.89622876
v 2680406.25 1247032.75 433.89622876
v 2680406.5 1247031.875 433.89622876
v 2680406.75 1247031.75 433.89622876
v 2680407.75 1247031.875 433.89622876
v 2680413.25 1247032.875 433.89622876
v 2680415 1247033.25 433.89622876
v 2680416.75 1247033.75 433.89622876
v 2680416.75 1247035.25 433.89622876
v 2680416.5 1247036.75 433.89622876
v 2680416.25 1247038.125 433.89622876
v 2680415.5 1247041.75 433.89622876
v 2680415 1247041.875 433.89622876
v 2680413.5 1247041.625 433.89622876
v 2680410.25 1247041 433.89622876
v 2680409.25 1247040.75 433.89622876
g roof
f 1 2 3 4 5 6 7 8 9 10 11 12 13 14 15 16 17
g wall
f 2 1 18 19
g wall
f 3 2 19 20
g wall
f 4 3 20 21
g wall
f 5 4 21 22
g wall
f 6 5 22 23
g wall
f 7 6 23 24
g wall
f 8 7 24 25
g wall
f 9 8 25 26
g wall
f 10 9 26 27
g wall
f 11 10 27 28
g wall
f 12 11 28 29
g wall
f 13 12 29 30
g wall
f 14 13 30 31
g wall
f 15 14 31 32
g wall
f 16 15 32 33
g wall
f 17 16 33 34
g wall
f 1 17 34 18
g ground_assumed
f 34 33 32 31 30 29 28 27 26 25 24 23 22 21 20 19 18
