v -0.074984321316617086 0.1180684907326762 0.31577996349030596
v 0.041633601553879337 -0.30180024691869528 0.18747168597747998
v 0.041929054474535439 0.0052800520723594053 0.27516888573793413
v 0.030450892924349177 0.046605785470130952 0.28779767466317224
v 0.078624809622161285 0.059986019832753083 0.28816157498781209
v 0.073157829086451076 0.07966922242799912 0.29417659253841988
v 0.10365372637283837 0.072672761977242289 0.28998885985573514
v 0.097959214557630514 0.020842346420362579 0.27559213124676391
v 0.27536897846496239 -0.090151317776834272 0.23115095378216058
v 0.26626216409154474 -0.057363333238425143 0.24117068005231071
v 0.34198025947032501 -0.036332743898530286 0.24174264600497122
v 0.31713011814193343 -0.078552222819667825 0.23146641270526899
v 0.09526429454829291 -0.28690440101085629 0.18787680617638505
v 0.26786856295074662 -0.2535689468236178 0.18500864097986053
v 0.44191446074044666 -0.21002496205734672 0.18495308468700225
v 0.51385099589787309 -0.176260310494258 0.18943403609304588
v 0.48350195864866768 -0.066992269588469419 0.2228254102454108
v 0.47041475876647126 -0.042834147910058545 0.2306657254828299
v 0.43429772187116833 0.087200878539417326 0.27040331190931383
v 0.43265888628468924 0.093317787196592561 0.27226827040482265
v 0.39414544684371966 0.11541876368275039 0.28134619920947768
v 0.3374349916609416 0.11519024482969478 0.28535192821539951
v 0.29732439817113576 0.090453819310485267 0.2811652656251018
v 0.29730122098972944 0.11803144518144007 0.2890445609891153
v 0.33745822243046847 0.13799394925745634 0.2918642072262328
v 0.34442997364934413 0.15901641442215536 0.29736886468045826
v 0.41167397612675916 0.16993467712135621 0.2956605337991029
v 0.40755620885068466 0.18447157633933575 0.30010863996054704
v 0.38960269634980649 0.24670428326777519 0.31917440696005162
v -0.069316074065863403 0.097660651643180385 0.31533503542236152
v -0.45934755948776396 -0.0033182999412711828 0.31455940602473809
v -0.4467984959818817 -0.045564951035746017 0.30177151303634392
v -0.42116952534267743 -0.13715986737022445 0.2741580613210361
v -0.41436626711056429 -0.16301236683100606 0.26639474572922239
v -0.18311562129273667 -0.090386804608230009 0.27044675610808777
v -0.1896539143644359 -0.066846470409424597 0.27754010790850042
v -0.13411593651116335 -0.099232915525808651 0.26448014822855687
v -0.4015486362026689 -0.20916069781009994 0.25248898106762274
v -0.38128971015005669 -0.30350118892656386 0.22448316705556837
v -0.38040943228901597 -0.30325669305288555 0.22448959050787326
v -0.36117417780350353 -0.27565724159017896 0.23089812114906483
v -0.33363723243820559 -0.31168153847146707 0.21879960681517424
v -0.34062911692518005 -0.3382661709674098 0.21180851946991228
v -0.36798749095493938 -0.32960811284794883 0.21618726084393775
v -0.34582117881054764 -0.40941524092385084 0.19213917247372481
v 0.041633601553879337 -0.30180024691869528 0.1949664515551767
v -0.14644457562258373 -0.054845140268796284 0.27785540886699317
v 0.030450892924349177 0.046605785470130952 0.29388058772397602
v 0.041929054474535439 0.0052800520723594053 0.28142800469274637
v 0.097959214557630514 0.020842346420362579 0.28183685985103407
v 0.10365372637283837 0.072672761977242289 0.29602989053396023
v 0.073157829086451076 0.07966922242799912 0.30016320715717842
v 0.078624809622161285 0.059986019832753083 0.29423211547991807
v -0.33363723243820559 -0.31168153847146707 0.2054200925766908
v -0.36117417780350353 -0.27565724159017896 0.21771812275289801
v -0.38040943228901597 -0.30325669305288555 0.2111946225075059
v -0.34062911692518005 -0.3382661709674098 0.1983074264584396
v 0.31713011814193343 -0.078552222819667825 0.22543282655162197
v 0.34198025947032501 -0.036332743898530286 0.23574070479078912
v 0.26626216409154474 -0.057363333238425143 0.23515793756546782
v 0.27536897846496239 -0.090151317776834272 0.22511141035847454
v 0.43265888628468924 0.093317787196592561 0.26636238130415729
v 0.42012516140822642 0.14009957003761281 0.28066368504094946
v 0.41218441166892816 0.16813269341055781 0.28926439051123265
v 0.41167397426026187 0.16993467505838547 0.28981724785370699
v 0.34442997364934413 0.15901641442215536 0.29152215985226609
v 0.33745822243046847 0.13799394925745634 0.28600132217480129
v 0.29730122098972944 0.11803144518144007 0.28316893871435095
v 0.29732439817113576 0.090453819310485267 0.27526769953071561
v 0.3374349916609416 0.11519024482969478 0.27947090139939584
v 0.39414544684371966 0.11541876368275039 0.27546091162214781
v -0.30930524545343091 0.22687657733381092 0.27664840227023646
v -0.51186030727880105 0.18343301518277816 0.27207708660656188
v -0.46944684422399602 0.030728467092895902 0.31326179566927265
v -0.080553100911105596 0.13811820876266845 0.31607630697577754
v -0.077738169102400875 0.12798338694886674 0.31880968783250657
v -0.074984321316617086 0.1180684907326762 0.32148375435136989
v 0.38960269634980649 0.24670428326777519 0.32476055141416016
v 0.37387533251496202 0.30122043566715684 0.31001299945551336
v 0.35978598585663835 0.34921269074839989 0.29701175089097132
v 0.34379288388589596 0.41954989935234127 0.27831055414129097
v 0.24252013123092031 0.3801452621568534 0.28042162234300677
v 0.19837372246834867 0.36788366222630392 0.28011976217910145
v 0.0014707062057736228 0.31319413973176963 0.27877339709614596
v -0.085165674466648841 0.28913101274702291 0.278181002919691
v -0.1164250043765388 0.28044877995069073 0.27796726078212353
v -0.28583116876606429 0.23339646752778601 0.27680891111822081
v -0.11982306629693933 0.27950497324994433 0.27794402583753686
v -0.14176848840490516 0.2734096645839364 0.27779396947280532
v -0.21352060065944456 0.25348062120545312 0.27730334959948
v -0.14644457562258373 -0.054845140268796284 0.28620588595913149
v -0.1896539143644359 -0.066846470409424597 0.2854628192282363
v -0.18311562129273667 -0.090386804608230009 0.27794303521864117
v -0.13411593651116335 -0.099232915525808651 0.27202654259579467
v -0.080553100911105596 0.13811820876266845 0.3399120658030691
v -0.46944684422399602 0.030728467092895902 0.33341239896024788
v -0.46924441212696533 0.029999634860016139 0.33317957896058181
v -0.45934755948776396 -0.0033182999412711828 0.32249372528780723
v -0.069316074065863403 0.097660651643180385 0.32698820123522615
v -0.074984321316617086 0.1180684907326762 0.33350733304186736
v -0.077738169102400875 0.12798338694886674 0.33667457260592232
v 0.40755620885068466 0.18447157633933575 -0.32793787091233068
v 0.38960269517096607 0.24670428238364486 -0.32793787091233068
v -0.069316074409691855 0.097660652871139161 0.30954350361653754
v 0.042665325092199405 -0.30151368721925098 0.1874794794879393
v 0.041633601553879337 -0.30180024691869528 -0.32793787091233068
v 0.042665325092199405 -0.30151368721925098 -0.32793787091233068
v 0.09526429454829291 -0.28690440101085629 -0.32793787091233068
v 0.26786856295074662 -0.2535689468236178 -0.32793787091233068
v 0.44191446074044666 -0.21002496205734672 -0.32793787091233068
v 0.51385099589787309 -0.176260310494258 -0.32793787091233068
v 0.48350195864866768 -0.066992269588469419 -0.32793787091233068
v 0.47041475876647126 -0.042834147910058545 -0.32793787091233068
v 0.43429772187116833 0.087200878539417326 -0.32793787091233068
v 0.4326588876600031 0.093317787687776071 -0.32793787091233068
v 0.41167397426026187 0.16993467505838547 -0.32793787091233068
v -0.41436626711056429 -0.16301236683100606 -0.32793787091233068
v -0.4015486362026689 -0.20916069781009994 -0.32793787091233068
v -0.38128971015005669 -0.30350118892656386 -0.32793787091233068
v -0.36798749095493938 -0.32960811284794883 -0.32793787091233068
v -0.34582117881054764 -0.40941524092385084 -0.32793787091233068
v -0.29362448692705256 -0.39491768673269256 0.19252005463308641
v -0.29362448692705256 -0.39491768673269256 -0.32793787091233068
v -0.26359565289332565 -0.38657722236721387 0.19273917670359944
v -0.26359565289332565 -0.38657722236721387 -0.32793787091233068
v -0.24077468562475832 -0.3802387323328274 0.19290570259865555
v -0.24077468562475832 -0.3802387323328274 -0.32793787091233068
v -0.16845938481769934 -0.36015326414986043 0.19343339135443358
v -0.16845938481769934 -0.36015326414986043 -0.32793787091233068
v -0.12217380616440707 -0.34729751293209854 0.1937711397921156
v -0.12217380616440707 -0.34729751293209854 -0.32793787091233068
v -0.096172480115038955 -0.34007568294957408 0.19396087292900863
v -0.096172480115038955 -0.34007568294957408 -0.32793787091233068
v -0.02448662532281996 -0.32016504244881494 0.19448396857869996
v -0.02448662532281996 -0.32016504244881494 -0.32793787091233068
v 0.006517140089548349 -0.31155379234925312 0.19471020480376466
v 0.006517140089548349 -0.31155379234925312 -0.32793787091233068
v -0.4593475597824741 -0.003318300972756546 -0.32793787091233068
v -0.4467984959818817 -0.045564951035746017 -0.32793787091233068
v -0.42116952534267743 -0.13715986737022445 -0.32793787091233068
v 0.42012516140822642 0.14009957003761281 -0.32793787091233068
v 0.41218441299512359 0.16813269232995409 -0.32793787091233068
v 0.42512731283945515 0.12142916862728634 0.27495609851022151
v 0.42512731283945515 0.12142916862728634 -0.32793787091233068
v -0.1164250043765388 0.28044877995069073 -0.32793787091233068
v -0.11982306629693933 0.27950497324994433 -0.32793787091233068
v -0.14176848840490516 0.2734096645839364 -0.32793787091233068
v -0.21352060065944456 0.25348062120545312 -0.32793787091233068
v -0.28583116876606429 0.23339646752778601 -0.32793787091233068
v -0.30930524545343091 0.22687657733381092 -0.32793787091233068
v -0.51186030727880105 0.18343301518277816 -0.32793787091233068
v -0.46944684422399602 0.030728467092895902 -0.32793787091233068
v 0.37387533251496202 0.30122043566715684 -0.32793787091233068
v 0.35978598585663835 0.34921269074839989 -0.32793787091233068
v 0.34379288388589596 0.41954989935234127 -0.32793787091233068
v 0.24252013123092031 0.3801452621568534 -0.32793787091233068
v 0.19837372246834867 0.36788366222630392 -0.32793787091233068
v 0.0014707062057736228 0.31319413973176963 -0.32793787091233068
v -0.085165674466648841 0.28913101274702291 -0.32793787091233068
v -0.46924441212696533 0.029999634860016139 -0.32793787091233068
l 1 104
l 2 104
l 3 4
l 4 5
l 5 6
l 6 7
l 3 8
l 9 10
l 10 11
l 9 12
l 2 105
l 13 105
l 13 14
l 14 15
l 15 16
l 16 17
l 17 18
l 18 19
l 19 20
l 20 21
l 21 22
l 22 23
l 24 25
l 25 26
l 26 27
l 27 28
l 28 29
l 1 29
l 7 8
l 11 12
l 23 24
l 30 31
l 31 32
l 32 33
l 33 34
l 35 36
l 35 37
l 34 38
l 38 39
l 40 41
l 41 42
l 40 43
l 39 44
l 44 45
l 45 122
l 122 124
l 124 126
l 126 128
l 128 130
l 130 132
l 132 134
l 134 136
l 46 136
l 36 47
l 37 47
l 42 43
l 30 46
l 48 49
l 49 50
l 50 51
l 51 52
l 52 53
l 48 53
l 54 55
l 55 56
l 56 57
l 54 57
l 58 59
l 59 60
l 60 61
l 58 61
l 62 143
l 63 143
l 63 64
l 64 65
l 65 66
l 66 67
l 67 68
l 68 69
l 69 70
l 70 71
l 62 71
l 72 73
l 73 74
l 74 75
l 76 77
l 77 78
l 78 79
l 79 80
l 80 81
l 81 82
l 82 83
l 83 84
l 84 85
l 85 86
l 72 87
l 75 76
l 86 88
l 88 89
l 89 90
l 87 90
l 91 92
l 92 93
l 93 94
l 91 94
l 95 96
l 96 97
l 97 98
l 98 99
l 99 100
l 100 101
l 95 101
l 102 103
l 1 77
l 29 78
l 30 99
l 2 46
l 106 107
l 107 108
l 108 109
l 109 110
l 15 110
l 110 111
l 16 111
l 111 112
l 17 112
l 112 113
l 18 113
l 113 114
l 114 115
l 20 62
l 21 71
l 22 70
l 23 69
l 24 68
l 25 67
l 26 66
l 27 65
l 102 116
l 7 51
l 6 52
l 8 50
l 3 49
l 4 48
l 5 53
l 11 59
l 12 58
l 9 61
l 10 60
l 117 118
l 118 119
l 39 119
l 119 120
l 44 120
l 120 121
l 45 121
l 121 123
l 123 125
l 125 127
l 127 129
l 129 131
l 131 133
l 133 135
l 135 137
l 106 137
l 31 98
l 138 139
l 139 140
l 117 140
l 41 55
l 42 54
l 43 57
l 40 56
l 37 94
l 47 91
l 35 93
l 36 92
l 141 142
l 116 142
l 115 144
l 141 144
l 145 146
l 146 147
l 147 148
l 148 149
l 149 150
l 150 151
l 73 151
l 151 152
l 75 95
l 74 96
l 103 153
l 153 154
l 154 155
l 81 155
l 155 156
l 156 157
l 157 158
l 158 159
l 145 159
l 138 160
l 152 160
