# pointcloud_to_mesh 0.4.1; candidate requires geometry validation; coordinates preserved
v -2.547811834 -7.932166686 3.924589843
v -2.467452157 -7.996196929 3.924583278
v -1.127388506 -7.625465798 3.924522403
v -1.092159976 -7.550375723 3.924523011
v 0.572400363 -7.113791775 3.924446588
v 1.629634186 -6.911425018 3.924395516
v 1.610307972 -6.841567500 3.924398935
v 3.030034409 -6.469199062 3.924333752
v 2.129561176 -6.815733221 3.924371366
v 3.775205736 -6.500737857 3.924291870
v 4.044182276 -6.203206521 3.924287191
v 4.248139029 -5.977597532 3.924283642
v 4.396473022 -5.060857772 3.924306495
v 4.316047134 -4.770146258 3.924320724
v 4.190016523 -4.314589587 3.924343021
v 3.764597205 -4.329148914 3.924365832
v 3.416370179 -3.070429748 3.924427440
v 7.386147485 -1.972183384 3.924247106
v 8.206538728 -1.745220603 3.924209839
v 8.126625054 -1.452580504 3.924224105
v 7.908094318 -0.652331078 3.924263116
v 7.995641665 -0.628110940 3.924259139
v 7.401309320 1.520193057 3.924364288
v 7.082598933 2.672219871 3.924420674
v 6.686164061 4.105193573 3.924490811
v 6.582175899 4.481074488 3.924509208
v 4.824402534 3.994783178 3.924589058
v 3.916799184 7.275452526 3.924749630
v 3.831093424 7.251741866 3.924753523
v 3.038928803 10.147669816 3.924894772
v 3.068219764 10.246760037 3.924896516
v 3.013612786 10.240217994 3.924899286
v 2.952017856 10.465391455 3.924910268
v 1.469371253 10.055214481 3.924977620
v -2.741903344 8.890157437 3.925168924
v -2.529767492 8.123360371 3.925131393
v -3.518951127 8.012994438 3.925181846
v -3.960468521 7.519937951 3.925189369
v -4.934218559 8.372775938 3.925271525
v -6.737386773 7.873926058 3.925353437
v -6.823679275 7.688242882 3.925351889
v -5.019121303 8.121231162 3.925267675
v -5.077396115 7.396142764 3.925246366
v -7.103779764 6.835539913 3.925338417
v -6.433322752 4.412071810 3.925219801
v -5.641199590 1.548823037 3.925079659
v -6.303617417 1.365563898 3.925109751
v -6.763394710 0.794190501 3.925115627
v -6.783484282 0.769224832 3.925115884
v -7.068489811 0.777429023 3.925131773
v -6.945783779 0.333889544 3.925110064
v -6.845448534 -0.028787349 3.925092312
v -5.658785460 0.299505224 3.925038406
v -4.890783824 -1.400668677 3.924938888
v -6.353931152 -1.805451139 3.925005354
v -6.230638520 -2.251110972 3.924983541
v -5.636306176 -4.399414970 3.924878392
v -4.516140356 -8.448423459 3.924680214
v -3.476987397 7.861310201 3.925174422
v -4.775596616 7.799412973 3.925243462
v -5.207149556 -0.177634277 3.924997545
v -5.135112819 -0.438021938 3.924984800
v -4.881759788 -1.353804723 3.924939977
v -3.350587954 8.201010997 3.925178977
v -3.484412720 8.684740820 3.925202653
v -2.745929552 8.904710775 3.925169636
v -3.693149457 8.642660605 3.925212665
v 5.567438516 -7.235255082 3.762089886
v 9.520934701 -6.141512921 3.758991114
v 9.387883180 -5.660578110 3.759848079
v 9.198651387 -4.976571225 3.761066894
v 9.166335066 -4.859759002 3.761275039
v 7.995641665 -0.628110940 3.768815306
v 7.908094318 -0.652331078 3.768883926
v 8.126625055 -1.452580456 3.767461373
v 8.206538728 -1.745220603 3.766941166
v 7.386147485 -1.972183384 3.767584193
v 3.416370179 -3.070429748 3.770695727
v 3.764597205 -4.329148914 3.768452847
v 4.190016523 -4.314589587 3.767969468
v 2.129561176 -6.815733221 3.766777073
v 3.030034409 -6.469199062 3.766212898
v 1.610307968 -6.841567486 3.767355347
v 1.629634186 -6.911425018 3.767230869
v 1.992811017 -8.224182508 3.764891700
v 2.084564512 -8.198798731 3.764819783
v 4.718525927 -7.470108348 3.762755269
v 5.107803623 -7.362413941 3.762450151
v 4.316047134 -4.770146258 3.767157723
v 4.396473022 -5.060857772 3.766639712
v 4.248139029 -5.977597532 3.765482908
v 4.044182276 -6.203206521 3.765396817
v 3.775205736 -6.500737857 3.765283280
v 3.068219764 10.246760037 3.790468729
v 3.038928789 10.147669859 3.790359414
v 3.831093424 7.251741866 3.785209906
v 3.916799184 7.275452526 3.785142729
v 3.001703353 10.583204575 3.791036729
v -2.768646966 8.986826298 3.795559563
v -2.745929552 8.904710775 3.795413243
v 1.369484565 10.043247837 3.792187558
v 1.469371253 10.055214481 3.792086490
v 2.952017856 10.465391455 3.790924383
v 3.013612774 10.240218000 3.790523982
v -7.285014070 6.695548175 0.394061247
v -8.284857303 6.418939663 0.393889401
v -7.650896579 4.075227719 0.391057269
v -7.957375292 3.990439806 0.391004593
v -7.068489811 0.777429023 0.387119014
v -6.783484282 0.769224832 0.387066364
v -6.763394728 0.794190462 0.387092476
v -6.303617417 1.365563898 0.387690081
v -5.641199590 1.548823037 0.387803933
v -6.433322752 4.412071810 0.391266536
v -7.103779764 6.835539913 0.394197301
v -5.077396115 7.396142764 0.394545581
v -5.019121303 8.121231162 0.395383328
v -6.823679275 7.688242882 0.395150517
v -3.476987397 7.861310201 0.394846813
v -2.529767492 8.123360371 0.395009614
v -2.741903344 8.890157437 0.395936922
v -3.484412720 8.684740820 0.395809305
v -3.350587954 8.201010997 0.395224318
v -3.518951136 8.012994471 0.395030248
v 1.469371253 10.055214481 0.396660724
v 1.369484565 10.043247837 0.396661848
v -2.745929552 8.904710775 0.395954522
v -2.716370154 -8.066305637 1.228695955
v -2.340999550 -9.423139359 1.260619076
v -1.586635468 -9.214443116 1.259890012
v 1.345042907 -8.403388775 1.257056655
v 1.992811017 -8.224182508 1.256430611
v 1.629634186 -6.911425018 1.225544501
v 0.572400363 -7.113791775 1.224574348
v -1.092159994 -7.550375683 1.225654375
v -1.127388506 -7.625465798 1.227132744
v -2.467452157 -7.996196929 1.228427865
v -2.547811834 -7.932166686 1.226598855
v -4.516140356 -8.448423459 1.227875977
v -4.486383743 -8.555983228 1.230406607
v -5.207149556 -0.177634277 1.041506385
v -5.658785460 0.299505224 1.028634783
v -6.845448534 -0.028787349 1.029781648
v -6.627153383 -0.817848131 1.048346401
v -6.353931152 -1.805451139 1.071582388
v -4.890783824 -1.400668677 1.070168312
v -4.881759784 -1.353804735 1.069178922
v -5.135112819 -0.438021938 1.047632697
v -8.530270077 6.061254507 1.654513460
v -7.957375292 3.990439806 1.472038649
v -7.650896579 4.075227719 1.472448342
v -8.284857303 6.418939663 1.678661269
v -7.285014070 6.695548175 1.679997834
v -6.823679275 7.688242882 1.751719663
v -6.737386773 7.873926058 1.765135204
v -4.934218559 8.372775938 1.767545633
v -4.775596616 7.799412973 1.717022378
v -3.960468521 7.519937951 1.676604424
v -3.518951136 8.012994471 1.707682029
v -3.693149457 8.642660605 1.763166573
v -2.745929552 8.904710775 1.764432792
v -2.768646966 8.986826298 1.771668598
v -6.772067847 7.879272375 1.766316929
v -8.802692399 7.045966124 1.741283688
v -1.092159976 -7.550375723 -3.790092824
v 1.610307972 -6.841567500 -3.790092824
v 8.126625054 -1.452580504 -3.790092824
v 7.995641665 -0.628110940 -3.790092824
v 7.401309320 1.520193057 -3.790092824
v 7.082598933 2.672219871 -3.790092824
v 6.686164061 4.105193573 -3.790092824
v 6.582175899 4.481074488 -3.790092824
v 4.824402534 3.994783178 -3.790092824
v 3.916799184 7.275452526 -3.790092824
v 3.013612786 10.240217994 -3.790092824
v -3.518951127 8.012994438 -3.790092824
v -7.068489811 0.777429023 -3.790092824
v -6.945783779 0.333889544 -3.790092824
v -6.845448534 -0.028787349 -3.790092824
v -6.353931152 -1.805451139 -3.790092824
v -6.230638520 -2.251110972 -3.790092824
v -5.636306176 -4.399414970 -3.790092824
v -4.516140356 -8.448423459 -3.790092824
v 5.107803623 -7.362413941 -3.790092824
v 5.567438516 -7.235255082 -3.790092824
v 9.520934701 -6.141512921 -3.790092824
v 9.387883180 -5.660578110 -3.790092824
v 9.198651387 -4.976571225 -3.790092824
v 9.166335066 -4.859759002 -3.790092824
v 1.992811017 -8.224182508 -3.790092824
v 2.084564512 -8.198798731 -3.790092824
v 4.718525927 -7.470108348 -3.790092824
v 3.001703353 10.583204575 -3.790092824
v -2.768646966 8.986826298 -3.790092824
v 3.038928789 10.147669859 -3.790092824
v -7.957375292 3.990439806 -3.790092824
v -6.763394728 0.794190462 -3.790092824
v -2.340999550 -9.423139359 -3.790092824
v -1.586635468 -9.214443116 -3.790092824
v 1.345042907 -8.403388775 -3.790092824
v -4.486383743 -8.555983228 -3.790092824
v -2.716370154 -8.066305637 -3.790092824
v -6.627153383 -0.817848131 -3.790092824
v -4.881759784 -1.353804735 -3.790092824
v -5.207149544 -0.177634319 -3.790092824
v -8.802692399 7.045966124 -3.790092824
v -8.530270077 6.061254507 -3.790092824
v -6.772067847 7.879272375 -3.790092824
g roof
f 1 2 3
g roof
f 1 3 4
g roof
f 5 6 7
g roof
f 8 9 10
g roof
f 8 10 11
g roof
f 8 11 12
g roof
f 8 12 13
g roof
f 8 13 14
g roof
f 8 14 15
g roof
f 8 15 16
g roof
f 8 16 17
g roof
f 18 19 20
g roof
f 18 20 21
g roof
f 21 22 23
g roof
f 21 23 24
g roof
f 21 24 25
g roof
f 21 25 26
g roof
f 21 26 27
g roof
f 27 28 29
g roof
f 30 31 32
g roof
f 30 32 33 34
g roof
f 30 34 35
g roof
f 30 35 36
g roof
f 39 40 41
g roof
f 39 41 42
g roof
f 39 42 43
g roof
f 43 44 45
g roof
f 43 45 46
g roof
f 46 47 48
g roof
f 46 48 49
g roof
f 49 50 51
g roof
f 49 51 52
g roof
f 49 52 53
g roof
f 54 55 56
g roof
f 54 56 57
g roof
f 54 57 58
g roof
f 54 58 1
g roof
f 54 1 4
g roof
f 54 4 5
g roof
f 54 5 7 8
g roof
f 54 8 17
g roof
f 54 17 18
g roof
f 54 18 21
g roof
f 54 21 27
g roof
f 54 27 29
g roof
f 54 29 30
g roof
f 54 30 36
g roof
f 59 37 38
g roof
f 60 39 43
g roof
f 60 43 46
g roof
f 46 49 53
g roof
f 46 53 61
g roof
f 46 61 62
g roof
f 46 62 63
g roof
f 63 54 36
g roof
f 63 36 59
g roof
f 63 59 38
g roof
f 63 38 60
g roof
f 63 60 46
g roof
f 37 64 65
g roof
f 65 35 66
g roof
f 65 66 67
g roof
f 65 67 37
g roof
f 68 69 70
g roof
f 68 70 71
g roof
f 68 71 72
g roof
f 72 73 74
g roof
f 72 74 75
g roof
f 72 75 76
g roof
f 72 76 77
g roof
f 72 77 78
g roof
f 78 79 80
g roof
f 81 82 83
g roof
f 81 83 84
g roof
f 81 84 85
g roof
f 81 85 86
g roof
f 81 86 87
g roof
f 81 87 88
g roof
f 81 88 68
g roof
f 72 78 80
g roof
f 72 80 89
g roof
f 72 89 90
g roof
f 72 90 91
g roof
f 72 91 92
g roof
f 72 92 93
g roof
f 93 81 68
g roof
f 93 68 72
g roof
f 94 95 96
g roof
f 94 96 97
g roof
f 94 97 98
g roof
f 98 99 100
g roof
f 98 100 101
g roof
f 98 101 102
g roof
f 98 102 103
g roof
f 98 103 104
g roof
f 98 104 94
g roof
f 105 106 107
g roof
f 107 108 109
g roof
f 107 109 110
g roof
f 107 110 111
g roof
f 107 111 112
g roof
f 107 112 113
g roof
f 107 113 114
g roof
f 107 114 115
g roof
f 115 116 117
g roof
f 115 117 118
g roof
f 115 118 105
g roof
f 115 105 107
g roof
f 119 120 121
g roof
f 121 122 123
g roof
f 123 124 119
g roof
f 123 119 121
g roof
f 121 125 126
g roof
f 121 126 127
g roof
f 128 129 130
g roof
f 128 130 131
g roof
f 128 131 132
g roof
f 128 132 133
g roof
f 133 134 135
g roof
f 133 135 136
g roof
f 133 136 137
g roof
f 137 138 139
g roof
f 137 139 140
g roof
f 137 140 128
g roof
f 137 128 133
g roof
f 141 142 143
g roof
f 141 143 144
g roof
f 141 144 145
g roof
f 141 145 146
g roof
f 146 147 148
g roof
f 146 148 141
g roof
f 149 150 151
g roof
f 149 151 152
g roof
f 152 153 154
g roof
f 152 154 155
g roof
f 156 157 158
g roof
f 156 158 159
g roof
f 156 159 160
g roof
f 156 160 161
g roof
f 156 161 162
g roof
f 156 162 163
g roof
f 164 149 152
g roof
f 164 152 155
g roof
f 155 156 163
g roof
f 155 163 164
g roof_step_or_fixture_side
f 4 3 136 135
g roof_step_or_fixture_side
f 5 4 135 134
g roof_step_or_fixture_side
f 6 5 134 133 84
g roof_step_or_fixture_side
f 7 6 84 83
g roof_step_or_fixture_side
f 8 7 83 82
g roof_step_or_fixture_side
f 9 8 82 81
g roof_step_or_fixture_side
f 10 9 81 93
g roof_step_or_fixture_side
f 11 10 93 92
g roof_step_or_fixture_side
f 12 11 92 91
g roof_step_or_fixture_side
f 13 12 91 90
g roof_step_or_fixture_side
f 14 13 90 89
g roof_step_or_fixture_side
f 15 14 89 80
g roof_step_or_fixture_side
f 16 15 80 79
g roof_step_or_fixture_side
f 17 16 79 78
g roof_step_or_fixture_side
f 18 17 78 77
g roof_step_or_fixture_side
f 19 18 77 76
g roof_step_or_fixture_side
f 20 19 76 75
g roof_step_or_fixture_side
f 21 20 75 74
g roof_step_or_fixture_side
f 22 21 74 73
g facade_completed
f 23 22 73 168 169
g facade_completed
f 24 23 169 170
g facade_completed
f 25 24 170 171
g facade_completed
f 26 25 171 172
g facade_completed
f 27 26 172 173
g facade_completed
f 28 27 173 174 97
g roof_step_or_fixture_side
f 29 28 97 96
g roof_step_or_fixture_side
f 30 29 96 95
g roof_step_or_fixture_side
f 31 30 95 94
g roof_step_or_fixture_side
f 32 31 94 104
g roof_step_or_fixture_side
f 33 32 104 103
g roof_step_or_fixture_side
f 34 33 103 102
g roof_step_or_fixture_side
f 35 34 102 125 121
g roof_step_or_fixture_side
f 36 35 121 120
g roof_step_or_fixture_side
f 59 36 120 119
g roof_step_or_fixture_side
f 37 59 119 124 159
g roof_step_or_fixture_side
f 38 37 159 158
g roof_step_or_fixture_side
f 60 38 158 157
g roof_step_or_fixture_side
f 39 60 157 156
g roof_step_or_fixture_side
f 40 39 156 155
g roof_step_or_fixture_side
f 41 40 155 154
g roof_step_or_fixture_side
f 42 41 154 118 117
g roof_step_or_fixture_side
f 43 42 117 116
g roof_step_or_fixture_side
f 44 43 116 115
g roof_step_or_fixture_side
f 45 44 115 114
g roof_step_or_fixture_side
f 46 45 114 113
g roof_step_or_fixture_side
f 47 46 113 112
g roof_step_or_fixture_side
f 48 47 112 111
g roof_step_or_fixture_side
f 49 48 111 110
g roof_step_or_fixture_side
f 50 49 110 109
g facade_completed
f 51 50 109 177 178
g facade_completed
f 52 51 178 179 143
g roof_step_or_fixture_side
f 53 52 143 142
g roof_step_or_fixture_side
f 61 53 142 141
g roof_step_or_fixture_side
f 62 61 141 148
g roof_step_or_fixture_side
f 63 62 148 147
g roof_step_or_fixture_side
f 54 63 147 146
g roof_step_or_fixture_side
f 55 54 146 145
g facade_completed
f 56 55 145 180 181
g facade_completed
f 57 56 181 182
g facade_completed
f 58 57 182 183 139
g roof_step_or_fixture_side
f 1 58 139 138
g roof_step_or_fixture_side
f 2 1 138 137
g roof_step_or_fixture_side
f 3 2 137 136
g roof_step_or_fixture_side
f 35 65 122 121
g roof_step_or_fixture_side
f 66 35 121 127 161 100
g roof_step_or_fixture_side
f 67 66 100 161 160
g roof_step_or_fixture_side
f 37 67 160 159
g roof_step_or_fixture_side
f 64 37 159 124 123
g roof_step_or_fixture_side
f 65 64 123 122
g facade_completed
f 68 88 184 185
g facade_completed
f 69 68 185 186
g facade_completed
f 70 69 186 187
g facade_completed
f 71 70 187 188
g facade_completed
f 72 71 188 189
g facade_completed
f 73 72 189 168
g roof_step_or_fixture_side
f 85 84 133 132
g facade_completed
f 86 85 132 190 191
g facade_completed
f 87 86 191 192
g facade_completed
f 88 87 192 184
g facade_completed
f 98 97 174 193
g facade_completed
f 99 98 193 194 162
g roof_step_or_fixture_side
f 100 99 162 161
g roof_step_or_fixture_side
f 101 100 161 127 126
g roof_step_or_fixture_side
f 102 101 126 125
g roof_step_or_fixture_side
f 151 150 108 107
g facade_completed
f 109 108 196 177
g roof_step_or_fixture_side
f 154 153 105 118
g roof_step_or_fixture_side
f 153 152 106 105
g roof_step_or_fixture_side
f 152 151 107 106
g facade_completed
f 130 129 198 199
g facade_completed
f 131 130 199 200
g facade_completed
f 132 131 200 190
g facade_completed
f 140 139 183 201
g facade_completed
f 128 140 201 202
g facade_completed
f 129 128 202 198
g facade_completed
f 144 143 179 203
g facade_completed
f 145 144 203 180
g facade_completed
f 149 164 206 207
g facade_completed
f 150 149 207 196 108
g facade_completed
f 163 162 194 208
g facade_completed
f 164 163 208 206
g ground_assumed
f 208 207 206
g ground_assumed
f 208 196 207
g ground_assumed
f 208 177 196
g ground_assumed
f 208 178 177
g ground_assumed
f 208 179 178
g ground_assumed
f 208 203 179
g ground_assumed
f 208 180 203
g ground_assumed
f 208 181 180
g ground_assumed
f 208 182 181
g ground_assumed
f 208 183 182
g ground_assumed
f 208 201 183
g ground_assumed
f 208 202 201
g ground_assumed
f 208 198 202
g ground_assumed
f 208 199 198
g ground_assumed
f 208 200 199
g ground_assumed
f 208 190 200
g ground_assumed
f 208 191 190
g ground_assumed
f 208 192 191
g ground_assumed
f 208 184 192
g ground_assumed
f 208 185 184
g ground_assumed
f 208 186 185
g ground_assumed
f 208 187 186
g ground_assumed
f 208 188 187
g ground_assumed
f 208 189 188
g ground_assumed
f 208 168 189
g ground_assumed
f 208 169 168
g ground_assumed
f 208 170 169
g ground_assumed
f 171 173 172
g ground_assumed
f 174 194 193
g ground_assumed
f 174 208 194
g ground_assumed
f 170 173 171
g ground_assumed
f 173 208 174
g ground_assumed
f 173 170 208
