# Source coordinates; no display transform
v 0.496932298207 -0.152166022981 0.326471204088
v -0.0401448319394 0.520386653559 0.33443641995
v -0.507922560953 0.146835660082 0.32068035196
v 0.0291545691933 -0.525717015946 0.312715136609
v 0.496932298207 -0.152166022981 -0.324072353592
v -0.0401448319394 0.520386653559 -0.324072353592
v -0.507922560953 0.146835660082 -0.324072353592
v 0.0291545691933 -0.525717015946 -0.324072353592
g roof
f 1 2 3 4
g wall
f 2 1 5 6
g wall
f 3 2 6 7
g wall
f 4 3 7 8
g wall
f 1 4 8 5
g ground_assumed
f 8 7 6 5
