v 0.49693229820654866 -0.15216602298122822 0.32647120408815677
v -0.040144831939418597 0.52038665355897862 0.33443641995018025
v -0.50792256095271626 0.1468356600820708 0.32068035195976652
v 0.029154569193251025 -0.52571701594640396 0.31271513660947525
v 0.49693229820654866 -0.15216602298122822 -0.32407235359221387
v -0.040144831939418597 0.52038665355897862 -0.32407235359221387
v -0.50792256095271626 0.1468356600820708 -0.32407235359221387
v 0.029154569193251025 -0.52571701594640396 -0.32407235359221387
l 1 2
l 2 3
l 3 4
l 1 4
l 1 5
l 5 6
l 2 6
l 6 7
l 3 7
l 7 8
l 4 8
l 5 8
