# XYZ-only planar convex-roof baseline. Provisional base; no GT.
v -4.87829955 -7.97629648 3.81779409
v 3.00843259 -5.82759712 3.81570663
v 8.92390416 -4.16305220 3.82761830
v 9.94248736 -3.66411120 3.88375781
v 10.33623251 -3.34345394 3.93801204
v 10.33581004 -3.23868055 3.96473201
v 8.92728395 1.86521976 5.36305738
v 7.89273614 5.48972628 6.35845938
v -9.66171240 0.50808176 6.31240479
v -7.40975975 -7.69239441 4.06648050
v -6.84998258 -8.39412261 3.84871950
v 7.40511254 7.19810061 5.96678254
v 6.95855823 8.27033792 5.71215448
v 6.81702966 8.38102593 5.67989370
v 5.85505789 8.37680120 5.62055370
v 3.88379733 7.89729397 5.59849104
v -10.33707746 3.92350982 5.54810715
v -10.33581004 2.96280547 5.75127623
v -4.87829955 -7.97629648 -6.85899225
v 3.00843259 -5.82759712 -6.85899225
v 8.92390416 -4.16305220 -6.85899225
v 9.94248736 -3.66411120 -6.85899225
v 10.33623251 -3.34345394 -6.85899225
v 10.33581004 -3.23868055 -6.85899225
v 8.92728395 1.86521976 -6.85899225
v 7.89273614 5.48972628 -6.85899225
v 7.40511254 7.19810061 -6.85899225
v 6.95855823 8.27033792 -6.85899225
v 6.81702966 8.38102593 -6.85899225
v 5.85505789 8.37680120 -6.85899225
v 3.88379733 7.89729397 -6.85899225
v -10.33707746 3.92350982 -6.85899225
v -10.33581004 2.96280547 -6.85899225
v -9.66171240 0.50808176 -6.85899225
v -7.40975975 -7.69239441 -6.85899225
v -6.84998258 -8.39412261 -6.85899225
g roof
f 1 2 3 4 5 6 7 8 9 10 11
g roof
f 8 12 13 14 15 16 17 18 9
g wall
f 2 1 19 20
g wall
f 3 2 20 21
g wall
f 4 3 21 22
g wall
f 5 4 22 23
g wall
f 6 5 23 24
g wall
f 7 6 24 25
g wall
f 8 7 25 26
g wall
f 10 9 34 35
g wall
f 11 10 35 36
g wall
f 1 11 36 19
g wall
f 12 8 26 27
g wall
f 13 12 27 28
g wall
f 14 13 28 29
g wall
f 15 14 29 30
g wall
f 16 15 30 31
g wall
f 17 16 31 32
g wall
f 18 17 32 33
g wall
f 9 18 33 34
g ground_assumed
f 36 35 34 33 32 31 30 29 28 27 26 25 24 23 22 21 20 19
