v -0.23687487032184792 -0.39427267049540993 0.19648826424304347
v 0.15050840433361112 -0.28873210191120935 0.19638573165081671
v 0.44106661110920842 -0.20697240087479132 0.19697081323458346
v 0.49109773788271593 -0.18246524188817087 0.1997282933715154
v 0.51043785022317456 -0.16671508615626252 0.20239317166435297
v 0.51041709919357969 -0.16156879004851193 0.20370561251990049
v 0.44123262081951764 0.089126375009143055 0.27238904835222311
v 0.39041733873420098 0.26715615715509305 0.32128155281587706
v -0.47182821994353319 0.022465994858415592 0.31901942731568045
v -0.3612160200563897 -0.38032786907375754 0.20870333052880047
v -0.3337206887401209 -0.41479560085526074 0.19800726937510602
v 0.36646607176911244 0.35106868652023082 0.30204303245123054
v 0.34453206059077557 0.40373521468198986 0.28953612211739399
v 0.33758041066395245 0.40917202716880224 0.28795152581343747
v 0.29032994395941086 0.40896451539930329 0.28503684288646602
v 0.1935048765707327 0.38541191114179796 0.2839531614165372
v -0.50500103777054772 0.19022618789483606 0.28147838784091522
v -0.50493878419057969 0.1430379747702625 0.29145771795154035
v -0.23687487032184792 -0.39427267049540993 -0.32793787091233068
v 0.15050840433361112 -0.28873210191120935 -0.32793787091233068
v 0.44106661110920842 -0.20697240087479132 -0.32793787091233068
v 0.49109773788271593 -0.18246524188817087 -0.32793787091233068
v 0.51043785022317456 -0.16671508615626252 -0.32793787091233068
v 0.51041709919357969 -0.16156879004851193 -0.32793787091233068
v 0.44123262081951764 0.089126375009143055 -0.32793787091233068
v 0.39041733873420098 0.26715615715509305 -0.32793787091233068
v 0.36646607176911244 0.35106868652023082 -0.32793787091233068
v 0.34453206059077557 0.40373521468198986 -0.32793787091233068
v 0.33758041066395245 0.40917202716880224 -0.32793787091233068
v 0.29032994395941086 0.40896451539930329 -0.32793787091233068
v 0.1935048765707327 0.38541191114179796 -0.32793787091233068
v -0.50500103777054772 0.19022618789483606 -0.32793787091233068
v -0.50493878419057969 0.1430379747702625 -0.32793787091233068
v -0.47182821994353319 0.022465994858415592 -0.32793787091233068
v -0.3612160200563897 -0.38032786907375754 -0.32793787091233068
v -0.3337206887401209 -0.41479560085526074 -0.32793787091233068
l 1 2
l 2 3
l 3 4
l 4 5
l 5 6
l 6 7
l 7 8
l 8 9
l 9 10
l 10 11
l 1 11
l 8 12
l 12 13
l 13 14
l 14 15
l 15 16
l 16 17
l 17 18
l 9 18
l 19 20
l 20 21
l 3 21
l 21 22
l 4 22
l 22 23
l 5 23
l 23 24
l 6 24
l 24 25
l 25 26
l 34 35
l 10 35
l 35 36
l 11 36
l 19 36
l 26 27
l 27 28
l 13 28
l 28 29
l 14 29
l 29 30
l 15 30
l 30 31
l 31 32
l 17 32
l 32 33
l 18 33
l 33 34
