# pointcloud_to_mesh 0.5.1; candidate requires geometry validation; coordinates preserved
v 6.564253433 -3.851729700 5.346534986
v -0.719887833 7.146673514 5.347517894
v -7.069577707 2.941332326 5.356271456
v -0.866312934 -6.425043849 5.355434399
v 2.270097036 -4.347828379 5.351110604
v 2.971355349 -5.406665845 5.351015978
v 4.542603450 -4.366042683 5.348849885
v 5.763288745 -4.382201244 5.347639181
v -7.069577707 2.941332326 -5.136354000
v -0.866312934 -6.425043849 -5.136354000
v 2.270097036 -4.347828379 -5.136354000
v 2.971355349 -5.406665845 -5.136354000
v 4.542603450 -4.366042683 -5.136354000
v 5.763288745 -4.382201244 -5.136354000
v 6.564253433 -3.851729700 -5.136354000
v -0.719887833 7.146673514 -5.136354000
g roof
f 1 2 3
g roof
f 3 4 5
g roof
f 5 6 7
g roof
f 7 8 1
g roof
f 7 1 3
g roof
f 7 3 5
g facade_completed
f 4 3 9 10
g facade_completed
f 5 4 10 11
g facade_completed
f 6 5 11 12
g facade_completed
f 7 6 12 13
g facade_completed
f 8 7 13 14
g facade_completed
f 1 8 14 15
g facade_completed
f 2 1 15 16
g facade_completed
f 3 2 16 9
g ground_assumed
f 16 10 9
g ground_assumed
f 16 11 10
g ground_assumed
f 16 12 11
g ground_assumed
f 16 13 12
g ground_assumed
f 16 14 13
g ground_assumed
f 16 15 14
