# Source coordinates; no display transform
v -0.0491031622971 -0.487454639865 0.241255014145
v 0.23730430292 -0.275500259057 0.237972312493
v 0.348315189418 -0.183701399604 0.239896430596
v 0.445163296804 0.027350959137 0.284975054956
v 0.445235873595 0.0513634005832 0.292913802053
v 0.337329987678 0.188373157738 0.366016507408
v -0.0443949248286 -0.111438746934 0.364652657579
v -0.0868842584338 -0.503158539365 0.245749445916
v -0.0830067391925 -0.507890098266 0.243186109217
v 0.251840331813 0.296920684264 0.306518669864
v 0.0925246241831 0.492078797065 0.198041775085
v 0.0759357181405 0.484240539281 0.196233644189
v 0.0440953862861 0.460850181663 0.195574942113
v -0.00427164322809 0.421430792931 0.195884341993
v -0.445804345493 -0.0476322401968 0.235503188107
v -0.450077760241 -0.0521721100206 0.23274993548
v -0.450036288158 -0.0600207362123 0.230692280893
v -0.0491031622971 -0.487454639865 -0.36376806646
v 0.23730430292 -0.275500259057 -0.36376806646
v 0.348315189418 -0.183701399604 -0.36376806646
v 0.445163296804 0.027350959137 -0.36376806646
v 0.445235873595 0.0513634005832 -0.36376806646
v 0.337329987678 0.188373157738 -0.36376806646
v 0.251840331813 0.296920684264 -0.36376806646
v 0.0925246241831 0.492078797065 -0.36376806646
v 0.0759357181405 0.484240539281 -0.36376806646
v 0.0440953862861 0.460850181663 -0.36376806646
v -0.00427164322809 0.421430792931 -0.36376806646
v -0.445804345493 -0.0476322401968 -0.36376806646
v -0.450077760241 -0.0521721100206 -0.36376806646
v -0.450036288158 -0.0600207362123 -0.36376806646
v -0.0868842584338 -0.503158539365 -0.36376806646
v -0.0830067391925 -0.507890098266 -0.36376806646
g roof
f 1 2 3 4 5 6 7 8 9
g roof
f 6 10 11 12 13 14 15 7
g roof
f 15 16 17 8 7
g wall
f 2 1 18 19
g wall
f 3 2 19 20
g wall
f 4 3 20 21
g wall
f 5 4 21 22
g wall
f 6 5 22 23
g wall
f 9 8 32 33
g wall
f 1 9 33 18
g wall
f 10 6 23 24
g wall
f 11 10 24 25
g wall
f 12 11 25 26
g wall
f 13 12 26 27
g wall
f 14 13 27 28
g wall
f 15 14 28 29
g wall
f 16 15 29 30
g wall
f 17 16 30 31
g wall
f 8 17 31 32
g ground_assumed
f 33 32 31 30 29 28 27 26 25 24 23 22 21 20 19 18
