v -0.049103162297122006 -0.48745463986463494 0.24125501414518477
v 0.23730430291972071 -0.27550025905707798 0.23797231249317877
v 0.3483151894183481 -0.18370139960350246 0.2398964305961877
v 0.44516329680437677 0.027350959136982517 0.28497505495643921
v 0.4452358735951325 0.051363400583212766 0.29291380205322753
v 0.33732998767833899 0.18837315773784405 0.36601650740797748
v -0.044394924828557586 -0.11143874693394556 0.36465265757909526
v -0.086884258433769609 -0.50315853936487598 0.24574944591566053
v -0.083006739192530862 -0.50789009826638798 0.24318610921731029
v 0.25184033181303089 0.29692068426382129 0.30651866986424947
v 0.092524624183058068 0.49207879706451985 0.19804177508466339
v 0.075935718140529698 0.48424053928076016 0.19623364418931069
v 0.044095386286075233 0.46085018166271707 0.19557494211347692
v -0.0042716432280888936 0.42143079293131319 0.19588434199303661
v -0.44580434549305814 -0.047632240196772008 0.23550318810693543
v -0.4500777602411955 -0.052172110020630255 0.23274993548045181
v -0.45003628815804991 -0.060020736212326897 0.23069228089344335
v -0.049103162297122006 -0.48745463986463494 -0.36376806645954668
v 0.23730430291972071 -0.27550025905707798 -0.36376806645954668
v 0.3483151894183481 -0.18370139960350246 -0.36376806645954668
v 0.44516329680437677 0.027350959136982517 -0.36376806645954668
v 0.4452358735951325 0.051363400583212766 -0.36376806645954668
v 0.33732998767833899 0.18837315773784405 -0.36376806645954668
v 0.25184033181303089 0.29692068426382129 -0.36376806645954668
v 0.092524624183058068 0.49207879706451985 -0.36376806645954668
v 0.075935718140529698 0.48424053928076016 -0.36376806645954668
v 0.044095386286075233 0.46085018166271707 -0.36376806645954668
v -0.0042716432280888936 0.42143079293131319 -0.36376806645954668
v -0.44580434549305814 -0.047632240196772008 -0.36376806645954668
v -0.4500777602411955 -0.052172110020630255 -0.36376806645954668
v -0.45003628815804991 -0.060020736212326897 -0.36376806645954668
v -0.086884258433769609 -0.50315853936487598 -0.36376806645954668
v -0.083006739192530862 -0.50789009826638798 -0.36376806645954668
l 1 2
l 2 3
l 3 4
l 4 5
l 5 6
l 6 7
l 7 8
l 8 9
l 1 9
l 6 10
l 10 11
l 11 12
l 12 13
l 13 14
l 14 15
l 7 15
l 15 16
l 16 17
l 8 17
l 18 19
l 19 20
l 3 20
l 20 21
l 4 21
l 21 22
l 5 22
l 22 23
l 32 33
l 9 33
l 18 33
l 23 24
l 24 25
l 11 25
l 25 26
l 12 26
l 26 27
l 27 28
l 28 29
l 29 30
l 16 30
l 30 31
l 17 31
l 31 32
