# Source coordinates; no display transform
v 0.478122220982 -0.43206708179 0.191690164707
v 0.459306314315 -0.0636386738364 0.190890955901
v 0.446525219363 0.186164400987 0.190349005496
v 0.430339220025 0.489073815504 0.189689847893
v 0.419171642779 0.500406555547 0.189634586158
v 0.398399187121 0.507013085909 0.189561049607
v 0.339118282351 0.504421293221 0.189394536071
v 0.222309744852 0.498932791201 0.189067204937
v -0.0279380004621 0.486532842176 0.188367236074
v -0.367640706206 0.469190699854 0.187418082146
v -0.429818320307 0.465506288747 0.18724538485
v -0.473904205439 0.45361453429 0.187141693299
v -0.473916910157 0.439410494352 0.187170366373
v -0.47394232008 0.366014483646 0.187318646394
v -0.470270613691 0.289429551682 0.187484083226
v -0.458823529238 0.0620124507096 0.187976920186
v -0.430186761515 -0.495654935673 0.189187086404
v -0.415004446596 -0.507788082696 0.189255598012
v -0.411294626051 -0.508944225679 0.189268683172
v -0.340007622902 -0.505983991784 0.189469236783
v -0.252318638257 -0.502185236753 0.189715615907
v 0.0871426754077 -0.484970143559 0.190664327201
v 0.205717189665 -0.478617710482 0.19099502838
v 0.383585313409 -0.46874602958 0.19149040502
v 0.474348875388 -0.462253843142 0.191740248449
v 0.478071401136 -0.459280904528 0.191745024137
v 0.478109515777 -0.456727226481 0.191739972957
v 0.478122220982 -0.43206708179 -0.191678261869
v 0.459306314315 -0.0636386738364 -0.191678261869
v 0.446525219363 0.186164400987 -0.191678261869
v 0.430339220025 0.489073815504 -0.191678261869
v 0.419171642779 0.500406555547 -0.191678261869
v 0.398399187121 0.507013085909 -0.191678261869
v 0.339118282351 0.504421293221 -0.191678261869
v 0.222309744852 0.498932791201 -0.191678261869
v -0.0279380004621 0.486532842176 -0.191678261869
v -0.367640706206 0.469190699854 -0.191678261869
v -0.429818320307 0.465506288747 -0.191678261869
v -0.473904205439 0.45361453429 -0.191678261869
v -0.473916910157 0.439410494352 -0.191678261869
v -0.47394232008 0.366014483646 -0.191678261869
v -0.470270613691 0.289429551682 -0.191678261869
v -0.458823529238 0.0620124507096 -0.191678261869
v -0.430186761515 -0.495654935673 -0.191678261869
v -0.415004446596 -0.507788082696 -0.191678261869
v -0.411294626051 -0.508944225679 -0.191678261869
v -0.340007622902 -0.505983991784 -0.191678261869
v -0.252318638257 -0.502185236753 -0.191678261869
v 0.0871426754077 -0.484970143559 -0.191678261869
v 0.205717189665 -0.478617710482 -0.191678261869
v 0.383585313409 -0.46874602958 -0.191678261869
v 0.474348875388 -0.462253843142 -0.191678261869
v 0.478071401136 -0.459280904528 -0.191678261869
v 0.478109515777 -0.456727226481 -0.191678261869
g roof
f 1 2 3 4 5 6 7 8 9 10 11 12 13 14 15 16 17 18 19 20 21 22 23 24 25 26 27
g wall
f 2 1 28 29
g wall
f 3 2 29 30
g wall
f 4 3 30 31
g wall
f 5 4 31 32
g wall
f 6 5 32 33
g wall
f 7 6 33 34
g wall
f 8 7 34 35
g wall
f 9 8 35 36
g wall
f 10 9 36 37
g wall
f 11 10 37 38
g wall
f 12 11 38 39
g wall
f 13 12 39 40
g wall
f 14 13 40 41
g wall
f 15 14 41 42
g wall
f 16 15 42 43
g wall
f 17 16 43 44
g wall
f 18 17 44 45
g wall
f 19 18 45 46
g wall
f 20 19 46 47
g wall
f 21 20 47 48
g wall
f 22 21 48 49
g wall
f 23 22 49 50
g wall
f 24 23 50 51
g wall
f 25 24 51 52
g wall
f 26 25 52 53
g wall
f 27 26 53 54
g wall
f 1 27 54 28
g ground_assumed
f 54 53 52 51 50 49 48 47 46 45 44 43 42 41 40 39 38 37 36 35 34 33 32 31 30 29 28
