# XYZ-only planar convex-roof baseline. Provisional base; no GT.
v 9.79737714 -8.90179774 3.87176176
v 9.41012076 -1.31905118 3.85531298
v 9.14706883 3.82222828 3.84415892
v 8.81393944 10.05650683 3.83059258
v 8.58409585 10.28974969 3.82945522
v 8.15657109 10.42572087 3.82794174
v 6.93649124 10.37237833 3.82451467
v 4.53241621 10.25941766 3.81777776
v -0.61801516 10.00421022 3.80337147
v -7.60954857 9.64728587 3.78383662
v -8.88924655 9.57145579 3.78028228
v -9.79659269 9.32670767 3.77814817
v -9.79685417 9.03436964 3.77873830
v -9.79737714 7.52378214 3.78179010
v -9.72180854 5.94756240 3.78519501
v -9.48621232 1.26701605 3.79533825
v -8.89682956 -10.21052033 3.82024508
v -8.58435733 -10.46023663 3.82165514
v -8.50800429 -10.48403159 3.82192445
v -7.04082297 -10.42310604 3.82605211
v -5.23606706 -10.34492261 3.83112292
v 1.75049818 -9.99061310 3.85064866
v 4.19091936 -9.85987158 3.85745493
v 7.85168187 -9.65669926 3.86765044
v 9.71971667 -9.52308143 3.87279255
v 9.79633120 -9.46189440 3.87289084
v 9.79711565 -9.40933631 3.87278688
v 9.79737714 -8.90179774 -4.01847025
v 9.41012076 -1.31905118 -4.01847025
v 9.14706883 3.82222828 -4.01847025
v 8.81393944 10.05650683 -4.01847025
v 8.58409585 10.28974969 -4.01847025
v 8.15657109 10.42572087 -4.01847025
v 6.93649124 10.37237833 -4.01847025
v 4.53241621 10.25941766 -4.01847025
v -0.61801516 10.00421022 -4.01847025
v -7.60954857 9.64728587 -4.01847025
v -8.88924655 9.57145579 -4.01847025
v -9.79659269 9.32670767 -4.01847025
v -9.79685417 9.03436964 -4.01847025
v -9.79737714 7.52378214 -4.01847025
v -9.72180854 5.94756240 -4.01847025
v -9.48621232 1.26701605 -4.01847025
v -8.89682956 -10.21052033 -4.01847025
v -8.58435733 -10.46023663 -4.01847025
v -8.50800429 -10.48403159 -4.01847025
v -7.04082297 -10.42310604 -4.01847025
v -5.23606706 -10.34492261 -4.01847025
v 1.75049818 -9.99061310 -4.01847025
v 4.19091936 -9.85987158 -4.01847025
v 7.85168187 -9.65669926 -4.01847025
v 9.71971667 -9.52308143 -4.01847025
v 9.79633120 -9.46189440 -4.01847025
v 9.79711565 -9.40933631 -4.01847025
g roof
f 1 2 3 4 5 6 7 8 9 10 11 12 13 14 15 16 17 18 19 20 21 22 23 24 25 26 27
g wall
f 2 1 28 29
g wall
f 3 2 29 30
g wall
f 4 3 30 31
g wall
f 5 4 31 32
g wall
f 6 5 32 33
g wall
f 7 6 33 34
g wall
f 8 7 34 35
g wall
f 9 8 35 36
g wall
f 10 9 36 37
g wall
f 11 10 37 38
g wall
f 12 11 38 39
g wall
f 13 12 39 40
g wall
f 14 13 40 41
g wall
f 15 14 41 42
g wall
f 16 15 42 43
g wall
f 17 16 43 44
g wall
f 18 17 44 45
g wall
f 19 18 45 46
g wall
f 20 19 46 47
g wall
f 21 20 47 48
g wall
f 22 21 48 49
g wall
f 23 22 49 50
g wall
f 24 23 50 51
g wall
f 25 24 51 52
g wall
f 26 25 52 53
g wall
f 27 26 53 54
g wall
f 1 27 54 28
g ground_assumed
f 54 53 52 51 50 49 48 47 46 45 44 43 42 41 40 39 38 37 36 35 34 33 32 31 30 29 28
