v 0.47812222098175994 -0.4320670817904837 0.19169016470749636
v 0.45930631431462898 -0.063638673836382095 0.1908909559009993
v 0.44652521936278167 0.18616440098706596 0.19034900549615491
v 0.43033922002477643 0.48907381550386941 0.1896898478929811
v 0.41917164277923613 0.5004065555468733 0.18963458615757231
v 0.39839918712066802 0.50701308590874783 0.18956104960687023
v 0.3391182823514628 0.50442129322084506 0.18939453607063947
v 0.22230974485167995 0.49893279120113249 0.1890672049372315
v -0.027938000462118667 0.48653284217563819 0.18836723607407266
v -0.36764070620627731 0.46919069985424794 0.18741808214572059
v -0.42981832030729239 0.46550628874695754 0.18724538484967279
v -0.47390420543853695 0.45361453428993403 0.1871416932989296
v -0.47391691015698556 0.43941049435201762 0.18717036637334475
v -0.47394232007976 0.36601448364579053 0.18731864639384885
v -0.47027061369091816 0.28942955168229528 0.18748408322608381
v -0.458823529238368 0.062012450709599522 0.18797692018629686
v -0.43018676151519697 -0.49565493567324204 0.18918708640396925
v -0.4150044465956847 -0.50778808269605236 0.18925559801210609
v -0.41129462605149714 -0.50894422567943753 0.18926868317244491
v -0.34000762290159925 -0.50598399178363018 0.18946923678324312
v -0.25231863825656109 -0.50218523675267057 0.18971561590729205
v 0.087142675407688039 -0.48497014355927531 0.19066432720146534
v 0.20571718966454722 -0.47861771048163609 0.19099502837950996
v 0.38358531340906032 -0.46874602958004713 0.19149040502013187
v 0.47434887538769765 -0.46225384314184154 0.19174024844900481
v 0.47807140113621105 -0.45928090452758569 0.19174502413653852
v 0.4781095157774341 -0.45672722648090597 0.19173997295660156
v 0.47812222098175994 -0.4320670817904837 -0.19167826186863746
v 0.45930631431462898 -0.063638673836382095 -0.19167826186863746
v 0.44652521936278167 0.18616440098706596 -0.19167826186863746
v 0.43033922002477643 0.48907381550386941 -0.19167826186863746
v 0.41917164277923613 0.5004065555468733 -0.19167826186863746
v 0.39839918712066802 0.50701308590874783 -0.19167826186863746
v 0.3391182823514628 0.50442129322084506 -0.19167826186863746
v 0.22230974485167995 0.49893279120113249 -0.19167826186863746
v -0.027938000462118667 0.48653284217563819 -0.19167826186863746
v -0.36764070620627731 0.46919069985424794 -0.19167826186863746
v -0.42981832030729239 0.46550628874695754 -0.19167826186863746
v -0.47390420543853695 0.45361453428993403 -0.19167826186863746
v -0.47391691015698556 0.43941049435201762 -0.19167826186863746
v -0.47394232007976 0.36601448364579053 -0.19167826186863746
v -0.47027061369091816 0.28942955168229528 -0.19167826186863746
v -0.458823529238368 0.062012450709599522 -0.19167826186863746
v -0.43018676151519697 -0.49565493567324204 -0.19167826186863746
v -0.4150044465956847 -0.50778808269605236 -0.19167826186863746
v -0.41129462605149714 -0.50894422567943753 -0.19167826186863746
v -0.34000762290159925 -0.50598399178363018 -0.19167826186863746
v -0.25231863825656109 -0.50218523675267057 -0.19167826186863746
v 0.087142675407688039 -0.48497014355927531 -0.19167826186863746
v 0.20571718966454722 -0.47861771048163609 -0.19167826186863746
v 0.38358531340906032 -0.46874602958004713 -0.19167826186863746
v 0.47434887538769765 -0.46225384314184154 -0.19167826186863746
v 0.47807140113621105 -0.45928090452758569 -0.19167826186863746
v 0.4781095157774341 -0.45672722648090597 -0.19167826186863746
l 1 2
l 2 3
l 3 4
l 4 5
l 5 6
l 6 7
l 7 8
l 8 9
l 9 10
l 10 11
l 11 12
l 12 13
l 13 14
l 14 15
l 15 16
l 16 17
l 17 18
l 18 19
l 19 20
l 20 21
l 21 22
l 22 23
l 23 24
l 24 25
l 25 26
l 26 27
l 1 27
l 28 29
l 29 30
l 30 31
l 4 31
l 31 32
l 5 32
l 32 33
l 6 33
l 33 34
l 34 35
l 35 36
l 36 37
l 37 38
l 11 38
l 38 39
l 12 39
l 39 40
l 40 41
l 41 42
l 42 43
l 43 44
l 17 44
l 44 45
l 18 45
l 45 46
l 19 46
l 46 47
l 47 48
l 48 49
l 49 50
l 50 51
l 51 52
l 25 52
l 52 53
l 26 53
l 53 54
l 28 54
