# pointcloud_to_mesh 0.5.1; candidate requires geometry validation; coordinates preserved
v -2.603941375 0.623361006 13.625884518
v -2.972391302 0.597043154 13.626733507
v -2.841253982 -1.238879329 13.637955375
v -3.153529378 -1.608522429 13.640844087
v -1.493131551 -1.191108182 13.635152041
v -1.537250454 0.035866588 13.627571426
v -1.561053807 0.697852975 13.623481478
v -0.156437148 -1.095630010 13.632072006
v -3.423342380 -1.927902424 13.643340001
v -3.380351910 -2.529769004 13.647018842
v -3.250083056 -2.000678113 13.643472553
v -2.501134815 -2.375134407 13.644419425
v -2.516894662 -2.154496542 13.643070801
v -2.039439681 -1.472947262 13.637927273
v -1.157180336 -1.927945173 13.639129426
v -1.112351693 -2.555546187 13.642965566
v 2.941334713 -2.201633590 13.633223033
v 2.948592696 -2.303245358 13.633844123
v 3.141474801 -2.171196851 13.632661064
v 3.121969998 -1.898129614 13.630991971
v 2.945873150 -1.699534255 13.630078934
v 3.399146882 -0.793136410 13.623576133
v 2.962060480 -0.338722725 13.621550437
v 2.929856813 0.112128607 13.618794659
v 2.972490756 0.194579783 13.618200522
v 3.399182506 1.019773276 13.612254246
v 3.380772268 1.050840552 13.612094436
v 2.913712232 1.017479121 13.613170644
v 2.960877779 0.357161462 13.617206760
v 2.920580447 0.354283081 13.617299614
v 2.919426245 0.370441912 13.617200845
v 2.065900836 0.309475811 13.619167553
v 2.017588211 0.985852555 13.615033277
v 2.959687953 1.053145394 13.612862475
v 2.927484286 1.503996726 13.610106697
v 2.090117708 1.444184828 13.612036172
v 2.010748494 2.555353820 13.605244277
v 0.706272007 2.462176928 13.608250075
v 0.663709019 3.058058755 13.604607815
v -0.692507076 2.556557895 13.610259780
v -2.153630292 2.452191951 13.613626526
v -0.481346601 0.774974919 13.620993598
v -1.120431108 -3.916179599 13.923277166
v -0.233533580 -3.869071050 13.911287749
v 3.454370470 -3.605649332 13.861366689
v 3.350841382 -2.156242095 13.861332047
v 3.121969998 -1.898129614 13.864159596
v 3.141474801 -2.171196851 13.864166123
v 2.948592696 -2.303245358 13.866893645
v 2.941334713 -2.201633590 13.866891217
v -1.112351693 -2.555546187 13.921827111
v -1.108867712 -2.604321917 13.921828277
v -1.586222947 -3.285864073 13.928928189
v -2.468582037 -2.830873287 13.940361542
v -2.501134815 -2.375134407 13.940350650
v -3.250083056 -2.000678113 13.950066878
v -3.380351910 -2.529769004 13.952342637
v -3.375029756 -2.604279169 13.952344418
v -2.516859038 -2.834321644 13.941015041
v -2.502004029 -3.042291783 13.941020011
v -2.468546414 -3.510698388 13.941031207
v -2.945944397 -3.965667800 13.947908348
v -2.505402513 -4.015106128 13.942024736
v -0.481346601 0.774974919 13.910046892
v -1.561053807 0.697852975 13.924662274
v -1.537250454 0.035866588 13.924994297
v -0.367482091 0.119421471 13.909159808
v 0.663709019 3.058058755 13.892376979
v 0.706272007 2.462176928 13.892391221
v 2.010748494 2.555353820 13.874733264
v 2.090117708 1.444184828 13.874759822
v 2.879207285 1.500548369 13.864078365
v 2.927484286 1.503996726 13.863424867
v 2.959687953 1.053145394 13.863435643
v 2.911410952 1.049697037 13.864089141
v 2.913712232 1.017479121 13.864089911
v 3.380772268 1.050840552 13.857767585
v 2.994271271 1.703060984 13.862329283
v 2.824026445 4.086488547 13.862272317
v -0.235777863 3.867931097 13.903691148
v -1.574766421 3.804571095 13.921784452
v -1.575460446 3.804204216 13.921794159
v -2.495043192 3.318067739 13.934656493
v -3.396845602 3.253653281 13.946863679
v -2.492706289 2.606024722 13.935326927
v -3.050606313 1.692053315 13.943740576
v -2.972391302 0.597043154 13.943766747
v -2.603941375 0.623361006 13.938779250
v -2.153630292 2.452191951 13.930912565
v -0.692507076 2.556557895 13.911134171
v -1.537250454 0.035866588 13.743845709
v -1.493131551 -1.191108182 13.749130240
v -0.156437148 -1.095630010 13.744704535
v -0.367482091 0.119421471 13.739972685
v 2.919426245 0.370441912 13.729018253
v 2.920580447 0.354283081 13.729086131
v 2.960877779 0.357161462 13.728952709
v 2.913712232 1.017479121 13.726178911
v 2.911410952 1.049697037 13.726043573
v 2.017588211 0.985852555 13.729002960
v 2.019889491 0.953634639 13.729138298
v 2.065900836 0.309475811 13.731844218
v -2.841253982 -1.238879329 -9.227617883
v -3.153529389 -1.608522404 -9.227617883
v -3.423342380 -1.927902424 -9.227617883
v -3.380351910 -2.529769004 -9.227617883
v -3.250083020 -2.000678151 13.950066878
v -3.250083020 -2.000678151 13.643472553
v -2.501134815 -2.375134407 -9.227617883
v -2.516894662 -2.154496542 -9.227617883
v -2.039439681 -1.472947262 -9.227617883
v -1.157180336 -1.927945173 -9.227617883
v -1.112351693 -2.555546187 -9.227617883
v 3.121969995 -1.898129565 -9.227617883
v 2.945873150 -1.699534255 -9.227617883
v 3.399146882 -0.793136410 -9.227617883
v 2.962060480 -0.338722725 -9.227617883
v 2.929856813 0.112128607 -9.227617883
v 2.972490756 0.194579783 -9.227617883
v 3.399182506 1.019773276 -9.227617883
v 3.380772268 1.050840552 -9.227617883
v 2.019889491 0.953634639 13.615230206
v 2.911410952 1.049697037 13.612973715
v 2.879207285 1.500548369 13.610217938
v -2.925225755 -0.063274505 13.630769623
v -2.972391302 0.597043154 -9.227617883
v -2.925225755 -0.063274505 -9.227617883
v -2.890998672 -0.542453664 13.633698552
v -2.890998672 -0.542453664 -9.227617883
v -0.367482110 0.119421470 13.624876026
v -0.233533580 -3.869071050 -9.227617883
v 3.454370470 -3.605649332 -9.227617883
v 3.350841382 -2.156242095 -9.227617883
v -1.108867712 -2.604321917 -9.227617883
v -1.586222947 -3.285864073 -9.227617883
v -2.468582037 -2.830873287 -9.227617883
v -3.375029756 -2.604279169 -9.227617883
v -2.516859038 -2.834321644 -9.227617883
v -2.502004029 -3.042291783 -9.227617883
v -2.468546414 -3.510698388 -9.227617883
v -2.945944397 -3.965667800 -9.227617883
v -2.505402513 -4.015106128 -9.227617883
v -1.120431108 -3.916179599 -9.227617883
v 2.994271271 1.703060984 -9.227617883
v 2.824026445 4.086488547 -9.227617883
v -0.235777863 3.867931097 -9.227617883
v -1.574766421 3.804571095 -9.227617883
v -1.575460446 3.804204216 -9.227617883
v -2.495043192 3.318067739 -9.227617883
v -3.396845602 3.253653281 -9.227617883
v -2.492706289 2.606024722 -9.227617883
v -3.050606313 1.692053315 -9.227617883
g roof
f 1 2 125 128 3
g roof
f 3 4 5
g roof
f 3 5 6
g roof
f 3 6 7
g roof
f 8 5 4
g roof
f 4 9 10 108 11
g roof
f 4 11 108 12
g roof
f 4 12 13
g roof
f 4 13 14
g roof
f 15 16 17
g roof
f 17 18 19
g roof
f 17 19 20
g roof
f 17 20 21
g roof
f 21 22 23
g roof
f 21 23 24
g roof
f 25 26 27
g roof
f 27 28 29
g roof
f 30 31 32
g roof
f 33 123 34 35
g roof
f 33 35 124 36
g roof
f 33 36 37
g roof
f 33 37 38
g roof
f 38 39 40
g roof
f 38 40 41
g roof
f 38 41 1
g roof
f 1 3 7
g roof
f 8 4 14
g roof
f 8 14 15
g roof
f 8 15 17
g roof
f 8 17 21
g roof
f 8 21 24
g roof
f 8 24 25
g roof
f 25 27 29
g roof
f 25 29 30
g roof
f 25 30 32
g roof
f 32 122 33 38
g roof
f 38 1 7
g roof
f 38 7 42
g roof
f 38 42 130 8
g roof
f 8 25 32
g roof
f 8 32 38
g roof
f 43 44 45
g roof
f 43 45 46
g roof
f 46 47 48
g roof
f 46 48 49
g roof
f 49 50 51
g roof
f 49 51 52
g roof
f 49 52 53
g roof
f 54 55 56 107
g roof
f 54 56 107 57
g roof
f 54 57 58
g roof
f 54 58 59
g roof
f 54 59 60
g roof
f 54 60 61
g roof
f 61 62 63
g roof
f 61 63 43
g roof
f 43 46 49
g roof
f 43 49 53
g roof
f 43 53 54
g roof
f 43 54 61
g roof
f 64 65 66
g roof
f 64 66 67
g roof
f 68 69 70
g roof
f 70 71 72
g roof
f 70 72 73
g roof
f 74 75 76
g roof
f 74 76 77
g roof
f 74 77 78
g roof
f 74 78 79
g roof
f 80 81 82
g roof
f 80 82 83
g roof
f 83 84 85
g roof
f 85 86 87
g roof
f 85 87 88
g roof
f 85 88 89
g roof
f 85 89 90
g roof
f 85 90 68
g roof
f 73 74 79
g roof
f 79 80 83
g roof
f 79 83 85
g roof
f 79 85 68
g roof
f 79 68 70
g roof
f 79 70 73
g roof
f 91 92 93
g roof
f 91 93 94
g roof
f 95 96 97
g roof
f 95 97 98
g roof
f 95 98 99
g roof
f 95 99 100
g roof
f 95 100 101
g roof
f 95 101 102
g facade_completed
f 4 3 103 104
g facade_completed
f 9 4 104 105
g facade_completed
f 10 9 105 106
g roof_step_or_fixture_side
f 57 56 107 11 108 10
g roof_step_or_fixture_side
f 56 107 55 12 11 108
g facade_completed
f 13 12 109 110
g facade_completed
f 14 13 110 111
g facade_completed
f 15 14 111 112
g facade_completed
f 16 15 112 113
g roof_step_or_fixture_side
f 51 50 17 16
g roof_step_or_fixture_side
f 50 49 18 17
g roof_step_or_fixture_side
f 49 48 19 18
g roof_step_or_fixture_side
f 48 47 20 19
g facade_completed
f 21 20 114 115
g facade_completed
f 22 21 115 116
g facade_completed
f 23 22 116 117
g facade_completed
f 24 23 117 118
g facade_completed
f 25 24 118 119
g facade_completed
f 26 25 119 120
g facade_completed
f 27 26 120 121
g roof_step_or_fixture_side
f 77 76 98 28 27
g roof_step_or_fixture_side
f 98 97 29 28
g roof_step_or_fixture_side
f 97 96 30 29
g roof_step_or_fixture_side
f 96 95 31 30
g roof_step_or_fixture_side
f 95 102 32 31
g roof_step_or_fixture_side
f 102 101 122 32
g roof_step_or_fixture_side
f 101 100 33 122
g roof_step_or_fixture_side
f 100 99 123 33
g roof_step_or_fixture_side
f 75 74 34 123 99
g roof_step_or_fixture_side
f 74 73 35 34
g roof_step_or_fixture_side
f 73 72 124 35
g roof_step_or_fixture_side
f 72 71 36 124
g roof_step_or_fixture_side
f 71 70 37 36
g roof_step_or_fixture_side
f 70 69 38 37
g roof_step_or_fixture_side
f 69 68 39 38
g roof_step_or_fixture_side
f 68 90 40 39
g roof_step_or_fixture_side
f 90 89 41 40
g roof_step_or_fixture_side
f 89 88 1 41
g roof_step_or_fixture_side
f 88 87 2 1
g facade_completed
f 125 2 126 127
g facade_completed
f 128 125 127 129
g facade_completed
f 3 128 129 103
g roof_step_or_fixture_side
f 66 65 7 6 91
g roof_step_or_fixture_side
f 65 64 42 7
g roof_step_or_fixture_side
f 64 67 94 130 42
g roof_step_or_fixture_side
f 94 93 8 130
g roof_step_or_fixture_side
f 93 92 5 8
g roof_step_or_fixture_side
f 92 91 6 5
g facade_completed
f 45 44 131 132
g facade_completed
f 46 45 132 133
g facade_completed
f 47 46 133 114 20
g facade_completed
f 52 51 16 113 134
g facade_completed
f 53 52 134 135
g facade_completed
f 54 53 135 136
g facade_completed
f 55 54 136 109 12
g facade_completed
f 58 57 10 106 137
g facade_completed
f 59 58 137 138
g facade_completed
f 60 59 138 139
g facade_completed
f 61 60 139 140
g facade_completed
f 62 61 140 141
g facade_completed
f 63 62 141 142
g facade_completed
f 43 63 142 143
g facade_completed
f 44 43 143 131
g roof_step_or_fixture_side
f 67 66 91 94
g roof_step_or_fixture_side
f 76 75 99 98
g facade_completed
f 78 77 27 121 144
g facade_completed
f 79 78 144 145
g facade_completed
f 80 79 145 146
g facade_completed
f 81 80 146 147
g facade_completed
f 82 81 147 148
g facade_completed
f 83 82 148 149
g facade_completed
f 84 83 149 150
g facade_completed
f 85 84 150 151
g facade_completed
f 86 85 151 152
g facade_completed
f 87 86 152 126 2
g ground_assumed
f 104 137 106 105
g ground_assumed
f 104 138 137
g ground_assumed
f 104 136 138
g ground_assumed
f 104 110 109 136
g ground_assumed
f 104 111 110
g ground_assumed
f 135 138 136
g ground_assumed
f 135 140 139 138
g ground_assumed
f 135 141 140
g ground_assumed
f 135 142 141
g ground_assumed
f 135 143 142
g ground_assumed
f 135 131 143
g ground_assumed
f 135 132 131
g ground_assumed
f 135 133 132
g ground_assumed
f 135 114 133
g ground_assumed
f 135 115 114
g ground_assumed
f 135 116 115
g ground_assumed
f 135 117 116
g ground_assumed
f 135 118 117
g ground_assumed
f 135 119 118
g ground_assumed
f 135 120 119
g ground_assumed
f 135 121 120
g ground_assumed
f 135 144 121
g ground_assumed
f 144 146 145
g ground_assumed
f 144 147 146
g ground_assumed
f 144 148 147
g ground_assumed
f 144 149 148
g ground_assumed
f 144 150 149
g ground_assumed
f 144 151 150
g ground_assumed
f 144 152 151
g ground_assumed
f 144 103 129 127 126 152
g ground_assumed
f 144 104 103
g ground_assumed
f 144 111 104
g ground_assumed
f 144 112 111
g ground_assumed
f 144 134 113 112
g ground_assumed
f 144 135 134
