# Source coordinates; no display transform
v 2684056.93864 1251800.90635 443.436195375
v 2684056.7354 1251800.89184 443.436663686
v 2684056.80773 1251799.87912 443.442853787
v 2684056.63548 1251799.67522 443.444447231
v 2684057.55137 1251799.90547 443.441307438
v 2684057.52704 1251800.58228 443.437125891
v 2684057.51391 1251800.94744 443.434869832
v 2684058.28871 1251799.95814 443.439608459
v 2684056.48665 1251799.49905 443.445824004
v 2684056.51036 1251799.16705 443.447853291
v 2684056.58222 1251799.4589 443.445897121
v 2684056.99535 1251799.25235 443.446419425
v 2684056.98665 1251799.37406 443.44567551
v 2684057.25002 1251799.75001 443.442838286
v 2684057.73669 1251799.49903 443.443501406
v 2684057.76142 1251799.15283 443.445617461
v 2684059.99747 1251799.34806 443.440243377
v 2684060.00147 1251799.29201 443.440585977
v 2684060.10787 1251799.36484 443.439933389
v 2684060.09711 1251799.51547 443.4390127
v 2684059.99997 1251799.62502 443.438509059
v 2684060.25001 1251800.125 443.434922045
v 2684060.0089 1251800.37566 443.43380465
v 2684059.99114 1251800.62435 443.432284534
v 2684060.01466 1251800.66983 443.431956801
v 2684060.25003 1251801.12502 443.428676773
v 2684060.23987 1251801.14215 443.42858862
v 2684059.98223 1251801.12375 443.429182267
v 2684060.00825 1251800.75951 443.431408632
v 2684059.98602 1251800.75793 443.431459851
v 2684059.98539 1251800.76684 443.431405369
v 2684059.51457 1251800.73321 443.432490226
v 2684059.48792 1251801.10631 443.430209715
v 2684060.0076 1251801.14343 443.429012278
v 2684059.98983 1251801.39212 443.427492162
v 2684059.52793 1251801.35913 443.428556481
v 2684059.48415 1251801.97206 443.42481
v 2684058.76459 1251801.92066 443.42646803
v 2684058.74111 1251802.24936 443.42445892
v 2684057.99301 1251801.97272 443.427576604
v 2684057.18703 1251801.91516 443.429433737
v 2684058.10948 1251800.98998 443.433497492
v 2684057.75696 1251798.40229 443.600240303
v 2684058.24618 1251798.42828 443.593626814
v 2684060.28047 1251798.57359 443.56608983
v 2684060.22336 1251799.37309 443.566070721
v 2684060.09711 1251799.51547 443.567630427
v 2684060.10787 1251799.36484 443.567634027
v 2684060.00147 1251799.29201 443.569138557
v 2684059.99747 1251799.34806 443.569137218
v 2684057.76142 1251799.15283 443.599440438
v 2684057.76334 1251799.12593 443.599441081
v 2684057.50002 1251798.74998 443.603357467
v 2684057.0133 1251799.00096 443.609664226
v 2684056.99535 1251799.25235 443.609658218
v 2684056.58222 1251799.4589 443.615017792
v 2684056.51036 1251799.16705 443.616273124
v 2684056.5133 1251799.12595 443.616274107
v 2684056.98667 1251798.99906 443.610024703
v 2684056.99487 1251798.88434 443.610027444
v 2684057.01332 1251798.62596 443.61003362
v 2684056.74999 1251798.375 443.613827124
v 2684056.99299 1251798.34773 443.610581661
v 2684058.10948 1251800.98998 443.592942344
v 2684057.51391 1251800.94744 443.601004343
v 2684057.52704 1251800.58228 443.601187491
v 2684058.17229 1251800.62837 443.592453019
v 2684058.74111 1251802.24936 443.583195433
v 2684058.76459 1251801.92066 443.583203289
v 2684059.48415 1251801.97206 443.573462974
v 2684059.52793 1251801.35913 443.573477623
v 2684059.9632 1251801.39022 443.567585619
v 2684059.98983 1251801.39212 443.567225142
v 2684060.0076 1251801.14343 443.567231087
v 2684059.98097 1251801.14152 443.567591563
v 2684059.98223 1251801.12375 443.567591988
v 2684060.23987 1251801.14215 443.564104526
v 2684060.02667 1251801.50193 443.566620807
v 2684059.93276 1251802.81665 443.566589384
v 2684058.24494 1251802.69609 443.589436449
v 2684057.50634 1251802.66114 443.599416906
v 2684057.50596 1251802.66094 443.599422261
v 2684056.99871 1251802.39278 443.60651726
v 2684056.50126 1251802.35725 443.613250873
v 2684057 1251802.00001 443.606887079
v 2684056.69225 1251801.49585 443.611528137
v 2684056.7354 1251800.89184 443.611542573
v 2684056.93864 1251800.90635 443.608791417
v 2684057.18703 1251801.91516 443.60445207
v 2684057.99301 1251801.97272 443.593542099
v 2684057.52704 1251800.58228 443.501264015
v 2684057.55137 1251799.90547 443.504179018
v 2684058.28871 1251799.95814 443.501737752
v 2684058.17229 1251800.62837 443.499127614
v 2684059.98539 1251800.76684 443.493085033
v 2684059.98602 1251800.75793 443.493122475
v 2684060.00825 1251800.75951 443.493048878
v 2684059.98223 1251801.12375 443.491518822
v 2684059.98097 1251801.14152 443.491444168
v 2684059.48792 1251801.10631 443.493076597
v 2684059.48919 1251801.08853 443.493151251
v 2684059.51457 1251800.73321 443.494643865
v 2684056.80773 1251799.87912 430.829961853
v 2684056.63548 1251799.67522 430.829961853
v 2684056.48665 1251799.49905 430.829961853
v 2684056.51036 1251799.16705 430.829961853
v 2684056.58222 1251799.4589 443.615017792
v 2684056.58222 1251799.4589 443.445897121
v 2684056.99535 1251799.25235 430.829961853
v 2684056.98665 1251799.37406 430.829961853
v 2684057.25002 1251799.75001 430.829961853
v 2684057.73669 1251799.49903 430.829961853
v 2684057.76142 1251799.15283 430.829961853
v 2684060.09711 1251799.51547 430.829961853
v 2684059.99997 1251799.62502 430.829961853
v 2684060.25001 1251800.125 430.829961853
v 2684060.0089 1251800.37566 430.829961853
v 2684059.99114 1251800.62435 430.829961853
v 2684060.01466 1251800.66983 430.829961853
v 2684060.25003 1251801.12502 430.829961853
v 2684060.23987 1251801.14215 430.829961853
v 2684059.48919 1251801.08853 443.430318344
v 2684059.98097 1251801.14152 443.429073639
v 2684059.9632 1251801.39022 443.427553524
v 2684056.76141 1251800.5276 443.43889005
v 2684056.7354 1251800.89184 430.829961853
v 2684056.76141 1251800.5276 430.829961853
v 2684056.78029 1251800.26328 443.440505678
v 2684056.78029 1251800.26328 430.829961853
v 2684058.17229 1251800.62837 443.43563908
v 2684058.24618 1251798.42828 430.829961853
v 2684060.28047 1251798.57359 430.829961853
v 2684060.22336 1251799.37309 430.829961853
v 2684057.76334 1251799.12593 430.829961853
v 2684057.50002 1251798.74998 430.829961853
v 2684057.0133 1251799.00096 430.829961853
v 2684056.5133 1251799.12595 430.829961853
v 2684056.98667 1251798.99906 430.829961853
v 2684056.99487 1251798.88434 430.829961853
v 2684057.01332 1251798.62596 430.829961853
v 2684056.74999 1251798.375 430.829961853
v 2684056.99299 1251798.34773 430.829961853
v 2684057.75696 1251798.40229 430.829961853
v 2684060.02667 1251801.50193 430.829961853
v 2684059.93276 1251802.81665 430.829961853
v 2684058.24494 1251802.69609 430.829961853
v 2684057.50634 1251802.66114 430.829961853
v 2684057.50596 1251802.66094 430.829961853
v 2684056.99871 1251802.39278 430.829961853
v 2684056.50126 1251802.35725 430.829961853
v 2684057 1251802.00001 430.829961853
v 2684056.69225 1251801.49585 430.829961853
g roof
f 1 2 125 128 3
g roof
f 3 4 5
g roof
f 3 5 6
g roof
f 3 6 7
g roof
f 8 5 4
g roof
f 4 9 10 108 11
g roof
f 4 11 108 12
g roof
f 4 12 13
g roof
f 4 13 14
g roof
f 15 16 17
g roof
f 17 18 19
g roof
f 17 19 20
g roof
f 17 20 21
g roof
f 21 22 23
g roof
f 21 23 24
g roof
f 25 26 27
g roof
f 27 28 29
g roof
f 30 31 32
g roof
f 33 123 34 35
g roof
f 33 35 124 36
g roof
f 33 36 37
g roof
f 33 37 38
g roof
f 38 39 40
g roof
f 38 40 41
g roof
f 38 41 1
g roof
f 1 3 7
g roof
f 8 4 14
g roof
f 8 14 15
g roof
f 8 15 17
g roof
f 8 17 21
g roof
f 8 21 24
g roof
f 8 24 25
g roof
f 25 27 29
g roof
f 25 29 30
g roof
f 25 30 32
g roof
f 32 122 33 38
g roof
f 38 1 7
g roof
f 38 7 42
g roof
f 38 42 130 8
g roof
f 8 25 32
g roof
f 8 32 38
g roof
f 43 44 45
g roof
f 43 45 46
g roof
f 46 47 48
g roof
f 46 48 49
g roof
f 49 50 51
g roof
f 49 51 52
g roof
f 49 52 53
g roof
f 54 55 56 107
g roof
f 54 56 107 57
g roof
f 54 57 58
g roof
f 54 58 59
g roof
f 54 59 60
g roof
f 54 60 61
g roof
f 61 62 63
g roof
f 61 63 43
g roof
f 43 46 49
g roof
f 43 49 53
g roof
f 43 53 54
g roof
f 43 54 61
g roof
f 64 65 66
g roof
f 64 66 67
g roof
f 68 69 70
g roof
f 70 71 72
g roof
f 70 72 73
g roof
f 74 75 76
g roof
f 74 76 77
g roof
f 74 77 78
g roof
f 74 78 79
g roof
f 80 81 82
g roof
f 80 82 83
g roof
f 83 84 85
g roof
f 85 86 87
g roof
f 85 87 88
g roof
f 85 88 89
g roof
f 85 89 90
g roof
f 85 90 68
g roof
f 73 74 79
g roof
f 79 80 83
g roof
f 79 83 85
g roof
f 79 85 68
g roof
f 79 68 70
g roof
f 79 70 73
g roof
f 91 92 93
g roof
f 91 93 94
g roof
f 95 96 97
g roof
f 95 97 98
g roof
f 95 98 99
g roof
f 95 99 100
g roof
f 95 100 101
g roof
f 95 101 102
g facade_completed
f 4 3 103 104
g facade_completed
f 9 4 104 105
g facade_completed
f 10 9 105 106
g roof_step_or_fixture_side
f 57 56 107 11 108 10
g roof_step_or_fixture_side
f 56 107 55 12 11 108
g facade_completed
f 13 12 109 110
g facade_completed
f 14 13 110 111
g facade_completed
f 15 14 111 112
g facade_completed
f 16 15 112 113
g roof_step_or_fixture_side
f 51 50 17 16
g roof_step_or_fixture_side
f 50 49 18 17
g roof_step_or_fixture_side
f 49 48 19 18
g roof_step_or_fixture_side
f 48 47 20 19
g facade_completed
f 21 20 114 115
g facade_completed
f 22 21 115 116
g facade_completed
f 23 22 116 117
g facade_completed
f 24 23 117 118
g facade_completed
f 25 24 118 119
g facade_completed
f 26 25 119 120
g facade_completed
f 27 26 120 121
g roof_step_or_fixture_side
f 77 76 98 28 27
g roof_step_or_fixture_side
f 98 97 29 28
g roof_step_or_fixture_side
f 97 96 30 29
g roof_step_or_fixture_side
f 96 95 31 30
g roof_step_or_fixture_side
f 95 102 32 31
g roof_step_or_fixture_side
f 102 101 122 32
g roof_step_or_fixture_side
f 101 100 33 122
g roof_step_or_fixture_side
f 100 99 123 33
g roof_step_or_fixture_side
f 75 74 34 123 99
g roof_step_or_fixture_side
f 74 73 35 34
g roof_step_or_fixture_side
f 73 72 124 35
g roof_step_or_fixture_side
f 72 71 36 124
g roof_step_or_fixture_side
f 71 70 37 36
g roof_step_or_fixture_side
f 70 69 38 37
g roof_step_or_fixture_side
f 69 68 39 38
g roof_step_or_fixture_side
f 68 90 40 39
g roof_step_or_fixture_side
f 90 89 41 40
g roof_step_or_fixture_side
f 89 88 1 41
g roof_step_or_fixture_side
f 88 87 2 1
g facade_completed
f 125 2 126 127
g facade_completed
f 128 125 127 129
g facade_completed
f 3 128 129 103
g roof_step_or_fixture_side
f 66 65 7 6 91
g roof_step_or_fixture_side
f 65 64 42 7
g roof_step_or_fixture_side
f 64 67 94 130 42
g roof_step_or_fixture_side
f 94 93 8 130
g roof_step_or_fixture_side
f 93 92 5 8
g roof_step_or_fixture_side
f 92 91 6 5
g facade_completed
f 45 44 131 132
g facade_completed
f 46 45 132 133
g facade_completed
f 47 46 133 114 20
g facade_completed
f 52 51 16 113 134
g facade_completed
f 53 52 134 135
g facade_completed
f 54 53 135 136
g facade_completed
f 55 54 136 109 12
g facade_completed
f 58 57 10 106 137
g facade_completed
f 59 58 137 138
g facade_completed
f 60 59 138 139
g facade_completed
f 61 60 139 140
g facade_completed
f 62 61 140 141
g facade_completed
f 63 62 141 142
g facade_completed
f 43 63 142 143
g facade_completed
f 44 43 143 131
g roof_step_or_fixture_side
f 67 66 91 94
g roof_step_or_fixture_side
f 76 75 99 98
g facade_completed
f 78 77 27 121 144
g facade_completed
f 79 78 144 145
g facade_completed
f 80 79 145 146
g facade_completed
f 81 80 146 147
g facade_completed
f 82 81 147 148
g facade_completed
f 83 82 148 149
g facade_completed
f 84 83 149 150
g facade_completed
f 85 84 150 151
g facade_completed
f 86 85 151 152
g facade_completed
f 87 86 152 126 2
g ground_assumed
f 104 137 106 105
g ground_assumed
f 104 138 137
g ground_assumed
f 104 136 138
g ground_assumed
f 104 110 109 136
g ground_assumed
f 104 111 110
g ground_assumed
f 135 138 136
g ground_assumed
f 135 140 139 138
g ground_assumed
f 135 141 140
g ground_assumed
f 135 142 141
g ground_assumed
f 135 143 142
g ground_assumed
f 135 131 143
g ground_assumed
f 135 132 131
g ground_assumed
f 135 133 132
g ground_assumed
f 135 114 133
g ground_assumed
f 135 115 114
g ground_assumed
f 135 116 115
g ground_assumed
f 135 117 116
g ground_assumed
f 135 118 117
g ground_assumed
f 135 119 118
g ground_assumed
f 135 120 119
g ground_assumed
f 135 121 120
g ground_assumed
f 135 144 121
g ground_assumed
f 144 146 145
g ground_assumed
f 144 147 146
g ground_assumed
f 144 148 147
g ground_assumed
f 144 149 148
g ground_assumed
f 144 150 149
g ground_assumed
f 144 151 150
g ground_assumed
f 144 152 151
g ground_assumed
f 144 103 129 127 126 152
g ground_assumed
f 144 104 103
g ground_assumed
f 144 111 104
g ground_assumed
f 144 112 111
g ground_assumed
f 144 134 113 112
g ground_assumed
f 144 135 134
