v 2684056.9386384096 1251800.9063525209 443.43619537471324
v 2684056.7353975349 1251800.8918353154 443.43666368602078
v 2684056.8077342669 1251799.8791210651 443.44285378704222
v 2684056.6354798572 1251799.6752220236 443.44444723111963
v 2684057.5513728517 1251799.9054721349 443.44130743837223
v 2684057.5270363986 1251800.5822843891 443.43712589099931
v 2684057.5139062172 1251800.9474430785 443.43486983244537
v 2684058.2887076153 1251799.9581389041 443.43960845850546
v 2684056.486648153 1251799.4990486419 443.44582400366772
v 2684056.5103621511 1251799.1670526739 443.44785329125443
v 2684056.5822198279 1251799.4589048026 443.44589712075219
v 2684056.9953475953 1251799.2523507522 443.44641942535731
v 2684056.986654297 1251799.3740569311 443.44567551010186
v 2684057.2500235117 1251799.750006719 443.44283828568194
v 2684057.7366870935 1251799.4990250613 443.44350140598539
v 2684057.7614150466 1251799.1528337072 443.44561746136338
v 2684059.9974713223 1251799.348055637 443.44024337716678
v 2684060.0014749025 1251799.2920055117 443.44058597697671
v 2684060.1078707105 1251799.364844864 443.43993338912549
v 2684060.0971116549 1251799.5154716386 443.43901269978181
v 2684059.9999747719 1251799.6250189382 443.43850905892037
v 2684060.2500053542 1251800.1249975716 443.43492204514399
v 2684060.0089038746 1251800.375656964 443.43380464981567
v 2684059.9911399912 1251800.624351325 443.432284533538
v 2684060.0146573246 1251800.6698322652 443.43195680128781
v 2684060.2500250051 1251801.1250177196 443.42867677258482
v 2684060.2398697231 1251801.1421547574 443.42858861969938
v 2684059.9822344696 1251801.1237522394 443.42918226740937
v 2684060.008251484 1251800.7595140382 443.43140863166303
v 2684059.9860230498 1251800.7579262927 443.43145985091104
v 2684059.9853863795 1251800.7668396749 443.43140536888649
v 2684059.514572741 1251800.733210129 443.43249022581045
v 2684059.487922986 1251801.1063066914 443.43020971546309
v 2684060.0075951633 1251801.1434261326 443.42901227813115
v 2684059.9898312804 1251801.3921204936 443.42749216185348
v 2684059.5279310234 1251801.3591276184 443.42855648066103
v 2684059.4841501261 1251801.9720601812 443.42480999957809
v 2684058.7645871053 1251801.9206628224 443.42646802953089
v 2684058.7411089111 1251802.2493575376 443.42445892041053
v 2684057.9930057758 1251801.9727243616 443.42757660405459
v 2684057.1870347639 1251801.9151550038 443.42943373673995
v 2684058.1094841263 1251800.989984358 443.43349749153657
v 2684057.7569583561 1251798.4022939331 443.60024030325417
v 2684058.2461804086 1251798.4282795067 443.5936268140901
v 2684060.2804672695 1251798.5735857112 443.56608982965065
v 2684060.2233595299 1251799.3730940656 443.56607072075724
v 2684060.0971116549 1251799.5154716386 443.56763042667723
v 2684060.1078707105 1251799.364844864 443.56763402703945
v 2684060.0014749025 1251799.2920055117 443.56913855700878
v 2684059.9974713223 1251799.348055637 443.56913721769831
v 2684057.7614150466 1251799.1528337072 443.59944043758679
v 2684057.7633368475 1251799.1259284988 443.59944108076473
v 2684057.5000226535 1251798.7499826406 443.60335746728106
v 2684057.0133040515 1251799.0009603682 443.60966422566423
v 2684056.9953475953 1251799.2523507522 443.60965821752188
v 2684056.5822198279 1251799.4589048026 443.61501779160238
v 2684056.5103621511 1251799.1670526739 443.61627312432512
v 2684056.5132979071 1251799.1259520792 443.6162741067435
v 2684056.9866739474 1251798.999058218 443.61002470262116
v 2684056.9948681276 1251798.8843396907 443.61002744412571
v 2684057.0133237015 1251798.6259616555 443.61003361995762
v 2684056.7499859273 1251798.3749957182 443.61382712363536
v 2684056.992993488 1251798.347725014 443.61058166105721
v 2684058.1094841263 1251800.989984358 443.59294234425113
v 2684057.5139062172 1251800.9474430785 443.6010043434697
v 2684057.5270363986 1251800.5822843891 443.60118749086649
v 2684058.1722929939 1251800.6283741458 443.59245301933885
v 2684058.7411089111 1251802.2493575376 443.5831954334418
v 2684058.7645871053 1251801.9206628224 443.58320328947951
v 2684059.4841501261 1251801.9720601812 443.57346297372618
v 2684059.5279310234 1251801.3591276184 443.57347762339975
v 2684059.9632011759 1251801.3902183436 443.56758561879889
v 2684059.9898312804 1251801.3921204936 443.56722514239362
v 2684060.0075951633 1251801.1434261326 443.5672310865491
v 2684059.9809650593 1251801.1415239826 443.56759156295442
v 2684059.9822344696 1251801.1237522394 443.56759198769453
v 2684060.2398697231 1251801.1421547574 443.56410452583611
v 2684060.0266716871 1251801.5019264428 443.56662080667718
v 2684059.9327628412 1251802.8166502831 443.56658938362932
v 2684058.2449424383 1251802.6960916831 443.5894364486706
v 2684057.5063421945 1251802.6611416363 443.59941690643143
v 2684057.5059593627 1251802.660939262 443.59942226091522
v 2684056.9987077988 1251802.392781242 443.60651726032455
v 2684056.5012640562 1251802.3572495461 443.61325087317118
v 2684056.9999968591 1251802.0000107863 443.60688707880649
v 2684056.6922533079 1251801.4958544963 443.6115281365403
v 2684056.7353975349 1251800.8918353154 443.61154257274057
v 2684056.9386384096 1251800.9063525209 443.60879141666976
v 2684057.1870347639 1251801.9151550038 443.60445207006063
v 2684057.9930057758 1251801.9727243616 443.59354209884174
v 2684057.5270363986 1251800.5822843891 443.5012640147026
v 2684057.5513728517 1251799.9054721349 443.50417901786795
v 2684058.2887076153 1251799.9581389041 443.50173775220333
v 2684058.1722929939 1251800.6283741458 443.4991276137203
v 2684059.9853863795 1251800.7668396749 443.49308503322368
v 2684059.9860230498 1251800.7579262927 443.49312247544606
v 2684060.008251484 1251800.7595140382 443.49304887846034
v 2684059.9822344696 1251801.1237522394 443.49151882216017
v 2684059.9809650593 1251801.1415239826 443.49144416828864
v 2684059.487922986 1251801.1063066914 443.49307659744318
v 2684059.4891923964 1251801.0885349482 443.49315125131471
v 2684059.514572741 1251800.733210129 443.4946438653925
v 2684056.8077342669 1251799.8791210651 430.82996185315949
v 2684056.6354798512 1251799.6752220374 430.82996185315949
v 2684056.486648153 1251799.4990486419 430.82996185315949
v 2684056.5103621511 1251799.1670526739 430.82996185315949
v 2684056.5822198479 1251799.4589047816 443.61501779160238
v 2684056.5822198479 1251799.4589047816 443.44589712075219
v 2684056.9953475953 1251799.2523507522 430.82996185315949
v 2684056.986654297 1251799.3740569311 430.82996185315949
v 2684057.2500235117 1251799.750006719 430.82996185315949
v 2684057.7366870935 1251799.4990250613 430.82996185315949
v 2684057.7614150466 1251799.1528337072 430.82996185315949
v 2684060.0971116535 1251799.5154716657 430.82996185315949
v 2684059.9999747719 1251799.6250189382 430.82996185315949
v 2684060.2500053542 1251800.1249975716 430.82996185315949
v 2684060.0089038746 1251800.375656964 430.82996185315949
v 2684059.9911399912 1251800.624351325 430.82996185315949
v 2684060.0146573246 1251800.6698322652 430.82996185315949
v 2684060.2500250051 1251801.1250177196 430.82996185315949
v 2684060.2398697231 1251801.1421547574 430.82996185315949
v 2684059.4891923964 1251801.0885349482 443.43031834358135
v 2684059.9809650593 1251801.1415239826 443.42907363929112
v 2684059.9632011759 1251801.3902183436 443.42755352356505
v 2684056.7614145493 1251800.5275971142 443.43889005027444
v 2684056.7353975349 1251800.8918353154 430.82996185315949
v 2684056.7614145493 1251800.5275971142 430.82996185315949
v 2684056.7802945701 1251800.2632768243 443.44050567847415
v 2684056.7802945701 1251800.2632768243 430.82996185315949
v 2684058.1722929832 1251800.6283741454 443.4356390798647
v 2684058.2461804086 1251798.4282795067 430.82996185315949
v 2684060.2804672695 1251798.5735857112 430.82996185315949
v 2684060.2233595299 1251799.3730940656 430.82996185315949
v 2684057.7633368475 1251799.1259284988 430.82996185315949
v 2684057.5000226535 1251798.7499826406 430.82996185315949
v 2684057.0133040515 1251799.0009603682 430.82996185315949
v 2684056.5132979071 1251799.1259520792 430.82996185315949
v 2684056.9866739474 1251798.999058218 430.82996185315949
v 2684056.9948681276 1251798.8843396907 430.82996185315949
v 2684057.0133237015 1251798.6259616555 430.82996185315949
v 2684056.7499859273 1251798.3749957182 430.82996185315949
v 2684056.992993488 1251798.347725014 430.82996185315949
v 2684057.7569583561 1251798.4022939331 430.82996185315949
v 2684060.0266716871 1251801.5019264428 430.82996185315949
v 2684059.9327628412 1251802.8166502831 430.82996185315949
v 2684058.2449424383 1251802.6960916831 430.82996185315949
v 2684057.5063421945 1251802.6611416363 430.82996185315949
v 2684057.5059593627 1251802.660939262 430.82996185315949
v 2684056.9987077988 1251802.392781242 430.82996185315949
v 2684056.5012640562 1251802.3572495461 430.82996185315949
v 2684056.9999968591 1251802.0000107863 430.82996185315949
v 2684056.6922533079 1251801.4958544963 430.82996185315949
l 1 2
l 2 125
l 125 128
l 3 128
l 3 4
l 5 6
l 6 7
l 5 8
l 4 9
l 9 10
l 10 108
l 11 108
l 12 108
l 12 13
l 13 14
l 15 16
l 16 17
l 17 18
l 18 19
l 19 20
l 20 21
l 21 22
l 22 23
l 23 24
l 25 26
l 26 27
l 27 28
l 28 29
l 30 31
l 31 32
l 33 123
l 34 123
l 34 35
l 35 124
l 36 124
l 36 37
l 37 38
l 38 39
l 39 40
l 40 41
l 1 41
l 14 15
l 24 25
l 29 30
l 32 122
l 33 122
l 7 42
l 42 130
l 8 130
l 43 44
l 44 45
l 45 46
l 46 47
l 47 48
l 48 49
l 49 50
l 50 51
l 51 52
l 52 53
l 54 55
l 55 56
l 56 107
l 54 107
l 54 56
l 57 107
l 57 58
l 58 59
l 59 60
l 60 61
l 61 62
l 62 63
l 43 63
l 53 54
l 64 65
l 65 66
l 66 67
l 64 67
l 68 69
l 69 70
l 70 71
l 71 72
l 72 73
l 74 75
l 75 76
l 76 77
l 77 78
l 78 79
l 80 81
l 81 82
l 82 83
l 83 84
l 84 85
l 85 86
l 86 87
l 87 88
l 88 89
l 89 90
l 68 90
l 73 74
l 79 80
l 91 92
l 92 93
l 93 94
l 91 94
l 95 96
l 96 97
l 97 98
l 98 99
l 99 100
l 100 101
l 101 102
l 95 102
l 3 103
l 103 104
l 104 105
l 9 105
l 105 106
l 56 57
l 11 107
l 10 57
l 55 107
l 12 55
l 11 12
l 56 108
l 109 110
l 13 110
l 110 111
l 14 111
l 111 112
l 15 112
l 112 113
l 17 50
l 16 51
l 18 49
l 19 48
l 20 47
l 114 115
l 21 115
l 115 116
l 22 116
l 116 117
l 23 117
l 117 118
l 24 118
l 118 119
l 119 120
l 26 120
l 120 121
l 76 98
l 28 98
l 27 77
l 29 97
l 30 96
l 31 95
l 32 102
l 33 100
l 34 74
l 75 99
l 35 73
l 36 71
l 37 70
l 38 69
l 39 68
l 40 90
l 41 89
l 1 88
l 2 87
l 126 127
l 127 129
l 103 129
l 7 65
l 66 91
l 42 64
l 67 94
l 8 93
l 5 92
l 131 132
l 45 132
l 132 133
l 46 133
l 114 133
l 113 134
l 52 134
l 134 135
l 53 135
l 135 136
l 54 136
l 109 136
l 106 137
l 58 137
l 137 138
l 59 138
l 138 139
l 139 140
l 61 140
l 140 141
l 62 141
l 141 142
l 63 142
l 142 143
l 131 143
l 121 144
l 78 144
l 144 145
l 79 145
l 145 146
l 146 147
l 81 147
l 147 148
l 148 149
l 83 149
l 149 150
l 84 150
l 150 151
l 85 151
l 151 152
l 86 152
l 126 152
