# Source coordinates; no display transform
v -0.109268790277 -0.385511764251 0.405802858578
v 0.145136696248 -0.452877110747 0.217756530489
v 0.167617865947 -0.457122941006 0.201451807758
v 0.221993228483 -0.467392360463 0.16201546078
v 0.230509252438 -0.435503603673 0.161970288879
v 0.242162337983 -0.426892177008 0.155497785436
v 0.354971155935 -0.00989245680627 0.153907430206
v 0.390669442304 0.16835867154 0.161877222074
v 0.381551125075 0.229082579037 0.179289829708
v 0.403556192734 0.245122767695 0.167027015653
v 0.43217994881 0.356945141279 0.16772429266
v 0.278994020596 0.397854074951 0.281016521939
v 0.11615216984 0.441341662529 0.401450014143
v 0.110428000199 0.442870325644 0.405683457438
v 0.00888749462332 0.0600047586762 0.405738642804
v -0.039782219361 -0.113021058038 0.407684542815
v -0.0889512573379 -0.301385986007 0.407167715336
v -0.0893480642144 -0.29607441317 0.408413995199
v -0.0577228404337 -0.176801802931 0.408401840112
v -0.0692256403438 -0.217695434532 0.408861742116
v -0.0894907050976 -0.294165040387 0.40886199989
v -0.106512938178 -0.358397919467 0.40886221637
v -0.105468186921 -0.356870477431 0.408420190748
v -0.102179259212 -0.352062015544 0.407028672678
v -0.105833575039 -0.366061576383 0.406990261273
v -0.104879735907 -0.368962529479 0.405800473001
v 0.0254186938769 0.136761444132 0.408369885186
v 0.106837910374 0.443829073959 0.408338592214
v 0.106133558896 0.444017173897 0.408859511757
v 0.0720411910308 0.315370659906 0.40885994537
v -0.110804522751 -0.385105109685 0.409899456332
v -0.109268790277 -0.385511764251 0.411029507555
v -0.10487973656 -0.36896253073 0.411028567861
v -0.10583357455 -0.36606157709 0.409843630829
v -0.102179259212 -0.352062015544 0.409802590709
v -0.106512937906 -0.3583979174 0.407978685898
v -0.107755893313 -0.360215138588 0.407455566735
v -0.107334306906 -0.361497329319 0.407979296438
v -0.113407875124 -0.384415754518 0.407983809221
v -0.0692256403438 -0.217695434532 0.407950980704
v -0.039782219361 -0.113021058038 0.409101843548
v 0.0720411910308 0.315370659906 0.40784601577
v -0.0894907050976 -0.294165040387 0.407966038168
v -0.0897519204275 -0.290668461916 0.4071486645
v -0.116395164396 -0.383624734716 0.405785646543
v 0.103184744247 0.444804667017 0.405649617684
v 0.102543469017 0.444975922212 0.405177478441
v 0.0988955592886 0.445950111551 0.402491702635
v -0.274626221085 0.545700642927 0.127486063472
v -0.495924419457 -0.28296358458 0.126483532122
v -0.423486603267 -0.302308402083 0.179815918548
v 0.221993228483 -0.467392360463 0.167384521919
v 0.230758210398 -0.469047729218 0.16103145324
v 0.242162337983 -0.426892177008 0.160874703727
v 0.230509252438 -0.435503603673 0.167342345646
v 0.25791989889 -0.415247614703 0.152129014753
v 0.352596208765 -0.101655378255 0.144169573229
v 0.453514484724 0.297114687187 0.147490295476
v 0.457284296129 0.350240921835 0.154610995197
v 0.43217994881 0.356945141279 0.173166478331
v 0.403556192734 0.245122767695 0.172459233507
v 0.381551125075 0.229082579037 0.184712862532
v 0.390669442304 0.16835867154 0.167305527347
v 0.354971155935 -0.00989245680627 0.159324148495
v 0.0254186938769 0.136761444132 0.413640625189
v -0.039782219361 -0.113021058038 0.412932470158
v 0.00888749462332 0.0600047586762 0.411003891102
v 0.110428000199 0.442870325644 0.410984366447
v 0.106837910374 0.443829073959 0.413637924874
v 0.106133558896 0.444017173897 0.414158535176
v 0.105655230686 0.444144913406 0.414512083923
v 0.0720411910308 0.315370659906 0.414146997756
v 0.167617865947 -0.457122941006 0.195925656581
v 0.145136696248 -0.452877110747 0.21224918467
v 0.267035244864 -0.485155258764 0.12204385359
v 0.487944609722 0.34205295868 0.120766829925
v 0.457284296129 0.350240921835 0.143468247301
v 0.453514484724 0.297114687187 0.136346249408
v 0.352596208765 -0.101655378255 0.133106740449
v 0.25791989889 -0.415247614703 0.141149228786
v 0.242162337983 -0.426892177008 0.149913334335
v 0.230758210398 -0.469047729218 0.150079590632
v 0.221993228483 -0.467392360463 0.156443824815
v -0.0889512573379 -0.301385986007 0.401866003844
v -0.039782219361 -0.113021058038 0.40235979522
v -0.0577228404337 -0.176801802931 0.40308595095
v -0.0893480636703 -0.296074411646 0.403113094895
v -0.0897519204275 -0.290668461916 0.404382344105
v -0.0692256403438 -0.217695434532 0.403551532574
v 0.0720411910308 0.315370659906 0.403482807553
v 0.105655230686 0.444144913406 0.403820384278
v -0.113407876212 -0.384415753158 0.403573027801
v -0.107334306906 -0.361497329319 0.403570072052
v -0.107755893313 -0.360215138588 0.404096408383
v -0.106512938178 -0.358397919467 0.403569672498
v -0.0894907050976 -0.294165040387 0.403561391309
v 0.43217994881 0.356945141279 -0.408321530808
v 0.278994020596 0.397854074951 -0.408321530808
v 0.11615216984 0.441341662529 -0.408321530808
v 0.110428000199 0.442870325644 -0.408321530808
v -0.0893480642144 -0.29607441317 -0.408321530808
v -0.104879735907 -0.368962529479 -0.408321530808
v 0.0579669290398 -0.429794977175 0.282188924786
v -0.109268790114 -0.385511765339 -0.408321530808
v 0.0579669290398 -0.429794977175 -0.408321530808
v 0.145136693908 -0.45287710955 -0.408321530808
v 0.106837910374 0.443829073959 -0.408321530808
v 0.106133558896 0.444017173897 -0.408321530808
v -0.10583357455 -0.36606157709 -0.408321530808
v -0.105468187302 -0.356870475691 -0.408321530808
v -0.106512937906 -0.3583979174 -0.408321530808
v -0.113407876212 -0.384415753158 -0.408321530808
v -0.110804520683 -0.38510511099 -0.408321530808
v 0.102543469017 0.444975922212 -0.408321530808
v 0.0988955592886 0.445950111551 -0.408321530808
v -0.274626221085 0.545700642927 -0.408321530808
v -0.495924419457 -0.28296358458 -0.408321530808
v -0.423486603267 -0.302308402083 -0.408321530808
v -0.116395163199 -0.383624737709 -0.408321530808
v 0.103184744247 0.444804667017 -0.408321530808
v 0.457284296129 0.350240921835 -0.408321530808
v 0.105655230686 0.444144913406 -0.408321530808
v 0.267035244864 -0.485155258764 -0.408321530808
v 0.487944609722 0.34205295868 -0.408321530808
v -0.0889512587525 -0.301385983015 -0.408321530808
g roof
f 1 103 2 3
g roof
f 1 3 4
g roof
f 1 4 5
g roof
f 1 5 6
g roof
f 1 6 7
g roof
f 1 7 8
g roof
f 1 8 9
g roof
f 9 10 11
g roof
f 9 11 12
g roof
f 9 12 13
g roof
f 9 13 14
g roof
f 9 14 15
g roof
f 9 15 16
g roof
f 9 16 17
g roof
f 18 19 20
g roof
f 18 20 21
g roof
f 18 21 22
g roof
f 18 22 23
g roof
f 18 23 24
g roof
f 24 25 26
g roof
f 26 1 9
g roof
f 26 9 17
g roof
f 26 17 18
g roof
f 26 18 24
g roof
f 27 28 29
g roof
f 27 29 30
g roof
f 31 32 33
g roof
f 31 33 34
g roof
f 23 37 38
g roof
f 23 38 39
g roof
f 23 39 31
g roof
f 23 31 34
g roof
f 23 34 35
g roof
f 40 41 27
g roof
f 40 27 42
g roof
f 43 40 44
g roof
f 45 46 47
g roof
f 45 47 48
g roof
f 45 48 49
g roof
f 45 49 50
g roof
f 45 50 51
g roof
f 52 53 54
g roof
f 52 54 55
g roof
f 56 57 58
g roof
f 56 58 59
g roof
f 59 60 61
g roof
f 61 62 63
g roof
f 64 54 56
g roof
f 64 56 59
g roof
f 59 61 63
g roof
f 59 63 64
g roof
f 65 66 67
g roof
f 65 67 68
g roof
f 65 68 69
g roof
f 70 71 72
g roof
f 73 74 75
g roof
f 76 77 78
g roof
f 76 78 79
g roof
f 76 79 80
g roof
f 80 81 82
g roof
f 83 73 75
g roof
f 75 76 80
g roof
f 75 80 82
g roof
f 75 82 83
g roof
f 84 85 86
g roof
f 84 86 87
g roof
f 88 89 90
g roof
f 88 90 91
g roof
f 88 91 46
g roof
f 88 46 45
g roof
f 92 93 94
g roof
f 94 95 96
g roof
f 94 96 88
g roof
f 94 88 45
g roof
f 94 45 92
g roof_step_or_fixture_side
f 3 2 74 73
g roof_step_or_fixture_side
f 4 3 73 83
g roof_step_or_fixture_side
f 52 55 5 4
g roof_step_or_fixture_side
f 55 54 6 5
g roof_step_or_fixture_side
f 54 64 7 6
g roof_step_or_fixture_side
f 64 63 8 7
g roof_step_or_fixture_side
f 63 62 9 8
g roof_step_or_fixture_side
f 62 61 10 9
g roof_step_or_fixture_side
f 61 60 11 10
g facade_completed
f 12 11 97 98
g facade_completed
f 13 12 98 99
g facade_completed
f 14 13 99 100
g roof_step_or_fixture_side
f 68 67 15 14
g roof_step_or_fixture_side
f 67 66 41 16 15
g roof_step_or_fixture_side
f 17 16 85 84
g roof_step_or_fixture_side
f 18 17 84 87
g roof_step_or_fixture_side
f 19 18 87 86
g roof_step_or_fixture_side
f 20 19 40
g roof_step_or_fixture_side
f 21 20 40 43
g roof_step_or_fixture_side
f 22 21 43 96 95 36
g roof_step_or_fixture_side
f 23 22 36
g roof_step_or_fixture_side
f 23 35 24
g roof_step_or_fixture_side
f 35 34 25 24
g roof_step_or_fixture_side
f 34 33 26 25
g roof_step_or_fixture_side
f 33 32 1 26
g facade_completed
f 103 1 104 105
g facade_completed
f 2 103 105 106 74
g roof_step_or_fixture_side
f 70 72 30 29
g roof_step_or_fixture_side
f 27 30 42
g roof_step_or_fixture_side
f 65 69 28 27
g facade_completed
f 29 28 107 108
g roof_step_or_fixture_side
f 37 36 95 94
g roof_step_or_fixture_side
f 38 37 94 93
g roof_step_or_fixture_side
f 39 38 93 92
g facade_completed
f 31 39 92 112 113
g facade_completed
f 32 31 113 104 1
g roof_step_or_fixture_side
f 66 65 27 41
g roof_step_or_fixture_side
f 40 42 90 89
g roof_step_or_fixture_side
f 41 19 86 85 16
g roof_step_or_fixture_side
f 43 44 88 96
g roof_step_or_fixture_side
f 44 40 89 88
g facade_completed
f 48 47 114 115
g facade_completed
f 49 48 115 116
g facade_completed
f 50 49 116 117
g facade_completed
f 51 50 117 118
g facade_completed
f 45 51 118 119
g facade_completed
f 47 46 120 114
g roof_step_or_fixture_side
f 53 52 4 83 82
g roof_step_or_fixture_side
f 54 53 82 81 6
g roof_step_or_fixture_side
f 59 58 78 77
g facade_completed
f 60 59 77 121 97 11
g roof_step_or_fixture_side
f 56 54 6 81 80
g roof_step_or_fixture_side
f 57 56 80 79
g roof_step_or_fixture_side
f 58 57 79 78
g facade_completed
f 69 68 14 100 107 28
g facade_completed
f 71 70 29 108 122 91
g roof_step_or_fixture_side
f 72 71 91 90 42 30
g facade_completed
f 76 75 123 124
g facade_completed
f 77 76 124 121
g facade_completed
f 75 74 106 123
g facade_completed
f 46 91 122 120
g facade_completed
f 92 45 119 112
g ground_assumed
f 117 119 118
g ground_assumed
f 117 112 119
g ground_assumed
f 117 113 112
g ground_assumed
f 117 104 113
g ground_assumed
f 117 105 104
g ground_assumed
f 117 106 105
g ground_assumed
f 117 123 106
g ground_assumed
f 117 124 123
g ground_assumed
f 117 121 124
g ground_assumed
f 117 97 121
g ground_assumed
f 117 98 97
g ground_assumed
f 117 99 98
g ground_assumed
f 117 100 99
g ground_assumed
f 117 107 100
g ground_assumed
f 117 108 107
g ground_assumed
f 117 122 108
g ground_assumed
f 117 120 122
g ground_assumed
f 117 114 120
g ground_assumed
f 117 115 114
g ground_assumed
f 117 116 115
