# pointcloud_to_mesh 0.5.1; candidate requires geometry validation; coordinates preserved
v -1.995409168 -7.212250207 7.448780192
v 2.680678829 -8.450455768 3.992403564
v 3.093892904 -8.528496050 3.692715380
v 4.093336680 -8.717252628 2.967857472
v 4.249865055 -8.131122844 2.967027192
v 4.464054042 -7.972840924 2.848059649
v 6.537531178 -0.308197315 2.818828200
v 7.193681840 2.968139108 2.965316582
v 7.026083042 4.084272014 3.285368192
v 7.430546146 4.379097942 3.059972119
v 7.956663739 6.434443784 3.072788386
v 5.141037040 7.186368502 5.155150841
v 2.147930114 7.985690046 7.368772941
v 2.042717285 8.013787566 7.446585545
v 0.176356831 0.976545144 7.447599877
v -0.718214542 -2.203747686 7.483366400
v -1.621963716 -5.665980324 7.473866877
v -1.629257206 -5.568351211 7.496774065
v -1.047971278 -3.376066647 7.496550649
v -1.259397947 -4.127710106 7.505003856
v -1.631879010 -5.533256075 7.505008594
v -1.944755359 -6.713885467 7.505012573
v -1.925552358 -6.685810391 7.496887942
v -1.865100378 -6.597428685 7.471311210
v -1.932268357 -6.854746950 7.470605191
v -1.914736362 -6.908067781 7.448736344
v 0.480207756 2.387367766 7.495963303
v 1.976729809 8.031409794 7.495388124
v 1.963783510 8.034867156 7.504962861
v 1.337150357 5.670285998 7.504970831
v -2.023636626 -7.204775712 7.524077513
v -1.995409168 -7.212250207 7.544848366
v -1.914736374 -6.908067804 7.544831094
v -1.932268348 -6.854746963 7.523051415
v -1.865100378 -6.597428685 7.522297079
v -1.944755354 -6.713885429 7.488772883
v -1.967601437 -6.747286777 7.479157716
v -1.959852488 -6.770854023 7.488784105
v -2.071487421 -7.192105052 7.488867052
v -1.259397947 -4.127710106 7.488263649
v -0.718214542 -2.203747686 7.509417029
v 1.337150357 5.670285998 7.486334346
v -1.631879010 -5.533256075 7.488540412
v -1.636680266 -5.468987380 7.473516714
v -2.126395150 -7.177565750 7.448463827
v 1.909582962 8.049341636 7.445963555
v 1.897796033 8.052489384 7.437285422
v 1.830745801 8.070395425 7.387919647
v -5.034753594 9.903855343 2.333191520
v -9.102314649 -5.327368247 2.314764540
v -7.770874799 -5.682934749 3.295037943
v 4.093336680 -8.717252628 3.066543246
v 4.254441015 -8.747679055 2.949770968
v 4.464054042 -7.972840924 2.946889841
v 4.249865055 -8.131122844 3.065768027
v 4.753685144 -7.758808598 2.786140119
v 6.493878574 -1.994841347 2.639841981
v 8.348802166 5.334732956 2.700878359
v 8.418093006 6.311217196 2.831760043
v 7.956663739 6.434443784 3.172818222
v 7.430546146 4.379097942 3.159818742
v 7.026083042 4.084272014 3.385045990
v 7.193681840 2.968139108 3.065091290
v 6.537531178 -0.308197315 2.918389934
v 0.480207756 2.387367766 7.592841890
v -0.718214542 -2.203747686 7.579825680
v 0.176356831 0.976545144 7.544377524
v 2.042717285 8.013787566 7.544018652
v 1.976729809 8.031409794 7.592792257
v 1.963783510 8.034867156 7.602361310
v 1.954991621 8.037215066 7.608859696
v 1.337150357 5.670285998 7.602149247
v 3.093892904 -8.528496050 3.591142220
v 2.680678829 -8.450455768 3.891176055
v 4.921229329 -9.043742739 2.233161239
v 8.981643448 6.160718727 2.209688966
v 8.418093006 6.311217196 2.626951293
v 8.348802166 5.334732956 2.496045748
v 6.493878574 -1.994841347 2.436502107
v 4.753685144 -7.758808598 2.584326683
v 4.464054042 -7.972840924 2.745414910
v 4.254441015 -8.747679055 2.748470776
v 4.093336680 -8.717252628 2.865448281
v -1.621963716 -5.665980324 7.376419020
v -0.718214542 -2.203747686 7.385495129
v -1.047971278 -3.376066647 7.398842200
v -1.629257196 -5.568351183 7.399341118
v -1.636680266 -5.468987380 7.422670493
v -1.259397947 -4.127710106 7.407399801
v 1.337150357 5.670285998 7.406136604
v 1.954991621 8.037215066 7.412341417
v -2.071487441 -7.192105027 7.407794893
v -1.959852488 -6.770854023 7.407740565
v -1.967601437 -6.747286777 7.417414865
v -1.944755359 -6.713885467 7.407733221
v -1.631879010 -5.533256075 7.407581009
v 7.956663739 6.434443784 -7.515194592
v 5.141037040 7.186368502 -7.515194592
v 2.147930114 7.985690046 -7.515194592
v 2.042717285 8.013787566 -7.515194592
v -1.629257206 -5.568351211 -7.515194592
v -1.914736362 -6.908067781 -7.515194592
v 1.078459051 -8.026195705 5.176700136
v -1.995409165 -7.212250227 -7.515194592
v 1.078459051 -8.026195705 -7.515194592
v 2.680678786 -8.450455746 -7.515194592
v 1.976729809 8.031409794 -7.515194592
v 1.963783510 8.034867156 -7.515194592
v -1.932268348 -6.854746963 -7.515194592
v -1.925552365 -6.685810359 -7.515194592
v -1.944755354 -6.713885429 -7.515194592
v -2.071487441 -7.192105027 -7.515194592
v -2.023636588 -7.204775736 -7.515194592
v 1.897796033 8.052489384 -7.515194592
v 1.830745801 8.070395425 -7.515194592
v -5.034753594 9.903855343 -7.515194592
v -9.102314649 -5.327368247 -7.515194592
v -7.770874799 -5.682934749 -7.515194592
v -2.126395128 -7.177565805 -7.515194592
v 1.909582962 8.049341636 -7.515194592
v 8.418093006 6.311217196 -7.515194592
v 1.954991621 8.037215066 -7.515194592
v 4.921229329 -9.043742739 -7.515194592
v 8.981643448 6.160718727 -7.515194592
v -1.621963742 -5.665980269 -7.515194592
g roof
f 1 103 2 3
g roof
f 1 3 4
g roof
f 1 4 5
g roof
f 1 5 6
g roof
f 1 6 7
g roof
f 1 7 8
g roof
f 1 8 9
g roof
f 9 10 11
g roof
f 9 11 12
g roof
f 9 12 13
g roof
f 9 13 14
g roof
f 9 14 15
g roof
f 9 15 16
g roof
f 9 16 17
g roof
f 18 19 20
g roof
f 18 20 21
g roof
f 18 21 22
g roof
f 18 22 23
g roof
f 18 23 24
g roof
f 24 25 26
g roof
f 26 1 9
g roof
f 26 9 17
g roof
f 26 17 18
g roof
f 26 18 24
g roof
f 27 28 29
g roof
f 27 29 30
g roof
f 31 32 33
g roof
f 31 33 34
g roof
f 23 37 38
g roof
f 23 38 39
g roof
f 23 39 31
g roof
f 23 31 34
g roof
f 23 34 35
g roof
f 40 41 27
g roof
f 40 27 42
g roof
f 43 40 44
g roof
f 45 46 47
g roof
f 45 47 48
g roof
f 45 48 49
g roof
f 45 49 50
g roof
f 45 50 51
g roof
f 52 53 54
g roof
f 52 54 55
g roof
f 56 57 58
g roof
f 56 58 59
g roof
f 59 60 61
g roof
f 61 62 63
g roof
f 64 54 56
g roof
f 64 56 59
g roof
f 59 61 63
g roof
f 59 63 64
g roof
f 65 66 67
g roof
f 65 67 68
g roof
f 65 68 69
g roof
f 70 71 72
g roof
f 73 74 75
g roof
f 76 77 78
g roof
f 76 78 79
g roof
f 76 79 80
g roof
f 80 81 82
g roof
f 83 73 75
g roof
f 75 76 80
g roof
f 75 80 82
g roof
f 75 82 83
g roof
f 84 85 86
g roof
f 84 86 87
g roof
f 88 89 90
g roof
f 88 90 91
g roof
f 88 91 46
g roof
f 88 46 45
g roof
f 92 93 94
g roof
f 94 95 96
g roof
f 94 96 88
g roof
f 94 88 45
g roof
f 94 45 92
g roof_step_or_fixture_side
f 3 2 74 73
g roof_step_or_fixture_side
f 4 3 73 83
g roof_step_or_fixture_side
f 52 55 5 4
g roof_step_or_fixture_side
f 55 54 6 5
g roof_step_or_fixture_side
f 54 64 7 6
g roof_step_or_fixture_side
f 64 63 8 7
g roof_step_or_fixture_side
f 63 62 9 8
g roof_step_or_fixture_side
f 62 61 10 9
g roof_step_or_fixture_side
f 61 60 11 10
g facade_completed
f 12 11 97 98
g facade_completed
f 13 12 98 99
g facade_completed
f 14 13 99 100
g roof_step_or_fixture_side
f 68 67 15 14
g roof_step_or_fixture_side
f 67 66 41 16 15
g roof_step_or_fixture_side
f 17 16 85 84
g roof_step_or_fixture_side
f 18 17 84 87
g roof_step_or_fixture_side
f 19 18 87 86
g roof_step_or_fixture_side
f 20 19 40
g roof_step_or_fixture_side
f 21 20 40 43
g roof_step_or_fixture_side
f 22 21 43 96 95 36
g roof_step_or_fixture_side
f 23 22 36
g roof_step_or_fixture_side
f 23 35 24
g roof_step_or_fixture_side
f 35 34 25 24
g roof_step_or_fixture_side
f 34 33 26 25
g roof_step_or_fixture_side
f 33 32 1 26
g facade_completed
f 103 1 104 105
g facade_completed
f 2 103 105 106 74
g roof_step_or_fixture_side
f 70 72 30 29
g roof_step_or_fixture_side
f 27 30 42
g roof_step_or_fixture_side
f 65 69 28 27
g facade_completed
f 29 28 107 108
g roof_step_or_fixture_side
f 37 36 95 94
g roof_step_or_fixture_side
f 38 37 94 93
g roof_step_or_fixture_side
f 39 38 93 92
g facade_completed
f 31 39 92 112 113
g facade_completed
f 32 31 113 104 1
g roof_step_or_fixture_side
f 66 65 27 41
g roof_step_or_fixture_side
f 40 42 90 89
g roof_step_or_fixture_side
f 41 19 86 85 16
g roof_step_or_fixture_side
f 43 44 88 96
g roof_step_or_fixture_side
f 44 40 89 88
g facade_completed
f 48 47 114 115
g facade_completed
f 49 48 115 116
g facade_completed
f 50 49 116 117
g facade_completed
f 51 50 117 118
g facade_completed
f 45 51 118 119
g facade_completed
f 47 46 120 114
g roof_step_or_fixture_side
f 53 52 4 83 82
g roof_step_or_fixture_side
f 54 53 82 81 6
g roof_step_or_fixture_side
f 59 58 78 77
g facade_completed
f 60 59 77 121 97 11
g roof_step_or_fixture_side
f 56 54 6 81 80
g roof_step_or_fixture_side
f 57 56 80 79
g roof_step_or_fixture_side
f 58 57 79 78
g facade_completed
f 69 68 14 100 107 28
g facade_completed
f 71 70 29 108 122 91
g roof_step_or_fixture_side
f 72 71 91 90 42 30
g facade_completed
f 76 75 123 124
g facade_completed
f 77 76 124 121
g facade_completed
f 75 74 106 123
g facade_completed
f 46 91 122 120
g facade_completed
f 92 45 119 112
g ground_assumed
f 117 119 118
g ground_assumed
f 117 112 119
g ground_assumed
f 117 113 112
g ground_assumed
f 117 104 113
g ground_assumed
f 117 105 104
g ground_assumed
f 117 106 105
g ground_assumed
f 117 123 106
g ground_assumed
f 117 124 123
g ground_assumed
f 117 121 124
g ground_assumed
f 117 97 121
g ground_assumed
f 117 98 97
g ground_assumed
f 117 99 98
g ground_assumed
f 117 100 99
g ground_assumed
f 117 107 100
g ground_assumed
f 117 108 107
g ground_assumed
f 117 122 108
g ground_assumed
f 117 120 122
g ground_assumed
f 117 114 120
g ground_assumed
f 117 115 114
g ground_assumed
f 117 116 115
