v -0.10926879027736004 -0.38551176425105771 0.4058028585783432
v 0.14513669624770134 -0.45287711074717529 0.21775653048863874
v 0.16761786594699307 -0.45712294100603701 0.20145180775774782
v 0.22199322848312383 -0.4673923604634348 0.16201546078040538
v 0.23050925243784845 -0.43550360367335395 0.16197028887870304
v 0.24216233798307435 -0.42689217700825377 0.15549778543629056
v 0.35497115593540912 -0.0098924568062715677 0.15390743020571138
v 0.39066944230361822 0.16835867154029668 0.16187722207380462
v 0.38155112507486622 0.22908257903727541 0.17928982970809573
v 0.4035561927341087 0.24512276769522268 0.16702701565301556
v 0.43217994881021982 0.35694514127902588 0.16772429265970618
v 0.27899402059595069 0.39785407495087644 0.28101652193889703
v 0.11615216983970177 0.4413416625287292 0.40145001414315584
v 0.11042800019884054 0.44287032564420803 0.4056834574382997
v 0.0088874946233197128 0.060004758676198047 0.40573864280395655
v -0.039782219360990745 -0.11302105803798521 0.4076845428150262
v -0.088951257337949147 -0.30138598600735444 0.40716771533613316
v -0.089348064214360812 -0.29607441316960847 0.40841399519908705
v -0.05772284043373746 -0.17680180293138792 0.40840184011213954
v -0.069225640343796163 -0.21769543453176757 0.40886174211588966
v -0.089490705097642162 -0.29416504038738711 0.40886199988973737
v -0.10651293817807105 -0.35839791946713206 0.4088622163697162
v -0.10546818692119127 -0.35687047743148381 0.40842019074835967
v -0.1021792592121383 -0.3520620155442673 0.40702867267762288
v -0.10583357503924914 -0.36606157638253822 0.40699026127319549
v -0.10487973590692497 -0.36896252947862584 0.40580047300053113
v 0.025418693876907015 0.13676144413223371 0.40836988518635875
v 0.10683791037437378 0.44382907395922522 0.40833859221380819
v 0.10613355889555068 0.44401717389709372 0.40885951175732349
v 0.072041191030793775 0.31537065990614166 0.4088599453701488
v -0.11080452275084279 -0.38510510968462863 0.40989945633170644
v -0.10926879027736004 -0.38551176425105771 0.41102950755537793
v -0.10487973655979246 -0.36896253072995522 0.41102856786143593
v -0.10583357454959852 -0.36606157708981135 0.40984363082947473
v -0.1021792592121383 -0.3520620155442673 0.40980259070850034
v -0.10651293790604294 -0.35839791739971838 0.40797868589763853
v -0.10775589331332693 -0.36021513858845233 0.40745556673473482
v -0.10733430690569994 -0.3614973293189373 0.40797929643755382
v -0.11340787512368009 -0.38441575451766818 0.40798380922086852
v -0.069225640343796163 -0.21769543453176757 0.40795098070397917
v -0.039782219360990745 -0.11302105803798521 0.40910184354787815
v 0.072041191030793775 0.31537065990614166 0.40784601576989665
v -0.089490705097642162 -0.29416504038738711 0.40796603816776345
v -0.089751920427506557 -0.29066846191617457 0.40714866449952891
v -0.11639516439607896 -0.38362473471619785 0.4057856465430274
v 0.10318474424691459 0.4448046670171889 0.40564961768407237
v 0.1025434690166783 0.4449759222121108 0.40517747844088225
v 0.098895559288606036 0.44595011155056319 0.40249170263541856
v -0.27462622108487172 0.54570064292684206 0.12748606347157815
v -0.49592441945743482 -0.28296358457955539 0.12648353212163452
v -0.42348660326676041 -0.30230840208328047 0.17981591854759349
v 0.22199322848312383 -0.4673923604634348 0.16738452191947709
v 0.23075821039819183 -0.46904772921806914 0.16103145323978393
v 0.24216233798307435 -0.42689217700825377 0.16087470372680518
v 0.23050925243784845 -0.43550360367335395 0.16734234564585154
v 0.25791989888962114 -0.41524761470252847 0.1521290147533694
v 0.35259620876464787 -0.10165537825489271 0.14416957322885599
v 0.45351448472359679 0.29711468718712053 0.14749029547590944
v 0.45728429612860871 0.35024092183467925 0.15461099519683033
v 0.43217994881021982 0.35694514127902588 0.17316647833091867
v 0.4035561927341087 0.24512276769522268 0.17245923350659231
v 0.38155112507486622 0.22908257903727541 0.18471286253215846
v 0.39066944230361822 0.16835867154029668 0.16730552734691342
v 0.35497115593540912 -0.0098924568062715677 0.15932414849540114
v 0.025418693876907015 0.13676144413223371 0.41364062518855882
v -0.039782219360990745 -0.11302105803798521 0.41293247015813872
v 0.0088874946233197128 0.060004758676198047 0.41100389110244473
v 0.11042800019884054 0.44287032564420803 0.41098436644725889
v 0.10683791037437378 0.44382907395922522 0.41363792487421047
v 0.10613355889555068 0.44401717389709372 0.41415853517615742
v 0.10565523068616832 0.44414491340632667 0.41451208392310535
v 0.072041191030793775 0.31537065990614166 0.41414699775626207
v 0.16761786594699307 -0.45712294100603701 0.19592565658089522
v 0.14513669624770134 -0.45287711074717529 0.21224918467021378
v 0.26703524486401592 -0.48515525876386567 0.12204385358986286
v 0.48794460972202364 0.34205295868005392 0.12076682992472969
v 0.45728429612860871 0.35024092183467925 0.14346824730120303
v 0.45351448472359679 0.29711468718712053 0.13634624940768195
v 0.35259620876464787 -0.10165537825489271 0.13310674044895465
v 0.25791989888962114 -0.41524761470252847 0.14114922878573713
v 0.24216233798307435 -0.42689217700825377 0.1499133343350097
v 0.23075821039819183 -0.46904772921806914 0.15007959063236426
v 0.22199322848312383 -0.4673923604634348 0.15644382481510535
v -0.088951257337949147 -0.30138598600735444 0.40186600384421634
v -0.039782219360990745 -0.11302105803798521 0.402359795220123
v -0.05772284043373746 -0.17680180293138792 0.40308595094978805
v -0.089348063670304567 -0.29607441164625092 0.40311309489502767
v -0.089751920427506557 -0.29066846191617457 0.40438234410526674
v -0.069225640343796163 -0.21769543453176757 0.40355153257427612
v 0.072041191030793775 0.31537065990614166 0.4034828075529403
v 0.10565523068616832 0.44414491340632667 0.40382038427756028
v -0.11340787621179257 -0.38441575315752763 0.40357302780117232
v -0.10733430690569994 -0.3614973293189373 0.40357007205241802
v -0.10775589331332693 -0.36021513858845233 0.40409640838310057
v -0.10651293817807105 -0.35839791946713206 0.40356967249751352
v -0.089490705097642162 -0.29416504038738711 0.40356139130863522
v 0.43217994881021982 0.35694514127902588 -0.4083215308075373
v 0.27899402059595069 0.39785407495087644 -0.4083215308075373
v 0.11615216983970177 0.4413416625287292 -0.4083215308075373
v 0.11042800019884054 0.44287032564420803 -0.4083215308075373
v -0.089348064214360812 -0.29607441316960847 -0.4083215308075373
v -0.10487973590692497 -0.36896252947862584 -0.4083215308075373
v 0.057966929039796965 -0.4297949771752847 0.28218892478552104
v -0.10926879011414319 -0.3855117653391702 -0.4083215308075373
v 0.057966929039796965 -0.4297949771752847 -0.4083215308075373
v 0.14513669390825951 -0.45287710955025151 -0.4083215308075373
v 0.10683791037437378 0.44382907395922522 -0.4083215308075373
v 0.10613355889555068 0.44401717389709372 -0.4083215308075373
v -0.10583357454959852 -0.36606157708981135 -0.4083215308075373
v -0.10546818730203063 -0.35687047569050379 -0.4083215308075373
v -0.10651293790604294 -0.35839791739971838 -0.4083215308075373
v -0.11340787621179257 -0.38441575315752763 -0.4083215308075373
v -0.11080452068342907 -0.3851051109903636 -0.4083215308075373
v 0.1025434690166783 0.4449759222121108 -0.4083215308075373
v 0.098895559288606036 0.44595011155056319 -0.4083215308075373
v -0.27462622108487172 0.54570064292684206 -0.4083215308075373
v -0.49592441945743482 -0.28296358457955539 -0.4083215308075373
v -0.42348660326676041 -0.30230840208328047 -0.4083215308075373
v -0.11639516319915522 -0.38362473770850725 -0.4083215308075373
v 0.10318474424691459 0.4448046670171889 -0.4083215308075373
v 0.45728429612860871 0.35024092183467925 -0.4083215308075373
v 0.10565523068616832 0.44414491340632667 -0.4083215308075373
v 0.26703524486401592 -0.48515525876386567 -0.4083215308075373
v 0.48794460972202364 0.34205295868005392 -0.4083215308075373
v -0.088951258752495377 -0.30138598301504504 -0.4083215308075373
l 1 103
l 2 103
l 2 3
l 3 4
l 4 5
l 5 6
l 6 7
l 7 8
l 8 9
l 9 10
l 10 11
l 11 12
l 12 13
l 13 14
l 14 15
l 15 16
l 16 17
l 18 19
l 19 20
l 20 21
l 21 22
l 22 23
l 23 24
l 24 25
l 25 26
l 1 26
l 17 18
l 27 28
l 28 29
l 29 30
l 27 30
l 31 32
l 32 33
l 33 34
l 23 37
l 37 38
l 38 39
l 31 39
l 34 35
l 23 35
l 40 41
l 27 41
l 27 42
l 40 42
l 40 43
l 40 44
l 43 44
l 45 46
l 46 47
l 47 48
l 48 49
l 49 50
l 50 51
l 45 51
l 52 53
l 53 54
l 54 55
l 52 55
l 56 57
l 57 58
l 58 59
l 59 60
l 60 61
l 61 62
l 62 63
l 54 64
l 54 56
l 63 64
l 65 66
l 66 67
l 67 68
l 68 69
l 65 69
l 70 71
l 71 72
l 70 72
l 73 74
l 74 75
l 76 77
l 77 78
l 78 79
l 79 80
l 80 81
l 81 82
l 73 83
l 75 76
l 82 83
l 84 85
l 85 86
l 86 87
l 84 87
l 88 89
l 89 90
l 90 91
l 46 91
l 92 93
l 93 94
l 94 95
l 95 96
l 88 96
l 45 92
l 5 55
l 4 52
l 6 54
l 8 63
l 9 62
l 10 61
l 11 60
l 97 98
l 98 99
l 99 100
l 14 68
l 41 66
l 16 85
l 17 84
l 18 87
l 19 40
l 43 96
l 36 95
l 22 36
l 23 36
l 24 35
l 25 34
l 26 33
l 1 32
l 104 105
l 105 106
l 30 72
l 29 70
l 28 69
l 107 108
l 36 37
l 37 94
l 38 93
l 39 92
l 112 113
l 104 113
l 19 41
l 44 88
l 114 115
l 115 116
l 49 116
l 116 117
l 50 117
l 117 118
l 118 119
l 114 120
l 53 82
l 6 81
l 58 78
l 59 77
l 97 121
l 56 80
l 100 107
l 108 122
l 71 91
l 75 123
l 123 124
l 76 124
l 121 124
l 106 123
l 120 122
l 112 119
