# Source coordinates; no display transform
v 0.314766559175 0.394040765238 0.0812950970156
v -0.0407994316288 0.500177697332 0.0814366640982
v -0.325727349061 -0.454350338245 0.0814055629392
v -0.215940883231 -0.487121747668 0.0813618519077
v -0.19788893338 -0.426646479477 0.0813638223905
v 0.0478905916341 -0.500012002108 0.0812659663394
v -0.325727349061 -0.454350338245 -0.0801771995156
v -0.215940883231 -0.487121747668 -0.0801771995156
v -0.19788893338 -0.426646479477 -0.0801771995156
v 0.0478905916341 -0.500012002108 -0.0801771995156
v 0.314766559175 0.394040765238 -0.0801771995156
v -0.0407994316288 0.500177697332 -0.0801771995156
g roof
f 1 2 3
g roof
f 3 4 5
g roof
f 5 6 1
g roof
f 5 1 3
g facade_completed
f 4 3 7 8
g facade_completed
f 5 4 8 9
g facade_completed
f 6 5 9 10
g facade_completed
f 1 6 10 11
g facade_completed
f 2 1 11 12
g facade_completed
f 3 2 12 7
g ground_assumed
f 12 8 7
g ground_assumed
f 12 9 8
g ground_assumed
f 12 10 9
g ground_assumed
f 12 11 10
