v 0.31476655917546403 0.39404076523806086 0.081295097015615242
v -0.040799431628777812 0.50017769733157591 0.081436664098229583
v -0.32572734906132139 -0.45435033824543175 0.081405562939173365
v -0.21594088323066724 -0.48712174766791566 0.081361851907705229
v -0.19788893337975361 -0.42664647947744527 0.081363822390502744
v 0.047890591634148327 -0.5000120021081621 0.081265966339356566
v -0.32572734906132139 -0.45435033824543175 -0.08017719951557159
v -0.21594088323066724 -0.48712174766791566 -0.08017719951557159
v -0.19788893337975361 -0.42664647947744527 -0.08017719951557159
v 0.047890591634148327 -0.5000120021081621 -0.08017719951557159
v 0.31476655917546403 0.39404076523806086 -0.08017719951557159
v -0.040799431628777812 0.50017769733157591 -0.08017719951557159
l 1 2
l 2 3
l 3 4
l 4 5
l 5 6
l 1 6
l 3 7
l 7 8
l 4 8
l 8 9
l 5 9
l 9 10
l 6 10
l 10 11
l 1 11
l 11 12
l 2 12
l 7 12
