# Source coordinates; no display transform
v 2685526.25 1251230.625 434.227437702
v 2685528.25 1251232.875 434.227011992
v 2685542.75 1251250.25 434.225058009
v 2685547.75 1251256.375 434.224526636
v 2685547.75 1251256.5 434.224659864
v 2685546.75 1251257.5 434.227137529
v 2685544.5 1251259.375 434.232312623
v 2685543.75 1251259.875 434.233904427
v 2685543.25 1251260.125 434.234876824
v 2685542.75 1251259.625 434.235049856
v 2685541 1251257.625 434.235389044
v 2685523.5 1251236.625 434.237715144
v 2685522.75 1251235.625 434.237708256
v 2685521.75 1251234.125 434.237521435
v 2685523 1251232.75 434.234291109
v 2685525.5 1251230.75 434.228629823
v 2685526 1251230.625 434.227790667
v 2685526.25 1251230.625 431.39999389
v 2685528.25 1251232.875 431.39999389
v 2685542.75 1251250.25 431.39999389
v 2685547.75 1251256.375 431.39999389
v 2685547.75 1251256.5 431.39999389
v 2685546.75 1251257.5 431.39999389
v 2685544.5 1251259.375 431.39999389
v 2685543.75 1251259.875 431.39999389
v 2685543.25 1251260.125 431.39999389
v 2685542.75 1251259.625 431.39999389
v 2685541 1251257.625 431.39999389
v 2685523.5 1251236.625 431.39999389
v 2685522.75 1251235.625 431.39999389
v 2685521.75 1251234.125 431.39999389
v 2685523 1251232.75 431.39999389
v 2685525.5 1251230.75 431.39999389
v 2685526 1251230.625 431.39999389
g roof
f 1 2 3 4 5 6 7 8 9 10 11 12 13 14 15 16 17
g wall
f 2 1 18 19
g wall
f 3 2 19 20
g wall
f 4 3 20 21
g wall
f 5 4 21 22
g wall
f 6 5 22 23
g wall
f 7 6 23 24
g wall
f 8 7 24 25
g wall
f 9 8 25 26
g wall
f 10 9 26 27
g wall
f 11 10 27 28
g wall
f 12 11 28 29
g wall
f 13 12 29 30
g wall
f 14 13 30 31
g wall
f 15 14 31 32
g wall
f 16 15 32 33
g wall
f 17 16 33 34
g wall
f 1 17 34 18
g ground_assumed
f 34 33 32 31 30 29 28 27 26 25 24 23 22 21 20 19 18
