# XYZ-only planar convex-roof baseline. Provisional base; no GT.
v -6.46618978 -11.22074110 1.05165843
v -4.94473336 -9.50910262 1.05133458
v 6.08582568 3.70855002 1.04984813
v 9.88946673 8.36801031 1.04944390
v 9.88946673 8.46310134 1.04954525
v 9.12873852 9.22382955 1.05143008
v 7.41710005 10.65019494 1.05536692
v 6.84655389 11.03055904 1.05657785
v 6.46618978 11.22074110 1.05731758
v 6.08582568 10.84037699 1.05744921
v 4.75455131 9.31892057 1.05770724
v -8.55819236 -6.65637184 1.05947677
v -9.12873852 -7.41710005 1.05947153
v -9.88946673 -8.55819236 1.05932941
v -8.93855647 -9.60419365 1.05687201
v -7.03673594 -11.12565007 1.05256531
v -6.65637184 -11.22074110 1.05192694
v -6.46618978 -11.22074110 -1.09925784
v -4.94473336 -9.50910262 -1.09925784
v 6.08582568 3.70855002 -1.09925784
v 9.88946673 8.36801031 -1.09925784
v 9.88946673 8.46310134 -1.09925784
v 9.12873852 9.22382955 -1.09925784
v 7.41710005 10.65019494 -1.09925784
v 6.84655389 11.03055904 -1.09925784
v 6.46618978 11.22074110 -1.09925784
v 6.08582568 10.84037699 -1.09925784
v 4.75455131 9.31892057 -1.09925784
v -8.55819236 -6.65637184 -1.09925784
v -9.12873852 -7.41710005 -1.09925784
v -9.88946673 -8.55819236 -1.09925784
v -8.93855647 -9.60419365 -1.09925784
v -7.03673594 -11.12565007 -1.09925784
v -6.65637184 -11.22074110 -1.09925784
g roof
f 1 2 3 4 5 6 7 8 9 10 11 12 13 14 15 16 17
g wall
f 2 1 18 19
g wall
f 3 2 19 20
g wall
f 4 3 20 21
g wall
f 5 4 21 22
g wall
f 6 5 22 23
g wall
f 7 6 23 24
g wall
f 8 7 24 25
g wall
f 9 8 25 26
g wall
f 10 9 26 27
g wall
f 11 10 27 28
g wall
f 12 11 28 29
g wall
f 13 12 29 30
g wall
f 14 13 30 31
g wall
f 15 14 31 32
g wall
f 16 15 32 33
g wall
f 17 16 33 34
g wall
f 1 17 34 18
g ground_assumed
f 34 33 32 31 30 29 28 27 26 25 24 23 22 21 20 19 18
