v 2685526.2500000056 1251230.6249999946 434.22743770237417
v 2685528.2500000056 1251232.8750000049 434.22701199185656
v 2685542.7500000009 1251250.2499999958 434.22505800884312
v 2685547.7500000019 1251256.3750000014 434.22452663640973
v 2685547.7500000019 1251256.5000000065 434.22465986401812
v 2685546.7500000014 1251257.5000000065 434.22713752946481
v 2685544.5000000047 1251259.3750000019 434.23231262347178
v 2685543.7500000014 1251259.8749999953 434.23390442719915
v 2685543.2499999944 1251260.1250000054 434.23487682442374
v 2685542.7500000009 1251259.6249999986 434.23504985599834
v 2685540.9999999977 1251257.6249999984 434.23538904415602
v 2685523.5000000019 1251236.6249999956 434.23771514430189
v 2685522.7499999986 1251235.6249999953 434.23770825616504
v 2685521.7499999981 1251234.1250000019 434.23752143517146
v 2685522.9999999953 1251232.75 434.23429110932312
v 2685525.5000000019 1251230.7499999998 434.22862982327649
v 2685525.9999999953 1251230.6249999946 434.2277906668055
v 2685526.2500000056 1251230.6249999946 431.39999388996927
v 2685528.2500000056 1251232.8750000049 431.39999388996927
v 2685542.7500000009 1251250.2499999958 431.39999388996927
v 2685547.7500000019 1251256.3750000014 431.39999388996927
v 2685547.7500000019 1251256.5000000065 431.39999388996927
v 2685546.7500000014 1251257.5000000065 431.39999388996927
v 2685544.5000000047 1251259.3750000019 431.39999388996927
v 2685543.7500000014 1251259.8749999953 431.39999388996927
v 2685543.2499999944 1251260.1250000054 431.39999388996927
v 2685542.7500000009 1251259.6249999986 431.39999388996927
v 2685540.9999999977 1251257.6249999984 431.39999388996927
v 2685523.5000000019 1251236.6249999956 431.39999388996927
v 2685522.7499999986 1251235.6249999953 431.39999388996927
v 2685521.7499999981 1251234.1250000019 431.39999388996927
v 2685522.9999999953 1251232.75 431.39999388996927
v 2685525.5000000019 1251230.7499999998 431.39999388996927
v 2685525.9999999953 1251230.6249999946 431.39999388996927
l 1 2
l 2 3
l 3 4
l 4 5
l 5 6
l 6 7
l 7 8
l 8 9
l 9 10
l 10 11
l 11 12
l 12 13
l 13 14
l 14 15
l 15 16
l 16 17
l 1 17
l 1 18
l 18 19
l 19 20
l 20 21
l 4 21
l 21 22
l 5 22
l 22 23
l 23 24
l 24 25
l 25 26
l 9 26
l 26 27
l 27 28
l 28 29
l 29 30
l 30 31
l 14 31
l 31 32
l 32 33
l 16 33
l 33 34
l 17 34
l 18 34
