# pointcloud_to_mesh 0.5.1; candidate requires geometry validation; coordinates preserved
v 2.235100048 -2.580239012 7.706588287
v 2.267713566 -3.186142004 8.064123655
v 2.491805309 -3.067843860 7.705961735
v 4.156398393 -2.189104333 5.045471670
v 3.901828630 -1.706873760 5.046959479
v 1.993512440 1.908042644 5.058112451
v 1.463785116 2.911503183 5.061208392
v 0.563010576 4.617837112 5.066472884
v -0.199055532 2.043483844 7.712457939
v -0.199076139 2.043414229 7.712529492
v 2.235052615 -2.580148914 7.706588403
v -0.199100446 2.043460398 7.712481834
v -3.296963424 0.426345146 7.718354384
v -1.618801081 -2.752591664 7.714257674
v -0.855138478 -4.199194951 7.712393429
v -1.107800686 3.769512454 5.040666397
v -4.200072182 2.137100774 5.068712657
v 0.549098639 4.644190442 5.025638664
v -0.592772428 -4.696194001 8.076057795
v 2.267713566 -3.186142004 -7.905658100
v 2.491805309 -3.067843860 -7.905658100
v 4.156398393 -2.189104333 -7.905658100
v 3.901828630 -1.706873760 -7.905658100
v 1.993512440 1.908042644 -7.905658100
v 1.463785116 2.911503183 -7.905658100
v 0.563010576 4.617837112 -7.905658100
v -1.618801081 -2.752591664 -7.905658100
v -0.855138478 -4.199194951 -7.905658100
v -3.296963424 0.426345146 -7.905658100
v -4.200072182 2.137100774 -7.905658100
v 0.549098639 4.644190442 -7.905658100
v -1.107800686 3.769512454 -7.905658100
v -0.592772428 -4.696194001 -7.905658100
g roof
f 1 2 3
g roof
f 1 3 4
g roof
f 1 4 5
g roof
f 1 5 6
g roof
f 1 6 7
g roof
f 1 7 8
g roof
f 1 8 9 11
g roof
f 9 10 11
g roof
f 9 11 1
g roof
f 12 13 14
g roof
f 12 14 15
g roof
f 12 15 11
g roof
f 12 10 9
g roof
f 16 17 13
g roof
f 16 13 12
g roof
f 16 12 9
g roof
f 16 9 8
g roof
f 16 8 18
g roof
f 15 19 2
g roof
f 15 2 1
g roof
f 15 1 11
g facade_completed
f 3 2 20 21
g facade_completed
f 4 3 21 22
g facade_completed
f 5 4 22 23
g facade_completed
f 6 5 23 24
g facade_completed
f 7 6 24 25
g facade_completed
f 8 7 25 26
g facade_completed
f 15 14 27 28
g facade_completed
f 14 13 29 27
g facade_completed
f 13 17 30 29
g facade_completed
f 18 8 26 31
g facade_completed
f 16 18 31 32
g facade_completed
f 17 16 32 30
g facade_completed
f 19 15 28 33
g facade_completed
f 2 19 33 20
g ground_assumed
f 26 32 31
g ground_assumed
f 26 30 32
g ground_assumed
f 26 29 30
g ground_assumed
f 26 27 29
g ground_assumed
f 26 28 27
g ground_assumed
f 26 33 28
g ground_assumed
f 26 20 33
g ground_assumed
f 26 21 20
g ground_assumed
f 21 23 22
g ground_assumed
f 21 24 23
g ground_assumed
f 21 25 24
g ground_assumed
f 21 26 25
