# pointcloud_to_mesh 0.4.1; candidate requires geometry validation; coordinates preserved
v -7.284060698 -8.502527178 0.198301850
v -7.843895297 -10.038907424 0.189870549
v -6.137171521 -10.660812725 1.082663543
v -2.305552425 0.854896149 0.976876288
v -3.687923254 -3.299797692 1.015051758
v -3.687907223 -3.299749512 1.015051316
v -1.884947135 1.851199788 1.009029061
v -1.884931115 1.851167542 1.009041758
v -3.687841431 -3.299672776 1.015069273
v -5.300956735 -10.965517222 1.520090333
v -1.204294586 0.481166381 1.548445234
v -1.196169069 0.503830594 1.548507961
v -1.196125213 0.503953122 1.548508266
v -1.204278827 0.481170804 1.548451817
v -5.165001364 -11.015057380 1.591209048
v -1.392129482 -0.622384921 1.641720976
v -1.353866016 -0.385816936 1.620797146
v -1.392086605 -0.622334961 1.641732687
v -4.630481598 -11.209828603 1.870818150
v -3.192878961 -8.102004297 2.029329744
v -3.571859112 -9.954555179 2.156404256
v -3.200201232 -9.453091841 2.246736304
v -3.094331692 -9.310246239 2.272468067
v -3.057412330 -9.260432422 2.281441381
v -2.946358715 -9.110592074 2.308433128
v -0.274919276 -1.793895030 2.351061569
v -2.845199679 -8.974102228 2.333020005
v -2.920027998 -9.404177981 2.368617969
v -2.884873304 -9.383506716 2.381535872
v -2.666935138 -8.767464967 2.381885629
v -2.669460691 -8.736984533 2.375733649
v -2.686811879 -8.527576229 2.333467989
v -2.632496663 -8.379986253 2.334526197
v -2.644019971 -8.702658372 2.381917057
v -2.643997825 -8.702628491 2.381922440
v -2.092435592 -7.958427294 2.515980531
v -1.960983696 -7.597677714 2.517960242
v -2.219741215 -7.503390240 2.382603307
v -0.594316313 -2.908831968 2.385211863
v -0.152732903 -1.660616374 2.385920536
v -0.147540341 -1.645938735 2.385928882
v -0.218354085 -1.678717599 2.358459767
v -0.222516777 -1.680644420 2.356845025
v -0.274650833 -1.793348384 2.351096672
v -0.235817699 -1.686801335 2.351685522
v -0.189814060 -1.560803763 2.352419594
v -0.472482991 -0.991841079 2.128404865
v -0.520194580 -0.895806077 2.090593500
v -0.768028952 -0.396959256 1.894185116
v -0.831076615 -0.270055395 1.844219926
v -1.039477404 0.149418538 1.679062608
v -1.348026307 -0.369530011 1.620842483
v -1.110615660 0.292607283 1.622685643
v -1.110585529 0.292691444 1.622685856
v -1.062386170 0.427119127 1.623060077
v -1.046240274 0.472149963 1.623185427
v -1.158407810 0.460160445 1.573149112
v -1.201168717 0.474874594 1.550922475
v -1.201183627 0.474879675 1.550914733
v -1.004361119 0.796622777 1.589571859
v -0.931076711 0.793340729 1.624079498
v -0.831882108 0.788898368 1.670787531
v -0.669812191 1.233674413 1.673228360
v -0.761247976 1.266992283 1.625397991
v -0.653692285 1.566964654 1.626233009
v -0.803319750 1.601506189 1.551227684
v -0.786772782 1.647740779 1.551342230
v -0.643454534 1.595517696 1.626312491
v -0.520255260 1.939119955 1.627268960
v -0.251900793 2.687559431 1.629352354
v 0.207628397 3.969184408 1.632919951
v -0.443559852 4.206467928 1.292281170
v -0.447586550 4.551178351 1.234080445
v 0.171596239 4.325557155 1.557977061
v 0.459534893 5.130097816 1.559970473
v -0.737849516 5.566407266 0.933614629
v -1.312688137 3.838776880 0.949483116
v -0.807941227 5.591947665 0.896949417
v -0.991626610 5.658879945 0.800862970
v -5.613719933 -7.025746717 0.731252656
v -5.871630084 -7.931891933 0.759783748
v -5.896685566 -8.019922220 0.762555489
v -6.151506424 -8.915213470 0.790744831
v -1.204286338 0.481149815 1.548451765
v -1.348172196 -0.369936895 1.620841351
v -0.839869650 1.047716765 1.624787604
v -2.305522409 0.854894805 0.976890422
v -2.305525091 0.854886743 0.976890496
v -1.884923408 1.851194311 1.009040956
v -1.196138382 0.503877439 1.548514531
v -1.201180442 0.474898195 1.550913183
v -1.199874332 0.482405063 1.550291829
v -0.708753319 1.247863993 1.652858124
v -2.652539127 -8.941207786 2.416952792
v -2.655978098 -9.037504212 2.431095841
v -2.646036451 -9.019687399 2.432792626
v -2.644021302 -8.702694852 2.381922402
v -2.831548220 -9.352151105 2.361657410
v -2.921768125 -9.513838119 2.377122573
v -1.862503833 -9.899818608 1.813497701
v -1.563401176 -10.338453209 1.599215367
v -2.203203755 -12.094293318 1.606996945
v -1.321044133 -12.415739444 1.137607853
v -0.330973658 -9.900182308 1.091859124
v 0.802814980 -7.579165713 0.945861370
v 1.739947709 -5.445073338 0.861255050
v 1.793065678 -5.551990430 0.818346970
v -0.193795295 -9.848703766 1.035837449
v -0.388691508 -10.292532595 1.053433091
v 0.014949320 -10.439613437 0.838659487
v 0.299927967 -9.663425614 0.834207954
v 0.421594834 -9.617768028 0.784520951
v 2.226198656 -4.665309442 0.762572517
v 1.859020156 -5.416972814 0.809854024
v 2.403489512 -3.934017903 0.801349095
v 3.612220562 -1.181426260 0.692222305
v 3.503494514 -1.144013320 0.749705621
v 3.436329777 -1.120901744 0.785215528
v 3.899721194 -0.526608622 0.666283655
v 3.924793769 -0.611878354 0.640209586
v 4.028381670 -0.326128476 0.639195349
v 4.220391307 0.203535026 0.637315367
v 4.220715975 0.204430629 0.637312188
v 4.013607042 0.280210388 0.747565190
v 4.013601270 0.280207740 0.747567467
v 4.047749121 0.326282098 0.739184599
v 3.975969382 0.348898519 0.776786042
v 3.797047100 0.405273505 0.870513549
v 3.771223014 0.368897065 0.876596645
v 3.675892890 0.234612722 0.899052513
v 3.704550255 0.137151420 0.869250464
v 3.558813138 0.069691321 0.926631701
v 3.552262970 0.066659309 0.929210704
v 3.746039502 -0.003950039 0.826103979
v 3.574128355 -0.312755748 0.855452558
v 3.137656952 -0.153711922 1.087695012
v 2.059931688 -0.647279271 1.512915353
v 2.013939210 -0.668342524 1.531061847
v 1.859191160 -0.945673147 1.557588200
v 1.949491494 -0.697857722 1.556489925
v 1.523701528 -0.892857349 1.724486873
v 1.565666470 -0.852914221 1.711395562
v -0.147521980 -1.645930201 2.385931161
v -0.142543939 -1.655950120 2.381909957
v -1.960983696 -7.597677714 2.244924167
v -2.646036451 -9.019687399 2.329857668
v -2.655978098 -9.037504212 2.331561836
v 3.714290382 -0.363828751 0.780873621
v 3.868365813 -0.419971595 0.698891489
v 3.762218429 -0.058973219 0.809278803
v -2.165033476 -8.157661059 2.247405916
v -2.669460676 -8.736984500 2.388175370
v -0.388691464 -10.292532611 2.500463142
v -1.321044133 -12.415739444 2.854882784
v -1.254898604 -12.439841912 2.855091223
v -0.753580763 -12.740335044 2.873765965
v 0.030861401 -11.880327595 2.709982656
v 0.123989627 -11.216706933 2.609065186
v 1.938111186 -6.238128380 1.796508286
v 3.708365672 -1.214510064 0.979597415
v 3.612220562 -1.181426260 0.979577385
v 2.403489512 -3.934017903 1.439058075
v 1.859020156 -5.416972814 1.681296023
v 2.226198656 -4.665309442 1.553978638
v 1.856545872 -5.679764849 1.719548535
v 0.421594834 -9.617768028 2.362272482
v 0.299927967 -9.663425614 2.374946252
v 0.014949320 -10.439613437 2.501735100
v -2.736165630 -9.725045714 2.534838035
v -2.689980645 -9.598298102 2.514151478
v -2.938073855 -9.507896548 2.513369683
v -3.033701584 -9.714438938 2.548092203
v -3.151200173 -9.671624162 2.547721940
v -3.418850778 -10.404681550 2.667391300
v -3.820574692 -11.504946891 2.847006226
v -3.656526263 -11.564723750 2.847523178
v -2.946972449 -9.559041211 2.521232884
v -3.005573717 -9.724688323 2.548180840
v -2.977568664 -9.734892957 2.548269090
v -3.317436469 -11.688283135 2.848591723
v -3.273652638 -11.704237326 2.848729695
v -2.720427634 -10.842196140 2.696147155
v -2.193221400 -10.020697683 2.550740737
v -2.684694558 -9.841612018 2.549192000
v -2.681491315 -9.751916024 2.536018406
v -2.946964023 -9.558992783 2.521225439
v -2.946940234 -9.558950150 2.521218070
v 0.948959799 1.401544097 0.737218680
v 0.918677841 1.333089200 0.748656645
v 0.943997531 1.344032329 0.745809999
v 1.103629994 1.285864583 0.746313035
v 1.093187874 1.257207784 0.750990129
v 1.130956304 1.245307675 0.750838958
v 1.093207703 1.163702295 0.764556210
v 1.093203734 1.163693776 0.764557643
v 1.168937852 1.146210600 0.763328930
v 1.168999292 1.146196374 0.763327939
v 1.233183732 1.131379393 0.762286615
v 1.334139548 1.108073753 0.760648711
v 1.386595877 1.164760520 0.749815744
v 1.439588187 1.222026472 0.738872093
v 1.439622754 1.222063793 0.738864959
v 1.763766603 1.312897721 0.709569460
v 1.834579344 1.213649221 0.720449073
v 2.268757014 1.409753277 0.670408776
v 4.046696309 5.057599440 0.052731829
v 4.310151268 4.961600288 0.053562033
v 7.077722111 8.406683028 -0.583898544
v 4.052179302 3.530431166 0.274041863
v 4.361659919 4.379753283 0.135423472
v 3.434680672 3.378016331 0.326857633
v 2.664878535 1.265412360 0.671657040
v 3.018061837 1.136717506 0.672769997
v 2.596034321 1.076479966 0.702492814
v 2.050272205 0.998581332 0.740930088
v 2.463668811 0.847321965 0.742323279
v 2.514512789 0.852756618 0.739006841
v 3.464283936 0.954277081 0.677055320
v 3.464339126 0.954283029 0.677051713
v 3.178574435 0.682286030 0.730724682
v 3.113736259 0.620571670 0.742902733
v 3.144725799 0.610807417 0.742778701
v 3.570880071 0.591722290 0.724359933
v 3.570889047 0.591721915 0.724359541
v 3.608217791 0.464770013 0.740923532
v 3.797047100 0.405273505 0.740167730
v 3.975969370 0.348898550 0.739451576
v 4.220715975 0.204430629 0.748244455
v 4.242629295 0.264879086 0.738384254
v 4.295487446 0.410689683 0.714599994
v 4.300089443 0.423384293 0.712529279
v 5.076933350 2.566328188 0.362977628
v 5.153412872 2.768427552 0.329851790
v 7.942785355 10.139425564 -0.878318687
v 7.861324881 10.169108575 -0.878575387
v 7.857472943 10.164616396 -0.877732085
v 7.888004718 10.153533071 -0.877641968
v 7.618152938 9.412966223 -0.756773593
v 7.312624783 9.529207697 -0.758449000
v 4.466712443 6.210269339 -0.135396141
v 3.884151188 5.116828517 0.052219615
v 3.427002046 3.862252768 0.256979703
v 2.569422441 3.997626142 0.279975740
v 2.569404693 3.997686677 0.279967839
v 3.062171044 5.001052267 0.109885940
v 2.505188455 4.216080610 0.251472992
v 2.505178316 4.216115089 0.251468493
v 2.505113508 4.215974984 0.251492044
v 2.394791707 4.060495284 0.279536257
v 2.147499669 4.150604903 0.278756986
v 1.818945679 3.248938838 0.425918465
v 1.350641643 2.588944429 0.544963099
v 1.343007894 2.567366253 0.548473499
v 1.594333524 2.860465328 0.493451020
v 1.634416204 2.951075575 0.478311171
v 1.283013176 1.986703826 0.635706883
v 1.333315672 1.916201720 0.643435319
v 1.122627479 1.338000267 0.737803938
v 4.305343045 3.438181984 0.274839636
v 3.464294652 0.954240635 0.677060075
v 2.569673981 3.996770729 0.280087348
v 3.316461968 3.724652057 0.282440638
v -2.646036437 -9.019687363 2.428013794
v -2.165033476 -8.157661059 2.279024211
v -2.092435592 -7.958427294 2.246507144
v -2.686811879 -8.527576229 2.358638830
v -2.681491315 -9.751916024 2.387369260
v -2.684694558 -9.841612018 2.394377406
v -2.193221400 -10.020697683 2.391671806
v -2.720427634 -10.842196140 2.472555251
v -3.273652638 -11.704237326 2.557430470
v -2.757924215 -11.892161257 2.554591342
v -2.203203755 -12.094293318 2.551537561
v -1.563401176 -10.338453209 2.394994691
v -1.862503833 -9.899818608 2.371280143
v -2.067668393 -9.825059629 2.372409591
v -2.676184804 -9.603325106 2.375759524
v -2.689980645 -9.598298102 2.375835471
v -2.736165630 -9.725045714 2.387135722
v -2.977568664 -9.734892957 2.395989702
v -3.005573717 -9.724688323 2.396143872
v -3.656526263 -11.564723750 2.559538220
v -3.317436469 -11.688283135 2.557671503
v -2.929928875 -9.510864460 2.377156406
v -2.652539101 -8.941207842 2.324026840
v -2.666935138 -8.767464967 2.311142853
v -2.884873304 -9.383506716 2.365847093
v -2.946358667 -9.110592065 2.346912702
v -3.057412314 -9.260432377 2.362165200
v -3.094331658 -9.310246241 2.367235836
v -3.200201221 -9.453091811 2.381776330
v -3.571859112 -9.954555179 2.432821131
v -4.529478126 -11.246632798 2.564343892
v -3.884277346 -11.481734571 2.560792009
v -3.820574692 -11.504946891 2.560441320
v -3.418850778 -10.404681550 2.462319632
v -3.151200173 -9.671624162 2.396945557
v -3.033701584 -9.714438938 2.396298718
v -2.946964023 -9.558992783 2.381430472
v -2.938073855 -9.507896548 2.377201244
v -3.996931451 -11.440685055 2.561412179
v 3.868365813 -0.419971595 1.449746301
v 3.714290382 -0.363828751 1.450594499
v 3.436329777 -1.120901744 1.518161987
v 3.503494486 -1.144013356 1.517687437
v 3.899721194 -0.526608622 1.456898739
v 4.252075508 10.469863258 0.599073558
v 2.915039024 6.800571565 0.926211233
v 5.049387116 10.390280820 0.578455252
v 5.437524907 11.043080532 0.515214753
v 5.442033359 11.050663191 0.514480177
v 4.535444991 11.381010796 0.519471020
v 4.469581332 11.405010555 0.519833605
v 4.466270916 11.395654962 0.520664400
v 3.054197800 11.908250923 0.528587456
v 2.983737234 11.711747989 0.546068472
v 4.093428440 11.307392666 0.539959531
v 4.339504867 11.037400401 0.552478112
v 4.221922101 10.705098789 0.581987151
v 4.151635776 10.506462034 0.599626486
v 4.208573547 10.485714739 0.599313039
v -0.072738779 1.775376699 1.413028598
v 0.006979706 1.909455258 1.400039668
v 0.548666397 3.109576538 1.289541422
v 0.296016245 2.722907505 1.327763198
v 0.255849067 2.720316227 1.329309719
v -0.307023029 1.861099723 1.414291174
v -0.834111040 0.494824324 1.537082774
v -0.906282851 0.373438522 1.548842086
v -0.585903597 0.500062833 1.528355153
v -0.594511504 0.520434949 1.527076534
v -0.606820073 0.549565509 1.525248206
v -0.555650002 0.662934177 1.514810062
v -0.537171679 0.703873381 1.511040684
v -0.769525774 0.603450315 1.526559574
v 2.904748469 11.962502451 0.529426008
v 1.854534440 12.343740124 0.535318695
v 1.532780186 11.460734892 0.614043501
v 2.587632255 11.076362152 0.608236454
v 2.801402001 11.673714096 0.555109908
v 2.748344071 11.797521831 0.547364330
v 2.736459696 11.022131599 0.607417147
v 2.814750685 11.240472295 0.587993432
v 3.020637392 11.162140482 0.587114638
v 2.893249614 11.459392811 0.568518134
v 2.834476474 11.766136437 0.546890164
v -1.353865999 -0.385816910 1.622266429
v 0.171596239 4.325557155 1.208637122
v -0.447586550 4.551178351 1.212045774
v -0.443559852 4.206467928 1.238430833
v 0.062924248 4.021912494 1.235642597
v 0.207628397 3.969184408 1.234845988
v 0.316477637 4.272764482 1.207839538
v 5.555408214 10.810133752 0.529182713
v 5.314531427 10.289403814 0.577323527
v 5.605065701 10.178866923 0.576083429
v 5.875342048 10.076037379 0.574929799
v 6.495695357 9.840017287 0.572281922
v 7.312624783 9.529207697 0.568794993
v 7.618152938 9.412966223 0.567490896
v 7.888004718 10.153533071 0.501465260
v 7.857472943 10.164616396 0.501636572
v 6.957761357 10.491220252 0.506684799
v 6.961783267 10.496888446 0.506113829
v 6.138064723 10.797039493 0.510648467
v 5.943480361 10.867943202 0.511719670
v 5.660764598 10.970960711 0.513276043
v 5.634268803 10.980615393 0.513421905
v 5.630722109 10.972948112 0.514130735
v -0.235817702 -1.686801314 2.420700698
v -0.274919300 -1.793895004 2.478737525
v -0.274650834 -1.793348432 2.478429476
v 0.426525567 0.127263810 1.437612223
v 0.426620121 0.127365904 1.437547048
v 0.426515141 0.127235195 1.437627727
v -0.222516764 -1.680644457 2.415463670
v -0.218354085 -1.678717599 2.413824683
v -0.147530968 -1.645912137 2.385928582
v 0.867946843 0.676731091 1.098437796
v 0.942341822 0.684678881 1.081838022
v 0.942357017 0.684709865 1.081820564
v 0.942371995 0.684711487 1.081817211
v 1.523701528 -0.892857349 1.737749734
v 1.949491494 -0.697857722 1.571105108
v 1.859191160 -0.945673147 1.705371544
v 2.013939157 -0.668342535 1.545881741
v 2.031188511 -0.637429219 1.528103830
v 2.031207439 -0.637395222 1.528084286
v 2.059931666 -0.647279303 1.527881316
v 3.137656952 -0.153711922 1.106083843
v 3.574128355 -0.312755748 1.107241500
v 3.762218429 -0.058973219 0.953301791
v 3.746039502 -0.003950039 0.929719433
v 3.675892872 0.234612705 0.827473947
v 3.771223036 0.368897011 0.746740771
v 3.797047080 0.405273506 0.724870846
v 3.608217814 0.464769998 0.728830941
v 3.570889613 0.591720087 0.674421464
v 3.570880071 0.591722290 0.674422049
v 3.144725827 0.610807450 0.738551220
v 3.105331407 0.612571682 0.744479444
v 3.105309058 0.612550480 0.744493446
v 2.814300328 0.335562154 0.927248173
v 2.614693749 0.408295886 0.926718754
v 2.737860712 0.629028754 0.799777695
v 2.437884878 0.642463061 0.844919100
v 2.500333305 0.813843197 0.752065316
v 2.411706669 0.841767754 0.753923979
v 2.203354723 0.907415463 0.758293503
v 1.900836429 0.977251775 0.776847210
v 1.334139548 1.108073753 0.811603183
v 1.233183756 1.131379393 0.817794885
v 1.168999305 1.146196402 0.821731355
v 1.111427843 1.028970011 0.887798979
v 0.857149224 1.193998657 0.852447141
v 0.865060294 1.216360680 0.840372199
v 0.827350169 1.225066061 0.842684992
v 0.774022702 1.079009623 0.921836726
v 0.756344166 1.030590632 0.948076223
v 0.265216926 0.892963413 1.098465245
v 0.117966630 0.851699827 1.143555065
v 0.045542920 0.749631037 1.204913693
v 0.045523749 0.749604071 1.204929909
v 0.045479646 0.749606046 1.204936546
v -0.349558719 0.593474023 1.347670386
v -0.206021071 0.760869413 1.242783247
v -0.206145062 0.760874997 1.242801891
v -0.555649977 0.662934219 1.349824461
v -0.606820073 0.549565509 1.412943025
v -0.594511482 0.520434971 1.424784474
v -0.585903586 0.500062859 1.433065653
v -0.906300120 0.373409476 1.548840832
v -0.906330176 0.373419783 1.548841062
v -1.062386126 0.427119119 1.549943740
v -1.348026307 -0.369530011 1.980769320
v -0.926066834 -0.078856909 1.768941655
v 2.031238766 -0.637405956 1.528084043
v 0.834469295 1.129889675 0.887064399
v 0.867959034 0.676757518 1.098423038
v 0.867968935 0.676758591 1.098420821
v -0.142543946 -1.655950142 2.389880784
v -0.152732903 -1.660616374 2.393868504
v 3.779128215 -1.013700516 1.407849040
v 3.924793765 -0.611878399 1.190271155
v 3.899739650 -0.526671354 1.153752304
v 3.899721203 -0.526608649 1.153725431
v 3.612220562 -1.181426260 1.516912750
v 3.708365637 -1.214510104 1.516233410
v 1.111427833 1.028970015 0.826774268
v 1.168937858 1.146210556 0.821759928
v 1.093203734 1.163693776 0.849771780
v 1.072632772 1.119223256 0.851249703
v 1.042501740 1.054085680 0.853414471
v 0.774022702 1.079009623 0.948101627
v 0.827350169 1.225066061 0.948103288
v 0.857069041 1.306461985 0.948104227
v 0.898523021 1.419998544 0.948105510
v 1.160585335 2.137750347 0.948113667
v 1.121664348 2.266240111 0.977394736
v 0.598976272 1.529600703 1.063937757
v 0.487974385 1.570215543 1.106861267
v 1.135583569 2.325465426 0.980023665
v 1.681513166 3.823685526 0.980413804
v 1.107908760 3.761108366 1.168285311
v 0.006979706 1.909455258 1.313191698
v -0.056259527 1.769347053 1.317312007
v -0.195363102 1.461159380 1.326375207
v -0.206572662 1.436324301 1.327105558
v -0.350549519 1.117339743 1.336486273
v -0.007532447 0.992349314 1.203908837
v -0.088684450 0.897708839 1.219802876
v 0.067245257 0.965101408 1.175006963
v 0.171481088 0.927119388 1.134719408
v 4.052179302 3.530431166 0.135212834
v 4.305343045 3.438181984 0.037364061
v 5.543173693 5.656552100 -0.108564076
v 7.077722111 8.406683028 -0.289472339
v 4.310151268 4.961600288 0.225478357
v 4.046696309 5.057599440 0.327304726
v 3.763977564 4.281721178 0.327102686
v 5.043666312 7.793630800 0.328017193
v 4.466712443 6.210269339 0.327604883
v 7.312624783 9.529207697 -0.229781738
v 6.495695357 9.840017287 0.087600420
v 5.875342048 10.076037379 0.328611535
v 2.395574773 5.542637318 0.950945289
v 2.242422644 5.109725160 0.949265209
v 2.243884337 5.104754062 0.948147409
v 2.505178316 4.216115089 0.748328283
v 5.314531427 10.289403814 0.546489945
v 5.234283219 10.319935108 0.577666873
v 5.049387116 10.390280820 0.649500158
v 2.915039024 6.800571565 0.930433590
v 2.897818084 6.753311336 0.930421284
v 2.483180313 5.615401529 0.930124970
v 0.886598840 4.065020615 1.281632616
v 0.316477637 4.272764482 1.501986683
v 0.207628397 3.969184408 1.501303540
v 0.776186256 3.762010200 1.281553711
v 2.614693749 0.408295886 0.826790791
v 2.814300328 0.335562154 0.799143109
v 2.884783008 0.892334588 0.767558855
v 2.514512796 0.852756636 0.825382897
v 2.508741076 0.836917035 0.826854566
v 2.506784197 0.831546680 0.827353530
v 2.500333314 0.813843222 0.828998371
v -4.630481598 -11.209828603 2.364507100
v -4.529478126 -11.246632798 2.350517021
v 5.605065701 10.178866923 0.005714615
v 3.062171044 5.001052267 0.586634299
v 5.043666312 7.793630800 0.180501233
v 5.875342048 10.076037379 -0.031558822
v 1.681513166 3.823685526 0.840828654
v 1.298488149 2.515446773 0.948123763
v 1.298503656 2.515464858 0.948120726
v 1.350641643 2.588944429 0.937434372
v 1.818945679 3.248938838 0.841449406
v 2.147499669 4.150604903 0.757674957
v 2.394791707 4.060495284 0.723422320
v 2.505113508 4.215974984 0.700810441
v 2.505178261 4.216115079 0.700795339
v 2.243884337 5.104754062 0.707261707
v 2.242422644 5.109725160 0.707297881
v 2.395574740 5.542637336 0.667774852
v 2.170177477 5.355424932 0.709085769
v 1.459986023 4.765547987 0.839249994
v 0.604885935 5.077134012 0.957690656
v 0.459534893 5.130097816 0.977823356
v 0.171596239 4.325557155 1.051778879
v 0.316477637 4.272764482 1.031711229
v 0.886598840 4.065020615 0.952743242
v 0.207628397 3.969184408 1.059647607
v -0.251900793 2.687559431 1.177586703
v -0.137344691 2.694949852 1.159878674
v 0.215679618 3.663770958 1.069864800
v 0.924568343 3.741106911 0.959101104
v 1.107908726 3.761108368 0.930454212
v 0.776186256 3.762010200 0.980896160
v 1.118186448 2.277721694 0.984465277
v 0.598976272 1.529600703 1.091497905
v 1.121664348 2.266240111 0.984366228
v 2.904748469 11.962502451 0.349778008
v 2.834476474 11.766136437 0.367827608
v 2.983737218 11.711747995 0.347153372
v 3.054197800 11.908250923 0.329069946
v 4.466270916 11.395654962 0.133409671
v 4.469581332 11.405010555 0.132555443
v 3.058163520 11.919310662 0.328052160
v 2.908772339 11.973746633 0.348744463
v 1.859087889 12.356236368 0.494137175
v 1.854534440 12.343740124 0.495298210
v 1.793065678 -5.551990430 0.859093505
v -0.330973658 -9.900182308 1.045201222
v 2.050272205 0.998581332 0.767035461
v 3.018061837 1.136717506 0.703508223
v 2.664878535 1.265412360 0.724624720
v 2.268757014 1.409753277 0.748308454
v 1.834579344 1.213649221 0.778356544
v 1.763766603 1.312897721 0.781742759
v 1.439622747 1.222063812 0.803534415
v 1.439588202 1.222026481 0.803537057
v 1.386595901 1.164760532 0.807589154
v 2.411706613 0.841767723 0.745715450
v 2.500333305 0.813843197 0.740366113
v 2.506784182 0.831546640 0.739748983
v 2.508741070 0.836917018 0.739561775
v 1.093203734 1.163693776 0.826376900
v 0.866857824 1.215945720 0.840258730
v 0.857149246 1.193998671 0.841133308
v 0.834469295 1.129889675 0.843324560
v 0.924579367 1.097054876 0.837936963
v 0.954551174 1.086133586 0.836144977
v 1.042501740 1.054085680 0.830886496
v 1.072632745 1.119223237 0.828206548
v 1.298485314 2.515439007 0.797639936
v 1.298488135 2.515446756 0.797639666
v 1.135583569 2.325465426 0.810257155
v 1.118186448 2.277721694 0.811921468
v 1.121664343 2.266240122 0.811831408
v 1.160585302 2.137750365 0.810823552
v 0.898523044 1.419998564 0.835877419
v 0.932680200 1.407500652 0.833835790
v 0.948959799 1.401544097 0.832862731
v 1.122627479 1.338000267 0.822482325
v 1.275640160 1.757920118 0.807844206
v 1.333315662 1.916201692 0.802326618
v 1.283013176 1.986703826 0.804732047
v 1.606620517 2.874794572 0.773773810
v 1.634416204 2.951075575 0.771114706
v 1.594333524 2.860465328 0.774725477
v 1.343007894 2.567366253 0.794191465
v 1.350641643 2.588944429 0.793453921
v 1.298503656 2.515464858 0.797638464
v 6.957761357 10.491220252 0.343432141
v 7.857472943 10.164616396 0.289624945
v 7.861324881 10.169108575 0.289326599
v 6.961783267 10.496888446 0.343109347
v 2.814750685 11.240472295 0.599914424
v 4.151635776 10.506462034 0.522832364
v 4.221922065 10.705098776 0.516042030
v 4.226260077 10.717358377 0.515622937
v 4.339504867 11.037400401 0.504682399
v 4.093428440 11.307392666 0.517313991
v 2.983737234 11.711747989 0.583661385
v 2.893249593 11.459392839 0.592364440
v 2.748344071 11.797521831 0.597735321
v 2.801402001 11.673714096 0.595768744
v 2.834476474 11.766136437 0.592585546
v -0.737849516 5.566407266 0.892743460
v 0.117966600 0.851699874 1.190079591
v 0.171481050 0.927119402 1.179111147
v 0.067245257 0.965101408 1.228981898
v -0.088684450 0.897708839 1.284433751
v -0.007532447 0.992349314 1.264758670
v -0.350549519 1.117339743 1.428872344
v -0.195363102 1.461159380 1.416355118
v -0.307023000 1.861099719 1.525169125
v 0.255849060 2.720316178 1.419969110
v 0.296016245 2.722907505 1.403407692
v 0.548666397 3.109576538 1.356342227
v -0.056259536 1.769347010 1.405135119
v 1.107908760 3.761108366 1.220653137
v 0.924568343 3.741106911 1.294986387
v 0.215679618 3.663770958 1.582397115
v -0.137344691 2.694949852 1.582087665
v -0.786772782 1.647740779 1.694851208
v -0.803319750 1.601506189 1.694709660
v -0.708753319 1.247863993 1.600251981
v -1.004361119 0.796622777 1.655500677
v -1.196138382 0.503877439 1.691343586
v -1.199874361 0.482405112 1.689610438
v -1.201180442 0.474898195 1.689004492
v -1.201168773 0.474874582 1.688995924
v -1.158407810 0.460160445 1.668671025
v -0.769846748 0.602910468 1.526607411
v -0.537171679 0.703873381 1.443925155
v -0.555649977 0.662934219 1.445415601
v -0.206145124 0.760874968 1.312934932
v -0.206021071 0.760869413 1.312881693
v -0.669812191 1.233674413 1.581620922
v -0.831882108 0.788898368 1.581478857
v 0.865060294 1.216360680 0.930837501
v 0.857149246 1.193998671 0.930730138
v 0.866857832 1.215945695 0.930014490
v 1.093192649 1.163696335 0.826386507
v 1.093207662 1.163702268 0.826381083
v 1.130956341 1.245307639 0.823023641
v 1.093187874 1.257207784 0.840806539
v 1.103629994 1.285864583 0.840815692
v 0.943997531 1.344032329 0.917190520
v 0.918677841 1.333089200 0.926194729
v 0.948959799 1.401544097 0.923962579
v 0.932680226 1.407500682 0.931755191
v 2.569404659 3.997686670 0.639999863
v 2.569422451 3.997626159 0.639983020
v 2.569673979 3.996770730 0.639744916
v 3.884151188 5.116828517 0.257390456
v 4.046696309 5.057599440 0.179622091
v 4.466712443 6.210269339 0.179990263
v 5.634268803 10.980615393 0.422492296
v 5.234283219 10.319935108 0.489523207
v 5.555408214 10.810133752 0.429506275
v 5.630722109 10.972948112 0.422807744
v 5.605065701 10.178866923 0.311206396
v 5.314531427 10.289403814 0.450930217
v 2.505188455 4.216080610 0.700788698
v -2.644019971 -8.702658372 -2.346422009
v -2.643997790 -8.702628459 -2.346422009
v -0.222516777 -1.680644420 -2.346422009
v -0.274650833 -1.793348384 -2.346422009
v -0.235817699 -1.686801335 -2.346422009
v -0.189814060 -1.560803763 -2.346422009
v -0.831076615 -0.270055395 -2.346422009
v -1.110585529 0.292691444 -2.346422009
v -1.201168773 0.474874582 -2.346422009
v -1.201183627 0.474879675 -2.346422009
v -1.201180394 0.474898187 -2.346422009
v -0.931076711 0.793340729 -2.346422009
v -0.708753305 1.247863988 -2.346422009
v 0.062924263 4.021912488 1.557224728
v 0.062924263 4.021912488 -2.346422009
v -0.340506557 5.421621275 1.141466078
v 0.459534893 5.130097816 -2.346422009
v -0.340506557 5.421621275 -2.346422009
v -0.420369767 5.450722267 1.099689362
v -0.420369767 5.450722267 -2.346422009
v -0.737849516 5.566407266 -2.346422009
v -0.807941227 5.591947665 -2.346422009
v -0.991626610 5.658879945 -2.346422009
v -2.132145812 2.528899811 0.783686359
v -2.132145812 2.528899811 -2.346422009
v -2.170011337 2.424983682 0.783116091
v -2.170011337 2.424983682 -2.346422009
v -2.254951995 2.191877065 0.781836856
v -2.254951995 2.191877065 -2.346422009
v -2.257896331 2.183796787 0.781792513
v -2.257896331 2.183796787 -2.346422009
v -2.340748565 1.956421531 0.780544730
v -2.340748565 1.956421531 -2.346422009
v -2.377381577 1.855887843 0.779993024
v -2.377381577 1.855887843 -2.346422009
v -2.693486815 0.988385469 0.775232371
v -2.693486815 0.988385469 -2.346422009
v -2.735118351 0.874134100 0.774605385
v -2.735118351 0.874134100 -2.346422009
v -2.955977756 0.268019315 0.771279167
v -2.955977756 0.268019315 -2.346422009
v -3.068684184 -0.041286199 0.769581769
v -3.068684184 -0.041286199 -2.346422009
v -3.255957622 -0.555229445 0.766761367
v -3.255957622 -0.555229445 -2.346422009
v -4.364705388 -3.598017745 0.750063244
v -4.364705388 -3.598017745 -2.346422009
v -4.675846340 -4.451896395 0.745377355
v -4.675846340 -4.451896395 -2.346422009
v -4.968123001 -5.254004893 0.740975568
v -4.968123001 -5.254004893 -2.346422009
v -5.237666653 -5.993726131 0.736916147
v -5.237666653 -5.993726131 -2.346422009
v -5.613719933 -7.025746717 -2.346422009
v -5.871630114 -7.931891913 -2.346422009
v -5.896685552 -8.019922239 -2.346422009
v -6.151506424 -8.915213470 -2.346422009
v -6.379539378 -8.832121581 0.671460020
v -6.379539378 -8.832121581 -2.346422009
v -6.676536562 -8.723900130 0.516099786
v -6.676536562 -8.723900130 -2.346422009
v -6.682267922 -8.721811706 0.513101692
v -6.682267922 -8.721811706 -2.346422009
v -6.696173516 -8.716744710 0.505827629
v -6.696173516 -8.716744710 -2.346422009
v -7.132414556 -8.557784825 0.277628461
v -7.132414556 -8.557784825 -2.346422009
v -7.284060698 -8.502527178 -2.346422009
v -7.519504836 -9.148667525 0.194755981
v -7.519504836 -9.148667525 -2.346422009
v -7.715713990 -9.687133473 0.191801003
v -7.715713990 -9.687133473 -2.346422009
v -7.843895297 -10.038907424 -2.346422009
v -7.763844174 -10.068076888 0.231745563
v -7.763844174 -10.068076888 -2.346422009
v -7.657767039 -10.106729852 0.287234871
v -7.657767039 -10.106729852 -2.346422009
v -7.230076061 -10.262574219 0.510961472
v -7.230076061 -10.262574219 -2.346422009
v -6.137171521 -10.660812725 -2.346422009
v -5.548908512 -10.875167203 1.390385917
v -5.548908512 -10.875167203 -2.346422009
v -5.300956735 -10.965517222 -2.346422009
v -5.165001364 -11.015057380 -2.346422009
v -4.858420595 -11.126770950 1.751582488
v -4.858420595 -11.126770950 -2.346422009
v -4.630481598 -11.209828603 -2.346422009
v -3.057412330 -9.260432422 -2.346422009
v -2.946358715 -9.110592074 -2.346422009
v -1.196125206 0.503953143 -2.346422009
v -1.196138405 0.503877490 -2.346422009
v -1.196169124 0.503830571 1.548507939
v -1.196169124 0.503830571 -2.346422009
v -1.348172153 -0.369936908 1.620853745
v -3.687841431 -3.299672776 -2.346422009
v -3.687923250 -3.299797714 -2.346422009
v -3.687907174 -3.299749505 -2.346422009
v -2.305522420 0.854894773 -2.346422009
v -2.305525143 0.854886719 -2.346422009
v -2.305552467 0.854896143 -2.346422009
v -1.204278803 0.481170847 -2.346422009
v -1.204286343 0.481149861 -2.346422009
v -1.204294586 0.481166381 -2.346422009
v -1.884923422 1.851194362 -2.346422009
v -1.884931061 1.851167557 -2.346422009
v -1.884947093 1.851199794 -2.346422009
v 1.856545882 -5.679764820 1.719548531
v 1.856545882 -5.679764820 0.767068406
v 3.899739650 -0.526671354 0.666264468
v 3.924793765 -0.611878399 -2.346422009
v 4.028381643 -0.326128445 -2.346422009
v 4.220391342 0.203534988 -2.346422009
v 4.220716009 0.204430661 -2.346422009
v 4.013607039 0.280210427 -2.346422009
v 4.013601270 0.280207740 -2.346422009
v 3.555756844 0.065386192 0.929214744
v 3.555756844 0.065386192 0.927351646
v 3.555756844 0.065386192 -2.346422009
v 3.137656949 -0.153711921 1.106083843
v 3.137656949 -0.153711921 1.087695013
v 2.013939210 -0.668342524 -2.346422009
v -2.092435578 -7.958427256 -2.346422009
v -2.921768110 -9.513838124 2.513421066
v -2.689980645 -9.598298102 2.253790568
v -2.676184793 -9.603325110 2.246449921
v -2.067668380 -9.825059634 1.922663886
v -2.203203755 -12.094293318 -2.346422009
v -1.321044133 -12.415739444 -2.346422009
v -2.666935184 -8.767464959 -2.346422009
v -2.644021328 -8.702694809 -2.346422009
v -1.254898604 -12.439841912 -2.346422009
v -0.753580763 -12.740335044 -2.346422009
v 0.030861401 -11.880327595 -2.346422009
v 0.123989627 -11.216706933 -2.346422009
v 1.938111186 -6.238128380 -2.346422009
v 3.708365637 -1.214510104 -2.346422009
v -0.388691464 -10.292532611 -2.346422009
v -3.317436469 -11.688283135 -2.346422009
v -3.273652638 -11.704237326 -2.346422009
v -2.929928908 -9.510864448 2.513395350
v -2.938073828 -9.507896558 -2.346422009
v -2.946964018 -9.558992759 -2.346422009
v -3.820574692 -11.504946891 -2.346422009
v -3.656526263 -11.564723750 -2.346422009
v -2.946972414 -9.559041213 -2.346422009
v -2.946940187 -9.558950142 -2.346422009
v 1.386595877 1.164760520 -2.346422009
v 1.439588187 1.222026472 -2.346422009
v 1.439622754 1.222063793 -2.346422009
v 2.596034320 1.076479965 0.731210775
v 2.050272248 0.998581346 -2.346422009
v 2.463668811 0.847321965 -2.346422009
v 2.514512789 0.852756618 -2.346422009
v 2.884782970 0.892334625 0.714854909
v 3.464339126 0.954283029 -2.346422009
v 3.570880042 0.591722323 -2.346422009
v 3.570889047 0.591721915 -2.346422009
v 3.608217791 0.464770013 -2.346422009
v 3.975969370 0.348898550 -2.346422009
v 4.242629296 0.264879097 -2.346422009
v 4.295487446 0.410689683 -2.346422009
v 4.300089443 0.423384293 -2.346422009
v 5.076933350 2.566328188 -2.346422009
v 5.153412887 2.768427536 -2.346422009
v 7.942785355 10.139425564 -2.346422009
v 7.861324881 10.169108575 -2.346422009
v 2.569422441 3.997626142 -2.346422009
v 2.569404693 3.997686677 -2.346422009
v 1.606620512 2.874794559 0.490761043
v 1.275640168 1.757920138 0.669268554
v 1.275640168 1.757920138 -2.346422009
v 1.093207703 1.163702295 -2.346422009
v 1.093203733 1.163693737 -2.346422009
v 1.168937852 1.146210600 -2.346422009
v 1.233183732 1.131379393 -2.346422009
v 3.763977577 4.281721215 0.179363397
v 4.310151228 4.961600303 -2.346422009
v -2.646036437 -9.019687363 -2.346422009
v -2.757924215 -11.892161257 -2.346422009
v -2.681491344 -9.751916002 -2.346422009
v -3.094331658 -9.310246241 -2.346422009
v -3.200201221 -9.453091811 -2.346422009
v -4.529478126 -11.246632798 -2.346422009
v -3.996931451 -11.440685055 -2.346422009
v -3.884277346 -11.481734571 -2.346422009
v -2.929928908 -9.510864448 -2.346422009
v 3.503494486 -1.144013356 -2.346422009
v 3.868365858 -0.419971612 -2.346422009
v 4.252075508 10.469863258 -2.346422009
v 2.915039024 6.800571565 -2.346422009
v 5.442033359 11.050663191 -2.346422009
v 4.535444991 11.381010796 -2.346422009
v 4.469581332 11.405010555 -2.346422009
v 4.226260076 10.717358377 0.580898475
v 4.151635776 10.506462034 -2.346422009
v 4.208573547 10.485714739 -2.346422009
v 0.255849067 2.720316227 -2.346422009
v -0.594511504 0.520434949 -2.346422009
v -0.555650002 0.662934177 -2.346422009
v 2.893249614 11.459392811 -2.346422009
v 1.830568918 12.277970422 0.541182428
v 1.854534440 12.343740124 -2.346422009
v 1.830568918 12.277970422 -2.346422009
v 1.532780186 11.460734892 -2.346422009
v 2.587632255 11.076362152 -2.346422009
v 2.736459696 11.022131599 -2.346422009
v 2.834476449 11.766136446 -2.346422009
v 2.801402033 11.673714113 -2.346422009
v -1.353865999 -0.385816910 -2.346422009
v -1.392086594 -0.622334986 -2.346422009
v 6.961783267 10.496888446 -2.346422009
v 6.138064723 10.797039493 -2.346422009
v 5.943480361 10.867943202 -2.346422009
v 5.660764598 10.970960711 -2.346422009
v 5.634268803 10.980615393 -2.346422009
v 5.555408263 10.810133764 -2.346422009
v 2.059931666 -0.647279303 -2.346422009
v 3.704550209 0.137151384 -2.346422009
v 3.675892872 0.234612705 -2.346422009
v 3.771223036 0.368897011 -2.346422009
v 3.797047080 0.405273506 -2.346422009
v 3.105331407 0.612571682 -2.346422009
v 2.614693783 0.408295874 -2.346422009
v 1.900836429 0.977251775 -2.346422009
v 1.168999305 1.146196402 -2.346422009
v 1.042501749 1.054085677 0.887616165
v 1.042501749 1.054085677 -2.346422009
v 0.954551214 1.086133571 0.887382893
v 0.954551214 1.086133571 -2.346422009
v 0.924579397 1.097054865 0.887303399
v 0.924579397 1.097054865 -2.346422009
v 0.857149224 1.193998657 -2.346422009
v 0.756344166 1.030590632 -2.346422009
v 0.045542920 0.749631037 -2.346422009
v 0.045523730 0.749604077 -2.346422009
v 0.045479655 0.749606089 -2.346422009
v -0.206145062 0.760874997 -2.346422009
v -0.585903586 0.500062859 -2.346422009
v -0.906282807 0.373438496 -2.346422009
v -0.906300092 0.373409459 -2.346422009
v -0.906330176 0.373419783 -2.346422009
v -0.147540341 -1.645938735 -2.346422009
v -0.147530968 -1.645912137 -2.346422009
v -0.147522009 -1.645930195 -2.346422009
v 2.031238744 -0.637405990 -2.346422009
v 2.031188561 -0.637429213 -2.346422009
v 2.031207439 -0.637395222 -2.346422009
v 0.426620673 0.127366500 -2.346422009
v 0.426515141 0.127235195 -2.346422009
v 0.426525584 0.127263852 -2.346422009
v 0.942341797 0.684678904 -2.346422009
v 0.942357017 0.684709865 -2.346422009
v 0.942371995 0.684711538 -2.346422009
v 0.867968903 0.676758605 -2.346422009
v 0.867946851 0.676731092 -2.346422009
v 0.867959034 0.676757518 -2.346422009
v -0.142543946 -1.655950142 -2.346422009
v 3.899739650 -0.526671354 -2.346422009
v 3.899721203 -0.526608649 -2.346422009
v 3.779128215 -1.013700516 -2.346422009
v 1.111427833 1.028970015 -2.346422009
v 0.857069041 1.306461985 -2.346422009
v 0.898523021 1.419998544 -2.346422009
v -0.206572670 1.436324304 1.417259276
v 2.897818084 6.753311336 -2.346422009
v 2.483180313 5.615401529 -2.346422009
v 2.395574773 5.542637318 -2.346422009
v 3.178574404 0.682286006 -2.346422009
v 3.464294612 0.954240605 -2.346422009
v 3.464283948 0.954277059 -2.346422009
v 2.500333314 0.813843222 -2.346422009
v 1.298488141 2.515446775 -2.346422009
v 1.298503668 2.515464851 -2.346422009
v 2.505178261 4.216115079 -2.346422009
v 2.170177473 5.355424900 -2.346422009
v 1.459986023 4.765547987 -2.346422009
v 0.604885935 5.077134012 -2.346422009
v 1.107908726 3.761108368 -2.346422009
v 2.983737218 11.711747995 -2.346422009
v 3.058163520 11.919310662 -2.346422009
v 2.908772339 11.973746633 -2.346422009
v 1.859087889 12.356236368 -2.346422009
v 1.334139556 1.108073767 -2.346422009
v 2.203354668 0.907415431 -2.346422009
v 2.411706613 0.841767723 -2.346422009
v 2.506784182 0.831546640 -2.346422009
v 2.508741070 0.836917018 -2.346422009
v 1.072632745 1.119223237 -2.346422009
v 1.093192636 1.163696290 -2.346422009
v 1.333315662 1.916201692 -2.346422009
v 1.298485300 2.515438976 -2.346422009
v 1.121664343 2.266240122 -2.346422009
v 1.160585302 2.137750365 -2.346422009
v 0.932680200 1.407500652 -2.346422009
v 4.221922065 10.705098776 -2.346422009
v 0.067245280 0.965101399 -2.346422009
v -0.056259536 1.769347010 -2.346422009
v -0.251900764 2.687559409 -2.346422009
v -1.199874361 0.482405112 -2.346422009
v -1.046240307 0.472150005 -2.346422009
v -0.769525795 0.603450299 -2.346422009
v -0.206021081 0.760869413 -2.346422009
v -0.307023000 1.861099719 -2.346422009
v 0.866857832 1.215945695 -2.346422009
v 1.130956341 1.245307639 -2.346422009
v 0.827350173 1.225066090 -2.346422009
v 0.865060281 1.216360692 -2.346422009
v 2.569673979 3.996770730 -2.346422009
v 3.427002039 3.862252747 -2.346422009
g roof
f 1 735 737 2 740 742 744 3
g roof
f 4 3 5 6
g roof
f 4 6 5
g roof
f 7 6 8
g roof
f 8 6 9
g roof
f 9 5 3
g roof
f 9 3 747 10
g roof
f 11 758 12 13
g roof
f 14 84 10 15
g roof
f 18 16 15
g roof
f 18 15 751 19
g roof
f 18 19 20
g roof
f 18 20 21
g roof
f 18 21 22
g roof
f 18 22 23
g roof
f 18 23 24
g roof
f 18 24 25
g roof
f 18 25 26
g roof
f 27 28 29
g roof
f 27 29 30
g roof
f 27 30 31
g roof
f 27 31 32
g roof
f 33 34 35
g roof
f 33 35 36
g roof
f 33 36 37
g roof
f 33 37 38
g roof
f 33 38 39
g roof
f 33 39 40
g roof
f 33 40 41
g roof
f 33 41 42
g roof
f 42 43 44
g roof
f 26 45 46
g roof
f 46 47 48
g roof
f 46 47 48 49
g roof
f 50 436 51 52
g roof
f 52 53 54
g roof
f 54 55 56
g roof
f 54 55 56 57
g roof
f 54 57 58
g roof
f 54 58 59
g roof
f 60 61 62 63
g roof
f 64 65 66
g roof
f 67 68 69
g roof
f 67 69 70
g roof
f 67 70 71
g roof
f 67 71 680 72
g roof
f 67 72 73
g roof
f 73 74 75
g roof
f 73 75 682 685 76
g roof
f 73 76 77
g roof
f 77 78 79
g roof
f 77 79 690 692 694 696 698 700 702 704 706 708 710 712 714 716 718 80
g roof
f 77 80 81
g roof
f 77 81 82
g roof
f 77 82 83
g roof
f 83 724 726 728 730 732 1 3
g roof
f 83 3 4
g roof
f 8 9 10
g roof
f 10 84 11
g roof
f 15 16 17
g roof
f 85 18 26
g roof
f 25 27 32
g roof
f 25 32 33
g roof
f 25 33 42
g roof
f 25 42 44
g roof
f 26 45 46 47 48 49
g roof
f 26 49 50
g roof
f 26 50 52
g roof
f 52 53 54 59
g roof
f 86 64 66
g roof
f 66 67 73
g roof
f 66 73 77
g roof
f 77 83 4
g roof
f 77 4 87
g roof
f 88 4 6
g roof
f 88 6 7 87
g roof
f 89 8 10
g roof
f 89 8 10 11
g roof
f 89 11 758 12 13
g roof
f 90 12 758 11
g roof
f 90 11 14
g roof
f 90 14 84 15
g roof
f 90 15 17
g roof
f 26 25 44
g roof
f 86 66 77
g roof
f 77 87 88 7
g roof
f 77 7 89
g roof
f 77 89 13
g roof
f 85 26 52
g roof
f 85 52 59
g roof
f 86 77 13
g roof
f 17 85 59 91
g roof
f 17 59 91 92
g roof
f 90 17 92
g roof
f 13 90 60
g roof
f 86 60 63
g roof
f 86 63 93
g roof
f 13 60 86
g roof
f 94 95 96
g roof
f 30 94 97
g roof
f 98 99 790 791 792 100
g roof
f 101 102 103
g roof
f 101 103 104
g roof
f 101 104 105
g roof
f 101 105 106
g roof
f 107 105 108
g roof
f 108 104 103 109
g roof
f 108 109 110
g roof
f 108 110 111
g roof
f 111 112 774 113
g roof
f 111 113 114
g roof
f 115 116 117
g roof
f 115 117 118
g roof
f 119 775 120 121
g roof
f 119 121 122
g roof
f 119 122 123
g roof
f 119 123 124
g roof
f 119 124 125
g roof
f 124 126 127
g roof
f 124 127 128
g roof
f 124 128 129
g roof
f 124 129 130 125
g roof
f 124 125 130 131
g roof
f 131 132 133
g roof
f 131 132 133 783 134
g roof
f 135 136 786 137
g roof
f 135 137 138
g roof
f 139 140 141
g roof
f 141 142 143
g roof
f 141 143 144
g roof
f 144 40 39
g roof
f 144 39 38
g roof
f 144 38 145
g roof
f 146 147 98 100
g roof
f 100 101 106
g roof
f 107 108 111
g roof
f 107 111 114
g roof
f 107 114 115
g roof
f 107 115 118 148
g roof
f 149 119 125
g roof
f 125 124 131
g roof
f 125 131 134 150
g roof
f 135 138 139
g roof
f 139 141 144
g roof
f 139 144 145
g roof
f 139 145 151
g roof
f 139 151 146 100
g roof
f 139 100 106
g roof
f 139 106 107
g roof
f 139 107 148
g roof
f 148 149 125
g roof
f 148 125 150
g roof
f 148 150 135
g roof
f 148 135 139
g roof
f 30 97 34
g roof
f 30 34 152
g roof
f 153 154 155
g roof
f 153 155 156
g roof
f 153 156 157
g roof
f 153 157 158
g roof
f 158 159 160
g roof
f 158 160 161
g roof
f 161 162 163
g roof
f 161 163 164
g roof
f 161 164 165 773
g roof
f 161 773 165 166
g roof
f 166 167 168
g roof
f 168 153 158
g roof
f 158 161 166
g roof
f 158 166 168
g roof
f 169 170 789 806 171
g roof
f 172 173 174
g roof
f 172 174 175
g roof
f 172 175 176
g roof
f 172 176 178 177
g roof
f 177 178 179
g roof
f 177 179 180 181
g roof
f 177 181 182
g roof
f 182 183 184
g roof
f 182 184 185 169
g roof
f 182 169 171
g roof
f 186 172 177
g roof
f 171 186 187
g roof
f 187 177 182
g roof
f 187 182 171
g roof
f 188 189 190
g roof
f 188 190 191
g roof
f 191 192 193
g roof
f 194 195 196
g roof
f 196 197 198
g roof
f 196 197 198 199
g roof
f 196 197 198 199 200
g roof
f 196 200 201
g roof
f 196 201 202
g roof
f 196 202 203
g roof
f 203 204 205
g roof
f 206 207 208
g roof
f 209 210 211
g roof
f 209 211 212
g roof
f 209 212 213
g roof
f 214 215 216
g roof
f 217 820 218 219
g roof
f 220 221 222
g roof
f 220 222 223
g roof
f 220 223 224
g roof
f 224 225 226
g roof
f 224 226 227
g roof
f 126 124 228
g roof
f 126 228 229
g roof
f 126 229 230
g roof
f 126 230 231
g roof
f 126 231 232
g roof
f 126 232 233
g roof
f 126 233 234
g roof
f 234 235 236
g roof
f 234 236 237
g roof
f 234 237 238
g roof
f 238 239 240
g roof
f 206 241 242
g roof
f 244 245 246
g roof
f 244 246 247 248
g roof
f 244 248 249
g roof
f 249 250 251
g roof
f 251 252 253
g roof
f 253 254 255
g roof
f 255 835 256 257
g roof
f 258 188 191
g roof
f 258 191 193
g roof
f 193 194 196
g roof
f 193 196 202 203
g roof
f 193 203 205
g roof
f 259 209 213
g roof
f 213 214 216
g roof
f 213 216 217
g roof
f 213 217 820 218 219
g roof
f 260 220 223 224
g roof
f 224 227 126
g roof
f 126 234 238
g roof
f 243 244 249
g roof
f 243 249 251
g roof
f 251 253 255
g roof
f 251 255 257
g roof
f 257 836 258 193
g roof
f 257 193 205
g roof
f 257 205 212
g roof
f 259 213 219
g roof
f 219 260 224
g roof
f 219 224 126
g roof
f 219 126 238
g roof
f 261 243 251
g roof
f 261 251 257
g roof
f 261 257 212
g roof
f 208 259 219
g roof
f 208 219 238
g roof
f 208 238 240
g roof
f 262 261 212
g roof
f 206 208 240
g roof
f 242 262 212
g roof
f 206 242 212 211 842
g roof
f 97 94 263
g roof
f 263 264 265
g roof
f 263 265 35
g roof
f 35 97 263
g roof
f 152 34 33
g roof
f 152 33 266
g roof
f 267 268 269
g roof
f 270 271 272
g roof
f 270 272 273
g roof
f 270 273 274
g roof
f 270 274 275
g roof
f 270 275 276 269
g roof
f 277 278 279
g roof
f 277 279 267
g roof
f 277 267 269
g roof
f 276 277 269
g roof
f 280 281 282
g roof
f 280 282 283
g roof
f 284 99 98
g roof
f 284 98 147
g roof
f 284 147 285
g roof
f 285 286 287
g roof
f 28 27 288
g roof
f 28 288 289
g roof
f 28 289 290
g roof
f 28 290 291
g roof
f 28 291 292
g roof
f 28 292 293
g roof
f 294 295 296
g roof
f 294 296 297
g roof
f 297 298 299
g roof
f 297 299 300
g roof
f 284 285 287
g roof
f 284 287 28
g roof
f 301 294 297
g roof
f 300 284 28
g roof
f 293 301 297
g roof
f 297 300 28
g roof
f 297 28 293
g roof
f 302 303 304
g roof
f 302 304 305
g roof
f 302 305 306
g roof
f 307 308 309
g roof
f 307 309 310
g roof
f 307 310 311
g roof
f 307 311 312
g roof
f 307 312 313
g roof
f 307 313 314
g roof
f 314 315 316
g roof
f 314 316 317
g roof
f 314 317 318
g roof
f 319 320 321
g roof
f 319 321 307
g roof
f 319 307 314 318 860
g roof
f 322 323 324
g roof
f 322 324 325
g roof
f 325 326 327
g roof
f 325 327 322
g roof
f 328 329 330
g roof
f 328 330 331
g roof
f 328 331 332
g roof
f 328 332 333
g roof
f 328 333 334
g roof
f 328 334 335
g roof
f 336 337 867 338
g roof
f 338 339 340
g roof
f 338 340 341
g roof
f 340 339 342
g roof
f 340 342 343
g roof
f 343 344 345
g roof
f 336 338 341
g roof
f 346 340 343
g roof
f 346 343 345
g roof
f 346 345 316
g roof
f 346 336 341
g roof
f 18 85 347
g roof
f 18 347 16
g roof
f 348 349 350
g roof
f 348 350 351
g roof
f 348 351 352
g roof
f 348 352 353
g roof
f 354 355 356
g roof
f 354 356 357
g roof
f 354 357 358
g roof
f 354 358 359
g roof
f 354 359 360
g roof
f 354 360 361
g roof
f 354 361 362
g roof
f 354 362 363
g roof
f 354 363 364
g roof
f 354 364 365
g roof
f 354 365 366
g roof
f 367 368 369
g roof
f 367 369 354
g roof
f 354 366 367
g roof
f 370 371 372
g roof
f 375 372 376
g roof
f 375 376 377
g roof
f 375 377 41
g roof
f 375 41 378
g roof
f 375 378 143
g roof
f 379 143 380
g roof
f 379 380 381
g roof
f 382 380 143
g roof
f 382 143 142
g roof
f 142 383 384
g roof
f 384 385 386
g roof
f 384 386 387
g roof
f 384 387 388
g roof
f 387 386 389
g roof
f 387 389 390 785 437
g roof
f 785 390 391 392
g roof
f 785 390 392 393
g roof
f 785 390 393 133
g roof
f 132 131 394
g roof
f 394 395 396
g roof
f 397 398 399
g roof
f 397 399 400
g roof
f 397 400 401
g roof
f 401 402 403
g roof
f 404 405 406
g roof
f 406 407 408
g roof
f 406 408 409
g roof
f 406 409 410
g roof
f 410 411 412
g roof
f 412 413 414
g roof
f 415 416 417
g roof
f 415 417 418
g roof
f 415 418 419
g roof
f 419 420 421
g roof
f 423 424 425
g roof
f 425 426 427
g roof
f 425 427 428
g roof
f 425 428 429
g roof
f 425 429 430
g roof
f 425 430 431
g roof
f 431 329 432
g roof
f 433 434 54
g roof
f 433 54 53
g roof
f 433 53 435
g roof
f 433 435 51
g roof
f 433 51 436
g roof
f 433 436 50 49
g roof
f 433 49 48 47
g roof
f 433 47 46
g roof
f 46 370 372
g roof
f 46 372 375
g roof
f 382 142 384
g roof
f 382 384 388
g roof
f 382 388 437
g roof
f 437 387 390 785
g roof
f 437 785 390 133
g roof
f 133 132 394
g roof
f 133 394 395 396
g roof
f 133 396 397
g roof
f 133 397 401
g roof
f 133 401 402 403
g roof
f 404 406 410
g roof
f 404 410 411 412
g roof
f 404 412 414
g roof
f 404 414 892 894 896 438
g roof
f 438 415 419
g roof
f 419 420 421 422
g roof
f 419 422 423
g roof
f 423 425 431
g roof
f 423 431 432
g roof
f 432 433 46
g roof
f 432 46 375
g roof
f 432 375 373
g roof
f 432 373 374
g roof
f 437 133 403
g roof
f 437 403 404
g roof
f 437 404 438
g roof
f 437 438 419
g roof
f 423 432 374
g roof
f 374 375 143
g roof
f 374 143 379
g roof
f 374 379 439
g roof
f 440 379 381
g roof
f 382 437 419
g roof
f 382 419 423
g roof
f 440 381 382 423
g roof
f 423 374 439
g roof
f 423 439 440
g roof
f 441 143 41
g roof
f 441 41 442
g roof
f 443 444 445
g roof
f 443 445 446
g roof
f 443 446 305
g roof
f 443 305 447
g roof
f 443 447 448
g roof
f 449 413 450
g roof
f 449 450 451
g roof
f 449 451 452
g roof
f 449 452 453
g roof
f 420 419 454
g roof
f 420 454 455
g roof
f 420 455 456
g roof
f 457 458 459
g roof
f 457 459 460
g roof
f 457 460 461
g roof
f 461 462 463
g roof
f 461 463 464
g roof
f 461 464 465
g roof
f 461 465 466
g roof
f 461 466 467
g roof
f 461 467 468
g roof
f 461 468 469
g roof
f 461 469 470
g roof
f 470 471 472
g roof
f 473 421 420
g roof
f 473 420 456
g roof
f 473 456 457
g roof
f 473 457 460 461
g roof
f 461 470 472
g roof
f 461 472 473
g roof
f 210 474 475
g roof
f 210 475 476
g roof
f 210 476 477
g roof
f 210 477 478
g roof
f 210 478 479
g roof
f 210 479 480
g roof
f 210 480 211
g roof
f 481 482 483
g roof
f 481 483 484
g roof
f 481 484 485
g roof
f 486 487 488
g roof
f 486 488 489
g roof
f 490 354 491
g roof
f 491 492 493
g roof
f 491 493 494
g roof
f 491 494 495
g roof
f 495 486 489
g roof
f 495 489 490
g roof
f 495 490 491
g roof
f 496 497 498
g roof
f 496 498 499
g roof
f 405 500 501
g roof
f 405 501 402
g roof
f 405 402 401
g roof
f 401 400 221
g roof
f 401 221 220
g roof
f 260 219 218
g roof
f 260 218 502
g roof
f 260 502 503
g roof
f 260 503 504
g roof
f 260 504 505
g roof
f 260 505 506
g roof
f 260 506 406
g roof
f 260 406 405
g roof
f 405 401 221 220
g roof
f 405 220 260
g roof
f 21 20 507
g roof
f 21 507 508
g roof
f 509 510 511
g roof
f 509 511 512
g roof
f 513 462 514
g roof
f 513 514 515
g roof
f 513 515 516
g roof
f 513 516 517
g roof
f 513 517 518
g roof
f 518 519 520
g roof
f 518 520 521
g roof
f 518 521 522
g roof
f 518 522 523
g roof
f 523 524 525
g roof
f 523 525 526
g roof
f 527 528 529
g roof
f 527 529 530
g roof
f 527 530 531
g roof
f 532 533 534
g roof
f 532 534 535
g roof
f 535 536 537
g roof
f 537 513 518
g roof
f 537 518 523
g roof
f 537 523 526
g roof
f 537 526 527
g roof
f 537 527 531
g roof
f 537 531 538
g roof
f 538 532 535
g roof
f 538 535 536 537
g roof
f 539 462 461
g roof
f 539 461 540
g roof
f 539 540 541
g roof
f 542 543 544
g roof
f 542 544 545
g roof
f 542 545 546 547
g roof
f 542 547 548
g roof
f 542 548 549
g roof
f 542 549 550
g roof
f 542 550 551
g roof
f 105 552 106
g roof
f 105 553 108
g roof
f 554 816 555 556
g roof
f 554 556 557
g roof
f 554 557 558
g roof
f 558 559 560
g roof
f 558 560 561
g roof
f 558 561 562
g roof
f 558 562 411
g roof
f 558 411 410
g roof
f 563 564 565
g roof
f 563 565 566
g roof
f 554 558 410
g roof
f 554 410 409
g roof
f 554 409 563
g roof
f 566 217 216
g roof
f 216 554 563
g roof
f 563 566 216
g roof
f 567 568 569
g roof
f 567 569 570
g roof
f 567 570 571
g roof
f 567 571 572
g roof
f 572 573 574
g roof
f 572 574 567
g roof
f 575 576 577
g roof
f 575 577 578
g roof
f 575 578 579
g roof
f 575 579 580
g roof
f 575 580 581 582
g roof
f 575 582 583
g roof
f 575 583 584
g roof
f 575 584 585
g roof
f 588 589 590
g roof
f 591 592 593
g roof
f 591 593 575
g roof
f 585 586 587
g roof
f 587 588 590
g roof
f 587 590 591
g roof
f 587 591 575
g roof
f 587 575 585
g roof
f 594 595 596
g roof
f 594 596 597
g roof
f 344 598 342
g roof
f 344 342 599
g roof
f 344 599 600
g roof
f 344 600 601
g roof
f 344 601 602
g roof
f 344 602 603
g roof
f 344 603 604
g roof
f 344 604 605
g roof
f 606 607 608
g roof
f 609 78 77
g roof
f 610 611 612
g roof
f 610 612 613
g roof
f 613 614 615
g roof
f 615 930 616 322
g roof
f 615 322 617
g roof
f 618 619 620
g roof
f 323 322 616
g roof
f 323 622 623
g roof
f 623 624 625
g roof
f 70 69 68
g roof
f 68 626 627
g roof
f 68 627 65
g roof
f 64 86 628
g roof
f 61 629 630
g roof
f 61 630 631
g roof
f 61 631 632
g roof
f 61 632 633
g roof
f 61 633 634
g roof
f 61 634 56
g roof
f 61 56 55
g roof
f 55 433 329
g roof
f 55 329 328
g roof
f 55 328 635
g roof
f 55 635 335
g roof
f 636 637 638
g roof
f 639 425 424
g roof
f 639 424 422
g roof
f 639 422 610
g roof
f 639 610 613
g roof
f 639 613 615
g roof
f 625 70 69 68
g roof
f 625 68 65 64
g roof
f 625 64 628
g roof
f 625 628 640
g roof
f 641 61 56 55
g roof
f 641 55 335
g roof
f 641 335 636
g roof
f 641 636 638
g roof
f 641 638 639 615
g roof
f 641 615 617
g roof
f 640 641 617
g roof
f 625 640 617
g roof
f 625 617 618
g roof
f 625 618 620
g roof
f 623 625 620
g roof
f 323 623 620
g roof
f 642 643 644
g roof
f 644 645 646
g roof
f 644 646 647
g roof
f 644 647 648
g roof
f 644 648 649
g roof
f 644 649 650
g roof
f 644 650 651
g roof
f 644 651 652 653
g roof
f 644 653 457
g roof
f 644 457 456
g roof
f 456 455 642
g roof
f 456 642 644
g roof
f 510 654 655
g roof
f 510 655 656
g roof
f 510 656 262
g roof
f 510 262 242
g roof
f 510 242 657
g roof
f 657 658 659
g roof
f 657 659 511
g roof
f 657 511 510
g roof
f 660 311 310
g roof
f 660 310 309
g roof
f 660 309 661
g roof
f 661 662 663
g roof
f 661 663 660
g roof
f 510 664 665
g roof
f 510 665 521
g roof
f 510 521 666
g roof_step_or_fixture_side
f 152 266 32 31
g roof_step_or_fixture_side
f 266 33 32
g facade_completed
f 35 34 667 668
g roof_step_or_fixture_side
f 36 35 265
g roof_step_or_fixture_side
f 37 36 265 145
g roof_step_or_fixture_side
f 38 37 145
g roof_step_or_fixture_side
f 442 41 40
g roof_step_or_fixture_side
f 41 377 42
g roof_step_or_fixture_side
f 377 376 43 42
g roof_step_or_fixture_side
f 376 372 44 43
g roof_step_or_fixture_side
f 372 371 26 44
g roof_step_or_fixture_side
f 371 370 45 26
g roof_step_or_fixture_side
f 370 46 45
g roof_step_or_fixture_side
f 51 435 52
g roof_step_or_fixture_side
f 435 53 52
g roof_step_or_fixture_side
f 55 54 434
g roof_step_or_fixture_side
f 56 634 57
g roof_step_or_fixture_side
f 634 633 58 57
g facade_completed
f 59 58 675 676
g facade_completed
f 91 59 676 677
g roof_step_or_fixture_side
f 632 631 92 91
g roof_step_or_fixture_side
f 631 630 90 92
g roof_step_or_fixture_side
f 630 629 60 90
g roof_step_or_fixture_side
f 629 61 60
g roof_step_or_fixture_side
f 62 61 641
g roof_step_or_fixture_side
f 63 62 641 640
g roof_step_or_fixture_side
f 93 63 640 628
g roof_step_or_fixture_side
f 86 93 628
g roof_step_or_fixture_side
f 65 627 66
g roof_step_or_fixture_side
f 627 626 67 66
g roof_step_or_fixture_side
f 626 68 67
g roof_step_or_fixture_side
f 71 70 533 532 352 498
g roof_step_or_fixture_side
f 680 71 498 352 351
g roof_step_or_fixture_side
f 72 680 351 350
g roof_step_or_fixture_side
f 73 72 350 349
g roof_step_or_fixture_side
f 74 73 349 348
g roof_step_or_fixture_side
f 75 74 348 529 528
g facade_completed
f 682 75 528 683 684
g facade_completed
f 685 682 684 686
g facade_completed
f 76 685 686 687 609
g roof_step_or_fixture_side
f 77 76 609
g facade_completed
f 79 78 688 689
g facade_completed
f 690 79 689 691
g facade_completed
f 692 690 691 693
g facade_completed
f 694 692 693 695
g facade_completed
f 696 694 695 697
g facade_completed
f 698 696 697 699
g facade_completed
f 700 698 699 701
g facade_completed
f 702 700 701 703
g facade_completed
f 704 702 703 705
g facade_completed
f 706 704 705 707
g facade_completed
f 708 706 707 709
g facade_completed
f 710 708 709 711
g facade_completed
f 712 710 711 713
g facade_completed
f 714 712 713 715
g facade_completed
f 716 714 715 717
g facade_completed
f 718 716 717 719
g facade_completed
f 80 718 719 720
g facade_completed
f 81 80 720 721
g facade_completed
f 82 81 721 722
g facade_completed
f 83 82 722 723
g facade_completed
f 724 83 723 725
g facade_completed
f 726 724 725 727
g facade_completed
f 728 726 727 729
g facade_completed
f 730 728 729 731
g facade_completed
f 732 730 731 733
g facade_completed
f 1 732 733 734
g facade_completed
f 735 1 734 736
g facade_completed
f 737 735 736 738
g facade_completed
f 2 737 738 739
g facade_completed
f 740 2 739 741
g facade_completed
f 742 740 741 743
g facade_completed
f 744 742 743 745
g facade_completed
f 3 744 745 746
g facade_completed
f 747 3 746 748
g facade_completed
f 10 747 748 749
g facade_completed
f 15 10 749 750
g facade_completed
f 751 15 750 752
g facade_completed
f 19 751 752 753
g roof_step_or_fixture_side
f 507 20 19
g roof_step_or_fixture_side
f 292 291 22 21
g roof_step_or_fixture_side
f 291 290 23 22
g roof_step_or_fixture_side
f 290 289 24 23
g roof_step_or_fixture_side
f 289 288 25 24
g roof_step_or_fixture_side
f 288 27 25
g roof_step_or_fixture_side
f 29 28 287
g roof_step_or_fixture_side
f 30 29 287 286
g roof_step_or_fixture_side
f 30 152 31
g facade_completed
f 90 13 756 757
g facade_completed
f 758 12 90 757 759
g facade_completed
f 13 12 758 759 756
g roof_step_or_fixture_side
f 16 347 17
g roof_step_or_fixture_side
f 347 760 17
g facade_completed
f 5 9 761 762
g facade_completed
f 6 5 762 763
g facade_completed
f 9 6 763 761
g facade_completed
f 88 87 764 765
g facade_completed
f 4 88 765 766
g facade_completed
f 87 4 766 764
g facade_completed
f 84 14 767 768
g facade_completed
f 11 84 768 769
g facade_completed
f 14 11 769 767
g facade_completed
f 8 89 770 771
g facade_completed
f 7 8 771 772
g facade_completed
f 89 7 772 770
g roof_step_or_fixture_side
f 96 95 147 146 263
g roof_step_or_fixture_side
f 94 96 263
g roof_step_or_fixture_side
f 95 94 285 147
g roof_step_or_fixture_side
f 94 30 286 285
g roof_step_or_fixture_side
f 153 168 110 109
g roof_step_or_fixture_side
f 168 167 111 110
g roof_step_or_fixture_side
f 167 166 112 111
g roof_step_or_fixture_side
f 166 165 773 774 112
g roof_step_or_fixture_side
f 165 773 164 113 774
g roof_step_or_fixture_side
f 164 163 114 113
g roof_step_or_fixture_side
f 163 162 115 114
g roof_step_or_fixture_side
f 162 161 116 115
g roof_step_or_fixture_side
f 447 305 117 116 161
g roof_step_or_fixture_side
f 305 304 118 117
g roof_step_or_fixture_side
f 304 303 148 118
g roof_step_or_fixture_side
f 303 302 149 148
g roof_step_or_fixture_side
f 302 306 446 119 149
g roof_step_or_fixture_side
f 446 445 775 119
g roof_step_or_fixture_side
f 445 444 120 775
g facade_completed
f 121 120 776 777
g facade_completed
f 122 121 777 778
g facade_completed
f 123 122 778 779
g roof_step_or_fixture_side
f 228 124 123
g facade_completed
f 125 124 780 781
g facade_completed
f 124 125 781 780
g roof_step_or_fixture_side
f 127 126 227
g roof_step_or_fixture_side
f 128 127 227 226
g roof_step_or_fixture_side
f 129 128 226 396 395
g roof_step_or_fixture_side
f 130 129 395 394
g roof_step_or_fixture_side
f 131 130 394
g roof_step_or_fixture_side
f 133 782 783
g roof_step_or_fixture_side
f 782 393 134 783
g roof_step_or_fixture_side
f 393 392 150 134
g roof_step_or_fixture_side
f 392 391 135 150
g roof_step_or_fixture_side
f 391 390 785 786 136 135
g roof_step_or_fixture_side
f 390 785 389 137 136 786
g roof_step_or_fixture_side
f 389 386 138 137
g roof_step_or_fixture_side
f 386 385 139 138
g roof_step_or_fixture_side
f 385 384 140 139
g roof_step_or_fixture_side
f 384 383 141 140
g roof_step_or_fixture_side
f 383 142 141
g roof_step_or_fixture_side
f 143 441 144
g roof_step_or_fixture_side
f 441 442 40 144
g roof_step_or_fixture_side
f 265 264 151
g roof_step_or_fixture_side
f 264 263 146 151
g roof_step_or_fixture_side
f 789 170 278 790 99
g roof_step_or_fixture_side
f 278 277 791 790
g roof_step_or_fixture_side
f 277 276 792 791
g roof_step_or_fixture_side
f 276 275 100 792
g roof_step_or_fixture_side
f 275 274 101 100
g roof_step_or_fixture_side
f 274 273 102 101
g facade_completed
f 103 102 793 794
g roof_step_or_fixture_side
f 154 153 109 103
g roof_step_or_fixture_side
f 552 105 107
g roof_step_or_fixture_side
f 106 552 107
g roof_step_or_fixture_side
f 105 104 553
g roof_step_or_fixture_side
f 104 108 553
g facade_completed
f 34 97 796 667
g facade_completed
f 155 154 103 794 797
g facade_completed
f 156 155 797 798
g facade_completed
f 157 156 798 799
g facade_completed
f 158 157 799 800
g facade_completed
f 159 158 800 801
g facade_completed
f 160 159 801 802
g roof_step_or_fixture_side
f 448 447 161 160
g roof_step_or_fixture_side
f 179 178 281 280
g roof_step_or_fixture_side
f 180 179 280 283
g facade_completed
f 181 180 283 804 805 271
g roof_step_or_fixture_side
f 182 181 271 270
g roof_step_or_fixture_side
f 183 182 270 269
g roof_step_or_fixture_side
f 184 183 269 268
g roof_step_or_fixture_side
f 185 184 268 267
g roof_step_or_fixture_side
f 169 185 267 279
g roof_step_or_fixture_side
f 170 169 279 278
g roof_step_or_fixture_side
f 806 789 99 284
g roof_step_or_fixture_side
f 171 806 284 300
g roof_step_or_fixture_side
f 186 171 300 299
g roof_step_or_fixture_side
f 172 186 299 298
g roof_step_or_fixture_side
f 173 172 298 297
g roof_step_or_fixture_side
f 174 173 297 296
g roof_step_or_fixture_side
f 175 174 296 295
g facade_completed
f 176 175 295 809 810 282
g roof_step_or_fixture_side
f 178 176 282 281
g facade_completed
f 186 177 811 808 299
g facade_completed
f 187 186 299 808 812
g facade_completed
f 177 187 812 811
g roof_step_or_fixture_side
f 412 411 199 198
g roof_step_or_fixture_side
f 411 562 200 199
g roof_step_or_fixture_side
f 562 561 201 200
g roof_step_or_fixture_side
f 561 560 202 201
g roof_step_or_fixture_side
f 560 559 203 202
g roof_step_or_fixture_side
f 559 558 204 203
g roof_step_or_fixture_side
f 558 557 205 204
g roof_step_or_fixture_side
f 557 556 212 205
g roof_step_or_fixture_side
f 556 555 213 212
g roof_step_or_fixture_side
f 555 816 214 213
g roof_step_or_fixture_side
f 816 554 215 214
g facade_completed
f 216 215 817 818
g facade_completed
f 217 216 818 819
g roof_step_or_fixture_side
f 503 502 820 217
g roof_step_or_fixture_side
f 502 218 820
g roof_step_or_fixture_side
f 222 221 400
g roof_step_or_fixture_side
f 223 222 400 399
g facade_completed
f 224 223 399 822 823 398
g roof_step_or_fixture_side
f 225 224 398 397
g roof_step_or_fixture_side
f 226 225 397 396
g facade_completed
f 229 228 123 779 826
g facade_completed
f 230 229 826 827
g facade_completed
f 231 230 827 828
g facade_completed
f 232 231 828 829
g facade_completed
f 233 232 829 830
g facade_completed
f 234 233 830 831
g facade_completed
f 235 234 831 832
g roof_step_or_fixture_side
f 596 595 236 235
g roof_step_or_fixture_side
f 362 361 237 236 595
g roof_step_or_fixture_side
f 361 360 238 237
g roof_step_or_fixture_side
f 360 359 483 239 238
g roof_step_or_fixture_side
f 483 482 659 240 239
g roof_step_or_fixture_side
f 659 658 206 240
g roof_step_or_fixture_side
f 658 657 241 206
g roof_step_or_fixture_side
f 657 242 241
g roof_step_or_fixture_side
f 262 656 261
g roof_step_or_fixture_side
f 656 655 243 261
g roof_step_or_fixture_side
f 655 654 244 243
g roof_step_or_fixture_side
f 654 510 245 244
g roof_step_or_fixture_side
f 510 666 246 245
g roof_step_or_fixture_side
f 666 521 247 246
g roof_step_or_fixture_side
f 521 520 248 247
g roof_step_or_fixture_side
f 520 519 249 248
g roof_step_or_fixture_side
f 519 518 250 249
g roof_step_or_fixture_side
f 518 517 251 250
g roof_step_or_fixture_side
f 517 516 592 252 251
g roof_step_or_fixture_side
f 592 591 253 252
g roof_step_or_fixture_side
f 591 590 254 253
g roof_step_or_fixture_side
f 590 589 255 254
g roof_step_or_fixture_side
f 589 588 835 255
g roof_step_or_fixture_side
f 588 587 256 835
g roof_step_or_fixture_side
f 587 586 257 256
g roof_step_or_fixture_side
f 586 585 836 257
g roof_step_or_fixture_side
f 585 584 258 836
g roof_step_or_fixture_side
f 584 583 188 258
g roof_step_or_fixture_side
f 652 651 189 188 583
g roof_step_or_fixture_side
f 651 650 190 189
g roof_step_or_fixture_side
f 650 649 191 190
g roof_step_or_fixture_side
f 649 648 192 191
g roof_step_or_fixture_side
f 648 647 193 192
g roof_step_or_fixture_side
f 647 646 194 193
g facade_completed
f 195 194 838 839
g roof_step_or_fixture_side
f 451 450 196 195 567
g roof_step_or_fixture_side
f 450 413 197 196
g roof_step_or_fixture_side
f 413 412 198 197
g roof_step_or_fixture_side
f 480 479 658 206 842
g roof_step_or_fixture_side
f 479 478 207 206 658
g roof_step_or_fixture_side
f 478 477 208 207
g roof_step_or_fixture_side
f 477 476 208
g roof_step_or_fixture_side
f 259 476 475
g roof_step_or_fixture_side
f 209 259 475 474
g roof_step_or_fixture_side
f 210 209 474
g roof_step_or_fixture_side
f 211 480 842
g facade_completed
f 97 35 668 796
g facade_completed
f 272 271 805 845
g facade_completed
f 273 272 845 793 102
g facade_completed
f 283 282 810 804
g roof_step_or_fixture_side
f 293 292 21 508
g facade_completed
f 301 293 508 849 850
g facade_completed
f 294 301 850 851
g facade_completed
f 295 294 851 809
g roof_step_or_fixture_side
f 306 305 446
g facade_completed
f 308 307 855 856
g roof_step_or_fixture_side
f 493 492 309 308
g facade_completed
f 312 311 857 858
g facade_completed
f 313 312 858 859 547
g roof_step_or_fixture_side
f 314 313 547 546
g roof_step_or_fixture_side
f 315 314 546 545
g roof_step_or_fixture_side
f 316 315 545 544
g roof_step_or_fixture_side
f 604 603 317 316
g roof_step_or_fixture_side
f 318 317 603 602
g roof_step_or_fixture_side
f 860 318 602 601
g roof_step_or_fixture_side
f 319 860 601 600
g roof_step_or_fixture_side
f 320 319 600 599
g facade_completed
f 321 320 599 861 862
g facade_completed
f 307 321 862 855
g roof_step_or_fixture_side
f 620 619 325 324
g roof_step_or_fixture_side
f 619 618 326 325
g roof_step_or_fixture_side
f 618 617 327 326
g roof_step_or_fixture_side
f 617 322 327
g roof_step_or_fixture_side
f 323 620 324
g roof_step_or_fixture_side
f 331 330 431 430
g roof_step_or_fixture_side
f 332 331 430 429
g roof_step_or_fixture_side
f 333 332 429 428 637
g roof_step_or_fixture_side
f 334 333 637 636
g roof_step_or_fixture_side
f 335 334 636
g roof_step_or_fixture_side
f 330 329 431
g roof_step_or_fixture_side
f 342 598 343
g roof_step_or_fixture_side
f 598 344 343
g roof_step_or_fixture_side
f 344 605 345
g roof_step_or_fixture_side
f 605 604 316 345
g roof_step_or_fixture_side
f 346 316 544 543
g roof_step_or_fixture_side
f 336 346 543 542
g roof_step_or_fixture_side
f 337 336 542 551
g facade_completed
f 867 337 551 868 869
g facade_completed
f 338 867 869 870
g facade_completed
f 339 338 870 871
g facade_completed
f 342 339 871 872
g roof_step_or_fixture_side
f 606 608 346 341
g roof_step_or_fixture_side
f 608 607 340 346
g roof_step_or_fixture_side
f 607 606 341 340
g roof_step_or_fixture_side
f 498 497 353 352
g roof_step_or_fixture_side
f 348 353 530 529
g roof_step_or_fixture_side
f 357 356 664 509 512 485
g roof_step_or_fixture_side
f 358 357 485 484
g roof_step_or_fixture_side
f 359 358 484 483
g roof_step_or_fixture_side
f 363 362 595 594
g roof_step_or_fixture_side
f 364 363 594 597
g facade_completed
f 365 364 597 877 878
g facade_completed
f 366 365 878 879
g facade_completed
f 367 366 879 880
g facade_completed
f 368 367 880 881 660
g roof_step_or_fixture_side
f 369 368 660 663
g roof_step_or_fixture_side
f 354 369 663 662
g roof_step_or_fixture_side
f 355 354 490
g roof_step_or_fixture_side
f 356 355 490 665 664
g facade_completed
f 399 398 823 822
g roof_step_or_fixture_side
f 403 402 501
g roof_step_or_fixture_side
f 404 403 501 500
g roof_step_or_fixture_side
f 405 404 500
g roof_step_or_fixture_side
f 406 506 407
g roof_step_or_fixture_side
f 408 407 564 563
g roof_step_or_fixture_side
f 409 408 563
g roof_step_or_fixture_side
f 414 413 449
g roof_step_or_fixture_side
f 892 414 449 453
g roof_step_or_fixture_side
f 894 892 453 573 572
g roof_step_or_fixture_side
f 896 894 572 571
g roof_step_or_fixture_side
f 438 896 571 570
g roof_step_or_fixture_side
f 415 438 570 569
g roof_step_or_fixture_side
f 643 642 416 415
g roof_step_or_fixture_side
f 642 455 417 416
g roof_step_or_fixture_side
f 455 454 418 417
g roof_step_or_fixture_side
f 454 419 418
g roof_step_or_fixture_side
f 610 422 421
g facade_completed
f 423 422 900 901
g facade_completed
f 424 423 901 902
g roof_step_or_fixture_side
f 425 639 426
g roof_step_or_fixture_side
f 639 638 427 426
g roof_step_or_fixture_side
f 638 637 428 427
g facade_completed
f 432 329 905 906
g facade_completed
f 433 432 906 907
g roof_step_or_fixture_side
f 433 55 434
g facade_completed
f 378 41 908 909
g facade_completed
f 143 378 909 910
g facade_completed
f 387 437 911 912
g facade_completed
f 388 387 912 913
g facade_completed
f 437 388 913 911
g facade_completed
f 375 374 914 915
g facade_completed
f 373 375 915 916
g facade_completed
f 374 373 916 914
g facade_completed
f 381 380 917 918
g facade_completed
f 382 381 918 919
g facade_completed
f 380 382 919 917
g facade_completed
f 379 440 920 921
g facade_completed
f 439 379 921 922
g facade_completed
f 440 439 922 920
g facade_completed
f 41 143 910 908
g facade_completed
f 443 448 160 802 926
g facade_completed
f 444 443 926 776 120
g roof_step_or_fixture_side
f 452 451 567 574
g roof_step_or_fixture_side
f 453 452 574 573
g roof_step_or_fixture_side
f 458 457 581 580
g roof_step_or_fixture_side
f 459 458 580 579
g roof_step_or_fixture_side
f 541 540 460 459
g roof_step_or_fixture_side
f 540 461 460
g roof_step_or_fixture_side
f 463 462 513
g roof_step_or_fixture_side
f 464 463 513 537
g roof_step_or_fixture_side
f 622 323 465 464
g roof_step_or_fixture_side
f 323 621 466 465
g roof_step_or_fixture_side
f 621 616 467 466
g roof_step_or_fixture_side
f 616 930 468 467
g roof_step_or_fixture_side
f 930 615 469 468
g roof_step_or_fixture_side
f 615 614 470 469
g roof_step_or_fixture_side
f 614 613 471 470
g roof_step_or_fixture_side
f 613 612 472 471
g roof_step_or_fixture_side
f 612 611 473 472
g roof_step_or_fixture_side
f 611 610 421 473
g roof_step_or_fixture_side
f 481 485 512 511
g roof_step_or_fixture_side
f 482 481 511 659
g roof_step_or_fixture_side
f 488 487 523 522
g roof_step_or_fixture_side
f 489 488 522 521
g roof_step_or_fixture_side
f 490 489 521 665
g roof_step_or_fixture_side
f 491 354 662 661
g roof_step_or_fixture_side
f 492 491 661 309
g facade_completed
f 494 493 308 856 931
g facade_completed
f 495 494 931 932
g facade_completed
f 486 495 932 933 524
g roof_step_or_fixture_side
f 487 486 524 523
g roof_step_or_fixture_side
f 499 498 352 532 538
g roof_step_or_fixture_side
f 496 499 538 531
g roof_step_or_fixture_side
f 497 496 531 530 353
g roof_step_or_fixture_side
f 504 503 217 566
g roof_step_or_fixture_side
f 505 504 566 565
g roof_step_or_fixture_side
f 506 505 565 564 407
g facade_completed
f 508 507 19 753 849
g roof_step_or_fixture_side
f 664 510 509
g facade_completed
f 515 514 576 938 939 593
g roof_step_or_fixture_side
f 516 515 593 592
g facade_completed
f 525 524 933 941
g facade_completed
f 526 525 941 942
g facade_completed
f 527 526 942 943
g facade_completed
f 528 527 943 683
g roof_step_or_fixture_side
f 70 625 534 533
g roof_step_or_fixture_side
f 625 624 535 534
g roof_step_or_fixture_side
f 624 623 536 535
g roof_step_or_fixture_side
f 623 622 464 537 536
g roof_step_or_fixture_side
f 514 462 577 576
g roof_step_or_fixture_side
f 539 541 459 579 578
g roof_step_or_fixture_side
f 462 539 578 577
g facade_completed
f 548 547 859 946
g facade_completed
f 549 548 946 947
g facade_completed
f 550 549 947 948
g facade_completed
f 551 550 948 868
g facade_completed
f 216 217 819 818
g facade_completed
f 554 216 818 817 215
g roof_step_or_fixture_side
f 644 643 415 569 568
g facade_completed
f 645 567 195 839 955
g roof_step_or_fixture_side
f 645 644 568
g facade_completed
f 575 593 939 957
g facade_completed
f 576 575 957 938
g roof_step_or_fixture_side
f 457 653 582 581
g roof_step_or_fixture_side
f 653 652 583 582
g facade_completed
f 597 596 235 832 877
g facade_completed
f 599 342 872 861
g facade_completed
f 78 609 687 688
g facade_completed
f 422 424 902 900
g facade_completed
f 633 632 91 677 675 58
g facade_completed
f 329 433 907 905
g facade_completed
f 646 645 955 838 194
g facade_completed
f 311 660 881 857
g ground_assumed
f 738 741 739
g ground_assumed
f 738 743 741
g ground_assumed
f 738 745 743
g ground_assumed
f 738 746 745
g ground_assumed
f 738 748 746
g ground_assumed
f 738 749 748
g ground_assumed
f 738 750 749
g ground_assumed
f 738 752 750
g ground_assumed
f 738 753 752
g ground_assumed
f 738 849 753
g ground_assumed
f 738 850 849
g ground_assumed
f 738 851 850
g ground_assumed
f 738 809 851
g ground_assumed
f 738 810 809
g ground_assumed
f 738 804 810
g ground_assumed
f 738 805 804
g ground_assumed
f 738 845 805
g ground_assumed
f 738 793 845
g ground_assumed
f 738 794 793
g ground_assumed
f 738 797 794
g ground_assumed
f 797 799 798
g ground_assumed
f 797 800 799
g ground_assumed
f 797 801 800
g ground_assumed
f 797 802 801
g ground_assumed
f 797 926 802
g ground_assumed
f 797 776 926
g ground_assumed
f 797 777 776
g ground_assumed
f 797 778 777
g ground_assumed
f 797 779 778
g ground_assumed
f 797 826 779
g ground_assumed
f 797 827 826
g ground_assumed
f 797 828 827
g ground_assumed
f 797 829 828
g ground_assumed
f 797 830 829
g ground_assumed
f 797 831 830
g ground_assumed
f 797 832 831
g ground_assumed
f 797 877 832
g ground_assumed
f 797 878 877
g ground_assumed
f 797 879 878
g ground_assumed
f 797 880 879
g ground_assumed
f 797 881 880
g ground_assumed
f 797 857 881
g ground_assumed
f 797 858 857
g ground_assumed
f 947 868 948
g ground_assumed
f 947 869 868
g ground_assumed
f 947 870 869
g ground_assumed
f 947 873 874 871 870
g ground_assumed
f 947 872 871 874 873
g ground_assumed
f 947 861 872
g ground_assumed
f 947 862 861
g ground_assumed
f 947 855 862
g ground_assumed
f 933 941 942
g ground_assumed
f 688 691 689
g ground_assumed
f 688 693 691
g ground_assumed
f 688 695 693
g ground_assumed
f 688 697 695
g ground_assumed
f 688 699 697
g ground_assumed
f 688 701 699
g ground_assumed
f 688 703 701
g ground_assumed
f 688 705 703
g ground_assumed
f 688 707 705
g ground_assumed
f 688 709 707
g ground_assumed
f 688 711 709
g ground_assumed
f 688 713 711
g ground_assumed
f 688 715 713
g ground_assumed
f 688 717 715
g ground_assumed
f 688 719 717
g ground_assumed
f 688 720 719
g ground_assumed
f 688 721 720
g ground_assumed
f 688 722 721
g ground_assumed
f 688 723 722
g ground_assumed
f 733 736 734
g ground_assumed
f 733 738 736
g ground_assumed
f 733 797 738
g ground_assumed
f 946 855 947
g ground_assumed
f 687 723 688
g ground_assumed
f 731 797 733
g ground_assumed
f 859 855 946
g ground_assumed
f 686 723 687
g ground_assumed
f 729 797 731
g ground_assumed
f 858 855 859
g ground_assumed
f 684 723 686
g ground_assumed
f 727 797 729
g ground_assumed
f 797 855 858
g ground_assumed
f 797 856 855
g ground_assumed
f 797 931 856
g ground_assumed
f 797 932 931
g ground_assumed
f 797 933 932
g ground_assumed
f 797 942 941 933
g ground_assumed
f 797 943 942
g ground_assumed
f 797 683 943
g ground_assumed
f 797 684 683
g ground_assumed
f 797 723 684
g ground_assumed
f 797 725 723
g ground_assumed
f 797 727 725
