# Source coordinates; no display transform
v 2678466.91 1248931.42005 425.427377895
v 2678458.543 1248934.97845 425.433592849
v 2678458.293 1248934.47846 425.432682696
v 2678467.33 1248933.90997 425.431889049
v 2678465.53597 1248934.197 425.432361414
v 2678464.79995 1248932.72497 425.429681822
v 2678464.986 1248934.47199 425.432844192
v 2678467.98997 1248933.57998 425.431309716
v 2678470.82497 1248936.40002 425.436480026
v 2678463.34996 1248938.70001 425.440443599
v 2678462.01798 1248936.03605 425.435594285
v 2678460.61802 1248940.06598 425.442841767
v 2678460.10003 1248941.76249 425.445894653
v 2678459.37503 1248940.3125 425.443255175
v 2678458.77499 1248939.17501 425.441183732
v 2678450.59998 1248943.26251 425.448359963
v 2678446.57497 1248935.2125 425.433706191
v 2678457.44995 1248929.77501 425.42415986
v 2678458.74995 1248932.37502 425.428892759
v 2678466.79996 1248928.35001 425.421826253
v 2678457.74997 1248934.74997 425.433159383
v 2678457.99997 1248935.24996 425.434069536
v 2678466.25004 1248931.75003 425.427957228
v 2678464.24998 1248932.99996 425.4301646
v 2678459.28604 1248937.40202 425.437992454
v 2678457.74997 1248934.74997 425.689501953
v 2678458.293 1248934.47846 425.689501953
v 2678458.543 1248934.97845 425.689501953
v 2678457.99997 1248935.24996 425.689501953
v 2678459.28604 1248937.40202 426.600006103
v 2678462.01798 1248936.03605 426.600006103
v 2678463.34996 1248938.70001 426.600006103
v 2678460.61802 1248940.06598 426.600006103
v 2678467.98997 1248933.57998 425.630004882
v 2678467.33 1248933.90997 425.630004882
v 2678466.25004 1248931.75003 425.630004882
v 2678466.91 1248931.42005 425.630004882
v 2678465.53597 1248934.197 425.630004882
v 2678464.986 1248934.47199 425.630004882
v 2678464.24998 1248932.99996 425.630004882
v 2678464.79995 1248932.72497 425.630004882
v 2678458.74995 1248932.37502 413.771790771
v 2678466.79996 1248928.35001 413.771790771
v 2678470.82497 1248936.40002 413.771790771
v 2678460.10003 1248941.76249 413.771790771
v 2678459.37503 1248940.3125 413.771790771
v 2678458.77499 1248939.17501 413.771790771
v 2678450.59998 1248943.26251 413.771790771
v 2678446.57497 1248935.2125 413.771790771
v 2678457.44995 1248929.77501 413.771790771
g roof
f 1 2 3
g roof
f 4 5 6
g roof
f 7 5 4
g roof
f 4 8 9
g roof
f 4 9 10
g roof
f 4 10 11
g roof
f 12 10 9
g roof
f 12 9 13
g roof
f 12 13 14
g roof
f 12 14 15
g roof
f 15 16 17
g roof
f 17 18 19
g roof
f 20 9 8
g roof
f 20 8 1
g roof
f 20 1 3
g roof
f 20 3 21
g roof
f 22 2 1
g roof
f 22 1 23
g roof
f 23 4 6
g roof
f 23 6 24
g roof
f 7 4 11
g roof
f 7 11 25
g roof
f 25 12 15
g roof
f 25 15 17
g roof
f 19 20 21
g roof
f 22 23 24
g roof
f 22 24 7
g roof
f 22 7 25
g roof
f 22 25 17
g roof
f 17 19 21
g roof
f 17 21 22
g roof_fixture
f 26 27 28
g roof_fixture
f 26 28 29
g roof_fixture
f 30 31 32
g roof_fixture
f 30 32 33
g roof_fixture
f 34 35 36
g roof_fixture
f 34 36 37
g roof_fixture
f 38 39 40
g roof_fixture
f 38 40 41
g facade_completed
f 20 19 42 43
g facade_completed
f 9 20 43 44
g facade_completed
f 13 9 44 45
g facade_completed
f 14 13 45 46
g facade_completed
f 15 14 46 47
g facade_completed
f 16 15 47 48
g facade_completed
f 17 16 48 49
g facade_completed
f 18 17 49 50
g facade_completed
f 19 18 50 42
g roof_step_or_fixture_side
f 28 27 3 2
g roof_step_or_fixture_side
f 27 26 21 3
g roof_step_or_fixture_side
f 26 29 22 21
g roof_step_or_fixture_side
f 29 28 2 22
g roof_step_or_fixture_side
f 32 31 11 10
g roof_step_or_fixture_side
f 31 30 25 11
g roof_step_or_fixture_side
f 30 33 12 25
g roof_step_or_fixture_side
f 33 32 10 12
g roof_step_or_fixture_side
f 37 36 23 1
g roof_step_or_fixture_side
f 36 35 4 23
g roof_step_or_fixture_side
f 35 34 8 4
g roof_step_or_fixture_side
f 34 37 1 8
g roof_step_or_fixture_side
f 41 40 24 6
g roof_step_or_fixture_side
f 40 39 7 24
g roof_step_or_fixture_side
f 39 38 5 7
g roof_step_or_fixture_side
f 38 41 6 5
g ground_assumed
f 42 44 43
g ground_assumed
f 42 45 44
g ground_assumed
f 42 46 45
g ground_assumed
f 42 47 46
g ground_assumed
f 42 48 47
g ground_assumed
f 42 49 48
g ground_assumed
f 42 50 49
