v 2678466.9100019429 1248931.4200483749 425.42737789472204
v 2678458.5429967381 1248934.9784460671 425.4335928492992
v 2678458.2930016597 1248934.4784559091 425.43268269591789
v 2678467.3300049263 1248933.9099656006 425.43188904894623
v 2678465.5359667265 1248934.19700046 425.43236141424956
v 2678464.7999534579 1248932.7249739238 425.42968182239252
v 2678464.9859963073 1248934.4719856693 425.43284419224511
v 2678467.9899694296 1248933.579983349 425.43130971556121
v 2678470.8249661322 1248936.4000234825 425.43648002612247
v 2678463.3499632482 1248938.7000063374 425.44044359875346
v 2678462.0179845938 1248936.0360490275 425.43559428469626
v 2678460.6180215306 1248940.065977196 425.44284176694987
v 2678460.1000272264 1248941.7624929356 425.44589465256485
v 2678459.3750321218 1248940.312502725 425.44325517452472
v 2678458.7749876697 1248939.1750063631 425.44118373232919
v 2678450.5999798113 1248943.2625102929 425.44835996333552
v 2678446.5749746519 1248935.2124999731 425.43370619059431
v 2678457.4499481134 1248929.7750132424 425.4241598601601
v 2678458.7499506534 1248932.3750183231 425.42889275901837
v 2678466.7999609732 1248928.3500131639 425.42182625338125
v 2678457.7499703392 1248934.7499715691 425.43315938271917
v 2678457.9999654181 1248935.2499617271 425.43406953610048
v 2678466.2500374406 1248931.7500306265 425.427957228107
v 2678464.2499830397 1248932.9999591333 425.43016460038808
v 2678459.2860428751 1248937.4020198863 425.43799245394104
v 2678457.7499703392 1248934.7499715691 425.68950195322361
v 2678458.2930016597 1248934.4784559091 425.68950195322361
v 2678458.5429967381 1248934.9784460671 425.68950195322361
v 2678457.9999654181 1248935.2499617271 425.68950195322361
v 2678459.2860428751 1248937.4020198863 426.60000610348146
v 2678462.0179845938 1248936.0360490275 426.60000610348146
v 2678463.3499632482 1248938.7000063374 426.60000610348146
v 2678460.6180215306 1248940.065977196 426.60000610348146
v 2678467.9899694296 1248933.579983349 425.63000488248588
v 2678467.3300049263 1248933.9099656006 425.63000488248588
v 2678466.2500374406 1248931.7500306265 425.63000488248588
v 2678466.9100019429 1248931.4200483749 425.63000488248588
v 2678465.5359667265 1248934.19700046 425.63000488248588
v 2678464.9859963073 1248934.4719856693 425.63000488248588
v 2678464.2499830397 1248932.9999591333 425.63000488248588
v 2678464.7999534579 1248932.7249739238 425.63000488248588
v 2678458.7499506534 1248932.3750183231 413.7717907711575
v 2678466.7999609732 1248928.3500131639 413.7717907711575
v 2678470.8249661322 1248936.4000234825 413.7717907711575
v 2678460.1000272264 1248941.7624929356 413.7717907711575
v 2678459.3750321218 1248940.312502725 413.7717907711575
v 2678458.7749876697 1248939.1750063631 413.7717907711575
v 2678450.5999798113 1248943.2625102929 413.7717907711575
v 2678446.5749746519 1248935.2124999731 413.7717907711575
v 2678457.4499481134 1248929.7750132424 413.7717907711575
l 2 3
l 5 6
l 5 7
l 4 8
l 10 11
l 10 12
l 9 13
l 13 14
l 14 15
l 15 16
l 16 17
l 17 18
l 18 19
l 9 20
l 1 8
l 3 21
l 2 22
l 1 23
l 4 23
l 6 24
l 11 25
l 12 25
l 19 20
l 7 24
l 21 22
l 26 27
l 27 28
l 28 29
l 26 29
l 30 31
l 31 32
l 32 33
l 30 33
l 34 35
l 35 36
l 36 37
l 34 37
l 38 39
l 39 40
l 40 41
l 38 41
l 19 42
l 42 43
l 20 43
l 43 44
l 9 44
l 44 45
l 13 45
l 45 46
l 46 47
l 15 47
l 47 48
l 16 48
l 48 49
l 17 49
l 49 50
l 18 50
l 42 50
l 3 27
l 2 28
l 21 26
l 22 29
l 11 31
l 10 32
l 25 30
l 12 33
l 23 36
l 1 37
l 4 35
l 8 34
l 24 40
l 6 41
l 7 39
l 5 38
