# Source coordinates; no display transform
v -0.0491031622971 -0.487454639865 0.241193376164
v 0.207226542084 -0.300829445467 0.237361734263
v 0.255593571598 -0.264085018229 0.237145064167
v 0.338102643647 -0.200829445308 0.236965218283
v 0.348315189418 -0.183701399604 0.240020176817
v 0.445163296804 0.027350959137 0.285082037042
v 0.445266977787 0.0425298081582 0.290078697541
v 0.445277345678 0.0471435979271 0.291602902031
v 0.445235873595 0.0513634005832 0.293009988833
v 0.339115723205 0.189921464672 0.366018583051
v -0.267881364755 -0.287508366752 0.363345450457
v -0.113934681088 -0.473260757077 0.262480340713
v -0.0830067391925 -0.507890098266 0.243106179663
v 0.144883359122 0.443525142402 0.228742005351
v 0.0965266980155 0.501824779448 0.196189445018
v 0.0925349920748 0.501752203174 0.195142243043
v 0.0824053915023 0.497853810324 0.193731668272
v 0.0340072577967 0.461938828362 0.192796006952
v -0.00426127533635 0.425059616467 0.194903312823
v -0.450077760241 -0.0521721100206 0.235432315295
v -0.450129600732 -0.0598237426559 0.237987067059
v -0.450119232841 -0.0611404871031 0.238431884458
v -0.450067392349 -0.062944530721 0.239051421868
v -0.425795748964 -0.0942457234298 0.256074972025
v -0.276630378206 -0.276951788678 0.357452929263
v -0.0491031622971 -0.487454639865 -0.36376806646
v 0.207226542084 -0.300829445467 -0.36376806646
v 0.255593571598 -0.264085018229 -0.36376806646
v 0.338102643647 -0.200829445308 -0.36376806646
v 0.348315189418 -0.183701399604 -0.36376806646
v 0.445163296804 0.027350959137 -0.36376806646
v 0.445266977787 0.0425298081582 -0.36376806646
v 0.445277345678 0.0471435979271 -0.36376806646
v 0.445235873595 0.0513634005832 -0.36376806646
v 0.339115723205 0.189921464672 -0.36376806646
v 0.144883359122 0.443525142402 -0.36376806646
v 0.0965266980155 0.501824779448 -0.36376806646
v 0.0925349920748 0.501752203174 -0.36376806646
v 0.0824053915023 0.497853810324 -0.36376806646
v 0.0340072577967 0.461938828362 -0.36376806646
v -0.00426127533635 0.425059616467 -0.36376806646
v -0.450077760241 -0.0521721100206 -0.36376806646
v -0.450129600732 -0.0598237426559 -0.36376806646
v -0.450119232841 -0.0611404871031 -0.36376806646
v -0.450067392349 -0.062944530721 -0.36376806646
v -0.425795748964 -0.0942457234298 -0.36376806646
v -0.276630378206 -0.276951788678 -0.36376806646
v -0.267881364755 -0.287508366752 -0.36376806646
v -0.113934681088 -0.473260757077 -0.36376806646
v -0.0830067391925 -0.507890098266 -0.36376806646
g roof
f 1 2 3 4 5 6 7 8 9 10 11 12 13
g roof
f 10 14 15 16 17 18 19 20 21 22 23 24 25 11
g wall
f 2 1 26 27
g wall
f 3 2 27 28
g wall
f 4 3 28 29
g wall
f 5 4 29 30
g wall
f 6 5 30 31
g wall
f 7 6 31 32
g wall
f 8 7 32 33
g wall
f 9 8 33 34
g wall
f 10 9 34 35
g wall
f 12 11 48 49
g wall
f 13 12 49 50
g wall
f 1 13 50 26
g wall
f 14 10 35 36
g wall
f 15 14 36 37
g wall
f 16 15 37 38
g wall
f 17 16 38 39
g wall
f 18 17 39 40
g wall
f 19 18 40 41
g wall
f 20 19 41 42
g wall
f 21 20 42 43
g wall
f 22 21 43 44
g wall
f 23 22 44 45
g wall
f 24 23 45 46
g wall
f 25 24 46 47
g wall
f 11 25 47 48
g ground_assumed
f 50 49 48 47 46 45 44 43 42 41 40 39 38 37 36 35 34 33 32 31 30 29 28 27 26
