v -0.049103162297122006 -0.48745463986463494 0.2411933761641768
v 0.20722654208386326 -0.30082944546663881 0.23736173426314491
v 0.25559357159802737 -0.26408501822884095 0.23714506416718498
v 0.33810264364713899 -0.20082944530792679 0.23696521828296443
v 0.3483151894183481 -0.18370139960350246 0.24002017681707202
v 0.44516329680437677 0.027350959136982517 0.28508203704229623
v 0.44526697778654178 0.042529808158152965 0.29007869754120524
v 0.44527734567827804 0.047143597927075932 0.29160290203080458
v 0.4452358735951325 0.051363400583212766 0.29300998883314083
v 0.3391157232048605 0.18992146467210089 0.36601858305112767
v -0.26788136475518909 -0.28750836675197511 0.36334545045672106
v -0.11393468108817707 -0.47326075707682769 0.26248034071300191
v -0.083006739192530862 -0.50789009826638798 0.24310617966330392
v 0.14488335912175732 0.44352514240189961 0.228742005350656
v 0.096526698015530141 0.50182477944838799 0.19618944501768903
v 0.092534992074794278 0.50175220317383307 0.19514224304286829
v 0.082405391502277769 0.49785381032352594 0.19373166827217447
v 0.034007257796704292 0.46193882836204447 0.19279600695188992
v -0.0042612753363526863 0.42505961646687296 0.19490331282266932
v -0.4500777602411955 -0.052172110020630255 0.23543231529480169
v -0.45012960073227803 -0.059823742655933827 0.23798706705874992
v -0.45011923284054178 -0.061140487103063683 0.23843188445778271
v -0.45006739234945936 -0.06294453072100703 0.2390514218677505
v -0.42579574896401728 -0.09424572342976624 0.25607497202525209
v -0.2766303782062341 -0.2769517886777822 0.35745292926269739
v -0.049103162297122006 -0.48745463986463494 -0.36376806645954668
v 0.20722654208386326 -0.30082944546663881 -0.36376806645954668
v 0.25559357159802737 -0.26408501822884095 -0.36376806645954668
v 0.33810264364713899 -0.20082944530792679 -0.36376806645954668
v 0.3483151894183481 -0.18370139960350246 -0.36376806645954668
v 0.44516329680437677 0.027350959136982517 -0.36376806645954668
v 0.44526697778654178 0.042529808158152965 -0.36376806645954668
v 0.44527734567827804 0.047143597927075932 -0.36376806645954668
v 0.4452358735951325 0.051363400583212766 -0.36376806645954668
v 0.3391157232048605 0.18992146467210089 -0.36376806645954668
v 0.14488335912175732 0.44352514240189961 -0.36376806645954668
v 0.096526698015530141 0.50182477944838799 -0.36376806645954668
v 0.092534992074794278 0.50175220317383307 -0.36376806645954668
v 0.082405391502277769 0.49785381032352594 -0.36376806645954668
v 0.034007257796704292 0.46193882836204447 -0.36376806645954668
v -0.0042612753363526863 0.42505961646687296 -0.36376806645954668
v -0.4500777602411955 -0.052172110020630255 -0.36376806645954668
v -0.45012960073227803 -0.059823742655933827 -0.36376806645954668
v -0.45011923284054178 -0.061140487103063683 -0.36376806645954668
v -0.45006739234945936 -0.06294453072100703 -0.36376806645954668
v -0.42579574896401728 -0.09424572342976624 -0.36376806645954668
v -0.2766303782062341 -0.2769517886777822 -0.36376806645954668
v -0.26788136475518909 -0.28750836675197511 -0.36376806645954668
v -0.11393468108817707 -0.47326075707682769 -0.36376806645954668
v -0.083006739192530862 -0.50789009826638798 -0.36376806645954668
l 1 2
l 2 3
l 3 4
l 4 5
l 5 6
l 6 7
l 7 8
l 8 9
l 9 10
l 10 11
l 11 12
l 12 13
l 1 13
l 10 14
l 14 15
l 15 16
l 16 17
l 17 18
l 18 19
l 19 20
l 20 21
l 21 22
l 22 23
l 23 24
l 24 25
l 11 25
l 26 27
l 27 28
l 28 29
l 4 29
l 29 30
l 30 31
l 6 31
l 31 32
l 32 33
l 33 34
l 9 34
l 34 35
l 48 49
l 49 50
l 13 50
l 26 50
l 35 36
l 36 37
l 15 37
l 37 38
l 16 38
l 38 39
l 17 39
l 39 40
l 40 41
l 41 42
l 20 42
l 42 43
l 43 44
l 44 45
l 23 45
l 45 46
l 46 47
l 47 48
