# XYZ-only planar convex-roof baseline. Provisional base; no GT.
v 11.99737319 2.26722013 0.50317049
v 12.56417822 3.58976521 0.50380569
v 12.56417822 4.15657024 0.50408629
v 5.00677779 7.74633545 0.50612372
v 4.25103774 8.02973796 0.50629005
v -8.21867297 6.51825787 0.50597133
v -12.37524321 -1.32254508 0.50223294
v -11.99737319 -1.60594759 0.50207962
v -11.24163315 -1.98381761 0.50186653
v -8.59654299 -3.21189518 0.50116746
v 7.08506291 -8.02973796 0.49824221
v 11.99737319 2.26722013 -1.62723452
v 12.56417822 3.58976521 -1.62723452
v 12.56417822 4.15657024 -1.62723452
v 5.00677779 7.74633545 -1.62723452
v 4.25103774 8.02973796 -1.62723452
v -8.21867297 6.51825787 -1.62723452
v -12.37524321 -1.32254508 -1.62723452
v -11.99737319 -1.60594759 -1.62723452
v -11.24163315 -1.98381761 -1.62723452
v -8.59654299 -3.21189518 -1.62723452
v 7.08506291 -8.02973796 -1.62723452
g roof
f 1 2 3 4 5 6 7 8 9 10 11
g wall
f 2 1 12 13
g wall
f 3 2 13 14
g wall
f 4 3 14 15
g wall
f 5 4 15 16
g wall
f 6 5 16 17
g wall
f 7 6 17 18
g wall
f 8 7 18 19
g wall
f 9 8 19 20
g wall
f 10 9 20 21
g wall
f 11 10 21 22
g wall
f 1 11 22 12
g ground_assumed
f 22 21 20 19 18 17 16 15 14 13 12
