# Source coordinates; no display transform
v 2686542 1245160.875 524.52581424
v 2686542.75 1245162.625 524.526654741
v 2686542.75 1245163.375 524.527026033
v 2686532.75 1245168.125 524.529721973
v 2686531.75 1245168.5 524.529942062
v 2686515.25 1245166.5 524.52952033
v 2686509.75 1245156.125 524.524573668
v 2686510.25 1245155.75 524.524370794
v 2686511.25 1245155.25 524.524088832
v 2686514.75 1245153.625 524.523163818
v 2686535.5 1245147.25 524.519293109
v 2686542 1245160.875 521.706848872
v 2686542.75 1245162.625 521.706848872
v 2686542.75 1245163.375 521.706848872
v 2686532.75 1245168.125 521.706848872
v 2686531.75 1245168.5 521.706848872
v 2686515.25 1245166.5 521.706848872
v 2686509.75 1245156.125 521.706848872
v 2686510.25 1245155.75 521.706848872
v 2686511.25 1245155.25 521.706848872
v 2686514.75 1245153.625 521.706848872
v 2686535.5 1245147.25 521.706848872
g roof
f 1 2 3 4 5 6 7 8 9 10 11
g wall
f 2 1 12 13
g wall
f 3 2 13 14
g wall
f 4 3 14 15
g wall
f 5 4 15 16
g wall
f 6 5 16 17
g wall
f 7 6 17 18
g wall
f 8 7 18 19
g wall
f 9 8 19 20
g wall
f 10 9 20 21
g wall
f 11 10 21 22
g wall
f 1 11 22 12
g ground_assumed
f 22 21 20 19 18 17 16 15 14 13 12
