# XYZ-only planar convex-roof baseline. Provisional base; no GT.
v 2.49270060 -3.73905089 13.63605157
v 3.39913718 -3.51244175 13.63368818
v 3.39913718 1.01974115 13.61695596
v 2.94591889 3.05922346 13.61018985
v 2.49270060 4.19226918 13.60677019
v 1.58626402 4.19226918 13.60829697
v -1.58626402 3.96566004 13.61447733
v -3.39913718 3.28583260 13.62004073
v -3.39913718 -2.60600517 13.64179262
v -2.94591889 -3.96566004 13.64604889
v -2.49270060 -4.19226918 13.64612211
v 2.49270060 -3.73905089 -12.80795330
v 3.39913718 -3.51244175 -12.80795330
v 3.39913718 1.01974115 -12.80795330
v 2.94591889 3.05922346 -12.80795330
v 2.49270060 4.19226918 -12.80795330
v 1.58626402 4.19226918 -12.80795330
v -1.58626402 3.96566004 -12.80795330
v -3.39913718 3.28583260 -12.80795330
v -3.39913718 -2.60600517 -12.80795330
v -2.94591889 -3.96566004 -12.80795330
v -2.49270060 -4.19226918 -12.80795330
g roof
f 1 2 3 4 5 6 7 8 9 10 11
g wall
f 2 1 12 13
g wall
f 3 2 13 14
g wall
f 4 3 14 15
g wall
f 5 4 15 16
g wall
f 6 5 16 17
g wall
f 7 6 17 18
g wall
f 8 7 18 19
g wall
f 9 8 19 20
g wall
f 10 9 20 21
g wall
f 11 10 21 22
g wall
f 1 11 22 12
g ground_assumed
f 22 21 20 19 18 17 16 15 14 13 12
