# Source coordinates; no display transform
v 0.326280600284 -0.12354660392 0.212946214749
v 0.391655300745 0.0985740853933 0.17028986381
v 0.449411035201 0.305579665335 0.130691743826
v 0.449411035201 0.317482950994 0.12857766568
v 0.391531308314 0.339566025822 0.12749467193
v 0.289125852492 0.369311841486 0.127234774419
v -0.129311841334 0.488133911991 0.126656239927
v -0.187179169262 0.502318661028 0.126975416775
v -0.200409175256 0.496602603627 0.128639560462
v -0.213676379548 0.469869807912 0.134038198075
v -0.218685678768 0.455610663228 0.13681639903
v -0.320634455333 0.0970669902846 0.205496094796
v -0.0263360196675 -0.499863607986 0.136341192195
v 0.30176069425 -0.20685678842 0.199271356832
v -0.450526968245 -0.359752014967 0.130791665431
v -0.450539367677 -0.385021698483 0.12709922767
v -0.387687538921 -0.405964042096 0.127894877839
v -0.0709733416015 -0.495548667041 0.134233648398
v -0.0405455670953 -0.501872287636 0.135176171175
v 0.326280600284 -0.12354660392 -0.211886720615
v 0.391655300745 0.0985740853933 -0.211886720615
v 0.449411035201 0.305579665335 -0.211886720615
v 0.449411035201 0.317482950994 -0.211886720615
v 0.391531308314 0.339566025822 -0.211886720615
v 0.289125852492 0.369311841486 -0.211886720615
v -0.129311841334 0.488133911991 -0.211886720615
v -0.187179169262 0.502318661028 -0.211886720615
v -0.200409175256 0.496602603627 -0.211886720615
v -0.213676379548 0.469869807912 -0.211886720615
v -0.218685678768 0.455610663228 -0.211886720615
v -0.320634455333 0.0970669902846 -0.211886720615
v -0.450526968245 -0.359752014967 -0.211886720615
v -0.450539367677 -0.385021698483 -0.211886720615
v -0.387687538921 -0.405964042096 -0.211886720615
v -0.0709733416015 -0.495548667041 -0.211886720615
v -0.0405455670953 -0.501872287636 -0.211886720615
v -0.0263360196675 -0.499863607986 -0.211886720615
v 0.30176069425 -0.20685678842 -0.211886720615
g roof
f 1 2 3 4 5 6 7 8 9 10 11 12
g roof
f 13 14 1 12 15 16 17 18 19
g wall
f 2 1 20 21
g wall
f 3 2 21 22
g wall
f 4 3 22 23
g wall
f 5 4 23 24
g wall
f 6 5 24 25
g wall
f 7 6 25 26
g wall
f 8 7 26 27
g wall
f 9 8 27 28
g wall
f 10 9 28 29
g wall
f 11 10 29 30
g wall
f 12 11 30 31
g wall
f 14 13 37 38
g wall
f 1 14 38 20
g wall
f 15 12 31 32
g wall
f 16 15 32 33
g wall
f 17 16 33 34
g wall
f 18 17 34 35
g wall
f 19 18 35 36
g wall
f 13 19 36 37
g ground_assumed
f 38 37 36 35 34 33 32 31 30 29 28 27 26 25 24 23 22 21 20
