# XYZ-only planar convex-roof baseline. Provisional base; no GT.
v 6.89555494 -2.62447341 4.41093493
v 8.27481334 2.06177103 3.51098235
v 9.49332878 6.42912083 2.67555153
v 9.49332878 6.68025325 2.63094926
v 8.27219738 7.14615621 2.60810054
v 6.11167375 7.77372568 2.60261729
v -2.71641571 10.28060277 2.59041152
v -3.93728552 10.57986891 2.59714543
v -4.21640874 10.45927302 2.63225510
v -4.49631676 9.89527146 2.74615415
v -4.60200165 9.59443574 2.80476791
v -6.75289038 2.02997473 4.25375424
v -0.54385865 -10.56391153 2.79474212
v 6.37824035 -4.38212998 4.12242634
v -9.49332878 -7.60787364 2.67765965
v -9.49359038 -8.14100684 2.59975756
v -8.16755887 -8.58284295 2.61654398
v -1.48560524 -10.47287603 2.75027771
v -0.84364798 -10.60629013 2.77016281
v 6.89555494 -2.62447341 -4.55207967
v 8.27481334 2.06177103 -4.55207967
v 9.49332878 6.42912083 -4.55207967
v 9.49332878 6.68025325 -4.55207967
v 8.27219738 7.14615621 -4.55207967
v 6.11167375 7.77372568 -4.55207967
v -2.71641571 10.28060277 -4.55207967
v -3.93728552 10.57986891 -4.55207967
v -4.21640874 10.45927302 -4.55207967
v -4.49631676 9.89527146 -4.55207967
v -4.60200165 9.59443574 -4.55207967
v -6.75289038 2.02997473 -4.55207967
v -9.49332878 -7.60787364 -4.55207967
v -9.49359038 -8.14100684 -4.55207967
v -8.16755887 -8.58284295 -4.55207967
v -1.48560524 -10.47287603 -4.55207967
v -0.84364798 -10.60629013 -4.55207967
v -0.54385865 -10.56391153 -4.55207967
v 6.37824035 -4.38212998 -4.55207967
g roof
f 1 2 3 4 5 6 7 8 9 10 11 12
g roof
f 13 14 1 12 15 16 17 18 19
g wall
f 2 1 20 21
g wall
f 3 2 21 22
g wall
f 4 3 22 23
g wall
f 5 4 23 24
g wall
f 6 5 24 25
g wall
f 7 6 25 26
g wall
f 8 7 26 27
g wall
f 9 8 27 28
g wall
f 10 9 28 29
g wall
f 11 10 29 30
g wall
f 12 11 30 31
g wall
f 14 13 37 38
g wall
f 1 14 38 20
g wall
f 15 12 31 32
g wall
f 16 15 32 33
g wall
f 17 16 33 34
g wall
f 18 17 34 35
g wall
f 19 18 35 36
g wall
f 13 19 36 37
g ground_assumed
f 38 37 36 35 34 33 32 31 30 29 28 27 26 25 24 23 22 21 20
