v 0.32628060028428407 -0.12354660392045837 0.2129462147493949
v 0.39165530074479959 0.098574085393274655 0.17028986381024663
v 0.44941103520073133 0.30557966533485237 0.13069174382563536
v 0.44941103520073133 0.317482950994323 0.12857766567964835
v 0.39153130831421756 0.33956602582182999 0.12749467193032177
v 0.28912585249164235 0.36931184148582341 0.12723477441851389
v -0.12931184133435475 0.48813391199130585 0.12665623992661595
v -0.18717916926220102 0.50231866102779876 0.12697541677497015
v -0.20040917525605584 0.49660260362657549 0.12863956046227165
v -0.21367637954786656 0.46986980791239791 0.13403819807541745
v -0.21868567876761574 0.45561066322796201 0.13681639902954218
v -0.32063445533308654 0.097066990284589663 0.20549609479585529
v -0.026336019667523976 -0.49986360798568563 0.13634119219510854
v 0.30176069424992202 -0.20685678841975685 0.19927135683188235
v -0.45052696824473137 -0.35975201496679632 0.1307916654309958
v -0.45053936767738334 -0.38502169848335571 0.12709922766951604
v -0.38768753892110741 -0.40596404209633602 0.12789487783869713
v -0.07097334160151543 -0.49554866704077405 0.13423364839845409
v -0.040545567095336375 -0.50187228763623992 0.13517617117455416
v 0.32628060028428407 -0.12354660392045837 -0.21188672061516606
v 0.39165530074479959 0.098574085393274655 -0.21188672061516606
v 0.44941103520073133 0.30557966533485237 -0.21188672061516606
v 0.44941103520073133 0.317482950994323 -0.21188672061516606
v 0.39153130831421756 0.33956602582182999 -0.21188672061516606
v 0.28912585249164235 0.36931184148582341 -0.21188672061516606
v -0.12931184133435475 0.48813391199130585 -0.21188672061516606
v -0.18717916926220102 0.50231866102779876 -0.21188672061516606
v -0.20040917525605584 0.49660260362657549 -0.21188672061516606
v -0.21367637954786656 0.46986980791239791 -0.21188672061516606
v -0.21868567876761574 0.45561066322796201 -0.21188672061516606
v -0.32063445533308654 0.097066990284589663 -0.21188672061516606
v -0.45052696824473137 -0.35975201496679632 -0.21188672061516606
v -0.45053936767738334 -0.38502169848335571 -0.21188672061516606
v -0.38768753892110741 -0.40596404209633602 -0.21188672061516606
v -0.07097334160151543 -0.49554866704077405 -0.21188672061516606
v -0.040545567095336375 -0.50187228763623992 -0.21188672061516606
v -0.026336019667523976 -0.49986360798568563 -0.21188672061516606
v 0.30176069424992202 -0.20685678841975685 -0.21188672061516606
l 1 2
l 2 3
l 3 4
l 4 5
l 5 6
l 6 7
l 7 8
l 8 9
l 9 10
l 10 11
l 11 12
l 1 12
l 13 14
l 1 14
l 12 15
l 15 16
l 16 17
l 17 18
l 18 19
l 13 19
l 20 21
l 21 22
l 3 22
l 22 23
l 4 23
l 23 24
l 24 25
l 25 26
l 26 27
l 8 27
l 27 28
l 9 28
l 28 29
l 29 30
l 30 31
l 13 37
l 37 38
l 14 38
l 20 38
l 31 32
l 15 32
l 32 33
l 16 33
l 33 34
l 34 35
l 35 36
l 19 36
l 36 37
