# pointcloud_to_mesh 0.5.1; candidate requires geometry validation; coordinates preserved
v -0.988276236 5.631310862 5.750378901
v -7.430980762 7.655148304 5.749898945
v -7.756474217 6.618969159 5.750126765
v -10.192175810 -1.134867859 5.751831569
v -7.968698123 -1.833325685 5.751997210
v -7.474962367 -2.617328876 5.752173243
v -5.388770546 -3.272661292 5.752328656
v -5.982966174 -5.164229648 5.752744547
v -1.009764214 -6.726454377 5.753115032
v -0.648277975 -5.575695437 5.752862019
v 1.405858217 -6.220958264 5.753015044
v 1.663403952 -7.651075226 5.753332971
v 1.888874537 -7.543606927 5.753310290
v 2.456367774 -5.737043231 5.752913088
v 4.617069854 -6.415781446 5.753074052
v 5.377128991 -6.025631029 5.752991422
v 7.568455645 -6.713989297 5.753154668
v 10.004157238 1.039847721 5.751449864
v 10.329650693 2.076026867 5.751222043
v 3.379780312 4.259179584 5.750704305
v 3.900551858 5.917008975 5.750339805
v -0.467504690 7.289140252 5.750014401
v -7.430980762 7.655148304 -7.567889220
v -7.756474217 6.618969159 -7.567889220
v -10.192175810 -1.134867859 -7.567889220
v -7.968698123 -1.833325685 -7.567889220
v -7.474962367 -2.617328876 -7.567889220
v -5.388770546 -3.272661292 -7.567889220
v -5.982966174 -5.164229648 -7.567889220
v -1.009764214 -6.726454377 -7.567889220
v -0.648277975 -5.575695437 -7.567889220
v 1.405858217 -6.220958264 -7.567889220
v 1.663403952 -7.651075226 -7.567889220
v 1.888874537 -7.543606927 -7.567889220
v 2.456367774 -5.737043231 -7.567889220
v 4.617069854 -6.415781446 -7.567889220
v 5.377128991 -6.025631029 -7.567889220
v 7.568455645 -6.713989297 -7.567889220
v 10.004157238 1.039847721 -7.567889220
v 10.329650693 2.076026867 -7.567889220
v 3.379780312 4.259179584 -7.567889220
v 3.900551858 5.917008975 -7.567889220
v -0.467504690 7.289140252 -7.567889220
v -0.988276236 5.631310862 -7.567889220
g roof
f 1 2 3
g roof
f 1 3 4
g roof
f 1 4 5
g roof
f 1 5 6
g roof
f 1 6 7
g roof
f 1 7 8
g roof
f 1 8 9
g roof
f 1 9 10
g roof
f 1 10 11
g roof
f 11 12 13
g roof
f 11 13 14
g roof
f 14 15 16
g roof
f 16 17 18
g roof
f 16 18 19
g roof
f 16 19 20
g roof
f 20 21 22
g roof
f 20 22 1
g roof
f 20 1 11
g roof
f 20 11 14
g roof
f 20 14 16
g facade_completed
f 3 2 23 24
g facade_completed
f 4 3 24 25
g facade_completed
f 5 4 25 26
g facade_completed
f 6 5 26 27
g facade_completed
f 7 6 27 28
g facade_completed
f 8 7 28 29
g facade_completed
f 9 8 29 30
g facade_completed
f 10 9 30 31
g facade_completed
f 11 10 31 32
g facade_completed
f 12 11 32 33
g facade_completed
f 13 12 33 34
g facade_completed
f 14 13 34 35
g facade_completed
f 15 14 35 36
g facade_completed
f 16 15 36 37
g facade_completed
f 17 16 37 38
g facade_completed
f 18 17 38 39
g facade_completed
f 19 18 39 40
g facade_completed
f 20 19 40 41
g facade_completed
f 21 20 41 42
g facade_completed
f 22 21 42 43
g facade_completed
f 1 22 43 44
g facade_completed
f 2 1 44 23
g ground_assumed
f 37 39 38
g ground_assumed
f 37 40 39
g ground_assumed
f 37 41 40
g ground_assumed
f 41 43 42
g ground_assumed
f 41 44 43
g ground_assumed
f 44 24 23
g ground_assumed
f 44 25 24
g ground_assumed
f 44 26 25
g ground_assumed
f 44 27 26
g ground_assumed
f 44 28 27
g ground_assumed
f 44 29 28
g ground_assumed
f 44 30 29
g ground_assumed
f 44 31 30
g ground_assumed
f 44 32 31
g ground_assumed
f 32 34 33
g ground_assumed
f 32 35 34
g ground_assumed
f 35 37 36
g ground_assumed
f 35 41 37
g ground_assumed
f 35 44 41
g ground_assumed
f 35 32 44
