# Source coordinates; no display transform
v -0.0479038688566 0.270407636423 0.278951205785
v -0.357969877729 0.367808222732 0.278928107094
v -0.373634798586 0.317940355802 0.278939071315
v -0.490857041 -0.0552261130177 0.27902111788
v -0.383848431581 -0.0888405725354 0.279029089632
v -0.360086566562 -0.126572046856 0.279037561516
v -0.25968507072 -0.158111023367 0.279045041029
v -0.288281736316 -0.249145937088 0.279065056484
v -0.048938013997 -0.324330633938 0.279082886699
v -0.0315408797754 -0.26894842135 0.279070710022
v 0.0673178849194 -0.300002781927 0.279078074608
v 0.0797127072849 -0.368829569938 0.27909337538
v 0.0905638590221 -0.363657477005 0.279092283819
v 0.117875427068 -0.276713555748 0.279073167803
v 0.221862854646 -0.309378975766 0.279080914467
v 0.258441981031 -0.290602329689 0.279076937759
v 0.363903267824 -0.323730730964 0.279084794248
v 0.481125510238 0.0494357378559 0.279002747683
v 0.496790431095 0.0993036048333 0.278991783414
v 0.162316211065 0.204371507139 0.278966866401
v 0.187379219023 0.284157339406 0.278949324224
v -0.0228408608991 0.350193468642 0.278933663608
v -0.357969877729 0.367808222732 -0.362012883862
v -0.373634798586 0.317940355802 -0.362012883862
v -0.490857041 -0.0552261130177 -0.362012883862
v -0.383848431581 -0.0888405725354 -0.362012883862
v -0.360086566562 -0.126572046856 -0.362012883862
v -0.25968507072 -0.158111023367 -0.362012883862
v -0.288281736316 -0.249145937088 -0.362012883862
v -0.048938013997 -0.324330633938 -0.362012883862
v -0.0315408797754 -0.26894842135 -0.362012883862
v 0.0673178849194 -0.300002781927 -0.362012883862
v 0.0797127072849 -0.368829569938 -0.362012883862
v 0.0905638590221 -0.363657477005 -0.362012883862
v 0.117875427068 -0.276713555748 -0.362012883862
v 0.221862854646 -0.309378975766 -0.362012883862
v 0.258441981031 -0.290602329689 -0.362012883862
v 0.363903267824 -0.323730730964 -0.362012883862
v 0.481125510238 0.0494357378559 -0.362012883862
v 0.496790431095 0.0993036048333 -0.362012883862
v 0.162316211065 0.204371507139 -0.362012883862
v 0.187379219023 0.284157339406 -0.362012883862
v -0.0228408608991 0.350193468642 -0.362012883862
v -0.0479038688566 0.270407636423 -0.362012883862
g roof
f 1 2 3
g roof
f 1 3 4
g roof
f 1 4 5
g roof
f 1 5 6
g roof
f 1 6 7
g roof
f 1 7 8
g roof
f 1 8 9
g roof
f 1 9 10
g roof
f 1 10 11
g roof
f 11 12 13
g roof
f 11 13 14
g roof
f 14 15 16
g roof
f 16 17 18
g roof
f 16 18 19
g roof
f 16 19 20
g roof
f 20 21 22
g roof
f 20 22 1
g roof
f 20 1 11
g roof
f 20 11 14
g roof
f 20 14 16
g facade_completed
f 3 2 23 24
g facade_completed
f 4 3 24 25
g facade_completed
f 5 4 25 26
g facade_completed
f 6 5 26 27
g facade_completed
f 7 6 27 28
g facade_completed
f 8 7 28 29
g facade_completed
f 9 8 29 30
g facade_completed
f 10 9 30 31
g facade_completed
f 11 10 31 32
g facade_completed
f 12 11 32 33
g facade_completed
f 13 12 33 34
g facade_completed
f 14 13 34 35
g facade_completed
f 15 14 35 36
g facade_completed
f 16 15 36 37
g facade_completed
f 17 16 37 38
g facade_completed
f 18 17 38 39
g facade_completed
f 19 18 39 40
g facade_completed
f 20 19 40 41
g facade_completed
f 21 20 41 42
g facade_completed
f 22 21 42 43
g facade_completed
f 1 22 43 44
g facade_completed
f 2 1 44 23
g ground_assumed
f 37 39 38
g ground_assumed
f 37 40 39
g ground_assumed
f 37 41 40
g ground_assumed
f 41 43 42
g ground_assumed
f 41 44 43
g ground_assumed
f 44 24 23
g ground_assumed
f 44 25 24
g ground_assumed
f 44 26 25
g ground_assumed
f 44 27 26
g ground_assumed
f 44 28 27
g ground_assumed
f 44 29 28
g ground_assumed
f 44 30 29
g ground_assumed
f 44 31 30
g ground_assumed
f 44 32 31
g ground_assumed
f 32 34 33
g ground_assumed
f 32 35 34
g ground_assumed
f 35 37 36
g ground_assumed
f 35 41 37
g ground_assumed
f 35 44 41
g ground_assumed
f 35 32 44
