# Source coordinates; no display transform
v -0.418723981743 0.227665158558 0.0442125027632
v -0.503321266863 -0.114343891236 0.0449843192739
v -0.503393665218 -0.120199094818 0.0462964728898
v -0.503393665218 -0.130932126563 0.0488270375172
v -0.48112217194 -0.1377556561 0.0714614545324
v -0.469058823519 -0.140841629062 0.0835775611914
v -0.44911312232 -0.145855203416 0.103589553827
v -0.0601465201878 -0.242074271806 0.493482992931
v 0.0595352073756 0.238756101511 0.493102581059
v -0.0590588233901 0.268054298394 0.3742350468
v -0.249846153845 0.314144796164 0.183253578076
v -0.384859728561 0.345266968175 0.0484549760063
v -0.393809954571 0.323194569978 0.0452095182998
v 0.17222624417 -0.299556561009 0.260531224661
v 0.279131221482 -0.325330316867 0.153517195924
v 0.3833936649 -0.349592760426 0.0493532348321
v 0.38638914005 -0.345104072434 0.0475756545123
v 0.395466063312 -0.314371040593 0.0462032333255
v 0.405809954887 -0.275013574549 0.0456549001426
v 0.425683257731 -0.19648868755 0.0452830052604
v 0.437764706134 -0.147601809711 0.0453263192753
v 0.470995475161 -0.0127058822556 0.0455461026038
v 0.490135746571 0.0657285069319 0.045845374682
v 0.502171945543 0.119411764587 0.0470552597678
v 0.502171945543 0.129257918723 0.0493622969133
v 0.375475113207 0.160669683101 0.176391371218
v 0.142380090464 0.218289592938 0.410057579464
v -0.418723981743 0.227665158558 -0.491576832704
v -0.503321266863 -0.114343891236 -0.491576832704
v -0.503393665218 -0.120199094818 -0.491576832704
v -0.503393665218 -0.130932126563 -0.491576832704
v -0.48112217194 -0.1377556561 -0.491576832704
v -0.469058823519 -0.140841629062 -0.491576832704
v -0.44911312232 -0.145855203416 -0.491576832704
v -0.0601465201878 -0.242074271806 -0.491576832704
v 0.17222624417 -0.299556561009 -0.491576832704
v 0.279131221482 -0.325330316867 -0.491576832704
v 0.3833936649 -0.349592760426 -0.491576832704
v 0.38638914005 -0.345104072434 -0.491576832704
v 0.395466063312 -0.314371040593 -0.491576832704
v 0.405809954887 -0.275013574549 -0.491576832704
v 0.425683257731 -0.19648868755 -0.491576832704
v 0.437764706134 -0.147601809711 -0.491576832704
v 0.470995475161 -0.0127058822556 -0.491576832704
v 0.490135746571 0.0657285069319 -0.491576832704
v 0.502171945543 0.119411764587 -0.491576832704
v 0.502171945543 0.129257918723 -0.491576832704
v 0.375475113207 0.160669683101 -0.491576832704
v 0.142380090464 0.218289592938 -0.491576832704
v 0.0595352073756 0.238756101511 -0.491576832704
v -0.0590588233901 0.268054298394 -0.491576832704
v -0.249846153845 0.314144796164 -0.491576832704
v -0.384859728561 0.345266968175 -0.491576832704
v -0.393809954571 0.323194569978 -0.491576832704
g roof
f 1 2 3 4 5 6 7 8 9 10 11 12 13
g roof
f 8 14 15 16 17 18 19 20 21 22 23 24 25 26 27 9
g wall
f 2 1 28 29
g wall
f 3 2 29 30
g wall
f 4 3 30 31
g wall
f 5 4 31 32
g wall
f 6 5 32 33
g wall
f 7 6 33 34
g wall
f 8 7 34 35
g wall
f 10 9 50 51
g wall
f 11 10 51 52
g wall
f 12 11 52 53
g wall
f 13 12 53 54
g wall
f 1 13 54 28
g wall
f 14 8 35 36
g wall
f 15 14 36 37
g wall
f 16 15 37 38
g wall
f 17 16 38 39
g wall
f 18 17 39 40
g wall
f 19 18 40 41
g wall
f 20 19 41 42
g wall
f 21 20 42 43
g wall
f 22 21 43 44
g wall
f 23 22 44 45
g wall
f 24 23 45 46
g wall
f 25 24 46 47
g wall
f 26 25 47 48
g wall
f 27 26 48 49
g wall
f 9 27 49 50
g ground_assumed
f 54 53 52 51 50 49 48 47 46 45 44 43 42 41 40 39 38 37 36 35 34 33 32 31 30 29 28
