# XYZ-only planar convex-roof baseline. Provisional base; no GT.
v -7.95440701 4.33599716 0.87055349
v -9.56381346 -2.17049498 0.88523678
v -9.56519079 -2.28188629 0.91019962
v -9.56519079 -2.48607500 0.95834191
v -9.14149061 -2.61588806 1.38894647
v -8.91199352 -2.67459662 1.61944725
v -8.53253997 -2.76997650 2.00016195
v -1.13271198 -4.60047956 9.41762239
v 1.14415239 4.54699489 9.41038531
v -1.11201928 5.10437338 7.14901042
v -4.74161992 5.98121410 3.51571643
v -7.31016237 6.57329249 0.95126369
v -7.48043440 6.15337996 0.88952104
v 3.28802357 -5.69404145 4.98587168
v 5.32181886 -6.18436982 2.95000176
v 7.30534172 -6.64594649 0.96835246
v 7.36232862 -6.56055222 0.93453519
v 7.53501098 -5.97587696 0.90842580
v 7.73179656 -5.22712764 0.89799413
v 8.10987278 -3.73324448 0.89091908
v 8.33971421 -2.80320451 0.89174310
v 8.97190724 -0.23690022 0.89592433
v 9.33603803 1.25526128 0.90161778
v 9.56501862 2.27654915 0.92463503
v 9.56501862 2.46386561 0.96852486
v 7.15469660 3.06145330 3.38516756
v 2.72022057 4.15763333 7.83051001
v -7.95440701 4.33599716 -9.32247825
v -9.56381346 -2.17049498 -9.32247825
v -9.56519079 -2.28188629 -9.32247825
v -9.56519079 -2.48607500 -9.32247825
v -9.14149061 -2.61588806 -9.32247825
v -8.91199352 -2.67459662 -9.32247825
v -8.53253997 -2.76997650 -9.32247825
v -1.13271198 -4.60047956 -9.32247825
v 3.28802357 -5.69404145 -9.32247825
v 5.32181886 -6.18436982 -9.32247825
v 7.30534172 -6.64594649 -9.32247825
v 7.36232862 -6.56055222 -9.32247825
v 7.53501098 -5.97587696 -9.32247825
v 7.73179656 -5.22712764 -9.32247825
v 8.10987278 -3.73324448 -9.32247825
v 8.33971421 -2.80320451 -9.32247825
v 8.97190724 -0.23690022 -9.32247825
v 9.33603803 1.25526128 -9.32247825
v 9.56501862 2.27654915 -9.32247825
v 9.56501862 2.46386561 -9.32247825
v 7.15469660 3.06145330 -9.32247825
v 2.72022057 4.15763333 -9.32247825
v 1.14415239 4.54699489 -9.32247825
v -1.11201928 5.10437338 -9.32247825
v -4.74161992 5.98121410 -9.32247825
v -7.31016237 6.57329249 -9.32247825
v -7.48043440 6.15337996 -9.32247825
g roof
f 1 2 3 4 5 6 7 8 9 10 11 12 13
g roof
f 8 14 15 16 17 18 19 20 21 22 23 24 25 26 27 9
g wall
f 2 1 28 29
g wall
f 3 2 29 30
g wall
f 4 3 30 31
g wall
f 5 4 31 32
g wall
f 6 5 32 33
g wall
f 7 6 33 34
g wall
f 8 7 34 35
g wall
f 10 9 50 51
g wall
f 11 10 51 52
g wall
f 12 11 52 53
g wall
f 13 12 53 54
g wall
f 1 13 54 28
g wall
f 14 8 35 36
g wall
f 15 14 36 37
g wall
f 16 15 37 38
g wall
f 17 16 38 39
g wall
f 18 17 39 40
g wall
f 19 18 40 41
g wall
f 20 19 41 42
g wall
f 21 20 42 43
g wall
f 22 21 43 44
g wall
f 23 22 44 45
g wall
f 24 23 45 46
g wall
f 25 24 46 47
g wall
f 26 25 47 48
g wall
f 27 26 48 49
g wall
f 9 27 49 50
g ground_assumed
f 54 53 52 51 50 49 48 47 46 45 44 43 42 41 40 39 38 37 36 35 34 33 32 31 30 29 28
