v -0.41872398174344877 0.22766515855813205 0.044212502763153791
v -0.50332126686311218 -0.11434389123561554 0.044984319273908231
v -0.50339366521761963 -0.12019909481822999 0.04629647288984319
v -0.50339366521761963 -0.13093212656299916 0.048827037517220888
v -0.48112217193963969 -0.13775565610028664 0.071461454532355376
v -0.46905882351894512 -0.14084162906211045 0.083577561191406469
v -0.44911312232020917 -0.14585520341620806 0.10358955382704373
v -0.060146520187792388 -0.24207427180582228 0.49348299293094666
v 0.05953520737561626 0.23875610151067939 0.49310258105910798
v -0.059058823390134053 0.268054298394442 0.3742350468002652
v -0.24984615384515524 0.31414479616420726 0.18325357807582385
v -0.38485972856060929 0.34526696817490182 0.048454976006295725
v -0.39380995457083429 0.3231945699775855 0.045209518299764488
v 0.17222624417013707 -0.29955656100898032 0.26053122466063772
v 0.27913122148221281 -0.32533031686732783 0.15351719592427582
v 0.38339366489965415 -0.3495927604263025 0.049353234832109648
v 0.38638914004975422 -0.34510407243404578 0.047575654512260278
v 0.39546606331177814 -0.31437104059324922 0.046203233325473998
v 0.40580995488664934 -0.27501357454904762 0.045654900142601366
v 0.42568325773087773 -0.19648868754987869 0.045283005260431691
v 0.43776470613443119 -0.14760180971067707 0.045326319275287484
v 0.47099547516084705 -0.012705882255592486 0.045546102603769172
v 0.49013574657114128 0.065728506931852698 0.045845374681972001
v 0.50217194554319011 0.11941176458727198 0.047055259767818755
v 0.50217194554319011 0.12925791872330519 0.049362296913322654
v 0.37547511320718024 0.16066968310074448 0.17639137121848222
v 0.14238009046371927 0.2182895929379339 0.41005757946388399
v -0.41872398174344877 0.22766515855813205 -0.49157683270431507
v -0.50332126686311218 -0.11434389123561554 -0.49157683270431507
v -0.50339366521761963 -0.12019909481822999 -0.49157683270431507
v -0.50339366521761963 -0.13093212656299916 -0.49157683270431507
v -0.48112217193963969 -0.13775565610028664 -0.49157683270431507
v -0.46905882351894512 -0.14084162906211045 -0.49157683270431507
v -0.44911312232020917 -0.14585520341620806 -0.49157683270431507
v -0.060146520187792388 -0.24207427180582228 -0.49157683270431507
v 0.17222624417013707 -0.29955656100898032 -0.49157683270431507
v 0.27913122148221281 -0.32533031686732783 -0.49157683270431507
v 0.38339366489965415 -0.3495927604263025 -0.49157683270431507
v 0.38638914004975422 -0.34510407243404578 -0.49157683270431507
v 0.39546606331177814 -0.31437104059324922 -0.49157683270431507
v 0.40580995488664934 -0.27501357454904762 -0.49157683270431507
v 0.42568325773087773 -0.19648868754987869 -0.49157683270431507
v 0.43776470613443119 -0.14760180971067707 -0.49157683270431507
v 0.47099547516084705 -0.012705882255592486 -0.49157683270431507
v 0.49013574657114128 0.065728506931852698 -0.49157683270431507
v 0.50217194554319011 0.11941176458727198 -0.49157683270431507
v 0.50217194554319011 0.12925791872330519 -0.49157683270431507
v 0.37547511320718024 0.16066968310074448 -0.49157683270431507
v 0.14238009046371927 0.2182895929379339 -0.49157683270431507
v 0.05953520737561626 0.23875610151067939 -0.49157683270431507
v -0.059058823390134053 0.268054298394442 -0.49157683270431507
v -0.24984615384515524 0.31414479616420726 -0.49157683270431507
v -0.38485972856060929 0.34526696817490182 -0.49157683270431507
v -0.39380995457083429 0.3231945699775855 -0.49157683270431507
l 1 2
l 2 3
l 3 4
l 4 5
l 5 6
l 6 7
l 7 8
l 8 9
l 9 10
l 10 11
l 11 12
l 12 13
l 1 13
l 8 14
l 14 15
l 15 16
l 16 17
l 17 18
l 18 19
l 19 20
l 20 21
l 21 22
l 22 23
l 23 24
l 24 25
l 25 26
l 26 27
l 9 27
l 28 29
l 2 29
l 29 30
l 30 31
l 4 31
l 31 32
l 32 33
l 33 34
l 34 35
l 50 51
l 51 52
l 52 53
l 12 53
l 53 54
l 28 54
l 35 36
l 36 37
l 37 38
l 16 38
l 38 39
l 17 39
l 39 40
l 40 41
l 41 42
l 42 43
l 43 44
l 44 45
l 45 46
l 24 46
l 46 47
l 25 47
l 47 48
l 48 49
l 49 50
