v 2684446.8338817698 1252468.0247859962 427.93001929408427
v 2684456.9114748994 1252471.5131836187 427.92636070102623
v 2684455.1063447823 1252476.7280039608 427.92685956900908
v 2684445.0287516532 1252473.2396063432 427.93051816206707
v 2684446.8338817698 1252468.0247859962 425.12558056476865
v 2684456.9114748994 1252471.5131836187 425.12558056476865
v 2684455.1063447823 1252476.7280039608 425.12558056476865
v 2684445.0287516532 1252473.2396063432 425.12558056476865
l 1 2
l 2 3
l 3 4
l 1 4
l 1 5
l 5 6
l 2 6
l 6 7
l 3 7
l 7 8
l 4 8
l 5 8
