# XYZ-only planar convex-roof baseline. Provisional base; no GT.
v 13.13428435 -4.37809478 3.62805595
v 13.13428435 3.10115047 3.23266917
v 12.40460188 5.10777725 3.12456093
v 12.03976065 5.29019786 3.11390291
v -8.75618956 4.56051540 3.09465449
v -12.40460188 4.19567417 3.10379730
v -12.76944311 4.01325355 3.11242645
v -13.13428435 1.09452370 3.26570929
v -13.13428435 -1.64178554 3.41036299
v -12.76944311 -5.29019786 3.60424902
v 13.13428435 -4.37809478 -3.66880624
v 13.13428435 3.10115047 -3.66880624
v 12.40460188 5.10777725 -3.66880624
v 12.03976065 5.29019786 -3.66880624
v -8.75618956 4.56051540 -3.66880624
v -12.40460188 4.19567417 -3.66880624
v -12.76944311 4.01325355 -3.66880624
v -13.13428435 1.09452370 -3.66880624
v -13.13428435 -1.64178554 -3.66880624
v -12.76944311 -5.29019786 -3.66880624
g roof
f 1 2 3 4 5 6 7 8 9 10
g wall
f 2 1 11 12
g wall
f 3 2 12 13
g wall
f 4 3 13 14
g wall
f 5 4 14 15
g wall
f 6 5 15 16
g wall
f 7 6 16 17
g wall
f 8 7 17 18
g wall
f 9 8 18 19
g wall
f 10 9 19 20
g wall
f 1 10 20 11
g ground_assumed
f 20 19 18 17 16 15 14 13 12 11
