v 2684264.7500000028 1252133.5000000014 430.95104755237918
v 2684264.7500000028 1252138.6249999995 430.68011683957923
v 2684264.2499999981 1252140.000000003 430.60603787689178
v 2684263.9999999995 1252140.1249999988 430.59873468644207
v 2684249.7500000028 1252139.6250000014 430.58554509990387
v 2684247.2500000019 1252139.3750000026 430.59181002365852
v 2684247.0000000028 1252139.2499999998 430.59772297239277
v 2684246.7499999972 1252137.250000003 430.70275690676254
v 2684246.7499999972 1252135.3750000023 430.80187789925037
v 2684247.0000000028 1252132.8750000012 430.93473433999895
v 2684264.7500000028 1252133.5000000014 425.95102181975443
v 2684264.7500000028 1252138.6249999995 425.95102181975443
v 2684264.2499999981 1252140.000000003 425.95102181975443
v 2684263.9999999995 1252140.1249999988 425.95102181975443
v 2684249.7500000028 1252139.6250000014 425.95102181975443
v 2684247.2500000019 1252139.3750000026 425.95102181975443
v 2684247.0000000028 1252139.2499999998 425.95102181975443
v 2684246.7499999972 1252137.250000003 425.95102181975443
v 2684246.7499999972 1252135.3750000023 425.95102181975443
v 2684247.0000000028 1252132.8750000012 425.95102181975443
l 1 2
l 2 3
l 3 4
l 4 5
l 5 6
l 6 7
l 7 8
l 8 9
l 9 10
l 1 10
l 1 11
l 11 12
l 2 12
l 12 13
l 3 13
l 13 14
l 4 14
l 14 15
l 15 16
l 6 16
l 16 17
l 7 17
l 17 18
l 18 19
l 19 20
l 10 20
l 11 20
