# Source coordinates; no display transform
v 2686125.93137 1251443.38587 427.488756284
v 2686114.78507 1251447.34101 427.623754533
v 2686112.64779 1251441.31778 427.521688749
v 2686123.7941 1251437.36264 427.3866905
v 2686125.93137 1251443.38587 425.149075804
v 2686114.78507 1251447.34101 425.149075804
v 2686112.64779 1251441.31778 425.149075804
v 2686123.7941 1251437.36264 425.149075804
g roof
f 1 2 3 4
g wall
f 2 1 5 6
g wall
f 3 2 6 7
g wall
f 4 3 7 8
g wall
f 1 4 8 5
g ground_assumed
f 8 7 6 5
