# XYZ-only planar convex-roof baseline. Provisional base; no GT.
v 11.91709954 -2.03845124 2.35441545
v 10.66266801 6.11535371 4.67554777
v 10.34906012 7.05617736 4.95064846
v 8.78102071 7.05617736 5.01822735
v 2.50886306 6.11535371 5.02695801
v -9.40823648 4.23370641 5.01738776
v -12.23070742 3.76329459 5.00823731
v -12.23070742 3.13607883 4.83384738
v -11.91709954 0.94082365 4.20996681
v -11.60349165 -1.09762759 3.62968373
v -10.97627589 -4.86092218 2.55631254
v -10.66266801 -6.58576553 2.06322443
v -10.34906012 -6.89937342 1.96251368
v -5.01772612 -6.11535371 1.95073288
v 5.01772612 -4.54731430 1.95420282
v 9.40823648 -3.76329459 1.98296935
v 11.91709954 -3.13607883 2.04923306
v 11.91709954 -2.03845124 -4.74140523
v 10.66266801 6.11535371 -4.74140523
v 10.34906012 7.05617736 -4.74140523
v 8.78102071 7.05617736 -4.74140523
v 2.50886306 6.11535371 -4.74140523
v -9.40823648 4.23370641 -4.74140523
v -12.23070742 3.76329459 -4.74140523
v -12.23070742 3.13607883 -4.74140523
v -11.91709954 0.94082365 -4.74140523
v -11.60349165 -1.09762759 -4.74140523
v -10.97627589 -4.86092218 -4.74140523
v -10.66266801 -6.58576553 -4.74140523
v -10.34906012 -6.89937342 -4.74140523
v -5.01772612 -6.11535371 -4.74140523
v 5.01772612 -4.54731430 -4.74140523
v 9.40823648 -3.76329459 -4.74140523
v 11.91709954 -3.13607883 -4.74140523
g roof
f 1 2 3 4 5 6 7 8 9 10 11 12 13 14 15 16 17
g wall
f 2 1 18 19
g wall
f 3 2 19 20
g wall
f 4 3 20 21
g wall
f 5 4 21 22
g wall
f 6 5 22 23
g wall
f 7 6 23 24
g wall
f 8 7 24 25
g wall
f 9 8 25 26
g wall
f 10 9 26 27
g wall
f 11 10 27 28
g wall
f 12 11 28 29
g wall
f 13 12 29 30
g wall
f 14 13 30 31
g wall
f 15 14 31 32
g wall
f 16 15 32 33
g wall
f 17 16 33 34
g wall
f 1 17 34 18
g ground_assumed
f 34 33 32 31 30 29 28 27 26 25 24 23 22 21 20 19 18
