# Source coordinates; no display transform
v 2682709.25 1251840 445.781877185
v 2682708.25 1251846.5 447.63222315
v 2682708 1251847.25 447.851526223
v 2682706.75 1251847.25 447.905398346
v 2682701.75 1251846.5 447.9123582
v 2682692.25 1251845 447.904729047
v 2682690 1251844.625 447.897434548
v 2682690 1251844.125 447.758415458
v 2682690.25 1251842.375 447.261074188
v 2682690.5 1251840.75 446.798487697
v 2682691 1251837.75 445.942824263
v 2682691.25 1251836.375 445.549747321
v 2682691.5 1251836.125 445.469463346
v 2682695.75 1251836.75 445.460072
v 2682703.75 1251838 445.462838146
v 2682707.25 1251838.625 445.485770071
v 2682709.25 1251839.125 445.538593767
v 2682709.25 1251840 440.125274565
v 2682708.25 1251846.5 440.125274565
v 2682708 1251847.25 440.125274565
v 2682706.75 1251847.25 440.125274565
v 2682701.75 1251846.5 440.125274565
v 2682692.25 1251845 440.125274565
v 2682690 1251844.625 440.125274565
v 2682690 1251844.125 440.125274565
v 2682690.25 1251842.375 440.125274565
v 2682690.5 1251840.75 440.125274565
v 2682691 1251837.75 440.125274565
v 2682691.25 1251836.375 440.125274565
v 2682691.5 1251836.125 440.125274565
v 2682695.75 1251836.75 440.125274565
v 2682703.75 1251838 440.125274565
v 2682707.25 1251838.625 440.125274565
v 2682709.25 1251839.125 440.125274565
g roof
f 1 2 3 4 5 6 7 8 9 10 11 12 13 14 15 16 17
g wall
f 2 1 18 19
g wall
f 3 2 19 20
g wall
f 4 3 20 21
g wall
f 5 4 21 22
g wall
f 6 5 22 23
g wall
f 7 6 23 24
g wall
f 8 7 24 25
g wall
f 9 8 25 26
g wall
f 10 9 26 27
g wall
f 11 10 27 28
g wall
f 12 11 28 29
g wall
f 13 12 29 30
g wall
f 14 13 30 31
g wall
f 15 14 31 32
g wall
f 16 15 32 33
g wall
f 17 16 33 34
g wall
f 1 17 34 18
g ground_assumed
f 34 33 32 31 30 29 28 27 26 25 24 23 22 21 20 19 18
