v 2682709.2500000033 1251839.9999999972 445.78187718477596
v 2682708.2500000033 1251846.5000000007 447.6322231497021
v 2682707.9999999972 1251847.2500000026 447.85152622316497
v 2682706.7499999995 1251847.2500000026 447.90539834641629
v 2682701.75 1251846.5000000007 447.91235820017511
v 2682692.2499999967 1251844.9999999967 447.90472904723185
v 2682689.9999999986 1251844.6249999998 447.89743454786668
v 2682689.9999999986 1251844.1250000037 447.75841545769293
v 2682690.2499999967 1251842.3750000019 447.26107418793913
v 2682690.5000000028 1251840.7499999991 446.79848769670764
v 2682690.9999999986 1251837.7499999993 445.94282426331728
v 2682691.2499999967 1251836.3750000023 445.54974732115846
v 2682691.5000000028 1251836.1249999965 445.46946334584112
v 2682695.7500000005 1251836.7499999993 445.4600720002656
v 2682703.7499999995 1251837.9999999972 445.46283814566033
v 2682707.2500000033 1251838.6250000002 445.48577007084697
v 2682709.2500000033 1251839.1249999963 445.53859376700723
v 2682709.2500000033 1251839.9999999972 440.12527456460413
v 2682708.2500000033 1251846.5000000007 440.12527456460413
v 2682707.9999999972 1251847.2500000026 440.12527456460413
v 2682706.7499999995 1251847.2500000026 440.12527456460413
v 2682701.75 1251846.5000000007 440.12527456460413
v 2682692.2499999967 1251844.9999999967 440.12527456460413
v 2682689.9999999986 1251844.6249999998 440.12527456460413
v 2682689.9999999986 1251844.1250000037 440.12527456460413
v 2682690.2499999967 1251842.3750000019 440.12527456460413
v 2682690.5000000028 1251840.7499999991 440.12527456460413
v 2682690.9999999986 1251837.7499999993 440.12527456460413
v 2682691.2499999967 1251836.3750000023 440.12527456460413
v 2682691.5000000028 1251836.1249999965 440.12527456460413
v 2682695.7500000005 1251836.7499999993 440.12527456460413
v 2682703.7499999995 1251837.9999999972 440.12527456460413
v 2682707.2500000033 1251838.6250000002 440.12527456460413
v 2682709.2500000033 1251839.1249999963 440.12527456460413
l 1 2
l 2 3
l 3 4
l 4 5
l 5 6
l 6 7
l 7 8
l 8 9
l 9 10
l 10 11
l 11 12
l 12 13
l 13 14
l 14 15
l 15 16
l 16 17
l 1 17
l 18 19
l 19 20
l 3 20
l 20 21
l 21 22
l 22 23
l 23 24
l 7 24
l 24 25
l 25 26
l 26 27
l 27 28
l 28 29
l 12 29
l 29 30
l 13 30
l 30 31
l 31 32
l 32 33
l 33 34
l 17 34
l 18 34
