# XYZ-only planar convex-roof baseline. Provisional base; no GT.
v -7.27084143 -8.30953307 2.86736665
v -6.23214980 -8.04986016 2.86705636
v -3.63542072 -7.27084143 2.86627331
v -2.07738327 -6.75149562 2.86580057
v 9.86757052 -2.59672908 2.86216640
v 11.94495379 -1.55803745 2.86151656
v 11.94495379 -1.03869163 2.86148731
v 10.90626215 2.07738327 2.86160744
v 8.82887889 7.79018725 2.86187696
v 7.79018725 8.56920598 2.86212874
v 7.27084143 8.56920598 2.86227657
v -1.03869163 5.71280398 2.86480278
v -8.30953307 3.11607490 2.86701869
v -10.90626215 2.07738327 2.86781636
v -11.94495379 1.55803745 2.86814128
v -11.94495379 0.51934582 2.86819979
v -8.82887889 -8.04986016 2.86779551
v -7.79018725 -8.30953307 2.86751448
v -7.27084143 -8.30953307 -2.94867438
v -6.23214980 -8.04986016 -2.94867438
v -3.63542072 -7.27084143 -2.94867438
v -2.07738327 -6.75149562 -2.94867438
v 9.86757052 -2.59672908 -2.94867438
v 11.94495379 -1.55803745 -2.94867438
v 11.94495379 -1.03869163 -2.94867438
v 10.90626215 2.07738327 -2.94867438
v 8.82887889 7.79018725 -2.94867438
v 7.79018725 8.56920598 -2.94867438
v 7.27084143 8.56920598 -2.94867438
v -1.03869163 5.71280398 -2.94867438
v -8.30953307 3.11607490 -2.94867438
v -10.90626215 2.07738327 -2.94867438
v -11.94495379 1.55803745 -2.94867438
v -11.94495379 0.51934582 -2.94867438
v -8.82887889 -8.04986016 -2.94867438
v -7.79018725 -8.30953307 -2.94867438
g roof
f 1 2 3 4 5 6 7 8 9 10 11 12 13 14 15 16 17 18
g wall
f 2 1 19 20
g wall
f 3 2 20 21
g wall
f 4 3 21 22
g wall
f 5 4 22 23
g wall
f 6 5 23 24
g wall
f 7 6 24 25
g wall
f 8 7 25 26
g wall
f 9 8 26 27
g wall
f 10 9 27 28
g wall
f 11 10 28 29
g wall
f 12 11 29 30
g wall
f 13 12 30 31
g wall
f 14 13 31 32
g wall
f 15 14 32 33
g wall
f 16 15 33 34
g wall
f 17 16 34 35
g wall
f 18 17 35 36
g wall
f 1 18 36 19
g ground_assumed
f 36 35 34 33 32 31 30 29 28 27 26 25 24 23 22 21 20 19
