# Source coordinates; no display transform
v 0.0780117851773 0.132159555521 0.380664891314
v -0.0762868966648 0.498238375883 0.0709620415228
v -0.280281879964 0.17258940756 0.0700017503088
v -0.186564323006 0.114165966212 0.175402086255
v -0.186562948302 0.114166041776 0.175403161855
v -0.186562400097 0.114164771558 0.175404246847
v -0.483302342388 -0.151503876791 0.0690460465637
v -0.483243552014 -0.151540704616 0.0691122555144
v -0.0849337286325 -0.129993192203 0.380923774069
v -0.0813431812854 -0.129798952225 0.383734585631
v -0.0813417161833 -0.129798875115 0.383735733645
v -0.076018104793 -0.129510880454 0.38790325098
v 0.00107851014496 -0.00483575263605 0.387458235056
v 0.00205587173213 -0.00325523082198 0.387452592212
v 0.00225074268268 -0.00294010613242 0.387451470719
v 0.00322669343877 -0.00136186439172 0.387445835346
v -0.000171164414934 0.000751794096906 0.3836267046
v 0.0794339898963 0.128784757269 0.383519777659
v 0.0816560882412 0.132358666116 0.383516794625
v 0.0821203793151 0.133105412158 0.383516169255
v 0.0816574369569 0.132360838714 0.383516791103
v 0.0816583036911 0.132358789439 0.383518527186
v 0.0824205855785 0.132400440281 0.384115060808
v 0.0779344947082 -0.49910385586 0.068989759697
v 0.484029244808 0.149168637195 0.0660003698349
v 0.481311320288 0.150871215856 0.069058380156
v 0.0875079177683 0.129228485898 0.377202072528
v 0.0860674421518 0.132599690422 0.38006429655
v 0.0860657970538 0.13259960013 0.380065583897
v 0.0824205865391 0.132400438093 0.382918481428
v 0.194019929751 -0.120045979004 0.165562776873
v 0.194021363902 -0.120046871139 0.165561166462
v 0.186410157622 -0.115312270735 0.174108016249
v 0.186413014825 -0.115314048068 0.174104807806
v 0.186410956425 -0.115314159438 0.174106419338
v 0.00322669343877 -0.00136186439172 0.379810143852
v 0.195203646437 -0.122816275357 0.163210734998
v 0.195205176696 -0.122817226033 0.163209017272
v 0.195204078737 -0.122817287134 0.163209876001
v 0.00225074172214 -0.00294010367768 0.379807134403
v 0.0020558741335 -0.00325522959461 0.379806533527
v 0.00107851014496 -0.00483575263605 0.379803519702
v -0.076018104793 -0.129510880454 0.379565784684
v -0.0813425993002 -0.129800296619 0.383733714094
v -0.0781708617346 -0.132992164915 0.379559146446
v -0.0799235692447 -0.133090492446 0.380929600165
v -0.0792283969281 -0.134702335159 0.37955588544
v -0.0778034994738 -0.138006135383 0.376740176953
v 0.19402033649 -0.12004692621 0.16556197108
v 0.0824205861122 0.132400440281 0.37721739876
v 0.0860657941188 0.132599600397 0.374366446392
v 0.0860667891394 0.13260121401 0.374363876233
v 0.476431718594 0.153927925275 0.0690572158655
v 0.20456690476 0.324231115368 0.0689039675805
v 0.201966560989 0.325860038326 0.0689025017847
v -0.0690525757823 0.495633474367 0.0687497301982
v -0.0730457994454 0.49813493349 0.068747479208
v -0.0734256757214 0.498372897864 0.0687472651126
v -0.0323381637414 0.401887440959 0.150072734278
v 0.0816574369569 0.132360838714 0.37781185872
v 0.0821203793151 0.133105412158 0.376623193879
v 0.0761469288161 -0.501957450535 0.0643834223451
v -0.0792270520013 -0.134700157704 0.379558508642
v -0.0781708618414 -0.132992166623 0.382304886185
v -0.0835131785103 -0.133291348089 0.37811090128
v -0.0813963755087 -0.138206025996 0.373920241897
v -0.0813949608888 -0.138205947284 0.37392135181
v -0.081395814709 -0.138207328018 0.373919131664
v -0.079229284154 -0.134700278039 0.379556761726
v -0.0734256757214 0.498372897864 0.0736402255698
v -0.0754200263436 0.499622210991 0.073636923954
v -0.0762868966648 0.498238375883 0.0758544313614
v 0.0780117851773 0.132159555521 0.386371403959
v -0.0323381637414 0.401887440959 0.155179381694
v -0.0813426012213 -0.129800297953 0.3754044941
v -0.0813431787773 -0.129798952919 0.375403356545
v -0.0849337274051 -0.129993194818 0.372595381268
v -0.0835131785103 -0.133291348089 0.37538831677
v -0.279196875615 0.174321462654 0.070006857861
v -0.279196875615 0.174321462654 -0.384110250028
v -0.280281879964 0.17258940756 -0.384110250028
v -0.280318707789 0.172530617186 0.0700015769299
v -0.280318707789 0.172530617186 -0.384110250028
v -0.281403712191 0.170798562091 0.0699964693777
v -0.281403712191 0.170798562091 -0.384110250028
v -0.319203224209 0.110457018877 0.0698185309617
v -0.319203224209 0.110457018877 -0.384110250028
v -0.321526210051 0.106748702514 0.0698075957133
v -0.321526210051 0.106748702514 -0.384110250028
v -0.483302342388 -0.151503876791 -0.384110250028
v -0.483243552014 -0.151540704616 -0.384110250028
v -0.0813431812854 -0.129798952225 -0.384110250028
v -0.0813417161833 -0.129798875115 -0.384110250028
v 0.00205587173213 -0.00325523082198 -0.384110250028
v 0.00225074268268 -0.00294010613242 -0.384110250028
v 0.0794339906433 0.128784755188 -0.384110250028
v -0.239700450779 0.237371885765 0.0701927843516
v -0.0762868966648 0.498238375883 -0.384110250028
v -0.239700450779 0.237371885765 -0.384110250028
v -0.24175147729 0.23409771374 0.0701831292999
v -0.24175147729 0.23409771374 -0.384110250028
v -0.18656432322 0.114165963704 -0.384110250028
v -0.186562946915 0.114166039748 -0.384110250028
v -0.186562400097 0.114164771558 -0.384110250028
v 0.0816574361565 0.132360838021 -0.384110250028
v 0.0816583057189 0.132358788319 -0.384110250028
v 0.0821203811828 0.133105412692 -0.384110250028
v -0.0792270520013 -0.134700157704 -0.384110250028
v -0.0792283982089 -0.134702336973 -0.384110250028
v 0.237033527564 -0.245124885099 0.0678185821608
v 0.0779344947082 -0.49910385586 -0.384110250028
v 0.237033527564 -0.245124885099 -0.384110250028
v 0.23958881199 -0.241045737084 0.0677997719157
v 0.23958881199 -0.241045737084 -0.384110250028
v 0.240696479608 -0.239277503281 0.0677916180399
v 0.240696479608 -0.239277503281 -0.384110250028
v 0.243234766556 -0.235225489298 0.0677729329328
v 0.243234766556 -0.235225489298 -0.384110250028
v 0.279224049413 -0.177773719466 0.0675080045972
v 0.279224049413 -0.177773719466 -0.384110250028
v 0.280113583002 -0.17635370565 0.0675014564903
v 0.280113583002 -0.17635370565 -0.384110250028
v 0.280467696696 -0.175788413521 0.067498849724
v 0.280467696696 -0.175788413521 -0.384110250028
v 0.281354397364 -0.174372922017 0.0674923224824
v 0.281354397364 -0.174372922017 -0.384110250028
v 0.317927259577 -0.115989550769 0.0672230982574
v 0.317927259577 -0.115989550769 -0.384110250028
v 0.319604342047 -0.113312327217 0.0672107527116
v 0.319604342047 -0.113312327217 -0.384110250028
v 0.321315419421 -0.110580835655 0.0671981569432
v 0.321315419421 -0.110580835655 -0.384110250028
v 0.322978337282 -0.107926223822 0.0671859156702
v 0.322978337282 -0.107926223822 -0.384110250028
v 0.484029244808 0.149168637195 -0.384110250028
v 0.481311320288 0.150871215856 -0.384110250028
v 0.0860674409244 0.132599691169 0.374365157443
v 0.0860674409244 0.132599691169 -0.384110250028
v 0.0860657970538 0.13259960013 -0.384110250028
v 0.0816560882412 0.132358666116 -0.384110250028
v -0.0813426012213 -0.129800297953 -0.384110250028
v 0.186410159117 -0.115312268653 -0.384110250028
v 0.1864130184 -0.115314047214 -0.384110250028
v 0.186410957599 -0.115314160452 -0.384110250028
v 0.194021366144 -0.120046872526 -0.384110250028
v 0.194020337183 -0.120046926904 -0.384110250028
v 0.194019929751 -0.120045979004 -0.384110250028
v 0.195203643822 -0.122816275891 -0.384110250028
v 0.19520517803 -0.122817224378 -0.384110250028
v 0.195204081138 -0.122817286601 -0.384110250028
v 0.0860667891394 0.13260121401 -0.384110250028
v 0.476431718594 0.153927925275 -0.384110250028
v 0.20456690476 0.324231115368 -0.384110250028
v 0.201966560989 0.325860038326 -0.384110250028
v -0.0690525757823 0.495633474367 -0.384110250028
v -0.0730457994454 0.49813493349 -0.384110250028
v -0.0734256757214 0.498372897864 -0.384110250028
v -0.476148005191 -0.155985539697 0.0690523286522
v -0.477124829992 -0.155373631229 0.0690605863739
v -0.477124829992 -0.155373631229 -0.384110250028
v -0.476148005191 -0.155985539697 -0.384110250028
v -0.470015716179 -0.159826965022 0.0690004884276
v -0.470015716179 -0.159826965022 -0.384110250028
v -0.203726943904 -0.32663717764 0.0667493772202
v -0.203726943904 -0.32663717764 -0.384110250028
v -0.199539259818 -0.329260451872 0.0667139759686
v -0.199539259818 -0.329260451872 -0.384110250028
v 0.0749530318192 -0.501209562454 0.0643935150864
v 0.0749530318192 -0.501209562454 -0.384110250028
v 0.0761469288161 -0.501957450535 -0.384110250028
v -0.0792292858616 -0.134700275904 -0.384110250028
v -0.0813949595547 -0.138205947497 -0.384110250028
v -0.0813958117206 -0.138207327965 -0.384110250028
v -0.0813963743347 -0.138206024715 -0.384110250028
v -0.0754200263436 0.499622210991 -0.384110250028
g roof
f 1 2 97 100 79 3
g roof
f 1 3 4 5
g roof
f 1 5 4
g roof
f 1 5 6
g roof
f 4 3 82 84 86 88 7
g roof
f 4 7 8
g roof
f 4 8 9
g roof
f 4 9 10
g roof
f 4 10 11
g roof
f 4 11 12
g roof
f 4 12 13 6
g roof
f 4 6 13 14
g roof
f 14 15 16 17
g roof
f 18 19 1
g roof
f 18 1 6
g roof
f 6 4 14
g roof
f 6 14 17
g roof
f 6 17 18
g roof
f 20 21 22
g roof
f 20 22 23
g roof
f 24 110 113 115 117 119 121 123 125 127 129 131 133 25 26
g roof
f 27 28 29
g roof
f 27 29 30
g roof
f 27 30 22
g roof
f 18 31 32
g roof
f 18 33 34
g roof
f 35 33 18
g roof
f 18 17 36
g roof
f 36 37 38
g roof
f 39 37 36
g roof
f 39 36 40
g roof
f 39 40 41
g roof
f 39 41 42
g roof
f 39 42 43
g roof
f 39 43 11
g roof
f 39 11 44
g roof
f 39 44 45
g roof
f 45 44 46
g roof
f 45 47 48
g roof
f 45 48 24
g roof
f 27 22 19
g roof
f 27 19 18
g roof
f 27 18 32
g roof
f 49 31 18
g roof
f 49 31 18 34
g roof
f 49 34 35
g roof
f 35 33 18 36
g roof
f 26 27 32
g roof
f 35 36 37 38
g roof
f 49 35 38
g roof
f 32 49 38
g roof
f 26 32 38
g roof
f 24 26 38
g roof
f 24 38 39
g roof
f 24 39 45
g roof
f 50 51 52
g roof
f 52 137 27 26
g roof
f 52 26 53
g roof
f 52 53 54
g roof
f 52 54 55
g roof
f 52 55 56
g roof
f 52 56 57
g roof
f 52 57 58
g roof
f 52 58 59
g roof
f 59 60 61
g roof
f 59 61 50
g roof
f 59 61 50 52
g roof
f 8 159 158 162 164 166 168 62 24
g roof
f 24 48 47
g roof
f 63 64 46
g roof
f 46 44 65
g roof
f 65 9 8
g roof
f 65 8 66
g roof
f 65 66 67
g roof
f 68 66 8
g roof
f 68 8 24
g roof
f 69 63 46
g roof
f 69 46 65
g roof
f 69 65 67
g roof
f 69 67 68
g roof
f 68 24 48 47 67
g roof
f 68 67 47 69
g roof
f 70 71 72
g roof
f 70 72 73
g roof
f 70 73 19
g roof
f 70 19 21
g roof
f 70 21 74
g roof
f 75 76 77
g roof
f 77 78 75
g facade_completed
f 3 79 80 81
g facade_completed
f 82 3 81 83
g facade_completed
f 84 82 83 85
g facade_completed
f 86 84 85 87
g facade_completed
f 88 86 87 89
g facade_completed
f 7 88 89 90
g facade_completed
f 8 7 90 91
g roof_step_or_fixture_side
f 10 9 77 76
g facade_completed
f 11 10 76 92 93
g roof_step_or_fixture_side
f 12 11 43
g roof_step_or_fixture_side
f 13 12 43 42
g roof_step_or_fixture_side
f 14 13 42 41
g roof_step_or_fixture_side
f 15 14 41 40
g roof_step_or_fixture_side
f 16 15 40 36
g roof_step_or_fixture_side
f 17 16 36
g roof_step_or_fixture_side
f 19 73 1
g roof_step_or_fixture_side
f 73 72 2 1
g facade_completed
f 97 2 98 99
g facade_completed
f 100 97 99 101
g facade_completed
f 79 100 101 80
g facade_completed
f 5 4 102 103
g facade_completed
f 6 5 103 104
g facade_completed
f 4 6 104 102
g roof_step_or_fixture_side
f 21 20 61 60
g facade_completed
f 22 21 60 105 106
g roof_step_or_fixture_side
f 23 22 30
g roof_step_or_fixture_side
f 20 23 30 50 61
g roof_step_or_fixture_side
f 46 64 45
g roof_step_or_fixture_side
f 64 63 45
g facade_completed
f 47 63 108 109
g facade_completed
f 110 24 111 112
g facade_completed
f 113 110 112 114
g facade_completed
f 115 113 114 116
g facade_completed
f 117 115 116 118
g facade_completed
f 119 117 118 120
g facade_completed
f 121 119 120 122
g facade_completed
f 123 121 122 124
g facade_completed
f 125 123 124 126
g facade_completed
f 127 125 126 128
g facade_completed
f 129 127 128 130
g facade_completed
f 131 129 130 132
g facade_completed
f 133 131 132 134
g facade_completed
f 25 133 134 135
g facade_completed
f 26 25 135 136
g roof_step_or_fixture_side
f 28 27 137
g facade_completed
f 29 28 137 138 139 51
g roof_step_or_fixture_side
f 30 29 51 50
g facade_completed
f 19 22 106 140
g facade_completed
f 44 11 93 141 75
g facade_completed
f 34 33 142 143
g facade_completed
f 35 34 143 144
g facade_completed
f 33 35 144 142
g facade_completed
f 49 32 145 146
g facade_completed
f 31 49 146 147
g facade_completed
f 32 31 147 145
g facade_completed
f 38 37 148 149
g facade_completed
f 39 38 149 150
g facade_completed
f 37 39 150 148
g facade_completed
f 52 51 139 151
g facade_completed
f 137 52 151 138
g facade_completed
f 53 26 136 152
g facade_completed
f 54 53 152 153
g facade_completed
f 55 54 153 154
g facade_completed
f 56 55 154 155
g facade_completed
f 57 56 155 156
g facade_completed
f 58 57 156 157
g roof_step_or_fixture_side
f 70 74 59 58
g roof_step_or_fixture_side
f 74 21 60 59
g facade_completed
f 158 159 160 161
g facade_completed
f 162 158 161 163
g facade_completed
f 164 162 163 165
g facade_completed
f 166 164 165 167
g facade_completed
f 168 166 167 169
g facade_completed
f 62 168 169 170
g facade_completed
f 24 62 170 111
g facade_completed
f 69 47 109 171
g facade_completed
f 63 69 171 108
g roof_step_or_fixture_side
f 65 44 75 78
g roof_step_or_fixture_side
f 9 65 78 77
g facade_completed
f 159 8 91 160
g facade_completed
f 68 67 172 173
g facade_completed
f 66 68 173 174
g facade_completed
f 67 66 174 172
g facade_completed
f 21 19 140 105 60
g facade_completed
f 71 70 58 157 175
g facade_completed
f 72 71 175 98 2
g facade_completed
f 76 75 141 92
g ground_assumed
f 134 136 135
g ground_assumed
f 134 152 136
g ground_assumed
f 134 153 152
g ground_assumed
f 134 154 153
g ground_assumed
f 134 155 154
g ground_assumed
f 134 156 155
g ground_assumed
f 134 157 156
g ground_assumed
f 134 175 157
g ground_assumed
f 134 98 175
g ground_assumed
f 134 99 98
g ground_assumed
f 134 101 99
g ground_assumed
f 134 80 101
g ground_assumed
f 134 81 80
g ground_assumed
f 134 83 81
g ground_assumed
f 134 85 83
g ground_assumed
f 134 87 85
g ground_assumed
f 134 89 87
g ground_assumed
f 134 90 89
g ground_assumed
f 134 143 144 93 92 91 90
g ground_assumed
f 134 160 91 92 93 144 143
g ground_assumed
f 134 161 160
g ground_assumed
f 134 163 161
g ground_assumed
f 134 165 163
g ground_assumed
f 134 167 165
g ground_assumed
f 134 169 167
g ground_assumed
f 169 111 170
g ground_assumed
f 169 112 111
g ground_assumed
f 169 114 112
g ground_assumed
f 169 116 114
g ground_assumed
f 169 118 116
g ground_assumed
f 169 120 118
g ground_assumed
f 169 122 120
g ground_assumed
f 169 124 122
g ground_assumed
f 169 126 124
g ground_assumed
f 169 128 126
g ground_assumed
f 169 130 128
g ground_assumed
f 169 132 130
g ground_assumed
f 169 134 132
