# pointcloud_to_mesh 0.5.1; candidate requires geometry validation; coordinates preserved
v 1.485186396 2.442545191 7.163957878
v -1.406264315 9.302609404 1.360340410
v -5.228989386 3.200172690 1.342345216
v -3.472787107 2.105357757 3.317474703
v -3.472761346 2.105359173 3.317494859
v -3.472751073 2.105335370 3.317515191
v -9.033452609 -2.873111581 1.324435988
v -9.032350918 -2.873801709 1.325676698
v -1.568299973 -2.470016211 7.168809162
v -1.501015596 -2.466376288 7.221481829
v -1.500988141 -2.466374843 7.221503342
v -1.401227341 -2.460978022 7.299599738
v 0.043509966 -0.124652250 7.291260447
v 0.061825047 -0.095034363 7.291154704
v 0.065476794 -0.089129144 7.291133688
v 0.083765437 -0.059553984 7.291028085
v 0.020091928 -0.019945484 7.219460213
v 1.511837530 2.379303803 7.217456476
v 1.553478118 2.446276386 7.217400576
v 1.562178612 2.460269891 7.217388857
v 1.553503392 2.446317099 7.217400510
v 1.553519634 2.446278697 7.217433043
v 1.567804270 2.447059205 7.228611671
v 1.483738026 -9.386895073 1.323381211
v 9.093673120 2.761283632 1.267362110
v 9.042741092 2.793188780 1.324667111
v 1.663137361 2.387618971 7.099067046
v 1.636143843 2.450793015 7.152703147
v 1.636113015 2.450791323 7.152727271
v 1.567804288 2.447059164 7.206188600
v 3.659098889 -2.283612307 3.133092842
v 3.659125764 -2.283629025 3.133062664
v 3.516497016 -2.194905884 3.293224725
v 3.516550558 -2.194939190 3.293164601
v 3.516511985 -2.194941277 3.293194800
v 0.083765437 -0.059553984 7.147940501
v 3.681280922 -2.335525747 3.089017202
v 3.681309598 -2.335543562 3.088985013
v 3.681289023 -2.335544707 3.089001105
v 0.065476776 -0.089129098 7.147884106
v 0.061825092 -0.095034340 7.147872846
v 0.043509966 -0.124652250 7.147816369
v -1.401227341 -2.460978022 7.143361379
v -1.501004690 -2.466401481 7.221465497
v -1.441568519 -2.526214888 7.143236983
v -1.474413047 -2.528057478 7.168918339
v -1.461385998 -2.558262297 7.143175874
v -1.434684404 -2.620173231 7.090411442
v 3.659106511 -2.283630057 3.133077742
v 1.567804280 2.447059205 7.099354249
v 1.636112960 2.450791328 7.045929371
v 1.636131606 2.450821566 7.045881208
v 8.951300727 2.850469403 1.324645293
v 3.856741915 6.041833543 1.321773526
v 3.808013269 6.072358434 1.321746058
v -1.270698139 9.253795349 1.318883224
v -1.345528392 9.300670965 1.318841042
v -1.352647011 9.305130253 1.318837030
v -0.582695419 7.497059441 2.842820144
v 1.553503392 2.446317099 7.110494018
v 1.562178612 2.460269891 7.088219260
v 1.450240276 -9.440369466 1.237061631
v -1.461360795 -2.558221493 7.143225031
v -1.441568521 -2.526214920 7.194690249
v -1.541679845 -2.531821374 7.116097869
v -1.502012419 -2.623919043 7.037567807
v -1.501985910 -2.623917568 7.037588606
v -1.502001910 -2.623943442 7.037547002
v -1.461402624 -2.558223748 7.143192295
v -1.352647011 9.305130253 1.410527729
v -1.390019764 9.328541518 1.410465859
v -1.406264315 9.302609404 1.452020416
v 1.485186396 2.442545191 7.270893983
v -0.582695419 7.497059441 2.938515189
v -1.501004726 -2.466401506 7.065381668
v -1.501015549 -2.466376301 7.065360351
v -1.568299950 -2.470016260 7.012740834
v -1.541679845 -2.531821374 7.065078516
v -5.208657154 3.232630206 1.342440928
v -5.208657154 3.232630206 -7.167399978
v -5.228989386 3.200172690 -7.167399978
v -5.229679514 3.199070999 1.342341967
v -5.229679514 3.199070999 -7.167399978
v -5.250011747 3.166613483 1.342246255
v -5.250011747 3.166613483 -7.167399978
v -5.958348491 2.035854646 1.338911812
v -5.958348491 2.035854646 -7.167399978
v -6.001879641 1.966363359 1.338706893
v -6.001879641 1.966363359 -7.167399978
v -9.033452609 -2.873111581 -7.167399978
v -9.032350918 -2.873801709 -7.167399978
v -1.501015596 -2.466376288 -7.167399978
v -1.500988141 -2.466374843 -7.167399978
v 0.061825047 -0.095034363 -7.167399978
v 0.065476794 -0.089129144 -7.167399978
v 1.511837544 2.379303764 -7.167399978
v -4.468521436 4.414151581 1.345925062
v -1.406264315 9.302609404 -7.167399978
v -4.468521436 4.414151581 -7.167399978
v -4.506956256 4.352795859 1.345744133
v -4.506956256 4.352795859 -7.167399978
v -3.472787111 2.105357710 -7.167399978
v -3.472761320 2.105359135 -7.167399978
v -3.472751073 2.105335370 -7.167399978
v 1.553503377 2.446317086 -7.167399978
v 1.553519672 2.446278676 -7.167399978
v 1.562178647 2.460269901 -7.167399978
v -1.461360795 -2.558221493 -7.167399978
v -1.461386022 -2.558262331 -7.167399978
v 4.465143999 -4.627504605 1.301434153
v 1.483738026 -9.386895073 -7.167399978
v 4.465143999 -4.627504605 -7.167399978
v 4.513028264 -4.551064189 1.301081662
v 4.513028264 -4.551064189 -7.167399978
v 4.533785190 -4.517928709 1.300928864
v 4.533785190 -4.517928709 -7.167399978
v 4.581350934 -4.441996766 1.300578718
v 4.581350934 -4.441996766 -7.167399978
v 5.255765234 -3.365390286 1.295614144
v 5.255765234 -3.365390286 -7.167399978
v 5.272434479 -3.338780208 1.295491437
v 5.272434479 -3.338780208 -7.167399978
v 5.279070325 -3.328187024 1.295442588
v 5.279070325 -3.328187024 -7.167399978
v 5.295686483 -3.301661691 1.295320272
v 5.295686483 -3.301661691 -7.167399978
v 5.981036657 -2.207597644 1.290275196
v 5.981036657 -2.207597644 -7.167399978
v 6.012464024 -2.157428324 1.290043849
v 6.012464024 -2.157428324 -7.167399978
v 6.044528432 -2.106242059 1.289807813
v 6.044528432 -2.106242059 -7.167399978
v 6.075690364 -2.056496467 1.289578420
v 6.075690364 -2.056496467 -7.167399978
v 9.093673120 2.761283632 -7.167399978
v 9.042741092 2.793188780 -7.167399978
v 1.636143820 2.450793029 7.045905217
v 1.636143820 2.450793029 -7.167399978
v 1.636113015 2.450791323 -7.167399978
v 1.553478118 2.446276386 -7.167399978
v -1.501004726 -2.466401506 -7.167399978
v 3.516497044 -2.194905845 -7.167399978
v 3.516550625 -2.194939174 -7.167399978
v 3.516512007 -2.194941296 -7.167399978
v 3.659125806 -2.283629051 -7.167399978
v 3.659106524 -2.283630070 -7.167399978
v 3.659098889 -2.283612307 -7.167399978
v 3.681280873 -2.335525757 -7.167399978
v 3.681309623 -2.335543531 -7.167399978
v 3.681289068 -2.335544697 -7.167399978
v 1.636131606 2.450821566 -7.167399978
v 8.951300727 2.850469403 -7.167399978
v 3.856741915 6.041833543 -7.167399978
v 3.808013269 6.072358434 -7.167399978
v -1.270698139 9.253795349 -7.167399978
v -1.345528392 9.300670965 -7.167399978
v -1.352647011 9.305130253 -7.167399978
v -8.899385272 -2.957094848 1.324553710
v -8.917690294 -2.945628106 1.324708454
v -8.917690294 -2.945628106 -7.167399978
v -8.899385272 -2.957094848 -7.167399978
v -8.784470412 -3.029080505 1.323582260
v -8.784470412 -3.029080505 -7.167399978
v -3.794402767 -6.154988660 1.281397991
v -3.794402767 -6.154988660 -7.167399978
v -3.715928460 -6.204147007 1.280734596
v -3.715928460 -6.204147007 -7.167399978
v 1.427867471 -9.426354560 1.237250762
v 1.427867471 -9.426354560 -7.167399978
v 1.450240276 -9.440369466 -7.167399978
v -1.461402656 -2.558223708 -7.167399978
v -1.501985885 -2.623917572 -7.167399978
v -1.502001854 -2.623943441 -7.167399978
v -1.502012397 -2.623919019 -7.167399978
v -1.390019764 9.328541518 -7.167399978
g roof
f 1 2 97 100 79 3
g roof
f 1 3 4 5
g roof
f 1 5 4
g roof
f 1 5 6
g roof
f 4 3 82 84 86 88 7
g roof
f 4 7 8
g roof
f 4 8 9
g roof
f 4 9 10
g roof
f 4 10 11
g roof
f 4 11 12
g roof
f 4 12 13 6
g roof
f 4 6 13 14
g roof
f 14 15 16 17
g roof
f 18 19 1
g roof
f 18 1 6
g roof
f 6 4 14
g roof
f 6 14 17
g roof
f 6 17 18
g roof
f 20 21 22
g roof
f 20 22 23
g roof
f 24 110 113 115 117 119 121 123 125 127 129 131 133 25 26
g roof
f 27 28 29
g roof
f 27 29 30
g roof
f 27 30 22
g roof
f 18 31 32
g roof
f 18 33 34
g roof
f 35 33 18
g roof
f 18 17 36
g roof
f 36 37 38
g roof
f 39 37 36
g roof
f 39 36 40
g roof
f 39 40 41
g roof
f 39 41 42
g roof
f 39 42 43
g roof
f 39 43 11
g roof
f 39 11 44
g roof
f 39 44 45
g roof
f 45 44 46
g roof
f 45 47 48
g roof
f 45 48 24
g roof
f 27 22 19
g roof
f 27 19 18
g roof
f 27 18 32
g roof
f 49 31 18
g roof
f 49 31 18 34
g roof
f 49 34 35
g roof
f 35 33 18 36
g roof
f 26 27 32
g roof
f 35 36 37 38
g roof
f 49 35 38
g roof
f 32 49 38
g roof
f 26 32 38
g roof
f 24 26 38
g roof
f 24 38 39
g roof
f 24 39 45
g roof
f 50 51 52
g roof
f 52 137 27 26
g roof
f 52 26 53
g roof
f 52 53 54
g roof
f 52 54 55
g roof
f 52 55 56
g roof
f 52 56 57
g roof
f 52 57 58
g roof
f 52 58 59
g roof
f 59 60 61
g roof
f 59 61 50
g roof
f 59 61 50 52
g roof
f 8 159 158 162 164 166 168 62 24
g roof
f 24 48 47
g roof
f 63 64 46
g roof
f 46 44 65
g roof
f 65 9 8
g roof
f 65 8 66
g roof
f 65 66 67
g roof
f 68 66 8
g roof
f 68 8 24
g roof
f 69 63 46
g roof
f 69 46 65
g roof
f 69 65 67
g roof
f 69 67 68
g roof
f 68 24 48 47 67
g roof
f 68 67 47 69
g roof
f 70 71 72
g roof
f 70 72 73
g roof
f 70 73 19
g roof
f 70 19 21
g roof
f 70 21 74
g roof
f 75 76 77
g roof
f 77 78 75
g facade_completed
f 3 79 80 81
g facade_completed
f 82 3 81 83
g facade_completed
f 84 82 83 85
g facade_completed
f 86 84 85 87
g facade_completed
f 88 86 87 89
g facade_completed
f 7 88 89 90
g facade_completed
f 8 7 90 91
g roof_step_or_fixture_side
f 10 9 77 76
g facade_completed
f 11 10 76 92 93
g roof_step_or_fixture_side
f 12 11 43
g roof_step_or_fixture_side
f 13 12 43 42
g roof_step_or_fixture_side
f 14 13 42 41
g roof_step_or_fixture_side
f 15 14 41 40
g roof_step_or_fixture_side
f 16 15 40 36
g roof_step_or_fixture_side
f 17 16 36
g roof_step_or_fixture_side
f 19 73 1
g roof_step_or_fixture_side
f 73 72 2 1
g facade_completed
f 97 2 98 99
g facade_completed
f 100 97 99 101
g facade_completed
f 79 100 101 80
g facade_completed
f 5 4 102 103
g facade_completed
f 6 5 103 104
g facade_completed
f 4 6 104 102
g roof_step_or_fixture_side
f 21 20 61 60
g facade_completed
f 22 21 60 105 106
g roof_step_or_fixture_side
f 23 22 30
g roof_step_or_fixture_side
f 20 23 30 50 61
g roof_step_or_fixture_side
f 46 64 45
g roof_step_or_fixture_side
f 64 63 45
g facade_completed
f 47 63 108 109
g facade_completed
f 110 24 111 112
g facade_completed
f 113 110 112 114
g facade_completed
f 115 113 114 116
g facade_completed
f 117 115 116 118
g facade_completed
f 119 117 118 120
g facade_completed
f 121 119 120 122
g facade_completed
f 123 121 122 124
g facade_completed
f 125 123 124 126
g facade_completed
f 127 125 126 128
g facade_completed
f 129 127 128 130
g facade_completed
f 131 129 130 132
g facade_completed
f 133 131 132 134
g facade_completed
f 25 133 134 135
g facade_completed
f 26 25 135 136
g roof_step_or_fixture_side
f 28 27 137
g facade_completed
f 29 28 137 138 139 51
g roof_step_or_fixture_side
f 30 29 51 50
g facade_completed
f 19 22 106 140
g facade_completed
f 44 11 93 141 75
g facade_completed
f 34 33 142 143
g facade_completed
f 35 34 143 144
g facade_completed
f 33 35 144 142
g facade_completed
f 49 32 145 146
g facade_completed
f 31 49 146 147
g facade_completed
f 32 31 147 145
g facade_completed
f 38 37 148 149
g facade_completed
f 39 38 149 150
g facade_completed
f 37 39 150 148
g facade_completed
f 52 51 139 151
g facade_completed
f 137 52 151 138
g facade_completed
f 53 26 136 152
g facade_completed
f 54 53 152 153
g facade_completed
f 55 54 153 154
g facade_completed
f 56 55 154 155
g facade_completed
f 57 56 155 156
g facade_completed
f 58 57 156 157
g roof_step_or_fixture_side
f 70 74 59 58
g roof_step_or_fixture_side
f 74 21 60 59
g facade_completed
f 158 159 160 161
g facade_completed
f 162 158 161 163
g facade_completed
f 164 162 163 165
g facade_completed
f 166 164 165 167
g facade_completed
f 168 166 167 169
g facade_completed
f 62 168 169 170
g facade_completed
f 24 62 170 111
g facade_completed
f 69 47 109 171
g facade_completed
f 63 69 171 108
g roof_step_or_fixture_side
f 65 44 75 78
g roof_step_or_fixture_side
f 9 65 78 77
g facade_completed
f 159 8 91 160
g facade_completed
f 68 67 172 173
g facade_completed
f 66 68 173 174
g facade_completed
f 67 66 174 172
g facade_completed
f 21 19 140 105 60
g facade_completed
f 71 70 58 157 175
g facade_completed
f 72 71 175 98 2
g facade_completed
f 76 75 141 92
g ground_assumed
f 134 136 135
g ground_assumed
f 134 152 136
g ground_assumed
f 134 153 152
g ground_assumed
f 134 154 153
g ground_assumed
f 134 155 154
g ground_assumed
f 134 156 155
g ground_assumed
f 134 157 156
g ground_assumed
f 134 175 157
g ground_assumed
f 134 98 175
g ground_assumed
f 134 99 98
g ground_assumed
f 134 101 99
g ground_assumed
f 134 80 101
g ground_assumed
f 134 81 80
g ground_assumed
f 134 83 81
g ground_assumed
f 134 85 83
g ground_assumed
f 134 87 85
g ground_assumed
f 134 89 87
g ground_assumed
f 134 90 89
g ground_assumed
f 134 143 144 93 92 91 90
g ground_assumed
f 134 160 91 92 93 144 143
g ground_assumed
f 134 161 160
g ground_assumed
f 134 163 161
g ground_assumed
f 134 165 163
g ground_assumed
f 134 167 165
g ground_assumed
f 134 169 167
g ground_assumed
f 169 111 170
g ground_assumed
f 169 112 111
g ground_assumed
f 169 114 112
g ground_assumed
f 169 116 114
g ground_assumed
f 169 118 116
g ground_assumed
f 169 120 118
g ground_assumed
f 169 122 120
g ground_assumed
f 169 124 122
g ground_assumed
f 169 126 124
g ground_assumed
f 169 128 126
g ground_assumed
f 169 130 128
g ground_assumed
f 169 132 130
g ground_assumed
f 169 134 132
