v 0.078011785177300438 0.1321595555211148 0.38066489131426795
v -0.076286896664793144 0.49823837588320918 0.070962041522840677
v -0.28028187996368831 0.17258940755984878 0.070001750308769636
v -0.18656432300624562 0.11416596621247178 0.17540208625506357
v -0.18656294830242381 0.11416604177555596 0.17540316185501048
v -0.18656240009651717 0.11416477155797629 0.17540424684697914
v -0.48330234238844888 -0.15150387679135738 0.069046046563692204
v -0.48324355201431235 -0.15154070461633024 0.069112255514382603
v -0.084933728632462901 -0.12999319220281036 0.38092377406941708
v -0.08134318128535771 -0.12979895222535889 0.38373458563064783
v -0.08134171618332646 -0.12979887511472568 0.38373573364521707
v -0.076018104793046479 -0.12951088045402825 0.38790325097953493
v 0.0010785101449613862 -0.0048357526360491235 0.38745823505590099
v 0.0020558717321329037 -0.0032552308219776132 0.38745259221182554
v 0.0022507426826828265 -0.0029401061324152026 0.38745147071904501
v 0.0032266934387670211 -0.001361864391717928 0.38744583534589594
v -0.00017116441493397619 0.00075179409690590373 0.38362670459957776
v 0.079433989896250945 0.12878475726875602 0.38351977765917306
v 0.08165608824123971 0.13235866611567057 0.38351679462498817
v 0.082120379315082967 0.13310541215828386 0.38351616925508453
v 0.081657436956910384 0.13236083871443211 0.38351679110297998
v 0.081658303691100567 0.13235878943931995 0.38351852718618462
v 0.082420585578531338 0.1324004402809231 0.38411506080809327
v 0.07793449470820496 -0.49910385585957717 0.068989759696993003
v 0.48402924480753956 0.14916863719475498 0.066000369834874381
v 0.48131132028818069 0.15087121585592617 0.06905838015599855
v 0.087507917768311252 0.12922848589840708 0.37720207252813209
v 0.086067442151751175 0.1325996904217113 0.3800642965501308
v 0.086065797053757373 0.13259960013022934 0.38006558389747741
v 0.082420586539079022 0.13240043809300897 0.38291848142841045
v 0.19401992975118851 -0.12004597900356723 0.16556277687321602
v 0.19402136390223895 -0.1200468711389072 0.16556116646166624
v 0.18641015762247606 -0.11531227073465006 0.17410801624865987
v 0.18641301482491487 -0.11531404806804117 0.17410480780595264
v 0.18641095642459973 -0.11531415943820832 0.17410641933814139
v 0.0032266934387670211 -0.001361864391717928 0.37981014385194201
v 0.19520364643688434 -0.1228162753573717 0.16321073499767091
v 0.1952051766960666 -0.12281722603275638 0.16320901727159973
v 0.19520407873670426 -0.12281728713426161 0.16320987600122591
v 0.0022507417221351461 -0.0029401036776822423 0.37980713440269587
v 0.0020558741335021044 -0.0032552295946111321 0.37980653352675808
v 0.0010785101449613862 -0.0048357526360491235 0.37980351970168358
v -0.076018104793046479 -0.12951088045402825 0.37956578468444652
v -0.081342599300190971 -0.12980029661856499 0.3837337140937192
v -0.078170861734631877 -0.13299216491549778 0.37955914644615552
v -0.079923569244687617 -0.13309049244606705 0.3809296001646445
v -0.079228396928125042 -0.13470233515853272 0.37955588544014462
v -0.077803499473844087 -0.13800613538292217 0.37674017695347595
v 0.19402033648976735 -0.12004692621030753 0.16556197108043977
v 0.082420586112168931 0.1324004402809231 0.37721739876010019
v 0.086065794118750566 0.13259960039704816 0.37436644639158351
v 0.086066789139419841 0.13260121401042355 0.37436387623280981
v 0.47643171859447575 0.15392792527530869 0.06905721586548251
v 0.20456690475963873 0.3242311153683618 0.06890396758047046
v 0.20196656098855309 0.32586003832622357 0.068902501784710316
v -0.069052575782339309 0.49563347436674432 0.068749730198166492
v -0.073045799445424733 0.49813493348960602 0.068747479208041473
v -0.073425675721391484 0.49837289786428363 0.068747265112636291
v -0.032338163741381307 0.40188744095940765 0.1500727342777266
v 0.081657436956910384 0.13236083871443211 0.37781185871965833
v 0.082120379315082967 0.13310541215828386 0.37662319387931492
v 0.076146928816103535 -0.501957450534671 0.064383422345125507
v -0.079227052001281342 -0.134700157703669 0.3795585086424958
v -0.078170861841359393 -0.13299216662313809 0.38230488618505798
v -0.083513178510255484 -0.13329134808893911 0.37811090127959202
v -0.081396375508708901 -0.13820602599555806 0.37392024189692274
v -0.08139496088879461 -0.13820594728401206 0.37392135180976732
v -0.081395814708954878 -0.13820732801793872 0.37391913166389562
v -0.079229284153999088 -0.13470027803894785 0.37955676172644787
v -0.073425675721391484 0.49837289786428363 0.073640225569841247
v -0.075420026343649124 0.49962221099143245 0.073636923954009018
v -0.076286896664793144 0.49823837588320918 0.075854431361359775
v 0.078011785177300438 0.1321595555211148 0.38637140395861497
v -0.032338163741381307 0.40188744095940765 0.15517938169389964
v -0.081342601221286323 -0.12980029795265899 0.37540449410046622
v -0.08134317877726098 -0.12979895291908777 0.37540335654519397
v -0.084933727405096429 -0.12999319481763461 0.37259538126780817
v -0.083513178510255484 -0.13329134808893911 0.37538831676988965
v -0.27919687561463524 0.1743214626544129 0.070006857860968358
v -0.27919687561463524 0.1743214626544129 -0.38411025002762161
v -0.28028187996368831 0.17258940755984878 -0.38411025002762161
v -0.28031870778866114 0.17253061718571214 0.070001576929913351
v -0.28031870778866114 0.17253061718571214 -0.38411025002762161
v -0.28140371219107801 0.17079856209114799 0.069996469377714615
v -0.28140371219107801 0.17079856209114799 -0.38411025002762161
v -0.31920322420894703 0.11045701887664956 0.069818530961673064
v -0.31920322420894703 0.11045701887664956 -0.38411025002762161
v -0.32152621005080062 0.10674870251392578 0.06980759571333417
v -0.32152621005080062 0.10674870251392578 -0.38411025002762161
v -0.48330234238844888 -0.15150387679135738 -0.38411025002762161
v -0.48324355201431235 -0.15154070461633024 -0.38411025002762161
v -0.08134318128535771 -0.12979895222535889 -0.38411025002762161
v -0.08134171618332646 -0.12979887511472568 -0.38411025002762161
v 0.0020558717321329037 -0.0032552308219776132 -0.38411025002762161
v 0.0022507426826828265 -0.0029401061324152026 -0.38411025002762161
v 0.079433990643343583 0.12878475518756938 -0.38411025002762161
v -0.23970045077945099 0.23737188576458498 0.070192784351610596
v -0.076286896664793144 0.49823837588320918 -0.38411025002762161
v -0.23970045077945099 0.23737188576458498 -0.38411025002762161
v -0.24175147729021834 0.23409771374012198 0.070183129299874525
v -0.24175147729021834 0.23409771374012198 -0.38411025002762161
v -0.18656432321970068 0.11416596370437504 -0.38411025002762161
v -0.18656294691496608 0.11416603974773308 -0.38411025002762161
v -0.18656240009651717 0.11416477155797629 -0.38411025002762161
v 0.081657436156453975 0.13236083802070325 -0.38411025002762161
v 0.081658305718923449 0.13235878831868098 -0.38411025002762161
v 0.082120381182814575 0.1331054126919215 -0.38411025002762161
v -0.079227052001281342 -0.134700157703669 -0.38411025002762161
v -0.079228398208855286 -0.13470233697290057 -0.38411025002762161
v 0.2370335275639113 -0.24512488509917096 0.067818582160807092
v 0.07793449470820496 -0.49910385585957717 -0.38411025002762161
v 0.2370335275639113 -0.24512488509917096 -0.38411025002762161
v 0.23958881198995022 -0.24104573708416566 0.067799771915675031
v 0.23958881198995022 -0.24104573708416566 -0.38411025002762161
v 0.24069647960769985 -0.23927750328140554 0.067791618039871993
v 0.24069647960769985 -0.23927750328140554 -0.38411025002762161
v 0.24323476655553447 -0.23522548929754722 0.067772932932757157
v 0.24323476655553447 -0.23522548929754722 -0.38411025002762161
v 0.27922404941260554 -0.17777371946633869 0.067508004597235716
v 0.27922404941260554 -0.17777371946633869 -0.38411025002762161
v 0.28011358300244615 -0.17635370564991945 0.067501456490335329
v 0.28011358300244615 -0.17635370564991945 -0.38411025002762161
v 0.28046769669589833 -0.17578841352113006 0.067498849724022272
v 0.28046769669589833 -0.17578841352113006 -0.38411025002762161
v 0.28135439736381085 -0.17437292201655341 0.067492322482352068
v 0.28135439736381085 -0.17437292201655341 -0.38411025002762161
v 0.31792725957659146 -0.11598955076948035 0.067223098257421759
v 0.31792725957659146 -0.11598955076948035 -0.38411025002762161
v 0.31960434204713811 -0.11331232721679634 0.067210752711633154
v 0.31960434204713811 -0.11331232721679634 -0.38411025002762161
v 0.32131541942072955 -0.11058083565518206 0.06719815694317384
v 0.32131541942072955 -0.11058083565518206 -0.38411025002762161
v 0.32297833728163616 -0.10792622382180242 0.067185915670172319
v 0.32297833728163616 -0.10792622382180242 -0.38411025002762161
v 0.48402924480753956 0.14916863719475498 -0.38411025002762161
v 0.48131132028818069 0.15087121585592617 -0.38411025002762161
v 0.086067440924384689 0.13259969116880393 0.37436515744332405
v 0.086067440924384689 0.13259969116880393 -0.38411025002762161
v 0.086065797053757373 0.13259960013022934 -0.38411025002762161
v 0.08165608824123971 0.13235866611567057 -0.38411025002762161
v -0.081342601221286323 -0.12980029795265899 -0.38411025002762161
v 0.18641015911666131 -0.11531226865346342 -0.38411025002762161
v 0.18641301840028676 -0.115314047214221 -0.38411025002762161
v 0.18641095759860246 -0.11531416045211977 -0.38411025002762161
v 0.19402136614351689 -0.12004687252636496 -0.38411025002762161
v 0.19402033718349623 -0.12004692690403641 -0.38411025002762161
v 0.19401992975118851 -0.12004597900356723 -0.38411025002762161
v 0.1952036438220601 -0.1228162758910093 -0.38411025002762161
v 0.1952051780301606 -0.12281722437847983 -0.38411025002762161
v 0.19520408113807344 -0.12281728660062402 -0.38411025002762161
v 0.086066789139419841 0.13260121401042355 -0.38411025002762161
v 0.47643171859447575 0.15392792527530869 -0.38411025002762161
v 0.20456690475963873 0.3242311153683618 -0.38411025002762161
v 0.20196656098855309 0.32586003832622357 -0.38411025002762161
v -0.069052575782339309 0.49563347436674432 -0.38411025002762161
v -0.073045799445424733 0.49813493348960602 -0.38411025002762161
v -0.073425675721391484 0.49837289786428363 -0.38411025002762161
v -0.47614800519069483 -0.15598553969696885 0.06905232865224889
v -0.47712482999180433 -0.15537363122870676 0.069060586373928937
v -0.47712482999180433 -0.15537363122870676 -0.38411025002762161
v -0.47614800519069483 -0.15598553969696885 -0.38411025002762161
v -0.47001571617929527 -0.15982696502176563 0.069000488427580609
v -0.47001571617929527 -0.15982696502176563 -0.38411025002762161
v -0.20372694390411744 -0.32663717763961808 0.066749377220182177
v -0.20372694390411744 -0.32663717763961808 -0.38411025002762161
v -0.19953925981788792 -0.3292604518717468 0.066713975968605857
v -0.19953925981788792 -0.3292604518717468 -0.38411025002762161
v 0.074953031819181781 -0.50120956245422965 0.06439351508642123
v 0.074953031819181781 -0.50120956245422965 -0.38411025002762161
v 0.076146928816103535 -0.501957450534671 -0.38411025002762161
v -0.079229285861639409 -0.13470027590439743 -0.38411025002762161
v -0.081394959554700622 -0.13820594749746709 -0.38411025002762161
v -0.081395811720584327 -0.13820732796457497 -0.38411025002762161
v -0.081396374334706187 -0.13820602471482785 -0.38411025002762161
v -0.075420026343649124 0.49962221099143245 -0.38411025002762161
l 1 2
l 2 97
l 97 100
l 79 100
l 3 79
l 4 5
l 1 5
l 1 4
l 5 6
l 3 82
l 82 84
l 84 86
l 86 88
l 7 88
l 7 8
l 8 9
l 9 10
l 10 11
l 11 12
l 12 13
l 4 6
l 13 14
l 14 15
l 15 16
l 16 17
l 18 19
l 1 19
l 17 18
l 20 21
l 21 22
l 22 23
l 20 23
l 24 110
l 110 113
l 113 115
l 115 117
l 117 119
l 119 121
l 121 123
l 123 125
l 125 127
l 127 129
l 129 131
l 131 133
l 25 133
l 25 26
l 27 28
l 28 29
l 29 30
l 22 30
l 22 27
l 18 31
l 31 32
l 18 33
l 33 34
l 33 35
l 18 35
l 17 36
l 36 37
l 37 38
l 36 38
l 37 39
l 36 40
l 40 41
l 41 42
l 42 43
l 11 43
l 11 39
l 11 44
l 39 44
l 44 46
l 45 46
l 45 47
l 47 48
l 24 48
l 19 22
l 19 27
l 31 49
l 18 49
l 34 35
l 26 27
l 32 49
l 38 39
l 50 51
l 51 52
l 52 137
l 27 137
l 26 53
l 53 54
l 54 55
l 55 56
l 56 57
l 57 58
l 58 59
l 59 60
l 60 61
l 59 61
l 50 61
l 50 59
l 8 159
l 158 159
l 158 162
l 162 164
l 164 166
l 166 168
l 62 168
l 24 62
l 24 47
l 63 64
l 46 64
l 44 65
l 9 65
l 66 67
l 66 68
l 63 69
l 67 69
l 67 68
l 68 69
l 47 67
l 47 69
l 70 71
l 71 72
l 72 73
l 19 73
l 19 70
l 19 21
l 21 70
l 21 74
l 70 74
l 75 76
l 76 77
l 77 78
l 75 78
l 80 81
l 81 83
l 83 85
l 85 87
l 87 89
l 89 90
l 7 90
l 90 91
l 9 77
l 76 92
l 92 93
l 11 93
l 12 43
l 16 36
l 1 73
l 2 72
l 98 99
l 99 101
l 80 101
l 4 102
l 102 103
l 5 103
l 103 104
l 6 104
l 102 104
l 20 61
l 21 60
l 60 105
l 105 106
l 22 106
l 23 30
l 30 50
l 45 64
l 45 63
l 47 63
l 63 108
l 108 109
l 47 109
l 111 112
l 112 114
l 114 116
l 116 118
l 118 120
l 120 122
l 122 124
l 124 126
l 126 128
l 128 130
l 130 132
l 132 134
l 134 135
l 25 135
l 135 136
l 28 137
l 137 138
l 138 139
l 51 139
l 106 140
l 19 140
l 93 141
l 75 141
l 33 142
l 142 143
l 34 143
l 143 144
l 35 144
l 142 144
l 32 145
l 145 146
l 49 146
l 146 147
l 31 147
l 145 147
l 37 148
l 148 149
l 38 149
l 149 150
l 39 150
l 148 150
l 139 151
l 52 151
l 138 151
l 136 152
l 152 153
l 153 154
l 154 155
l 155 156
l 156 157
l 58 70
l 160 161
l 161 163
l 163 165
l 165 167
l 167 169
l 169 170
l 62 170
l 111 170
l 109 171
l 69 171
l 108 171
l 65 78
l 91 160
l 67 172
l 172 173
l 68 173
l 173 174
l 66 174
l 172 174
l 105 140
l 157 175
l 71 175
l 98 175
l 92 141
