# XYZ-only planar convex-roof baseline. Provisional base; no GT.
v 3.78543256 -3.43601363 8.61350821
v 7.93528739 1.89507093 4.39487346
v 7.93601719 2.00709573 4.33884801
v 6.56599407 3.06302978 4.33020779
v -2.80185145 8.90948348 4.95478024
v -3.12907697 9.00326319 5.03155898
v -3.42787606 9.01025054 5.14080655
v -5.11268974 3.29218996 8.62206235
v 1.97170027 -5.74514789 6.78438121
v 3.71155118 -3.53092488 8.53857693
v -7.86101696 4.13426783 8.00984759
v -7.39286114 -3.34564608 4.46465814
v -7.26605782 -4.10765188 4.13317712
v -0.78604369 -9.15342021 4.05432748
v -7.90007438 9.11483186 4.92754387
v -8.06382398 8.88968757 5.06137964
v -7.90554791 4.84575663 7.56823710
v 3.78543256 -3.43601363 -8.64497870
v 7.93528739 1.89507093 -8.64497870
v 7.93601719 2.00709573 -8.64497870
v 6.56599407 3.06302978 -8.64497870
v -2.80185145 8.90948348 -8.64497870
v -3.12907697 9.00326319 -8.64497870
v -3.42787606 9.01025054 -8.64497870
v -7.90007438 9.11483186 -8.64497870
v -8.06382398 8.88968757 -8.64497870
v -7.90554791 4.84575663 -8.64497870
v -7.86101696 4.13426783 -8.64497870
v -7.39286114 -3.34564608 -8.64497870
v -7.26605782 -4.10765188 -8.64497870
v -0.78604369 -9.15342021 -8.64497870
v 1.97170027 -5.74514789 -8.64497870
v 3.71155118 -3.53092488 -8.64497870
g roof
f 1 2 3 4 5 6 7 8
g roof
f 9 10 1 8 11 12 13 14
g roof
f 7 15 16 17 11 8
g wall
f 2 1 18 19
g wall
f 3 2 19 20
g wall
f 4 3 20 21
g wall
f 5 4 21 22
g wall
f 6 5 22 23
g wall
f 7 6 23 24
g wall
f 10 9 32 33
g wall
f 1 10 33 18
g wall
f 12 11 28 29
g wall
f 13 12 29 30
g wall
f 14 13 30 31
g wall
f 9 14 31 32
g wall
f 15 7 24 25
g wall
f 16 15 25 26
g wall
f 17 16 26 27
g wall
f 11 17 27 28
g ground_assumed
f 33 32 31 30 29 28 27 26 25 24 23 22 21 20 19 18
