v 0.20612244757428153 -0.1874817223247745 0.47296928907155622
v 0.43368684348353226 0.10485742859379721 0.24163322846879939
v 0.43372686331625848 0.11100050033562357 0.23856097697878911
v 0.35859929947217412 0.16890445217296013 0.23808717571937901
v -0.1551025513296721 0.48950475241331914 0.27233667554725871
v -0.17304652306732693 0.4946473234016866 0.27654696923282684
v -0.18943168283786374 0.49503048670423433 0.2825377468118111
v -0.28182132609409344 0.18147084306238678 0.47343836998676092
v 0.10666333157552937 -0.3141070536861259 0.372665977787701
v 0.20207103558581885 -0.19268634324671693 0.4688603040187207
v -0.43253055550110148 0.22764762505721586 0.43986652525162184
v -0.40685842943068179 -0.1825262629730677 0.24545999089747941
v -0.39990495223758027 -0.22431215589220516 0.22728266153010918
v -0.044562280894819346 -0.50100550275669753 0.2229588064967846
v -0.43467233600961963 0.50076538247387559 0.27084312255812659
v -0.443651825734175 0.4884192097895006 0.27818223618950616
v -0.43497248640016745 0.26666333177488866 0.41565005780858161
v 0.20612244757428153 -0.1874817223247745 -0.47342939446549204
v 0.43368684348353226 0.10485742859379721 -0.47342939446549204
v 0.43372686331625848 0.11100050033562357 -0.47342939446549204
v 0.35859929947217412 0.16890445217296013 -0.47342939446549204
v -0.1551025513296721 0.48950475241331914 -0.47342939446549204
v -0.17304652306732693 0.4946473234016866 -0.47342939446549204
v -0.18943168283786374 0.49503048670423433 -0.47342939446549204
v -0.43467233600961963 0.50076538247387559 -0.47342939446549204
v -0.443651825734175 0.4884192097895006 -0.47342939446549204
v -0.43497248640016745 0.26666333177488866 -0.47342939446549204
v -0.43253055550110148 0.22764762505721586 -0.47342939446549204
v -0.40685842943068179 -0.1825262629730677 -0.47342939446549204
v -0.39990495223758027 -0.22431215589220516 -0.47342939446549204
v -0.044562280894819346 -0.50100550275669753 -0.47342939446549204
v 0.10666333157552937 -0.3141070536861259 -0.47342939446549204
v 0.20207103558581885 -0.19268634324671693 -0.47342939446549204
l 1 2
l 2 3
l 3 4
l 4 5
l 5 6
l 6 7
l 7 8
l 1 8
l 9 10
l 1 10
l 8 11
l 11 12
l 12 13
l 13 14
l 9 14
l 7 15
l 15 16
l 16 17
l 11 17
l 18 19
l 2 19
l 19 20
l 3 20
l 20 21
l 21 22
l 5 22
l 22 23
l 6 23
l 23 24
l 32 33
l 18 33
l 28 29
l 29 30
l 13 30
l 30 31
l 14 31
l 31 32
l 24 25
l 15 25
l 25 26
l 16 26
l 26 27
l 27 28
