# Source coordinates; no display transform
v 0.192928189623 0.249497743754 0.217286204192
v 0.17576249984 0.259145070457 0.217062256608
v 0.0617232472204 0.255250182684 0.216732583768
v -0.360976852486 0.241213979425 0.215503786972
v -0.391871484358 0.230880952561 0.215572517665
v -0.409100112496 0.237971902697 0.215391897979
v -0.475666086531 0.235698413571 0.215199464286
v -0.510107616352 0.222047288882 0.215312399777
v -0.504436422832 0.0559992003461 0.218160631362
v -0.506094635973 0.174325979878 0.216139241647
v -0.507832072563 0.22519675776 0.215266652532
v -0.462148086743 0.175826926929 0.216266285481
v -0.492863668529 -0.282841950823 0.223972791486
v -0.414304313525 -0.280158840714 0.224199896499
v -0.32566629262 -0.269639940111 0.22432852299
v -0.303813352141 -0.27550869057 0.22450438186
v -0.272061871416 -0.255192426014 0.224268567753
v -0.220857596675 -0.253443599204 0.224416592763
v -0.188147294659 -0.264989036243 0.224726854821
v -0.0437556586846 -0.260057495556 0.225144272502
v 0.130190656701 -0.25407315918 0.225646389882
v 0.121886355548 -0.0109297481306 0.221475738145
v 0.504698041346 -0.0518370637849 0.223501948365
v 0.493519815961 0.275452589761 0.217887931726
v 0.39063603344 0.271938705062 0.2175905079
v 0.229071944843 0.267443183263 0.217106028692
v -0.492891830158 0.245882080242 0.214966171926
v -0.506919439239 0.226459131995 0.215248317946
v -0.463927524767 0.227927474484 0.215372602028
v 0.130190656701 -0.25407315918 0.215988612552
v 0.391101619838 -0.18894146872 0.215459293823
v 0.390390727358 -0.168127095709 0.215352458001
v 0.412905570385 -0.205229131973 0.215527148201
v 0.290893090539 -0.248544456733 0.215840997315
v 0.337364136718 -0.247883821545 0.21580314967
v 0.426191026451 -0.244850034896 0.215721670885
v 0.457534903773 -0.245348782202 0.215701014349
v 0.51124457368 -0.243514386302 0.215651747746
v 0.504698041346 -0.0518370637849 0.214667908282
v 0.121886355548 -0.0109297481306 0.214740608442
v 0.423305799176 -0.181635465792 0.215397741998
v 0.390390727358 -0.168127095709 0.211330217897
v 0.391101619838 -0.18894146872 0.211413277086
v 0.412905570385 -0.205229131973 0.211491987693
v 0.423305799176 -0.181635465792 0.211405071241
v -0.506094635973 0.174325979878 0.229381489442
v -0.462148086743 0.175826926929 0.229381489442
v -0.463927524767 0.227927474484 0.229381489442
v -0.506919439239 0.226459131995 0.229381489442
v -0.507832072563 0.22519675776 0.229381489442
v -0.272061871416 -0.255192426014 -0.221116201212
v -0.220857596675 -0.253443599204 -0.221116201212
v -0.188147294659 -0.264989036243 -0.221116201212
v -0.0761465416108 -0.261163771245 0.22505063463
v -0.0761465416108 -0.261163771245 -0.221116201212
v -0.0437556586846 -0.260057495556 -0.221116201212
v 0.130190656659 -0.254073158179 -0.221116201212
v 0.504698041346 -0.0518370637849 -0.221116201212
v 0.493519815961 0.275452589761 -0.221116201212
v 0.39063603344 0.271938705062 -0.221116201212
v 0.229071944843 0.267443183263 -0.221116201212
v 0.192928189623 0.249497743754 -0.221116201212
v 0.17576249984 0.259145070457 -0.221116201212
v 0.112735761282 0.256992460134 0.216880054391
v 0.112735761282 0.256992460134 -0.221116201212
v 0.0617232472204 0.255250182684 -0.221116201212
v -0.360976852486 0.241213979425 -0.221116201212
v -0.391871484358 0.230880952561 -0.221116201212
v -0.409100112496 0.237971902697 -0.221116201212
v -0.475666086531 0.235698413571 -0.221116201212
v -0.492891830158 0.245882080242 -0.221116201212
v -0.510107616352 0.222047288882 -0.221116201212
v -0.504436422832 0.0559992003461 -0.221116201212
v -0.498950747628 -0.104617058043 0.220915690534
v -0.498950747628 -0.104617058043 -0.221116201212
v -0.492863668529 -0.282841950823 -0.221116201212
v -0.414304313525 -0.280158840714 -0.221116201212
v -0.32566629262 -0.269639940111 -0.221116201212
v -0.303813352141 -0.27550869057 -0.221116201212
v 0.290893090539 -0.248544456733 -0.221116201212
v 0.337364136718 -0.247883821545 -0.221116201212
v 0.426191026451 -0.244850034896 -0.221116201212
v 0.457534903773 -0.245348782202 -0.221116201212
v 0.51124457368 -0.243514386302 -0.221116201212
g roof
f 1 2 64 3
g roof
f 1 3 4
g roof
f 1 4 5
g roof
f 5 6 7
g roof
f 8 9 10
g roof
f 8 10 11
g roof
f 12 10 9
g roof
f 12 9 74 13
g roof
f 12 13 14
g roof
f 12 14 15
g roof
f 12 15 16
g roof
f 12 16 17
g roof
f 12 17 18
g roof
f 12 18 19
g roof
f 12 19 54 20
g roof
f 12 20 21
g roof
f 12 21 22
g roof
f 12 22 23
g roof
f 12 23 24
g roof
f 25 26 1
g roof
f 27 8 11
g roof
f 27 11 28
g roof
f 27 28 29
g roof
f 24 25 1
g roof
f 7 27 29
g roof
f 12 24 1
g roof
f 12 1 5
g roof
f 5 7 29
g roof
f 5 29 12
g roof
f 30 31 32
g roof
f 33 31 30
g roof
f 33 30 34
g roof
f 33 34 35
g roof
f 33 35 36
g roof
f 33 36 37
g roof
f 33 37 38
g roof
f 33 38 39
g roof
f 39 40 30
g roof
f 39 30 32
g roof
f 39 32 41
g roof
f 39 41 33
g roof
f 42 43 44
g roof
f 42 44 45
g roof_fixture
f 46 47 48
g roof_fixture
f 46 48 49
g roof_fixture
f 46 49 50
g facade_completed
f 18 17 51 52
g facade_completed
f 19 18 52 53
g facade_completed
f 54 19 53 55
g facade_completed
f 20 54 55 56
g facade_completed
f 21 20 56 57 30
g roof_step_or_fixture_side
f 22 21 30 40
g roof_step_or_fixture_side
f 23 22 40 39
g facade_completed
f 24 23 39 58 59
g facade_completed
f 25 24 59 60
g facade_completed
f 26 25 60 61
g facade_completed
f 1 26 61 62
g facade_completed
f 2 1 62 63
g facade_completed
f 64 2 63 65
g facade_completed
f 3 64 65 66
g facade_completed
f 4 3 66 67
g facade_completed
f 5 4 67 68
g facade_completed
f 6 5 68 69
g facade_completed
f 7 6 69 70
g facade_completed
f 27 7 70 71
g facade_completed
f 8 27 71 72
g facade_completed
f 9 8 72 73
g facade_completed
f 74 9 73 75
g facade_completed
f 13 74 75 76
g facade_completed
f 14 13 76 77
g facade_completed
f 15 14 77 78
g facade_completed
f 16 15 78 79
g facade_completed
f 17 16 79 51
g roof_step_or_fixture_side
f 47 46 10 12
g roof_step_or_fixture_side
f 46 50 11 10
g roof_step_or_fixture_side
f 50 49 28 11
g roof_step_or_fixture_side
f 49 48 29 28
g roof_step_or_fixture_side
f 48 47 12 29
g facade_completed
f 34 30 57 80
g facade_completed
f 35 34 80 81
g facade_completed
f 36 35 81 82
g facade_completed
f 37 36 82 83
g facade_completed
f 38 37 83 84
g facade_completed
f 39 38 84 58
g roof_step_or_fixture_side
f 31 33 44 43
g roof_step_or_fixture_side
f 32 31 43 42
g roof_step_or_fixture_side
f 41 32 42 45
g roof_step_or_fixture_side
f 33 41 45 44
g ground_assumed
f 70 72 71
g ground_assumed
f 70 73 72
g ground_assumed
f 70 75 73
g ground_assumed
f 70 76 75
g ground_assumed
f 70 77 76
g ground_assumed
f 70 78 77
g ground_assumed
f 70 79 78
g ground_assumed
f 70 51 79
g ground_assumed
f 70 52 51
g ground_assumed
f 70 53 52
g ground_assumed
f 70 55 53
g ground_assumed
f 70 56 55
g ground_assumed
f 70 57 56
g ground_assumed
f 70 80 57
g ground_assumed
f 70 81 80
g ground_assumed
f 70 82 81
g ground_assumed
f 70 83 82
g ground_assumed
f 70 84 83
g ground_assumed
f 70 58 84
g ground_assumed
f 58 60 59
g ground_assumed
f 58 61 60
g ground_assumed
f 58 62 61
g ground_assumed
f 58 63 62
g ground_assumed
f 58 65 63
g ground_assumed
f 58 66 65
g ground_assumed
f 58 67 66
g ground_assumed
f 58 68 67
g ground_assumed
f 68 70 69
g ground_assumed
f 68 58 70
