v 0.19292818962347033 0.24949774375432204 0.21728620419236191
v 0.17576249983964731 0.25914507045659296 0.21706225660786219
v 0.061723247220414147 0.25525018268421845 0.21673258376788171
v -0.36097685248643718 0.2412139794246351 0.21550378697192737
v -0.39187148435812058 0.23088095256095895 0.21557251766460853
v -0.4091001124955983 0.23797190269685897 0.21539189797898364
v -0.47566608653131764 0.23569841357071711 0.21519946428594783
v -0.5101076163515853 0.22204728888209802 0.21531239977657521
v -0.50443642283183665 0.055999200346105969 0.21816063136193481
v -0.50609463597269155 0.17432597987799664 0.21613924164659679
v -0.50783207256286633 0.22519675776009113 0.21526665253222443
v -0.46214808674254199 0.17582692692865115 0.21626628548100119
v -0.49286366852913599 -0.28284195082337865 0.22397279148578081
v -0.41430431352539143 -0.28015884071381741 0.22419989649923974
v -0.3256662926199686 -0.26963994011129677 0.22432852298985248
v -0.30381335214112809 -0.2755086905703043 0.22450438185973667
v -0.27206187141623839 -0.25519242601374997 0.22426856775315496
v -0.22085759667508575 -0.25344359920413784 0.22441659276284939
v -0.18814729465920185 -0.2649890362425199 0.22472685482059218
v -0.043755658684639077 -0.26005749555631746 0.22514427250164898
v 0.13019065670109103 -0.25407315917996909 0.22564638988195124
v 0.12188635554781492 -0.010929748130580782 0.2214757381447518
v 0.5046980413456722 -0.05183706378493351 0.22350194836486498
v 0.49351981596060945 0.27545258976103465 0.2178879317261915
v 0.39063603343954723 0.2719387050624274 0.21759050789964776
v 0.22907194484264892 0.26744318326267136 0.21710602869159226
v -0.49289183015762256 0.24588208024231395 0.21496617192636516
v -0.5069194392390306 0.22645913199461784 0.21524831794619767
v -0.46392752476689236 0.22792747448373665 0.21537260202827066
v 0.13019065670109103 -0.25407315917996909 0.21598861255157062
v 0.39110161983771297 -0.18894146871993617 0.21545929382297122
v 0.39039072735829994 -0.1681270957088587 0.21535245800107383
v 0.41290557038511178 -0.20522913197278822 0.21552714820054075
v 0.29089309053900309 -0.24854445673310263 0.21584099731481432
v 0.33736413671837551 -0.24788382154475591 0.21580314967016104
v 0.42619102645077594 -0.24485003489576024 0.215721670884648
v 0.45753490377337575 -0.24534878220231104 0.21570101434929864
v 0.51124457367967369 -0.24351438630243669 0.21565174774604318
v 0.5046980413456722 -0.05183706378493351 0.2146679082821977
v 0.12188635554781492 -0.010929748130580782 0.21474060844165963
v 0.42330579917640854 -0.1816354657918775 0.21539774199845288
v 0.39039072735829994 -0.1681270957088587 0.21133021789667178
v 0.39110161983771297 -0.18894146871993617 0.21141327708597674
v 0.41290557038511178 -0.20522913197278822 0.21149198769345262
v 0.42330579917640854 -0.1816354657918775 0.21140507124107241
v -0.50609463597269155 0.17432597987799664 0.22938148944172349
v -0.46214808674254199 0.17582692692865115 0.22938148944172349
v -0.46392752476689236 0.22792747448373665 0.22938148944172349
v -0.5069194392390306 0.22645913199461784 0.22938148944172349
v -0.50783207256286633 0.22519675776009113 0.22938148944172349
v -0.27206187141623839 -0.25519242601374997 -0.22111620121190581
v -0.22085759667508575 -0.25344359920413784 -0.22111620121190581
v -0.18814729465920185 -0.2649890362425199 -0.22111620121190581
v -0.076146541610774804 -0.2611637712448529 0.22505063463019112
v -0.076146541610774804 -0.2611637712448529 -0.22111620121190581
v -0.043755658684639077 -0.26005749555631746 -0.22111620121190581
v 0.13019065665937959 -0.2540731581788952 -0.22111620121190581
v 0.5046980413456722 -0.05183706378493351 -0.22111620121190581
v 0.49351981596060945 0.27545258976103465 -0.22111620121190581
v 0.39063603343954723 0.2719387050624274 -0.22111620121190581
v 0.22907194484264892 0.26744318326267136 -0.22111620121190581
v 0.19292818962347033 0.24949774375432204 -0.22111620121190581
v 0.17576249983964731 0.25914507045659296 -0.22111620121190581
v 0.11273576128220733 0.25699246013433857 0.21688005439116323
v 0.11273576128220733 0.25699246013433857 -0.22111620121190581
v 0.061723247220414147 0.25525018268421845 -0.22111620121190581
v -0.36097685248643718 0.2412139794246351 -0.22111620121190581
v -0.39187148435812058 0.23088095256095895 -0.22111620121190581
v -0.4091001124955983 0.23797190269685897 -0.22111620121190581
v -0.47566608653131764 0.23569841357071711 -0.22111620121190581
v -0.49289183015762256 0.24588208024231395 -0.22111620121190581
v -0.5101076163515853 0.22204728888209802 -0.22111620121190581
v -0.50443642283183665 0.055999200346105969 -0.22111620121190581
v -0.49895074762796776 -0.10461705804270818 0.22091569053351329
v -0.49895074762796776 -0.10461705804270818 -0.22111620121190581
v -0.49286366852913599 -0.28284195082337865 -0.22111620121190581
v -0.41430431352539143 -0.28015884071381741 -0.22111620121190581
v -0.3256662926199686 -0.26963994011129677 -0.22111620121190581
v -0.30381335214112809 -0.2755086905703043 -0.22111620121190581
v 0.29089309053900309 -0.24854445673310263 -0.22111620121190581
v 0.33736413671837551 -0.24788382154475591 -0.22111620121190581
v 0.42619102645077594 -0.24485003489576024 -0.22111620121190581
v 0.45753490377337575 -0.24534878220231104 -0.22111620121190581
v 0.51124457367967369 -0.24351438630243669 -0.22111620121190581
l 1 2
l 2 64
l 3 64
l 3 4
l 4 5
l 5 6
l 6 7
l 8 9
l 10 11
l 10 12
l 9 74
l 13 74
l 13 14
l 14 15
l 15 16
l 16 17
l 17 18
l 18 19
l 19 54
l 20 54
l 20 21
l 21 22
l 22 23
l 23 24
l 25 26
l 1 26
l 8 27
l 11 28
l 28 29
l 24 25
l 7 27
l 12 29
l 31 32
l 31 33
l 30 34
l 34 35
l 35 36
l 36 37
l 37 38
l 38 39
l 39 40
l 30 40
l 32 41
l 33 41
l 42 43
l 43 44
l 44 45
l 42 45
l 46 47
l 47 48
l 48 49
l 49 50
l 46 50
l 17 51
l 51 52
l 18 52
l 52 53
l 19 53
l 53 55
l 55 56
l 56 57
l 21 30
l 22 40
l 23 39
l 58 59
l 24 59
l 59 60
l 60 61
l 26 61
l 61 62
l 1 62
l 62 63
l 2 63
l 63 65
l 65 66
l 66 67
l 4 67
l 67 68
l 5 68
l 68 69
l 6 69
l 69 70
l 7 70
l 70 71
l 27 71
l 71 72
l 8 72
l 72 73
l 73 75
l 75 76
l 13 76
l 76 77
l 77 78
l 15 78
l 78 79
l 16 79
l 51 79
l 10 46
l 12 47
l 11 50
l 28 49
l 29 48
l 57 80
l 80 81
l 81 82
l 82 83
l 83 84
l 38 84
l 58 84
l 33 44
l 31 43
l 32 42
l 41 45
