# pointcloud_to_mesh 0.4.1; candidate requires geometry validation; coordinates preserved
v -2.323967775 1.757174878 1.831257337
v -3.497650521 2.968606153 1.096290409
v -4.915249839 1.605266427 1.110920804
v -7.064383619 -0.461607775 1.133101032
v -6.734730627 -1.827789473 1.667047269
v -8.171545527 -3.122848012 1.654178398
v -7.704909026 -3.584293861 1.939940622
v -8.696613715 -4.465949963 1.927161487
v -8.396717527 -4.573623955 2.050514215
v -7.625406860 -4.850553446 2.367768247
v -7.618367493 -5.019881187 2.423912833
v -5.928515580 -5.459832076 3.065740209
v -5.928489814 -5.459810443 3.065740948
v -5.876996728 -5.416453708 3.067177753
v -5.884507450 -5.471289538 3.082455060
v -5.853688555 -5.479313199 3.094160470
v -5.853645550 -5.479272503 3.094160238
v -5.870186916 -5.410719908 3.067367768
v -5.863571197 -5.405149487 3.067552351
v -5.820414247 -5.447826380 3.093981116
v -5.716408823 -5.349408043 3.093420487
v -5.769150507 -5.325648164 3.070186987
v -5.859014437 -5.285164884 3.030600580
v -5.682494682 -3.996393037 2.671547693
v -6.111229177 -4.411768048 2.676946345
v -5.905540234 -5.264205235 3.010105271
v -6.646532917 -4.930391577 2.683686922
v -5.318925398 -3.644152671 2.666969607
v -5.126987042 -2.817155260 2.459907797
v -3.338606667 -1.564445823 2.590605388
v -3.048564189 -0.575568237 2.360972547
v -0.932963440 0.321432415 2.702312301
v -0.354548446 -0.275585830 3.064519117
v 4.028243555 3.871763435 3.040895081
v 4.534121814 3.349614884 3.357678974
v 5.145114876 3.864065569 3.374727502
v 7.571859462 5.907362771 3.442440908
v 11.357188244 9.574739674 3.394775815
v 10.750162221 10.183855542 3.020218094
v 11.004582566 10.428318192 3.017662437
v 10.880446769 10.556446502 2.939927882
v 10.725170777 10.208933025 3.004797440
v 6.196109313 5.923171864 3.029209895
v 10.623950630 10.310501648 2.942340830
v 9.355702110 11.583116443 2.159784139
v 9.321735488 11.617199952 2.138825482
v 6.724765094 9.244132166 2.125881810
v -1.350893765 2.064621982 2.021818642
v -1.668387497 2.392327095 1.823002230
v -6.557117549 -2.563871783 1.954731095
v -6.492121279 -2.833235984 2.060006990
v -7.517189091 -3.769925685 2.054897908
v -7.664726478 -3.904742843 2.054162554
v 5.856136452 5.738817380 2.987193311
v -7.676896755 -3.611994536 1.957094978
v -5.278063364 -4.912157136 3.083889765
v -5.433411561 -5.081613403 3.091895102
v -5.062764418 -4.730877353 3.089897247
v -5.062390553 -4.730562507 3.089907662
v -5.059291623 -4.727591051 3.089878507
v -3.482780993 -3.215932193 3.075047746
v -3.663711996 -3.151197173 3.000699700
v -2.713180440 -2.752548691 3.155457642
v -3.328908324 -3.270986054 3.138276999
v -3.273403286 -3.290845115 3.161085092
v -8.934345498 -4.677267985 1.924087573
v -8.934316894 -4.677275432 1.924098437
v -9.386753875 -4.218163732 1.643294353
v -9.386786998 -4.218193560 1.643294048
v -9.680567801 -4.482989934 1.640662801
v -9.572204776 -4.511202078 1.681820452
v -9.540221263 -4.505042249 1.689343481
v -9.484701937 -4.533983369 1.715055160
v 1.800003963 0.588539773 2.690931059
v 2.168430724 0.945486257 2.691506642
v 0.244558696 -0.893961734 2.696043946
v -2.537656526 -3.554086796 2.702605587
v -3.273403286 -3.290845115 3.002259304
v -3.328908272 -3.270986062 3.024865285
v -5.765303463 -5.502324148 3.060856868
v -5.765381792 -5.502303755 3.060886418
v -5.765329081 -5.502298856 3.060872272
v -3.467568497 -3.221375048 3.081338588
v -3.482780979 -3.215932247 3.087534287
v -5.469089429 -5.120531384 3.090537848
v -5.278063612 -4.912157346 3.098017079
v -5.769150540 -5.325648140 3.116447566
v -5.863571200 -5.405149512 3.119991165
v -5.870186916 -5.410719908 3.120239446
v -5.853632191 -5.479327818 3.094178840
v -5.845489531 -5.481447805 3.091107010
v -5.851683314 -5.487386799 3.091116376
v -5.846253209 -5.509908597 3.082562780
v -5.842225653 -5.526600009 3.076222572
v -5.796678245 -5.715362241 3.004521515
v -5.796668469 -5.715402758 3.004506125
v -5.767296799 -5.837127887 2.958269016
v -5.111114874 -8.556544190 1.925302721
v -3.449711805 -10.242307904 0.912321985
v -2.735238469 -9.550097753 0.913438186
v -2.161013537 -9.066521585 0.891913393
v -1.934128839 -8.875453544 0.883408632
v -1.108907827 -8.075946644 0.884697851
v -0.359258820 -7.259962542 0.913511039
v -0.099641545 -6.977372200 0.923489577
v 0.693669849 -6.113862104 0.953980953
v 1.241512569 -5.833714082 0.877599535
v 4.332248949 -2.839285892 0.882428105
v 4.685121687 -2.576772958 0.858520911
v 7.595085110 0.242515210 0.863067065
v 8.110365410 0.699411666 0.850827551
v 9.550875230 2.095034806 0.853078019
v 10.000054187 2.423702122 0.820953907
v 14.518516284 6.801367706 0.828012973
v 11.004582566 10.428318192 2.989458549
v 10.750162221 10.183855542 2.989686647
v 11.357188244 9.574739674 2.621673325
v 2.182727214 0.686157356 2.607340323
v -11.081963640 -4.325412149 2.102248075
v -10.992574868 -4.239444795 2.144234621
v -11.844782200 -3.997365338 1.992362847
v -14.244380708 -6.299636676 0.866536683
v -14.437556077 -6.484976896 0.775904069
v -13.255413108 -7.705140496 0.779644730
v -12.831862325 -8.142313716 0.780984974
v -12.583103651 -8.399073082 0.781772122
v -11.973627503 -9.028151484 0.783700691
v -11.673159647 -9.293013349 0.795243986
v -11.137580482 -9.845818060 0.796938722
v -10.817360225 -10.176337389 0.797951996
v -10.780968397 -10.213899668 0.798067151
v -10.635122752 -10.364436069 0.798528651
v -8.791733998 -12.267112747 0.804361696
v -7.130791467 -13.981475284 0.809617425
v -7.037783529 -13.891365498 0.853458770
v -4.803725671 -11.726921494 1.906531268
v -6.498666600 -9.955386513 1.906334517
v -6.498685165 -9.955405280 1.906325583
v -6.498680634 -9.955371845 1.906334515
v -8.276044528 -8.097689222 1.906128197
v -8.418590764 -7.948701349 1.906111650
v -8.439817302 -7.926515624 1.906109177
v -8.626439564 -7.731459902 1.906087522
v -10.131268817 -6.158627708 1.905912840
v -10.131276762 -6.158619404 1.905912839
v -10.642963472 -6.196315021 1.771894840
v -10.346975868 -5.933172897 1.905887800
v -10.347005152 -5.933142278 1.905887800
v -10.783405287 -5.477021318 1.905837139
v -10.783423956 -5.477001805 1.905837137
v -10.783384083 -5.477002206 1.905846799
v -9.789514687 -4.581188105 2.358631843
v -9.848536562 -4.564422251 2.348113561
v -10.692856365 -4.727034072 2.103479329
v -7.894318211 -5.119540823 2.232804678
v -8.604202565 -4.763220288 2.049464677
v -8.934328213 -4.677285485 1.924072456
v -9.036147422 -4.767805917 1.826523437
v -9.749820321 -4.545409991 1.573871257
v -9.789514687 -4.581188105 1.535595821
v -10.783384083 -5.477002206 0.577253666
v -9.844466744 -5.486426764 1.052104208
v -9.400521315 -5.490882950 1.276626346
v -10.131258236 -6.158618040 0.567436084
v -10.131268817 -6.158627708 0.567425815
v -8.626439564 -7.731459902 0.544794864
v -8.439817291 -7.926515600 0.541988273
v -7.038719432 -6.600684446 1.924679831
v -7.026098214 -6.613490695 1.924683875
v -8.418590764 -7.948701349 0.541669050
v -8.276044528 -8.097689222 0.539525314
v -6.498680634 -9.955371845 0.512795746
v -6.498666622 -9.955386479 0.512795541
v -5.796708560 -5.715391369 3.004477719
v -5.851688017 -5.487385111 3.091103798
v -5.845489531 -5.481447805 3.097256978
v -5.890359311 -5.514014008 3.057953880
v -5.890365161 -5.514056717 3.057929406
v -5.876996726 -5.416453706 3.113861648
v -8.315702117 -5.143359727 2.005581697
v -8.733358329 -4.881201665 1.924136840
v -8.733325785 -4.881210912 1.924148811
v -5.890408779 -5.514060819 3.057905062
v -8.643281403 -4.972599160 1.924165694
v -8.696613715 -4.465949963 1.811575099
v -7.704909026 -3.584293861 1.831787257
v -8.171545527 -3.122848012 1.562694268
v -6.734730627 -1.827789473 1.586739362
v -7.064383619 -0.461607775 1.088507606
v -8.989988615 -2.313508911 1.090726695
v -10.157423452 -3.436259375 1.092072061
v -10.539933773 -3.804128849 1.092512870
v -10.912355219 -4.162295608 1.092942053
v -10.992574848 -4.239444764 1.093034496
v -9.848536562 -4.564422251 1.513904528
v -9.749820321 -4.545409991 1.536281843
v -9.572204772 -4.511202114 1.576544308
v -9.680567801 -4.482989934 1.537440784
v -9.386786989 -4.218193579 1.542357205
v -9.386753924 -4.218163745 1.542357749
v -1.350893765 2.064621982 1.961289884
v 9.321735506 11.617199986 2.159769524
v 8.782386061 12.158406281 1.846418274
v 7.449059432 13.496323233 1.071782144
v -3.497650521 2.968606153 1.084397260
v -2.526001156 1.965706150 1.657172440
v -2.323967775 1.757174878 1.776268598
v -1.668387497 2.392327095 1.774131289
v -7.625406859 -4.850553491 2.229443071
v -8.396717527 -4.573623955 1.928561848
v -8.604202565 -4.763220288 1.925854381
v -7.618367494 -5.019881226 2.281599562
v 10.725170777 10.208933025 2.975137375
v 10.623950672 10.310501623 2.916330511
v 5.856136452 5.738817380 2.917784897
v 6.196109313 5.923171864 2.959636535
v 2.168430724 0.945486257 3.291361057
v 1.800003963 0.588539773 3.292562194
v 2.182727214 0.686157356 3.372237279
v 7.571859462 5.907362771 3.354667744
v 4.534121814 3.349614884 3.250425877
v 4.590170288 3.291763754 3.283465752
v -9.484701937 -4.533983369 1.608120292
v -9.540221263 -4.505042249 1.583794433
v -8.934328228 -4.677285509 1.806730186
v -8.934345498 -4.677267985 1.806720095
v -9.036147422 -4.767805917 1.804654986
v -8.643281403 -4.972599160 1.976789699
v -8.315702117 -5.143359727 2.120318952
v -8.733338121 -4.881222185 1.924169294
v 8.782386061 12.158406281 2.159570181
v 9.073867341 12.421129977 2.163349811
v 7.208629574 14.346358387 1.231555793
v 3.488312046 10.741966969 1.246512360
v 2.188211153 9.692344600 1.198898167
v -2.330734173 5.668425770 1.127922653
v -4.205257819 3.698971845 1.174048914
v -5.831933379 1.989917615 1.214076396
v -7.288384580 0.466719952 1.248150608
v -9.481776693 -1.827191259 1.299465824
v -10.561224299 -2.956107950 1.324719899
v -10.601621361 -2.985549403 1.322441973
v -10.157423452 -3.436259375 1.542387953
v -8.989988615 -2.313508911 1.539785095
v -7.064383619 -0.461607775 1.535491857
v -4.915249839 1.605266427 1.530700250
v -3.497650521 2.968606153 1.527539637
v 7.449059432 13.496323233 1.503133369
v 10.623950630 10.310501648 3.066227822
v 10.880446769 10.556446502 3.065840600
v 9.640480455 11.836293188 2.446405795
v 9.603392798 11.874573676 2.427878368
v 9.321735506 11.617199986 2.425108139
v 9.355702110 11.583116443 2.441830921
v -3.467568505 -3.221374998 3.092541917
v -3.273403286 -3.290845115 3.156585937
v -2.537656526 -3.554086796 3.399266743
v 0.244558696 -0.893961734 3.396989325
v 2.168430724 0.945486257 3.395414515
v 4.590170288 3.291763754 3.385678543
v 4.101869900 3.795769085 3.141744291
v 4.028243578 3.871763411 3.104963689
v 4.028243555 3.871763435 3.104963678
v -0.354548446 -0.275585830 3.097700698
v -0.384283104 -0.244894832 3.082846518
v -0.932963440 0.321432415 2.808748994
v -3.048564189 -0.575568237 2.527168081
v -3.338606667 -1.564445823 2.706479469
v -5.126987042 -2.817155260 2.592884958
v -5.318925398 -3.644152671 2.754982556
v -5.682494682 -3.996393037 2.756444192
v -5.859014437 -5.285164884 3.038450675
v -3.663711996 -3.151197173 3.027845401
v -6.090245889 -5.180996222 2.956785807
v -5.905540294 -5.264205235 3.022018972
v -6.111229177 -4.411768048 2.758167807
v -6.493551344 -4.782176952 2.759704834
v -6.646532917 -4.930391577 2.760319856
v -5.433411561 -5.081613403 3.089284218
v -10.539933773 -3.804128849 1.918596429
v -10.157423452 -3.436259375 1.923708914
v -10.601621361 -2.985549403 1.923567265
v -11.333743495 -3.519121352 1.914907711
v -11.386063948 -3.557252594 1.914288863
v -11.780979412 -3.936150377 1.909016531
v -11.844782200 -3.997365338 1.908164729
v -10.992574868 -4.239444795 1.912546604
v -11.081963640 -4.325412149 1.911351868
v -10.692856365 -4.727034072 1.911430993
v -9.848536562 -4.564422251 1.918429013
v -7.517189091 -3.769925685 1.940032733
v -6.492121279 -2.833235984 1.953408984
v -7.679005704 -3.561265008 1.940274704
v -7.676896755 -3.611994536 1.939954621
v -7.664726478 -3.904742843 1.938107497
v 9.603392798 11.874573676 2.163441570
v -4.490299692 -11.423261954 1.910750295
v -4.074480959 -10.847609081 1.917468146
v -3.449711805 -10.242307904 1.925847915
v -9.831453751 -5.884661751 1.909833574
v -9.400521315 -5.490882950 1.915456870
v -9.844466744 -5.486426764 1.912371134
v -10.642963472 -6.196315021 1.902081912
v -10.131258275 -6.158618017 1.905921383
v -2.526001151 1.965706144 1.704742868
v -7.618367493 -5.019881187 -2.882607753
v -5.928489814 -5.459810443 -2.882607753
v -5.769150507 -5.325648164 -2.882607753
v -0.384283112 -0.244894824 3.045899097
v 4.028243578 3.871763411 3.040895095
v 4.101869883 3.795769102 3.087000314
v 4.101869883 3.795769102 -2.882607753
v 5.145114855 3.864065529 3.271392491
v 7.571859460 5.907362769 2.615759612
v 10.981828976 10.451803594 3.003414006
v 11.004582566 10.428318192 -2.882607753
v 10.981828976 10.451803594 -2.882607753
v 10.880446769 10.556446502 -2.882607753
v 9.321735488 11.617199952 -2.882607753
v -6.090245868 -5.180996187 2.928739665
v -6.493551378 -4.782176984 2.681760569
v -6.493551378 -4.782176984 -2.882607753
v -5.062390553 -4.730562507 -2.882607753
v -5.059291623 -4.727591051 -2.882607753
v -9.386786998 -4.218193560 -2.882607753
v -9.572204776 -4.511202078 -2.882607753
v -8.934345474 -4.677267956 -2.882607753
v -8.934316881 -4.677275480 -2.882607753
v -3.328908272 -3.270986062 -2.882607753
v -3.482780979 -3.215932247 -2.882607753
v -5.433411579 -5.081613433 -2.882607753
v -5.278063425 -4.912157141 -2.882607753
v -5.853632191 -5.479327818 -2.882607753
v -5.851683342 -5.487386814 -2.882607753
v -5.796678247 -5.715362256 -2.882607753
v -5.796668493 -5.715402791 -2.882607753
v -5.767296799 -5.837127887 -2.882607753
v -5.111114881 -8.556544130 -2.882607753
v -3.449711805 -10.242307904 -2.882607753
v -2.735238469 -9.550097753 -2.882607753
v -2.161013523 -9.066521614 -2.882607753
v -1.934128839 -8.875453544 -2.882607753
v -1.108907827 -8.075946644 -2.882607753
v -0.359258804 -7.259962541 -2.882607753
v -0.099641563 -6.977372178 -2.882607753
v 0.693669849 -6.113862104 -2.882607753
v 1.241512569 -5.833714082 -2.882607753
v 1.482615000 -5.600124468 0.877976202
v 1.482615000 -5.600124468 -2.882607753
v 1.814498925 -5.278582138 0.878494695
v 1.814498925 -5.278582138 -2.882607753
v 2.373552045 -4.736949265 0.879368088
v 2.373552045 -4.736949265 -2.882607753
v 3.195900225 -3.940225679 0.880652819
v 3.195900225 -3.940225679 -2.882607753
v 4.332248949 -2.839285892 -2.882607753
v 4.685121687 -2.576772958 -2.882607753
v 7.595085110 0.242515210 -2.882607753
v 8.110365410 0.699411666 -2.882607753
v 9.550875230 2.095034806 -2.882607753
v 10.000054187 2.423702122 -2.882607753
v 14.518516284 6.801367706 -2.882607753
v 12.346557332 9.043182211 2.164000344
v 12.346557332 9.043182211 -2.882607753
v 12.247888857 9.145024107 2.224692024
v 12.247888857 9.145024107 -2.882607753
v 11.874646471 9.530270888 2.454276065
v 11.874646471 9.530270888 -2.882607753
v -5.765329081 -5.502298856 -2.882607753
v -5.765303456 -5.502324155 -2.882607753
v -5.765381844 -5.502303749 -2.882607753
v -11.844782192 -3.997365348 -2.882607753
v -14.244380698 -6.299636684 -2.882607753
v -14.437556077 -6.484976896 -2.882607753
v -13.255413108 -7.705140496 -2.882607753
v -12.831862325 -8.142313716 -2.882607753
v -12.583103651 -8.399073082 -2.882607753
v -11.973627503 -9.028151484 -2.882607753
v -11.673159647 -9.293013349 -2.882607753
v -11.137580482 -9.845818060 -2.882607753
v -10.817360225 -10.176337389 -2.882607753
v -10.780968397 -10.213899668 -2.882607753
v -10.635122752 -10.364436069 -2.882607753
v -8.791733998 -12.267112747 -2.882607753
v -7.130791467 -13.981475284 -2.882607753
v -7.037783529 -13.891365498 -2.882607753
v -4.803725671 -11.726921494 -2.882607753
v -6.498666622 -9.955386479 -2.882607753
v -6.498685165 -9.955405280 -2.882607753
v -6.498680676 -9.955371830 -2.882607753
v -8.439817302 -7.926515624 -2.882607753
v -10.131268824 -6.158627680 -2.882607753
v -10.131276754 -6.158619351 -2.882607753
v -10.347005152 -5.933142278 -2.882607753
v -10.783405290 -5.477021271 -2.882607753
v -10.783424005 -5.477001809 -2.882607753
v -10.783384055 -5.477002229 -2.882607753
v -8.934328213 -4.677285485 -2.882607753
v -9.831453760 -5.884661713 0.858400487
v -10.131258275 -6.158618017 -2.882607753
v -7.026098242 -6.613490660 -2.882607753
v -5.796708551 -5.715391337 -2.882607753
v -5.842225647 -5.526600060 -2.882607753
v -5.846253162 -5.509908599 -2.882607753
v -5.851688053 -5.487385113 -2.882607753
v -5.853645530 -5.479272517 -2.882607753
v -5.853688535 -5.479313207 -2.882607753
v -5.884507425 -5.471289572 -2.882607753
v -8.733338146 -4.881222210 -2.882607753
v -8.733358329 -4.881201665 -2.882607753
v -8.733325804 -4.881210949 -2.882607753
v -5.890359363 -5.514014026 -2.882607753
v -5.890365202 -5.514056718 -2.882607753
v -5.890408830 -5.514060837 -2.882607753
v -10.912355161 -4.162295609 1.913618789
v -10.992574848 -4.239444764 -2.882607753
v -9.789514698 -4.581188108 -2.882607753
v -9.386753924 -4.218163745 -2.882607753
v -7.625406859 -4.850553491 -2.882607753
v 10.623950672 10.310501623 -2.882607753
v 7.208629574 14.346358387 -2.882607753
v 3.488312046 10.741966969 -2.882607753
v 2.188211153 9.692344600 -2.882607753
v -2.330734173 5.668425770 -2.882607753
v -4.205257818 3.698971844 -2.882607753
v -5.831933379 1.989917615 -2.882607753
v -7.288384557 0.466719944 -2.882607753
v -9.481776715 -1.827191216 -2.882607753
v -10.561224299 -2.956107950 -2.882607753
v -10.601621338 -2.985549434 -2.882607753
v 9.073867341 12.421129977 -2.882607753
v 9.640480455 11.836293188 -2.882607753
v 9.603392798 11.874573676 -2.882607753
v 4.028243578 3.871763411 -2.882607753
v -3.467568505 -3.221374998 -2.882607753
v -5.905540294 -5.264205235 -2.882607753
v -5.469089418 -5.120531344 -2.882607753
v -11.333743473 -3.519121335 -2.882607753
v -11.386063948 -3.557252594 -2.882607753
v -11.780979408 -3.936150363 -2.882607753
v -7.704909030 -3.584293848 -2.882607753
v -7.517189161 -3.769925684 -2.882607753
v -8.396717543 -4.573624007 -2.882607753
v -4.490299692 -11.423261954 -2.882607753
v -4.074480959 -10.847609081 -2.882607753
v -7.038719417 -6.600684444 -2.882607753
g roof
f 1 305 2 3
g roof
f 1 3 4
g roof
f 1 4 5
g roof
f 1 5 6
g roof
f 7 8 9
g roof
f 7 9 10
g roof
f 11 12 13
g roof
f 14 15 16
g roof
f 14 16 17
g roof
f 19 20 21
g roof
f 23 24 25
g roof
f 23 25 26
g roof
f 27 321 25 24 28 29
g roof
f 29 30 31
g roof
f 32 309 33 310 34
g roof
f 34 310 311 35 36
g roof
f 34 310 36 37
g roof
f 34 310 37 38
g roof
f 34 310 38 39
g roof
f 34 310 39 40
g roof
f 40 315 41 42
g roof
f 40 42 43
g roof
f 44 42 41
g roof
f 44 45 46
g roof
f 48 49 50
g roof
f 48 50 51
g roof
f 7 293 50 49
g roof
f 7 49 1
g roof
f 7 1 6
g roof
f 10 11 13
g roof
f 19 21 22
g roof
f 19 22 23
g roof
f 19 23 26 320 27
g roof
f 31 32 310 34
g roof
f 34 310 40 43
g roof
f 34 310 43 54
g roof
f 44 45 46 47
g roof
f 44 47 48
g roof
f 44 48 51
g roof
f 44 51 52
g roof
f 44 52 53
g roof
f 14 18 19 27
g roof
f 31 310 34 54
g roof
f 17 18 14
g roof
f 53 55 7
g roof
f 53 7 10
g roof
f 10 13 14
g roof
f 10 14 27
g roof
f 10 27 29
g roof
f 10 29 31
g roof
f 31 54 44
g roof
f 31 44 53
g roof
f 31 53 10
g roof
f 56 57 58
g roof
f 56 58 59
g roof
f 60 61 62
g roof
f 60 62 56
g roof
f 60 56 58 59
g roof
f 63 64 65
g roof
f 66 67 8
g roof
f 66 8 68
g roof
f 66 68 69
g roof
f 69 70 71
g roof
f 69 71 72
g roof
f 69 72 73
g roof
f 69 73 66
g roof
f 74 75 76
g roof
f 74 76 77
g roof
f 78 79 80
g roof
f 80 79 83
g roof
f 80 83 84
g roof
f 80 84 60
g roof
f 80 60 59
g roof
f 80 59 85
g roof
f 85 57 86
g roof
f 85 86 87
g roof
f 85 87 21
g roof
f 85 21 20
g roof
f 89 17 90
g roof
f 92 93 94
g roof
f 92 93 94 95
g roof
f 98 99 100
g roof
f 98 100 101
g roof
f 98 101 102
g roof
f 98 102 103
g roof
f 98 103 104
g roof
f 98 104 105
g roof
f 98 105 106
g roof
f 98 106 107
g roof
f 98 107 348 350 352 354 108
g roof
f 98 108 109
g roof
f 98 109 110
g roof
f 98 110 111
g roof
f 98 111 112
g roof
f 98 112 113
g roof
f 98 113 114
g roof
f 114 363 365 367 115 116
g roof
f 114 116 117
g roof
f 114 117 314 118
g roof
f 118 74 77
g roof
f 77 78 80
g roof
f 20 88 89
g roof
f 20 89 90
g roof
f 20 90 91
g roof
f 91 92 95 96
g roof
f 91 95 96 97 98
g roof
f 98 114 118
g roof
f 98 118 77
g roof
f 98 77 80
g roof
f 98 80 81
g roof
f 82 80 85
g roof
f 82 85 20
g roof
f 82 20 91
g roof
f 91 98 81
g roof
f 91 81 82
g roof
f 119 120 121
g roof
f 119 121 122
g roof
f 119 122 123
g roof
f 119 123 124
g roof
f 119 124 125
g roof
f 119 125 126
g roof
f 119 126 127
g roof
f 119 127 128
g roof
f 119 128 129
g roof
f 119 129 130
g roof
f 119 130 131
g roof
f 119 131 132
g roof
f 133 134 135
g roof
f 133 135 136
g roof
f 136 137 138
g roof
f 138 139 140
g roof
f 138 140 141
g roof
f 138 141 142
g roof
f 142 143 144
g roof
f 142 143 144 145 146
g roof
f 146 147 148
g roof
f 146 148 149
g roof
f 146 149 150
g roof
f 150 151 152
g roof
f 150 152 153
g roof
f 150 153 154
g roof
f 150 154 119
g roof
f 150 119 132
g roof
f 132 133 136
g roof
f 132 136 138
g roof
f 132 138 141 142
g roof
f 132 142 146
g roof
f 132 146 150
g roof
f 155 11 156
g roof
f 155 156 67
g roof
f 155 67 157
g roof
f 155 157 158
g roof
f 158 73 71
g roof
f 158 71 159
g roof
f 158 159 160
g roof
f 158 160 161
g roof
f 158 161 162
g roof
f 158 162 163
g roof
f 164 165 166
g roof
f 164 166 167
g roof
f 164 166 167 168
g roof
f 169 170 171
g roof
f 169 171 172
g roof
f 169 172 173
g roof
f 169 173 98
g roof
f 169 98 97
g roof
f 169 97 96
g roof
f 169 96 174
g roof
f 169 174 95
g roof
f 169 95 94
g roof
f 169 94 93
g roof
f 169 93 92
g roof
f 169 92 175
g roof
f 175 92 176
g roof
f 175 176 90
g roof
f 90 17 16
g roof
f 16 177 178
g roof
f 177 16 15
g roof
f 177 15 179
g roof
f 177 179 13
g roof
f 177 13 12
g roof
f 177 12 11
g roof
f 177 11 155
g roof
f 177 155 180
g roof
f 181 182 155
g roof
f 181 182 155 158
g roof
f 163 399 164 168
g roof
f 169 175 90
g roof
f 169 90 16
g roof
f 169 16 178
g roof
f 169 178 183
g roof
f 183 177 180
g roof
f 181 158 163
g roof
f 181 163 168 184
g roof
f 168 169 183
g roof
f 168 183 180
g roof
f 168 180 184
g roof
f 185 186 187
g roof
f 187 188 189
g roof
f 187 189 190
g roof
f 187 190 191
g roof
f 187 191 192
g roof
f 187 192 193
g roof
f 187 193 194
g roof
f 187 194 195
g roof
f 195 160 196
g roof
f 195 196 197 198
g roof
f 195 198 199
g roof
f 195 199 200
g roof
f 200 185 187
g roof
f 187 195 200
g roof
f 201 47 202
g roof
f 201 202 203
g roof
f 201 203 204
g roof
f 204 205 206
g roof
f 204 206 207
g roof
f 204 207 208
g roof
f 204 208 201
g roof
f 209 210 211
g roof
f 209 211 212
g roof
f 213 214 215
g roof
f 213 215 216
g roof
f 217 218 219
g roof
f 217 219 220
g roof
f 220 313 221 222
g roof
f 220 222 217
g roof
f 197 223 224
g roof
f 225 226 223
g roof
f 225 223 227
g roof
f 228 229 155
g roof
f 228 155 182
g roof
f 228 182 230
g roof
f 231 232 233
g roof
f 234 235 236
g roof
f 234 236 237
g roof
f 234 237 238
g roof
f 234 238 239
g roof
f 234 239 240
g roof
f 234 240 241
g roof
f 241 242 243
g roof
f 241 243 244
g roof
f 241 244 245
g roof
f 241 245 246
g roof
f 241 246 247
g roof
f 241 247 248
g roof
f 248 231 233
g roof
f 248 233 234
g roof
f 248 234 241
g roof
f 249 250 251
g roof
f 249 251 252
g roof
f 252 253 254
g roof
f 252 254 249
g roof
f 255 64 63
g roof
f 63 256 257
g roof
f 63 257 258
g roof
f 63 258 259
g roof
f 63 259 260
g roof
f 63 260 35
g roof
f 63 35 261
g roof
f 63 261 263 262
g roof
f 63 262 263
g roof
f 63 262 263 264
g roof
f 63 264 265
g roof
f 63 265 266
g roof
f 63 266 267
g roof
f 63 267 268
g roof
f 63 268 269
g roof
f 63 269 270
g roof
f 63 270 271
g roof
f 271 272 22
g roof
f 271 22 56
g roof
f 271 56 273
g roof
f 273 84 255
g roof
f 273 255 63
g roof
f 273 63 271
g roof
f 274 275 276
g roof
f 274 276 277
g roof
f 274 277 278
g roof
f 59 58 279
g roof
f 59 279 85
g roof
f 280 281 282
g roof
f 280 282 283
g roof
f 280 283 284
g roof
f 280 284 285
g roof
f 280 285 286
g roof
f 280 286 287 415
g roof
f 288 289 290
g roof
f 288 290 287
g roof
f 291 292 50
g roof
f 291 50 293
g roof
f 291 293 7 294
g roof
f 291 294 7
g roof
f 294 295 291
g roof
f 8 67 211
g roof
f 8 211 210
g roof
f 202 296 232
g roof
f 202 232 231
g roof
f 98 137 136
g roof
f 98 136 297
g roof
f 98 297 298
g roof
f 98 298 299
g roof
f 300 301 302
g roof
f 300 302 151
g roof
f 300 151 149
g roof
f 300 149 148
g roof
f 300 148 147
g roof
f 300 147 303
g roof
f 300 303 145
g roof
f 300 145 304
g roof
f 168 142 141
g roof
f 168 141 169
g roof_step_or_fixture_side
f 1 49 208 207
g roof_step_or_fixture_side
f 305 1 207 206
g roof_step_or_fixture_side
f 2 305 206 205
g roof_step_or_fixture_side
f 247 246 3 2
g roof_step_or_fixture_side
f 246 245 4 3
g roof_step_or_fixture_side
f 5 4 189 188
g roof_step_or_fixture_side
f 6 5 188 187
g roof_step_or_fixture_side
f 7 6 187 186
g roof_step_or_fixture_side
f 8 7 186 185
g roof_step_or_fixture_side
f 9 8 210
g roof_step_or_fixture_side
f 10 9 210 209
g roof_step_or_fixture_side
f 11 10 209 212
g roof_step_or_fixture_side
f 13 179 14
g roof_step_or_fixture_side
f 179 15 14
g roof_step_or_fixture_side
f 17 89 18
g roof_step_or_fixture_side
f 89 88 19 18
g roof_step_or_fixture_side
f 88 20 19
g roof_step_or_fixture_side
f 21 87 22
g roof_step_or_fixture_side
f 22 272 23
g roof_step_or_fixture_side
f 272 271 24 23
g roof_step_or_fixture_side
f 271 270 28 24
g roof_step_or_fixture_side
f 270 269 29 28
g roof_step_or_fixture_side
f 269 268 30 29
g roof_step_or_fixture_side
f 268 267 31 30
g roof_step_or_fixture_side
f 267 266 32 31
g roof_step_or_fixture_side
f 266 265 309 32
g roof_step_or_fixture_side
f 265 264 33 309
g roof_step_or_fixture_side
f 264 262 263 310 34 33
g roof_step_or_fixture_side
f 262 261 311 310 263
g roof_step_or_fixture_side
f 261 35 311
g roof_step_or_fixture_side
f 36 35 221 313
g roof_step_or_fixture_side
f 37 36 313 220
g roof_step_or_fixture_side
f 38 37 220 314 117
g roof_step_or_fixture_side
f 39 38 117 116
g roof_step_or_fixture_side
f 40 39 116 115
g facade_completed
f 315 40 115 316 317
g facade_completed
f 41 315 317 318
g roof_step_or_fixture_side
f 250 249 44 41
g roof_step_or_fixture_side
f 249 254 45 44
g roof_step_or_fixture_side
f 254 253 202 46 45
g roof_step_or_fixture_side
f 202 47 46
g roof_step_or_fixture_side
f 48 47 201
g roof_step_or_fixture_side
f 49 48 201 208
g roof_step_or_fixture_side
f 44 54 215 214
g roof_step_or_fixture_side
f 42 44 214 213
g roof_step_or_fixture_side
f 43 42 213 216
g roof_step_or_fixture_side
f 54 43 216 215
g roof_step_or_fixture_side
f 7 55 294
g roof_step_or_fixture_side
f 51 50 292
g roof_step_or_fixture_side
f 52 51 292 291
g roof_step_or_fixture_side
f 53 52 291 295
g roof_step_or_fixture_side
f 55 53 295 294
g roof_step_or_fixture_side
f 274 278 27 320
g roof_step_or_fixture_side
f 278 277 321 27
g roof_step_or_fixture_side
f 277 276 25 321
g roof_step_or_fixture_side
f 276 275 26 25
g roof_step_or_fixture_side
f 275 274 320 26
g roof_step_or_fixture_side
f 58 57 279
g roof_step_or_fixture_side
f 60 84 61
g roof_step_or_fixture_side
f 84 273 62 61
g roof_step_or_fixture_side
f 273 56 62
g roof_step_or_fixture_side
f 86 57 56
g roof_step_or_fixture_side
f 63 65 256
g roof_step_or_fixture_side
f 65 64 79 78 256
g roof_step_or_fixture_side
f 68 8 185 200
g roof_step_or_fixture_side
f 69 68 200 199
g roof_step_or_fixture_side
f 70 69 199 198
g roof_step_or_fixture_side
f 71 70 198 197
g roof_step_or_fixture_side
f 72 71 197 224
g roof_step_or_fixture_side
f 73 72 224 223
g roof_step_or_fixture_side
f 66 73 223 226
g facade_completed
f 67 66 226 327 328
g roof_step_or_fixture_side
f 258 257 77 76
g roof_step_or_fixture_side
f 257 256 78 77
g roof_step_or_fixture_side
f 64 255 83 79
g roof_step_or_fixture_side
f 255 84 83
g roof_step_or_fixture_side
f 57 85 279
g roof_step_or_fixture_side
f 87 86 56 22
g roof_step_or_fixture_side
f 90 176 91
g roof_step_or_fixture_side
f 176 92 91
g facade_completed
f 96 95 335 336
g roof_step_or_fixture_side
f 98 299 99
g facade_completed
f 100 99 339 340
g facade_completed
f 101 100 340 341
g facade_completed
f 102 101 341 342
g facade_completed
f 103 102 342 343
g facade_completed
f 104 103 343 344
g facade_completed
f 105 104 344 345
g facade_completed
f 106 105 345 346
g facade_completed
f 107 106 346 347
g facade_completed
f 348 107 347 349
g facade_completed
f 350 348 349 351
g facade_completed
f 352 350 351 353
g facade_completed
f 354 352 353 355
g facade_completed
f 108 354 355 356
g facade_completed
f 109 108 356 357
g facade_completed
f 110 109 357 358
g facade_completed
f 111 110 358 359
g facade_completed
f 112 111 359 360
g facade_completed
f 113 112 360 361
g facade_completed
f 114 113 361 362
g facade_completed
f 363 114 362 364
g facade_completed
f 365 363 364 366
g facade_completed
f 367 365 366 368
g facade_completed
f 115 367 368 316
g roof_step_or_fixture_side
f 220 219 118 314
g roof_step_or_fixture_side
f 219 218 74 118
g roof_step_or_fixture_side
f 218 217 75 74
g roof_step_or_fixture_side
f 259 258 76 75 217
g facade_completed
f 80 82 369 370
g facade_completed
f 81 80 370 371
g facade_completed
f 82 81 371 369
g roof_step_or_fixture_side
f 120 119 288 287
g roof_step_or_fixture_side
f 121 120 287 286
g facade_completed
f 122 121 286 372 373
g facade_completed
f 123 122 373 374
g facade_completed
f 124 123 374 375
g facade_completed
f 125 124 375 376
g facade_completed
f 126 125 376 377
g facade_completed
f 127 126 377 378
g facade_completed
f 128 127 378 379
g facade_completed
f 129 128 379 380
g facade_completed
f 130 129 380 381
g facade_completed
f 131 130 381 382
g facade_completed
f 132 131 382 383
g facade_completed
f 133 132 383 384
g facade_completed
f 134 133 384 385
g facade_completed
f 135 134 385 386
g facade_completed
f 136 135 386 387
g facade_completed
f 138 137 173 388 389
g facade_completed
f 139 138 389 390 172
g roof_step_or_fixture_side
f 140 139 172 171
g roof_step_or_fixture_side
f 141 140 171 170
g roof_step_or_fixture_side
f 143 142 167 166
g roof_step_or_fixture_side
f 144 143 166 165
g facade_completed
f 145 144 165 392 393
g roof_step_or_fixture_side
f 145 303 146
g roof_step_or_fixture_side
f 303 147 146
g facade_completed
f 150 149 395 396
g facade_completed
f 151 150 396 397 161
g roof_step_or_fixture_side
f 152 151 161 160
g roof_step_or_fixture_side
f 153 152 160 195 290
g roof_step_or_fixture_side
f 154 153 290 289
g roof_step_or_fixture_side
f 119 154 289 288
g roof_step_or_fixture_side
f 156 11 212 211
g roof_step_or_fixture_side
f 67 156 211
g facade_completed
f 157 67 328 398 225
g roof_step_or_fixture_side
f 158 157 225 227
g roof_step_or_fixture_side
f 73 158 227 223
g roof_step_or_fixture_side
f 71 73 223 197
g roof_step_or_fixture_side
f 159 71 197 196
g roof_step_or_fixture_side
f 160 159 196
g roof_step_or_fixture_side
f 151 302 162 161
g roof_step_or_fixture_side
f 302 301 163 162
g roof_step_or_fixture_side
f 301 300 399 163
g roof_step_or_fixture_side
f 300 304 164 399
g facade_completed
f 165 164 400 392
g roof_step_or_fixture_side
f 142 168 167
g roof_step_or_fixture_side
f 169 141 170
g facade_completed
f 173 172 390 388
g roof_step_or_fixture_side
f 137 98 173
g facade_completed
f 174 96 336 402
g facade_completed
f 95 174 402 335
g facade_completed
f 175 92 334 405
g facade_completed
f 92 175 405 334
g roof_step_or_fixture_side
f 229 228 184 180
g roof_step_or_fixture_side
f 228 230 184
g facade_completed
f 181 230 409 410
g facade_completed
f 182 181 410 411
g roof_step_or_fixture_side
f 155 229 180
g facade_completed
f 178 177 412 413
g facade_completed
f 183 178 413 414
g facade_completed
f 177 183 414 412
g roof_step_or_fixture_side
f 245 244 190 189 4
g roof_step_or_fixture_side
f 244 243 191 190
g roof_step_or_fixture_side
f 281 280 192 191 243
g roof_step_or_fixture_side
f 280 415 193 192
g roof_step_or_fixture_side
f 415 287 194 193
g roof_step_or_fixture_side
f 287 290 195 194
g roof_step_or_fixture_side
f 202 231 203
g roof_step_or_fixture_side
f 231 248 204 203
g roof_step_or_fixture_side
f 248 247 2 205 204
g roof_step_or_fixture_side
f 35 260 222 221
g roof_step_or_fixture_side
f 260 259 217 222
g facade_completed
f 226 225 398 327
g facade_completed
f 230 182 411 409
g facade_completed
f 234 233 421 422
g facade_completed
f 235 234 422 423
g facade_completed
f 236 235 423 424
g facade_completed
f 237 236 424 425
g facade_completed
f 238 237 425 426
g facade_completed
f 239 238 426 427
g facade_completed
f 240 239 427 428
g facade_completed
f 241 240 428 429
g facade_completed
f 242 241 429 430
g roof_step_or_fixture_side
f 282 281 243 242
g facade_completed
f 233 232 431 421
g facade_completed
f 252 251 432 433 296
g roof_step_or_fixture_side
f 253 252 296 202
g facade_completed
f 251 250 41 318 432
g facade_completed
f 283 282 242 430 438
g facade_completed
f 284 283 438 439
g facade_completed
f 285 284 439 440
g facade_completed
f 286 285 440 372
g facade_completed
f 232 296 433 431
g facade_completed
f 297 136 387 444
g facade_completed
f 298 297 444 445
g facade_completed
f 299 298 445 339 99
g facade_completed
f 149 151 161 397 395
g facade_completed
f 304 145 393 400 164
g ground_assumed
f 361 364 362
g ground_assumed
f 361 366 364
g ground_assumed
f 361 368 366
g ground_assumed
f 361 316 368
g ground_assumed
f 361 317 316
g ground_assumed
f 361 318 317
g ground_assumed
f 361 432 318
g ground_assumed
f 361 433 432
g ground_assumed
f 361 431 433
g ground_assumed
f 361 421 431
g ground_assumed
f 361 422 421
g ground_assumed
f 361 423 422
g ground_assumed
f 361 424 423
g ground_assumed
f 361 425 424
g ground_assumed
f 361 426 425
g ground_assumed
f 361 427 426
g ground_assumed
f 361 428 427
g ground_assumed
f 361 429 428
g ground_assumed
f 361 430 429
g ground_assumed
f 361 438 430
g ground_assumed
f 361 439 438
g ground_assumed
f 361 440 439
g ground_assumed
f 361 372 440
g ground_assumed
f 361 373 372
g ground_assumed
f 361 374 373
g ground_assumed
f 361 375 374
g ground_assumed
f 361 376 375
g ground_assumed
f 361 377 376
g ground_assumed
f 361 378 377
g ground_assumed
f 361 379 378
g ground_assumed
f 361 380 379
g ground_assumed
f 361 381 380
g ground_assumed
f 361 382 381
g ground_assumed
f 361 383 382
g ground_assumed
f 384 386 385
g ground_assumed
f 384 387 386
g ground_assumed
f 384 444 387
g ground_assumed
f 384 445 444
g ground_assumed
f 384 339 445
g ground_assumed
f 384 340 339
g ground_assumed
f 384 341 340
g ground_assumed
f 384 342 341
g ground_assumed
f 384 343 342
g ground_assumed
f 384 344 343
g ground_assumed
f 384 345 344
g ground_assumed
f 384 346 345
g ground_assumed
f 346 349 347
g ground_assumed
f 346 351 349
g ground_assumed
f 346 353 351
g ground_assumed
f 346 355 353
g ground_assumed
f 346 356 355
g ground_assumed
f 356 358 357
g ground_assumed
f 358 360 359
g ground_assumed
f 360 383 361
g ground_assumed
f 360 384 383
g ground_assumed
f 360 346 384
g ground_assumed
f 360 356 346
g ground_assumed
f 360 358 356
