# Source coordinates; no display transform
v 2682087.5698 1251986.8401 455.386566223
v 2682091.0396 1251993.7797 455.39489285
v 2682082.6 1251997.9995 455.394741726
v 2682079.1302 1251991.0599 455.386415099
v 2682087.5698 1251986.8401 448.108009461
v 2682091.0396 1251993.7797 448.108009461
v 2682082.6 1251997.9995 448.108009461
v 2682079.1302 1251991.0599 448.108009461
g roof
f 1 2 3 4
g wall
f 2 1 5 6
g wall
f 3 2 6 7
g wall
f 4 3 7 8
g wall
f 1 4 8 5
g ground_assumed
f 8 7 6 5
