# Source coordinates; no display transform
v 2680407.75 1247031.875 439.386261037
v 2680413.25 1247032.875 439.33621602
v 2680415 1247033.25 439.320127763
v 2680416.75 1247033.75 439.30367686
v 2680416.75 1247035.25 439.299325081
v 2680416.25 1247038.125 439.295269974
v 2680415.5 1247041.75 439.291181883
v 2680415 1247041.875 439.295105041
v 2680413.5 1247041.625 439.308687745
v 2680410.25 1247041 439.338358706
v 2680409.25 1247040.75 439.347655611
v 2680405.75 1247036.125 439.391074215
v 2680405.75 1247035.375 439.393250102
v 2680406.25 1247032.75 439.396579912
v 2680406.5 1247031.875 439.396975548
v 2680406.75 1247031.75 439.395195291
v 2680407.75 1247031.875 433.89622876
v 2680413.25 1247032.875 433.89622876
v 2680415 1247033.25 433.89622876
v 2680416.75 1247033.75 433.89622876
v 2680416.75 1247035.25 433.89622876
v 2680416.25 1247038.125 433.89622876
v 2680415.5 1247041.75 433.89622876
v 2680415 1247041.875 433.89622876
v 2680413.5 1247041.625 433.89622876
v 2680410.25 1247041 433.89622876
v 2680409.25 1247040.75 433.89622876
v 2680405.75 1247036.125 433.89622876
v 2680405.75 1247035.375 433.89622876
v 2680406.25 1247032.75 433.89622876
v 2680406.5 1247031.875 433.89622876
v 2680406.75 1247031.75 433.89622876
g roof
f 1 2 3 4 5 6 7 8 9 10 11 12 13 14 15 16
g wall
f 2 1 17 18
g wall
f 3 2 18 19
g wall
f 4 3 19 20
g wall
f 5 4 20 21
g wall
f 6 5 21 22
g wall
f 7 6 22 23
g wall
f 8 7 23 24
g wall
f 9 8 24 25
g wall
f 10 9 25 26
g wall
f 11 10 26 27
g wall
f 12 11 27 28
g wall
f 13 12 28 29
g wall
f 14 13 29 30
g wall
f 15 14 30 31
g wall
f 16 15 31 32
g wall
f 1 16 32 17
g ground_assumed
f 32 31 30 29 28 27 26 25 24 23 22 21 20 19 18 17
