v 2680407.75 1247031.8749999991 439.38626103749982
v 2680413.2500000005 1247032.8750000026 439.33621602049982
v 2680415 1247033.2500000005 439.32012776316594
v 2680416.7499999995 1247033.7499999995 439.30367685993554
v 2680416.7499999995 1247035.2500000023 439.29932508138364
v 2680416.2500000005 1247038.1250000009 439.29526997420083
v 2680415.4999999991 1247041.7500000009 439.29118188253364
v 2680415 1247041.8750000021 439.29510504066144
v 2680413.4999999972 1247041.6249999998 439.30868774452796
v 2680410.2500000009 1247040.9999999998 439.33835870572824
v 2680409.2500000028 1247040.7499999974 439.34765561112886
v 2680405.7499999981 1247036.1249999993 439.39107421529354
v 2680405.7499999981 1247035.3749999979 439.39325010179022
v 2680406.2499999972 1247032.7500000014 439.39657991162125
v 2680406.4999999995 1247031.8749999991 439.39697554756088
v 2680406.7500000019 1247031.7499999979 439.39519529144525
v 2680407.75 1247031.8749999991 433.89622876020189
v 2680413.2500000005 1247032.8750000026 433.89622876020189
v 2680415 1247033.2500000005 433.89622876020189
v 2680416.7499999995 1247033.7499999995 433.89622876020189
v 2680416.7499999995 1247035.2500000023 433.89622876020189
v 2680416.2500000005 1247038.1250000009 433.89622876020189
v 2680415.4999999991 1247041.7500000009 433.89622876020189
v 2680415 1247041.8750000021 433.89622876020189
v 2680413.4999999972 1247041.6249999998 433.89622876020189
v 2680410.2500000009 1247040.9999999998 433.89622876020189
v 2680409.2500000028 1247040.7499999974 433.89622876020189
v 2680405.7499999981 1247036.1249999993 433.89622876020189
v 2680405.7499999981 1247035.3749999979 433.89622876020189
v 2680406.2499999972 1247032.7500000014 433.89622876020189
v 2680406.4999999995 1247031.8749999991 433.89622876020189
v 2680406.7500000019 1247031.7499999979 433.89622876020189
l 1 2
l 2 3
l 3 4
l 4 5
l 5 6
l 6 7
l 7 8
l 8 9
l 9 10
l 10 11
l 11 12
l 12 13
l 13 14
l 14 15
l 15 16
l 1 16
l 17 18
l 18 19
l 19 20
l 4 20
l 20 21
l 21 22
l 22 23
l 7 23
l 23 24
l 8 24
l 24 25
l 25 26
l 26 27
l 11 27
l 27 28
l 12 28
l 28 29
l 13 29
l 29 30
l 30 31
l 15 31
l 31 32
l 16 32
l 17 32
