v -0.16759841302579012 0.27433696562336907 0.07517375489686387
v -0.50152057893005475 0.24102054647697979 0.075171195686950923
v -0.4501223132225341 -0.27413146095971191 0.075254187300339642
v 0.17138407010515672 -0.21212189920007959 0.075258950517884504
v 0.50156046181683744 -0.17917920718737965 0.075261481012395659
v 0.46768904184113713 0.16030559350194906 0.075206789634005705
v 0.46278107783848604 0.20949689352921141 0.075198864866810239
v 0.13260468616702298 0.17655420151651147 0.075196334372299084
v -0.15497953129662087 0.14786105890326839 0.075194130324449521
v -0.4501223132225341 -0.27413146095971191 -0.18146250053879853
v 0.17138407010515672 -0.21212189920007959 -0.18146250053879853
v 0.50156046181683744 -0.17917920718737965 -0.18146250053879853
v 0.46768904184113713 0.16030559350194906 -0.18146250053879853
v 0.46278107783848604 0.20949689352921141 -0.18146250053879853
v 0.13260468616702298 0.17655420151651147 -0.18146250053879853
v -0.15497953129662087 0.14786105890326839 -0.18146250053879853
v -0.16759841302579012 0.27433696562336907 -0.18146250053879853
v -0.50152057893005475 0.24102054647697979 -0.18146250053879853
l 1 2
l 2 3
l 4 5
l 5 6
l 6 7
l 7 8
l 8 9
l 1 9
l 3 4
l 3 10
l 10 11
l 11 12
l 5 12
l 12 13
l 13 14
l 7 14
l 14 15
l 15 16
l 9 16
l 16 17
l 1 17
l 17 18
l 2 18
l 10 18
