# Source coordinates; no display transform
v 0.346021151023 0.111821716546 0.168916332063
v 0.346616377871 0.110703972059 0.169074453742
v 0.391477462166 0.0979503182356 0.168952201356
v 0.384394595965 0.0911300247619 0.170459242241
v 0.37214132774 0.0632623220116 0.175772571662
v 0.359257735257 0.0669250261611 0.175807681158
v 0.331521011847 0.0748103587118 0.175883267408
v 0.338536309292 0.0555247886126 0.178776201033
v 0.301871830422 0.0256154435809 0.185668661337
v 0.301883087362 0.0496098025063 0.181627140253
v 0.275946387505 0.0615612032256 0.180926862055
v 0.262664523917 0.10022500027 0.175087501823
v 0.244041504373 0.110516030645 0.174296752985
v 0.262665856762 0.114061504415 0.172757193261
v 0.275897611853 0.14715382623 0.166514457539
v 0.200928686427 0.190836364359 0.162951459427
v 0.191243993854 0.196479395121 0.162491181491
v 0.102281754024 0.22094281335 0.162873035291
v 0.102292607461 0.172101640904 0.171097952942
v 0.128344275323 0.159861317099 0.171841071654
v 0.127756568047 0.15459407688 0.172757881107
v 0.125392998718 0.133410933583 0.176444993369
v 0.115336915362 0.04328476228 0.192132245648
v 0.07545101867 0.0132069858389 0.19921608693
v 0.0572185228115 -0.015388808421 0.204954605932
v 0.110763355194 -0.0332248613809 0.205248865371
v 0.155391040787 0.00238590393887 0.196993248127
v 0.165078389521 0.0364612343366 0.190764320757
v 0.200593329551 -0.0631476776189 0.205742532382
v 0.196246968605 -0.0784360387747 0.20853722553
v 0.204329940718 -0.0811267942468 0.20858135585
v 0.198521972854 -0.0927911662065 0.210839686085
v 0.198459453218 -0.0929167278574 0.210863995988
v 0.220386164801 -0.100055071992 0.210956614441
v 0.316976276234 -0.131500426937 0.211364609526
v 0.280721961116 -0.0898389277447 0.206182885009
v 0.235234781452 -0.0510616733321 0.201954118794
v 0.223140287346 -0.0602775471478 0.204118211397
v 0.277962734185 -0.0758631381088 0.203968813022
v 0.304335917108 -0.0011798515304 0.190056634182
v 0.334639442331 -0.108148477261 0.206538029834
v 0.358966689906 -0.0225771799535 0.190895704738
v 0.370895169212 0.0589008197752 0.176570163414
v 0.428782759358 0.265952857537 0.138770685033
v 0.446216547232 0.294066127781 0.133153846508
v 0.452049176268 0.31458244926 0.129403488844
v 0.0248127387652 0.436042412228 0.13056776443
v -0.000490046828508 0.34703965199 0.146837356632
v 0.0281165992101 0.349159746989 0.145032709598
v 0.0176934518377 0.265159535627 0.159706847984
v 0.0443463704162 0.223834531347 0.165317766823
v 0.0582262610103 0.272657162945 0.156393051403
v 0.0443671068557 0.319083538441 0.14927558832
v 0.164885962602 0.204539457813 0.162467574317
v 0.217989731618 0.233219848482 0.154950199765
v 0.186305987817 0.26997004137 0.150364314011
v 0.227535611215 0.258248783316 0.150251957851
v 0.21799186616 0.244961867149 0.152972588324
v 0.218002590863 0.220473251244 0.157096236121
v 0.220368500349 0.218256831186 0.157349785797
v 0.244093746936 0.196030658279 0.159892371983
v 0.277285375457 0.208742369837 0.156071947524
v 0.289000694439 0.2132290962 0.154723490311
v 0.294186898772 0.218896106261 0.153506654545
v 0.343268420522 0.229155939786 0.149295072967
v 0.356640436612 0.261525799368 0.143166911226
v 0.364871744758 0.281451462544 0.139394646287
v 0.359862526827 0.306124266855 0.135492920085
v 0.41448562321 0.233532990039 0.144954083023
v 0.404739599185 0.24448930619 0.143602084672
v 0.404698859513 0.14386736874 0.160550144347
v 0.359812969906 0.195798082889 0.154075742906
v 0.356221929596 0.191607321503 0.154963238982
v 0.338486760003 0.170910293556 0.159346340072
v 0.333761869547 0.134842710812 0.165659670039
v 0.330119723524 0.0388672053179 0.182007455974
v 0.191173111474 0.0147524816492 0.19309986315
v 0.301860150308 0.000719104422016 0.189862108603
v 0.301871829568 0.025613657892 0.18566896208
v 0.42091188428 0.256137417119 0.140822022287
v 0.31615699178 -0.0102468204836 0.190985437858
v 0.149166166695 -0.0460170310368 0.205459910777
v 0.20636277926 -0.0428535899009 0.202032798787
v 0.418661673256 0.184453796595 0.15300831291
v 0.39066116552 0.0859617759542 0.171012529905
v 0.333852063854 -0.0238192470956 0.192375772401
v -0.0266100394506 -0.00244221179435 0.207016255096
v -0.0279673968113 -0.00379686853396 0.207313083294
v -0.020115182548 -0.00641080790923 0.207355954
v -0.0157568525471 0.00891965434472 0.204553564863
v -0.00978927464528 0.0299106596639 0.200716435581
v 0.0296613319529 0.0186951620967 0.200608927523
v -0.0450077154698 0.0486597707266 0.199341026144
v -0.0327368346468 0.0145757735236 0.204460249889
v -0.0264616100892 0.13468207128 0.183915292451
v -0.00887684300762 0.129682860108 0.183867371678
v 0.00324921741882 0.145088022024 0.180659327801
v -0.031899956838 0.150963055556 0.181448569606
v -0.307514275134 0.106105520836 0.202950190908
v -0.276735830547 0.0958530661576 0.203119336044
v -0.276718826498 0.127044725439 0.197865408389
v -0.298308626963 0.133182536128 0.197924243412
v -0.293962670231 0.148469475189 0.195129810245
v -0.288120592694 0.146808618441 0.195113889819
v -0.289659357025 0.143708013658 0.195713937469
v -0.276713709884 0.136430472478 0.196284471767
v -0.236017741288 0.115473726658 0.197754492572
v -0.218824586161 0.197283184077 0.183106718575
v -0.226692737108 0.206792725326 0.181903348375
v -0.220752882034 0.210520120577 0.180975030723
v -0.209819025019 0.22870907869 0.177358490287
v -0.200296804307 0.244549716833 0.174208870205
v -0.231803360595 0.128767873837 0.195302328775
v -0.166445022646 0.0956947492915 0.197564897758
v -0.121959445926 0.0830478492745 0.197443668704
v -0.129152522181 0.160323444475 0.184793482695
v -0.146614469374 0.1805284818 0.182274336272
v -0.102587368597 0.174970310413 0.180982476781
v -0.0773170261474 0.186483981678 0.177764662142
v -0.0796895591862 0.178138576947 0.179290191596
v -0.0842604922008 0.134413983033 0.1868852676
v -0.0618558152889 0.13118504725 0.186295305865
v -0.0472681868822 0.18249715233 0.176915517853
v -0.07611869407 0.190699124869 0.17699413931
v -0.0666750195934 0.223917328938 0.170921893512
v -0.127075069997 0.241088588781 0.17108649162
v -0.149769989046 0.211637609443 0.177194848774
v -0.186387083172 0.222047561658 0.177294635152
v -0.179573276364 0.246015184354 0.172913384022
v -0.200309501639 0.262618146157 0.171166562283
v -0.232406507345 0.24726736111 0.175376048092
v -0.235598899639 0.236038094485 0.177428743879
v -0.267959977379 0.245238094704 0.177516932048
v -0.192290738159 0.209024675815 0.179786598331
v -0.195830671478 0.224732299661 0.177320370184
v -0.200729856578 0.0231019750168 0.211525365279
v -0.190122580238 0.0335879377444 0.209222632135
v -0.316439493687 0.0747109898197 0.208689071561
v -0.319866487276 0.0626565111378 0.210892615026
v -0.094314336786 0.289384300137 0.161295079462
v -0.101751586877 0.263223710654 0.166077202211
v -0.071320987187 0.233280090149 0.169580189155
v -0.0452085748083 0.245641111008 0.166177058549
v -0.0351402618958 0.225157230114 0.169117309471
v -0.0471174200666 0.343584005332 0.149778839202
v -0.0550368341359 0.315727399931 0.154870991516
v -0.122339486925 0.33486101541 0.155054400122
v -0.130199278588 0.30721413243 0.160108215391
v -0.0887192307313 0.292657720117 0.160460662486
v -0.439916250209 -0.35961953575 0.126597406846
v -0.445975703688 -0.380933714128 0.122592489921
v -0.0249123993311 -0.500638703868 0.128900677346
v -0.137197598622 -0.34123821262 0.148878088626
v -0.0404817252321 -0.445442735305 0.13729359603
v -0.0950673605876 -0.382027565059 0.1446138734
v -0.066435676369 -0.1134789434 0.192054325499
v -0.068421371851 -0.108054299589 0.192850349832
v -0.0875653035533 -0.355639016462 0.149572260435
v -0.0264717639732 -0.28131344124 0.166067057807
v -0.00851983926316 -0.264498778889 0.170060087203
v -0.0265079587988 -0.219145586186 0.176627568474
v -0.045432783473 -0.221945330965 0.174954212425
v -0.0664115517939 -0.191219715735 0.178847091424
v -0.0265335637694 -0.167999000498 0.185316150017
v -0.0265571825556 -0.123813820036 0.192822060498
v -0.0224800305455 -0.126960061178 0.192545512292
v -0.0265603085778 -0.117965742994 0.193815496358
v 0.00120878199651 -0.110643366678 0.196816992088
v -0.00856763585294 -0.122726126637 0.194145336671
v 0.0175062758134 -0.158807889335 0.189664852778
v 0.0445878171835 -0.146209907023 0.193519203336
v 0.0574084345791 -0.105949213543 0.2011711606
v 0.0754018387567 -0.109285709949 0.201742976647
v 0.0296444936086 -0.177979566996 0.187175603112
v 0.0493108739838 -0.188442398382 0.186642473864
v 0.0493237920976 -0.217568570506 0.18169452861
v -0.000494790606865 -0.219440160399 0.178223761564
v -0.00850596460137 -0.310192032384 0.162297326741
v -0.0215280934432 -0.396730270913 0.146769702654
v 0.0743887579001 -0.151346051254 0.194532485304
v 0.291474234981 -0.213061747061 0.197784765579
v 0.313267529285 -0.136403651664 0.212188759952
v 0.313605002501 -0.135957490359 0.212285923205
v 0.316976276234 -0.131500426937 0.21325656397
v 0.220386164801 -0.100055071992 0.212486667934
v 0.198459451748 -0.0929167297059 0.212311895513
v 0.196634585108 -0.0965816774133 0.211573705718
v 0.191402348497 -0.107089783698 0.20945717475
v 0.190702710604 -0.108494893568 0.209174159074
v 0.187958318296 -0.107591435735 0.209153984733
v 0.195951580229 -0.0794750697573 0.214437027213
v 0.139243208265 -0.0603721179904 0.214093977239
v 0.133277651006 -0.0690022149743 0.212250126431
v 0.120795567272 -0.0533188703179 0.2141249197
v 0.0484004154011 -0.0292191028487 0.21363812954
v 0.0481109846779 -0.0296730434238 0.213542684859
v 0.044539563578 -0.0352744518599 0.212364944704
v -0.015406176874 -0.0217181567391 0.210874597835
v -0.0248024226201 -0.0195932638326 0.210640992145
v -0.0264922471155 -0.0196826696668 0.210518860814
v -0.0310815465054 -0.0199254820781 0.210187171251
v -0.0413518624808 -0.0204688678281 0.209444888789
v -0.0374365421683 -0.031113015512 0.207884146511
v -0.0364831132949 -0.0337049970372 0.207504086505
v -0.0791244456582 -0.0196674097382 0.207190624535
v -0.0877070521041 -0.0301951712092 0.204858725802
v -0.0310019561777 -0.0486060118141 0.205319163471
v -0.0403210124694 -0.0795649563066 0.199469241918
v -0.04604200803 -0.0743476101062 0.199993656299
v -0.0486520769907 -0.0835285495158 0.198268565182
v -0.0717956980915 -0.0988361096953 0.194203047594
v -0.0844277538641 -0.107191152852 0.191984041145
v -0.12678930559 -0.16829329833 0.178921461145
v -0.143305110284 -0.155313530425 0.180081621644
v -0.155865592559 -0.199495132067 0.171779934299
v -0.142244045566 -0.207081820775 0.171352936705
v -0.129300174776 -0.245324594372 0.165674345498
v -0.128949654381 -0.246360209776 0.165520569118
v -0.174097038447 -0.265392372063 0.159429704406
v -0.174469600636 -0.264934886369 0.159483857175
v -0.206581251275 -0.377887886493 0.138260079477
v -0.219082341927 -0.358646752481 0.140738165909
v -0.219042997617 -0.296490517298 0.151301482754
v -0.257940589756 -0.268145988914 0.153655803746
v -0.27691290511 -0.296713775245 0.14760125193
v -0.276886190542 -0.246735137194 0.156094701194
v -0.257955009974 -0.230947874627 0.15997513957
v -0.276864366735 -0.184623197657 0.166649383037
v -0.276824420986 -0.110054345565 0.179321737914
v -0.28649965501 -0.100789665336 0.180283581717
v -0.302616420981 -0.0853567914469 0.181885797158
v -0.308561299674 -0.0906771758898 0.18060560086
v -0.355748106827 -0.132907129821 0.170444186362
v -0.315831123155 -0.204673314166 0.160776701083
v -0.40555359064 -0.271456157523 0.143751690463
v -0.39265975431 -0.33438187211 0.133876109573
v -0.418225620837 -0.359345553222 0.128016650268
v -0.0239908542527 -0.067666318254 0.20252436709
v -0.136604561392 -0.336222904984 0.149767758678
v -0.135731664511 -0.336081777164 0.149846978682
v -0.0354287222781 -0.116967863908 0.193423806149
v -0.0453687014418 -0.109297418502 0.194098022693
v 0.0174942840074 -0.196220239796 0.183307445056
v -0.00855424422868 -0.157657222648 0.188211119737
v -0.0132746964371 -0.147251743235 0.189680357615
v -0.0132683648583 -0.17122322151 0.185607818042
v -0.0454196177497 -0.196315360982 0.17930977649
v -0.013278180507 -0.134060909921 0.191921362155
v -0.166952666936 -0.193320049138 0.172127483239
v -0.161141835353 -0.184896134954 0.173926510192
v -0.174061669208 -0.163089320813 0.176814025416
v -0.209939383363 -0.169378066914 0.173474997223
v -0.212525612803 -0.167937634492 0.173556068325
v -0.21309222744 -0.169930706262 0.173181571711
v -0.387564215235 -0.216290270809 0.154263260673
v -0.390338903443 -0.185230803225 0.159364909171
v -0.403862825949 -0.23280131395 0.150426448535
v -0.24478465127 -0.0353483479756 0.194042503949
v -0.218944600772 -0.0846978870177 0.187292921937
v -0.142282036982 -0.106423464399 0.188453168607
v -0.129038192871 -0.0721273014799 0.195118489743
v -0.156019320734 -0.0298941371102 0.200586731354
v -0.213862721454 0.0101193085543 0.203724706349
v -0.213371291507 0.0106051166667 0.203838349093
v -0.324414641784 0.0466583395778 0.202936692259
v -0.355130562374 -0.0613851684645 0.182635404148
v -0.329635693832 -0.0646121847527 0.183700552005
v -0.2767777348 -0.0104154506347 0.19625411425
v 0.20383078108 -0.0821292808878 0.214484691419
v 0.204329942282 -0.0811267960954 0.214686610776
v 0.196246968605 -0.0784360387747 0.214632260309
v -0.129067748549 -0.0167663042425 0.204522882523
v -0.129071202189 -0.00322486640066 0.206823459417
v -0.129071847234 -0.000689190907654 0.20725424955
v -0.129075356094 0.0130622236476 0.209590499555
v -0.129075522273 0.0137137872903 0.209701194779
v -0.129075822542 0.0148911756074 0.209901223175
v -0.136007047094 0.0183488788372 0.210050071207
v -0.0975650914942 0.00557736897758 0.210312891971
v -0.0939825345093 0.0181790432015 0.212680736403
v -0.311888746911 0.09071827975 0.211215519525
v -0.315508865314 0.077984482888 0.208822849352
v -0.188048325079 0.035638469983 0.209694274274
v -0.190103983791 0.0336063214674 0.209218904105
v -0.187897584285 0.0328635800945 0.209232338577
v -0.200729856578 0.0231019750168 0.206761675642
v -0.202806640729 0.0210489466814 0.206281420873
v 0.187958318912 -0.107591433508 0.209716100309
v 0.190702710604 -0.108494893568 0.209733639297
v 0.196634585724 -0.0965816788826 0.207386864942
v 0.198459451748 -0.0929167297059 0.206664909635
v 0.198521972854 -0.0927911662065 0.206640174995
v 0.203830779895 -0.0821292827363 0.204539899418
v 0.195951580229 -0.0794750697573 0.204479163574
v 0.192714440297 -0.0908617365628 0.206600037188
v 0.192666385955 -0.0910307682736 0.206631520892
v 0.191572732153 -0.0948777045774 0.207348048936
v 0.188385671473 -0.106088217156 0.209436112162
v -0.229813287393 0.37941939628 0.146942485383
v -0.267959977379 0.245238094704 0.171935012761
v -0.235598899639 0.236038094485 0.171891880652
v -0.232406507345 0.24726736111 0.169800324303
v -0.200309501639 0.262618146157 0.165548195348
v -0.179573276364 0.246015184354 0.167362094463
v -0.186387083172 0.222047561658 0.171826289218
v -0.149769989046 0.211637609443 0.17177748451
v -0.127075069997 0.241088588781 0.165572620334
v -0.0666750195934 0.223917328938 0.165492116781
v -0.071320987187 0.233280090149 0.164115249463
v -0.101751586877 0.263223710654 0.160493920883
v -0.094314336786 0.289384300137 0.155621265449
v -0.0887192314423 0.292657719169 0.15477728323
v -0.130199278588 0.30721413243 0.154357221545
v -0.122339486925 0.33486101541 0.149207730008
v -0.0550368341359 0.315727399931 0.149118026369
v -0.0471174200666 0.343584005332 0.143929472069
v -0.0351402618958 0.225157230114 0.163695026007
v -0.0452085748083 0.245641111008 0.160677881776
v -0.07611869407 0.190699124869 0.171679319159
v -0.0365089927973 0.179438397954 0.171626525826
v -0.0402109712017 0.175844053308 0.172430617563
v -0.031899956838 0.150963055556 0.17629224217
v 0.00324921741882 0.145088022024 0.175537246356
v 0.0132578169198 0.174504818268 0.169975438845
v -0.0140608049205 0.182271287848 0.17001185014
v -0.0203702906841 0.195107872878 0.16812110355
v -0.0300869119852 0.214876240815 0.165209349805
v -0.0134507720304 0.233764426872 0.161125387397
v 0.0126344379553 0.209387583984 0.164007587692
v 0.0437600449 0.22177212651 0.160314384113
v 0.0573971810986 0.203274814034 0.162810630785
v 0.0525114195688 0.204663797674 0.162817142715
v 0.0509154731876 0.199050042939 0.163862757247
v 0.0491895842124 0.137409287057 0.174550458317
v 0.0510917223541 0.135583783286 0.174768873612
v 0.076417121413 0.111278666661 0.177676900323
v -0.0480305974714 0.0998404312501 0.185894515249
v -0.0400144505271 0.128037295331 0.180642584538
v -0.0618558152889 0.13118504725 0.181198227478
v -0.0842604922008 0.134413983033 0.181768201053
v -0.121959445926 0.0830478492745 0.1924956342
v -0.236017741288 0.115473726658 0.192647655557
v -0.244837704916 0.0876513954987 0.197875546015
v -0.2522081269 0.0876827647362 0.198240334906
v -0.089620117625 0.0335238811662 0.199388536684
v -0.073217532976 0.0912201101002 0.188642072304
v -0.0582412113162 0.0854175587407 0.188887804318
v -0.0450077154698 0.0486597707266 0.194544772497
v 0.0296613319529 0.0186951620967 0.195947808591
v -0.00978927464528 0.0299106596639 0.196000389911
v -0.020115182548 -0.00641080790923 0.202765604309
v -0.0279673964795 -0.00379687071429 0.202710439726
v -0.0281533209005 -0.00398242267831 0.202751689263
v -0.0201876628723 -0.00666575806637 0.202813091149
v -0.0236850066996 -0.0189676942543 0.205104442316
v -0.0154061785803 -0.0217181587298 0.205161659962
v 0.044539563578 -0.0352744518599 0.204482269973
v 0.0481109849623 -0.0296730447983 0.203339559589
v 0.0484004154011 -0.0292191028487 0.203246953555
v 0.121707828275 -0.0544650974767 0.203906868282
v 0.133277651006 -0.0690022149743 0.205825870078
v 0.139243208265 -0.0603721179904 0.204042036791
v 0.139755797777 -0.0596305808697 0.203888761602
v 0.149166166695 -0.0460170310368 0.201074853174
v 0.07545101867 0.0132069858389 0.19459185484
v 0.115336915362 0.04328476228 0.187415766709
v 0.125392998718 0.133410933583 0.171410736499
v 0.127756568047 0.15459407688 0.167648934103
v 0.128344275323 0.159861317099 0.166713552755
v 0.102292607461 0.172101640904 0.165916914186
v 0.102281754024 0.22094281335 0.157517722746
v 0.191243993854 0.196479395121 0.157256776591
v 0.200928684294 0.190836363458 0.157740849588
v 0.262665856762 0.114061504415 0.167843854037
v 0.244041504373 0.110516030645 0.169389025927
v 0.262664523917 0.10022500027 0.170223531965
v 0.264887547716 0.0937537291169 0.171224812694
v 0.275946387505 0.0615612032256 0.176205867514
v 0.301883087362 0.0496098025063 0.176958591188
v 0.301871830422 0.0256154435809 0.181085722013
v 0.338536309292 0.0555247886126 0.174100398442
v 0.331521011847 0.0748103587118 0.171136001
v 0.359257735257 0.0669250261611 0.171099032395
v 0.330119723524 0.0388672053179 0.177387908415
v 0.31615699178 -0.0102468204836 0.186535856896
v 0.333852063854 -0.0238192470956 0.187981306254
v 0.37214132774 0.0632623220116 0.17108186065
v 0.384394595965 0.0911300247619 0.165673727422
v 0.387847225144 0.0989823661004 0.164149866299
v 0.346616379436 0.110703971632 0.164204820433
v 0.346021151023 0.111821716546 0.164042485601
v 0.333761869547 0.134842710812 0.160699049637
v 0.359812969906 0.195798082889 0.148907473338
v 0.404698859513 0.14386736874 0.155584131139
v 0.404739599185 0.24448930619 0.138277058784
v 0.404747590373 0.2642265133 0.134882239685
v 0.359840406779 0.256612450759 0.138447200804
v 0.356640436612 0.261525799368 0.137762920291
v 0.343268420522 0.229155939786 0.144001527134
v 0.294186898772 0.218896106261 0.14823116823
v 0.289000694439 0.2132290962 0.149466264435
v 0.277285375457 0.208742369837 0.150826303315
v 0.244093746936 0.196030658279 0.154679540768
v 0.21799186616 0.244961867149 0.147575301946
v 0.227535611215 0.258248783316 0.144810869291
v 0.186305987817 0.26997004137 0.144865821719
v 0.217989731618 0.233219848482 0.149594809154
v 0.164885962602 0.204539457813 0.157194449345
v 0.0443671068557 0.319083538441 0.143548214209
v 0.0582262610103 0.272657162945 0.150836568301
v -0.000490046828508 0.34703965199 0.140993280492
v 0.00286302874675 0.358834123386 0.138796449452
v -0.00877963927637 0.363172338198 0.138635120272
v -0.000237618078935 0.403757495633 0.131226230471
v -0.173837545054 0.366930659558 0.14627889192
v -0.218725005824 0.392336200189 0.144164129625
v 0.057544575515 0.203370885559 0.162786705378
v 0.120795567272 -0.0533188703179 0.203755558232
v 0.0572185228115 -0.015388808421 0.20042551593
v 0.275897611853 0.14715382623 0.161488042363
v 0.338486760003 0.170910293556 0.154258812946
v 0.356221927794 0.19160731956 0.149808565752
v 0.220368500349 0.218256831186 0.152048683562
v 0.218002590863 0.220473251244 0.151786331379
v 0.000135392024881 0.0474009896139 0.192493919371
v 0.0307275069335 0.0387038916605 0.192453145003
v 0.0443463704162 0.223834531347 0.159930241869
v 0.0176934518377 0.265159535627 0.154161799235
v 0.0281165992101 0.349159746989 0.139191879588
v -0.129075822542 0.0148911756074 0.204574687457
v -0.129075522699 0.0137137874799 0.204777160381
v -0.129075356094 0.0130622236476 0.204889208357
v -0.129071200957 -0.0032248652157 0.207690063776
v -0.129067748549 -0.0167663042425 0.210018755862
v -0.106042522502 -0.0242420656635 0.210147986673
v -0.102549634839 -0.0119558040932 0.207859555109
v -0.101910339951 -0.00970707891544 0.20744070891
v -0.0983752495209 0.00272763125999 0.205124627417
v -0.0981172415006 0.00363517663957 0.204955588549
v -0.0975650921103 0.00557736684465 0.204593837376
v -0.136007047094 0.0183488788372 0.204328154221
v 0.301860150308 0.000719104422016 0.185367997231
v 0.304335917108 -0.0011798515304 0.18557023411
v 0.301871829568 0.025613657892 0.181086029155
v -0.129152522181 0.160323444475 0.179567003573
v -0.0796895591862 0.178138576947 0.174018839183
v -0.0773170261474 0.186483981678 0.172464429195
v -0.102587368597 0.174970310413 0.175713775648
v -0.146614469374 0.1805284818 0.176969164691
v -0.276735830547 0.0958530661576 0.198067119477
v -0.276740227606 0.0877871756377 0.199454517402
v -0.0413518624808 -0.0204688678281 0.216675945511
v -0.0310815487331 -0.0199254825047 0.216062146909
v -0.0264922491063 -0.0196826708992 0.215787870511
v -0.0248024239946 -0.019593264354 0.215686879075
v -0.0154061785803 -0.0217181587298 0.21557720908
v -0.0236850066996 -0.0189676942543 0.2155224735
v -0.0201876628723 -0.00666575806637 0.213225188713
v -0.0281533209005 -0.00398242267831 0.21316616163
v -0.0279673964795 -0.00379687071429 0.213124766627
v -0.0266100394506 -0.00244221179435 0.212822555388
v -0.0327368346468 0.0145757735236 0.210199913848
v -0.0450077154698 0.0486597707266 0.204947229501
v -0.0582412113162 0.0854175587407 0.199282487266
v -0.073217532976 0.0912201101002 0.199040945275
v -0.089620117625 0.0335238811662 0.209815238513
v -0.0939789126994 0.018191782955 0.212678380937
v -0.0975650914942 0.00557736897758 0.215034018374
v -0.0981172411688 0.00363517787193 0.215396706472
v -0.0981172415006 0.00363517663957 0.215396706709
v -0.0983752494735 0.00272763154438 0.215566183254
v -0.101910339951 -0.00970707891544 0.217888262499
v -0.07758773714 -0.0177824228652 0.218048154273
v -0.0699695834973 -0.0203117250214 0.218098234425
v -0.0711960993998 -0.0220478779873 0.218459567117
v -0.0656277263039 -0.0217532644339 0.218126776914
v 0.200593329551 -0.0631476776189 0.211777817964
v 0.280721961116 -0.0898389277447 0.212319690898
v 0.277962734185 -0.0758631381088 0.210050798299
v 0.223140287346 -0.0602775471478 0.210141257801
v 0.235234781452 -0.0510616733321 0.207940424958
v 0.20636277926 -0.0428535899009 0.207988065038
v 0.149166166695 -0.0460170310368 0.211430039853
v 0.139755797161 -0.0596305793055 0.214252843168
v 0.139243209829 -0.0603721167106 0.214406602769
v 0.195951580229 -0.0794750697573 0.214826823333
v -0.2522081269 0.0876827647362 0.208715730909
v -0.244837704916 0.0876513954987 0.208347855242
v -0.236017741288 0.115473726658 0.2031061625
v -0.276718826498 0.127044725439 0.203173321069
v -0.276735830547 0.0958530661576 0.208549861386
v 0.387847226709 0.0989823656264 0.174352112044
v 0.384394595965 0.0911300247619 0.175880273532
v 0.391477462166 0.0979503182356 0.174346122018
v 0.404739599185 0.24448930619 0.148419409439
v 0.41448562321 0.233532990039 0.149814062502
v 0.42091188428 0.256137417119 0.145592872833
v 0.364871744758 0.281451462544 0.144068367802
v 0.356640436612 0.261525799368 0.147919308279
v 0.359840406779 0.256612450759 0.148604026374
v 0.404747590373 0.2642265133 0.145017425733
v 0.359862526827 0.306124266855 0.140069867393
v 0.155391040787 0.00238590393887 0.202772844942
v 0.110763355194 -0.0332248613809 0.211170339376
v 0.191173111474 0.0147524816492 0.198829329239
v 0.165078389521 0.0364612343366 0.196409559007
v -0.0402109712017 0.175844053308 0.182784911966
v -0.036508994788 0.179438398523 0.181977959923
v -0.0472681868822 0.18249715233 0.181995713057
v -0.0618558152889 0.13118504725 0.191577824024
v -0.0400144505271 0.128037295331 0.191014142023
v -0.0480305974714 0.0998404312501 0.196279673054
v 0.000135392024881 0.0474009896139 0.202877856998
v 0.0307275069335 0.0387038916605 0.202827378652
v 0.076417121413 0.111278666661 0.188005595776
v 0.0491895842124 0.137409287057 0.184881118008
v 0.00324921741882 0.145088022024 0.185884431231
v -0.00887684300762 0.129682860108 0.1891535462
v -0.031899956838 0.150963055556 0.186652070579
v -0.0264616100892 0.13468207128 0.189182561867
v 0.0126344379553 0.209387583984 0.174327497653
v -0.0134507720304 0.233764426872 0.171447417728
v -0.0300869119852 0.214876240815 0.175545226406
v -0.0203702906841 0.195107872878 0.178460068302
v -0.0140608049205 0.182271287848 0.180352820177
v 0.0132578169198 0.174504818268 0.180307743263
v 0.0160716709826 0.176338885705 0.179849143421
v 0.0509154731876 0.199050042939 0.17417032636
v 0.0525114195688 0.204663797674 0.173122004098
v 0.0573971810986 0.203274814034 0.173113942381
v 0.057544575515 0.203370885559 0.173089920139
v 0.0443463704162 0.223834531347 0.170231579746
v 0.0437600449 0.22177212651 0.170616716789
v -0.218725005824 0.392336200189 0.154514913368
v -0.173837545054 0.366930659558 0.156620024914
v -0.000237618078935 0.403757495633 0.141481028006
v -0.00877963927637 0.363172338198 0.148908233988
v 0.00286302874675 0.358834123386 0.149066243144
v 0.0248127387652 0.436042412228 0.134648234189
v -0.0117838195588 0.446446526282 0.134708620137
v -0.195879051685 0.498783354603 0.135012385476
v -0.229813287393 0.37941939628 0.157302616762
v -0.166445022646 0.0956947492915 0.202991364419
v -0.231803360595 0.128767873837 0.200601561615
v -0.220752882034 0.210520120577 0.185952433018
v -0.226692737108 0.206792725326 0.186895654827
v -0.218824586161 0.197283184077 0.188136072361
v -0.192290738159 0.209024675815 0.18476867108
v -0.195830671478 0.224732299661 0.182240847755
v -0.200296804307 0.244549716833 0.179051636607
v -0.209819025019 0.22870907869 0.182263929185
v -0.289659357025 0.143708013658 0.200956897361
v -0.288120592694 0.146808618441 0.200344596171
v -0.293962670231 0.148469475189 0.200354235877
v -0.298308626963 0.133182536128 0.203208945217
v -0.276713709884 0.136430472478 0.201555489642
v 0.0754018387567 -0.109285709949 0.20670037187
v 0.0574084345791 -0.105949213543 0.206171172569
v 0.0445878171835 -0.146209907023 0.198507031346
v -0.00856763585294 -0.122726126637 0.199272660431
v 0.00120878199651 -0.110643366678 0.201935027364
v -0.0265603085778 -0.117965742994 0.198986856258
v -0.0224800305455 -0.126960061178 0.197698987621
v -0.013278180507 -0.134060909921 0.197047659833
v -0.0132746964371 -0.147251743235 0.194793484403
v -0.00855424422868 -0.157657222648 0.193303555968
v 0.0296444936086 -0.177979566996 0.192164355249
v 0.0175062758134 -0.158807889335 0.19469923952
v -0.137197598622 -0.34123821262 0.154068209161
v -0.135731664511 -0.336081777164 0.155039044212
v -0.136604561392 -0.336222904984 0.154961589279
v -0.129300174776 -0.245324594372 0.170942936525
v -0.131844706811 -0.247580637253 0.170401891025
v -0.128949654381 -0.246360209776 0.170787361327
v -0.387564215235 -0.216290270809 0.160124725453
v -0.403862825949 -0.23280131395 0.156307023466
v -0.439916250209 -0.35961953575 0.132430147601
v -0.418225620837 -0.359345553222 0.133802304557
v -0.39265975431 -0.33438187211 0.139630854436
v -0.40555359064 -0.271456157523 0.1495973827
v -0.315831123155 -0.204673314166 0.166493134876
v -0.355748106827 -0.132907129821 0.17631939252
v -0.276824420986 -0.110054345565 0.185047425399
v -0.276864366735 -0.184623197657 0.172300744218
v -0.257955009974 -0.230947874627 0.165538985404
v -0.276886190542 -0.246735137194 0.161684127446
v -0.27691290511 -0.296713775245 0.153140861944
v -0.257940589756 -0.268145988914 0.159182497448
v -0.219042997617 -0.296490517298 0.156714961009
v -0.21309222744 -0.169930706262 0.178708353148
v -0.212525612803 -0.167937634492 0.179083601501
v -0.209939383363 -0.169378066914 0.178995446132
v -0.219082341927 -0.358646752481 0.146089703311
v -0.206581251275 -0.377887886493 0.143565120665
v -0.174469600114 -0.264934884425 0.164831503116
v -0.190091622656 -0.245751799808 0.167155470905
v -0.192406731628 -0.253895215032 0.165622258164
v -0.200086097042 -0.241353307163 0.167296520092
v -0.161141835353 -0.184896134954 0.179324927639
v -0.166952666936 -0.193320049138 0.177530181808
v -0.155865592559 -0.199495132067 0.177152262885
v -0.143305110284 -0.155313530425 0.185470614907
v -0.12678930559 -0.16829329833 0.184261440673
v -0.0844277538641 -0.107191152852 0.197292502367
v -0.0717956980915 -0.0988361096953 0.199492265285
v -0.0486520769907 -0.0835285495158 0.203522526205
v -0.04604200803 -0.0743476101062 0.205251080253
v -0.0403210124694 -0.0795649563066 0.204708968052
v -0.0239908542527 -0.067666318254 0.207740311386
v -0.0310019561777 -0.0486060118141 0.210569436611
v -0.0877070521041 -0.0301951712092 0.210251182705
v -0.090585279272 -0.0337257174561 0.209471928037
v -0.0742674095755 -0.0486070392227 0.20792567333
v -0.0863674831421 -0.0451670833444 0.207774247629
v -0.0885854568737 -0.0529688245227 0.206305364054
v -0.0940663630635 -0.0379957512677 0.208529455266
v -0.0981663551983 -0.0430249622889 0.207419418525
v -0.109288831283 -0.0356609839811 0.207998363345
v -0.129066269196 -0.0225667212975 0.209027814439
v -0.213371292029 0.0106051175672 0.209545899753
v -0.213862721454 0.0101193085543 0.209432845129
v -0.156019320734 -0.0298941371102 0.206128643321
v -0.129038192871 -0.0721273014799 0.200559345292
v -0.218944600772 -0.0846978870177 0.192917536887
v -0.24478465127 -0.0353483479756 0.199772785433
v -0.2767777348 -0.0104154506347 0.202079131144
v -0.329635693832 -0.0646121847527 0.189586896417
v -0.355130562374 -0.0613851684645 0.188580634964
v -0.366169784895 -0.100215726218 0.18126975808
v -0.373712978137 -0.152748625497 0.171830686134
v -0.38204231271 -0.156047475737 0.170757958319
v -0.390338903443 -0.185230803225 0.165263427067
v -0.174061669208 -0.163089320813 0.182262413715
v -0.142282036982 -0.106423464399 0.193888716335
v -0.286499656384 -0.100789664672 0.186039639754
v -0.308561299674 -0.0906771758898 0.18641992021
v -0.302616420981 -0.0853567914469 0.187692445639
v -0.0374365421683 -0.031113015512 0.213165925681
v -0.0413518624808 -0.0204688678281 0.214745838686
v -0.0656277263039 -0.0217532644339 0.213043034316
v -0.0711960993998 -0.0220478779873 0.212652446737
v -0.0699695841135 -0.0203117258746 0.213024107028
v -0.07758773714 -0.0177824228652 0.212990898067
v -0.0791244433357 -0.019667409122 0.212574848044
v -0.0364831132949 -0.0337049970372 0.212781197308
v -0.190122580238 0.0335879377444 0.21489432739
v -0.187897584285 0.0328635800945 0.214906481346
v -0.190103983791 0.0336063214674 0.214898605526
v -0.0896201181464 0.0335238792702 0.221024239034
v -0.2522081269 0.0876827647362 0.220345915368
v -0.276740227606 0.0877871756377 0.218864809584
v -0.276735830547 0.0958530661576 0.220243584784
v -0.307514275134 0.106105520836 0.220115175814
v -0.311660626311 0.0915206958573 0.217369197743
v -0.311888746911 0.09071827975 0.217218121747
v -0.0939825345093 0.0181790432015 0.218135168808
v -0.0939789130786 0.0181917814856 0.21813756717
v -0.0215280934432 -0.396730270913 0.141435539341
v -0.0875653035533 -0.355639016462 0.144213884529
v -0.0950673605876 -0.382027565059 0.139283963482
v -0.0404817252321 -0.445442735305 0.132013301237
v 0.0493237920976 -0.217568570506 0.176161944657
v 0.0493108739838 -0.188442398382 0.181080617058
v 0.0296444936086 -0.177979566996 0.181608319185
v 0.0174942840074 -0.196220239796 0.177761640207
v -0.0454196177497 -0.196315360982 0.173780349178
v -0.0132683648583 -0.17122322151 0.180044848747
v -0.0132746964371 -0.147251743235 0.184093295028
v -0.0224800305455 -0.126960061178 0.186940435833
v -0.0265571825556 -0.123813820036 0.187214876751
v -0.0265335637694 -0.167999000498 0.179753372876
v -0.0664115517939 -0.191219715735 0.173317974903
v -0.045432783473 -0.221945330965 0.16945055048
v -0.0265079587988 -0.219145586186 0.17111619466
v -0.00851983926316 -0.264498778889 0.16458964493
v -0.0264717639732 -0.28131344124 0.160618162724
v -0.00850596460137 -0.310192032384 0.156872809436
v -0.000494790606865 -0.219440160399 0.172705951752
v -0.0354287222781 -0.116967863908 0.187812037077
v -0.0453687014418 -0.109297418502 0.188481116151
v -0.068421371851 -0.108054299589 0.187238159719
v -0.066435676369 -0.1134789434 0.186447074067
v -0.0940663630635 -0.0379957512677 0.197454924981
v -0.0885854568737 -0.0529688245227 0.195271374558
v -0.0863674831421 -0.0451670833444 0.196728899522
v -0.0742674095755 -0.0486070392227 0.196910503765
v -0.090585279272 -0.0337257174561 0.198395544378
v -0.087707051251 -0.0301951727733 0.199173266418
v -0.07758773714 -0.0177824228652 0.201907594331
v -0.101910339951 -0.00970707891544 0.201738579541
v -0.102549634839 -0.0119558040932 0.201318471643
v -0.106042522502 -0.0242420656635 0.199023146496
v -0.129067748549 -0.0167663042425 0.198834629381
v -0.129066269196 -0.0225667212975 0.197855017038
v -0.109288831283 -0.0356609839811 0.196889858804
v -0.0981663551983 -0.0430249622889 0.196347071175
v -0.174469600114 -0.264934884425 0.154056800972
v -0.174097038447 -0.265392372063 0.154003011276
v -0.131844706811 -0.247580637253 0.159674464183
v -0.129300174776 -0.245324594372 0.160215887921
v -0.142244045566 -0.207081820775 0.165859389208
v -0.155865592559 -0.199495132067 0.166282286268
v -0.166952666936 -0.193320049138 0.166626497599
v -0.200086097042 -0.241353307163 0.156425280259
v -0.192406731628 -0.253895215032 0.154790920568
v -0.190091622656 -0.245751799808 0.156312277205
v -0.38204231271 -0.156047475737 0.159365647354
v -0.373712978137 -0.152748625497 0.160447798217
v -0.366169784895 -0.100215726218 0.169796161061
v -0.316070093876 0.0760103568445 0.202718800716
v -0.316439493687 0.0747109898197 0.20247605234
v -0.190122580238 0.0335879377444 0.203491537767
v -0.190103985213 0.0336063208038 0.203495814718
v -0.188048326643 0.0356384688454 0.203968610204
v -0.315508865314 0.077984482888 0.203087607858
v -0.320664909401 0.0598480547149 0.199699351831
v -0.324414641784 0.0466583395778 0.197235243057
v -0.213371292029 0.0106051175672 0.198144401169
v -0.20280663907 0.0210489443589 0.200574240869
v -0.200729859043 0.0231019748746 0.201051894648
v -0.319866487276 0.0626565111378 0.200224028989
v 0.204329940718 -0.0811267942468 -0.211888543085
v 0.203830779895 -0.0821292827363 0.208775446786
v 0.198459453218 -0.0929167278574 -0.211888543085
v 0.316976277325 -0.131500428359 -0.211888543085
v 0.334639442331 -0.108148477261 -0.211888543085
v 0.334730172099 -0.107829334445 0.206479690977
v 0.334730172099 -0.107829334445 -0.211888543085
v 0.358966689906 -0.0225771799535 -0.211888543085
v 0.370895169212 0.0589008197752 -0.211888543085
v 0.39066116552 0.0859617759542 -0.211888543085
v 0.418661673256 0.184453796595 -0.211888543085
v 0.428782759358 0.265952857537 -0.211888543085
v 0.446216547232 0.294066127781 -0.211888543085
v 0.452049176268 0.31458244926 -0.211888543085
v 0.0248127387652 0.436042412228 -0.211888543085
v 0.00286302888894 0.358834123812 0.144681342097
v 0.356221929596 0.191607321503 -0.211888543085
v 0.346616377871 0.110703972059 -0.211888543085
v 0.377702133722 0.101866535895 0.168989740922
v 0.377702133722 0.101866535895 0.16416338808
v 0.387847226709 0.0989823656264 0.168962094217
v 0.264887548569 0.09375372888 0.176064852359
v 0.110763355336 -0.0332248597694 0.200803650991
v -0.0157568525471 0.00891965434472 0.199910161762
v -0.0157568525471 0.00891965434472 -0.211888543085
v -0.0711597806274 0.189289344736 0.176980625587
v -0.0472681868822 0.18249715233 0.171640866083
v -0.0711597806274 0.189289344736 0.171672709731
v -0.25207590392 0.240722377368 0.177473645846
v -0.25207590392 0.240722377368 0.171913841867
v -0.267959977379 0.245238094704 -0.211888543085
v -0.307514275134 0.106105520836 -0.211888543085
v -0.166445022267 0.0956947491493 0.192554926334
v -0.316439493687 0.0747109898197 -0.211888543085
v -0.319866487276 0.0626565111378 -0.211888543085
v -0.225283913191 -0.443674656502 0.125898798401
v -0.445975703688 -0.380933714128 -0.211888543085
v -0.225283913191 -0.443674656502 -0.211888543085
v -0.0249123993311 -0.500638703868 -0.211888543085
v 0.0743887579001 -0.151346051254 -0.211888543085
v 0.291474234981 -0.213061747061 -0.211888543085
v 0.307026616223 -0.158356115627 0.208063909656
v 0.307026616223 -0.158356115627 -0.211888543085
v 0.310033660556 -0.147778812119 0.210051376465
v 0.310033660556 -0.147778812119 -0.211888543085
v 0.310371953007 -0.146588865489 0.210274966486
v 0.310371953007 -0.146588865489 -0.211888543085
v 0.313267529285 -0.136403651664 -0.211888543085
v 0.313605002501 -0.135957490359 -0.211888543085
v 0.196634585108 -0.0965816774133 -0.211888543085
v 0.190702711031 -0.108494893378 -0.211888543085
v 0.191572731727 -0.094877706189 0.211542884264
v 0.191572731727 -0.094877706189 -0.211888543085
v 0.192666385955 -0.0910307682736 0.212265720803
v 0.192714440297 -0.0908617365628 0.212297481694
v 0.121707828891 -0.0544650978085 0.213987899239
v 0.0481109846779 -0.0296730434238 -0.211888543085
v -0.0791244433357 -0.019667409122 0.201492362452
v -0.131844707759 -0.247580636969 0.165129995569
v -0.174469600636 -0.264934886369 -0.211888543085
v -0.187993800517 -0.31250637279 0.155874915467
v -0.187993800517 -0.31250637279 0.150545213249
v -0.28649965501 -0.100789665336 -0.211888543085
v -0.439916250209 -0.35961953575 -0.211888543085
v -0.0224800290287 -0.12696006132 -0.211888543085
v -0.390338903443 -0.185230803225 -0.211888543085
v -0.403862825949 -0.23280131395 -0.211888543085
v -0.213371291507 0.0106051166667 -0.211888543085
v -0.324414641784 0.0466583395778 -0.211888543085
v -0.355130562374 -0.0613851684645 -0.211888543085
v 0.195951580561 -0.0794750687146 -0.211888543085
v -0.129071847234 -0.000689190907654 -0.211888543085
v -0.311888746911 0.09071827975 -0.211888543085
v -0.315508865314 0.077984482888 -0.211888543085
v -0.202806640729 0.0210489466814 -0.211888543085
v 0.191402345937 -0.107089784978 -0.211888543085
v 0.203830779895 -0.0821292827363 -0.211888543085
v 0.192714440297 -0.0908617365628 -0.211888543085
v 0.192666385955 -0.0910307682736 -0.211888543085
v 0.187958318912 -0.107591433508 -0.211888543085
v 0.200928684294 0.190836363458 -0.211888543085
v -0.240223882141 0.342800042054 0.153763183971
v -0.229813287393 0.37941939628 -0.211888543085
v -0.240223882141 0.342800042054 -0.211888543085
v -0.262473417645 0.264537114443 0.168340389128
v -0.262473417645 0.264537114443 -0.211888543085
v -0.265576376283 0.253622431378 0.170373351333
v -0.265576376283 0.253622431378 -0.211888543085
v 0.0510917223541 0.135583783286 0.185099396085
v 0.0510917223541 0.135583783286 -0.211888543085
v 0.139755797777 -0.0596305808697 -0.211888543085
v -0.0887192314423 0.292657719169 -0.211888543085
v 0.0509154735668 0.199050044266 -0.211888543085
v 0.0160716712196 0.176338885752 0.169518687211
v -0.129071200957 -0.0032248652157 -0.211888543085
v -0.0981172411688 0.00363517787193 0.204955588312
v -0.0975650921103 0.00557736684465 -0.211888543085
v -0.129075522699 0.0137137874799 -0.211888543085
v -0.0264922491063 -0.0196826708992 -0.211888543085
v -0.0248024239946 -0.019593264354 -0.211888543085
v -0.0981172411688 0.00363517787193 -0.211888543085
v -0.0983752494735 0.00272763154438 -0.211888543085
v -0.0310815487331 -0.0199254825047 -0.211888543085
v 0.139243209829 -0.0603721167106 -0.211888543085
v 0.196246968178 -0.0784360401493 -0.211888543085
v 0.387847226709 0.0989823656264 -0.211888543085
v 0.404739597574 0.244489308987 -0.211888543085
v -0.0117838195588 0.446446526282 -0.211888543085
v -0.195879051685 0.498783354603 -0.211888543085
v -0.129067748502 -0.0167663060911 -0.211888543085
v -0.366169784895 -0.100215726218 -0.211888543085
v -0.38204231271 -0.156047475737 -0.211888543085
v -0.418259050532 -0.283440154531 0.146772925795
v -0.418259050532 -0.283440154531 -0.211888543085
v -0.4269729983 -0.314091538775 0.141001994079
v -0.4269729983 -0.314091538775 -0.211888543085
v -0.0699695841135 -0.0203117258746 -0.211888543085
v -0.0791244433357 -0.019667409122 -0.211888543085
v -0.190122579622 0.0335879394981 -0.211888543085
v -0.311660626311 0.0915206958573 -0.211888543085
v -0.0939789130786 0.0181917814856 -0.211888543085
v -0.0896201181464 0.0335238792702 -0.211888543085
v -0.087707051251 -0.0301951727733 -0.211888543085
v -0.190103985213 0.0336063208038 -0.211888543085
v -0.188048326643 0.0356384688454 -0.211888543085
v -0.316070093876 0.0760103568445 -0.211888543085
v -0.200729859043 0.0231019748746 -0.211888543085
v -0.320664909401 0.0598480547149 -0.211888543085
g roof
f 1 2 740 742 3
g roof
f 3 4 5
g roof
f 6 7 8
g roof
f 6 8 9
g roof
f 9 10 11
g roof
f 11 743 12 13
g roof
f 13 14 15
g roof
f 13 15 16
g roof
f 13 16 17
g roof
f 13 17 18
g roof
f 13 18 19
g roof
f 13 19 20
g roof
f 13 20 21
g roof
f 13 21 22
g roof
f 13 22 23
g roof
f 13 23 24
g roof
f 13 24 25
g roof
f 25 26 27
g roof
f 25 27 28
g roof
f 29 30 31
g roof
f 31 723 32 33
g roof
f 33 34 35
g roof
f 33 34 35 36
g roof
f 37 38 39
g roof
f 40 36 35
g roof
f 40 35 41
g roof
f 41 727 42 43
g roof
f 44 45 46
g roof
f 47 737 48 49
g roof
f 49 50 51
g roof
f 49 51 52
g roof
f 49 52 53
g roof
f 49 53 54
g roof
f 49 54 55
g roof
f 49 55 56
g roof
f 49 56 57
g roof
f 57 58 59
g roof
f 57 59 60
g roof
f 57 60 61
g roof
f 57 61 62
g roof
f 57 62 63
g roof
f 57 63 64
g roof
f 57 64 65
g roof
f 57 65 66
g roof
f 57 66 67
g roof
f 57 67 68
g roof
f 69 70 71
g roof
f 71 72 73
g roof
f 71 73 74
g roof
f 71 74 75
g roof
f 71 75 1
g roof
f 71 1 3
g roof
f 76 6 9
g roof
f 13 25 28
g roof
f 13 28 77
g roof
f 31 723 32 33 36
g roof
f 39 36 40
g roof
f 39 40 78
g roof
f 39 78 79
g roof
f 79 40 41
g roof
f 46 47 49
g roof
f 49 57 68
g roof
f 80 69 71
g roof
f 81 76 9
g roof
f 11 13 77
g roof
f 11 77 82
g roof
f 29 31 36
g roof
f 37 39 79
g roof
f 46 49 68
g roof
f 46 68 80
g roof
f 9 11 82
g roof
f 83 37 79
g roof
f 44 46 80
g roof
f 44 80 71
g roof
f 84 44 71
g roof
f 84 71 3
g roof
f 85 84 3
g roof
f 85 3 5
g roof
f 43 85 5
g roof
f 43 5 86
g roof
f 41 43 86
g roof
f 41 86 81
g roof
f 41 81 9
g roof
f 79 41 9
g roof
f 79 9 82
g roof
f 83 79 82
g roof
f 29 83 82
g roof
f 87 88 89
g roof
f 87 89 90
g roof
f 87 90 91
g roof
f 91 92 93
g roof
f 91 93 94
g roof
f 91 94 87
g roof
f 95 96 97
g roof
f 95 97 98
g roof
f 99 100 101
g roof
f 99 101 102
g roof
f 99 102 103
g roof
f 104 105 106
g roof
f 106 101 107
g roof
f 106 107 108
g roof
f 106 108 109
g roof
f 109 110 111
g roof
f 109 111 112
g roof
f 108 107 113
g roof
f 108 113 114
g roof
f 108 114 115
g roof
f 108 115 116
g roof
f 108 116 117
g roof
f 108 117 118
g roof
f 108 118 119
g roof
f 120 116 115
g roof
f 120 115 121
g roof
f 120 121 122
g roof
f 120 122 123
g roof
f 124 125 126
g roof
f 124 126 127
g roof
f 128 129 130
g roof
f 130 131 132
g roof
f 133 99 103
g roof
f 133 103 104
g roof
f 133 104 106
g roof
f 133 106 109
g roof
f 134 108 119
g roof
f 119 120 123
g roof
f 119 123 747 124
g roof
f 119 124 127
g roof
f 119 127 128
g roof
f 132 750 133 109
g roof
f 132 109 112
g roof
f 135 134 119
g roof
f 135 119 128
g roof
f 135 128 130
g roof
f 130 132 112
g roof
f 130 112 135
g roof
f 136 137 138
g roof
f 136 138 139
g roof
f 140 141 142
g roof
f 140 142 143
g roof
f 143 144 48
g roof
f 143 48 145
g roof
f 143 145 146
g roof
f 143 146 147
g roof
f 147 148 149
g roof
f 149 140 143
g roof
f 149 143 147
g roof
f 150 151 757 152
g roof
f 153 152 154
g roof
f 153 154 155
g roof
f 153 155 156
g roof
f 153 156 157
g roof
f 156 155 158
g roof
f 159 160 161
g roof
f 159 161 162
g roof
f 159 162 163
g roof
f 163 164 165
g roof
f 165 166 167
g roof
f 168 169 170
g roof
f 168 170 171
g roof
f 168 171 172
g roof
f 173 174 175
g roof
f 173 175 176
g roof
f 176 177 178
g roof
f 176 178 179
g roof
f 176 179 154
g roof
f 176 154 152
g roof
f 176 152 180
g roof
f 180 181 763 765 767 182
g roof
f 180 182 183
g roof
f 180 183 184
g roof
f 180 184 185
g roof
f 185 186 187
g roof
f 185 187 188
g roof
f 185 188 189
g roof
f 190 773 775 776 191 192
g roof
f 190 192 193
g roof
f 193 777 194 195
g roof
f 193 195 196
g roof
f 193 196 197
g roof
f 193 197 198
g roof
f 193 198 199
g roof
f 193 199 200
g roof
f 193 200 201
g roof
f 193 201 202
g roof
f 193 202 203
g roof
f 193 203 204
g roof
f 204 205 206
g roof
f 204 206 207
g roof
f 208 209 210
g roof
f 208 210 211
g roof
f 208 211 212
g roof
f 213 214 215
g roof
f 213 215 216
g roof
f 213 216 217
g roof
f 213 217 218
g roof
f 219 220 783 221
g roof
f 222 223 224
g roof
f 222 224 225
g roof
f 226 227 228
g roof
f 228 229 230
g roof
f 228 230 231
g roof
f 228 231 232
g roof
f 228 232 233
g roof
f 228 233 234
g roof
f 228 234 235
g roof
f 228 235 236
g roof
f 237 150 152
g roof
f 158 179 178
g roof
f 158 178 159
g roof
f 158 159 163
g roof
f 163 165 167
g roof
f 173 176 180
g roof
f 180 185 189
g roof
f 180 189 190
g roof
f 180 190 193
g roof
f 193 204 207 238
g roof
f 193 238 208
g roof
f 193 208 212
g roof
f 212 213 218
g roof
f 218 780 219 221
g roof
f 221 222 225
g roof
f 225 226 228
g roof
f 225 228 236
g roof
f 225 236 237
g roof
f 156 158 163
g roof
f 173 180 193
g roof
f 221 225 237
g roof
f 221 237 152
g roof
f 221 152 153
g roof
f 221 153 239
g roof
f 240 153 157
g roof
f 241 156 163
g roof
f 241 163 167
g roof
f 241 167 168
g roof
f 172 173 193
g roof
f 172 193 212
g roof
f 218 221 239
g roof
f 218 239 240
g roof
f 218 240 157
g roof
f 242 241 168
g roof
f 242 168 172
g roof
f 212 218 157
g roof
f 157 242 172
g roof
f 157 172 212
g roof
f 243 174 244
g roof
f 244 245 246
g roof
f 246 247 243
g roof
f 246 243 244
g roof
f 166 245 248
g roof
f 249 250 251
g roof
f 249 251 252
g roof
f 253 254 252
g roof
f 255 256 257
g roof
f 258 259 260
g roof
f 258 260 261
g roof
f 258 261 262
g roof
f 258 262 263
g roof
f 263 264 265
g roof
f 265 266 267
g roof
f 265 267 268
g roof
f 265 268 258
g roof
f 265 258 263
g roof
f 191 269 270
g roof
f 191 270 271
g roof
f 264 272 273
g roof
f 264 273 274
g roof
f 264 274 275
g roof
f 264 275 276
g roof
f 264 276 277
g roof
f 264 277 278
g roof
f 278 279 280
g roof
f 278 280 281
g roof
f 281 282 283
g roof
f 283 284 285
g roof
f 285 137 286
g roof
f 285 286 287
g roof
f 285 287 264
g roof
f 285 264 278
g roof
f 278 281 283
g roof
f 278 283 285
g roof
f 288 289 188
g roof
f 288 188 290
g roof
f 288 290 291
g roof
f 288 291 292
g roof
f 288 292 293
g roof
f 293 294 295
g roof
f 293 295 296
g roof
f 293 296 297
g roof
f 293 297 298
g roof
f 293 298 288
g roof
f 299 803 806 808 300 751 301
g roof
f 299 301 302
g roof
f 299 302 303
g roof
f 299 303 304
g roof
f 304 305 306
g roof
f 304 306 307
g roof
f 308 309 310
g roof
f 311 312 313
g roof
f 314 315 316
g roof
f 317 318 309
g roof
f 317 309 308
g roof
f 317 308 319
g roof
f 317 319 749 748 320
g roof
f 320 321 322
g roof
f 320 322 323
g roof
f 320 323 324
g roof
f 320 324 325
g roof
f 320 325 326
g roof
f 320 326 327
g roof
f 328 329 330
g roof
f 331 332 333
g roof
f 331 333 815 324 323
g roof
f 331 323 334
g roof
f 331 334 335
g roof
f 337 338 339
g roof
f 337 339 340
g roof
f 337 340 341
g roof
f 341 754 342 343
g roof
f 341 343 344
g roof
f 341 344 345
g roof
f 341 345 346
g roof
f 347 348 349
g roof
f 349 350 745 351
g roof
f 352 353 354
g roof
f 354 355 356
g roof
f 354 356 357
g roof
f 354 357 358
g roof
f 354 358 359
g roof
f 360 361 362
g roof
f 360 362 363
g roof
f 360 363 364
g roof
f 365 366 367
g roof
f 365 367 368
g roof
f 365 368 369
g roof
f 365 369 370
g roof
f 365 370 371
g roof
f 374 375 376
g roof
f 374 376 377
g roof
f 374 377 378
g roof
f 374 378 379
g roof
f 379 380 381
g roof
f 379 381 382
g roof
f 383 384 385
g roof
f 383 385 386
g roof
f 383 386 387
g roof
f 383 387 388
g roof
f 383 388 389
g roof
f 383 389 741 390
g roof
f 383 390 391
g roof
f 383 391 392
g roof
f 393 394 395
g roof
f 393 395 396
g roof
f 393 396 397
g roof
f 393 397 398
g roof
f 393 398 399
g roof
f 393 399 400
g roof
f 393 400 401
g roof
f 393 401 402
g roof
f 393 402 403
g roof
f 404 405 406
g roof
f 404 406 407
g roof
f 408 409 410
g roof
f 411 412 413
g roof
f 413 414 415
g roof
f 415 416 299
g roof
f 415 299 304
g roof
f 415 304 307
g roof
f 307 308 310
g roof
f 307 310 311
g roof
f 307 311 313
g roof
f 317 320 327
g roof
f 317 327 328
g roof
f 417 331 335
g roof
f 417 335 336
g roof
f 337 341 346
g roof
f 337 346 347
g roof
f 351 352 354
g roof
f 351 354 359
g roof
f 418 360 364
g roof
f 418 364 744 419
g roof
f 419 365 371
g roof
f 420 374 379
g roof
f 420 379 382
g roof
f 420 382 383
g roof
f 420 383 392
g roof
f 420 392 421
g roof
f 420 421 422
g roof
f 420 422 393
g roof
f 420 393 403
g roof
f 420 403 423
g roof
f 420 423 424
g roof
f 424 404 407
g roof
f 424 407 408
g roof
f 411 413 415
g roof
f 415 307 313
g roof
f 415 313 314
g roof
f 415 314 316
g roof
f 411 317 328
g roof
f 425 337 347
g roof
f 425 347 349
g roof
f 349 351 359
g roof
f 359 418 419
g roof
f 359 419 371
g roof
f 373 420 424
g roof
f 411 415 316
g roof
f 426 425 349
g roof
f 426 349 359
g roof
f 372 373 424
g roof
f 372 424 408
g roof
f 336 426 359
g roof
f 336 359 371
g roof
f 371 372 408
g roof
f 371 408 410
g roof
f 417 336 371
g roof
f 417 371 410
g roof
f 427 417 410
g roof
f 428 429 411
g roof
f 428 411 328
g roof
f 428 328 330
g roof
f 428 330 427
g roof
f 430 431 432
g roof
f 430 431 432 274 433
g roof
f 433 434 435
g roof
f 433 435 436
g roof
f 433 436 437
g roof
f 433 437 438
g roof
f 433 438 817 439
g roof
f 433 439 817 440
g roof
f 440 441 430
g roof
f 440 430 431 432 433
g roof
f 442 443 444
g roof
f 445 446 447
g roof
f 445 447 448
g roof
f 445 448 449
g roof
f 450 451 344
g roof
f 455 456 457
g roof
f 455 457 458
g roof
f 455 458 459
g roof
f 460 461 462
g roof
f 460 462 463
g roof
f 460 463 464
g roof
f 460 464 465
g roof
f 460 465 466
g roof
f 460 466 467
g roof
f 460 467 280
g roof
f 460 280 468
g roof
f 460 468 470 469
g roof
f 460 469 470
g roof
f 460 470 471
g roof
f 460 471 472
g roof
f 460 472 473
g roof
f 460 473 474
g roof
f 460 474 475
g roof
f 460 475 476
g roof
f 452 453 454 455 459
g roof
f 459 460 476
g roof
f 459 476 452
g roof
f 477 478 479
g roof
f 477 479 480
g roof
f 477 480 481
g roof
f 477 481 482
g roof
f 271 477 483
g roof
f 271 483 484
g roof
f 271 484 485
g roof
f 485 486 271
g roof
f 487 488 489
g roof
f 487 489 490
g roof
f 487 490 491
g roof
f 492 493 494
g roof
f 495 496 497
g roof
f 498 499 500
g roof
f 498 500 501
g roof
f 501 495 497
g roof
f 501 497 502
g roof
f 501 502 498
g roof
f 503 504 483
g roof
f 503 483 505
g roof
f 503 505 506
g roof
f 507 508 509
g roof
f 507 509 510
g roof
f 507 510 511
g roof
f 511 512 513
g roof
f 511 513 514
g roof
f 511 514 515
g roof
f 515 810 516 517
g roof
f 515 517 518
g roof
f 519 507 511
g roof
f 511 515 518
g roof
f 511 518 520
g roof
f 511 520 519
g roof
f 521 522 523
g roof
f 521 523 524
g roof
f 521 524 525
g roof
f 521 525 526
g roof
f 521 526 527
g roof
f 521 527 528
g roof
f 521 528 529
g roof
f 529 530 531
g roof
f 529 531 532
g roof
f 529 532 533
g roof
f 529 533 521
g roof
f 534 535 536
g roof
f 536 537 538
g roof
f 536 538 539
g roof
f 536 539 540
g roof
f 536 540 541
g roof
f 541 542 534
g roof
f 541 534 536
g roof
f 543 544 489
g roof
f 545 546 547
g roof
f 545 547 548
g roof
f 545 548 549
g roof
f 549 550 551
g roof
f 549 551 545
g roof
f 552 553 554
g roof
f 552 554 555
g roof
f 552 555 490
g roof
f 552 490 556
g roof
f 557 558 559
g roof
f 560 561 562
g roof
f 560 562 563
g roof
f 560 563 564
g roof
f 560 564 565
g roof
f 560 565 566
g roof
f 560 566 567
g roof
f 567 557 559
g roof
f 567 559 568
g roof
f 567 568 560
g roof
f 569 570 571
g roof
f 572 573 574
g roof
f 575 576 834 836 577
g roof
f 577 578 579
g roof
f 577 579 580
g roof
f 580 581 582
g roof
f 583 584 585
g roof
f 585 586 587
g roof
f 585 587 588
g roof
f 585 588 589
g roof
f 585 589 590
g roof
f 585 590 591
g roof
f 592 590 589
g roof
f 592 589 593
g roof
f 592 593 594
g roof
f 594 782 595 596
g roof
f 594 596 597
g roof
f 594 597 598
g roof
f 599 600 601
g roof
f 599 601 602
g roof
f 602 603 604
g roof
f 605 606 607
g roof
f 607 608 609
g roof
f 607 609 610
g roof
f 607 610 611
g roof
f 611 612 613
g roof
f 613 614 615
g roof
f 615 616 617
g roof
f 615 617 618
g roof
f 615 618 619
g roof
f 619 434 620
g roof
f 619 620 621
g roof
f 619 621 622
g roof
f 619 622 623
g roof
f 624 625 626
g roof
f 624 626 627
g roof
f 624 627 628
g roof
f 628 629 630
g roof
f 630 631 632
g roof
f 630 632 575
g roof
f 575 577 580
g roof
f 575 580 582
g roof
f 583 585 591
g roof
f 592 594 598
g roof
f 592 598 600
g roof
f 633 599 602
g roof
f 633 602 604
g roof
f 633 604 605
g roof
f 633 605 607
g roof
f 607 611 613
g roof
f 607 613 615
g roof
f 615 619 623
g roof
f 615 623 634
g roof
f 634 624 628
g roof
f 630 575 582
g roof
f 635 583 591
g roof
f 592 633 607
g roof
f 607 615 634
g roof
f 628 630 582
g roof
f 628 582 636
g roof
f 628 636 637
g roof
f 637 635 591
g roof
f 592 607 634
g roof
f 634 628 637
g roof
f 634 637 591
g roof
f 592 634 591
g roof
f 638 639 640
g roof
f 638 640 641
g roof
f 642 643 644
g roof
f 645 638 641
g roof
f 641 642 644
g roof
f 641 644 645
g roof
f 646 647 648
g roof
f 649 650 651
g roof
f 651 652 653
g roof
f 651 653 654
g roof
f 651 654 655
g roof
f 651 655 656
g roof
f 651 656 657
g roof
f 651 657 649
g roof
f 658 659 660
g roof
f 658 660 661
g roof
f 662 663 664
g roof
f 662 664 665
g roof
f 662 665 666
g roof
f 667 668 669
g roof
f 667 669 670
g roof
f 667 670 671
g roof
f 667 671 672
g roof
f 672 673 674
g roof
f 675 676 677
g roof
f 675 677 678
g roof
f 678 662 666
g roof
f 666 667 672
g roof
f 666 672 674
g roof
f 674 675 678
g roof
f 674 678 666
g roof
f 679 680 681
g roof
f 679 681 682
g roof
f 683 684 685
g roof
f 683 685 686
g roof
f 683 686 687
g roof
f 688 779 689 690
g roof
f 688 690 691
g roof
f 688 691 692
g roof
f 688 692 693 694
g roof
f 688 694 695
g roof
f 695 696 683
g roof
f 695 683 687
g roof
f 695 687 688
g roof
f 697 698 699
g roof
f 697 699 700
g roof
f 697 700 701
g roof
f 697 701 702
g roof
f 697 702 703
g roof
f 704 705 706
g roof
f 706 697 703
g roof
f 706 703 704
g roof
f 707 708 709
g roof
f 710 711 712
g roof
f 710 712 713
g roof
f 710 713 714
g roof
f 710 714 715
g roof
f 716 717 718
g roof
f 716 718 719
g roof
f 716 719 720
g roof
f 716 720 721
g roof_step_or_fixture_side
f 483 477 29 82
g roof_step_or_fixture_side
f 477 271 30 29
g roof_step_or_fixture_side
f 271 270 31 30
g roof_step_or_fixture_side
f 270 269 723 31
g roof_step_or_fixture_side
f 32 723 293 292
g roof_step_or_fixture_side
f 33 32 292 291
g roof_step_or_fixture_side
f 186 185 34 33
g roof_step_or_fixture_side
f 185 184 35 34
g facade_completed
f 41 35 725 726
g facade_completed
f 727 41 726 728
g facade_completed
f 42 727 728 729
g facade_completed
f 43 42 729 730
g facade_completed
f 85 43 730 731
g facade_completed
f 84 85 731 732
g facade_completed
f 44 84 732 733
g facade_completed
f 45 44 733 734
g facade_completed
f 46 45 734 735
g facade_completed
f 47 46 735 736
g roof_step_or_fixture_side
f 539 538 737 47
g roof_step_or_fixture_side
f 48 737 412 411
g roof_step_or_fixture_side
f 49 48 411 429
g roof_step_or_fixture_side
f 50 49 429 428
g roof_step_or_fixture_side
f 51 50 428 427
g roof_step_or_fixture_side
f 52 51 427 410
g roof_step_or_fixture_side
f 53 52 410 409
g roof_step_or_fixture_side
f 54 53 409 408
g roof_step_or_fixture_side
f 55 54 408 407
g roof_step_or_fixture_side
f 56 55 407 406
g roof_step_or_fixture_side
f 57 56 406 405
g roof_step_or_fixture_side
f 58 57 405 404
g roof_step_or_fixture_side
f 59 58 404 424
g roof_step_or_fixture_side
f 60 59 424 423
g roof_step_or_fixture_side
f 61 60 423 403
g roof_step_or_fixture_side
f 62 61 403 402
g roof_step_or_fixture_side
f 63 62 402 401
g roof_step_or_fixture_side
f 64 63 401 400
g roof_step_or_fixture_side
f 65 64 400 399
g roof_step_or_fixture_side
f 66 65 399 398
g roof_step_or_fixture_side
f 499 498 67 66
g roof_step_or_fixture_side
f 498 502 68 67
g roof_step_or_fixture_side
f 502 497 80 68
g roof_step_or_fixture_side
f 497 496 69 80
g roof_step_or_fixture_side
f 496 495 70 69
g roof_step_or_fixture_side
f 71 70 395 394
g roof_step_or_fixture_side
f 72 71 394 393
g roof_step_or_fixture_side
f 73 72 393 422
g roof_step_or_fixture_side
f 74 73 422 421
g roof_step_or_fixture_side
f 75 74 421 392
g roof_step_or_fixture_side
f 1 75 392 391
g roof_step_or_fixture_side
f 2 1 391 390
g roof_step_or_fixture_side
f 740 2 390 741
g roof_step_or_fixture_side
f 742 740 741 389
g roof_step_or_fixture_side
f 492 494 3 742
g roof_step_or_fixture_side
f 494 493 4 3
g roof_step_or_fixture_side
f 5 4 388 387
g roof_step_or_fixture_side
f 86 5 387 386
g roof_step_or_fixture_side
f 81 86 386 385
g roof_step_or_fixture_side
f 76 81 385 384
g roof_step_or_fixture_side
f 6 76 384 383
g roof_step_or_fixture_side
f 7 6 383 382
g roof_step_or_fixture_side
f 8 7 382 381
g roof_step_or_fixture_side
f 9 8 381 380
g roof_step_or_fixture_side
f 10 9 380 379
g roof_step_or_fixture_side
f 11 10 379 378
g roof_step_or_fixture_side
f 743 11 378 377
g roof_step_or_fixture_side
f 12 743 377 376
g roof_step_or_fixture_side
f 13 12 376 375
g roof_step_or_fixture_side
f 14 13 375 374
g roof_step_or_fixture_side
f 15 14 374 420
g roof_step_or_fixture_side
f 16 15 420 373
g roof_step_or_fixture_side
f 17 16 373 372
g roof_step_or_fixture_side
f 18 17 372 371
g roof_step_or_fixture_side
f 19 18 371 370
g roof_step_or_fixture_side
f 20 19 370 369
g roof_step_or_fixture_side
f 21 20 369 368
g roof_step_or_fixture_side
f 22 21 368 367
g roof_step_or_fixture_side
f 23 22 367 366
g roof_step_or_fixture_side
f 24 23 366 365
g roof_step_or_fixture_side
f 25 24 365 419
g roof_step_or_fixture_side
f 26 25 419 744
g roof_step_or_fixture_side
f 504 503 27 26
g roof_step_or_fixture_side
f 503 506 28 27
g roof_step_or_fixture_side
f 506 505 77 28
g roof_step_or_fixture_side
f 505 483 82 77
g roof_step_or_fixture_side
f 480 479 39 38
g roof_step_or_fixture_side
f 479 478 36 39
g roof_step_or_fixture_side
f 478 477 29 36
g roof_step_or_fixture_side
f 477 482 83 29
g roof_step_or_fixture_side
f 482 481 37 83
g roof_step_or_fixture_side
f 481 480 38 37
g roof_step_or_fixture_side
f 79 78 442 444
g roof_step_or_fixture_side
f 40 79 444 443
g roof_step_or_fixture_side
f 78 40 443 442
g roof_step_or_fixture_side
f 90 89 351 745
g roof_step_or_fixture_side
f 91 90 745 350
g roof_step_or_fixture_side
f 92 91 350 349
g roof_step_or_fixture_side
f 93 92 349 348
g roof_step_or_fixture_side
f 463 462 94 93
g roof_step_or_fixture_side
f 462 461 87 94
g roof_step_or_fixture_side
f 461 460 88 87
g roof_step_or_fixture_side
f 89 88 352 351
g roof_step_or_fixture_side
f 98 97 323 322
g roof_step_or_fixture_side
f 519 520 95 98
g roof_step_or_fixture_side
f 520 518 96 95
g roof_step_or_fixture_side
f 518 517 97 96
g roof_step_or_fixture_side
f 510 509 123 122
g roof_step_or_fixture_side
f 747 123 748 749
g roof_step_or_fixture_side
f 124 747 749 319
g roof_step_or_fixture_side
f 125 124 319 308
g roof_step_or_fixture_side
f 126 125 308 307
g roof_step_or_fixture_side
f 127 126 307 306
g roof_step_or_fixture_side
f 128 127 306 305
g roof_step_or_fixture_side
f 129 128 305 304
g roof_step_or_fixture_side
f 130 129 304 303
g roof_step_or_fixture_side
f 131 130 303 302
g roof_step_or_fixture_side
f 132 131 302 301
g roof_step_or_fixture_side
f 750 132 301 751
g roof_step_or_fixture_side
f 133 750 751 300
g facade_completed
f 99 133 300 752 753
g roof_step_or_fixture_side
f 653 652 491 100 99
g roof_step_or_fixture_side
f 491 490 101 100
g roof_step_or_fixture_side
f 490 489 107 101
g roof_step_or_fixture_side
f 489 544 113 107
g roof_step_or_fixture_side
f 544 543 114 113
g roof_step_or_fixture_side
f 115 114 754 341
g roof_step_or_fixture_side
f 121 115 341 340
g roof_step_or_fixture_side
f 122 121 340 339
g roof_step_or_fixture_side
f 556 490 101 106
g roof_step_or_fixture_side
f 490 555 102 101
g roof_step_or_fixture_side
f 555 554 103 102
g roof_step_or_fixture_side
f 554 553 104 103
g roof_step_or_fixture_side
f 553 552 105 104
g roof_step_or_fixture_side
f 552 556 106 105
g roof_step_or_fixture_side
f 545 551 111 110
g roof_step_or_fixture_side
f 551 550 112 111
g roof_step_or_fixture_side
f 550 549 135 112
g roof_step_or_fixture_side
f 549 548 134 135
g roof_step_or_fixture_side
f 548 547 108 134
g roof_step_or_fixture_side
f 547 546 109 108
g roof_step_or_fixture_side
f 546 545 110 109
g roof_step_or_fixture_side
f 118 117 449 448
g roof_step_or_fixture_side
f 119 118 448 447
g roof_step_or_fixture_side
f 120 119 447 446
g roof_step_or_fixture_side
f 116 120 446 445
g roof_step_or_fixture_side
f 117 116 445 449
g facade_completed
f 139 138 711 755 756 721
g roof_step_or_fixture_side
f 136 139 721 720 286
g roof_step_or_fixture_side
f 137 136 286
g roof_step_or_fixture_side
f 138 137 712 711
g roof_step_or_fixture_side
f 143 142 309 318
g roof_step_or_fixture_side
f 144 143 318 317
g roof_step_or_fixture_side
f 48 144 317 411
g roof_step_or_fixture_side
f 145 48 411 316
g roof_step_or_fixture_side
f 146 145 316 315
g roof_step_or_fixture_side
f 147 146 315 314
g roof_step_or_fixture_side
f 148 147 314 313
g roof_step_or_fixture_side
f 149 148 313 312
g roof_step_or_fixture_side
f 140 149 312 311
g roof_step_or_fixture_side
f 141 140 311 310
g roof_step_or_fixture_side
f 142 141 310 309
g facade_completed
f 757 151 758 759
g facade_completed
f 152 757 759 760
g facade_completed
f 180 152 760 761
g facade_completed
f 181 180 761 762
g facade_completed
f 763 181 762 764
g facade_completed
f 765 763 764 766
g facade_completed
f 767 765 766 768
g facade_completed
f 182 767 768 769
g facade_completed
f 183 182 769 770
g facade_completed
f 184 183 770 725 35
g roof_step_or_fixture_side
f 187 186 33 291 290
g roof_step_or_fixture_side
f 188 187 290
g roof_step_or_fixture_side
f 188 289 189
g roof_step_or_fixture_side
f 289 288 190 189
g roof_step_or_fixture_side
f 288 298 190
g roof_step_or_fixture_side
f 773 298 297
g roof_step_or_fixture_side
f 775 773 297 296
g roof_step_or_fixture_side
f 776 775 296 295
g roof_step_or_fixture_side
f 191 776 295 294
g roof_step_or_fixture_side
f 486 485 192 191
g roof_step_or_fixture_side
f 193 192 362 361
g roof_step_or_fixture_side
f 777 193 361 360
g roof_step_or_fixture_side
f 194 777 360 418
g roof_step_or_fixture_side
f 195 194 418 359
g roof_step_or_fixture_side
f 196 195 359 358
g roof_step_or_fixture_side
f 197 196 358 357
g roof_step_or_fixture_side
f 198 197 357 356
g roof_step_or_fixture_side
f 456 455 199 198
g roof_step_or_fixture_side
f 455 454 200 199
g roof_step_or_fixture_side
f 454 453 201 200
g roof_step_or_fixture_side
f 453 452 639 202 201
g roof_step_or_fixture_side
f 639 638 203 202
g roof_step_or_fixture_side
f 638 645 204 203
g roof_step_or_fixture_side
f 645 644 205 204
g roof_step_or_fixture_side
f 206 205 779 688
g roof_step_or_fixture_side
f 611 610 207 206
g roof_step_or_fixture_side
f 610 609 238 207
g roof_step_or_fixture_side
f 609 608 208 238
g roof_step_or_fixture_side
f 608 607 209 208
g roof_step_or_fixture_side
f 607 606 210 209
g roof_step_or_fixture_side
f 606 605 211 210
g roof_step_or_fixture_side
f 605 604 212 211
g roof_step_or_fixture_side
f 604 603 213 212
g roof_step_or_fixture_side
f 603 602 214 213
g roof_step_or_fixture_side
f 602 601 215 214
g roof_step_or_fixture_side
f 216 215 702 701
g roof_step_or_fixture_side
f 217 216 701 700
g roof_step_or_fixture_side
f 572 574 218 217
g roof_step_or_fixture_side
f 574 573 780 218
g roof_step_or_fixture_side
f 219 780 699 698
g roof_step_or_fixture_side
f 220 219 698 697
g roof_step_or_fixture_side
f 595 782 783 220
g roof_step_or_fixture_side
f 782 594 221 783
g roof_step_or_fixture_side
f 594 593 222 221
g roof_step_or_fixture_side
f 593 589 223 222
g roof_step_or_fixture_side
f 589 588 224 223
g roof_step_or_fixture_side
f 588 587 225 224
g roof_step_or_fixture_side
f 587 586 226 225
g roof_step_or_fixture_side
f 586 585 227 226
g roof_step_or_fixture_side
f 585 584 228 227
g roof_step_or_fixture_side
f 584 583 229 228
g roof_step_or_fixture_side
f 583 635 230 229
g roof_step_or_fixture_side
f 635 637 231 230
g roof_step_or_fixture_side
f 637 636 232 231
g roof_step_or_fixture_side
f 636 582 233 232
g roof_step_or_fixture_side
f 582 581 234 233
g roof_step_or_fixture_side
f 581 580 235 234
g roof_step_or_fixture_side
f 580 579 236 235
g roof_step_or_fixture_side
f 579 578 237 236
g roof_step_or_fixture_side
f 578 577 150 237
g facade_completed
f 151 150 785 758
g roof_step_or_fixture_side
f 157 156 682 681
g roof_step_or_fixture_side
f 242 157 681 680
g roof_step_or_fixture_side
f 241 242 680 679
g roof_step_or_fixture_side
f 156 241 679 682
g roof_step_or_fixture_side
f 165 164 671 670
g roof_step_or_fixture_side
f 166 165 670 669
g roof_step_or_fixture_side
f 563 562 167 166
g roof_step_or_fixture_side
f 562 561 168 167
g roof_step_or_fixture_side
f 561 560 169 168
g roof_step_or_fixture_side
f 560 568 170 169
g roof_step_or_fixture_side
f 568 559 171 170
g roof_step_or_fixture_side
f 559 558 172 171
g roof_step_or_fixture_side
f 558 557 173 172
g roof_step_or_fixture_side
f 557 567 174 173
g roof_step_or_fixture_side
f 175 174 664 663
g roof_step_or_fixture_side
f 176 175 663 662
g roof_step_or_fixture_side
f 177 176 662 678
g roof_step_or_fixture_side
f 178 177 678 677
g roof_step_or_fixture_side
f 159 178 677 676
g roof_step_or_fixture_side
f 160 159 676 675
g roof_step_or_fixture_side
f 161 160 675 674
g roof_step_or_fixture_side
f 162 161 674 673
g roof_step_or_fixture_side
f 163 162 673 672
g roof_step_or_fixture_side
f 164 163 672 671
g roof_step_or_fixture_side
f 570 569 153 240
g roof_step_or_fixture_side
f 569 571 239 153
g roof_step_or_fixture_side
f 571 570 240 239
g roof_step_or_fixture_side
f 155 154 661 660
g roof_step_or_fixture_side
f 158 155 660 659
g roof_step_or_fixture_side
f 179 158 659 658
g roof_step_or_fixture_side
f 154 179 658 661
g roof_step_or_fixture_side
f 566 565 245 244
g roof_step_or_fixture_side
f 246 245 668 667
g roof_step_or_fixture_side
f 247 246 667 666
g roof_step_or_fixture_side
f 243 247 666 665
g roof_step_or_fixture_side
f 174 243 665 664
g roof_step_or_fixture_side
f 567 566 244 174
g roof_step_or_fixture_side
f 565 564 248 245
g roof_step_or_fixture_side
f 564 563 166 248
g roof_step_or_fixture_side
f 245 166 669 668
g roof_step_or_fixture_side
f 633 592 252 251
g roof_step_or_fixture_side
f 592 600 249 252
g roof_step_or_fixture_side
f 600 599 250 249
g roof_step_or_fixture_side
f 599 633 251 250
g roof_step_or_fixture_side
f 592 591 253 252
g roof_step_or_fixture_side
f 591 590 254 253
g roof_step_or_fixture_side
f 590 592 252 254
g roof_step_or_fixture_side
f 576 575 255 257
g roof_step_or_fixture_side
f 575 632 256 255
g facade_completed
f 257 256 787 788
g roof_step_or_fixture_side
f 634 623 261 260
g roof_step_or_fixture_side
f 623 622 262 261
g roof_step_or_fixture_side
f 622 621 263 262
g roof_step_or_fixture_side
f 621 620 264 263
g roof_step_or_fixture_side
f 265 264 718 717
g facade_completed
f 266 265 717 790 791
g roof_step_or_fixture_side
f 628 627 267 266
g roof_step_or_fixture_side
f 627 626 268 267
g roof_step_or_fixture_side
f 626 625 258 268
g roof_step_or_fixture_side
f 625 624 259 258
g roof_step_or_fixture_side
f 624 634 260 259
g roof_step_or_fixture_side
f 269 191 294 293 723
g roof_step_or_fixture_side
f 271 486 191
g roof_step_or_fixture_side
f 433 274 273
g roof_step_or_fixture_side
f 275 274 432
g roof_step_or_fixture_side
f 276 275 432 431
g roof_step_or_fixture_side
f 277 276 431 430
g roof_step_or_fixture_side
f 278 277 430 441
g roof_step_or_fixture_side
f 279 278 441 440
g roof_step_or_fixture_side
f 468 280 279
g roof_step_or_fixture_side
f 656 655 281 280
g facade_completed
f 282 281 794 795 715
g roof_step_or_fixture_side
f 283 282 715 714
g roof_step_or_fixture_side
f 284 283 714 713
g roof_step_or_fixture_side
f 648 647 285 284
g roof_step_or_fixture_side
f 647 646 137 285
g roof_step_or_fixture_side
f 287 286 720 719
g roof_step_or_fixture_side
f 264 287 719 718
g roof_step_or_fixture_side
f 620 434 272 264
g roof_step_or_fixture_side
f 434 433 273 272
g roof_step_or_fixture_side
f 484 483 82 364 363
g roof_step_or_fixture_side
f 483 504 26 744 364 82
g roof_step_or_fixture_side
f 493 492 742 389 388 4
g roof_step_or_fixture_side
f 495 501 396 395 70
g roof_step_or_fixture_side
f 501 500 397 396
g roof_step_or_fixture_side
f 500 499 66 398 397
g roof_step_or_fixture_side
f 538 537 413 412 737
g roof_step_or_fixture_side
f 537 536 414 413
g roof_step_or_fixture_side
f 536 535 415 414
g roof_step_or_fixture_side
f 535 534 416 415
g roof_step_or_fixture_side
f 534 542 299 416
g facade_completed
f 803 299 804 805
g facade_completed
f 806 803 805 807
g facade_completed
f 808 806 807 809
g facade_completed
f 300 808 809 752
g roof_step_or_fixture_side
f 509 508 320 748 123
g roof_step_or_fixture_side
f 508 507 321 320
g roof_step_or_fixture_side
f 507 519 98 322 321
g roof_step_or_fixture_side
f 517 516 334 323 97
g roof_step_or_fixture_side
f 516 810 335 334
g roof_step_or_fixture_side
f 810 515 336 335
g roof_step_or_fixture_side
f 515 514 426 336
g roof_step_or_fixture_side
f 514 513 425 426
g roof_step_or_fixture_side
f 513 512 337 425
g roof_step_or_fixture_side
f 512 511 338 337
g roof_step_or_fixture_side
f 511 510 122 339 338
g roof_step_or_fixture_side
f 543 489 107 342 754 114
g roof_step_or_fixture_side
f 489 488 343 342 107
g roof_step_or_fixture_side
f 488 487 344 343
g roof_step_or_fixture_side
f 650 649 466 345 344 487
g roof_step_or_fixture_side
f 466 465 346 345
g roof_step_or_fixture_side
f 465 464 347 346
g roof_step_or_fixture_side
f 464 463 93 348 347
g roof_step_or_fixture_side
f 460 459 353 352 88
g roof_step_or_fixture_side
f 459 458 354 353
g roof_step_or_fixture_side
f 458 457 355 354
g roof_step_or_fixture_side
f 457 456 198 356 355
g roof_step_or_fixture_side
f 485 484 363 362 192
g roof_step_or_fixture_side
f 533 532 51 427 330
g roof_step_or_fixture_side
f 532 531 417 427 51
g roof_step_or_fixture_side
f 531 530 331 417
g roof_step_or_fixture_side
f 530 529 332 331
g roof_step_or_fixture_side
f 529 528 333 332
g roof_step_or_fixture_side
f 528 527 815 333
g roof_step_or_fixture_side
f 527 526 324 815
g roof_step_or_fixture_side
f 526 525 325 324
g roof_step_or_fixture_side
f 525 524 326 325
g roof_step_or_fixture_side
f 524 523 327 326
g roof_step_or_fixture_side
f 523 522 328 327
g roof_step_or_fixture_side
f 522 521 329 328
g roof_step_or_fixture_side
f 521 533 330 329
g roof_step_or_fixture_side
f 435 434 272 693 692
g roof_step_or_fixture_side
f 436 435 692 691
g roof_step_or_fixture_side
f 437 436 691 690
g roof_step_or_fixture_side
f 472 471 438 437
g roof_step_or_fixture_side
f 471 470 469 817 439 438
g roof_step_or_fixture_side
f 469 468 279 440 817 439
g roof_step_or_fixture_side
f 487 491 100 450 344
g roof_step_or_fixture_side
f 652 651 451 450 100 491
g roof_step_or_fixture_side
f 651 650 487 344 451
g roof_step_or_fixture_side
f 649 657 467 466
g roof_step_or_fixture_side
f 657 656 280 467
g roof_step_or_fixture_side
f 473 472 437 690 689 643
g roof_step_or_fixture_side
f 474 473 643 642
g roof_step_or_fixture_side
f 475 474 642 641
g roof_step_or_fixture_side
f 476 475 641 640
g roof_step_or_fixture_side
f 452 476 640 639
g facade_completed
f 540 539 47 736 829
g facade_completed
f 541 540 829 830
g facade_completed
f 542 541 830 804 299
g roof_step_or_fixture_side
f 573 572 217 700 699 780
g roof_step_or_fixture_side
f 616 615 684 683
g roof_step_or_fixture_side
f 617 616 683 696
g roof_step_or_fixture_side
f 618 617 696 695
g roof_step_or_fixture_side
f 619 618 695 694
g roof_step_or_fixture_side
f 434 619 694 693 272
g facade_completed
f 629 628 266 791 832 709
g roof_step_or_fixture_side
f 630 629 709 708
g roof_step_or_fixture_side
f 631 630 708 707
g facade_completed
f 632 631 707 833 787 256
g facade_completed
f 834 576 257 788 835
g facade_completed
f 836 834 835 837
g facade_completed
f 577 836 837 785 150
g roof_step_or_fixture_side
f 596 595 220 697 706
g roof_step_or_fixture_side
f 597 596 706 705
g roof_step_or_fixture_side
f 598 597 705 704
g roof_step_or_fixture_side
f 600 598 704 703 249
g roof_step_or_fixture_side
f 601 600 249 703 702 215
g roof_step_or_fixture_side
f 612 611 206 688 687
g roof_step_or_fixture_side
f 613 612 687 686
g roof_step_or_fixture_side
f 614 613 686 685
g roof_step_or_fixture_side
f 615 614 685 684
g roof_step_or_fixture_side
f 644 643 689 779 205
g roof_step_or_fixture_side
f 646 648 284 713 712 137
g facade_completed
f 654 653 99 753 841
g facade_completed
f 655 654 841 794 281
g facade_completed
f 707 709 832 833
g facade_completed
f 710 715 795 847
g facade_completed
f 711 710 847 755
g facade_completed
f 716 721 756 849
g facade_completed
f 717 716 849 790
g ground_assumed
f 785 759 758
g ground_assumed
f 785 760 759
g ground_assumed
f 785 761 760
g ground_assumed
f 761 764 762
g ground_assumed
f 761 766 764
g ground_assumed
f 761 768 766
g ground_assumed
f 761 769 768
g ground_assumed
f 761 770 769
g ground_assumed
f 761 725 770
g ground_assumed
f 761 726 725
g ground_assumed
f 761 728 726
g ground_assumed
f 761 729 728
g ground_assumed
f 761 730 729
g ground_assumed
f 761 731 730
g ground_assumed
f 761 732 731
g ground_assumed
f 761 733 732
g ground_assumed
f 761 734 733
g ground_assumed
f 761 735 734
g ground_assumed
f 761 736 735
g ground_assumed
f 761 829 736
g ground_assumed
f 761 830 829
g ground_assumed
f 761 804 830
g ground_assumed
f 761 805 804
g ground_assumed
f 761 807 805
g ground_assumed
f 761 809 807
g ground_assumed
f 761 752 809
g ground_assumed
f 761 753 752
g ground_assumed
f 761 841 753
g ground_assumed
f 761 794 841
g ground_assumed
f 761 795 794
g ground_assumed
f 761 847 795
g ground_assumed
f 761 755 847
g ground_assumed
f 761 756 755
g ground_assumed
f 761 849 756
g ground_assumed
f 761 790 849
g ground_assumed
f 761 791 790
g ground_assumed
f 761 832 791
g ground_assumed
f 761 833 832
g ground_assumed
f 761 787 833
g ground_assumed
f 761 788 787
g ground_assumed
f 761 835 788
g ground_assumed
f 761 837 835
g ground_assumed
f 761 785 837
