# Source coordinates; no display transform
v 0.159659477344 -0.498887931604 0.0636159534423
v 0.161903778682 0.498570416672 0.0635473221723
v -0.159231101554 0.499292976618 0.063404010483
v -0.161475402856 -0.498165371658 0.063472641753
v -0.159231101554 0.499292976618 -0.0621584888445
v -0.161475402856 -0.498165371658 -0.0621584888445
v 0.159659477344 -0.498887931604 -0.0621584888445
v 0.161903778682 0.498570416672 -0.0621584888445
g roof
f 1 2 3
g roof
f 1 3 4
g facade_completed
f 4 3 5 6
g facade_completed
f 1 4 6 7
g facade_completed
f 2 1 7 8
g facade_completed
f 3 2 8 5
g ground_assumed
f 8 6 5
g ground_assumed
f 8 7 6
