# pointcloud_to_mesh 0.5.1; candidate requires geometry validation; coordinates preserved
v 4.503618244 -13.996868636 1.699337199
v 4.566543947 13.969860572 1.697412916
v -4.437433262 13.990119702 1.693394744
v -4.500358964 -13.976609506 1.695319027
v -4.437433262 13.990119702 -1.827125610
v -4.500358964 -13.976609506 -1.827125610
v 4.503618244 -13.996868636 -1.827125610
v 4.566543947 13.969860572 -1.827125610
g roof
f 1 2 3
g roof
f 1 3 4
g facade_completed
f 4 3 5 6
g facade_completed
f 1 4 6 7
g facade_completed
f 2 1 7 8
g facade_completed
f 3 2 8 5
g ground_assumed
f 8 6 5
g ground_assumed
f 8 7 6
