v 0.15965947734420466 -0.49888793160372918 0.063615953442260786
v 0.16190377868211511 0.49857041667238855 0.063547322172278514
v -0.15923110155392869 0.49929297661842365 0.063404010483006562
v -0.16147540285617326 -0.49816537165769409 0.063472641752988862
v -0.15923110155392869 0.49929297661842365 -0.062158488844544148
v -0.16147540285617326 -0.49816537165769409 -0.062158488844544148
v 0.15965947734420466 -0.49888793160372918 -0.062158488844544148
v 0.16190377868211511 0.49857041667238855 -0.062158488844544148
l 1 2
l 2 3
l 3 4
l 1 4
l 3 5
l 5 6
l 4 6
l 6 7
l 1 7
l 7 8
l 2 8
l 5 8
